{
 "cells": [
  {
   "cell_type": "code",
   "execution_count": 1,
   "metadata": {
    "collapsed": true
   },
   "outputs": [],
   "source": [
    "from fractions import gcd\n",
    "import midi\n",
    "import os.path\n",
    "import sys"
   ]
  },
  {
   "cell_type": "markdown",
   "metadata": {},
   "source": [
    "# Class Music Pattern"
   ]
  },
  {
   "cell_type": "code",
   "execution_count": 2,
   "metadata": {
    "collapsed": true
   },
   "outputs": [],
   "source": [
    "class MusicPattern():\n",
    "    \"\"\"\n",
    "    This class represents a musical pattern and provides\n",
    "    method to convert it across midi, lisp and prim format\n",
    "    \"\"\"\n",
    "    def __init__(self, midiFile=None):\n",
    "        if midiFile is not None:\n",
    "            self.read(midiFile)\n",
    "\n",
    "    def read(self, midiFile):\n",
    "        self.midiFile    = midiFile\n",
    "        self.midiPattern = midi.read_midifile(midiFile)\n",
    "\n",
    "        self.trackIdx = []\n",
    "        self.channels = []\n",
    "        for trackNum, midiTrack in enumerate(self.midiPattern):\n",
    "            isTrack = False\n",
    "            for midiEvent in midiTrack:\n",
    "                if type(midiEvent) == midi.events.NoteOnEvent:\n",
    "                    isTrack = True\n",
    "                    self.channels.append(midiEvent.channel)\n",
    "                    break\n",
    "            if isTrack:\n",
    "                self.trackIdx.append(trackNum)\n",
    "\n",
    "        self.numTracks   = len(self.trackIdx)\n",
    "        self.lispTracks  = []\n",
    "        print \"Loaded %s\" % midiFile\n",
    "\n",
    "    def midiToLisp(self):\n",
    "        lispTracks = []\n",
    "        for midiTrackId, midiTrack in enumerate(self.midiPattern):\n",
    "            if midiTrackId not in self.trackIdx: continue\n",
    "\n",
    "            lispTrack = []\n",
    "            for eventNum, event in enumerate(midiTrack):\n",
    "                if type(event)                 == midi.events.NoteOnEvent and \\\n",
    "                   type(midiTrack[eventNum+1]) == midi.events.NoteOffEvent:\n",
    "                    # If not a silence, add (pitch, dur)\n",
    "                    if event.tick == 0:\n",
    "                        pitch  = event.data[0]\n",
    "                        dur    = midiTrack[eventNum+1].tick - event.tick\n",
    "                        notes  = [(pitch, dur)]\n",
    "\n",
    "                    # Otherwise add silence and next note\n",
    "                    else:\n",
    "                        notes = [(\"silence\", event.tick)]\n",
    "                        pitch = midiTrack[eventNum+1].data[0]\n",
    "                        dur   = midiTrack[eventNum+1].tick\n",
    "                        notes += [(pitch, dur)]\n",
    "\n",
    "                    # Add generated notes to track\n",
    "                    lispTrack += notes\n",
    "            lispTracks.append(lispTrack)\n",
    "        self.lispTracks = lispTracks\n",
    "\n",
    "    def lispToPrim(self):\n",
    "        self.primTracks, self.rythmUnits = [], []\n",
    "        for lispTrackNum, lispTrack in enumerate(self.lispTracks):\n",
    "            min_duration = 0\n",
    "            durations = [lispTrack[i][1] for i in range(len(lispTrack))]\n",
    "            self.rythmUnits.append(reduce(gcd, durations))\n",
    "\n",
    "            for noteNum, note in enumerate(lispTrack):\n",
    "                assert(note[1] % self.rythmUnits[-1] == 0)\n",
    "\n",
    "            primTrack = [(note[0],True) if (i < note[1]/self.rythmUnits[-1] - 1) else (note[0],False) \\\n",
    "                              for note in lispTrack for i in range(note[1]/self.rythmUnits[-1])]\n",
    "            self.primTracks.append(primTrack)\n",
    "\n",
    "    def primToLisp(self):\n",
    "        lispTracks = []\n",
    "        for trackNum, primTrack in enumerate(self.primTracks):\n",
    "            lispTrack = []\n",
    "            if primTrack:\n",
    "                i = 0\n",
    "                while i < len(primTrack):\n",
    "                    note = [primTrack[i][0], self.rythmUnits[trackNum]]\n",
    "                    while primTrack[i][1]:\n",
    "                        note[1] += self.rythmUnits[trackNum]\n",
    "                        i += 1\n",
    "                    i+=1\n",
    "                    lispTrack.append(tuple(note))\n",
    "            lispTracks.append(lispTrack)\n",
    "\n",
    "        self.reconstructedTracks = lispTracks\n",
    "\n",
    "    def lispToMidi(self, lispTracks=None):\n",
    "        midiPatternOut = midi.containers.Pattern()\n",
    "        if self.midiPattern is not None:\n",
    "            # copy pattern metadata\n",
    "            midiPatternOut.format     = self.midiPattern.format\n",
    "            midiPatternOut.resolution = self.midiPattern.resolution\n",
    "\n",
    "        # Create tracks\n",
    "        if lispTracks is None: lispTracks = self.reconstructedTracks\n",
    "        midiTracksOut = []\n",
    "        for trackNum, _ in enumerate(self.midiPattern):\n",
    "            if trackNum in self.trackIdx:\n",
    "                midiPatternOut.append(midi.containers.Track())\n",
    "                midiTracksOut.append([])\n",
    "            else:\n",
    "                midiPatternOut.append(self.midiPattern[trackNum])\n",
    "            \n",
    "\n",
    "        # Generate tracks' NoteOnEvents and NoteOffEvents\n",
    "        for lispTrackId, lispTrack in enumerate(lispTracks):\n",
    "            noteNumAfterSilence = -1\n",
    "            for noteNum, note in enumerate(lispTrack):\n",
    "                if note[0] == \"silence\":\n",
    "                    NoteOnEvent = midi.events.NoteOnEvent(tick=note[1], \\\n",
    "                                                          channel=self.channels[lispTrackId], \\\n",
    "                                                          data=[lispTrack[noteNum+1][0], 80])\n",
    "\n",
    "                    NoteOffEvent = midi.events.NoteOffEvent(tick=lispTrack[noteNum+1][1], \\\n",
    "                                                            channel=self.channels[lispTrackId], \\\n",
    "                                                            data=[lispTrack[noteNum+1][0], 0])\n",
    "\n",
    "                    midiTracksOut[lispTrackId] += [NoteOnEvent, NoteOffEvent]\n",
    "                    noteNumAfterSilence = noteNum+1\n",
    "\n",
    "                elif noteNum != noteNumAfterSilence:\n",
    "                    NoteOnEvent = midi.events.NoteOnEvent(tick=0, \\\n",
    "                                                          channel=self.channels[lispTrackId], \\\n",
    "                                                          data=[note[0], 80])\n",
    "                    NoteOffEvent = midi.events.NoteOffEvent(tick=note[1], \\\n",
    "                                                            channel=self.channels[lispTrackId], \\\n",
    "                                                            data=[note[0], 0])\n",
    "                    midiTracksOut[lispTrackId] += [NoteOnEvent, NoteOffEvent]\n",
    "\n",
    "        # Add tracks to midiPattern\n",
    "        realTrackIdx = -1\n",
    "        if self.midiPattern is not None:\n",
    "            for midiTrackId, midiTrack in enumerate(self.midiPattern):\n",
    "                if midiTrackId not in self.trackIdx: continue\n",
    "                realTrackIdx+= 1\n",
    "                for eventNum, event in enumerate(midiTrack):\n",
    "                    if type(event) not in [midi.events.NoteOnEvent, midi.events.NoteOffEvent]:\n",
    "                        midiPatternOut[midiTrackId].append(event)\n",
    "                    elif type(midiTrack[eventNum-1]) not in \\\n",
    "                    [midi.events.NoteOnEvent, midi.events.NoteOffEvent]:\n",
    "                        midiPatternOut[midiTrackId].extend(midiTracksOut[realTrackIdx])\n",
    "\n",
    "        else:\n",
    "            for midiTrackId, midiTrack in enumerate(midiTracksOut):\n",
    "                midiPatternOut[midiTrackId].extend(midiTracksOut[midiTrackId])\n",
    "            midiPatternOut[0].append(midi.EndOfTrackEvent(tick=1))\n",
    "        \n",
    "        self.midiPatternOut = midiPatternOut\n",
    "\n",
    "        # Write file\n",
    "    def write(self, fileName=None):\n",
    "        if fileName is None:\n",
    "            i = 1\n",
    "            while os.path.isfile(self.midiFile[0:-4] + str(i) + \".mid\"):\n",
    "                i += 1\n",
    "            fileName = self.midiFile[0:-4] + str(i) + \".mid\"\n",
    "\n",
    "        midi.write_midifile(fileName, self.midiPatternOut)\n",
    "        print \"Wrote %s\" % fileName\n",
    "        print self.midiPatternOut == self.midiPattern\n",
    "\n",
    "    def window(self, window, trackNum=0):\n",
    "        (start, end) = window\n",
    "        assert(0 <= trackNum and trackNum < self.numTracks)\n",
    "        primTrack = self.primTracks[trackNum]\n",
    "        assert (2 <= start and end < len(primTrack)-2)\n",
    "\n",
    "        windowedTrack = list(primTrack)\n",
    "        for i in range(start, end+1):\n",
    "            windowedTrack[i] = (None, None)\n",
    "        return windowedTrack\n",
    "\n",
    "    def getCorrupt(self, window, trackNum=0):\n",
    "        return self.rythmUnits[trackNum], self.window(window, trackNum)\n",
    "    \n",
    "    def getMidiPatternOut(self):\n",
    "        return self.midiPatternOut"
   ]
  },
  {
   "cell_type": "code",
   "execution_count": 106,
   "metadata": {},
   "outputs": [
    {
     "name": "stdout",
     "output_type": "stream",
     "text": [
      "Loaded /Users/robin/Desktop/CS221_projet/Open_MIDI_file/chor_armure.mid\n",
      "Wrote /Users/robin/Desktop/CS221_projet/Open_MIDI_file/chor_armure6.mid\n",
      "False\n",
      "original\n",
      "midi.Pattern(format=1, resolution=384, tracks=\\\n",
      "[midi.Track(\\\n",
      "  [midi.TimeSignatureEvent(tick=0, data=[2, 2, 96, 8]),\n",
      "   midi.SequencerSpecificEvent(tick=0, data=[0, 0, 65]),\n",
      "   midi.SetTempoEvent(tick=0, data=[10, 44, 42]),\n",
      "   midi.SetTempoEvent(tick=153600, data=[10, 44, 42]),\n",
      "   midi.SetTempoEvent(tick=28, data=[10, 73, 109]),\n",
      "   midi.SetTempoEvent(tick=28, data=[10, 103, 90]),\n",
      "   midi.SetTempoEvent(tick=28, data=[10, 133, 247]),\n",
      "   midi.SetTempoEvent(tick=28, data=[10, 165, 74]),\n",
      "   midi.SetTempoEvent(tick=28, data=[10, 197, 90]),\n",
      "   midi.SetTempoEvent(tick=28, data=[10, 230, 45]),\n",
      "   midi.SetTempoEvent(tick=28, data=[11, 7, 203]),\n",
      "   midi.SetTempoEvent(tick=28, data=[11, 42, 59]),\n",
      "   midi.SetTempoEvent(tick=28, data=[11, 77, 132]),\n",
      "   midi.SetTempoEvent(tick=28, data=[11, 113, 176]),\n",
      "   midi.SetTempoEvent(tick=28, data=[11, 150, 197]),\n",
      "   midi.SetTempoEvent(tick=28, data=[11, 188, 206]),\n",
      "   midi.SetTempoEvent(tick=28, data=[11, 227, 212]),\n",
      "   midi.SetTempoEvent(tick=28, data=[12, 11, 225]),\n",
      "   midi.SetTempoEvent(tick=28, data=[12, 53, 0]),\n",
      "   midi.SetTempoEvent(tick=28, data=[12, 95, 58]),\n",
      "   midi.SetTempoEvent(tick=28, data=[12, 138, 157]),\n",
      "   midi.SetTempoEvent(tick=28, data=[12, 183, 53]),\n",
      "   midi.SetTempoEvent(tick=28, data=[12, 229, 14]),\n",
      "   midi.SetTempoEvent(tick=28, data=[13, 20, 54]),\n",
      "   midi.SetTempoEvent(tick=28, data=[13, 68, 189]),\n",
      "   midi.SetTempoEvent(tick=28, data=[13, 118, 176]),\n",
      "   midi.SetTempoEvent(tick=28, data=[13, 170, 34]),\n",
      "   midi.SetTempoEvent(tick=28, data=[13, 223, 34]),\n",
      "   midi.SetTempoEvent(tick=28, data=[14, 21, 196]),\n",
      "   midi.SetTempoEvent(tick=28, data=[14, 78, 28]),\n",
      "   midi.SetTempoEvent(tick=28, data=[14, 136, 60]),\n",
      "   midi.SetTempoEvent(tick=28, data=[14, 196, 61]),\n",
      "   midi.SetTempoEvent(tick=28, data=[15, 2, 54]),\n",
      "   midi.SetTempoEvent(tick=28, data=[15, 66, 64]),\n",
      "   midi.SetTempoEvent(tick=28, data=[15, 132, 117]),\n",
      "   midi.SetTempoEvent(tick=28, data=[15, 200, 242]),\n",
      "   midi.SetTempoEvent(tick=28, data=[16, 15, 215]),\n",
      "   midi.SetTempoEvent(tick=28, data=[16, 89, 68]),\n",
      "   midi.SetTempoEvent(tick=28, data=[16, 165, 93]),\n",
      "   midi.SetTempoEvent(tick=28, data=[16, 244, 71]),\n",
      "   midi.SetTempoEvent(tick=28, data=[17, 70, 43]),\n",
      "   midi.SetTempoEvent(tick=28, data=[17, 155, 54]),\n",
      "   midi.SetTempoEvent(tick=28, data=[17, 243, 150]),\n",
      "   midi.SetTempoEvent(tick=28, data=[18, 79, 128]),\n",
      "   midi.SetTempoEvent(tick=28, data=[18, 175, 41]),\n",
      "   midi.SetTempoEvent(tick=28, data=[19, 18, 208]),\n",
      "   midi.SetTempoEvent(tick=28, data=[19, 122, 179]),\n",
      "   midi.SetTempoEvent(tick=28, data=[19, 231, 27]),\n",
      "   midi.SetTempoEvent(tick=28, data=[20, 88, 85]),\n",
      "   midi.SetTempoEvent(tick=28, data=[20, 206, 180]),\n",
      "   midi.SetTempoEvent(tick=28, data=[21, 74, 148]),\n",
      "   midi.SetTempoEvent(tick=28, data=[21, 204, 91]),\n",
      "   midi.SetTempoEvent(tick=28, data=[22, 84, 118]),\n",
      "   midi.SetTempoEvent(tick=28, data=[22, 227, 96]),\n",
      "   midi.EndOfTrackEvent(tick=0, data=[])]),\n",
      " midi.Track(\\\n",
      "  [midi.TrackNameEvent(tick=0, text='Tromba I', data=[84, 114, 111, 109, 98, 97, 32, 73]),\n",
      "   midi.ControlChangeEvent(tick=0, channel=0, data=[0, 0]),\n",
      "   midi.ProgramChangeEvent(tick=0, channel=0, data=[56]),\n",
      "   midi.ControlChangeEvent(tick=0, channel=0, data=[7, 127]),\n",
      "   midi.ControlChangeEvent(tick=0, channel=0, data=[10, 61]),\n",
      "   midi.ControlChangeEvent(tick=0, channel=0, data=[91, 127]),\n",
      "   midi.ControlChangeEvent(tick=0, channel=0, data=[93, 127]),\n",
      "   midi.KeySignatureEvent(tick=0, data=[2, 0]),\n",
      "   midi.NoteOnEvent(tick=768, channel=0, data=[78, 100]),\n",
      "   midi.NoteOffEvent(tick=96, channel=0, data=[78, 64]),\n",
      "   midi.NoteOnEvent(tick=0, channel=0, data=[79, 100]),\n",
      "   midi.NoteOffEvent(tick=96, channel=0, data=[79, 64]),\n",
      "   midi.NoteOnEvent(tick=0, channel=0, data=[81, 100]),\n",
      "   midi.NoteOffEvent(tick=96, channel=0, data=[81, 64]),\n",
      "   midi.NoteOnEvent(tick=96, channel=0, data=[81, 100]),\n",
      "   midi.NoteOffEvent(tick=96, channel=0, data=[81, 64]),\n",
      "   midi.NoteOnEvent(tick=96, channel=0, data=[81, 100]),\n",
      "   midi.NoteOffEvent(tick=96, channel=0, data=[81, 64]),\n",
      "   midi.NoteOnEvent(tick=96, channel=0, data=[81, 100]),\n",
      "   midi.NoteOffEvent(tick=384, channel=0, data=[81, 64]),\n",
      "   midi.NoteOnEvent(tick=192, channel=0, data=[69, 100]),\n",
      "   midi.NoteOffEvent(tick=192, channel=0, data=[69, 64]),\n",
      "   midi.NoteOnEvent(tick=0, channel=0, data=[74, 100]),\n",
      "   midi.NoteOffEvent(tick=48, channel=0, data=[74, 64]),\n",
      "   midi.NoteOnEvent(tick=0, channel=0, data=[76, 100]),\n",
      "   midi.NoteOffEvent(tick=48, channel=0, data=[76, 64]),\n",
      "   midi.NoteOnEvent(tick=0, channel=0, data=[78, 100]),\n",
      "   midi.NoteOffEvent(tick=256, channel=0, data=[78, 64]),\n",
      "   midi.NoteOnEvent(tick=32, channel=0, data=[76, 100]),\n",
      "   midi.NoteOffEvent(tick=48, channel=0, data=[76, 64]),\n",
      "   midi.NoteOnEvent(tick=0, channel=0, data=[78, 100]),\n",
      "   midi.NoteOffEvent(tick=48, channel=0, data=[78, 64]),\n",
      "   midi.NoteOnEvent(tick=0, channel=0, data=[79, 100]),\n",
      "   midi.NoteOffEvent(tick=256, channel=0, data=[79, 64]),\n",
      "   midi.NoteOnEvent(tick=32, channel=0, data=[78, 100]),\n",
      "   midi.NoteOffEvent(tick=48, channel=0, data=[78, 64]),\n",
      "   midi.NoteOnEvent(tick=0, channel=0, data=[76, 100]),\n",
      "   midi.NoteOffEvent(tick=48, channel=0, data=[76, 64]),\n",
      "   midi.NoteOnEvent(tick=0, channel=0, data=[74, 100]),\n",
      "   midi.NoteOffEvent(tick=352, channel=0, data=[74, 64]),\n",
      "   midi.NoteOnEvent(tick=32, channel=0, data=[69, 100]),\n",
      "   midi.NoteOffEvent(tick=96, channel=0, data=[69, 64]),\n",
      "   midi.NoteOnEvent(tick=0, channel=0, data=[74, 100]),\n",
      "   midi.NoteOffEvent(tick=96, channel=0, data=[74, 64]),\n",
      "   midi.NoteOnEvent(tick=0, channel=0, data=[76, 100]),\n",
      "   midi.NoteOffEvent(tick=96, channel=0, data=[76, 64]),\n",
      "   midi.NoteOnEvent(tick=0, channel=0, data=[78, 100]),\n",
      "   midi.NoteOffEvent(tick=96, channel=0, data=[78, 64]),\n",
      "   midi.NoteOnEvent(tick=0, channel=0, data=[79, 100]),\n",
      "   midi.NoteOffEvent(tick=96, channel=0, data=[79, 64]),\n",
      "   midi.NoteOnEvent(tick=0, channel=0, data=[81, 100]),\n",
      "   midi.NoteOffEvent(tick=96, channel=0, data=[81, 64]),\n",
      "   midi.NoteOnEvent(tick=96, channel=0, data=[81, 100]),\n",
      "   midi.NoteOffEvent(tick=96, channel=0, data=[81, 64]),\n",
      "   midi.NoteOnEvent(tick=96, channel=0, data=[81, 100]),\n",
      "   midi.NoteOffEvent(tick=96, channel=0, data=[81, 64]),\n",
      "   midi.NoteOnEvent(tick=96, channel=0, data=[81, 100]),\n",
      "   midi.NoteOffEvent(tick=384, channel=0, data=[81, 64]),\n",
      "   midi.NoteOnEvent(tick=192, channel=0, data=[69, 100]),\n",
      "   midi.NoteOffEvent(tick=192, channel=0, data=[69, 64]),\n",
      "   midi.NoteOnEvent(tick=0, channel=0, data=[74, 100]),\n",
      "   midi.NoteOffEvent(tick=48, channel=0, data=[74, 64]),\n",
      "   midi.NoteOnEvent(tick=0, channel=0, data=[76, 100]),\n",
      "   midi.NoteOffEvent(tick=48, channel=0, data=[76, 64]),\n",
      "   midi.NoteOnEvent(tick=0, channel=0, data=[78, 100]),\n",
      "   midi.NoteOffEvent(tick=256, channel=0, data=[78, 64]),\n",
      "   midi.NoteOnEvent(tick=32, channel=0, data=[76, 100]),\n",
      "   midi.NoteOffEvent(tick=48, channel=0, data=[76, 64]),\n",
      "   midi.NoteOnEvent(tick=0, channel=0, data=[78, 100]),\n",
      "   midi.NoteOffEvent(tick=48, channel=0, data=[78, 64]),\n",
      "   midi.NoteOnEvent(tick=0, channel=0, data=[79, 100]),\n",
      "   midi.NoteOffEvent(tick=256, channel=0, data=[79, 64]),\n",
      "   midi.NoteOnEvent(tick=32, channel=0, data=[78, 100]),\n",
      "   midi.NoteOffEvent(tick=48, channel=0, data=[78, 64]),\n",
      "   midi.NoteOnEvent(tick=0, channel=0, data=[76, 100]),\n",
      "   midi.NoteOffEvent(tick=48, channel=0, data=[76, 64]),\n",
      "   midi.NoteOnEvent(tick=0, channel=0, data=[74, 100]),\n",
      "   midi.NoteOffEvent(tick=352, channel=0, data=[74, 64]),\n",
      "   midi.NoteOnEvent(tick=32, channel=0, data=[69, 100]),\n",
      "   midi.NoteOffEvent(tick=96, channel=0, data=[69, 64]),\n",
      "   midi.NoteOnEvent(tick=0, channel=0, data=[74, 100]),\n",
      "   midi.NoteOffEvent(tick=96, channel=0, data=[74, 64]),\n",
      "   midi.NoteOnEvent(tick=0, channel=0, data=[76, 100]),\n",
      "   midi.NoteOffEvent(tick=96, channel=0, data=[76, 64]),\n",
      "   midi.NoteOnEvent(tick=0, channel=0, data=[78, 100]),\n",
      "   midi.NoteOffEvent(tick=96, channel=0, data=[78, 64]),\n",
      "   midi.NoteOnEvent(tick=0, channel=0, data=[79, 100]),\n",
      "   midi.NoteOffEvent(tick=96, channel=0, data=[79, 64]),\n",
      "   midi.NoteOnEvent(tick=0, channel=0, data=[78, 100]),\n",
      "   midi.NoteOffEvent(tick=96, channel=0, data=[78, 64]),\n",
      "   midi.NoteOnEvent(tick=96, channel=0, data=[78, 100]),\n",
      "   midi.NoteOffEvent(tick=96, channel=0, data=[78, 64]),\n",
      "   midi.NoteOnEvent(tick=96, channel=0, data=[78, 100]),\n",
      "   midi.NoteOffEvent(tick=96, channel=0, data=[78, 64]),\n",
      "   midi.NoteOnEvent(tick=96, channel=0, data=[78, 100]),\n",
      "   midi.NoteOffEvent(tick=192, channel=0, data=[78, 64]),\n",
      "   midi.NoteOnEvent(tick=0, channel=0, data=[83, 100]),\n",
      "   midi.NoteOffEvent(tick=96, channel=0, data=[83, 64]),\n",
      "   midi.NoteOnEvent(tick=0, channel=0, data=[81, 100]),\n",
      "   midi.NoteOffEvent(tick=96, channel=0, data=[81, 64]),\n",
      "   midi.NoteOnEvent(tick=0, channel=0, data=[83, 100]),\n",
      "   midi.NoteOffEvent(tick=96, channel=0, data=[83, 64]),\n",
      "   midi.NoteOnEvent(tick=0, channel=0, data=[81, 100]),\n",
      "   midi.NoteOffEvent(tick=96, channel=0, data=[81, 64]),\n",
      "   midi.NoteOnEvent(tick=0, channel=0, data=[80, 100]),\n",
      "   midi.NoteOffEvent(tick=96, channel=0, data=[80, 64]),\n",
      "   midi.NoteOnEvent(tick=0, channel=0, data=[78, 100]),\n",
      "   midi.NoteOffEvent(tick=96, channel=0, data=[78, 64]),\n",
      "   midi.NoteOnEvent(tick=0, channel=0, data=[76, 100]),\n",
      "   midi.NoteOnEvent(tick=0, channel=0, data=[76, 100]),\n",
      "   midi.NoteOffEvent(tick=96, channel=0, data=[76, 64]),\n",
      "   midi.NoteOffEvent(tick=0, channel=0, data=[76, 64]),\n",
      "   midi.NoteOnEvent(tick=0, channel=0, data=[78, 100]),\n",
      "   midi.NoteOnEvent(tick=0, channel=0, data=[78, 100]),\n",
      "   midi.NoteOffEvent(tick=96, channel=0, data=[78, 64]),\n",
      "   midi.NoteOffEvent(tick=0, channel=0, data=[78, 64]),\n",
      "   midi.NoteOnEvent(tick=0, channel=0, data=[76, 100]),\n",
      "   midi.NoteOnEvent(tick=0, channel=0, data=[76, 100]),\n",
      "   midi.NoteOffEvent(tick=96, channel=0, data=[76, 64]),\n",
      "   midi.NoteOffEvent(tick=0, channel=0, data=[76, 64]),\n",
      "   midi.NoteOnEvent(tick=96, channel=0, data=[76, 100]),\n",
      "   midi.NoteOnEvent(tick=0, channel=0, data=[76, 100]),\n",
      "   midi.NoteOffEvent(tick=96, channel=0, data=[76, 64]),\n",
      "   midi.NoteOffEvent(tick=0, channel=0, data=[76, 64]),\n",
      "   midi.NoteOnEvent(tick=96, channel=0, data=[76, 100]),\n",
      "   midi.NoteOnEvent(tick=0, channel=0, data=[76, 100]),\n",
      "   midi.NoteOffEvent(tick=96, channel=0, data=[76, 64]),\n",
      "   midi.NoteOffEvent(tick=0, channel=0, data=[76, 64]),\n",
      "   midi.NoteOnEvent(tick=96, channel=0, data=[76, 100]),\n",
      "   midi.NoteOffEvent(tick=192, channel=0, data=[76, 64]),\n",
      "   midi.NoteOnEvent(tick=0, channel=0, data=[81, 100]),\n",
      "   midi.NoteOffEvent(tick=96, channel=0, data=[81, 64]),\n",
      "   midi.NoteOnEvent(tick=0, channel=0, data=[80, 100]),\n",
      "   midi.NoteOffEvent(tick=96, channel=0, data=[80, 64]),\n",
      "   midi.NoteOnEvent(tick=0, channel=0, data=[81, 100]),\n",
      "   midi.NoteOffEvent(tick=96, channel=0, data=[81, 64]),\n",
      "   midi.NoteOnEvent(tick=0, channel=0, data=[80, 100]),\n",
      "   midi.NoteOffEvent(tick=96, channel=0, data=[80, 64]),\n",
      "   midi.NoteOnEvent(tick=0, channel=0, data=[78, 100]),\n",
      "   midi.NoteOffEvent(tick=96, channel=0, data=[78, 64]),\n",
      "   midi.NoteOnEvent(tick=0, channel=0, data=[76, 100]),\n",
      "   midi.NoteOffEvent(tick=96, channel=0, data=[76, 64]),\n",
      "   midi.NoteOnEvent(tick=0, channel=0, data=[74, 100]),\n",
      "   midi.NoteOffEvent(tick=96, channel=0, data=[74, 64]),\n",
      "   midi.NoteOnEvent(tick=0, channel=0, data=[76, 100]),\n",
      "   midi.NoteOffEvent(tick=96, channel=0, data=[76, 64]),\n",
      "   midi.NoteOnEvent(tick=0, channel=0, data=[74, 100]),\n",
      "   midi.NoteOffEvent(tick=96, channel=0, data=[74, 64]),\n",
      "   midi.NoteOnEvent(tick=96, channel=0, data=[74, 100]),\n",
      "   midi.NoteOffEvent(tick=96, channel=0, data=[74, 64]),\n",
      "   midi.NoteOnEvent(tick=96, channel=0, data=[74, 100]),\n",
      "   midi.NoteOffEvent(tick=96, channel=0, data=[74, 64]),\n",
      "   midi.NoteOnEvent(tick=96, channel=0, data=[86, 100]),\n",
      "   midi.NoteOffEvent(tick=512, channel=0, data=[86, 64]),\n",
      "   midi.NoteOnEvent(tick=64, channel=0, data=[85, 100]),\n",
      "   midi.NoteOffEvent(tick=96, channel=0, data=[85, 64]),\n",
      "   midi.NoteOnEvent(tick=0, channel=0, data=[83, 100]),\n",
      "   midi.NoteOffEvent(tick=96, channel=0, data=[83, 64]),\n",
      "   midi.NoteOnEvent(tick=0, channel=0, data=[85, 100]),\n",
      "   midi.NoteOffEvent(tick=192, channel=0, data=[85, 64]),\n",
      "   midi.NoteOnEvent(tick=0, channel=0, data=[81, 100]),\n",
      "   midi.NoteOffEvent(tick=192, channel=0, data=[81, 64]),\n",
      "   midi.NoteOnEvent(tick=0, channel=0, data=[76, 100]),\n",
      "   midi.NoteOffEvent(tick=192, channel=0, data=[76, 64]),\n",
      "   midi.NoteOnEvent(tick=0, channel=0, data=[80, 100]),\n",
      "   midi.NoteOffEvent(tick=192, channel=0, data=[80, 64]),\n",
      "   midi.NoteOnEvent(tick=0, channel=0, data=[81, 100]),\n",
      "   midi.NoteOffEvent(tick=768, channel=0, data=[81, 64]),\n",
      "   midi.NoteOnEvent(tick=768, channel=0, data=[79, 100]),\n",
      "   midi.NoteOffEvent(tick=192, channel=0, data=[79, 64]),\n",
      "   midi.NoteOnEvent(tick=0, channel=0, data=[73, 100]),\n",
      "   midi.NoteOffEvent(tick=192, channel=0, data=[73, 64]),\n",
      "   midi.NoteOnEvent(tick=4992, channel=0, data=[79, 100]),\n",
      "   midi.NoteOffEvent(tick=96, channel=0, data=[79, 64]),\n",
      "   midi.NoteOnEvent(tick=0, channel=0, data=[81, 100]),\n",
      "   midi.NoteOffEvent(tick=96, channel=0, data=[81, 64]),\n",
      "   midi.NoteOnEvent(tick=0, channel=0, data=[79, 100]),\n",
      "   midi.NoteOffEvent(tick=96, channel=0, data=[79, 64]),\n",
      "   midi.NoteOnEvent(tick=96, channel=0, data=[79, 100]),\n",
      "   midi.NoteOffEvent(tick=96, channel=0, data=[79, 64]),\n",
      "   midi.NoteOnEvent(tick=96, channel=0, data=[79, 100]),\n",
      "   midi.NoteOffEvent(tick=96, channel=0, data=[79, 64]),\n",
      "   midi.NoteOnEvent(tick=96, channel=0, data=[79, 100]),\n",
      "   midi.NoteOffEvent(tick=512, channel=0, data=[79, 64]),\n",
      "   midi.NoteOnEvent(tick=64, channel=0, data=[69, 100]),\n",
      "   midi.NoteOffEvent(tick=192, channel=0, data=[69, 64]),\n",
      "   midi.NoteOnEvent(tick=0, channel=0, data=[78, 100]),\n",
      "   midi.NoteOffEvent(tick=96, channel=0, data=[78, 64]),\n",
      "   midi.NoteOnEvent(tick=0, channel=0, data=[79, 100]),\n",
      "   midi.NoteOffEvent(tick=96, channel=0, data=[79, 64]),\n",
      "   midi.NoteOnEvent(tick=0, channel=0, data=[78, 100]),\n",
      "   midi.NoteOffEvent(tick=96, channel=0, data=[78, 64]),\n",
      "   midi.NoteOnEvent(tick=96, channel=0, data=[78, 100]),\n",
      "   midi.NoteOffEvent(tick=96, channel=0, data=[78, 64]),\n",
      "   midi.NoteOnEvent(tick=96, channel=0, data=[78, 100]),\n",
      "   midi.NoteOffEvent(tick=96, channel=0, data=[78, 64]),\n",
      "   midi.NoteOnEvent(tick=96, channel=0, data=[78, 100]),\n",
      "   midi.NoteOffEvent(tick=512, channel=0, data=[78, 64]),\n",
      "   midi.NoteOnEvent(tick=64, channel=0, data=[69, 100]),\n",
      "   midi.NoteOffEvent(tick=192, channel=0, data=[69, 64]),\n",
      "   midi.NoteOnEvent(tick=0, channel=0, data=[69, 100]),\n",
      "   midi.NoteOffEvent(tick=192, channel=0, data=[69, 64]),\n",
      "   midi.NoteOnEvent(tick=0, channel=0, data=[76, 100]),\n",
      "   midi.NoteOffEvent(tick=192, channel=0, data=[76, 64]),\n",
      "   midi.NoteOnEvent(tick=0, channel=0, data=[76, 100]),\n",
      "   midi.NoteOffEvent(tick=192, channel=0, data=[76, 64]),\n",
      "   midi.NoteOnEvent(tick=0, channel=0, data=[79, 100]),\n",
      "   midi.NoteOffEvent(tick=192, channel=0, data=[79, 64]),\n",
      "   midi.NoteOnEvent(tick=0, channel=0, data=[79, 100]),\n",
      "   midi.NoteOffEvent(tick=96, channel=0, data=[79, 64]),\n",
      "   midi.NoteOnEvent(tick=0, channel=0, data=[83, 100]),\n",
      "   midi.NoteOffEvent(tick=96, channel=0, data=[83, 64]),\n",
      "   midi.NoteOnEvent(tick=0, channel=0, data=[81, 100]),\n",
      "   midi.NoteOffEvent(tick=96, channel=0, data=[81, 64]),\n",
      "   midi.NoteOnEvent(tick=0, channel=0, data=[79, 100]),\n",
      "   midi.NoteOffEvent(tick=96, channel=0, data=[79, 64]),\n",
      "   midi.NoteOnEvent(tick=0, channel=0, data=[81, 100]),\n",
      "   midi.NoteOffEvent(tick=96, channel=0, data=[81, 64]),\n",
      "   midi.NoteOnEvent(tick=0, channel=0, data=[79, 100]),\n",
      "   midi.NoteOffEvent(tick=96, channel=0, data=[79, 64]),\n",
      "   midi.NoteOnEvent(tick=0, channel=0, data=[78, 100]),\n",
      "   midi.NoteOffEvent(tick=96, channel=0, data=[78, 64]),\n",
      "   midi.NoteOnEvent(tick=0, channel=0, data=[76, 100]),\n",
      "   midi.NoteOffEvent(tick=96, channel=0, data=[76, 64]),\n",
      "   midi.NoteOnEvent(tick=0, channel=0, data=[78, 100]),\n",
      "   midi.NoteOffEvent(tick=96, channel=0, data=[78, 64]),\n",
      "   midi.NoteOnEvent(tick=0, channel=0, data=[81, 100]),\n",
      "   midi.NoteOffEvent(tick=96, channel=0, data=[81, 64]),\n",
      "   midi.NoteOnEvent(tick=0, channel=0, data=[79, 100]),\n",
      "   midi.NoteOffEvent(tick=96, channel=0, data=[79, 64]),\n",
      "   midi.NoteOnEvent(tick=0, channel=0, data=[78, 100]),\n",
      "   midi.NoteOffEvent(tick=96, channel=0, data=[78, 64]),\n",
      "   midi.NoteOnEvent(tick=0, channel=0, data=[79, 100]),\n",
      "   midi.NoteOffEvent(tick=96, channel=0, data=[79, 64]),\n",
      "   midi.NoteOnEvent(tick=0, channel=0, data=[78, 100]),\n",
      "   midi.NoteOffEvent(tick=96, channel=0, data=[78, 64]),\n",
      "   midi.NoteOnEvent(tick=0, channel=0, data=[76, 100]),\n",
      "   midi.NoteOffEvent(tick=96, channel=0, data=[76, 64]),\n",
      "   midi.NoteOnEvent(tick=0, channel=0, data=[78, 100]),\n",
      "   midi.NoteOffEvent(tick=96, channel=0, data=[78, 64]),\n",
      "   midi.NoteOnEvent(tick=0, channel=0, data=[74, 100]),\n",
      "   midi.NoteOffEvent(tick=384, channel=0, data=[74, 64]),\n",
      "   midi.NoteOnEvent(tick=6240, channel=0, data=[69, 100]),\n",
      "   midi.NoteOffEvent(tick=96, channel=0, data=[69, 64]),\n",
      "   midi.NoteOnEvent(tick=0, channel=0, data=[74, 100]),\n",
      "   midi.NoteOffEvent(tick=96, channel=0, data=[74, 64]),\n",
      "   midi.NoteOnEvent(tick=0, channel=0, data=[76, 100]),\n",
      "   midi.NoteOffEvent(tick=96, channel=0, data=[76, 64]),\n",
      "   midi.NoteOnEvent(tick=0, channel=0, data=[78, 100]),\n",
      "   midi.NoteOffEvent(tick=96, channel=0, data=[78, 64]),\n",
      "   midi.NoteOnEvent(tick=0, channel=0, data=[79, 100]),\n",
      "   midi.NoteOffEvent(tick=96, channel=0, data=[79, 64]),\n",
      "   midi.NoteOnEvent(tick=0, channel=0, data=[81, 100]),\n",
      "   midi.NoteOffEvent(tick=96, channel=0, data=[81, 64]),\n",
      "   midi.NoteOnEvent(tick=96, channel=0, data=[81, 100]),\n",
      "   midi.NoteOffEvent(tick=96, channel=0, data=[81, 64]),\n",
      "   midi.NoteOnEvent(tick=96, channel=0, data=[81, 100]),\n",
      "   midi.NoteOffEvent(tick=96, channel=0, data=[81, 64]),\n",
      "   midi.NoteOnEvent(tick=96, channel=0, data=[81, 100]),\n",
      "   midi.NoteOffEvent(tick=512, channel=0, data=[81, 64]),\n",
      "   midi.NoteOnEvent(tick=64, channel=0, data=[69, 100]),\n",
      "   midi.NoteOffEvent(tick=192, channel=0, data=[69, 64]),\n",
      "   midi.NoteOnEvent(tick=0, channel=0, data=[74, 100]),\n",
      "   midi.NoteOffEvent(tick=48, channel=0, data=[74, 64]),\n",
      "   midi.NoteOnEvent(tick=0, channel=0, data=[76, 100]),\n",
      "   midi.NoteOffEvent(tick=48, channel=0, data=[76, 64]),\n",
      "   midi.NoteOnEvent(tick=0, channel=0, data=[78, 100]),\n",
      "   midi.NoteOffEvent(tick=256, channel=0, data=[78, 64]),\n",
      "   midi.NoteOnEvent(tick=32, channel=0, data=[76, 100]),\n",
      "   midi.NoteOffEvent(tick=48, channel=0, data=[76, 64]),\n",
      "   midi.NoteOnEvent(tick=0, channel=0, data=[78, 100]),\n",
      "   midi.NoteOffEvent(tick=48, channel=0, data=[78, 64]),\n",
      "   midi.NoteOnEvent(tick=0, channel=0, data=[79, 100]),\n",
      "   midi.NoteOffEvent(tick=256, channel=0, data=[79, 64]),\n",
      "   midi.NoteOnEvent(tick=32, channel=0, data=[78, 100]),\n",
      "   midi.NoteOffEvent(tick=192, channel=0, data=[78, 64]),\n",
      "   midi.NoteOnEvent(tick=0, channel=0, data=[76, 100]),\n",
      "   midi.NoteOffEvent(tick=192, channel=0, data=[76, 64]),\n",
      "   midi.NoteOnEvent(tick=0, channel=0, data=[74, 100]),\n",
      "   midi.NoteOffEvent(tick=384, channel=0, data=[74, 64]),\n",
      "   midi.NoteOnEvent(tick=0, channel=0, data=[81, 100]),\n",
      "   midi.NoteOffEvent(tick=960, channel=0, data=[81, 64]),\n",
      "   midi.NoteOnEvent(tick=0, channel=0, data=[83, 100]),\n",
      "   midi.NoteOffEvent(tick=96, channel=0, data=[83, 64]),\n",
      "   midi.NoteOnEvent(tick=0, channel=0, data=[81, 100]),\n",
      "   midi.NoteOffEvent(tick=96, channel=0, data=[81, 64]),\n",
      "   midi.NoteOnEvent(tick=0, channel=0, data=[83, 100]),\n",
      "   midi.NoteOffEvent(tick=96, channel=0, data=[83, 64]),\n",
      "   midi.NoteOnEvent(tick=0, channel=0, data=[81, 100]),\n",
      "   midi.NoteOffEvent(tick=96, channel=0, data=[81, 64]),\n",
      "   midi.NoteOnEvent(tick=0, channel=0, data=[79, 100]),\n",
      "   midi.NoteOffEvent(tick=96, channel=0, data=[79, 64]),\n",
      "   midi.NoteOnEvent(tick=0, channel=0, data=[78, 100]),\n",
      "   midi.NoteOffEvent(tick=96, channel=0, data=[78, 64]),\n",
      "   midi.NoteOnEvent(tick=0, channel=0, data=[79, 100]),\n",
      "   midi.NoteOffEvent(tick=960, channel=0, data=[79, 64]),\n",
      "   midi.NoteOnEvent(tick=0, channel=0, data=[76, 100]),\n",
      "   midi.NoteOffEvent(tick=192, channel=0, data=[76, 64]),\n",
      "   midi.NoteOnEvent(tick=0, channel=0, data=[69, 100]),\n",
      "   midi.NoteOffEvent(tick=192, channel=0, data=[69, 64]),\n",
      "   midi.NoteOnEvent(tick=0, channel=0, data=[81, 100]),\n",
      "   midi.NoteOffEvent(tick=192, channel=0, data=[81, 64]),\n",
      "   midi.NoteOnEvent(tick=0, channel=0, data=[78, 100]),\n",
      "   midi.NoteOffEvent(tick=96, channel=0, data=[78, 64]),\n",
      "   midi.NoteOnEvent(tick=0, channel=0, data=[79, 100]),\n",
      "   midi.NoteOffEvent(tick=96, channel=0, data=[79, 64]),\n",
      "   midi.NoteOnEvent(tick=0, channel=0, data=[78, 100]),\n",
      "   midi.NoteOffEvent(tick=96, channel=0, data=[78, 64]),\n",
      "   midi.NoteOnEvent(tick=96, channel=0, data=[78, 100]),\n",
      "   midi.NoteOffEvent(tick=96, channel=0, data=[78, 64]),\n",
      "   midi.NoteOnEvent(tick=96, channel=0, data=[78, 100]),\n",
      "   midi.NoteOffEvent(tick=96, channel=0, data=[78, 64]),\n",
      "   midi.NoteOnEvent(tick=96, channel=0, data=[78, 100]),\n",
      "   midi.NoteOffEvent(tick=192, channel=0, data=[78, 64]),\n",
      "   midi.NoteOnEvent(tick=0, channel=0, data=[83, 100]),\n",
      "   midi.NoteOffEvent(tick=96, channel=0, data=[83, 64]),\n",
      "   midi.NoteOnEvent(tick=0, channel=0, data=[81, 100]),\n",
      "   midi.NoteOffEvent(tick=96, channel=0, data=[81, 64]),\n",
      "   midi.NoteOnEvent(tick=0, channel=0, data=[83, 100]),\n",
      "   midi.NoteOffEvent(tick=96, channel=0, data=[83, 64]),\n",
      "   midi.NoteOnEvent(tick=0, channel=0, data=[81, 100]),\n",
      "   midi.NoteOffEvent(tick=96, channel=0, data=[81, 64]),\n",
      "   midi.NoteOnEvent(tick=0, channel=0, data=[80, 100]),\n",
      "   midi.NoteOffEvent(tick=96, channel=0, data=[80, 64]),\n",
      "   midi.NoteOnEvent(tick=0, channel=0, data=[78, 100]),\n",
      "   midi.NoteOffEvent(tick=96, channel=0, data=[78, 64]),\n",
      "   midi.NoteOnEvent(tick=0, channel=0, data=[76, 100]),\n",
      "   midi.NoteOffEvent(tick=96, channel=0, data=[76, 64]),\n",
      "   midi.NoteOnEvent(tick=0, channel=0, data=[78, 100]),\n",
      "   midi.NoteOffEvent(tick=96, channel=0, data=[78, 64]),\n",
      "   midi.NoteOnEvent(tick=0, channel=0, data=[76, 100]),\n",
      "   midi.NoteOffEvent(tick=96, channel=0, data=[76, 64]),\n",
      "   midi.NoteOnEvent(tick=96, channel=0, data=[76, 100]),\n",
      "   midi.NoteOffEvent(tick=96, channel=0, data=[76, 64]),\n",
      "   midi.NoteOnEvent(tick=96, channel=0, data=[76, 100]),\n",
      "   midi.NoteOffEvent(tick=96, channel=0, data=[76, 64]),\n",
      "   midi.NoteOnEvent(tick=96, channel=0, data=[76, 100]),\n",
      "   midi.NoteOffEvent(tick=192, channel=0, data=[76, 64]),\n",
      "   midi.NoteOnEvent(tick=0, channel=0, data=[81, 100]),\n",
      "   midi.NoteOffEvent(tick=96, channel=0, data=[81, 64]),\n",
      "   midi.NoteOnEvent(tick=0, channel=0, data=[80, 100]),\n",
      "   midi.NoteOffEvent(tick=96, channel=0, data=[80, 64]),\n",
      "   midi.NoteOnEvent(tick=0, channel=0, data=[81, 100]),\n",
      "   midi.NoteOffEvent(tick=96, channel=0, data=[81, 64]),\n",
      "   midi.NoteOnEvent(tick=0, channel=0, data=[80, 100]),\n",
      "   midi.NoteOffEvent(tick=96, channel=0, data=[80, 64]),\n",
      "   midi.NoteOnEvent(tick=0, channel=0, data=[78, 100]),\n",
      "   midi.NoteOffEvent(tick=96, channel=0, data=[78, 64]),\n",
      "   midi.NoteOnEvent(tick=0, channel=0, data=[76, 100]),\n",
      "   midi.NoteOffEvent(tick=96, channel=0, data=[76, 64]),\n",
      "   midi.NoteOnEvent(tick=0, channel=0, data=[74, 100]),\n",
      "   midi.NoteOffEvent(tick=96, channel=0, data=[74, 64]),\n",
      "   midi.NoteOnEvent(tick=0, channel=0, data=[76, 100]),\n",
      "   midi.NoteOffEvent(tick=96, channel=0, data=[76, 64]),\n",
      "   midi.NoteOnEvent(tick=0, channel=0, data=[74, 100]),\n",
      "   midi.NoteOffEvent(tick=96, channel=0, data=[74, 64]),\n",
      "   midi.NoteOnEvent(tick=96, channel=0, data=[74, 100]),\n",
      "   midi.NoteOffEvent(tick=96, channel=0, data=[74, 64]),\n",
      "   midi.NoteOnEvent(tick=96, channel=0, data=[74, 100]),\n",
      "   midi.NoteOffEvent(tick=96, channel=0, data=[74, 64]),\n",
      "   midi.NoteOnEvent(tick=96, channel=0, data=[86, 100]),\n",
      "   midi.NoteOffEvent(tick=512, channel=0, data=[86, 64]),\n",
      "   midi.NoteOnEvent(tick=64, channel=0, data=[85, 100]),\n",
      "   midi.NoteOffEvent(tick=96, channel=0, data=[85, 64]),\n",
      "   midi.NoteOnEvent(tick=0, channel=0, data=[83, 100]),\n",
      "   midi.NoteOffEvent(tick=96, channel=0, data=[83, 64]),\n",
      "   midi.NoteOnEvent(tick=0, channel=0, data=[85, 100]),\n",
      "   midi.NoteOffEvent(tick=192, channel=0, data=[85, 64]),\n",
      "   midi.NoteOnEvent(tick=0, channel=0, data=[81, 100]),\n",
      "   midi.NoteOffEvent(tick=192, channel=0, data=[81, 64]),\n",
      "   midi.NoteOnEvent(tick=0, channel=0, data=[76, 100]),\n",
      "   midi.NoteOffEvent(tick=192, channel=0, data=[76, 64]),\n",
      "   midi.NoteOnEvent(tick=0, channel=0, data=[80, 100]),\n",
      "   midi.NoteOffEvent(tick=192, channel=0, data=[80, 64]),\n",
      "   midi.NoteOnEvent(tick=0, channel=0, data=[81, 100]),\n",
      "   midi.NoteOffEvent(tick=192, channel=0, data=[81, 64]),\n",
      "   midi.NoteOnEvent(tick=14208, channel=0, data=[81, 100]),\n",
      "   midi.NoteOffEvent(tick=96, channel=0, data=[81, 64]),\n",
      "   midi.NoteOnEvent(tick=0, channel=0, data=[83, 100]),\n",
      "   midi.NoteOffEvent(tick=96, channel=0, data=[83, 64]),\n",
      "   midi.NoteOnEvent(tick=0, channel=0, data=[85, 100]),\n",
      "   midi.NoteOffEvent(tick=192, channel=0, data=[85, 64]),\n",
      "   midi.NoteOnEvent(tick=192, channel=0, data=[83, 100]),\n",
      "   midi.NoteOffEvent(tick=192, channel=0, data=[83, 64]),\n",
      "   midi.NoteOnEvent(tick=192, channel=0, data=[81, 100]),\n",
      "   midi.NoteOffEvent(tick=192, channel=0, data=[81, 64]),\n",
      "   midi.NoteOnEvent(tick=1920, channel=0, data=[81, 100]),\n",
      "   midi.NoteOffEvent(tick=96, channel=0, data=[81, 64]),\n",
      "   midi.NoteOnEvent(tick=0, channel=0, data=[83, 100]),\n",
      "   midi.NoteOffEvent(tick=96, channel=0, data=[83, 64]),\n",
      "   midi.NoteOnEvent(tick=0, channel=0, data=[85, 100]),\n",
      "   midi.NoteOffEvent(tick=192, channel=0, data=[85, 64]),\n",
      "   midi.NoteOnEvent(tick=192, channel=0, data=[83, 100]),\n",
      "   midi.NoteOffEvent(tick=192, channel=0, data=[83, 64]),\n",
      "   midi.NoteOnEvent(tick=192, channel=0, data=[81, 100]),\n",
      "   midi.NoteOffEvent(tick=192, channel=0, data=[81, 64]),\n",
      "   midi.NoteOnEvent(tick=1536, channel=0, data=[83, 100]),\n",
      "   midi.NoteOffEvent(tick=96, channel=0, data=[83, 64]),\n",
      "   midi.NoteOnEvent(tick=0, channel=0, data=[81, 100]),\n",
      "   midi.NoteOffEvent(tick=96, channel=0, data=[81, 64]),\n",
      "   midi.NoteOnEvent(tick=0, channel=0, data=[83, 100]),\n",
      "   midi.NoteOffEvent(tick=96, channel=0, data=[83, 64]),\n",
      "   midi.NoteOnEvent(tick=0, channel=0, data=[81, 100]),\n",
      "   midi.NoteOffEvent(tick=96, channel=0, data=[81, 64]),\n",
      "   midi.NoteOnEvent(tick=0, channel=0, data=[80, 100]),\n",
      "   midi.NoteOffEvent(tick=96, channel=0, data=[80, 64]),\n",
      "   midi.NoteOnEvent(tick=0, channel=0, data=[78, 100]),\n",
      "   midi.NoteOffEvent(tick=96, channel=0, data=[78, 64]),\n",
      "   midi.NoteOnEvent(tick=0, channel=0, data=[76, 100]),\n",
      "   midi.NoteOffEvent(tick=192, channel=0, data=[76, 64]),\n",
      "   midi.NoteOnEvent(tick=768, channel=0, data=[81, 100]),\n",
      "   midi.NoteOffEvent(tick=96, channel=0, data=[81, 64]),\n",
      "   midi.NoteOnEvent(tick=0, channel=0, data=[80, 100]),\n",
      "   midi.NoteOffEvent(tick=96, channel=0, data=[80, 64]),\n",
      "   midi.NoteOnEvent(tick=0, channel=0, data=[81, 100]),\n",
      "   midi.NoteOffEvent(tick=96, channel=0, data=[81, 64]),\n",
      "   midi.NoteOnEvent(tick=0, channel=0, data=[80, 100]),\n",
      "   midi.NoteOffEvent(tick=96, channel=0, data=[80, 64]),\n",
      "   midi.NoteOnEvent(tick=0, channel=0, data=[78, 100]),\n",
      "   midi.NoteOffEvent(tick=96, channel=0, data=[78, 64]),\n",
      "   midi.NoteOnEvent(tick=0, channel=0, data=[76, 100]),\n",
      "   midi.NoteOffEvent(tick=96, channel=0, data=[76, 64]),\n",
      "   midi.NoteOnEvent(tick=0, channel=0, data=[74, 100]),\n",
      "   midi.NoteOffEvent(tick=192, channel=0, data=[74, 64]),\n",
      "   midi.NoteOnEvent(tick=672, channel=0, data=[76, 100]),\n",
      "   midi.NoteOffEvent(tick=96, channel=0, data=[76, 64]),\n",
      "   midi.NoteOnEvent(tick=0, channel=0, data=[78, 100]),\n",
      "   midi.NoteOffEvent(tick=96, channel=0, data=[78, 64]),\n",
      "   midi.NoteOnEvent(tick=0, channel=0, data=[80, 100]),\n",
      "   midi.NoteOffEvent(tick=96, channel=0, data=[80, 64]),\n",
      "   midi.NoteOnEvent(tick=0, channel=0, data=[81, 100]),\n",
      "   midi.NoteOffEvent(tick=96, channel=0, data=[81, 64]),\n",
      "   midi.NoteOnEvent(tick=0, channel=0, data=[83, 100]),\n",
      "   midi.NoteOffEvent(tick=96, channel=0, data=[83, 64]),\n",
      "   midi.NoteOnEvent(tick=0, channel=0, data=[85, 100]),\n",
      "   midi.NoteOffEvent(tick=96, channel=0, data=[85, 64]),\n",
      "   midi.NoteOnEvent(tick=0, channel=0, data=[86, 100]),\n",
      "   midi.NoteOffEvent(tick=96, channel=0, data=[86, 64]),\n",
      "   midi.NoteOnEvent(tick=0, channel=0, data=[85, 100]),\n",
      "   midi.NoteOffEvent(tick=192, channel=0, data=[85, 64]),\n",
      "   midi.NoteOnEvent(tick=0, channel=0, data=[81, 100]),\n",
      "   midi.NoteOffEvent(tick=192, channel=0, data=[81, 64]),\n",
      "   midi.NoteOnEvent(tick=0, channel=0, data=[76, 100]),\n",
      "   midi.NoteOffEvent(tick=192, channel=0, data=[76, 64]),\n",
      "   midi.NoteOnEvent(tick=0, channel=0, data=[80, 100]),\n",
      "   midi.NoteOffEvent(tick=192, channel=0, data=[80, 64]),\n",
      "   midi.NoteOnEvent(tick=0, channel=0, data=[81, 100]),\n",
      "   midi.NoteOffEvent(tick=768, channel=0, data=[81, 64]),\n",
      "   midi.NoteOnEvent(tick=37632, channel=0, data=[78, 100]),\n",
      "   midi.NoteOffEvent(tick=96, channel=0, data=[78, 64]),\n",
      "   midi.NoteOnEvent(tick=0, channel=0, data=[79, 100]),\n",
      "   midi.NoteOffEvent(tick=96, channel=0, data=[79, 64]),\n",
      "   midi.NoteOnEvent(tick=0, channel=0, data=[81, 100]),\n",
      "   midi.NoteOffEvent(tick=96, channel=0, data=[81, 64]),\n",
      "   midi.NoteOnEvent(tick=96, channel=0, data=[81, 100]),\n",
      "   midi.NoteOffEvent(tick=96, channel=0, data=[81, 64]),\n",
      "   midi.NoteOnEvent(tick=96, channel=0, data=[81, 100]),\n",
      "   midi.NoteOffEvent(tick=96, channel=0, data=[81, 64]),\n",
      "   midi.NoteOnEvent(tick=96, channel=0, data=[81, 100]),\n",
      "   midi.NoteOffEvent(tick=384, channel=0, data=[81, 64]),\n",
      "   midi.NoteOnEvent(tick=192, channel=0, data=[69, 100]),\n",
      "   midi.NoteOffEvent(tick=192, channel=0, data=[69, 64]),\n",
      "   midi.NoteOnEvent(tick=0, channel=0, data=[74, 100]),\n",
      "   midi.NoteOffEvent(tick=48, channel=0, data=[74, 64]),\n",
      "   midi.NoteOnEvent(tick=0, channel=0, data=[76, 100]),\n",
      "   midi.NoteOffEvent(tick=48, channel=0, data=[76, 64]),\n",
      "   midi.NoteOnEvent(tick=0, channel=0, data=[78, 100]),\n",
      "   midi.NoteOffEvent(tick=256, channel=0, data=[78, 64]),\n",
      "   midi.NoteOnEvent(tick=32, channel=0, data=[76, 100]),\n",
      "   midi.NoteOffEvent(tick=48, channel=0, data=[76, 64]),\n",
      "   midi.NoteOnEvent(tick=0, channel=0, data=[78, 100]),\n",
      "   midi.NoteOffEvent(tick=48, channel=0, data=[78, 64]),\n",
      "   midi.NoteOnEvent(tick=0, channel=0, data=[79, 100]),\n",
      "   midi.NoteOffEvent(tick=256, channel=0, data=[79, 64]),\n",
      "   midi.NoteOnEvent(tick=32, channel=0, data=[78, 100]),\n",
      "   midi.NoteOffEvent(tick=48, channel=0, data=[78, 64]),\n",
      "   midi.NoteOnEvent(tick=0, channel=0, data=[76, 100]),\n",
      "   midi.NoteOffEvent(tick=48, channel=0, data=[76, 64]),\n",
      "   midi.NoteOnEvent(tick=0, channel=0, data=[74, 100]),\n",
      "   midi.NoteOffEvent(tick=352, channel=0, data=[74, 64]),\n",
      "   midi.NoteOnEvent(tick=32, channel=0, data=[69, 100]),\n",
      "   midi.NoteOffEvent(tick=96, channel=0, data=[69, 64]),\n",
      "   midi.NoteOnEvent(tick=0, channel=0, data=[74, 100]),\n",
      "   midi.NoteOffEvent(tick=96, channel=0, data=[74, 64]),\n",
      "   midi.NoteOnEvent(tick=0, channel=0, data=[76, 100]),\n",
      "   midi.NoteOffEvent(tick=96, channel=0, data=[76, 64]),\n",
      "   midi.NoteOnEvent(tick=0, channel=0, data=[78, 100]),\n",
      "   midi.NoteOffEvent(tick=96, channel=0, data=[78, 64]),\n",
      "   midi.NoteOnEvent(tick=0, channel=0, data=[79, 100]),\n",
      "   midi.NoteOffEvent(tick=96, channel=0, data=[79, 64]),\n",
      "   midi.NoteOnEvent(tick=0, channel=0, data=[81, 100]),\n",
      "   midi.NoteOffEvent(tick=96, channel=0, data=[81, 64]),\n",
      "   midi.NoteOnEvent(tick=96, channel=0, data=[81, 100]),\n",
      "   midi.NoteOffEvent(tick=96, channel=0, data=[81, 64]),\n",
      "   midi.NoteOnEvent(tick=96, channel=0, data=[81, 100]),\n",
      "   midi.NoteOffEvent(tick=96, channel=0, data=[81, 64]),\n",
      "   midi.NoteOnEvent(tick=96, channel=0, data=[81, 100]),\n",
      "   midi.NoteOffEvent(tick=384, channel=0, data=[81, 64]),\n",
      "   midi.NoteOnEvent(tick=4704, channel=0, data=[69, 100]),\n",
      "   midi.NoteOffEvent(tick=96, channel=0, data=[69, 64]),\n",
      "   midi.NoteOnEvent(tick=0, channel=0, data=[74, 100]),\n",
      "   midi.NoteOffEvent(tick=96, channel=0, data=[74, 64]),\n",
      "   midi.NoteOnEvent(tick=0, channel=0, data=[76, 100]),\n",
      "   midi.NoteOffEvent(tick=96, channel=0, data=[76, 64]),\n",
      "   midi.NoteOnEvent(tick=0, channel=0, data=[78, 100]),\n",
      "   midi.NoteOffEvent(tick=96, channel=0, data=[78, 64]),\n",
      "   midi.NoteOnEvent(tick=0, channel=0, data=[79, 100]),\n",
      "   midi.NoteOffEvent(tick=96, channel=0, data=[79, 64]),\n",
      "   midi.NoteOnEvent(tick=0, channel=0, data=[81, 100]),\n",
      "   midi.NoteOffEvent(tick=96, channel=0, data=[81, 64]),\n",
      "   midi.NoteOnEvent(tick=96, channel=0, data=[81, 100]),\n",
      "   midi.NoteOffEvent(tick=96, channel=0, data=[81, 64]),\n",
      "   midi.NoteOnEvent(tick=96, channel=0, data=[81, 100]),\n",
      "   midi.NoteOffEvent(tick=96, channel=0, data=[81, 64]),\n",
      "   midi.NoteOnEvent(tick=96, channel=0, data=[81, 100]),\n",
      "   midi.NoteOffEvent(tick=512, channel=0, data=[81, 64]),\n",
      "   midi.NoteOnEvent(tick=64, channel=0, data=[69, 100]),\n",
      "   midi.NoteOffEvent(tick=192, channel=0, data=[69, 64]),\n",
      "   midi.NoteOnEvent(tick=0, channel=0, data=[74, 100]),\n",
      "   midi.NoteOffEvent(tick=48, channel=0, data=[74, 64]),\n",
      "   midi.NoteOnEvent(tick=0, channel=0, data=[76, 100]),\n",
      "   midi.NoteOffEvent(tick=48, channel=0, data=[76, 64]),\n",
      "   midi.NoteOnEvent(tick=0, channel=0, data=[78, 100]),\n",
      "   midi.NoteOffEvent(tick=256, channel=0, data=[78, 64]),\n",
      "   midi.NoteOnEvent(tick=32, channel=0, data=[76, 100]),\n",
      "   midi.NoteOffEvent(tick=48, channel=0, data=[76, 64]),\n",
      "   midi.NoteOnEvent(tick=0, channel=0, data=[78, 100]),\n",
      "   midi.NoteOffEvent(tick=48, channel=0, data=[78, 64]),\n",
      "   midi.NoteOnEvent(tick=0, channel=0, data=[79, 100]),\n",
      "   midi.NoteOffEvent(tick=256, channel=0, data=[79, 64]),\n",
      "   midi.NoteOnEvent(tick=32, channel=0, data=[78, 100]),\n",
      "   midi.NoteOffEvent(tick=192, channel=0, data=[78, 64]),\n",
      "   midi.NoteOnEvent(tick=0, channel=0, data=[76, 100]),\n",
      "   midi.NoteOffEvent(tick=192, channel=0, data=[76, 64]),\n",
      "   midi.NoteOnEvent(tick=0, channel=0, data=[74, 100]),\n",
      "   midi.NoteOffEvent(tick=384, channel=0, data=[74, 64]),\n",
      "   midi.NoteOnEvent(tick=0, channel=0, data=[81, 100]),\n",
      "   midi.NoteOffEvent(tick=960, channel=0, data=[81, 64]),\n",
      "   midi.NoteOnEvent(tick=0, channel=0, data=[83, 100]),\n",
      "   midi.NoteOffEvent(tick=96, channel=0, data=[83, 64]),\n",
      "   midi.NoteOnEvent(tick=0, channel=0, data=[81, 100]),\n",
      "   midi.NoteOffEvent(tick=96, channel=0, data=[81, 64]),\n",
      "   midi.NoteOnEvent(tick=0, channel=0, data=[83, 100]),\n",
      "   midi.NoteOffEvent(tick=96, channel=0, data=[83, 64]),\n",
      "   midi.NoteOnEvent(tick=0, channel=0, data=[81, 100]),\n",
      "   midi.NoteOffEvent(tick=96, channel=0, data=[81, 64]),\n",
      "   midi.NoteOnEvent(tick=0, channel=0, data=[79, 100]),\n",
      "   midi.NoteOffEvent(tick=96, channel=0, data=[79, 64]),\n",
      "   midi.NoteOnEvent(tick=0, channel=0, data=[78, 100]),\n",
      "   midi.NoteOffEvent(tick=96, channel=0, data=[78, 64]),\n",
      "   midi.NoteOnEvent(tick=0, channel=0, data=[79, 100]),\n",
      "   midi.NoteOffEvent(tick=960, channel=0, data=[79, 64]),\n",
      "   midi.NoteOnEvent(tick=0, channel=0, data=[76, 100]),\n",
      "   midi.NoteOffEvent(tick=192, channel=0, data=[76, 64]),\n",
      "   midi.NoteOnEvent(tick=0, channel=0, data=[69, 100]),\n",
      "   midi.NoteOffEvent(tick=192, channel=0, data=[69, 64]),\n",
      "   midi.NoteOnEvent(tick=0, channel=0, data=[79, 100]),\n",
      "   midi.NoteOffEvent(tick=192, channel=0, data=[79, 64]),\n",
      "   midi.NoteOnEvent(tick=0, channel=0, data=[78, 100]),\n",
      "   midi.NoteOffEvent(tick=192, channel=0, data=[78, 64]),\n",
      "   midi.NoteOnEvent(tick=576, channel=0, data=[81, 100]),\n",
      "   midi.NoteOffEvent(tick=192, channel=0, data=[81, 64]),\n",
      "   midi.NoteOnEvent(tick=576, channel=0, data=[86, 100]),\n",
      "   midi.NoteOffEvent(tick=192, channel=0, data=[86, 64]),\n",
      "   midi.NoteOnEvent(tick=576, channel=0, data=[81, 100]),\n",
      "   midi.NoteOffEvent(tick=192, channel=0, data=[81, 64]),\n",
      "   midi.NoteOnEvent(tick=576, channel=0, data=[83, 100]),\n",
      "   midi.NoteOffEvent(tick=192, channel=0, data=[83, 64]),\n",
      "   midi.NoteOnEvent(tick=3072, channel=0, data=[79, 100]),\n",
      "   midi.NoteOnEvent(tick=0, channel=0, data=[79, 100]),\n",
      "   midi.NoteOnEvent(tick=0, channel=0, data=[79, 100]),\n",
      "   midi.NoteOffEvent(tick=96, channel=0, data=[79, 64]),\n",
      "   midi.NoteOffEvent(tick=0, channel=0, data=[79, 64]),\n",
      "   midi.NoteOffEvent(tick=0, channel=0, data=[79, 64]),\n",
      "   midi.NoteOnEvent(tick=0, channel=0, data=[78, 100]),\n",
      "   midi.NoteOnEvent(tick=0, channel=0, data=[78, 100]),\n",
      "   midi.NoteOnEvent(tick=0, channel=0, data=[78, 100]),\n",
      "   midi.NoteOffEvent(tick=96, channel=0, data=[78, 64]),\n",
      "   midi.NoteOffEvent(tick=0, channel=0, data=[78, 64]),\n",
      "   midi.NoteOffEvent(tick=0, channel=0, data=[78, 64]),\n",
      "   midi.NoteOnEvent(tick=0, channel=0, data=[79, 100]),\n",
      "   midi.NoteOnEvent(tick=0, channel=0, data=[79, 100]),\n",
      "   midi.NoteOnEvent(tick=0, channel=0, data=[79, 100]),\n",
      "   midi.NoteOffEvent(tick=96, channel=0, data=[79, 64]),\n",
      "   midi.NoteOffEvent(tick=0, channel=0, data=[79, 64]),\n",
      "   midi.NoteOffEvent(tick=0, channel=0, data=[79, 64]),\n",
      "   midi.NoteOnEvent(tick=0, channel=0, data=[78, 100]),\n",
      "   midi.NoteOnEvent(tick=0, channel=0, data=[78, 100]),\n",
      "   midi.NoteOnEvent(tick=0, channel=0, data=[78, 100]),\n",
      "   midi.NoteOffEvent(tick=96, channel=0, data=[78, 64]),\n",
      "   midi.NoteOffEvent(tick=0, channel=0, data=[78, 64]),\n",
      "   midi.NoteOffEvent(tick=0, channel=0, data=[78, 64]),\n",
      "   midi.NoteOnEvent(tick=0, channel=0, data=[76, 100]),\n",
      "   midi.NoteOnEvent(tick=0, channel=0, data=[76, 100]),\n",
      "   midi.NoteOnEvent(tick=0, channel=0, data=[76, 100]),\n",
      "   midi.NoteOffEvent(tick=96, channel=0, data=[76, 64]),\n",
      "   midi.NoteOffEvent(tick=0, channel=0, data=[76, 64]),\n",
      "   midi.NoteOffEvent(tick=0, channel=0, data=[76, 64]),\n",
      "   midi.NoteOnEvent(tick=0, channel=0, data=[74, 100]),\n",
      "   midi.NoteOnEvent(tick=0, channel=0, data=[74, 100]),\n",
      "   midi.NoteOnEvent(tick=0, channel=0, data=[74, 100]),\n",
      "   midi.NoteOffEvent(tick=96, channel=0, data=[74, 64]),\n",
      "   midi.NoteOffEvent(tick=0, channel=0, data=[74, 64]),\n",
      "   midi.NoteOffEvent(tick=0, channel=0, data=[74, 64]),\n",
      "   midi.NoteOnEvent(tick=0, channel=0, data=[81, 100]),\n",
      "   midi.NoteOnEvent(tick=0, channel=0, data=[81, 100]),\n",
      "   midi.NoteOnEvent(tick=0, channel=0, data=[81, 100]),\n",
      "   midi.NoteOffEvent(tick=960, channel=0, data=[81, 64]),\n",
      "   midi.NoteOffEvent(tick=0, channel=0, data=[81, 64]),\n",
      "   midi.NoteOffEvent(tick=0, channel=0, data=[81, 64]),\n",
      "   midi.NoteOnEvent(tick=0, channel=0, data=[79, 100]),\n",
      "   midi.NoteOnEvent(tick=0, channel=0, data=[79, 100]),\n",
      "   midi.NoteOffEvent(tick=96, channel=0, data=[79, 64]),\n",
      "   midi.NoteOffEvent(tick=0, channel=0, data=[79, 64]),\n",
      "   midi.NoteOnEvent(tick=0, channel=0, data=[78, 100]),\n",
      "   midi.NoteOnEvent(tick=0, channel=0, data=[78, 100]),\n",
      "   midi.NoteOffEvent(tick=96, channel=0, data=[78, 64]),\n",
      "   midi.NoteOffEvent(tick=0, channel=0, data=[78, 64]),\n",
      "   midi.NoteOnEvent(tick=0, channel=0, data=[79, 100]),\n",
      "   midi.NoteOnEvent(tick=0, channel=0, data=[79, 100]),\n",
      "   midi.NoteOffEvent(tick=96, channel=0, data=[79, 64]),\n",
      "   midi.NoteOffEvent(tick=0, channel=0, data=[79, 64]),\n",
      "   midi.NoteOnEvent(tick=0, channel=0, data=[78, 100]),\n",
      "   midi.NoteOnEvent(tick=0, channel=0, data=[78, 100]),\n",
      "   midi.NoteOffEvent(tick=96, channel=0, data=[78, 64]),\n",
      "   midi.NoteOffEvent(tick=0, channel=0, data=[78, 64]),\n",
      "   midi.NoteOnEvent(tick=0, channel=0, data=[76, 100]),\n",
      "   midi.NoteOnEvent(tick=0, channel=0, data=[76, 100]),\n",
      "   midi.NoteOffEvent(tick=96, channel=0, data=[76, 64]),\n",
      "   midi.NoteOffEvent(tick=0, channel=0, data=[76, 64]),\n",
      "   midi.NoteOnEvent(tick=0, channel=0, data=[78, 100]),\n",
      "   midi.NoteOnEvent(tick=0, channel=0, data=[78, 100]),\n",
      "   midi.NoteOffEvent(tick=96, channel=0, data=[78, 64]),\n",
      "   midi.NoteOffEvent(tick=0, channel=0, data=[78, 64]),\n",
      "   midi.NoteOnEvent(tick=0, channel=0, data=[74, 100]),\n",
      "   midi.NoteOffEvent(tick=192, channel=0, data=[74, 64]),\n",
      "   midi.NoteOnEvent(tick=12288, channel=0, data=[66, 100]),\n",
      "   midi.NoteOffEvent(tick=96, channel=0, data=[66, 64]),\n",
      "   midi.NoteOnEvent(tick=0, channel=0, data=[66, 100]),\n",
      "   midi.NoteOffEvent(tick=96, channel=0, data=[66, 64]),\n",
      "   midi.NoteOnEvent(tick=0, channel=0, data=[69, 100]),\n",
      "   midi.NoteOffEvent(tick=96, channel=0, data=[69, 64]),\n",
      "   midi.NoteOnEvent(tick=0, channel=0, data=[69, 100]),\n",
      "   midi.NoteOffEvent(tick=96, channel=0, data=[69, 64]),\n",
      "   midi.NoteOnEvent(tick=0, channel=0, data=[74, 100]),\n",
      "   midi.NoteOffEvent(tick=96, channel=0, data=[74, 64]),\n",
      "   midi.NoteOnEvent(tick=0, channel=0, data=[74, 100]),\n",
      "   midi.NoteOffEvent(tick=96, channel=0, data=[74, 64]),\n",
      "   midi.NoteOnEvent(tick=0, channel=0, data=[78, 100]),\n",
      "   midi.NoteOffEvent(tick=96, channel=0, data=[78, 64]),\n",
      "   midi.NoteOnEvent(tick=0, channel=0, data=[79, 100]),\n",
      "   midi.NoteOffEvent(tick=96, channel=0, data=[79, 64]),\n",
      "   midi.NoteOnEvent(tick=0, channel=0, data=[81, 100]),\n",
      "   midi.NoteOffEvent(tick=96, channel=0, data=[81, 64]),\n",
      "   midi.NoteOnEvent(tick=96, channel=0, data=[81, 100]),\n",
      "   midi.NoteOffEvent(tick=96, channel=0, data=[81, 64]),\n",
      "   midi.NoteOnEvent(tick=96, channel=0, data=[81, 100]),\n",
      "   midi.NoteOffEvent(tick=96, channel=0, data=[81, 64]),\n",
      "   midi.NoteOnEvent(tick=96, channel=0, data=[81, 100]),\n",
      "   midi.NoteOffEvent(tick=384, channel=0, data=[81, 64]),\n",
      "   midi.NoteOnEvent(tick=192, channel=0, data=[69, 100]),\n",
      "   midi.NoteOffEvent(tick=192, channel=0, data=[69, 64]),\n",
      "   midi.NoteOnEvent(tick=0, channel=0, data=[74, 100]),\n",
      "   midi.NoteOffEvent(tick=48, channel=0, data=[74, 64]),\n",
      "   midi.NoteOnEvent(tick=0, channel=0, data=[76, 100]),\n",
      "   midi.NoteOffEvent(tick=48, channel=0, data=[76, 64]),\n",
      "   midi.NoteOnEvent(tick=0, channel=0, data=[78, 100]),\n",
      "   midi.NoteOffEvent(tick=256, channel=0, data=[78, 64]),\n",
      "   midi.NoteOnEvent(tick=32, channel=0, data=[76, 100]),\n",
      "   midi.NoteOffEvent(tick=48, channel=0, data=[76, 64]),\n",
      "   midi.NoteOnEvent(tick=0, channel=0, data=[78, 100]),\n",
      "   midi.NoteOffEvent(tick=48, channel=0, data=[78, 64]),\n",
      "   midi.NoteOnEvent(tick=0, channel=0, data=[79, 100]),\n",
      "   midi.NoteOffEvent(tick=256, channel=0, data=[79, 64]),\n",
      "   midi.NoteOnEvent(tick=32, channel=0, data=[78, 100]),\n",
      "   midi.NoteOffEvent(tick=48, channel=0, data=[78, 64]),\n",
      "   midi.NoteOnEvent(tick=0, channel=0, data=[76, 100]),\n",
      "   midi.NoteOffEvent(tick=48, channel=0, data=[76, 64]),\n",
      "   midi.NoteOnEvent(tick=0, channel=0, data=[74, 100]),\n",
      "   midi.NoteOffEvent(tick=352, channel=0, data=[74, 64]),\n",
      "   midi.NoteOnEvent(tick=32, channel=0, data=[69, 100]),\n",
      "   midi.NoteOffEvent(tick=96, channel=0, data=[69, 64]),\n",
      "   midi.NoteOnEvent(tick=0, channel=0, data=[74, 100]),\n",
      "   midi.NoteOffEvent(tick=96, channel=0, data=[74, 64]),\n",
      "   midi.NoteOnEvent(tick=0, channel=0, data=[76, 100]),\n",
      "   midi.NoteOffEvent(tick=96, channel=0, data=[76, 64]),\n",
      "   midi.NoteOnEvent(tick=0, channel=0, data=[78, 100]),\n",
      "   midi.NoteOffEvent(tick=96, channel=0, data=[78, 64]),\n",
      "   midi.NoteOnEvent(tick=0, channel=0, data=[79, 100]),\n",
      "   midi.NoteOffEvent(tick=96, channel=0, data=[79, 64]),\n",
      "   midi.NoteOnEvent(tick=0, channel=0, data=[81, 100]),\n",
      "   midi.NoteOffEvent(tick=96, channel=0, data=[81, 64]),\n",
      "   midi.NoteOnEvent(tick=96, channel=0, data=[81, 100]),\n",
      "   midi.NoteOffEvent(tick=96, channel=0, data=[81, 64]),\n",
      "   midi.NoteOnEvent(tick=96, channel=0, data=[81, 100]),\n",
      "   midi.NoteOffEvent(tick=96, channel=0, data=[81, 64]),\n",
      "   midi.NoteOnEvent(tick=96, channel=0, data=[81, 100]),\n",
      "   midi.NoteOffEvent(tick=384, channel=0, data=[81, 64]),\n",
      "   midi.NoteOnEvent(tick=192, channel=0, data=[69, 100]),\n",
      "   midi.NoteOffEvent(tick=192, channel=0, data=[69, 64]),\n",
      "   midi.NoteOnEvent(tick=0, channel=0, data=[74, 100]),\n",
      "   midi.NoteOffEvent(tick=48, channel=0, data=[74, 64]),\n",
      "   midi.NoteOnEvent(tick=0, channel=0, data=[76, 100]),\n",
      "   midi.NoteOffEvent(tick=48, channel=0, data=[76, 64]),\n",
      "   midi.NoteOnEvent(tick=0, channel=0, data=[78, 100]),\n",
      "   midi.NoteOffEvent(tick=256, channel=0, data=[78, 64]),\n",
      "   midi.NoteOnEvent(tick=32, channel=0, data=[76, 100]),\n",
      "   midi.NoteOffEvent(tick=48, channel=0, data=[76, 64]),\n",
      "   midi.NoteOnEvent(tick=0, channel=0, data=[78, 100]),\n",
      "   midi.NoteOffEvent(tick=48, channel=0, data=[78, 64]),\n",
      "   midi.NoteOnEvent(tick=0, channel=0, data=[79, 100]),\n",
      "   midi.NoteOffEvent(tick=256, channel=0, data=[79, 64]),\n",
      "   midi.NoteOnEvent(tick=32, channel=0, data=[78, 100]),\n",
      "   midi.NoteOffEvent(tick=48, channel=0, data=[78, 64]),\n",
      "   midi.NoteOnEvent(tick=0, channel=0, data=[76, 100]),\n",
      "   midi.NoteOffEvent(tick=48, channel=0, data=[76, 64]),\n",
      "   midi.NoteOnEvent(tick=0, channel=0, data=[74, 100]),\n",
      "   midi.NoteOffEvent(tick=352, channel=0, data=[74, 64]),\n",
      "   midi.NoteOnEvent(tick=32, channel=0, data=[69, 100]),\n",
      "   midi.NoteOffEvent(tick=96, channel=0, data=[69, 64]),\n",
      "   midi.NoteOnEvent(tick=0, channel=0, data=[74, 100]),\n",
      "   midi.NoteOffEvent(tick=96, channel=0, data=[74, 64]),\n",
      "   midi.NoteOnEvent(tick=0, channel=0, data=[76, 100]),\n",
      "   midi.NoteOffEvent(tick=96, channel=0, data=[76, 64]),\n",
      "   midi.NoteOnEvent(tick=0, channel=0, data=[78, 100]),\n",
      "   midi.NoteOffEvent(tick=96, channel=0, data=[78, 64]),\n",
      "   midi.NoteOnEvent(tick=0, channel=0, data=[79, 100]),\n",
      "   midi.NoteOffEvent(tick=96, channel=0, data=[79, 64]),\n",
      "   midi.NoteOnEvent(tick=0, channel=0, data=[78, 100]),\n",
      "   midi.NoteOffEvent(tick=96, channel=0, data=[78, 64]),\n",
      "   midi.NoteOnEvent(tick=96, channel=0, data=[78, 100]),\n",
      "   midi.NoteOffEvent(tick=96, channel=0, data=[78, 64]),\n",
      "   midi.NoteOnEvent(tick=96, channel=0, data=[78, 100]),\n",
      "   midi.NoteOffEvent(tick=96, channel=0, data=[78, 64]),\n",
      "   midi.NoteOnEvent(tick=96, channel=0, data=[78, 100]),\n",
      "   midi.NoteOffEvent(tick=192, channel=0, data=[78, 64]),\n",
      "   midi.NoteOnEvent(tick=0, channel=0, data=[83, 100]),\n",
      "   midi.NoteOffEvent(tick=96, channel=0, data=[83, 64]),\n",
      "   midi.NoteOnEvent(tick=0, channel=0, data=[81, 100]),\n",
      "   midi.NoteOffEvent(tick=96, channel=0, data=[81, 64]),\n",
      "   midi.NoteOnEvent(tick=0, channel=0, data=[83, 100]),\n",
      "   midi.NoteOffEvent(tick=96, channel=0, data=[83, 64]),\n",
      "   midi.NoteOnEvent(tick=0, channel=0, data=[81, 100]),\n",
      "   midi.NoteOffEvent(tick=96, channel=0, data=[81, 64]),\n",
      "   midi.NoteOnEvent(tick=0, channel=0, data=[80, 100]),\n",
      "   midi.NoteOffEvent(tick=96, channel=0, data=[80, 64]),\n",
      "   midi.NoteOnEvent(tick=0, channel=0, data=[78, 100]),\n",
      "   midi.NoteOffEvent(tick=96, channel=0, data=[78, 64]),\n",
      "   midi.NoteOnEvent(tick=0, channel=0, data=[76, 100]),\n",
      "   midi.NoteOnEvent(tick=0, channel=0, data=[76, 100]),\n",
      "   midi.NoteOffEvent(tick=96, channel=0, data=[76, 64]),\n",
      "   midi.NoteOffEvent(tick=0, channel=0, data=[76, 64]),\n",
      "   midi.NoteOnEvent(tick=0, channel=0, data=[78, 100]),\n",
      "   midi.NoteOnEvent(tick=0, channel=0, data=[78, 100]),\n",
      "   midi.NoteOffEvent(tick=96, channel=0, data=[78, 64]),\n",
      "   midi.NoteOffEvent(tick=0, channel=0, data=[78, 64]),\n",
      "   midi.NoteOnEvent(tick=0, channel=0, data=[76, 100]),\n",
      "   midi.NoteOnEvent(tick=0, channel=0, data=[76, 100]),\n",
      "   midi.NoteOffEvent(tick=96, channel=0, data=[76, 64]),\n",
      "   midi.NoteOffEvent(tick=0, channel=0, data=[76, 64]),\n",
      "   midi.NoteOnEvent(tick=96, channel=0, data=[76, 100]),\n",
      "   midi.NoteOnEvent(tick=0, channel=0, data=[76, 100]),\n",
      "   midi.NoteOffEvent(tick=96, channel=0, data=[76, 64]),\n",
      "   midi.NoteOffEvent(tick=0, channel=0, data=[76, 64]),\n",
      "   midi.NoteOnEvent(tick=96, channel=0, data=[76, 100]),\n",
      "   midi.NoteOnEvent(tick=0, channel=0, data=[76, 100]),\n",
      "   midi.NoteOffEvent(tick=96, channel=0, data=[76, 64]),\n",
      "   midi.NoteOffEvent(tick=0, channel=0, data=[76, 64]),\n",
      "   midi.NoteOnEvent(tick=96, channel=0, data=[76, 100]),\n",
      "   midi.NoteOffEvent(tick=192, channel=0, data=[76, 64]),\n",
      "   midi.NoteOnEvent(tick=0, channel=0, data=[81, 100]),\n",
      "   midi.NoteOffEvent(tick=96, channel=0, data=[81, 64]),\n",
      "   midi.NoteOnEvent(tick=0, channel=0, data=[80, 100]),\n",
      "   midi.NoteOffEvent(tick=96, channel=0, data=[80, 64]),\n",
      "   midi.NoteOnEvent(tick=0, channel=0, data=[81, 100]),\n",
      "   midi.NoteOffEvent(tick=96, channel=0, data=[81, 64]),\n",
      "   midi.NoteOnEvent(tick=0, channel=0, data=[80, 100]),\n",
      "   midi.NoteOffEvent(tick=96, channel=0, data=[80, 64]),\n",
      "   midi.NoteOnEvent(tick=0, channel=0, data=[78, 100]),\n",
      "   midi.NoteOffEvent(tick=96, channel=0, data=[78, 64]),\n",
      "   midi.NoteOnEvent(tick=0, channel=0, data=[76, 100]),\n",
      "   midi.NoteOffEvent(tick=96, channel=0, data=[76, 64]),\n",
      "   midi.NoteOnEvent(tick=0, channel=0, data=[74, 100]),\n",
      "   midi.NoteOffEvent(tick=96, channel=0, data=[74, 64]),\n",
      "   midi.NoteOnEvent(tick=0, channel=0, data=[76, 100]),\n",
      "   midi.NoteOffEvent(tick=96, channel=0, data=[76, 64]),\n",
      "   midi.NoteOnEvent(tick=0, channel=0, data=[74, 100]),\n",
      "   midi.NoteOffEvent(tick=96, channel=0, data=[74, 64]),\n",
      "   midi.NoteOnEvent(tick=96, channel=0, data=[74, 100]),\n",
      "   midi.NoteOffEvent(tick=96, channel=0, data=[74, 64]),\n",
      "   midi.NoteOnEvent(tick=96, channel=0, data=[74, 100]),\n",
      "   midi.NoteOffEvent(tick=96, channel=0, data=[74, 64]),\n",
      "   midi.NoteOnEvent(tick=96, channel=0, data=[86, 100]),\n",
      "   midi.NoteOffEvent(tick=512, channel=0, data=[86, 64]),\n",
      "   midi.NoteOnEvent(tick=64, channel=0, data=[85, 100]),\n",
      "   midi.NoteOffEvent(tick=96, channel=0, data=[85, 64]),\n",
      "   midi.NoteOnEvent(tick=0, channel=0, data=[83, 100]),\n",
      "   midi.NoteOffEvent(tick=96, channel=0, data=[83, 64]),\n",
      "   midi.NoteOnEvent(tick=0, channel=0, data=[85, 100]),\n",
      "   midi.NoteOffEvent(tick=192, channel=0, data=[85, 64]),\n",
      "   midi.NoteOnEvent(tick=0, channel=0, data=[81, 100]),\n",
      "   midi.NoteOffEvent(tick=192, channel=0, data=[81, 64]),\n",
      "   midi.NoteOnEvent(tick=0, channel=0, data=[76, 100]),\n",
      "   midi.NoteOffEvent(tick=192, channel=0, data=[76, 64]),\n",
      "   midi.NoteOnEvent(tick=0, channel=0, data=[80, 100]),\n",
      "   midi.NoteOffEvent(tick=192, channel=0, data=[80, 64]),\n",
      "   midi.NoteOnEvent(tick=0, channel=0, data=[81, 100]),\n",
      "   midi.NoteOffEvent(tick=768, channel=0, data=[81, 64]),\n",
      "   midi.EndOfTrackEvent(tick=0, data=[])]),\n",
      " midi.Track(\\\n",
      "  [midi.TrackNameEvent(tick=0, text='Tromba II', data=[84, 114, 111, 109, 98, 97, 32, 73, 73]),\n",
      "   midi.ControlChangeEvent(tick=0, channel=0, data=[0, 0]),\n",
      "   midi.ProgramChangeEvent(tick=0, channel=0, data=[56]),\n",
      "   midi.ControlChangeEvent(tick=0, channel=0, data=[7, 127]),\n",
      "   midi.ControlChangeEvent(tick=0, channel=0, data=[10, 61]),\n",
      "   midi.ControlChangeEvent(tick=0, channel=0, data=[91, 127]),\n",
      "   midi.ControlChangeEvent(tick=0, channel=0, data=[93, 127]),\n",
      "   midi.KeySignatureEvent(tick=0, data=[2, 0]),\n",
      "   midi.NoteOnEvent(tick=768, channel=0, data=[74, 100]),\n",
      "   midi.NoteOffEvent(tick=96, channel=0, data=[74, 64]),\n",
      "   midi.NoteOnEvent(tick=0, channel=0, data=[76, 100]),\n",
      "   midi.NoteOffEvent(tick=96, channel=0, data=[76, 64]),\n",
      "   midi.NoteOnEvent(tick=0, channel=0, data=[78, 100]),\n",
      "   midi.NoteOffEvent(tick=192, channel=0, data=[78, 64]),\n",
      "   midi.NoteOnEvent(tick=192, channel=0, data=[69, 100]),\n",
      "   midi.NoteOffEvent(tick=192, channel=0, data=[69, 64]),\n",
      "   midi.NoteOnEvent(tick=0, channel=0, data=[66, 100]),\n",
      "   midi.NoteOffEvent(tick=192, channel=0, data=[66, 64]),\n",
      "   midi.NoteOnEvent(tick=0, channel=0, data=[62, 100]),\n",
      "   midi.NoteOffEvent(tick=192, channel=0, data=[62, 64]),\n",
      "   midi.NoteOnEvent(tick=0, channel=0, data=[66, 100]),\n",
      "   midi.NoteOffEvent(tick=192, channel=0, data=[66, 64]),\n",
      "   midi.NoteOnEvent(tick=0, channel=0, data=[69, 100]),\n",
      "   midi.NoteOffEvent(tick=192, channel=0, data=[69, 64]),\n",
      "   midi.NoteOnEvent(tick=0, channel=0, data=[69, 100]),\n",
      "   midi.NoteOffEvent(tick=192, channel=0, data=[69, 64]),\n",
      "   midi.NoteOnEvent(tick=384, channel=0, data=[76, 100]),\n",
      "   midi.NoteOffEvent(tick=192, channel=0, data=[76, 64]),\n",
      "   midi.NoteOnEvent(tick=0, channel=0, data=[74, 100]),\n",
      "   midi.NoteOffEvent(tick=192, channel=0, data=[74, 64]),\n",
      "   midi.NoteOnEvent(tick=384, channel=0, data=[69, 100]),\n",
      "   midi.NoteOffEvent(tick=192, channel=0, data=[69, 64]),\n",
      "   midi.NoteOnEvent(tick=0, channel=0, data=[74, 100]),\n",
      "   midi.NoteOffEvent(tick=96, channel=0, data=[74, 64]),\n",
      "   midi.NoteOnEvent(tick=0, channel=0, data=[76, 100]),\n",
      "   midi.NoteOffEvent(tick=96, channel=0, data=[76, 64]),\n",
      "   midi.NoteOnEvent(tick=0, channel=0, data=[78, 100]),\n",
      "   midi.NoteOffEvent(tick=192, channel=0, data=[78, 64]),\n",
      "   midi.NoteOnEvent(tick=192, channel=0, data=[69, 100]),\n",
      "   midi.NoteOffEvent(tick=192, channel=0, data=[69, 64]),\n",
      "   midi.NoteOnEvent(tick=0, channel=0, data=[66, 100]),\n",
      "   midi.NoteOffEvent(tick=192, channel=0, data=[66, 64]),\n",
      "   midi.NoteOnEvent(tick=0, channel=0, data=[62, 100]),\n",
      "   midi.NoteOffEvent(tick=192, channel=0, data=[62, 64]),\n",
      "   midi.NoteOnEvent(tick=0, channel=0, data=[66, 100]),\n",
      "   midi.NoteOffEvent(tick=192, channel=0, data=[66, 64]),\n",
      "   midi.NoteOnEvent(tick=0, channel=0, data=[69, 100]),\n",
      "   midi.NoteOffEvent(tick=192, channel=0, data=[69, 64]),\n",
      "   midi.NoteOnEvent(tick=0, channel=0, data=[69, 100]),\n",
      "   midi.NoteOffEvent(tick=192, channel=0, data=[69, 64]),\n",
      "   midi.NoteOnEvent(tick=384, channel=0, data=[76, 100]),\n",
      "   midi.NoteOffEvent(tick=192, channel=0, data=[76, 64]),\n",
      "   midi.NoteOnEvent(tick=0, channel=0, data=[74, 100]),\n",
      "   midi.NoteOffEvent(tick=192, channel=0, data=[74, 64]),\n",
      "   midi.NoteOnEvent(tick=384, channel=0, data=[69, 100]),\n",
      "   midi.NoteOffEvent(tick=192, channel=0, data=[69, 64]),\n",
      "   midi.NoteOnEvent(tick=0, channel=0, data=[74, 100]),\n",
      "   midi.NoteOffEvent(tick=96, channel=0, data=[74, 64]),\n",
      "   midi.NoteOnEvent(tick=0, channel=0, data=[76, 100]),\n",
      "   midi.NoteOffEvent(tick=96, channel=0, data=[76, 64]),\n",
      "   midi.NoteOnEvent(tick=0, channel=0, data=[74, 100]),\n",
      "   midi.NoteOffEvent(tick=96, channel=0, data=[74, 64]),\n",
      "   midi.NoteOnEvent(tick=96, channel=0, data=[74, 100]),\n",
      "   midi.NoteOffEvent(tick=96, channel=0, data=[74, 64]),\n",
      "   midi.NoteOnEvent(tick=96, channel=0, data=[74, 100]),\n",
      "   midi.NoteOffEvent(tick=96, channel=0, data=[74, 64]),\n",
      "   midi.NoteOnEvent(tick=96, channel=0, data=[74, 100]),\n",
      "   midi.NoteOffEvent(tick=192, channel=0, data=[74, 64]),\n",
      "   midi.NoteOnEvent(tick=2304, channel=0, data=[78, 100]),\n",
      "   midi.NoteOffEvent(tick=192, channel=0, data=[78, 64]),\n",
      "   midi.NoteOnEvent(tick=0, channel=0, data=[80, 100]),\n",
      "   midi.NoteOffEvent(tick=192, channel=0, data=[80, 64]),\n",
      "   midi.NoteOnEvent(tick=0, channel=0, data=[81, 100]),\n",
      "   midi.NoteOffEvent(tick=192, channel=0, data=[81, 64]),\n",
      "   midi.NoteOnEvent(tick=0, channel=0, data=[83, 100]),\n",
      "   midi.NoteOffEvent(tick=512, channel=0, data=[83, 64]),\n",
      "   midi.NoteOnEvent(tick=64, channel=0, data=[81, 100]),\n",
      "   midi.NoteOffEvent(tick=96, channel=0, data=[81, 64]),\n",
      "   midi.NoteOnEvent(tick=0, channel=0, data=[80, 100]),\n",
      "   midi.NoteOffEvent(tick=96, channel=0, data=[80, 64]),\n",
      "   midi.NoteOnEvent(tick=0, channel=0, data=[81, 100]),\n",
      "   midi.NoteOffEvent(tick=192, channel=0, data=[81, 64]),\n",
      "   midi.NoteOnEvent(tick=0, channel=0, data=[76, 100]),\n",
      "   midi.NoteOffEvent(tick=192, channel=0, data=[76, 64]),\n",
      "   midi.NoteOnEvent(tick=0, channel=0, data=[76, 100]),\n",
      "   midi.NoteOffEvent(tick=192, channel=0, data=[76, 64]),\n",
      "   midi.NoteOnEvent(tick=0, channel=0, data=[76, 100]),\n",
      "   midi.NoteOffEvent(tick=192, channel=0, data=[76, 64]),\n",
      "   midi.NoteOnEvent(tick=0, channel=0, data=[76, 100]),\n",
      "   midi.NoteOffEvent(tick=768, channel=0, data=[76, 64]),\n",
      "   midi.NoteOnEvent(tick=1152, channel=0, data=[79, 100]),\n",
      "   midi.NoteOffEvent(tick=192, channel=0, data=[79, 64]),\n",
      "   midi.NoteOnEvent(tick=0, channel=0, data=[73, 100]),\n",
      "   midi.NoteOffEvent(tick=192, channel=0, data=[73, 64]),\n",
      "   midi.NoteOnEvent(tick=7872, channel=0, data=[69, 100]),\n",
      "   midi.NoteOffEvent(tick=192, channel=0, data=[69, 64]),\n",
      "   midi.NoteOnEvent(tick=0, channel=0, data=[69, 100]),\n",
      "   midi.NoteOffEvent(tick=192, channel=0, data=[69, 64]),\n",
      "   midi.NoteOnEvent(tick=0, channel=0, data=[76, 100]),\n",
      "   midi.NoteOffEvent(tick=192, channel=0, data=[76, 64]),\n",
      "   midi.NoteOnEvent(tick=0, channel=0, data=[76, 100]),\n",
      "   midi.NoteOffEvent(tick=512, channel=0, data=[76, 64]),\n",
      "   midi.NoteOnEvent(tick=64, channel=0, data=[74, 100]),\n",
      "   midi.NoteOffEvent(tick=96, channel=0, data=[74, 64]),\n",
      "   midi.NoteOnEvent(tick=0, channel=0, data=[73, 100]),\n",
      "   midi.NoteOffEvent(tick=96, channel=0, data=[73, 64]),\n",
      "   midi.NoteOnEvent(tick=0, channel=0, data=[74, 100]),\n",
      "   midi.NoteOffEvent(tick=192, channel=0, data=[74, 64]),\n",
      "   midi.NoteOnEvent(tick=0, channel=0, data=[74, 100]),\n",
      "   midi.NoteOffEvent(tick=192, channel=0, data=[74, 64]),\n",
      "   midi.NoteOnEvent(tick=0, channel=0, data=[74, 100]),\n",
      "   midi.NoteOffEvent(tick=192, channel=0, data=[74, 64]),\n",
      "   midi.NoteOnEvent(tick=0, channel=0, data=[69, 100]),\n",
      "   midi.NoteOffEvent(tick=192, channel=0, data=[69, 64]),\n",
      "   midi.NoteOnEvent(tick=0, channel=0, data=[69, 100]),\n",
      "   midi.NoteOffEvent(tick=384, channel=0, data=[69, 64]),\n",
      "   midi.NoteOnEvent(tick=6528, channel=0, data=[74, 100]),\n",
      "   midi.NoteOffEvent(tick=96, channel=0, data=[74, 64]),\n",
      "   midi.NoteOnEvent(tick=0, channel=0, data=[76, 100]),\n",
      "   midi.NoteOffEvent(tick=96, channel=0, data=[76, 64]),\n",
      "   midi.NoteOnEvent(tick=0, channel=0, data=[78, 100]),\n",
      "   midi.NoteOffEvent(tick=96, channel=0, data=[78, 64]),\n",
      "   midi.NoteOnEvent(tick=96, channel=0, data=[78, 100]),\n",
      "   midi.NoteOffEvent(tick=96, channel=0, data=[78, 64]),\n",
      "   midi.NoteOnEvent(tick=96, channel=0, data=[69, 100]),\n",
      "   midi.NoteOffEvent(tick=192, channel=0, data=[69, 64]),\n",
      "   midi.NoteOnEvent(tick=0, channel=0, data=[66, 100]),\n",
      "   midi.NoteOffEvent(tick=192, channel=0, data=[66, 64]),\n",
      "   midi.NoteOnEvent(tick=0, channel=0, data=[62, 100]),\n",
      "   midi.NoteOffEvent(tick=192, channel=0, data=[62, 64]),\n",
      "   midi.NoteOnEvent(tick=0, channel=0, data=[66, 100]),\n",
      "   midi.NoteOffEvent(tick=192, channel=0, data=[66, 64]),\n",
      "   midi.NoteOnEvent(tick=0, channel=0, data=[69, 100]),\n",
      "   midi.NoteOffEvent(tick=192, channel=0, data=[69, 64]),\n",
      "   midi.NoteOnEvent(tick=0, channel=0, data=[69, 100]),\n",
      "   midi.NoteOffEvent(tick=192, channel=0, data=[69, 64]),\n",
      "   midi.NoteOnEvent(tick=384, channel=0, data=[76, 100]),\n",
      "   midi.NoteOffEvent(tick=192, channel=0, data=[76, 64]),\n",
      "   midi.NoteOnEvent(tick=0, channel=0, data=[74, 100]),\n",
      "   midi.NoteOffEvent(tick=192, channel=0, data=[74, 64]),\n",
      "   midi.NoteOnEvent(tick=960, channel=0, data=[78, 100]),\n",
      "   midi.NoteOffEvent(tick=576, channel=0, data=[78, 64]),\n",
      "   midi.NoteOnEvent(tick=0, channel=0, data=[74, 100]),\n",
      "   midi.NoteOffEvent(tick=192, channel=0, data=[74, 64]),\n",
      "   midi.NoteOnEvent(tick=0, channel=0, data=[66, 100]),\n",
      "   midi.NoteOffEvent(tick=192, channel=0, data=[66, 64]),\n",
      "   midi.NoteOnEvent(tick=576, channel=0, data=[76, 100]),\n",
      "   midi.NoteOffEvent(tick=576, channel=0, data=[76, 64]),\n",
      "   midi.NoteOnEvent(tick=0, channel=0, data=[69, 100]),\n",
      "   midi.NoteOffEvent(tick=192, channel=0, data=[69, 64]),\n",
      "   midi.NoteOnEvent(tick=0, channel=0, data=[81, 100]),\n",
      "   midi.NoteOffEvent(tick=192, channel=0, data=[81, 64]),\n",
      "   midi.NoteOnEvent(tick=192, channel=0, data=[74, 100]),\n",
      "   midi.NoteOffEvent(tick=96, channel=0, data=[74, 64]),\n",
      "   midi.NoteOnEvent(tick=0, channel=0, data=[76, 100]),\n",
      "   midi.NoteOffEvent(tick=96, channel=0, data=[76, 64]),\n",
      "   midi.NoteOnEvent(tick=0, channel=0, data=[74, 100]),\n",
      "   midi.NoteOffEvent(tick=96, channel=0, data=[74, 64]),\n",
      "   midi.NoteOnEvent(tick=96, channel=0, data=[74, 100]),\n",
      "   midi.NoteOffEvent(tick=96, channel=0, data=[74, 64]),\n",
      "   midi.NoteOnEvent(tick=96, channel=0, data=[74, 100]),\n",
      "   midi.NoteOffEvent(tick=96, channel=0, data=[74, 64]),\n",
      "   midi.NoteOnEvent(tick=96, channel=0, data=[74, 100]),\n",
      "   midi.NoteOffEvent(tick=192, channel=0, data=[74, 64]),\n",
      "   midi.NoteOnEvent(tick=2304, channel=0, data=[78, 100]),\n",
      "   midi.NoteOffEvent(tick=192, channel=0, data=[78, 64]),\n",
      "   midi.NoteOnEvent(tick=0, channel=0, data=[80, 100]),\n",
      "   midi.NoteOffEvent(tick=192, channel=0, data=[80, 64]),\n",
      "   midi.NoteOnEvent(tick=0, channel=0, data=[81, 100]),\n",
      "   midi.NoteOffEvent(tick=192, channel=0, data=[81, 64]),\n",
      "   midi.NoteOnEvent(tick=0, channel=0, data=[83, 100]),\n",
      "   midi.NoteOffEvent(tick=512, channel=0, data=[83, 64]),\n",
      "   midi.NoteOnEvent(tick=64, channel=0, data=[81, 100]),\n",
      "   midi.NoteOffEvent(tick=96, channel=0, data=[81, 64]),\n",
      "   midi.NoteOnEvent(tick=0, channel=0, data=[80, 100]),\n",
      "   midi.NoteOffEvent(tick=96, channel=0, data=[80, 64]),\n",
      "   midi.NoteOnEvent(tick=0, channel=0, data=[81, 100]),\n",
      "   midi.NoteOffEvent(tick=192, channel=0, data=[81, 64]),\n",
      "   midi.NoteOnEvent(tick=0, channel=0, data=[76, 100]),\n",
      "   midi.NoteOffEvent(tick=192, channel=0, data=[76, 64]),\n",
      "   midi.NoteOnEvent(tick=0, channel=0, data=[76, 100]),\n",
      "   midi.NoteOffEvent(tick=192, channel=0, data=[76, 64]),\n",
      "   midi.NoteOnEvent(tick=0, channel=0, data=[76, 100]),\n",
      "   midi.NoteOffEvent(tick=192, channel=0, data=[76, 64]),\n",
      "   midi.NoteOnEvent(tick=0, channel=0, data=[76, 100]),\n",
      "   midi.NoteOffEvent(tick=192, channel=0, data=[76, 64]),\n",
      "   midi.NoteOnEvent(tick=14208, channel=0, data=[76, 100]),\n",
      "   midi.NoteOffEvent(tick=192, channel=0, data=[76, 64]),\n",
      "   midi.NoteOnEvent(tick=0, channel=0, data=[81, 100]),\n",
      "   midi.NoteOffEvent(tick=192, channel=0, data=[81, 64]),\n",
      "   midi.NoteOnEvent(tick=192, channel=0, data=[80, 100]),\n",
      "   midi.NoteOffEvent(tick=192, channel=0, data=[80, 64]),\n",
      "   midi.NoteOnEvent(tick=192, channel=0, data=[76, 100]),\n",
      "   midi.NoteOffEvent(tick=192, channel=0, data=[76, 64]),\n",
      "   midi.NoteOnEvent(tick=1920, channel=0, data=[76, 100]),\n",
      "   midi.NoteOffEvent(tick=192, channel=0, data=[76, 64]),\n",
      "   midi.NoteOnEvent(tick=0, channel=0, data=[81, 100]),\n",
      "   midi.NoteOffEvent(tick=192, channel=0, data=[81, 64]),\n",
      "   midi.NoteOnEvent(tick=192, channel=0, data=[80, 100]),\n",
      "   midi.NoteOffEvent(tick=192, channel=0, data=[80, 64]),\n",
      "   midi.NoteOnEvent(tick=192, channel=0, data=[76, 100]),\n",
      "   midi.NoteOffEvent(tick=192, channel=0, data=[76, 64]),\n",
      "   midi.NoteOnEvent(tick=4992, channel=0, data=[81, 100]),\n",
      "   midi.NoteOffEvent(tick=96, channel=0, data=[81, 64]),\n",
      "   midi.NoteOnEvent(tick=0, channel=0, data=[80, 100]),\n",
      "   midi.NoteOffEvent(tick=96, channel=0, data=[80, 64]),\n",
      "   midi.NoteOnEvent(tick=0, channel=0, data=[81, 100]),\n",
      "   midi.NoteOffEvent(tick=192, channel=0, data=[81, 64]),\n",
      "   midi.NoteOnEvent(tick=0, channel=0, data=[76, 100]),\n",
      "   midi.NoteOffEvent(tick=192, channel=0, data=[76, 64]),\n",
      "   midi.NoteOnEvent(tick=0, channel=0, data=[76, 100]),\n",
      "   midi.NoteOffEvent(tick=192, channel=0, data=[76, 64]),\n",
      "   midi.NoteOnEvent(tick=0, channel=0, data=[76, 100]),\n",
      "   midi.NoteOffEvent(tick=192, channel=0, data=[76, 64]),\n",
      "   midi.NoteOnEvent(tick=0, channel=0, data=[76, 100]),\n",
      "   midi.NoteOffEvent(tick=768, channel=0, data=[76, 64]),\n",
      "   midi.NoteOnEvent(tick=37632, channel=0, data=[74, 100]),\n",
      "   midi.NoteOffEvent(tick=96, channel=0, data=[74, 64]),\n",
      "   midi.NoteOnEvent(tick=0, channel=0, data=[76, 100]),\n",
      "   midi.NoteOffEvent(tick=96, channel=0, data=[76, 64]),\n",
      "   midi.NoteOnEvent(tick=0, channel=0, data=[78, 100]),\n",
      "   midi.NoteOffEvent(tick=192, channel=0, data=[78, 64]),\n",
      "   midi.NoteOnEvent(tick=192, channel=0, data=[69, 100]),\n",
      "   midi.NoteOffEvent(tick=192, channel=0, data=[69, 64]),\n",
      "   midi.NoteOnEvent(tick=0, channel=0, data=[66, 100]),\n",
      "   midi.NoteOffEvent(tick=192, channel=0, data=[66, 64]),\n",
      "   midi.NoteOnEvent(tick=0, channel=0, data=[62, 100]),\n",
      "   midi.NoteOffEvent(tick=192, channel=0, data=[62, 64]),\n",
      "   midi.NoteOnEvent(tick=0, channel=0, data=[66, 100]),\n",
      "   midi.NoteOffEvent(tick=192, channel=0, data=[66, 64]),\n",
      "   midi.NoteOnEvent(tick=0, channel=0, data=[69, 100]),\n",
      "   midi.NoteOffEvent(tick=192, channel=0, data=[69, 64]),\n",
      "   midi.NoteOnEvent(tick=0, channel=0, data=[69, 100]),\n",
      "   midi.NoteOffEvent(tick=192, channel=0, data=[69, 64]),\n",
      "   midi.NoteOnEvent(tick=384, channel=0, data=[76, 100]),\n",
      "   midi.NoteOffEvent(tick=192, channel=0, data=[76, 64]),\n",
      "   midi.NoteOnEvent(tick=0, channel=0, data=[74, 100]),\n",
      "   midi.NoteOffEvent(tick=192, channel=0, data=[74, 64]),\n",
      "   midi.NoteOnEvent(tick=384, channel=0, data=[69, 100]),\n",
      "   midi.NoteOffEvent(tick=192, channel=0, data=[69, 64]),\n",
      "   midi.NoteOnEvent(tick=0, channel=0, data=[74, 100]),\n",
      "   midi.NoteOffEvent(tick=96, channel=0, data=[74, 64]),\n",
      "   midi.NoteOnEvent(tick=0, channel=0, data=[76, 100]),\n",
      "   midi.NoteOffEvent(tick=96, channel=0, data=[76, 64]),\n",
      "   midi.NoteOnEvent(tick=0, channel=0, data=[78, 100]),\n",
      "   midi.NoteOffEvent(tick=96, channel=0, data=[78, 64]),\n",
      "   midi.NoteOnEvent(tick=96, channel=0, data=[78, 100]),\n",
      "   midi.NoteOffEvent(tick=96, channel=0, data=[78, 64]),\n",
      "   midi.NoteOnEvent(tick=96, channel=0, data=[78, 100]),\n",
      "   midi.NoteOffEvent(tick=96, channel=0, data=[78, 64]),\n",
      "   midi.NoteOnEvent(tick=96, channel=0, data=[78, 100]),\n",
      "   midi.NoteOffEvent(tick=384, channel=0, data=[78, 64]),\n",
      "   midi.NoteOnEvent(tick=4992, channel=0, data=[74, 100]),\n",
      "   midi.NoteOffEvent(tick=96, channel=0, data=[74, 64]),\n",
      "   midi.NoteOnEvent(tick=0, channel=0, data=[76, 100]),\n",
      "   midi.NoteOffEvent(tick=96, channel=0, data=[76, 64]),\n",
      "   midi.NoteOnEvent(tick=0, channel=0, data=[78, 100]),\n",
      "   midi.NoteOffEvent(tick=192, channel=0, data=[78, 64]),\n",
      "   midi.NoteOnEvent(tick=192, channel=0, data=[69, 100]),\n",
      "   midi.NoteOffEvent(tick=192, channel=0, data=[69, 64]),\n",
      "   midi.NoteOnEvent(tick=0, channel=0, data=[66, 100]),\n",
      "   midi.NoteOffEvent(tick=192, channel=0, data=[66, 64]),\n",
      "   midi.NoteOnEvent(tick=0, channel=0, data=[62, 100]),\n",
      "   midi.NoteOffEvent(tick=192, channel=0, data=[62, 64]),\n",
      "   midi.NoteOnEvent(tick=0, channel=0, data=[66, 100]),\n",
      "   midi.NoteOffEvent(tick=192, channel=0, data=[66, 64]),\n",
      "   midi.NoteOnEvent(tick=0, channel=0, data=[69, 100]),\n",
      "   midi.NoteOffEvent(tick=192, channel=0, data=[69, 64]),\n",
      "   midi.NoteOnEvent(tick=0, channel=0, data=[69, 100]),\n",
      "   midi.NoteOffEvent(tick=192, channel=0, data=[69, 64]),\n",
      "   midi.NoteOnEvent(tick=384, channel=0, data=[76, 100]),\n",
      "   midi.NoteOffEvent(tick=192, channel=0, data=[76, 64]),\n",
      "   midi.NoteOnEvent(tick=0, channel=0, data=[74, 100]),\n",
      "   midi.NoteOffEvent(tick=192, channel=0, data=[74, 64]),\n",
      "   midi.NoteOnEvent(tick=960, channel=0, data=[78, 100]),\n",
      "   midi.NoteOffEvent(tick=576, channel=0, data=[78, 64]),\n",
      "   midi.NoteOnEvent(tick=0, channel=0, data=[74, 100]),\n",
      "   midi.NoteOffEvent(tick=192, channel=0, data=[74, 64]),\n",
      "   midi.NoteOnEvent(tick=0, channel=0, data=[66, 100]),\n",
      "   midi.NoteOffEvent(tick=192, channel=0, data=[66, 64]),\n",
      "   midi.NoteOnEvent(tick=576, channel=0, data=[76, 100]),\n",
      "   midi.NoteOffEvent(tick=576, channel=0, data=[76, 64]),\n",
      "   midi.NoteOnEvent(tick=0, channel=0, data=[69, 100]),\n",
      "   midi.NoteOffEvent(tick=192, channel=0, data=[69, 64]),\n",
      "   midi.NoteOnEvent(tick=0, channel=0, data=[81, 100]),\n",
      "   midi.NoteOffEvent(tick=192, channel=0, data=[81, 64]),\n",
      "   midi.NoteOnEvent(tick=192, channel=0, data=[74, 100]),\n",
      "   midi.NoteOffEvent(tick=192, channel=0, data=[74, 64]),\n",
      "   midi.NoteOnEvent(tick=576, channel=0, data=[78, 100]),\n",
      "   midi.NoteOffEvent(tick=192, channel=0, data=[78, 64]),\n",
      "   midi.NoteOnEvent(tick=576, channel=0, data=[81, 100]),\n",
      "   midi.NoteOffEvent(tick=192, channel=0, data=[81, 64]),\n",
      "   midi.NoteOnEvent(tick=576, channel=0, data=[78, 100]),\n",
      "   midi.NoteOffEvent(tick=192, channel=0, data=[78, 64]),\n",
      "   midi.NoteOnEvent(tick=576, channel=0, data=[79, 100]),\n",
      "   midi.NoteOffEvent(tick=192, channel=0, data=[79, 64]),\n",
      "   midi.NoteOnEvent(tick=4224, channel=0, data=[76, 100]),\n",
      "   midi.NoteOffEvent(tick=192, channel=0, data=[76, 64]),\n",
      "   midi.NoteOnEvent(tick=0, channel=0, data=[78, 100]),\n",
      "   midi.NoteOnEvent(tick=0, channel=0, data=[78, 100]),\n",
      "   midi.NoteOffEvent(tick=192, channel=0, data=[78, 64]),\n",
      "   midi.NoteOffEvent(tick=0, channel=0, data=[78, 64]),\n",
      "   midi.NoteOnEvent(tick=0, channel=0, data=[74, 100]),\n",
      "   midi.NoteOnEvent(tick=0, channel=0, data=[74, 100]),\n",
      "   midi.NoteOffEvent(tick=96, channel=0, data=[74, 64]),\n",
      "   midi.NoteOffEvent(tick=0, channel=0, data=[74, 64]),\n",
      "   midi.NoteOnEvent(tick=0, channel=0, data=[69, 100]),\n",
      "   midi.NoteOnEvent(tick=0, channel=0, data=[69, 100]),\n",
      "   midi.NoteOffEvent(tick=96, channel=0, data=[69, 64]),\n",
      "   midi.NoteOffEvent(tick=0, channel=0, data=[69, 64]),\n",
      "   midi.NoteOnEvent(tick=0, channel=0, data=[76, 100]),\n",
      "   midi.NoteOnEvent(tick=0, channel=0, data=[76, 100]),\n",
      "   midi.NoteOffEvent(tick=192, channel=0, data=[76, 64]),\n",
      "   midi.NoteOffEvent(tick=0, channel=0, data=[76, 64]),\n",
      "   midi.NoteOnEvent(tick=0, channel=0, data=[69, 100]),\n",
      "   midi.NoteOnEvent(tick=0, channel=0, data=[69, 100]),\n",
      "   midi.NoteOffEvent(tick=192, channel=0, data=[69, 64]),\n",
      "   midi.NoteOffEvent(tick=0, channel=0, data=[69, 64]),\n",
      "   midi.NoteOnEvent(tick=0, channel=0, data=[69, 100]),\n",
      "   midi.NoteOffEvent(tick=192, channel=0, data=[69, 64]),\n",
      "   midi.NoteOnEvent(tick=12288, channel=0, data=[62, 100]),\n",
      "   midi.NoteOffEvent(tick=96, channel=0, data=[62, 64]),\n",
      "   midi.NoteOnEvent(tick=0, channel=0, data=[62, 100]),\n",
      "   midi.NoteOffEvent(tick=96, channel=0, data=[62, 64]),\n",
      "   midi.NoteOnEvent(tick=0, channel=0, data=[66, 100]),\n",
      "   midi.NoteOffEvent(tick=96, channel=0, data=[66, 64]),\n",
      "   midi.NoteOnEvent(tick=0, channel=0, data=[66, 100]),\n",
      "   midi.NoteOffEvent(tick=96, channel=0, data=[66, 64]),\n",
      "   midi.NoteOnEvent(tick=0, channel=0, data=[69, 100]),\n",
      "   midi.NoteOffEvent(tick=96, channel=0, data=[69, 64]),\n",
      "   midi.NoteOnEvent(tick=0, channel=0, data=[69, 100]),\n",
      "   midi.NoteOffEvent(tick=96, channel=0, data=[69, 64]),\n",
      "   midi.NoteOnEvent(tick=0, channel=0, data=[74, 100]),\n",
      "   midi.NoteOffEvent(tick=96, channel=0, data=[74, 64]),\n",
      "   midi.NoteOnEvent(tick=0, channel=0, data=[76, 100]),\n",
      "   midi.NoteOffEvent(tick=96, channel=0, data=[76, 64]),\n",
      "   midi.NoteOnEvent(tick=0, channel=0, data=[78, 100]),\n",
      "   midi.NoteOffEvent(tick=192, channel=0, data=[78, 64]),\n",
      "   midi.NoteOnEvent(tick=384, channel=0, data=[66, 100]),\n",
      "   midi.NoteOffEvent(tick=192, channel=0, data=[66, 64]),\n",
      "   midi.NoteOnEvent(tick=0, channel=0, data=[62, 100]),\n",
      "   midi.NoteOffEvent(tick=192, channel=0, data=[62, 64]),\n",
      "   midi.NoteOnEvent(tick=0, channel=0, data=[66, 100]),\n",
      "   midi.NoteOffEvent(tick=192, channel=0, data=[66, 64]),\n",
      "   midi.NoteOnEvent(tick=0, channel=0, data=[69, 100]),\n",
      "   midi.NoteOffEvent(tick=192, channel=0, data=[69, 64]),\n",
      "   midi.NoteOnEvent(tick=0, channel=0, data=[69, 100]),\n",
      "   midi.NoteOffEvent(tick=192, channel=0, data=[69, 64]),\n",
      "   midi.NoteOnEvent(tick=384, channel=0, data=[76, 100]),\n",
      "   midi.NoteOffEvent(tick=192, channel=0, data=[76, 64]),\n",
      "   midi.NoteOnEvent(tick=0, channel=0, data=[74, 100]),\n",
      "   midi.NoteOffEvent(tick=192, channel=0, data=[74, 64]),\n",
      "   midi.NoteOnEvent(tick=384, channel=0, data=[69, 100]),\n",
      "   midi.NoteOffEvent(tick=192, channel=0, data=[69, 64]),\n",
      "   midi.NoteOnEvent(tick=0, channel=0, data=[74, 100]),\n",
      "   midi.NoteOffEvent(tick=96, channel=0, data=[74, 64]),\n",
      "   midi.NoteOnEvent(tick=0, channel=0, data=[76, 100]),\n",
      "   midi.NoteOffEvent(tick=96, channel=0, data=[76, 64]),\n",
      "   midi.NoteOnEvent(tick=0, channel=0, data=[78, 100]),\n",
      "   midi.NoteOffEvent(tick=192, channel=0, data=[78, 64]),\n",
      "   midi.NoteOnEvent(tick=192, channel=0, data=[69, 100]),\n",
      "   midi.NoteOffEvent(tick=192, channel=0, data=[69, 64]),\n",
      "   midi.NoteOnEvent(tick=0, channel=0, data=[66, 100]),\n",
      "   midi.NoteOffEvent(tick=192, channel=0, data=[66, 64]),\n",
      "   midi.NoteOnEvent(tick=0, channel=0, data=[62, 100]),\n",
      "   midi.NoteOffEvent(tick=192, channel=0, data=[62, 64]),\n",
      "   midi.NoteOnEvent(tick=0, channel=0, data=[66, 100]),\n",
      "   midi.NoteOffEvent(tick=192, channel=0, data=[66, 64]),\n",
      "   midi.NoteOnEvent(tick=0, channel=0, data=[69, 100]),\n",
      "   midi.NoteOffEvent(tick=192, channel=0, data=[69, 64]),\n",
      "   midi.NoteOnEvent(tick=0, channel=0, data=[69, 100]),\n",
      "   midi.NoteOffEvent(tick=192, channel=0, data=[69, 64]),\n",
      "   midi.NoteOnEvent(tick=384, channel=0, data=[76, 100]),\n",
      "   midi.NoteOffEvent(tick=192, channel=0, data=[76, 64]),\n",
      "   midi.NoteOnEvent(tick=0, channel=0, data=[74, 100]),\n",
      "   midi.NoteOffEvent(tick=192, channel=0, data=[74, 64]),\n",
      "   midi.NoteOnEvent(tick=384, channel=0, data=[69, 100]),\n",
      "   midi.NoteOffEvent(tick=192, channel=0, data=[69, 64]),\n",
      "   midi.NoteOnEvent(tick=0, channel=0, data=[74, 100]),\n",
      "   midi.NoteOffEvent(tick=96, channel=0, data=[74, 64]),\n",
      "   midi.NoteOnEvent(tick=0, channel=0, data=[76, 100]),\n",
      "   midi.NoteOffEvent(tick=96, channel=0, data=[76, 64]),\n",
      "   midi.NoteOnEvent(tick=0, channel=0, data=[74, 100]),\n",
      "   midi.NoteOffEvent(tick=96, channel=0, data=[74, 64]),\n",
      "   midi.NoteOnEvent(tick=96, channel=0, data=[74, 100]),\n",
      "   midi.NoteOffEvent(tick=96, channel=0, data=[74, 64]),\n",
      "   midi.NoteOnEvent(tick=96, channel=0, data=[74, 100]),\n",
      "   midi.NoteOffEvent(tick=96, channel=0, data=[74, 64]),\n",
      "   midi.NoteOnEvent(tick=96, channel=0, data=[74, 100]),\n",
      "   midi.NoteOffEvent(tick=192, channel=0, data=[74, 64]),\n",
      "   midi.NoteOnEvent(tick=2304, channel=0, data=[78, 100]),\n",
      "   midi.NoteOffEvent(tick=192, channel=0, data=[78, 64]),\n",
      "   midi.NoteOnEvent(tick=0, channel=0, data=[80, 100]),\n",
      "   midi.NoteOffEvent(tick=192, channel=0, data=[80, 64]),\n",
      "   midi.NoteOnEvent(tick=0, channel=0, data=[81, 100]),\n",
      "   midi.NoteOffEvent(tick=192, channel=0, data=[81, 64]),\n",
      "   midi.NoteOnEvent(tick=0, channel=0, data=[83, 100]),\n",
      "   midi.NoteOffEvent(tick=512, channel=0, data=[83, 64]),\n",
      "   midi.NoteOnEvent(tick=64, channel=0, data=[81, 100]),\n",
      "   midi.NoteOffEvent(tick=96, channel=0, data=[81, 64]),\n",
      "   midi.NoteOnEvent(tick=0, channel=0, data=[80, 100]),\n",
      "   midi.NoteOffEvent(tick=96, channel=0, data=[80, 64]),\n",
      "   midi.NoteOnEvent(tick=0, channel=0, data=[81, 100]),\n",
      "   midi.NoteOffEvent(tick=192, channel=0, data=[81, 64]),\n",
      "   midi.NoteOnEvent(tick=0, channel=0, data=[76, 100]),\n",
      "   midi.NoteOffEvent(tick=192, channel=0, data=[76, 64]),\n",
      "   midi.NoteOnEvent(tick=0, channel=0, data=[76, 100]),\n",
      "   midi.NoteOffEvent(tick=192, channel=0, data=[76, 64]),\n",
      "   midi.NoteOnEvent(tick=0, channel=0, data=[76, 100]),\n",
      "   midi.NoteOffEvent(tick=192, channel=0, data=[76, 64]),\n",
      "   midi.NoteOnEvent(tick=0, channel=0, data=[76, 100]),\n",
      "   midi.NoteOffEvent(tick=768, channel=0, data=[76, 64]),\n",
      "   midi.EndOfTrackEvent(tick=0, data=[])]),\n",
      " midi.Track(\\\n",
      "  [midi.TrackNameEvent(tick=0, text='Tromba III', data=[84, 114, 111, 109, 98, 97, 32, 73, 73, 73]),\n",
      "   midi.ControlChangeEvent(tick=0, channel=0, data=[0, 0]),\n",
      "   midi.ProgramChangeEvent(tick=0, channel=0, data=[56]),\n",
      "   midi.ControlChangeEvent(tick=0, channel=0, data=[7, 127]),\n",
      "   midi.ControlChangeEvent(tick=0, channel=0, data=[10, 61]),\n",
      "   midi.ControlChangeEvent(tick=0, channel=0, data=[91, 127]),\n",
      "   midi.ControlChangeEvent(tick=0, channel=0, data=[93, 127]),\n",
      "   midi.KeySignatureEvent(tick=0, data=[2, 0]),\n",
      "   midi.NoteOnEvent(tick=2112, channel=0, data=[62, 100]),\n",
      "   midi.NoteOffEvent(tick=192, channel=0, data=[62, 64]),\n",
      "   midi.NoteOnEvent(tick=0, channel=0, data=[66, 100]),\n",
      "   midi.NoteOffEvent(tick=192, channel=0, data=[66, 64]),\n",
      "   midi.NoteOnEvent(tick=384, channel=0, data=[69, 100]),\n",
      "   midi.NoteOffEvent(tick=192, channel=0, data=[69, 64]),\n",
      "   midi.NoteOnEvent(tick=0, channel=0, data=[69, 100]),\n",
      "   midi.NoteOffEvent(tick=192, channel=0, data=[69, 64]),\n",
      "   midi.NoteOnEvent(tick=1920, channel=0, data=[62, 100]),\n",
      "   midi.NoteOffEvent(tick=192, channel=0, data=[62, 64]),\n",
      "   midi.NoteOnEvent(tick=0, channel=0, data=[66, 100]),\n",
      "   midi.NoteOffEvent(tick=192, channel=0, data=[66, 64]),\n",
      "   midi.NoteOnEvent(tick=384, channel=0, data=[69, 100]),\n",
      "   midi.NoteOffEvent(tick=192, channel=0, data=[69, 64]),\n",
      "   midi.NoteOnEvent(tick=0, channel=0, data=[69, 100]),\n",
      "   midi.NoteOffEvent(tick=192, channel=0, data=[69, 64]),\n",
      "   midi.NoteOnEvent(tick=3840, channel=0, data=[74, 100]),\n",
      "   midi.NoteOffEvent(tick=192, channel=0, data=[74, 64]),\n",
      "   midi.NoteOnEvent(tick=0, channel=0, data=[76, 100]),\n",
      "   midi.NoteOffEvent(tick=192, channel=0, data=[76, 64]),\n",
      "   midi.NoteOnEvent(tick=0, channel=0, data=[78, 100]),\n",
      "   midi.NoteOffEvent(tick=192, channel=0, data=[78, 64]),\n",
      "   midi.NoteOnEvent(tick=0, channel=0, data=[76, 100]),\n",
      "   midi.NoteOffEvent(tick=192, channel=0, data=[76, 64]),\n",
      "   midi.NoteOnEvent(tick=768, channel=0, data=[69, 100]),\n",
      "   midi.NoteOffEvent(tick=192, channel=0, data=[69, 64]),\n",
      "   midi.NoteOnEvent(tick=0, channel=0, data=[69, 100]),\n",
      "   midi.NoteOffEvent(tick=192, channel=0, data=[69, 64]),\n",
      "   midi.NoteOnEvent(tick=0, channel=0, data=[62, 100]),\n",
      "   midi.NoteOffEvent(tick=192, channel=0, data=[62, 64]),\n",
      "   midi.NoteOnEvent(tick=0, channel=0, data=[69, 100]),\n",
      "   midi.NoteOffEvent(tick=768, channel=0, data=[69, 64]),\n",
      "   midi.NoteOnEvent(tick=10560, channel=0, data=[69, 100]),\n",
      "   midi.NoteOffEvent(tick=192, channel=0, data=[69, 64]),\n",
      "   midi.NoteOnEvent(tick=0, channel=0, data=[69, 100]),\n",
      "   midi.NoteOffEvent(tick=192, channel=0, data=[69, 64]),\n",
      "   midi.NoteOnEvent(tick=0, channel=0, data=[62, 100]),\n",
      "   midi.NoteOffEvent(tick=192, channel=0, data=[62, 64]),\n",
      "   midi.NoteOnEvent(tick=0, channel=0, data=[69, 100]),\n",
      "   midi.NoteOffEvent(tick=192, channel=0, data=[69, 64]),\n",
      "   midi.NoteOnEvent(tick=0, channel=0, data=[69, 100]),\n",
      "   midi.NoteOffEvent(tick=192, channel=0, data=[69, 64]),\n",
      "   midi.NoteOnEvent(tick=0, channel=0, data=[69, 100]),\n",
      "   midi.NoteOffEvent(tick=384, channel=0, data=[69, 64]),\n",
      "   midi.NoteOnEvent(tick=7872, channel=0, data=[62, 100]),\n",
      "   midi.NoteOffEvent(tick=192, channel=0, data=[62, 64]),\n",
      "   midi.NoteOnEvent(tick=0, channel=0, data=[66, 100]),\n",
      "   midi.NoteOffEvent(tick=192, channel=0, data=[66, 64]),\n",
      "   midi.NoteOnEvent(tick=384, channel=0, data=[69, 100]),\n",
      "   midi.NoteOffEvent(tick=192, channel=0, data=[69, 64]),\n",
      "   midi.NoteOnEvent(tick=0, channel=0, data=[69, 100]),\n",
      "   midi.NoteOffEvent(tick=192, channel=0, data=[69, 64]),\n",
      "   midi.NoteOnEvent(tick=1536, channel=0, data=[78, 100]),\n",
      "   midi.NoteOffEvent(tick=96, channel=0, data=[78, 64]),\n",
      "   midi.NoteOnEvent(tick=0, channel=0, data=[76, 100]),\n",
      "   midi.NoteOffEvent(tick=96, channel=0, data=[76, 64]),\n",
      "   midi.NoteOnEvent(tick=0, channel=0, data=[74, 100]),\n",
      "   midi.NoteOffEvent(tick=192, channel=0, data=[74, 64]),\n",
      "   midi.NoteOnEvent(tick=1152, channel=0, data=[76, 100]),\n",
      "   midi.NoteOffEvent(tick=96, channel=0, data=[76, 64]),\n",
      "   midi.NoteOnEvent(tick=0, channel=0, data=[76, 100]),\n",
      "   midi.NoteOffEvent(tick=96, channel=0, data=[76, 64]),\n",
      "   midi.NoteOnEvent(tick=0, channel=0, data=[76, 100]),\n",
      "   midi.NoteOffEvent(tick=192, channel=0, data=[76, 64]),\n",
      "   midi.NoteOnEvent(tick=3456, channel=0, data=[74, 100]),\n",
      "   midi.NoteOffEvent(tick=192, channel=0, data=[74, 64]),\n",
      "   midi.NoteOnEvent(tick=0, channel=0, data=[76, 100]),\n",
      "   midi.NoteOffEvent(tick=192, channel=0, data=[76, 64]),\n",
      "   midi.NoteOnEvent(tick=0, channel=0, data=[78, 100]),\n",
      "   midi.NoteOffEvent(tick=192, channel=0, data=[78, 64]),\n",
      "   midi.NoteOnEvent(tick=0, channel=0, data=[76, 100]),\n",
      "   midi.NoteOffEvent(tick=192, channel=0, data=[76, 64]),\n",
      "   midi.NoteOnEvent(tick=768, channel=0, data=[69, 100]),\n",
      "   midi.NoteOffEvent(tick=192, channel=0, data=[69, 64]),\n",
      "   midi.NoteOnEvent(tick=0, channel=0, data=[69, 100]),\n",
      "   midi.NoteOffEvent(tick=192, channel=0, data=[69, 64]),\n",
      "   midi.NoteOnEvent(tick=0, channel=0, data=[62, 100]),\n",
      "   midi.NoteOffEvent(tick=192, channel=0, data=[62, 64]),\n",
      "   midi.NoteOnEvent(tick=0, channel=0, data=[69, 100]),\n",
      "   midi.NoteOffEvent(tick=192, channel=0, data=[69, 64]),\n",
      "   midi.NoteOnEvent(tick=14208, channel=0, data=[69, 100]),\n",
      "   midi.NoteOffEvent(tick=192, channel=0, data=[69, 64]),\n",
      "   midi.NoteOnEvent(tick=0, channel=0, data=[69, 100]),\n",
      "   midi.NoteOffEvent(tick=192, channel=0, data=[69, 64]),\n",
      "   midi.NoteOnEvent(tick=192, channel=0, data=[76, 100]),\n",
      "   midi.NoteOffEvent(tick=192, channel=0, data=[76, 64]),\n",
      "   midi.NoteOnEvent(tick=192, channel=0, data=[69, 100]),\n",
      "   midi.NoteOffEvent(tick=192, channel=0, data=[69, 64]),\n",
      "   midi.NoteOnEvent(tick=1920, channel=0, data=[69, 100]),\n",
      "   midi.NoteOffEvent(tick=192, channel=0, data=[69, 64]),\n",
      "   midi.NoteOnEvent(tick=0, channel=0, data=[69, 100]),\n",
      "   midi.NoteOffEvent(tick=192, channel=0, data=[69, 64]),\n",
      "   midi.NoteOnEvent(tick=192, channel=0, data=[76, 100]),\n",
      "   midi.NoteOffEvent(tick=192, channel=0, data=[76, 64]),\n",
      "   midi.NoteOnEvent(tick=192, channel=0, data=[69, 100]),\n",
      "   midi.NoteOffEvent(tick=192, channel=0, data=[69, 64]),\n",
      "   midi.NoteOnEvent(tick=4992, channel=0, data=[76, 100]),\n",
      "   midi.NoteOffEvent(tick=192, channel=0, data=[76, 64]),\n",
      "   midi.NoteOnEvent(tick=0, channel=0, data=[76, 100]),\n",
      "   midi.NoteOffEvent(tick=192, channel=0, data=[76, 64]),\n",
      "   midi.NoteOnEvent(tick=0, channel=0, data=[69, 100]),\n",
      "   midi.NoteOffEvent(tick=192, channel=0, data=[69, 64]),\n",
      "   midi.NoteOnEvent(tick=0, channel=0, data=[69, 100]),\n",
      "   midi.NoteOffEvent(tick=192, channel=0, data=[69, 64]),\n",
      "   midi.NoteOnEvent(tick=0, channel=0, data=[62, 100]),\n",
      "   midi.NoteOffEvent(tick=192, channel=0, data=[62, 64]),\n",
      "   midi.NoteOnEvent(tick=0, channel=0, data=[69, 100]),\n",
      "   midi.NoteOffEvent(tick=768, channel=0, data=[69, 64]),\n",
      "   midi.NoteOnEvent(tick=38976, channel=0, data=[62, 100]),\n",
      "   midi.NoteOffEvent(tick=192, channel=0, data=[62, 64]),\n",
      "   midi.NoteOnEvent(tick=0, channel=0, data=[66, 100]),\n",
      "   midi.NoteOffEvent(tick=192, channel=0, data=[66, 64]),\n",
      "   midi.NoteOnEvent(tick=384, channel=0, data=[69, 100]),\n",
      "   midi.NoteOffEvent(tick=192, channel=0, data=[69, 64]),\n",
      "   midi.NoteOnEvent(tick=0, channel=0, data=[69, 100]),\n",
      "   midi.NoteOffEvent(tick=192, channel=0, data=[69, 64]),\n",
      "   midi.NoteOnEvent(tick=576, channel=0, data=[69, 100]),\n",
      "   midi.NoteOffEvent(tick=96, channel=0, data=[69, 64]),\n",
      "   midi.NoteOnEvent(tick=0, channel=0, data=[74, 100]),\n",
      "   midi.NoteOffEvent(tick=96, channel=0, data=[74, 64]),\n",
      "   midi.NoteOnEvent(tick=0, channel=0, data=[74, 100]),\n",
      "   midi.NoteOffEvent(tick=96, channel=0, data=[74, 64]),\n",
      "   midi.NoteOnEvent(tick=0, channel=0, data=[74, 100]),\n",
      "   midi.NoteOffEvent(tick=96, channel=0, data=[74, 64]),\n",
      "   midi.NoteOnEvent(tick=0, channel=0, data=[74, 100]),\n",
      "   midi.NoteOffEvent(tick=96, channel=0, data=[74, 64]),\n",
      "   midi.NoteOnEvent(tick=0, channel=0, data=[74, 100]),\n",
      "   midi.NoteOffEvent(tick=96, channel=0, data=[74, 64]),\n",
      "   midi.NoteOnEvent(tick=0, channel=0, data=[74, 100]),\n",
      "   midi.NoteOffEvent(tick=96, channel=0, data=[74, 64]),\n",
      "   midi.NoteOnEvent(tick=0, channel=0, data=[74, 100]),\n",
      "   midi.NoteOffEvent(tick=96, channel=0, data=[74, 64]),\n",
      "   midi.NoteOnEvent(tick=0, channel=0, data=[74, 100]),\n",
      "   midi.NoteOffEvent(tick=384, channel=0, data=[74, 64]),\n",
      "   midi.NoteOnEvent(tick=6336, channel=0, data=[62, 100]),\n",
      "   midi.NoteOffEvent(tick=192, channel=0, data=[62, 64]),\n",
      "   midi.NoteOnEvent(tick=0, channel=0, data=[66, 100]),\n",
      "   midi.NoteOffEvent(tick=192, channel=0, data=[66, 64]),\n",
      "   midi.NoteOnEvent(tick=384, channel=0, data=[69, 100]),\n",
      "   midi.NoteOffEvent(tick=192, channel=0, data=[69, 64]),\n",
      "   midi.NoteOnEvent(tick=0, channel=0, data=[69, 100]),\n",
      "   midi.NoteOffEvent(tick=192, channel=0, data=[69, 64]),\n",
      "   midi.NoteOnEvent(tick=1536, channel=0, data=[78, 100]),\n",
      "   midi.NoteOffEvent(tick=96, channel=0, data=[78, 64]),\n",
      "   midi.NoteOnEvent(tick=0, channel=0, data=[76, 100]),\n",
      "   midi.NoteOffEvent(tick=96, channel=0, data=[76, 64]),\n",
      "   midi.NoteOnEvent(tick=0, channel=0, data=[74, 100]),\n",
      "   midi.NoteOffEvent(tick=192, channel=0, data=[74, 64]),\n",
      "   midi.NoteOnEvent(tick=1152, channel=0, data=[76, 100]),\n",
      "   midi.NoteOffEvent(tick=96, channel=0, data=[76, 64]),\n",
      "   midi.NoteOnEvent(tick=0, channel=0, data=[76, 100]),\n",
      "   midi.NoteOffEvent(tick=96, channel=0, data=[76, 64]),\n",
      "   midi.NoteOnEvent(tick=0, channel=0, data=[76, 100]),\n",
      "   midi.NoteOffEvent(tick=192, channel=0, data=[76, 64]),\n",
      "   midi.NoteOnEvent(tick=192, channel=0, data=[69, 100]),\n",
      "   midi.NoteOffEvent(tick=192, channel=0, data=[69, 64]),\n",
      "   midi.NoteOnEvent(tick=576, channel=0, data=[74, 100]),\n",
      "   midi.NoteOffEvent(tick=192, channel=0, data=[74, 64]),\n",
      "   midi.NoteOnEvent(tick=576, channel=0, data=[78, 100]),\n",
      "   midi.NoteOffEvent(tick=192, channel=0, data=[78, 64]),\n",
      "   midi.NoteOnEvent(tick=576, channel=0, data=[74, 100]),\n",
      "   midi.NoteOffEvent(tick=192, channel=0, data=[74, 64]),\n",
      "   midi.NoteOnEvent(tick=576, channel=0, data=[74, 100]),\n",
      "   midi.NoteOffEvent(tick=192, channel=0, data=[74, 64]),\n",
      "   midi.NoteOnEvent(tick=4224, channel=0, data=[69, 100]),\n",
      "   midi.NoteOffEvent(tick=192, channel=0, data=[69, 64]),\n",
      "   midi.NoteOnEvent(tick=0, channel=0, data=[62, 100]),\n",
      "   midi.NoteOnEvent(tick=0, channel=0, data=[62, 100]),\n",
      "   midi.NoteOffEvent(tick=192, channel=0, data=[62, 64]),\n",
      "   midi.NoteOffEvent(tick=0, channel=0, data=[62, 64]),\n",
      "   midi.NoteOnEvent(tick=0, channel=0, data=[69, 100]),\n",
      "   midi.NoteOnEvent(tick=0, channel=0, data=[69, 100]),\n",
      "   midi.NoteOffEvent(tick=96, channel=0, data=[69, 64]),\n",
      "   midi.NoteOffEvent(tick=0, channel=0, data=[69, 64]),\n",
      "   midi.NoteOnEvent(tick=0, channel=0, data=[69, 100]),\n",
      "   midi.NoteOnEvent(tick=0, channel=0, data=[69, 100]),\n",
      "   midi.NoteOffEvent(tick=96, channel=0, data=[69, 64]),\n",
      "   midi.NoteOffEvent(tick=0, channel=0, data=[69, 64]),\n",
      "   midi.NoteOnEvent(tick=0, channel=0, data=[69, 100]),\n",
      "   midi.NoteOnEvent(tick=0, channel=0, data=[69, 100]),\n",
      "   midi.NoteOffEvent(tick=192, channel=0, data=[69, 64]),\n",
      "   midi.NoteOffEvent(tick=0, channel=0, data=[69, 64]),\n",
      "   midi.NoteOnEvent(tick=0, channel=0, data=[69, 100]),\n",
      "   midi.NoteOnEvent(tick=0, channel=0, data=[69, 100]),\n",
      "   midi.NoteOffEvent(tick=192, channel=0, data=[69, 64]),\n",
      "   midi.NoteOffEvent(tick=0, channel=0, data=[69, 64]),\n",
      "   midi.NoteOnEvent(tick=0, channel=0, data=[66, 100]),\n",
      "   midi.NoteOffEvent(tick=192, channel=0, data=[66, 64]),\n",
      "   midi.NoteOnEvent(tick=12288, channel=0, data=[57, 100]),\n",
      "   midi.NoteOffEvent(tick=96, channel=0, data=[57, 64]),\n",
      "   midi.NoteOnEvent(tick=0, channel=0, data=[57, 100]),\n",
      "   midi.NoteOffEvent(tick=96, channel=0, data=[57, 64]),\n",
      "   midi.NoteOnEvent(tick=0, channel=0, data=[62, 100]),\n",
      "   midi.NoteOffEvent(tick=96, channel=0, data=[62, 64]),\n",
      "   midi.NoteOnEvent(tick=0, channel=0, data=[62, 100]),\n",
      "   midi.NoteOffEvent(tick=96, channel=0, data=[62, 64]),\n",
      "   midi.NoteOnEvent(tick=0, channel=0, data=[66, 100]),\n",
      "   midi.NoteOffEvent(tick=96, channel=0, data=[66, 64]),\n",
      "   midi.NoteOnEvent(tick=0, channel=0, data=[66, 100]),\n",
      "   midi.NoteOffEvent(tick=96, channel=0, data=[66, 64]),\n",
      "   midi.NoteOnEvent(tick=0, channel=0, data=[69, 100]),\n",
      "   midi.NoteOffEvent(tick=192, channel=0, data=[69, 64]),\n",
      "   midi.NoteOnEvent(tick=1152, channel=0, data=[62, 100]),\n",
      "   midi.NoteOffEvent(tick=192, channel=0, data=[62, 64]),\n",
      "   midi.NoteOnEvent(tick=0, channel=0, data=[66, 100]),\n",
      "   midi.NoteOffEvent(tick=192, channel=0, data=[66, 64]),\n",
      "   midi.NoteOnEvent(tick=384, channel=0, data=[69, 100]),\n",
      "   midi.NoteOffEvent(tick=192, channel=0, data=[69, 64]),\n",
      "   midi.NoteOnEvent(tick=0, channel=0, data=[69, 100]),\n",
      "   midi.NoteOffEvent(tick=192, channel=0, data=[69, 64]),\n",
      "   midi.NoteOnEvent(tick=1920, channel=0, data=[62, 100]),\n",
      "   midi.NoteOffEvent(tick=192, channel=0, data=[62, 64]),\n",
      "   midi.NoteOnEvent(tick=0, channel=0, data=[66, 100]),\n",
      "   midi.NoteOffEvent(tick=192, channel=0, data=[66, 64]),\n",
      "   midi.NoteOnEvent(tick=384, channel=0, data=[69, 100]),\n",
      "   midi.NoteOffEvent(tick=192, channel=0, data=[69, 64]),\n",
      "   midi.NoteOnEvent(tick=0, channel=0, data=[69, 100]),\n",
      "   midi.NoteOffEvent(tick=192, channel=0, data=[69, 64]),\n",
      "   midi.NoteOnEvent(tick=3840, channel=0, data=[74, 100]),\n",
      "   midi.NoteOffEvent(tick=192, channel=0, data=[74, 64]),\n",
      "   midi.NoteOnEvent(tick=0, channel=0, data=[76, 100]),\n",
      "   midi.NoteOffEvent(tick=192, channel=0, data=[76, 64]),\n",
      "   midi.NoteOnEvent(tick=0, channel=0, data=[78, 100]),\n",
      "   midi.NoteOffEvent(tick=192, channel=0, data=[78, 64]),\n",
      "   midi.NoteOnEvent(tick=0, channel=0, data=[76, 100]),\n",
      "   midi.NoteOffEvent(tick=192, channel=0, data=[76, 64]),\n",
      "   midi.NoteOnEvent(tick=768, channel=0, data=[69, 100]),\n",
      "   midi.NoteOffEvent(tick=192, channel=0, data=[69, 64]),\n",
      "   midi.NoteOnEvent(tick=0, channel=0, data=[69, 100]),\n",
      "   midi.NoteOffEvent(tick=192, channel=0, data=[69, 64]),\n",
      "   midi.NoteOnEvent(tick=0, channel=0, data=[62, 100]),\n",
      "   midi.NoteOffEvent(tick=192, channel=0, data=[62, 64]),\n",
      "   midi.NoteOnEvent(tick=0, channel=0, data=[69, 100]),\n",
      "   midi.NoteOffEvent(tick=768, channel=0, data=[69, 64]),\n",
      "   midi.EndOfTrackEvent(tick=0, data=[])]),\n",
      " midi.Track(\\\n",
      "  [midi.TrackNameEvent(tick=0, text='Timpani', data=[84, 105, 109, 112, 97, 110, 105]),\n",
      "   midi.ControlChangeEvent(tick=0, channel=1, data=[0, 0]),\n",
      "   midi.ProgramChangeEvent(tick=0, channel=1, data=[47]),\n",
      "   midi.ControlChangeEvent(tick=0, channel=1, data=[7, 100]),\n",
      "   midi.ControlChangeEvent(tick=0, channel=1, data=[10, 66]),\n",
      "   midi.ControlChangeEvent(tick=0, channel=1, data=[91, 127]),\n",
      "   midi.ControlChangeEvent(tick=0, channel=1, data=[93, 127]),\n",
      "   midi.KeySignatureEvent(tick=0, data=[2, 0]),\n",
      "   midi.NoteOnEvent(tick=2112, channel=1, data=[50, 100]),\n",
      "   midi.NoteOffEvent(tick=96, channel=1, data=[50, 64]),\n",
      "   midi.NoteOnEvent(tick=0, channel=1, data=[50, 100]),\n",
      "   midi.NoteOffEvent(tick=96, channel=1, data=[50, 64]),\n",
      "   midi.NoteOnEvent(tick=0, channel=1, data=[50, 100]),\n",
      "   midi.NoteOffEvent(tick=192, channel=1, data=[50, 64]),\n",
      "   midi.NoteOnEvent(tick=384, channel=1, data=[45, 100]),\n",
      "   midi.NoteOffEvent(tick=96, channel=1, data=[45, 64]),\n",
      "   midi.NoteOnEvent(tick=0, channel=1, data=[45, 100]),\n",
      "   midi.NoteOffEvent(tick=96, channel=1, data=[45, 64]),\n",
      "   midi.NoteOnEvent(tick=0, channel=1, data=[50, 100]),\n",
      "   midi.NoteOffEvent(tick=192, channel=1, data=[50, 64]),\n",
      "   midi.NoteOnEvent(tick=1920, channel=1, data=[50, 100]),\n",
      "   midi.NoteOffEvent(tick=96, channel=1, data=[50, 64]),\n",
      "   midi.NoteOnEvent(tick=0, channel=1, data=[50, 100]),\n",
      "   midi.NoteOffEvent(tick=96, channel=1, data=[50, 64]),\n",
      "   midi.NoteOnEvent(tick=0, channel=1, data=[50, 100]),\n",
      "   midi.NoteOffEvent(tick=192, channel=1, data=[50, 64]),\n",
      "   midi.NoteOnEvent(tick=384, channel=1, data=[45, 100]),\n",
      "   midi.NoteOffEvent(tick=96, channel=1, data=[45, 64]),\n",
      "   midi.NoteOnEvent(tick=0, channel=1, data=[45, 100]),\n",
      "   midi.NoteOffEvent(tick=96, channel=1, data=[45, 64]),\n",
      "   midi.NoteOnEvent(tick=0, channel=1, data=[50, 100]),\n",
      "   midi.NoteOffEvent(tick=192, channel=1, data=[50, 64]),\n",
      "   midi.NoteOnEvent(tick=5376, channel=1, data=[45, 100]),\n",
      "   midi.NoteOffEvent(tick=96, channel=1, data=[45, 64]),\n",
      "   midi.NoteOnEvent(tick=0, channel=1, data=[45, 100]),\n",
      "   midi.NoteOffEvent(tick=96, channel=1, data=[45, 64]),\n",
      "   midi.NoteOnEvent(tick=0, channel=1, data=[45, 100]),\n",
      "   midi.NoteOffEvent(tick=192, channel=1, data=[45, 64]),\n",
      "   midi.NoteOnEvent(tick=0, channel=1, data=[50, 100]),\n",
      "   midi.NoteOffEvent(tick=192, channel=1, data=[50, 64]),\n",
      "   midi.NoteOnEvent(tick=0, channel=1, data=[45, 100]),\n",
      "   midi.NoteOffEvent(tick=768, channel=1, data=[45, 64]),\n",
      "   midi.NoteOnEvent(tick=10560, channel=1, data=[45, 100]),\n",
      "   midi.NoteOffEvent(tick=96, channel=1, data=[45, 64]),\n",
      "   midi.NoteOnEvent(tick=0, channel=1, data=[45, 100]),\n",
      "   midi.NoteOffEvent(tick=96, channel=1, data=[45, 64]),\n",
      "   midi.NoteOnEvent(tick=0, channel=1, data=[50, 100]),\n",
      "   midi.NoteOffEvent(tick=192, channel=1, data=[50, 64]),\n",
      "   midi.NoteOnEvent(tick=0, channel=1, data=[50, 100]),\n",
      "   midi.NoteOffEvent(tick=192, channel=1, data=[50, 64]),\n",
      "   midi.NoteOnEvent(tick=0, channel=1, data=[45, 100]),\n",
      "   midi.NoteOffEvent(tick=192, channel=1, data=[45, 64]),\n",
      "   midi.NoteOnEvent(tick=0, channel=1, data=[45, 100]),\n",
      "   midi.NoteOffEvent(tick=192, channel=1, data=[45, 64]),\n",
      "   midi.NoteOnEvent(tick=0, channel=1, data=[50, 100]),\n",
      "   midi.NoteOffEvent(tick=384, channel=1, data=[50, 64]),\n",
      "   midi.NoteOnEvent(tick=7872, channel=1, data=[50, 100]),\n",
      "   midi.NoteOffEvent(tick=96, channel=1, data=[50, 64]),\n",
      "   midi.NoteOnEvent(tick=0, channel=1, data=[50, 100]),\n",
      "   midi.NoteOffEvent(tick=96, channel=1, data=[50, 64]),\n",
      "   midi.NoteOnEvent(tick=0, channel=1, data=[50, 100]),\n",
      "   midi.NoteOffEvent(tick=192, channel=1, data=[50, 64]),\n",
      "   midi.NoteOnEvent(tick=384, channel=1, data=[45, 100]),\n",
      "   midi.NoteOffEvent(tick=96, channel=1, data=[45, 64]),\n",
      "   midi.NoteOnEvent(tick=0, channel=1, data=[45, 100]),\n",
      "   midi.NoteOffEvent(tick=96, channel=1, data=[45, 64]),\n",
      "   midi.NoteOnEvent(tick=0, channel=1, data=[50, 100]),\n",
      "   midi.NoteOffEvent(tick=192, channel=1, data=[50, 64]),\n",
      "   midi.NoteOnEvent(tick=1536, channel=1, data=[50, 100]),\n",
      "   midi.NoteOffEvent(tick=96, channel=1, data=[50, 64]),\n",
      "   midi.NoteOnEvent(tick=0, channel=1, data=[50, 100]),\n",
      "   midi.NoteOffEvent(tick=96, channel=1, data=[50, 64]),\n",
      "   midi.NoteOnEvent(tick=0, channel=1, data=[50, 100]),\n",
      "   midi.NoteOffEvent(tick=192, channel=1, data=[50, 64]),\n",
      "   midi.NoteOnEvent(tick=1152, channel=1, data=[45, 100]),\n",
      "   midi.NoteOffEvent(tick=96, channel=1, data=[45, 64]),\n",
      "   midi.NoteOnEvent(tick=0, channel=1, data=[45, 100]),\n",
      "   midi.NoteOffEvent(tick=96, channel=1, data=[45, 64]),\n",
      "   midi.NoteOnEvent(tick=0, channel=1, data=[45, 100]),\n",
      "   midi.NoteOffEvent(tick=192, channel=1, data=[45, 64]),\n",
      "   midi.NoteOnEvent(tick=4992, channel=1, data=[45, 100]),\n",
      "   midi.NoteOffEvent(tick=96, channel=1, data=[45, 64]),\n",
      "   midi.NoteOnEvent(tick=0, channel=1, data=[45, 100]),\n",
      "   midi.NoteOffEvent(tick=96, channel=1, data=[45, 64]),\n",
      "   midi.NoteOnEvent(tick=0, channel=1, data=[45, 100]),\n",
      "   midi.NoteOffEvent(tick=192, channel=1, data=[45, 64]),\n",
      "   midi.NoteOnEvent(tick=0, channel=1, data=[50, 100]),\n",
      "   midi.NoteOffEvent(tick=192, channel=1, data=[50, 64]),\n",
      "   midi.NoteOnEvent(tick=0, channel=1, data=[45, 100]),\n",
      "   midi.NoteOffEvent(tick=192, channel=1, data=[45, 64]),\n",
      "   midi.NoteOnEvent(tick=14208, channel=1, data=[45, 100]),\n",
      "   midi.NoteOffEvent(tick=96, channel=1, data=[45, 64]),\n",
      "   midi.NoteOnEvent(tick=0, channel=1, data=[45, 100]),\n",
      "   midi.NoteOffEvent(tick=96, channel=1, data=[45, 64]),\n",
      "   midi.NoteOnEvent(tick=0, channel=1, data=[45, 100]),\n",
      "   midi.NoteOffEvent(tick=96, channel=1, data=[45, 64]),\n",
      "   midi.NoteOnEvent(tick=672, channel=1, data=[45, 100]),\n",
      "   midi.NoteOffEvent(tick=192, channel=1, data=[45, 64]),\n",
      "   midi.NoteOnEvent(tick=1920, channel=1, data=[45, 100]),\n",
      "   midi.NoteOffEvent(tick=96, channel=1, data=[45, 64]),\n",
      "   midi.NoteOnEvent(tick=0, channel=1, data=[45, 100]),\n",
      "   midi.NoteOffEvent(tick=96, channel=1, data=[45, 64]),\n",
      "   midi.NoteOnEvent(tick=0, channel=1, data=[45, 100]),\n",
      "   midi.NoteOffEvent(tick=96, channel=1, data=[45, 64]),\n",
      "   midi.NoteOnEvent(tick=672, channel=1, data=[45, 100]),\n",
      "   midi.NoteOffEvent(tick=192, channel=1, data=[45, 64]),\n",
      "   midi.NoteOnEvent(tick=5376, channel=1, data=[45, 100]),\n",
      "   midi.NoteOffEvent(tick=96, channel=1, data=[45, 64]),\n",
      "   midi.NoteOnEvent(tick=0, channel=1, data=[45, 100]),\n",
      "   midi.NoteOffEvent(tick=96, channel=1, data=[45, 64]),\n",
      "   midi.NoteOnEvent(tick=0, channel=1, data=[45, 100]),\n",
      "   midi.NoteOffEvent(tick=192, channel=1, data=[45, 64]),\n",
      "   midi.NoteOnEvent(tick=0, channel=1, data=[50, 100]),\n",
      "   midi.NoteOffEvent(tick=192, channel=1, data=[50, 64]),\n",
      "   midi.NoteOnEvent(tick=0, channel=1, data=[45, 100]),\n",
      "   midi.NoteOffEvent(tick=768, channel=1, data=[45, 64]),\n",
      "   midi.NoteOnEvent(tick=38976, channel=1, data=[50, 100]),\n",
      "   midi.NoteOffEvent(tick=96, channel=1, data=[50, 64]),\n",
      "   midi.NoteOnEvent(tick=0, channel=1, data=[50, 100]),\n",
      "   midi.NoteOffEvent(tick=96, channel=1, data=[50, 64]),\n",
      "   midi.NoteOnEvent(tick=0, channel=1, data=[50, 100]),\n",
      "   midi.NoteOffEvent(tick=192, channel=1, data=[50, 64]),\n",
      "   midi.NoteOnEvent(tick=384, channel=1, data=[45, 100]),\n",
      "   midi.NoteOffEvent(tick=96, channel=1, data=[45, 64]),\n",
      "   midi.NoteOnEvent(tick=0, channel=1, data=[45, 100]),\n",
      "   midi.NoteOffEvent(tick=96, channel=1, data=[45, 64]),\n",
      "   midi.NoteOnEvent(tick=0, channel=1, data=[50, 100]),\n",
      "   midi.NoteOffEvent(tick=192, channel=1, data=[50, 64]),\n",
      "   midi.NoteOnEvent(tick=576, channel=1, data=[45, 100]),\n",
      "   midi.NoteOffEvent(tick=96, channel=1, data=[45, 64]),\n",
      "   midi.NoteOnEvent(tick=0, channel=1, data=[50, 100]),\n",
      "   midi.NoteOffEvent(tick=96, channel=1, data=[50, 64]),\n",
      "   midi.NoteOnEvent(tick=0, channel=1, data=[50, 100]),\n",
      "   midi.NoteOffEvent(tick=96, channel=1, data=[50, 64]),\n",
      "   midi.NoteOnEvent(tick=0, channel=1, data=[50, 100]),\n",
      "   midi.NoteOffEvent(tick=96, channel=1, data=[50, 64]),\n",
      "   midi.NoteOnEvent(tick=0, channel=1, data=[50, 100]),\n",
      "   midi.NoteOffEvent(tick=96, channel=1, data=[50, 64]),\n",
      "   midi.NoteOnEvent(tick=0, channel=1, data=[50, 100]),\n",
      "   midi.NoteOffEvent(tick=96, channel=1, data=[50, 64]),\n",
      "   midi.NoteOnEvent(tick=0, channel=1, data=[50, 100]),\n",
      "   midi.NoteOffEvent(tick=96, channel=1, data=[50, 64]),\n",
      "   midi.NoteOnEvent(tick=0, channel=1, data=[50, 100]),\n",
      "   midi.NoteOffEvent(tick=96, channel=1, data=[50, 64]),\n",
      "   midi.NoteOnEvent(tick=0, channel=1, data=[50, 100]),\n",
      "   midi.NoteOffEvent(tick=384, channel=1, data=[50, 64]),\n",
      "   midi.NoteOnEvent(tick=6336, channel=1, data=[50, 100]),\n",
      "   midi.NoteOffEvent(tick=96, channel=1, data=[50, 64]),\n",
      "   midi.NoteOnEvent(tick=0, channel=1, data=[50, 100]),\n",
      "   midi.NoteOffEvent(tick=96, channel=1, data=[50, 64]),\n",
      "   midi.NoteOnEvent(tick=0, channel=1, data=[50, 100]),\n",
      "   midi.NoteOffEvent(tick=192, channel=1, data=[50, 64]),\n",
      "   midi.NoteOnEvent(tick=384, channel=1, data=[45, 100]),\n",
      "   midi.NoteOffEvent(tick=96, channel=1, data=[45, 64]),\n",
      "   midi.NoteOnEvent(tick=0, channel=1, data=[45, 100]),\n",
      "   midi.NoteOffEvent(tick=96, channel=1, data=[45, 64]),\n",
      "   midi.NoteOnEvent(tick=0, channel=1, data=[50, 100]),\n",
      "   midi.NoteOffEvent(tick=192, channel=1, data=[50, 64]),\n",
      "   midi.NoteOnEvent(tick=1536, channel=1, data=[50, 100]),\n",
      "   midi.NoteOffEvent(tick=96, channel=1, data=[50, 64]),\n",
      "   midi.NoteOnEvent(tick=0, channel=1, data=[50, 100]),\n",
      "   midi.NoteOffEvent(tick=96, channel=1, data=[50, 64]),\n",
      "   midi.NoteOnEvent(tick=0, channel=1, data=[50, 100]),\n",
      "   midi.NoteOffEvent(tick=192, channel=1, data=[50, 64]),\n",
      "   midi.NoteOnEvent(tick=1152, channel=1, data=[45, 100]),\n",
      "   midi.NoteOffEvent(tick=96, channel=1, data=[45, 64]),\n",
      "   midi.NoteOnEvent(tick=0, channel=1, data=[45, 100]),\n",
      "   midi.NoteOffEvent(tick=96, channel=1, data=[45, 64]),\n",
      "   midi.NoteOnEvent(tick=0, channel=1, data=[45, 100]),\n",
      "   midi.NoteOffEvent(tick=192, channel=1, data=[45, 64]),\n",
      "   midi.NoteOnEvent(tick=192, channel=1, data=[50, 100]),\n",
      "   midi.NoteOffEvent(tick=192, channel=1, data=[50, 64]),\n",
      "   midi.NoteOnEvent(tick=576, channel=1, data=[50, 100]),\n",
      "   midi.NoteOffEvent(tick=192, channel=1, data=[50, 64]),\n",
      "   midi.NoteOnEvent(tick=576, channel=1, data=[50, 100]),\n",
      "   midi.NoteOffEvent(tick=192, channel=1, data=[50, 64]),\n",
      "   midi.NoteOnEvent(tick=576, channel=1, data=[50, 100]),\n",
      "   midi.NoteOffEvent(tick=192, channel=1, data=[50, 64]),\n",
      "   midi.NoteOnEvent(tick=576, channel=1, data=[50, 100]),\n",
      "   midi.NoteOffEvent(tick=192, channel=1, data=[50, 64]),\n",
      "   midi.NoteOnEvent(tick=4224, channel=1, data=[45, 100]),\n",
      "   midi.NoteOffEvent(tick=192, channel=1, data=[45, 64]),\n",
      "   midi.NoteOnEvent(tick=0, channel=1, data=[50, 100]),\n",
      "   midi.NoteOffEvent(tick=192, channel=1, data=[50, 64]),\n",
      "   midi.NoteOnEvent(tick=0, channel=1, data=[50, 100]),\n",
      "   midi.NoteOffEvent(tick=96, channel=1, data=[50, 64]),\n",
      "   midi.NoteOnEvent(tick=0, channel=1, data=[50, 100]),\n",
      "   midi.NoteOffEvent(tick=96, channel=1, data=[50, 64]),\n",
      "   midi.NoteOnEvent(tick=0, channel=1, data=[45, 100]),\n",
      "   midi.NoteOffEvent(tick=192, channel=1, data=[45, 64]),\n",
      "   midi.NoteOnEvent(tick=0, channel=1, data=[45, 100]),\n",
      "   midi.NoteOffEvent(tick=192, channel=1, data=[45, 64]),\n",
      "   midi.NoteOnEvent(tick=0, channel=1, data=[50, 100]),\n",
      "   midi.NoteOffEvent(tick=192, channel=1, data=[50, 64]),\n",
      "   midi.NoteOnEvent(tick=12288, channel=1, data=[50, 100]),\n",
      "   midi.NoteOffEvent(tick=96, channel=1, data=[50, 64]),\n",
      "   midi.NoteOnEvent(tick=0, channel=1, data=[50, 100]),\n",
      "   midi.NoteOffEvent(tick=96, channel=1, data=[50, 64]),\n",
      "   midi.NoteOnEvent(tick=0, channel=1, data=[50, 100]),\n",
      "   midi.NoteOffEvent(tick=96, channel=1, data=[50, 64]),\n",
      "   midi.NoteOnEvent(tick=0, channel=1, data=[50, 100]),\n",
      "   midi.NoteOffEvent(tick=96, channel=1, data=[50, 64]),\n",
      "   midi.NoteOnEvent(tick=0, channel=1, data=[50, 100]),\n",
      "   midi.NoteOffEvent(tick=96, channel=1, data=[50, 64]),\n",
      "   midi.NoteOnEvent(tick=0, channel=1, data=[50, 100]),\n",
      "   midi.NoteOffEvent(tick=96, channel=1, data=[50, 64]),\n",
      "   midi.NoteOnEvent(tick=0, channel=1, data=[50, 100]),\n",
      "   midi.NoteOffEvent(tick=192, channel=1, data=[50, 64]),\n",
      "   midi.NoteOnEvent(tick=1152, channel=1, data=[50, 100]),\n",
      "   midi.NoteOffEvent(tick=96, channel=1, data=[50, 64]),\n",
      "   midi.NoteOnEvent(tick=0, channel=1, data=[50, 100]),\n",
      "   midi.NoteOffEvent(tick=96, channel=1, data=[50, 64]),\n",
      "   midi.NoteOnEvent(tick=0, channel=1, data=[50, 100]),\n",
      "   midi.NoteOffEvent(tick=192, channel=1, data=[50, 64]),\n",
      "   midi.NoteOnEvent(tick=384, channel=1, data=[45, 100]),\n",
      "   midi.NoteOffEvent(tick=96, channel=1, data=[45, 64]),\n",
      "   midi.NoteOnEvent(tick=0, channel=1, data=[45, 100]),\n",
      "   midi.NoteOffEvent(tick=96, channel=1, data=[45, 64]),\n",
      "   midi.NoteOnEvent(tick=0, channel=1, data=[50, 100]),\n",
      "   midi.NoteOffEvent(tick=192, channel=1, data=[50, 64]),\n",
      "   midi.NoteOnEvent(tick=1920, channel=1, data=[50, 100]),\n",
      "   midi.NoteOffEvent(tick=96, channel=1, data=[50, 64]),\n",
      "   midi.NoteOnEvent(tick=0, channel=1, data=[50, 100]),\n",
      "   midi.NoteOffEvent(tick=96, channel=1, data=[50, 64]),\n",
      "   midi.NoteOnEvent(tick=0, channel=1, data=[50, 100]),\n",
      "   midi.NoteOffEvent(tick=192, channel=1, data=[50, 64]),\n",
      "   midi.NoteOnEvent(tick=384, channel=1, data=[45, 100]),\n",
      "   midi.NoteOffEvent(tick=96, channel=1, data=[45, 64]),\n",
      "   midi.NoteOnEvent(tick=0, channel=1, data=[45, 100]),\n",
      "   midi.NoteOffEvent(tick=96, channel=1, data=[45, 64]),\n",
      "   midi.NoteOnEvent(tick=0, channel=1, data=[50, 100]),\n",
      "   midi.NoteOffEvent(tick=192, channel=1, data=[50, 64]),\n",
      "   midi.NoteOnEvent(tick=5376, channel=1, data=[45, 100]),\n",
      "   midi.NoteOffEvent(tick=96, channel=1, data=[45, 64]),\n",
      "   midi.NoteOnEvent(tick=0, channel=1, data=[45, 100]),\n",
      "   midi.NoteOffEvent(tick=96, channel=1, data=[45, 64]),\n",
      "   midi.NoteOnEvent(tick=0, channel=1, data=[45, 100]),\n",
      "   midi.NoteOffEvent(tick=192, channel=1, data=[45, 64]),\n",
      "   midi.NoteOnEvent(tick=0, channel=1, data=[50, 100]),\n",
      "   midi.NoteOffEvent(tick=192, channel=1, data=[50, 64]),\n",
      "   midi.NoteOnEvent(tick=0, channel=1, data=[45, 100]),\n",
      "   midi.NoteOffEvent(tick=768, channel=1, data=[45, 64]),\n",
      "   midi.EndOfTrackEvent(tick=0, data=[])]),\n",
      " midi.Track(\\\n",
      "  [midi.TrackNameEvent(tick=0, text='Flauto transverso I', data=[70, 108, 97, 117, 116, 111, 32, 116, 114, 97, 110, 115, 118, 101, 114, 115, 111, 32, 73]),\n",
      "   midi.ControlChangeEvent(tick=0, channel=2, data=[0, 0]),\n",
      "   midi.ProgramChangeEvent(tick=0, channel=2, data=[73]),\n",
      "   midi.ControlChangeEvent(tick=0, channel=2, data=[7, 100]),\n",
      "   midi.ControlChangeEvent(tick=0, channel=2, data=[10, 62]),\n",
      "   midi.ControlChangeEvent(tick=0, channel=2, data=[91, 127]),\n",
      "   midi.ControlChangeEvent(tick=0, channel=2, data=[93, 127]),\n",
      "   midi.KeySignatureEvent(tick=0, data=[2, 0]),\n",
      "   midi.NoteOnEvent(tick=2112, channel=2, data=[69, 100]),\n",
      "   midi.NoteOffEvent(tick=192, channel=2, data=[69, 64]),\n",
      "   midi.NoteOnEvent(tick=0, channel=2, data=[74, 100]),\n",
      "   midi.NoteOffEvent(tick=48, channel=2, data=[74, 64]),\n",
      "   midi.NoteOnEvent(tick=0, channel=2, data=[76, 100]),\n",
      "   midi.NoteOffEvent(tick=48, channel=2, data=[76, 64]),\n",
      "   midi.NoteOnEvent(tick=0, channel=2, data=[78, 100]),\n",
      "   midi.NoteOffEvent(tick=256, channel=2, data=[78, 64]),\n",
      "   midi.NoteOnEvent(tick=32, channel=2, data=[76, 100]),\n",
      "   midi.NoteOffEvent(tick=48, channel=2, data=[76, 64]),\n",
      "   midi.NoteOnEvent(tick=0, channel=2, data=[78, 100]),\n",
      "   midi.NoteOffEvent(tick=48, channel=2, data=[78, 64]),\n",
      "   midi.NoteOnEvent(tick=0, channel=2, data=[79, 100]),\n",
      "   midi.NoteOffEvent(tick=256, channel=2, data=[79, 64]),\n",
      "   midi.NoteOnEvent(tick=32, channel=2, data=[78, 100]),\n",
      "   midi.NoteOffEvent(tick=192, channel=2, data=[78, 64]),\n",
      "   midi.NoteOnEvent(tick=0, channel=2, data=[81, 100]),\n",
      "   midi.NoteOffEvent(tick=192, channel=2, data=[81, 64]),\n",
      "   midi.NoteOnEvent(tick=0, channel=2, data=[78, 100]),\n",
      "   midi.NoteOffEvent(tick=192, channel=2, data=[78, 64]),\n",
      "   midi.NoteOnEvent(tick=0, channel=2, data=[74, 100]),\n",
      "   midi.NoteOffEvent(tick=192, channel=2, data=[74, 64]),\n",
      "   midi.NoteOnEvent(tick=1344, channel=2, data=[69, 100]),\n",
      "   midi.NoteOffEvent(tick=192, channel=2, data=[69, 64]),\n",
      "   midi.NoteOnEvent(tick=0, channel=2, data=[74, 100]),\n",
      "   midi.NoteOffEvent(tick=48, channel=2, data=[74, 64]),\n",
      "   midi.NoteOnEvent(tick=0, channel=2, data=[76, 100]),\n",
      "   midi.NoteOffEvent(tick=48, channel=2, data=[76, 64]),\n",
      "   midi.NoteOnEvent(tick=0, channel=2, data=[78, 100]),\n",
      "   midi.NoteOffEvent(tick=256, channel=2, data=[78, 64]),\n",
      "   midi.NoteOnEvent(tick=32, channel=2, data=[76, 100]),\n",
      "   midi.NoteOffEvent(tick=48, channel=2, data=[76, 64]),\n",
      "   midi.NoteOnEvent(tick=0, channel=2, data=[78, 100]),\n",
      "   midi.NoteOffEvent(tick=48, channel=2, data=[78, 64]),\n",
      "   midi.NoteOnEvent(tick=0, channel=2, data=[79, 100]),\n",
      "   midi.NoteOffEvent(tick=256, channel=2, data=[79, 64]),\n",
      "   midi.NoteOnEvent(tick=32, channel=2, data=[78, 100]),\n",
      "   midi.NoteOffEvent(tick=192, channel=2, data=[78, 64]),\n",
      "   midi.NoteOnEvent(tick=0, channel=2, data=[81, 100]),\n",
      "   midi.NoteOffEvent(tick=192, channel=2, data=[81, 64]),\n",
      "   midi.NoteOnEvent(tick=0, channel=2, data=[78, 100]),\n",
      "   midi.NoteOffEvent(tick=192, channel=2, data=[78, 64]),\n",
      "   midi.NoteOnEvent(tick=0, channel=2, data=[74, 100]),\n",
      "   midi.NoteOffEvent(tick=192, channel=2, data=[74, 64]),\n",
      "   midi.NoteOnEvent(tick=192, channel=2, data=[78, 100]),\n",
      "   midi.NoteOffEvent(tick=96, channel=2, data=[78, 64]),\n",
      "   midi.NoteOnEvent(tick=0, channel=2, data=[76, 100]),\n",
      "   midi.NoteOffEvent(tick=96, channel=2, data=[76, 64]),\n",
      "   midi.NoteOnEvent(tick=0, channel=2, data=[74, 100]),\n",
      "   midi.NoteOffEvent(tick=96, channel=2, data=[74, 64]),\n",
      "   midi.NoteOnEvent(tick=0, channel=2, data=[73, 100]),\n",
      "   midi.NoteOffEvent(tick=96, channel=2, data=[73, 64]),\n",
      "   midi.NoteOnEvent(tick=0, channel=2, data=[71, 100]),\n",
      "   midi.NoteOffEvent(tick=96, channel=2, data=[71, 64]),\n",
      "   midi.NoteOnEvent(tick=0, channel=2, data=[69, 100]),\n",
      "   midi.NoteOffEvent(tick=96, channel=2, data=[69, 64]),\n",
      "   midi.NoteOnEvent(tick=0, channel=2, data=[71, 100]),\n",
      "   midi.NoteOffEvent(tick=192, channel=2, data=[71, 64]),\n",
      "   midi.NoteOnEvent(tick=0, channel=2, data=[83, 100]),\n",
      "   midi.NoteOffEvent(tick=96, channel=2, data=[83, 64]),\n",
      "   midi.NoteOnEvent(tick=0, channel=2, data=[81, 100]),\n",
      "   midi.NoteOffEvent(tick=96, channel=2, data=[81, 64]),\n",
      "   midi.NoteOnEvent(tick=0, channel=2, data=[83, 100]),\n",
      "   midi.NoteOffEvent(tick=96, channel=2, data=[83, 64]),\n",
      "   midi.NoteOnEvent(tick=0, channel=2, data=[81, 100]),\n",
      "   midi.NoteOffEvent(tick=96, channel=2, data=[81, 64]),\n",
      "   midi.NoteOnEvent(tick=0, channel=2, data=[80, 100]),\n",
      "   midi.NoteOffEvent(tick=96, channel=2, data=[80, 64]),\n",
      "   midi.NoteOnEvent(tick=0, channel=2, data=[78, 100]),\n",
      "   midi.NoteOffEvent(tick=96, channel=2, data=[78, 64]),\n",
      "   midi.NoteOnEvent(tick=0, channel=2, data=[76, 100]),\n",
      "   midi.NoteOffEvent(tick=96, channel=2, data=[76, 64]),\n",
      "   midi.NoteOnEvent(tick=0, channel=2, data=[78, 100]),\n",
      "   midi.NoteOffEvent(tick=96, channel=2, data=[78, 64]),\n",
      "   midi.NoteOnEvent(tick=0, channel=2, data=[76, 100]),\n",
      "   midi.NoteOffEvent(tick=96, channel=2, data=[76, 64]),\n",
      "   midi.NoteOnEvent(tick=0, channel=2, data=[74, 100]),\n",
      "   midi.NoteOffEvent(tick=96, channel=2, data=[74, 64]),\n",
      "   midi.NoteOnEvent(tick=0, channel=2, data=[73, 100]),\n",
      "   midi.NoteOffEvent(tick=96, channel=2, data=[73, 64]),\n",
      "   midi.NoteOnEvent(tick=0, channel=2, data=[71, 100]),\n",
      "   midi.NoteOffEvent(tick=96, channel=2, data=[71, 64]),\n",
      "   midi.NoteOnEvent(tick=0, channel=2, data=[69, 100]),\n",
      "   midi.NoteOffEvent(tick=96, channel=2, data=[69, 64]),\n",
      "   midi.NoteOnEvent(tick=0, channel=2, data=[68, 100]),\n",
      "   midi.NoteOffEvent(tick=96, channel=2, data=[68, 64]),\n",
      "   midi.NoteOnEvent(tick=0, channel=2, data=[69, 100]),\n",
      "   midi.NoteOffEvent(tick=192, channel=2, data=[69, 64]),\n",
      "   midi.NoteOnEvent(tick=0, channel=2, data=[81, 100]),\n",
      "   midi.NoteOffEvent(tick=96, channel=2, data=[81, 64]),\n",
      "   midi.NoteOnEvent(tick=0, channel=2, data=[80, 100]),\n",
      "   midi.NoteOffEvent(tick=96, channel=2, data=[80, 64]),\n",
      "   midi.NoteOnEvent(tick=0, channel=2, data=[81, 100]),\n",
      "   midi.NoteOffEvent(tick=96, channel=2, data=[81, 64]),\n",
      "   midi.NoteOnEvent(tick=0, channel=2, data=[80, 100]),\n",
      "   midi.NoteOffEvent(tick=96, channel=2, data=[80, 64]),\n",
      "   midi.NoteOnEvent(tick=0, channel=2, data=[78, 100]),\n",
      "   midi.NoteOffEvent(tick=96, channel=2, data=[78, 64]),\n",
      "   midi.NoteOnEvent(tick=0, channel=2, data=[76, 100]),\n",
      "   midi.NoteOffEvent(tick=96, channel=2, data=[76, 64]),\n",
      "   midi.NoteOnEvent(tick=0, channel=2, data=[74, 100]),\n",
      "   midi.NoteOffEvent(tick=96, channel=2, data=[74, 64]),\n",
      "   midi.NoteOnEvent(tick=0, channel=2, data=[73, 100]),\n",
      "   midi.NoteOffEvent(tick=96, channel=2, data=[73, 64]),\n",
      "   midi.NoteOnEvent(tick=0, channel=2, data=[74, 100]),\n",
      "   midi.NoteOffEvent(tick=96, channel=2, data=[74, 64]),\n",
      "   midi.NoteOnEvent(tick=0, channel=2, data=[76, 100]),\n",
      "   midi.NoteOffEvent(tick=96, channel=2, data=[76, 64]),\n",
      "   midi.NoteOnEvent(tick=0, channel=2, data=[74, 100]),\n",
      "   midi.NoteOffEvent(tick=96, channel=2, data=[74, 64]),\n",
      "   midi.NoteOnEvent(tick=0, channel=2, data=[73, 100]),\n",
      "   midi.NoteOffEvent(tick=96, channel=2, data=[73, 64]),\n",
      "   midi.NoteOnEvent(tick=0, channel=2, data=[71, 100]),\n",
      "   midi.NoteOffEvent(tick=96, channel=2, data=[71, 64]),\n",
      "   midi.NoteOnEvent(tick=0, channel=2, data=[69, 100]),\n",
      "   midi.NoteOffEvent(tick=96, channel=2, data=[69, 64]),\n",
      "   midi.NoteOnEvent(tick=0, channel=2, data=[76, 100]),\n",
      "   midi.NoteOffEvent(tick=896, channel=2, data=[76, 64]),\n",
      "   midi.NoteOnEvent(tick=64, channel=2, data=[74, 100]),\n",
      "   midi.NoteOffEvent(tick=96, channel=2, data=[74, 64]),\n",
      "   midi.NoteOnEvent(tick=0, channel=2, data=[73, 100]),\n",
      "   midi.NoteOffEvent(tick=96, channel=2, data=[73, 64]),\n",
      "   midi.NoteOnEvent(tick=0, channel=2, data=[74, 100]),\n",
      "   midi.NoteOffEvent(tick=96, channel=2, data=[74, 64]),\n",
      "   midi.NoteOnEvent(tick=0, channel=2, data=[73, 100]),\n",
      "   midi.NoteOffEvent(tick=96, channel=2, data=[73, 64]),\n",
      "   midi.NoteOnEvent(tick=0, channel=2, data=[71, 100]),\n",
      "   midi.NoteOffEvent(tick=96, channel=2, data=[71, 64]),\n",
      "   midi.NoteOnEvent(tick=0, channel=2, data=[73, 100]),\n",
      "   midi.NoteOffEvent(tick=96, channel=2, data=[73, 64]),\n",
      "   midi.NoteOnEvent(tick=0, channel=2, data=[69, 100]),\n",
      "   midi.NoteOffEvent(tick=192, channel=2, data=[69, 64]),\n",
      "   midi.NoteOnEvent(tick=0, channel=2, data=[88, 100]),\n",
      "   midi.NoteOffEvent(tick=192, channel=2, data=[88, 64]),\n",
      "   midi.NoteOnEvent(tick=0, channel=2, data=[85, 100]),\n",
      "   midi.NoteOffEvent(tick=192, channel=2, data=[85, 64]),\n",
      "   midi.NoteOnEvent(tick=0, channel=2, data=[81, 100]),\n",
      "   midi.NoteOffEvent(tick=192, channel=2, data=[81, 64]),\n",
      "   midi.NoteOnEvent(tick=192, channel=2, data=[76, 100]),\n",
      "   midi.NoteOffEvent(tick=192, channel=2, data=[76, 64]),\n",
      "   midi.NoteOnEvent(tick=0, channel=2, data=[73, 100]),\n",
      "   midi.NoteOffEvent(tick=192, channel=2, data=[73, 64]),\n",
      "   midi.NoteOnEvent(tick=0, channel=2, data=[69, 100]),\n",
      "   midi.NoteOffEvent(tick=192, channel=2, data=[69, 64]),\n",
      "   midi.NoteOnEvent(tick=192, channel=2, data=[79, 100]),\n",
      "   midi.NoteOffEvent(tick=96, channel=2, data=[79, 64]),\n",
      "   midi.NoteOnEvent(tick=0, channel=2, data=[78, 100]),\n",
      "   midi.NoteOffEvent(tick=96, channel=2, data=[78, 64]),\n",
      "   midi.NoteOnEvent(tick=0, channel=2, data=[76, 100]),\n",
      "   midi.NoteOffEvent(tick=96, channel=2, data=[76, 64]),\n",
      "   midi.NoteOnEvent(tick=0, channel=2, data=[74, 100]),\n",
      "   midi.NoteOffEvent(tick=96, channel=2, data=[74, 64]),\n",
      "   midi.NoteOnEvent(tick=0, channel=2, data=[73, 100]),\n",
      "   midi.NoteOffEvent(tick=96, channel=2, data=[73, 64]),\n",
      "   midi.NoteOnEvent(tick=0, channel=2, data=[71, 100]),\n",
      "   midi.NoteOffEvent(tick=96, channel=2, data=[71, 64]),\n",
      "   midi.NoteOnEvent(tick=0, channel=2, data=[70, 100]),\n",
      "   midi.NoteOffEvent(tick=192, channel=2, data=[70, 64]),\n",
      "   midi.NoteOnEvent(tick=0, channel=2, data=[78, 100]),\n",
      "   midi.NoteOffEvent(tick=256, channel=2, data=[78, 64]),\n",
      "   midi.NoteOnEvent(tick=32, channel=2, data=[76, 100]),\n",
      "   midi.NoteOffEvent(tick=96, channel=2, data=[76, 64]),\n",
      "   midi.NoteOnEvent(tick=0, channel=2, data=[74, 100]),\n",
      "   midi.NoteOffEvent(tick=96, channel=2, data=[74, 64]),\n",
      "   midi.NoteOnEvent(tick=0, channel=2, data=[73, 100]),\n",
      "   midi.NoteOffEvent(tick=96, channel=2, data=[73, 64]),\n",
      "   midi.NoteOnEvent(tick=0, channel=2, data=[74, 100]),\n",
      "   midi.NoteOffEvent(tick=192, channel=2, data=[74, 64]),\n",
      "   midi.NoteOnEvent(tick=0, channel=2, data=[78, 100]),\n",
      "   midi.NoteOffEvent(tick=192, channel=2, data=[78, 64]),\n",
      "   midi.NoteOnEvent(tick=0, channel=2, data=[74, 100]),\n",
      "   midi.NoteOffEvent(tick=192, channel=2, data=[74, 64]),\n",
      "   midi.NoteOnEvent(tick=0, channel=2, data=[71, 100]),\n",
      "   midi.NoteOffEvent(tick=192, channel=2, data=[71, 64]),\n",
      "   midi.NoteOnEvent(tick=0, channel=2, data=[78, 100]),\n",
      "   midi.NoteOffEvent(tick=96, channel=2, data=[78, 64]),\n",
      "   midi.NoteOnEvent(tick=0, channel=2, data=[79, 100]),\n",
      "   midi.NoteOffEvent(tick=96, channel=2, data=[79, 64]),\n",
      "   midi.NoteOnEvent(tick=0, channel=2, data=[81, 100]),\n",
      "   midi.NoteOffEvent(tick=96, channel=2, data=[81, 64]),\n",
      "   midi.NoteOnEvent(tick=96, channel=2, data=[81, 100]),\n",
      "   midi.NoteOffEvent(tick=96, channel=2, data=[81, 64]),\n",
      "   midi.NoteOnEvent(tick=96, channel=2, data=[81, 100]),\n",
      "   midi.NoteOffEvent(tick=96, channel=2, data=[81, 64]),\n",
      "   midi.NoteOnEvent(tick=96, channel=2, data=[81, 100]),\n",
      "   midi.NoteOffEvent(tick=864, channel=2, data=[81, 64]),\n",
      "   midi.NoteOnEvent(tick=0, channel=2, data=[84, 100]),\n",
      "   midi.NoteOffEvent(tick=96, channel=2, data=[84, 64]),\n",
      "   midi.NoteOnEvent(tick=0, channel=2, data=[83, 100]),\n",
      "   midi.NoteOffEvent(tick=96, channel=2, data=[83, 64]),\n",
      "   midi.NoteOnEvent(tick=0, channel=2, data=[81, 100]),\n",
      "   midi.NoteOffEvent(tick=96, channel=2, data=[81, 64]),\n",
      "   midi.NoteOnEvent(tick=0, channel=2, data=[83, 100]),\n",
      "   midi.NoteOffEvent(tick=96, channel=2, data=[83, 64]),\n",
      "   midi.NoteOnEvent(tick=0, channel=2, data=[81, 100]),\n",
      "   midi.NoteOffEvent(tick=96, channel=2, data=[81, 64]),\n",
      "   midi.NoteOnEvent(tick=0, channel=2, data=[79, 100]),\n",
      "   midi.NoteOffEvent(tick=96, channel=2, data=[79, 64]),\n",
      "   midi.NoteOnEvent(tick=0, channel=2, data=[78, 100]),\n",
      "   midi.NoteOffEvent(tick=96, channel=2, data=[78, 64]),\n",
      "   midi.NoteOnEvent(tick=0, channel=2, data=[79, 100]),\n",
      "   midi.NoteOffEvent(tick=96, channel=2, data=[79, 64]),\n",
      "   midi.NoteOnEvent(tick=0, channel=2, data=[81, 100]),\n",
      "   midi.NoteOffEvent(tick=96, channel=2, data=[81, 64]),\n",
      "   midi.NoteOnEvent(tick=0, channel=2, data=[79, 100]),\n",
      "   midi.NoteOffEvent(tick=96, channel=2, data=[79, 64]),\n",
      "   midi.NoteOnEvent(tick=0, channel=2, data=[78, 100]),\n",
      "   midi.NoteOffEvent(tick=96, channel=2, data=[78, 64]),\n",
      "   midi.NoteOnEvent(tick=0, channel=2, data=[76, 100]),\n",
      "   midi.NoteOffEvent(tick=96, channel=2, data=[76, 64]),\n",
      "   midi.NoteOnEvent(tick=0, channel=2, data=[78, 100]),\n",
      "   midi.NoteOffEvent(tick=96, channel=2, data=[78, 64]),\n",
      "   midi.NoteOnEvent(tick=0, channel=2, data=[79, 100]),\n",
      "   midi.NoteOffEvent(tick=96, channel=2, data=[79, 64]),\n",
      "   midi.NoteOnEvent(tick=0, channel=2, data=[81, 100]),\n",
      "   midi.NoteOffEvent(tick=96, channel=2, data=[81, 64]),\n",
      "   midi.NoteOnEvent(tick=0, channel=2, data=[83, 100]),\n",
      "   midi.NoteOffEvent(tick=96, channel=2, data=[83, 64]),\n",
      "   midi.NoteOnEvent(tick=0, channel=2, data=[84, 100]),\n",
      "   midi.NoteOffEvent(tick=96, channel=2, data=[84, 64]),\n",
      "   midi.NoteOnEvent(tick=0, channel=2, data=[83, 100]),\n",
      "   midi.NoteOffEvent(tick=96, channel=2, data=[83, 64]),\n",
      "   midi.NoteOnEvent(tick=96, channel=2, data=[83, 100]),\n",
      "   midi.NoteOffEvent(tick=96, channel=2, data=[83, 64]),\n",
      "   midi.NoteOnEvent(tick=96, channel=2, data=[83, 100]),\n",
      "   midi.NoteOffEvent(tick=96, channel=2, data=[83, 64]),\n",
      "   midi.NoteOnEvent(tick=96, channel=2, data=[83, 100]),\n",
      "   midi.NoteOffEvent(tick=192, channel=2, data=[83, 64]),\n",
      "   midi.NoteOnEvent(tick=0, channel=2, data=[88, 100]),\n",
      "   midi.NoteOffEvent(tick=96, channel=2, data=[88, 64]),\n",
      "   midi.NoteOnEvent(tick=0, channel=2, data=[86, 100]),\n",
      "   midi.NoteOffEvent(tick=96, channel=2, data=[86, 64]),\n",
      "   midi.NoteOnEvent(tick=0, channel=2, data=[88, 100]),\n",
      "   midi.NoteOffEvent(tick=96, channel=2, data=[88, 64]),\n",
      "   midi.NoteOnEvent(tick=0, channel=2, data=[86, 100]),\n",
      "   midi.NoteOffEvent(tick=96, channel=2, data=[86, 64]),\n",
      "   midi.NoteOnEvent(tick=0, channel=2, data=[85, 100]),\n",
      "   midi.NoteOffEvent(tick=96, channel=2, data=[85, 64]),\n",
      "   midi.NoteOnEvent(tick=0, channel=2, data=[83, 100]),\n",
      "   midi.NoteOffEvent(tick=96, channel=2, data=[83, 64]),\n",
      "   midi.NoteOnEvent(tick=0, channel=2, data=[81, 100]),\n",
      "   midi.NoteOffEvent(tick=96, channel=2, data=[81, 64]),\n",
      "   midi.NoteOnEvent(tick=0, channel=2, data=[83, 100]),\n",
      "   midi.NoteOffEvent(tick=96, channel=2, data=[83, 64]),\n",
      "   midi.NoteOnEvent(tick=0, channel=2, data=[81, 100]),\n",
      "   midi.NoteOffEvent(tick=96, channel=2, data=[81, 64]),\n",
      "   midi.NoteOnEvent(tick=96, channel=2, data=[81, 100]),\n",
      "   midi.NoteOffEvent(tick=96, channel=2, data=[81, 64]),\n",
      "   midi.NoteOnEvent(tick=96, channel=2, data=[81, 100]),\n",
      "   midi.NoteOffEvent(tick=96, channel=2, data=[81, 64]),\n",
      "   midi.NoteOnEvent(tick=96, channel=2, data=[81, 100]),\n",
      "   midi.NoteOffEvent(tick=192, channel=2, data=[81, 64]),\n",
      "   midi.NoteOnEvent(tick=0, channel=2, data=[86, 100]),\n",
      "   midi.NoteOffEvent(tick=96, channel=2, data=[86, 64]),\n",
      "   midi.NoteOnEvent(tick=0, channel=2, data=[85, 100]),\n",
      "   midi.NoteOffEvent(tick=96, channel=2, data=[85, 64]),\n",
      "   midi.NoteOnEvent(tick=0, channel=2, data=[86, 100]),\n",
      "   midi.NoteOffEvent(tick=96, channel=2, data=[86, 64]),\n",
      "   midi.NoteOnEvent(tick=0, channel=2, data=[85, 100]),\n",
      "   midi.NoteOffEvent(tick=96, channel=2, data=[85, 64]),\n",
      "   midi.NoteOnEvent(tick=0, channel=2, data=[83, 100]),\n",
      "   midi.NoteOffEvent(tick=96, channel=2, data=[83, 64]),\n",
      "   midi.NoteOnEvent(tick=0, channel=2, data=[81, 100]),\n",
      "   midi.NoteOffEvent(tick=96, channel=2, data=[81, 64]),\n",
      "   midi.NoteOnEvent(tick=0, channel=2, data=[79, 100]),\n",
      "   midi.NoteOffEvent(tick=96, channel=2, data=[79, 64]),\n",
      "   midi.NoteOnEvent(tick=0, channel=2, data=[81, 100]),\n",
      "   midi.NoteOffEvent(tick=96, channel=2, data=[81, 64]),\n",
      "   midi.NoteOnEvent(tick=0, channel=2, data=[79, 100]),\n",
      "   midi.NoteOffEvent(tick=96, channel=2, data=[79, 64]),\n",
      "   midi.NoteOnEvent(tick=0, channel=2, data=[78, 100]),\n",
      "   midi.NoteOffEvent(tick=96, channel=2, data=[78, 64]),\n",
      "   midi.NoteOnEvent(tick=0, channel=2, data=[76, 100]),\n",
      "   midi.NoteOffEvent(tick=96, channel=2, data=[76, 64]),\n",
      "   midi.NoteOnEvent(tick=0, channel=2, data=[74, 100]),\n",
      "   midi.NoteOffEvent(tick=96, channel=2, data=[74, 64]),\n",
      "   midi.NoteOnEvent(tick=0, channel=2, data=[73, 100]),\n",
      "   midi.NoteOffEvent(tick=96, channel=2, data=[73, 64]),\n",
      "   midi.NoteOnEvent(tick=0, channel=2, data=[71, 100]),\n",
      "   midi.NoteOffEvent(tick=96, channel=2, data=[71, 64]),\n",
      "   midi.NoteOnEvent(tick=0, channel=2, data=[73, 100]),\n",
      "   midi.NoteOffEvent(tick=96, channel=2, data=[73, 64]),\n",
      "   midi.NoteOnEvent(tick=0, channel=2, data=[71, 100]),\n",
      "   midi.NoteOffEvent(tick=96, channel=2, data=[71, 64]),\n",
      "   midi.NoteOnEvent(tick=0, channel=2, data=[73, 100]),\n",
      "   midi.NoteOffEvent(tick=96, channel=2, data=[73, 64]),\n",
      "   midi.NoteOnEvent(tick=0, channel=2, data=[74, 100]),\n",
      "   midi.NoteOffEvent(tick=96, channel=2, data=[74, 64]),\n",
      "   midi.NoteOnEvent(tick=0, channel=2, data=[76, 100]),\n",
      "   midi.NoteOffEvent(tick=96, channel=2, data=[76, 64]),\n",
      "   midi.NoteOnEvent(tick=0, channel=2, data=[79, 100]),\n",
      "   midi.NoteOffEvent(tick=96, channel=2, data=[79, 64]),\n",
      "   midi.NoteOnEvent(tick=0, channel=2, data=[78, 100]),\n",
      "   midi.NoteOffEvent(tick=96, channel=2, data=[78, 64]),\n",
      "   midi.NoteOnEvent(tick=0, channel=2, data=[76, 100]),\n",
      "   midi.NoteOffEvent(tick=96, channel=2, data=[76, 64]),\n",
      "   midi.NoteOnEvent(tick=0, channel=2, data=[78, 100]),\n",
      "   midi.NoteOffEvent(tick=96, channel=2, data=[78, 64]),\n",
      "   midi.NoteOnEvent(tick=0, channel=2, data=[81, 100]),\n",
      "   midi.NoteOffEvent(tick=96, channel=2, data=[81, 64]),\n",
      "   midi.NoteOnEvent(tick=0, channel=2, data=[79, 100]),\n",
      "   midi.NoteOffEvent(tick=96, channel=2, data=[79, 64]),\n",
      "   midi.NoteOnEvent(tick=0, channel=2, data=[78, 100]),\n",
      "   midi.NoteOffEvent(tick=96, channel=2, data=[78, 64]),\n",
      "   midi.NoteOnEvent(tick=0, channel=2, data=[79, 100]),\n",
      "   midi.NoteOffEvent(tick=96, channel=2, data=[79, 64]),\n",
      "   midi.NoteOnEvent(tick=0, channel=2, data=[78, 100]),\n",
      "   midi.NoteOffEvent(tick=96, channel=2, data=[78, 64]),\n",
      "   midi.NoteOnEvent(tick=0, channel=2, data=[76, 100]),\n",
      "   midi.NoteOffEvent(tick=96, channel=2, data=[76, 64]),\n",
      "   midi.NoteOnEvent(tick=0, channel=2, data=[78, 100]),\n",
      "   midi.NoteOffEvent(tick=96, channel=2, data=[78, 64]),\n",
      "   midi.NoteOnEvent(tick=0, channel=2, data=[74, 100]),\n",
      "   midi.NoteOffEvent(tick=96, channel=2, data=[74, 64]),\n",
      "   midi.NoteOnEvent(tick=0, channel=2, data=[69, 100]),\n",
      "   midi.NoteOffEvent(tick=96, channel=2, data=[69, 64]),\n",
      "   midi.NoteOnEvent(tick=0, channel=2, data=[71, 100]),\n",
      "   midi.NoteOffEvent(tick=96, channel=2, data=[71, 64]),\n",
      "   midi.NoteOnEvent(tick=0, channel=2, data=[73, 100]),\n",
      "   midi.NoteOffEvent(tick=96, channel=2, data=[73, 64]),\n",
      "   midi.NoteOnEvent(tick=0, channel=2, data=[74, 100]),\n",
      "   midi.NoteOffEvent(tick=96, channel=2, data=[74, 64]),\n",
      "   midi.NoteOnEvent(tick=0, channel=2, data=[73, 100]),\n",
      "   midi.NoteOffEvent(tick=96, channel=2, data=[73, 64]),\n",
      "   midi.NoteOnEvent(tick=0, channel=2, data=[74, 100]),\n",
      "   midi.NoteOffEvent(tick=96, channel=2, data=[74, 64]),\n",
      "   midi.NoteOnEvent(tick=0, channel=2, data=[76, 100]),\n",
      "   midi.NoteOffEvent(tick=96, channel=2, data=[76, 64]),\n",
      "   midi.NoteOnEvent(tick=0, channel=2, data=[78, 100]),\n",
      "   midi.NoteOffEvent(tick=96, channel=2, data=[78, 64]),\n",
      "   midi.NoteOnEvent(tick=0, channel=2, data=[79, 100]),\n",
      "   midi.NoteOffEvent(tick=96, channel=2, data=[79, 64]),\n",
      "   midi.NoteOnEvent(tick=0, channel=2, data=[81, 100]),\n",
      "   midi.NoteOffEvent(tick=96, channel=2, data=[81, 64]),\n",
      "   midi.NoteOnEvent(tick=96, channel=2, data=[81, 100]),\n",
      "   midi.NoteOffEvent(tick=96, channel=2, data=[81, 64]),\n",
      "   midi.NoteOnEvent(tick=96, channel=2, data=[81, 100]),\n",
      "   midi.NoteOffEvent(tick=96, channel=2, data=[81, 64]),\n",
      "   midi.NoteOnEvent(tick=96, channel=2, data=[81, 100]),\n",
      "   midi.NoteOffEvent(tick=192, channel=2, data=[81, 64]),\n",
      "   midi.NoteOnEvent(tick=2112, channel=2, data=[79, 100]),\n",
      "   midi.NoteOffEvent(tick=864, channel=2, data=[79, 64]),\n",
      "   midi.NoteOnEvent(tick=0, channel=2, data=[78, 100]),\n",
      "   midi.NoteOffEvent(tick=96, channel=2, data=[78, 64]),\n",
      "   midi.NoteOnEvent(tick=0, channel=2, data=[76, 100]),\n",
      "   midi.NoteOffEvent(tick=96, channel=2, data=[76, 64]),\n",
      "   midi.NoteOnEvent(tick=0, channel=2, data=[74, 100]),\n",
      "   midi.NoteOffEvent(tick=96, channel=2, data=[74, 64]),\n",
      "   midi.NoteOnEvent(tick=0, channel=2, data=[73, 100]),\n",
      "   midi.NoteOffEvent(tick=96, channel=2, data=[73, 64]),\n",
      "   midi.NoteOnEvent(tick=0, channel=2, data=[71, 100]),\n",
      "   midi.NoteOffEvent(tick=96, channel=2, data=[71, 64]),\n",
      "   midi.NoteOnEvent(tick=0, channel=2, data=[73, 100]),\n",
      "   midi.NoteOffEvent(tick=96, channel=2, data=[73, 64]),\n",
      "   midi.NoteOnEvent(tick=0, channel=2, data=[69, 100]),\n",
      "   midi.NoteOffEvent(tick=96, channel=2, data=[69, 64]),\n",
      "   midi.NoteOnEvent(tick=0, channel=2, data=[74, 100]),\n",
      "   midi.NoteOffEvent(tick=48, channel=2, data=[74, 64]),\n",
      "   midi.NoteOnEvent(tick=0, channel=2, data=[76, 100]),\n",
      "   midi.NoteOffEvent(tick=48, channel=2, data=[76, 64]),\n",
      "   midi.NoteOnEvent(tick=0, channel=2, data=[78, 100]),\n",
      "   midi.NoteOffEvent(tick=256, channel=2, data=[78, 64]),\n",
      "   midi.NoteOnEvent(tick=32, channel=2, data=[76, 100]),\n",
      "   midi.NoteOffEvent(tick=48, channel=2, data=[76, 64]),\n",
      "   midi.NoteOnEvent(tick=0, channel=2, data=[78, 100]),\n",
      "   midi.NoteOffEvent(tick=48, channel=2, data=[78, 64]),\n",
      "   midi.NoteOnEvent(tick=0, channel=2, data=[79, 100]),\n",
      "   midi.NoteOffEvent(tick=256, channel=2, data=[79, 64]),\n",
      "   midi.NoteOnEvent(tick=2144, channel=2, data=[69, 100]),\n",
      "   midi.NoteOffEvent(tick=192, channel=2, data=[69, 64]),\n",
      "   midi.NoteOnEvent(tick=0, channel=2, data=[74, 100]),\n",
      "   midi.NoteOffEvent(tick=48, channel=2, data=[74, 64]),\n",
      "   midi.NoteOnEvent(tick=0, channel=2, data=[76, 100]),\n",
      "   midi.NoteOffEvent(tick=48, channel=2, data=[76, 64]),\n",
      "   midi.NoteOnEvent(tick=0, channel=2, data=[78, 100]),\n",
      "   midi.NoteOffEvent(tick=256, channel=2, data=[78, 64]),\n",
      "   midi.NoteOnEvent(tick=32, channel=2, data=[76, 100]),\n",
      "   midi.NoteOffEvent(tick=48, channel=2, data=[76, 64]),\n",
      "   midi.NoteOnEvent(tick=0, channel=2, data=[78, 100]),\n",
      "   midi.NoteOffEvent(tick=48, channel=2, data=[78, 64]),\n",
      "   midi.NoteOnEvent(tick=0, channel=2, data=[79, 100]),\n",
      "   midi.NoteOffEvent(tick=256, channel=2, data=[79, 64]),\n",
      "   midi.NoteOnEvent(tick=32, channel=2, data=[78, 100]),\n",
      "   midi.NoteOffEvent(tick=192, channel=2, data=[78, 64]),\n",
      "   midi.NoteOnEvent(tick=0, channel=2, data=[81, 100]),\n",
      "   midi.NoteOffEvent(tick=192, channel=2, data=[81, 64]),\n",
      "   midi.NoteOnEvent(tick=0, channel=2, data=[78, 100]),\n",
      "   midi.NoteOffEvent(tick=192, channel=2, data=[78, 64]),\n",
      "   midi.NoteOnEvent(tick=0, channel=2, data=[74, 100]),\n",
      "   midi.NoteOffEvent(tick=192, channel=2, data=[74, 64]),\n",
      "   midi.NoteOnEvent(tick=0, channel=2, data=[78, 100]),\n",
      "   midi.NoteOffEvent(tick=96, channel=2, data=[78, 64]),\n",
      "   midi.NoteOnEvent(tick=0, channel=2, data=[79, 100]),\n",
      "   midi.NoteOffEvent(tick=96, channel=2, data=[79, 64]),\n",
      "   midi.NoteOnEvent(tick=0, channel=2, data=[81, 100]),\n",
      "   midi.NoteOffEvent(tick=96, channel=2, data=[81, 64]),\n",
      "   midi.NoteOnEvent(tick=96, channel=2, data=[81, 100]),\n",
      "   midi.NoteOffEvent(tick=96, channel=2, data=[81, 64]),\n",
      "   midi.NoteOnEvent(tick=96, channel=2, data=[81, 100]),\n",
      "   midi.NoteOffEvent(tick=96, channel=2, data=[81, 64]),\n",
      "   midi.NoteOnEvent(tick=96, channel=2, data=[81, 100]),\n",
      "   midi.NoteOffEvent(tick=192, channel=2, data=[81, 64]),\n",
      "   midi.NoteOnEvent(tick=0, channel=2, data=[86, 100]),\n",
      "   midi.NoteOffEvent(tick=96, channel=2, data=[86, 64]),\n",
      "   midi.NoteOnEvent(tick=0, channel=2, data=[85, 100]),\n",
      "   midi.NoteOffEvent(tick=96, channel=2, data=[85, 64]),\n",
      "   midi.NoteOnEvent(tick=0, channel=2, data=[86, 100]),\n",
      "   midi.NoteOffEvent(tick=96, channel=2, data=[86, 64]),\n",
      "   midi.NoteOnEvent(tick=0, channel=2, data=[85, 100]),\n",
      "   midi.NoteOffEvent(tick=96, channel=2, data=[85, 64]),\n",
      "   midi.NoteOnEvent(tick=0, channel=2, data=[83, 100]),\n",
      "   midi.NoteOffEvent(tick=96, channel=2, data=[83, 64]),\n",
      "   midi.NoteOnEvent(tick=0, channel=2, data=[81, 100]),\n",
      "   midi.NoteOffEvent(tick=96, channel=2, data=[81, 64]),\n",
      "   midi.NoteOnEvent(tick=0, channel=2, data=[79, 100]),\n",
      "   midi.NoteOffEvent(tick=96, channel=2, data=[79, 64]),\n",
      "   midi.NoteOnEvent(tick=0, channel=2, data=[81, 100]),\n",
      "   midi.NoteOffEvent(tick=96, channel=2, data=[81, 64]),\n",
      "   midi.NoteOnEvent(tick=0, channel=2, data=[83, 100]),\n",
      "   midi.NoteOffEvent(tick=96, channel=2, data=[83, 64]),\n",
      "   midi.NoteOnEvent(tick=96, channel=2, data=[83, 100]),\n",
      "   midi.NoteOffEvent(tick=96, channel=2, data=[83, 64]),\n",
      "   midi.NoteOnEvent(tick=96, channel=2, data=[83, 100]),\n",
      "   midi.NoteOffEvent(tick=96, channel=2, data=[83, 64]),\n",
      "   midi.NoteOnEvent(tick=96, channel=2, data=[83, 100]),\n",
      "   midi.NoteOffEvent(tick=192, channel=2, data=[83, 64]),\n",
      "   midi.NoteOnEvent(tick=0, channel=2, data=[81, 100]),\n",
      "   midi.NoteOffEvent(tick=96, channel=2, data=[81, 64]),\n",
      "   midi.NoteOnEvent(tick=0, channel=2, data=[79, 100]),\n",
      "   midi.NoteOffEvent(tick=96, channel=2, data=[79, 64]),\n",
      "   midi.NoteOnEvent(tick=0, channel=2, data=[81, 100]),\n",
      "   midi.NoteOffEvent(tick=96, channel=2, data=[81, 64]),\n",
      "   midi.NoteOnEvent(tick=0, channel=2, data=[79, 100]),\n",
      "   midi.NoteOffEvent(tick=96, channel=2, data=[79, 64]),\n",
      "   midi.NoteOnEvent(tick=0, channel=2, data=[78, 100]),\n",
      "   midi.NoteOffEvent(tick=96, channel=2, data=[78, 64]),\n",
      "   midi.NoteOnEvent(tick=0, channel=2, data=[76, 100]),\n",
      "   midi.NoteOffEvent(tick=96, channel=2, data=[76, 64]),\n",
      "   midi.NoteOnEvent(tick=0, channel=2, data=[78, 100]),\n",
      "   midi.NoteOffEvent(tick=96, channel=2, data=[78, 64]),\n",
      "   midi.NoteOnEvent(tick=0, channel=2, data=[79, 100]),\n",
      "   midi.NoteOffEvent(tick=96, channel=2, data=[79, 64]),\n",
      "   midi.NoteOnEvent(tick=0, channel=2, data=[78, 100]),\n",
      "   midi.NoteOffEvent(tick=96, channel=2, data=[78, 64]),\n",
      "   midi.NoteOnEvent(tick=0, channel=2, data=[76, 100]),\n",
      "   midi.NoteOffEvent(tick=96, channel=2, data=[76, 64]),\n",
      "   midi.NoteOnEvent(tick=0, channel=2, data=[74, 100]),\n",
      "   midi.NoteOffEvent(tick=96, channel=2, data=[74, 64]),\n",
      "   midi.NoteOnEvent(tick=0, channel=2, data=[73, 100]),\n",
      "   midi.NoteOffEvent(tick=96, channel=2, data=[73, 64]),\n",
      "   midi.NoteOnEvent(tick=0, channel=2, data=[71, 100]),\n",
      "   midi.NoteOffEvent(tick=96, channel=2, data=[71, 64]),\n",
      "   midi.NoteOnEvent(tick=0, channel=2, data=[69, 100]),\n",
      "   midi.NoteOffEvent(tick=96, channel=2, data=[69, 64]),\n",
      "   midi.NoteOnEvent(tick=0, channel=2, data=[71, 100]),\n",
      "   midi.NoteOffEvent(tick=192, channel=2, data=[71, 64]),\n",
      "   midi.NoteOnEvent(tick=0, channel=2, data=[83, 100]),\n",
      "   midi.NoteOffEvent(tick=96, channel=2, data=[83, 64]),\n",
      "   midi.NoteOnEvent(tick=0, channel=2, data=[81, 100]),\n",
      "   midi.NoteOffEvent(tick=96, channel=2, data=[81, 64]),\n",
      "   midi.NoteOnEvent(tick=0, channel=2, data=[83, 100]),\n",
      "   midi.NoteOffEvent(tick=96, channel=2, data=[83, 64]),\n",
      "   midi.NoteOnEvent(tick=0, channel=2, data=[81, 100]),\n",
      "   midi.NoteOffEvent(tick=96, channel=2, data=[81, 64]),\n",
      "   midi.NoteOnEvent(tick=0, channel=2, data=[80, 100]),\n",
      "   midi.NoteOffEvent(tick=96, channel=2, data=[80, 64]),\n",
      "   midi.NoteOnEvent(tick=0, channel=2, data=[78, 100]),\n",
      "   midi.NoteOffEvent(tick=96, channel=2, data=[78, 64]),\n",
      "   midi.NoteOnEvent(tick=0, channel=2, data=[76, 100]),\n",
      "   midi.NoteOffEvent(tick=96, channel=2, data=[76, 64]),\n",
      "   midi.NoteOnEvent(tick=0, channel=2, data=[78, 100]),\n",
      "   midi.NoteOffEvent(tick=96, channel=2, data=[78, 64]),\n",
      "   midi.NoteOnEvent(tick=0, channel=2, data=[76, 100]),\n",
      "   midi.NoteOffEvent(tick=96, channel=2, data=[76, 64]),\n",
      "   midi.NoteOnEvent(tick=0, channel=2, data=[74, 100]),\n",
      "   midi.NoteOffEvent(tick=96, channel=2, data=[74, 64]),\n",
      "   midi.NoteOnEvent(tick=0, channel=2, data=[73, 100]),\n",
      "   midi.NoteOffEvent(tick=96, channel=2, data=[73, 64]),\n",
      "   midi.NoteOnEvent(tick=0, channel=2, data=[71, 100]),\n",
      "   midi.NoteOffEvent(tick=96, channel=2, data=[71, 64]),\n",
      "   midi.NoteOnEvent(tick=0, channel=2, data=[69, 100]),\n",
      "   midi.NoteOffEvent(tick=96, channel=2, data=[69, 64]),\n",
      "   midi.NoteOnEvent(tick=0, channel=2, data=[68, 100]),\n",
      "   midi.NoteOffEvent(tick=96, channel=2, data=[68, 64]),\n",
      "   midi.NoteOnEvent(tick=0, channel=2, data=[69, 100]),\n",
      "   midi.NoteOffEvent(tick=192, channel=2, data=[69, 64]),\n",
      "   midi.NoteOnEvent(tick=0, channel=2, data=[81, 100]),\n",
      "   midi.NoteOffEvent(tick=96, channel=2, data=[81, 64]),\n",
      "   midi.NoteOnEvent(tick=0, channel=2, data=[80, 100]),\n",
      "   midi.NoteOffEvent(tick=96, channel=2, data=[80, 64]),\n",
      "   midi.NoteOnEvent(tick=0, channel=2, data=[81, 100]),\n",
      "   midi.NoteOffEvent(tick=96, channel=2, data=[81, 64]),\n",
      "   midi.NoteOnEvent(tick=0, channel=2, data=[80, 100]),\n",
      "   midi.NoteOffEvent(tick=96, channel=2, data=[80, 64]),\n",
      "   midi.NoteOnEvent(tick=0, channel=2, data=[78, 100]),\n",
      "   midi.NoteOffEvent(tick=96, channel=2, data=[78, 64]),\n",
      "   midi.NoteOnEvent(tick=0, channel=2, data=[76, 100]),\n",
      "   midi.NoteOffEvent(tick=96, channel=2, data=[76, 64]),\n",
      "   midi.NoteOnEvent(tick=0, channel=2, data=[74, 100]),\n",
      "   midi.NoteOffEvent(tick=96, channel=2, data=[74, 64]),\n",
      "   midi.NoteOnEvent(tick=0, channel=2, data=[73, 100]),\n",
      "   midi.NoteOffEvent(tick=96, channel=2, data=[73, 64]),\n",
      "   midi.NoteOnEvent(tick=0, channel=2, data=[74, 100]),\n",
      "   midi.NoteOffEvent(tick=96, channel=2, data=[74, 64]),\n",
      "   midi.NoteOnEvent(tick=0, channel=2, data=[76, 100]),\n",
      "   midi.NoteOffEvent(tick=96, channel=2, data=[76, 64]),\n",
      "   midi.NoteOnEvent(tick=0, channel=2, data=[74, 100]),\n",
      "   midi.NoteOffEvent(tick=96, channel=2, data=[74, 64]),\n",
      "   midi.NoteOnEvent(tick=0, channel=2, data=[73, 100]),\n",
      "   midi.NoteOffEvent(tick=96, channel=2, data=[73, 64]),\n",
      "   midi.NoteOnEvent(tick=0, channel=2, data=[71, 100]),\n",
      "   midi.NoteOffEvent(tick=96, channel=2, data=[71, 64]),\n",
      "   midi.NoteOnEvent(tick=0, channel=2, data=[69, 100]),\n",
      "   midi.NoteOffEvent(tick=96, channel=2, data=[69, 64]),\n",
      "   midi.NoteOnEvent(tick=0, channel=2, data=[76, 100]),\n",
      "   midi.NoteOffEvent(tick=896, channel=2, data=[76, 64]),\n",
      "   midi.NoteOnEvent(tick=64, channel=2, data=[74, 100]),\n",
      "   midi.NoteOffEvent(tick=96, channel=2, data=[74, 64]),\n",
      "   midi.NoteOnEvent(tick=0, channel=2, data=[73, 100]),\n",
      "   midi.NoteOffEvent(tick=96, channel=2, data=[73, 64]),\n",
      "   midi.NoteOnEvent(tick=0, channel=2, data=[74, 100]),\n",
      "   midi.NoteOffEvent(tick=96, channel=2, data=[74, 64]),\n",
      "   midi.NoteOnEvent(tick=0, channel=2, data=[73, 100]),\n",
      "   midi.NoteOffEvent(tick=96, channel=2, data=[73, 64]),\n",
      "   midi.NoteOnEvent(tick=0, channel=2, data=[71, 100]),\n",
      "   midi.NoteOffEvent(tick=96, channel=2, data=[71, 64]),\n",
      "   midi.NoteOnEvent(tick=0, channel=2, data=[73, 100]),\n",
      "   midi.NoteOffEvent(tick=96, channel=2, data=[73, 64]),\n",
      "   midi.NoteOnEvent(tick=0, channel=2, data=[69, 100]),\n",
      "   midi.NoteOffEvent(tick=96, channel=2, data=[69, 64]),\n",
      "   midi.NoteOnEvent(tick=0, channel=2, data=[71, 100]),\n",
      "   midi.NoteOffEvent(tick=96, channel=2, data=[71, 64]),\n",
      "   midi.NoteOnEvent(tick=0, channel=2, data=[73, 100]),\n",
      "   midi.NoteOffEvent(tick=96, channel=2, data=[73, 64]),\n",
      "   midi.NoteOnEvent(tick=0, channel=2, data=[74, 100]),\n",
      "   midi.NoteOffEvent(tick=96, channel=2, data=[74, 64]),\n",
      "   midi.NoteOnEvent(tick=0, channel=2, data=[76, 100]),\n",
      "   midi.NoteOffEvent(tick=96, channel=2, data=[76, 64]),\n",
      "   midi.NoteOnEvent(tick=0, channel=2, data=[78, 100]),\n",
      "   midi.NoteOffEvent(tick=96, channel=2, data=[78, 64]),\n",
      "   midi.NoteOnEvent(tick=0, channel=2, data=[80, 100]),\n",
      "   midi.NoteOffEvent(tick=96, channel=2, data=[80, 64]),\n",
      "   midi.NoteOnEvent(tick=0, channel=2, data=[81, 100]),\n",
      "   midi.NoteOffEvent(tick=96, channel=2, data=[81, 64]),\n",
      "   midi.NoteOnEvent(tick=0, channel=2, data=[83, 100]),\n",
      "   midi.NoteOffEvent(tick=96, channel=2, data=[83, 64]),\n",
      "   midi.NoteOnEvent(tick=0, channel=2, data=[81, 100]),\n",
      "   midi.NoteOffEvent(tick=96, channel=2, data=[81, 64]),\n",
      "   midi.NoteOnEvent(tick=0, channel=2, data=[80, 100]),\n",
      "   midi.NoteOffEvent(tick=96, channel=2, data=[80, 64]),\n",
      "   midi.NoteOnEvent(tick=0, channel=2, data=[78, 100]),\n",
      "   midi.NoteOffEvent(tick=96, channel=2, data=[78, 64]),\n",
      "   midi.NoteOnEvent(tick=0, channel=2, data=[76, 100]),\n",
      "   midi.NoteOffEvent(tick=576, channel=2, data=[76, 64]),\n",
      "   midi.NoteOnEvent(tick=0, channel=2, data=[71, 100]),\n",
      "   midi.NoteOffEvent(tick=192, channel=2, data=[71, 64]),\n",
      "   midi.NoteOnEvent(tick=0, channel=2, data=[68, 100]),\n",
      "   midi.NoteOffEvent(tick=192, channel=2, data=[68, 64]),\n",
      "   midi.NoteOnEvent(tick=0, channel=2, data=[64, 100]),\n",
      "   midi.NoteOffEvent(tick=192, channel=2, data=[64, 64]),\n",
      "   midi.NoteOnEvent(tick=0, channel=2, data=[69, 100]),\n",
      "   midi.NoteOffEvent(tick=48, channel=2, data=[69, 64]),\n",
      "   midi.NoteOnEvent(tick=0, channel=2, data=[71, 100]),\n",
      "   midi.NoteOffEvent(tick=48, channel=2, data=[71, 64]),\n",
      "   midi.NoteOnEvent(tick=0, channel=2, data=[73, 100]),\n",
      "   midi.NoteOffEvent(tick=256, channel=2, data=[73, 64]),\n",
      "   midi.NoteOnEvent(tick=32, channel=2, data=[71, 100]),\n",
      "   midi.NoteOffEvent(tick=48, channel=2, data=[71, 64]),\n",
      "   midi.NoteOnEvent(tick=0, channel=2, data=[73, 100]),\n",
      "   midi.NoteOffEvent(tick=48, channel=2, data=[73, 64]),\n",
      "   midi.NoteOnEvent(tick=0, channel=2, data=[74, 100]),\n",
      "   midi.NoteOffEvent(tick=256, channel=2, data=[74, 64]),\n",
      "   midi.NoteOnEvent(tick=32, channel=2, data=[73, 100]),\n",
      "   midi.NoteOffEvent(tick=192, channel=2, data=[73, 64]),\n",
      "   midi.NoteOnEvent(tick=0, channel=2, data=[71, 100]),\n",
      "   midi.NoteOffEvent(tick=192, channel=2, data=[71, 64]),\n",
      "   midi.NoteOnEvent(tick=0, channel=2, data=[69, 100]),\n",
      "   midi.NoteOffEvent(tick=192, channel=2, data=[69, 64]),\n",
      "   midi.NoteOnEvent(tick=960, channel=2, data=[85, 100]),\n",
      "   midi.NoteOffEvent(tick=96, channel=2, data=[85, 64]),\n",
      "   midi.NoteOnEvent(tick=0, channel=2, data=[86, 100]),\n",
      "   midi.NoteOffEvent(tick=96, channel=2, data=[86, 64]),\n",
      "   midi.NoteOnEvent(tick=0, channel=2, data=[88, 100]),\n",
      "   midi.NoteOffEvent(tick=96, channel=2, data=[88, 64]),\n",
      "   midi.NoteOnEvent(tick=96, channel=2, data=[88, 100]),\n",
      "   midi.NoteOffEvent(tick=96, channel=2, data=[88, 64]),\n",
      "   midi.NoteOnEvent(tick=96, channel=2, data=[81, 100]),\n",
      "   midi.NoteOffEvent(tick=96, channel=2, data=[81, 64]),\n",
      "   midi.NoteOnEvent(tick=96, channel=2, data=[74, 100]),\n",
      "   midi.NoteOffEvent(tick=48, channel=2, data=[74, 64]),\n",
      "   midi.NoteOnEvent(tick=0, channel=2, data=[76, 100]),\n",
      "   midi.NoteOffEvent(tick=48, channel=2, data=[76, 64]),\n",
      "   midi.NoteOnEvent(tick=0, channel=2, data=[78, 100]),\n",
      "   midi.NoteOffEvent(tick=256, channel=2, data=[78, 64]),\n",
      "   midi.NoteOnEvent(tick=32, channel=2, data=[76, 100]),\n",
      "   midi.NoteOffEvent(tick=48, channel=2, data=[76, 64]),\n",
      "   midi.NoteOnEvent(tick=0, channel=2, data=[78, 100]),\n",
      "   midi.NoteOffEvent(tick=48, channel=2, data=[78, 64]),\n",
      "   midi.NoteOnEvent(tick=0, channel=2, data=[79, 100]),\n",
      "   midi.NoteOffEvent(tick=256, channel=2, data=[79, 64]),\n",
      "   midi.NoteOnEvent(tick=32, channel=2, data=[78, 100]),\n",
      "   midi.NoteOffEvent(tick=192, channel=2, data=[78, 64]),\n",
      "   midi.NoteOnEvent(tick=0, channel=2, data=[76, 100]),\n",
      "   midi.NoteOffEvent(tick=192, channel=2, data=[76, 64]),\n",
      "   midi.NoteOnEvent(tick=0, channel=2, data=[74, 100]),\n",
      "   midi.NoteOffEvent(tick=192, channel=2, data=[74, 64]),\n",
      "   midi.NoteOnEvent(tick=1152, channel=2, data=[83, 100]),\n",
      "   midi.NoteOffEvent(tick=192, channel=2, data=[83, 64]),\n",
      "   midi.NoteOnEvent(tick=0, channel=2, data=[80, 100]),\n",
      "   midi.NoteOffEvent(tick=192, channel=2, data=[80, 64]),\n",
      "   midi.NoteOnEvent(tick=0, channel=2, data=[76, 100]),\n",
      "   midi.NoteOffEvent(tick=192, channel=2, data=[76, 64]),\n",
      "   midi.NoteOnEvent(tick=960, channel=2, data=[74, 100]),\n",
      "   midi.NoteOffEvent(tick=192, channel=2, data=[74, 64]),\n",
      "   midi.NoteOnEvent(tick=0, channel=2, data=[71, 100]),\n",
      "   midi.NoteOffEvent(tick=192, channel=2, data=[71, 64]),\n",
      "   midi.NoteOnEvent(tick=0, channel=2, data=[68, 100]),\n",
      "   midi.NoteOffEvent(tick=192, channel=2, data=[68, 64]),\n",
      "   midi.NoteOnEvent(tick=0, channel=2, data=[73, 100]),\n",
      "   midi.NoteOffEvent(tick=96, channel=2, data=[73, 64]),\n",
      "   midi.NoteOnEvent(tick=0, channel=2, data=[74, 100]),\n",
      "   midi.NoteOffEvent(tick=96, channel=2, data=[74, 64]),\n",
      "   midi.NoteOnEvent(tick=0, channel=2, data=[76, 100]),\n",
      "   midi.NoteOffEvent(tick=96, channel=2, data=[76, 64]),\n",
      "   midi.NoteOnEvent(tick=96, channel=2, data=[76, 100]),\n",
      "   midi.NoteOffEvent(tick=96, channel=2, data=[76, 64]),\n",
      "   midi.NoteOnEvent(tick=96, channel=2, data=[78, 100]),\n",
      "   midi.NoteOffEvent(tick=96, channel=2, data=[78, 64]),\n",
      "   midi.NoteOnEvent(tick=96, channel=2, data=[76, 100]),\n",
      "   midi.NoteOffEvent(tick=192, channel=2, data=[76, 64]),\n",
      "   midi.NoteOnEvent(tick=0, channel=2, data=[69, 100]),\n",
      "   midi.NoteOffEvent(tick=192, channel=2, data=[69, 64]),\n",
      "   midi.NoteOnEvent(tick=0, channel=2, data=[81, 100]),\n",
      "   midi.NoteOffEvent(tick=576, channel=2, data=[81, 64]),\n",
      "   midi.NoteOnEvent(tick=0, channel=2, data=[80, 100]),\n",
      "   midi.NoteOffEvent(tick=96, channel=2, data=[80, 64]),\n",
      "   midi.NoteOnEvent(tick=0, channel=2, data=[78, 100]),\n",
      "   midi.NoteOffEvent(tick=96, channel=2, data=[78, 64]),\n",
      "   midi.NoteOnEvent(tick=0, channel=2, data=[76, 100]),\n",
      "   midi.NoteOffEvent(tick=96, channel=2, data=[76, 64]),\n",
      "   midi.NoteOnEvent(tick=0, channel=2, data=[74, 100]),\n",
      "   midi.NoteOffEvent(tick=96, channel=2, data=[74, 64]),\n",
      "   midi.NoteOnEvent(tick=0, channel=2, data=[73, 100]),\n",
      "   midi.NoteOffEvent(tick=96, channel=2, data=[73, 64]),\n",
      "   midi.NoteOnEvent(tick=0, channel=2, data=[71, 100]),\n",
      "   midi.NoteOffEvent(tick=96, channel=2, data=[71, 64]),\n",
      "   midi.NoteOnEvent(tick=0, channel=2, data=[69, 100]),\n",
      "   midi.NoteOffEvent(tick=192, channel=2, data=[69, 64]),\n",
      "   midi.NoteOnEvent(tick=0, channel=2, data=[71, 100]),\n",
      "   midi.NoteOffEvent(tick=96, channel=2, data=[71, 64]),\n",
      "   midi.NoteOnEvent(tick=0, channel=2, data=[73, 100]),\n",
      "   midi.NoteOffEvent(tick=96, channel=2, data=[73, 64]),\n",
      "   midi.NoteOnEvent(tick=0, channel=2, data=[74, 100]),\n",
      "   midi.NoteOffEvent(tick=96, channel=2, data=[74, 64]),\n",
      "   midi.NoteOnEvent(tick=0, channel=2, data=[76, 100]),\n",
      "   midi.NoteOffEvent(tick=96, channel=2, data=[76, 64]),\n",
      "   midi.NoteOnEvent(tick=0, channel=2, data=[78, 100]),\n",
      "   midi.NoteOffEvent(tick=96, channel=2, data=[78, 64]),\n",
      "   midi.NoteOnEvent(tick=0, channel=2, data=[80, 100]),\n",
      "   midi.NoteOffEvent(tick=96, channel=2, data=[80, 64]),\n",
      "   midi.NoteOnEvent(tick=0, channel=2, data=[81, 100]),\n",
      "   midi.NoteOffEvent(tick=192, channel=2, data=[81, 64]),\n",
      "   midi.NoteOnEvent(tick=1152, channel=2, data=[76, 100]),\n",
      "   midi.NoteOffEvent(tick=192, channel=2, data=[76, 64]),\n",
      "   midi.NoteOnEvent(tick=0, channel=2, data=[81, 100]),\n",
      "   midi.NoteOffEvent(tick=48, channel=2, data=[81, 64]),\n",
      "   midi.NoteOnEvent(tick=0, channel=2, data=[83, 100]),\n",
      "   midi.NoteOffEvent(tick=48, channel=2, data=[83, 64]),\n",
      "   midi.NoteOnEvent(tick=0, channel=2, data=[85, 100]),\n",
      "   midi.NoteOffEvent(tick=256, channel=2, data=[85, 64]),\n",
      "   midi.NoteOnEvent(tick=32, channel=2, data=[83, 100]),\n",
      "   midi.NoteOffEvent(tick=48, channel=2, data=[83, 64]),\n",
      "   midi.NoteOnEvent(tick=0, channel=2, data=[85, 100]),\n",
      "   midi.NoteOffEvent(tick=48, channel=2, data=[85, 64]),\n",
      "   midi.NoteOnEvent(tick=0, channel=2, data=[86, 100]),\n",
      "   midi.NoteOffEvent(tick=256, channel=2, data=[86, 64]),\n",
      "   midi.NoteOnEvent(tick=32, channel=2, data=[85, 100]),\n",
      "   midi.NoteOffEvent(tick=192, channel=2, data=[85, 64]),\n",
      "   midi.NoteOnEvent(tick=0, channel=2, data=[88, 100]),\n",
      "   midi.NoteOffEvent(tick=192, channel=2, data=[88, 64]),\n",
      "   midi.NoteOnEvent(tick=0, channel=2, data=[85, 100]),\n",
      "   midi.NoteOffEvent(tick=192, channel=2, data=[85, 64]),\n",
      "   midi.NoteOnEvent(tick=0, channel=2, data=[81, 100]),\n",
      "   midi.NoteOffEvent(tick=192, channel=2, data=[81, 64]),\n",
      "   midi.NoteOnEvent(tick=1344, channel=2, data=[76, 100]),\n",
      "   midi.NoteOffEvent(tick=192, channel=2, data=[76, 64]),\n",
      "   midi.NoteOnEvent(tick=0, channel=2, data=[81, 100]),\n",
      "   midi.NoteOffEvent(tick=48, channel=2, data=[81, 64]),\n",
      "   midi.NoteOnEvent(tick=0, channel=2, data=[83, 100]),\n",
      "   midi.NoteOffEvent(tick=48, channel=2, data=[83, 64]),\n",
      "   midi.NoteOnEvent(tick=0, channel=2, data=[85, 100]),\n",
      "   midi.NoteOffEvent(tick=256, channel=2, data=[85, 64]),\n",
      "   midi.NoteOnEvent(tick=32, channel=2, data=[83, 100]),\n",
      "   midi.NoteOffEvent(tick=48, channel=2, data=[83, 64]),\n",
      "   midi.NoteOnEvent(tick=0, channel=2, data=[85, 100]),\n",
      "   midi.NoteOffEvent(tick=48, channel=2, data=[85, 64]),\n",
      "   midi.NoteOnEvent(tick=0, channel=2, data=[86, 100]),\n",
      "   midi.NoteOffEvent(tick=256, channel=2, data=[86, 64]),\n",
      "   midi.NoteOnEvent(tick=32, channel=2, data=[85, 100]),\n",
      "   midi.NoteOffEvent(tick=192, channel=2, data=[85, 64]),\n",
      "   midi.NoteOnEvent(tick=0, channel=2, data=[88, 100]),\n",
      "   midi.NoteOffEvent(tick=192, channel=2, data=[88, 64]),\n",
      "   midi.NoteOnEvent(tick=0, channel=2, data=[85, 100]),\n",
      "   midi.NoteOffEvent(tick=192, channel=2, data=[85, 64]),\n",
      "   midi.NoteOnEvent(tick=0, channel=2, data=[81, 100]),\n",
      "   midi.NoteOffEvent(tick=192, channel=2, data=[81, 64]),\n",
      "   midi.NoteOnEvent(tick=192, channel=2, data=[78, 100]),\n",
      "   midi.NoteOffEvent(tick=96, channel=2, data=[78, 64]),\n",
      "   midi.NoteOnEvent(tick=0, channel=2, data=[76, 100]),\n",
      "   midi.NoteOffEvent(tick=96, channel=2, data=[76, 64]),\n",
      "   midi.NoteOnEvent(tick=0, channel=2, data=[74, 100]),\n",
      "   midi.NoteOffEvent(tick=96, channel=2, data=[74, 64]),\n",
      "   midi.NoteOnEvent(tick=0, channel=2, data=[73, 100]),\n",
      "   midi.NoteOffEvent(tick=96, channel=2, data=[73, 64]),\n",
      "   midi.NoteOnEvent(tick=0, channel=2, data=[71, 100]),\n",
      "   midi.NoteOffEvent(tick=96, channel=2, data=[71, 64]),\n",
      "   midi.NoteOnEvent(tick=0, channel=2, data=[69, 100]),\n",
      "   midi.NoteOffEvent(tick=96, channel=2, data=[69, 64]),\n",
      "   midi.NoteOnEvent(tick=0, channel=2, data=[71, 100]),\n",
      "   midi.NoteOffEvent(tick=192, channel=2, data=[71, 64]),\n",
      "   midi.NoteOnEvent(tick=0, channel=2, data=[83, 100]),\n",
      "   midi.NoteOffEvent(tick=96, channel=2, data=[83, 64]),\n",
      "   midi.NoteOnEvent(tick=0, channel=2, data=[81, 100]),\n",
      "   midi.NoteOffEvent(tick=96, channel=2, data=[81, 64]),\n",
      "   midi.NoteOnEvent(tick=0, channel=2, data=[83, 100]),\n",
      "   midi.NoteOffEvent(tick=96, channel=2, data=[83, 64]),\n",
      "   midi.NoteOnEvent(tick=0, channel=2, data=[81, 100]),\n",
      "   midi.NoteOffEvent(tick=96, channel=2, data=[81, 64]),\n",
      "   midi.NoteOnEvent(tick=0, channel=2, data=[80, 100]),\n",
      "   midi.NoteOffEvent(tick=96, channel=2, data=[80, 64]),\n",
      "   midi.NoteOnEvent(tick=0, channel=2, data=[78, 100]),\n",
      "   midi.NoteOffEvent(tick=96, channel=2, data=[78, 64]),\n",
      "   midi.NoteOnEvent(tick=0, channel=2, data=[76, 100]),\n",
      "   midi.NoteOffEvent(tick=96, channel=2, data=[76, 64]),\n",
      "   midi.NoteOnEvent(tick=0, channel=2, data=[78, 100]),\n",
      "   midi.NoteOffEvent(tick=96, channel=2, data=[78, 64]),\n",
      "   midi.NoteOnEvent(tick=0, channel=2, data=[76, 100]),\n",
      "   midi.NoteOffEvent(tick=96, channel=2, data=[76, 64]),\n",
      "   midi.NoteOnEvent(tick=0, channel=2, data=[74, 100]),\n",
      "   midi.NoteOffEvent(tick=96, channel=2, data=[74, 64]),\n",
      "   midi.NoteOnEvent(tick=0, channel=2, data=[73, 100]),\n",
      "   midi.NoteOffEvent(tick=96, channel=2, data=[73, 64]),\n",
      "   midi.NoteOnEvent(tick=0, channel=2, data=[71, 100]),\n",
      "   midi.NoteOffEvent(tick=96, channel=2, data=[71, 64]),\n",
      "   midi.NoteOnEvent(tick=0, channel=2, data=[69, 100]),\n",
      "   midi.NoteOffEvent(tick=96, channel=2, data=[69, 64]),\n",
      "   midi.NoteOnEvent(tick=0, channel=2, data=[68, 100]),\n",
      "   midi.NoteOffEvent(tick=96, channel=2, data=[68, 64]),\n",
      "   midi.NoteOnEvent(tick=0, channel=2, data=[69, 100]),\n",
      "   midi.NoteOffEvent(tick=192, channel=2, data=[69, 64]),\n",
      "   midi.NoteOnEvent(tick=0, channel=2, data=[81, 100]),\n",
      "   midi.NoteOffEvent(tick=96, channel=2, data=[81, 64]),\n",
      "   midi.NoteOnEvent(tick=0, channel=2, data=[80, 100]),\n",
      "   midi.NoteOffEvent(tick=96, channel=2, data=[80, 64]),\n",
      "   midi.NoteOnEvent(tick=0, channel=2, data=[81, 100]),\n",
      "   midi.NoteOffEvent(tick=96, channel=2, data=[81, 64]),\n",
      "   midi.NoteOnEvent(tick=0, channel=2, data=[80, 100]),\n",
      "   midi.NoteOffEvent(tick=96, channel=2, data=[80, 64]),\n",
      "   midi.NoteOnEvent(tick=0, channel=2, data=[78, 100]),\n",
      "   midi.NoteOffEvent(tick=96, channel=2, data=[78, 64]),\n",
      "   midi.NoteOnEvent(tick=0, channel=2, data=[76, 100]),\n",
      "   midi.NoteOffEvent(tick=96, channel=2, data=[76, 64]),\n",
      "   midi.NoteOnEvent(tick=0, channel=2, data=[74, 100]),\n",
      "   midi.NoteOffEvent(tick=96, channel=2, data=[74, 64]),\n",
      "   midi.NoteOnEvent(tick=0, channel=2, data=[73, 100]),\n",
      "   midi.NoteOffEvent(tick=96, channel=2, data=[73, 64]),\n",
      "   midi.NoteOnEvent(tick=0, channel=2, data=[74, 100]),\n",
      "   midi.NoteOffEvent(tick=96, channel=2, data=[74, 64]),\n",
      "   midi.NoteOnEvent(tick=0, channel=2, data=[76, 100]),\n",
      "   midi.NoteOffEvent(tick=96, channel=2, data=[76, 64]),\n",
      "   midi.NoteOnEvent(tick=0, channel=2, data=[74, 100]),\n",
      "   midi.NoteOffEvent(tick=96, channel=2, data=[74, 64]),\n",
      "   midi.NoteOnEvent(tick=0, channel=2, data=[73, 100]),\n",
      "   midi.NoteOffEvent(tick=96, channel=2, data=[73, 64]),\n",
      "   midi.NoteOnEvent(tick=0, channel=2, data=[71, 100]),\n",
      "   midi.NoteOffEvent(tick=96, channel=2, data=[71, 64]),\n",
      "   midi.NoteOnEvent(tick=0, channel=2, data=[69, 100]),\n",
      "   midi.NoteOffEvent(tick=96, channel=2, data=[69, 64]),\n",
      "   midi.NoteOnEvent(tick=0, channel=2, data=[76, 100]),\n",
      "   midi.NoteOffEvent(tick=960, channel=2, data=[76, 64]),\n",
      "   midi.NoteOnEvent(tick=0, channel=2, data=[74, 100]),\n",
      "   midi.NoteOffEvent(tick=96, channel=2, data=[74, 64]),\n",
      "   midi.NoteOnEvent(tick=0, channel=2, data=[73, 100]),\n",
      "   midi.NoteOffEvent(tick=96, channel=2, data=[73, 64]),\n",
      "   midi.NoteOnEvent(tick=0, channel=2, data=[74, 100]),\n",
      "   midi.NoteOffEvent(tick=96, channel=2, data=[74, 64]),\n",
      "   midi.NoteOnEvent(tick=0, channel=2, data=[73, 100]),\n",
      "   midi.NoteOffEvent(tick=96, channel=2, data=[73, 64]),\n",
      "   midi.NoteOnEvent(tick=0, channel=2, data=[71, 100]),\n",
      "   midi.NoteOffEvent(tick=96, channel=2, data=[71, 64]),\n",
      "   midi.NoteOnEvent(tick=0, channel=2, data=[73, 100]),\n",
      "   midi.NoteOffEvent(tick=96, channel=2, data=[73, 64]),\n",
      "   midi.NoteOnEvent(tick=0, channel=2, data=[69, 100]),\n",
      "   midi.NoteOffEvent(tick=192, channel=2, data=[69, 64]),\n",
      "   midi.NoteOnEvent(tick=0, channel=2, data=[71, 100]),\n",
      "   midi.NoteOffEvent(tick=96, channel=2, data=[71, 64]),\n",
      "   midi.NoteOnEvent(tick=0, channel=2, data=[73, 100]),\n",
      "   midi.NoteOffEvent(tick=96, channel=2, data=[73, 64]),\n",
      "   midi.NoteOnEvent(tick=0, channel=2, data=[74, 100]),\n",
      "   midi.NoteOffEvent(tick=96, channel=2, data=[74, 64]),\n",
      "   midi.NoteOnEvent(tick=0, channel=2, data=[76, 100]),\n",
      "   midi.NoteOffEvent(tick=96, channel=2, data=[76, 64]),\n",
      "   midi.NoteOnEvent(tick=0, channel=2, data=[78, 100]),\n",
      "   midi.NoteOffEvent(tick=96, channel=2, data=[78, 64]),\n",
      "   midi.NoteOnEvent(tick=0, channel=2, data=[80, 100]),\n",
      "   midi.NoteOffEvent(tick=96, channel=2, data=[80, 64]),\n",
      "   midi.NoteOnEvent(tick=0, channel=2, data=[81, 100]),\n",
      "   midi.NoteOffEvent(tick=96, channel=2, data=[81, 64]),\n",
      "   midi.NoteOnEvent(tick=0, channel=2, data=[83, 100]),\n",
      "   midi.NoteOffEvent(tick=96, channel=2, data=[83, 64]),\n",
      "   midi.NoteOnEvent(tick=0, channel=2, data=[85, 100]),\n",
      "   midi.NoteOffEvent(tick=96, channel=2, data=[85, 64]),\n",
      "   midi.NoteOnEvent(tick=96, channel=2, data=[85, 100]),\n",
      "   midi.NoteOffEvent(tick=96, channel=2, data=[85, 64]),\n",
      "   midi.NoteOnEvent(tick=96, channel=2, data=[85, 100]),\n",
      "   midi.NoteOffEvent(tick=96, channel=2, data=[85, 64]),\n",
      "   midi.NoteOnEvent(tick=96, channel=2, data=[85, 100]),\n",
      "   midi.NoteOffEvent(tick=480, channel=2, data=[85, 64]),\n",
      "   midi.NoteOnEvent(tick=0, channel=2, data=[83, 100]),\n",
      "   midi.NoteOffEvent(tick=96, channel=2, data=[83, 64]),\n",
      "   midi.NoteOnEvent(tick=0, channel=2, data=[81, 100]),\n",
      "   midi.NoteOffEvent(tick=96, channel=2, data=[81, 64]),\n",
      "   midi.NoteOnEvent(tick=0, channel=2, data=[80, 100]),\n",
      "   midi.NoteOffEvent(tick=96, channel=2, data=[80, 64]),\n",
      "   midi.NoteOnEvent(tick=0, channel=2, data=[78, 100]),\n",
      "   midi.NoteOffEvent(tick=192, channel=2, data=[78, 64]),\n",
      "   midi.NoteOnEvent(tick=0, channel=2, data=[80, 100]),\n",
      "   midi.NoteOffEvent(tick=192, channel=2, data=[80, 64]),\n",
      "   midi.NoteOnEvent(tick=0, channel=2, data=[73, 100]),\n",
      "   midi.NoteOffEvent(tick=192, channel=2, data=[73, 64]),\n",
      "   midi.NoteOnEvent(tick=0, channel=2, data=[71, 100]),\n",
      "   midi.NoteOffEvent(tick=192, channel=2, data=[71, 64]),\n",
      "   midi.NoteOnEvent(tick=0, channel=2, data=[69, 100]),\n",
      "   midi.NoteOffEvent(tick=192, channel=2, data=[69, 64]),\n",
      "   midi.NoteOnEvent(tick=0, channel=2, data=[68, 100]),\n",
      "   midi.NoteOffEvent(tick=96, channel=2, data=[68, 64]),\n",
      "   midi.NoteOnEvent(tick=0, channel=2, data=[69, 100]),\n",
      "   midi.NoteOffEvent(tick=96, channel=2, data=[69, 64]),\n",
      "   midi.NoteOnEvent(tick=0, channel=2, data=[66, 100]),\n",
      "   midi.NoteOffEvent(tick=192, channel=2, data=[66, 64]),\n",
      "   midi.NoteOnEvent(tick=960, channel=2, data=[85, 100]),\n",
      "   midi.NoteOffEvent(tick=96, channel=2, data=[85, 64]),\n",
      "   midi.NoteOnEvent(tick=0, channel=2, data=[86, 100]),\n",
      "   midi.NoteOffEvent(tick=96, channel=2, data=[86, 64]),\n",
      "   midi.NoteOnEvent(tick=0, channel=2, data=[88, 100]),\n",
      "   midi.NoteOffEvent(tick=96, channel=2, data=[88, 64]),\n",
      "   midi.NoteOnEvent(tick=96, channel=2, data=[88, 100]),\n",
      "   midi.NoteOffEvent(tick=96, channel=2, data=[88, 64]),\n",
      "   midi.NoteOnEvent(tick=96, channel=2, data=[78, 100]),\n",
      "   midi.NoteOffEvent(tick=384, channel=2, data=[78, 64]),\n",
      "   midi.NoteOnEvent(tick=0, channel=2, data=[79, 100]),\n",
      "   midi.NoteOffEvent(tick=192, channel=2, data=[79, 64]),\n",
      "   midi.NoteOnEvent(tick=0, channel=2, data=[78, 100]),\n",
      "   midi.NoteOffEvent(tick=192, channel=2, data=[78, 64]),\n",
      "   midi.NoteOnEvent(tick=0, channel=2, data=[76, 100]),\n",
      "   midi.NoteOffEvent(tick=192, channel=2, data=[76, 64]),\n",
      "   midi.NoteOnEvent(tick=0, channel=2, data=[74, 100]),\n",
      "   midi.NoteOffEvent(tick=192, channel=2, data=[74, 64]),\n",
      "   midi.NoteOnEvent(tick=0, channel=2, data=[73, 100]),\n",
      "   midi.NoteOffEvent(tick=96, channel=2, data=[73, 64]),\n",
      "   midi.NoteOnEvent(tick=0, channel=2, data=[74, 100]),\n",
      "   midi.NoteOffEvent(tick=96, channel=2, data=[74, 64]),\n",
      "   midi.NoteOnEvent(tick=0, channel=2, data=[71, 100]),\n",
      "   midi.NoteOffEvent(tick=384, channel=2, data=[71, 64]),\n",
      "   midi.NoteOnEvent(tick=0, channel=2, data=[79, 100]),\n",
      "   midi.NoteOffEvent(tick=96, channel=2, data=[79, 64]),\n",
      "   midi.NoteOnEvent(tick=0, channel=2, data=[81, 100]),\n",
      "   midi.NoteOffEvent(tick=96, channel=2, data=[81, 64]),\n",
      "   midi.NoteOnEvent(tick=0, channel=2, data=[83, 100]),\n",
      "   midi.NoteOffEvent(tick=96, channel=2, data=[83, 64]),\n",
      "   midi.NoteOnEvent(tick=96, channel=2, data=[83, 100]),\n",
      "   midi.NoteOffEvent(tick=96, channel=2, data=[83, 64]),\n",
      "   midi.NoteOnEvent(tick=96, channel=2, data=[83, 100]),\n",
      "   midi.NoteOffEvent(tick=96, channel=2, data=[83, 64]),\n",
      "   midi.NoteOnEvent(tick=96, channel=2, data=[73, 100]),\n",
      "   midi.NoteOffEvent(tick=384, channel=2, data=[73, 64]),\n",
      "   midi.NoteOnEvent(tick=384, channel=2, data=[78, 100]),\n",
      "   midi.NoteOffEvent(tick=96, channel=2, data=[78, 64]),\n",
      "   midi.NoteOnEvent(tick=0, channel=2, data=[79, 100]),\n",
      "   midi.NoteOffEvent(tick=96, channel=2, data=[79, 64]),\n",
      "   midi.NoteOnEvent(tick=0, channel=2, data=[81, 100]),\n",
      "   midi.NoteOffEvent(tick=96, channel=2, data=[81, 64]),\n",
      "   midi.NoteOnEvent(tick=96, channel=2, data=[81, 100]),\n",
      "   midi.NoteOffEvent(tick=96, channel=2, data=[81, 64]),\n",
      "   midi.NoteOnEvent(tick=96, channel=2, data=[81, 100]),\n",
      "   midi.NoteOffEvent(tick=96, channel=2, data=[81, 64]),\n",
      "   midi.NoteOnEvent(tick=96, channel=2, data=[71, 100]),\n",
      "   midi.NoteOffEvent(tick=384, channel=2, data=[71, 64]),\n",
      "   midi.NoteOnEvent(tick=384, channel=2, data=[70, 100]),\n",
      "   midi.NoteOffEvent(tick=96, channel=2, data=[70, 64]),\n",
      "   midi.NoteOnEvent(tick=0, channel=2, data=[71, 100]),\n",
      "   midi.NoteOffEvent(tick=96, channel=2, data=[71, 64]),\n",
      "   midi.NoteOnEvent(tick=0, channel=2, data=[73, 100]),\n",
      "   midi.NoteOffEvent(tick=256, channel=2, data=[73, 64]),\n",
      "   midi.NoteOnEvent(tick=32, channel=2, data=[74, 100]),\n",
      "   midi.NoteOffEvent(tick=96, channel=2, data=[74, 64]),\n",
      "   midi.NoteOnEvent(tick=0, channel=2, data=[76, 100]),\n",
      "   midi.NoteOffEvent(tick=288, channel=2, data=[76, 64]),\n",
      "   midi.NoteOnEvent(tick=0, channel=2, data=[79, 100]),\n",
      "   midi.NoteOffEvent(tick=96, channel=2, data=[79, 64]),\n",
      "   midi.NoteOnEvent(tick=0, channel=2, data=[78, 100]),\n",
      "   midi.NoteOffEvent(tick=96, channel=2, data=[78, 64]),\n",
      "   midi.NoteOnEvent(tick=0, channel=2, data=[76, 100]),\n",
      "   midi.NoteOffEvent(tick=96, channel=2, data=[76, 64]),\n",
      "   midi.NoteOnEvent(tick=0, channel=2, data=[78, 100]),\n",
      "   midi.NoteOffEvent(tick=96, channel=2, data=[78, 64]),\n",
      "   midi.NoteOnEvent(tick=0, channel=2, data=[76, 100]),\n",
      "   midi.NoteOffEvent(tick=96, channel=2, data=[76, 64]),\n",
      "   midi.NoteOnEvent(tick=0, channel=2, data=[74, 100]),\n",
      "   midi.NoteOffEvent(tick=96, channel=2, data=[74, 64]),\n",
      "   midi.NoteOnEvent(tick=0, channel=2, data=[73, 100]),\n",
      "   midi.NoteOffEvent(tick=96, channel=2, data=[73, 64]),\n",
      "   midi.NoteOnEvent(tick=0, channel=2, data=[76, 100]),\n",
      "   midi.NoteOffEvent(tick=96, channel=2, data=[76, 64]),\n",
      "   midi.NoteOnEvent(tick=0, channel=2, data=[74, 100]),\n",
      "   midi.NoteOffEvent(tick=96, channel=2, data=[74, 64]),\n",
      "   midi.NoteOnEvent(tick=0, channel=2, data=[73, 100]),\n",
      "   midi.NoteOffEvent(tick=96, channel=2, data=[73, 64]),\n",
      "   midi.NoteOnEvent(tick=0, channel=2, data=[71, 100]),\n",
      "   midi.NoteOffEvent(tick=96, channel=2, data=[71, 64]),\n",
      "   midi.NoteOnEvent(tick=0, channel=2, data=[73, 100]),\n",
      "   midi.NoteOffEvent(tick=192, channel=2, data=[73, 64]),\n",
      "   midi.NoteOnEvent(tick=0, channel=2, data=[70, 100]),\n",
      "   midi.NoteOffEvent(tick=192, channel=2, data=[70, 64]),\n",
      "   midi.NoteOnEvent(tick=0, channel=2, data=[71, 100]),\n",
      "   midi.NoteOffEvent(tick=192, channel=2, data=[71, 64]),\n",
      "   midi.NoteOnEvent(tick=0, channel=2, data=[78, 100]),\n",
      "   midi.NoteOffEvent(tick=96, channel=2, data=[78, 64]),\n",
      "   midi.NoteOnEvent(tick=0, channel=2, data=[80, 100]),\n",
      "   midi.NoteOffEvent(tick=96, channel=2, data=[80, 64]),\n",
      "   midi.NoteOnEvent(tick=0, channel=2, data=[82, 100]),\n",
      "   midi.NoteOffEvent(tick=96, channel=2, data=[82, 64]),\n",
      "   midi.NoteOnEvent(tick=0, channel=2, data=[83, 100]),\n",
      "   midi.NoteOffEvent(tick=96, channel=2, data=[83, 64]),\n",
      "   midi.NoteOnEvent(tick=0, channel=2, data=[85, 100]),\n",
      "   midi.NoteOffEvent(tick=96, channel=2, data=[85, 64]),\n",
      "   midi.NoteOnEvent(tick=0, channel=2, data=[86, 100]),\n",
      "   midi.NoteOffEvent(tick=96, channel=2, data=[86, 64]),\n",
      "   midi.NoteOnEvent(tick=0, channel=2, data=[88, 100]),\n",
      "   midi.NoteOffEvent(tick=192, channel=2, data=[88, 64]),\n",
      "   midi.NoteOnEvent(tick=0, channel=2, data=[85, 100]),\n",
      "   midi.NoteOffEvent(tick=192, channel=2, data=[85, 64]),\n",
      "   midi.NoteOnEvent(tick=0, channel=2, data=[82, 100]),\n",
      "   midi.NoteOffEvent(tick=192, channel=2, data=[82, 64]),\n",
      "   midi.NoteOnEvent(tick=0, channel=2, data=[78, 100]),\n",
      "   midi.NoteOffEvent(tick=192, channel=2, data=[78, 64]),\n",
      "   midi.NoteOnEvent(tick=192, channel=2, data=[79, 100]),\n",
      "   midi.NoteOffEvent(tick=96, channel=2, data=[79, 64]),\n",
      "   midi.NoteOnEvent(tick=0, channel=2, data=[78, 100]),\n",
      "   midi.NoteOffEvent(tick=96, channel=2, data=[78, 64]),\n",
      "   midi.NoteOnEvent(tick=0, channel=2, data=[76, 100]),\n",
      "   midi.NoteOffEvent(tick=96, channel=2, data=[76, 64]),\n",
      "   midi.NoteOnEvent(tick=0, channel=2, data=[74, 100]),\n",
      "   midi.NoteOffEvent(tick=96, channel=2, data=[74, 64]),\n",
      "   midi.NoteOnEvent(tick=0, channel=2, data=[73, 100]),\n",
      "   midi.NoteOffEvent(tick=96, channel=2, data=[73, 64]),\n",
      "   midi.NoteOnEvent(tick=0, channel=2, data=[71, 100]),\n",
      "   midi.NoteOffEvent(tick=96, channel=2, data=[71, 64]),\n",
      "   midi.NoteOnEvent(tick=0, channel=2, data=[70, 100]),\n",
      "   midi.NoteOffEvent(tick=192, channel=2, data=[70, 64]),\n",
      "   midi.NoteOnEvent(tick=0, channel=2, data=[78, 100]),\n",
      "   midi.NoteOffEvent(tick=256, channel=2, data=[78, 64]),\n",
      "   midi.NoteOnEvent(tick=32, channel=2, data=[76, 100]),\n",
      "   midi.NoteOffEvent(tick=96, channel=2, data=[76, 64]),\n",
      "   midi.NoteOnEvent(tick=0, channel=2, data=[74, 100]),\n",
      "   midi.NoteOffEvent(tick=96, channel=2, data=[74, 64]),\n",
      "   midi.NoteOnEvent(tick=0, channel=2, data=[73, 100]),\n",
      "   midi.NoteOffEvent(tick=96, channel=2, data=[73, 64]),\n",
      "   midi.NoteOnEvent(tick=0, channel=2, data=[74, 100]),\n",
      "   midi.NoteOffEvent(tick=192, channel=2, data=[74, 64]),\n",
      "   midi.NoteOnEvent(tick=0, channel=2, data=[78, 100]),\n",
      "   midi.NoteOffEvent(tick=192, channel=2, data=[78, 64]),\n",
      "   midi.NoteOnEvent(tick=0, channel=2, data=[74, 100]),\n",
      "   midi.NoteOffEvent(tick=192, channel=2, data=[74, 64]),\n",
      "   midi.NoteOnEvent(tick=0, channel=2, data=[71, 100]),\n",
      "   midi.NoteOffEvent(tick=192, channel=2, data=[71, 64]),\n",
      "   midi.NoteOnEvent(tick=0, channel=2, data=[78, 100]),\n",
      "   midi.NoteOffEvent(tick=96, channel=2, data=[78, 64]),\n",
      "   midi.NoteOnEvent(tick=0, channel=2, data=[79, 100]),\n",
      "   midi.NoteOffEvent(tick=96, channel=2, data=[79, 64]),\n",
      "   midi.NoteOnEvent(tick=0, channel=2, data=[81, 100]),\n",
      "   midi.NoteOffEvent(tick=96, channel=2, data=[81, 64]),\n",
      "   midi.NoteOnEvent(tick=96, channel=2, data=[81, 100]),\n",
      "   midi.NoteOffEvent(tick=96, channel=2, data=[81, 64]),\n",
      "   midi.NoteOnEvent(tick=96, channel=2, data=[81, 100]),\n",
      "   midi.NoteOffEvent(tick=96, channel=2, data=[81, 64]),\n",
      "   midi.NoteOnEvent(tick=96, channel=2, data=[81, 100]),\n",
      "   midi.NoteOffEvent(tick=864, channel=2, data=[81, 64]),\n",
      "   midi.NoteOnEvent(tick=0, channel=2, data=[84, 100]),\n",
      "   midi.NoteOffEvent(tick=96, channel=2, data=[84, 64]),\n",
      "   midi.NoteOnEvent(tick=0, channel=2, data=[83, 100]),\n",
      "   midi.NoteOffEvent(tick=96, channel=2, data=[83, 64]),\n",
      "   midi.NoteOnEvent(tick=0, channel=2, data=[81, 100]),\n",
      "   midi.NoteOffEvent(tick=96, channel=2, data=[81, 64]),\n",
      "   midi.NoteOnEvent(tick=0, channel=2, data=[83, 100]),\n",
      "   midi.NoteOffEvent(tick=96, channel=2, data=[83, 64]),\n",
      "   midi.NoteOnEvent(tick=0, channel=2, data=[81, 100]),\n",
      "   midi.NoteOffEvent(tick=96, channel=2, data=[81, 64]),\n",
      "   midi.NoteOnEvent(tick=0, channel=2, data=[79, 100]),\n",
      "   midi.NoteOffEvent(tick=96, channel=2, data=[79, 64]),\n",
      "   midi.NoteOnEvent(tick=0, channel=2, data=[78, 100]),\n",
      "   midi.NoteOffEvent(tick=96, channel=2, data=[78, 64]),\n",
      "   midi.NoteOnEvent(tick=0, channel=2, data=[79, 100]),\n",
      "   midi.NoteOffEvent(tick=96, channel=2, data=[79, 64]),\n",
      "   midi.NoteOnEvent(tick=0, channel=2, data=[81, 100]),\n",
      "   midi.NoteOffEvent(tick=96, channel=2, data=[81, 64]),\n",
      "   midi.NoteOnEvent(tick=0, channel=2, data=[79, 100]),\n",
      "   midi.NoteOffEvent(tick=96, channel=2, data=[79, 64]),\n",
      "   midi.NoteOnEvent(tick=0, channel=2, data=[78, 100]),\n",
      "   midi.NoteOffEvent(tick=96, channel=2, data=[78, 64]),\n",
      "   midi.NoteOnEvent(tick=0, channel=2, data=[76, 100]),\n",
      "   midi.NoteOffEvent(tick=96, channel=2, data=[76, 64]),\n",
      "   midi.NoteOnEvent(tick=0, channel=2, data=[78, 100]),\n",
      "   midi.NoteOffEvent(tick=96, channel=2, data=[78, 64]),\n",
      "   midi.NoteOnEvent(tick=0, channel=2, data=[79, 100]),\n",
      "   midi.NoteOffEvent(tick=96, channel=2, data=[79, 64]),\n",
      "   midi.NoteOnEvent(tick=0, channel=2, data=[81, 100]),\n",
      "   midi.NoteOffEvent(tick=96, channel=2, data=[81, 64]),\n",
      "   midi.NoteOnEvent(tick=0, channel=2, data=[83, 100]),\n",
      "   midi.NoteOffEvent(tick=768, channel=2, data=[83, 64]),\n",
      "   midi.NoteOnEvent(tick=0, channel=2, data=[82, 100]),\n",
      "   midi.NoteOffEvent(tick=96, channel=2, data=[82, 64]),\n",
      "   midi.NoteOnEvent(tick=0, channel=2, data=[80, 100]),\n",
      "   midi.NoteOffEvent(tick=96, channel=2, data=[80, 64]),\n",
      "   midi.NoteOnEvent(tick=0, channel=2, data=[78, 100]),\n",
      "   midi.NoteOffEvent(tick=96, channel=2, data=[78, 64]),\n",
      "   midi.NoteOnEvent(tick=0, channel=2, data=[80, 100]),\n",
      "   midi.NoteOffEvent(tick=96, channel=2, data=[80, 64]),\n",
      "   midi.NoteOnEvent(tick=0, channel=2, data=[82, 100]),\n",
      "   midi.NoteOffEvent(tick=192, channel=2, data=[82, 64]),\n",
      "   midi.NoteOnEvent(tick=0, channel=2, data=[83, 100]),\n",
      "   midi.NoteOffEvent(tick=192, channel=2, data=[83, 64]),\n",
      "   midi.NoteOnEvent(tick=0, channel=2, data=[85, 100]),\n",
      "   midi.NoteOffEvent(tick=864, channel=2, data=[85, 64]),\n",
      "   midi.NoteOnEvent(tick=0, channel=2, data=[83, 100]),\n",
      "   midi.NoteOffEvent(tick=96, channel=2, data=[83, 64]),\n",
      "   midi.NoteOnEvent(tick=0, channel=2, data=[82, 100]),\n",
      "   midi.NoteOffEvent(tick=96, channel=2, data=[82, 64]),\n",
      "   midi.NoteOnEvent(tick=0, channel=2, data=[83, 100]),\n",
      "   midi.NoteOffEvent(tick=96, channel=2, data=[83, 64]),\n",
      "   midi.NoteOnEvent(tick=0, channel=2, data=[85, 100]),\n",
      "   midi.NoteOffEvent(tick=192, channel=2, data=[85, 64]),\n",
      "   midi.NoteOnEvent(tick=0, channel=2, data=[82, 100]),\n",
      "   midi.NoteOffEvent(tick=192, channel=2, data=[82, 64]),\n",
      "   midi.NoteOnEvent(tick=0, channel=2, data=[83, 100]),\n",
      "   midi.NoteOffEvent(tick=192, channel=2, data=[83, 64]),\n",
      "   midi.NoteOnEvent(tick=0, channel=2, data=[78, 100]),\n",
      "   midi.NoteOffEvent(tick=384, channel=2, data=[78, 64]),\n",
      "   midi.NoteOnEvent(tick=0, channel=2, data=[79, 100]),\n",
      "   midi.NoteOffEvent(tick=192, channel=2, data=[79, 64]),\n",
      "   midi.NoteOnEvent(tick=0, channel=2, data=[78, 100]),\n",
      "   midi.NoteOffEvent(tick=96, channel=2, data=[78, 64]),\n",
      "   midi.NoteOnEvent(tick=0, channel=2, data=[83, 100]),\n",
      "   midi.NoteOffEvent(tick=96, channel=2, data=[83, 64]),\n",
      "   midi.NoteOnEvent(tick=0, channel=2, data=[81, 100]),\n",
      "   midi.NoteOffEvent(tick=96, channel=2, data=[81, 64]),\n",
      "   midi.NoteOnEvent(tick=0, channel=2, data=[79, 100]),\n",
      "   midi.NoteOffEvent(tick=96, channel=2, data=[79, 64]),\n",
      "   midi.NoteOnEvent(tick=0, channel=2, data=[78, 100]),\n",
      "   midi.NoteOffEvent(tick=192, channel=2, data=[78, 64]),\n",
      "   midi.NoteOnEvent(tick=0, channel=2, data=[76, 100]),\n",
      "   midi.NoteOffEvent(tick=192, channel=2, data=[76, 64]),\n",
      "   midi.NoteOnEvent(tick=0, channel=2, data=[74, 100]),\n",
      "   midi.NoteOffEvent(tick=384, channel=2, data=[74, 64]),\n",
      "   midi.NoteOnEvent(tick=0, channel=2, data=[73, 100]),\n",
      "   midi.NoteOffEvent(tick=384, channel=2, data=[73, 64]),\n",
      "   midi.NoteOnEvent(tick=0, channel=2, data=[71, 100]),\n",
      "   midi.NoteOffEvent(tick=480, channel=2, data=[71, 64]),\n",
      "   midi.NoteOnEvent(tick=0, channel=2, data=[70, 100]),\n",
      "   midi.NoteOffEvent(tick=96, channel=2, data=[70, 64]),\n",
      "   midi.NoteOnEvent(tick=0, channel=2, data=[71, 100]),\n",
      "   midi.NoteOffEvent(tick=96, channel=2, data=[71, 64]),\n",
      "   midi.NoteOnEvent(tick=0, channel=2, data=[73, 100]),\n",
      "   midi.NoteOffEvent(tick=96, channel=2, data=[73, 64]),\n",
      "   midi.NoteOnEvent(tick=0, channel=2, data=[74, 100]),\n",
      "   midi.NoteOffEvent(tick=96, channel=2, data=[74, 64]),\n",
      "   midi.NoteOnEvent(tick=0, channel=2, data=[76, 100]),\n",
      "   midi.NoteOffEvent(tick=96, channel=2, data=[76, 64]),\n",
      "   midi.NoteOnEvent(tick=0, channel=2, data=[78, 100]),\n",
      "   midi.NoteOffEvent(tick=96, channel=2, data=[78, 64]),\n",
      "   midi.NoteOnEvent(tick=96, channel=2, data=[78, 100]),\n",
      "   midi.NoteOffEvent(tick=96, channel=2, data=[78, 64]),\n",
      "   midi.NoteOnEvent(tick=96, channel=2, data=[79, 100]),\n",
      "   midi.NoteOffEvent(tick=96, channel=2, data=[79, 64]),\n",
      "   midi.NoteOnEvent(tick=96, channel=2, data=[81, 100]),\n",
      "   midi.NoteOffEvent(tick=480, channel=2, data=[81, 64]),\n",
      "   midi.NoteOnEvent(tick=0, channel=2, data=[84, 100]),\n",
      "   midi.NoteOffEvent(tick=96, channel=2, data=[84, 64]),\n",
      "   midi.NoteOnEvent(tick=0, channel=2, data=[83, 100]),\n",
      "   midi.NoteOffEvent(tick=96, channel=2, data=[83, 64]),\n",
      "   midi.NoteOnEvent(tick=0, channel=2, data=[81, 100]),\n",
      "   midi.NoteOffEvent(tick=96, channel=2, data=[81, 64]),\n",
      "   midi.NoteOnEvent(tick=0, channel=2, data=[79, 100]),\n",
      "   midi.NoteOffEvent(tick=192, channel=2, data=[79, 64]),\n",
      "   midi.NoteOnEvent(tick=0, channel=2, data=[81, 100]),\n",
      "   midi.NoteOffEvent(tick=192, channel=2, data=[81, 64]),\n",
      "   midi.NoteOnEvent(tick=0, channel=2, data=[74, 100]),\n",
      "   midi.NoteOffEvent(tick=192, channel=2, data=[74, 64]),\n",
      "   midi.NoteOnEvent(tick=0, channel=2, data=[72, 100]),\n",
      "   midi.NoteOffEvent(tick=192, channel=2, data=[72, 64]),\n",
      "   midi.NoteOnEvent(tick=0, channel=2, data=[71, 100]),\n",
      "   midi.NoteOffEvent(tick=192, channel=2, data=[71, 64]),\n",
      "   midi.NoteOnEvent(tick=0, channel=2, data=[69, 100]),\n",
      "   midi.NoteOffEvent(tick=96, channel=2, data=[69, 64]),\n",
      "   midi.NoteOnEvent(tick=0, channel=2, data=[71, 100]),\n",
      "   midi.NoteOffEvent(tick=96, channel=2, data=[71, 64]),\n",
      "   midi.NoteOnEvent(tick=0, channel=2, data=[67, 100]),\n",
      "   midi.NoteOffEvent(tick=192, channel=2, data=[67, 64]),\n",
      "   midi.NoteOnEvent(tick=960, channel=2, data=[78, 100]),\n",
      "   midi.NoteOffEvent(tick=96, channel=2, data=[78, 64]),\n",
      "   midi.NoteOnEvent(tick=0, channel=2, data=[79, 100]),\n",
      "   midi.NoteOffEvent(tick=96, channel=2, data=[79, 64]),\n",
      "   midi.NoteOnEvent(tick=0, channel=2, data=[81, 100]),\n",
      "   midi.NoteOffEvent(tick=96, channel=2, data=[81, 64]),\n",
      "   midi.NoteOnEvent(tick=96, channel=2, data=[81, 100]),\n",
      "   midi.NoteOffEvent(tick=96, channel=2, data=[81, 64]),\n",
      "   midi.NoteOnEvent(tick=96, channel=2, data=[71, 100]),\n",
      "   midi.NoteOffEvent(tick=384, channel=2, data=[71, 64]),\n",
      "   midi.NoteOnEvent(tick=0, channel=2, data=[76, 100]),\n",
      "   midi.NoteOffEvent(tick=384, channel=2, data=[76, 64]),\n",
      "   midi.NoteOnEvent(tick=0, channel=2, data=[75, 100]),\n",
      "   midi.NoteOffEvent(tick=192, channel=2, data=[75, 64]),\n",
      "   midi.NoteOnEvent(tick=0, channel=2, data=[76, 100]),\n",
      "   midi.NoteOffEvent(tick=192, channel=2, data=[76, 64]),\n",
      "   midi.NoteOnEvent(tick=0, channel=2, data=[71, 100]),\n",
      "   midi.NoteOffEvent(tick=192, channel=2, data=[71, 64]),\n",
      "   midi.NoteOnEvent(tick=0, channel=2, data=[76, 100]),\n",
      "   midi.NoteOffEvent(tick=192, channel=2, data=[76, 64]),\n",
      "   midi.NoteOnEvent(tick=0, channel=2, data=[74, 100]),\n",
      "   midi.NoteOffEvent(tick=192, channel=2, data=[74, 64]),\n",
      "   midi.NoteOnEvent(tick=192, channel=2, data=[76, 100]),\n",
      "   midi.NoteOffEvent(tick=192, channel=2, data=[76, 64]),\n",
      "   midi.NoteOnEvent(tick=0, channel=2, data=[81, 100]),\n",
      "   midi.NoteOffEvent(tick=192, channel=2, data=[81, 64]),\n",
      "   midi.NoteOnEvent(tick=0, channel=2, data=[79, 100]),\n",
      "   midi.NoteOffEvent(tick=192, channel=2, data=[79, 64]),\n",
      "   midi.NoteOnEvent(tick=192, channel=2, data=[81, 100]),\n",
      "   midi.NoteOffEvent(tick=192, channel=2, data=[81, 64]),\n",
      "   midi.NoteOnEvent(tick=0, channel=2, data=[86, 100]),\n",
      "   midi.NoteOffEvent(tick=192, channel=2, data=[86, 64]),\n",
      "   midi.NoteOnEvent(tick=0, channel=2, data=[85, 100]),\n",
      "   midi.NoteOffEvent(tick=192, channel=2, data=[85, 64]),\n",
      "   midi.NoteOnEvent(tick=192, channel=2, data=[83, 100]),\n",
      "   midi.NoteOffEvent(tick=192, channel=2, data=[83, 64]),\n",
      "   midi.NoteOnEvent(tick=0, channel=2, data=[80, 100]),\n",
      "   midi.NoteOffEvent(tick=192, channel=2, data=[80, 64]),\n",
      "   midi.NoteOnEvent(tick=0, channel=2, data=[81, 100]),\n",
      "   midi.NoteOffEvent(tick=192, channel=2, data=[81, 64]),\n",
      "   midi.NoteOnEvent(tick=192, channel=2, data=[80, 100]),\n",
      "   midi.NoteOffEvent(tick=192, channel=2, data=[80, 64]),\n",
      "   midi.NoteOnEvent(tick=0, channel=2, data=[73, 100]),\n",
      "   midi.NoteOffEvent(tick=192, channel=2, data=[73, 64]),\n",
      "   midi.NoteOnEvent(tick=0, channel=2, data=[77, 100]),\n",
      "   midi.NoteOffEvent(tick=192, channel=2, data=[77, 64]),\n",
      "   midi.NoteOnEvent(tick=0, channel=2, data=[78, 100]),\n",
      "   midi.NoteOffEvent(tick=960, channel=2, data=[78, 64]),\n",
      "   midi.NoteOnEvent(tick=0, channel=2, data=[78, 100]),\n",
      "   midi.NoteOffEvent(tick=192, channel=2, data=[78, 64]),\n",
      "   midi.NoteOnEvent(tick=0, channel=2, data=[83, 100]),\n",
      "   midi.NoteOffEvent(tick=192, channel=2, data=[83, 64]),\n",
      "   midi.NoteOnEvent(tick=0, channel=2, data=[81, 100]),\n",
      "   midi.NoteOffEvent(tick=192, channel=2, data=[81, 64]),\n",
      "   midi.NoteOnEvent(tick=0, channel=2, data=[80, 100]),\n",
      "   midi.NoteOffEvent(tick=192, channel=2, data=[80, 64]),\n",
      "   midi.NoteOnEvent(tick=0, channel=2, data=[68, 100]),\n",
      "   midi.NoteOffEvent(tick=192, channel=2, data=[68, 64]),\n",
      "   midi.NoteOnEvent(tick=0, channel=2, data=[73, 100]),\n",
      "   midi.NoteOffEvent(tick=192, channel=2, data=[73, 64]),\n",
      "   midi.NoteOnEvent(tick=0, channel=2, data=[71, 100]),\n",
      "   midi.NoteOffEvent(tick=192, channel=2, data=[71, 64]),\n",
      "   midi.NoteOnEvent(tick=0, channel=2, data=[69, 100]),\n",
      "   midi.NoteOffEvent(tick=384, channel=2, data=[69, 64]),\n",
      "   midi.NoteOnEvent(tick=0, channel=2, data=[68, 100]),\n",
      "   midi.NoteOffEvent(tick=384, channel=2, data=[68, 64]),\n",
      "   midi.NoteOnEvent(tick=0, channel=2, data=[66, 100]),\n",
      "   midi.NoteOffEvent(tick=384, channel=2, data=[66, 64]),\n",
      "   midi.NoteOnEvent(tick=1728, channel=2, data=[69, 100]),\n",
      "   midi.NoteOffEvent(tick=192, channel=2, data=[69, 64]),\n",
      "   midi.NoteOnEvent(tick=0, channel=2, data=[74, 100]),\n",
      "   midi.NoteOffEvent(tick=48, channel=2, data=[74, 64]),\n",
      "   midi.NoteOnEvent(tick=0, channel=2, data=[76, 100]),\n",
      "   midi.NoteOffEvent(tick=48, channel=2, data=[76, 64]),\n",
      "   midi.NoteOnEvent(tick=0, channel=2, data=[78, 100]),\n",
      "   midi.NoteOffEvent(tick=256, channel=2, data=[78, 64]),\n",
      "   midi.NoteOnEvent(tick=32, channel=2, data=[76, 100]),\n",
      "   midi.NoteOffEvent(tick=48, channel=2, data=[76, 64]),\n",
      "   midi.NoteOnEvent(tick=0, channel=2, data=[78, 100]),\n",
      "   midi.NoteOffEvent(tick=48, channel=2, data=[78, 64]),\n",
      "   midi.NoteOnEvent(tick=0, channel=2, data=[79, 100]),\n",
      "   midi.NoteOffEvent(tick=256, channel=2, data=[79, 64]),\n",
      "   midi.NoteOnEvent(tick=32, channel=2, data=[78, 100]),\n",
      "   midi.NoteOffEvent(tick=192, channel=2, data=[78, 64]),\n",
      "   midi.NoteOnEvent(tick=0, channel=2, data=[81, 100]),\n",
      "   midi.NoteOffEvent(tick=192, channel=2, data=[81, 64]),\n",
      "   midi.NoteOnEvent(tick=0, channel=2, data=[78, 100]),\n",
      "   midi.NoteOffEvent(tick=192, channel=2, data=[78, 64]),\n",
      "   midi.NoteOnEvent(tick=0, channel=2, data=[74, 100]),\n",
      "   midi.NoteOffEvent(tick=192, channel=2, data=[74, 64]),\n",
      "   midi.NoteOnEvent(tick=768, channel=2, data=[78, 100]),\n",
      "   midi.NoteOffEvent(tick=96, channel=2, data=[78, 64]),\n",
      "   midi.NoteOnEvent(tick=0, channel=2, data=[79, 100]),\n",
      "   midi.NoteOffEvent(tick=96, channel=2, data=[79, 64]),\n",
      "   midi.NoteOnEvent(tick=0, channel=2, data=[81, 100]),\n",
      "   midi.NoteOffEvent(tick=96, channel=2, data=[81, 64]),\n",
      "   midi.NoteOnEvent(tick=96, channel=2, data=[81, 100]),\n",
      "   midi.NoteOffEvent(tick=96, channel=2, data=[81, 64]),\n",
      "   midi.NoteOnEvent(tick=96, channel=2, data=[81, 100]),\n",
      "   midi.NoteOffEvent(tick=96, channel=2, data=[81, 64]),\n",
      "   midi.NoteOnEvent(tick=96, channel=2, data=[81, 100]),\n",
      "   midi.NoteOffEvent(tick=192, channel=2, data=[81, 64]),\n",
      "   midi.NoteOnEvent(tick=1344, channel=2, data=[79, 100]),\n",
      "   midi.NoteOffEvent(tick=864, channel=2, data=[79, 64]),\n",
      "   midi.NoteOnEvent(tick=0, channel=2, data=[78, 100]),\n",
      "   midi.NoteOffEvent(tick=96, channel=2, data=[78, 64]),\n",
      "   midi.NoteOnEvent(tick=0, channel=2, data=[76, 100]),\n",
      "   midi.NoteOffEvent(tick=96, channel=2, data=[76, 64]),\n",
      "   midi.NoteOnEvent(tick=0, channel=2, data=[74, 100]),\n",
      "   midi.NoteOffEvent(tick=96, channel=2, data=[74, 64]),\n",
      "   midi.NoteOnEvent(tick=0, channel=2, data=[73, 100]),\n",
      "   midi.NoteOffEvent(tick=96, channel=2, data=[73, 64]),\n",
      "   midi.NoteOnEvent(tick=0, channel=2, data=[71, 100]),\n",
      "   midi.NoteOffEvent(tick=96, channel=2, data=[71, 64]),\n",
      "   midi.NoteOnEvent(tick=0, channel=2, data=[73, 100]),\n",
      "   midi.NoteOffEvent(tick=96, channel=2, data=[73, 64]),\n",
      "   midi.NoteOnEvent(tick=0, channel=2, data=[69, 100]),\n",
      "   midi.NoteOffEvent(tick=96, channel=2, data=[69, 64]),\n",
      "   midi.NoteOnEvent(tick=0, channel=2, data=[74, 100]),\n",
      "   midi.NoteOffEvent(tick=48, channel=2, data=[74, 64]),\n",
      "   midi.NoteOnEvent(tick=0, channel=2, data=[76, 100]),\n",
      "   midi.NoteOffEvent(tick=48, channel=2, data=[76, 64]),\n",
      "   midi.NoteOnEvent(tick=0, channel=2, data=[78, 100]),\n",
      "   midi.NoteOffEvent(tick=256, channel=2, data=[78, 64]),\n",
      "   midi.NoteOnEvent(tick=32, channel=2, data=[76, 100]),\n",
      "   midi.NoteOffEvent(tick=48, channel=2, data=[76, 64]),\n",
      "   midi.NoteOnEvent(tick=0, channel=2, data=[78, 100]),\n",
      "   midi.NoteOffEvent(tick=48, channel=2, data=[78, 64]),\n",
      "   midi.NoteOnEvent(tick=0, channel=2, data=[79, 100]),\n",
      "   midi.NoteOffEvent(tick=256, channel=2, data=[79, 64]),\n",
      "   midi.NoteOnEvent(tick=32, channel=2, data=[78, 100]),\n",
      "   midi.NoteOffEvent(tick=192, channel=2, data=[78, 64]),\n",
      "   midi.NoteOnEvent(tick=0, channel=2, data=[76, 100]),\n",
      "   midi.NoteOffEvent(tick=192, channel=2, data=[76, 64]),\n",
      "   midi.NoteOnEvent(tick=0, channel=2, data=[74, 100]),\n",
      "   midi.NoteOffEvent(tick=384, channel=2, data=[74, 64]),\n",
      "   midi.NoteOnEvent(tick=1344, channel=2, data=[69, 100]),\n",
      "   midi.NoteOffEvent(tick=192, channel=2, data=[69, 64]),\n",
      "   midi.NoteOnEvent(tick=0, channel=2, data=[74, 100]),\n",
      "   midi.NoteOffEvent(tick=48, channel=2, data=[74, 64]),\n",
      "   midi.NoteOnEvent(tick=0, channel=2, data=[76, 100]),\n",
      "   midi.NoteOffEvent(tick=48, channel=2, data=[76, 64]),\n",
      "   midi.NoteOnEvent(tick=0, channel=2, data=[78, 100]),\n",
      "   midi.NoteOffEvent(tick=256, channel=2, data=[78, 64]),\n",
      "   midi.NoteOnEvent(tick=32, channel=2, data=[76, 100]),\n",
      "   midi.NoteOffEvent(tick=48, channel=2, data=[76, 64]),\n",
      "   midi.NoteOnEvent(tick=0, channel=2, data=[78, 100]),\n",
      "   midi.NoteOffEvent(tick=48, channel=2, data=[78, 64]),\n",
      "   midi.NoteOnEvent(tick=0, channel=2, data=[79, 100]),\n",
      "   midi.NoteOffEvent(tick=256, channel=2, data=[79, 64]),\n",
      "   midi.NoteOnEvent(tick=32, channel=2, data=[78, 100]),\n",
      "   midi.NoteOffEvent(tick=192, channel=2, data=[78, 64]),\n",
      "   midi.NoteOnEvent(tick=0, channel=2, data=[81, 100]),\n",
      "   midi.NoteOffEvent(tick=192, channel=2, data=[81, 64]),\n",
      "   midi.NoteOnEvent(tick=0, channel=2, data=[78, 100]),\n",
      "   midi.NoteOffEvent(tick=192, channel=2, data=[78, 64]),\n",
      "   midi.NoteOnEvent(tick=0, channel=2, data=[74, 100]),\n",
      "   midi.NoteOffEvent(tick=192, channel=2, data=[74, 64]),\n",
      "   midi.NoteOnEvent(tick=0, channel=2, data=[78, 100]),\n",
      "   midi.NoteOffEvent(tick=96, channel=2, data=[78, 64]),\n",
      "   midi.NoteOnEvent(tick=0, channel=2, data=[79, 100]),\n",
      "   midi.NoteOffEvent(tick=96, channel=2, data=[79, 64]),\n",
      "   midi.NoteOnEvent(tick=0, channel=2, data=[81, 100]),\n",
      "   midi.NoteOffEvent(tick=96, channel=2, data=[81, 64]),\n",
      "   midi.NoteOnEvent(tick=96, channel=2, data=[81, 100]),\n",
      "   midi.NoteOffEvent(tick=96, channel=2, data=[81, 64]),\n",
      "   midi.NoteOnEvent(tick=96, channel=2, data=[81, 100]),\n",
      "   midi.NoteOffEvent(tick=96, channel=2, data=[81, 64]),\n",
      "   midi.NoteOnEvent(tick=96, channel=2, data=[81, 100]),\n",
      "   midi.NoteOffEvent(tick=192, channel=2, data=[81, 64]),\n",
      "   midi.NoteOnEvent(tick=0, channel=2, data=[86, 100]),\n",
      "   midi.NoteOffEvent(tick=96, channel=2, data=[86, 64]),\n",
      "   midi.NoteOnEvent(tick=0, channel=2, data=[85, 100]),\n",
      "   midi.NoteOffEvent(tick=96, channel=2, data=[85, 64]),\n",
      "   midi.NoteOnEvent(tick=0, channel=2, data=[86, 100]),\n",
      "   midi.NoteOffEvent(tick=96, channel=2, data=[86, 64]),\n",
      "   midi.NoteOnEvent(tick=0, channel=2, data=[85, 100]),\n",
      "   midi.NoteOffEvent(tick=96, channel=2, data=[85, 64]),\n",
      "   midi.NoteOnEvent(tick=0, channel=2, data=[83, 100]),\n",
      "   midi.NoteOffEvent(tick=96, channel=2, data=[83, 64]),\n",
      "   midi.NoteOnEvent(tick=0, channel=2, data=[81, 100]),\n",
      "   midi.NoteOffEvent(tick=96, channel=2, data=[81, 64]),\n",
      "   midi.NoteOnEvent(tick=0, channel=2, data=[79, 100]),\n",
      "   midi.NoteOffEvent(tick=96, channel=2, data=[79, 64]),\n",
      "   midi.NoteOnEvent(tick=0, channel=2, data=[81, 100]),\n",
      "   midi.NoteOffEvent(tick=96, channel=2, data=[81, 64]),\n",
      "   midi.NoteOnEvent(tick=0, channel=2, data=[83, 100]),\n",
      "   midi.NoteOffEvent(tick=96, channel=2, data=[83, 64]),\n",
      "   midi.NoteOnEvent(tick=96, channel=2, data=[83, 100]),\n",
      "   midi.NoteOffEvent(tick=96, channel=2, data=[83, 64]),\n",
      "   midi.NoteOnEvent(tick=96, channel=2, data=[83, 100]),\n",
      "   midi.NoteOffEvent(tick=96, channel=2, data=[83, 64]),\n",
      "   midi.NoteOnEvent(tick=96, channel=2, data=[83, 100]),\n",
      "   midi.NoteOffEvent(tick=192, channel=2, data=[83, 64]),\n",
      "   midi.NoteOnEvent(tick=0, channel=2, data=[81, 100]),\n",
      "   midi.NoteOffEvent(tick=96, channel=2, data=[81, 64]),\n",
      "   midi.NoteOnEvent(tick=0, channel=2, data=[79, 100]),\n",
      "   midi.NoteOffEvent(tick=96, channel=2, data=[79, 64]),\n",
      "   midi.NoteOnEvent(tick=0, channel=2, data=[81, 100]),\n",
      "   midi.NoteOffEvent(tick=96, channel=2, data=[81, 64]),\n",
      "   midi.NoteOnEvent(tick=0, channel=2, data=[79, 100]),\n",
      "   midi.NoteOffEvent(tick=96, channel=2, data=[79, 64]),\n",
      "   midi.NoteOnEvent(tick=0, channel=2, data=[78, 100]),\n",
      "   midi.NoteOffEvent(tick=96, channel=2, data=[78, 64]),\n",
      "   midi.NoteOnEvent(tick=0, channel=2, data=[76, 100]),\n",
      "   midi.NoteOffEvent(tick=96, channel=2, data=[76, 64]),\n",
      "   midi.NoteOnEvent(tick=0, channel=2, data=[78, 100]),\n",
      "   midi.NoteOffEvent(tick=96, channel=2, data=[78, 64]),\n",
      "   midi.NoteOnEvent(tick=0, channel=2, data=[79, 100]),\n",
      "   midi.NoteOffEvent(tick=96, channel=2, data=[79, 64]),\n",
      "   midi.NoteOnEvent(tick=0, channel=2, data=[81, 100]),\n",
      "   midi.NoteOffEvent(tick=96, channel=2, data=[81, 64]),\n",
      "   midi.NoteOnEvent(tick=0, channel=2, data=[79, 100]),\n",
      "   midi.NoteOffEvent(tick=96, channel=2, data=[79, 64]),\n",
      "   midi.NoteOnEvent(tick=0, channel=2, data=[81, 100]),\n",
      "   midi.NoteOffEvent(tick=96, channel=2, data=[81, 64]),\n",
      "   midi.NoteOnEvent(tick=0, channel=2, data=[79, 100]),\n",
      "   midi.NoteOffEvent(tick=96, channel=2, data=[79, 64]),\n",
      "   midi.NoteOnEvent(tick=0, channel=2, data=[78, 100]),\n",
      "   midi.NoteOffEvent(tick=96, channel=2, data=[78, 64]),\n",
      "   midi.NoteOnEvent(tick=0, channel=2, data=[76, 100]),\n",
      "   midi.NoteOffEvent(tick=96, channel=2, data=[76, 64]),\n",
      "   midi.NoteOnEvent(tick=0, channel=2, data=[74, 100]),\n",
      "   midi.NoteOffEvent(tick=96, channel=2, data=[74, 64]),\n",
      "   midi.NoteOnEvent(tick=0, channel=2, data=[69, 100]),\n",
      "   midi.NoteOffEvent(tick=96, channel=2, data=[69, 64]),\n",
      "   midi.NoteOnEvent(tick=0, channel=2, data=[71, 100]),\n",
      "   midi.NoteOffEvent(tick=96, channel=2, data=[71, 64]),\n",
      "   midi.NoteOnEvent(tick=0, channel=2, data=[72, 100]),\n",
      "   midi.NoteOffEvent(tick=96, channel=2, data=[72, 64]),\n",
      "   midi.NoteOnEvent(tick=0, channel=2, data=[74, 100]),\n",
      "   midi.NoteOffEvent(tick=96, channel=2, data=[74, 64]),\n",
      "   midi.NoteOnEvent(tick=0, channel=2, data=[76, 100]),\n",
      "   midi.NoteOffEvent(tick=96, channel=2, data=[76, 64]),\n",
      "   midi.NoteOnEvent(tick=0, channel=2, data=[78, 100]),\n",
      "   midi.NoteOffEvent(tick=96, channel=2, data=[78, 64]),\n",
      "   midi.NoteOnEvent(tick=0, channel=2, data=[79, 100]),\n",
      "   midi.NoteOffEvent(tick=96, channel=2, data=[79, 64]),\n",
      "   midi.NoteOnEvent(tick=0, channel=2, data=[81, 100]),\n",
      "   midi.NoteOffEvent(tick=96, channel=2, data=[81, 64]),\n",
      "   midi.NoteOnEvent(tick=0, channel=2, data=[83, 100]),\n",
      "   midi.NoteOffEvent(tick=96, channel=2, data=[83, 64]),\n",
      "   midi.NoteOnEvent(tick=0, channel=2, data=[84, 100]),\n",
      "   midi.NoteOffEvent(tick=96, channel=2, data=[84, 64]),\n",
      "   midi.NoteOnEvent(tick=0, channel=2, data=[83, 100]),\n",
      "   midi.NoteOffEvent(tick=96, channel=2, data=[83, 64]),\n",
      "   midi.NoteOnEvent(tick=0, channel=2, data=[84, 100]),\n",
      "   midi.NoteOffEvent(tick=96, channel=2, data=[84, 64]),\n",
      "   midi.NoteOnEvent(tick=0, channel=2, data=[83, 100]),\n",
      "   midi.NoteOffEvent(tick=96, channel=2, data=[83, 64]),\n",
      "   midi.NoteOnEvent(tick=0, channel=2, data=[81, 100]),\n",
      "   midi.NoteOffEvent(tick=96, channel=2, data=[81, 64]),\n",
      "   midi.NoteOnEvent(tick=0, channel=2, data=[79, 100]),\n",
      "   midi.NoteOffEvent(tick=96, channel=2, data=[79, 64]),\n",
      "   midi.NoteOnEvent(tick=0, channel=2, data=[78, 100]),\n",
      "   midi.NoteOffEvent(tick=96, channel=2, data=[78, 64]),\n",
      "   midi.NoteOnEvent(tick=0, channel=2, data=[79, 100]),\n",
      "   midi.NoteOffEvent(tick=96, channel=2, data=[79, 64]),\n",
      "   midi.NoteOnEvent(tick=0, channel=2, data=[78, 100]),\n",
      "   midi.NoteOffEvent(tick=96, channel=2, data=[78, 64]),\n",
      "   midi.NoteOnEvent(tick=0, channel=2, data=[76, 100]),\n",
      "   midi.NoteOffEvent(tick=96, channel=2, data=[76, 64]),\n",
      "   midi.NoteOnEvent(tick=0, channel=2, data=[74, 100]),\n",
      "   midi.NoteOffEvent(tick=96, channel=2, data=[74, 64]),\n",
      "   midi.NoteOnEvent(tick=0, channel=2, data=[72, 100]),\n",
      "   midi.NoteOffEvent(tick=96, channel=2, data=[72, 64]),\n",
      "   midi.NoteOnEvent(tick=0, channel=2, data=[71, 100]),\n",
      "   midi.NoteOffEvent(tick=96, channel=2, data=[71, 64]),\n",
      "   midi.NoteOnEvent(tick=0, channel=2, data=[69, 100]),\n",
      "   midi.NoteOffEvent(tick=96, channel=2, data=[69, 64]),\n",
      "   midi.NoteOnEvent(tick=0, channel=2, data=[71, 100]),\n",
      "   midi.NoteOffEvent(tick=192, channel=2, data=[71, 64]),\n",
      "   midi.NoteOnEvent(tick=0, channel=2, data=[83, 100]),\n",
      "   midi.NoteOffEvent(tick=96, channel=2, data=[83, 64]),\n",
      "   midi.NoteOnEvent(tick=0, channel=2, data=[81, 100]),\n",
      "   midi.NoteOffEvent(tick=96, channel=2, data=[81, 64]),\n",
      "   midi.NoteOnEvent(tick=0, channel=2, data=[79, 100]),\n",
      "   midi.NoteOffEvent(tick=96, channel=2, data=[79, 64]),\n",
      "   midi.NoteOnEvent(tick=0, channel=2, data=[78, 100]),\n",
      "   midi.NoteOffEvent(tick=96, channel=2, data=[78, 64]),\n",
      "   midi.NoteOnEvent(tick=0, channel=2, data=[76, 100]),\n",
      "   midi.NoteOffEvent(tick=96, channel=2, data=[76, 64]),\n",
      "   midi.NoteOnEvent(tick=0, channel=2, data=[74, 100]),\n",
      "   midi.NoteOffEvent(tick=96, channel=2, data=[74, 64]),\n",
      "   midi.NoteOnEvent(tick=0, channel=2, data=[76, 100]),\n",
      "   midi.NoteOffEvent(tick=96, channel=2, data=[76, 64]),\n",
      "   midi.NoteOnEvent(tick=0, channel=2, data=[78, 100]),\n",
      "   midi.NoteOffEvent(tick=96, channel=2, data=[78, 64]),\n",
      "   midi.NoteOnEvent(tick=0, channel=2, data=[76, 100]),\n",
      "   midi.NoteOffEvent(tick=96, channel=2, data=[76, 64]),\n",
      "   midi.NoteOnEvent(tick=0, channel=2, data=[74, 100]),\n",
      "   midi.NoteOffEvent(tick=96, channel=2, data=[74, 64]),\n",
      "   midi.NoteOnEvent(tick=0, channel=2, data=[76, 100]),\n",
      "   midi.NoteOffEvent(tick=96, channel=2, data=[76, 64]),\n",
      "   midi.NoteOnEvent(tick=0, channel=2, data=[74, 100]),\n",
      "   midi.NoteOffEvent(tick=96, channel=2, data=[74, 64]),\n",
      "   midi.NoteOnEvent(tick=0, channel=2, data=[73, 100]),\n",
      "   midi.NoteOffEvent(tick=96, channel=2, data=[73, 64]),\n",
      "   midi.NoteOnEvent(tick=0, channel=2, data=[71, 100]),\n",
      "   midi.NoteOffEvent(tick=96, channel=2, data=[71, 64]),\n",
      "   midi.NoteOnEvent(tick=0, channel=2, data=[69, 100]),\n",
      "   midi.NoteOffEvent(tick=192, channel=2, data=[69, 64]),\n",
      "   midi.NoteOnEvent(tick=0, channel=2, data=[81, 100]),\n",
      "   midi.NoteOffEvent(tick=96, channel=2, data=[81, 64]),\n",
      "   midi.NoteOnEvent(tick=0, channel=2, data=[79, 100]),\n",
      "   midi.NoteOffEvent(tick=96, channel=2, data=[79, 64]),\n",
      "   midi.NoteOnEvent(tick=0, channel=2, data=[78, 100]),\n",
      "   midi.NoteOffEvent(tick=96, channel=2, data=[78, 64]),\n",
      "   midi.NoteOnEvent(tick=0, channel=2, data=[76, 100]),\n",
      "   midi.NoteOffEvent(tick=96, channel=2, data=[76, 64]),\n",
      "   midi.NoteOnEvent(tick=0, channel=2, data=[74, 100]),\n",
      "   midi.NoteOffEvent(tick=96, channel=2, data=[74, 64]),\n",
      "   midi.NoteOnEvent(tick=0, channel=2, data=[73, 100]),\n",
      "   midi.NoteOffEvent(tick=96, channel=2, data=[73, 64]),\n",
      "   midi.NoteOnEvent(tick=0, channel=2, data=[74, 100]),\n",
      "   midi.NoteOffEvent(tick=96, channel=2, data=[74, 64]),\n",
      "   midi.NoteOnEvent(tick=0, channel=2, data=[76, 100]),\n",
      "   midi.NoteOffEvent(tick=96, channel=2, data=[76, 64]),\n",
      "   midi.NoteOnEvent(tick=0, channel=2, data=[74, 100]),\n",
      "   midi.NoteOffEvent(tick=96, channel=2, data=[74, 64]),\n",
      "   midi.NoteOnEvent(tick=0, channel=2, data=[73, 100]),\n",
      "   midi.NoteOffEvent(tick=96, channel=2, data=[73, 64]),\n",
      "   midi.NoteOnEvent(tick=0, channel=2, data=[74, 100]),\n",
      "   midi.NoteOffEvent(tick=96, channel=2, data=[74, 64]),\n",
      "   midi.NoteOnEvent(tick=0, channel=2, data=[73, 100]),\n",
      "   midi.NoteOffEvent(tick=96, channel=2, data=[73, 64]),\n",
      "   midi.NoteOnEvent(tick=0, channel=2, data=[71, 100]),\n",
      "   midi.NoteOffEvent(tick=96, channel=2, data=[71, 64]),\n",
      "   midi.NoteOnEvent(tick=0, channel=2, data=[69, 100]),\n",
      "   midi.NoteOffEvent(tick=96, channel=2, data=[69, 64]),\n",
      "   midi.NoteOnEvent(tick=0, channel=2, data=[67, 100]),\n",
      "   midi.NoteOffEvent(tick=192, channel=2, data=[67, 64]),\n",
      "   midi.NoteOnEvent(tick=0, channel=2, data=[83, 100]),\n",
      "   midi.NoteOffEvent(tick=192, channel=2, data=[83, 64]),\n",
      "   midi.NoteOnEvent(tick=0, channel=2, data=[85, 100]),\n",
      "   midi.NoteOffEvent(tick=192, channel=2, data=[85, 64]),\n",
      "   midi.NoteOnEvent(tick=0, channel=2, data=[86, 100]),\n",
      "   midi.NoteOffEvent(tick=192, channel=2, data=[86, 64]),\n",
      "   midi.NoteOnEvent(tick=0, channel=2, data=[88, 100]),\n",
      "   midi.NoteOffEvent(tick=192, channel=2, data=[88, 64]),\n",
      "   midi.NoteOnEvent(tick=0, channel=2, data=[76, 100]),\n",
      "   midi.NoteOffEvent(tick=96, channel=2, data=[76, 64]),\n",
      "   midi.NoteOnEvent(tick=0, channel=2, data=[78, 100]),\n",
      "   midi.NoteOffEvent(tick=96, channel=2, data=[78, 64]),\n",
      "   midi.NoteOnEvent(tick=0, channel=2, data=[79, 100]),\n",
      "   midi.NoteOffEvent(tick=96, channel=2, data=[79, 64]),\n",
      "   midi.NoteOnEvent(tick=0, channel=2, data=[81, 100]),\n",
      "   midi.NoteOffEvent(tick=96, channel=2, data=[81, 64]),\n",
      "   midi.NoteOnEvent(tick=0, channel=2, data=[83, 100]),\n",
      "   midi.NoteOffEvent(tick=96, channel=2, data=[83, 64]),\n",
      "   midi.NoteOnEvent(tick=0, channel=2, data=[85, 100]),\n",
      "   midi.NoteOffEvent(tick=96, channel=2, data=[85, 64]),\n",
      "   midi.NoteOnEvent(tick=0, channel=2, data=[86, 100]),\n",
      "   midi.NoteOffEvent(tick=96, channel=2, data=[86, 64]),\n",
      "   midi.NoteOnEvent(tick=0, channel=2, data=[81, 100]),\n",
      "   midi.NoteOffEvent(tick=96, channel=2, data=[81, 64]),\n",
      "   midi.NoteOnEvent(tick=0, channel=2, data=[79, 100]),\n",
      "   midi.NoteOffEvent(tick=96, channel=2, data=[79, 64]),\n",
      "   midi.NoteOnEvent(tick=0, channel=2, data=[78, 100]),\n",
      "   midi.NoteOffEvent(tick=96, channel=2, data=[78, 64]),\n",
      "   midi.NoteOnEvent(tick=0, channel=2, data=[79, 100]),\n",
      "   midi.NoteOffEvent(tick=96, channel=2, data=[79, 64]),\n",
      "   midi.NoteOnEvent(tick=0, channel=2, data=[78, 100]),\n",
      "   midi.NoteOffEvent(tick=96, channel=2, data=[78, 64]),\n",
      "   midi.NoteOnEvent(tick=0, channel=2, data=[76, 100]),\n",
      "   midi.NoteOffEvent(tick=96, channel=2, data=[76, 64]),\n",
      "   midi.NoteOnEvent(tick=0, channel=2, data=[78, 100]),\n",
      "   midi.NoteOffEvent(tick=96, channel=2, data=[78, 64]),\n",
      "   midi.NoteOnEvent(tick=0, channel=2, data=[74, 100]),\n",
      "   midi.NoteOffEvent(tick=384, channel=2, data=[74, 64]),\n",
      "   midi.NoteOnEvent(tick=1152, channel=2, data=[85, 100]),\n",
      "   midi.NoteOffEvent(tick=96, channel=2, data=[85, 64]),\n",
      "   midi.NoteOnEvent(tick=0, channel=2, data=[86, 100]),\n",
      "   midi.NoteOffEvent(tick=96, channel=2, data=[86, 64]),\n",
      "   midi.NoteOnEvent(tick=0, channel=2, data=[88, 100]),\n",
      "   midi.NoteOffEvent(tick=96, channel=2, data=[88, 64]),\n",
      "   midi.NoteOnEvent(tick=96, channel=2, data=[88, 100]),\n",
      "   midi.NoteOffEvent(tick=96, channel=2, data=[88, 64]),\n",
      "   midi.NoteOnEvent(tick=96, channel=2, data=[81, 100]),\n",
      "   midi.NoteOffEvent(tick=96, channel=2, data=[81, 64]),\n",
      "   midi.NoteOnEvent(tick=96, channel=2, data=[74, 100]),\n",
      "   midi.NoteOffEvent(tick=48, channel=2, data=[74, 64]),\n",
      "   midi.NoteOnEvent(tick=0, channel=2, data=[76, 100]),\n",
      "   midi.NoteOffEvent(tick=48, channel=2, data=[76, 64]),\n",
      "   midi.NoteOnEvent(tick=0, channel=2, data=[78, 100]),\n",
      "   midi.NoteOffEvent(tick=256, channel=2, data=[78, 64]),\n",
      "   midi.NoteOnEvent(tick=32, channel=2, data=[76, 100]),\n",
      "   midi.NoteOffEvent(tick=48, channel=2, data=[76, 64]),\n",
      "   midi.NoteOnEvent(tick=0, channel=2, data=[78, 100]),\n",
      "   midi.NoteOffEvent(tick=48, channel=2, data=[78, 64]),\n",
      "   midi.NoteOnEvent(tick=0, channel=2, data=[79, 100]),\n",
      "   midi.NoteOffEvent(tick=256, channel=2, data=[79, 64]),\n",
      "   midi.NoteOnEvent(tick=32, channel=2, data=[78, 100]),\n",
      "   midi.NoteOffEvent(tick=192, channel=2, data=[78, 64]),\n",
      "   midi.NoteOnEvent(tick=0, channel=2, data=[76, 100]),\n",
      "   midi.NoteOffEvent(tick=192, channel=2, data=[76, 64]),\n",
      "   midi.NoteOnEvent(tick=0, channel=2, data=[74, 100]),\n",
      "   midi.NoteOffEvent(tick=96, channel=2, data=[74, 64]),\n",
      "   midi.NoteOnEvent(tick=0, channel=2, data=[76, 100]),\n",
      "   midi.NoteOffEvent(tick=96, channel=2, data=[76, 64]),\n",
      "   midi.NoteOnEvent(tick=0, channel=2, data=[78, 100]),\n",
      "   midi.NoteOffEvent(tick=96, channel=2, data=[78, 64]),\n",
      "   midi.NoteOnEvent(tick=0, channel=2, data=[79, 100]),\n",
      "   midi.NoteOffEvent(tick=96, channel=2, data=[79, 64]),\n",
      "   midi.NoteOnEvent(tick=0, channel=2, data=[81, 100]),\n",
      "   midi.NoteOffEvent(tick=96, channel=2, data=[81, 64]),\n",
      "   midi.NoteOnEvent(tick=0, channel=2, data=[79, 100]),\n",
      "   midi.NoteOffEvent(tick=96, channel=2, data=[79, 64]),\n",
      "   midi.NoteOnEvent(tick=0, channel=2, data=[78, 100]),\n",
      "   midi.NoteOffEvent(tick=96, channel=2, data=[78, 64]),\n",
      "   midi.NoteOnEvent(tick=0, channel=2, data=[79, 100]),\n",
      "   midi.NoteOffEvent(tick=96, channel=2, data=[79, 64]),\n",
      "   midi.NoteOnEvent(tick=0, channel=2, data=[81, 100]),\n",
      "   midi.NoteOffEvent(tick=96, channel=2, data=[81, 64]),\n",
      "   midi.NoteOnEvent(tick=0, channel=2, data=[83, 100]),\n",
      "   midi.NoteOffEvent(tick=96, channel=2, data=[83, 64]),\n",
      "   midi.NoteOnEvent(tick=0, channel=2, data=[84, 100]),\n",
      "   midi.NoteOffEvent(tick=96, channel=2, data=[84, 64]),\n",
      "   midi.NoteOnEvent(tick=0, channel=2, data=[81, 100]),\n",
      "   midi.NoteOffEvent(tick=96, channel=2, data=[81, 64]),\n",
      "   midi.NoteOnEvent(tick=0, channel=2, data=[78, 100]),\n",
      "   midi.NoteOffEvent(tick=192, channel=2, data=[78, 64]),\n",
      "   midi.NoteOnEvent(tick=0, channel=2, data=[74, 100]),\n",
      "   midi.NoteOffEvent(tick=192, channel=2, data=[74, 64]),\n",
      "   midi.NoteOnEvent(tick=192, channel=2, data=[74, 100]),\n",
      "   midi.NoteOffEvent(tick=192, channel=2, data=[74, 64]),\n",
      "   midi.NoteOnEvent(tick=0, channel=2, data=[79, 100]),\n",
      "   midi.NoteOffEvent(tick=48, channel=2, data=[79, 64]),\n",
      "   midi.NoteOnEvent(tick=0, channel=2, data=[81, 100]),\n",
      "   midi.NoteOffEvent(tick=48, channel=2, data=[81, 64]),\n",
      "   midi.NoteOnEvent(tick=0, channel=2, data=[83, 100]),\n",
      "   midi.NoteOffEvent(tick=256, channel=2, data=[83, 64]),\n",
      "   midi.NoteOnEvent(tick=32, channel=2, data=[81, 100]),\n",
      "   midi.NoteOffEvent(tick=48, channel=2, data=[81, 64]),\n",
      "   midi.NoteOnEvent(tick=0, channel=2, data=[83, 100]),\n",
      "   midi.NoteOffEvent(tick=48, channel=2, data=[83, 64]),\n",
      "   midi.NoteOnEvent(tick=0, channel=2, data=[84, 100]),\n",
      "   midi.NoteOffEvent(tick=256, channel=2, data=[84, 64]),\n",
      "   midi.NoteOnEvent(tick=32, channel=2, data=[83, 100]),\n",
      "   midi.NoteOffEvent(tick=192, channel=2, data=[83, 64]),\n",
      "   midi.NoteOnEvent(tick=0, channel=2, data=[81, 100]),\n",
      "   midi.NoteOffEvent(tick=192, channel=2, data=[81, 64]),\n",
      "   midi.NoteOnEvent(tick=0, channel=2, data=[79, 100]),\n",
      "   midi.NoteOffEvent(tick=192, channel=2, data=[79, 64]),\n",
      "   midi.NoteOnEvent(tick=0, channel=2, data=[78, 100]),\n",
      "   midi.NoteOffEvent(tick=192, channel=2, data=[78, 64]),\n",
      "   midi.NoteOnEvent(tick=0, channel=2, data=[76, 100]),\n",
      "   midi.NoteOffEvent(tick=864, channel=2, data=[76, 64]),\n",
      "   midi.NoteOnEvent(tick=0, channel=2, data=[74, 100]),\n",
      "   midi.NoteOffEvent(tick=96, channel=2, data=[74, 64]),\n",
      "   midi.NoteOnEvent(tick=0, channel=2, data=[73, 100]),\n",
      "   midi.NoteOffEvent(tick=96, channel=2, data=[73, 64]),\n",
      "   midi.NoteOnEvent(tick=0, channel=2, data=[74, 100]),\n",
      "   midi.NoteOffEvent(tick=96, channel=2, data=[74, 64]),\n",
      "   midi.NoteOnEvent(tick=0, channel=2, data=[76, 100]),\n",
      "   midi.NoteOffEvent(tick=192, channel=2, data=[76, 64]),\n",
      "   midi.NoteOnEvent(tick=0, channel=2, data=[78, 100]),\n",
      "   midi.NoteOffEvent(tick=192, channel=2, data=[78, 64]),\n",
      "   midi.NoteOnEvent(tick=0, channel=2, data=[79, 100]),\n",
      "   midi.NoteOffEvent(tick=864, channel=2, data=[79, 64]),\n",
      "   midi.NoteOnEvent(tick=0, channel=2, data=[78, 100]),\n",
      "   midi.NoteOffEvent(tick=96, channel=2, data=[78, 64]),\n",
      "   midi.NoteOnEvent(tick=0, channel=2, data=[76, 100]),\n",
      "   midi.NoteOffEvent(tick=96, channel=2, data=[76, 64]),\n",
      "   midi.NoteOnEvent(tick=0, channel=2, data=[78, 100]),\n",
      "   midi.NoteOffEvent(tick=96, channel=2, data=[78, 64]),\n",
      "   midi.NoteOnEvent(tick=0, channel=2, data=[79, 100]),\n",
      "   midi.NoteOffEvent(tick=192, channel=2, data=[79, 64]),\n",
      "   midi.NoteOnEvent(tick=0, channel=2, data=[81, 100]),\n",
      "   midi.NoteOffEvent(tick=192, channel=2, data=[81, 64]),\n",
      "   midi.NoteOnEvent(tick=0, channel=2, data=[78, 100]),\n",
      "   midi.NoteOnEvent(tick=0, channel=2, data=[78, 100]),\n",
      "   midi.NoteOffEvent(tick=96, channel=2, data=[78, 64]),\n",
      "   midi.NoteOffEvent(tick=0, channel=2, data=[78, 64]),\n",
      "   midi.NoteOnEvent(tick=0, channel=2, data=[76, 100]),\n",
      "   midi.NoteOnEvent(tick=0, channel=2, data=[76, 100]),\n",
      "   midi.NoteOffEvent(tick=96, channel=2, data=[76, 64]),\n",
      "   midi.NoteOffEvent(tick=0, channel=2, data=[76, 64]),\n",
      "   midi.NoteOnEvent(tick=0, channel=2, data=[74, 100]),\n",
      "   midi.NoteOnEvent(tick=0, channel=2, data=[74, 100]),\n",
      "   midi.NoteOffEvent(tick=96, channel=2, data=[74, 64]),\n",
      "   midi.NoteOffEvent(tick=0, channel=2, data=[74, 64]),\n",
      "   midi.NoteOnEvent(tick=0, channel=2, data=[76, 100]),\n",
      "   midi.NoteOnEvent(tick=0, channel=2, data=[76, 100]),\n",
      "   midi.NoteOffEvent(tick=96, channel=2, data=[76, 64]),\n",
      "   midi.NoteOffEvent(tick=0, channel=2, data=[76, 64]),\n",
      "   midi.NoteOnEvent(tick=0, channel=2, data=[78, 100]),\n",
      "   midi.NoteOnEvent(tick=0, channel=2, data=[78, 100]),\n",
      "   midi.NoteOffEvent(tick=96, channel=2, data=[78, 64]),\n",
      "   midi.NoteOffEvent(tick=0, channel=2, data=[78, 64]),\n",
      "   midi.NoteOnEvent(tick=0, channel=2, data=[76, 100]),\n",
      "   midi.NoteOnEvent(tick=0, channel=2, data=[76, 100]),\n",
      "   midi.NoteOffEvent(tick=96, channel=2, data=[76, 64]),\n",
      "   midi.NoteOffEvent(tick=0, channel=2, data=[76, 64]),\n",
      "   midi.NoteOnEvent(tick=0, channel=2, data=[74, 100]),\n",
      "   midi.NoteOnEvent(tick=0, channel=2, data=[74, 100]),\n",
      "   midi.NoteOffEvent(tick=96, channel=2, data=[74, 64]),\n",
      "   midi.NoteOffEvent(tick=0, channel=2, data=[74, 64]),\n",
      "   midi.NoteOnEvent(tick=0, channel=2, data=[76, 100]),\n",
      "   midi.NoteOnEvent(tick=0, channel=2, data=[76, 100]),\n",
      "   midi.NoteOffEvent(tick=96, channel=2, data=[76, 64]),\n",
      "   midi.NoteOffEvent(tick=0, channel=2, data=[76, 64]),\n",
      "   midi.NoteOnEvent(tick=0, channel=2, data=[78, 100]),\n",
      "   midi.NoteOffEvent(tick=96, channel=2, data=[78, 64]),\n",
      "   midi.NoteOnEvent(tick=0, channel=2, data=[76, 100]),\n",
      "   midi.NoteOffEvent(tick=96, channel=2, data=[76, 64]),\n",
      "   midi.NoteOnEvent(tick=0, channel=2, data=[78, 100]),\n",
      "   midi.NoteOffEvent(tick=96, channel=2, data=[78, 64]),\n",
      "   midi.NoteOnEvent(tick=0, channel=2, data=[79, 100]),\n",
      "   midi.NoteOffEvent(tick=96, channel=2, data=[79, 64]),\n",
      "   midi.NoteOnEvent(tick=0, channel=2, data=[81, 100]),\n",
      "   midi.NoteOffEvent(tick=192, channel=2, data=[81, 64]),\n",
      "   midi.NoteOnEvent(tick=0, channel=2, data=[74, 100]),\n",
      "   midi.NoteOffEvent(tick=192, channel=2, data=[74, 64]),\n",
      "   midi.NoteOnEvent(tick=0, channel=2, data=[76, 100]),\n",
      "   midi.NoteOffEvent(tick=384, channel=2, data=[76, 64]),\n",
      "   midi.NoteOnEvent(tick=0, channel=2, data=[73, 100]),\n",
      "   midi.NoteOffEvent(tick=384, channel=2, data=[73, 64]),\n",
      "   midi.NoteOnEvent(tick=0, channel=2, data=[74, 100]),\n",
      "   midi.NoteOffEvent(tick=192, channel=2, data=[74, 64]),\n",
      "   midi.NoteOnEvent(tick=0, channel=2, data=[81, 100]),\n",
      "   midi.NoteOffEvent(tick=192, channel=2, data=[81, 64]),\n",
      "   midi.NoteOnEvent(tick=0, channel=2, data=[78, 100]),\n",
      "   midi.NoteOffEvent(tick=192, channel=2, data=[78, 64]),\n",
      "   midi.NoteOnEvent(tick=0, channel=2, data=[74, 100]),\n",
      "   midi.NoteOffEvent(tick=192, channel=2, data=[74, 64]),\n",
      "   midi.NoteOnEvent(tick=0, channel=2, data=[69, 100]),\n",
      "   midi.NoteOffEvent(tick=192, channel=2, data=[69, 64]),\n",
      "   midi.NoteOnEvent(tick=1152, channel=2, data=[69, 100]),\n",
      "   midi.NoteOffEvent(tick=192, channel=2, data=[69, 64]),\n",
      "   midi.NoteOnEvent(tick=0, channel=2, data=[74, 100]),\n",
      "   midi.NoteOffEvent(tick=48, channel=2, data=[74, 64]),\n",
      "   midi.NoteOnEvent(tick=0, channel=2, data=[76, 100]),\n",
      "   midi.NoteOffEvent(tick=48, channel=2, data=[76, 64]),\n",
      "   midi.NoteOnEvent(tick=0, channel=2, data=[78, 100]),\n",
      "   midi.NoteOffEvent(tick=256, channel=2, data=[78, 64]),\n",
      "   midi.NoteOnEvent(tick=32, channel=2, data=[76, 100]),\n",
      "   midi.NoteOffEvent(tick=48, channel=2, data=[76, 64]),\n",
      "   midi.NoteOnEvent(tick=0, channel=2, data=[78, 100]),\n",
      "   midi.NoteOffEvent(tick=48, channel=2, data=[78, 64]),\n",
      "   midi.NoteOnEvent(tick=0, channel=2, data=[79, 100]),\n",
      "   midi.NoteOffEvent(tick=256, channel=2, data=[79, 64]),\n",
      "   midi.NoteOnEvent(tick=32, channel=2, data=[78, 100]),\n",
      "   midi.NoteOffEvent(tick=192, channel=2, data=[78, 64]),\n",
      "   midi.NoteOnEvent(tick=0, channel=2, data=[81, 100]),\n",
      "   midi.NoteOffEvent(tick=192, channel=2, data=[81, 64]),\n",
      "   midi.NoteOnEvent(tick=0, channel=2, data=[78, 100]),\n",
      "   midi.NoteOffEvent(tick=192, channel=2, data=[78, 64]),\n",
      "   midi.NoteOnEvent(tick=0, channel=2, data=[74, 100]),\n",
      "   midi.NoteOffEvent(tick=192, channel=2, data=[74, 64]),\n",
      "   midi.NoteOnEvent(tick=1344, channel=2, data=[69, 100]),\n",
      "   midi.NoteOffEvent(tick=192, channel=2, data=[69, 64]),\n",
      "   midi.NoteOnEvent(tick=0, channel=2, data=[74, 100]),\n",
      "   midi.NoteOffEvent(tick=48, channel=2, data=[74, 64]),\n",
      "   midi.NoteOnEvent(tick=0, channel=2, data=[76, 100]),\n",
      "   midi.NoteOffEvent(tick=48, channel=2, data=[76, 64]),\n",
      "   midi.NoteOnEvent(tick=0, channel=2, data=[78, 100]),\n",
      "   midi.NoteOffEvent(tick=256, channel=2, data=[78, 64]),\n",
      "   midi.NoteOnEvent(tick=32, channel=2, data=[76, 100]),\n",
      "   midi.NoteOffEvent(tick=48, channel=2, data=[76, 64]),\n",
      "   midi.NoteOnEvent(tick=0, channel=2, data=[78, 100]),\n",
      "   midi.NoteOffEvent(tick=48, channel=2, data=[78, 64]),\n",
      "   midi.NoteOnEvent(tick=0, channel=2, data=[79, 100]),\n",
      "   midi.NoteOffEvent(tick=256, channel=2, data=[79, 64]),\n",
      "   midi.NoteOnEvent(tick=32, channel=2, data=[78, 100]),\n",
      "   midi.NoteOffEvent(tick=192, channel=2, data=[78, 64]),\n",
      "   midi.NoteOnEvent(tick=0, channel=2, data=[81, 100]),\n",
      "   midi.NoteOffEvent(tick=192, channel=2, data=[81, 64]),\n",
      "   midi.NoteOnEvent(tick=0, channel=2, data=[78, 100]),\n",
      "   midi.NoteOffEvent(tick=192, channel=2, data=[78, 64]),\n",
      "   midi.NoteOnEvent(tick=0, channel=2, data=[74, 100]),\n",
      "   midi.NoteOffEvent(tick=192, channel=2, data=[74, 64]),\n",
      "   midi.NoteOnEvent(tick=192, channel=2, data=[78, 100]),\n",
      "   midi.NoteOffEvent(tick=96, channel=2, data=[78, 64]),\n",
      "   midi.NoteOnEvent(tick=0, channel=2, data=[76, 100]),\n",
      "   midi.NoteOffEvent(tick=96, channel=2, data=[76, 64]),\n",
      "   midi.NoteOnEvent(tick=0, channel=2, data=[74, 100]),\n",
      "   midi.NoteOffEvent(tick=96, channel=2, data=[74, 64]),\n",
      "   midi.NoteOnEvent(tick=0, channel=2, data=[73, 100]),\n",
      "   midi.NoteOffEvent(tick=96, channel=2, data=[73, 64]),\n",
      "   midi.NoteOnEvent(tick=0, channel=2, data=[71, 100]),\n",
      "   midi.NoteOffEvent(tick=96, channel=2, data=[71, 64]),\n",
      "   midi.NoteOnEvent(tick=0, channel=2, data=[69, 100]),\n",
      "   midi.NoteOffEvent(tick=96, channel=2, data=[69, 64]),\n",
      "   midi.NoteOnEvent(tick=0, channel=2, data=[71, 100]),\n",
      "   midi.NoteOffEvent(tick=192, channel=2, data=[71, 64]),\n",
      "   midi.NoteOnEvent(tick=0, channel=2, data=[83, 100]),\n",
      "   midi.NoteOffEvent(tick=96, channel=2, data=[83, 64]),\n",
      "   midi.NoteOnEvent(tick=0, channel=2, data=[81, 100]),\n",
      "   midi.NoteOffEvent(tick=96, channel=2, data=[81, 64]),\n",
      "   midi.NoteOnEvent(tick=0, channel=2, data=[83, 100]),\n",
      "   midi.NoteOffEvent(tick=96, channel=2, data=[83, 64]),\n",
      "   midi.NoteOnEvent(tick=0, channel=2, data=[81, 100]),\n",
      "   midi.NoteOffEvent(tick=96, channel=2, data=[81, 64]),\n",
      "   midi.NoteOnEvent(tick=0, channel=2, data=[80, 100]),\n",
      "   midi.NoteOffEvent(tick=96, channel=2, data=[80, 64]),\n",
      "   midi.NoteOnEvent(tick=0, channel=2, data=[78, 100]),\n",
      "   midi.NoteOffEvent(tick=96, channel=2, data=[78, 64]),\n",
      "   midi.NoteOnEvent(tick=0, channel=2, data=[76, 100]),\n",
      "   midi.NoteOffEvent(tick=96, channel=2, data=[76, 64]),\n",
      "   midi.NoteOnEvent(tick=0, channel=2, data=[78, 100]),\n",
      "   midi.NoteOffEvent(tick=96, channel=2, data=[78, 64]),\n",
      "   midi.NoteOnEvent(tick=0, channel=2, data=[76, 100]),\n",
      "   midi.NoteOffEvent(tick=96, channel=2, data=[76, 64]),\n",
      "   midi.NoteOnEvent(tick=0, channel=2, data=[74, 100]),\n",
      "   midi.NoteOffEvent(tick=96, channel=2, data=[74, 64]),\n",
      "   midi.NoteOnEvent(tick=0, channel=2, data=[73, 100]),\n",
      "   midi.NoteOffEvent(tick=96, channel=2, data=[73, 64]),\n",
      "   midi.NoteOnEvent(tick=0, channel=2, data=[71, 100]),\n",
      "   midi.NoteOffEvent(tick=96, channel=2, data=[71, 64]),\n",
      "   midi.NoteOnEvent(tick=0, channel=2, data=[69, 100]),\n",
      "   midi.NoteOffEvent(tick=96, channel=2, data=[69, 64]),\n",
      "   midi.NoteOnEvent(tick=0, channel=2, data=[68, 100]),\n",
      "   midi.NoteOffEvent(tick=96, channel=2, data=[68, 64]),\n",
      "   midi.NoteOnEvent(tick=0, channel=2, data=[69, 100]),\n",
      "   midi.NoteOffEvent(tick=192, channel=2, data=[69, 64]),\n",
      "   midi.NoteOnEvent(tick=0, channel=2, data=[81, 100]),\n",
      "   midi.NoteOffEvent(tick=96, channel=2, data=[81, 64]),\n",
      "   midi.NoteOnEvent(tick=0, channel=2, data=[80, 100]),\n",
      "   midi.NoteOffEvent(tick=96, channel=2, data=[80, 64]),\n",
      "   midi.NoteOnEvent(tick=0, channel=2, data=[81, 100]),\n",
      "   midi.NoteOffEvent(tick=96, channel=2, data=[81, 64]),\n",
      "   midi.NoteOnEvent(tick=0, channel=2, data=[80, 100]),\n",
      "   midi.NoteOffEvent(tick=96, channel=2, data=[80, 64]),\n",
      "   midi.NoteOnEvent(tick=0, channel=2, data=[78, 100]),\n",
      "   midi.NoteOffEvent(tick=96, channel=2, data=[78, 64]),\n",
      "   midi.NoteOnEvent(tick=0, channel=2, data=[76, 100]),\n",
      "   midi.NoteOffEvent(tick=96, channel=2, data=[76, 64]),\n",
      "   midi.NoteOnEvent(tick=0, channel=2, data=[74, 100]),\n",
      "   midi.NoteOffEvent(tick=96, channel=2, data=[74, 64]),\n",
      "   midi.NoteOnEvent(tick=0, channel=2, data=[73, 100]),\n",
      "   midi.NoteOffEvent(tick=96, channel=2, data=[73, 64]),\n",
      "   midi.NoteOnEvent(tick=0, channel=2, data=[74, 100]),\n",
      "   midi.NoteOffEvent(tick=96, channel=2, data=[74, 64]),\n",
      "   midi.NoteOnEvent(tick=0, channel=2, data=[76, 100]),\n",
      "   midi.NoteOffEvent(tick=96, channel=2, data=[76, 64]),\n",
      "   midi.NoteOnEvent(tick=0, channel=2, data=[74, 100]),\n",
      "   midi.NoteOffEvent(tick=96, channel=2, data=[74, 64]),\n",
      "   midi.NoteOnEvent(tick=0, channel=2, data=[73, 100]),\n",
      "   midi.NoteOffEvent(tick=96, channel=2, data=[73, 64]),\n",
      "   midi.NoteOnEvent(tick=0, channel=2, data=[71, 100]),\n",
      "   midi.NoteOffEvent(tick=96, channel=2, data=[71, 64]),\n",
      "   midi.NoteOnEvent(tick=0, channel=2, data=[69, 100]),\n",
      "   midi.NoteOffEvent(tick=96, channel=2, data=[69, 64]),\n",
      "   midi.NoteOnEvent(tick=0, channel=2, data=[76, 100]),\n",
      "   midi.NoteOffEvent(tick=896, channel=2, data=[76, 64]),\n",
      "   midi.NoteOnEvent(tick=64, channel=2, data=[74, 100]),\n",
      "   midi.NoteOffEvent(tick=96, channel=2, data=[74, 64]),\n",
      "   midi.NoteOnEvent(tick=0, channel=2, data=[73, 100]),\n",
      "   midi.NoteOffEvent(tick=96, channel=2, data=[73, 64]),\n",
      "   midi.NoteOnEvent(tick=0, channel=2, data=[74, 100]),\n",
      "   midi.NoteOffEvent(tick=96, channel=2, data=[74, 64]),\n",
      "   midi.NoteOnEvent(tick=0, channel=2, data=[73, 100]),\n",
      "   midi.NoteOffEvent(tick=96, channel=2, data=[73, 64]),\n",
      "   midi.NoteOnEvent(tick=0, channel=2, data=[71, 100]),\n",
      "   midi.NoteOffEvent(tick=96, channel=2, data=[71, 64]),\n",
      "   midi.NoteOnEvent(tick=0, channel=2, data=[73, 100]),\n",
      "   midi.NoteOffEvent(tick=96, channel=2, data=[73, 64]),\n",
      "   midi.NoteOnEvent(tick=0, channel=2, data=[69, 100]),\n",
      "   midi.NoteOffEvent(tick=768, channel=2, data=[69, 64]),\n",
      "   midi.EndOfTrackEvent(tick=0, data=[])]),\n",
      " midi.Track(\\\n",
      "  [midi.TrackNameEvent(tick=0, text='Flauto transverso II', data=[70, 108, 97, 117, 116, 111, 32, 116, 114, 97, 110, 115, 118, 101, 114, 115, 111, 32, 73, 73]),\n",
      "   midi.ControlChangeEvent(tick=0, channel=2, data=[0, 0]),\n",
      "   midi.ProgramChangeEvent(tick=0, channel=2, data=[73]),\n",
      "   midi.ControlChangeEvent(tick=0, channel=2, data=[7, 100]),\n",
      "   midi.ControlChangeEvent(tick=0, channel=2, data=[10, 62]),\n",
      "   midi.ControlChangeEvent(tick=0, channel=2, data=[91, 127]),\n",
      "   midi.ControlChangeEvent(tick=0, channel=2, data=[93, 127]),\n",
      "   midi.KeySignatureEvent(tick=0, data=[2, 0]),\n",
      "   midi.NoteOnEvent(tick=2112, channel=2, data=[69, 100]),\n",
      "   midi.NoteOffEvent(tick=192, channel=2, data=[69, 64]),\n",
      "   midi.NoteOnEvent(tick=0, channel=2, data=[74, 100]),\n",
      "   midi.NoteOffEvent(tick=48, channel=2, data=[74, 64]),\n",
      "   midi.NoteOnEvent(tick=0, channel=2, data=[76, 100]),\n",
      "   midi.NoteOffEvent(tick=48, channel=2, data=[76, 64]),\n",
      "   midi.NoteOnEvent(tick=0, channel=2, data=[78, 100]),\n",
      "   midi.NoteOffEvent(tick=256, channel=2, data=[78, 64]),\n",
      "   midi.NoteOnEvent(tick=32, channel=2, data=[76, 100]),\n",
      "   midi.NoteOffEvent(tick=48, channel=2, data=[76, 64]),\n",
      "   midi.NoteOnEvent(tick=0, channel=2, data=[78, 100]),\n",
      "   midi.NoteOffEvent(tick=48, channel=2, data=[78, 64]),\n",
      "   midi.NoteOnEvent(tick=0, channel=2, data=[79, 100]),\n",
      "   midi.NoteOffEvent(tick=256, channel=2, data=[79, 64]),\n",
      "   midi.NoteOnEvent(tick=32, channel=2, data=[78, 100]),\n",
      "   midi.NoteOffEvent(tick=192, channel=2, data=[78, 64]),\n",
      "   midi.NoteOnEvent(tick=0, channel=2, data=[81, 100]),\n",
      "   midi.NoteOffEvent(tick=192, channel=2, data=[81, 64]),\n",
      "   midi.NoteOnEvent(tick=0, channel=2, data=[78, 100]),\n",
      "   midi.NoteOffEvent(tick=192, channel=2, data=[78, 64]),\n",
      "   midi.NoteOnEvent(tick=0, channel=2, data=[74, 100]),\n",
      "   midi.NoteOffEvent(tick=192, channel=2, data=[74, 64]),\n",
      "   midi.NoteOnEvent(tick=1344, channel=2, data=[69, 100]),\n",
      "   midi.NoteOffEvent(tick=192, channel=2, data=[69, 64]),\n",
      "   midi.NoteOnEvent(tick=0, channel=2, data=[74, 100]),\n",
      "   midi.NoteOffEvent(tick=48, channel=2, data=[74, 64]),\n",
      "   midi.NoteOnEvent(tick=0, channel=2, data=[76, 100]),\n",
      "   midi.NoteOffEvent(tick=48, channel=2, data=[76, 64]),\n",
      "   midi.NoteOnEvent(tick=0, channel=2, data=[78, 100]),\n",
      "   midi.NoteOffEvent(tick=256, channel=2, data=[78, 64]),\n",
      "   midi.NoteOnEvent(tick=32, channel=2, data=[76, 100]),\n",
      "   midi.NoteOffEvent(tick=48, channel=2, data=[76, 64]),\n",
      "   midi.NoteOnEvent(tick=0, channel=2, data=[78, 100]),\n",
      "   midi.NoteOffEvent(tick=48, channel=2, data=[78, 64]),\n",
      "   midi.NoteOnEvent(tick=0, channel=2, data=[79, 100]),\n",
      "   midi.NoteOffEvent(tick=256, channel=2, data=[79, 64]),\n",
      "   midi.NoteOnEvent(tick=32, channel=2, data=[78, 100]),\n",
      "   midi.NoteOffEvent(tick=192, channel=2, data=[78, 64]),\n",
      "   midi.NoteOnEvent(tick=0, channel=2, data=[81, 100]),\n",
      "   midi.NoteOffEvent(tick=192, channel=2, data=[81, 64]),\n",
      "   midi.NoteOnEvent(tick=0, channel=2, data=[78, 100]),\n",
      "   midi.NoteOffEvent(tick=192, channel=2, data=[78, 64]),\n",
      "   midi.NoteOnEvent(tick=0, channel=2, data=[74, 100]),\n",
      "   midi.NoteOffEvent(tick=192, channel=2, data=[74, 64]),\n",
      "   midi.NoteOnEvent(tick=192, channel=2, data=[78, 100]),\n",
      "   midi.NoteOffEvent(tick=96, channel=2, data=[78, 64]),\n",
      "   midi.NoteOnEvent(tick=0, channel=2, data=[76, 100]),\n",
      "   midi.NoteOffEvent(tick=96, channel=2, data=[76, 64]),\n",
      "   midi.NoteOnEvent(tick=0, channel=2, data=[74, 100]),\n",
      "   midi.NoteOffEvent(tick=96, channel=2, data=[74, 64]),\n",
      "   midi.NoteOnEvent(tick=0, channel=2, data=[73, 100]),\n",
      "   midi.NoteOffEvent(tick=96, channel=2, data=[73, 64]),\n",
      "   midi.NoteOnEvent(tick=0, channel=2, data=[71, 100]),\n",
      "   midi.NoteOffEvent(tick=96, channel=2, data=[71, 64]),\n",
      "   midi.NoteOnEvent(tick=0, channel=2, data=[69, 100]),\n",
      "   midi.NoteOffEvent(tick=96, channel=2, data=[69, 64]),\n",
      "   midi.NoteOnEvent(tick=0, channel=2, data=[71, 100]),\n",
      "   midi.NoteOffEvent(tick=192, channel=2, data=[71, 64]),\n",
      "   midi.NoteOnEvent(tick=0, channel=2, data=[83, 100]),\n",
      "   midi.NoteOffEvent(tick=96, channel=2, data=[83, 64]),\n",
      "   midi.NoteOnEvent(tick=0, channel=2, data=[81, 100]),\n",
      "   midi.NoteOffEvent(tick=96, channel=2, data=[81, 64]),\n",
      "   midi.NoteOnEvent(tick=0, channel=2, data=[83, 100]),\n",
      "   midi.NoteOffEvent(tick=96, channel=2, data=[83, 64]),\n",
      "   midi.NoteOnEvent(tick=0, channel=2, data=[81, 100]),\n",
      "   midi.NoteOffEvent(tick=96, channel=2, data=[81, 64]),\n",
      "   midi.NoteOnEvent(tick=0, channel=2, data=[80, 100]),\n",
      "   midi.NoteOffEvent(tick=96, channel=2, data=[80, 64]),\n",
      "   midi.NoteOnEvent(tick=0, channel=2, data=[78, 100]),\n",
      "   midi.NoteOffEvent(tick=96, channel=2, data=[78, 64]),\n",
      "   midi.NoteOnEvent(tick=0, channel=2, data=[76, 100]),\n",
      "   midi.NoteOffEvent(tick=96, channel=2, data=[76, 64]),\n",
      "   midi.NoteOnEvent(tick=0, channel=2, data=[78, 100]),\n",
      "   midi.NoteOffEvent(tick=96, channel=2, data=[78, 64]),\n",
      "   midi.NoteOnEvent(tick=0, channel=2, data=[76, 100]),\n",
      "   midi.NoteOffEvent(tick=96, channel=2, data=[76, 64]),\n",
      "   midi.NoteOnEvent(tick=0, channel=2, data=[74, 100]),\n",
      "   midi.NoteOffEvent(tick=96, channel=2, data=[74, 64]),\n",
      "   midi.NoteOnEvent(tick=0, channel=2, data=[73, 100]),\n",
      "   midi.NoteOffEvent(tick=96, channel=2, data=[73, 64]),\n",
      "   midi.NoteOnEvent(tick=0, channel=2, data=[71, 100]),\n",
      "   midi.NoteOffEvent(tick=96, channel=2, data=[71, 64]),\n",
      "   midi.NoteOnEvent(tick=0, channel=2, data=[69, 100]),\n",
      "   midi.NoteOffEvent(tick=96, channel=2, data=[69, 64]),\n",
      "   midi.NoteOnEvent(tick=0, channel=2, data=[68, 100]),\n",
      "   midi.NoteOffEvent(tick=96, channel=2, data=[68, 64]),\n",
      "   midi.NoteOnEvent(tick=0, channel=2, data=[69, 100]),\n",
      "   midi.NoteOffEvent(tick=192, channel=2, data=[69, 64]),\n",
      "   midi.NoteOnEvent(tick=0, channel=2, data=[81, 100]),\n",
      "   midi.NoteOffEvent(tick=96, channel=2, data=[81, 64]),\n",
      "   midi.NoteOnEvent(tick=0, channel=2, data=[80, 100]),\n",
      "   midi.NoteOffEvent(tick=96, channel=2, data=[80, 64]),\n",
      "   midi.NoteOnEvent(tick=0, channel=2, data=[81, 100]),\n",
      "   midi.NoteOffEvent(tick=96, channel=2, data=[81, 64]),\n",
      "   midi.NoteOnEvent(tick=0, channel=2, data=[80, 100]),\n",
      "   midi.NoteOffEvent(tick=96, channel=2, data=[80, 64]),\n",
      "   midi.NoteOnEvent(tick=0, channel=2, data=[78, 100]),\n",
      "   midi.NoteOffEvent(tick=96, channel=2, data=[78, 64]),\n",
      "   midi.NoteOnEvent(tick=0, channel=2, data=[76, 100]),\n",
      "   midi.NoteOffEvent(tick=96, channel=2, data=[76, 64]),\n",
      "   midi.NoteOnEvent(tick=0, channel=2, data=[74, 100]),\n",
      "   midi.NoteOffEvent(tick=96, channel=2, data=[74, 64]),\n",
      "   midi.NoteOnEvent(tick=0, channel=2, data=[73, 100]),\n",
      "   midi.NoteOffEvent(tick=96, channel=2, data=[73, 64]),\n",
      "   midi.NoteOnEvent(tick=0, channel=2, data=[74, 100]),\n",
      "   midi.NoteOffEvent(tick=96, channel=2, data=[74, 64]),\n",
      "   midi.NoteOnEvent(tick=0, channel=2, data=[76, 100]),\n",
      "   midi.NoteOffEvent(tick=96, channel=2, data=[76, 64]),\n",
      "   midi.NoteOnEvent(tick=0, channel=2, data=[74, 100]),\n",
      "   midi.NoteOffEvent(tick=96, channel=2, data=[74, 64]),\n",
      "   midi.NoteOnEvent(tick=0, channel=2, data=[73, 100]),\n",
      "   midi.NoteOffEvent(tick=96, channel=2, data=[73, 64]),\n",
      "   midi.NoteOnEvent(tick=0, channel=2, data=[71, 100]),\n",
      "   midi.NoteOffEvent(tick=96, channel=2, data=[71, 64]),\n",
      "   midi.NoteOnEvent(tick=0, channel=2, data=[69, 100]),\n",
      "   midi.NoteOffEvent(tick=96, channel=2, data=[69, 64]),\n",
      "   midi.NoteOnEvent(tick=0, channel=2, data=[76, 100]),\n",
      "   midi.NoteOffEvent(tick=896, channel=2, data=[76, 64]),\n",
      "   midi.NoteOnEvent(tick=64, channel=2, data=[74, 100]),\n",
      "   midi.NoteOffEvent(tick=96, channel=2, data=[74, 64]),\n",
      "   midi.NoteOnEvent(tick=0, channel=2, data=[73, 100]),\n",
      "   midi.NoteOffEvent(tick=96, channel=2, data=[73, 64]),\n",
      "   midi.NoteOnEvent(tick=0, channel=2, data=[74, 100]),\n",
      "   midi.NoteOffEvent(tick=96, channel=2, data=[74, 64]),\n",
      "   midi.NoteOnEvent(tick=0, channel=2, data=[73, 100]),\n",
      "   midi.NoteOffEvent(tick=96, channel=2, data=[73, 64]),\n",
      "   midi.NoteOnEvent(tick=0, channel=2, data=[71, 100]),\n",
      "   midi.NoteOffEvent(tick=96, channel=2, data=[71, 64]),\n",
      "   midi.NoteOnEvent(tick=0, channel=2, data=[73, 100]),\n",
      "   midi.NoteOffEvent(tick=96, channel=2, data=[73, 64]),\n",
      "   midi.NoteOnEvent(tick=0, channel=2, data=[69, 100]),\n",
      "   midi.NoteOffEvent(tick=192, channel=2, data=[69, 64]),\n",
      "   midi.NoteOnEvent(tick=0, channel=2, data=[85, 100]),\n",
      "   midi.NoteOffEvent(tick=192, channel=2, data=[85, 64]),\n",
      "   midi.NoteOnEvent(tick=0, channel=2, data=[81, 100]),\n",
      "   midi.NoteOffEvent(tick=192, channel=2, data=[81, 64]),\n",
      "   midi.NoteOnEvent(tick=0, channel=2, data=[76, 100]),\n",
      "   midi.NoteOffEvent(tick=192, channel=2, data=[76, 64]),\n",
      "   midi.NoteOnEvent(tick=192, channel=2, data=[73, 100]),\n",
      "   midi.NoteOffEvent(tick=192, channel=2, data=[73, 64]),\n",
      "   midi.NoteOnEvent(tick=0, channel=2, data=[69, 100]),\n",
      "   midi.NoteOffEvent(tick=192, channel=2, data=[69, 64]),\n",
      "   midi.NoteOnEvent(tick=0, channel=2, data=[64, 100]),\n",
      "   midi.NoteOffEvent(tick=192, channel=2, data=[64, 64]),\n",
      "   midi.NoteOnEvent(tick=192, channel=2, data=[79, 100]),\n",
      "   midi.NoteOffEvent(tick=96, channel=2, data=[79, 64]),\n",
      "   midi.NoteOnEvent(tick=0, channel=2, data=[78, 100]),\n",
      "   midi.NoteOffEvent(tick=96, channel=2, data=[78, 64]),\n",
      "   midi.NoteOnEvent(tick=0, channel=2, data=[76, 100]),\n",
      "   midi.NoteOffEvent(tick=96, channel=2, data=[76, 64]),\n",
      "   midi.NoteOnEvent(tick=0, channel=2, data=[74, 100]),\n",
      "   midi.NoteOffEvent(tick=96, channel=2, data=[74, 64]),\n",
      "   midi.NoteOnEvent(tick=0, channel=2, data=[73, 100]),\n",
      "   midi.NoteOffEvent(tick=96, channel=2, data=[73, 64]),\n",
      "   midi.NoteOnEvent(tick=0, channel=2, data=[71, 100]),\n",
      "   midi.NoteOffEvent(tick=96, channel=2, data=[71, 64]),\n",
      "   midi.NoteOnEvent(tick=0, channel=2, data=[70, 100]),\n",
      "   midi.NoteOffEvent(tick=192, channel=2, data=[70, 64]),\n",
      "   midi.NoteOnEvent(tick=0, channel=2, data=[78, 100]),\n",
      "   midi.NoteOffEvent(tick=256, channel=2, data=[78, 64]),\n",
      "   midi.NoteOnEvent(tick=32, channel=2, data=[76, 100]),\n",
      "   midi.NoteOffEvent(tick=96, channel=2, data=[76, 64]),\n",
      "   midi.NoteOnEvent(tick=0, channel=2, data=[74, 100]),\n",
      "   midi.NoteOffEvent(tick=96, channel=2, data=[74, 64]),\n",
      "   midi.NoteOnEvent(tick=0, channel=2, data=[73, 100]),\n",
      "   midi.NoteOffEvent(tick=96, channel=2, data=[73, 64]),\n",
      "   midi.NoteOnEvent(tick=0, channel=2, data=[74, 100]),\n",
      "   midi.NoteOffEvent(tick=192, channel=2, data=[74, 64]),\n",
      "   midi.NoteOnEvent(tick=0, channel=2, data=[78, 100]),\n",
      "   midi.NoteOffEvent(tick=192, channel=2, data=[78, 64]),\n",
      "   midi.NoteOnEvent(tick=0, channel=2, data=[74, 100]),\n",
      "   midi.NoteOffEvent(tick=192, channel=2, data=[74, 64]),\n",
      "   midi.NoteOnEvent(tick=0, channel=2, data=[71, 100]),\n",
      "   midi.NoteOffEvent(tick=192, channel=2, data=[71, 64]),\n",
      "   midi.NoteOnEvent(tick=0, channel=2, data=[74, 100]),\n",
      "   midi.NoteOffEvent(tick=96, channel=2, data=[74, 64]),\n",
      "   midi.NoteOnEvent(tick=0, channel=2, data=[76, 100]),\n",
      "   midi.NoteOffEvent(tick=96, channel=2, data=[76, 64]),\n",
      "   midi.NoteOnEvent(tick=0, channel=2, data=[78, 100]),\n",
      "   midi.NoteOffEvent(tick=96, channel=2, data=[78, 64]),\n",
      "   midi.NoteOnEvent(tick=96, channel=2, data=[78, 100]),\n",
      "   midi.NoteOffEvent(tick=96, channel=2, data=[78, 64]),\n",
      "   midi.NoteOnEvent(tick=96, channel=2, data=[78, 100]),\n",
      "   midi.NoteOffEvent(tick=96, channel=2, data=[78, 64]),\n",
      "   midi.NoteOnEvent(tick=96, channel=2, data=[78, 100]),\n",
      "   midi.NoteOffEvent(tick=864, channel=2, data=[78, 64]),\n",
      "   midi.NoteOnEvent(tick=0, channel=2, data=[84, 100]),\n",
      "   midi.NoteOffEvent(tick=96, channel=2, data=[84, 64]),\n",
      "   midi.NoteOnEvent(tick=0, channel=2, data=[83, 100]),\n",
      "   midi.NoteOffEvent(tick=96, channel=2, data=[83, 64]),\n",
      "   midi.NoteOnEvent(tick=0, channel=2, data=[81, 100]),\n",
      "   midi.NoteOffEvent(tick=96, channel=2, data=[81, 64]),\n",
      "   midi.NoteOnEvent(tick=0, channel=2, data=[83, 100]),\n",
      "   midi.NoteOffEvent(tick=96, channel=2, data=[83, 64]),\n",
      "   midi.NoteOnEvent(tick=0, channel=2, data=[81, 100]),\n",
      "   midi.NoteOffEvent(tick=96, channel=2, data=[81, 64]),\n",
      "   midi.NoteOnEvent(tick=0, channel=2, data=[79, 100]),\n",
      "   midi.NoteOffEvent(tick=96, channel=2, data=[79, 64]),\n",
      "   midi.NoteOnEvent(tick=0, channel=2, data=[78, 100]),\n",
      "   midi.NoteOffEvent(tick=96, channel=2, data=[78, 64]),\n",
      "   midi.NoteOnEvent(tick=0, channel=2, data=[79, 100]),\n",
      "   midi.NoteOffEvent(tick=96, channel=2, data=[79, 64]),\n",
      "   midi.NoteOnEvent(tick=0, channel=2, data=[81, 100]),\n",
      "   midi.NoteOffEvent(tick=96, channel=2, data=[81, 64]),\n",
      "   midi.NoteOnEvent(tick=0, channel=2, data=[79, 100]),\n",
      "   midi.NoteOffEvent(tick=96, channel=2, data=[79, 64]),\n",
      "   midi.NoteOnEvent(tick=0, channel=2, data=[78, 100]),\n",
      "   midi.NoteOffEvent(tick=96, channel=2, data=[78, 64]),\n",
      "   midi.NoteOnEvent(tick=0, channel=2, data=[76, 100]),\n",
      "   midi.NoteOffEvent(tick=96, channel=2, data=[76, 64]),\n",
      "   midi.NoteOnEvent(tick=0, channel=2, data=[78, 100]),\n",
      "   midi.NoteOffEvent(tick=96, channel=2, data=[78, 64]),\n",
      "   midi.NoteOnEvent(tick=0, channel=2, data=[79, 100]),\n",
      "   midi.NoteOffEvent(tick=96, channel=2, data=[79, 64]),\n",
      "   midi.NoteOnEvent(tick=0, channel=2, data=[81, 100]),\n",
      "   midi.NoteOffEvent(tick=96, channel=2, data=[81, 64]),\n",
      "   midi.NoteOnEvent(tick=0, channel=2, data=[83, 100]),\n",
      "   midi.NoteOffEvent(tick=96, channel=2, data=[83, 64]),\n",
      "   midi.NoteOnEvent(tick=0, channel=2, data=[84, 100]),\n",
      "   midi.NoteOffEvent(tick=96, channel=2, data=[84, 64]),\n",
      "   midi.NoteOnEvent(tick=0, channel=2, data=[83, 100]),\n",
      "   midi.NoteOffEvent(tick=96, channel=2, data=[83, 64]),\n",
      "   midi.NoteOnEvent(tick=96, channel=2, data=[83, 100]),\n",
      "   midi.NoteOffEvent(tick=96, channel=2, data=[83, 64]),\n",
      "   midi.NoteOnEvent(tick=96, channel=2, data=[83, 100]),\n",
      "   midi.NoteOffEvent(tick=96, channel=2, data=[83, 64]),\n",
      "   midi.NoteOnEvent(tick=96, channel=2, data=[83, 100]),\n",
      "   midi.NoteOffEvent(tick=192, channel=2, data=[83, 64]),\n",
      "   midi.NoteOnEvent(tick=0, channel=2, data=[88, 100]),\n",
      "   midi.NoteOffEvent(tick=96, channel=2, data=[88, 64]),\n",
      "   midi.NoteOnEvent(tick=0, channel=2, data=[86, 100]),\n",
      "   midi.NoteOffEvent(tick=96, channel=2, data=[86, 64]),\n",
      "   midi.NoteOnEvent(tick=0, channel=2, data=[88, 100]),\n",
      "   midi.NoteOffEvent(tick=96, channel=2, data=[88, 64]),\n",
      "   midi.NoteOnEvent(tick=0, channel=2, data=[86, 100]),\n",
      "   midi.NoteOffEvent(tick=96, channel=2, data=[86, 64]),\n",
      "   midi.NoteOnEvent(tick=0, channel=2, data=[85, 100]),\n",
      "   midi.NoteOffEvent(tick=96, channel=2, data=[85, 64]),\n",
      "   midi.NoteOnEvent(tick=0, channel=2, data=[83, 100]),\n",
      "   midi.NoteOffEvent(tick=96, channel=2, data=[83, 64]),\n",
      "   midi.NoteOnEvent(tick=0, channel=2, data=[81, 100]),\n",
      "   midi.NoteOffEvent(tick=96, channel=2, data=[81, 64]),\n",
      "   midi.NoteOnEvent(tick=0, channel=2, data=[83, 100]),\n",
      "   midi.NoteOffEvent(tick=96, channel=2, data=[83, 64]),\n",
      "   midi.NoteOnEvent(tick=0, channel=2, data=[81, 100]),\n",
      "   midi.NoteOffEvent(tick=96, channel=2, data=[81, 64]),\n",
      "   midi.NoteOnEvent(tick=96, channel=2, data=[81, 100]),\n",
      "   midi.NoteOffEvent(tick=96, channel=2, data=[81, 64]),\n",
      "   midi.NoteOnEvent(tick=96, channel=2, data=[81, 100]),\n",
      "   midi.NoteOffEvent(tick=96, channel=2, data=[81, 64]),\n",
      "   midi.NoteOnEvent(tick=96, channel=2, data=[81, 100]),\n",
      "   midi.NoteOffEvent(tick=192, channel=2, data=[81, 64]),\n",
      "   midi.NoteOnEvent(tick=0, channel=2, data=[86, 100]),\n",
      "   midi.NoteOffEvent(tick=96, channel=2, data=[86, 64]),\n",
      "   midi.NoteOnEvent(tick=0, channel=2, data=[85, 100]),\n",
      "   midi.NoteOffEvent(tick=96, channel=2, data=[85, 64]),\n",
      "   midi.NoteOnEvent(tick=0, channel=2, data=[86, 100]),\n",
      "   midi.NoteOffEvent(tick=96, channel=2, data=[86, 64]),\n",
      "   midi.NoteOnEvent(tick=0, channel=2, data=[85, 100]),\n",
      "   midi.NoteOffEvent(tick=96, channel=2, data=[85, 64]),\n",
      "   midi.NoteOnEvent(tick=0, channel=2, data=[83, 100]),\n",
      "   midi.NoteOffEvent(tick=96, channel=2, data=[83, 64]),\n",
      "   midi.NoteOnEvent(tick=0, channel=2, data=[81, 100]),\n",
      "   midi.NoteOffEvent(tick=96, channel=2, data=[81, 64]),\n",
      "   midi.NoteOnEvent(tick=0, channel=2, data=[79, 100]),\n",
      "   midi.NoteOffEvent(tick=96, channel=2, data=[79, 64]),\n",
      "   midi.NoteOnEvent(tick=0, channel=2, data=[81, 100]),\n",
      "   midi.NoteOffEvent(tick=96, channel=2, data=[81, 64]),\n",
      "   midi.NoteOnEvent(tick=0, channel=2, data=[79, 100]),\n",
      "   midi.NoteOffEvent(tick=96, channel=2, data=[79, 64]),\n",
      "   midi.NoteOnEvent(tick=0, channel=2, data=[78, 100]),\n",
      "   midi.NoteOffEvent(tick=96, channel=2, data=[78, 64]),\n",
      "   midi.NoteOnEvent(tick=0, channel=2, data=[76, 100]),\n",
      "   midi.NoteOffEvent(tick=96, channel=2, data=[76, 64]),\n",
      "   midi.NoteOnEvent(tick=0, channel=2, data=[74, 100]),\n",
      "   midi.NoteOffEvent(tick=96, channel=2, data=[74, 64]),\n",
      "   midi.NoteOnEvent(tick=0, channel=2, data=[73, 100]),\n",
      "   midi.NoteOffEvent(tick=96, channel=2, data=[73, 64]),\n",
      "   midi.NoteOnEvent(tick=0, channel=2, data=[71, 100]),\n",
      "   midi.NoteOffEvent(tick=96, channel=2, data=[71, 64]),\n",
      "   midi.NoteOnEvent(tick=0, channel=2, data=[73, 100]),\n",
      "   midi.NoteOffEvent(tick=96, channel=2, data=[73, 64]),\n",
      "   midi.NoteOnEvent(tick=0, channel=2, data=[71, 100]),\n",
      "   midi.NoteOffEvent(tick=96, channel=2, data=[71, 64]),\n",
      "   midi.NoteOnEvent(tick=0, channel=2, data=[73, 100]),\n",
      "   midi.NoteOffEvent(tick=96, channel=2, data=[73, 64]),\n",
      "   midi.NoteOnEvent(tick=0, channel=2, data=[74, 100]),\n",
      "   midi.NoteOffEvent(tick=96, channel=2, data=[74, 64]),\n",
      "   midi.NoteOnEvent(tick=0, channel=2, data=[76, 100]),\n",
      "   midi.NoteOffEvent(tick=96, channel=2, data=[76, 64]),\n",
      "   midi.NoteOnEvent(tick=0, channel=2, data=[79, 100]),\n",
      "   midi.NoteOffEvent(tick=96, channel=2, data=[79, 64]),\n",
      "   midi.NoteOnEvent(tick=0, channel=2, data=[78, 100]),\n",
      "   midi.NoteOffEvent(tick=96, channel=2, data=[78, 64]),\n",
      "   midi.NoteOnEvent(tick=0, channel=2, data=[76, 100]),\n",
      "   midi.NoteOffEvent(tick=96, channel=2, data=[76, 64]),\n",
      "   midi.NoteOnEvent(tick=0, channel=2, data=[78, 100]),\n",
      "   midi.NoteOffEvent(tick=96, channel=2, data=[78, 64]),\n",
      "   midi.NoteOnEvent(tick=0, channel=2, data=[81, 100]),\n",
      "   midi.NoteOffEvent(tick=96, channel=2, data=[81, 64]),\n",
      "   midi.NoteOnEvent(tick=0, channel=2, data=[79, 100]),\n",
      "   midi.NoteOffEvent(tick=96, channel=2, data=[79, 64]),\n",
      "   midi.NoteOnEvent(tick=0, channel=2, data=[78, 100]),\n",
      "   midi.NoteOffEvent(tick=96, channel=2, data=[78, 64]),\n",
      "   midi.NoteOnEvent(tick=0, channel=2, data=[79, 100]),\n",
      "   midi.NoteOffEvent(tick=96, channel=2, data=[79, 64]),\n",
      "   midi.NoteOnEvent(tick=0, channel=2, data=[78, 100]),\n",
      "   midi.NoteOffEvent(tick=96, channel=2, data=[78, 64]),\n",
      "   midi.NoteOnEvent(tick=0, channel=2, data=[76, 100]),\n",
      "   midi.NoteOffEvent(tick=96, channel=2, data=[76, 64]),\n",
      "   midi.NoteOnEvent(tick=0, channel=2, data=[78, 100]),\n",
      "   midi.NoteOffEvent(tick=96, channel=2, data=[78, 64]),\n",
      "   midi.NoteOnEvent(tick=0, channel=2, data=[74, 100]),\n",
      "   midi.NoteOffEvent(tick=384, channel=2, data=[74, 64]),\n",
      "   midi.NoteOnEvent(tick=96, channel=2, data=[69, 100]),\n",
      "   midi.NoteOffEvent(tick=96, channel=2, data=[69, 64]),\n",
      "   midi.NoteOnEvent(tick=0, channel=2, data=[71, 100]),\n",
      "   midi.NoteOffEvent(tick=96, channel=2, data=[71, 64]),\n",
      "   midi.NoteOnEvent(tick=0, channel=2, data=[73, 100]),\n",
      "   midi.NoteOffEvent(tick=96, channel=2, data=[73, 64]),\n",
      "   midi.NoteOnEvent(tick=0, channel=2, data=[74, 100]),\n",
      "   midi.NoteOffEvent(tick=96, channel=2, data=[74, 64]),\n",
      "   midi.NoteOnEvent(tick=0, channel=2, data=[76, 100]),\n",
      "   midi.NoteOffEvent(tick=96, channel=2, data=[76, 64]),\n",
      "   midi.NoteOnEvent(tick=0, channel=2, data=[78, 100]),\n",
      "   midi.NoteOffEvent(tick=96, channel=2, data=[78, 64]),\n",
      "   midi.NoteOnEvent(tick=96, channel=2, data=[78, 100]),\n",
      "   midi.NoteOffEvent(tick=96, channel=2, data=[78, 64]),\n",
      "   midi.NoteOnEvent(tick=96, channel=2, data=[78, 100]),\n",
      "   midi.NoteOffEvent(tick=96, channel=2, data=[78, 64]),\n",
      "   midi.NoteOnEvent(tick=96, channel=2, data=[78, 100]),\n",
      "   midi.NoteOffEvent(tick=192, channel=2, data=[78, 64]),\n",
      "   midi.NoteOnEvent(tick=2112, channel=2, data=[79, 100]),\n",
      "   midi.NoteOffEvent(tick=864, channel=2, data=[79, 64]),\n",
      "   midi.NoteOnEvent(tick=0, channel=2, data=[78, 100]),\n",
      "   midi.NoteOffEvent(tick=96, channel=2, data=[78, 64]),\n",
      "   midi.NoteOnEvent(tick=0, channel=2, data=[76, 100]),\n",
      "   midi.NoteOffEvent(tick=96, channel=2, data=[76, 64]),\n",
      "   midi.NoteOnEvent(tick=0, channel=2, data=[74, 100]),\n",
      "   midi.NoteOffEvent(tick=96, channel=2, data=[74, 64]),\n",
      "   midi.NoteOnEvent(tick=0, channel=2, data=[73, 100]),\n",
      "   midi.NoteOffEvent(tick=96, channel=2, data=[73, 64]),\n",
      "   midi.NoteOnEvent(tick=0, channel=2, data=[71, 100]),\n",
      "   midi.NoteOffEvent(tick=96, channel=2, data=[71, 64]),\n",
      "   midi.NoteOnEvent(tick=0, channel=2, data=[73, 100]),\n",
      "   midi.NoteOffEvent(tick=96, channel=2, data=[73, 64]),\n",
      "   midi.NoteOnEvent(tick=0, channel=2, data=[69, 100]),\n",
      "   midi.NoteOffEvent(tick=96, channel=2, data=[69, 64]),\n",
      "   midi.NoteOnEvent(tick=0, channel=2, data=[74, 100]),\n",
      "   midi.NoteOffEvent(tick=48, channel=2, data=[74, 64]),\n",
      "   midi.NoteOnEvent(tick=0, channel=2, data=[76, 100]),\n",
      "   midi.NoteOffEvent(tick=48, channel=2, data=[76, 64]),\n",
      "   midi.NoteOnEvent(tick=0, channel=2, data=[78, 100]),\n",
      "   midi.NoteOffEvent(tick=256, channel=2, data=[78, 64]),\n",
      "   midi.NoteOnEvent(tick=32, channel=2, data=[76, 100]),\n",
      "   midi.NoteOffEvent(tick=48, channel=2, data=[76, 64]),\n",
      "   midi.NoteOnEvent(tick=0, channel=2, data=[78, 100]),\n",
      "   midi.NoteOffEvent(tick=48, channel=2, data=[78, 64]),\n",
      "   midi.NoteOnEvent(tick=0, channel=2, data=[79, 100]),\n",
      "   midi.NoteOffEvent(tick=256, channel=2, data=[79, 64]),\n",
      "   midi.NoteOnEvent(tick=32, channel=2, data=[78, 100]),\n",
      "   midi.NoteOffEvent(tick=192, channel=2, data=[78, 64]),\n",
      "   midi.NoteOnEvent(tick=0, channel=2, data=[76, 100]),\n",
      "   midi.NoteOffEvent(tick=192, channel=2, data=[76, 64]),\n",
      "   midi.NoteOnEvent(tick=0, channel=2, data=[74, 100]),\n",
      "   midi.NoteOffEvent(tick=384, channel=2, data=[74, 64]),\n",
      "   midi.NoteOnEvent(tick=1344, channel=2, data=[69, 100]),\n",
      "   midi.NoteOffEvent(tick=192, channel=2, data=[69, 64]),\n",
      "   midi.NoteOnEvent(tick=0, channel=2, data=[74, 100]),\n",
      "   midi.NoteOffEvent(tick=48, channel=2, data=[74, 64]),\n",
      "   midi.NoteOnEvent(tick=0, channel=2, data=[76, 100]),\n",
      "   midi.NoteOffEvent(tick=48, channel=2, data=[76, 64]),\n",
      "   midi.NoteOnEvent(tick=0, channel=2, data=[78, 100]),\n",
      "   midi.NoteOffEvent(tick=256, channel=2, data=[78, 64]),\n",
      "   midi.NoteOnEvent(tick=32, channel=2, data=[76, 100]),\n",
      "   midi.NoteOffEvent(tick=48, channel=2, data=[76, 64]),\n",
      "   midi.NoteOnEvent(tick=0, channel=2, data=[78, 100]),\n",
      "   midi.NoteOffEvent(tick=48, channel=2, data=[78, 64]),\n",
      "   midi.NoteOnEvent(tick=0, channel=2, data=[79, 100]),\n",
      "   midi.NoteOffEvent(tick=256, channel=2, data=[79, 64]),\n",
      "   midi.NoteOnEvent(tick=32, channel=2, data=[78, 100]),\n",
      "   midi.NoteOffEvent(tick=192, channel=2, data=[78, 64]),\n",
      "   midi.NoteOnEvent(tick=0, channel=2, data=[81, 100]),\n",
      "   midi.NoteOffEvent(tick=192, channel=2, data=[81, 64]),\n",
      "   midi.NoteOnEvent(tick=0, channel=2, data=[78, 100]),\n",
      "   midi.NoteOffEvent(tick=192, channel=2, data=[78, 64]),\n",
      "   midi.NoteOnEvent(tick=0, channel=2, data=[74, 100]),\n",
      "   midi.NoteOffEvent(tick=192, channel=2, data=[74, 64]),\n",
      "   midi.NoteOnEvent(tick=0, channel=2, data=[78, 100]),\n",
      "   midi.NoteOffEvent(tick=96, channel=2, data=[78, 64]),\n",
      "   midi.NoteOnEvent(tick=0, channel=2, data=[79, 100]),\n",
      "   midi.NoteOffEvent(tick=96, channel=2, data=[79, 64]),\n",
      "   midi.NoteOnEvent(tick=0, channel=2, data=[81, 100]),\n",
      "   midi.NoteOffEvent(tick=96, channel=2, data=[81, 64]),\n",
      "   midi.NoteOnEvent(tick=96, channel=2, data=[81, 100]),\n",
      "   midi.NoteOffEvent(tick=96, channel=2, data=[81, 64]),\n",
      "   midi.NoteOnEvent(tick=96, channel=2, data=[81, 100]),\n",
      "   midi.NoteOffEvent(tick=96, channel=2, data=[81, 64]),\n",
      "   midi.NoteOnEvent(tick=96, channel=2, data=[81, 100]),\n",
      "   midi.NoteOffEvent(tick=192, channel=2, data=[81, 64]),\n",
      "   midi.NoteOnEvent(tick=0, channel=2, data=[86, 100]),\n",
      "   midi.NoteOffEvent(tick=96, channel=2, data=[86, 64]),\n",
      "   midi.NoteOnEvent(tick=0, channel=2, data=[85, 100]),\n",
      "   midi.NoteOffEvent(tick=96, channel=2, data=[85, 64]),\n",
      "   midi.NoteOnEvent(tick=0, channel=2, data=[86, 100]),\n",
      "   midi.NoteOffEvent(tick=96, channel=2, data=[86, 64]),\n",
      "   midi.NoteOnEvent(tick=0, channel=2, data=[85, 100]),\n",
      "   midi.NoteOffEvent(tick=96, channel=2, data=[85, 64]),\n",
      "   midi.NoteOnEvent(tick=0, channel=2, data=[83, 100]),\n",
      "   midi.NoteOffEvent(tick=96, channel=2, data=[83, 64]),\n",
      "   midi.NoteOnEvent(tick=0, channel=2, data=[81, 100]),\n",
      "   midi.NoteOffEvent(tick=96, channel=2, data=[81, 64]),\n",
      "   midi.NoteOnEvent(tick=0, channel=2, data=[79, 100]),\n",
      "   midi.NoteOffEvent(tick=96, channel=2, data=[79, 64]),\n",
      "   midi.NoteOnEvent(tick=0, channel=2, data=[81, 100]),\n",
      "   midi.NoteOffEvent(tick=96, channel=2, data=[81, 64]),\n",
      "   midi.NoteOnEvent(tick=0, channel=2, data=[83, 100]),\n",
      "   midi.NoteOffEvent(tick=96, channel=2, data=[83, 64]),\n",
      "   midi.NoteOnEvent(tick=96, channel=2, data=[83, 100]),\n",
      "   midi.NoteOffEvent(tick=96, channel=2, data=[83, 64]),\n",
      "   midi.NoteOnEvent(tick=96, channel=2, data=[83, 100]),\n",
      "   midi.NoteOffEvent(tick=96, channel=2, data=[83, 64]),\n",
      "   midi.NoteOnEvent(tick=96, channel=2, data=[83, 100]),\n",
      "   midi.NoteOffEvent(tick=192, channel=2, data=[83, 64]),\n",
      "   midi.NoteOnEvent(tick=0, channel=2, data=[81, 100]),\n",
      "   midi.NoteOffEvent(tick=96, channel=2, data=[81, 64]),\n",
      "   midi.NoteOnEvent(tick=0, channel=2, data=[79, 100]),\n",
      "   midi.NoteOffEvent(tick=96, channel=2, data=[79, 64]),\n",
      "   midi.NoteOnEvent(tick=0, channel=2, data=[81, 100]),\n",
      "   midi.NoteOffEvent(tick=96, channel=2, data=[81, 64]),\n",
      "   midi.NoteOnEvent(tick=0, channel=2, data=[79, 100]),\n",
      "   midi.NoteOffEvent(tick=96, channel=2, data=[79, 64]),\n",
      "   midi.NoteOnEvent(tick=0, channel=2, data=[78, 100]),\n",
      "   midi.NoteOffEvent(tick=96, channel=2, data=[78, 64]),\n",
      "   midi.NoteOnEvent(tick=0, channel=2, data=[76, 100]),\n",
      "   midi.NoteOffEvent(tick=96, channel=2, data=[76, 64]),\n",
      "   midi.NoteOnEvent(tick=0, channel=2, data=[78, 100]),\n",
      "   midi.NoteOffEvent(tick=96, channel=2, data=[78, 64]),\n",
      "   midi.NoteOnEvent(tick=0, channel=2, data=[79, 100]),\n",
      "   midi.NoteOffEvent(tick=96, channel=2, data=[79, 64]),\n",
      "   midi.NoteOnEvent(tick=0, channel=2, data=[78, 100]),\n",
      "   midi.NoteOffEvent(tick=96, channel=2, data=[78, 64]),\n",
      "   midi.NoteOnEvent(tick=0, channel=2, data=[76, 100]),\n",
      "   midi.NoteOffEvent(tick=96, channel=2, data=[76, 64]),\n",
      "   midi.NoteOnEvent(tick=0, channel=2, data=[74, 100]),\n",
      "   midi.NoteOffEvent(tick=96, channel=2, data=[74, 64]),\n",
      "   midi.NoteOnEvent(tick=0, channel=2, data=[73, 100]),\n",
      "   midi.NoteOffEvent(tick=96, channel=2, data=[73, 64]),\n",
      "   midi.NoteOnEvent(tick=0, channel=2, data=[71, 100]),\n",
      "   midi.NoteOffEvent(tick=96, channel=2, data=[71, 64]),\n",
      "   midi.NoteOnEvent(tick=0, channel=2, data=[69, 100]),\n",
      "   midi.NoteOffEvent(tick=96, channel=2, data=[69, 64]),\n",
      "   midi.NoteOnEvent(tick=0, channel=2, data=[71, 100]),\n",
      "   midi.NoteOffEvent(tick=192, channel=2, data=[71, 64]),\n",
      "   midi.NoteOnEvent(tick=0, channel=2, data=[83, 100]),\n",
      "   midi.NoteOffEvent(tick=96, channel=2, data=[83, 64]),\n",
      "   midi.NoteOnEvent(tick=0, channel=2, data=[81, 100]),\n",
      "   midi.NoteOffEvent(tick=96, channel=2, data=[81, 64]),\n",
      "   midi.NoteOnEvent(tick=0, channel=2, data=[83, 100]),\n",
      "   midi.NoteOffEvent(tick=96, channel=2, data=[83, 64]),\n",
      "   midi.NoteOnEvent(tick=0, channel=2, data=[81, 100]),\n",
      "   midi.NoteOffEvent(tick=96, channel=2, data=[81, 64]),\n",
      "   midi.NoteOnEvent(tick=0, channel=2, data=[80, 100]),\n",
      "   midi.NoteOffEvent(tick=96, channel=2, data=[80, 64]),\n",
      "   midi.NoteOnEvent(tick=0, channel=2, data=[78, 100]),\n",
      "   midi.NoteOffEvent(tick=96, channel=2, data=[78, 64]),\n",
      "   midi.NoteOnEvent(tick=0, channel=2, data=[76, 100]),\n",
      "   midi.NoteOffEvent(tick=96, channel=2, data=[76, 64]),\n",
      "   midi.NoteOnEvent(tick=0, channel=2, data=[78, 100]),\n",
      "   midi.NoteOffEvent(tick=96, channel=2, data=[78, 64]),\n",
      "   midi.NoteOnEvent(tick=0, channel=2, data=[76, 100]),\n",
      "   midi.NoteOffEvent(tick=96, channel=2, data=[76, 64]),\n",
      "   midi.NoteOnEvent(tick=0, channel=2, data=[74, 100]),\n",
      "   midi.NoteOffEvent(tick=96, channel=2, data=[74, 64]),\n",
      "   midi.NoteOnEvent(tick=0, channel=2, data=[73, 100]),\n",
      "   midi.NoteOffEvent(tick=96, channel=2, data=[73, 64]),\n",
      "   midi.NoteOnEvent(tick=0, channel=2, data=[71, 100]),\n",
      "   midi.NoteOffEvent(tick=96, channel=2, data=[71, 64]),\n",
      "   midi.NoteOnEvent(tick=0, channel=2, data=[69, 100]),\n",
      "   midi.NoteOffEvent(tick=96, channel=2, data=[69, 64]),\n",
      "   midi.NoteOnEvent(tick=0, channel=2, data=[68, 100]),\n",
      "   midi.NoteOffEvent(tick=96, channel=2, data=[68, 64]),\n",
      "   midi.NoteOnEvent(tick=0, channel=2, data=[69, 100]),\n",
      "   midi.NoteOffEvent(tick=192, channel=2, data=[69, 64]),\n",
      "   midi.NoteOnEvent(tick=0, channel=2, data=[81, 100]),\n",
      "   midi.NoteOffEvent(tick=96, channel=2, data=[81, 64]),\n",
      "   midi.NoteOnEvent(tick=0, channel=2, data=[80, 100]),\n",
      "   midi.NoteOffEvent(tick=96, channel=2, data=[80, 64]),\n",
      "   midi.NoteOnEvent(tick=0, channel=2, data=[81, 100]),\n",
      "   midi.NoteOffEvent(tick=96, channel=2, data=[81, 64]),\n",
      "   midi.NoteOnEvent(tick=0, channel=2, data=[80, 100]),\n",
      "   midi.NoteOffEvent(tick=96, channel=2, data=[80, 64]),\n",
      "   midi.NoteOnEvent(tick=0, channel=2, data=[78, 100]),\n",
      "   midi.NoteOffEvent(tick=96, channel=2, data=[78, 64]),\n",
      "   midi.NoteOnEvent(tick=0, channel=2, data=[76, 100]),\n",
      "   midi.NoteOffEvent(tick=96, channel=2, data=[76, 64]),\n",
      "   midi.NoteOnEvent(tick=0, channel=2, data=[74, 100]),\n",
      "   midi.NoteOffEvent(tick=96, channel=2, data=[74, 64]),\n",
      "   midi.NoteOnEvent(tick=0, channel=2, data=[73, 100]),\n",
      "   midi.NoteOffEvent(tick=96, channel=2, data=[73, 64]),\n",
      "   midi.NoteOnEvent(tick=0, channel=2, data=[74, 100]),\n",
      "   midi.NoteOffEvent(tick=96, channel=2, data=[74, 64]),\n",
      "   midi.NoteOnEvent(tick=0, channel=2, data=[76, 100]),\n",
      "   midi.NoteOffEvent(tick=96, channel=2, data=[76, 64]),\n",
      "   midi.NoteOnEvent(tick=0, channel=2, data=[74, 100]),\n",
      "   midi.NoteOffEvent(tick=96, channel=2, data=[74, 64]),\n",
      "   midi.NoteOnEvent(tick=0, channel=2, data=[73, 100]),\n",
      "   midi.NoteOffEvent(tick=96, channel=2, data=[73, 64]),\n",
      "   midi.NoteOnEvent(tick=0, channel=2, data=[71, 100]),\n",
      "   midi.NoteOffEvent(tick=96, channel=2, data=[71, 64]),\n",
      "   midi.NoteOnEvent(tick=0, channel=2, data=[69, 100]),\n",
      "   midi.NoteOffEvent(tick=96, channel=2, data=[69, 64]),\n",
      "   midi.NoteOnEvent(tick=0, channel=2, data=[76, 100]),\n",
      "   midi.NoteOffEvent(tick=896, channel=2, data=[76, 64]),\n",
      "   midi.NoteOnEvent(tick=64, channel=2, data=[74, 100]),\n",
      "   midi.NoteOffEvent(tick=96, channel=2, data=[74, 64]),\n",
      "   midi.NoteOnEvent(tick=0, channel=2, data=[73, 100]),\n",
      "   midi.NoteOffEvent(tick=96, channel=2, data=[73, 64]),\n",
      "   midi.NoteOnEvent(tick=0, channel=2, data=[74, 100]),\n",
      "   midi.NoteOffEvent(tick=96, channel=2, data=[74, 64]),\n",
      "   midi.NoteOnEvent(tick=0, channel=2, data=[73, 100]),\n",
      "   midi.NoteOffEvent(tick=96, channel=2, data=[73, 64]),\n",
      "   midi.NoteOnEvent(tick=0, channel=2, data=[71, 100]),\n",
      "   midi.NoteOffEvent(tick=96, channel=2, data=[71, 64]),\n",
      "   midi.NoteOnEvent(tick=0, channel=2, data=[73, 100]),\n",
      "   midi.NoteOffEvent(tick=96, channel=2, data=[73, 64]),\n",
      "   midi.NoteOnEvent(tick=0, channel=2, data=[69, 100]),\n",
      "   midi.NoteOffEvent(tick=96, channel=2, data=[69, 64]),\n",
      "   midi.NoteOnEvent(tick=0, channel=2, data=[71, 100]),\n",
      "   midi.NoteOffEvent(tick=96, channel=2, data=[71, 64]),\n",
      "   midi.NoteOnEvent(tick=0, channel=2, data=[73, 100]),\n",
      "   midi.NoteOffEvent(tick=96, channel=2, data=[73, 64]),\n",
      "   midi.NoteOnEvent(tick=0, channel=2, data=[74, 100]),\n",
      "   midi.NoteOffEvent(tick=96, channel=2, data=[74, 64]),\n",
      "   midi.NoteOnEvent(tick=0, channel=2, data=[76, 100]),\n",
      "   midi.NoteOffEvent(tick=96, channel=2, data=[76, 64]),\n",
      "   midi.NoteOnEvent(tick=0, channel=2, data=[78, 100]),\n",
      "   midi.NoteOffEvent(tick=96, channel=2, data=[78, 64]),\n",
      "   midi.NoteOnEvent(tick=0, channel=2, data=[80, 100]),\n",
      "   midi.NoteOffEvent(tick=96, channel=2, data=[80, 64]),\n",
      "   midi.NoteOnEvent(tick=0, channel=2, data=[81, 100]),\n",
      "   midi.NoteOffEvent(tick=96, channel=2, data=[81, 64]),\n",
      "   midi.NoteOnEvent(tick=0, channel=2, data=[83, 100]),\n",
      "   midi.NoteOffEvent(tick=96, channel=2, data=[83, 64]),\n",
      "   midi.NoteOnEvent(tick=0, channel=2, data=[81, 100]),\n",
      "   midi.NoteOffEvent(tick=96, channel=2, data=[81, 64]),\n",
      "   midi.NoteOnEvent(tick=0, channel=2, data=[80, 100]),\n",
      "   midi.NoteOffEvent(tick=96, channel=2, data=[80, 64]),\n",
      "   midi.NoteOnEvent(tick=0, channel=2, data=[78, 100]),\n",
      "   midi.NoteOffEvent(tick=96, channel=2, data=[78, 64]),\n",
      "   midi.NoteOnEvent(tick=0, channel=2, data=[76, 100]),\n",
      "   midi.NoteOffEvent(tick=576, channel=2, data=[76, 64]),\n",
      "   midi.NoteOnEvent(tick=0, channel=2, data=[71, 100]),\n",
      "   midi.NoteOffEvent(tick=192, channel=2, data=[71, 64]),\n",
      "   midi.NoteOnEvent(tick=0, channel=2, data=[68, 100]),\n",
      "   midi.NoteOffEvent(tick=192, channel=2, data=[68, 64]),\n",
      "   midi.NoteOnEvent(tick=0, channel=2, data=[64, 100]),\n",
      "   midi.NoteOffEvent(tick=192, channel=2, data=[64, 64]),\n",
      "   midi.NoteOnEvent(tick=0, channel=2, data=[69, 100]),\n",
      "   midi.NoteOffEvent(tick=48, channel=2, data=[69, 64]),\n",
      "   midi.NoteOnEvent(tick=0, channel=2, data=[71, 100]),\n",
      "   midi.NoteOffEvent(tick=48, channel=2, data=[71, 64]),\n",
      "   midi.NoteOnEvent(tick=0, channel=2, data=[73, 100]),\n",
      "   midi.NoteOffEvent(tick=256, channel=2, data=[73, 64]),\n",
      "   midi.NoteOnEvent(tick=32, channel=2, data=[71, 100]),\n",
      "   midi.NoteOffEvent(tick=48, channel=2, data=[71, 64]),\n",
      "   midi.NoteOnEvent(tick=0, channel=2, data=[73, 100]),\n",
      "   midi.NoteOffEvent(tick=48, channel=2, data=[73, 64]),\n",
      "   midi.NoteOnEvent(tick=0, channel=2, data=[74, 100]),\n",
      "   midi.NoteOffEvent(tick=256, channel=2, data=[74, 64]),\n",
      "   midi.NoteOnEvent(tick=32, channel=2, data=[73, 100]),\n",
      "   midi.NoteOffEvent(tick=192, channel=2, data=[73, 64]),\n",
      "   midi.NoteOnEvent(tick=0, channel=2, data=[71, 100]),\n",
      "   midi.NoteOffEvent(tick=192, channel=2, data=[71, 64]),\n",
      "   midi.NoteOnEvent(tick=0, channel=2, data=[69, 100]),\n",
      "   midi.NoteOffEvent(tick=192, channel=2, data=[69, 64]),\n",
      "   midi.NoteOnEvent(tick=960, channel=2, data=[85, 100]),\n",
      "   midi.NoteOffEvent(tick=96, channel=2, data=[85, 64]),\n",
      "   midi.NoteOnEvent(tick=0, channel=2, data=[86, 100]),\n",
      "   midi.NoteOffEvent(tick=96, channel=2, data=[86, 64]),\n",
      "   midi.NoteOnEvent(tick=0, channel=2, data=[88, 100]),\n",
      "   midi.NoteOffEvent(tick=96, channel=2, data=[88, 64]),\n",
      "   midi.NoteOnEvent(tick=96, channel=2, data=[88, 100]),\n",
      "   midi.NoteOffEvent(tick=96, channel=2, data=[88, 64]),\n",
      "   midi.NoteOnEvent(tick=96, channel=2, data=[81, 100]),\n",
      "   midi.NoteOffEvent(tick=96, channel=2, data=[81, 64]),\n",
      "   midi.NoteOnEvent(tick=96, channel=2, data=[74, 100]),\n",
      "   midi.NoteOffEvent(tick=48, channel=2, data=[74, 64]),\n",
      "   midi.NoteOnEvent(tick=0, channel=2, data=[76, 100]),\n",
      "   midi.NoteOffEvent(tick=48, channel=2, data=[76, 64]),\n",
      "   midi.NoteOnEvent(tick=0, channel=2, data=[78, 100]),\n",
      "   midi.NoteOffEvent(tick=256, channel=2, data=[78, 64]),\n",
      "   midi.NoteOnEvent(tick=32, channel=2, data=[76, 100]),\n",
      "   midi.NoteOffEvent(tick=48, channel=2, data=[76, 64]),\n",
      "   midi.NoteOnEvent(tick=0, channel=2, data=[78, 100]),\n",
      "   midi.NoteOffEvent(tick=48, channel=2, data=[78, 64]),\n",
      "   midi.NoteOnEvent(tick=0, channel=2, data=[79, 100]),\n",
      "   midi.NoteOffEvent(tick=256, channel=2, data=[79, 64]),\n",
      "   midi.NoteOnEvent(tick=32, channel=2, data=[74, 100]),\n",
      "   midi.NoteOffEvent(tick=192, channel=2, data=[74, 64]),\n",
      "   midi.NoteOnEvent(tick=0, channel=2, data=[73, 100]),\n",
      "   midi.NoteOffEvent(tick=192, channel=2, data=[73, 64]),\n",
      "   midi.NoteOnEvent(tick=0, channel=2, data=[74, 100]),\n",
      "   midi.NoteOffEvent(tick=192, channel=2, data=[74, 64]),\n",
      "   midi.NoteOnEvent(tick=1152, channel=2, data=[83, 100]),\n",
      "   midi.NoteOffEvent(tick=192, channel=2, data=[83, 64]),\n",
      "   midi.NoteOnEvent(tick=0, channel=2, data=[80, 100]),\n",
      "   midi.NoteOffEvent(tick=192, channel=2, data=[80, 64]),\n",
      "   midi.NoteOnEvent(tick=0, channel=2, data=[76, 100]),\n",
      "   midi.NoteOffEvent(tick=192, channel=2, data=[76, 64]),\n",
      "   midi.NoteOnEvent(tick=960, channel=2, data=[74, 100]),\n",
      "   midi.NoteOffEvent(tick=192, channel=2, data=[74, 64]),\n",
      "   midi.NoteOnEvent(tick=0, channel=2, data=[71, 100]),\n",
      "   midi.NoteOffEvent(tick=192, channel=2, data=[71, 64]),\n",
      "   midi.NoteOnEvent(tick=0, channel=2, data=[68, 100]),\n",
      "   midi.NoteOffEvent(tick=192, channel=2, data=[68, 64]),\n",
      "   midi.NoteOnEvent(tick=0, channel=2, data=[69, 100]),\n",
      "   midi.NoteOffEvent(tick=96, channel=2, data=[69, 64]),\n",
      "   midi.NoteOnEvent(tick=0, channel=2, data=[71, 100]),\n",
      "   midi.NoteOffEvent(tick=96, channel=2, data=[71, 64]),\n",
      "   midi.NoteOnEvent(tick=0, channel=2, data=[73, 100]),\n",
      "   midi.NoteOffEvent(tick=96, channel=2, data=[73, 64]),\n",
      "   midi.NoteOnEvent(tick=96, channel=2, data=[73, 100]),\n",
      "   midi.NoteOffEvent(tick=96, channel=2, data=[73, 64]),\n",
      "   midi.NoteOnEvent(tick=96, channel=2, data=[74, 100]),\n",
      "   midi.NoteOffEvent(tick=96, channel=2, data=[74, 64]),\n",
      "   midi.NoteOnEvent(tick=96, channel=2, data=[76, 100]),\n",
      "   midi.NoteOffEvent(tick=192, channel=2, data=[76, 64]),\n",
      "   midi.NoteOnEvent(tick=0, channel=2, data=[69, 100]),\n",
      "   midi.NoteOffEvent(tick=192, channel=2, data=[69, 64]),\n",
      "   midi.NoteOnEvent(tick=0, channel=2, data=[81, 100]),\n",
      "   midi.NoteOffEvent(tick=576, channel=2, data=[81, 64]),\n",
      "   midi.NoteOnEvent(tick=0, channel=2, data=[80, 100]),\n",
      "   midi.NoteOffEvent(tick=96, channel=2, data=[80, 64]),\n",
      "   midi.NoteOnEvent(tick=0, channel=2, data=[78, 100]),\n",
      "   midi.NoteOffEvent(tick=96, channel=2, data=[78, 64]),\n",
      "   midi.NoteOnEvent(tick=0, channel=2, data=[76, 100]),\n",
      "   midi.NoteOffEvent(tick=96, channel=2, data=[76, 64]),\n",
      "   midi.NoteOnEvent(tick=0, channel=2, data=[74, 100]),\n",
      "   midi.NoteOffEvent(tick=96, channel=2, data=[74, 64]),\n",
      "   midi.NoteOnEvent(tick=0, channel=2, data=[73, 100]),\n",
      "   midi.NoteOnEvent(tick=0, channel=2, data=[71, 100]),\n",
      "   midi.NoteOffEvent(tick=96, channel=2, data=[73, 64]),\n",
      "   midi.NoteOnEvent(tick=0, channel=2, data=[71, 100]),\n",
      "   midi.NoteOffEvent(tick=96, channel=2, data=[71, 64]),\n",
      "   midi.NoteOffEvent(tick=0, channel=2, data=[71, 64]),\n",
      "   midi.NoteOnEvent(tick=0, channel=2, data=[69, 100]),\n",
      "   midi.NoteOffEvent(tick=192, channel=2, data=[69, 64]),\n",
      "   midi.NoteOnEvent(tick=0, channel=2, data=[71, 100]),\n",
      "   midi.NoteOffEvent(tick=96, channel=2, data=[71, 64]),\n",
      "   midi.NoteOnEvent(tick=0, channel=2, data=[73, 100]),\n",
      "   midi.NoteOffEvent(tick=96, channel=2, data=[73, 64]),\n",
      "   midi.NoteOnEvent(tick=0, channel=2, data=[74, 100]),\n",
      "   midi.NoteOffEvent(tick=96, channel=2, data=[74, 64]),\n",
      "   midi.NoteOnEvent(tick=0, channel=2, data=[76, 100]),\n",
      "   midi.NoteOffEvent(tick=96, channel=2, data=[76, 64]),\n",
      "   midi.NoteOnEvent(tick=0, channel=2, data=[78, 100]),\n",
      "   midi.NoteOffEvent(tick=96, channel=2, data=[78, 64]),\n",
      "   midi.NoteOnEvent(tick=0, channel=2, data=[80, 100]),\n",
      "   midi.NoteOffEvent(tick=96, channel=2, data=[80, 64]),\n",
      "   midi.NoteOnEvent(tick=0, channel=2, data=[81, 100]),\n",
      "   midi.NoteOffEvent(tick=192, channel=2, data=[81, 64]),\n",
      "   midi.NoteOnEvent(tick=1152, channel=2, data=[76, 100]),\n",
      "   midi.NoteOffEvent(tick=192, channel=2, data=[76, 64]),\n",
      "   midi.NoteOnEvent(tick=0, channel=2, data=[81, 100]),\n",
      "   midi.NoteOffEvent(tick=48, channel=2, data=[81, 64]),\n",
      "   midi.NoteOnEvent(tick=0, channel=2, data=[83, 100]),\n",
      "   midi.NoteOffEvent(tick=48, channel=2, data=[83, 64]),\n",
      "   midi.NoteOnEvent(tick=0, channel=2, data=[85, 100]),\n",
      "   midi.NoteOffEvent(tick=256, channel=2, data=[85, 64]),\n",
      "   midi.NoteOnEvent(tick=32, channel=2, data=[83, 100]),\n",
      "   midi.NoteOffEvent(tick=48, channel=2, data=[83, 64]),\n",
      "   midi.NoteOnEvent(tick=0, channel=2, data=[85, 100]),\n",
      "   midi.NoteOffEvent(tick=48, channel=2, data=[85, 64]),\n",
      "   midi.NoteOnEvent(tick=0, channel=2, data=[86, 100]),\n",
      "   midi.NoteOffEvent(tick=256, channel=2, data=[86, 64]),\n",
      "   midi.NoteOnEvent(tick=32, channel=2, data=[85, 100]),\n",
      "   midi.NoteOffEvent(tick=192, channel=2, data=[85, 64]),\n",
      "   midi.NoteOnEvent(tick=0, channel=2, data=[88, 100]),\n",
      "   midi.NoteOffEvent(tick=192, channel=2, data=[88, 64]),\n",
      "   midi.NoteOnEvent(tick=0, channel=2, data=[85, 100]),\n",
      "   midi.NoteOffEvent(tick=192, channel=2, data=[85, 64]),\n",
      "   midi.NoteOnEvent(tick=0, channel=2, data=[81, 100]),\n",
      "   midi.NoteOffEvent(tick=192, channel=2, data=[81, 64]),\n",
      "   midi.NoteOnEvent(tick=1344, channel=2, data=[76, 100]),\n",
      "   midi.NoteOffEvent(tick=192, channel=2, data=[76, 64]),\n",
      "   midi.NoteOnEvent(tick=0, channel=2, data=[81, 100]),\n",
      "   midi.NoteOffEvent(tick=48, channel=2, data=[81, 64]),\n",
      "   midi.NoteOnEvent(tick=0, channel=2, data=[83, 100]),\n",
      "   midi.NoteOffEvent(tick=48, channel=2, data=[83, 64]),\n",
      "   midi.NoteOnEvent(tick=0, channel=2, data=[85, 100]),\n",
      "   midi.NoteOffEvent(tick=256, channel=2, data=[85, 64]),\n",
      "   midi.NoteOnEvent(tick=32, channel=2, data=[83, 100]),\n",
      "   midi.NoteOffEvent(tick=48, channel=2, data=[83, 64]),\n",
      "   midi.NoteOnEvent(tick=0, channel=2, data=[85, 100]),\n",
      "   midi.NoteOffEvent(tick=48, channel=2, data=[85, 64]),\n",
      "   midi.NoteOnEvent(tick=0, channel=2, data=[86, 100]),\n",
      "   midi.NoteOffEvent(tick=256, channel=2, data=[86, 64]),\n",
      "   midi.NoteOnEvent(tick=32, channel=2, data=[85, 100]),\n",
      "   midi.NoteOffEvent(tick=192, channel=2, data=[85, 64]),\n",
      "   midi.NoteOnEvent(tick=0, channel=2, data=[88, 100]),\n",
      "   midi.NoteOffEvent(tick=192, channel=2, data=[88, 64]),\n",
      "   midi.NoteOnEvent(tick=0, channel=2, data=[85, 100]),\n",
      "   midi.NoteOffEvent(tick=192, channel=2, data=[85, 64]),\n",
      "   midi.NoteOnEvent(tick=0, channel=2, data=[81, 100]),\n",
      "   midi.NoteOffEvent(tick=192, channel=2, data=[81, 64]),\n",
      "   midi.NoteOnEvent(tick=192, channel=2, data=[78, 100]),\n",
      "   midi.NoteOffEvent(tick=96, channel=2, data=[78, 64]),\n",
      "   midi.NoteOnEvent(tick=0, channel=2, data=[76, 100]),\n",
      "   midi.NoteOffEvent(tick=96, channel=2, data=[76, 64]),\n",
      "   midi.NoteOnEvent(tick=0, channel=2, data=[74, 100]),\n",
      "   midi.NoteOffEvent(tick=96, channel=2, data=[74, 64]),\n",
      "   midi.NoteOnEvent(tick=0, channel=2, data=[73, 100]),\n",
      "   midi.NoteOffEvent(tick=96, channel=2, data=[73, 64]),\n",
      "   midi.NoteOnEvent(tick=0, channel=2, data=[71, 100]),\n",
      "   midi.NoteOffEvent(tick=96, channel=2, data=[71, 64]),\n",
      "   midi.NoteOnEvent(tick=0, channel=2, data=[69, 100]),\n",
      "   midi.NoteOffEvent(tick=96, channel=2, data=[69, 64]),\n",
      "   midi.NoteOnEvent(tick=0, channel=2, data=[71, 100]),\n",
      "   midi.NoteOffEvent(tick=192, channel=2, data=[71, 64]),\n",
      "   midi.NoteOnEvent(tick=0, channel=2, data=[83, 100]),\n",
      "   midi.NoteOffEvent(tick=96, channel=2, data=[83, 64]),\n",
      "   midi.NoteOnEvent(tick=0, channel=2, data=[81, 100]),\n",
      "   midi.NoteOffEvent(tick=96, channel=2, data=[81, 64]),\n",
      "   midi.NoteOnEvent(tick=0, channel=2, data=[83, 100]),\n",
      "   midi.NoteOffEvent(tick=96, channel=2, data=[83, 64]),\n",
      "   midi.NoteOnEvent(tick=0, channel=2, data=[81, 100]),\n",
      "   midi.NoteOffEvent(tick=96, channel=2, data=[81, 64]),\n",
      "   midi.NoteOnEvent(tick=0, channel=2, data=[80, 100]),\n",
      "   midi.NoteOffEvent(tick=96, channel=2, data=[80, 64]),\n",
      "   midi.NoteOnEvent(tick=0, channel=2, data=[78, 100]),\n",
      "   midi.NoteOffEvent(tick=96, channel=2, data=[78, 64]),\n",
      "   midi.NoteOnEvent(tick=0, channel=2, data=[76, 100]),\n",
      "   midi.NoteOffEvent(tick=96, channel=2, data=[76, 64]),\n",
      "   midi.NoteOnEvent(tick=0, channel=2, data=[78, 100]),\n",
      "   midi.NoteOffEvent(tick=96, channel=2, data=[78, 64]),\n",
      "   midi.NoteOnEvent(tick=0, channel=2, data=[76, 100]),\n",
      "   midi.NoteOffEvent(tick=96, channel=2, data=[76, 64]),\n",
      "   midi.NoteOnEvent(tick=0, channel=2, data=[74, 100]),\n",
      "   midi.NoteOffEvent(tick=96, channel=2, data=[74, 64]),\n",
      "   midi.NoteOnEvent(tick=0, channel=2, data=[73, 100]),\n",
      "   midi.NoteOffEvent(tick=96, channel=2, data=[73, 64]),\n",
      "   midi.NoteOnEvent(tick=0, channel=2, data=[71, 100]),\n",
      "   midi.NoteOffEvent(tick=96, channel=2, data=[71, 64]),\n",
      "   midi.NoteOnEvent(tick=0, channel=2, data=[69, 100]),\n",
      "   midi.NoteOffEvent(tick=96, channel=2, data=[69, 64]),\n",
      "   midi.NoteOnEvent(tick=0, channel=2, data=[68, 100]),\n",
      "   midi.NoteOffEvent(tick=96, channel=2, data=[68, 64]),\n",
      "   midi.NoteOnEvent(tick=0, channel=2, data=[69, 100]),\n",
      "   midi.NoteOffEvent(tick=192, channel=2, data=[69, 64]),\n",
      "   midi.NoteOnEvent(tick=0, channel=2, data=[81, 100]),\n",
      "   midi.NoteOffEvent(tick=96, channel=2, data=[81, 64]),\n",
      "   midi.NoteOnEvent(tick=0, channel=2, data=[80, 100]),\n",
      "   midi.NoteOffEvent(tick=96, channel=2, data=[80, 64]),\n",
      "   midi.NoteOnEvent(tick=0, channel=2, data=[81, 100]),\n",
      "   midi.NoteOffEvent(tick=96, channel=2, data=[81, 64]),\n",
      "   midi.NoteOnEvent(tick=0, channel=2, data=[80, 100]),\n",
      "   midi.NoteOffEvent(tick=96, channel=2, data=[80, 64]),\n",
      "   midi.NoteOnEvent(tick=0, channel=2, data=[78, 100]),\n",
      "   midi.NoteOffEvent(tick=96, channel=2, data=[78, 64]),\n",
      "   midi.NoteOnEvent(tick=0, channel=2, data=[76, 100]),\n",
      "   midi.NoteOffEvent(tick=96, channel=2, data=[76, 64]),\n",
      "   midi.NoteOnEvent(tick=0, channel=2, data=[74, 100]),\n",
      "   midi.NoteOffEvent(tick=96, channel=2, data=[74, 64]),\n",
      "   midi.NoteOnEvent(tick=0, channel=2, data=[73, 100]),\n",
      "   midi.NoteOffEvent(tick=96, channel=2, data=[73, 64]),\n",
      "   midi.NoteOnEvent(tick=0, channel=2, data=[74, 100]),\n",
      "   midi.NoteOffEvent(tick=96, channel=2, data=[74, 64]),\n",
      "   midi.NoteOnEvent(tick=0, channel=2, data=[76, 100]),\n",
      "   midi.NoteOffEvent(tick=96, channel=2, data=[76, 64]),\n",
      "   midi.NoteOnEvent(tick=0, channel=2, data=[74, 100]),\n",
      "   midi.NoteOffEvent(tick=96, channel=2, data=[74, 64]),\n",
      "   midi.NoteOnEvent(tick=0, channel=2, data=[73, 100]),\n",
      "   midi.NoteOffEvent(tick=96, channel=2, data=[73, 64]),\n",
      "   midi.NoteOnEvent(tick=0, channel=2, data=[71, 100]),\n",
      "   midi.NoteOffEvent(tick=96, channel=2, data=[71, 64]),\n",
      "   midi.NoteOnEvent(tick=0, channel=2, data=[69, 100]),\n",
      "   midi.NoteOffEvent(tick=96, channel=2, data=[69, 64]),\n",
      "   midi.NoteOnEvent(tick=0, channel=2, data=[76, 100]),\n",
      "   midi.NoteOffEvent(tick=960, channel=2, data=[76, 64]),\n",
      "   midi.NoteOnEvent(tick=0, channel=2, data=[74, 100]),\n",
      "   midi.NoteOffEvent(tick=96, channel=2, data=[74, 64]),\n",
      "   midi.NoteOnEvent(tick=0, channel=2, data=[73, 100]),\n",
      "   midi.NoteOffEvent(tick=96, channel=2, data=[73, 64]),\n",
      "   midi.NoteOnEvent(tick=0, channel=2, data=[74, 100]),\n",
      "   midi.NoteOffEvent(tick=96, channel=2, data=[74, 64]),\n",
      "   midi.NoteOnEvent(tick=0, channel=2, data=[73, 100]),\n",
      "   midi.NoteOffEvent(tick=96, channel=2, data=[73, 64]),\n",
      "   midi.NoteOnEvent(tick=0, channel=2, data=[71, 100]),\n",
      "   midi.NoteOffEvent(tick=96, channel=2, data=[71, 64]),\n",
      "   midi.NoteOnEvent(tick=0, channel=2, data=[73, 100]),\n",
      "   midi.NoteOffEvent(tick=96, channel=2, data=[73, 64]),\n",
      "   midi.NoteOnEvent(tick=0, channel=2, data=[69, 100]),\n",
      "   midi.NoteOffEvent(tick=192, channel=2, data=[69, 64]),\n",
      "   midi.NoteOnEvent(tick=0, channel=2, data=[71, 100]),\n",
      "   midi.NoteOffEvent(tick=96, channel=2, data=[71, 64]),\n",
      "   midi.NoteOnEvent(tick=0, channel=2, data=[73, 100]),\n",
      "   midi.NoteOffEvent(tick=96, channel=2, data=[73, 64]),\n",
      "   midi.NoteOnEvent(tick=0, channel=2, data=[74, 100]),\n",
      "   midi.NoteOffEvent(tick=96, channel=2, data=[74, 64]),\n",
      "   midi.NoteOnEvent(tick=0, channel=2, data=[76, 100]),\n",
      "   midi.NoteOffEvent(tick=96, channel=2, data=[76, 64]),\n",
      "   midi.NoteOnEvent(tick=0, channel=2, data=[78, 100]),\n",
      "   midi.NoteOffEvent(tick=96, channel=2, data=[78, 64]),\n",
      "   midi.NoteOnEvent(tick=0, channel=2, data=[80, 100]),\n",
      "   midi.NoteOffEvent(tick=96, channel=2, data=[80, 64]),\n",
      "   midi.NoteOnEvent(tick=0, channel=2, data=[81, 100]),\n",
      "   midi.NoteOffEvent(tick=96, channel=2, data=[81, 64]),\n",
      "   midi.NoteOnEvent(tick=0, channel=2, data=[83, 100]),\n",
      "   midi.NoteOffEvent(tick=96, channel=2, data=[83, 64]),\n",
      "   midi.NoteOnEvent(tick=0, channel=2, data=[85, 100]),\n",
      "   midi.NoteOffEvent(tick=96, channel=2, data=[85, 64]),\n",
      "   midi.NoteOnEvent(tick=96, channel=2, data=[85, 100]),\n",
      "   midi.NoteOffEvent(tick=96, channel=2, data=[85, 64]),\n",
      "   midi.NoteOnEvent(tick=96, channel=2, data=[85, 100]),\n",
      "   midi.NoteOffEvent(tick=96, channel=2, data=[85, 64]),\n",
      "   midi.NoteOnEvent(tick=96, channel=2, data=[85, 100]),\n",
      "   midi.NoteOffEvent(tick=480, channel=2, data=[85, 64]),\n",
      "   midi.NoteOnEvent(tick=0, channel=2, data=[83, 100]),\n",
      "   midi.NoteOffEvent(tick=96, channel=2, data=[83, 64]),\n",
      "   midi.NoteOnEvent(tick=0, channel=2, data=[81, 100]),\n",
      "   midi.NoteOffEvent(tick=96, channel=2, data=[81, 64]),\n",
      "   midi.NoteOnEvent(tick=0, channel=2, data=[80, 100]),\n",
      "   midi.NoteOffEvent(tick=96, channel=2, data=[80, 64]),\n",
      "   midi.NoteOnEvent(tick=0, channel=2, data=[78, 100]),\n",
      "   midi.NoteOffEvent(tick=192, channel=2, data=[78, 64]),\n",
      "   midi.NoteOnEvent(tick=0, channel=2, data=[80, 100]),\n",
      "   midi.NoteOffEvent(tick=192, channel=2, data=[80, 64]),\n",
      "   midi.NoteOnEvent(tick=0, channel=2, data=[73, 100]),\n",
      "   midi.NoteOffEvent(tick=192, channel=2, data=[73, 64]),\n",
      "   midi.NoteOnEvent(tick=0, channel=2, data=[71, 100]),\n",
      "   midi.NoteOffEvent(tick=192, channel=2, data=[71, 64]),\n",
      "   midi.NoteOnEvent(tick=0, channel=2, data=[69, 100]),\n",
      "   midi.NoteOffEvent(tick=192, channel=2, data=[69, 64]),\n",
      "   midi.NoteOnEvent(tick=0, channel=2, data=[68, 100]),\n",
      "   midi.NoteOffEvent(tick=96, channel=2, data=[68, 64]),\n",
      "   midi.NoteOnEvent(tick=0, channel=2, data=[69, 100]),\n",
      "   midi.NoteOffEvent(tick=96, channel=2, data=[69, 64]),\n",
      "   midi.NoteOnEvent(tick=0, channel=2, data=[66, 100]),\n",
      "   midi.NoteOffEvent(tick=192, channel=2, data=[66, 64]),\n",
      "   midi.NoteOnEvent(tick=960, channel=2, data=[85, 100]),\n",
      "   midi.NoteOffEvent(tick=96, channel=2, data=[85, 64]),\n",
      "   midi.NoteOnEvent(tick=0, channel=2, data=[86, 100]),\n",
      "   midi.NoteOffEvent(tick=96, channel=2, data=[86, 64]),\n",
      "   midi.NoteOnEvent(tick=0, channel=2, data=[88, 100]),\n",
      "   midi.NoteOffEvent(tick=96, channel=2, data=[88, 64]),\n",
      "   midi.NoteOnEvent(tick=96, channel=2, data=[88, 100]),\n",
      "   midi.NoteOffEvent(tick=96, channel=2, data=[88, 64]),\n",
      "   midi.NoteOnEvent(tick=96, channel=2, data=[78, 100]),\n",
      "   midi.NoteOffEvent(tick=384, channel=2, data=[78, 64]),\n",
      "   midi.NoteOnEvent(tick=0, channel=2, data=[79, 100]),\n",
      "   midi.NoteOffEvent(tick=192, channel=2, data=[79, 64]),\n",
      "   midi.NoteOnEvent(tick=0, channel=2, data=[78, 100]),\n",
      "   midi.NoteOffEvent(tick=192, channel=2, data=[78, 64]),\n",
      "   midi.NoteOnEvent(tick=0, channel=2, data=[76, 100]),\n",
      "   midi.NoteOffEvent(tick=192, channel=2, data=[76, 64]),\n",
      "   midi.NoteOnEvent(tick=0, channel=2, data=[74, 100]),\n",
      "   midi.NoteOffEvent(tick=192, channel=2, data=[74, 64]),\n",
      "   midi.NoteOnEvent(tick=0, channel=2, data=[73, 100]),\n",
      "   midi.NoteOffEvent(tick=96, channel=2, data=[73, 64]),\n",
      "   midi.NoteOnEvent(tick=0, channel=2, data=[74, 100]),\n",
      "   midi.NoteOffEvent(tick=96, channel=2, data=[74, 64]),\n",
      "   midi.NoteOnEvent(tick=0, channel=2, data=[71, 100]),\n",
      "   midi.NoteOffEvent(tick=384, channel=2, data=[71, 64]),\n",
      "   midi.NoteOnEvent(tick=0, channel=2, data=[79, 100]),\n",
      "   midi.NoteOffEvent(tick=96, channel=2, data=[79, 64]),\n",
      "   midi.NoteOnEvent(tick=0, channel=2, data=[81, 100]),\n",
      "   midi.NoteOffEvent(tick=96, channel=2, data=[81, 64]),\n",
      "   midi.NoteOnEvent(tick=0, channel=2, data=[83, 100]),\n",
      "   midi.NoteOffEvent(tick=96, channel=2, data=[83, 64]),\n",
      "   midi.NoteOnEvent(tick=96, channel=2, data=[83, 100]),\n",
      "   midi.NoteOffEvent(tick=96, channel=2, data=[83, 64]),\n",
      "   midi.NoteOnEvent(tick=96, channel=2, data=[83, 100]),\n",
      "   midi.NoteOffEvent(tick=96, channel=2, data=[83, 64]),\n",
      "   midi.NoteOnEvent(tick=96, channel=2, data=[73, 100]),\n",
      "   midi.NoteOffEvent(tick=384, channel=2, data=[73, 64]),\n",
      "   midi.NoteOnEvent(tick=384, channel=2, data=[78, 100]),\n",
      "   midi.NoteOffEvent(tick=96, channel=2, data=[78, 64]),\n",
      "   midi.NoteOnEvent(tick=0, channel=2, data=[79, 100]),\n",
      "   midi.NoteOffEvent(tick=96, channel=2, data=[79, 64]),\n",
      "   midi.NoteOnEvent(tick=0, channel=2, data=[81, 100]),\n",
      "   midi.NoteOffEvent(tick=96, channel=2, data=[81, 64]),\n",
      "   midi.NoteOnEvent(tick=96, channel=2, data=[81, 100]),\n",
      "   midi.NoteOffEvent(tick=96, channel=2, data=[81, 64]),\n",
      "   midi.NoteOnEvent(tick=96, channel=2, data=[81, 100]),\n",
      "   midi.NoteOffEvent(tick=96, channel=2, data=[81, 64]),\n",
      "   midi.NoteOnEvent(tick=96, channel=2, data=[71, 100]),\n",
      "   midi.NoteOffEvent(tick=384, channel=2, data=[71, 64]),\n",
      "   midi.NoteOnEvent(tick=384, channel=2, data=[70, 100]),\n",
      "   midi.NoteOffEvent(tick=96, channel=2, data=[70, 64]),\n",
      "   midi.NoteOnEvent(tick=0, channel=2, data=[71, 100]),\n",
      "   midi.NoteOffEvent(tick=96, channel=2, data=[71, 64]),\n",
      "   midi.NoteOnEvent(tick=0, channel=2, data=[73, 100]),\n",
      "   midi.NoteOffEvent(tick=256, channel=2, data=[73, 64]),\n",
      "   midi.NoteOnEvent(tick=32, channel=2, data=[74, 100]),\n",
      "   midi.NoteOffEvent(tick=96, channel=2, data=[74, 64]),\n",
      "   midi.NoteOnEvent(tick=0, channel=2, data=[76, 100]),\n",
      "   midi.NoteOffEvent(tick=288, channel=2, data=[76, 64]),\n",
      "   midi.NoteOnEvent(tick=0, channel=2, data=[79, 100]),\n",
      "   midi.NoteOffEvent(tick=96, channel=2, data=[79, 64]),\n",
      "   midi.NoteOnEvent(tick=0, channel=2, data=[78, 100]),\n",
      "   midi.NoteOffEvent(tick=96, channel=2, data=[78, 64]),\n",
      "   midi.NoteOnEvent(tick=0, channel=2, data=[76, 100]),\n",
      "   midi.NoteOffEvent(tick=96, channel=2, data=[76, 64]),\n",
      "   midi.NoteOnEvent(tick=0, channel=2, data=[78, 100]),\n",
      "   midi.NoteOffEvent(tick=96, channel=2, data=[78, 64]),\n",
      "   midi.NoteOnEvent(tick=0, channel=2, data=[76, 100]),\n",
      "   midi.NoteOffEvent(tick=96, channel=2, data=[76, 64]),\n",
      "   midi.NoteOnEvent(tick=0, channel=2, data=[74, 100]),\n",
      "   midi.NoteOffEvent(tick=96, channel=2, data=[74, 64]),\n",
      "   midi.NoteOnEvent(tick=0, channel=2, data=[73, 100]),\n",
      "   midi.NoteOffEvent(tick=96, channel=2, data=[73, 64]),\n",
      "   midi.NoteOnEvent(tick=0, channel=2, data=[76, 100]),\n",
      "   midi.NoteOffEvent(tick=96, channel=2, data=[76, 64]),\n",
      "   midi.NoteOnEvent(tick=0, channel=2, data=[74, 100]),\n",
      "   midi.NoteOffEvent(tick=96, channel=2, data=[74, 64]),\n",
      "   midi.NoteOnEvent(tick=0, channel=2, data=[73, 100]),\n",
      "   midi.NoteOffEvent(tick=96, channel=2, data=[73, 64]),\n",
      "   midi.NoteOnEvent(tick=0, channel=2, data=[71, 100]),\n",
      "   midi.NoteOffEvent(tick=96, channel=2, data=[71, 64]),\n",
      "   midi.NoteOnEvent(tick=0, channel=2, data=[73, 100]),\n",
      "   midi.NoteOffEvent(tick=192, channel=2, data=[73, 64]),\n",
      "   midi.NoteOnEvent(tick=0, channel=2, data=[70, 100]),\n",
      "   midi.NoteOffEvent(tick=192, channel=2, data=[70, 64]),\n",
      "   midi.NoteOnEvent(tick=0, channel=2, data=[71, 100]),\n",
      "   midi.NoteOffEvent(tick=192, channel=2, data=[71, 64]),\n",
      "   midi.NoteOnEvent(tick=0, channel=2, data=[78, 100]),\n",
      "   midi.NoteOffEvent(tick=256, channel=2, data=[78, 64]),\n",
      "   midi.NoteOnEvent(tick=32, channel=2, data=[80, 100]),\n",
      "   midi.NoteOffEvent(tick=96, channel=2, data=[80, 64]),\n",
      "   midi.NoteOnEvent(tick=0, channel=2, data=[82, 100]),\n",
      "   midi.NoteOffEvent(tick=96, channel=2, data=[82, 64]),\n",
      "   midi.NoteOnEvent(tick=0, channel=2, data=[83, 100]),\n",
      "   midi.NoteOffEvent(tick=96, channel=2, data=[83, 64]),\n",
      "   midi.NoteOnEvent(tick=0, channel=2, data=[85, 100]),\n",
      "   midi.NoteOffEvent(tick=192, channel=2, data=[85, 64]),\n",
      "   midi.NoteOnEvent(tick=0, channel=2, data=[82, 100]),\n",
      "   midi.NoteOffEvent(tick=192, channel=2, data=[82, 64]),\n",
      "   midi.NoteOnEvent(tick=0, channel=2, data=[78, 100]),\n",
      "   midi.NoteOffEvent(tick=192, channel=2, data=[78, 64]),\n",
      "   midi.NoteOnEvent(tick=0, channel=2, data=[73, 100]),\n",
      "   midi.NoteOffEvent(tick=192, channel=2, data=[73, 64]),\n",
      "   midi.NoteOnEvent(tick=192, channel=2, data=[79, 100]),\n",
      "   midi.NoteOffEvent(tick=96, channel=2, data=[79, 64]),\n",
      "   midi.NoteOnEvent(tick=0, channel=2, data=[78, 100]),\n",
      "   midi.NoteOffEvent(tick=96, channel=2, data=[78, 64]),\n",
      "   midi.NoteOnEvent(tick=0, channel=2, data=[76, 100]),\n",
      "   midi.NoteOffEvent(tick=96, channel=2, data=[76, 64]),\n",
      "   midi.NoteOnEvent(tick=0, channel=2, data=[74, 100]),\n",
      "   midi.NoteOffEvent(tick=96, channel=2, data=[74, 64]),\n",
      "   midi.NoteOnEvent(tick=0, channel=2, data=[73, 100]),\n",
      "   midi.NoteOffEvent(tick=96, channel=2, data=[73, 64]),\n",
      "   midi.NoteOnEvent(tick=0, channel=2, data=[71, 100]),\n",
      "   midi.NoteOffEvent(tick=96, channel=2, data=[71, 64]),\n",
      "   midi.NoteOnEvent(tick=0, channel=2, data=[70, 100]),\n",
      "   midi.NoteOffEvent(tick=192, channel=2, data=[70, 64]),\n",
      "   midi.NoteOnEvent(tick=0, channel=2, data=[78, 100]),\n",
      "   midi.NoteOffEvent(tick=256, channel=2, data=[78, 64]),\n",
      "   midi.NoteOnEvent(tick=32, channel=2, data=[76, 100]),\n",
      "   midi.NoteOffEvent(tick=96, channel=2, data=[76, 64]),\n",
      "   midi.NoteOnEvent(tick=0, channel=2, data=[74, 100]),\n",
      "   midi.NoteOffEvent(tick=96, channel=2, data=[74, 64]),\n",
      "   midi.NoteOnEvent(tick=0, channel=2, data=[73, 100]),\n",
      "   midi.NoteOffEvent(tick=96, channel=2, data=[73, 64]),\n",
      "   midi.NoteOnEvent(tick=768, channel=2, data=[75, 100]),\n",
      "   midi.NoteOffEvent(tick=96, channel=2, data=[75, 64]),\n",
      "   midi.NoteOnEvent(tick=0, channel=2, data=[76, 100]),\n",
      "   midi.NoteOffEvent(tick=96, channel=2, data=[76, 64]),\n",
      "   midi.NoteOnEvent(tick=0, channel=2, data=[78, 100]),\n",
      "   midi.NoteOffEvent(tick=96, channel=2, data=[78, 64]),\n",
      "   midi.NoteOnEvent(tick=96, channel=2, data=[78, 100]),\n",
      "   midi.NoteOffEvent(tick=96, channel=2, data=[78, 64]),\n",
      "   midi.NoteOnEvent(tick=96, channel=2, data=[78, 100]),\n",
      "   midi.NoteOffEvent(tick=96, channel=2, data=[78, 64]),\n",
      "   midi.NoteOnEvent(tick=96, channel=2, data=[78, 100]),\n",
      "   midi.NoteOffEvent(tick=864, channel=2, data=[78, 64]),\n",
      "   midi.NoteOnEvent(tick=0, channel=2, data=[84, 100]),\n",
      "   midi.NoteOffEvent(tick=96, channel=2, data=[84, 64]),\n",
      "   midi.NoteOnEvent(tick=0, channel=2, data=[83, 100]),\n",
      "   midi.NoteOffEvent(tick=96, channel=2, data=[83, 64]),\n",
      "   midi.NoteOnEvent(tick=0, channel=2, data=[81, 100]),\n",
      "   midi.NoteOffEvent(tick=96, channel=2, data=[81, 64]),\n",
      "   midi.NoteOnEvent(tick=0, channel=2, data=[83, 100]),\n",
      "   midi.NoteOffEvent(tick=96, channel=2, data=[83, 64]),\n",
      "   midi.NoteOnEvent(tick=0, channel=2, data=[81, 100]),\n",
      "   midi.NoteOffEvent(tick=96, channel=2, data=[81, 64]),\n",
      "   midi.NoteOnEvent(tick=0, channel=2, data=[79, 100]),\n",
      "   midi.NoteOffEvent(tick=96, channel=2, data=[79, 64]),\n",
      "   midi.NoteOnEvent(tick=0, channel=2, data=[78, 100]),\n",
      "   midi.NoteOffEvent(tick=96, channel=2, data=[78, 64]),\n",
      "   midi.NoteOnEvent(tick=0, channel=2, data=[79, 100]),\n",
      "   midi.NoteOffEvent(tick=96, channel=2, data=[79, 64]),\n",
      "   midi.NoteOnEvent(tick=0, channel=2, data=[81, 100]),\n",
      "   midi.NoteOffEvent(tick=96, channel=2, data=[81, 64]),\n",
      "   midi.NoteOnEvent(tick=0, channel=2, data=[79, 100]),\n",
      "   midi.NoteOffEvent(tick=96, channel=2, data=[79, 64]),\n",
      "   midi.NoteOnEvent(tick=0, channel=2, data=[78, 100]),\n",
      "   midi.NoteOffEvent(tick=96, channel=2, data=[78, 64]),\n",
      "   midi.NoteOnEvent(tick=0, channel=2, data=[76, 100]),\n",
      "   midi.NoteOffEvent(tick=96, channel=2, data=[76, 64]),\n",
      "   midi.NoteOnEvent(tick=0, channel=2, data=[78, 100]),\n",
      "   midi.NoteOffEvent(tick=96, channel=2, data=[78, 64]),\n",
      "   midi.NoteOnEvent(tick=0, channel=2, data=[79, 100]),\n",
      "   midi.NoteOffEvent(tick=96, channel=2, data=[79, 64]),\n",
      "   midi.NoteOnEvent(tick=0, channel=2, data=[81, 100]),\n",
      "   midi.NoteOffEvent(tick=96, channel=2, data=[81, 64]),\n",
      "   midi.NoteOnEvent(tick=0, channel=2, data=[83, 100]),\n",
      "   midi.NoteOffEvent(tick=768, channel=2, data=[83, 64]),\n",
      "   midi.NoteOnEvent(tick=2304, channel=2, data=[83, 100]),\n",
      "   midi.NoteOffEvent(tick=192, channel=2, data=[83, 64]),\n",
      "   midi.NoteOnEvent(tick=0, channel=2, data=[78, 100]),\n",
      "   midi.NoteOffEvent(tick=384, channel=2, data=[78, 64]),\n",
      "   midi.NoteOnEvent(tick=0, channel=2, data=[79, 100]),\n",
      "   midi.NoteOffEvent(tick=192, channel=2, data=[79, 64]),\n",
      "   midi.NoteOnEvent(tick=0, channel=2, data=[78, 100]),\n",
      "   midi.NoteOffEvent(tick=96, channel=2, data=[78, 64]),\n",
      "   midi.NoteOnEvent(tick=0, channel=2, data=[83, 100]),\n",
      "   midi.NoteOffEvent(tick=96, channel=2, data=[83, 64]),\n",
      "   midi.NoteOnEvent(tick=0, channel=2, data=[81, 100]),\n",
      "   midi.NoteOffEvent(tick=96, channel=2, data=[81, 64]),\n",
      "   midi.NoteOnEvent(tick=0, channel=2, data=[79, 100]),\n",
      "   midi.NoteOffEvent(tick=96, channel=2, data=[79, 64]),\n",
      "   midi.NoteOnEvent(tick=0, channel=2, data=[78, 100]),\n",
      "   midi.NoteOffEvent(tick=192, channel=2, data=[78, 64]),\n",
      "   midi.NoteOnEvent(tick=0, channel=2, data=[76, 100]),\n",
      "   midi.NoteOffEvent(tick=192, channel=2, data=[76, 64]),\n",
      "   midi.NoteOnEvent(tick=0, channel=2, data=[74, 100]),\n",
      "   midi.NoteOffEvent(tick=384, channel=2, data=[74, 64]),\n",
      "   midi.NoteOnEvent(tick=0, channel=2, data=[73, 100]),\n",
      "   midi.NoteOffEvent(tick=384, channel=2, data=[73, 64]),\n",
      "   midi.NoteOnEvent(tick=0, channel=2, data=[71, 100]),\n",
      "   midi.NoteOffEvent(tick=480, channel=2, data=[71, 64]),\n",
      "   midi.NoteOnEvent(tick=0, channel=2, data=[70, 100]),\n",
      "   midi.NoteOffEvent(tick=96, channel=2, data=[70, 64]),\n",
      "   midi.NoteOnEvent(tick=0, channel=2, data=[71, 100]),\n",
      "   midi.NoteOffEvent(tick=96, channel=2, data=[71, 64]),\n",
      "   midi.NoteOnEvent(tick=0, channel=2, data=[73, 100]),\n",
      "   midi.NoteOffEvent(tick=96, channel=2, data=[73, 64]),\n",
      "   midi.NoteOnEvent(tick=0, channel=2, data=[74, 100]),\n",
      "   midi.NoteOffEvent(tick=96, channel=2, data=[74, 64]),\n",
      "   midi.NoteOnEvent(tick=0, channel=2, data=[76, 100]),\n",
      "   midi.NoteOffEvent(tick=96, channel=2, data=[76, 64]),\n",
      "   midi.NoteOnEvent(tick=0, channel=2, data=[78, 100]),\n",
      "   midi.NoteOffEvent(tick=96, channel=2, data=[78, 64]),\n",
      "   midi.NoteOnEvent(tick=96, channel=2, data=[78, 100]),\n",
      "   midi.NoteOffEvent(tick=96, channel=2, data=[78, 64]),\n",
      "   midi.NoteOnEvent(tick=96, channel=2, data=[79, 100]),\n",
      "   midi.NoteOffEvent(tick=96, channel=2, data=[79, 64]),\n",
      "   midi.NoteOnEvent(tick=96, channel=2, data=[81, 100]),\n",
      "   midi.NoteOffEvent(tick=480, channel=2, data=[81, 64]),\n",
      "   midi.NoteOnEvent(tick=0, channel=2, data=[84, 100]),\n",
      "   midi.NoteOffEvent(tick=96, channel=2, data=[84, 64]),\n",
      "   midi.NoteOnEvent(tick=0, channel=2, data=[83, 100]),\n",
      "   midi.NoteOffEvent(tick=96, channel=2, data=[83, 64]),\n",
      "   midi.NoteOnEvent(tick=0, channel=2, data=[81, 100]),\n",
      "   midi.NoteOffEvent(tick=96, channel=2, data=[81, 64]),\n",
      "   midi.NoteOnEvent(tick=0, channel=2, data=[79, 100]),\n",
      "   midi.NoteOffEvent(tick=192, channel=2, data=[79, 64]),\n",
      "   midi.NoteOnEvent(tick=0, channel=2, data=[81, 100]),\n",
      "   midi.NoteOffEvent(tick=192, channel=2, data=[81, 64]),\n",
      "   midi.NoteOnEvent(tick=0, channel=2, data=[74, 100]),\n",
      "   midi.NoteOffEvent(tick=192, channel=2, data=[74, 64]),\n",
      "   midi.NoteOnEvent(tick=0, channel=2, data=[72, 100]),\n",
      "   midi.NoteOffEvent(tick=192, channel=2, data=[72, 64]),\n",
      "   midi.NoteOnEvent(tick=0, channel=2, data=[71, 100]),\n",
      "   midi.NoteOffEvent(tick=192, channel=2, data=[71, 64]),\n",
      "   midi.NoteOnEvent(tick=0, channel=2, data=[69, 100]),\n",
      "   midi.NoteOffEvent(tick=96, channel=2, data=[69, 64]),\n",
      "   midi.NoteOnEvent(tick=0, channel=2, data=[71, 100]),\n",
      "   midi.NoteOffEvent(tick=96, channel=2, data=[71, 64]),\n",
      "   midi.NoteOnEvent(tick=0, channel=2, data=[67, 100]),\n",
      "   midi.NoteOffEvent(tick=192, channel=2, data=[67, 64]),\n",
      "   midi.NoteOnEvent(tick=960, channel=2, data=[78, 100]),\n",
      "   midi.NoteOffEvent(tick=96, channel=2, data=[78, 64]),\n",
      "   midi.NoteOnEvent(tick=0, channel=2, data=[79, 100]),\n",
      "   midi.NoteOffEvent(tick=96, channel=2, data=[79, 64]),\n",
      "   midi.NoteOnEvent(tick=0, channel=2, data=[81, 100]),\n",
      "   midi.NoteOffEvent(tick=96, channel=2, data=[81, 64]),\n",
      "   midi.NoteOnEvent(tick=96, channel=2, data=[81, 100]),\n",
      "   midi.NoteOffEvent(tick=96, channel=2, data=[81, 64]),\n",
      "   midi.NoteOnEvent(tick=96, channel=2, data=[71, 100]),\n",
      "   midi.NoteOffEvent(tick=384, channel=2, data=[71, 64]),\n",
      "   midi.NoteOnEvent(tick=0, channel=2, data=[76, 100]),\n",
      "   midi.NoteOffEvent(tick=384, channel=2, data=[76, 64]),\n",
      "   midi.NoteOnEvent(tick=0, channel=2, data=[75, 100]),\n",
      "   midi.NoteOffEvent(tick=192, channel=2, data=[75, 64]),\n",
      "   midi.NoteOnEvent(tick=0, channel=2, data=[76, 100]),\n",
      "   midi.NoteOffEvent(tick=192, channel=2, data=[76, 64]),\n",
      "   midi.NoteOnEvent(tick=0, channel=2, data=[71, 100]),\n",
      "   midi.NoteOffEvent(tick=192, channel=2, data=[71, 64]),\n",
      "   midi.NoteOnEvent(tick=0, channel=2, data=[76, 100]),\n",
      "   midi.NoteOffEvent(tick=192, channel=2, data=[76, 64]),\n",
      "   midi.NoteOnEvent(tick=0, channel=2, data=[74, 100]),\n",
      "   midi.NoteOffEvent(tick=192, channel=2, data=[74, 64]),\n",
      "   midi.NoteOnEvent(tick=192, channel=2, data=[76, 100]),\n",
      "   midi.NoteOffEvent(tick=192, channel=2, data=[76, 64]),\n",
      "   midi.NoteOnEvent(tick=0, channel=2, data=[81, 100]),\n",
      "   midi.NoteOffEvent(tick=192, channel=2, data=[81, 64]),\n",
      "   midi.NoteOnEvent(tick=0, channel=2, data=[79, 100]),\n",
      "   midi.NoteOffEvent(tick=192, channel=2, data=[79, 64]),\n",
      "   midi.NoteOnEvent(tick=192, channel=2, data=[81, 100]),\n",
      "   midi.NoteOffEvent(tick=192, channel=2, data=[81, 64]),\n",
      "   midi.NoteOnEvent(tick=0, channel=2, data=[86, 100]),\n",
      "   midi.NoteOffEvent(tick=192, channel=2, data=[86, 64]),\n",
      "   midi.NoteOnEvent(tick=0, channel=2, data=[85, 100]),\n",
      "   midi.NoteOffEvent(tick=192, channel=2, data=[85, 64]),\n",
      "   midi.NoteOnEvent(tick=192, channel=2, data=[83, 100]),\n",
      "   midi.NoteOffEvent(tick=192, channel=2, data=[83, 64]),\n",
      "   midi.NoteOnEvent(tick=0, channel=2, data=[80, 100]),\n",
      "   midi.NoteOffEvent(tick=192, channel=2, data=[80, 64]),\n",
      "   midi.NoteOnEvent(tick=0, channel=2, data=[81, 100]),\n",
      "   midi.NoteOffEvent(tick=192, channel=2, data=[81, 64]),\n",
      "   midi.NoteOnEvent(tick=192, channel=2, data=[80, 100]),\n",
      "   midi.NoteOffEvent(tick=192, channel=2, data=[80, 64]),\n",
      "   midi.NoteOnEvent(tick=0, channel=2, data=[73, 100]),\n",
      "   midi.NoteOffEvent(tick=192, channel=2, data=[73, 64]),\n",
      "   midi.NoteOnEvent(tick=0, channel=2, data=[77, 100]),\n",
      "   midi.NoteOffEvent(tick=192, channel=2, data=[77, 64]),\n",
      "   midi.NoteOnEvent(tick=0, channel=2, data=[78, 100]),\n",
      "   midi.NoteOffEvent(tick=960, channel=2, data=[78, 64]),\n",
      "   midi.NoteOnEvent(tick=0, channel=2, data=[78, 100]),\n",
      "   midi.NoteOffEvent(tick=192, channel=2, data=[78, 64]),\n",
      "   midi.NoteOnEvent(tick=0, channel=2, data=[83, 100]),\n",
      "   midi.NoteOffEvent(tick=192, channel=2, data=[83, 64]),\n",
      "   midi.NoteOnEvent(tick=0, channel=2, data=[81, 100]),\n",
      "   midi.NoteOffEvent(tick=192, channel=2, data=[81, 64]),\n",
      "   midi.NoteOnEvent(tick=0, channel=2, data=[80, 100]),\n",
      "   midi.NoteOffEvent(tick=192, channel=2, data=[80, 64]),\n",
      "   midi.NoteOnEvent(tick=0, channel=2, data=[68, 100]),\n",
      "   midi.NoteOffEvent(tick=192, channel=2, data=[68, 64]),\n",
      "   midi.NoteOnEvent(tick=0, channel=2, data=[73, 100]),\n",
      "   midi.NoteOffEvent(tick=192, channel=2, data=[73, 64]),\n",
      "   midi.NoteOnEvent(tick=0, channel=2, data=[71, 100]),\n",
      "   midi.NoteOffEvent(tick=192, channel=2, data=[71, 64]),\n",
      "   midi.NoteOnEvent(tick=0, channel=2, data=[69, 100]),\n",
      "   midi.NoteOffEvent(tick=384, channel=2, data=[69, 64]),\n",
      "   midi.NoteOnEvent(tick=0, channel=2, data=[68, 100]),\n",
      "   midi.NoteOffEvent(tick=384, channel=2, data=[68, 64]),\n",
      "   midi.NoteOnEvent(tick=0, channel=2, data=[66, 100]),\n",
      "   midi.NoteOffEvent(tick=384, channel=2, data=[66, 64]),\n",
      "   midi.NoteOnEvent(tick=1728, channel=2, data=[69, 100]),\n",
      "   midi.NoteOffEvent(tick=192, channel=2, data=[69, 64]),\n",
      "   midi.NoteOnEvent(tick=0, channel=2, data=[74, 100]),\n",
      "   midi.NoteOffEvent(tick=48, channel=2, data=[74, 64]),\n",
      "   midi.NoteOnEvent(tick=0, channel=2, data=[76, 100]),\n",
      "   midi.NoteOffEvent(tick=48, channel=2, data=[76, 64]),\n",
      "   midi.NoteOnEvent(tick=0, channel=2, data=[78, 100]),\n",
      "   midi.NoteOffEvent(tick=256, channel=2, data=[78, 64]),\n",
      "   midi.NoteOnEvent(tick=32, channel=2, data=[76, 100]),\n",
      "   midi.NoteOffEvent(tick=48, channel=2, data=[76, 64]),\n",
      "   midi.NoteOnEvent(tick=0, channel=2, data=[78, 100]),\n",
      "   midi.NoteOffEvent(tick=48, channel=2, data=[78, 64]),\n",
      "   midi.NoteOnEvent(tick=0, channel=2, data=[79, 100]),\n",
      "   midi.NoteOffEvent(tick=256, channel=2, data=[79, 64]),\n",
      "   midi.NoteOnEvent(tick=32, channel=2, data=[78, 100]),\n",
      "   midi.NoteOffEvent(tick=192, channel=2, data=[78, 64]),\n",
      "   midi.NoteOnEvent(tick=0, channel=2, data=[81, 100]),\n",
      "   midi.NoteOffEvent(tick=192, channel=2, data=[81, 64]),\n",
      "   midi.NoteOnEvent(tick=0, channel=2, data=[78, 100]),\n",
      "   midi.NoteOffEvent(tick=192, channel=2, data=[78, 64]),\n",
      "   midi.NoteOnEvent(tick=0, channel=2, data=[74, 100]),\n",
      "   midi.NoteOffEvent(tick=192, channel=2, data=[74, 64]),\n",
      "   midi.NoteOnEvent(tick=768, channel=2, data=[78, 100]),\n",
      "   midi.NoteOffEvent(tick=96, channel=2, data=[78, 64]),\n",
      "   midi.NoteOnEvent(tick=0, channel=2, data=[79, 100]),\n",
      "   midi.NoteOffEvent(tick=96, channel=2, data=[79, 64]),\n",
      "   midi.NoteOnEvent(tick=0, channel=2, data=[81, 100]),\n",
      "   midi.NoteOffEvent(tick=96, channel=2, data=[81, 64]),\n",
      "   midi.NoteOnEvent(tick=96, channel=2, data=[81, 100]),\n",
      "   midi.NoteOffEvent(tick=96, channel=2, data=[81, 64]),\n",
      "   midi.NoteOnEvent(tick=96, channel=2, data=[81, 100]),\n",
      "   midi.NoteOffEvent(tick=96, channel=2, data=[81, 64]),\n",
      "   midi.NoteOnEvent(tick=96, channel=2, data=[81, 100]),\n",
      "   midi.NoteOffEvent(tick=192, channel=2, data=[81, 64]),\n",
      "   midi.NoteOnEvent(tick=1344, channel=2, data=[76, 100]),\n",
      "   midi.NoteOffEvent(tick=864, channel=2, data=[76, 64]),\n",
      "   midi.NoteOnEvent(tick=0, channel=2, data=[78, 100]),\n",
      "   midi.NoteOffEvent(tick=96, channel=2, data=[78, 64]),\n",
      "   midi.NoteOnEvent(tick=0, channel=2, data=[76, 100]),\n",
      "   midi.NoteOffEvent(tick=96, channel=2, data=[76, 64]),\n",
      "   midi.NoteOnEvent(tick=0, channel=2, data=[74, 100]),\n",
      "   midi.NoteOffEvent(tick=96, channel=2, data=[74, 64]),\n",
      "   midi.NoteOnEvent(tick=0, channel=2, data=[73, 100]),\n",
      "   midi.NoteOffEvent(tick=96, channel=2, data=[73, 64]),\n",
      "   midi.NoteOnEvent(tick=0, channel=2, data=[71, 100]),\n",
      "   midi.NoteOffEvent(tick=96, channel=2, data=[71, 64]),\n",
      "   midi.NoteOnEvent(tick=0, channel=2, data=[73, 100]),\n",
      "   midi.NoteOffEvent(tick=96, channel=2, data=[73, 64]),\n",
      "   midi.NoteOnEvent(tick=0, channel=2, data=[69, 100]),\n",
      "   midi.NoteOffEvent(tick=96, channel=2, data=[69, 64]),\n",
      "   midi.NoteOnEvent(tick=0, channel=2, data=[74, 100]),\n",
      "   midi.NoteOffEvent(tick=48, channel=2, data=[74, 64]),\n",
      "   midi.NoteOnEvent(tick=0, channel=2, data=[76, 100]),\n",
      "   midi.NoteOffEvent(tick=48, channel=2, data=[76, 64]),\n",
      "   midi.NoteOnEvent(tick=0, channel=2, data=[78, 100]),\n",
      "   midi.NoteOffEvent(tick=256, channel=2, data=[78, 64]),\n",
      "   midi.NoteOnEvent(tick=32, channel=2, data=[76, 100]),\n",
      "   midi.NoteOffEvent(tick=48, channel=2, data=[76, 64]),\n",
      "   midi.NoteOnEvent(tick=0, channel=2, data=[78, 100]),\n",
      "   midi.NoteOffEvent(tick=48, channel=2, data=[78, 64]),\n",
      "   midi.NoteOnEvent(tick=0, channel=2, data=[79, 100]),\n",
      "   midi.NoteOffEvent(tick=256, channel=2, data=[79, 64]),\n",
      "   midi.NoteOnEvent(tick=32, channel=2, data=[78, 100]),\n",
      "   midi.NoteOffEvent(tick=192, channel=2, data=[78, 64]),\n",
      "   midi.NoteOnEvent(tick=0, channel=2, data=[76, 100]),\n",
      "   midi.NoteOffEvent(tick=192, channel=2, data=[76, 64]),\n",
      "   midi.NoteOnEvent(tick=0, channel=2, data=[74, 100]),\n",
      "   midi.NoteOffEvent(tick=384, channel=2, data=[74, 64]),\n",
      "   midi.NoteOnEvent(tick=1344, channel=2, data=[69, 100]),\n",
      "   midi.NoteOffEvent(tick=192, channel=2, data=[69, 64]),\n",
      "   midi.NoteOnEvent(tick=0, channel=2, data=[74, 100]),\n",
      "   midi.NoteOffEvent(tick=48, channel=2, data=[74, 64]),\n",
      "   midi.NoteOnEvent(tick=0, channel=2, data=[76, 100]),\n",
      "   midi.NoteOffEvent(tick=48, channel=2, data=[76, 64]),\n",
      "   midi.NoteOnEvent(tick=0, channel=2, data=[78, 100]),\n",
      "   midi.NoteOffEvent(tick=256, channel=2, data=[78, 64]),\n",
      "   midi.NoteOnEvent(tick=32, channel=2, data=[76, 100]),\n",
      "   midi.NoteOffEvent(tick=48, channel=2, data=[76, 64]),\n",
      "   midi.NoteOnEvent(tick=0, channel=2, data=[78, 100]),\n",
      "   midi.NoteOffEvent(tick=48, channel=2, data=[78, 64]),\n",
      "   midi.NoteOnEvent(tick=0, channel=2, data=[79, 100]),\n",
      "   midi.NoteOffEvent(tick=256, channel=2, data=[79, 64]),\n",
      "   midi.NoteOnEvent(tick=32, channel=2, data=[78, 100]),\n",
      "   midi.NoteOffEvent(tick=192, channel=2, data=[78, 64]),\n",
      "   midi.NoteOnEvent(tick=0, channel=2, data=[81, 100]),\n",
      "   midi.NoteOffEvent(tick=192, channel=2, data=[81, 64]),\n",
      "   midi.NoteOnEvent(tick=0, channel=2, data=[78, 100]),\n",
      "   midi.NoteOffEvent(tick=192, channel=2, data=[78, 64]),\n",
      "   midi.NoteOnEvent(tick=0, channel=2, data=[74, 100]),\n",
      "   midi.NoteOffEvent(tick=192, channel=2, data=[74, 64]),\n",
      "   midi.NoteOnEvent(tick=0, channel=2, data=[78, 100]),\n",
      "   midi.NoteOffEvent(tick=96, channel=2, data=[78, 64]),\n",
      "   midi.NoteOnEvent(tick=0, channel=2, data=[79, 100]),\n",
      "   midi.NoteOffEvent(tick=96, channel=2, data=[79, 64]),\n",
      "   midi.NoteOnEvent(tick=0, channel=2, data=[81, 100]),\n",
      "   midi.NoteOffEvent(tick=96, channel=2, data=[81, 64]),\n",
      "   midi.NoteOnEvent(tick=96, channel=2, data=[81, 100]),\n",
      "   midi.NoteOffEvent(tick=96, channel=2, data=[81, 64]),\n",
      "   midi.NoteOnEvent(tick=96, channel=2, data=[81, 100]),\n",
      "   midi.NoteOffEvent(tick=96, channel=2, data=[81, 64]),\n",
      "   midi.NoteOnEvent(tick=96, channel=2, data=[81, 100]),\n",
      "   midi.NoteOffEvent(tick=192, channel=2, data=[81, 64]),\n",
      "   midi.NoteOnEvent(tick=0, channel=2, data=[86, 100]),\n",
      "   midi.NoteOffEvent(tick=96, channel=2, data=[86, 64]),\n",
      "   midi.NoteOnEvent(tick=0, channel=2, data=[85, 100]),\n",
      "   midi.NoteOffEvent(tick=96, channel=2, data=[85, 64]),\n",
      "   midi.NoteOnEvent(tick=0, channel=2, data=[86, 100]),\n",
      "   midi.NoteOffEvent(tick=96, channel=2, data=[86, 64]),\n",
      "   midi.NoteOnEvent(tick=0, channel=2, data=[85, 100]),\n",
      "   midi.NoteOffEvent(tick=96, channel=2, data=[85, 64]),\n",
      "   midi.NoteOnEvent(tick=0, channel=2, data=[83, 100]),\n",
      "   midi.NoteOffEvent(tick=96, channel=2, data=[83, 64]),\n",
      "   midi.NoteOnEvent(tick=0, channel=2, data=[81, 100]),\n",
      "   midi.NoteOffEvent(tick=96, channel=2, data=[81, 64]),\n",
      "   midi.NoteOnEvent(tick=0, channel=2, data=[79, 100]),\n",
      "   midi.NoteOffEvent(tick=96, channel=2, data=[79, 64]),\n",
      "   midi.NoteOnEvent(tick=0, channel=2, data=[81, 100]),\n",
      "   midi.NoteOffEvent(tick=96, channel=2, data=[81, 64]),\n",
      "   midi.NoteOnEvent(tick=0, channel=2, data=[83, 100]),\n",
      "   midi.NoteOffEvent(tick=96, channel=2, data=[83, 64]),\n",
      "   midi.NoteOnEvent(tick=96, channel=2, data=[83, 100]),\n",
      "   midi.NoteOffEvent(tick=96, channel=2, data=[83, 64]),\n",
      "   midi.NoteOnEvent(tick=96, channel=2, data=[83, 100]),\n",
      "   midi.NoteOffEvent(tick=96, channel=2, data=[83, 64]),\n",
      "   midi.NoteOnEvent(tick=96, channel=2, data=[83, 100]),\n",
      "   midi.NoteOffEvent(tick=192, channel=2, data=[83, 64]),\n",
      "   midi.NoteOnEvent(tick=0, channel=2, data=[81, 100]),\n",
      "   midi.NoteOffEvent(tick=96, channel=2, data=[81, 64]),\n",
      "   midi.NoteOnEvent(tick=0, channel=2, data=[79, 100]),\n",
      "   midi.NoteOffEvent(tick=96, channel=2, data=[79, 64]),\n",
      "   midi.NoteOnEvent(tick=0, channel=2, data=[81, 100]),\n",
      "   midi.NoteOffEvent(tick=96, channel=2, data=[81, 64]),\n",
      "   midi.NoteOnEvent(tick=0, channel=2, data=[79, 100]),\n",
      "   midi.NoteOffEvent(tick=96, channel=2, data=[79, 64]),\n",
      "   midi.NoteOnEvent(tick=0, channel=2, data=[78, 100]),\n",
      "   midi.NoteOffEvent(tick=96, channel=2, data=[78, 64]),\n",
      "   midi.NoteOnEvent(tick=0, channel=2, data=[76, 100]),\n",
      "   midi.NoteOffEvent(tick=96, channel=2, data=[76, 64]),\n",
      "   midi.NoteOnEvent(tick=0, channel=2, data=[78, 100]),\n",
      "   midi.NoteOffEvent(tick=96, channel=2, data=[78, 64]),\n",
      "   midi.NoteOnEvent(tick=0, channel=2, data=[79, 100]),\n",
      "   midi.NoteOffEvent(tick=96, channel=2, data=[79, 64]),\n",
      "   midi.NoteOnEvent(tick=0, channel=2, data=[81, 100]),\n",
      "   midi.NoteOffEvent(tick=96, channel=2, data=[81, 64]),\n",
      "   midi.NoteOnEvent(tick=0, channel=2, data=[79, 100]),\n",
      "   midi.NoteOffEvent(tick=96, channel=2, data=[79, 64]),\n",
      "   midi.NoteOnEvent(tick=0, channel=2, data=[81, 100]),\n",
      "   midi.NoteOffEvent(tick=96, channel=2, data=[81, 64]),\n",
      "   midi.NoteOnEvent(tick=0, channel=2, data=[79, 100]),\n",
      "   midi.NoteOffEvent(tick=96, channel=2, data=[79, 64]),\n",
      "   midi.NoteOnEvent(tick=0, channel=2, data=[78, 100]),\n",
      "   midi.NoteOffEvent(tick=96, channel=2, data=[78, 64]),\n",
      "   midi.NoteOnEvent(tick=0, channel=2, data=[76, 100]),\n",
      "   midi.NoteOffEvent(tick=96, channel=2, data=[76, 64]),\n",
      "   midi.NoteOnEvent(tick=0, channel=2, data=[74, 100]),\n",
      "   midi.NoteOffEvent(tick=96, channel=2, data=[74, 64]),\n",
      "   midi.NoteOnEvent(tick=0, channel=2, data=[69, 100]),\n",
      "   midi.NoteOffEvent(tick=96, channel=2, data=[69, 64]),\n",
      "   midi.NoteOnEvent(tick=0, channel=2, data=[71, 100]),\n",
      "   midi.NoteOffEvent(tick=96, channel=2, data=[71, 64]),\n",
      "   midi.NoteOnEvent(tick=0, channel=2, data=[72, 100]),\n",
      "   midi.NoteOffEvent(tick=96, channel=2, data=[72, 64]),\n",
      "   midi.NoteOnEvent(tick=0, channel=2, data=[74, 100]),\n",
      "   midi.NoteOffEvent(tick=96, channel=2, data=[74, 64]),\n",
      "   midi.NoteOnEvent(tick=0, channel=2, data=[76, 100]),\n",
      "   midi.NoteOffEvent(tick=96, channel=2, data=[76, 64]),\n",
      "   midi.NoteOnEvent(tick=0, channel=2, data=[78, 100]),\n",
      "   midi.NoteOffEvent(tick=96, channel=2, data=[78, 64]),\n",
      "   midi.NoteOnEvent(tick=0, channel=2, data=[79, 100]),\n",
      "   midi.NoteOffEvent(tick=96, channel=2, data=[79, 64]),\n",
      "   midi.NoteOnEvent(tick=0, channel=2, data=[81, 100]),\n",
      "   midi.NoteOffEvent(tick=96, channel=2, data=[81, 64]),\n",
      "   midi.NoteOnEvent(tick=0, channel=2, data=[83, 100]),\n",
      "   midi.NoteOffEvent(tick=96, channel=2, data=[83, 64]),\n",
      "   midi.NoteOnEvent(tick=0, channel=2, data=[84, 100]),\n",
      "   midi.NoteOffEvent(tick=96, channel=2, data=[84, 64]),\n",
      "   midi.NoteOnEvent(tick=0, channel=2, data=[83, 100]),\n",
      "   midi.NoteOffEvent(tick=96, channel=2, data=[83, 64]),\n",
      "   midi.NoteOnEvent(tick=0, channel=2, data=[84, 100]),\n",
      "   midi.NoteOffEvent(tick=96, channel=2, data=[84, 64]),\n",
      "   midi.NoteOnEvent(tick=0, channel=2, data=[83, 100]),\n",
      "   midi.NoteOffEvent(tick=96, channel=2, data=[83, 64]),\n",
      "   midi.NoteOnEvent(tick=0, channel=2, data=[81, 100]),\n",
      "   midi.NoteOffEvent(tick=96, channel=2, data=[81, 64]),\n",
      "   midi.NoteOnEvent(tick=0, channel=2, data=[79, 100]),\n",
      "   midi.NoteOffEvent(tick=96, channel=2, data=[79, 64]),\n",
      "   midi.NoteOnEvent(tick=0, channel=2, data=[78, 100]),\n",
      "   midi.NoteOffEvent(tick=96, channel=2, data=[78, 64]),\n",
      "   midi.NoteOnEvent(tick=0, channel=2, data=[79, 100]),\n",
      "   midi.NoteOffEvent(tick=96, channel=2, data=[79, 64]),\n",
      "   midi.NoteOnEvent(tick=0, channel=2, data=[78, 100]),\n",
      "   midi.NoteOffEvent(tick=96, channel=2, data=[78, 64]),\n",
      "   midi.NoteOnEvent(tick=0, channel=2, data=[76, 100]),\n",
      "   midi.NoteOffEvent(tick=96, channel=2, data=[76, 64]),\n",
      "   midi.NoteOnEvent(tick=0, channel=2, data=[74, 100]),\n",
      "   midi.NoteOffEvent(tick=96, channel=2, data=[74, 64]),\n",
      "   midi.NoteOnEvent(tick=0, channel=2, data=[72, 100]),\n",
      "   midi.NoteOffEvent(tick=96, channel=2, data=[72, 64]),\n",
      "   midi.NoteOnEvent(tick=0, channel=2, data=[71, 100]),\n",
      "   midi.NoteOffEvent(tick=96, channel=2, data=[71, 64]),\n",
      "   midi.NoteOnEvent(tick=0, channel=2, data=[69, 100]),\n",
      "   midi.NoteOffEvent(tick=96, channel=2, data=[69, 64]),\n",
      "   midi.NoteOnEvent(tick=0, channel=2, data=[71, 100]),\n",
      "   midi.NoteOffEvent(tick=192, channel=2, data=[71, 64]),\n",
      "   midi.NoteOnEvent(tick=0, channel=2, data=[83, 100]),\n",
      "   midi.NoteOffEvent(tick=96, channel=2, data=[83, 64]),\n",
      "   midi.NoteOnEvent(tick=0, channel=2, data=[81, 100]),\n",
      "   midi.NoteOffEvent(tick=96, channel=2, data=[81, 64]),\n",
      "   midi.NoteOnEvent(tick=0, channel=2, data=[79, 100]),\n",
      "   midi.NoteOffEvent(tick=96, channel=2, data=[79, 64]),\n",
      "   midi.NoteOnEvent(tick=0, channel=2, data=[78, 100]),\n",
      "   midi.NoteOffEvent(tick=96, channel=2, data=[78, 64]),\n",
      "   midi.NoteOnEvent(tick=0, channel=2, data=[76, 100]),\n",
      "   midi.NoteOffEvent(tick=96, channel=2, data=[76, 64]),\n",
      "   midi.NoteOnEvent(tick=0, channel=2, data=[74, 100]),\n",
      "   midi.NoteOffEvent(tick=96, channel=2, data=[74, 64]),\n",
      "   midi.NoteOnEvent(tick=0, channel=2, data=[76, 100]),\n",
      "   midi.NoteOffEvent(tick=96, channel=2, data=[76, 64]),\n",
      "   midi.NoteOnEvent(tick=0, channel=2, data=[78, 100]),\n",
      "   midi.NoteOffEvent(tick=96, channel=2, data=[78, 64]),\n",
      "   midi.NoteOnEvent(tick=0, channel=2, data=[76, 100]),\n",
      "   midi.NoteOffEvent(tick=96, channel=2, data=[76, 64]),\n",
      "   midi.NoteOnEvent(tick=0, channel=2, data=[74, 100]),\n",
      "   midi.NoteOffEvent(tick=96, channel=2, data=[74, 64]),\n",
      "   midi.NoteOnEvent(tick=0, channel=2, data=[76, 100]),\n",
      "   midi.NoteOffEvent(tick=96, channel=2, data=[76, 64]),\n",
      "   midi.NoteOnEvent(tick=0, channel=2, data=[74, 100]),\n",
      "   midi.NoteOffEvent(tick=96, channel=2, data=[74, 64]),\n",
      "   midi.NoteOnEvent(tick=0, channel=2, data=[73, 100]),\n",
      "   midi.NoteOffEvent(tick=96, channel=2, data=[73, 64]),\n",
      "   midi.NoteOnEvent(tick=0, channel=2, data=[71, 100]),\n",
      "   midi.NoteOffEvent(tick=96, channel=2, data=[71, 64]),\n",
      "   midi.NoteOnEvent(tick=0, channel=2, data=[69, 100]),\n",
      "   midi.NoteOffEvent(tick=192, channel=2, data=[69, 64]),\n",
      "   midi.NoteOnEvent(tick=0, channel=2, data=[81, 100]),\n",
      "   midi.NoteOffEvent(tick=96, channel=2, data=[81, 64]),\n",
      "   midi.NoteOnEvent(tick=0, channel=2, data=[79, 100]),\n",
      "   midi.NoteOffEvent(tick=96, channel=2, data=[79, 64]),\n",
      "   midi.NoteOnEvent(tick=0, channel=2, data=[78, 100]),\n",
      "   midi.NoteOffEvent(tick=96, channel=2, data=[78, 64]),\n",
      "   midi.NoteOnEvent(tick=0, channel=2, data=[76, 100]),\n",
      "   midi.NoteOffEvent(tick=96, channel=2, data=[76, 64]),\n",
      "   midi.NoteOnEvent(tick=0, channel=2, data=[74, 100]),\n",
      "   midi.NoteOffEvent(tick=96, channel=2, data=[74, 64]),\n",
      "   midi.NoteOnEvent(tick=0, channel=2, data=[73, 100]),\n",
      "   midi.NoteOffEvent(tick=96, channel=2, data=[73, 64]),\n",
      "   midi.NoteOnEvent(tick=0, channel=2, data=[74, 100]),\n",
      "   midi.NoteOffEvent(tick=96, channel=2, data=[74, 64]),\n",
      "   midi.NoteOnEvent(tick=0, channel=2, data=[76, 100]),\n",
      "   midi.NoteOffEvent(tick=96, channel=2, data=[76, 64]),\n",
      "   midi.NoteOnEvent(tick=0, channel=2, data=[74, 100]),\n",
      "   midi.NoteOffEvent(tick=96, channel=2, data=[74, 64]),\n",
      "   midi.NoteOnEvent(tick=0, channel=2, data=[73, 100]),\n",
      "   midi.NoteOffEvent(tick=96, channel=2, data=[73, 64]),\n",
      "   midi.NoteOnEvent(tick=0, channel=2, data=[74, 100]),\n",
      "   midi.NoteOffEvent(tick=96, channel=2, data=[74, 64]),\n",
      "   midi.NoteOnEvent(tick=0, channel=2, data=[73, 100]),\n",
      "   midi.NoteOffEvent(tick=96, channel=2, data=[73, 64]),\n",
      "   midi.NoteOnEvent(tick=0, channel=2, data=[71, 100]),\n",
      "   midi.NoteOffEvent(tick=96, channel=2, data=[71, 64]),\n",
      "   midi.NoteOnEvent(tick=0, channel=2, data=[69, 100]),\n",
      "   midi.NoteOffEvent(tick=96, channel=2, data=[69, 64]),\n",
      "   midi.NoteOnEvent(tick=0, channel=2, data=[67, 100]),\n",
      "   midi.NoteOffEvent(tick=192, channel=2, data=[67, 64]),\n",
      "   midi.NoteOnEvent(tick=0, channel=2, data=[83, 100]),\n",
      "   midi.NoteOffEvent(tick=192, channel=2, data=[83, 64]),\n",
      "   midi.NoteOnEvent(tick=0, channel=2, data=[85, 100]),\n",
      "   midi.NoteOffEvent(tick=192, channel=2, data=[85, 64]),\n",
      "   midi.NoteOnEvent(tick=0, channel=2, data=[86, 100]),\n",
      "   midi.NoteOffEvent(tick=192, channel=2, data=[86, 64]),\n",
      "   midi.NoteOnEvent(tick=0, channel=2, data=[88, 100]),\n",
      "   midi.NoteOffEvent(tick=192, channel=2, data=[88, 64]),\n",
      "   midi.NoteOnEvent(tick=0, channel=2, data=[76, 100]),\n",
      "   midi.NoteOffEvent(tick=96, channel=2, data=[76, 64]),\n",
      "   midi.NoteOnEvent(tick=0, channel=2, data=[78, 100]),\n",
      "   midi.NoteOffEvent(tick=96, channel=2, data=[78, 64]),\n",
      "   midi.NoteOnEvent(tick=0, channel=2, data=[79, 100]),\n",
      "   midi.NoteOffEvent(tick=96, channel=2, data=[79, 64]),\n",
      "   midi.NoteOnEvent(tick=0, channel=2, data=[81, 100]),\n",
      "   midi.NoteOffEvent(tick=96, channel=2, data=[81, 64]),\n",
      "   midi.NoteOnEvent(tick=0, channel=2, data=[83, 100]),\n",
      "   midi.NoteOffEvent(tick=96, channel=2, data=[83, 64]),\n",
      "   midi.NoteOnEvent(tick=0, channel=2, data=[85, 100]),\n",
      "   midi.NoteOffEvent(tick=96, channel=2, data=[85, 64]),\n",
      "   midi.NoteOnEvent(tick=0, channel=2, data=[78, 100]),\n",
      "   midi.NoteOffEvent(tick=192, channel=2, data=[78, 64]),\n",
      "   midi.NoteOnEvent(tick=0, channel=2, data=[81, 100]),\n",
      "   midi.NoteOffEvent(tick=192, channel=2, data=[81, 64]),\n",
      "   midi.NoteOnEvent(tick=0, channel=2, data=[69, 100]),\n",
      "   midi.NoteOffEvent(tick=192, channel=2, data=[69, 64]),\n",
      "   midi.NoteOnEvent(tick=0, channel=2, data=[79, 100]),\n",
      "   midi.NoteOffEvent(tick=192, channel=2, data=[79, 64]),\n",
      "   midi.NoteOnEvent(tick=0, channel=2, data=[74, 100]),\n",
      "   midi.NoteOffEvent(tick=384, channel=2, data=[74, 64]),\n",
      "   midi.NoteOnEvent(tick=1152, channel=2, data=[76, 100]),\n",
      "   midi.NoteOffEvent(tick=96, channel=2, data=[76, 64]),\n",
      "   midi.NoteOnEvent(tick=0, channel=2, data=[78, 100]),\n",
      "   midi.NoteOffEvent(tick=96, channel=2, data=[78, 64]),\n",
      "   midi.NoteOnEvent(tick=0, channel=2, data=[79, 100]),\n",
      "   midi.NoteOffEvent(tick=96, channel=2, data=[79, 64]),\n",
      "   midi.NoteOnEvent(tick=96, channel=2, data=[79, 100]),\n",
      "   midi.NoteOffEvent(tick=96, channel=2, data=[79, 64]),\n",
      "   midi.NoteOnEvent(tick=96, channel=2, data=[76, 100]),\n",
      "   midi.NoteOffEvent(tick=96, channel=2, data=[76, 64]),\n",
      "   midi.NoteOnEvent(tick=96, channel=2, data=[74, 100]),\n",
      "   midi.NoteOffEvent(tick=48, channel=2, data=[74, 64]),\n",
      "   midi.NoteOnEvent(tick=0, channel=2, data=[76, 100]),\n",
      "   midi.NoteOffEvent(tick=48, channel=2, data=[76, 64]),\n",
      "   midi.NoteOnEvent(tick=0, channel=2, data=[78, 100]),\n",
      "   midi.NoteOffEvent(tick=256, channel=2, data=[78, 64]),\n",
      "   midi.NoteOnEvent(tick=32, channel=2, data=[76, 100]),\n",
      "   midi.NoteOffEvent(tick=48, channel=2, data=[76, 64]),\n",
      "   midi.NoteOnEvent(tick=0, channel=2, data=[78, 100]),\n",
      "   midi.NoteOffEvent(tick=48, channel=2, data=[78, 64]),\n",
      "   midi.NoteOnEvent(tick=0, channel=2, data=[79, 100]),\n",
      "   midi.NoteOffEvent(tick=256, channel=2, data=[79, 64]),\n",
      "   midi.NoteOnEvent(tick=32, channel=2, data=[74, 100]),\n",
      "   midi.NoteOffEvent(tick=192, channel=2, data=[74, 64]),\n",
      "   midi.NoteOnEvent(tick=0, channel=2, data=[73, 100]),\n",
      "   midi.NoteOffEvent(tick=192, channel=2, data=[73, 64]),\n",
      "   midi.NoteOnEvent(tick=0, channel=2, data=[74, 100]),\n",
      "   midi.NoteOffEvent(tick=192, channel=2, data=[74, 64]),\n",
      "   midi.NoteOnEvent(tick=384, channel=2, data=[74, 100]),\n",
      "   midi.NoteOffEvent(tick=96, channel=2, data=[74, 64]),\n",
      "   midi.NoteOnEvent(tick=0, channel=2, data=[76, 100]),\n",
      "   midi.NoteOffEvent(tick=96, channel=2, data=[76, 64]),\n",
      "   midi.NoteOnEvent(tick=0, channel=2, data=[78, 100]),\n",
      "   midi.NoteOffEvent(tick=96, channel=2, data=[78, 64]),\n",
      "   midi.NoteOnEvent(tick=0, channel=2, data=[79, 100]),\n",
      "   midi.NoteOffEvent(tick=96, channel=2, data=[79, 64]),\n",
      "   midi.NoteOnEvent(tick=0, channel=2, data=[81, 100]),\n",
      "   midi.NoteOffEvent(tick=192, channel=2, data=[81, 64]),\n",
      "   midi.NoteOnEvent(tick=0, channel=2, data=[81, 100]),\n",
      "   midi.NoteOffEvent(tick=192, channel=2, data=[81, 64]),\n",
      "   midi.NoteOnEvent(tick=384, channel=2, data=[81, 100]),\n",
      "   midi.NoteOffEvent(tick=192, channel=2, data=[81, 64]),\n",
      "   midi.NoteOnEvent(tick=0, channel=2, data=[74, 100]),\n",
      "   midi.NoteOffEvent(tick=192, channel=2, data=[74, 64]),\n",
      "   midi.NoteOnEvent(tick=0, channel=2, data=[79, 100]),\n",
      "   midi.NoteOffEvent(tick=384, channel=2, data=[79, 64]),\n",
      "   midi.NoteOnEvent(tick=0, channel=2, data=[78, 100]),\n",
      "   midi.NoteOffEvent(tick=192, channel=2, data=[78, 64]),\n",
      "   midi.NoteOnEvent(tick=0, channel=2, data=[79, 100]),\n",
      "   midi.NoteOffEvent(tick=192, channel=2, data=[79, 64]),\n",
      "   midi.NoteOnEvent(tick=0, channel=2, data=[78, 100]),\n",
      "   midi.NoteOffEvent(tick=96, channel=2, data=[78, 64]),\n",
      "   midi.NoteOnEvent(tick=0, channel=2, data=[76, 100]),\n",
      "   midi.NoteOffEvent(tick=96, channel=2, data=[76, 64]),\n",
      "   midi.NoteOnEvent(tick=0, channel=2, data=[74, 100]),\n",
      "   midi.NoteOffEvent(tick=1152, channel=2, data=[74, 64]),\n",
      "   midi.NoteOnEvent(tick=0, channel=2, data=[73, 100]),\n",
      "   midi.NoteOffEvent(tick=96, channel=2, data=[73, 64]),\n",
      "   midi.NoteOnEvent(tick=0, channel=2, data=[71, 100]),\n",
      "   midi.NoteOffEvent(tick=96, channel=2, data=[71, 64]),\n",
      "   midi.NoteOnEvent(tick=0, channel=2, data=[69, 100]),\n",
      "   midi.NoteOffEvent(tick=96, channel=2, data=[69, 64]),\n",
      "   midi.NoteOnEvent(tick=0, channel=2, data=[71, 100]),\n",
      "   midi.NoteOffEvent(tick=96, channel=2, data=[71, 64]),\n",
      "   midi.NoteOnEvent(tick=0, channel=2, data=[73, 100]),\n",
      "   midi.NoteOffEvent(tick=192, channel=2, data=[73, 64]),\n",
      "   midi.NoteOnEvent(tick=0, channel=2, data=[74, 100]),\n",
      "   midi.NoteOffEvent(tick=192, channel=2, data=[74, 64]),\n",
      "   midi.NoteOnEvent(tick=0, channel=2, data=[76, 100]),\n",
      "   midi.NoteOffEvent(tick=864, channel=2, data=[76, 64]),\n",
      "   midi.NoteOnEvent(tick=0, channel=2, data=[74, 100]),\n",
      "   midi.NoteOffEvent(tick=96, channel=2, data=[74, 64]),\n",
      "   midi.NoteOnEvent(tick=0, channel=2, data=[73, 100]),\n",
      "   midi.NoteOffEvent(tick=96, channel=2, data=[73, 64]),\n",
      "   midi.NoteOnEvent(tick=0, channel=2, data=[74, 100]),\n",
      "   midi.NoteOffEvent(tick=96, channel=2, data=[74, 64]),\n",
      "   midi.NoteOnEvent(tick=0, channel=2, data=[76, 100]),\n",
      "   midi.NoteOffEvent(tick=192, channel=2, data=[76, 64]),\n",
      "   midi.NoteOnEvent(tick=192, channel=2, data=[69, 100]),\n",
      "   midi.NoteOnEvent(tick=0, channel=2, data=[69, 100]),\n",
      "   midi.NoteOffEvent(tick=192, channel=2, data=[69, 64]),\n",
      "   midi.NoteOffEvent(tick=0, channel=2, data=[69, 64]),\n",
      "   midi.NoteOnEvent(tick=0, channel=2, data=[74, 100]),\n",
      "   midi.NoteOnEvent(tick=0, channel=2, data=[74, 100]),\n",
      "   midi.NoteOffEvent(tick=96, channel=2, data=[74, 64]),\n",
      "   midi.NoteOffEvent(tick=0, channel=2, data=[74, 64]),\n",
      "   midi.NoteOnEvent(tick=0, channel=2, data=[73, 100]),\n",
      "   midi.NoteOnEvent(tick=0, channel=2, data=[73, 100]),\n",
      "   midi.NoteOffEvent(tick=96, channel=2, data=[73, 64]),\n",
      "   midi.NoteOffEvent(tick=0, channel=2, data=[73, 64]),\n",
      "   midi.NoteOnEvent(tick=0, channel=2, data=[74, 100]),\n",
      "   midi.NoteOnEvent(tick=0, channel=2, data=[74, 100]),\n",
      "   midi.NoteOffEvent(tick=96, channel=2, data=[74, 64]),\n",
      "   midi.NoteOffEvent(tick=0, channel=2, data=[74, 64]),\n",
      "   midi.NoteOnEvent(tick=0, channel=2, data=[73, 100]),\n",
      "   midi.NoteOnEvent(tick=0, channel=2, data=[73, 100]),\n",
      "   midi.NoteOffEvent(tick=96, channel=2, data=[73, 64]),\n",
      "   midi.NoteOffEvent(tick=0, channel=2, data=[73, 64]),\n",
      "   midi.NoteOnEvent(tick=0, channel=2, data=[71, 100]),\n",
      "   midi.NoteOnEvent(tick=0, channel=2, data=[71, 100]),\n",
      "   midi.NoteOffEvent(tick=96, channel=2, data=[71, 64]),\n",
      "   midi.NoteOffEvent(tick=0, channel=2, data=[71, 64]),\n",
      "   midi.NoteOnEvent(tick=0, channel=2, data=[73, 100]),\n",
      "   midi.NoteOnEvent(tick=0, channel=2, data=[73, 100]),\n",
      "   midi.NoteOffEvent(tick=96, channel=2, data=[73, 64]),\n",
      "   midi.NoteOffEvent(tick=0, channel=2, data=[73, 64]),\n",
      "   midi.NoteOnEvent(tick=0, channel=2, data=[78, 100]),\n",
      "   midi.NoteOffEvent(tick=96, channel=2, data=[78, 64]),\n",
      "   midi.NoteOnEvent(tick=0, channel=2, data=[76, 100]),\n",
      "   midi.NoteOffEvent(tick=96, channel=2, data=[76, 64]),\n",
      "   midi.NoteOnEvent(tick=0, channel=2, data=[78, 100]),\n",
      "   midi.NoteOffEvent(tick=96, channel=2, data=[78, 64]),\n",
      "   midi.NoteOnEvent(tick=0, channel=2, data=[79, 100]),\n",
      "   midi.NoteOffEvent(tick=96, channel=2, data=[79, 64]),\n",
      "   midi.NoteOnEvent(tick=0, channel=2, data=[81, 100]),\n",
      "   midi.NoteOffEvent(tick=192, channel=2, data=[81, 64]),\n",
      "   midi.NoteOnEvent(tick=0, channel=2, data=[74, 100]),\n",
      "   midi.NoteOffEvent(tick=192, channel=2, data=[74, 64]),\n",
      "   midi.NoteOnEvent(tick=0, channel=2, data=[76, 100]),\n",
      "   midi.NoteOffEvent(tick=384, channel=2, data=[76, 64]),\n",
      "   midi.NoteOnEvent(tick=0, channel=2, data=[73, 100]),\n",
      "   midi.NoteOffEvent(tick=384, channel=2, data=[73, 64]),\n",
      "   midi.NoteOnEvent(tick=0, channel=2, data=[74, 100]),\n",
      "   midi.NoteOffEvent(tick=192, channel=2, data=[74, 64]),\n",
      "   midi.NoteOnEvent(tick=0, channel=2, data=[81, 100]),\n",
      "   midi.NoteOffEvent(tick=192, channel=2, data=[81, 64]),\n",
      "   midi.NoteOnEvent(tick=0, channel=2, data=[78, 100]),\n",
      "   midi.NoteOffEvent(tick=192, channel=2, data=[78, 64]),\n",
      "   midi.NoteOnEvent(tick=0, channel=2, data=[74, 100]),\n",
      "   midi.NoteOffEvent(tick=192, channel=2, data=[74, 64]),\n",
      "   midi.NoteOnEvent(tick=0, channel=2, data=[69, 100]),\n",
      "   midi.NoteOffEvent(tick=192, channel=2, data=[69, 64]),\n",
      "   midi.NoteOnEvent(tick=1152, channel=2, data=[69, 100]),\n",
      "   midi.NoteOffEvent(tick=192, channel=2, data=[69, 64]),\n",
      "   midi.NoteOnEvent(tick=0, channel=2, data=[74, 100]),\n",
      "   midi.NoteOffEvent(tick=48, channel=2, data=[74, 64]),\n",
      "   midi.NoteOnEvent(tick=0, channel=2, data=[76, 100]),\n",
      "   midi.NoteOffEvent(tick=48, channel=2, data=[76, 64]),\n",
      "   midi.NoteOnEvent(tick=0, channel=2, data=[78, 100]),\n",
      "   midi.NoteOffEvent(tick=256, channel=2, data=[78, 64]),\n",
      "   midi.NoteOnEvent(tick=32, channel=2, data=[76, 100]),\n",
      "   midi.NoteOffEvent(tick=48, channel=2, data=[76, 64]),\n",
      "   midi.NoteOnEvent(tick=0, channel=2, data=[78, 100]),\n",
      "   midi.NoteOffEvent(tick=48, channel=2, data=[78, 64]),\n",
      "   midi.NoteOnEvent(tick=0, channel=2, data=[79, 100]),\n",
      "   midi.NoteOffEvent(tick=256, channel=2, data=[79, 64]),\n",
      "   midi.NoteOnEvent(tick=32, channel=2, data=[78, 100]),\n",
      "   midi.NoteOffEvent(tick=192, channel=2, data=[78, 64]),\n",
      "   midi.NoteOnEvent(tick=0, channel=2, data=[81, 100]),\n",
      "   midi.NoteOffEvent(tick=192, channel=2, data=[81, 64]),\n",
      "   midi.NoteOnEvent(tick=0, channel=2, data=[78, 100]),\n",
      "   midi.NoteOffEvent(tick=192, channel=2, data=[78, 64]),\n",
      "   midi.NoteOnEvent(tick=0, channel=2, data=[74, 100]),\n",
      "   midi.NoteOffEvent(tick=192, channel=2, data=[74, 64]),\n",
      "   midi.NoteOnEvent(tick=1344, channel=2, data=[69, 100]),\n",
      "   midi.NoteOffEvent(tick=192, channel=2, data=[69, 64]),\n",
      "   midi.NoteOnEvent(tick=0, channel=2, data=[74, 100]),\n",
      "   midi.NoteOffEvent(tick=48, channel=2, data=[74, 64]),\n",
      "   midi.NoteOnEvent(tick=0, channel=2, data=[76, 100]),\n",
      "   midi.NoteOffEvent(tick=48, channel=2, data=[76, 64]),\n",
      "   midi.NoteOnEvent(tick=0, channel=2, data=[78, 100]),\n",
      "   midi.NoteOffEvent(tick=256, channel=2, data=[78, 64]),\n",
      "   midi.NoteOnEvent(tick=32, channel=2, data=[76, 100]),\n",
      "   midi.NoteOffEvent(tick=48, channel=2, data=[76, 64]),\n",
      "   midi.NoteOnEvent(tick=0, channel=2, data=[78, 100]),\n",
      "   midi.NoteOffEvent(tick=48, channel=2, data=[78, 64]),\n",
      "   midi.NoteOnEvent(tick=0, channel=2, data=[79, 100]),\n",
      "   midi.NoteOffEvent(tick=256, channel=2, data=[79, 64]),\n",
      "   midi.NoteOnEvent(tick=32, channel=2, data=[78, 100]),\n",
      "   midi.NoteOffEvent(tick=192, channel=2, data=[78, 64]),\n",
      "   midi.NoteOnEvent(tick=0, channel=2, data=[81, 100]),\n",
      "   midi.NoteOffEvent(tick=192, channel=2, data=[81, 64]),\n",
      "   midi.NoteOnEvent(tick=0, channel=2, data=[78, 100]),\n",
      "   midi.NoteOffEvent(tick=192, channel=2, data=[78, 64]),\n",
      "   midi.NoteOnEvent(tick=0, channel=2, data=[74, 100]),\n",
      "   midi.NoteOffEvent(tick=192, channel=2, data=[74, 64]),\n",
      "   midi.NoteOnEvent(tick=192, channel=2, data=[78, 100]),\n",
      "   midi.NoteOffEvent(tick=96, channel=2, data=[78, 64]),\n",
      "   midi.NoteOnEvent(tick=0, channel=2, data=[76, 100]),\n",
      "   midi.NoteOffEvent(tick=96, channel=2, data=[76, 64]),\n",
      "   midi.NoteOnEvent(tick=0, channel=2, data=[74, 100]),\n",
      "   midi.NoteOffEvent(tick=96, channel=2, data=[74, 64]),\n",
      "   midi.NoteOnEvent(tick=0, channel=2, data=[73, 100]),\n",
      "   midi.NoteOffEvent(tick=96, channel=2, data=[73, 64]),\n",
      "   midi.NoteOnEvent(tick=0, channel=2, data=[71, 100]),\n",
      "   midi.NoteOffEvent(tick=96, channel=2, data=[71, 64]),\n",
      "   midi.NoteOnEvent(tick=0, channel=2, data=[69, 100]),\n",
      "   midi.NoteOffEvent(tick=96, channel=2, data=[69, 64]),\n",
      "   midi.NoteOnEvent(tick=0, channel=2, data=[71, 100]),\n",
      "   midi.NoteOffEvent(tick=192, channel=2, data=[71, 64]),\n",
      "   midi.NoteOnEvent(tick=0, channel=2, data=[83, 100]),\n",
      "   midi.NoteOffEvent(tick=96, channel=2, data=[83, 64]),\n",
      "   midi.NoteOnEvent(tick=0, channel=2, data=[81, 100]),\n",
      "   midi.NoteOffEvent(tick=96, channel=2, data=[81, 64]),\n",
      "   midi.NoteOnEvent(tick=0, channel=2, data=[83, 100]),\n",
      "   midi.NoteOffEvent(tick=96, channel=2, data=[83, 64]),\n",
      "   midi.NoteOnEvent(tick=0, channel=2, data=[81, 100]),\n",
      "   midi.NoteOffEvent(tick=96, channel=2, data=[81, 64]),\n",
      "   midi.NoteOnEvent(tick=0, channel=2, data=[80, 100]),\n",
      "   midi.NoteOffEvent(tick=96, channel=2, data=[80, 64]),\n",
      "   midi.NoteOnEvent(tick=0, channel=2, data=[78, 100]),\n",
      "   midi.NoteOffEvent(tick=96, channel=2, data=[78, 64]),\n",
      "   midi.NoteOnEvent(tick=0, channel=2, data=[76, 100]),\n",
      "   midi.NoteOffEvent(tick=96, channel=2, data=[76, 64]),\n",
      "   midi.NoteOnEvent(tick=0, channel=2, data=[78, 100]),\n",
      "   midi.NoteOffEvent(tick=96, channel=2, data=[78, 64]),\n",
      "   midi.NoteOnEvent(tick=0, channel=2, data=[76, 100]),\n",
      "   midi.NoteOffEvent(tick=96, channel=2, data=[76, 64]),\n",
      "   midi.NoteOnEvent(tick=0, channel=2, data=[74, 100]),\n",
      "   midi.NoteOffEvent(tick=96, channel=2, data=[74, 64]),\n",
      "   midi.NoteOnEvent(tick=0, channel=2, data=[73, 100]),\n",
      "   midi.NoteOffEvent(tick=96, channel=2, data=[73, 64]),\n",
      "   midi.NoteOnEvent(tick=0, channel=2, data=[71, 100]),\n",
      "   midi.NoteOffEvent(tick=96, channel=2, data=[71, 64]),\n",
      "   midi.NoteOnEvent(tick=0, channel=2, data=[69, 100]),\n",
      "   midi.NoteOffEvent(tick=96, channel=2, data=[69, 64]),\n",
      "   midi.NoteOnEvent(tick=0, channel=2, data=[68, 100]),\n",
      "   midi.NoteOffEvent(tick=96, channel=2, data=[68, 64]),\n",
      "   midi.NoteOnEvent(tick=0, channel=2, data=[69, 100]),\n",
      "   midi.NoteOffEvent(tick=192, channel=2, data=[69, 64]),\n",
      "   midi.NoteOnEvent(tick=0, channel=2, data=[81, 100]),\n",
      "   midi.NoteOffEvent(tick=96, channel=2, data=[81, 64]),\n",
      "   midi.NoteOnEvent(tick=0, channel=2, data=[80, 100]),\n",
      "   midi.NoteOffEvent(tick=96, channel=2, data=[80, 64]),\n",
      "   midi.NoteOnEvent(tick=0, channel=2, data=[81, 100]),\n",
      "   midi.NoteOffEvent(tick=96, channel=2, data=[81, 64]),\n",
      "   midi.NoteOnEvent(tick=0, channel=2, data=[80, 100]),\n",
      "   midi.NoteOffEvent(tick=96, channel=2, data=[80, 64]),\n",
      "   midi.NoteOnEvent(tick=0, channel=2, data=[78, 100]),\n",
      "   midi.NoteOffEvent(tick=96, channel=2, data=[78, 64]),\n",
      "   midi.NoteOnEvent(tick=0, channel=2, data=[76, 100]),\n",
      "   midi.NoteOffEvent(tick=96, channel=2, data=[76, 64]),\n",
      "   midi.NoteOnEvent(tick=0, channel=2, data=[74, 100]),\n",
      "   midi.NoteOffEvent(tick=96, channel=2, data=[74, 64]),\n",
      "   midi.NoteOnEvent(tick=0, channel=2, data=[73, 100]),\n",
      "   midi.NoteOffEvent(tick=96, channel=2, data=[73, 64]),\n",
      "   midi.NoteOnEvent(tick=0, channel=2, data=[74, 100]),\n",
      "   midi.NoteOffEvent(tick=96, channel=2, data=[74, 64]),\n",
      "   midi.NoteOnEvent(tick=0, channel=2, data=[76, 100]),\n",
      "   midi.NoteOffEvent(tick=96, channel=2, data=[76, 64]),\n",
      "   midi.NoteOnEvent(tick=0, channel=2, data=[74, 100]),\n",
      "   midi.NoteOffEvent(tick=96, channel=2, data=[74, 64]),\n",
      "   midi.NoteOnEvent(tick=0, channel=2, data=[73, 100]),\n",
      "   midi.NoteOffEvent(tick=96, channel=2, data=[73, 64]),\n",
      "   midi.NoteOnEvent(tick=0, channel=2, data=[71, 100]),\n",
      "   midi.NoteOffEvent(tick=96, channel=2, data=[71, 64]),\n",
      "   midi.NoteOnEvent(tick=0, channel=2, data=[69, 100]),\n",
      "   midi.NoteOffEvent(tick=96, channel=2, data=[69, 64]),\n",
      "   midi.NoteOnEvent(tick=0, channel=2, data=[76, 100]),\n",
      "   midi.NoteOffEvent(tick=896, channel=2, data=[76, 64]),\n",
      "   midi.NoteOnEvent(tick=64, channel=2, data=[74, 100]),\n",
      "   midi.NoteOffEvent(tick=96, channel=2, data=[74, 64]),\n",
      "   midi.NoteOnEvent(tick=0, channel=2, data=[73, 100]),\n",
      "   midi.NoteOffEvent(tick=96, channel=2, data=[73, 64]),\n",
      "   midi.NoteOnEvent(tick=0, channel=2, data=[74, 100]),\n",
      "   midi.NoteOffEvent(tick=96, channel=2, data=[74, 64]),\n",
      "   midi.NoteOnEvent(tick=0, channel=2, data=[73, 100]),\n",
      "   midi.NoteOffEvent(tick=96, channel=2, data=[73, 64]),\n",
      "   midi.NoteOnEvent(tick=0, channel=2, data=[71, 100]),\n",
      "   midi.NoteOffEvent(tick=96, channel=2, data=[71, 64]),\n",
      "   midi.NoteOnEvent(tick=0, channel=2, data=[73, 100]),\n",
      "   midi.NoteOffEvent(tick=96, channel=2, data=[73, 64]),\n",
      "   midi.NoteOnEvent(tick=0, channel=2, data=[69, 100]),\n",
      "   midi.NoteOffEvent(tick=768, channel=2, data=[69, 64]),\n",
      "   midi.EndOfTrackEvent(tick=0, data=[])]),\n",
      " midi.Track(\\\n",
      "  [midi.TrackNameEvent(tick=0, text='Oboe I', data=[79, 98, 111, 101, 32, 73]),\n",
      "   midi.ControlChangeEvent(tick=0, channel=3, data=[0, 0]),\n",
      "   midi.ProgramChangeEvent(tick=0, channel=3, data=[68]),\n",
      "   midi.ControlChangeEvent(tick=0, channel=3, data=[7, 100]),\n",
      "   midi.ControlChangeEvent(tick=0, channel=3, data=[10, 64]),\n",
      "   midi.ControlChangeEvent(tick=0, channel=3, data=[91, 127]),\n",
      "   midi.ControlChangeEvent(tick=0, channel=3, data=[93, 127]),\n",
      "   midi.KeySignatureEvent(tick=0, data=[2, 0]),\n",
      "   midi.NoteOnEvent(tick=2112, channel=3, data=[69, 100]),\n",
      "   midi.NoteOffEvent(tick=192, channel=3, data=[69, 64]),\n",
      "   midi.NoteOnEvent(tick=0, channel=3, data=[74, 100]),\n",
      "   midi.NoteOffEvent(tick=48, channel=3, data=[74, 64]),\n",
      "   midi.NoteOnEvent(tick=0, channel=3, data=[76, 100]),\n",
      "   midi.NoteOffEvent(tick=48, channel=3, data=[76, 64]),\n",
      "   midi.NoteOnEvent(tick=0, channel=3, data=[78, 100]),\n",
      "   midi.NoteOffEvent(tick=256, channel=3, data=[78, 64]),\n",
      "   midi.NoteOnEvent(tick=32, channel=3, data=[76, 100]),\n",
      "   midi.NoteOffEvent(tick=48, channel=3, data=[76, 64]),\n",
      "   midi.NoteOnEvent(tick=0, channel=3, data=[78, 100]),\n",
      "   midi.NoteOffEvent(tick=48, channel=3, data=[78, 64]),\n",
      "   midi.NoteOnEvent(tick=0, channel=3, data=[79, 100]),\n",
      "   midi.NoteOffEvent(tick=256, channel=3, data=[79, 64]),\n",
      "   midi.NoteOnEvent(tick=32, channel=3, data=[78, 100]),\n",
      "   midi.NoteOffEvent(tick=192, channel=3, data=[78, 64]),\n",
      "   midi.NoteOnEvent(tick=0, channel=3, data=[81, 100]),\n",
      "   midi.NoteOffEvent(tick=192, channel=3, data=[81, 64]),\n",
      "   midi.NoteOnEvent(tick=0, channel=3, data=[78, 100]),\n",
      "   midi.NoteOffEvent(tick=192, channel=3, data=[78, 64]),\n",
      "   midi.NoteOnEvent(tick=0, channel=3, data=[74, 100]),\n",
      "   midi.NoteOffEvent(tick=192, channel=3, data=[74, 64]),\n",
      "   midi.NoteOnEvent(tick=1344, channel=3, data=[69, 100]),\n",
      "   midi.NoteOffEvent(tick=192, channel=3, data=[69, 64]),\n",
      "   midi.NoteOnEvent(tick=0, channel=3, data=[74, 100]),\n",
      "   midi.NoteOffEvent(tick=48, channel=3, data=[74, 64]),\n",
      "   midi.NoteOnEvent(tick=0, channel=3, data=[76, 100]),\n",
      "   midi.NoteOffEvent(tick=48, channel=3, data=[76, 64]),\n",
      "   midi.NoteOnEvent(tick=0, channel=3, data=[78, 100]),\n",
      "   midi.NoteOffEvent(tick=256, channel=3, data=[78, 64]),\n",
      "   midi.NoteOnEvent(tick=32, channel=3, data=[76, 100]),\n",
      "   midi.NoteOffEvent(tick=48, channel=3, data=[76, 64]),\n",
      "   midi.NoteOnEvent(tick=0, channel=3, data=[78, 100]),\n",
      "   midi.NoteOffEvent(tick=48, channel=3, data=[78, 64]),\n",
      "   midi.NoteOnEvent(tick=0, channel=3, data=[79, 100]),\n",
      "   midi.NoteOffEvent(tick=256, channel=3, data=[79, 64]),\n",
      "   midi.NoteOnEvent(tick=32, channel=3, data=[78, 100]),\n",
      "   midi.NoteOffEvent(tick=192, channel=3, data=[78, 64]),\n",
      "   midi.NoteOnEvent(tick=0, channel=3, data=[81, 100]),\n",
      "   midi.NoteOffEvent(tick=192, channel=3, data=[81, 64]),\n",
      "   midi.NoteOnEvent(tick=0, channel=3, data=[78, 100]),\n",
      "   midi.NoteOffEvent(tick=192, channel=3, data=[78, 64]),\n",
      "   midi.NoteOnEvent(tick=0, channel=3, data=[74, 100]),\n",
      "   midi.NoteOffEvent(tick=192, channel=3, data=[74, 64]),\n",
      "   midi.NoteOnEvent(tick=960, channel=3, data=[83, 100]),\n",
      "   midi.NoteOffEvent(tick=96, channel=3, data=[83, 64]),\n",
      "   midi.NoteOnEvent(tick=0, channel=3, data=[81, 100]),\n",
      "   midi.NoteOffEvent(tick=96, channel=3, data=[81, 64]),\n",
      "   midi.NoteOnEvent(tick=0, channel=3, data=[83, 100]),\n",
      "   midi.NoteOffEvent(tick=96, channel=3, data=[83, 64]),\n",
      "   midi.NoteOnEvent(tick=0, channel=3, data=[81, 100]),\n",
      "   midi.NoteOffEvent(tick=96, channel=3, data=[81, 64]),\n",
      "   midi.NoteOnEvent(tick=0, channel=3, data=[80, 100]),\n",
      "   midi.NoteOffEvent(tick=96, channel=3, data=[80, 64]),\n",
      "   midi.NoteOnEvent(tick=0, channel=3, data=[78, 100]),\n",
      "   midi.NoteOffEvent(tick=96, channel=3, data=[78, 64]),\n",
      "   midi.NoteOnEvent(tick=0, channel=3, data=[76, 100]),\n",
      "   midi.NoteOffEvent(tick=192, channel=3, data=[76, 64]),\n",
      "   midi.NoteOnEvent(tick=768, channel=3, data=[81, 100]),\n",
      "   midi.NoteOffEvent(tick=96, channel=3, data=[81, 64]),\n",
      "   midi.NoteOnEvent(tick=0, channel=3, data=[80, 100]),\n",
      "   midi.NoteOffEvent(tick=96, channel=3, data=[80, 64]),\n",
      "   midi.NoteOnEvent(tick=0, channel=3, data=[81, 100]),\n",
      "   midi.NoteOffEvent(tick=96, channel=3, data=[81, 64]),\n",
      "   midi.NoteOnEvent(tick=0, channel=3, data=[80, 100]),\n",
      "   midi.NoteOffEvent(tick=96, channel=3, data=[80, 64]),\n",
      "   midi.NoteOnEvent(tick=0, channel=3, data=[78, 100]),\n",
      "   midi.NoteOffEvent(tick=96, channel=3, data=[78, 64]),\n",
      "   midi.NoteOnEvent(tick=0, channel=3, data=[76, 100]),\n",
      "   midi.NoteOffEvent(tick=96, channel=3, data=[76, 64]),\n",
      "   midi.NoteOnEvent(tick=0, channel=3, data=[74, 100]),\n",
      "   midi.NoteOffEvent(tick=192, channel=3, data=[74, 64]),\n",
      "   midi.NoteOnEvent(tick=0, channel=3, data=[78, 100]),\n",
      "   midi.NoteOffEvent(tick=192, channel=3, data=[78, 64]),\n",
      "   midi.NoteOnEvent(tick=0, channel=3, data=[80, 100]),\n",
      "   midi.NoteOffEvent(tick=192, channel=3, data=[80, 64]),\n",
      "   midi.NoteOnEvent(tick=0, channel=3, data=[81, 100]),\n",
      "   midi.NoteOffEvent(tick=192, channel=3, data=[81, 64]),\n",
      "   midi.NoteOnEvent(tick=0, channel=3, data=[83, 100]),\n",
      "   midi.NoteOffEvent(tick=192, channel=3, data=[83, 64]),\n",
      "   midi.NoteOnEvent(tick=0, channel=3, data=[71, 100]),\n",
      "   midi.NoteOffEvent(tick=96, channel=3, data=[71, 64]),\n",
      "   midi.NoteOnEvent(tick=0, channel=3, data=[73, 100]),\n",
      "   midi.NoteOffEvent(tick=96, channel=3, data=[73, 64]),\n",
      "   midi.NoteOnEvent(tick=0, channel=3, data=[74, 100]),\n",
      "   midi.NoteOffEvent(tick=96, channel=3, data=[74, 64]),\n",
      "   midi.NoteOnEvent(tick=0, channel=3, data=[76, 100]),\n",
      "   midi.NoteOffEvent(tick=96, channel=3, data=[76, 64]),\n",
      "   midi.NoteOnEvent(tick=0, channel=3, data=[78, 100]),\n",
      "   midi.NoteOffEvent(tick=96, channel=3, data=[78, 64]),\n",
      "   midi.NoteOnEvent(tick=0, channel=3, data=[80, 100]),\n",
      "   midi.NoteOffEvent(tick=96, channel=3, data=[80, 64]),\n",
      "   midi.NoteOnEvent(tick=0, channel=3, data=[81, 100]),\n",
      "   midi.NoteOffEvent(tick=96, channel=3, data=[81, 64]),\n",
      "   midi.NoteOnEvent(tick=0, channel=3, data=[76, 100]),\n",
      "   midi.NoteOffEvent(tick=96, channel=3, data=[76, 64]),\n",
      "   midi.NoteOnEvent(tick=0, channel=3, data=[74, 100]),\n",
      "   midi.NoteOffEvent(tick=96, channel=3, data=[74, 64]),\n",
      "   midi.NoteOnEvent(tick=0, channel=3, data=[73, 100]),\n",
      "   midi.NoteOffEvent(tick=96, channel=3, data=[73, 64]),\n",
      "   midi.NoteOnEvent(tick=0, channel=3, data=[74, 100]),\n",
      "   midi.NoteOffEvent(tick=96, channel=3, data=[74, 64]),\n",
      "   midi.NoteOnEvent(tick=0, channel=3, data=[73, 100]),\n",
      "   midi.NoteOffEvent(tick=96, channel=3, data=[73, 64]),\n",
      "   midi.NoteOnEvent(tick=0, channel=3, data=[71, 100]),\n",
      "   midi.NoteOffEvent(tick=96, channel=3, data=[71, 64]),\n",
      "   midi.NoteOnEvent(tick=0, channel=3, data=[73, 100]),\n",
      "   midi.NoteOffEvent(tick=96, channel=3, data=[73, 64]),\n",
      "   midi.NoteOnEvent(tick=0, channel=3, data=[69, 100]),\n",
      "   midi.NoteOffEvent(tick=480, channel=3, data=[69, 64]),\n",
      "   midi.NoteOnEvent(tick=0, channel=3, data=[64, 100]),\n",
      "   midi.NoteOffEvent(tick=96, channel=3, data=[64, 64]),\n",
      "   midi.NoteOnEvent(tick=0, channel=3, data=[69, 100]),\n",
      "   midi.NoteOffEvent(tick=96, channel=3, data=[69, 64]),\n",
      "   midi.NoteOnEvent(tick=0, channel=3, data=[71, 100]),\n",
      "   midi.NoteOffEvent(tick=96, channel=3, data=[71, 64]),\n",
      "   midi.NoteOnEvent(tick=0, channel=3, data=[73, 100]),\n",
      "   midi.NoteOffEvent(tick=96, channel=3, data=[73, 64]),\n",
      "   midi.NoteOnEvent(tick=0, channel=3, data=[74, 100]),\n",
      "   midi.NoteOffEvent(tick=96, channel=3, data=[74, 64]),\n",
      "   midi.NoteOnEvent(tick=0, channel=3, data=[76, 100]),\n",
      "   midi.NoteOffEvent(tick=96, channel=3, data=[76, 64]),\n",
      "   midi.NoteOnEvent(tick=96, channel=3, data=[76, 100]),\n",
      "   midi.NoteOffEvent(tick=96, channel=3, data=[76, 64]),\n",
      "   midi.NoteOnEvent(tick=96, channel=3, data=[76, 100]),\n",
      "   midi.NoteOffEvent(tick=96, channel=3, data=[76, 64]),\n",
      "   midi.NoteOnEvent(tick=96, channel=3, data=[76, 100]),\n",
      "   midi.NoteOffEvent(tick=864, channel=3, data=[76, 64]),\n",
      "   midi.NoteOnEvent(tick=0, channel=3, data=[79, 100]),\n",
      "   midi.NoteOffEvent(tick=96, channel=3, data=[79, 64]),\n",
      "   midi.NoteOnEvent(tick=0, channel=3, data=[78, 100]),\n",
      "   midi.NoteOffEvent(tick=96, channel=3, data=[78, 64]),\n",
      "   midi.NoteOnEvent(tick=0, channel=3, data=[76, 100]),\n",
      "   midi.NoteOffEvent(tick=96, channel=3, data=[76, 64]),\n",
      "   midi.NoteOnEvent(tick=0, channel=3, data=[78, 100]),\n",
      "   midi.NoteOffEvent(tick=96, channel=3, data=[78, 64]),\n",
      "   midi.NoteOnEvent(tick=0, channel=3, data=[76, 100]),\n",
      "   midi.NoteOffEvent(tick=96, channel=3, data=[76, 64]),\n",
      "   midi.NoteOnEvent(tick=0, channel=3, data=[74, 100]),\n",
      "   midi.NoteOffEvent(tick=96, channel=3, data=[74, 64]),\n",
      "   midi.NoteOnEvent(tick=0, channel=3, data=[73, 100]),\n",
      "   midi.NoteOffEvent(tick=96, channel=3, data=[73, 64]),\n",
      "   midi.NoteOnEvent(tick=0, channel=3, data=[74, 100]),\n",
      "   midi.NoteOffEvent(tick=96, channel=3, data=[74, 64]),\n",
      "   midi.NoteOnEvent(tick=0, channel=3, data=[76, 100]),\n",
      "   midi.NoteOffEvent(tick=96, channel=3, data=[76, 64]),\n",
      "   midi.NoteOnEvent(tick=0, channel=3, data=[74, 100]),\n",
      "   midi.NoteOffEvent(tick=96, channel=3, data=[74, 64]),\n",
      "   midi.NoteOnEvent(tick=0, channel=3, data=[73, 100]),\n",
      "   midi.NoteOffEvent(tick=96, channel=3, data=[73, 64]),\n",
      "   midi.NoteOnEvent(tick=0, channel=3, data=[71, 100]),\n",
      "   midi.NoteOffEvent(tick=96, channel=3, data=[71, 64]),\n",
      "   midi.NoteOnEvent(tick=0, channel=3, data=[73, 100]),\n",
      "   midi.NoteOffEvent(tick=96, channel=3, data=[73, 64]),\n",
      "   midi.NoteOnEvent(tick=0, channel=3, data=[74, 100]),\n",
      "   midi.NoteOffEvent(tick=96, channel=3, data=[74, 64]),\n",
      "   midi.NoteOnEvent(tick=0, channel=3, data=[76, 100]),\n",
      "   midi.NoteOffEvent(tick=96, channel=3, data=[76, 64]),\n",
      "   midi.NoteOnEvent(tick=0, channel=3, data=[78, 100]),\n",
      "   midi.NoteOffEvent(tick=192, channel=3, data=[78, 64]),\n",
      "   midi.NoteOnEvent(tick=0, channel=3, data=[81, 100]),\n",
      "   midi.NoteOffEvent(tick=192, channel=3, data=[81, 64]),\n",
      "   midi.NoteOnEvent(tick=0, channel=3, data=[78, 100]),\n",
      "   midi.NoteOffEvent(tick=192, channel=3, data=[78, 64]),\n",
      "   midi.NoteOnEvent(tick=0, channel=3, data=[75, 100]),\n",
      "   midi.NoteOffEvent(tick=192, channel=3, data=[75, 64]),\n",
      "   midi.NoteOnEvent(tick=0, channel=3, data=[84, 100]),\n",
      "   midi.NoteOffEvent(tick=192, channel=3, data=[84, 64]),\n",
      "   midi.NoteOnEvent(tick=0, channel=3, data=[81, 100]),\n",
      "   midi.NoteOffEvent(tick=192, channel=3, data=[81, 64]),\n",
      "   midi.NoteOnEvent(tick=576, channel=3, data=[83, 100]),\n",
      "   midi.NoteOffEvent(tick=256, channel=3, data=[83, 64]),\n",
      "   midi.NoteOnEvent(tick=32, channel=3, data=[81, 100]),\n",
      "   midi.NoteOffEvent(tick=96, channel=3, data=[81, 64]),\n",
      "   midi.NoteOnEvent(tick=0, channel=3, data=[79, 100]),\n",
      "   midi.NoteOffEvent(tick=96, channel=3, data=[79, 64]),\n",
      "   midi.NoteOnEvent(tick=0, channel=3, data=[78, 100]),\n",
      "   midi.NoteOffEvent(tick=96, channel=3, data=[78, 64]),\n",
      "   midi.NoteOnEvent(tick=0, channel=3, data=[79, 100]),\n",
      "   midi.NoteOffEvent(tick=192, channel=3, data=[79, 64]),\n",
      "   midi.NoteOnEvent(tick=0, channel=3, data=[83, 100]),\n",
      "   midi.NoteOffEvent(tick=192, channel=3, data=[83, 64]),\n",
      "   midi.NoteOnEvent(tick=0, channel=3, data=[79, 100]),\n",
      "   midi.NoteOffEvent(tick=192, channel=3, data=[79, 64]),\n",
      "   midi.NoteOnEvent(tick=0, channel=3, data=[76, 100]),\n",
      "   midi.NoteOffEvent(tick=192, channel=3, data=[76, 64]),\n",
      "   midi.NoteOnEvent(tick=576, channel=3, data=[79, 100]),\n",
      "   midi.NoteOffEvent(tick=384, channel=3, data=[79, 64]),\n",
      "   midi.NoteOnEvent(tick=0, channel=3, data=[73, 100]),\n",
      "   midi.NoteOffEvent(tick=192, channel=3, data=[73, 64]),\n",
      "   midi.NoteOnEvent(tick=0, channel=3, data=[69, 100]),\n",
      "   midi.NoteOffEvent(tick=192, channel=3, data=[69, 64]),\n",
      "   midi.NoteOnEvent(tick=0, channel=3, data=[79, 100]),\n",
      "   midi.NoteOffEvent(tick=192, channel=3, data=[79, 64]),\n",
      "   midi.NoteOnEvent(tick=0, channel=3, data=[78, 100]),\n",
      "   midi.NoteOffEvent(tick=192, channel=3, data=[78, 64]),\n",
      "   midi.NoteOnEvent(tick=0, channel=3, data=[74, 100]),\n",
      "   midi.NoteOffEvent(tick=192, channel=3, data=[74, 64]),\n",
      "   midi.NoteOnEvent(tick=192, channel=3, data=[78, 100]),\n",
      "   midi.NoteOffEvent(tick=384, channel=3, data=[78, 64]),\n",
      "   midi.NoteOnEvent(tick=0, channel=3, data=[67, 100]),\n",
      "   midi.NoteOffEvent(tick=192, channel=3, data=[67, 64]),\n",
      "   midi.NoteOnEvent(tick=0, channel=3, data=[71, 100]),\n",
      "   midi.NoteOffEvent(tick=192, channel=3, data=[71, 64]),\n",
      "   midi.NoteOnEvent(tick=0, channel=3, data=[74, 100]),\n",
      "   midi.NoteOffEvent(tick=192, channel=3, data=[74, 64]),\n",
      "   midi.NoteOnEvent(tick=0, channel=3, data=[79, 100]),\n",
      "   midi.NoteOffEvent(tick=96, channel=3, data=[79, 64]),\n",
      "   midi.NoteOnEvent(tick=0, channel=3, data=[78, 100]),\n",
      "   midi.NoteOffEvent(tick=96, channel=3, data=[78, 64]),\n",
      "   midi.NoteOnEvent(tick=0, channel=3, data=[76, 100]),\n",
      "   midi.NoteOffEvent(tick=96, channel=3, data=[76, 64]),\n",
      "   midi.NoteOnEvent(tick=0, channel=3, data=[78, 100]),\n",
      "   midi.NoteOffEvent(tick=96, channel=3, data=[78, 64]),\n",
      "   midi.NoteOnEvent(tick=0, channel=3, data=[79, 100]),\n",
      "   midi.NoteOffEvent(tick=96, channel=3, data=[79, 64]),\n",
      "   midi.NoteOnEvent(tick=0, channel=3, data=[78, 100]),\n",
      "   midi.NoteOffEvent(tick=96, channel=3, data=[78, 64]),\n",
      "   midi.NoteOnEvent(tick=0, channel=3, data=[76, 100]),\n",
      "   midi.NoteOffEvent(tick=96, channel=3, data=[76, 64]),\n",
      "   midi.NoteOnEvent(tick=0, channel=3, data=[78, 100]),\n",
      "   midi.NoteOffEvent(tick=96, channel=3, data=[78, 64]),\n",
      "   midi.NoteOnEvent(tick=0, channel=3, data=[79, 100]),\n",
      "   midi.NoteOffEvent(tick=512, channel=3, data=[79, 64]),\n",
      "   midi.NoteOnEvent(tick=64, channel=3, data=[78, 100]),\n",
      "   midi.NoteOffEvent(tick=96, channel=3, data=[78, 64]),\n",
      "   midi.NoteOnEvent(tick=0, channel=3, data=[76, 100]),\n",
      "   midi.NoteOffEvent(tick=96, channel=3, data=[76, 64]),\n",
      "   midi.NoteOnEvent(tick=0, channel=3, data=[78, 100]),\n",
      "   midi.NoteOffEvent(tick=96, channel=3, data=[78, 64]),\n",
      "   midi.NoteOnEvent(tick=0, channel=3, data=[81, 100]),\n",
      "   midi.NoteOffEvent(tick=96, channel=3, data=[81, 64]),\n",
      "   midi.NoteOnEvent(tick=0, channel=3, data=[79, 100]),\n",
      "   midi.NoteOffEvent(tick=96, channel=3, data=[79, 64]),\n",
      "   midi.NoteOnEvent(tick=0, channel=3, data=[78, 100]),\n",
      "   midi.NoteOffEvent(tick=96, channel=3, data=[78, 64]),\n",
      "   midi.NoteOnEvent(tick=0, channel=3, data=[79, 100]),\n",
      "   midi.NoteOffEvent(tick=96, channel=3, data=[79, 64]),\n",
      "   midi.NoteOnEvent(tick=0, channel=3, data=[78, 100]),\n",
      "   midi.NoteOffEvent(tick=96, channel=3, data=[78, 64]),\n",
      "   midi.NoteOnEvent(tick=0, channel=3, data=[76, 100]),\n",
      "   midi.NoteOffEvent(tick=96, channel=3, data=[76, 64]),\n",
      "   midi.NoteOnEvent(tick=0, channel=3, data=[78, 100]),\n",
      "   midi.NoteOffEvent(tick=96, channel=3, data=[78, 64]),\n",
      "   midi.NoteOnEvent(tick=0, channel=3, data=[74, 100]),\n",
      "   midi.NoteOffEvent(tick=384, channel=3, data=[74, 64]),\n",
      "   midi.NoteOnEvent(tick=1152, channel=3, data=[74, 100]),\n",
      "   midi.NoteOffEvent(tick=96, channel=3, data=[74, 64]),\n",
      "   midi.NoteOnEvent(tick=0, channel=3, data=[76, 100]),\n",
      "   midi.NoteOffEvent(tick=96, channel=3, data=[76, 64]),\n",
      "   midi.NoteOnEvent(tick=0, channel=3, data=[78, 100]),\n",
      "   midi.NoteOffEvent(tick=96, channel=3, data=[78, 64]),\n",
      "   midi.NoteOnEvent(tick=96, channel=3, data=[78, 100]),\n",
      "   midi.NoteOffEvent(tick=96, channel=3, data=[78, 64]),\n",
      "   midi.NoteOnEvent(tick=96, channel=3, data=[78, 100]),\n",
      "   midi.NoteOffEvent(tick=96, channel=3, data=[78, 64]),\n",
      "   midi.NoteOnEvent(tick=96, channel=3, data=[78, 100]),\n",
      "   midi.NoteOffEvent(tick=192, channel=3, data=[78, 64]),\n",
      "   midi.NoteOnEvent(tick=2112, channel=3, data=[73, 100]),\n",
      "   midi.NoteOffEvent(tick=96, channel=3, data=[73, 64]),\n",
      "   midi.NoteOnEvent(tick=0, channel=3, data=[74, 100]),\n",
      "   midi.NoteOffEvent(tick=96, channel=3, data=[74, 64]),\n",
      "   midi.NoteOnEvent(tick=0, channel=3, data=[76, 100]),\n",
      "   midi.NoteOffEvent(tick=96, channel=3, data=[76, 64]),\n",
      "   midi.NoteOnEvent(tick=96, channel=3, data=[76, 100]),\n",
      "   midi.NoteOffEvent(tick=96, channel=3, data=[76, 64]),\n",
      "   midi.NoteOnEvent(tick=96, channel=3, data=[76, 100]),\n",
      "   midi.NoteOffEvent(tick=96, channel=3, data=[76, 64]),\n",
      "   midi.NoteOnEvent(tick=96, channel=3, data=[74, 100]),\n",
      "   midi.NoteOffEvent(tick=48, channel=3, data=[74, 64]),\n",
      "   midi.NoteOnEvent(tick=0, channel=3, data=[76, 100]),\n",
      "   midi.NoteOffEvent(tick=48, channel=3, data=[76, 64]),\n",
      "   midi.NoteOnEvent(tick=0, channel=3, data=[78, 100]),\n",
      "   midi.NoteOffEvent(tick=256, channel=3, data=[78, 64]),\n",
      "   midi.NoteOnEvent(tick=32, channel=3, data=[76, 100]),\n",
      "   midi.NoteOffEvent(tick=48, channel=3, data=[76, 64]),\n",
      "   midi.NoteOnEvent(tick=0, channel=3, data=[78, 100]),\n",
      "   midi.NoteOffEvent(tick=48, channel=3, data=[78, 64]),\n",
      "   midi.NoteOnEvent(tick=0, channel=3, data=[79, 100]),\n",
      "   midi.NoteOffEvent(tick=256, channel=3, data=[79, 64]),\n",
      "   midi.NoteOnEvent(tick=32, channel=3, data=[78, 100]),\n",
      "   midi.NoteOffEvent(tick=192, channel=3, data=[78, 64]),\n",
      "   midi.NoteOnEvent(tick=0, channel=3, data=[76, 100]),\n",
      "   midi.NoteOffEvent(tick=192, channel=3, data=[76, 64]),\n",
      "   midi.NoteOnEvent(tick=0, channel=3, data=[74, 100]),\n",
      "   midi.NoteOffEvent(tick=384, channel=3, data=[74, 64]),\n",
      "   midi.NoteOnEvent(tick=1344, channel=3, data=[69, 100]),\n",
      "   midi.NoteOffEvent(tick=192, channel=3, data=[69, 64]),\n",
      "   midi.NoteOnEvent(tick=0, channel=3, data=[74, 100]),\n",
      "   midi.NoteOffEvent(tick=48, channel=3, data=[74, 64]),\n",
      "   midi.NoteOnEvent(tick=0, channel=3, data=[76, 100]),\n",
      "   midi.NoteOffEvent(tick=48, channel=3, data=[76, 64]),\n",
      "   midi.NoteOnEvent(tick=0, channel=3, data=[78, 100]),\n",
      "   midi.NoteOffEvent(tick=256, channel=3, data=[78, 64]),\n",
      "   midi.NoteOnEvent(tick=32, channel=3, data=[76, 100]),\n",
      "   midi.NoteOffEvent(tick=48, channel=3, data=[76, 64]),\n",
      "   midi.NoteOnEvent(tick=0, channel=3, data=[78, 100]),\n",
      "   midi.NoteOffEvent(tick=48, channel=3, data=[78, 64]),\n",
      "   midi.NoteOnEvent(tick=0, channel=3, data=[79, 100]),\n",
      "   midi.NoteOffEvent(tick=256, channel=3, data=[79, 64]),\n",
      "   midi.NoteOnEvent(tick=32, channel=3, data=[78, 100]),\n",
      "   midi.NoteOffEvent(tick=192, channel=3, data=[78, 64]),\n",
      "   midi.NoteOnEvent(tick=0, channel=3, data=[81, 100]),\n",
      "   midi.NoteOffEvent(tick=192, channel=3, data=[81, 64]),\n",
      "   midi.NoteOnEvent(tick=0, channel=3, data=[78, 100]),\n",
      "   midi.NoteOffEvent(tick=192, channel=3, data=[78, 64]),\n",
      "   midi.NoteOnEvent(tick=0, channel=3, data=[74, 100]),\n",
      "   midi.NoteOffEvent(tick=192, channel=3, data=[74, 64]),\n",
      "   midi.NoteOnEvent(tick=192, channel=3, data=[69, 100]),\n",
      "   midi.NoteOffEvent(tick=192, channel=3, data=[69, 64]),\n",
      "   midi.NoteOnEvent(tick=0, channel=3, data=[74, 100]),\n",
      "   midi.NoteOffEvent(tick=192, channel=3, data=[74, 64]),\n",
      "   midi.NoteOnEvent(tick=0, channel=3, data=[78, 100]),\n",
      "   midi.NoteOffEvent(tick=192, channel=3, data=[78, 64]),\n",
      "   midi.NoteOnEvent(tick=192, channel=3, data=[74, 100]),\n",
      "   midi.NoteOffEvent(tick=192, channel=3, data=[74, 64]),\n",
      "   midi.NoteOnEvent(tick=0, channel=3, data=[78, 100]),\n",
      "   midi.NoteOffEvent(tick=192, channel=3, data=[78, 64]),\n",
      "   midi.NoteOnEvent(tick=0, channel=3, data=[83, 100]),\n",
      "   midi.NoteOffEvent(tick=192, channel=3, data=[83, 64]),\n",
      "   midi.NoteOnEvent(tick=192, channel=3, data=[71, 100]),\n",
      "   midi.NoteOffEvent(tick=192, channel=3, data=[71, 64]),\n",
      "   midi.NoteOnEvent(tick=0, channel=3, data=[76, 100]),\n",
      "   midi.NoteOffEvent(tick=192, channel=3, data=[76, 64]),\n",
      "   midi.NoteOnEvent(tick=0, channel=3, data=[79, 100]),\n",
      "   midi.NoteOffEvent(tick=192, channel=3, data=[79, 64]),\n",
      "   midi.NoteOnEvent(tick=192, channel=3, data=[76, 100]),\n",
      "   midi.NoteOffEvent(tick=192, channel=3, data=[76, 64]),\n",
      "   midi.NoteOnEvent(tick=0, channel=3, data=[73, 100]),\n",
      "   midi.NoteOffEvent(tick=192, channel=3, data=[73, 64]),\n",
      "   midi.NoteOnEvent(tick=0, channel=3, data=[69, 100]),\n",
      "   midi.NoteOffEvent(tick=192, channel=3, data=[69, 64]),\n",
      "   midi.NoteOnEvent(tick=960, channel=3, data=[83, 100]),\n",
      "   midi.NoteOffEvent(tick=96, channel=3, data=[83, 64]),\n",
      "   midi.NoteOnEvent(tick=0, channel=3, data=[81, 100]),\n",
      "   midi.NoteOffEvent(tick=96, channel=3, data=[81, 64]),\n",
      "   midi.NoteOnEvent(tick=0, channel=3, data=[83, 100]),\n",
      "   midi.NoteOffEvent(tick=96, channel=3, data=[83, 64]),\n",
      "   midi.NoteOnEvent(tick=0, channel=3, data=[81, 100]),\n",
      "   midi.NoteOffEvent(tick=96, channel=3, data=[81, 64]),\n",
      "   midi.NoteOnEvent(tick=0, channel=3, data=[80, 100]),\n",
      "   midi.NoteOffEvent(tick=96, channel=3, data=[80, 64]),\n",
      "   midi.NoteOnEvent(tick=0, channel=3, data=[78, 100]),\n",
      "   midi.NoteOffEvent(tick=96, channel=3, data=[78, 64]),\n",
      "   midi.NoteOnEvent(tick=0, channel=3, data=[76, 100]),\n",
      "   midi.NoteOffEvent(tick=192, channel=3, data=[76, 64]),\n",
      "   midi.NoteOnEvent(tick=768, channel=3, data=[81, 100]),\n",
      "   midi.NoteOffEvent(tick=96, channel=3, data=[81, 64]),\n",
      "   midi.NoteOnEvent(tick=0, channel=3, data=[80, 100]),\n",
      "   midi.NoteOffEvent(tick=96, channel=3, data=[80, 64]),\n",
      "   midi.NoteOnEvent(tick=0, channel=3, data=[81, 100]),\n",
      "   midi.NoteOffEvent(tick=96, channel=3, data=[81, 64]),\n",
      "   midi.NoteOnEvent(tick=0, channel=3, data=[80, 100]),\n",
      "   midi.NoteOffEvent(tick=96, channel=3, data=[80, 64]),\n",
      "   midi.NoteOnEvent(tick=0, channel=3, data=[78, 100]),\n",
      "   midi.NoteOffEvent(tick=96, channel=3, data=[78, 64]),\n",
      "   midi.NoteOnEvent(tick=0, channel=3, data=[76, 100]),\n",
      "   midi.NoteOffEvent(tick=96, channel=3, data=[76, 64]),\n",
      "   midi.NoteOnEvent(tick=0, channel=3, data=[74, 100]),\n",
      "   midi.NoteOffEvent(tick=192, channel=3, data=[74, 64]),\n",
      "   midi.NoteOnEvent(tick=0, channel=3, data=[78, 100]),\n",
      "   midi.NoteOffEvent(tick=192, channel=3, data=[78, 64]),\n",
      "   midi.NoteOnEvent(tick=0, channel=3, data=[80, 100]),\n",
      "   midi.NoteOffEvent(tick=192, channel=3, data=[80, 64]),\n",
      "   midi.NoteOnEvent(tick=0, channel=3, data=[81, 100]),\n",
      "   midi.NoteOffEvent(tick=192, channel=3, data=[81, 64]),\n",
      "   midi.NoteOnEvent(tick=0, channel=3, data=[83, 100]),\n",
      "   midi.NoteOffEvent(tick=192, channel=3, data=[83, 64]),\n",
      "   midi.NoteOnEvent(tick=0, channel=3, data=[71, 100]),\n",
      "   midi.NoteOffEvent(tick=96, channel=3, data=[71, 64]),\n",
      "   midi.NoteOnEvent(tick=0, channel=3, data=[73, 100]),\n",
      "   midi.NoteOffEvent(tick=96, channel=3, data=[73, 64]),\n",
      "   midi.NoteOnEvent(tick=0, channel=3, data=[74, 100]),\n",
      "   midi.NoteOffEvent(tick=96, channel=3, data=[74, 64]),\n",
      "   midi.NoteOnEvent(tick=0, channel=3, data=[76, 100]),\n",
      "   midi.NoteOffEvent(tick=96, channel=3, data=[76, 64]),\n",
      "   midi.NoteOnEvent(tick=0, channel=3, data=[78, 100]),\n",
      "   midi.NoteOffEvent(tick=96, channel=3, data=[78, 64]),\n",
      "   midi.NoteOnEvent(tick=0, channel=3, data=[80, 100]),\n",
      "   midi.NoteOffEvent(tick=96, channel=3, data=[80, 64]),\n",
      "   midi.NoteOnEvent(tick=0, channel=3, data=[81, 100]),\n",
      "   midi.NoteOffEvent(tick=96, channel=3, data=[81, 64]),\n",
      "   midi.NoteOnEvent(tick=0, channel=3, data=[76, 100]),\n",
      "   midi.NoteOffEvent(tick=96, channel=3, data=[76, 64]),\n",
      "   midi.NoteOnEvent(tick=0, channel=3, data=[74, 100]),\n",
      "   midi.NoteOffEvent(tick=96, channel=3, data=[74, 64]),\n",
      "   midi.NoteOnEvent(tick=0, channel=3, data=[73, 100]),\n",
      "   midi.NoteOffEvent(tick=96, channel=3, data=[73, 64]),\n",
      "   midi.NoteOnEvent(tick=0, channel=3, data=[74, 100]),\n",
      "   midi.NoteOffEvent(tick=96, channel=3, data=[74, 64]),\n",
      "   midi.NoteOnEvent(tick=0, channel=3, data=[73, 100]),\n",
      "   midi.NoteOffEvent(tick=96, channel=3, data=[73, 64]),\n",
      "   midi.NoteOnEvent(tick=0, channel=3, data=[71, 100]),\n",
      "   midi.NoteOffEvent(tick=96, channel=3, data=[71, 64]),\n",
      "   midi.NoteOnEvent(tick=0, channel=3, data=[73, 100]),\n",
      "   midi.NoteOffEvent(tick=96, channel=3, data=[73, 64]),\n",
      "   midi.NoteOnEvent(tick=1536, channel=3, data=[80, 100]),\n",
      "   midi.NoteOffEvent(tick=96, channel=3, data=[80, 64]),\n",
      "   midi.NoteOnEvent(tick=0, channel=3, data=[81, 100]),\n",
      "   midi.NoteOffEvent(tick=96, channel=3, data=[81, 64]),\n",
      "   midi.NoteOnEvent(tick=0, channel=3, data=[83, 100]),\n",
      "   midi.NoteOffEvent(tick=96, channel=3, data=[83, 64]),\n",
      "   midi.NoteOnEvent(tick=96, channel=3, data=[83, 100]),\n",
      "   midi.NoteOffEvent(tick=96, channel=3, data=[83, 64]),\n",
      "   midi.NoteOnEvent(tick=96, channel=3, data=[76, 100]),\n",
      "   midi.NoteOffEvent(tick=96, channel=3, data=[76, 64]),\n",
      "   midi.NoteOnEvent(tick=96, channel=3, data=[69, 100]),\n",
      "   midi.NoteOffEvent(tick=48, channel=3, data=[69, 64]),\n",
      "   midi.NoteOnEvent(tick=0, channel=3, data=[71, 100]),\n",
      "   midi.NoteOffEvent(tick=48, channel=3, data=[71, 64]),\n",
      "   midi.NoteOnEvent(tick=0, channel=3, data=[73, 100]),\n",
      "   midi.NoteOffEvent(tick=256, channel=3, data=[73, 64]),\n",
      "   midi.NoteOnEvent(tick=32, channel=3, data=[71, 100]),\n",
      "   midi.NoteOffEvent(tick=48, channel=3, data=[71, 64]),\n",
      "   midi.NoteOnEvent(tick=0, channel=3, data=[73, 100]),\n",
      "   midi.NoteOffEvent(tick=48, channel=3, data=[73, 64]),\n",
      "   midi.NoteOnEvent(tick=0, channel=3, data=[74, 100]),\n",
      "   midi.NoteOffEvent(tick=256, channel=3, data=[74, 64]),\n",
      "   midi.NoteOnEvent(tick=32, channel=3, data=[73, 100]),\n",
      "   midi.NoteOffEvent(tick=192, channel=3, data=[73, 64]),\n",
      "   midi.NoteOnEvent(tick=0, channel=3, data=[71, 100]),\n",
      "   midi.NoteOffEvent(tick=192, channel=3, data=[71, 64]),\n",
      "   midi.NoteOnEvent(tick=0, channel=3, data=[69, 100]),\n",
      "   midi.NoteOffEvent(tick=96, channel=3, data=[69, 64]),\n",
      "   midi.NoteOnEvent(tick=0, channel=3, data=[71, 100]),\n",
      "   midi.NoteOffEvent(tick=96, channel=3, data=[71, 64]),\n",
      "   midi.NoteOnEvent(tick=0, channel=3, data=[73, 100]),\n",
      "   midi.NoteOffEvent(tick=96, channel=3, data=[73, 64]),\n",
      "   midi.NoteOnEvent(tick=0, channel=3, data=[74, 100]),\n",
      "   midi.NoteOffEvent(tick=96, channel=3, data=[74, 64]),\n",
      "   midi.NoteOnEvent(tick=0, channel=3, data=[76, 100]),\n",
      "   midi.NoteOffEvent(tick=96, channel=3, data=[76, 64]),\n",
      "   midi.NoteOnEvent(tick=0, channel=3, data=[74, 100]),\n",
      "   midi.NoteOffEvent(tick=96, channel=3, data=[74, 64]),\n",
      "   midi.NoteOnEvent(tick=0, channel=3, data=[73, 100]),\n",
      "   midi.NoteOffEvent(tick=96, channel=3, data=[73, 64]),\n",
      "   midi.NoteOnEvent(tick=0, channel=3, data=[74, 100]),\n",
      "   midi.NoteOffEvent(tick=96, channel=3, data=[74, 64]),\n",
      "   midi.NoteOnEvent(tick=0, channel=3, data=[76, 100]),\n",
      "   midi.NoteOffEvent(tick=96, channel=3, data=[76, 64]),\n",
      "   midi.NoteOnEvent(tick=0, channel=3, data=[78, 100]),\n",
      "   midi.NoteOffEvent(tick=96, channel=3, data=[78, 64]),\n",
      "   midi.NoteOnEvent(tick=0, channel=3, data=[79, 100]),\n",
      "   midi.NoteOffEvent(tick=96, channel=3, data=[79, 64]),\n",
      "   midi.NoteOnEvent(tick=0, channel=3, data=[76, 100]),\n",
      "   midi.NoteOffEvent(tick=96, channel=3, data=[76, 64]),\n",
      "   midi.NoteOnEvent(tick=0, channel=3, data=[73, 100]),\n",
      "   midi.NoteOffEvent(tick=192, channel=3, data=[73, 64]),\n",
      "   midi.NoteOnEvent(tick=0, channel=3, data=[69, 100]),\n",
      "   midi.NoteOffEvent(tick=192, channel=3, data=[69, 64]),\n",
      "   midi.NoteOnEvent(tick=192, channel=3, data=[69, 100]),\n",
      "   midi.NoteOffEvent(tick=192, channel=3, data=[69, 64]),\n",
      "   midi.NoteOnEvent(tick=0, channel=3, data=[74, 100]),\n",
      "   midi.NoteOffEvent(tick=48, channel=3, data=[74, 64]),\n",
      "   midi.NoteOnEvent(tick=0, channel=3, data=[76, 100]),\n",
      "   midi.NoteOffEvent(tick=48, channel=3, data=[76, 64]),\n",
      "   midi.NoteOnEvent(tick=0, channel=3, data=[78, 100]),\n",
      "   midi.NoteOffEvent(tick=256, channel=3, data=[78, 64]),\n",
      "   midi.NoteOnEvent(tick=32, channel=3, data=[76, 100]),\n",
      "   midi.NoteOffEvent(tick=48, channel=3, data=[76, 64]),\n",
      "   midi.NoteOnEvent(tick=0, channel=3, data=[78, 100]),\n",
      "   midi.NoteOffEvent(tick=48, channel=3, data=[78, 64]),\n",
      "   midi.NoteOnEvent(tick=0, channel=3, data=[79, 100]),\n",
      "   midi.NoteOffEvent(tick=256, channel=3, data=[79, 64]),\n",
      "   midi.NoteOnEvent(tick=32, channel=3, data=[78, 100]),\n",
      "   midi.NoteOffEvent(tick=192, channel=3, data=[78, 64]),\n",
      "   midi.NoteOnEvent(tick=0, channel=3, data=[76, 100]),\n",
      "   midi.NoteOffEvent(tick=192, channel=3, data=[76, 64]),\n",
      "   midi.NoteOnEvent(tick=0, channel=3, data=[74, 100]),\n",
      "   midi.NoteOffEvent(tick=192, channel=3, data=[74, 64]),\n",
      "   midi.NoteOnEvent(tick=0, channel=3, data=[73, 100]),\n",
      "   midi.NoteOffEvent(tick=192, channel=3, data=[73, 64]),\n",
      "   midi.NoteOnEvent(tick=0, channel=3, data=[71, 100]),\n",
      "   midi.NoteOffEvent(tick=864, channel=3, data=[71, 64]),\n",
      "   midi.NoteOnEvent(tick=0, channel=3, data=[69, 100]),\n",
      "   midi.NoteOffEvent(tick=96, channel=3, data=[69, 64]),\n",
      "   midi.NoteOnEvent(tick=0, channel=3, data=[68, 100]),\n",
      "   midi.NoteOffEvent(tick=96, channel=3, data=[68, 64]),\n",
      "   midi.NoteOnEvent(tick=0, channel=3, data=[69, 100]),\n",
      "   midi.NoteOffEvent(tick=96, channel=3, data=[69, 64]),\n",
      "   midi.NoteOnEvent(tick=0, channel=3, data=[71, 100]),\n",
      "   midi.NoteOffEvent(tick=192, channel=3, data=[71, 64]),\n",
      "   midi.NoteOnEvent(tick=0, channel=3, data=[73, 100]),\n",
      "   midi.NoteOffEvent(tick=192, channel=3, data=[73, 64]),\n",
      "   midi.NoteOnEvent(tick=0, channel=3, data=[74, 100]),\n",
      "   midi.NoteOffEvent(tick=864, channel=3, data=[74, 64]),\n",
      "   midi.NoteOnEvent(tick=0, channel=3, data=[73, 100]),\n",
      "   midi.NoteOffEvent(tick=96, channel=3, data=[73, 64]),\n",
      "   midi.NoteOnEvent(tick=0, channel=3, data=[71, 100]),\n",
      "   midi.NoteOffEvent(tick=96, channel=3, data=[71, 64]),\n",
      "   midi.NoteOnEvent(tick=0, channel=3, data=[73, 100]),\n",
      "   midi.NoteOffEvent(tick=96, channel=3, data=[73, 64]),\n",
      "   midi.NoteOnEvent(tick=0, channel=3, data=[74, 100]),\n",
      "   midi.NoteOffEvent(tick=192, channel=3, data=[74, 64]),\n",
      "   midi.NoteOnEvent(tick=0, channel=3, data=[76, 100]),\n",
      "   midi.NoteOffEvent(tick=192, channel=3, data=[76, 64]),\n",
      "   midi.NoteOnEvent(tick=0, channel=3, data=[73, 100]),\n",
      "   midi.NoteOffEvent(tick=96, channel=3, data=[73, 64]),\n",
      "   midi.NoteOnEvent(tick=0, channel=3, data=[71, 100]),\n",
      "   midi.NoteOffEvent(tick=96, channel=3, data=[71, 64]),\n",
      "   midi.NoteOnEvent(tick=0, channel=3, data=[69, 100]),\n",
      "   midi.NoteOffEvent(tick=96, channel=3, data=[69, 64]),\n",
      "   midi.NoteOnEvent(tick=0, channel=3, data=[71, 100]),\n",
      "   midi.NoteOffEvent(tick=96, channel=3, data=[71, 64]),\n",
      "   midi.NoteOnEvent(tick=0, channel=3, data=[73, 100]),\n",
      "   midi.NoteOffEvent(tick=96, channel=3, data=[73, 64]),\n",
      "   midi.NoteOnEvent(tick=0, channel=3, data=[71, 100]),\n",
      "   midi.NoteOffEvent(tick=96, channel=3, data=[71, 64]),\n",
      "   midi.NoteOnEvent(tick=0, channel=3, data=[69, 100]),\n",
      "   midi.NoteOffEvent(tick=96, channel=3, data=[69, 64]),\n",
      "   midi.NoteOnEvent(tick=0, channel=3, data=[71, 100]),\n",
      "   midi.NoteOffEvent(tick=96, channel=3, data=[71, 64]),\n",
      "   midi.NoteOnEvent(tick=0, channel=3, data=[73, 100]),\n",
      "   midi.NoteOffEvent(tick=96, channel=3, data=[73, 64]),\n",
      "   midi.NoteOnEvent(tick=0, channel=3, data=[71, 100]),\n",
      "   midi.NoteOffEvent(tick=96, channel=3, data=[71, 64]),\n",
      "   midi.NoteOnEvent(tick=0, channel=3, data=[73, 100]),\n",
      "   midi.NoteOffEvent(tick=96, channel=3, data=[73, 64]),\n",
      "   midi.NoteOnEvent(tick=0, channel=3, data=[74, 100]),\n",
      "   midi.NoteOffEvent(tick=96, channel=3, data=[74, 64]),\n",
      "   midi.NoteOnEvent(tick=0, channel=3, data=[76, 100]),\n",
      "   midi.NoteOffEvent(tick=192, channel=3, data=[76, 64]),\n",
      "   midi.NoteOnEvent(tick=0, channel=3, data=[69, 100]),\n",
      "   midi.NoteOffEvent(tick=192, channel=3, data=[69, 64]),\n",
      "   midi.NoteOnEvent(tick=0, channel=3, data=[71, 100]),\n",
      "   midi.NoteOffEvent(tick=384, channel=3, data=[71, 64]),\n",
      "   midi.NoteOnEvent(tick=0, channel=3, data=[68, 100]),\n",
      "   midi.NoteOffEvent(tick=384, channel=3, data=[68, 64]),\n",
      "   midi.NoteOnEvent(tick=0, channel=3, data=[69, 100]),\n",
      "   midi.NoteOffEvent(tick=480, channel=3, data=[69, 64]),\n",
      "   midi.NoteOnEvent(tick=0, channel=3, data=[64, 100]),\n",
      "   midi.NoteOffEvent(tick=96, channel=3, data=[64, 64]),\n",
      "   midi.NoteOnEvent(tick=0, channel=3, data=[69, 100]),\n",
      "   midi.NoteOffEvent(tick=96, channel=3, data=[69, 64]),\n",
      "   midi.NoteOnEvent(tick=0, channel=3, data=[71, 100]),\n",
      "   midi.NoteOffEvent(tick=96, channel=3, data=[71, 64]),\n",
      "   midi.NoteOnEvent(tick=0, channel=3, data=[73, 100]),\n",
      "   midi.NoteOnEvent(tick=0, channel=3, data=[73, 100]),\n",
      "   midi.NoteOffEvent(tick=96, channel=3, data=[73, 64]),\n",
      "   midi.NoteOffEvent(tick=0, channel=3, data=[73, 64]),\n",
      "   midi.NoteOnEvent(tick=0, channel=3, data=[74, 100]),\n",
      "   midi.NoteOnEvent(tick=0, channel=3, data=[74, 100]),\n",
      "   midi.NoteOffEvent(tick=96, channel=3, data=[74, 64]),\n",
      "   midi.NoteOffEvent(tick=0, channel=3, data=[74, 64]),\n",
      "   midi.NoteOnEvent(tick=0, channel=3, data=[76, 100]),\n",
      "   midi.NoteOnEvent(tick=0, channel=3, data=[76, 100]),\n",
      "   midi.NoteOffEvent(tick=96, channel=3, data=[76, 64]),\n",
      "   midi.NoteOffEvent(tick=0, channel=3, data=[76, 64]),\n",
      "   midi.NoteOnEvent(tick=96, channel=3, data=[76, 100]),\n",
      "   midi.NoteOnEvent(tick=0, channel=3, data=[76, 100]),\n",
      "   midi.NoteOffEvent(tick=96, channel=3, data=[76, 64]),\n",
      "   midi.NoteOffEvent(tick=0, channel=3, data=[76, 64]),\n",
      "   midi.NoteOnEvent(tick=96, channel=3, data=[76, 100]),\n",
      "   midi.NoteOnEvent(tick=0, channel=3, data=[76, 100]),\n",
      "   midi.NoteOffEvent(tick=96, channel=3, data=[76, 64]),\n",
      "   midi.NoteOffEvent(tick=0, channel=3, data=[76, 64]),\n",
      "   midi.NoteOnEvent(tick=96, channel=3, data=[76, 100]),\n",
      "   midi.NoteOnEvent(tick=0, channel=3, data=[76, 100]),\n",
      "   midi.NoteOffEvent(tick=384, channel=3, data=[76, 64]),\n",
      "   midi.NoteOffEvent(tick=0, channel=3, data=[76, 64]),\n",
      "   midi.NoteOnEvent(tick=192, channel=3, data=[64, 100]),\n",
      "   midi.NoteOffEvent(tick=192, channel=3, data=[64, 64]),\n",
      "   midi.NoteOnEvent(tick=0, channel=3, data=[69, 100]),\n",
      "   midi.NoteOffEvent(tick=48, channel=3, data=[69, 64]),\n",
      "   midi.NoteOnEvent(tick=0, channel=3, data=[71, 100]),\n",
      "   midi.NoteOffEvent(tick=48, channel=3, data=[71, 64]),\n",
      "   midi.NoteOnEvent(tick=0, channel=3, data=[73, 100]),\n",
      "   midi.NoteOffEvent(tick=256, channel=3, data=[73, 64]),\n",
      "   midi.NoteOnEvent(tick=32, channel=3, data=[71, 100]),\n",
      "   midi.NoteOffEvent(tick=48, channel=3, data=[71, 64]),\n",
      "   midi.NoteOnEvent(tick=0, channel=3, data=[73, 100]),\n",
      "   midi.NoteOffEvent(tick=48, channel=3, data=[73, 64]),\n",
      "   midi.NoteOnEvent(tick=0, channel=3, data=[74, 100]),\n",
      "   midi.NoteOffEvent(tick=256, channel=3, data=[74, 64]),\n",
      "   midi.NoteOnEvent(tick=32, channel=3, data=[73, 100]),\n",
      "   midi.NoteOffEvent(tick=48, channel=3, data=[73, 64]),\n",
      "   midi.NoteOnEvent(tick=0, channel=3, data=[71, 100]),\n",
      "   midi.NoteOffEvent(tick=48, channel=3, data=[71, 64]),\n",
      "   midi.NoteOnEvent(tick=0, channel=3, data=[69, 100]),\n",
      "   midi.NoteOffEvent(tick=384, channel=3, data=[69, 64]),\n",
      "   midi.NoteOnEvent(tick=0, channel=3, data=[64, 100]),\n",
      "   midi.NoteOffEvent(tick=96, channel=3, data=[64, 64]),\n",
      "   midi.NoteOnEvent(tick=0, channel=3, data=[69, 100]),\n",
      "   midi.NoteOffEvent(tick=96, channel=3, data=[69, 64]),\n",
      "   midi.NoteOnEvent(tick=0, channel=3, data=[71, 100]),\n",
      "   midi.NoteOffEvent(tick=96, channel=3, data=[71, 64]),\n",
      "   midi.NoteOnEvent(tick=0, channel=3, data=[73, 100]),\n",
      "   midi.NoteOnEvent(tick=0, channel=3, data=[73, 100]),\n",
      "   midi.NoteOffEvent(tick=96, channel=3, data=[73, 64]),\n",
      "   midi.NoteOffEvent(tick=0, channel=3, data=[73, 64]),\n",
      "   midi.NoteOnEvent(tick=0, channel=3, data=[74, 100]),\n",
      "   midi.NoteOnEvent(tick=0, channel=3, data=[74, 100]),\n",
      "   midi.NoteOffEvent(tick=96, channel=3, data=[74, 64]),\n",
      "   midi.NoteOffEvent(tick=0, channel=3, data=[74, 64]),\n",
      "   midi.NoteOnEvent(tick=0, channel=3, data=[76, 100]),\n",
      "   midi.NoteOnEvent(tick=0, channel=3, data=[76, 100]),\n",
      "   midi.NoteOffEvent(tick=96, channel=3, data=[76, 64]),\n",
      "   midi.NoteOffEvent(tick=0, channel=3, data=[76, 64]),\n",
      "   midi.NoteOnEvent(tick=96, channel=3, data=[76, 100]),\n",
      "   midi.NoteOnEvent(tick=0, channel=3, data=[76, 100]),\n",
      "   midi.NoteOffEvent(tick=96, channel=3, data=[76, 64]),\n",
      "   midi.NoteOffEvent(tick=0, channel=3, data=[76, 64]),\n",
      "   midi.NoteOnEvent(tick=96, channel=3, data=[76, 100]),\n",
      "   midi.NoteOnEvent(tick=0, channel=3, data=[76, 100]),\n",
      "   midi.NoteOffEvent(tick=96, channel=3, data=[76, 64]),\n",
      "   midi.NoteOffEvent(tick=0, channel=3, data=[76, 64]),\n",
      "   midi.NoteOnEvent(tick=96, channel=3, data=[76, 100]),\n",
      "   midi.NoteOnEvent(tick=0, channel=3, data=[76, 100]),\n",
      "   midi.NoteOffEvent(tick=384, channel=3, data=[76, 64]),\n",
      "   midi.NoteOffEvent(tick=0, channel=3, data=[76, 64]),\n",
      "   midi.NoteOnEvent(tick=192, channel=3, data=[64, 100]),\n",
      "   midi.NoteOffEvent(tick=192, channel=3, data=[64, 64]),\n",
      "   midi.NoteOnEvent(tick=0, channel=3, data=[69, 100]),\n",
      "   midi.NoteOffEvent(tick=48, channel=3, data=[69, 64]),\n",
      "   midi.NoteOnEvent(tick=0, channel=3, data=[71, 100]),\n",
      "   midi.NoteOffEvent(tick=48, channel=3, data=[71, 64]),\n",
      "   midi.NoteOnEvent(tick=0, channel=3, data=[73, 100]),\n",
      "   midi.NoteOffEvent(tick=256, channel=3, data=[73, 64]),\n",
      "   midi.NoteOnEvent(tick=32, channel=3, data=[71, 100]),\n",
      "   midi.NoteOffEvent(tick=48, channel=3, data=[71, 64]),\n",
      "   midi.NoteOnEvent(tick=0, channel=3, data=[73, 100]),\n",
      "   midi.NoteOffEvent(tick=48, channel=3, data=[73, 64]),\n",
      "   midi.NoteOnEvent(tick=0, channel=3, data=[74, 100]),\n",
      "   midi.NoteOffEvent(tick=256, channel=3, data=[74, 64]),\n",
      "   midi.NoteOnEvent(tick=32, channel=3, data=[73, 100]),\n",
      "   midi.NoteOffEvent(tick=48, channel=3, data=[73, 64]),\n",
      "   midi.NoteOnEvent(tick=0, channel=3, data=[71, 100]),\n",
      "   midi.NoteOffEvent(tick=48, channel=3, data=[71, 64]),\n",
      "   midi.NoteOnEvent(tick=0, channel=3, data=[69, 100]),\n",
      "   midi.NoteOffEvent(tick=384, channel=3, data=[69, 64]),\n",
      "   midi.NoteOnEvent(tick=0, channel=3, data=[73, 100]),\n",
      "   midi.NoteOffEvent(tick=96, channel=3, data=[73, 64]),\n",
      "   midi.NoteOnEvent(tick=0, channel=3, data=[74, 100]),\n",
      "   midi.NoteOffEvent(tick=96, channel=3, data=[74, 64]),\n",
      "   midi.NoteOnEvent(tick=0, channel=3, data=[76, 100]),\n",
      "   midi.NoteOffEvent(tick=96, channel=3, data=[76, 64]),\n",
      "   midi.NoteOnEvent(tick=0, channel=3, data=[78, 100]),\n",
      "   midi.NoteOnEvent(tick=0, channel=3, data=[78, 100]),\n",
      "   midi.NoteOffEvent(tick=96, channel=3, data=[78, 64]),\n",
      "   midi.NoteOffEvent(tick=0, channel=3, data=[78, 64]),\n",
      "   midi.NoteOnEvent(tick=0, channel=3, data=[79, 100]),\n",
      "   midi.NoteOnEvent(tick=0, channel=3, data=[79, 100]),\n",
      "   midi.NoteOffEvent(tick=96, channel=3, data=[79, 64]),\n",
      "   midi.NoteOffEvent(tick=0, channel=3, data=[79, 64]),\n",
      "   midi.NoteOnEvent(tick=0, channel=3, data=[78, 100]),\n",
      "   midi.NoteOnEvent(tick=0, channel=3, data=[78, 100]),\n",
      "   midi.NoteOffEvent(tick=96, channel=3, data=[78, 64]),\n",
      "   midi.NoteOffEvent(tick=0, channel=3, data=[78, 64]),\n",
      "   midi.NoteOnEvent(tick=96, channel=3, data=[78, 100]),\n",
      "   midi.NoteOnEvent(tick=0, channel=3, data=[78, 100]),\n",
      "   midi.NoteOffEvent(tick=96, channel=3, data=[78, 64]),\n",
      "   midi.NoteOffEvent(tick=0, channel=3, data=[78, 64]),\n",
      "   midi.NoteOnEvent(tick=96, channel=3, data=[78, 100]),\n",
      "   midi.NoteOnEvent(tick=0, channel=3, data=[78, 100]),\n",
      "   midi.NoteOffEvent(tick=96, channel=3, data=[78, 64]),\n",
      "   midi.NoteOffEvent(tick=0, channel=3, data=[78, 64]),\n",
      "   midi.NoteOnEvent(tick=96, channel=3, data=[78, 100]),\n",
      "   midi.NoteOffEvent(tick=192, channel=3, data=[78, 64]),\n",
      "   midi.NoteOnEvent(tick=0, channel=3, data=[83, 100]),\n",
      "   midi.NoteOffEvent(tick=96, channel=3, data=[83, 64]),\n",
      "   midi.NoteOnEvent(tick=0, channel=3, data=[81, 100]),\n",
      "   midi.NoteOffEvent(tick=96, channel=3, data=[81, 64]),\n",
      "   midi.NoteOnEvent(tick=0, channel=3, data=[83, 100]),\n",
      "   midi.NoteOffEvent(tick=96, channel=3, data=[83, 64]),\n",
      "   midi.NoteOnEvent(tick=0, channel=3, data=[81, 100]),\n",
      "   midi.NoteOffEvent(tick=96, channel=3, data=[81, 64]),\n",
      "   midi.NoteOnEvent(tick=0, channel=3, data=[80, 100]),\n",
      "   midi.NoteOffEvent(tick=96, channel=3, data=[80, 64]),\n",
      "   midi.NoteOnEvent(tick=0, channel=3, data=[78, 100]),\n",
      "   midi.NoteOffEvent(tick=96, channel=3, data=[78, 64]),\n",
      "   midi.NoteOnEvent(tick=0, channel=3, data=[76, 100]),\n",
      "   midi.NoteOffEvent(tick=96, channel=3, data=[76, 64]),\n",
      "   midi.NoteOnEvent(tick=0, channel=3, data=[78, 100]),\n",
      "   midi.NoteOnEvent(tick=0, channel=3, data=[78, 100]),\n",
      "   midi.NoteOffEvent(tick=96, channel=3, data=[78, 64]),\n",
      "   midi.NoteOffEvent(tick=0, channel=3, data=[78, 64]),\n",
      "   midi.NoteOnEvent(tick=0, channel=3, data=[76, 100]),\n",
      "   midi.NoteOnEvent(tick=0, channel=3, data=[76, 100]),\n",
      "   midi.NoteOnEvent(tick=0, channel=3, data=[76, 100]),\n",
      "   midi.NoteOffEvent(tick=96, channel=3, data=[76, 64]),\n",
      "   midi.NoteOffEvent(tick=0, channel=3, data=[76, 64]),\n",
      "   midi.NoteOffEvent(tick=96, channel=3, data=[76, 64]),\n",
      "   midi.NoteOnEvent(tick=0, channel=3, data=[76, 100]),\n",
      "   midi.NoteOnEvent(tick=0, channel=3, data=[76, 100]),\n",
      "   midi.NoteOffEvent(tick=96, channel=3, data=[76, 64]),\n",
      "   midi.NoteOffEvent(tick=0, channel=3, data=[76, 64]),\n",
      "   midi.NoteOnEvent(tick=96, channel=3, data=[76, 100]),\n",
      "   midi.NoteOnEvent(tick=0, channel=3, data=[76, 100]),\n",
      "   midi.NoteOffEvent(tick=96, channel=3, data=[76, 64]),\n",
      "   midi.NoteOffEvent(tick=0, channel=3, data=[76, 64]),\n",
      "   midi.NoteOnEvent(tick=96, channel=3, data=[76, 100]),\n",
      "   midi.NoteOffEvent(tick=192, channel=3, data=[76, 64]),\n",
      "   midi.NoteOnEvent(tick=0, channel=3, data=[81, 100]),\n",
      "   midi.NoteOffEvent(tick=96, channel=3, data=[81, 64]),\n",
      "   midi.NoteOnEvent(tick=0, channel=3, data=[80, 100]),\n",
      "   midi.NoteOffEvent(tick=96, channel=3, data=[80, 64]),\n",
      "   midi.NoteOnEvent(tick=0, channel=3, data=[81, 100]),\n",
      "   midi.NoteOffEvent(tick=96, channel=3, data=[81, 64]),\n",
      "   midi.NoteOnEvent(tick=0, channel=3, data=[80, 100]),\n",
      "   midi.NoteOffEvent(tick=96, channel=3, data=[80, 64]),\n",
      "   midi.NoteOnEvent(tick=0, channel=3, data=[78, 100]),\n",
      "   midi.NoteOffEvent(tick=96, channel=3, data=[78, 64]),\n",
      "   midi.NoteOnEvent(tick=0, channel=3, data=[76, 100]),\n",
      "   midi.NoteOffEvent(tick=96, channel=3, data=[76, 64]),\n",
      "   midi.NoteOnEvent(tick=0, channel=3, data=[74, 100]),\n",
      "   midi.NoteOffEvent(tick=96, channel=3, data=[74, 64]),\n",
      "   midi.NoteOnEvent(tick=0, channel=3, data=[76, 100]),\n",
      "   midi.NoteOffEvent(tick=96, channel=3, data=[76, 64]),\n",
      "   midi.NoteOnEvent(tick=0, channel=3, data=[74, 100]),\n",
      "   midi.NoteOffEvent(tick=96, channel=3, data=[74, 64]),\n",
      "   midi.NoteOnEvent(tick=96, channel=3, data=[74, 100]),\n",
      "   midi.NoteOffEvent(tick=96, channel=3, data=[74, 64]),\n",
      "   midi.NoteOnEvent(tick=96, channel=3, data=[74, 100]),\n",
      "   midi.NoteOffEvent(tick=96, channel=3, data=[74, 64]),\n",
      "   midi.NoteOnEvent(tick=96, channel=3, data=[86, 100]),\n",
      "   midi.NoteOffEvent(tick=512, channel=3, data=[86, 64]),\n",
      "   midi.NoteOnEvent(tick=64, channel=3, data=[85, 100]),\n",
      "   midi.NoteOffEvent(tick=96, channel=3, data=[85, 64]),\n",
      "   midi.NoteOnEvent(tick=0, channel=3, data=[83, 100]),\n",
      "   midi.NoteOffEvent(tick=96, channel=3, data=[83, 64]),\n",
      "   midi.NoteOnEvent(tick=0, channel=3, data=[85, 100]),\n",
      "   midi.NoteOffEvent(tick=192, channel=3, data=[85, 64]),\n",
      "   midi.NoteOnEvent(tick=0, channel=3, data=[81, 100]),\n",
      "   midi.NoteOffEvent(tick=192, channel=3, data=[81, 64]),\n",
      "   midi.NoteOnEvent(tick=0, channel=3, data=[76, 100]),\n",
      "   midi.NoteOffEvent(tick=192, channel=3, data=[76, 64]),\n",
      "   midi.NoteOnEvent(tick=0, channel=3, data=[80, 100]),\n",
      "   midi.NoteOffEvent(tick=192, channel=3, data=[80, 64]),\n",
      "   midi.NoteOnEvent(tick=0, channel=3, data=[81, 100]),\n",
      "   midi.NoteOffEvent(tick=384, channel=3, data=[81, 64]),\n",
      "   midi.NoteOnEvent(tick=1152, channel=3, data=[68, 100]),\n",
      "   midi.NoteOffEvent(tick=96, channel=3, data=[68, 64]),\n",
      "   midi.NoteOnEvent(tick=0, channel=3, data=[69, 100]),\n",
      "   midi.NoteOffEvent(tick=96, channel=3, data=[69, 64]),\n",
      "   midi.NoteOnEvent(tick=0, channel=3, data=[71, 100]),\n",
      "   midi.NoteOffEvent(tick=96, channel=3, data=[71, 64]),\n",
      "   midi.NoteOnEvent(tick=96, channel=3, data=[71, 100]),\n",
      "   midi.NoteOffEvent(tick=96, channel=3, data=[71, 64]),\n",
      "   midi.NoteOnEvent(tick=96, channel=3, data=[73, 100]),\n",
      "   midi.NoteOffEvent(tick=96, channel=3, data=[73, 64]),\n",
      "   midi.NoteOnEvent(tick=96, channel=3, data=[66, 100]),\n",
      "   midi.NoteOffEvent(tick=96, channel=3, data=[66, 64]),\n",
      "   midi.NoteOnEvent(tick=0, channel=3, data=[78, 100]),\n",
      "   midi.NoteOffEvent(tick=96, channel=3, data=[78, 64]),\n",
      "   midi.NoteOnEvent(tick=0, channel=3, data=[76, 100]),\n",
      "   midi.NoteOffEvent(tick=96, channel=3, data=[76, 64]),\n",
      "   midi.NoteOnEvent(tick=0, channel=3, data=[74, 100]),\n",
      "   midi.NoteOffEvent(tick=96, channel=3, data=[74, 64]),\n",
      "   midi.NoteOnEvent(tick=0, channel=3, data=[73, 100]),\n",
      "   midi.NoteOffEvent(tick=192, channel=3, data=[73, 64]),\n",
      "   midi.NoteOnEvent(tick=0, channel=3, data=[71, 100]),\n",
      "   midi.NoteOffEvent(tick=192, channel=3, data=[71, 64]),\n",
      "   midi.NoteOnEvent(tick=0, channel=3, data=[69, 100]),\n",
      "   midi.NoteOffEvent(tick=192, channel=3, data=[69, 64]),\n",
      "   midi.NoteOnEvent(tick=0, channel=3, data=[68, 100]),\n",
      "   midi.NoteOffEvent(tick=96, channel=3, data=[68, 64]),\n",
      "   midi.NoteOnEvent(tick=0, channel=3, data=[69, 100]),\n",
      "   midi.NoteOffEvent(tick=96, channel=3, data=[69, 64]),\n",
      "   midi.NoteOnEvent(tick=0, channel=3, data=[66, 100]),\n",
      "   midi.NoteOffEvent(tick=192, channel=3, data=[66, 64]),\n",
      "   midi.NoteOnEvent(tick=192, channel=3, data=[74, 100]),\n",
      "   midi.NoteOffEvent(tick=96, channel=3, data=[74, 64]),\n",
      "   midi.NoteOnEvent(tick=0, channel=3, data=[76, 100]),\n",
      "   midi.NoteOffEvent(tick=96, channel=3, data=[76, 64]),\n",
      "   midi.NoteOnEvent(tick=0, channel=3, data=[78, 100]),\n",
      "   midi.NoteOffEvent(tick=96, channel=3, data=[78, 64]),\n",
      "   midi.NoteOnEvent(tick=96, channel=3, data=[78, 100]),\n",
      "   midi.NoteOffEvent(tick=96, channel=3, data=[78, 64]),\n",
      "   midi.NoteOnEvent(tick=96, channel=3, data=[78, 100]),\n",
      "   midi.NoteOffEvent(tick=96, channel=3, data=[78, 64]),\n",
      "   midi.NoteOnEvent(tick=96, channel=3, data=[78, 100]),\n",
      "   midi.NoteOffEvent(tick=480, channel=3, data=[78, 64]),\n",
      "   midi.NoteOnEvent(tick=0, channel=3, data=[76, 100]),\n",
      "   midi.NoteOffEvent(tick=96, channel=3, data=[76, 64]),\n",
      "   midi.NoteOnEvent(tick=0, channel=3, data=[74, 100]),\n",
      "   midi.NoteOffEvent(tick=96, channel=3, data=[74, 64]),\n",
      "   midi.NoteOnEvent(tick=0, channel=3, data=[73, 100]),\n",
      "   midi.NoteOffEvent(tick=96, channel=3, data=[73, 64]),\n",
      "   midi.NoteOnEvent(tick=0, channel=3, data=[71, 100]),\n",
      "   midi.NoteOffEvent(tick=192, channel=3, data=[71, 64]),\n",
      "   midi.NoteOnEvent(tick=0, channel=3, data=[79, 100]),\n",
      "   midi.NoteOffEvent(tick=192, channel=3, data=[79, 64]),\n",
      "   midi.NoteOnEvent(tick=0, channel=3, data=[78, 100]),\n",
      "   midi.NoteOffEvent(tick=192, channel=3, data=[78, 64]),\n",
      "   midi.NoteOnEvent(tick=0, channel=3, data=[76, 100]),\n",
      "   midi.NoteOffEvent(tick=192, channel=3, data=[76, 64]),\n",
      "   midi.NoteOnEvent(tick=0, channel=3, data=[74, 100]),\n",
      "   midi.NoteOffEvent(tick=192, channel=3, data=[74, 64]),\n",
      "   midi.NoteOnEvent(tick=0, channel=3, data=[73, 100]),\n",
      "   midi.NoteOffEvent(tick=96, channel=3, data=[73, 64]),\n",
      "   midi.NoteOnEvent(tick=0, channel=3, data=[74, 100]),\n",
      "   midi.NoteOffEvent(tick=96, channel=3, data=[74, 64]),\n",
      "   midi.NoteOnEvent(tick=0, channel=3, data=[71, 100]),\n",
      "   midi.NoteOffEvent(tick=384, channel=3, data=[71, 64]),\n",
      "   midi.NoteOnEvent(tick=768, channel=3, data=[73, 100]),\n",
      "   midi.NoteOffEvent(tick=96, channel=3, data=[73, 64]),\n",
      "   midi.NoteOnEvent(tick=0, channel=3, data=[74, 100]),\n",
      "   midi.NoteOffEvent(tick=96, channel=3, data=[74, 64]),\n",
      "   midi.NoteOnEvent(tick=0, channel=3, data=[76, 100]),\n",
      "   midi.NoteOffEvent(tick=96, channel=3, data=[76, 64]),\n",
      "   midi.NoteOnEvent(tick=96, channel=3, data=[76, 100]),\n",
      "   midi.NoteOffEvent(tick=96, channel=3, data=[76, 64]),\n",
      "   midi.NoteOnEvent(tick=96, channel=3, data=[76, 100]),\n",
      "   midi.NoteOffEvent(tick=96, channel=3, data=[76, 64]),\n",
      "   midi.NoteOnEvent(tick=96, channel=3, data=[66, 100]),\n",
      "   midi.NoteOffEvent(tick=384, channel=3, data=[66, 64]),\n",
      "   midi.NoteOnEvent(tick=384, channel=3, data=[71, 100]),\n",
      "   midi.NoteOffEvent(tick=96, channel=3, data=[71, 64]),\n",
      "   midi.NoteOnEvent(tick=0, channel=3, data=[73, 100]),\n",
      "   midi.NoteOffEvent(tick=96, channel=3, data=[73, 64]),\n",
      "   midi.NoteOnEvent(tick=0, channel=3, data=[74, 100]),\n",
      "   midi.NoteOffEvent(tick=96, channel=3, data=[74, 64]),\n",
      "   midi.NoteOnEvent(tick=96, channel=3, data=[74, 100]),\n",
      "   midi.NoteOffEvent(tick=96, channel=3, data=[74, 64]),\n",
      "   midi.NoteOnEvent(tick=96, channel=3, data=[74, 100]),\n",
      "   midi.NoteOffEvent(tick=96, channel=3, data=[74, 64]),\n",
      "   midi.NoteOnEvent(tick=96, channel=3, data=[64, 100]),\n",
      "   midi.NoteOffEvent(tick=192, channel=3, data=[64, 64]),\n",
      "   midi.NoteOnEvent(tick=0, channel=3, data=[73, 100]),\n",
      "   midi.NoteOffEvent(tick=96, channel=3, data=[73, 64]),\n",
      "   midi.NoteOnEvent(tick=0, channel=3, data=[74, 100]),\n",
      "   midi.NoteOffEvent(tick=96, channel=3, data=[74, 64]),\n",
      "   midi.NoteOnEvent(tick=0, channel=3, data=[76, 100]),\n",
      "   midi.NoteOffEvent(tick=96, channel=3, data=[76, 64]),\n",
      "   midi.NoteOnEvent(tick=0, channel=3, data=[71, 100]),\n",
      "   midi.NoteOffEvent(tick=96, channel=3, data=[71, 64]),\n",
      "   midi.NoteOnEvent(tick=0, channel=3, data=[70, 100]),\n",
      "   midi.NoteOffEvent(tick=96, channel=3, data=[70, 64]),\n",
      "   midi.NoteOnEvent(tick=0, channel=3, data=[71, 100]),\n",
      "   midi.NoteOffEvent(tick=96, channel=3, data=[71, 64]),\n",
      "   midi.NoteOnEvent(tick=0, channel=3, data=[73, 100]),\n",
      "   midi.NoteOffEvent(tick=480, channel=3, data=[73, 64]),\n",
      "   midi.NoteOnEvent(tick=0, channel=3, data=[76, 100]),\n",
      "   midi.NoteOffEvent(tick=96, channel=3, data=[76, 64]),\n",
      "   midi.NoteOnEvent(tick=0, channel=3, data=[74, 100]),\n",
      "   midi.NoteOffEvent(tick=96, channel=3, data=[74, 64]),\n",
      "   midi.NoteOnEvent(tick=0, channel=3, data=[73, 100]),\n",
      "   midi.NoteOffEvent(tick=96, channel=3, data=[73, 64]),\n",
      "   midi.NoteOnEvent(tick=0, channel=3, data=[76, 100]),\n",
      "   midi.NoteOffEvent(tick=96, channel=3, data=[76, 64]),\n",
      "   midi.NoteOnEvent(tick=0, channel=3, data=[74, 100]),\n",
      "   midi.NoteOffEvent(tick=96, channel=3, data=[74, 64]),\n",
      "   midi.NoteOnEvent(tick=0, channel=3, data=[73, 100]),\n",
      "   midi.NoteOffEvent(tick=96, channel=3, data=[73, 64]),\n",
      "   midi.NoteOnEvent(tick=0, channel=3, data=[71, 100]),\n",
      "   midi.NoteOffEvent(tick=96, channel=3, data=[71, 64]),\n",
      "   midi.NoteOnEvent(tick=0, channel=3, data=[73, 100]),\n",
      "   midi.NoteOffEvent(tick=192, channel=3, data=[73, 64]),\n",
      "   midi.NoteOnEvent(tick=0, channel=3, data=[70, 100]),\n",
      "   midi.NoteOffEvent(tick=192, channel=3, data=[70, 64]),\n",
      "   midi.NoteOnEvent(tick=0, channel=3, data=[71, 100]),\n",
      "   midi.NoteOffEvent(tick=384, channel=3, data=[71, 64]),\n",
      "   midi.NoteOnEvent(tick=384, channel=3, data=[73, 100]),\n",
      "   midi.NoteOffEvent(tick=96, channel=3, data=[73, 64]),\n",
      "   midi.NoteOnEvent(tick=0, channel=3, data=[74, 100]),\n",
      "   midi.NoteOffEvent(tick=96, channel=3, data=[74, 64]),\n",
      "   midi.NoteOnEvent(tick=0, channel=3, data=[76, 100]),\n",
      "   midi.NoteOffEvent(tick=96, channel=3, data=[76, 64]),\n",
      "   midi.NoteOnEvent(tick=96, channel=3, data=[76, 100]),\n",
      "   midi.NoteOffEvent(tick=96, channel=3, data=[76, 64]),\n",
      "   midi.NoteOnEvent(tick=96, channel=3, data=[76, 100]),\n",
      "   midi.NoteOffEvent(tick=96, channel=3, data=[76, 64]),\n",
      "   midi.NoteOnEvent(tick=96, channel=3, data=[76, 100]),\n",
      "   midi.NoteOnEvent(tick=864, channel=3, data=[79, 100]),\n",
      "   midi.NoteOffEvent(tick=96, channel=3, data=[76, 64]),\n",
      "   midi.NoteOffEvent(tick=0, channel=3, data=[79, 64]),\n",
      "   midi.NoteOnEvent(tick=0, channel=3, data=[78, 100]),\n",
      "   midi.NoteOffEvent(tick=96, channel=3, data=[78, 64]),\n",
      "   midi.NoteOnEvent(tick=0, channel=3, data=[76, 100]),\n",
      "   midi.NoteOffEvent(tick=96, channel=3, data=[76, 64]),\n",
      "   midi.NoteOnEvent(tick=0, channel=3, data=[78, 100]),\n",
      "   midi.NoteOffEvent(tick=96, channel=3, data=[78, 64]),\n",
      "   midi.NoteOnEvent(tick=0, channel=3, data=[76, 100]),\n",
      "   midi.NoteOffEvent(tick=96, channel=3, data=[76, 64]),\n",
      "   midi.NoteOnEvent(tick=0, channel=3, data=[74, 100]),\n",
      "   midi.NoteOffEvent(tick=96, channel=3, data=[74, 64]),\n",
      "   midi.NoteOnEvent(tick=0, channel=3, data=[73, 100]),\n",
      "   midi.NoteOffEvent(tick=96, channel=3, data=[73, 64]),\n",
      "   midi.NoteOnEvent(tick=0, channel=3, data=[74, 100]),\n",
      "   midi.NoteOffEvent(tick=96, channel=3, data=[74, 64]),\n",
      "   midi.NoteOnEvent(tick=0, channel=3, data=[76, 100]),\n",
      "   midi.NoteOffEvent(tick=96, channel=3, data=[76, 64]),\n",
      "   midi.NoteOnEvent(tick=0, channel=3, data=[74, 100]),\n",
      "   midi.NoteOffEvent(tick=96, channel=3, data=[74, 64]),\n",
      "   midi.NoteOnEvent(tick=0, channel=3, data=[73, 100]),\n",
      "   midi.NoteOffEvent(tick=96, channel=3, data=[73, 64]),\n",
      "   midi.NoteOnEvent(tick=0, channel=3, data=[71, 100]),\n",
      "   midi.NoteOffEvent(tick=96, channel=3, data=[71, 64]),\n",
      "   midi.NoteOnEvent(tick=0, channel=3, data=[73, 100]),\n",
      "   midi.NoteOffEvent(tick=96, channel=3, data=[73, 64]),\n",
      "   midi.NoteOnEvent(tick=0, channel=3, data=[74, 100]),\n",
      "   midi.NoteOffEvent(tick=96, channel=3, data=[74, 64]),\n",
      "   midi.NoteOnEvent(tick=0, channel=3, data=[76, 100]),\n",
      "   midi.NoteOffEvent(tick=96, channel=3, data=[76, 64]),\n",
      "   midi.NoteOnEvent(tick=0, channel=3, data=[78, 100]),\n",
      "   midi.NoteOffEvent(tick=192, channel=3, data=[78, 64]),\n",
      "   midi.NoteOnEvent(tick=0, channel=3, data=[81, 100]),\n",
      "   midi.NoteOffEvent(tick=192, channel=3, data=[81, 64]),\n",
      "   midi.NoteOnEvent(tick=0, channel=3, data=[78, 100]),\n",
      "   midi.NoteOffEvent(tick=192, channel=3, data=[78, 64]),\n",
      "   midi.NoteOnEvent(tick=0, channel=3, data=[75, 100]),\n",
      "   midi.NoteOffEvent(tick=192, channel=3, data=[75, 64]),\n",
      "   midi.NoteOnEvent(tick=0, channel=3, data=[84, 100]),\n",
      "   midi.NoteOffEvent(tick=192, channel=3, data=[84, 64]),\n",
      "   midi.NoteOnEvent(tick=0, channel=3, data=[81, 100]),\n",
      "   midi.NoteOffEvent(tick=192, channel=3, data=[81, 64]),\n",
      "   midi.NoteOnEvent(tick=576, channel=3, data=[83, 100]),\n",
      "   midi.NoteOffEvent(tick=256, channel=3, data=[83, 64]),\n",
      "   midi.NoteOnEvent(tick=32, channel=3, data=[81, 100]),\n",
      "   midi.NoteOffEvent(tick=96, channel=3, data=[81, 64]),\n",
      "   midi.NoteOnEvent(tick=0, channel=3, data=[79, 100]),\n",
      "   midi.NoteOffEvent(tick=96, channel=3, data=[79, 64]),\n",
      "   midi.NoteOnEvent(tick=0, channel=3, data=[78, 100]),\n",
      "   midi.NoteOffEvent(tick=96, channel=3, data=[78, 64]),\n",
      "   midi.NoteOnEvent(tick=0, channel=3, data=[79, 100]),\n",
      "   midi.NoteOffEvent(tick=192, channel=3, data=[79, 64]),\n",
      "   midi.NoteOnEvent(tick=0, channel=3, data=[83, 100]),\n",
      "   midi.NoteOffEvent(tick=96, channel=3, data=[83, 64]),\n",
      "   midi.NoteOnEvent(tick=0, channel=3, data=[81, 100]),\n",
      "   midi.NoteOffEvent(tick=96, channel=3, data=[81, 64]),\n",
      "   midi.NoteOnEvent(tick=0, channel=3, data=[79, 100]),\n",
      "   midi.NoteOffEvent(tick=96, channel=3, data=[79, 64]),\n",
      "   midi.NoteOnEvent(tick=0, channel=3, data=[78, 100]),\n",
      "   midi.NoteOffEvent(tick=96, channel=3, data=[78, 64]),\n",
      "   midi.NoteOnEvent(tick=0, channel=3, data=[76, 100]),\n",
      "   midi.NoteOffEvent(tick=96, channel=3, data=[76, 64]),\n",
      "   midi.NoteOnEvent(tick=0, channel=3, data=[74, 100]),\n",
      "   midi.NoteOffEvent(tick=96, channel=3, data=[74, 64]),\n",
      "   midi.NoteOnEvent(tick=0, channel=3, data=[73, 100]),\n",
      "   midi.NoteOffEvent(tick=864, channel=3, data=[73, 64]),\n",
      "   midi.NoteOnEvent(tick=0, channel=3, data=[71, 100]),\n",
      "   midi.NoteOffEvent(tick=96, channel=3, data=[71, 64]),\n",
      "   midi.NoteOnEvent(tick=0, channel=3, data=[70, 100]),\n",
      "   midi.NoteOffEvent(tick=96, channel=3, data=[70, 64]),\n",
      "   midi.NoteOnEvent(tick=0, channel=3, data=[71, 100]),\n",
      "   midi.NoteOffEvent(tick=96, channel=3, data=[71, 64]),\n",
      "   midi.NoteOnEvent(tick=0, channel=3, data=[73, 100]),\n",
      "   midi.NoteOffEvent(tick=192, channel=3, data=[73, 64]),\n",
      "   midi.NoteOnEvent(tick=0, channel=3, data=[74, 100]),\n",
      "   midi.NoteOffEvent(tick=192, channel=3, data=[74, 64]),\n",
      "   midi.NoteOnEvent(tick=0, channel=3, data=[76, 100]),\n",
      "   midi.NoteOffEvent(tick=864, channel=3, data=[76, 64]),\n",
      "   midi.NoteOnEvent(tick=0, channel=3, data=[74, 100]),\n",
      "   midi.NoteOffEvent(tick=96, channel=3, data=[74, 64]),\n",
      "   midi.NoteOnEvent(tick=0, channel=3, data=[73, 100]),\n",
      "   midi.NoteOffEvent(tick=96, channel=3, data=[73, 64]),\n",
      "   midi.NoteOnEvent(tick=0, channel=3, data=[74, 100]),\n",
      "   midi.NoteOffEvent(tick=96, channel=3, data=[74, 64]),\n",
      "   midi.NoteOnEvent(tick=0, channel=3, data=[76, 100]),\n",
      "   midi.NoteOffEvent(tick=96, channel=3, data=[76, 64]),\n",
      "   midi.NoteOnEvent(tick=0, channel=3, data=[74, 100]),\n",
      "   midi.NoteOffEvent(tick=96, channel=3, data=[74, 64]),\n",
      "   midi.NoteOnEvent(tick=0, channel=3, data=[76, 100]),\n",
      "   midi.NoteOffEvent(tick=96, channel=3, data=[76, 64]),\n",
      "   midi.NoteOnEvent(tick=0, channel=3, data=[73, 100]),\n",
      "   midi.NoteOffEvent(tick=96, channel=3, data=[73, 64]),\n",
      "   midi.NoteOnEvent(tick=0, channel=3, data=[74, 100]),\n",
      "   midi.NoteOffEvent(tick=96, channel=3, data=[74, 64]),\n",
      "   midi.NoteOnEvent(tick=0, channel=3, data=[76, 100]),\n",
      "   midi.NoteOffEvent(tick=96, channel=3, data=[76, 64]),\n",
      "   midi.NoteOnEvent(tick=0, channel=3, data=[78, 100]),\n",
      "   midi.NoteOffEvent(tick=96, channel=3, data=[78, 64]),\n",
      "   midi.NoteOnEvent(tick=96, channel=3, data=[78, 100]),\n",
      "   midi.NoteOffEvent(tick=96, channel=3, data=[78, 64]),\n",
      "   midi.NoteOnEvent(tick=96, channel=3, data=[79, 100]),\n",
      "   midi.NoteOffEvent(tick=96, channel=3, data=[79, 64]),\n",
      "   midi.NoteOnEvent(tick=96, channel=3, data=[78, 100]),\n",
      "   midi.NoteOffEvent(tick=96, channel=3, data=[78, 64]),\n",
      "   midi.NoteOnEvent(tick=0, channel=3, data=[83, 100]),\n",
      "   midi.NoteOffEvent(tick=96, channel=3, data=[83, 64]),\n",
      "   midi.NoteOnEvent(tick=0, channel=3, data=[81, 100]),\n",
      "   midi.NoteOffEvent(tick=96, channel=3, data=[81, 64]),\n",
      "   midi.NoteOnEvent(tick=0, channel=3, data=[79, 100]),\n",
      "   midi.NoteOffEvent(tick=96, channel=3, data=[79, 64]),\n",
      "   midi.NoteOnEvent(tick=0, channel=3, data=[78, 100]),\n",
      "   midi.NoteOffEvent(tick=192, channel=3, data=[78, 64]),\n",
      "   midi.NoteOnEvent(tick=0, channel=3, data=[76, 100]),\n",
      "   midi.NoteOffEvent(tick=192, channel=3, data=[76, 64]),\n",
      "   midi.NoteOnEvent(tick=0, channel=3, data=[74, 100]),\n",
      "   midi.NoteOffEvent(tick=384, channel=3, data=[74, 64]),\n",
      "   midi.NoteOnEvent(tick=0, channel=3, data=[73, 100]),\n",
      "   midi.NoteOffEvent(tick=384, channel=3, data=[73, 64]),\n",
      "   midi.NoteOnEvent(tick=0, channel=3, data=[71, 100]),\n",
      "   midi.NoteOffEvent(tick=384, channel=3, data=[71, 64]),\n",
      "   midi.NoteOnEvent(tick=1152, channel=3, data=[69, 100]),\n",
      "   midi.NoteOffEvent(tick=96, channel=3, data=[69, 64]),\n",
      "   midi.NoteOnEvent(tick=0, channel=3, data=[71, 100]),\n",
      "   midi.NoteOffEvent(tick=96, channel=3, data=[71, 64]),\n",
      "   midi.NoteOnEvent(tick=0, channel=3, data=[72, 100]),\n",
      "   midi.NoteOffEvent(tick=96, channel=3, data=[72, 64]),\n",
      "   midi.NoteOnEvent(tick=96, channel=3, data=[72, 100]),\n",
      "   midi.NoteOffEvent(tick=96, channel=3, data=[72, 64]),\n",
      "   midi.NoteOnEvent(tick=96, channel=3, data=[74, 100]),\n",
      "   midi.NoteOffEvent(tick=96, channel=3, data=[74, 64]),\n",
      "   midi.NoteOnEvent(tick=1632, channel=3, data=[79, 100]),\n",
      "   midi.NoteOffEvent(tick=96, channel=3, data=[79, 64]),\n",
      "   midi.NoteOnEvent(tick=0, channel=3, data=[81, 100]),\n",
      "   midi.NoteOffEvent(tick=96, channel=3, data=[81, 64]),\n",
      "   midi.NoteOnEvent(tick=0, channel=3, data=[83, 100]),\n",
      "   midi.NoteOffEvent(tick=96, channel=3, data=[83, 64]),\n",
      "   midi.NoteOnEvent(tick=96, channel=3, data=[83, 100]),\n",
      "   midi.NoteOffEvent(tick=96, channel=3, data=[83, 64]),\n",
      "   midi.NoteOnEvent(tick=96, channel=3, data=[83, 100]),\n",
      "   midi.NoteOffEvent(tick=96, channel=3, data=[83, 64]),\n",
      "   midi.NoteOnEvent(tick=96, channel=3, data=[83, 100]),\n",
      "   midi.NoteOffEvent(tick=480, channel=3, data=[83, 64]),\n",
      "   midi.NoteOnEvent(tick=0, channel=3, data=[81, 100]),\n",
      "   midi.NoteOffEvent(tick=96, channel=3, data=[81, 64]),\n",
      "   midi.NoteOnEvent(tick=0, channel=3, data=[79, 100]),\n",
      "   midi.NoteOffEvent(tick=96, channel=3, data=[79, 64]),\n",
      "   midi.NoteOnEvent(tick=0, channel=3, data=[78, 100]),\n",
      "   midi.NoteOffEvent(tick=96, channel=3, data=[78, 64]),\n",
      "   midi.NoteOnEvent(tick=0, channel=3, data=[76, 100]),\n",
      "   midi.NoteOffEvent(tick=192, channel=3, data=[76, 64]),\n",
      "   midi.NoteOnEvent(tick=0, channel=3, data=[72, 100]),\n",
      "   midi.NoteOffEvent(tick=192, channel=3, data=[72, 64]),\n",
      "   midi.NoteOnEvent(tick=0, channel=3, data=[71, 100]),\n",
      "   midi.NoteOffEvent(tick=192, channel=3, data=[71, 64]),\n",
      "   midi.NoteOnEvent(tick=0, channel=3, data=[69, 100]),\n",
      "   midi.NoteOffEvent(tick=192, channel=3, data=[69, 64]),\n",
      "   midi.NoteOnEvent(tick=0, channel=3, data=[67, 100]),\n",
      "   midi.NoteOffEvent(tick=192, channel=3, data=[67, 64]),\n",
      "   midi.NoteOnEvent(tick=0, channel=3, data=[66, 100]),\n",
      "   midi.NoteOffEvent(tick=96, channel=3, data=[66, 64]),\n",
      "   midi.NoteOnEvent(tick=0, channel=3, data=[67, 100]),\n",
      "   midi.NoteOffEvent(tick=96, channel=3, data=[67, 64]),\n",
      "   midi.NoteOnEvent(tick=0, channel=3, data=[64, 100]),\n",
      "   midi.NoteOffEvent(tick=192, channel=3, data=[64, 64]),\n",
      "   midi.NoteOnEvent(tick=0, channel=3, data=[79, 100]),\n",
      "   midi.NoteOffEvent(tick=192, channel=3, data=[79, 64]),\n",
      "   midi.NoteOnEvent(tick=0, channel=3, data=[76, 100]),\n",
      "   midi.NoteOffEvent(tick=192, channel=3, data=[76, 64]),\n",
      "   midi.NoteOnEvent(tick=0, channel=3, data=[73, 100]),\n",
      "   midi.NoteOffEvent(tick=192, channel=3, data=[73, 64]),\n",
      "   midi.NoteOnEvent(tick=192, channel=3, data=[73, 100]),\n",
      "   midi.NoteOffEvent(tick=192, channel=3, data=[73, 64]),\n",
      "   midi.NoteOnEvent(tick=0, channel=3, data=[78, 100]),\n",
      "   midi.NoteOffEvent(tick=192, channel=3, data=[78, 64]),\n",
      "   midi.NoteOnEvent(tick=0, channel=3, data=[74, 100]),\n",
      "   midi.NoteOffEvent(tick=192, channel=3, data=[74, 64]),\n",
      "   midi.NoteOnEvent(tick=192, channel=3, data=[78, 100]),\n",
      "   midi.NoteOffEvent(tick=192, channel=3, data=[78, 64]),\n",
      "   midi.NoteOnEvent(tick=0, channel=3, data=[71, 100]),\n",
      "   midi.NoteOffEvent(tick=192, channel=3, data=[71, 64]),\n",
      "   midi.NoteOnEvent(tick=0, channel=3, data=[80, 100]),\n",
      "   midi.NoteOffEvent(tick=192, channel=3, data=[80, 64]),\n",
      "   midi.NoteOnEvent(tick=192, channel=3, data=[78, 100]),\n",
      "   midi.NoteOffEvent(tick=192, channel=3, data=[78, 64]),\n",
      "   midi.NoteOnEvent(tick=0, channel=3, data=[77, 100]),\n",
      "   midi.NoteOffEvent(tick=192, channel=3, data=[77, 64]),\n",
      "   midi.NoteOnEvent(tick=0, channel=3, data=[73, 100]),\n",
      "   midi.NoteOffEvent(tick=192, channel=3, data=[73, 64]),\n",
      "   midi.NoteOnEvent(tick=192, channel=3, data=[68, 100]),\n",
      "   midi.NoteOffEvent(tick=192, channel=3, data=[68, 64]),\n",
      "   midi.NoteOnEvent(tick=0, channel=3, data=[69, 100]),\n",
      "   midi.NoteOffEvent(tick=192, channel=3, data=[69, 64]),\n",
      "   midi.NoteOnEvent(tick=0, channel=3, data=[73, 100]),\n",
      "   midi.NoteOffEvent(tick=192, channel=3, data=[73, 64]),\n",
      "   midi.NoteOnEvent(tick=0, channel=3, data=[78, 100]),\n",
      "   midi.NoteOffEvent(tick=192, channel=3, data=[78, 64]),\n",
      "   midi.NoteOnEvent(tick=0, channel=3, data=[76, 100]),\n",
      "   midi.NoteOffEvent(tick=192, channel=3, data=[76, 64]),\n",
      "   midi.NoteOnEvent(tick=0, channel=3, data=[74, 100]),\n",
      "   midi.NoteOffEvent(tick=96, channel=3, data=[74, 64]),\n",
      "   midi.NoteOnEvent(tick=0, channel=3, data=[73, 100]),\n",
      "   midi.NoteOffEvent(tick=96, channel=3, data=[73, 64]),\n",
      "   midi.NoteOnEvent(tick=0, channel=3, data=[71, 100]),\n",
      "   midi.NoteOffEvent(tick=96, channel=3, data=[71, 64]),\n",
      "   midi.NoteOnEvent(tick=0, channel=3, data=[69, 100]),\n",
      "   midi.NoteOffEvent(tick=96, channel=3, data=[69, 64]),\n",
      "   midi.NoteOnEvent(tick=0, channel=3, data=[71, 100]),\n",
      "   midi.NoteOffEvent(tick=192, channel=3, data=[71, 64]),\n",
      "   midi.NoteOnEvent(tick=0, channel=3, data=[71, 100]),\n",
      "   midi.NoteOffEvent(tick=192, channel=3, data=[71, 64]),\n",
      "   midi.NoteOnEvent(tick=0, channel=3, data=[71, 100]),\n",
      "   midi.NoteOffEvent(tick=192, channel=3, data=[71, 64]),\n",
      "   midi.NoteOnEvent(tick=0, channel=3, data=[74, 100]),\n",
      "   midi.NoteOffEvent(tick=192, channel=3, data=[74, 64]),\n",
      "   midi.NoteOnEvent(tick=0, channel=3, data=[73, 100]),\n",
      "   midi.NoteOffEvent(tick=192, channel=3, data=[73, 64]),\n",
      "   midi.NoteOnEvent(tick=0, channel=3, data=[71, 100]),\n",
      "   midi.NoteOffEvent(tick=192, channel=3, data=[71, 64]),\n",
      "   midi.NoteOnEvent(tick=0, channel=3, data=[69, 100]),\n",
      "   midi.NoteOffEvent(tick=384, channel=3, data=[69, 64]),\n",
      "   midi.NoteOnEvent(tick=0, channel=3, data=[68, 100]),\n",
      "   midi.NoteOffEvent(tick=384, channel=3, data=[68, 64]),\n",
      "   midi.NoteOnEvent(tick=0, channel=3, data=[66, 100]),\n",
      "   midi.NoteOffEvent(tick=384, channel=3, data=[66, 64]),\n",
      "   midi.NoteOnEvent(tick=1728, channel=3, data=[69, 100]),\n",
      "   midi.NoteOffEvent(tick=192, channel=3, data=[69, 64]),\n",
      "   midi.NoteOnEvent(tick=0, channel=3, data=[74, 100]),\n",
      "   midi.NoteOffEvent(tick=48, channel=3, data=[74, 64]),\n",
      "   midi.NoteOnEvent(tick=0, channel=3, data=[76, 100]),\n",
      "   midi.NoteOffEvent(tick=48, channel=3, data=[76, 64]),\n",
      "   midi.NoteOnEvent(tick=0, channel=3, data=[78, 100]),\n",
      "   midi.NoteOffEvent(tick=256, channel=3, data=[78, 64]),\n",
      "   midi.NoteOnEvent(tick=32, channel=3, data=[76, 100]),\n",
      "   midi.NoteOffEvent(tick=48, channel=3, data=[76, 64]),\n",
      "   midi.NoteOnEvent(tick=0, channel=3, data=[78, 100]),\n",
      "   midi.NoteOffEvent(tick=48, channel=3, data=[78, 64]),\n",
      "   midi.NoteOnEvent(tick=0, channel=3, data=[79, 100]),\n",
      "   midi.NoteOffEvent(tick=256, channel=3, data=[79, 64]),\n",
      "   midi.NoteOnEvent(tick=32, channel=3, data=[78, 100]),\n",
      "   midi.NoteOffEvent(tick=192, channel=3, data=[78, 64]),\n",
      "   midi.NoteOnEvent(tick=0, channel=3, data=[81, 100]),\n",
      "   midi.NoteOffEvent(tick=192, channel=3, data=[81, 64]),\n",
      "   midi.NoteOnEvent(tick=0, channel=3, data=[78, 100]),\n",
      "   midi.NoteOffEvent(tick=192, channel=3, data=[78, 64]),\n",
      "   midi.NoteOnEvent(tick=0, channel=3, data=[74, 100]),\n",
      "   midi.NoteOffEvent(tick=192, channel=3, data=[74, 64]),\n",
      "   midi.NoteOnEvent(tick=768, channel=3, data=[74, 100]),\n",
      "   midi.NoteOffEvent(tick=96, channel=3, data=[74, 64]),\n",
      "   midi.NoteOnEvent(tick=0, channel=3, data=[76, 100]),\n",
      "   midi.NoteOffEvent(tick=96, channel=3, data=[76, 64]),\n",
      "   midi.NoteOnEvent(tick=0, channel=3, data=[78, 100]),\n",
      "   midi.NoteOffEvent(tick=96, channel=3, data=[78, 64]),\n",
      "   midi.NoteOnEvent(tick=96, channel=3, data=[78, 100]),\n",
      "   midi.NoteOffEvent(tick=96, channel=3, data=[78, 64]),\n",
      "   midi.NoteOnEvent(tick=96, channel=3, data=[78, 100]),\n",
      "   midi.NoteOffEvent(tick=96, channel=3, data=[78, 64]),\n",
      "   midi.NoteOnEvent(tick=96, channel=3, data=[78, 100]),\n",
      "   midi.NoteOffEvent(tick=192, channel=3, data=[78, 64]),\n",
      "   midi.NoteOnEvent(tick=2112, channel=3, data=[73, 100]),\n",
      "   midi.NoteOffEvent(tick=96, channel=3, data=[73, 64]),\n",
      "   midi.NoteOnEvent(tick=0, channel=3, data=[74, 100]),\n",
      "   midi.NoteOffEvent(tick=96, channel=3, data=[74, 64]),\n",
      "   midi.NoteOnEvent(tick=0, channel=3, data=[76, 100]),\n",
      "   midi.NoteOffEvent(tick=96, channel=3, data=[76, 64]),\n",
      "   midi.NoteOnEvent(tick=96, channel=3, data=[76, 100]),\n",
      "   midi.NoteOffEvent(tick=96, channel=3, data=[76, 64]),\n",
      "   midi.NoteOnEvent(tick=96, channel=3, data=[69, 100]),\n",
      "   midi.NoteOffEvent(tick=96, channel=3, data=[69, 64]),\n",
      "   midi.NoteOnEvent(tick=96, channel=3, data=[74, 100]),\n",
      "   midi.NoteOffEvent(tick=48, channel=3, data=[74, 64]),\n",
      "   midi.NoteOnEvent(tick=0, channel=3, data=[76, 100]),\n",
      "   midi.NoteOffEvent(tick=48, channel=3, data=[76, 64]),\n",
      "   midi.NoteOnEvent(tick=0, channel=3, data=[78, 100]),\n",
      "   midi.NoteOffEvent(tick=256, channel=3, data=[78, 64]),\n",
      "   midi.NoteOnEvent(tick=32, channel=3, data=[76, 100]),\n",
      "   midi.NoteOffEvent(tick=48, channel=3, data=[76, 64]),\n",
      "   midi.NoteOnEvent(tick=0, channel=3, data=[78, 100]),\n",
      "   midi.NoteOffEvent(tick=48, channel=3, data=[78, 64]),\n",
      "   midi.NoteOnEvent(tick=0, channel=3, data=[79, 100]),\n",
      "   midi.NoteOffEvent(tick=256, channel=3, data=[79, 64]),\n",
      "   midi.NoteOnEvent(tick=32, channel=3, data=[78, 100]),\n",
      "   midi.NoteOffEvent(tick=192, channel=3, data=[78, 64]),\n",
      "   midi.NoteOnEvent(tick=0, channel=3, data=[76, 100]),\n",
      "   midi.NoteOffEvent(tick=192, channel=3, data=[76, 64]),\n",
      "   midi.NoteOnEvent(tick=0, channel=3, data=[74, 100]),\n",
      "   midi.NoteOffEvent(tick=384, channel=3, data=[74, 64]),\n",
      "   midi.NoteOnEvent(tick=1344, channel=3, data=[69, 100]),\n",
      "   midi.NoteOffEvent(tick=192, channel=3, data=[69, 64]),\n",
      "   midi.NoteOnEvent(tick=0, channel=3, data=[74, 100]),\n",
      "   midi.NoteOffEvent(tick=48, channel=3, data=[74, 64]),\n",
      "   midi.NoteOnEvent(tick=0, channel=3, data=[76, 100]),\n",
      "   midi.NoteOffEvent(tick=48, channel=3, data=[76, 64]),\n",
      "   midi.NoteOnEvent(tick=0, channel=3, data=[78, 100]),\n",
      "   midi.NoteOffEvent(tick=256, channel=3, data=[78, 64]),\n",
      "   midi.NoteOnEvent(tick=32, channel=3, data=[76, 100]),\n",
      "   midi.NoteOffEvent(tick=48, channel=3, data=[76, 64]),\n",
      "   midi.NoteOnEvent(tick=0, channel=3, data=[78, 100]),\n",
      "   midi.NoteOffEvent(tick=48, channel=3, data=[78, 64]),\n",
      "   midi.NoteOnEvent(tick=0, channel=3, data=[79, 100]),\n",
      "   midi.NoteOffEvent(tick=256, channel=3, data=[79, 64]),\n",
      "   midi.NoteOnEvent(tick=32, channel=3, data=[78, 100]),\n",
      "   midi.NoteOffEvent(tick=192, channel=3, data=[78, 64]),\n",
      "   midi.NoteOnEvent(tick=0, channel=3, data=[81, 100]),\n",
      "   midi.NoteOffEvent(tick=192, channel=3, data=[81, 64]),\n",
      "   midi.NoteOnEvent(tick=0, channel=3, data=[78, 100]),\n",
      "   midi.NoteOffEvent(tick=192, channel=3, data=[78, 64]),\n",
      "   midi.NoteOnEvent(tick=0, channel=3, data=[74, 100]),\n",
      "   midi.NoteOffEvent(tick=192, channel=3, data=[74, 64]),\n",
      "   midi.NoteOnEvent(tick=192, channel=3, data=[69, 100]),\n",
      "   midi.NoteOffEvent(tick=192, channel=3, data=[69, 64]),\n",
      "   midi.NoteOnEvent(tick=0, channel=3, data=[74, 100]),\n",
      "   midi.NoteOffEvent(tick=192, channel=3, data=[74, 64]),\n",
      "   midi.NoteOnEvent(tick=0, channel=3, data=[78, 100]),\n",
      "   midi.NoteOffEvent(tick=192, channel=3, data=[78, 64]),\n",
      "   midi.NoteOnEvent(tick=192, channel=3, data=[74, 100]),\n",
      "   midi.NoteOffEvent(tick=192, channel=3, data=[74, 64]),\n",
      "   midi.NoteOnEvent(tick=0, channel=3, data=[78, 100]),\n",
      "   midi.NoteOffEvent(tick=192, channel=3, data=[78, 64]),\n",
      "   midi.NoteOnEvent(tick=0, channel=3, data=[83, 100]),\n",
      "   midi.NoteOffEvent(tick=192, channel=3, data=[83, 64]),\n",
      "   midi.NoteOnEvent(tick=192, channel=3, data=[71, 100]),\n",
      "   midi.NoteOffEvent(tick=192, channel=3, data=[71, 64]),\n",
      "   midi.NoteOnEvent(tick=0, channel=3, data=[76, 100]),\n",
      "   midi.NoteOffEvent(tick=192, channel=3, data=[76, 64]),\n",
      "   midi.NoteOnEvent(tick=0, channel=3, data=[79, 100]),\n",
      "   midi.NoteOffEvent(tick=192, channel=3, data=[79, 64]),\n",
      "   midi.NoteOnEvent(tick=192, channel=3, data=[76, 100]),\n",
      "   midi.NoteOffEvent(tick=192, channel=3, data=[76, 64]),\n",
      "   midi.NoteOnEvent(tick=0, channel=3, data=[73, 100]),\n",
      "   midi.NoteOffEvent(tick=192, channel=3, data=[73, 64]),\n",
      "   midi.NoteOnEvent(tick=0, channel=3, data=[69, 100]),\n",
      "   midi.NoteOffEvent(tick=192, channel=3, data=[69, 64]),\n",
      "   midi.NoteOnEvent(tick=768, channel=3, data=[72, 100]),\n",
      "   midi.NoteOnEvent(tick=2304, channel=3, data=[71, 100]),\n",
      "   midi.NoteOnEvent(tick=0, channel=3, data=[71, 100]),\n",
      "   midi.NoteOffEvent(tick=4, channel=3, data=[72, 64]),\n",
      "   midi.NoteOffEvent(tick=92, channel=3, data=[71, 64]),\n",
      "   midi.NoteOffEvent(tick=0, channel=3, data=[71, 64]),\n",
      "   midi.NoteOnEvent(tick=0, channel=3, data=[72, 100]),\n",
      "   midi.NoteOnEvent(tick=0, channel=3, data=[72, 100]),\n",
      "   midi.NoteOffEvent(tick=96, channel=3, data=[72, 64]),\n",
      "   midi.NoteOffEvent(tick=0, channel=3, data=[72, 64]),\n",
      "   midi.NoteOnEvent(tick=0, channel=3, data=[71, 100]),\n",
      "   midi.NoteOnEvent(tick=0, channel=3, data=[71, 100]),\n",
      "   midi.NoteOffEvent(tick=96, channel=3, data=[71, 64]),\n",
      "   midi.NoteOffEvent(tick=0, channel=3, data=[71, 64]),\n",
      "   midi.NoteOnEvent(tick=96, channel=3, data=[71, 100]),\n",
      "   midi.NoteOnEvent(tick=0, channel=3, data=[71, 100]),\n",
      "   midi.NoteOffEvent(tick=96, channel=3, data=[71, 64]),\n",
      "   midi.NoteOffEvent(tick=0, channel=3, data=[71, 64]),\n",
      "   midi.NoteOnEvent(tick=96, channel=3, data=[71, 100]),\n",
      "   midi.NoteOnEvent(tick=0, channel=3, data=[71, 100]),\n",
      "   midi.NoteOffEvent(tick=96, channel=3, data=[71, 64]),\n",
      "   midi.NoteOffEvent(tick=0, channel=3, data=[71, 64]),\n",
      "   midi.NoteOnEvent(tick=96, channel=3, data=[71, 100]),\n",
      "   midi.NoteOffEvent(tick=192, channel=3, data=[71, 64]),\n",
      "   midi.NoteOnEvent(tick=0, channel=3, data=[76, 100]),\n",
      "   midi.NoteOffEvent(tick=96, channel=3, data=[76, 64]),\n",
      "   midi.NoteOnEvent(tick=0, channel=3, data=[74, 100]),\n",
      "   midi.NoteOffEvent(tick=96, channel=3, data=[74, 64]),\n",
      "   midi.NoteOnEvent(tick=0, channel=3, data=[76, 100]),\n",
      "   midi.NoteOffEvent(tick=96, channel=3, data=[76, 64]),\n",
      "   midi.NoteOnEvent(tick=0, channel=3, data=[74, 100]),\n",
      "   midi.NoteOffEvent(tick=96, channel=3, data=[74, 64]),\n",
      "   midi.NoteOnEvent(tick=0, channel=3, data=[73, 100]),\n",
      "   midi.NoteOffEvent(tick=96, channel=3, data=[73, 64]),\n",
      "   midi.NoteOnEvent(tick=0, channel=3, data=[71, 100]),\n",
      "   midi.NoteOffEvent(tick=96, channel=3, data=[71, 64]),\n",
      "   midi.NoteOnEvent(tick=0, channel=3, data=[69, 100]),\n",
      "   midi.NoteOnEvent(tick=0, channel=3, data=[69, 100]),\n",
      "   midi.NoteOffEvent(tick=96, channel=3, data=[69, 64]),\n",
      "   midi.NoteOffEvent(tick=0, channel=3, data=[69, 64]),\n",
      "   midi.NoteOnEvent(tick=0, channel=3, data=[71, 100]),\n",
      "   midi.NoteOnEvent(tick=0, channel=3, data=[71, 100]),\n",
      "   midi.NoteOffEvent(tick=96, channel=3, data=[71, 64]),\n",
      "   midi.NoteOffEvent(tick=0, channel=3, data=[71, 64]),\n",
      "   midi.NoteOnEvent(tick=0, channel=3, data=[69, 100]),\n",
      "   midi.NoteOnEvent(tick=0, channel=3, data=[69, 100]),\n",
      "   midi.NoteOffEvent(tick=96, channel=3, data=[69, 64]),\n",
      "   midi.NoteOffEvent(tick=0, channel=3, data=[69, 64]),\n",
      "   midi.NoteOnEvent(tick=96, channel=3, data=[69, 100]),\n",
      "   midi.NoteOnEvent(tick=0, channel=3, data=[69, 100]),\n",
      "   midi.NoteOffEvent(tick=96, channel=3, data=[69, 64]),\n",
      "   midi.NoteOffEvent(tick=0, channel=3, data=[69, 64]),\n",
      "   midi.NoteOnEvent(tick=96, channel=3, data=[69, 100]),\n",
      "   midi.NoteOnEvent(tick=0, channel=3, data=[69, 100]),\n",
      "   midi.NoteOffEvent(tick=96, channel=3, data=[69, 64]),\n",
      "   midi.NoteOffEvent(tick=0, channel=3, data=[69, 64]),\n",
      "   midi.NoteOnEvent(tick=96, channel=3, data=[69, 100]),\n",
      "   midi.NoteOffEvent(tick=192, channel=3, data=[69, 64]),\n",
      "   midi.NoteOnEvent(tick=0, channel=3, data=[74, 100]),\n",
      "   midi.NoteOffEvent(tick=96, channel=3, data=[74, 64]),\n",
      "   midi.NoteOnEvent(tick=0, channel=3, data=[73, 100]),\n",
      "   midi.NoteOffEvent(tick=96, channel=3, data=[73, 64]),\n",
      "   midi.NoteOnEvent(tick=0, channel=3, data=[74, 100]),\n",
      "   midi.NoteOffEvent(tick=96, channel=3, data=[74, 64]),\n",
      "   midi.NoteOnEvent(tick=0, channel=3, data=[73, 100]),\n",
      "   midi.NoteOffEvent(tick=96, channel=3, data=[73, 64]),\n",
      "   midi.NoteOnEvent(tick=0, channel=3, data=[71, 100]),\n",
      "   midi.NoteOffEvent(tick=96, channel=3, data=[71, 64]),\n",
      "   midi.NoteOnEvent(tick=0, channel=3, data=[69, 100]),\n",
      "   midi.NoteOffEvent(tick=96, channel=3, data=[69, 64]),\n",
      "   midi.NoteOnEvent(tick=0, channel=3, data=[67, 100]),\n",
      "   midi.NoteOnEvent(tick=0, channel=3, data=[67, 100]),\n",
      "   midi.NoteOffEvent(tick=96, channel=3, data=[67, 64]),\n",
      "   midi.NoteOffEvent(tick=0, channel=3, data=[67, 64]),\n",
      "   midi.NoteOnEvent(tick=0, channel=3, data=[69, 100]),\n",
      "   midi.NoteOnEvent(tick=0, channel=3, data=[69, 100]),\n",
      "   midi.NoteOffEvent(tick=96, channel=3, data=[69, 64]),\n",
      "   midi.NoteOffEvent(tick=0, channel=3, data=[69, 64]),\n",
      "   midi.NoteOnEvent(tick=0, channel=3, data=[67, 100]),\n",
      "   midi.NoteOnEvent(tick=0, channel=3, data=[67, 100]),\n",
      "   midi.NoteOffEvent(tick=96, channel=3, data=[67, 64]),\n",
      "   midi.NoteOffEvent(tick=0, channel=3, data=[67, 64]),\n",
      "   midi.NoteOnEvent(tick=96, channel=3, data=[67, 100]),\n",
      "   midi.NoteOnEvent(tick=0, channel=3, data=[67, 100]),\n",
      "   midi.NoteOffEvent(tick=96, channel=3, data=[67, 64]),\n",
      "   midi.NoteOffEvent(tick=0, channel=3, data=[67, 64]),\n",
      "   midi.NoteOnEvent(tick=96, channel=3, data=[67, 100]),\n",
      "   midi.NoteOnEvent(tick=0, channel=3, data=[67, 100]),\n",
      "   midi.NoteOffEvent(tick=96, channel=3, data=[67, 64]),\n",
      "   midi.NoteOffEvent(tick=0, channel=3, data=[67, 64]),\n",
      "   midi.NoteOnEvent(tick=96, channel=3, data=[76, 100]),\n",
      "   midi.NoteOffEvent(tick=512, channel=3, data=[76, 64]),\n",
      "   midi.NoteOnEvent(tick=64, channel=3, data=[78, 100]),\n",
      "   midi.NoteOffEvent(tick=96, channel=3, data=[78, 64]),\n",
      "   midi.NoteOnEvent(tick=0, channel=3, data=[76, 100]),\n",
      "   midi.NoteOffEvent(tick=96, channel=3, data=[76, 64]),\n",
      "   midi.NoteOnEvent(tick=0, channel=3, data=[78, 100]),\n",
      "   midi.NoteOffEvent(tick=192, channel=3, data=[78, 64]),\n",
      "   midi.NoteOnEvent(tick=0, channel=3, data=[74, 100]),\n",
      "   midi.NoteOffEvent(tick=192, channel=3, data=[74, 64]),\n",
      "   midi.NoteOnEvent(tick=0, channel=3, data=[69, 100]),\n",
      "   midi.NoteOffEvent(tick=192, channel=3, data=[69, 64]),\n",
      "   midi.NoteOnEvent(tick=0, channel=3, data=[73, 100]),\n",
      "   midi.NoteOffEvent(tick=192, channel=3, data=[73, 64]),\n",
      "   midi.NoteOnEvent(tick=0, channel=3, data=[62, 100]),\n",
      "   midi.NoteOffEvent(tick=96, channel=3, data=[62, 64]),\n",
      "   midi.NoteOnEvent(tick=0, channel=3, data=[64, 100]),\n",
      "   midi.NoteOffEvent(tick=96, channel=3, data=[64, 64]),\n",
      "   midi.NoteOnEvent(tick=0, channel=3, data=[66, 100]),\n",
      "   midi.NoteOffEvent(tick=96, channel=3, data=[66, 64]),\n",
      "   midi.NoteOnEvent(tick=0, channel=3, data=[67, 100]),\n",
      "   midi.NoteOffEvent(tick=96, channel=3, data=[67, 64]),\n",
      "   midi.NoteOnEvent(tick=0, channel=3, data=[69, 100]),\n",
      "   midi.NoteOffEvent(tick=96, channel=3, data=[69, 64]),\n",
      "   midi.NoteOnEvent(tick=0, channel=3, data=[71, 100]),\n",
      "   midi.NoteOffEvent(tick=96, channel=3, data=[71, 64]),\n",
      "   midi.NoteOnEvent(tick=0, channel=3, data=[73, 100]),\n",
      "   midi.NoteOffEvent(tick=96, channel=3, data=[73, 64]),\n",
      "   midi.NoteOnEvent(tick=0, channel=3, data=[74, 100]),\n",
      "   midi.NoteOffEvent(tick=96, channel=3, data=[74, 64]),\n",
      "   midi.NoteOnEvent(tick=0, channel=3, data=[76, 100]),\n",
      "   midi.NoteOffEvent(tick=96, channel=3, data=[76, 64]),\n",
      "   midi.NoteOnEvent(tick=0, channel=3, data=[74, 100]),\n",
      "   midi.NoteOffEvent(tick=96, channel=3, data=[74, 64]),\n",
      "   midi.NoteOnEvent(tick=0, channel=3, data=[73, 100]),\n",
      "   midi.NoteOffEvent(tick=96, channel=3, data=[73, 64]),\n",
      "   midi.NoteOnEvent(tick=0, channel=3, data=[71, 100]),\n",
      "   midi.NoteOffEvent(tick=96, channel=3, data=[71, 64]),\n",
      "   midi.NoteOnEvent(tick=0, channel=3, data=[69, 100]),\n",
      "   midi.NoteOffEvent(tick=576, channel=3, data=[69, 64]),\n",
      "   midi.NoteOnEvent(tick=0, channel=3, data=[64, 100]),\n",
      "   midi.NoteOffEvent(tick=192, channel=3, data=[64, 64]),\n",
      "   midi.NoteOnEvent(tick=0, channel=3, data=[73, 100]),\n",
      "   midi.NoteOffEvent(tick=192, channel=3, data=[73, 64]),\n",
      "   midi.NoteOnEvent(tick=0, channel=3, data=[69, 100]),\n",
      "   midi.NoteOffEvent(tick=192, channel=3, data=[69, 64]),\n",
      "   midi.NoteOnEvent(tick=0, channel=3, data=[74, 100]),\n",
      "   midi.NoteOffEvent(tick=48, channel=3, data=[74, 64]),\n",
      "   midi.NoteOnEvent(tick=0, channel=3, data=[76, 100]),\n",
      "   midi.NoteOffEvent(tick=48, channel=3, data=[76, 64]),\n",
      "   midi.NoteOnEvent(tick=0, channel=3, data=[78, 100]),\n",
      "   midi.NoteOffEvent(tick=256, channel=3, data=[78, 64]),\n",
      "   midi.NoteOnEvent(tick=32, channel=3, data=[76, 100]),\n",
      "   midi.NoteOffEvent(tick=48, channel=3, data=[76, 64]),\n",
      "   midi.NoteOnEvent(tick=0, channel=3, data=[78, 100]),\n",
      "   midi.NoteOffEvent(tick=48, channel=3, data=[78, 64]),\n",
      "   midi.NoteOnEvent(tick=0, channel=3, data=[79, 100]),\n",
      "   midi.NoteOffEvent(tick=256, channel=3, data=[79, 64]),\n",
      "   midi.NoteOnEvent(tick=32, channel=3, data=[78, 100]),\n",
      "   midi.NoteOffEvent(tick=192, channel=3, data=[78, 64]),\n",
      "   midi.NoteOnEvent(tick=0, channel=3, data=[76, 100]),\n",
      "   midi.NoteOffEvent(tick=192, channel=3, data=[76, 64]),\n",
      "   midi.NoteOnEvent(tick=0, channel=3, data=[74, 100]),\n",
      "   midi.NoteOffEvent(tick=192, channel=3, data=[74, 64]),\n",
      "   midi.NoteOnEvent(tick=1536, channel=3, data=[74, 100]),\n",
      "   midi.NoteOffEvent(tick=192, channel=3, data=[74, 64]),\n",
      "   midi.NoteOnEvent(tick=0, channel=3, data=[79, 100]),\n",
      "   midi.NoteOffEvent(tick=48, channel=3, data=[79, 64]),\n",
      "   midi.NoteOnEvent(tick=0, channel=3, data=[81, 100]),\n",
      "   midi.NoteOffEvent(tick=48, channel=3, data=[81, 64]),\n",
      "   midi.NoteOnEvent(tick=0, channel=3, data=[83, 100]),\n",
      "   midi.NoteOffEvent(tick=256, channel=3, data=[83, 64]),\n",
      "   midi.NoteOnEvent(tick=32, channel=3, data=[81, 100]),\n",
      "   midi.NoteOffEvent(tick=48, channel=3, data=[81, 64]),\n",
      "   midi.NoteOnEvent(tick=0, channel=3, data=[83, 100]),\n",
      "   midi.NoteOffEvent(tick=48, channel=3, data=[83, 64]),\n",
      "   midi.NoteOnEvent(tick=0, channel=3, data=[84, 100]),\n",
      "   midi.NoteOffEvent(tick=256, channel=3, data=[84, 64]),\n",
      "   midi.NoteOnEvent(tick=32, channel=3, data=[83, 100]),\n",
      "   midi.NoteOffEvent(tick=192, channel=3, data=[83, 64]),\n",
      "   midi.NoteOnEvent(tick=0, channel=3, data=[81, 100]),\n",
      "   midi.NoteOffEvent(tick=192, channel=3, data=[81, 64]),\n",
      "   midi.NoteOnEvent(tick=0, channel=3, data=[79, 100]),\n",
      "   midi.NoteOffEvent(tick=192, channel=3, data=[79, 64]),\n",
      "   midi.NoteOnEvent(tick=192, channel=3, data=[64, 100]),\n",
      "   midi.NoteOnEvent(tick=0, channel=3, data=[64, 100]),\n",
      "   midi.NoteOffEvent(tick=96, channel=3, data=[64, 64]),\n",
      "   midi.NoteOffEvent(tick=0, channel=3, data=[64, 64]),\n",
      "   midi.NoteOnEvent(tick=0, channel=3, data=[66, 100]),\n",
      "   midi.NoteOnEvent(tick=0, channel=3, data=[66, 100]),\n",
      "   midi.NoteOffEvent(tick=96, channel=3, data=[66, 64]),\n",
      "   midi.NoteOffEvent(tick=0, channel=3, data=[66, 64]),\n",
      "   midi.NoteOnEvent(tick=0, channel=3, data=[64, 100]),\n",
      "   midi.NoteOnEvent(tick=0, channel=3, data=[64, 100]),\n",
      "   midi.NoteOffEvent(tick=96, channel=3, data=[64, 64]),\n",
      "   midi.NoteOffEvent(tick=0, channel=3, data=[64, 64]),\n",
      "   midi.NoteOnEvent(tick=96, channel=3, data=[64, 100]),\n",
      "   midi.NoteOnEvent(tick=0, channel=3, data=[64, 100]),\n",
      "   midi.NoteOffEvent(tick=96, channel=3, data=[64, 64]),\n",
      "   midi.NoteOffEvent(tick=0, channel=3, data=[64, 64]),\n",
      "   midi.NoteOnEvent(tick=96, channel=3, data=[64, 100]),\n",
      "   midi.NoteOnEvent(tick=0, channel=3, data=[64, 100]),\n",
      "   midi.NoteOffEvent(tick=96, channel=3, data=[64, 64]),\n",
      "   midi.NoteOffEvent(tick=0, channel=3, data=[64, 64]),\n",
      "   midi.NoteOnEvent(tick=96, channel=3, data=[73, 100]),\n",
      "   midi.NoteOnEvent(tick=0, channel=3, data=[73, 100]),\n",
      "   midi.NoteOffEvent(tick=192, channel=3, data=[73, 64]),\n",
      "   midi.NoteOffEvent(tick=0, channel=3, data=[73, 64]),\n",
      "   midi.NoteOnEvent(tick=576, channel=3, data=[67, 100]),\n",
      "   midi.NoteOnEvent(tick=0, channel=3, data=[67, 100]),\n",
      "   midi.NoteOffEvent(tick=96, channel=3, data=[67, 64]),\n",
      "   midi.NoteOffEvent(tick=0, channel=3, data=[67, 64]),\n",
      "   midi.NoteOnEvent(tick=0, channel=3, data=[69, 100]),\n",
      "   midi.NoteOnEvent(tick=0, channel=3, data=[69, 100]),\n",
      "   midi.NoteOffEvent(tick=96, channel=3, data=[69, 64]),\n",
      "   midi.NoteOffEvent(tick=0, channel=3, data=[69, 64]),\n",
      "   midi.NoteOnEvent(tick=0, channel=3, data=[67, 100]),\n",
      "   midi.NoteOnEvent(tick=0, channel=3, data=[67, 100]),\n",
      "   midi.NoteOffEvent(tick=96, channel=3, data=[67, 64]),\n",
      "   midi.NoteOffEvent(tick=0, channel=3, data=[67, 64]),\n",
      "   midi.NoteOnEvent(tick=96, channel=3, data=[67, 100]),\n",
      "   midi.NoteOnEvent(tick=0, channel=3, data=[67, 100]),\n",
      "   midi.NoteOffEvent(tick=96, channel=3, data=[67, 64]),\n",
      "   midi.NoteOffEvent(tick=0, channel=3, data=[67, 64]),\n",
      "   midi.NoteOnEvent(tick=96, channel=3, data=[67, 100]),\n",
      "   midi.NoteOnEvent(tick=0, channel=3, data=[67, 100]),\n",
      "   midi.NoteOffEvent(tick=96, channel=3, data=[67, 64]),\n",
      "   midi.NoteOffEvent(tick=0, channel=3, data=[67, 64]),\n",
      "   midi.NoteOnEvent(tick=96, channel=3, data=[76, 100]),\n",
      "   midi.NoteOnEvent(tick=0, channel=3, data=[76, 100]),\n",
      "   midi.NoteOffEvent(tick=192, channel=3, data=[76, 64]),\n",
      "   midi.NoteOffEvent(tick=0, channel=3, data=[76, 64]),\n",
      "   midi.NoteOnEvent(tick=576, channel=3, data=[78, 100]),\n",
      "   midi.NoteOffEvent(tick=96, channel=3, data=[78, 64]),\n",
      "   midi.NoteOnEvent(tick=0, channel=3, data=[79, 100]),\n",
      "   midi.NoteOffEvent(tick=96, channel=3, data=[79, 64]),\n",
      "   midi.NoteOnEvent(tick=0, channel=3, data=[81, 100]),\n",
      "   midi.NoteOffEvent(tick=96, channel=3, data=[81, 64]),\n",
      "   midi.NoteOnEvent(tick=96, channel=3, data=[81, 100]),\n",
      "   midi.NoteOffEvent(tick=96, channel=3, data=[81, 64]),\n",
      "   midi.NoteOnEvent(tick=96, channel=3, data=[81, 100]),\n",
      "   midi.NoteOffEvent(tick=96, channel=3, data=[81, 64]),\n",
      "   midi.NoteOnEvent(tick=96, channel=3, data=[81, 100]),\n",
      "   midi.NoteOffEvent(tick=96, channel=3, data=[81, 64]),\n",
      "   midi.NoteOnEvent(tick=0, channel=3, data=[86, 100]),\n",
      "   midi.NoteOffEvent(tick=96, channel=3, data=[86, 64]),\n",
      "   midi.NoteOnEvent(tick=0, channel=3, data=[85, 100]),\n",
      "   midi.NoteOffEvent(tick=96, channel=3, data=[85, 64]),\n",
      "   midi.NoteOnEvent(tick=0, channel=3, data=[83, 100]),\n",
      "   midi.NoteOffEvent(tick=96, channel=3, data=[83, 64]),\n",
      "   midi.NoteOnEvent(tick=0, channel=3, data=[81, 100]),\n",
      "   midi.NoteOffEvent(tick=192, channel=3, data=[81, 64]),\n",
      "   midi.NoteOnEvent(tick=0, channel=3, data=[74, 100]),\n",
      "   midi.NoteOffEvent(tick=192, channel=3, data=[74, 64]),\n",
      "   midi.NoteOnEvent(tick=0, channel=3, data=[76, 100]),\n",
      "   midi.NoteOffEvent(tick=384, channel=3, data=[76, 64]),\n",
      "   midi.NoteOnEvent(tick=0, channel=3, data=[73, 100]),\n",
      "   midi.NoteOffEvent(tick=384, channel=3, data=[73, 64]),\n",
      "   midi.NoteOnEvent(tick=0, channel=3, data=[74, 100]),\n",
      "   midi.NoteOffEvent(tick=192, channel=3, data=[74, 64]),\n",
      "   midi.NoteOnEvent(tick=0, channel=3, data=[78, 100]),\n",
      "   midi.NoteOffEvent(tick=192, channel=3, data=[78, 64]),\n",
      "   midi.NoteOnEvent(tick=0, channel=3, data=[74, 100]),\n",
      "   midi.NoteOffEvent(tick=192, channel=3, data=[74, 64]),\n",
      "   midi.NoteOnEvent(tick=0, channel=3, data=[69, 100]),\n",
      "   midi.NoteOffEvent(tick=192, channel=3, data=[69, 64]),\n",
      "   midi.NoteOnEvent(tick=0, channel=3, data=[66, 100]),\n",
      "   midi.NoteOffEvent(tick=192, channel=3, data=[66, 64]),\n",
      "   midi.NoteOnEvent(tick=1152, channel=3, data=[69, 100]),\n",
      "   midi.NoteOffEvent(tick=192, channel=3, data=[69, 64]),\n",
      "   midi.NoteOnEvent(tick=0, channel=3, data=[74, 100]),\n",
      "   midi.NoteOffEvent(tick=48, channel=3, data=[74, 64]),\n",
      "   midi.NoteOnEvent(tick=0, channel=3, data=[76, 100]),\n",
      "   midi.NoteOffEvent(tick=48, channel=3, data=[76, 64]),\n",
      "   midi.NoteOnEvent(tick=0, channel=3, data=[78, 100]),\n",
      "   midi.NoteOffEvent(tick=256, channel=3, data=[78, 64]),\n",
      "   midi.NoteOnEvent(tick=32, channel=3, data=[76, 100]),\n",
      "   midi.NoteOffEvent(tick=48, channel=3, data=[76, 64]),\n",
      "   midi.NoteOnEvent(tick=0, channel=3, data=[78, 100]),\n",
      "   midi.NoteOffEvent(tick=48, channel=3, data=[78, 64]),\n",
      "   midi.NoteOnEvent(tick=0, channel=3, data=[79, 100]),\n",
      "   midi.NoteOffEvent(tick=256, channel=3, data=[79, 64]),\n",
      "   midi.NoteOnEvent(tick=32, channel=3, data=[78, 100]),\n",
      "   midi.NoteOffEvent(tick=192, channel=3, data=[78, 64]),\n",
      "   midi.NoteOnEvent(tick=0, channel=3, data=[81, 100]),\n",
      "   midi.NoteOffEvent(tick=192, channel=3, data=[81, 64]),\n",
      "   midi.NoteOnEvent(tick=0, channel=3, data=[78, 100]),\n",
      "   midi.NoteOffEvent(tick=192, channel=3, data=[78, 64]),\n",
      "   midi.NoteOnEvent(tick=0, channel=3, data=[74, 100]),\n",
      "   midi.NoteOffEvent(tick=192, channel=3, data=[74, 64]),\n",
      "   midi.NoteOnEvent(tick=1344, channel=3, data=[69, 100]),\n",
      "   midi.NoteOffEvent(tick=192, channel=3, data=[69, 64]),\n",
      "   midi.NoteOnEvent(tick=0, channel=3, data=[74, 100]),\n",
      "   midi.NoteOffEvent(tick=48, channel=3, data=[74, 64]),\n",
      "   midi.NoteOnEvent(tick=0, channel=3, data=[76, 100]),\n",
      "   midi.NoteOffEvent(tick=48, channel=3, data=[76, 64]),\n",
      "   midi.NoteOnEvent(tick=0, channel=3, data=[78, 100]),\n",
      "   midi.NoteOffEvent(tick=256, channel=3, data=[78, 64]),\n",
      "   midi.NoteOnEvent(tick=32, channel=3, data=[76, 100]),\n",
      "   midi.NoteOffEvent(tick=48, channel=3, data=[76, 64]),\n",
      "   midi.NoteOnEvent(tick=0, channel=3, data=[78, 100]),\n",
      "   midi.NoteOffEvent(tick=48, channel=3, data=[78, 64]),\n",
      "   midi.NoteOnEvent(tick=0, channel=3, data=[79, 100]),\n",
      "   midi.NoteOffEvent(tick=256, channel=3, data=[79, 64]),\n",
      "   midi.NoteOnEvent(tick=32, channel=3, data=[78, 100]),\n",
      "   midi.NoteOffEvent(tick=192, channel=3, data=[78, 64]),\n",
      "   midi.NoteOnEvent(tick=0, channel=3, data=[81, 100]),\n",
      "   midi.NoteOffEvent(tick=192, channel=3, data=[81, 64]),\n",
      "   midi.NoteOnEvent(tick=0, channel=3, data=[78, 100]),\n",
      "   midi.NoteOffEvent(tick=192, channel=3, data=[78, 64]),\n",
      "   midi.NoteOnEvent(tick=0, channel=3, data=[74, 100]),\n",
      "   midi.NoteOffEvent(tick=192, channel=3, data=[74, 64]),\n",
      "   midi.NoteOnEvent(tick=960, channel=3, data=[83, 100]),\n",
      "   midi.NoteOffEvent(tick=96, channel=3, data=[83, 64]),\n",
      "   midi.NoteOnEvent(tick=0, channel=3, data=[81, 100]),\n",
      "   midi.NoteOffEvent(tick=96, channel=3, data=[81, 64]),\n",
      "   midi.NoteOnEvent(tick=0, channel=3, data=[83, 100]),\n",
      "   midi.NoteOffEvent(tick=96, channel=3, data=[83, 64]),\n",
      "   midi.NoteOnEvent(tick=0, channel=3, data=[81, 100]),\n",
      "   midi.NoteOffEvent(tick=96, channel=3, data=[81, 64]),\n",
      "   midi.NoteOnEvent(tick=0, channel=3, data=[80, 100]),\n",
      "   midi.NoteOffEvent(tick=96, channel=3, data=[80, 64]),\n",
      "   midi.NoteOnEvent(tick=0, channel=3, data=[78, 100]),\n",
      "   midi.NoteOffEvent(tick=96, channel=3, data=[78, 64]),\n",
      "   midi.NoteOnEvent(tick=0, channel=3, data=[76, 100]),\n",
      "   midi.NoteOffEvent(tick=192, channel=3, data=[76, 64]),\n",
      "   midi.NoteOnEvent(tick=768, channel=3, data=[81, 100]),\n",
      "   midi.NoteOffEvent(tick=96, channel=3, data=[81, 64]),\n",
      "   midi.NoteOnEvent(tick=0, channel=3, data=[80, 100]),\n",
      "   midi.NoteOffEvent(tick=96, channel=3, data=[80, 64]),\n",
      "   midi.NoteOnEvent(tick=0, channel=3, data=[81, 100]),\n",
      "   midi.NoteOffEvent(tick=96, channel=3, data=[81, 64]),\n",
      "   midi.NoteOnEvent(tick=0, channel=3, data=[80, 100]),\n",
      "   midi.NoteOffEvent(tick=96, channel=3, data=[80, 64]),\n",
      "   midi.NoteOnEvent(tick=0, channel=3, data=[78, 100]),\n",
      "   midi.NoteOffEvent(tick=96, channel=3, data=[78, 64]),\n",
      "   midi.NoteOnEvent(tick=0, channel=3, data=[76, 100]),\n",
      "   midi.NoteOffEvent(tick=96, channel=3, data=[76, 64]),\n",
      "   midi.NoteOnEvent(tick=0, channel=3, data=[74, 100]),\n",
      "   midi.NoteOffEvent(tick=192, channel=3, data=[74, 64]),\n",
      "   midi.NoteOnEvent(tick=0, channel=3, data=[78, 100]),\n",
      "   midi.NoteOffEvent(tick=192, channel=3, data=[78, 64]),\n",
      "   midi.NoteOnEvent(tick=0, channel=3, data=[80, 100]),\n",
      "   midi.NoteOffEvent(tick=192, channel=3, data=[80, 64]),\n",
      "   midi.NoteOnEvent(tick=0, channel=3, data=[81, 100]),\n",
      "   midi.NoteOffEvent(tick=192, channel=3, data=[81, 64]),\n",
      "   midi.NoteOnEvent(tick=0, channel=3, data=[83, 100]),\n",
      "   midi.NoteOffEvent(tick=192, channel=3, data=[83, 64]),\n",
      "   midi.NoteOnEvent(tick=0, channel=3, data=[71, 100]),\n",
      "   midi.NoteOffEvent(tick=96, channel=3, data=[71, 64]),\n",
      "   midi.NoteOnEvent(tick=0, channel=3, data=[73, 100]),\n",
      "   midi.NoteOffEvent(tick=96, channel=3, data=[73, 64]),\n",
      "   midi.NoteOnEvent(tick=0, channel=3, data=[74, 100]),\n",
      "   midi.NoteOffEvent(tick=96, channel=3, data=[74, 64]),\n",
      "   midi.NoteOnEvent(tick=0, channel=3, data=[76, 100]),\n",
      "   midi.NoteOffEvent(tick=96, channel=3, data=[76, 64]),\n",
      "   midi.NoteOnEvent(tick=0, channel=3, data=[78, 100]),\n",
      "   midi.NoteOffEvent(tick=96, channel=3, data=[78, 64]),\n",
      "   midi.NoteOnEvent(tick=0, channel=3, data=[80, 100]),\n",
      "   midi.NoteOffEvent(tick=96, channel=3, data=[80, 64]),\n",
      "   midi.NoteOnEvent(tick=0, channel=3, data=[81, 100]),\n",
      "   midi.NoteOffEvent(tick=96, channel=3, data=[81, 64]),\n",
      "   midi.NoteOnEvent(tick=0, channel=3, data=[76, 100]),\n",
      "   midi.NoteOffEvent(tick=96, channel=3, data=[76, 64]),\n",
      "   midi.NoteOnEvent(tick=0, channel=3, data=[74, 100]),\n",
      "   midi.NoteOffEvent(tick=96, channel=3, data=[74, 64]),\n",
      "   midi.NoteOnEvent(tick=0, channel=3, data=[73, 100]),\n",
      "   midi.NoteOffEvent(tick=96, channel=3, data=[73, 64]),\n",
      "   midi.NoteOnEvent(tick=0, channel=3, data=[74, 100]),\n",
      "   midi.NoteOffEvent(tick=96, channel=3, data=[74, 64]),\n",
      "   midi.NoteOnEvent(tick=0, channel=3, data=[73, 100]),\n",
      "   midi.NoteOffEvent(tick=96, channel=3, data=[73, 64]),\n",
      "   midi.NoteOnEvent(tick=0, channel=3, data=[71, 100]),\n",
      "   midi.NoteOffEvent(tick=96, channel=3, data=[71, 64]),\n",
      "   midi.NoteOnEvent(tick=0, channel=3, data=[73, 100]),\n",
      "   midi.NoteOffEvent(tick=96, channel=3, data=[73, 64]),\n",
      "   midi.NoteOnEvent(tick=0, channel=3, data=[69, 100]),\n",
      "   midi.NoteOffEvent(tick=480, channel=3, data=[69, 64]),\n",
      "   midi.EndOfTrackEvent(tick=0, data=[])]),\n",
      " midi.Track(\\\n",
      "  [midi.TrackNameEvent(tick=0, text='Oboe II', data=[79, 98, 111, 101, 32, 73, 73]),\n",
      "   midi.ControlChangeEvent(tick=0, channel=3, data=[0, 0]),\n",
      "   midi.ProgramChangeEvent(tick=0, channel=3, data=[68]),\n",
      "   midi.ControlChangeEvent(tick=0, channel=3, data=[7, 100]),\n",
      "   midi.ControlChangeEvent(tick=0, channel=3, data=[10, 64]),\n",
      "   midi.ControlChangeEvent(tick=0, channel=3, data=[91, 127]),\n",
      "   midi.ControlChangeEvent(tick=0, channel=3, data=[93, 127]),\n",
      "   midi.KeySignatureEvent(tick=0, data=[2, 0]),\n",
      "   midi.NoteOnEvent(tick=2112, channel=3, data=[66, 100]),\n",
      "   midi.NoteOffEvent(tick=96, channel=3, data=[66, 64]),\n",
      "   midi.NoteOnEvent(tick=0, channel=3, data=[67, 100]),\n",
      "   midi.NoteOffEvent(tick=96, channel=3, data=[67, 64]),\n",
      "   midi.NoteOnEvent(tick=0, channel=3, data=[69, 100]),\n",
      "   midi.NoteOffEvent(tick=192, channel=3, data=[69, 64]),\n",
      "   midi.NoteOnEvent(tick=0, channel=3, data=[74, 100]),\n",
      "   midi.NoteOffEvent(tick=192, channel=3, data=[74, 64]),\n",
      "   midi.NoteOnEvent(tick=0, channel=3, data=[71, 100]),\n",
      "   midi.NoteOffEvent(tick=192, channel=3, data=[71, 64]),\n",
      "   midi.NoteOnEvent(tick=0, channel=3, data=[76, 100]),\n",
      "   midi.NoteOffEvent(tick=192, channel=3, data=[76, 64]),\n",
      "   midi.NoteOnEvent(tick=0, channel=3, data=[74, 100]),\n",
      "   midi.NoteOffEvent(tick=192, channel=3, data=[74, 64]),\n",
      "   midi.NoteOnEvent(tick=0, channel=3, data=[78, 100]),\n",
      "   midi.NoteOffEvent(tick=192, channel=3, data=[78, 64]),\n",
      "   midi.NoteOnEvent(tick=0, channel=3, data=[74, 100]),\n",
      "   midi.NoteOffEvent(tick=192, channel=3, data=[74, 64]),\n",
      "   midi.NoteOnEvent(tick=0, channel=3, data=[69, 100]),\n",
      "   midi.NoteOffEvent(tick=192, channel=3, data=[69, 64]),\n",
      "   midi.NoteOnEvent(tick=1344, channel=3, data=[66, 100]),\n",
      "   midi.NoteOffEvent(tick=96, channel=3, data=[66, 64]),\n",
      "   midi.NoteOnEvent(tick=0, channel=3, data=[67, 100]),\n",
      "   midi.NoteOffEvent(tick=96, channel=3, data=[67, 64]),\n",
      "   midi.NoteOnEvent(tick=0, channel=3, data=[69, 100]),\n",
      "   midi.NoteOffEvent(tick=192, channel=3, data=[69, 64]),\n",
      "   midi.NoteOnEvent(tick=0, channel=3, data=[74, 100]),\n",
      "   midi.NoteOffEvent(tick=192, channel=3, data=[74, 64]),\n",
      "   midi.NoteOnEvent(tick=0, channel=3, data=[71, 100]),\n",
      "   midi.NoteOffEvent(tick=192, channel=3, data=[71, 64]),\n",
      "   midi.NoteOnEvent(tick=0, channel=3, data=[76, 100]),\n",
      "   midi.NoteOffEvent(tick=192, channel=3, data=[76, 64]),\n",
      "   midi.NoteOnEvent(tick=0, channel=3, data=[74, 100]),\n",
      "   midi.NoteOffEvent(tick=192, channel=3, data=[74, 64]),\n",
      "   midi.NoteOnEvent(tick=0, channel=3, data=[78, 100]),\n",
      "   midi.NoteOffEvent(tick=192, channel=3, data=[78, 64]),\n",
      "   midi.NoteOnEvent(tick=0, channel=3, data=[74, 100]),\n",
      "   midi.NoteOffEvent(tick=192, channel=3, data=[74, 64]),\n",
      "   midi.NoteOnEvent(tick=0, channel=3, data=[69, 100]),\n",
      "   midi.NoteOffEvent(tick=192, channel=3, data=[69, 64]),\n",
      "   midi.NoteOnEvent(tick=960, channel=3, data=[78, 100]),\n",
      "   midi.NoteOffEvent(tick=384, channel=3, data=[78, 64]),\n",
      "   midi.NoteOnEvent(tick=0, channel=3, data=[76, 100]),\n",
      "   midi.NoteOffEvent(tick=96, channel=3, data=[76, 64]),\n",
      "   midi.NoteOnEvent(tick=0, channel=3, data=[74, 100]),\n",
      "   midi.NoteOffEvent(tick=96, channel=3, data=[74, 64]),\n",
      "   midi.NoteOnEvent(tick=0, channel=3, data=[76, 100]),\n",
      "   midi.NoteOffEvent(tick=192, channel=3, data=[76, 64]),\n",
      "   midi.NoteOnEvent(tick=768, channel=3, data=[76, 100]),\n",
      "   midi.NoteOffEvent(tick=384, channel=3, data=[76, 64]),\n",
      "   midi.NoteOnEvent(tick=0, channel=3, data=[74, 100]),\n",
      "   midi.NoteOffEvent(tick=96, channel=3, data=[74, 64]),\n",
      "   midi.NoteOnEvent(tick=0, channel=3, data=[73, 100]),\n",
      "   midi.NoteOffEvent(tick=96, channel=3, data=[73, 64]),\n",
      "   midi.NoteOnEvent(tick=0, channel=3, data=[74, 100]),\n",
      "   midi.NoteOffEvent(tick=192, channel=3, data=[74, 64]),\n",
      "   midi.NoteOnEvent(tick=0, channel=3, data=[74, 100]),\n",
      "   midi.NoteOffEvent(tick=192, channel=3, data=[74, 64]),\n",
      "   midi.NoteOnEvent(tick=0, channel=3, data=[76, 100]),\n",
      "   midi.NoteOffEvent(tick=192, channel=3, data=[76, 64]),\n",
      "   midi.NoteOnEvent(tick=0, channel=3, data=[78, 100]),\n",
      "   midi.NoteOffEvent(tick=192, channel=3, data=[78, 64]),\n",
      "   midi.NoteOnEvent(tick=0, channel=3, data=[76, 100]),\n",
      "   midi.NoteOffEvent(tick=192, channel=3, data=[76, 64]),\n",
      "   midi.NoteOnEvent(tick=0, channel=3, data=[68, 100]),\n",
      "   midi.NoteOffEvent(tick=96, channel=3, data=[68, 64]),\n",
      "   midi.NoteOnEvent(tick=0, channel=3, data=[69, 100]),\n",
      "   midi.NoteOffEvent(tick=96, channel=3, data=[69, 64]),\n",
      "   midi.NoteOnEvent(tick=0, channel=3, data=[71, 100]),\n",
      "   midi.NoteOffEvent(tick=96, channel=3, data=[71, 64]),\n",
      "   midi.NoteOnEvent(tick=0, channel=3, data=[73, 100]),\n",
      "   midi.NoteOffEvent(tick=96, channel=3, data=[73, 64]),\n",
      "   midi.NoteOnEvent(tick=0, channel=3, data=[74, 100]),\n",
      "   midi.NoteOffEvent(tick=96, channel=3, data=[74, 64]),\n",
      "   midi.NoteOnEvent(tick=0, channel=3, data=[76, 100]),\n",
      "   midi.NoteOffEvent(tick=96, channel=3, data=[76, 64]),\n",
      "   midi.NoteOnEvent(tick=0, channel=3, data=[73, 100]),\n",
      "   midi.NoteOffEvent(tick=192, channel=3, data=[73, 64]),\n",
      "   midi.NoteOnEvent(tick=0, channel=3, data=[76, 100]),\n",
      "   midi.NoteOffEvent(tick=192, channel=3, data=[76, 64]),\n",
      "   midi.NoteOnEvent(tick=0, channel=3, data=[64, 100]),\n",
      "   midi.NoteOffEvent(tick=192, channel=3, data=[64, 64]),\n",
      "   midi.NoteOnEvent(tick=0, channel=3, data=[74, 100]),\n",
      "   midi.NoteOffEvent(tick=192, channel=3, data=[74, 64]),\n",
      "   midi.NoteOnEvent(tick=0, channel=3, data=[73, 100]),\n",
      "   midi.NoteOffEvent(tick=384, channel=3, data=[73, 64]),\n",
      "   midi.NoteOnEvent(tick=384, channel=3, data=[69, 100]),\n",
      "   midi.NoteOffEvent(tick=96, channel=3, data=[69, 64]),\n",
      "   midi.NoteOnEvent(tick=0, channel=3, data=[71, 100]),\n",
      "   midi.NoteOffEvent(tick=96, channel=3, data=[71, 64]),\n",
      "   midi.NoteOnEvent(tick=0, channel=3, data=[73, 100]),\n",
      "   midi.NoteOffEvent(tick=96, channel=3, data=[73, 64]),\n",
      "   midi.NoteOnEvent(tick=96, channel=3, data=[73, 100]),\n",
      "   midi.NoteOffEvent(tick=96, channel=3, data=[73, 64]),\n",
      "   midi.NoteOnEvent(tick=96, channel=3, data=[73, 100]),\n",
      "   midi.NoteOffEvent(tick=96, channel=3, data=[73, 64]),\n",
      "   midi.NoteOnEvent(tick=96, channel=3, data=[73, 100]),\n",
      "   midi.NoteOffEvent(tick=896, channel=3, data=[73, 64]),\n",
      "   midi.NoteOnEvent(tick=64, channel=3, data=[73, 100]),\n",
      "   midi.NoteOffEvent(tick=192, channel=3, data=[73, 64]),\n",
      "   midi.NoteOnEvent(tick=0, channel=3, data=[70, 100]),\n",
      "   midi.NoteOffEvent(tick=192, channel=3, data=[70, 64]),\n",
      "   midi.NoteOnEvent(tick=0, channel=3, data=[66, 100]),\n",
      "   midi.NoteOffEvent(tick=192, channel=3, data=[66, 64]),\n",
      "   midi.NoteOnEvent(tick=192, channel=3, data=[71, 100]),\n",
      "   midi.NoteOffEvent(tick=192, channel=3, data=[71, 64]),\n",
      "   midi.NoteOnEvent(tick=0, channel=3, data=[66, 100]),\n",
      "   midi.NoteOffEvent(tick=192, channel=3, data=[66, 64]),\n",
      "   midi.NoteOnEvent(tick=0, channel=3, data=[62, 100]),\n",
      "   midi.NoteOffEvent(tick=192, channel=3, data=[62, 64]),\n",
      "   midi.NoteOnEvent(tick=192, channel=3, data=[78, 100]),\n",
      "   midi.NoteOffEvent(tick=192, channel=3, data=[78, 64]),\n",
      "   midi.NoteOnEvent(tick=0, channel=3, data=[75, 100]),\n",
      "   midi.NoteOffEvent(tick=192, channel=3, data=[75, 64]),\n",
      "   midi.NoteOnEvent(tick=0, channel=3, data=[69, 100]),\n",
      "   midi.NoteOffEvent(tick=192, channel=3, data=[69, 64]),\n",
      "   midi.NoteOnEvent(tick=384, channel=3, data=[84, 100]),\n",
      "   midi.NoteOffEvent(tick=192, channel=3, data=[84, 64]),\n",
      "   midi.NoteOnEvent(tick=0, channel=3, data=[81, 100]),\n",
      "   midi.NoteOffEvent(tick=192, channel=3, data=[81, 64]),\n",
      "   midi.NoteOnEvent(tick=192, channel=3, data=[78, 100]),\n",
      "   midi.NoteOffEvent(tick=192, channel=3, data=[78, 64]),\n",
      "   midi.NoteOnEvent(tick=0, channel=3, data=[75, 100]),\n",
      "   midi.NoteOffEvent(tick=192, channel=3, data=[75, 64]),\n",
      "   midi.NoteOnEvent(tick=0, channel=3, data=[71, 100]),\n",
      "   midi.NoteOffEvent(tick=192, channel=3, data=[71, 64]),\n",
      "   midi.NoteOnEvent(tick=192, channel=3, data=[79, 100]),\n",
      "   midi.NoteOffEvent(tick=192, channel=3, data=[79, 64]),\n",
      "   midi.NoteOnEvent(tick=0, channel=3, data=[76, 100]),\n",
      "   midi.NoteOffEvent(tick=192, channel=3, data=[76, 64]),\n",
      "   midi.NoteOnEvent(tick=0, channel=3, data=[71, 100]),\n",
      "   midi.NoteOffEvent(tick=192, channel=3, data=[71, 64]),\n",
      "   midi.NoteOnEvent(tick=0, channel=3, data=[67, 100]),\n",
      "   midi.NoteOffEvent(tick=192, channel=3, data=[67, 64]),\n",
      "   midi.NoteOnEvent(tick=0, channel=3, data=[64, 100]),\n",
      "   midi.NoteOffEvent(tick=192, channel=3, data=[64, 64]),\n",
      "   midi.NoteOnEvent(tick=960, channel=3, data=[69, 100]),\n",
      "   midi.NoteOffEvent(tick=384, channel=3, data=[69, 64]),\n",
      "   midi.NoteOnEvent(tick=0, channel=3, data=[66, 100]),\n",
      "   midi.NoteOffEvent(tick=192, channel=3, data=[66, 64]),\n",
      "   midi.NoteOnEvent(tick=0, channel=3, data=[62, 100]),\n",
      "   midi.NoteOffEvent(tick=192, channel=3, data=[62, 64]),\n",
      "   midi.NoteOnEvent(tick=0, channel=3, data=[69, 100]),\n",
      "   midi.NoteOffEvent(tick=192, channel=3, data=[69, 64]),\n",
      "   midi.NoteOnEvent(tick=0, channel=3, data=[74, 100]),\n",
      "   midi.NoteOffEvent(tick=192, channel=3, data=[74, 64]),\n",
      "   midi.NoteOnEvent(tick=0, channel=3, data=[71, 100]),\n",
      "   midi.NoteOffEvent(tick=192, channel=3, data=[71, 64]),\n",
      "   midi.NoteOnEvent(tick=192, channel=3, data=[71, 100]),\n",
      "   midi.NoteOffEvent(tick=192, channel=3, data=[71, 64]),\n",
      "   midi.NoteOnEvent(tick=0, channel=3, data=[73, 100]),\n",
      "   midi.NoteOffEvent(tick=96, channel=3, data=[73, 64]),\n",
      "   midi.NoteOnEvent(tick=0, channel=3, data=[74, 100]),\n",
      "   midi.NoteOffEvent(tick=96, channel=3, data=[74, 64]),\n",
      "   midi.NoteOnEvent(tick=0, channel=3, data=[76, 100]),\n",
      "   midi.NoteOffEvent(tick=256, channel=3, data=[76, 64]),\n",
      "   midi.NoteOnEvent(tick=32, channel=3, data=[78, 100]),\n",
      "   midi.NoteOffEvent(tick=96, channel=3, data=[78, 64]),\n",
      "   midi.NoteOnEvent(tick=0, channel=3, data=[79, 100]),\n",
      "   midi.NoteOffEvent(tick=192, channel=3, data=[79, 64]),\n",
      "   midi.NoteOnEvent(tick=0, channel=3, data=[73, 100]),\n",
      "   midi.NoteOffEvent(tick=192, channel=3, data=[73, 64]),\n",
      "   midi.NoteOnEvent(tick=0, channel=3, data=[76, 100]),\n",
      "   midi.NoteOffEvent(tick=192, channel=3, data=[76, 64]),\n",
      "   midi.NoteOnEvent(tick=0, channel=3, data=[69, 100]),\n",
      "   midi.NoteOffEvent(tick=192, channel=3, data=[69, 64]),\n",
      "   midi.NoteOnEvent(tick=0, channel=3, data=[74, 100]),\n",
      "   midi.NoteOffEvent(tick=96, channel=3, data=[74, 64]),\n",
      "   midi.NoteOnEvent(tick=0, channel=3, data=[73, 100]),\n",
      "   midi.NoteOffEvent(tick=96, channel=3, data=[73, 64]),\n",
      "   midi.NoteOnEvent(tick=0, channel=3, data=[74, 100]),\n",
      "   midi.NoteOffEvent(tick=192, channel=3, data=[74, 64]),\n",
      "   midi.NoteOnEvent(tick=0, channel=3, data=[74, 100]),\n",
      "   midi.NoteOffEvent(tick=192, channel=3, data=[74, 64]),\n",
      "   midi.NoteOnEvent(tick=0, channel=3, data=[74, 100]),\n",
      "   midi.NoteOffEvent(tick=192, channel=3, data=[74, 64]),\n",
      "   midi.NoteOnEvent(tick=0, channel=3, data=[69, 100]),\n",
      "   midi.NoteOffEvent(tick=192, channel=3, data=[69, 64]),\n",
      "   midi.NoteOnEvent(tick=0, channel=3, data=[66, 100]),\n",
      "   midi.NoteOffEvent(tick=384, channel=3, data=[66, 64]),\n",
      "   midi.NoteOnEvent(tick=1152, channel=3, data=[66, 100]),\n",
      "   midi.NoteOffEvent(tick=96, channel=3, data=[66, 64]),\n",
      "   midi.NoteOnEvent(tick=0, channel=3, data=[67, 100]),\n",
      "   midi.NoteOffEvent(tick=96, channel=3, data=[67, 64]),\n",
      "   midi.NoteOnEvent(tick=0, channel=3, data=[69, 100]),\n",
      "   midi.NoteOffEvent(tick=96, channel=3, data=[69, 64]),\n",
      "   midi.NoteOnEvent(tick=96, channel=3, data=[69, 100]),\n",
      "   midi.NoteOffEvent(tick=96, channel=3, data=[69, 64]),\n",
      "   midi.NoteOnEvent(tick=96, channel=3, data=[69, 100]),\n",
      "   midi.NoteOffEvent(tick=96, channel=3, data=[69, 64]),\n",
      "   midi.NoteOnEvent(tick=96, channel=3, data=[69, 100]),\n",
      "   midi.NoteOffEvent(tick=192, channel=3, data=[69, 64]),\n",
      "   midi.NoteOnEvent(tick=2112, channel=3, data=[64, 100]),\n",
      "   midi.NoteOffEvent(tick=96, channel=3, data=[64, 64]),\n",
      "   midi.NoteOnEvent(tick=0, channel=3, data=[66, 100]),\n",
      "   midi.NoteOffEvent(tick=96, channel=3, data=[66, 64]),\n",
      "   midi.NoteOnEvent(tick=0, channel=3, data=[67, 100]),\n",
      "   midi.NoteOffEvent(tick=96, channel=3, data=[67, 64]),\n",
      "   midi.NoteOnEvent(tick=96, channel=3, data=[67, 100]),\n",
      "   midi.NoteOffEvent(tick=96, channel=3, data=[67, 64]),\n",
      "   midi.NoteOnEvent(tick=96, channel=3, data=[67, 100]),\n",
      "   midi.NoteOffEvent(tick=96, channel=3, data=[67, 64]),\n",
      "   midi.NoteOnEvent(tick=96, channel=3, data=[69, 100]),\n",
      "   midi.NoteOffEvent(tick=192, channel=3, data=[69, 64]),\n",
      "   midi.NoteOnEvent(tick=0, channel=3, data=[66, 100]),\n",
      "   midi.NoteOffEvent(tick=192, channel=3, data=[66, 64]),\n",
      "   midi.NoteOnEvent(tick=0, channel=3, data=[71, 100]),\n",
      "   midi.NoteOffEvent(tick=192, channel=3, data=[71, 64]),\n",
      "   midi.NoteOnEvent(tick=0, channel=3, data=[69, 100]),\n",
      "   midi.NoteOffEvent(tick=384, channel=3, data=[69, 64]),\n",
      "   midi.NoteOnEvent(tick=0, channel=3, data=[67, 100]),\n",
      "   midi.NoteOffEvent(tick=192, channel=3, data=[67, 64]),\n",
      "   midi.NoteOnEvent(tick=0, channel=3, data=[66, 100]),\n",
      "   midi.NoteOffEvent(tick=384, channel=3, data=[66, 64]),\n",
      "   midi.NoteOnEvent(tick=1344, channel=3, data=[65, 100]),\n",
      "   midi.NoteOffEvent(tick=96, channel=3, data=[65, 64]),\n",
      "   midi.NoteOnEvent(tick=0, channel=3, data=[67, 100]),\n",
      "   midi.NoteOffEvent(tick=96, channel=3, data=[67, 64]),\n",
      "   midi.NoteOnEvent(tick=0, channel=3, data=[69, 100]),\n",
      "   midi.NoteOffEvent(tick=192, channel=3, data=[69, 64]),\n",
      "   midi.NoteOnEvent(tick=0, channel=3, data=[74, 100]),\n",
      "   midi.NoteOffEvent(tick=192, channel=3, data=[74, 64]),\n",
      "   midi.NoteOnEvent(tick=0, channel=3, data=[74, 100]),\n",
      "   midi.NoteOffEvent(tick=192, channel=3, data=[74, 64]),\n",
      "   midi.NoteOnEvent(tick=0, channel=3, data=[69, 100]),\n",
      "   midi.NoteOffEvent(tick=192, channel=3, data=[69, 64]),\n",
      "   midi.NoteOnEvent(tick=0, channel=3, data=[69, 100]),\n",
      "   midi.NoteOffEvent(tick=192, channel=3, data=[69, 64]),\n",
      "   midi.NoteOnEvent(tick=0, channel=3, data=[78, 100]),\n",
      "   midi.NoteOffEvent(tick=192, channel=3, data=[78, 64]),\n",
      "   midi.NoteOnEvent(tick=0, channel=3, data=[74, 100]),\n",
      "   midi.NoteOffEvent(tick=192, channel=3, data=[74, 64]),\n",
      "   midi.NoteOnEvent(tick=0, channel=3, data=[69, 100]),\n",
      "   midi.NoteOffEvent(tick=192, channel=3, data=[69, 64]),\n",
      "   midi.NoteOnEvent(tick=192, channel=3, data=[66, 100]),\n",
      "   midi.NoteOffEvent(tick=192, channel=3, data=[66, 64]),\n",
      "   midi.NoteOnEvent(tick=0, channel=3, data=[69, 100]),\n",
      "   midi.NoteOffEvent(tick=192, channel=3, data=[69, 64]),\n",
      "   midi.NoteOnEvent(tick=0, channel=3, data=[74, 100]),\n",
      "   midi.NoteOffEvent(tick=192, channel=3, data=[74, 64]),\n",
      "   midi.NoteOnEvent(tick=192, channel=3, data=[71, 100]),\n",
      "   midi.NoteOffEvent(tick=192, channel=3, data=[71, 64]),\n",
      "   midi.NoteOnEvent(tick=0, channel=3, data=[74, 100]),\n",
      "   midi.NoteOffEvent(tick=192, channel=3, data=[74, 64]),\n",
      "   midi.NoteOnEvent(tick=0, channel=3, data=[78, 100]),\n",
      "   midi.NoteOffEvent(tick=192, channel=3, data=[78, 64]),\n",
      "   midi.NoteOnEvent(tick=192, channel=3, data=[67, 100]),\n",
      "   midi.NoteOffEvent(tick=192, channel=3, data=[67, 64]),\n",
      "   midi.NoteOnEvent(tick=0, channel=3, data=[71, 100]),\n",
      "   midi.NoteOffEvent(tick=192, channel=3, data=[71, 64]),\n",
      "   midi.NoteOnEvent(tick=0, channel=3, data=[76, 100]),\n",
      "   midi.NoteOffEvent(tick=192, channel=3, data=[76, 64]),\n",
      "   midi.NoteOnEvent(tick=192, channel=3, data=[79, 100]),\n",
      "   midi.NoteOffEvent(tick=192, channel=3, data=[79, 64]),\n",
      "   midi.NoteOnEvent(tick=0, channel=3, data=[76, 100]),\n",
      "   midi.NoteOffEvent(tick=192, channel=3, data=[76, 64]),\n",
      "   midi.NoteOnEvent(tick=0, channel=3, data=[73, 100]),\n",
      "   midi.NoteOffEvent(tick=192, channel=3, data=[73, 64]),\n",
      "   midi.NoteOnEvent(tick=960, channel=3, data=[78, 100]),\n",
      "   midi.NoteOffEvent(tick=384, channel=3, data=[78, 64]),\n",
      "   midi.NoteOnEvent(tick=0, channel=3, data=[76, 100]),\n",
      "   midi.NoteOffEvent(tick=96, channel=3, data=[76, 64]),\n",
      "   midi.NoteOnEvent(tick=0, channel=3, data=[74, 100]),\n",
      "   midi.NoteOffEvent(tick=96, channel=3, data=[74, 64]),\n",
      "   midi.NoteOnEvent(tick=0, channel=3, data=[76, 100]),\n",
      "   midi.NoteOffEvent(tick=192, channel=3, data=[76, 64]),\n",
      "   midi.NoteOnEvent(tick=768, channel=3, data=[76, 100]),\n",
      "   midi.NoteOffEvent(tick=384, channel=3, data=[76, 64]),\n",
      "   midi.NoteOnEvent(tick=0, channel=3, data=[74, 100]),\n",
      "   midi.NoteOffEvent(tick=96, channel=3, data=[74, 64]),\n",
      "   midi.NoteOnEvent(tick=0, channel=3, data=[73, 100]),\n",
      "   midi.NoteOffEvent(tick=96, channel=3, data=[73, 64]),\n",
      "   midi.NoteOnEvent(tick=0, channel=3, data=[74, 100]),\n",
      "   midi.NoteOffEvent(tick=192, channel=3, data=[74, 64]),\n",
      "   midi.NoteOnEvent(tick=0, channel=3, data=[74, 100]),\n",
      "   midi.NoteOffEvent(tick=192, channel=3, data=[74, 64]),\n",
      "   midi.NoteOnEvent(tick=0, channel=3, data=[76, 100]),\n",
      "   midi.NoteOffEvent(tick=192, channel=3, data=[76, 64]),\n",
      "   midi.NoteOnEvent(tick=0, channel=3, data=[78, 100]),\n",
      "   midi.NoteOffEvent(tick=192, channel=3, data=[78, 64]),\n",
      "   midi.NoteOnEvent(tick=0, channel=3, data=[76, 100]),\n",
      "   midi.NoteOffEvent(tick=192, channel=3, data=[76, 64]),\n",
      "   midi.NoteOnEvent(tick=0, channel=3, data=[68, 100]),\n",
      "   midi.NoteOffEvent(tick=96, channel=3, data=[68, 64]),\n",
      "   midi.NoteOnEvent(tick=0, channel=3, data=[69, 100]),\n",
      "   midi.NoteOffEvent(tick=96, channel=3, data=[69, 64]),\n",
      "   midi.NoteOnEvent(tick=0, channel=3, data=[71, 100]),\n",
      "   midi.NoteOffEvent(tick=96, channel=3, data=[71, 64]),\n",
      "   midi.NoteOnEvent(tick=0, channel=3, data=[73, 100]),\n",
      "   midi.NoteOffEvent(tick=96, channel=3, data=[73, 64]),\n",
      "   midi.NoteOnEvent(tick=0, channel=3, data=[74, 100]),\n",
      "   midi.NoteOffEvent(tick=96, channel=3, data=[74, 64]),\n",
      "   midi.NoteOnEvent(tick=0, channel=3, data=[76, 100]),\n",
      "   midi.NoteOffEvent(tick=96, channel=3, data=[76, 64]),\n",
      "   midi.NoteOnEvent(tick=0, channel=3, data=[73, 100]),\n",
      "   midi.NoteOffEvent(tick=192, channel=3, data=[73, 64]),\n",
      "   midi.NoteOnEvent(tick=0, channel=3, data=[76, 100]),\n",
      "   midi.NoteOffEvent(tick=192, channel=3, data=[76, 64]),\n",
      "   midi.NoteOnEvent(tick=0, channel=3, data=[64, 100]),\n",
      "   midi.NoteOffEvent(tick=192, channel=3, data=[64, 64]),\n",
      "   midi.NoteOnEvent(tick=0, channel=3, data=[74, 100]),\n",
      "   midi.NoteOffEvent(tick=192, channel=3, data=[74, 64]),\n",
      "   midi.NoteOnEvent(tick=1536, channel=3, data=[71, 100]),\n",
      "   midi.NoteOffEvent(tick=96, channel=3, data=[71, 64]),\n",
      "   midi.NoteOnEvent(tick=0, channel=3, data=[73, 100]),\n",
      "   midi.NoteOffEvent(tick=96, channel=3, data=[73, 64]),\n",
      "   midi.NoteOnEvent(tick=0, channel=3, data=[74, 100]),\n",
      "   midi.NoteOffEvent(tick=96, channel=3, data=[74, 64]),\n",
      "   midi.NoteOnEvent(tick=96, channel=3, data=[74, 100]),\n",
      "   midi.NoteOffEvent(tick=96, channel=3, data=[74, 64]),\n",
      "   midi.NoteOnEvent(tick=96, channel=3, data=[71, 100]),\n",
      "   midi.NoteOffEvent(tick=96, channel=3, data=[71, 64]),\n",
      "   midi.NoteOnEvent(tick=96, channel=3, data=[73, 100]),\n",
      "   midi.NoteOffEvent(tick=192, channel=3, data=[73, 64]),\n",
      "   midi.NoteOnEvent(tick=0, channel=3, data=[69, 100]),\n",
      "   midi.NoteOffEvent(tick=384, channel=3, data=[69, 64]),\n",
      "   midi.NoteOnEvent(tick=0, channel=3, data=[68, 100]),\n",
      "   midi.NoteOffEvent(tick=192, channel=3, data=[68, 64]),\n",
      "   midi.NoteOnEvent(tick=0, channel=3, data=[69, 100]),\n",
      "   midi.NoteOffEvent(tick=192, channel=3, data=[69, 64]),\n",
      "   midi.NoteOnEvent(tick=0, channel=3, data=[68, 100]),\n",
      "   midi.NoteOffEvent(tick=192, channel=3, data=[68, 64]),\n",
      "   midi.NoteOnEvent(tick=0, channel=3, data=[69, 100]),\n",
      "   midi.NoteOffEvent(tick=192, channel=3, data=[69, 64]),\n",
      "   midi.NoteOnEvent(tick=384, channel=3, data=[69, 100]),\n",
      "   midi.NoteOffEvent(tick=96, channel=3, data=[69, 64]),\n",
      "   midi.NoteOnEvent(tick=0, channel=3, data=[71, 100]),\n",
      "   midi.NoteOffEvent(tick=96, channel=3, data=[71, 64]),\n",
      "   midi.NoteOnEvent(tick=0, channel=3, data=[73, 100]),\n",
      "   midi.NoteOffEvent(tick=96, channel=3, data=[73, 64]),\n",
      "   midi.NoteOnEvent(tick=0, channel=3, data=[74, 100]),\n",
      "   midi.NoteOffEvent(tick=96, channel=3, data=[74, 64]),\n",
      "   midi.NoteOnEvent(tick=0, channel=3, data=[76, 100]),\n",
      "   midi.NoteOffEvent(tick=192, channel=3, data=[76, 64]),\n",
      "   midi.NoteOnEvent(tick=0, channel=3, data=[76, 100]),\n",
      "   midi.NoteOffEvent(tick=192, channel=3, data=[76, 64]),\n",
      "   midi.NoteOnEvent(tick=384, channel=3, data=[64, 100]),\n",
      "   midi.NoteOffEvent(tick=192, channel=3, data=[64, 64]),\n",
      "   midi.NoteOnEvent(tick=0, channel=3, data=[69, 100]),\n",
      "   midi.NoteOffEvent(tick=192, channel=3, data=[69, 64]),\n",
      "   midi.NoteOnEvent(tick=0, channel=3, data=[74, 100]),\n",
      "   midi.NoteOffEvent(tick=384, channel=3, data=[74, 64]),\n",
      "   midi.NoteOnEvent(tick=0, channel=3, data=[73, 100]),\n",
      "   midi.NoteOffEvent(tick=192, channel=3, data=[73, 64]),\n",
      "   midi.NoteOnEvent(tick=0, channel=3, data=[74, 100]),\n",
      "   midi.NoteOffEvent(tick=192, channel=3, data=[74, 64]),\n",
      "   midi.NoteOnEvent(tick=0, channel=3, data=[73, 100]),\n",
      "   midi.NoteOffEvent(tick=96, channel=3, data=[73, 64]),\n",
      "   midi.NoteOnEvent(tick=0, channel=3, data=[71, 100]),\n",
      "   midi.NoteOffEvent(tick=96, channel=3, data=[71, 64]),\n",
      "   midi.NoteOnEvent(tick=0, channel=3, data=[69, 100]),\n",
      "   midi.NoteOffEvent(tick=1028, channel=3, data=[69, 64]),\n",
      "   midi.NoteOnEvent(tick=124, channel=3, data=[68, 100]),\n",
      "   midi.NoteOffEvent(tick=96, channel=3, data=[68, 64]),\n",
      "   midi.NoteOnEvent(tick=0, channel=3, data=[66, 100]),\n",
      "   midi.NoteOffEvent(tick=96, channel=3, data=[66, 64]),\n",
      "   midi.NoteOnEvent(tick=0, channel=3, data=[64, 100]),\n",
      "   midi.NoteOffEvent(tick=96, channel=3, data=[64, 64]),\n",
      "   midi.NoteOnEvent(tick=0, channel=3, data=[66, 100]),\n",
      "   midi.NoteOffEvent(tick=96, channel=3, data=[66, 64]),\n",
      "   midi.NoteOnEvent(tick=0, channel=3, data=[68, 100]),\n",
      "   midi.NoteOffEvent(tick=192, channel=3, data=[68, 64]),\n",
      "   midi.NoteOnEvent(tick=0, channel=3, data=[69, 100]),\n",
      "   midi.NoteOffEvent(tick=192, channel=3, data=[69, 64]),\n",
      "   midi.NoteOnEvent(tick=0, channel=3, data=[71, 100]),\n",
      "   midi.NoteOffEvent(tick=864, channel=3, data=[71, 64]),\n",
      "   midi.NoteOnEvent(tick=0, channel=3, data=[69, 100]),\n",
      "   midi.NoteOffEvent(tick=96, channel=3, data=[69, 64]),\n",
      "   midi.NoteOnEvent(tick=0, channel=3, data=[68, 100]),\n",
      "   midi.NoteOffEvent(tick=96, channel=3, data=[68, 64]),\n",
      "   midi.NoteOnEvent(tick=0, channel=3, data=[69, 100]),\n",
      "   midi.NoteOffEvent(tick=96, channel=3, data=[69, 64]),\n",
      "   midi.NoteOnEvent(tick=0, channel=3, data=[71, 100]),\n",
      "   midi.NoteOffEvent(tick=192, channel=3, data=[71, 64]),\n",
      "   midi.NoteOnEvent(tick=192, channel=3, data=[64, 100]),\n",
      "   midi.NoteOffEvent(tick=192, channel=3, data=[64, 64]),\n",
      "   midi.NoteOnEvent(tick=0, channel=3, data=[69, 100]),\n",
      "   midi.NoteOffEvent(tick=96, channel=3, data=[69, 64]),\n",
      "   midi.NoteOnEvent(tick=0, channel=3, data=[68, 100]),\n",
      "   midi.NoteOffEvent(tick=96, channel=3, data=[68, 64]),\n",
      "   midi.NoteOnEvent(tick=0, channel=3, data=[69, 100]),\n",
      "   midi.NoteOffEvent(tick=96, channel=3, data=[69, 64]),\n",
      "   midi.NoteOnEvent(tick=0, channel=3, data=[68, 100]),\n",
      "   midi.NoteOffEvent(tick=96, channel=3, data=[68, 64]),\n",
      "   midi.NoteOnEvent(tick=0, channel=3, data=[66, 100]),\n",
      "   midi.NoteOffEvent(tick=96, channel=3, data=[66, 64]),\n",
      "   midi.NoteOnEvent(tick=0, channel=3, data=[68, 100]),\n",
      "   midi.NoteOffEvent(tick=96, channel=3, data=[68, 64]),\n",
      "   midi.NoteOnEvent(tick=0, channel=3, data=[69, 100]),\n",
      "   midi.NoteOffEvent(tick=192, channel=3, data=[69, 64]),\n",
      "   midi.NoteOnEvent(tick=0, channel=3, data=[64, 100]),\n",
      "   midi.NoteOffEvent(tick=192, channel=3, data=[64, 64]),\n",
      "   midi.NoteOnEvent(tick=0, channel=3, data=[73, 100]),\n",
      "   midi.NoteOffEvent(tick=192, channel=3, data=[73, 64]),\n",
      "   midi.NoteOnEvent(tick=0, channel=3, data=[73, 100]),\n",
      "   midi.NoteOffEvent(tick=192, channel=3, data=[73, 64]),\n",
      "   midi.NoteOnEvent(tick=0, channel=3, data=[66, 100]),\n",
      "   midi.NoteOffEvent(tick=192, channel=3, data=[66, 64]),\n",
      "   midi.NoteOnEvent(tick=0, channel=3, data=[71, 100]),\n",
      "   midi.NoteOffEvent(tick=384, channel=3, data=[71, 64]),\n",
      "   midi.NoteOnEvent(tick=0, channel=3, data=[64, 100]),\n",
      "   midi.NoteOffEvent(tick=192, channel=3, data=[64, 64]),\n",
      "   midi.NoteOnEvent(tick=0, channel=3, data=[64, 100]),\n",
      "   midi.NoteOffEvent(tick=384, channel=3, data=[64, 64]),\n",
      "   midi.NoteOnEvent(tick=1728, channel=3, data=[64, 100]),\n",
      "   midi.NoteOffEvent(tick=192, channel=3, data=[64, 64]),\n",
      "   midi.NoteOnEvent(tick=0, channel=3, data=[66, 100]),\n",
      "   midi.NoteOffEvent(tick=192, channel=3, data=[66, 64]),\n",
      "   midi.NoteOnEvent(tick=0, channel=3, data=[69, 100]),\n",
      "   midi.NoteOffEvent(tick=192, channel=3, data=[69, 64]),\n",
      "   midi.NoteOnEvent(tick=0, channel=3, data=[68, 100]),\n",
      "   midi.NoteOffEvent(tick=192, channel=3, data=[68, 64]),\n",
      "   midi.NoteOnEvent(tick=0, channel=3, data=[71, 100]),\n",
      "   midi.NoteOffEvent(tick=192, channel=3, data=[71, 64]),\n",
      "   midi.NoteOnEvent(tick=2112, channel=3, data=[64, 100]),\n",
      "   midi.NoteOffEvent(tick=192, channel=3, data=[64, 64]),\n",
      "   midi.NoteOnEvent(tick=0, channel=3, data=[66, 100]),\n",
      "   midi.NoteOffEvent(tick=192, channel=3, data=[66, 64]),\n",
      "   midi.NoteOnEvent(tick=0, channel=3, data=[69, 100]),\n",
      "   midi.NoteOffEvent(tick=192, channel=3, data=[69, 64]),\n",
      "   midi.NoteOnEvent(tick=0, channel=3, data=[68, 100]),\n",
      "   midi.NoteOffEvent(tick=192, channel=3, data=[68, 64]),\n",
      "   midi.NoteOnEvent(tick=0, channel=3, data=[71, 100]),\n",
      "   midi.NoteOffEvent(tick=192, channel=3, data=[71, 64]),\n",
      "   midi.NoteOnEvent(tick=1728, channel=3, data=[78, 100]),\n",
      "   midi.NoteOffEvent(tick=384, channel=3, data=[78, 64]),\n",
      "   midi.NoteOnEvent(tick=0, channel=3, data=[76, 100]),\n",
      "   midi.NoteOffEvent(tick=96, channel=3, data=[76, 64]),\n",
      "   midi.NoteOnEvent(tick=0, channel=3, data=[74, 100]),\n",
      "   midi.NoteOffEvent(tick=96, channel=3, data=[74, 64]),\n",
      "   midi.NoteOnEvent(tick=0, channel=3, data=[76, 100]),\n",
      "   midi.NoteOffEvent(tick=192, channel=3, data=[76, 64]),\n",
      "   midi.NoteOnEvent(tick=768, channel=3, data=[76, 100]),\n",
      "   midi.NoteOffEvent(tick=384, channel=3, data=[76, 64]),\n",
      "   midi.NoteOnEvent(tick=0, channel=3, data=[74, 100]),\n",
      "   midi.NoteOffEvent(tick=96, channel=3, data=[74, 64]),\n",
      "   midi.NoteOnEvent(tick=0, channel=3, data=[73, 100]),\n",
      "   midi.NoteOffEvent(tick=96, channel=3, data=[73, 64]),\n",
      "   midi.NoteOnEvent(tick=0, channel=3, data=[71, 100]),\n",
      "   midi.NoteOffEvent(tick=96, channel=3, data=[71, 64]),\n",
      "   midi.NoteOnEvent(tick=0, channel=3, data=[73, 100]),\n",
      "   midi.NoteOffEvent(tick=96, channel=3, data=[73, 64]),\n",
      "   midi.NoteOnEvent(tick=0, channel=3, data=[71, 100]),\n",
      "   midi.NoteOffEvent(tick=96, channel=3, data=[71, 64]),\n",
      "   midi.NoteOnEvent(tick=96, channel=3, data=[71, 100]),\n",
      "   midi.NoteOffEvent(tick=96, channel=3, data=[71, 64]),\n",
      "   midi.NoteOnEvent(tick=96, channel=3, data=[71, 100]),\n",
      "   midi.NoteOffEvent(tick=96, channel=3, data=[71, 64]),\n",
      "   midi.NoteOnEvent(tick=96, channel=3, data=[83, 100]),\n",
      "   midi.NoteOffEvent(tick=512, channel=3, data=[83, 64]),\n",
      "   midi.NoteOnEvent(tick=64, channel=3, data=[81, 100]),\n",
      "   midi.NoteOffEvent(tick=96, channel=3, data=[81, 64]),\n",
      "   midi.NoteOnEvent(tick=0, channel=3, data=[80, 100]),\n",
      "   midi.NoteOffEvent(tick=96, channel=3, data=[80, 64]),\n",
      "   midi.NoteOnEvent(tick=0, channel=3, data=[81, 100]),\n",
      "   midi.NoteOffEvent(tick=96, channel=3, data=[81, 64]),\n",
      "   midi.NoteOnEvent(tick=0, channel=3, data=[76, 100]),\n",
      "   midi.NoteOffEvent(tick=96, channel=3, data=[76, 64]),\n",
      "   midi.NoteOnEvent(tick=0, channel=3, data=[74, 100]),\n",
      "   midi.NoteOffEvent(tick=96, channel=3, data=[74, 64]),\n",
      "   midi.NoteOnEvent(tick=0, channel=3, data=[73, 100]),\n",
      "   midi.NoteOffEvent(tick=96, channel=3, data=[73, 64]),\n",
      "   midi.NoteOnEvent(tick=0, channel=3, data=[74, 100]),\n",
      "   midi.NoteOffEvent(tick=96, channel=3, data=[74, 64]),\n",
      "   midi.NoteOnEvent(tick=0, channel=3, data=[73, 100]),\n",
      "   midi.NoteOffEvent(tick=96, channel=3, data=[73, 64]),\n",
      "   midi.NoteOnEvent(tick=0, channel=3, data=[71, 100]),\n",
      "   midi.NoteOffEvent(tick=96, channel=3, data=[71, 64]),\n",
      "   midi.NoteOnEvent(tick=0, channel=3, data=[73, 100]),\n",
      "   midi.NoteOffEvent(tick=96, channel=3, data=[73, 64]),\n",
      "   midi.NoteOnEvent(tick=0, channel=3, data=[69, 100]),\n",
      "   midi.NoteOffEvent(tick=384, channel=3, data=[69, 64]),\n",
      "   midi.NoteOnEvent(tick=1152, channel=3, data=[68, 100]),\n",
      "   midi.NoteOffEvent(tick=96, channel=3, data=[68, 64]),\n",
      "   midi.NoteOnEvent(tick=0, channel=3, data=[69, 100]),\n",
      "   midi.NoteOffEvent(tick=96, channel=3, data=[69, 64]),\n",
      "   midi.NoteOnEvent(tick=0, channel=3, data=[71, 100]),\n",
      "   midi.NoteOffEvent(tick=96, channel=3, data=[71, 64]),\n",
      "   midi.NoteOnEvent(tick=96, channel=3, data=[71, 100]),\n",
      "   midi.NoteOffEvent(tick=96, channel=3, data=[71, 64]),\n",
      "   midi.NoteOnEvent(tick=96, channel=3, data=[65, 100]),\n",
      "   midi.NoteOffEvent(tick=96, channel=3, data=[65, 64]),\n",
      "   midi.NoteOnEvent(tick=96, channel=3, data=[66, 100]),\n",
      "   midi.NoteOffEvent(tick=192, channel=3, data=[66, 64]),\n",
      "   midi.NoteOnEvent(tick=0, channel=3, data=[66, 100]),\n",
      "   midi.NoteOffEvent(tick=384, channel=3, data=[66, 64]),\n",
      "   midi.NoteOnEvent(tick=0, channel=3, data=[65, 100]),\n",
      "   midi.NoteOffEvent(tick=192, channel=3, data=[65, 64]),\n",
      "   midi.NoteOnEvent(tick=0, channel=3, data=[66, 100]),\n",
      "   midi.NoteOffEvent(tick=192, channel=3, data=[66, 64]),\n",
      "   midi.NoteOnEvent(tick=0, channel=3, data=[65, 100]),\n",
      "   midi.NoteOffEvent(tick=192, channel=3, data=[65, 64]),\n",
      "   midi.NoteOnEvent(tick=0, channel=3, data=[66, 100]),\n",
      "   midi.NoteOffEvent(tick=192, channel=3, data=[66, 64]),\n",
      "   midi.NoteOnEvent(tick=192, channel=3, data=[74, 100]),\n",
      "   midi.NoteOffEvent(tick=96, channel=3, data=[74, 64]),\n",
      "   midi.NoteOnEvent(tick=0, channel=3, data=[76, 100]),\n",
      "   midi.NoteOffEvent(tick=96, channel=3, data=[76, 64]),\n",
      "   midi.NoteOnEvent(tick=0, channel=3, data=[78, 100]),\n",
      "   midi.NoteOffEvent(tick=96, channel=3, data=[78, 64]),\n",
      "   midi.NoteOnEvent(tick=96, channel=3, data=[78, 100]),\n",
      "   midi.NoteOffEvent(tick=96, channel=3, data=[78, 64]),\n",
      "   midi.NoteOnEvent(tick=96, channel=3, data=[78, 100]),\n",
      "   midi.NoteOffEvent(tick=96, channel=3, data=[78, 64]),\n",
      "   midi.NoteOnEvent(tick=96, channel=3, data=[78, 100]),\n",
      "   midi.NoteOffEvent(tick=512, channel=3, data=[78, 64]),\n",
      "   midi.NoteOnEvent(tick=64, channel=3, data=[70, 100]),\n",
      "   midi.NoteOffEvent(tick=192, channel=3, data=[70, 64]),\n",
      "   midi.NoteOnEvent(tick=0, channel=3, data=[71, 100]),\n",
      "   midi.NoteOffEvent(tick=192, channel=3, data=[71, 64]),\n",
      "   midi.NoteOnEvent(tick=0, channel=3, data=[71, 100]),\n",
      "   midi.NoteOffEvent(tick=384, channel=3, data=[71, 64]),\n",
      "   midi.NoteOnEvent(tick=0, channel=3, data=[70, 100]),\n",
      "   midi.NoteOffEvent(tick=192, channel=3, data=[70, 64]),\n",
      "   midi.NoteOnEvent(tick=0, channel=3, data=[71, 100]),\n",
      "   midi.NoteOffEvent(tick=192, channel=3, data=[71, 64]),\n",
      "   midi.NoteOnEvent(tick=0, channel=3, data=[70, 100]),\n",
      "   midi.NoteOffEvent(tick=192, channel=3, data=[70, 64]),\n",
      "   midi.NoteOnEvent(tick=0, channel=3, data=[71, 100]),\n",
      "   midi.NoteOffEvent(tick=192, channel=3, data=[71, 64]),\n",
      "   midi.NoteOnEvent(tick=576, channel=3, data=[67, 100]),\n",
      "   midi.NoteOffEvent(tick=96, channel=3, data=[67, 64]),\n",
      "   midi.NoteOnEvent(tick=0, channel=3, data=[69, 100]),\n",
      "   midi.NoteOffEvent(tick=96, channel=3, data=[69, 64]),\n",
      "   midi.NoteOnEvent(tick=0, channel=3, data=[71, 100]),\n",
      "   midi.NoteOffEvent(tick=96, channel=3, data=[71, 64]),\n",
      "   midi.NoteOnEvent(tick=96, channel=3, data=[71, 100]),\n",
      "   midi.NoteOffEvent(tick=96, channel=3, data=[71, 64]),\n",
      "   midi.NoteOnEvent(tick=96, channel=3, data=[64, 100]),\n",
      "   midi.NoteOffEvent(tick=192, channel=3, data=[64, 64]),\n",
      "   midi.NoteOnEvent(tick=768, channel=3, data=[66, 100]),\n",
      "   midi.NoteOffEvent(tick=96, channel=3, data=[66, 64]),\n",
      "   midi.NoteOnEvent(tick=0, channel=3, data=[67, 100]),\n",
      "   midi.NoteOffEvent(tick=96, channel=3, data=[67, 64]),\n",
      "   midi.NoteOnEvent(tick=0, channel=3, data=[69, 100]),\n",
      "   midi.NoteOffEvent(tick=96, channel=3, data=[69, 64]),\n",
      "   midi.NoteOnEvent(tick=96, channel=3, data=[69, 100]),\n",
      "   midi.NoteOffEvent(tick=96, channel=3, data=[69, 64]),\n",
      "   midi.NoteOnEvent(tick=96, channel=3, data=[62, 100]),\n",
      "   midi.NoteOffEvent(tick=192, channel=3, data=[62, 64]),\n",
      "   midi.NoteOnEvent(tick=384, channel=3, data=[73, 100]),\n",
      "   midi.NoteOffEvent(tick=96, channel=3, data=[73, 64]),\n",
      "   midi.NoteOnEvent(tick=0, channel=3, data=[74, 100]),\n",
      "   midi.NoteOffEvent(tick=96, channel=3, data=[74, 64]),\n",
      "   midi.NoteOnEvent(tick=0, channel=3, data=[76, 100]),\n",
      "   midi.NoteOffEvent(tick=96, channel=3, data=[76, 64]),\n",
      "   midi.NoteOnEvent(tick=96, channel=3, data=[76, 100]),\n",
      "   midi.NoteOffEvent(tick=96, channel=3, data=[76, 64]),\n",
      "   midi.NoteOnEvent(tick=96, channel=3, data=[76, 100]),\n",
      "   midi.NoteOffEvent(tick=96, channel=3, data=[76, 64]),\n",
      "   midi.NoteOnEvent(tick=96, channel=3, data=[66, 100]),\n",
      "   midi.NoteOffEvent(tick=192, channel=3, data=[66, 64]),\n",
      "   midi.NoteOnEvent(tick=0, channel=3, data=[70, 100]),\n",
      "   midi.NoteOffEvent(tick=192, channel=3, data=[70, 64]),\n",
      "   midi.NoteOnEvent(tick=0, channel=3, data=[71, 100]),\n",
      "   midi.NoteOffEvent(tick=192, channel=3, data=[71, 64]),\n",
      "   midi.NoteOnEvent(tick=0, channel=3, data=[66, 100]),\n",
      "   midi.NoteOffEvent(tick=192, channel=3, data=[66, 64]),\n",
      "   midi.NoteOnEvent(tick=0, channel=3, data=[66, 100]),\n",
      "   midi.NoteOffEvent(tick=192, channel=3, data=[66, 64]),\n",
      "   midi.NoteOnEvent(tick=0, channel=3, data=[67, 100]),\n",
      "   midi.NoteOffEvent(tick=384, channel=3, data=[67, 64]),\n",
      "   midi.NoteOnEvent(tick=0, channel=3, data=[66, 100]),\n",
      "   midi.NoteOffEvent(tick=192, channel=3, data=[66, 64]),\n",
      "   midi.NoteOnEvent(tick=0, channel=3, data=[62, 100]),\n",
      "   midi.NoteOffEvent(tick=384, channel=3, data=[62, 64]),\n",
      "   midi.NoteOnEvent(tick=384, channel=3, data=[70, 100]),\n",
      "   midi.NoteOffEvent(tick=96, channel=3, data=[70, 64]),\n",
      "   midi.NoteOnEvent(tick=0, channel=3, data=[71, 100]),\n",
      "   midi.NoteOffEvent(tick=96, channel=3, data=[71, 64]),\n",
      "   midi.NoteOnEvent(tick=0, channel=3, data=[73, 100]),\n",
      "   midi.NoteOffEvent(tick=96, channel=3, data=[73, 64]),\n",
      "   midi.NoteOnEvent(tick=96, channel=3, data=[73, 100]),\n",
      "   midi.NoteOffEvent(tick=96, channel=3, data=[73, 64]),\n",
      "   midi.NoteOnEvent(tick=96, channel=3, data=[73, 100]),\n",
      "   midi.NoteOffEvent(tick=96, channel=3, data=[73, 64]),\n",
      "   midi.NoteOnEvent(tick=96, channel=3, data=[73, 100]),\n",
      "   midi.NoteOffEvent(tick=864, channel=3, data=[73, 64]),\n",
      "   midi.NoteOnEvent(tick=96, channel=3, data=[73, 100]),\n",
      "   midi.NoteOffEvent(tick=192, channel=3, data=[73, 64]),\n",
      "   midi.NoteOnEvent(tick=0, channel=3, data=[70, 100]),\n",
      "   midi.NoteOffEvent(tick=192, channel=3, data=[70, 64]),\n",
      "   midi.NoteOnEvent(tick=0, channel=3, data=[66, 100]),\n",
      "   midi.NoteOffEvent(tick=192, channel=3, data=[66, 64]),\n",
      "   midi.NoteOnEvent(tick=192, channel=3, data=[71, 100]),\n",
      "   midi.NoteOffEvent(tick=192, channel=3, data=[71, 64]),\n",
      "   midi.NoteOnEvent(tick=0, channel=3, data=[66, 100]),\n",
      "   midi.NoteOffEvent(tick=192, channel=3, data=[66, 64]),\n",
      "   midi.NoteOnEvent(tick=0, channel=3, data=[62, 100]),\n",
      "   midi.NoteOffEvent(tick=192, channel=3, data=[62, 64]),\n",
      "   midi.NoteOnEvent(tick=192, channel=3, data=[78, 100]),\n",
      "   midi.NoteOffEvent(tick=192, channel=3, data=[78, 64]),\n",
      "   midi.NoteOnEvent(tick=0, channel=3, data=[75, 100]),\n",
      "   midi.NoteOffEvent(tick=192, channel=3, data=[75, 64]),\n",
      "   midi.NoteOnEvent(tick=0, channel=3, data=[71, 100]),\n",
      "   midi.NoteOffEvent(tick=192, channel=3, data=[71, 64]),\n",
      "   midi.NoteOnEvent(tick=384, channel=3, data=[84, 100]),\n",
      "   midi.NoteOffEvent(tick=192, channel=3, data=[84, 64]),\n",
      "   midi.NoteOnEvent(tick=0, channel=3, data=[81, 100]),\n",
      "   midi.NoteOffEvent(tick=192, channel=3, data=[81, 64]),\n",
      "   midi.NoteOnEvent(tick=192, channel=3, data=[78, 100]),\n",
      "   midi.NoteOffEvent(tick=192, channel=3, data=[78, 64]),\n",
      "   midi.NoteOnEvent(tick=0, channel=3, data=[75, 100]),\n",
      "   midi.NoteOffEvent(tick=192, channel=3, data=[75, 64]),\n",
      "   midi.NoteOnEvent(tick=0, channel=3, data=[71, 100]),\n",
      "   midi.NoteOffEvent(tick=192, channel=3, data=[71, 64]),\n",
      "   midi.NoteOnEvent(tick=192, channel=3, data=[76, 100]),\n",
      "   midi.NoteOffEvent(tick=192, channel=3, data=[76, 64]),\n",
      "   midi.NoteOnEvent(tick=0, channel=3, data=[71, 100]),\n",
      "   midi.NoteOffEvent(tick=192, channel=3, data=[71, 64]),\n",
      "   midi.NoteOnEvent(tick=0, channel=3, data=[67, 100]),\n",
      "   midi.NoteOffEvent(tick=192, channel=3, data=[67, 64]),\n",
      "   midi.NoteOnEvent(tick=0, channel=3, data=[73, 100]),\n",
      "   midi.NoteOffEvent(tick=864, channel=3, data=[73, 64]),\n",
      "   midi.NoteOnEvent(tick=0, channel=3, data=[71, 100]),\n",
      "   midi.NoteOffEvent(tick=96, channel=3, data=[71, 64]),\n",
      "   midi.NoteOnEvent(tick=0, channel=3, data=[70, 100]),\n",
      "   midi.NoteOffEvent(tick=96, channel=3, data=[70, 64]),\n",
      "   midi.NoteOnEvent(tick=0, channel=3, data=[71, 100]),\n",
      "   midi.NoteOffEvent(tick=96, channel=3, data=[71, 64]),\n",
      "   midi.NoteOnEvent(tick=0, channel=3, data=[73, 100]),\n",
      "   midi.NoteOffEvent(tick=192, channel=3, data=[73, 64]),\n",
      "   midi.NoteOnEvent(tick=0, channel=3, data=[74, 100]),\n",
      "   midi.NoteOffEvent(tick=192, channel=3, data=[74, 64]),\n",
      "   midi.NoteOnEvent(tick=0, channel=3, data=[76, 100]),\n",
      "   midi.NoteOffEvent(tick=864, channel=3, data=[76, 64]),\n",
      "   midi.NoteOnEvent(tick=0, channel=3, data=[74, 100]),\n",
      "   midi.NoteOffEvent(tick=96, channel=3, data=[74, 64]),\n",
      "   midi.NoteOnEvent(tick=0, channel=3, data=[73, 100]),\n",
      "   midi.NoteOffEvent(tick=96, channel=3, data=[73, 64]),\n",
      "   midi.NoteOnEvent(tick=0, channel=3, data=[74, 100]),\n",
      "   midi.NoteOffEvent(tick=96, channel=3, data=[74, 64]),\n",
      "   midi.NoteOnEvent(tick=0, channel=3, data=[76, 100]),\n",
      "   midi.NoteOffEvent(tick=96, channel=3, data=[76, 64]),\n",
      "   midi.NoteOnEvent(tick=0, channel=3, data=[74, 100]),\n",
      "   midi.NoteOffEvent(tick=96, channel=3, data=[74, 64]),\n",
      "   midi.NoteOnEvent(tick=0, channel=3, data=[76, 100]),\n",
      "   midi.NoteOffEvent(tick=96, channel=3, data=[76, 64]),\n",
      "   midi.NoteOnEvent(tick=0, channel=3, data=[73, 100]),\n",
      "   midi.NoteOffEvent(tick=96, channel=3, data=[73, 64]),\n",
      "   midi.NoteOnEvent(tick=0, channel=3, data=[71, 100]),\n",
      "   midi.NoteOffEvent(tick=96, channel=3, data=[71, 64]),\n",
      "   midi.NoteOnEvent(tick=0, channel=3, data=[73, 100]),\n",
      "   midi.NoteOffEvent(tick=96, channel=3, data=[73, 64]),\n",
      "   midi.NoteOnEvent(tick=0, channel=3, data=[74, 100]),\n",
      "   midi.NoteOffEvent(tick=96, channel=3, data=[74, 64]),\n",
      "   midi.NoteOnEvent(tick=96, channel=3, data=[74, 100]),\n",
      "   midi.NoteOffEvent(tick=96, channel=3, data=[74, 64]),\n",
      "   midi.NoteOnEvent(tick=96, channel=3, data=[76, 100]),\n",
      "   midi.NoteOffEvent(tick=96, channel=3, data=[76, 64]),\n",
      "   midi.NoteOnEvent(tick=96, channel=3, data=[74, 100]),\n",
      "   midi.NoteOffEvent(tick=96, channel=3, data=[74, 64]),\n",
      "   midi.NoteOnEvent(tick=0, channel=3, data=[79, 100]),\n",
      "   midi.NoteOffEvent(tick=96, channel=3, data=[79, 64]),\n",
      "   midi.NoteOnEvent(tick=0, channel=3, data=[78, 100]),\n",
      "   midi.NoteOffEvent(tick=96, channel=3, data=[78, 64]),\n",
      "   midi.NoteOnEvent(tick=0, channel=3, data=[76, 100]),\n",
      "   midi.NoteOffEvent(tick=96, channel=3, data=[76, 64]),\n",
      "   midi.NoteOnEvent(tick=0, channel=3, data=[74, 100]),\n",
      "   midi.NoteOffEvent(tick=96, channel=3, data=[74, 64]),\n",
      "   midi.NoteOnEvent(tick=0, channel=3, data=[73, 100]),\n",
      "   midi.NoteOffEvent(tick=96, channel=3, data=[73, 64]),\n",
      "   midi.NoteOnEvent(tick=0, channel=3, data=[71, 100]),\n",
      "   midi.NoteOffEvent(tick=96, channel=3, data=[71, 64]),\n",
      "   midi.NoteOnEvent(tick=0, channel=3, data=[70, 100]),\n",
      "   midi.NoteOffEvent(tick=96, channel=3, data=[70, 64]),\n",
      "   midi.NoteOnEvent(tick=0, channel=3, data=[71, 100]),\n",
      "   midi.NoteOffEvent(tick=384, channel=3, data=[71, 64]),\n",
      "   midi.NoteOnEvent(tick=0, channel=3, data=[70, 100]),\n",
      "   midi.NoteOffEvent(tick=384, channel=3, data=[70, 64]),\n",
      "   midi.NoteOnEvent(tick=0, channel=3, data=[71, 100]),\n",
      "   midi.NoteOffEvent(tick=384, channel=3, data=[71, 64]),\n",
      "   midi.NoteOnEvent(tick=1152, channel=3, data=[69, 100]),\n",
      "   midi.NoteOffEvent(tick=96, channel=3, data=[69, 64]),\n",
      "   midi.NoteOnEvent(tick=0, channel=3, data=[71, 100]),\n",
      "   midi.NoteOffEvent(tick=96, channel=3, data=[71, 64]),\n",
      "   midi.NoteOnEvent(tick=0, channel=3, data=[72, 100]),\n",
      "   midi.NoteOffEvent(tick=96, channel=3, data=[72, 64]),\n",
      "   midi.NoteOnEvent(tick=96, channel=3, data=[72, 100]),\n",
      "   midi.NoteOffEvent(tick=96, channel=3, data=[72, 64]),\n",
      "   midi.NoteOnEvent(tick=96, channel=3, data=[69, 100]),\n",
      "   midi.NoteOffEvent(tick=96, channel=3, data=[69, 64]),\n",
      "   midi.NoteOnEvent(tick=1632, channel=3, data=[79, 100]),\n",
      "   midi.NoteOffEvent(tick=96, channel=3, data=[79, 64]),\n",
      "   midi.NoteOnEvent(tick=0, channel=3, data=[81, 100]),\n",
      "   midi.NoteOffEvent(tick=96, channel=3, data=[81, 64]),\n",
      "   midi.NoteOnEvent(tick=0, channel=3, data=[83, 100]),\n",
      "   midi.NoteOffEvent(tick=96, channel=3, data=[83, 64]),\n",
      "   midi.NoteOnEvent(tick=96, channel=3, data=[83, 100]),\n",
      "   midi.NoteOffEvent(tick=96, channel=3, data=[83, 64]),\n",
      "   midi.NoteOnEvent(tick=96, channel=3, data=[83, 100]),\n",
      "   midi.NoteOffEvent(tick=96, channel=3, data=[83, 64]),\n",
      "   midi.NoteOnEvent(tick=576, channel=3, data=[81, 100]),\n",
      "   midi.NoteOffEvent(tick=96, channel=3, data=[81, 64]),\n",
      "   midi.NoteOnEvent(tick=0, channel=3, data=[79, 100]),\n",
      "   midi.NoteOffEvent(tick=96, channel=3, data=[79, 64]),\n",
      "   midi.NoteOnEvent(tick=0, channel=3, data=[78, 100]),\n",
      "   midi.NoteOffEvent(tick=96, channel=3, data=[78, 64]),\n",
      "   midi.NoteOnEvent(tick=0, channel=3, data=[76, 100]),\n",
      "   midi.NoteOffEvent(tick=192, channel=3, data=[76, 64]),\n",
      "   midi.NoteOnEvent(tick=0, channel=3, data=[69, 100]),\n",
      "   midi.NoteOffEvent(tick=96, channel=3, data=[69, 64]),\n",
      "   midi.NoteOnEvent(tick=0, channel=3, data=[67, 100]),\n",
      "   midi.NoteOffEvent(tick=96, channel=3, data=[67, 64]),\n",
      "   midi.NoteOnEvent(tick=0, channel=3, data=[66, 100]),\n",
      "   midi.NoteOffEvent(tick=96, channel=3, data=[66, 64]),\n",
      "   midi.NoteOnEvent(tick=0, channel=3, data=[67, 100]),\n",
      "   midi.NoteOffEvent(tick=96, channel=3, data=[67, 64]),\n",
      "   midi.NoteOnEvent(tick=0, channel=3, data=[69, 100]),\n",
      "   midi.NoteOffEvent(tick=192, channel=3, data=[69, 64]),\n",
      "   midi.NoteOnEvent(tick=0, channel=3, data=[64, 100]),\n",
      "   midi.NoteOffEvent(tick=384, channel=3, data=[64, 64]),\n",
      "   midi.NoteOnEvent(tick=192, channel=3, data=[79, 100]),\n",
      "   midi.NoteOffEvent(tick=192, channel=3, data=[79, 64]),\n",
      "   midi.NoteOnEvent(tick=0, channel=3, data=[76, 100]),\n",
      "   midi.NoteOffEvent(tick=192, channel=3, data=[76, 64]),\n",
      "   midi.NoteOnEvent(tick=0, channel=3, data=[73, 100]),\n",
      "   midi.NoteOffEvent(tick=192, channel=3, data=[73, 64]),\n",
      "   midi.NoteOnEvent(tick=192, channel=3, data=[73, 100]),\n",
      "   midi.NoteOffEvent(tick=192, channel=3, data=[73, 64]),\n",
      "   midi.NoteOnEvent(tick=0, channel=3, data=[78, 100]),\n",
      "   midi.NoteOffEvent(tick=192, channel=3, data=[78, 64]),\n",
      "   midi.NoteOnEvent(tick=0, channel=3, data=[74, 100]),\n",
      "   midi.NoteOffEvent(tick=192, channel=3, data=[74, 64]),\n",
      "   midi.NoteOnEvent(tick=192, channel=3, data=[78, 100]),\n",
      "   midi.NoteOffEvent(tick=192, channel=3, data=[78, 64]),\n",
      "   midi.NoteOnEvent(tick=0, channel=3, data=[71, 100]),\n",
      "   midi.NoteOffEvent(tick=192, channel=3, data=[71, 64]),\n",
      "   midi.NoteOnEvent(tick=0, channel=3, data=[80, 100]),\n",
      "   midi.NoteOffEvent(tick=192, channel=3, data=[80, 64]),\n",
      "   midi.NoteOnEvent(tick=192, channel=3, data=[78, 100]),\n",
      "   midi.NoteOffEvent(tick=192, channel=3, data=[78, 64]),\n",
      "   midi.NoteOnEvent(tick=0, channel=3, data=[77, 100]),\n",
      "   midi.NoteOffEvent(tick=192, channel=3, data=[77, 64]),\n",
      "   midi.NoteOnEvent(tick=0, channel=3, data=[68, 100]),\n",
      "   midi.NoteOffEvent(tick=192, channel=3, data=[68, 64]),\n",
      "   midi.NoteOnEvent(tick=0, channel=3, data=[73, 100]),\n",
      "   midi.NoteOffEvent(tick=192, channel=3, data=[73, 64]),\n",
      "   midi.NoteOnEvent(tick=0, channel=3, data=[71, 100]),\n",
      "   midi.NoteOffEvent(tick=192, channel=3, data=[71, 64]),\n",
      "   midi.NoteOnEvent(tick=0, channel=3, data=[69, 100]),\n",
      "   midi.NoteOnEvent(tick=1152, channel=3, data=[68, 100]),\n",
      "   midi.NoteOffEvent(tick=4, channel=3, data=[69, 64]),\n",
      "   midi.NoteOffEvent(tick=188, channel=3, data=[68, 64]),\n",
      "   midi.NoteOnEvent(tick=0, channel=3, data=[66, 100]),\n",
      "   midi.NoteOffEvent(tick=192, channel=3, data=[66, 64]),\n",
      "   midi.NoteOnEvent(tick=0, channel=3, data=[65, 100]),\n",
      "   midi.NoteOffEvent(tick=384, channel=3, data=[65, 64]),\n",
      "   midi.NoteOnEvent(tick=0, channel=3, data=[66, 100]),\n",
      "   midi.NoteOffEvent(tick=768, channel=3, data=[66, 64]),\n",
      "   midi.NoteOnEvent(tick=0, channel=3, data=[65, 100]),\n",
      "   midi.NoteOffEvent(tick=384, channel=3, data=[65, 64]),\n",
      "   midi.NoteOnEvent(tick=0, channel=3, data=[66, 100]),\n",
      "   midi.NoteOffEvent(tick=384, channel=3, data=[66, 64]),\n",
      "   midi.NoteOnEvent(tick=1728, channel=3, data=[66, 100]),\n",
      "   midi.NoteOffEvent(tick=96, channel=3, data=[66, 64]),\n",
      "   midi.NoteOnEvent(tick=0, channel=3, data=[67, 100]),\n",
      "   midi.NoteOffEvent(tick=96, channel=3, data=[67, 64]),\n",
      "   midi.NoteOnEvent(tick=0, channel=3, data=[69, 100]),\n",
      "   midi.NoteOffEvent(tick=192, channel=3, data=[69, 64]),\n",
      "   midi.NoteOnEvent(tick=0, channel=3, data=[74, 100]),\n",
      "   midi.NoteOffEvent(tick=192, channel=3, data=[74, 64]),\n",
      "   midi.NoteOnEvent(tick=0, channel=3, data=[71, 100]),\n",
      "   midi.NoteOffEvent(tick=192, channel=3, data=[71, 64]),\n",
      "   midi.NoteOnEvent(tick=0, channel=3, data=[76, 100]),\n",
      "   midi.NoteOffEvent(tick=192, channel=3, data=[76, 64]),\n",
      "   midi.NoteOnEvent(tick=0, channel=3, data=[74, 100]),\n",
      "   midi.NoteOffEvent(tick=192, channel=3, data=[74, 64]),\n",
      "   midi.NoteOnEvent(tick=0, channel=3, data=[78, 100]),\n",
      "   midi.NoteOffEvent(tick=192, channel=3, data=[78, 64]),\n",
      "   midi.NoteOnEvent(tick=0, channel=3, data=[74, 100]),\n",
      "   midi.NoteOffEvent(tick=192, channel=3, data=[74, 64]),\n",
      "   midi.NoteOnEvent(tick=0, channel=3, data=[69, 100]),\n",
      "   midi.NoteOffEvent(tick=192, channel=3, data=[69, 64]),\n",
      "   midi.NoteOnEvent(tick=768, channel=3, data=[69, 100]),\n",
      "   midi.NoteOffEvent(tick=96, channel=3, data=[69, 64]),\n",
      "   midi.NoteOnEvent(tick=0, channel=3, data=[71, 100]),\n",
      "   midi.NoteOffEvent(tick=96, channel=3, data=[71, 64]),\n",
      "   midi.NoteOnEvent(tick=0, channel=3, data=[72, 100]),\n",
      "   midi.NoteOffEvent(tick=96, channel=3, data=[72, 64]),\n",
      "   midi.NoteOnEvent(tick=96, channel=3, data=[72, 100]),\n",
      "   midi.NoteOffEvent(tick=96, channel=3, data=[72, 64]),\n",
      "   midi.NoteOnEvent(tick=96, channel=3, data=[72, 100]),\n",
      "   midi.NoteOffEvent(tick=96, channel=3, data=[72, 64]),\n",
      "   midi.NoteOnEvent(tick=96, channel=3, data=[72, 100]),\n",
      "   midi.NoteOffEvent(tick=192, channel=3, data=[72, 64]),\n",
      "   midi.NoteOnEvent(tick=2112, channel=3, data=[64, 100]),\n",
      "   midi.NoteOffEvent(tick=96, channel=3, data=[64, 64]),\n",
      "   midi.NoteOnEvent(tick=0, channel=3, data=[66, 100]),\n",
      "   midi.NoteOffEvent(tick=96, channel=3, data=[66, 64]),\n",
      "   midi.NoteOnEvent(tick=0, channel=3, data=[67, 100]),\n",
      "   midi.NoteOffEvent(tick=96, channel=3, data=[67, 64]),\n",
      "   midi.NoteOnEvent(tick=96, channel=3, data=[67, 100]),\n",
      "   midi.NoteOffEvent(tick=96, channel=3, data=[67, 64]),\n",
      "   midi.NoteOnEvent(tick=96, channel=3, data=[66, 100]),\n",
      "   midi.NoteOffEvent(tick=96, channel=3, data=[66, 64]),\n",
      "   midi.NoteOnEvent(tick=0, channel=3, data=[64, 100]),\n",
      "   midi.NoteOffEvent(tick=96, channel=3, data=[64, 64]),\n",
      "   midi.NoteOnEvent(tick=0, channel=3, data=[69, 100]),\n",
      "   midi.NoteOffEvent(tick=192, channel=3, data=[69, 64]),\n",
      "   midi.NoteOnEvent(tick=0, channel=3, data=[66, 100]),\n",
      "   midi.NoteOffEvent(tick=192, channel=3, data=[66, 64]),\n",
      "   midi.NoteOnEvent(tick=0, channel=3, data=[71, 100]),\n",
      "   midi.NoteOffEvent(tick=192, channel=3, data=[71, 64]),\n",
      "   midi.NoteOnEvent(tick=0, channel=3, data=[69, 100]),\n",
      "   midi.NoteOffEvent(tick=192, channel=3, data=[69, 64]),\n",
      "   midi.NoteOnEvent(tick=0, channel=3, data=[69, 100]),\n",
      "   midi.NoteOffEvent(tick=192, channel=3, data=[69, 64]),\n",
      "   midi.NoteOnEvent(tick=0, channel=3, data=[67, 100]),\n",
      "   midi.NoteOffEvent(tick=192, channel=3, data=[67, 64]),\n",
      "   midi.NoteOnEvent(tick=0, channel=3, data=[66, 100]),\n",
      "   midi.NoteOffEvent(tick=384, channel=3, data=[66, 64]),\n",
      "   midi.NoteOnEvent(tick=1344, channel=3, data=[65, 100]),\n",
      "   midi.NoteOffEvent(tick=96, channel=3, data=[65, 64]),\n",
      "   midi.NoteOnEvent(tick=0, channel=3, data=[67, 100]),\n",
      "   midi.NoteOffEvent(tick=96, channel=3, data=[67, 64]),\n",
      "   midi.NoteOnEvent(tick=0, channel=3, data=[69, 100]),\n",
      "   midi.NoteOffEvent(tick=192, channel=3, data=[69, 64]),\n",
      "   midi.NoteOnEvent(tick=0, channel=3, data=[74, 100]),\n",
      "   midi.NoteOffEvent(tick=192, channel=3, data=[74, 64]),\n",
      "   midi.NoteOnEvent(tick=0, channel=3, data=[74, 100]),\n",
      "   midi.NoteOffEvent(tick=192, channel=3, data=[74, 64]),\n",
      "   midi.NoteOnEvent(tick=0, channel=3, data=[69, 100]),\n",
      "   midi.NoteOffEvent(tick=192, channel=3, data=[69, 64]),\n",
      "   midi.NoteOnEvent(tick=0, channel=3, data=[69, 100]),\n",
      "   midi.NoteOffEvent(tick=192, channel=3, data=[69, 64]),\n",
      "   midi.NoteOnEvent(tick=0, channel=3, data=[78, 100]),\n",
      "   midi.NoteOffEvent(tick=192, channel=3, data=[78, 64]),\n",
      "   midi.NoteOnEvent(tick=0, channel=3, data=[74, 100]),\n",
      "   midi.NoteOffEvent(tick=192, channel=3, data=[74, 64]),\n",
      "   midi.NoteOnEvent(tick=0, channel=3, data=[69, 100]),\n",
      "   midi.NoteOffEvent(tick=192, channel=3, data=[69, 64]),\n",
      "   midi.NoteOnEvent(tick=192, channel=3, data=[66, 100]),\n",
      "   midi.NoteOffEvent(tick=192, channel=3, data=[66, 64]),\n",
      "   midi.NoteOnEvent(tick=0, channel=3, data=[69, 100]),\n",
      "   midi.NoteOffEvent(tick=192, channel=3, data=[69, 64]),\n",
      "   midi.NoteOnEvent(tick=0, channel=3, data=[74, 100]),\n",
      "   midi.NoteOffEvent(tick=192, channel=3, data=[74, 64]),\n",
      "   midi.NoteOnEvent(tick=192, channel=3, data=[71, 100]),\n",
      "   midi.NoteOffEvent(tick=192, channel=3, data=[71, 64]),\n",
      "   midi.NoteOnEvent(tick=0, channel=3, data=[74, 100]),\n",
      "   midi.NoteOffEvent(tick=192, channel=3, data=[74, 64]),\n",
      "   midi.NoteOnEvent(tick=0, channel=3, data=[78, 100]),\n",
      "   midi.NoteOffEvent(tick=192, channel=3, data=[78, 64]),\n",
      "   midi.NoteOnEvent(tick=192, channel=3, data=[67, 100]),\n",
      "   midi.NoteOffEvent(tick=192, channel=3, data=[67, 64]),\n",
      "   midi.NoteOnEvent(tick=0, channel=3, data=[71, 100]),\n",
      "   midi.NoteOffEvent(tick=192, channel=3, data=[71, 64]),\n",
      "   midi.NoteOnEvent(tick=0, channel=3, data=[76, 100]),\n",
      "   midi.NoteOffEvent(tick=192, channel=3, data=[76, 64]),\n",
      "   midi.NoteOnEvent(tick=192, channel=3, data=[79, 100]),\n",
      "   midi.NoteOffEvent(tick=192, channel=3, data=[79, 64]),\n",
      "   midi.NoteOnEvent(tick=0, channel=3, data=[76, 100]),\n",
      "   midi.NoteOffEvent(tick=192, channel=3, data=[76, 64]),\n",
      "   midi.NoteOnEvent(tick=0, channel=3, data=[73, 100]),\n",
      "   midi.NoteOffEvent(tick=192, channel=3, data=[73, 64]),\n",
      "   midi.NoteOnEvent(tick=1536, channel=3, data=[62, 100]),\n",
      "   midi.NoteOnEvent(tick=1536, channel=3, data=[71, 100]),\n",
      "   midi.NoteOnEvent(tick=0, channel=3, data=[71, 100]),\n",
      "   midi.NoteOffEvent(tick=4, channel=3, data=[62, 64]),\n",
      "   midi.NoteOffEvent(tick=92, channel=3, data=[71, 64]),\n",
      "   midi.NoteOffEvent(tick=0, channel=3, data=[71, 64]),\n",
      "   midi.NoteOnEvent(tick=0, channel=3, data=[72, 100]),\n",
      "   midi.NoteOnEvent(tick=0, channel=3, data=[72, 100]),\n",
      "   midi.NoteOffEvent(tick=96, channel=3, data=[72, 64]),\n",
      "   midi.NoteOffEvent(tick=0, channel=3, data=[72, 64]),\n",
      "   midi.NoteOnEvent(tick=0, channel=3, data=[71, 100]),\n",
      "   midi.NoteOnEvent(tick=0, channel=3, data=[71, 100]),\n",
      "   midi.NoteOffEvent(tick=96, channel=3, data=[71, 64]),\n",
      "   midi.NoteOffEvent(tick=0, channel=3, data=[71, 64]),\n",
      "   midi.NoteOnEvent(tick=96, channel=3, data=[71, 100]),\n",
      "   midi.NoteOnEvent(tick=0, channel=3, data=[71, 100]),\n",
      "   midi.NoteOffEvent(tick=96, channel=3, data=[71, 64]),\n",
      "   midi.NoteOffEvent(tick=0, channel=3, data=[71, 64]),\n",
      "   midi.NoteOnEvent(tick=96, channel=3, data=[71, 100]),\n",
      "   midi.NoteOnEvent(tick=0, channel=3, data=[71, 100]),\n",
      "   midi.NoteOffEvent(tick=96, channel=3, data=[71, 64]),\n",
      "   midi.NoteOffEvent(tick=0, channel=3, data=[71, 64]),\n",
      "   midi.NoteOnEvent(tick=96, channel=3, data=[71, 100]),\n",
      "   midi.NoteOffEvent(tick=192, channel=3, data=[71, 64]),\n",
      "   midi.NoteOnEvent(tick=0, channel=3, data=[71, 100]),\n",
      "   midi.NoteOffEvent(tick=384, channel=3, data=[71, 64]),\n",
      "   midi.NoteOnEvent(tick=0, channel=3, data=[69, 100]),\n",
      "   midi.NoteOffEvent(tick=96, channel=3, data=[69, 64]),\n",
      "   midi.NoteOnEvent(tick=0, channel=3, data=[67, 100]),\n",
      "   midi.NoteOffEvent(tick=96, channel=3, data=[67, 64]),\n",
      "   midi.NoteOnEvent(tick=0, channel=3, data=[69, 100]),\n",
      "   midi.NoteOnEvent(tick=0, channel=3, data=[69, 100]),\n",
      "   midi.NoteOffEvent(tick=96, channel=3, data=[69, 64]),\n",
      "   midi.NoteOffEvent(tick=0, channel=3, data=[69, 64]),\n",
      "   midi.NoteOnEvent(tick=0, channel=3, data=[71, 100]),\n",
      "   midi.NoteOnEvent(tick=0, channel=3, data=[71, 100]),\n",
      "   midi.NoteOffEvent(tick=96, channel=3, data=[71, 64]),\n",
      "   midi.NoteOffEvent(tick=0, channel=3, data=[71, 64]),\n",
      "   midi.NoteOnEvent(tick=0, channel=3, data=[69, 100]),\n",
      "   midi.NoteOnEvent(tick=0, channel=3, data=[69, 100]),\n",
      "   midi.NoteOffEvent(tick=96, channel=3, data=[69, 64]),\n",
      "   midi.NoteOffEvent(tick=0, channel=3, data=[69, 64]),\n",
      "   midi.NoteOnEvent(tick=96, channel=3, data=[69, 100]),\n",
      "   midi.NoteOnEvent(tick=0, channel=3, data=[69, 100]),\n",
      "   midi.NoteOffEvent(tick=96, channel=3, data=[69, 64]),\n",
      "   midi.NoteOffEvent(tick=0, channel=3, data=[69, 64]),\n",
      "   midi.NoteOnEvent(tick=96, channel=3, data=[69, 100]),\n",
      "   midi.NoteOnEvent(tick=0, channel=3, data=[69, 100]),\n",
      "   midi.NoteOffEvent(tick=96, channel=3, data=[69, 64]),\n",
      "   midi.NoteOffEvent(tick=0, channel=3, data=[69, 64]),\n",
      "   midi.NoteOnEvent(tick=96, channel=3, data=[69, 100]),\n",
      "   midi.NoteOffEvent(tick=192, channel=3, data=[69, 64]),\n",
      "   midi.NoteOnEvent(tick=0, channel=3, data=[69, 100]),\n",
      "   midi.NoteOffEvent(tick=384, channel=3, data=[69, 64]),\n",
      "   midi.NoteOnEvent(tick=0, channel=3, data=[67, 100]),\n",
      "   midi.NoteOffEvent(tick=96, channel=3, data=[67, 64]),\n",
      "   midi.NoteOnEvent(tick=0, channel=3, data=[66, 100]),\n",
      "   midi.NoteOffEvent(tick=96, channel=3, data=[66, 64]),\n",
      "   midi.NoteOnEvent(tick=0, channel=3, data=[67, 100]),\n",
      "   midi.NoteOnEvent(tick=0, channel=3, data=[67, 100]),\n",
      "   midi.NoteOffEvent(tick=96, channel=3, data=[67, 64]),\n",
      "   midi.NoteOffEvent(tick=0, channel=3, data=[67, 64]),\n",
      "   midi.NoteOnEvent(tick=0, channel=3, data=[69, 100]),\n",
      "   midi.NoteOnEvent(tick=0, channel=3, data=[69, 100]),\n",
      "   midi.NoteOffEvent(tick=96, channel=3, data=[69, 64]),\n",
      "   midi.NoteOffEvent(tick=0, channel=3, data=[69, 64]),\n",
      "   midi.NoteOnEvent(tick=0, channel=3, data=[67, 100]),\n",
      "   midi.NoteOnEvent(tick=0, channel=3, data=[67, 100]),\n",
      "   midi.NoteOffEvent(tick=96, channel=3, data=[67, 64]),\n",
      "   midi.NoteOffEvent(tick=0, channel=3, data=[67, 64]),\n",
      "   midi.NoteOnEvent(tick=96, channel=3, data=[67, 100]),\n",
      "   midi.NoteOnEvent(tick=0, channel=3, data=[67, 100]),\n",
      "   midi.NoteOffEvent(tick=96, channel=3, data=[67, 64]),\n",
      "   midi.NoteOffEvent(tick=0, channel=3, data=[67, 64]),\n",
      "   midi.NoteOnEvent(tick=96, channel=3, data=[67, 100]),\n",
      "   midi.NoteOnEvent(tick=0, channel=3, data=[67, 100]),\n",
      "   midi.NoteOffEvent(tick=96, channel=3, data=[67, 64]),\n",
      "   midi.NoteOffEvent(tick=0, channel=3, data=[67, 64]),\n",
      "   midi.NoteOnEvent(tick=96, channel=3, data=[79, 100]),\n",
      "   midi.NoteOffEvent(tick=512, channel=3, data=[79, 64]),\n",
      "   midi.NoteOnEvent(tick=64, channel=3, data=[74, 100]),\n",
      "   midi.NoteOffEvent(tick=96, channel=3, data=[74, 64]),\n",
      "   midi.NoteOnEvent(tick=0, channel=3, data=[73, 100]),\n",
      "   midi.NoteOffEvent(tick=96, channel=3, data=[73, 64]),\n",
      "   midi.NoteOnEvent(tick=0, channel=3, data=[81, 100]),\n",
      "   midi.NoteOffEvent(tick=192, channel=3, data=[81, 64]),\n",
      "   midi.NoteOnEvent(tick=0, channel=3, data=[79, 100]),\n",
      "   midi.NoteOffEvent(tick=96, channel=3, data=[79, 64]),\n",
      "   midi.NoteOnEvent(tick=0, channel=3, data=[78, 100]),\n",
      "   midi.NoteOffEvent(tick=96, channel=3, data=[78, 64]),\n",
      "   midi.NoteOnEvent(tick=0, channel=3, data=[79, 100]),\n",
      "   midi.NoteOffEvent(tick=96, channel=3, data=[79, 64]),\n",
      "   midi.NoteOnEvent(tick=0, channel=3, data=[78, 100]),\n",
      "   midi.NoteOffEvent(tick=96, channel=3, data=[78, 64]),\n",
      "   midi.NoteOnEvent(tick=0, channel=3, data=[76, 100]),\n",
      "   midi.NoteOffEvent(tick=96, channel=3, data=[76, 64]),\n",
      "   midi.NoteOnEvent(tick=0, channel=3, data=[78, 100]),\n",
      "   midi.NoteOffEvent(tick=96, channel=3, data=[78, 64]),\n",
      "   midi.NoteOnEvent(tick=0, channel=3, data=[74, 100]),\n",
      "   midi.NoteOffEvent(tick=192, channel=3, data=[74, 64]),\n",
      "   midi.NoteOnEvent(tick=1920, channel=3, data=[69, 100]),\n",
      "   midi.NoteOffEvent(tick=192, channel=3, data=[69, 64]),\n",
      "   midi.NoteOnEvent(tick=0, channel=3, data=[69, 100]),\n",
      "   midi.NoteOffEvent(tick=192, channel=3, data=[69, 64]),\n",
      "   midi.NoteOnEvent(tick=0, channel=3, data=[74, 100]),\n",
      "   midi.NoteOffEvent(tick=384, channel=3, data=[74, 64]),\n",
      "   midi.NoteOnEvent(tick=0, channel=3, data=[73, 100]),\n",
      "   midi.NoteOffEvent(tick=192, channel=3, data=[73, 64]),\n",
      "   midi.NoteOnEvent(tick=0, channel=3, data=[74, 100]),\n",
      "   midi.NoteOffEvent(tick=192, channel=3, data=[74, 64]),\n",
      "   midi.NoteOnEvent(tick=0, channel=3, data=[73, 100]),\n",
      "   midi.NoteOffEvent(tick=192, channel=3, data=[73, 64]),\n",
      "   midi.NoteOnEvent(tick=0, channel=3, data=[74, 100]),\n",
      "   midi.NoteOffEvent(tick=192, channel=3, data=[74, 64]),\n",
      "   midi.NoteOnEvent(tick=1536, channel=3, data=[81, 100]),\n",
      "   midi.NoteOffEvent(tick=192, channel=3, data=[81, 64]),\n",
      "   midi.NoteOnEvent(tick=0, channel=3, data=[74, 100]),\n",
      "   midi.NoteOffEvent(tick=192, channel=3, data=[74, 64]),\n",
      "   midi.NoteOnEvent(tick=0, channel=3, data=[79, 100]),\n",
      "   midi.NoteOffEvent(tick=384, channel=3, data=[79, 64]),\n",
      "   midi.NoteOnEvent(tick=0, channel=3, data=[78, 100]),\n",
      "   midi.NoteOffEvent(tick=192, channel=3, data=[78, 64]),\n",
      "   midi.NoteOnEvent(tick=0, channel=3, data=[79, 100]),\n",
      "   midi.NoteOffEvent(tick=192, channel=3, data=[79, 64]),\n",
      "   midi.NoteOnEvent(tick=0, channel=3, data=[78, 100]),\n",
      "   midi.NoteOffEvent(tick=192, channel=3, data=[78, 64]),\n",
      "   midi.NoteOnEvent(tick=0, channel=3, data=[79, 100]),\n",
      "   midi.NoteOffEvent(tick=192, channel=3, data=[79, 64]),\n",
      "   midi.NoteOnEvent(tick=192, channel=3, data=[64, 100]),\n",
      "   midi.NoteOnEvent(tick=0, channel=3, data=[64, 100]),\n",
      "   midi.NoteOffEvent(tick=96, channel=3, data=[64, 64]),\n",
      "   midi.NoteOffEvent(tick=0, channel=3, data=[64, 64]),\n",
      "   midi.NoteOnEvent(tick=0, channel=3, data=[66, 100]),\n",
      "   midi.NoteOnEvent(tick=0, channel=3, data=[66, 100]),\n",
      "   midi.NoteOffEvent(tick=96, channel=3, data=[66, 64]),\n",
      "   midi.NoteOffEvent(tick=0, channel=3, data=[66, 64]),\n",
      "   midi.NoteOnEvent(tick=0, channel=3, data=[64, 100]),\n",
      "   midi.NoteOnEvent(tick=0, channel=3, data=[64, 100]),\n",
      "   midi.NoteOffEvent(tick=96, channel=3, data=[64, 64]),\n",
      "   midi.NoteOffEvent(tick=0, channel=3, data=[64, 64]),\n",
      "   midi.NoteOnEvent(tick=96, channel=3, data=[64, 100]),\n",
      "   midi.NoteOnEvent(tick=0, channel=3, data=[64, 100]),\n",
      "   midi.NoteOffEvent(tick=96, channel=3, data=[64, 64]),\n",
      "   midi.NoteOffEvent(tick=0, channel=3, data=[64, 64]),\n",
      "   midi.NoteOnEvent(tick=96, channel=3, data=[64, 100]),\n",
      "   midi.NoteOnEvent(tick=0, channel=3, data=[64, 100]),\n",
      "   midi.NoteOffEvent(tick=96, channel=3, data=[64, 64]),\n",
      "   midi.NoteOffEvent(tick=0, channel=3, data=[64, 64]),\n",
      "   midi.NoteOnEvent(tick=96, channel=3, data=[73, 100]),\n",
      "   midi.NoteOnEvent(tick=0, channel=3, data=[73, 100]),\n",
      "   midi.NoteOffEvent(tick=192, channel=3, data=[73, 64]),\n",
      "   midi.NoteOffEvent(tick=0, channel=3, data=[73, 64]),\n",
      "   midi.NoteOnEvent(tick=576, channel=3, data=[67, 100]),\n",
      "   midi.NoteOnEvent(tick=0, channel=3, data=[67, 100]),\n",
      "   midi.NoteOffEvent(tick=96, channel=3, data=[67, 64]),\n",
      "   midi.NoteOffEvent(tick=0, channel=3, data=[67, 64]),\n",
      "   midi.NoteOnEvent(tick=0, channel=3, data=[69, 100]),\n",
      "   midi.NoteOnEvent(tick=0, channel=3, data=[69, 100]),\n",
      "   midi.NoteOffEvent(tick=96, channel=3, data=[69, 64]),\n",
      "   midi.NoteOffEvent(tick=0, channel=3, data=[69, 64]),\n",
      "   midi.NoteOnEvent(tick=0, channel=3, data=[67, 100]),\n",
      "   midi.NoteOnEvent(tick=0, channel=3, data=[67, 100]),\n",
      "   midi.NoteOffEvent(tick=96, channel=3, data=[67, 64]),\n",
      "   midi.NoteOffEvent(tick=0, channel=3, data=[67, 64]),\n",
      "   midi.NoteOnEvent(tick=96, channel=3, data=[67, 100]),\n",
      "   midi.NoteOnEvent(tick=0, channel=3, data=[67, 100]),\n",
      "   midi.NoteOffEvent(tick=96, channel=3, data=[67, 64]),\n",
      "   midi.NoteOffEvent(tick=0, channel=3, data=[67, 64]),\n",
      "   midi.NoteOnEvent(tick=96, channel=3, data=[67, 100]),\n",
      "   midi.NoteOnEvent(tick=0, channel=3, data=[67, 100]),\n",
      "   midi.NoteOffEvent(tick=96, channel=3, data=[67, 64]),\n",
      "   midi.NoteOffEvent(tick=0, channel=3, data=[67, 64]),\n",
      "   midi.NoteOnEvent(tick=96, channel=3, data=[76, 100]),\n",
      "   midi.NoteOnEvent(tick=0, channel=3, data=[76, 100]),\n",
      "   midi.NoteOffEvent(tick=192, channel=3, data=[76, 64]),\n",
      "   midi.NoteOffEvent(tick=0, channel=3, data=[76, 64]),\n",
      "   midi.NoteOnEvent(tick=576, channel=3, data=[78, 100]),\n",
      "   midi.NoteOffEvent(tick=512, channel=3, data=[78, 64]),\n",
      "   midi.NoteOnEvent(tick=64, channel=3, data=[66, 100]),\n",
      "   midi.NoteOffEvent(tick=192, channel=3, data=[66, 64]),\n",
      "   midi.NoteOnEvent(tick=0, channel=3, data=[67, 100]),\n",
      "   midi.NoteOffEvent(tick=384, channel=3, data=[67, 64]),\n",
      "   midi.NoteOnEvent(tick=0, channel=3, data=[64, 100]),\n",
      "   midi.NoteOffEvent(tick=384, channel=3, data=[64, 64]),\n",
      "   midi.NoteOnEvent(tick=0, channel=3, data=[67, 100]),\n",
      "   midi.NoteOffEvent(tick=384, channel=3, data=[67, 64]),\n",
      "   midi.NoteOnEvent(tick=0, channel=3, data=[64, 100]),\n",
      "   midi.NoteOffEvent(tick=384, channel=3, data=[64, 64]),\n",
      "   midi.NoteOnEvent(tick=0, channel=3, data=[66, 100]),\n",
      "   midi.NoteOffEvent(tick=192, channel=3, data=[66, 64]),\n",
      "   midi.NoteOnEvent(tick=0, channel=3, data=[78, 100]),\n",
      "   midi.NoteOffEvent(tick=192, channel=3, data=[78, 64]),\n",
      "   midi.NoteOnEvent(tick=0, channel=3, data=[74, 100]),\n",
      "   midi.NoteOffEvent(tick=192, channel=3, data=[74, 64]),\n",
      "   midi.NoteOnEvent(tick=0, channel=3, data=[69, 100]),\n",
      "   midi.NoteOffEvent(tick=192, channel=3, data=[69, 64]),\n",
      "   midi.NoteOnEvent(tick=0, channel=3, data=[66, 100]),\n",
      "   midi.NoteOffEvent(tick=192, channel=3, data=[66, 64]),\n",
      "   midi.NoteOnEvent(tick=1152, channel=3, data=[66, 100]),\n",
      "   midi.NoteOffEvent(tick=96, channel=3, data=[66, 64]),\n",
      "   midi.NoteOnEvent(tick=0, channel=3, data=[67, 100]),\n",
      "   midi.NoteOffEvent(tick=96, channel=3, data=[67, 64]),\n",
      "   midi.NoteOnEvent(tick=0, channel=3, data=[69, 100]),\n",
      "   midi.NoteOffEvent(tick=192, channel=3, data=[69, 64]),\n",
      "   midi.NoteOnEvent(tick=0, channel=3, data=[74, 100]),\n",
      "   midi.NoteOffEvent(tick=192, channel=3, data=[74, 64]),\n",
      "   midi.NoteOnEvent(tick=0, channel=3, data=[71, 100]),\n",
      "   midi.NoteOffEvent(tick=192, channel=3, data=[71, 64]),\n",
      "   midi.NoteOnEvent(tick=0, channel=3, data=[76, 100]),\n",
      "   midi.NoteOffEvent(tick=192, channel=3, data=[76, 64]),\n",
      "   midi.NoteOnEvent(tick=0, channel=3, data=[74, 100]),\n",
      "   midi.NoteOffEvent(tick=192, channel=3, data=[74, 64]),\n",
      "   midi.NoteOnEvent(tick=0, channel=3, data=[78, 100]),\n",
      "   midi.NoteOffEvent(tick=192, channel=3, data=[78, 64]),\n",
      "   midi.NoteOnEvent(tick=0, channel=3, data=[74, 100]),\n",
      "   midi.NoteOffEvent(tick=192, channel=3, data=[74, 64]),\n",
      "   midi.NoteOnEvent(tick=0, channel=3, data=[69, 100]),\n",
      "   midi.NoteOffEvent(tick=192, channel=3, data=[69, 64]),\n",
      "   midi.NoteOnEvent(tick=1344, channel=3, data=[66, 100]),\n",
      "   midi.NoteOffEvent(tick=96, channel=3, data=[66, 64]),\n",
      "   midi.NoteOnEvent(tick=0, channel=3, data=[67, 100]),\n",
      "   midi.NoteOffEvent(tick=96, channel=3, data=[67, 64]),\n",
      "   midi.NoteOnEvent(tick=0, channel=3, data=[69, 100]),\n",
      "   midi.NoteOffEvent(tick=192, channel=3, data=[69, 64]),\n",
      "   midi.NoteOnEvent(tick=0, channel=3, data=[74, 100]),\n",
      "   midi.NoteOffEvent(tick=192, channel=3, data=[74, 64]),\n",
      "   midi.NoteOnEvent(tick=0, channel=3, data=[71, 100]),\n",
      "   midi.NoteOffEvent(tick=192, channel=3, data=[71, 64]),\n",
      "   midi.NoteOnEvent(tick=0, channel=3, data=[76, 100]),\n",
      "   midi.NoteOffEvent(tick=192, channel=3, data=[76, 64]),\n",
      "   midi.NoteOnEvent(tick=0, channel=3, data=[74, 100]),\n",
      "   midi.NoteOffEvent(tick=192, channel=3, data=[74, 64]),\n",
      "   midi.NoteOnEvent(tick=0, channel=3, data=[78, 100]),\n",
      "   midi.NoteOffEvent(tick=192, channel=3, data=[78, 64]),\n",
      "   midi.NoteOnEvent(tick=0, channel=3, data=[74, 100]),\n",
      "   midi.NoteOffEvent(tick=192, channel=3, data=[74, 64]),\n",
      "   midi.NoteOnEvent(tick=0, channel=3, data=[69, 100]),\n",
      "   midi.NoteOffEvent(tick=192, channel=3, data=[69, 64]),\n",
      "   midi.NoteOnEvent(tick=960, channel=3, data=[78, 100]),\n",
      "   midi.NoteOffEvent(tick=384, channel=3, data=[78, 64]),\n",
      "   midi.NoteOnEvent(tick=0, channel=3, data=[76, 100]),\n",
      "   midi.NoteOffEvent(tick=96, channel=3, data=[76, 64]),\n",
      "   midi.NoteOnEvent(tick=0, channel=3, data=[74, 100]),\n",
      "   midi.NoteOffEvent(tick=96, channel=3, data=[74, 64]),\n",
      "   midi.NoteOnEvent(tick=0, channel=3, data=[76, 100]),\n",
      "   midi.NoteOffEvent(tick=192, channel=3, data=[76, 64]),\n",
      "   midi.NoteOnEvent(tick=768, channel=3, data=[76, 100]),\n",
      "   midi.NoteOffEvent(tick=384, channel=3, data=[76, 64]),\n",
      "   midi.NoteOnEvent(tick=0, channel=3, data=[74, 100]),\n",
      "   midi.NoteOffEvent(tick=96, channel=3, data=[74, 64]),\n",
      "   midi.NoteOnEvent(tick=0, channel=3, data=[73, 100]),\n",
      "   midi.NoteOffEvent(tick=96, channel=3, data=[73, 64]),\n",
      "   midi.NoteOnEvent(tick=0, channel=3, data=[74, 100]),\n",
      "   midi.NoteOffEvent(tick=192, channel=3, data=[74, 64]),\n",
      "   midi.NoteOnEvent(tick=0, channel=3, data=[74, 100]),\n",
      "   midi.NoteOffEvent(tick=192, channel=3, data=[74, 64]),\n",
      "   midi.NoteOnEvent(tick=0, channel=3, data=[76, 100]),\n",
      "   midi.NoteOffEvent(tick=192, channel=3, data=[76, 64]),\n",
      "   midi.NoteOnEvent(tick=0, channel=3, data=[78, 100]),\n",
      "   midi.NoteOffEvent(tick=192, channel=3, data=[78, 64]),\n",
      "   midi.NoteOnEvent(tick=0, channel=3, data=[76, 100]),\n",
      "   midi.NoteOffEvent(tick=192, channel=3, data=[76, 64]),\n",
      "   midi.NoteOnEvent(tick=0, channel=3, data=[68, 100]),\n",
      "   midi.NoteOffEvent(tick=96, channel=3, data=[68, 64]),\n",
      "   midi.NoteOnEvent(tick=0, channel=3, data=[69, 100]),\n",
      "   midi.NoteOffEvent(tick=96, channel=3, data=[69, 64]),\n",
      "   midi.NoteOnEvent(tick=0, channel=3, data=[71, 100]),\n",
      "   midi.NoteOffEvent(tick=96, channel=3, data=[71, 64]),\n",
      "   midi.NoteOnEvent(tick=0, channel=3, data=[73, 100]),\n",
      "   midi.NoteOffEvent(tick=96, channel=3, data=[73, 64]),\n",
      "   midi.NoteOnEvent(tick=0, channel=3, data=[74, 100]),\n",
      "   midi.NoteOffEvent(tick=96, channel=3, data=[74, 64]),\n",
      "   midi.NoteOnEvent(tick=0, channel=3, data=[76, 100]),\n",
      "   midi.NoteOffEvent(tick=96, channel=3, data=[76, 64]),\n",
      "   midi.NoteOnEvent(tick=0, channel=3, data=[73, 100]),\n",
      "   midi.NoteOffEvent(tick=192, channel=3, data=[73, 64]),\n",
      "   midi.NoteOnEvent(tick=0, channel=3, data=[76, 100]),\n",
      "   midi.NoteOffEvent(tick=192, channel=3, data=[76, 64]),\n",
      "   midi.NoteOnEvent(tick=0, channel=3, data=[64, 100]),\n",
      "   midi.NoteOffEvent(tick=192, channel=3, data=[64, 64]),\n",
      "   midi.NoteOnEvent(tick=0, channel=3, data=[74, 100]),\n",
      "   midi.NoteOffEvent(tick=192, channel=3, data=[74, 64]),\n",
      "   midi.NoteOnEvent(tick=0, channel=3, data=[73, 100]),\n",
      "   midi.NoteOffEvent(tick=768, channel=3, data=[73, 64]),\n",
      "   midi.EndOfTrackEvent(tick=0, data=[])]),\n",
      " midi.Track(\\\n",
      "  [midi.TrackNameEvent(tick=0, text='Violino I', data=[86, 105, 111, 108, 105, 110, 111, 32, 73]),\n",
      "   midi.ControlChangeEvent(tick=0, channel=4, data=[0, 0]),\n",
      "   midi.ProgramChangeEvent(tick=0, channel=4, data=[48]),\n",
      "   midi.ControlChangeEvent(tick=0, channel=4, data=[7, 100]),\n",
      "   midi.ControlChangeEvent(tick=0, channel=4, data=[10, 61]),\n",
      "   midi.ControlChangeEvent(tick=0, channel=4, data=[91, 127]),\n",
      "   midi.ControlChangeEvent(tick=0, channel=4, data=[93, 127]),\n",
      "   midi.KeySignatureEvent(tick=0, data=[2, 0]),\n",
      "   midi.NoteOnEvent(tick=768, channel=4, data=[62, 100]),\n",
      "   midi.NoteOffEvent(tick=192, channel=4, data=[62, 64]),\n",
      "   midi.NoteOnEvent(tick=0, channel=4, data=[74, 100]),\n",
      "   midi.NoteOffEvent(tick=192, channel=4, data=[74, 64]),\n",
      "   midi.NoteOnEvent(tick=0, channel=4, data=[73, 100]),\n",
      "   midi.NoteOffEvent(tick=192, channel=4, data=[73, 64]),\n",
      "   midi.NoteOnEvent(tick=0, channel=4, data=[69, 100]),\n",
      "   midi.NoteOffEvent(tick=192, channel=4, data=[69, 64]),\n",
      "   midi.NoteOnEvent(tick=0, channel=4, data=[74, 100]),\n",
      "   midi.NoteOffEvent(tick=192, channel=4, data=[74, 64]),\n",
      "   midi.NoteOnEvent(tick=0, channel=4, data=[73, 100]),\n",
      "   midi.NoteOffEvent(tick=96, channel=4, data=[73, 64]),\n",
      "   midi.NoteOnEvent(tick=0, channel=4, data=[71, 100]),\n",
      "   midi.NoteOffEvent(tick=96, channel=4, data=[71, 64]),\n",
      "   midi.NoteOnEvent(tick=0, channel=4, data=[69, 100]),\n",
      "   midi.NoteOffEvent(tick=96, channel=4, data=[69, 64]),\n",
      "   midi.NoteOnEvent(tick=0, channel=4, data=[67, 100]),\n",
      "   midi.NoteOffEvent(tick=96, channel=4, data=[67, 64]),\n",
      "   midi.NoteOnEvent(tick=0, channel=4, data=[66, 100]),\n",
      "   midi.NoteOffEvent(tick=96, channel=4, data=[66, 64]),\n",
      "   midi.NoteOnEvent(tick=0, channel=4, data=[64, 100]),\n",
      "   midi.NoteOffEvent(tick=96, channel=4, data=[64, 64]),\n",
      "   midi.NoteOnEvent(tick=0, channel=4, data=[62, 100]),\n",
      "   midi.NoteOffEvent(tick=192, channel=4, data=[62, 64]),\n",
      "   midi.NoteOnEvent(tick=0, channel=4, data=[86, 100]),\n",
      "   midi.NoteOffEvent(tick=192, channel=4, data=[86, 64]),\n",
      "   midi.NoteOnEvent(tick=0, channel=4, data=[76, 100]),\n",
      "   midi.NoteOffEvent(tick=192, channel=4, data=[76, 64]),\n",
      "   midi.NoteOnEvent(tick=0, channel=4, data=[85, 100]),\n",
      "   midi.NoteOffEvent(tick=192, channel=4, data=[85, 64]),\n",
      "   midi.NoteOnEvent(tick=0, channel=4, data=[86, 100]),\n",
      "   midi.NoteOffEvent(tick=96, channel=4, data=[86, 64]),\n",
      "   midi.NoteOnEvent(tick=0, channel=4, data=[74, 100]),\n",
      "   midi.NoteOffEvent(tick=96, channel=4, data=[74, 64]),\n",
      "   midi.NoteOnEvent(tick=0, channel=4, data=[73, 100]),\n",
      "   midi.NoteOffEvent(tick=96, channel=4, data=[73, 64]),\n",
      "   midi.NoteOnEvent(tick=0, channel=4, data=[71, 100]),\n",
      "   midi.NoteOffEvent(tick=96, channel=4, data=[71, 64]),\n",
      "   midi.NoteOnEvent(tick=0, channel=4, data=[69, 100]),\n",
      "   midi.NoteOffEvent(tick=96, channel=4, data=[69, 64]),\n",
      "   midi.NoteOnEvent(tick=0, channel=4, data=[67, 100]),\n",
      "   midi.NoteOffEvent(tick=96, channel=4, data=[67, 64]),\n",
      "   midi.NoteOnEvent(tick=0, channel=4, data=[66, 100]),\n",
      "   midi.NoteOffEvent(tick=96, channel=4, data=[66, 64]),\n",
      "   midi.NoteOnEvent(tick=0, channel=4, data=[64, 100]),\n",
      "   midi.NoteOffEvent(tick=96, channel=4, data=[64, 64]),\n",
      "   midi.NoteOnEvent(tick=0, channel=4, data=[62, 100]),\n",
      "   midi.NoteOffEvent(tick=192, channel=4, data=[62, 64]),\n",
      "   midi.NoteOnEvent(tick=0, channel=4, data=[74, 100]),\n",
      "   midi.NoteOffEvent(tick=192, channel=4, data=[74, 64]),\n",
      "   midi.NoteOnEvent(tick=0, channel=4, data=[73, 100]),\n",
      "   midi.NoteOffEvent(tick=192, channel=4, data=[73, 64]),\n",
      "   midi.NoteOnEvent(tick=0, channel=4, data=[69, 100]),\n",
      "   midi.NoteOffEvent(tick=192, channel=4, data=[69, 64]),\n",
      "   midi.NoteOnEvent(tick=0, channel=4, data=[74, 100]),\n",
      "   midi.NoteOffEvent(tick=192, channel=4, data=[74, 64]),\n",
      "   midi.NoteOnEvent(tick=0, channel=4, data=[73, 100]),\n",
      "   midi.NoteOffEvent(tick=96, channel=4, data=[73, 64]),\n",
      "   midi.NoteOnEvent(tick=0, channel=4, data=[71, 100]),\n",
      "   midi.NoteOffEvent(tick=96, channel=4, data=[71, 64]),\n",
      "   midi.NoteOnEvent(tick=0, channel=4, data=[69, 100]),\n",
      "   midi.NoteOffEvent(tick=96, channel=4, data=[69, 64]),\n",
      "   midi.NoteOnEvent(tick=0, channel=4, data=[67, 100]),\n",
      "   midi.NoteOffEvent(tick=96, channel=4, data=[67, 64]),\n",
      "   midi.NoteOnEvent(tick=0, channel=4, data=[66, 100]),\n",
      "   midi.NoteOffEvent(tick=96, channel=4, data=[66, 64]),\n",
      "   midi.NoteOnEvent(tick=0, channel=4, data=[64, 100]),\n",
      "   midi.NoteOffEvent(tick=96, channel=4, data=[64, 64]),\n",
      "   midi.NoteOnEvent(tick=0, channel=4, data=[62, 100]),\n",
      "   midi.NoteOffEvent(tick=192, channel=4, data=[62, 64]),\n",
      "   midi.NoteOnEvent(tick=0, channel=4, data=[86, 100]),\n",
      "   midi.NoteOffEvent(tick=192, channel=4, data=[86, 64]),\n",
      "   midi.NoteOnEvent(tick=0, channel=4, data=[76, 100]),\n",
      "   midi.NoteOffEvent(tick=192, channel=4, data=[76, 64]),\n",
      "   midi.NoteOnEvent(tick=0, channel=4, data=[85, 100]),\n",
      "   midi.NoteOffEvent(tick=192, channel=4, data=[85, 64]),\n",
      "   midi.NoteOnEvent(tick=0, channel=4, data=[86, 100]),\n",
      "   midi.NoteOffEvent(tick=96, channel=4, data=[86, 64]),\n",
      "   midi.NoteOnEvent(tick=0, channel=4, data=[74, 100]),\n",
      "   midi.NoteOffEvent(tick=96, channel=4, data=[74, 64]),\n",
      "   midi.NoteOnEvent(tick=0, channel=4, data=[73, 100]),\n",
      "   midi.NoteOffEvent(tick=96, channel=4, data=[73, 64]),\n",
      "   midi.NoteOnEvent(tick=0, channel=4, data=[71, 100]),\n",
      "   midi.NoteOffEvent(tick=96, channel=4, data=[71, 64]),\n",
      "   midi.NoteOnEvent(tick=0, channel=4, data=[69, 100]),\n",
      "   midi.NoteOffEvent(tick=96, channel=4, data=[69, 64]),\n",
      "   midi.NoteOnEvent(tick=0, channel=4, data=[67, 100]),\n",
      "   midi.NoteOffEvent(tick=96, channel=4, data=[67, 64]),\n",
      "   midi.NoteOnEvent(tick=0, channel=4, data=[66, 100]),\n",
      "   midi.NoteOffEvent(tick=96, channel=4, data=[66, 64]),\n",
      "   midi.NoteOnEvent(tick=0, channel=4, data=[64, 100]),\n",
      "   midi.NoteOffEvent(tick=96, channel=4, data=[64, 64]),\n",
      "   midi.NoteOnEvent(tick=0, channel=4, data=[62, 100]),\n",
      "   midi.NoteOffEvent(tick=192, channel=4, data=[62, 64]),\n",
      "   midi.NoteOnEvent(tick=0, channel=4, data=[74, 100]),\n",
      "   midi.NoteOffEvent(tick=192, channel=4, data=[74, 64]),\n",
      "   midi.NoteOnEvent(tick=0, channel=4, data=[71, 100]),\n",
      "   midi.NoteOffEvent(tick=192, channel=4, data=[71, 64]),\n",
      "   midi.NoteOnEvent(tick=0, channel=4, data=[66, 100]),\n",
      "   midi.NoteOffEvent(tick=192, channel=4, data=[66, 64]),\n",
      "   midi.NoteOnEvent(tick=0, channel=4, data=[68, 100]),\n",
      "   midi.NoteOffEvent(tick=192, channel=4, data=[68, 64]),\n",
      "   midi.NoteOnEvent(tick=0, channel=4, data=[83, 100]),\n",
      "   midi.NoteOffEvent(tick=96, channel=4, data=[83, 64]),\n",
      "   midi.NoteOnEvent(tick=0, channel=4, data=[81, 100]),\n",
      "   midi.NoteOffEvent(tick=96, channel=4, data=[81, 64]),\n",
      "   midi.NoteOnEvent(tick=0, channel=4, data=[83, 100]),\n",
      "   midi.NoteOffEvent(tick=96, channel=4, data=[83, 64]),\n",
      "   midi.NoteOnEvent(tick=0, channel=4, data=[81, 100]),\n",
      "   midi.NoteOffEvent(tick=96, channel=4, data=[81, 64]),\n",
      "   midi.NoteOnEvent(tick=0, channel=4, data=[80, 100]),\n",
      "   midi.NoteOffEvent(tick=96, channel=4, data=[80, 64]),\n",
      "   midi.NoteOnEvent(tick=0, channel=4, data=[78, 100]),\n",
      "   midi.NoteOffEvent(tick=96, channel=4, data=[78, 64]),\n",
      "   midi.NoteOnEvent(tick=0, channel=4, data=[76, 100]),\n",
      "   midi.NoteOffEvent(tick=192, channel=4, data=[76, 64]),\n",
      "   midi.NoteOnEvent(tick=0, channel=4, data=[73, 100]),\n",
      "   midi.NoteOffEvent(tick=192, channel=4, data=[73, 64]),\n",
      "   midi.NoteOnEvent(tick=0, channel=4, data=[69, 100]),\n",
      "   midi.NoteOffEvent(tick=192, channel=4, data=[69, 64]),\n",
      "   midi.NoteOnEvent(tick=0, channel=4, data=[64, 100]),\n",
      "   midi.NoteOffEvent(tick=192, channel=4, data=[64, 64]),\n",
      "   midi.NoteOnEvent(tick=0, channel=4, data=[69, 100]),\n",
      "   midi.NoteOffEvent(tick=192, channel=4, data=[69, 64]),\n",
      "   midi.NoteOnEvent(tick=0, channel=4, data=[81, 100]),\n",
      "   midi.NoteOffEvent(tick=96, channel=4, data=[81, 64]),\n",
      "   midi.NoteOnEvent(tick=0, channel=4, data=[80, 100]),\n",
      "   midi.NoteOffEvent(tick=96, channel=4, data=[80, 64]),\n",
      "   midi.NoteOnEvent(tick=0, channel=4, data=[81, 100]),\n",
      "   midi.NoteOffEvent(tick=96, channel=4, data=[81, 64]),\n",
      "   midi.NoteOnEvent(tick=0, channel=4, data=[80, 100]),\n",
      "   midi.NoteOffEvent(tick=96, channel=4, data=[80, 64]),\n",
      "   midi.NoteOnEvent(tick=0, channel=4, data=[78, 100]),\n",
      "   midi.NoteOffEvent(tick=96, channel=4, data=[78, 64]),\n",
      "   midi.NoteOnEvent(tick=0, channel=4, data=[76, 100]),\n",
      "   midi.NoteOffEvent(tick=96, channel=4, data=[76, 64]),\n",
      "   midi.NoteOnEvent(tick=0, channel=4, data=[74, 100]),\n",
      "   midi.NoteOffEvent(tick=96, channel=4, data=[74, 64]),\n",
      "   midi.NoteOnEvent(tick=0, channel=4, data=[76, 100]),\n",
      "   midi.NoteOffEvent(tick=96, channel=4, data=[76, 64]),\n",
      "   midi.NoteOnEvent(tick=0, channel=4, data=[74, 100]),\n",
      "   midi.NoteOffEvent(tick=96, channel=4, data=[74, 64]),\n",
      "   midi.NoteOnEvent(tick=96, channel=4, data=[74, 100]),\n",
      "   midi.NoteOffEvent(tick=96, channel=4, data=[74, 64]),\n",
      "   midi.NoteOnEvent(tick=96, channel=4, data=[74, 100]),\n",
      "   midi.NoteOffEvent(tick=96, channel=4, data=[74, 64]),\n",
      "   midi.NoteOnEvent(tick=96, channel=4, data=[86, 100]),\n",
      "   midi.NoteOffEvent(tick=384, channel=4, data=[86, 64]),\n",
      "   midi.NoteOnEvent(tick=192, channel=4, data=[85, 100]),\n",
      "   midi.NoteOffEvent(tick=96, channel=4, data=[85, 64]),\n",
      "   midi.NoteOnEvent(tick=0, channel=4, data=[83, 100]),\n",
      "   midi.NoteOffEvent(tick=96, channel=4, data=[83, 64]),\n",
      "   midi.NoteOnEvent(tick=0, channel=4, data=[85, 100]),\n",
      "   midi.NoteOffEvent(tick=192, channel=4, data=[85, 64]),\n",
      "   midi.NoteOnEvent(tick=0, channel=4, data=[81, 100]),\n",
      "   midi.NoteOffEvent(tick=192, channel=4, data=[81, 64]),\n",
      "   midi.NoteOnEvent(tick=0, channel=4, data=[76, 100]),\n",
      "   midi.NoteOffEvent(tick=192, channel=4, data=[76, 64]),\n",
      "   midi.NoteOnEvent(tick=0, channel=4, data=[80, 100]),\n",
      "   midi.NoteOffEvent(tick=192, channel=4, data=[80, 64]),\n",
      "   midi.NoteOnEvent(tick=0, channel=4, data=[81, 100]),\n",
      "   midi.NoteOffEvent(tick=192, channel=4, data=[81, 64]),\n",
      "   midi.NoteOnEvent(tick=0, channel=4, data=[57, 100]),\n",
      "   midi.NoteOffEvent(tick=192, channel=4, data=[57, 64]),\n",
      "   midi.NoteOnEvent(tick=0, channel=4, data=[61, 100]),\n",
      "   midi.NoteOffEvent(tick=192, channel=4, data=[61, 64]),\n",
      "   midi.NoteOnEvent(tick=0, channel=4, data=[64, 100]),\n",
      "   midi.NoteOffEvent(tick=192, channel=4, data=[64, 64]),\n",
      "   midi.NoteOnEvent(tick=0, channel=4, data=[69, 100]),\n",
      "   midi.NoteOffEvent(tick=192, channel=4, data=[69, 64]),\n",
      "   midi.NoteOnEvent(tick=0, channel=4, data=[67, 100]),\n",
      "   midi.NoteOffEvent(tick=96, channel=4, data=[67, 64]),\n",
      "   midi.NoteOnEvent(tick=0, channel=4, data=[66, 100]),\n",
      "   midi.NoteOffEvent(tick=96, channel=4, data=[66, 64]),\n",
      "   midi.NoteOnEvent(tick=0, channel=4, data=[64, 100]),\n",
      "   midi.NoteOffEvent(tick=96, channel=4, data=[64, 64]),\n",
      "   midi.NoteOnEvent(tick=0, channel=4, data=[62, 100]),\n",
      "   midi.NoteOffEvent(tick=96, channel=4, data=[62, 64]),\n",
      "   midi.NoteOnEvent(tick=0, channel=4, data=[61, 100]),\n",
      "   midi.NoteOffEvent(tick=96, channel=4, data=[61, 64]),\n",
      "   midi.NoteOnEvent(tick=0, channel=4, data=[59, 100]),\n",
      "   midi.NoteOffEvent(tick=96, channel=4, data=[59, 64]),\n",
      "   midi.NoteOnEvent(tick=0, channel=4, data=[58, 100]),\n",
      "   midi.NoteOffEvent(tick=192, channel=4, data=[58, 64]),\n",
      "   midi.NoteOnEvent(tick=0, channel=4, data=[61, 100]),\n",
      "   midi.NoteOffEvent(tick=192, channel=4, data=[61, 64]),\n",
      "   midi.NoteOnEvent(tick=0, channel=4, data=[64, 100]),\n",
      "   midi.NoteOffEvent(tick=192, channel=4, data=[64, 64]),\n",
      "   midi.NoteOnEvent(tick=0, channel=4, data=[70, 100]),\n",
      "   midi.NoteOffEvent(tick=192, channel=4, data=[70, 64]),\n",
      "   midi.NoteOnEvent(tick=0, channel=4, data=[73, 100]),\n",
      "   midi.NoteOffEvent(tick=192, channel=4, data=[73, 64]),\n",
      "   midi.NoteOnEvent(tick=0, channel=4, data=[78, 100]),\n",
      "   midi.NoteOffEvent(tick=256, channel=4, data=[78, 64]),\n",
      "   midi.NoteOnEvent(tick=32, channel=4, data=[76, 100]),\n",
      "   midi.NoteOffEvent(tick=96, channel=4, data=[76, 64]),\n",
      "   midi.NoteOnEvent(tick=0, channel=4, data=[74, 100]),\n",
      "   midi.NoteOffEvent(tick=96, channel=4, data=[74, 64]),\n",
      "   midi.NoteOnEvent(tick=0, channel=4, data=[73, 100]),\n",
      "   midi.NoteOffEvent(tick=96, channel=4, data=[73, 64]),\n",
      "   midi.NoteOnEvent(tick=0, channel=4, data=[74, 100]),\n",
      "   midi.NoteOffEvent(tick=192, channel=4, data=[74, 64]),\n",
      "   midi.NoteOnEvent(tick=0, channel=4, data=[62, 100]),\n",
      "   midi.NoteOffEvent(tick=192, channel=4, data=[62, 64]),\n",
      "   midi.NoteOnEvent(tick=0, channel=4, data=[66, 100]),\n",
      "   midi.NoteOffEvent(tick=192, channel=4, data=[66, 64]),\n",
      "   midi.NoteOnEvent(tick=0, channel=4, data=[71, 100]),\n",
      "   midi.NoteOffEvent(tick=192, channel=4, data=[71, 64]),\n",
      "   midi.NoteOnEvent(tick=0, channel=4, data=[74, 100]),\n",
      "   midi.NoteOffEvent(tick=192, channel=4, data=[74, 64]),\n",
      "   midi.NoteOnEvent(tick=0, channel=4, data=[66, 100]),\n",
      "   midi.NoteOffEvent(tick=192, channel=4, data=[66, 64]),\n",
      "   midi.NoteOnEvent(tick=0, channel=4, data=[69, 100]),\n",
      "   midi.NoteOffEvent(tick=192, channel=4, data=[69, 64]),\n",
      "   midi.NoteOnEvent(tick=0, channel=4, data=[75, 100]),\n",
      "   midi.NoteOffEvent(tick=192, channel=4, data=[75, 64]),\n",
      "   midi.NoteOnEvent(tick=0, channel=4, data=[78, 100]),\n",
      "   midi.NoteOffEvent(tick=192, channel=4, data=[78, 64]),\n",
      "   midi.NoteOnEvent(tick=0, channel=4, data=[72, 100]),\n",
      "   midi.NoteOffEvent(tick=96, channel=4, data=[72, 64]),\n",
      "   midi.NoteOnEvent(tick=0, channel=4, data=[71, 100]),\n",
      "   midi.NoteOffEvent(tick=96, channel=4, data=[71, 64]),\n",
      "   midi.NoteOnEvent(tick=0, channel=4, data=[69, 100]),\n",
      "   midi.NoteOffEvent(tick=96, channel=4, data=[69, 64]),\n",
      "   midi.NoteOnEvent(tick=0, channel=4, data=[67, 100]),\n",
      "   midi.NoteOffEvent(tick=96, channel=4, data=[67, 64]),\n",
      "   midi.NoteOnEvent(tick=0, channel=4, data=[66, 100]),\n",
      "   midi.NoteOffEvent(tick=96, channel=4, data=[66, 64]),\n",
      "   midi.NoteOnEvent(tick=0, channel=4, data=[64, 100]),\n",
      "   midi.NoteOffEvent(tick=96, channel=4, data=[64, 64]),\n",
      "   midi.NoteOnEvent(tick=0, channel=4, data=[63, 100]),\n",
      "   midi.NoteOffEvent(tick=192, channel=4, data=[63, 64]),\n",
      "   midi.NoteOnEvent(tick=0, channel=4, data=[83, 100]),\n",
      "   midi.NoteOffEvent(tick=256, channel=4, data=[83, 64]),\n",
      "   midi.NoteOnEvent(tick=32, channel=4, data=[81, 100]),\n",
      "   midi.NoteOffEvent(tick=96, channel=4, data=[81, 64]),\n",
      "   midi.NoteOnEvent(tick=0, channel=4, data=[79, 100]),\n",
      "   midi.NoteOffEvent(tick=96, channel=4, data=[79, 64]),\n",
      "   midi.NoteOnEvent(tick=0, channel=4, data=[78, 100]),\n",
      "   midi.NoteOffEvent(tick=96, channel=4, data=[78, 64]),\n",
      "   midi.NoteOnEvent(tick=0, channel=4, data=[79, 100]),\n",
      "   midi.NoteOffEvent(tick=192, channel=4, data=[79, 64]),\n",
      "   midi.NoteOnEvent(tick=0, channel=4, data=[67, 100]),\n",
      "   midi.NoteOffEvent(tick=192, channel=4, data=[67, 64]),\n",
      "   midi.NoteOnEvent(tick=0, channel=4, data=[71, 100]),\n",
      "   midi.NoteOffEvent(tick=192, channel=4, data=[71, 64]),\n",
      "   midi.NoteOnEvent(tick=0, channel=4, data=[76, 100]),\n",
      "   midi.NoteOffEvent(tick=192, channel=4, data=[76, 64]),\n",
      "   midi.NoteOnEvent(tick=0, channel=4, data=[79, 100]),\n",
      "   midi.NoteOffEvent(tick=192, channel=4, data=[79, 64]),\n",
      "   midi.NoteOnEvent(tick=0, channel=4, data=[83, 100]),\n",
      "   midi.NoteOffEvent(tick=192, channel=4, data=[83, 64]),\n",
      "   midi.NoteOnEvent(tick=0, channel=4, data=[79, 100]),\n",
      "   midi.NoteOffEvent(tick=192, channel=4, data=[79, 64]),\n",
      "   midi.NoteOnEvent(tick=0, channel=4, data=[76, 100]),\n",
      "   midi.NoteOffEvent(tick=192, channel=4, data=[76, 64]),\n",
      "   midi.NoteOnEvent(tick=192, channel=4, data=[76, 100]),\n",
      "   midi.NoteOffEvent(tick=192, channel=4, data=[76, 64]),\n",
      "   midi.NoteOnEvent(tick=0, channel=4, data=[81, 100]),\n",
      "   midi.NoteOffEvent(tick=192, channel=4, data=[81, 64]),\n",
      "   midi.NoteOnEvent(tick=0, channel=4, data=[76, 100]),\n",
      "   midi.NoteOffEvent(tick=192, channel=4, data=[76, 64]),\n",
      "   midi.NoteOnEvent(tick=0, channel=4, data=[78, 100]),\n",
      "   midi.NoteOffEvent(tick=192, channel=4, data=[78, 64]),\n",
      "   midi.NoteOnEvent(tick=0, channel=4, data=[81, 100]),\n",
      "   midi.NoteOffEvent(tick=192, channel=4, data=[81, 64]),\n",
      "   midi.NoteOnEvent(tick=0, channel=4, data=[78, 100]),\n",
      "   midi.NoteOffEvent(tick=192, channel=4, data=[78, 64]),\n",
      "   midi.NoteOnEvent(tick=0, channel=4, data=[74, 100]),\n",
      "   midi.NoteOffEvent(tick=192, channel=4, data=[74, 64]),\n",
      "   midi.NoteOnEvent(tick=192, channel=4, data=[71, 100]),\n",
      "   midi.NoteOffEvent(tick=192, channel=4, data=[71, 64]),\n",
      "   midi.NoteOnEvent(tick=0, channel=4, data=[74, 100]),\n",
      "   midi.NoteOffEvent(tick=192, channel=4, data=[74, 64]),\n",
      "   midi.NoteOnEvent(tick=0, channel=4, data=[78, 100]),\n",
      "   midi.NoteOffEvent(tick=192, channel=4, data=[78, 64]),\n",
      "   midi.NoteOnEvent(tick=0, channel=4, data=[73, 100]),\n",
      "   midi.NoteOffEvent(tick=256, channel=4, data=[73, 64]),\n",
      "   midi.NoteOnEvent(tick=32, channel=4, data=[74, 100]),\n",
      "   midi.NoteOffEvent(tick=96, channel=4, data=[74, 64]),\n",
      "   midi.NoteOnEvent(tick=0, channel=4, data=[76, 100]),\n",
      "   midi.NoteOffEvent(tick=256, channel=4, data=[76, 64]),\n",
      "   midi.NoteOnEvent(tick=32, channel=4, data=[78, 100]),\n",
      "   midi.NoteOffEvent(tick=96, channel=4, data=[78, 64]),\n",
      "   midi.NoteOnEvent(tick=0, channel=4, data=[79, 100]),\n",
      "   midi.NoteOffEvent(tick=512, channel=4, data=[79, 64]),\n",
      "   midi.NoteOnEvent(tick=64, channel=4, data=[78, 100]),\n",
      "   midi.NoteOffEvent(tick=96, channel=4, data=[78, 64]),\n",
      "   midi.NoteOnEvent(tick=0, channel=4, data=[76, 100]),\n",
      "   midi.NoteOffEvent(tick=96, channel=4, data=[76, 64]),\n",
      "   midi.NoteOnEvent(tick=0, channel=4, data=[78, 100]),\n",
      "   midi.NoteOffEvent(tick=96, channel=4, data=[78, 64]),\n",
      "   midi.NoteOnEvent(tick=0, channel=4, data=[81, 100]),\n",
      "   midi.NoteOffEvent(tick=96, channel=4, data=[81, 64]),\n",
      "   midi.NoteOnEvent(tick=0, channel=4, data=[79, 100]),\n",
      "   midi.NoteOffEvent(tick=96, channel=4, data=[79, 64]),\n",
      "   midi.NoteOnEvent(tick=0, channel=4, data=[78, 100]),\n",
      "   midi.NoteOffEvent(tick=96, channel=4, data=[78, 64]),\n",
      "   midi.NoteOnEvent(tick=0, channel=4, data=[79, 100]),\n",
      "   midi.NoteOffEvent(tick=96, channel=4, data=[79, 64]),\n",
      "   midi.NoteOnEvent(tick=0, channel=4, data=[78, 100]),\n",
      "   midi.NoteOffEvent(tick=96, channel=4, data=[78, 64]),\n",
      "   midi.NoteOnEvent(tick=0, channel=4, data=[76, 100]),\n",
      "   midi.NoteOffEvent(tick=96, channel=4, data=[76, 64]),\n",
      "   midi.NoteOnEvent(tick=0, channel=4, data=[78, 100]),\n",
      "   midi.NoteOffEvent(tick=96, channel=4, data=[78, 64]),\n",
      "   midi.NoteOnEvent(tick=0, channel=4, data=[74, 100]),\n",
      "   midi.NoteOffEvent(tick=384, channel=4, data=[74, 64]),\n",
      "   midi.NoteOnEvent(tick=384, channel=4, data=[74, 100]),\n",
      "   midi.NoteOffEvent(tick=384, channel=4, data=[74, 64]),\n",
      "   midi.NoteOnEvent(tick=0, channel=4, data=[69, 100]),\n",
      "   midi.NoteOffEvent(tick=384, channel=4, data=[69, 64]),\n",
      "   midi.NoteOnEvent(tick=0, channel=4, data=[66, 100]),\n",
      "   midi.NoteOffEvent(tick=512, channel=4, data=[66, 64]),\n",
      "   midi.NoteOnEvent(tick=64, channel=4, data=[69, 100]),\n",
      "   midi.NoteOffEvent(tick=192, channel=4, data=[69, 64]),\n",
      "   midi.NoteOnEvent(tick=0, channel=4, data=[72, 100]),\n",
      "   midi.NoteOffEvent(tick=192, channel=4, data=[72, 64]),\n",
      "   midi.NoteOnEvent(tick=0, channel=4, data=[71, 100]),\n",
      "   midi.NoteOffEvent(tick=192, channel=4, data=[71, 64]),\n",
      "   midi.NoteOnEvent(tick=0, channel=4, data=[72, 100]),\n",
      "   midi.NoteOffEvent(tick=192, channel=4, data=[72, 64]),\n",
      "   midi.NoteOnEvent(tick=0, channel=4, data=[69, 100]),\n",
      "   midi.NoteOffEvent(tick=192, channel=4, data=[69, 64]),\n",
      "   midi.NoteOnEvent(tick=0, channel=4, data=[71, 100]),\n",
      "   midi.NoteOffEvent(tick=192, channel=4, data=[71, 64]),\n",
      "   midi.NoteOnEvent(tick=0, channel=4, data=[69, 100]),\n",
      "   midi.NoteOffEvent(tick=192, channel=4, data=[69, 64]),\n",
      "   midi.NoteOnEvent(tick=0, channel=4, data=[71, 100]),\n",
      "   midi.NoteOffEvent(tick=384, channel=4, data=[71, 64]),\n",
      "   midi.NoteOnEvent(tick=0, channel=4, data=[76, 100]),\n",
      "   midi.NoteOffEvent(tick=96, channel=4, data=[76, 64]),\n",
      "   midi.NoteOnEvent(tick=0, channel=4, data=[78, 100]),\n",
      "   midi.NoteOffEvent(tick=96, channel=4, data=[78, 64]),\n",
      "   midi.NoteOnEvent(tick=0, channel=4, data=[79, 100]),\n",
      "   midi.NoteOffEvent(tick=96, channel=4, data=[79, 64]),\n",
      "   midi.NoteOnEvent(tick=96, channel=4, data=[79, 100]),\n",
      "   midi.NoteOffEvent(tick=96, channel=4, data=[79, 64]),\n",
      "   midi.NoteOnEvent(tick=96, channel=4, data=[76, 100]),\n",
      "   midi.NoteOffEvent(tick=96, channel=4, data=[76, 64]),\n",
      "   midi.NoteOnEvent(tick=96, channel=4, data=[73, 100]),\n",
      "   midi.NoteOnEvent(tick=0, channel=4, data=[74, 100]),\n",
      "   midi.NoteOffEvent(tick=48, channel=4, data=[74, 64]),\n",
      "   midi.NoteOffEvent(tick=464, channel=4, data=[73, 64]),\n",
      "   midi.NoteOnEvent(tick=64, channel=4, data=[69, 100]),\n",
      "   midi.NoteOffEvent(tick=192, channel=4, data=[69, 64]),\n",
      "   midi.NoteOnEvent(tick=0, channel=4, data=[74, 100]),\n",
      "   midi.NoteOffEvent(tick=48, channel=4, data=[74, 64]),\n",
      "   midi.NoteOnEvent(tick=0, channel=4, data=[76, 100]),\n",
      "   midi.NoteOffEvent(tick=48, channel=4, data=[76, 64]),\n",
      "   midi.NoteOnEvent(tick=0, channel=4, data=[78, 100]),\n",
      "   midi.NoteOffEvent(tick=256, channel=4, data=[78, 64]),\n",
      "   midi.NoteOnEvent(tick=32, channel=4, data=[76, 100]),\n",
      "   midi.NoteOffEvent(tick=48, channel=4, data=[76, 64]),\n",
      "   midi.NoteOnEvent(tick=0, channel=4, data=[78, 100]),\n",
      "   midi.NoteOffEvent(tick=48, channel=4, data=[78, 64]),\n",
      "   midi.NoteOnEvent(tick=0, channel=4, data=[79, 100]),\n",
      "   midi.NoteOffEvent(tick=256, channel=4, data=[79, 64]),\n",
      "   midi.NoteOnEvent(tick=32, channel=4, data=[78, 100]),\n",
      "   midi.NoteOffEvent(tick=192, channel=4, data=[78, 64]),\n",
      "   midi.NoteOnEvent(tick=0, channel=4, data=[76, 100]),\n",
      "   midi.NoteOffEvent(tick=192, channel=4, data=[76, 64]),\n",
      "   midi.NoteOnEvent(tick=0, channel=4, data=[74, 100]),\n",
      "   midi.NoteOffEvent(tick=384, channel=4, data=[74, 64]),\n",
      "   midi.NoteOnEvent(tick=0, channel=4, data=[62, 100]),\n",
      "   midi.NoteOffEvent(tick=192, channel=4, data=[62, 64]),\n",
      "   midi.NoteOnEvent(tick=0, channel=4, data=[74, 100]),\n",
      "   midi.NoteOffEvent(tick=192, channel=4, data=[74, 64]),\n",
      "   midi.NoteOnEvent(tick=0, channel=4, data=[73, 100]),\n",
      "   midi.NoteOffEvent(tick=192, channel=4, data=[73, 64]),\n",
      "   midi.NoteOnEvent(tick=0, channel=4, data=[69, 100]),\n",
      "   midi.NoteOffEvent(tick=192, channel=4, data=[69, 64]),\n",
      "   midi.NoteOnEvent(tick=0, channel=4, data=[74, 100]),\n",
      "   midi.NoteOffEvent(tick=192, channel=4, data=[74, 64]),\n",
      "   midi.NoteOnEvent(tick=0, channel=4, data=[73, 100]),\n",
      "   midi.NoteOffEvent(tick=96, channel=4, data=[73, 64]),\n",
      "   midi.NoteOnEvent(tick=0, channel=4, data=[71, 100]),\n",
      "   midi.NoteOffEvent(tick=96, channel=4, data=[71, 64]),\n",
      "   midi.NoteOnEvent(tick=0, channel=4, data=[69, 100]),\n",
      "   midi.NoteOffEvent(tick=96, channel=4, data=[69, 64]),\n",
      "   midi.NoteOnEvent(tick=0, channel=4, data=[67, 100]),\n",
      "   midi.NoteOffEvent(tick=96, channel=4, data=[67, 64]),\n",
      "   midi.NoteOnEvent(tick=0, channel=4, data=[66, 100]),\n",
      "   midi.NoteOffEvent(tick=96, channel=4, data=[66, 64]),\n",
      "   midi.NoteOnEvent(tick=0, channel=4, data=[64, 100]),\n",
      "   midi.NoteOffEvent(tick=96, channel=4, data=[64, 64]),\n",
      "   midi.NoteOnEvent(tick=0, channel=4, data=[62, 100]),\n",
      "   midi.NoteOffEvent(tick=192, channel=4, data=[62, 64]),\n",
      "   midi.NoteOnEvent(tick=672, channel=4, data=[74, 100]),\n",
      "   midi.NoteOffEvent(tick=96, channel=4, data=[74, 64]),\n",
      "   midi.NoteOnEvent(tick=0, channel=4, data=[73, 100]),\n",
      "   midi.NoteOffEvent(tick=96, channel=4, data=[73, 64]),\n",
      "   midi.NoteOnEvent(tick=0, channel=4, data=[71, 100]),\n",
      "   midi.NoteOffEvent(tick=96, channel=4, data=[71, 64]),\n",
      "   midi.NoteOnEvent(tick=0, channel=4, data=[69, 100]),\n",
      "   midi.NoteOffEvent(tick=96, channel=4, data=[69, 64]),\n",
      "   midi.NoteOnEvent(tick=0, channel=4, data=[67, 100]),\n",
      "   midi.NoteOffEvent(tick=96, channel=4, data=[67, 64]),\n",
      "   midi.NoteOnEvent(tick=0, channel=4, data=[66, 100]),\n",
      "   midi.NoteOffEvent(tick=96, channel=4, data=[66, 64]),\n",
      "   midi.NoteOnEvent(tick=0, channel=4, data=[64, 100]),\n",
      "   midi.NoteOffEvent(tick=96, channel=4, data=[64, 64]),\n",
      "   midi.NoteOnEvent(tick=0, channel=4, data=[62, 100]),\n",
      "   midi.NoteOffEvent(tick=192, channel=4, data=[62, 64]),\n",
      "   midi.NoteOnEvent(tick=0, channel=4, data=[69, 100]),\n",
      "   midi.NoteOffEvent(tick=384, channel=4, data=[69, 64]),\n",
      "   midi.NoteOnEvent(tick=0, channel=4, data=[71, 100]),\n",
      "   midi.NoteOffEvent(tick=96, channel=4, data=[71, 64]),\n",
      "   midi.NoteOnEvent(tick=0, channel=4, data=[73, 100]),\n",
      "   midi.NoteOffEvent(tick=96, channel=4, data=[73, 64]),\n",
      "   midi.NoteOnEvent(tick=0, channel=4, data=[74, 100]),\n",
      "   midi.NoteOffEvent(tick=96, channel=4, data=[74, 64]),\n",
      "   midi.NoteOnEvent(tick=0, channel=4, data=[76, 100]),\n",
      "   midi.NoteOffEvent(tick=96, channel=4, data=[76, 64]),\n",
      "   midi.NoteOnEvent(tick=0, channel=4, data=[78, 100]),\n",
      "   midi.NoteOffEvent(tick=96, channel=4, data=[78, 64]),\n",
      "   midi.NoteOnEvent(tick=96, channel=4, data=[78, 100]),\n",
      "   midi.NoteOffEvent(tick=96, channel=4, data=[78, 64]),\n",
      "   midi.NoteOnEvent(tick=96, channel=4, data=[74, 100]),\n",
      "   midi.NoteOffEvent(tick=96, channel=4, data=[74, 64]),\n",
      "   midi.NoteOnEvent(tick=96, channel=4, data=[79, 100]),\n",
      "   midi.NoteOffEvent(tick=192, channel=4, data=[79, 64]),\n",
      "   midi.NoteOnEvent(tick=0, channel=4, data=[78, 100]),\n",
      "   midi.NoteOffEvent(tick=192, channel=4, data=[78, 64]),\n",
      "   midi.NoteOnEvent(tick=0, channel=4, data=[76, 100]),\n",
      "   midi.NoteOffEvent(tick=192, channel=4, data=[76, 64]),\n",
      "   midi.NoteOnEvent(tick=0, channel=4, data=[74, 100]),\n",
      "   midi.NoteOffEvent(tick=192, channel=4, data=[74, 64]),\n",
      "   midi.NoteOnEvent(tick=0, channel=4, data=[73, 100]),\n",
      "   midi.NoteOffEvent(tick=192, channel=4, data=[73, 64]),\n",
      "   midi.NoteOnEvent(tick=0, channel=4, data=[71, 100]),\n",
      "   midi.NoteOffEvent(tick=192, channel=4, data=[71, 64]),\n",
      "   midi.NoteOnEvent(tick=0, channel=4, data=[69, 100]),\n",
      "   midi.NoteOffEvent(tick=96, channel=4, data=[69, 64]),\n",
      "   midi.NoteOnEvent(tick=0, channel=4, data=[57, 100]),\n",
      "   midi.NoteOffEvent(tick=96, channel=4, data=[57, 64]),\n",
      "   midi.NoteOnEvent(tick=0, channel=4, data=[59, 100]),\n",
      "   midi.NoteOffEvent(tick=96, channel=4, data=[59, 64]),\n",
      "   midi.NoteOnEvent(tick=0, channel=4, data=[61, 100]),\n",
      "   midi.NoteOffEvent(tick=96, channel=4, data=[61, 64]),\n",
      "   midi.NoteOnEvent(tick=0, channel=4, data=[62, 100]),\n",
      "   midi.NoteOffEvent(tick=192, channel=4, data=[62, 64]),\n",
      "   midi.NoteOnEvent(tick=0, channel=4, data=[74, 100]),\n",
      "   midi.NoteOffEvent(tick=192, channel=4, data=[74, 64]),\n",
      "   midi.NoteOnEvent(tick=0, channel=4, data=[71, 100]),\n",
      "   midi.NoteOffEvent(tick=192, channel=4, data=[71, 64]),\n",
      "   midi.NoteOnEvent(tick=0, channel=4, data=[66, 100]),\n",
      "   midi.NoteOffEvent(tick=192, channel=4, data=[66, 64]),\n",
      "   midi.NoteOnEvent(tick=0, channel=4, data=[68, 100]),\n",
      "   midi.NoteOffEvent(tick=192, channel=4, data=[68, 64]),\n",
      "   midi.NoteOnEvent(tick=0, channel=4, data=[83, 100]),\n",
      "   midi.NoteOffEvent(tick=96, channel=4, data=[83, 64]),\n",
      "   midi.NoteOnEvent(tick=0, channel=4, data=[81, 100]),\n",
      "   midi.NoteOffEvent(tick=96, channel=4, data=[81, 64]),\n",
      "   midi.NoteOnEvent(tick=0, channel=4, data=[83, 100]),\n",
      "   midi.NoteOffEvent(tick=96, channel=4, data=[83, 64]),\n",
      "   midi.NoteOnEvent(tick=0, channel=4, data=[81, 100]),\n",
      "   midi.NoteOffEvent(tick=96, channel=4, data=[81, 64]),\n",
      "   midi.NoteOnEvent(tick=0, channel=4, data=[80, 100]),\n",
      "   midi.NoteOffEvent(tick=96, channel=4, data=[80, 64]),\n",
      "   midi.NoteOnEvent(tick=0, channel=4, data=[78, 100]),\n",
      "   midi.NoteOffEvent(tick=96, channel=4, data=[78, 64]),\n",
      "   midi.NoteOnEvent(tick=0, channel=4, data=[76, 100]),\n",
      "   midi.NoteOffEvent(tick=192, channel=4, data=[76, 64]),\n",
      "   midi.NoteOnEvent(tick=0, channel=4, data=[73, 100]),\n",
      "   midi.NoteOffEvent(tick=192, channel=4, data=[73, 64]),\n",
      "   midi.NoteOnEvent(tick=0, channel=4, data=[69, 100]),\n",
      "   midi.NoteOffEvent(tick=192, channel=4, data=[69, 64]),\n",
      "   midi.NoteOnEvent(tick=0, channel=4, data=[64, 100]),\n",
      "   midi.NoteOffEvent(tick=192, channel=4, data=[64, 64]),\n",
      "   midi.NoteOnEvent(tick=0, channel=4, data=[66, 100]),\n",
      "   midi.NoteOffEvent(tick=192, channel=4, data=[66, 64]),\n",
      "   midi.NoteOnEvent(tick=0, channel=4, data=[81, 100]),\n",
      "   midi.NoteOffEvent(tick=96, channel=4, data=[81, 64]),\n",
      "   midi.NoteOnEvent(tick=0, channel=4, data=[80, 100]),\n",
      "   midi.NoteOffEvent(tick=96, channel=4, data=[80, 64]),\n",
      "   midi.NoteOnEvent(tick=0, channel=4, data=[81, 100]),\n",
      "   midi.NoteOffEvent(tick=96, channel=4, data=[81, 64]),\n",
      "   midi.NoteOnEvent(tick=0, channel=4, data=[80, 100]),\n",
      "   midi.NoteOffEvent(tick=96, channel=4, data=[80, 64]),\n",
      "   midi.NoteOnEvent(tick=0, channel=4, data=[78, 100]),\n",
      "   midi.NoteOffEvent(tick=96, channel=4, data=[78, 64]),\n",
      "   midi.NoteOnEvent(tick=0, channel=4, data=[76, 100]),\n",
      "   midi.NoteOffEvent(tick=96, channel=4, data=[76, 64]),\n",
      "   midi.NoteOnEvent(tick=0, channel=4, data=[74, 100]),\n",
      "   midi.NoteOffEvent(tick=96, channel=4, data=[74, 64]),\n",
      "   midi.NoteOnEvent(tick=0, channel=4, data=[76, 100]),\n",
      "   midi.NoteOffEvent(tick=96, channel=4, data=[76, 64]),\n",
      "   midi.NoteOnEvent(tick=0, channel=4, data=[74, 100]),\n",
      "   midi.NoteOffEvent(tick=96, channel=4, data=[74, 64]),\n",
      "   midi.NoteOnEvent(tick=96, channel=4, data=[74, 100]),\n",
      "   midi.NoteOffEvent(tick=96, channel=4, data=[74, 64]),\n",
      "   midi.NoteOnEvent(tick=96, channel=4, data=[74, 100]),\n",
      "   midi.NoteOffEvent(tick=96, channel=4, data=[74, 64]),\n",
      "   midi.NoteOnEvent(tick=96, channel=4, data=[86, 100]),\n",
      "   midi.NoteOffEvent(tick=384, channel=4, data=[86, 64]),\n",
      "   midi.NoteOnEvent(tick=192, channel=4, data=[85, 100]),\n",
      "   midi.NoteOffEvent(tick=96, channel=4, data=[85, 64]),\n",
      "   midi.NoteOnEvent(tick=0, channel=4, data=[83, 100]),\n",
      "   midi.NoteOffEvent(tick=96, channel=4, data=[83, 64]),\n",
      "   midi.NoteOnEvent(tick=0, channel=4, data=[85, 100]),\n",
      "   midi.NoteOffEvent(tick=192, channel=4, data=[85, 64]),\n",
      "   midi.NoteOnEvent(tick=0, channel=4, data=[81, 100]),\n",
      "   midi.NoteOffEvent(tick=192, channel=4, data=[81, 64]),\n",
      "   midi.NoteOnEvent(tick=0, channel=4, data=[76, 100]),\n",
      "   midi.NoteOffEvent(tick=192, channel=4, data=[76, 64]),\n",
      "   midi.NoteOnEvent(tick=0, channel=4, data=[80, 100]),\n",
      "   midi.NoteOffEvent(tick=192, channel=4, data=[80, 64]),\n",
      "   midi.NoteOnEvent(tick=2112, channel=4, data=[64, 100]),\n",
      "   midi.NoteOffEvent(tick=192, channel=4, data=[64, 64]),\n",
      "   midi.NoteOnEvent(tick=0, channel=4, data=[69, 100]),\n",
      "   midi.NoteOffEvent(tick=48, channel=4, data=[69, 64]),\n",
      "   midi.NoteOnEvent(tick=0, channel=4, data=[71, 100]),\n",
      "   midi.NoteOffEvent(tick=48, channel=4, data=[71, 64]),\n",
      "   midi.NoteOnEvent(tick=0, channel=4, data=[73, 100]),\n",
      "   midi.NoteOffEvent(tick=256, channel=4, data=[73, 64]),\n",
      "   midi.NoteOnEvent(tick=32, channel=4, data=[71, 100]),\n",
      "   midi.NoteOffEvent(tick=48, channel=4, data=[71, 64]),\n",
      "   midi.NoteOnEvent(tick=0, channel=4, data=[73, 100]),\n",
      "   midi.NoteOffEvent(tick=48, channel=4, data=[73, 64]),\n",
      "   midi.NoteOnEvent(tick=0, channel=4, data=[74, 100]),\n",
      "   midi.NoteOffEvent(tick=256, channel=4, data=[74, 64]),\n",
      "   midi.NoteOnEvent(tick=32, channel=4, data=[73, 100]),\n",
      "   midi.NoteOffEvent(tick=192, channel=4, data=[73, 64]),\n",
      "   midi.NoteOnEvent(tick=0, channel=4, data=[71, 100]),\n",
      "   midi.NoteOffEvent(tick=192, channel=4, data=[71, 64]),\n",
      "   midi.NoteOnEvent(tick=0, channel=4, data=[69, 100]),\n",
      "   midi.NoteOffEvent(tick=192, channel=4, data=[69, 64]),\n",
      "   midi.NoteOnEvent(tick=1536, channel=4, data=[69, 100]),\n",
      "   midi.NoteOffEvent(tick=192, channel=4, data=[69, 64]),\n",
      "   midi.NoteOnEvent(tick=0, channel=4, data=[74, 100]),\n",
      "   midi.NoteOffEvent(tick=48, channel=4, data=[74, 64]),\n",
      "   midi.NoteOnEvent(tick=0, channel=4, data=[76, 100]),\n",
      "   midi.NoteOffEvent(tick=48, channel=4, data=[76, 64]),\n",
      "   midi.NoteOnEvent(tick=0, channel=4, data=[78, 100]),\n",
      "   midi.NoteOffEvent(tick=256, channel=4, data=[78, 64]),\n",
      "   midi.NoteOnEvent(tick=32, channel=4, data=[76, 100]),\n",
      "   midi.NoteOffEvent(tick=48, channel=4, data=[76, 64]),\n",
      "   midi.NoteOnEvent(tick=0, channel=4, data=[78, 100]),\n",
      "   midi.NoteOffEvent(tick=48, channel=4, data=[78, 64]),\n",
      "   midi.NoteOnEvent(tick=0, channel=4, data=[79, 100]),\n",
      "   midi.NoteOffEvent(tick=256, channel=4, data=[79, 64]),\n",
      "   midi.NoteOnEvent(tick=32, channel=4, data=[78, 100]),\n",
      "   midi.NoteOffEvent(tick=192, channel=4, data=[78, 64]),\n",
      "   midi.NoteOnEvent(tick=0, channel=4, data=[76, 100]),\n",
      "   midi.NoteOffEvent(tick=192, channel=4, data=[76, 64]),\n",
      "   midi.NoteOnEvent(tick=0, channel=4, data=[74, 100]),\n",
      "   midi.NoteOffEvent(tick=192, channel=4, data=[74, 64]),\n",
      "   midi.NoteOnEvent(tick=192, channel=4, data=[71, 100]),\n",
      "   midi.NoteOffEvent(tick=96, channel=4, data=[71, 64]),\n",
      "   midi.NoteOnEvent(tick=0, channel=4, data=[69, 100]),\n",
      "   midi.NoteOffEvent(tick=96, channel=4, data=[69, 64]),\n",
      "   midi.NoteOnEvent(tick=0, channel=4, data=[71, 100]),\n",
      "   midi.NoteOffEvent(tick=96, channel=4, data=[71, 64]),\n",
      "   midi.NoteOnEvent(tick=96, channel=4, data=[71, 100]),\n",
      "   midi.NoteOffEvent(tick=96, channel=4, data=[71, 64]),\n",
      "   midi.NoteOnEvent(tick=96, channel=4, data=[71, 100]),\n",
      "   midi.NoteOffEvent(tick=96, channel=4, data=[71, 64]),\n",
      "   midi.NoteOnEvent(tick=96, channel=4, data=[80, 100]),\n",
      "   midi.NoteOffEvent(tick=192, channel=4, data=[80, 64]),\n",
      "   midi.NoteOnEvent(tick=576, channel=4, data=[74, 100]),\n",
      "   midi.NoteOffEvent(tick=96, channel=4, data=[74, 64]),\n",
      "   midi.NoteOnEvent(tick=0, channel=4, data=[73, 100]),\n",
      "   midi.NoteOffEvent(tick=96, channel=4, data=[73, 64]),\n",
      "   midi.NoteOnEvent(tick=0, channel=4, data=[74, 100]),\n",
      "   midi.NoteOffEvent(tick=96, channel=4, data=[74, 64]),\n",
      "   midi.NoteOnEvent(tick=96, channel=4, data=[74, 100]),\n",
      "   midi.NoteOffEvent(tick=96, channel=4, data=[74, 64]),\n",
      "   midi.NoteOnEvent(tick=96, channel=4, data=[74, 100]),\n",
      "   midi.NoteOffEvent(tick=96, channel=4, data=[74, 64]),\n",
      "   midi.NoteOnEvent(tick=96, channel=4, data=[83, 100]),\n",
      "   midi.NoteOffEvent(tick=192, channel=4, data=[83, 64]),\n",
      "   midi.NoteOnEvent(tick=576, channel=4, data=[73, 100]),\n",
      "   midi.NoteOffEvent(tick=96, channel=4, data=[73, 64]),\n",
      "   midi.NoteOnEvent(tick=0, channel=4, data=[74, 100]),\n",
      "   midi.NoteOffEvent(tick=96, channel=4, data=[74, 64]),\n",
      "   midi.NoteOnEvent(tick=0, channel=4, data=[76, 100]),\n",
      "   midi.NoteOffEvent(tick=96, channel=4, data=[76, 64]),\n",
      "   midi.NoteOnEvent(tick=96, channel=4, data=[76, 100]),\n",
      "   midi.NoteOffEvent(tick=96, channel=4, data=[76, 64]),\n",
      "   midi.NoteOnEvent(tick=96, channel=4, data=[78, 100]),\n",
      "   midi.NoteOffEvent(tick=96, channel=4, data=[78, 64]),\n",
      "   midi.NoteOnEvent(tick=96, channel=4, data=[76, 100]),\n",
      "   midi.NoteOffEvent(tick=96, channel=4, data=[76, 64]),\n",
      "   midi.NoteOnEvent(tick=0, channel=4, data=[81, 100]),\n",
      "   midi.NoteOffEvent(tick=96, channel=4, data=[81, 64]),\n",
      "   midi.NoteOnEvent(tick=0, channel=4, data=[80, 100]),\n",
      "   midi.NoteOffEvent(tick=96, channel=4, data=[80, 64]),\n",
      "   midi.NoteOnEvent(tick=0, channel=4, data=[78, 100]),\n",
      "   midi.NoteOffEvent(tick=96, channel=4, data=[78, 64]),\n",
      "   midi.NoteOnEvent(tick=0, channel=4, data=[76, 100]),\n",
      "   midi.NoteOffEvent(tick=192, channel=4, data=[76, 64]),\n",
      "   midi.NoteOnEvent(tick=0, channel=4, data=[69, 100]),\n",
      "   midi.NoteOffEvent(tick=192, channel=4, data=[69, 64]),\n",
      "   midi.NoteOnEvent(tick=0, channel=4, data=[71, 100]),\n",
      "   midi.NoteOffEvent(tick=384, channel=4, data=[71, 64]),\n",
      "   midi.NoteOnEvent(tick=0, channel=4, data=[68, 100]),\n",
      "   midi.NoteOffEvent(tick=384, channel=4, data=[68, 64]),\n",
      "   midi.NoteOnEvent(tick=0, channel=4, data=[69, 100]),\n",
      "   midi.NoteOffEvent(tick=192, channel=4, data=[69, 64]),\n",
      "   midi.NoteOnEvent(tick=0, channel=4, data=[68, 100]),\n",
      "   midi.NoteOffEvent(tick=96, channel=4, data=[68, 64]),\n",
      "   midi.NoteOnEvent(tick=0, channel=4, data=[66, 100]),\n",
      "   midi.NoteOffEvent(tick=96, channel=4, data=[66, 64]),\n",
      "   midi.NoteOnEvent(tick=0, channel=4, data=[64, 100]),\n",
      "   midi.NoteOffEvent(tick=96, channel=4, data=[64, 64]),\n",
      "   midi.NoteOnEvent(tick=0, channel=4, data=[62, 100]),\n",
      "   midi.NoteOffEvent(tick=96, channel=4, data=[62, 64]),\n",
      "   midi.NoteOnEvent(tick=0, channel=4, data=[61, 100]),\n",
      "   midi.NoteOffEvent(tick=96, channel=4, data=[61, 64]),\n",
      "   midi.NoteOnEvent(tick=0, channel=4, data=[59, 100]),\n",
      "   midi.NoteOffEvent(tick=96, channel=4, data=[59, 64]),\n",
      "   midi.NoteOnEvent(tick=0, channel=4, data=[57, 100]),\n",
      "   midi.NoteOffEvent(tick=192, channel=4, data=[57, 64]),\n",
      "   midi.NoteOnEvent(tick=0, channel=4, data=[69, 100]),\n",
      "   midi.NoteOffEvent(tick=192, channel=4, data=[69, 64]),\n",
      "   midi.NoteOnEvent(tick=0, channel=4, data=[68, 100]),\n",
      "   midi.NoteOffEvent(tick=192, channel=4, data=[68, 64]),\n",
      "   midi.NoteOnEvent(tick=0, channel=4, data=[64, 100]),\n",
      "   midi.NoteOffEvent(tick=192, channel=4, data=[64, 64]),\n",
      "   midi.NoteOnEvent(tick=0, channel=4, data=[69, 100]),\n",
      "   midi.NoteOffEvent(tick=192, channel=4, data=[69, 64]),\n",
      "   midi.NoteOnEvent(tick=0, channel=4, data=[68, 100]),\n",
      "   midi.NoteOffEvent(tick=96, channel=4, data=[68, 64]),\n",
      "   midi.NoteOnEvent(tick=0, channel=4, data=[66, 100]),\n",
      "   midi.NoteOffEvent(tick=96, channel=4, data=[66, 64]),\n",
      "   midi.NoteOnEvent(tick=0, channel=4, data=[64, 100]),\n",
      "   midi.NoteOffEvent(tick=96, channel=4, data=[64, 64]),\n",
      "   midi.NoteOnEvent(tick=0, channel=4, data=[62, 100]),\n",
      "   midi.NoteOffEvent(tick=96, channel=4, data=[62, 64]),\n",
      "   midi.NoteOnEvent(tick=0, channel=4, data=[61, 100]),\n",
      "   midi.NoteOffEvent(tick=96, channel=4, data=[61, 64]),\n",
      "   midi.NoteOnEvent(tick=0, channel=4, data=[59, 100]),\n",
      "   midi.NoteOffEvent(tick=96, channel=4, data=[59, 64]),\n",
      "   midi.NoteOnEvent(tick=0, channel=4, data=[57, 100]),\n",
      "   midi.NoteOffEvent(tick=192, channel=4, data=[57, 64]),\n",
      "   midi.NoteOnEvent(tick=0, channel=4, data=[81, 100]),\n",
      "   midi.NoteOffEvent(tick=192, channel=4, data=[81, 64]),\n",
      "   midi.NoteOnEvent(tick=0, channel=4, data=[71, 100]),\n",
      "   midi.NoteOffEvent(tick=192, channel=4, data=[71, 64]),\n",
      "   midi.NoteOnEvent(tick=0, channel=4, data=[80, 100]),\n",
      "   midi.NoteOffEvent(tick=192, channel=4, data=[80, 64]),\n",
      "   midi.NoteOnEvent(tick=0, channel=4, data=[81, 100]),\n",
      "   midi.NoteOffEvent(tick=96, channel=4, data=[81, 64]),\n",
      "   midi.NoteOnEvent(tick=0, channel=4, data=[69, 100]),\n",
      "   midi.NoteOffEvent(tick=96, channel=4, data=[69, 64]),\n",
      "   midi.NoteOnEvent(tick=0, channel=4, data=[68, 100]),\n",
      "   midi.NoteOffEvent(tick=96, channel=4, data=[68, 64]),\n",
      "   midi.NoteOnEvent(tick=0, channel=4, data=[66, 100]),\n",
      "   midi.NoteOffEvent(tick=96, channel=4, data=[66, 64]),\n",
      "   midi.NoteOnEvent(tick=0, channel=4, data=[64, 100]),\n",
      "   midi.NoteOffEvent(tick=96, channel=4, data=[64, 64]),\n",
      "   midi.NoteOnEvent(tick=0, channel=4, data=[62, 100]),\n",
      "   midi.NoteOffEvent(tick=96, channel=4, data=[62, 64]),\n",
      "   midi.NoteOnEvent(tick=0, channel=4, data=[61, 100]),\n",
      "   midi.NoteOffEvent(tick=96, channel=4, data=[61, 64]),\n",
      "   midi.NoteOnEvent(tick=0, channel=4, data=[59, 100]),\n",
      "   midi.NoteOffEvent(tick=96, channel=4, data=[59, 64]),\n",
      "   midi.NoteOnEvent(tick=0, channel=4, data=[57, 100]),\n",
      "   midi.NoteOffEvent(tick=192, channel=4, data=[57, 64]),\n",
      "   midi.NoteOnEvent(tick=0, channel=4, data=[69, 100]),\n",
      "   midi.NoteOffEvent(tick=192, channel=4, data=[69, 64]),\n",
      "   midi.NoteOnEvent(tick=0, channel=4, data=[68, 100]),\n",
      "   midi.NoteOffEvent(tick=192, channel=4, data=[68, 64]),\n",
      "   midi.NoteOnEvent(tick=0, channel=4, data=[64, 100]),\n",
      "   midi.NoteOffEvent(tick=192, channel=4, data=[64, 64]),\n",
      "   midi.NoteOnEvent(tick=0, channel=4, data=[69, 100]),\n",
      "   midi.NoteOffEvent(tick=192, channel=4, data=[69, 64]),\n",
      "   midi.NoteOnEvent(tick=0, channel=4, data=[68, 100]),\n",
      "   midi.NoteOffEvent(tick=96, channel=4, data=[68, 64]),\n",
      "   midi.NoteOnEvent(tick=0, channel=4, data=[66, 100]),\n",
      "   midi.NoteOffEvent(tick=96, channel=4, data=[66, 64]),\n",
      "   midi.NoteOnEvent(tick=0, channel=4, data=[64, 100]),\n",
      "   midi.NoteOffEvent(tick=96, channel=4, data=[64, 64]),\n",
      "   midi.NoteOnEvent(tick=0, channel=4, data=[62, 100]),\n",
      "   midi.NoteOffEvent(tick=96, channel=4, data=[62, 64]),\n",
      "   midi.NoteOnEvent(tick=0, channel=4, data=[61, 100]),\n",
      "   midi.NoteOffEvent(tick=96, channel=4, data=[61, 64]),\n",
      "   midi.NoteOnEvent(tick=0, channel=4, data=[59, 100]),\n",
      "   midi.NoteOffEvent(tick=96, channel=4, data=[59, 64]),\n",
      "   midi.NoteOnEvent(tick=0, channel=4, data=[57, 100]),\n",
      "   midi.NoteOffEvent(tick=192, channel=4, data=[57, 64]),\n",
      "   midi.NoteOnEvent(tick=0, channel=4, data=[81, 100]),\n",
      "   midi.NoteOffEvent(tick=192, channel=4, data=[81, 64]),\n",
      "   midi.NoteOnEvent(tick=0, channel=4, data=[71, 100]),\n",
      "   midi.NoteOffEvent(tick=192, channel=4, data=[71, 64]),\n",
      "   midi.NoteOnEvent(tick=0, channel=4, data=[80, 100]),\n",
      "   midi.NoteOffEvent(tick=192, channel=4, data=[80, 64]),\n",
      "   midi.NoteOnEvent(tick=0, channel=4, data=[81, 100]),\n",
      "   midi.NoteOffEvent(tick=96, channel=4, data=[81, 64]),\n",
      "   midi.NoteOnEvent(tick=0, channel=4, data=[69, 100]),\n",
      "   midi.NoteOffEvent(tick=96, channel=4, data=[69, 64]),\n",
      "   midi.NoteOnEvent(tick=0, channel=4, data=[68, 100]),\n",
      "   midi.NoteOffEvent(tick=96, channel=4, data=[68, 64]),\n",
      "   midi.NoteOnEvent(tick=0, channel=4, data=[66, 100]),\n",
      "   midi.NoteOffEvent(tick=96, channel=4, data=[66, 64]),\n",
      "   midi.NoteOnEvent(tick=0, channel=4, data=[64, 100]),\n",
      "   midi.NoteOffEvent(tick=96, channel=4, data=[64, 64]),\n",
      "   midi.NoteOnEvent(tick=0, channel=4, data=[62, 100]),\n",
      "   midi.NoteOffEvent(tick=96, channel=4, data=[62, 64]),\n",
      "   midi.NoteOnEvent(tick=0, channel=4, data=[61, 100]),\n",
      "   midi.NoteOffEvent(tick=96, channel=4, data=[61, 64]),\n",
      "   midi.NoteOnEvent(tick=0, channel=4, data=[59, 100]),\n",
      "   midi.NoteOffEvent(tick=96, channel=4, data=[59, 64]),\n",
      "   midi.NoteOnEvent(tick=0, channel=4, data=[62, 100]),\n",
      "   midi.NoteOffEvent(tick=192, channel=4, data=[62, 64]),\n",
      "   midi.NoteOnEvent(tick=0, channel=4, data=[78, 100]),\n",
      "   midi.NoteOffEvent(tick=192, channel=4, data=[78, 64]),\n",
      "   midi.NoteOnEvent(tick=0, channel=4, data=[71, 100]),\n",
      "   midi.NoteOffEvent(tick=192, channel=4, data=[71, 64]),\n",
      "   midi.NoteOnEvent(tick=0, channel=4, data=[66, 100]),\n",
      "   midi.NoteOffEvent(tick=192, channel=4, data=[66, 64]),\n",
      "   midi.NoteOnEvent(tick=0, channel=4, data=[68, 100]),\n",
      "   midi.NoteOffEvent(tick=192, channel=4, data=[68, 64]),\n",
      "   midi.NoteOnEvent(tick=0, channel=4, data=[83, 100]),\n",
      "   midi.NoteOffEvent(tick=96, channel=4, data=[83, 64]),\n",
      "   midi.NoteOnEvent(tick=0, channel=4, data=[81, 100]),\n",
      "   midi.NoteOffEvent(tick=96, channel=4, data=[81, 64]),\n",
      "   midi.NoteOnEvent(tick=0, channel=4, data=[83, 100]),\n",
      "   midi.NoteOffEvent(tick=96, channel=4, data=[83, 64]),\n",
      "   midi.NoteOnEvent(tick=0, channel=4, data=[81, 100]),\n",
      "   midi.NoteOffEvent(tick=96, channel=4, data=[81, 64]),\n",
      "   midi.NoteOnEvent(tick=0, channel=4, data=[80, 100]),\n",
      "   midi.NoteOffEvent(tick=96, channel=4, data=[80, 64]),\n",
      "   midi.NoteOnEvent(tick=0, channel=4, data=[78, 100]),\n",
      "   midi.NoteOffEvent(tick=96, channel=4, data=[78, 64]),\n",
      "   midi.NoteOnEvent(tick=0, channel=4, data=[76, 100]),\n",
      "   midi.NoteOffEvent(tick=192, channel=4, data=[76, 64]),\n",
      "   midi.NoteOnEvent(tick=0, channel=4, data=[73, 100]),\n",
      "   midi.NoteOffEvent(tick=192, channel=4, data=[73, 64]),\n",
      "   midi.NoteOnEvent(tick=0, channel=4, data=[69, 100]),\n",
      "   midi.NoteOffEvent(tick=192, channel=4, data=[69, 64]),\n",
      "   midi.NoteOnEvent(tick=0, channel=4, data=[64, 100]),\n",
      "   midi.NoteOffEvent(tick=192, channel=4, data=[64, 64]),\n",
      "   midi.NoteOnEvent(tick=0, channel=4, data=[66, 100]),\n",
      "   midi.NoteOffEvent(tick=192, channel=4, data=[66, 64]),\n",
      "   midi.NoteOnEvent(tick=0, channel=4, data=[81, 100]),\n",
      "   midi.NoteOffEvent(tick=96, channel=4, data=[81, 64]),\n",
      "   midi.NoteOnEvent(tick=0, channel=4, data=[80, 100]),\n",
      "   midi.NoteOffEvent(tick=96, channel=4, data=[80, 64]),\n",
      "   midi.NoteOnEvent(tick=0, channel=4, data=[81, 100]),\n",
      "   midi.NoteOffEvent(tick=96, channel=4, data=[81, 64]),\n",
      "   midi.NoteOnEvent(tick=0, channel=4, data=[80, 100]),\n",
      "   midi.NoteOffEvent(tick=96, channel=4, data=[80, 64]),\n",
      "   midi.NoteOnEvent(tick=0, channel=4, data=[78, 100]),\n",
      "   midi.NoteOffEvent(tick=96, channel=4, data=[78, 64]),\n",
      "   midi.NoteOnEvent(tick=0, channel=4, data=[76, 100]),\n",
      "   midi.NoteOffEvent(tick=96, channel=4, data=[76, 64]),\n",
      "   midi.NoteOnEvent(tick=0, channel=4, data=[74, 100]),\n",
      "   midi.NoteOffEvent(tick=192, channel=4, data=[74, 64]),\n",
      "   midi.NoteOnEvent(tick=0, channel=4, data=[78, 100]),\n",
      "   midi.NoteOffEvent(tick=192, channel=4, data=[78, 64]),\n",
      "   midi.NoteOnEvent(tick=0, channel=4, data=[80, 100]),\n",
      "   midi.NoteOffEvent(tick=192, channel=4, data=[80, 64]),\n",
      "   midi.NoteOnEvent(tick=0, channel=4, data=[81, 100]),\n",
      "   midi.NoteOffEvent(tick=192, channel=4, data=[81, 64]),\n",
      "   midi.NoteOnEvent(tick=0, channel=4, data=[83, 100]),\n",
      "   midi.NoteOffEvent(tick=96, channel=4, data=[83, 64]),\n",
      "   midi.NoteOnEvent(tick=0, channel=4, data=[80, 100]),\n",
      "   midi.NoteOffEvent(tick=96, channel=4, data=[80, 64]),\n",
      "   midi.NoteOnEvent(tick=0, channel=4, data=[81, 100]),\n",
      "   midi.NoteOffEvent(tick=96, channel=4, data=[81, 64]),\n",
      "   midi.NoteOnEvent(tick=0, channel=4, data=[83, 100]),\n",
      "   midi.NoteOffEvent(tick=96, channel=4, data=[83, 64]),\n",
      "   midi.NoteOnEvent(tick=0, channel=4, data=[76, 100]),\n",
      "   midi.NoteOffEvent(tick=576, channel=4, data=[76, 64]),\n",
      "   midi.NoteOnEvent(tick=0, channel=4, data=[74, 100]),\n",
      "   midi.NoteOffEvent(tick=96, channel=4, data=[74, 64]),\n",
      "   midi.NoteOnEvent(tick=0, channel=4, data=[73, 100]),\n",
      "   midi.NoteOffEvent(tick=96, channel=4, data=[73, 64]),\n",
      "   midi.NoteOnEvent(tick=0, channel=4, data=[74, 100]),\n",
      "   midi.NoteOffEvent(tick=96, channel=4, data=[74, 64]),\n",
      "   midi.NoteOnEvent(tick=0, channel=4, data=[73, 100]),\n",
      "   midi.NoteOffEvent(tick=96, channel=4, data=[73, 64]),\n",
      "   midi.NoteOnEvent(tick=0, channel=4, data=[71, 100]),\n",
      "   midi.NoteOffEvent(tick=96, channel=4, data=[71, 64]),\n",
      "   midi.NoteOnEvent(tick=0, channel=4, data=[73, 100]),\n",
      "   midi.NoteOffEvent(tick=96, channel=4, data=[73, 64]),\n",
      "   midi.NoteOnEvent(tick=0, channel=4, data=[69, 100]),\n",
      "   midi.NoteOffEvent(tick=192, channel=4, data=[69, 64]),\n",
      "   midi.NoteOnEvent(tick=0, channel=4, data=[66, 100]),\n",
      "   midi.NoteOffEvent(tick=192, channel=4, data=[66, 64]),\n",
      "   midi.NoteOnEvent(tick=0, channel=4, data=[64, 100]),\n",
      "   midi.NoteOffEvent(tick=192, channel=4, data=[64, 64]),\n",
      "   midi.NoteOnEvent(tick=0, channel=4, data=[62, 100]),\n",
      "   midi.NoteOffEvent(tick=192, channel=4, data=[62, 64]),\n",
      "   midi.NoteOnEvent(tick=0, channel=4, data=[61, 100]),\n",
      "   midi.NoteOffEvent(tick=384, channel=4, data=[61, 64]),\n",
      "   midi.NoteOnEvent(tick=0, channel=4, data=[73, 100]),\n",
      "   midi.NoteOffEvent(tick=384, channel=4, data=[73, 64]),\n",
      "   midi.NoteOnEvent(tick=384, channel=4, data=[73, 100]),\n",
      "   midi.NoteOffEvent(tick=480, channel=4, data=[73, 64]),\n",
      "   midi.NoteOnEvent(tick=0, channel=4, data=[78, 100]),\n",
      "   midi.NoteOffEvent(tick=96, channel=4, data=[78, 64]),\n",
      "   midi.NoteOnEvent(tick=0, channel=4, data=[76, 100]),\n",
      "   midi.NoteOffEvent(tick=96, channel=4, data=[76, 64]),\n",
      "   midi.NoteOnEvent(tick=0, channel=4, data=[74, 100]),\n",
      "   midi.NoteOffEvent(tick=96, channel=4, data=[74, 64]),\n",
      "   midi.NoteOnEvent(tick=0, channel=4, data=[73, 100]),\n",
      "   midi.NoteOffEvent(tick=192, channel=4, data=[73, 64]),\n",
      "   midi.NoteOnEvent(tick=0, channel=4, data=[71, 100]),\n",
      "   midi.NoteOffEvent(tick=192, channel=4, data=[71, 64]),\n",
      "   midi.NoteOnEvent(tick=0, channel=4, data=[69, 100]),\n",
      "   midi.NoteOffEvent(tick=96, channel=4, data=[69, 64]),\n",
      "   midi.NoteOnEvent(tick=0, channel=4, data=[71, 100]),\n",
      "   midi.NoteOffEvent(tick=96, channel=4, data=[71, 64]),\n",
      "   midi.NoteOnEvent(tick=0, channel=4, data=[73, 100]),\n",
      "   midi.NoteOffEvent(tick=96, channel=4, data=[73, 64]),\n",
      "   midi.NoteOnEvent(tick=96, channel=4, data=[73, 100]),\n",
      "   midi.NoteOffEvent(tick=96, channel=4, data=[73, 64]),\n",
      "   midi.NoteOnEvent(tick=96, channel=4, data=[73, 100]),\n",
      "   midi.NoteOffEvent(tick=384, channel=4, data=[73, 64]),\n",
      "   midi.NoteOnEvent(tick=0, channel=4, data=[71, 100]),\n",
      "   midi.NoteOffEvent(tick=192, channel=4, data=[71, 64]),\n",
      "   midi.NoteOnEvent(tick=0, channel=4, data=[78, 100]),\n",
      "   midi.NoteOffEvent(tick=384, channel=4, data=[78, 64]),\n",
      "   midi.NoteOnEvent(tick=384, channel=4, data=[78, 100]),\n",
      "   midi.NoteOffEvent(tick=576, channel=4, data=[78, 64]),\n",
      "   midi.NoteOnEvent(tick=0, channel=4, data=[76, 100]),\n",
      "   midi.NoteOffEvent(tick=96, channel=4, data=[76, 64]),\n",
      "   midi.NoteOnEvent(tick=0, channel=4, data=[74, 100]),\n",
      "   midi.NoteOffEvent(tick=96, channel=4, data=[74, 64]),\n",
      "   midi.NoteOnEvent(tick=0, channel=4, data=[73, 100]),\n",
      "   midi.NoteOffEvent(tick=96, channel=4, data=[73, 64]),\n",
      "   midi.NoteOnEvent(tick=0, channel=4, data=[74, 100]),\n",
      "   midi.NoteOffEvent(tick=96, channel=4, data=[74, 64]),\n",
      "   midi.NoteOnEvent(tick=0, channel=4, data=[76, 100]),\n",
      "   midi.NoteOffEvent(tick=192, channel=4, data=[76, 64]),\n",
      "   midi.NoteOnEvent(tick=0, channel=4, data=[74, 100]),\n",
      "   midi.NoteOffEvent(tick=96, channel=4, data=[74, 64]),\n",
      "   midi.NoteOnEvent(tick=0, channel=4, data=[76, 100]),\n",
      "   midi.NoteOffEvent(tick=96, channel=4, data=[76, 64]),\n",
      "   midi.NoteOnEvent(tick=0, channel=4, data=[78, 100]),\n",
      "   midi.NoteOffEvent(tick=96, channel=4, data=[78, 64]),\n",
      "   midi.NoteOnEvent(tick=96, channel=4, data=[78, 100]),\n",
      "   midi.NoteOffEvent(tick=96, channel=4, data=[78, 64]),\n",
      "   midi.NoteOnEvent(tick=96, channel=4, data=[78, 100]),\n",
      "   midi.NoteOffEvent(tick=384, channel=4, data=[78, 64]),\n",
      "   midi.NoteOnEvent(tick=0, channel=4, data=[76, 100]),\n",
      "   midi.NoteOffEvent(tick=192, channel=4, data=[76, 64]),\n",
      "   midi.NoteOnEvent(tick=0, channel=4, data=[79, 100]),\n",
      "   midi.NoteOffEvent(tick=384, channel=4, data=[79, 64]),\n",
      "   midi.NoteOnEvent(tick=96, channel=4, data=[69, 100]),\n",
      "   midi.NoteOffEvent(tick=96, channel=4, data=[69, 64]),\n",
      "   midi.NoteOnEvent(tick=0, channel=4, data=[68, 100]),\n",
      "   midi.NoteOffEvent(tick=96, channel=4, data=[68, 64]),\n",
      "   midi.NoteOnEvent(tick=0, channel=4, data=[69, 100]),\n",
      "   midi.NoteOffEvent(tick=96, channel=4, data=[69, 64]),\n",
      "   midi.NoteOnEvent(tick=0, channel=4, data=[71, 100]),\n",
      "   midi.NoteOffEvent(tick=96, channel=4, data=[71, 64]),\n",
      "   midi.NoteOnEvent(tick=0, channel=4, data=[73, 100]),\n",
      "   midi.NoteOffEvent(tick=96, channel=4, data=[73, 64]),\n",
      "   midi.NoteOnEvent(tick=0, channel=4, data=[74, 100]),\n",
      "   midi.NoteOffEvent(tick=96, channel=4, data=[74, 64]),\n",
      "   midi.NoteOnEvent(tick=0, channel=4, data=[76, 100]),\n",
      "   midi.NoteOffEvent(tick=96, channel=4, data=[76, 64]),\n",
      "   midi.NoteOnEvent(tick=0, channel=4, data=[78, 100]),\n",
      "   midi.NoteOffEvent(tick=192, channel=4, data=[78, 64]),\n",
      "   midi.NoteOnEvent(tick=0, channel=4, data=[74, 100]),\n",
      "   midi.NoteOffEvent(tick=96, channel=4, data=[74, 64]),\n",
      "   midi.NoteOnEvent(tick=0, channel=4, data=[69, 100]),\n",
      "   midi.NoteOffEvent(tick=96, channel=4, data=[69, 64]),\n",
      "   midi.NoteOnEvent(tick=0, channel=4, data=[78, 100]),\n",
      "   midi.NoteOffEvent(tick=384, channel=4, data=[78, 64]),\n",
      "   midi.NoteOnEvent(tick=96, channel=4, data=[81, 100]),\n",
      "   midi.NoteOffEvent(tick=96, channel=4, data=[81, 64]),\n",
      "   midi.NoteOnEvent(tick=0, channel=4, data=[79, 100]),\n",
      "   midi.NoteOffEvent(tick=96, channel=4, data=[79, 64]),\n",
      "   midi.NoteOnEvent(tick=0, channel=4, data=[78, 100]),\n",
      "   midi.NoteOffEvent(tick=96, channel=4, data=[78, 64]),\n",
      "   midi.NoteOnEvent(tick=0, channel=4, data=[76, 100]),\n",
      "   midi.NoteOffEvent(tick=96, channel=4, data=[76, 64]),\n",
      "   midi.NoteOnEvent(tick=0, channel=4, data=[74, 100]),\n",
      "   midi.NoteOffEvent(tick=96, channel=4, data=[74, 64]),\n",
      "   midi.NoteOnEvent(tick=0, channel=4, data=[73, 100]),\n",
      "   midi.NoteOffEvent(tick=96, channel=4, data=[73, 64]),\n",
      "   midi.NoteOnEvent(tick=0, channel=4, data=[71, 100]),\n",
      "   midi.NoteOffEvent(tick=96, channel=4, data=[71, 64]),\n",
      "   midi.NoteOnEvent(tick=0, channel=4, data=[76, 100]),\n",
      "   midi.NoteOffEvent(tick=384, channel=4, data=[76, 64]),\n",
      "   midi.NoteOnEvent(tick=192, channel=4, data=[64, 100]),\n",
      "   midi.NoteOffEvent(tick=192, channel=4, data=[64, 64]),\n",
      "   midi.NoteOnEvent(tick=0, channel=4, data=[76, 100]),\n",
      "   midi.NoteOffEvent(tick=96, channel=4, data=[76, 64]),\n",
      "   midi.NoteOnEvent(tick=0, channel=4, data=[79, 100]),\n",
      "   midi.NoteOffEvent(tick=96, channel=4, data=[79, 64]),\n",
      "   midi.NoteOnEvent(tick=0, channel=4, data=[78, 100]),\n",
      "   midi.NoteOffEvent(tick=96, channel=4, data=[78, 64]),\n",
      "   midi.NoteOnEvent(tick=0, channel=4, data=[76, 100]),\n",
      "   midi.NoteOffEvent(tick=96, channel=4, data=[76, 64]),\n",
      "   midi.NoteOnEvent(tick=0, channel=4, data=[78, 100]),\n",
      "   midi.NoteOffEvent(tick=96, channel=4, data=[78, 64]),\n",
      "   midi.NoteOnEvent(tick=0, channel=4, data=[76, 100]),\n",
      "   midi.NoteOffEvent(tick=96, channel=4, data=[76, 64]),\n",
      "   midi.NoteOnEvent(tick=0, channel=4, data=[74, 100]),\n",
      "   midi.NoteOffEvent(tick=96, channel=4, data=[74, 64]),\n",
      "   midi.NoteOnEvent(tick=0, channel=4, data=[73, 100]),\n",
      "   midi.NoteOffEvent(tick=96, channel=4, data=[73, 64]),\n",
      "   midi.NoteOnEvent(tick=0, channel=4, data=[76, 100]),\n",
      "   midi.NoteOffEvent(tick=96, channel=4, data=[76, 64]),\n",
      "   midi.NoteOnEvent(tick=0, channel=4, data=[74, 100]),\n",
      "   midi.NoteOffEvent(tick=96, channel=4, data=[74, 64]),\n",
      "   midi.NoteOnEvent(tick=0, channel=4, data=[73, 100]),\n",
      "   midi.NoteOffEvent(tick=96, channel=4, data=[73, 64]),\n",
      "   midi.NoteOnEvent(tick=0, channel=4, data=[71, 100]),\n",
      "   midi.NoteOffEvent(tick=96, channel=4, data=[71, 64]),\n",
      "   midi.NoteOnEvent(tick=0, channel=4, data=[73, 100]),\n",
      "   midi.NoteOffEvent(tick=192, channel=4, data=[73, 64]),\n",
      "   midi.NoteOnEvent(tick=0, channel=4, data=[70, 100]),\n",
      "   midi.NoteOffEvent(tick=192, channel=4, data=[70, 64]),\n",
      "   midi.NoteOnEvent(tick=0, channel=4, data=[71, 100]),\n",
      "   midi.NoteOffEvent(tick=384, channel=4, data=[71, 64]),\n",
      "   midi.NoteOnEvent(tick=576, channel=4, data=[67, 100]),\n",
      "   midi.NoteOffEvent(tick=96, channel=4, data=[67, 64]),\n",
      "   midi.NoteOnEvent(tick=0, channel=4, data=[66, 100]),\n",
      "   midi.NoteOffEvent(tick=96, channel=4, data=[66, 64]),\n",
      "   midi.NoteOnEvent(tick=0, channel=4, data=[64, 100]),\n",
      "   midi.NoteOffEvent(tick=96, channel=4, data=[64, 64]),\n",
      "   midi.NoteOnEvent(tick=0, channel=4, data=[62, 100]),\n",
      "   midi.NoteOffEvent(tick=96, channel=4, data=[62, 64]),\n",
      "   midi.NoteOnEvent(tick=0, channel=4, data=[61, 100]),\n",
      "   midi.NoteOffEvent(tick=96, channel=4, data=[61, 64]),\n",
      "   midi.NoteOnEvent(tick=0, channel=4, data=[59, 100]),\n",
      "   midi.NoteOffEvent(tick=96, channel=4, data=[59, 64]),\n",
      "   midi.NoteOnEvent(tick=0, channel=4, data=[58, 100]),\n",
      "   midi.NoteOffEvent(tick=192, channel=4, data=[58, 64]),\n",
      "   midi.NoteOnEvent(tick=0, channel=4, data=[61, 100]),\n",
      "   midi.NoteOffEvent(tick=192, channel=4, data=[61, 64]),\n",
      "   midi.NoteOnEvent(tick=0, channel=4, data=[64, 100]),\n",
      "   midi.NoteOffEvent(tick=192, channel=4, data=[64, 64]),\n",
      "   midi.NoteOnEvent(tick=0, channel=4, data=[70, 100]),\n",
      "   midi.NoteOffEvent(tick=192, channel=4, data=[70, 64]),\n",
      "   midi.NoteOnEvent(tick=0, channel=4, data=[70, 100]),\n",
      "   midi.NoteOffEvent(tick=192, channel=4, data=[70, 64]),\n",
      "   midi.NoteOnEvent(tick=0, channel=4, data=[78, 100]),\n",
      "   midi.NoteOffEvent(tick=256, channel=4, data=[78, 64]),\n",
      "   midi.NoteOnEvent(tick=32, channel=4, data=[76, 100]),\n",
      "   midi.NoteOffEvent(tick=96, channel=4, data=[76, 64]),\n",
      "   midi.NoteOnEvent(tick=0, channel=4, data=[74, 100]),\n",
      "   midi.NoteOffEvent(tick=96, channel=4, data=[74, 64]),\n",
      "   midi.NoteOnEvent(tick=0, channel=4, data=[73, 100]),\n",
      "   midi.NoteOffEvent(tick=96, channel=4, data=[73, 64]),\n",
      "   midi.NoteOnEvent(tick=0, channel=4, data=[74, 100]),\n",
      "   midi.NoteOffEvent(tick=192, channel=4, data=[74, 64]),\n",
      "   midi.NoteOnEvent(tick=0, channel=4, data=[62, 100]),\n",
      "   midi.NoteOffEvent(tick=192, channel=4, data=[62, 64]),\n",
      "   midi.NoteOnEvent(tick=0, channel=4, data=[66, 100]),\n",
      "   midi.NoteOffEvent(tick=192, channel=4, data=[66, 64]),\n",
      "   midi.NoteOnEvent(tick=0, channel=4, data=[71, 100]),\n",
      "   midi.NoteOffEvent(tick=192, channel=4, data=[71, 64]),\n",
      "   midi.NoteOnEvent(tick=0, channel=4, data=[75, 100]),\n",
      "   midi.NoteOffEvent(tick=192, channel=4, data=[75, 64]),\n",
      "   midi.NoteOnEvent(tick=0, channel=4, data=[66, 100]),\n",
      "   midi.NoteOffEvent(tick=192, channel=4, data=[66, 64]),\n",
      "   midi.NoteOnEvent(tick=0, channel=4, data=[69, 100]),\n",
      "   midi.NoteOffEvent(tick=192, channel=4, data=[69, 64]),\n",
      "   midi.NoteOnEvent(tick=0, channel=4, data=[75, 100]),\n",
      "   midi.NoteOffEvent(tick=192, channel=4, data=[75, 64]),\n",
      "   midi.NoteOnEvent(tick=0, channel=4, data=[78, 100]),\n",
      "   midi.NoteOffEvent(tick=192, channel=4, data=[78, 64]),\n",
      "   midi.NoteOnEvent(tick=0, channel=4, data=[72, 100]),\n",
      "   midi.NoteOffEvent(tick=96, channel=4, data=[72, 64]),\n",
      "   midi.NoteOnEvent(tick=0, channel=4, data=[71, 100]),\n",
      "   midi.NoteOffEvent(tick=96, channel=4, data=[71, 64]),\n",
      "   midi.NoteOnEvent(tick=0, channel=4, data=[69, 100]),\n",
      "   midi.NoteOffEvent(tick=96, channel=4, data=[69, 64]),\n",
      "   midi.NoteOnEvent(tick=0, channel=4, data=[67, 100]),\n",
      "   midi.NoteOffEvent(tick=96, channel=4, data=[67, 64]),\n",
      "   midi.NoteOnEvent(tick=0, channel=4, data=[66, 100]),\n",
      "   midi.NoteOffEvent(tick=96, channel=4, data=[66, 64]),\n",
      "   midi.NoteOnEvent(tick=0, channel=4, data=[64, 100]),\n",
      "   midi.NoteOffEvent(tick=96, channel=4, data=[64, 64]),\n",
      "   midi.NoteOnEvent(tick=0, channel=4, data=[63, 100]),\n",
      "   midi.NoteOffEvent(tick=192, channel=4, data=[63, 64]),\n",
      "   midi.NoteOnEvent(tick=0, channel=4, data=[83, 100]),\n",
      "   midi.NoteOffEvent(tick=256, channel=4, data=[83, 64]),\n",
      "   midi.NoteOnEvent(tick=32, channel=4, data=[81, 100]),\n",
      "   midi.NoteOffEvent(tick=96, channel=4, data=[81, 64]),\n",
      "   midi.NoteOnEvent(tick=0, channel=4, data=[79, 100]),\n",
      "   midi.NoteOffEvent(tick=96, channel=4, data=[79, 64]),\n",
      "   midi.NoteOnEvent(tick=0, channel=4, data=[78, 100]),\n",
      "   midi.NoteOffEvent(tick=96, channel=4, data=[78, 64]),\n",
      "   midi.NoteOnEvent(tick=0, channel=4, data=[79, 100]),\n",
      "   midi.NoteOffEvent(tick=192, channel=4, data=[79, 64]),\n",
      "   midi.NoteOnEvent(tick=0, channel=4, data=[67, 100]),\n",
      "   midi.NoteOffEvent(tick=192, channel=4, data=[67, 64]),\n",
      "   midi.NoteOnEvent(tick=0, channel=4, data=[71, 100]),\n",
      "   midi.NoteOffEvent(tick=192, channel=4, data=[71, 64]),\n",
      "   midi.NoteOnEvent(tick=0, channel=4, data=[74, 100]),\n",
      "   midi.NoteOffEvent(tick=192, channel=4, data=[74, 64]),\n",
      "   midi.NoteOnEvent(tick=0, channel=4, data=[80, 100]),\n",
      "   midi.NoteOffEvent(tick=192, channel=4, data=[80, 64]),\n",
      "   midi.NoteOnEvent(tick=0, channel=4, data=[73, 100]),\n",
      "   midi.NoteOffEvent(tick=384, channel=4, data=[73, 64]),\n",
      "   midi.NoteOnEvent(tick=0, channel=4, data=[73, 100]),\n",
      "   midi.NoteOnEvent(tick=192, channel=4, data=[73, 100]),\n",
      "   midi.NoteOffEvent(tick=96, channel=4, data=[73, 64]),\n",
      "   midi.NoteOffEvent(tick=0, channel=4, data=[73, 64]),\n",
      "   midi.NoteOnEvent(tick=0, channel=4, data=[71, 100]),\n",
      "   midi.NoteOffEvent(tick=96, channel=4, data=[71, 64]),\n",
      "   midi.NoteOnEvent(tick=0, channel=4, data=[70, 100]),\n",
      "   midi.NoteOffEvent(tick=96, channel=4, data=[70, 64]),\n",
      "   midi.NoteOnEvent(tick=0, channel=4, data=[71, 100]),\n",
      "   midi.NoteOffEvent(tick=96, channel=4, data=[71, 64]),\n",
      "   midi.NoteOnEvent(tick=0, channel=4, data=[73, 100]),\n",
      "   midi.NoteOffEvent(tick=192, channel=4, data=[73, 64]),\n",
      "   midi.NoteOnEvent(tick=0, channel=4, data=[74, 100]),\n",
      "   midi.NoteOffEvent(tick=192, channel=4, data=[74, 64]),\n",
      "   midi.NoteOnEvent(tick=0, channel=4, data=[76, 100]),\n",
      "   midi.NoteOffEvent(tick=864, channel=4, data=[76, 64]),\n",
      "   midi.NoteOnEvent(tick=0, channel=4, data=[74, 100]),\n",
      "   midi.NoteOffEvent(tick=96, channel=4, data=[74, 64]),\n",
      "   midi.NoteOnEvent(tick=0, channel=4, data=[73, 100]),\n",
      "   midi.NoteOffEvent(tick=96, channel=4, data=[73, 64]),\n",
      "   midi.NoteOnEvent(tick=0, channel=4, data=[74, 100]),\n",
      "   midi.NoteOffEvent(tick=96, channel=4, data=[74, 64]),\n",
      "   midi.NoteOnEvent(tick=0, channel=4, data=[76, 100]),\n",
      "   midi.NoteOffEvent(tick=192, channel=4, data=[76, 64]),\n",
      "   midi.NoteOnEvent(tick=0, channel=4, data=[78, 100]),\n",
      "   midi.NoteOffEvent(tick=192, channel=4, data=[78, 64]),\n",
      "   midi.NoteOnEvent(tick=0, channel=4, data=[74, 100]),\n",
      "   midi.NoteOffEvent(tick=96, channel=4, data=[74, 64]),\n",
      "   midi.NoteOnEvent(tick=0, channel=4, data=[73, 100]),\n",
      "   midi.NoteOffEvent(tick=96, channel=4, data=[73, 64]),\n",
      "   midi.NoteOnEvent(tick=0, channel=4, data=[71, 100]),\n",
      "   midi.NoteOffEvent(tick=96, channel=4, data=[71, 64]),\n",
      "   midi.NoteOnEvent(tick=0, channel=4, data=[73, 100]),\n",
      "   midi.NoteOffEvent(tick=96, channel=4, data=[73, 64]),\n",
      "   midi.NoteOnEvent(tick=0, channel=4, data=[74, 100]),\n",
      "   midi.NoteOffEvent(tick=96, channel=4, data=[74, 64]),\n",
      "   midi.NoteOnEvent(tick=0, channel=4, data=[73, 100]),\n",
      "   midi.NoteOffEvent(tick=96, channel=4, data=[73, 64]),\n",
      "   midi.NoteOnEvent(tick=0, channel=4, data=[71, 100]),\n",
      "   midi.NoteOffEvent(tick=96, channel=4, data=[71, 64]),\n",
      "   midi.NoteOnEvent(tick=0, channel=4, data=[73, 100]),\n",
      "   midi.NoteOffEvent(tick=96, channel=4, data=[73, 64]),\n",
      "   midi.NoteOnEvent(tick=0, channel=4, data=[74, 100]),\n",
      "   midi.NoteOffEvent(tick=96, channel=4, data=[74, 64]),\n",
      "   midi.NoteOnEvent(tick=0, channel=4, data=[73, 100]),\n",
      "   midi.NoteOffEvent(tick=96, channel=4, data=[73, 64]),\n",
      "   midi.NoteOnEvent(tick=0, channel=4, data=[74, 100]),\n",
      "   midi.NoteOffEvent(tick=96, channel=4, data=[74, 64]),\n",
      "   midi.NoteOnEvent(tick=0, channel=4, data=[76, 100]),\n",
      "   midi.NoteOffEvent(tick=96, channel=4, data=[76, 64]),\n",
      "   midi.NoteOnEvent(tick=0, channel=4, data=[78, 100]),\n",
      "   midi.NoteOffEvent(tick=192, channel=4, data=[78, 64]),\n",
      "   midi.NoteOnEvent(tick=0, channel=4, data=[71, 100]),\n",
      "   midi.NoteOffEvent(tick=192, channel=4, data=[71, 64]),\n",
      "   midi.NoteOnEvent(tick=0, channel=4, data=[74, 100]),\n",
      "   midi.NoteOffEvent(tick=384, channel=4, data=[74, 64]),\n",
      "   midi.NoteOnEvent(tick=0, channel=4, data=[73, 100]),\n",
      "   midi.NoteOffEvent(tick=384, channel=4, data=[73, 64]),\n",
      "   midi.NoteOnEvent(tick=0, channel=4, data=[71, 100]),\n",
      "   midi.NoteOffEvent(tick=192, channel=4, data=[71, 64]),\n",
      "   midi.NoteOnEvent(tick=0, channel=4, data=[67, 100]),\n",
      "   midi.NoteOffEvent(tick=192, channel=4, data=[67, 64]),\n",
      "   midi.NoteOnEvent(tick=0, channel=4, data=[66, 100]),\n",
      "   midi.NoteOffEvent(tick=192, channel=4, data=[66, 64]),\n",
      "   midi.NoteOnEvent(tick=0, channel=4, data=[64, 100]),\n",
      "   midi.NoteOffEvent(tick=192, channel=4, data=[64, 64]),\n",
      "   midi.NoteOnEvent(tick=0, channel=4, data=[62, 100]),\n",
      "   midi.NoteOffEvent(tick=384, channel=4, data=[62, 64]),\n",
      "   midi.NoteOnEvent(tick=0, channel=4, data=[74, 100]),\n",
      "   midi.NoteOffEvent(tick=384, channel=4, data=[74, 64]),\n",
      "   midi.NoteOnEvent(tick=384, channel=4, data=[74, 100]),\n",
      "   midi.NoteOffEvent(tick=480, channel=4, data=[74, 64]),\n",
      "   midi.NoteOnEvent(tick=0, channel=4, data=[79, 100]),\n",
      "   midi.NoteOffEvent(tick=96, channel=4, data=[79, 64]),\n",
      "   midi.NoteOnEvent(tick=0, channel=4, data=[78, 100]),\n",
      "   midi.NoteOffEvent(tick=96, channel=4, data=[78, 64]),\n",
      "   midi.NoteOnEvent(tick=0, channel=4, data=[76, 100]),\n",
      "   midi.NoteOffEvent(tick=96, channel=4, data=[76, 64]),\n",
      "   midi.NoteOnEvent(tick=0, channel=4, data=[74, 100]),\n",
      "   midi.NoteOffEvent(tick=192, channel=4, data=[74, 64]),\n",
      "   midi.NoteOnEvent(tick=0, channel=4, data=[72, 100]),\n",
      "   midi.NoteOffEvent(tick=192, channel=4, data=[72, 64]),\n",
      "   midi.NoteOnEvent(tick=0, channel=4, data=[71, 100]),\n",
      "   midi.NoteOffEvent(tick=96, channel=4, data=[71, 64]),\n",
      "   midi.NoteOnEvent(tick=0, channel=4, data=[72, 100]),\n",
      "   midi.NoteOffEvent(tick=96, channel=4, data=[72, 64]),\n",
      "   midi.NoteOnEvent(tick=0, channel=4, data=[74, 100]),\n",
      "   midi.NoteOffEvent(tick=96, channel=4, data=[74, 64]),\n",
      "   midi.NoteOnEvent(tick=96, channel=4, data=[74, 100]),\n",
      "   midi.NoteOffEvent(tick=96, channel=4, data=[74, 64]),\n",
      "   midi.NoteOnEvent(tick=96, channel=4, data=[74, 100]),\n",
      "   midi.NoteOffEvent(tick=384, channel=4, data=[74, 64]),\n",
      "   midi.NoteOnEvent(tick=0, channel=4, data=[71, 100]),\n",
      "   midi.NoteOffEvent(tick=96, channel=4, data=[71, 64]),\n",
      "   midi.NoteOnEvent(tick=0, channel=4, data=[67, 100]),\n",
      "   midi.NoteOffEvent(tick=96, channel=4, data=[67, 64]),\n",
      "   midi.NoteOnEvent(tick=0, channel=4, data=[76, 100]),\n",
      "   midi.NoteOffEvent(tick=384, channel=4, data=[76, 64]),\n",
      "   midi.NoteOnEvent(tick=384, channel=4, data=[78, 100]),\n",
      "   midi.NoteOffEvent(tick=192, channel=4, data=[78, 64]),\n",
      "   midi.NoteOnEvent(tick=0, channel=4, data=[75, 100]),\n",
      "   midi.NoteOffEvent(tick=192, channel=4, data=[75, 64]),\n",
      "   midi.NoteOnEvent(tick=0, channel=4, data=[76, 100]),\n",
      "   midi.NoteOffEvent(tick=96, channel=4, data=[76, 64]),\n",
      "   midi.NoteOnEvent(tick=0, channel=4, data=[73, 100]),\n",
      "   midi.NoteOffEvent(tick=96, channel=4, data=[73, 64]),\n",
      "   midi.NoteOnEvent(tick=0, channel=4, data=[76, 100]),\n",
      "   midi.NoteOffEvent(tick=384, channel=4, data=[76, 64]),\n",
      "   midi.NoteOnEvent(tick=0, channel=4, data=[75, 100]),\n",
      "   midi.NoteOffEvent(tick=192, channel=4, data=[75, 64]),\n",
      "   midi.NoteOnEvent(tick=0, channel=4, data=[76, 100]),\n",
      "   midi.NoteOffEvent(tick=480, channel=4, data=[76, 64]),\n",
      "   midi.NoteOnEvent(tick=0, channel=4, data=[71, 100]),\n",
      "   midi.NoteOffEvent(tick=96, channel=4, data=[71, 64]),\n",
      "   midi.NoteOnEvent(tick=0, channel=4, data=[69, 100]),\n",
      "   midi.NoteOffEvent(tick=96, channel=4, data=[69, 64]),\n",
      "   midi.NoteOnEvent(tick=0, channel=4, data=[71, 100]),\n",
      "   midi.NoteOffEvent(tick=96, channel=4, data=[71, 64]),\n",
      "   midi.NoteOnEvent(tick=0, channel=4, data=[73, 100]),\n",
      "   midi.NoteOffEvent(tick=96, channel=4, data=[73, 64]),\n",
      "   midi.NoteOnEvent(tick=0, channel=4, data=[74, 100]),\n",
      "   midi.NoteOffEvent(tick=96, channel=4, data=[74, 64]),\n",
      "   midi.NoteOnEvent(tick=0, channel=4, data=[76, 100]),\n",
      "   midi.NoteOffEvent(tick=96, channel=4, data=[76, 64]),\n",
      "   midi.NoteOnEvent(tick=96, channel=4, data=[76, 100]),\n",
      "   midi.NoteOffEvent(tick=96, channel=4, data=[76, 64]),\n",
      "   midi.NoteOnEvent(tick=96, channel=4, data=[73, 100]),\n",
      "   midi.NoteOffEvent(tick=96, channel=4, data=[73, 64]),\n",
      "   midi.NoteOnEvent(tick=96, channel=4, data=[69, 100]),\n",
      "   midi.NoteOffEvent(tick=480, channel=4, data=[69, 64]),\n",
      "   midi.NoteOnEvent(tick=0, channel=4, data=[73, 100]),\n",
      "   midi.NoteOffEvent(tick=96, channel=4, data=[73, 64]),\n",
      "   midi.NoteOnEvent(tick=0, channel=4, data=[71, 100]),\n",
      "   midi.NoteOffEvent(tick=96, channel=4, data=[71, 64]),\n",
      "   midi.NoteOnEvent(tick=0, channel=4, data=[69, 100]),\n",
      "   midi.NoteOffEvent(tick=96, channel=4, data=[69, 64]),\n",
      "   midi.NoteOnEvent(tick=0, channel=4, data=[71, 100]),\n",
      "   midi.NoteOffEvent(tick=96, channel=4, data=[71, 64]),\n",
      "   midi.NoteOnEvent(tick=0, channel=4, data=[73, 100]),\n",
      "   midi.NoteOffEvent(tick=96, channel=4, data=[73, 64]),\n",
      "   midi.NoteOnEvent(tick=0, channel=4, data=[74, 100]),\n",
      "   midi.NoteOffEvent(tick=96, channel=4, data=[74, 64]),\n",
      "   midi.NoteOnEvent(tick=96, channel=4, data=[74, 100]),\n",
      "   midi.NoteOffEvent(tick=96, channel=4, data=[74, 64]),\n",
      "   midi.NoteOnEvent(tick=96, channel=4, data=[71, 100]),\n",
      "   midi.NoteOffEvent(tick=96, channel=4, data=[71, 64]),\n",
      "   midi.NoteOnEvent(tick=96, channel=4, data=[77, 100]),\n",
      "   midi.NoteOffEvent(tick=192, channel=4, data=[77, 64]),\n",
      "   midi.NoteOnEvent(tick=0, channel=4, data=[73, 100]),\n",
      "   midi.NoteOffEvent(tick=192, channel=4, data=[73, 64]),\n",
      "   midi.NoteOnEvent(tick=0, channel=4, data=[80, 100]),\n",
      "   midi.NoteOffEvent(tick=384, channel=4, data=[80, 64]),\n",
      "   midi.NoteOnEvent(tick=192, channel=4, data=[73, 100]),\n",
      "   midi.NoteOffEvent(tick=192, channel=4, data=[73, 64]),\n",
      "   midi.NoteOnEvent(tick=0, channel=4, data=[78, 100]),\n",
      "   midi.NoteOffEvent(tick=192, channel=4, data=[78, 64]),\n",
      "   midi.NoteOnEvent(tick=0, channel=4, data=[76, 100]),\n",
      "   midi.NoteOffEvent(tick=192, channel=4, data=[76, 64]),\n",
      "   midi.NoteOnEvent(tick=0, channel=4, data=[74, 100]),\n",
      "   midi.NoteOffEvent(tick=96, channel=4, data=[74, 64]),\n",
      "   midi.NoteOnEvent(tick=0, channel=4, data=[73, 100]),\n",
      "   midi.NoteOffEvent(tick=96, channel=4, data=[73, 64]),\n",
      "   midi.NoteOnEvent(tick=0, channel=4, data=[71, 100]),\n",
      "   midi.NoteOffEvent(tick=96, channel=4, data=[71, 64]),\n",
      "   midi.NoteOnEvent(tick=0, channel=4, data=[69, 100]),\n",
      "   midi.NoteOffEvent(tick=96, channel=4, data=[69, 64]),\n",
      "   midi.NoteOnEvent(tick=0, channel=4, data=[71, 100]),\n",
      "   midi.NoteOnEvent(tick=384, channel=4, data=[71, 100]),\n",
      "   midi.NoteOffEvent(tick=192, channel=4, data=[71, 64]),\n",
      "   midi.NoteOffEvent(tick=0, channel=4, data=[71, 64]),\n",
      "   midi.NoteOnEvent(tick=0, channel=4, data=[74, 100]),\n",
      "   midi.NoteOffEvent(tick=192, channel=4, data=[74, 64]),\n",
      "   midi.NoteOnEvent(tick=0, channel=4, data=[73, 100]),\n",
      "   midi.NoteOffEvent(tick=192, channel=4, data=[73, 64]),\n",
      "   midi.NoteOnEvent(tick=0, channel=4, data=[71, 100]),\n",
      "   midi.NoteOffEvent(tick=192, channel=4, data=[71, 64]),\n",
      "   midi.NoteOnEvent(tick=0, channel=4, data=[69, 100]),\n",
      "   midi.NoteOffEvent(tick=384, channel=4, data=[69, 64]),\n",
      "   midi.NoteOnEvent(tick=0, channel=4, data=[68, 100]),\n",
      "   midi.NoteOffEvent(tick=384, channel=4, data=[68, 64]),\n",
      "   midi.NoteOnEvent(tick=0, channel=4, data=[66, 100]),\n",
      "   midi.NoteOffEvent(tick=384, channel=4, data=[66, 64]),\n",
      "   midi.NoteOnEvent(tick=384, channel=4, data=[62, 100]),\n",
      "   midi.NoteOffEvent(tick=192, channel=4, data=[62, 64]),\n",
      "   midi.NoteOnEvent(tick=0, channel=4, data=[74, 100]),\n",
      "   midi.NoteOffEvent(tick=192, channel=4, data=[74, 64]),\n",
      "   midi.NoteOnEvent(tick=0, channel=4, data=[73, 100]),\n",
      "   midi.NoteOffEvent(tick=192, channel=4, data=[73, 64]),\n",
      "   midi.NoteOnEvent(tick=0, channel=4, data=[69, 100]),\n",
      "   midi.NoteOffEvent(tick=192, channel=4, data=[69, 64]),\n",
      "   midi.NoteOnEvent(tick=0, channel=4, data=[74, 100]),\n",
      "   midi.NoteOffEvent(tick=192, channel=4, data=[74, 64]),\n",
      "   midi.NoteOnEvent(tick=0, channel=4, data=[73, 100]),\n",
      "   midi.NoteOffEvent(tick=96, channel=4, data=[73, 64]),\n",
      "   midi.NoteOnEvent(tick=0, channel=4, data=[71, 100]),\n",
      "   midi.NoteOffEvent(tick=96, channel=4, data=[71, 64]),\n",
      "   midi.NoteOnEvent(tick=0, channel=4, data=[69, 100]),\n",
      "   midi.NoteOffEvent(tick=96, channel=4, data=[69, 64]),\n",
      "   midi.NoteOnEvent(tick=0, channel=4, data=[67, 100]),\n",
      "   midi.NoteOffEvent(tick=96, channel=4, data=[67, 64]),\n",
      "   midi.NoteOnEvent(tick=0, channel=4, data=[66, 100]),\n",
      "   midi.NoteOffEvent(tick=96, channel=4, data=[66, 64]),\n",
      "   midi.NoteOnEvent(tick=0, channel=4, data=[64, 100]),\n",
      "   midi.NoteOffEvent(tick=96, channel=4, data=[64, 64]),\n",
      "   midi.NoteOnEvent(tick=0, channel=4, data=[62, 100]),\n",
      "   midi.NoteOffEvent(tick=192, channel=4, data=[62, 64]),\n",
      "   midi.NoteOnEvent(tick=0, channel=4, data=[86, 100]),\n",
      "   midi.NoteOffEvent(tick=192, channel=4, data=[86, 64]),\n",
      "   midi.NoteOnEvent(tick=0, channel=4, data=[76, 100]),\n",
      "   midi.NoteOffEvent(tick=192, channel=4, data=[76, 64]),\n",
      "   midi.NoteOnEvent(tick=0, channel=4, data=[85, 100]),\n",
      "   midi.NoteOffEvent(tick=192, channel=4, data=[85, 64]),\n",
      "   midi.NoteOnEvent(tick=0, channel=4, data=[86, 100]),\n",
      "   midi.NoteOffEvent(tick=192, channel=4, data=[86, 64]),\n",
      "   midi.NoteOnEvent(tick=0, channel=4, data=[85, 100]),\n",
      "   midi.NoteOffEvent(tick=96, channel=4, data=[85, 64]),\n",
      "   midi.NoteOnEvent(tick=0, channel=4, data=[83, 100]),\n",
      "   midi.NoteOffEvent(tick=96, channel=4, data=[83, 64]),\n",
      "   midi.NoteOnEvent(tick=0, channel=4, data=[81, 100]),\n",
      "   midi.NoteOffEvent(tick=96, channel=4, data=[81, 64]),\n",
      "   midi.NoteOnEvent(tick=0, channel=4, data=[79, 100]),\n",
      "   midi.NoteOffEvent(tick=96, channel=4, data=[79, 64]),\n",
      "   midi.NoteOnEvent(tick=0, channel=4, data=[78, 100]),\n",
      "   midi.NoteOffEvent(tick=96, channel=4, data=[78, 64]),\n",
      "   midi.NoteOnEvent(tick=0, channel=4, data=[76, 100]),\n",
      "   midi.NoteOffEvent(tick=96, channel=4, data=[76, 64]),\n",
      "   midi.NoteOnEvent(tick=0, channel=4, data=[74, 100]),\n",
      "   midi.NoteOffEvent(tick=384, channel=4, data=[74, 64]),\n",
      "   midi.NoteOnEvent(tick=0, channel=4, data=[69, 100]),\n",
      "   midi.NoteOffEvent(tick=384, channel=4, data=[69, 64]),\n",
      "   midi.NoteOnEvent(tick=0, channel=4, data=[66, 100]),\n",
      "   midi.NoteOffEvent(tick=512, channel=4, data=[66, 64]),\n",
      "   midi.NoteOnEvent(tick=64, channel=4, data=[69, 100]),\n",
      "   midi.NoteOffEvent(tick=192, channel=4, data=[69, 64]),\n",
      "   midi.NoteOnEvent(tick=0, channel=4, data=[72, 100]),\n",
      "   midi.NoteOffEvent(tick=192, channel=4, data=[72, 64]),\n",
      "   midi.NoteOnEvent(tick=0, channel=4, data=[71, 100]),\n",
      "   midi.NoteOffEvent(tick=192, channel=4, data=[71, 64]),\n",
      "   midi.NoteOnEvent(tick=0, channel=4, data=[72, 100]),\n",
      "   midi.NoteOffEvent(tick=192, channel=4, data=[72, 64]),\n",
      "   midi.NoteOnEvent(tick=0, channel=4, data=[69, 100]),\n",
      "   midi.NoteOffEvent(tick=192, channel=4, data=[69, 64]),\n",
      "   midi.NoteOnEvent(tick=0, channel=4, data=[71, 100]),\n",
      "   midi.NoteOffEvent(tick=192, channel=4, data=[71, 64]),\n",
      "   midi.NoteOnEvent(tick=0, channel=4, data=[69, 100]),\n",
      "   midi.NoteOffEvent(tick=192, channel=4, data=[69, 64]),\n",
      "   midi.NoteOnEvent(tick=0, channel=4, data=[71, 100]),\n",
      "   midi.NoteOffEvent(tick=384, channel=4, data=[71, 64]),\n",
      "   midi.NoteOnEvent(tick=0, channel=4, data=[76, 100]),\n",
      "   midi.NoteOffEvent(tick=96, channel=4, data=[76, 64]),\n",
      "   midi.NoteOnEvent(tick=0, channel=4, data=[78, 100]),\n",
      "   midi.NoteOffEvent(tick=96, channel=4, data=[78, 64]),\n",
      "   midi.NoteOnEvent(tick=0, channel=4, data=[79, 100]),\n",
      "   midi.NoteOffEvent(tick=96, channel=4, data=[79, 64]),\n",
      "   midi.NoteOnEvent(tick=96, channel=4, data=[79, 100]),\n",
      "   midi.NoteOffEvent(tick=96, channel=4, data=[79, 64]),\n",
      "   midi.NoteOnEvent(tick=96, channel=4, data=[76, 100]),\n",
      "   midi.NoteOffEvent(tick=96, channel=4, data=[76, 64]),\n",
      "   midi.NoteOnEvent(tick=96, channel=4, data=[73, 100]),\n",
      "   midi.NoteOffEvent(tick=512, channel=4, data=[73, 64]),\n",
      "   midi.NoteOnEvent(tick=64, channel=4, data=[69, 100]),\n",
      "   midi.NoteOffEvent(tick=192, channel=4, data=[69, 64]),\n",
      "   midi.NoteOnEvent(tick=0, channel=4, data=[74, 100]),\n",
      "   midi.NoteOffEvent(tick=48, channel=4, data=[74, 64]),\n",
      "   midi.NoteOnEvent(tick=0, channel=4, data=[76, 100]),\n",
      "   midi.NoteOffEvent(tick=48, channel=4, data=[76, 64]),\n",
      "   midi.NoteOnEvent(tick=0, channel=4, data=[78, 100]),\n",
      "   midi.NoteOffEvent(tick=256, channel=4, data=[78, 64]),\n",
      "   midi.NoteOnEvent(tick=32, channel=4, data=[76, 100]),\n",
      "   midi.NoteOffEvent(tick=48, channel=4, data=[76, 64]),\n",
      "   midi.NoteOnEvent(tick=0, channel=4, data=[78, 100]),\n",
      "   midi.NoteOffEvent(tick=48, channel=4, data=[78, 64]),\n",
      "   midi.NoteOnEvent(tick=0, channel=4, data=[79, 100]),\n",
      "   midi.NoteOffEvent(tick=256, channel=4, data=[79, 64]),\n",
      "   midi.NoteOnEvent(tick=32, channel=4, data=[78, 100]),\n",
      "   midi.NoteOffEvent(tick=192, channel=4, data=[78, 64]),\n",
      "   midi.NoteOnEvent(tick=0, channel=4, data=[76, 100]),\n",
      "   midi.NoteOffEvent(tick=192, channel=4, data=[76, 64]),\n",
      "   midi.NoteOnEvent(tick=0, channel=4, data=[74, 100]),\n",
      "   midi.NoteOffEvent(tick=384, channel=4, data=[74, 64]),\n",
      "   midi.NoteOnEvent(tick=0, channel=4, data=[62, 100]),\n",
      "   midi.NoteOffEvent(tick=192, channel=4, data=[62, 64]),\n",
      "   midi.NoteOnEvent(tick=0, channel=4, data=[74, 100]),\n",
      "   midi.NoteOffEvent(tick=192, channel=4, data=[74, 64]),\n",
      "   midi.NoteOnEvent(tick=0, channel=4, data=[73, 100]),\n",
      "   midi.NoteOffEvent(tick=192, channel=4, data=[73, 64]),\n",
      "   midi.NoteOnEvent(tick=0, channel=4, data=[69, 100]),\n",
      "   midi.NoteOffEvent(tick=192, channel=4, data=[69, 64]),\n",
      "   midi.NoteOnEvent(tick=0, channel=4, data=[74, 100]),\n",
      "   midi.NoteOffEvent(tick=192, channel=4, data=[74, 64]),\n",
      "   midi.NoteOnEvent(tick=0, channel=4, data=[73, 100]),\n",
      "   midi.NoteOffEvent(tick=96, channel=4, data=[73, 64]),\n",
      "   midi.NoteOnEvent(tick=0, channel=4, data=[71, 100]),\n",
      "   midi.NoteOffEvent(tick=96, channel=4, data=[71, 64]),\n",
      "   midi.NoteOnEvent(tick=0, channel=4, data=[69, 100]),\n",
      "   midi.NoteOffEvent(tick=96, channel=4, data=[69, 64]),\n",
      "   midi.NoteOnEvent(tick=0, channel=4, data=[67, 100]),\n",
      "   midi.NoteOffEvent(tick=96, channel=4, data=[67, 64]),\n",
      "   midi.NoteOnEvent(tick=0, channel=4, data=[66, 100]),\n",
      "   midi.NoteOffEvent(tick=96, channel=4, data=[66, 64]),\n",
      "   midi.NoteOnEvent(tick=0, channel=4, data=[64, 100]),\n",
      "   midi.NoteOffEvent(tick=96, channel=4, data=[64, 64]),\n",
      "   midi.NoteOnEvent(tick=0, channel=4, data=[62, 100]),\n",
      "   midi.NoteOffEvent(tick=192, channel=4, data=[62, 64]),\n",
      "   midi.NoteOnEvent(tick=672, channel=4, data=[74, 100]),\n",
      "   midi.NoteOffEvent(tick=96, channel=4, data=[74, 64]),\n",
      "   midi.NoteOnEvent(tick=0, channel=4, data=[73, 100]),\n",
      "   midi.NoteOffEvent(tick=96, channel=4, data=[73, 64]),\n",
      "   midi.NoteOnEvent(tick=0, channel=4, data=[71, 100]),\n",
      "   midi.NoteOffEvent(tick=96, channel=4, data=[71, 64]),\n",
      "   midi.NoteOnEvent(tick=0, channel=4, data=[69, 100]),\n",
      "   midi.NoteOffEvent(tick=96, channel=4, data=[69, 64]),\n",
      "   midi.NoteOnEvent(tick=0, channel=4, data=[67, 100]),\n",
      "   midi.NoteOffEvent(tick=96, channel=4, data=[67, 64]),\n",
      "   midi.NoteOnEvent(tick=0, channel=4, data=[66, 100]),\n",
      "   midi.NoteOffEvent(tick=96, channel=4, data=[66, 64]),\n",
      "   midi.NoteOnEvent(tick=0, channel=4, data=[64, 100]),\n",
      "   midi.NoteOffEvent(tick=96, channel=4, data=[64, 64]),\n",
      "   midi.NoteOnEvent(tick=0, channel=4, data=[62, 100]),\n",
      "   midi.NoteOffEvent(tick=192, channel=4, data=[62, 64]),\n",
      "   midi.NoteOnEvent(tick=0, channel=4, data=[69, 100]),\n",
      "   midi.NoteOffEvent(tick=384, channel=4, data=[69, 64]),\n",
      "   midi.NoteOnEvent(tick=0, channel=4, data=[71, 100]),\n",
      "   midi.NoteOffEvent(tick=96, channel=4, data=[71, 64]),\n",
      "   midi.NoteOnEvent(tick=0, channel=4, data=[73, 100]),\n",
      "   midi.NoteOffEvent(tick=96, channel=4, data=[73, 64]),\n",
      "   midi.NoteOnEvent(tick=0, channel=4, data=[74, 100]),\n",
      "   midi.NoteOffEvent(tick=96, channel=4, data=[74, 64]),\n",
      "   midi.NoteOnEvent(tick=0, channel=4, data=[76, 100]),\n",
      "   midi.NoteOffEvent(tick=96, channel=4, data=[76, 64]),\n",
      "   midi.NoteOnEvent(tick=0, channel=4, data=[78, 100]),\n",
      "   midi.NoteOffEvent(tick=96, channel=4, data=[78, 64]),\n",
      "   midi.NoteOnEvent(tick=96, channel=4, data=[78, 100]),\n",
      "   midi.NoteOffEvent(tick=96, channel=4, data=[78, 64]),\n",
      "   midi.NoteOnEvent(tick=96, channel=4, data=[74, 100]),\n",
      "   midi.NoteOffEvent(tick=96, channel=4, data=[74, 64]),\n",
      "   midi.NoteOnEvent(tick=96, channel=4, data=[79, 100]),\n",
      "   midi.NoteOffEvent(tick=192, channel=4, data=[79, 64]),\n",
      "   midi.NoteOnEvent(tick=0, channel=4, data=[78, 100]),\n",
      "   midi.NoteOffEvent(tick=192, channel=4, data=[78, 64]),\n",
      "   midi.NoteOnEvent(tick=0, channel=4, data=[76, 100]),\n",
      "   midi.NoteOffEvent(tick=192, channel=4, data=[76, 64]),\n",
      "   midi.NoteOnEvent(tick=0, channel=4, data=[74, 100]),\n",
      "   midi.NoteOffEvent(tick=192, channel=4, data=[74, 64]),\n",
      "   midi.NoteOnEvent(tick=0, channel=4, data=[73, 100]),\n",
      "   midi.NoteOffEvent(tick=192, channel=4, data=[73, 64]),\n",
      "   midi.NoteOnEvent(tick=0, channel=4, data=[71, 100]),\n",
      "   midi.NoteOffEvent(tick=192, channel=4, data=[71, 64]),\n",
      "   midi.NoteOnEvent(tick=0, channel=4, data=[69, 100]),\n",
      "   midi.NoteOffEvent(tick=384, channel=4, data=[69, 64]),\n",
      "   midi.NoteOnEvent(tick=192, channel=4, data=[66, 100]),\n",
      "   midi.NoteOffEvent(tick=192, channel=4, data=[66, 64]),\n",
      "   midi.NoteOnEvent(tick=0, channel=4, data=[69, 100]),\n",
      "   midi.NoteOffEvent(tick=192, channel=4, data=[69, 64]),\n",
      "   midi.NoteOnEvent(tick=0, channel=4, data=[74, 100]),\n",
      "   midi.NoteOffEvent(tick=192, channel=4, data=[74, 64]),\n",
      "   midi.NoteOnEvent(tick=192, channel=4, data=[74, 100]),\n",
      "   midi.NoteOffEvent(tick=192, channel=4, data=[74, 64]),\n",
      "   midi.NoteOnEvent(tick=0, channel=4, data=[78, 100]),\n",
      "   midi.NoteOffEvent(tick=192, channel=4, data=[78, 64]),\n",
      "   midi.NoteOnEvent(tick=0, channel=4, data=[81, 100]),\n",
      "   midi.NoteOffEvent(tick=192, channel=4, data=[81, 64]),\n",
      "   midi.NoteOnEvent(tick=192, channel=4, data=[78, 100]),\n",
      "   midi.NoteOffEvent(tick=192, channel=4, data=[78, 64]),\n",
      "   midi.NoteOnEvent(tick=0, channel=4, data=[81, 100]),\n",
      "   midi.NoteOffEvent(tick=192, channel=4, data=[81, 64]),\n",
      "   midi.NoteOnEvent(tick=0, channel=4, data=[84, 100]),\n",
      "   midi.NoteOffEvent(tick=192, channel=4, data=[84, 64]),\n",
      "   midi.NoteOnEvent(tick=192, channel=4, data=[71, 100]),\n",
      "   midi.NoteOffEvent(tick=192, channel=4, data=[71, 64]),\n",
      "   midi.NoteOnEvent(tick=0, channel=4, data=[69, 100]),\n",
      "   midi.NoteOffEvent(tick=192, channel=4, data=[69, 64]),\n",
      "   midi.NoteOnEvent(tick=0, channel=4, data=[67, 100]),\n",
      "   midi.NoteOffEvent(tick=96, channel=4, data=[67, 64]),\n",
      "   midi.NoteOnEvent(tick=0, channel=4, data=[66, 100]),\n",
      "   midi.NoteOffEvent(tick=96, channel=4, data=[66, 64]),\n",
      "   midi.NoteOnEvent(tick=0, channel=4, data=[71, 100]),\n",
      "   midi.NoteOffEvent(tick=192, channel=4, data=[71, 64]),\n",
      "   midi.NoteOnEvent(tick=0, channel=4, data=[67, 100]),\n",
      "   midi.NoteOffEvent(tick=192, channel=4, data=[67, 64]),\n",
      "   midi.NoteOnEvent(tick=0, channel=4, data=[64, 100]),\n",
      "   midi.NoteOffEvent(tick=192, channel=4, data=[64, 64]),\n",
      "   midi.NoteOnEvent(tick=0, channel=4, data=[59, 100]),\n",
      "   midi.NoteOffEvent(tick=192, channel=4, data=[59, 64]),\n",
      "   midi.NoteOnEvent(tick=0, channel=4, data=[61, 100]),\n",
      "   midi.NoteOffEvent(tick=192, channel=4, data=[61, 64]),\n",
      "   midi.NoteOnEvent(tick=0, channel=4, data=[76, 100]),\n",
      "   midi.NoteOffEvent(tick=96, channel=4, data=[76, 64]),\n",
      "   midi.NoteOnEvent(tick=0, channel=4, data=[74, 100]),\n",
      "   midi.NoteOffEvent(tick=96, channel=4, data=[74, 64]),\n",
      "   midi.NoteOnEvent(tick=0, channel=4, data=[76, 100]),\n",
      "   midi.NoteOffEvent(tick=96, channel=4, data=[76, 64]),\n",
      "   midi.NoteOnEvent(tick=0, channel=4, data=[74, 100]),\n",
      "   midi.NoteOffEvent(tick=96, channel=4, data=[74, 64]),\n",
      "   midi.NoteOnEvent(tick=0, channel=4, data=[73, 100]),\n",
      "   midi.NoteOffEvent(tick=96, channel=4, data=[73, 64]),\n",
      "   midi.NoteOnEvent(tick=0, channel=4, data=[71, 100]),\n",
      "   midi.NoteOffEvent(tick=96, channel=4, data=[71, 64]),\n",
      "   midi.NoteOnEvent(tick=0, channel=4, data=[69, 100]),\n",
      "   midi.NoteOffEvent(tick=192, channel=4, data=[69, 64]),\n",
      "   midi.NoteOnEvent(tick=0, channel=4, data=[66, 100]),\n",
      "   midi.NoteOffEvent(tick=192, channel=4, data=[66, 64]),\n",
      "   midi.NoteOnEvent(tick=0, channel=4, data=[62, 100]),\n",
      "   midi.NoteOffEvent(tick=192, channel=4, data=[62, 64]),\n",
      "   midi.NoteOnEvent(tick=0, channel=4, data=[57, 100]),\n",
      "   midi.NoteOffEvent(tick=192, channel=4, data=[57, 64]),\n",
      "   midi.NoteOnEvent(tick=0, channel=4, data=[59, 100]),\n",
      "   midi.NoteOffEvent(tick=192, channel=4, data=[59, 64]),\n",
      "   midi.NoteOnEvent(tick=0, channel=4, data=[74, 100]),\n",
      "   midi.NoteOffEvent(tick=96, channel=4, data=[74, 64]),\n",
      "   midi.NoteOnEvent(tick=0, channel=4, data=[73, 100]),\n",
      "   midi.NoteOffEvent(tick=96, channel=4, data=[73, 64]),\n",
      "   midi.NoteOnEvent(tick=0, channel=4, data=[74, 100]),\n",
      "   midi.NoteOffEvent(tick=96, channel=4, data=[74, 64]),\n",
      "   midi.NoteOnEvent(tick=0, channel=4, data=[73, 100]),\n",
      "   midi.NoteOffEvent(tick=96, channel=4, data=[73, 64]),\n",
      "   midi.NoteOnEvent(tick=0, channel=4, data=[71, 100]),\n",
      "   midi.NoteOffEvent(tick=96, channel=4, data=[71, 64]),\n",
      "   midi.NoteOnEvent(tick=0, channel=4, data=[69, 100]),\n",
      "   midi.NoteOffEvent(tick=96, channel=4, data=[69, 64]),\n",
      "   midi.NoteOnEvent(tick=0, channel=4, data=[67, 100]),\n",
      "   midi.NoteOffEvent(tick=192, channel=4, data=[67, 64]),\n",
      "   midi.NoteOnEvent(tick=0, channel=4, data=[79, 100]),\n",
      "   midi.NoteOffEvent(tick=96, channel=4, data=[79, 64]),\n",
      "   midi.NoteOnEvent(tick=0, channel=4, data=[78, 100]),\n",
      "   midi.NoteOnEvent(tick=0, channel=4, data=[69, 100]),\n",
      "   midi.NoteOffEvent(tick=96, channel=4, data=[78, 64]),\n",
      "   midi.NoteOnEvent(tick=0, channel=4, data=[79, 100]),\n",
      "   midi.NoteOffEvent(tick=96, channel=4, data=[69, 64]),\n",
      "   midi.NoteOffEvent(tick=0, channel=4, data=[79, 64]),\n",
      "   midi.NoteOnEvent(tick=0, channel=4, data=[78, 100]),\n",
      "   midi.NoteOffEvent(tick=96, channel=4, data=[78, 64]),\n",
      "   midi.NoteOnEvent(tick=0, channel=4, data=[76, 100]),\n",
      "   midi.NoteOffEvent(tick=96, channel=4, data=[76, 64]),\n",
      "   midi.NoteOnEvent(tick=0, channel=4, data=[74, 100]),\n",
      "   midi.NoteOffEvent(tick=96, channel=4, data=[74, 64]),\n",
      "   midi.NoteOnEvent(tick=0, channel=4, data=[81, 100]),\n",
      "   midi.NoteOffEvent(tick=192, channel=4, data=[81, 64]),\n",
      "   midi.NoteOnEvent(tick=0, channel=4, data=[79, 100]),\n",
      "   midi.NoteOffEvent(tick=96, channel=4, data=[79, 64]),\n",
      "   midi.NoteOnEvent(tick=0, channel=4, data=[78, 100]),\n",
      "   midi.NoteOffEvent(tick=96, channel=4, data=[78, 64]),\n",
      "   midi.NoteOnEvent(tick=0, channel=4, data=[76, 100]),\n",
      "   midi.NoteOffEvent(tick=192, channel=4, data=[76, 64]),\n",
      "   midi.NoteOnEvent(tick=0, channel=4, data=[74, 100]),\n",
      "   midi.NoteOffEvent(tick=96, channel=4, data=[74, 64]),\n",
      "   midi.NoteOnEvent(tick=0, channel=4, data=[73, 100]),\n",
      "   midi.NoteOffEvent(tick=96, channel=4, data=[73, 64]),\n",
      "   midi.NoteOnEvent(tick=2880, channel=4, data=[69, 100]),\n",
      "   midi.NoteOffEvent(tick=192, channel=4, data=[69, 64]),\n",
      "   midi.NoteOnEvent(tick=0, channel=4, data=[74, 100]),\n",
      "   midi.NoteOffEvent(tick=48, channel=4, data=[74, 64]),\n",
      "   midi.NoteOnEvent(tick=0, channel=4, data=[76, 100]),\n",
      "   midi.NoteOffEvent(tick=48, channel=4, data=[76, 64]),\n",
      "   midi.NoteOnEvent(tick=0, channel=4, data=[78, 100]),\n",
      "   midi.NoteOffEvent(tick=256, channel=4, data=[78, 64]),\n",
      "   midi.NoteOnEvent(tick=32, channel=4, data=[76, 100]),\n",
      "   midi.NoteOffEvent(tick=48, channel=4, data=[76, 64]),\n",
      "   midi.NoteOnEvent(tick=0, channel=4, data=[78, 100]),\n",
      "   midi.NoteOffEvent(tick=48, channel=4, data=[78, 64]),\n",
      "   midi.NoteOnEvent(tick=0, channel=4, data=[79, 100]),\n",
      "   midi.NoteOffEvent(tick=256, channel=4, data=[79, 64]),\n",
      "   midi.NoteOnEvent(tick=32, channel=4, data=[78, 100]),\n",
      "   midi.NoteOffEvent(tick=192, channel=4, data=[78, 64]),\n",
      "   midi.NoteOnEvent(tick=0, channel=4, data=[76, 100]),\n",
      "   midi.NoteOffEvent(tick=192, channel=4, data=[76, 64]),\n",
      "   midi.NoteOnEvent(tick=0, channel=4, data=[74, 100]),\n",
      "   midi.NoteOffEvent(tick=192, channel=4, data=[74, 64]),\n",
      "   midi.NoteOnEvent(tick=1536, channel=4, data=[74, 100]),\n",
      "   midi.NoteOffEvent(tick=192, channel=4, data=[74, 64]),\n",
      "   midi.NoteOnEvent(tick=0, channel=4, data=[79, 100]),\n",
      "   midi.NoteOffEvent(tick=48, channel=4, data=[79, 64]),\n",
      "   midi.NoteOnEvent(tick=0, channel=4, data=[81, 100]),\n",
      "   midi.NoteOffEvent(tick=48, channel=4, data=[81, 64]),\n",
      "   midi.NoteOnEvent(tick=0, channel=4, data=[83, 100]),\n",
      "   midi.NoteOffEvent(tick=256, channel=4, data=[83, 64]),\n",
      "   midi.NoteOnEvent(tick=32, channel=4, data=[81, 100]),\n",
      "   midi.NoteOffEvent(tick=48, channel=4, data=[81, 64]),\n",
      "   midi.NoteOnEvent(tick=0, channel=4, data=[83, 100]),\n",
      "   midi.NoteOffEvent(tick=48, channel=4, data=[83, 64]),\n",
      "   midi.NoteOnEvent(tick=0, channel=4, data=[84, 100]),\n",
      "   midi.NoteOffEvent(tick=256, channel=4, data=[84, 64]),\n",
      "   midi.NoteOnEvent(tick=32, channel=4, data=[83, 100]),\n",
      "   midi.NoteOffEvent(tick=192, channel=4, data=[83, 64]),\n",
      "   midi.NoteOnEvent(tick=0, channel=4, data=[81, 100]),\n",
      "   midi.NoteOffEvent(tick=192, channel=4, data=[81, 64]),\n",
      "   midi.NoteOnEvent(tick=0, channel=4, data=[79, 100]),\n",
      "   midi.NoteOffEvent(tick=192, channel=4, data=[79, 64]),\n",
      "   midi.NoteOnEvent(tick=1152, channel=4, data=[76, 100]),\n",
      "   midi.NoteOffEvent(tick=192, channel=4, data=[76, 64]),\n",
      "   midi.NoteOnEvent(tick=0, channel=4, data=[73, 100]),\n",
      "   midi.NoteOffEvent(tick=192, channel=4, data=[73, 64]),\n",
      "   midi.NoteOnEvent(tick=0, channel=4, data=[69, 100]),\n",
      "   midi.NoteOffEvent(tick=192, channel=4, data=[69, 64]),\n",
      "   midi.NoteOnEvent(tick=960, channel=4, data=[67, 100]),\n",
      "   midi.NoteOffEvent(tick=192, channel=4, data=[67, 64]),\n",
      "   midi.NoteOnEvent(tick=0, channel=4, data=[64, 100]),\n",
      "   midi.NoteOffEvent(tick=192, channel=4, data=[64, 64]),\n",
      "   midi.NoteOnEvent(tick=0, channel=4, data=[61, 100]),\n",
      "   midi.NoteOffEvent(tick=192, channel=4, data=[61, 64]),\n",
      "   midi.NoteOnEvent(tick=0, channel=4, data=[78, 100]),\n",
      "   midi.NoteOffEvent(tick=96, channel=4, data=[78, 64]),\n",
      "   midi.NoteOnEvent(tick=0, channel=4, data=[79, 100]),\n",
      "   midi.NoteOffEvent(tick=96, channel=4, data=[79, 64]),\n",
      "   midi.NoteOnEvent(tick=0, channel=4, data=[81, 100]),\n",
      "   midi.NoteOffEvent(tick=96, channel=4, data=[81, 64]),\n",
      "   midi.NoteOnEvent(tick=96, channel=4, data=[81, 100]),\n",
      "   midi.NoteOffEvent(tick=96, channel=4, data=[81, 64]),\n",
      "   midi.NoteOnEvent(tick=96, channel=4, data=[81, 100]),\n",
      "   midi.NoteOffEvent(tick=96, channel=4, data=[81, 64]),\n",
      "   midi.NoteOnEvent(tick=96, channel=4, data=[81, 100]),\n",
      "   midi.NoteOffEvent(tick=192, channel=4, data=[81, 64]),\n",
      "   midi.NoteOnEvent(tick=0, channel=4, data=[74, 100]),\n",
      "   midi.NoteOffEvent(tick=192, channel=4, data=[74, 64]),\n",
      "   midi.NoteOnEvent(tick=0, channel=4, data=[86, 100]),\n",
      "   midi.NoteOffEvent(tick=576, channel=4, data=[86, 64]),\n",
      "   midi.NoteOnEvent(tick=96, channel=4, data=[85, 100]),\n",
      "   midi.NoteOffEvent(tick=96, channel=4, data=[85, 64]),\n",
      "   midi.NoteOnEvent(tick=0, channel=4, data=[83, 100]),\n",
      "   midi.NoteOffEvent(tick=96, channel=4, data=[83, 64]),\n",
      "   midi.NoteOnEvent(tick=0, channel=4, data=[81, 100]),\n",
      "   midi.NoteOffEvent(tick=96, channel=4, data=[81, 64]),\n",
      "   midi.NoteOnEvent(tick=0, channel=4, data=[79, 100]),\n",
      "   midi.NoteOffEvent(tick=96, channel=4, data=[79, 64]),\n",
      "   midi.NoteOnEvent(tick=0, channel=4, data=[78, 100]),\n",
      "   midi.NoteOffEvent(tick=96, channel=4, data=[78, 64]),\n",
      "   midi.NoteOnEvent(tick=0, channel=4, data=[76, 100]),\n",
      "   midi.NoteOffEvent(tick=192, channel=4, data=[76, 64]),\n",
      "   midi.NoteOnEvent(tick=0, channel=4, data=[73, 100]),\n",
      "   midi.NoteOffEvent(tick=96, channel=4, data=[73, 64]),\n",
      "   midi.NoteOnEvent(tick=0, channel=4, data=[71, 100]),\n",
      "   midi.NoteOffEvent(tick=96, channel=4, data=[71, 64]),\n",
      "   midi.NoteOnEvent(tick=0, channel=4, data=[69, 100]),\n",
      "   midi.NoteOffEvent(tick=96, channel=4, data=[69, 64]),\n",
      "   midi.NoteOnEvent(tick=0, channel=4, data=[67, 100]),\n",
      "   midi.NoteOffEvent(tick=96, channel=4, data=[67, 64]),\n",
      "   midi.NoteOnEvent(tick=0, channel=4, data=[66, 100]),\n",
      "   midi.NoteOffEvent(tick=96, channel=4, data=[66, 64]),\n",
      "   midi.NoteOnEvent(tick=0, channel=4, data=[64, 100]),\n",
      "   midi.NoteOffEvent(tick=96, channel=4, data=[64, 64]),\n",
      "   midi.NoteOnEvent(tick=0, channel=4, data=[62, 100]),\n",
      "   midi.NoteOffEvent(tick=192, channel=4, data=[62, 64]),\n",
      "   midi.NoteOnEvent(tick=0, channel=4, data=[74, 100]),\n",
      "   midi.NoteOffEvent(tick=192, channel=4, data=[74, 64]),\n",
      "   midi.NoteOnEvent(tick=0, channel=4, data=[73, 100]),\n",
      "   midi.NoteOffEvent(tick=192, channel=4, data=[73, 64]),\n",
      "   midi.NoteOnEvent(tick=0, channel=4, data=[69, 100]),\n",
      "   midi.NoteOffEvent(tick=192, channel=4, data=[69, 64]),\n",
      "   midi.NoteOnEvent(tick=0, channel=4, data=[74, 100]),\n",
      "   midi.NoteOffEvent(tick=192, channel=4, data=[74, 64]),\n",
      "   midi.NoteOnEvent(tick=0, channel=4, data=[73, 100]),\n",
      "   midi.NoteOffEvent(tick=96, channel=4, data=[73, 64]),\n",
      "   midi.NoteOnEvent(tick=0, channel=4, data=[71, 100]),\n",
      "   midi.NoteOffEvent(tick=96, channel=4, data=[71, 64]),\n",
      "   midi.NoteOnEvent(tick=0, channel=4, data=[69, 100]),\n",
      "   midi.NoteOffEvent(tick=96, channel=4, data=[69, 64]),\n",
      "   midi.NoteOnEvent(tick=0, channel=4, data=[67, 100]),\n",
      "   midi.NoteOffEvent(tick=96, channel=4, data=[67, 64]),\n",
      "   midi.NoteOnEvent(tick=0, channel=4, data=[66, 100]),\n",
      "   midi.NoteOffEvent(tick=96, channel=4, data=[66, 64]),\n",
      "   midi.NoteOnEvent(tick=0, channel=4, data=[64, 100]),\n",
      "   midi.NoteOffEvent(tick=96, channel=4, data=[64, 64]),\n",
      "   midi.NoteOnEvent(tick=0, channel=4, data=[62, 100]),\n",
      "   midi.NoteOffEvent(tick=192, channel=4, data=[62, 64]),\n",
      "   midi.NoteOnEvent(tick=0, channel=4, data=[86, 100]),\n",
      "   midi.NoteOffEvent(tick=192, channel=4, data=[86, 64]),\n",
      "   midi.NoteOnEvent(tick=0, channel=4, data=[76, 100]),\n",
      "   midi.NoteOffEvent(tick=192, channel=4, data=[76, 64]),\n",
      "   midi.NoteOnEvent(tick=0, channel=4, data=[85, 100]),\n",
      "   midi.NoteOffEvent(tick=192, channel=4, data=[85, 64]),\n",
      "   midi.NoteOnEvent(tick=0, channel=4, data=[86, 100]),\n",
      "   midi.NoteOffEvent(tick=96, channel=4, data=[86, 64]),\n",
      "   midi.NoteOnEvent(tick=0, channel=4, data=[74, 100]),\n",
      "   midi.NoteOffEvent(tick=96, channel=4, data=[74, 64]),\n",
      "   midi.NoteOnEvent(tick=0, channel=4, data=[73, 100]),\n",
      "   midi.NoteOffEvent(tick=96, channel=4, data=[73, 64]),\n",
      "   midi.NoteOnEvent(tick=0, channel=4, data=[71, 100]),\n",
      "   midi.NoteOffEvent(tick=96, channel=4, data=[71, 64]),\n",
      "   midi.NoteOnEvent(tick=0, channel=4, data=[69, 100]),\n",
      "   midi.NoteOffEvent(tick=96, channel=4, data=[69, 64]),\n",
      "   midi.NoteOnEvent(tick=0, channel=4, data=[67, 100]),\n",
      "   midi.NoteOffEvent(tick=96, channel=4, data=[67, 64]),\n",
      "   midi.NoteOnEvent(tick=0, channel=4, data=[66, 100]),\n",
      "   midi.NoteOffEvent(tick=96, channel=4, data=[66, 64]),\n",
      "   midi.NoteOnEvent(tick=0, channel=4, data=[64, 100]),\n",
      "   midi.NoteOffEvent(tick=96, channel=4, data=[64, 64]),\n",
      "   midi.NoteOnEvent(tick=0, channel=4, data=[62, 100]),\n",
      "   midi.NoteOffEvent(tick=192, channel=4, data=[62, 64]),\n",
      "   midi.NoteOnEvent(tick=0, channel=4, data=[74, 100]),\n",
      "   midi.NoteOffEvent(tick=192, channel=4, data=[74, 64]),\n",
      "   midi.NoteOnEvent(tick=0, channel=4, data=[73, 100]),\n",
      "   midi.NoteOffEvent(tick=192, channel=4, data=[73, 64]),\n",
      "   midi.NoteOnEvent(tick=0, channel=4, data=[69, 100]),\n",
      "   midi.NoteOffEvent(tick=192, channel=4, data=[69, 64]),\n",
      "   midi.NoteOnEvent(tick=0, channel=4, data=[74, 100]),\n",
      "   midi.NoteOffEvent(tick=192, channel=4, data=[74, 64]),\n",
      "   midi.NoteOnEvent(tick=0, channel=4, data=[73, 100]),\n",
      "   midi.NoteOffEvent(tick=96, channel=4, data=[73, 64]),\n",
      "   midi.NoteOnEvent(tick=0, channel=4, data=[71, 100]),\n",
      "   midi.NoteOffEvent(tick=96, channel=4, data=[71, 64]),\n",
      "   midi.NoteOnEvent(tick=0, channel=4, data=[69, 100]),\n",
      "   midi.NoteOffEvent(tick=96, channel=4, data=[69, 64]),\n",
      "   midi.NoteOnEvent(tick=0, channel=4, data=[67, 100]),\n",
      "   midi.NoteOffEvent(tick=96, channel=4, data=[67, 64]),\n",
      "   midi.NoteOnEvent(tick=0, channel=4, data=[66, 100]),\n",
      "   midi.NoteOffEvent(tick=96, channel=4, data=[66, 64]),\n",
      "   midi.NoteOnEvent(tick=0, channel=4, data=[64, 100]),\n",
      "   midi.NoteOffEvent(tick=96, channel=4, data=[64, 64]),\n",
      "   midi.NoteOnEvent(tick=0, channel=4, data=[62, 100]),\n",
      "   midi.NoteOffEvent(tick=192, channel=4, data=[62, 64]),\n",
      "   midi.NoteOnEvent(tick=0, channel=4, data=[86, 100]),\n",
      "   midi.NoteOffEvent(tick=192, channel=4, data=[86, 64]),\n",
      "   midi.NoteOnEvent(tick=0, channel=4, data=[76, 100]),\n",
      "   midi.NoteOffEvent(tick=192, channel=4, data=[76, 64]),\n",
      "   midi.NoteOnEvent(tick=0, channel=4, data=[85, 100]),\n",
      "   midi.NoteOffEvent(tick=192, channel=4, data=[85, 64]),\n",
      "   midi.NoteOnEvent(tick=0, channel=4, data=[86, 100]),\n",
      "   midi.NoteOffEvent(tick=96, channel=4, data=[86, 64]),\n",
      "   midi.NoteOnEvent(tick=0, channel=4, data=[74, 100]),\n",
      "   midi.NoteOffEvent(tick=96, channel=4, data=[74, 64]),\n",
      "   midi.NoteOnEvent(tick=0, channel=4, data=[73, 100]),\n",
      "   midi.NoteOffEvent(tick=96, channel=4, data=[73, 64]),\n",
      "   midi.NoteOnEvent(tick=0, channel=4, data=[71, 100]),\n",
      "   midi.NoteOffEvent(tick=96, channel=4, data=[71, 64]),\n",
      "   midi.NoteOnEvent(tick=0, channel=4, data=[69, 100]),\n",
      "   midi.NoteOffEvent(tick=96, channel=4, data=[69, 64]),\n",
      "   midi.NoteOnEvent(tick=0, channel=4, data=[67, 100]),\n",
      "   midi.NoteOffEvent(tick=96, channel=4, data=[67, 64]),\n",
      "   midi.NoteOnEvent(tick=0, channel=4, data=[66, 100]),\n",
      "   midi.NoteOffEvent(tick=96, channel=4, data=[66, 64]),\n",
      "   midi.NoteOnEvent(tick=0, channel=4, data=[64, 100]),\n",
      "   midi.NoteOffEvent(tick=96, channel=4, data=[64, 64]),\n",
      "   midi.NoteOnEvent(tick=0, channel=4, data=[62, 100]),\n",
      "   midi.NoteOffEvent(tick=192, channel=4, data=[62, 64]),\n",
      "   midi.NoteOnEvent(tick=0, channel=4, data=[74, 100]),\n",
      "   midi.NoteOffEvent(tick=192, channel=4, data=[74, 64]),\n",
      "   midi.NoteOnEvent(tick=0, channel=4, data=[71, 100]),\n",
      "   midi.NoteOffEvent(tick=192, channel=4, data=[71, 64]),\n",
      "   midi.NoteOnEvent(tick=0, channel=4, data=[66, 100]),\n",
      "   midi.NoteOffEvent(tick=192, channel=4, data=[66, 64]),\n",
      "   midi.NoteOnEvent(tick=0, channel=4, data=[68, 100]),\n",
      "   midi.NoteOffEvent(tick=192, channel=4, data=[68, 64]),\n",
      "   midi.NoteOnEvent(tick=0, channel=4, data=[83, 100]),\n",
      "   midi.NoteOffEvent(tick=96, channel=4, data=[83, 64]),\n",
      "   midi.NoteOnEvent(tick=0, channel=4, data=[81, 100]),\n",
      "   midi.NoteOffEvent(tick=96, channel=4, data=[81, 64]),\n",
      "   midi.NoteOnEvent(tick=0, channel=4, data=[83, 100]),\n",
      "   midi.NoteOffEvent(tick=96, channel=4, data=[83, 64]),\n",
      "   midi.NoteOnEvent(tick=0, channel=4, data=[81, 100]),\n",
      "   midi.NoteOffEvent(tick=96, channel=4, data=[81, 64]),\n",
      "   midi.NoteOnEvent(tick=0, channel=4, data=[80, 100]),\n",
      "   midi.NoteOffEvent(tick=96, channel=4, data=[80, 64]),\n",
      "   midi.NoteOnEvent(tick=0, channel=4, data=[78, 100]),\n",
      "   midi.NoteOffEvent(tick=96, channel=4, data=[78, 64]),\n",
      "   midi.NoteOnEvent(tick=0, channel=4, data=[76, 100]),\n",
      "   midi.NoteOffEvent(tick=192, channel=4, data=[76, 64]),\n",
      "   midi.NoteOnEvent(tick=0, channel=4, data=[73, 100]),\n",
      "   midi.NoteOffEvent(tick=192, channel=4, data=[73, 64]),\n",
      "   midi.NoteOnEvent(tick=0, channel=4, data=[69, 100]),\n",
      "   midi.NoteOffEvent(tick=192, channel=4, data=[69, 64]),\n",
      "   midi.NoteOnEvent(tick=0, channel=4, data=[64, 100]),\n",
      "   midi.NoteOffEvent(tick=192, channel=4, data=[64, 64]),\n",
      "   midi.NoteOnEvent(tick=0, channel=4, data=[69, 100]),\n",
      "   midi.NoteOffEvent(tick=192, channel=4, data=[69, 64]),\n",
      "   midi.NoteOnEvent(tick=0, channel=4, data=[81, 100]),\n",
      "   midi.NoteOffEvent(tick=96, channel=4, data=[81, 64]),\n",
      "   midi.NoteOnEvent(tick=0, channel=4, data=[80, 100]),\n",
      "   midi.NoteOffEvent(tick=96, channel=4, data=[80, 64]),\n",
      "   midi.NoteOnEvent(tick=0, channel=4, data=[81, 100]),\n",
      "   midi.NoteOffEvent(tick=96, channel=4, data=[81, 64]),\n",
      "   midi.NoteOnEvent(tick=0, channel=4, data=[80, 100]),\n",
      "   midi.NoteOffEvent(tick=96, channel=4, data=[80, 64]),\n",
      "   midi.NoteOnEvent(tick=0, channel=4, data=[78, 100]),\n",
      "   midi.NoteOffEvent(tick=96, channel=4, data=[78, 64]),\n",
      "   midi.NoteOnEvent(tick=0, channel=4, data=[76, 100]),\n",
      "   midi.NoteOffEvent(tick=96, channel=4, data=[76, 64]),\n",
      "   midi.NoteOnEvent(tick=0, channel=4, data=[74, 100]),\n",
      "   midi.NoteOffEvent(tick=96, channel=4, data=[74, 64]),\n",
      "   midi.NoteOnEvent(tick=0, channel=4, data=[76, 100]),\n",
      "   midi.NoteOffEvent(tick=96, channel=4, data=[76, 64]),\n",
      "   midi.NoteOnEvent(tick=0, channel=4, data=[74, 100]),\n",
      "   midi.NoteOffEvent(tick=96, channel=4, data=[74, 64]),\n",
      "   midi.NoteOnEvent(tick=96, channel=4, data=[74, 100]),\n",
      "   midi.NoteOffEvent(tick=96, channel=4, data=[74, 64]),\n",
      "   midi.NoteOnEvent(tick=96, channel=4, data=[74, 100]),\n",
      "   midi.NoteOffEvent(tick=96, channel=4, data=[74, 64]),\n",
      "   midi.NoteOnEvent(tick=96, channel=4, data=[86, 100]),\n",
      "   midi.NoteOffEvent(tick=384, channel=4, data=[86, 64]),\n",
      "   midi.NoteOnEvent(tick=192, channel=4, data=[85, 100]),\n",
      "   midi.NoteOffEvent(tick=96, channel=4, data=[85, 64]),\n",
      "   midi.NoteOnEvent(tick=0, channel=4, data=[83, 100]),\n",
      "   midi.NoteOffEvent(tick=96, channel=4, data=[83, 64]),\n",
      "   midi.NoteOnEvent(tick=0, channel=4, data=[85, 100]),\n",
      "   midi.NoteOffEvent(tick=192, channel=4, data=[85, 64]),\n",
      "   midi.NoteOnEvent(tick=0, channel=4, data=[81, 100]),\n",
      "   midi.NoteOffEvent(tick=192, channel=4, data=[81, 64]),\n",
      "   midi.NoteOnEvent(tick=0, channel=4, data=[76, 100]),\n",
      "   midi.NoteOffEvent(tick=192, channel=4, data=[76, 64]),\n",
      "   midi.NoteOnEvent(tick=0, channel=4, data=[80, 100]),\n",
      "   midi.NoteOffEvent(tick=192, channel=4, data=[80, 64]),\n",
      "   midi.NoteOnEvent(tick=0, channel=4, data=[81, 100]),\n",
      "   midi.NoteOffEvent(tick=768, channel=4, data=[81, 64]),\n",
      "   midi.EndOfTrackEvent(tick=0, data=[])]),\n",
      " midi.Track(\\\n",
      "  [midi.TrackNameEvent(tick=0, text='Violino II', data=[86, 105, 111, 108, 105, 110, 111, 32, 73, 73]),\n",
      "   midi.ControlChangeEvent(tick=0, channel=4, data=[0, 0]),\n",
      "   midi.ProgramChangeEvent(tick=0, channel=4, data=[48]),\n",
      "   midi.ControlChangeEvent(tick=0, channel=4, data=[7, 100]),\n",
      "   midi.ControlChangeEvent(tick=0, channel=4, data=[10, 61]),\n",
      "   midi.ControlChangeEvent(tick=0, channel=4, data=[91, 127]),\n",
      "   midi.ControlChangeEvent(tick=0, channel=4, data=[93, 127]),\n",
      "   midi.KeySignatureEvent(tick=0, data=[2, 0]),\n",
      "   midi.NoteOnEvent(tick=768, channel=4, data=[62, 100]),\n",
      "   midi.NoteOffEvent(tick=192, channel=4, data=[62, 64]),\n",
      "   midi.NoteOnEvent(tick=0, channel=4, data=[74, 100]),\n",
      "   midi.NoteOffEvent(tick=192, channel=4, data=[74, 64]),\n",
      "   midi.NoteOnEvent(tick=0, channel=4, data=[73, 100]),\n",
      "   midi.NoteOffEvent(tick=192, channel=4, data=[73, 64]),\n",
      "   midi.NoteOnEvent(tick=0, channel=4, data=[69, 100]),\n",
      "   midi.NoteOffEvent(tick=192, channel=4, data=[69, 64]),\n",
      "   midi.NoteOnEvent(tick=0, channel=4, data=[74, 100]),\n",
      "   midi.NoteOffEvent(tick=192, channel=4, data=[74, 64]),\n",
      "   midi.NoteOnEvent(tick=0, channel=4, data=[73, 100]),\n",
      "   midi.NoteOffEvent(tick=96, channel=4, data=[73, 64]),\n",
      "   midi.NoteOnEvent(tick=0, channel=4, data=[71, 100]),\n",
      "   midi.NoteOffEvent(tick=96, channel=4, data=[71, 64]),\n",
      "   midi.NoteOnEvent(tick=0, channel=4, data=[69, 100]),\n",
      "   midi.NoteOffEvent(tick=96, channel=4, data=[69, 64]),\n",
      "   midi.NoteOnEvent(tick=0, channel=4, data=[67, 100]),\n",
      "   midi.NoteOffEvent(tick=96, channel=4, data=[67, 64]),\n",
      "   midi.NoteOnEvent(tick=0, channel=4, data=[66, 100]),\n",
      "   midi.NoteOffEvent(tick=96, channel=4, data=[66, 64]),\n",
      "   midi.NoteOnEvent(tick=0, channel=4, data=[64, 100]),\n",
      "   midi.NoteOffEvent(tick=96, channel=4, data=[64, 64]),\n",
      "   midi.NoteOnEvent(tick=0, channel=4, data=[62, 100]),\n",
      "   midi.NoteOffEvent(tick=192, channel=4, data=[62, 64]),\n",
      "   midi.NoteOnEvent(tick=0, channel=4, data=[71, 100]),\n",
      "   midi.NoteOffEvent(tick=192, channel=4, data=[71, 64]),\n",
      "   midi.NoteOnEvent(tick=0, channel=4, data=[71, 100]),\n",
      "   midi.NoteOffEvent(tick=192, channel=4, data=[71, 64]),\n",
      "   midi.NoteOnEvent(tick=0, channel=4, data=[69, 100]),\n",
      "   midi.NoteOffEvent(tick=192, channel=4, data=[69, 64]),\n",
      "   midi.NoteOnEvent(tick=0, channel=4, data=[69, 100]),\n",
      "   midi.NoteOffEvent(tick=96, channel=4, data=[69, 64]),\n",
      "   midi.NoteOnEvent(tick=0, channel=4, data=[74, 100]),\n",
      "   midi.NoteOffEvent(tick=96, channel=4, data=[74, 64]),\n",
      "   midi.NoteOnEvent(tick=0, channel=4, data=[73, 100]),\n",
      "   midi.NoteOffEvent(tick=96, channel=4, data=[73, 64]),\n",
      "   midi.NoteOnEvent(tick=0, channel=4, data=[71, 100]),\n",
      "   midi.NoteOffEvent(tick=96, channel=4, data=[71, 64]),\n",
      "   midi.NoteOnEvent(tick=0, channel=4, data=[69, 100]),\n",
      "   midi.NoteOffEvent(tick=96, channel=4, data=[69, 64]),\n",
      "   midi.NoteOnEvent(tick=0, channel=4, data=[67, 100]),\n",
      "   midi.NoteOffEvent(tick=96, channel=4, data=[67, 64]),\n",
      "   midi.NoteOnEvent(tick=0, channel=4, data=[66, 100]),\n",
      "   midi.NoteOffEvent(tick=96, channel=4, data=[66, 64]),\n",
      "   midi.NoteOnEvent(tick=0, channel=4, data=[64, 100]),\n",
      "   midi.NoteOffEvent(tick=96, channel=4, data=[64, 64]),\n",
      "   midi.NoteOnEvent(tick=0, channel=4, data=[62, 100]),\n",
      "   midi.NoteOffEvent(tick=192, channel=4, data=[62, 64]),\n",
      "   midi.NoteOnEvent(tick=0, channel=4, data=[74, 100]),\n",
      "   midi.NoteOffEvent(tick=192, channel=4, data=[74, 64]),\n",
      "   midi.NoteOnEvent(tick=0, channel=4, data=[73, 100]),\n",
      "   midi.NoteOffEvent(tick=192, channel=4, data=[73, 64]),\n",
      "   midi.NoteOnEvent(tick=0, channel=4, data=[69, 100]),\n",
      "   midi.NoteOffEvent(tick=192, channel=4, data=[69, 64]),\n",
      "   midi.NoteOnEvent(tick=0, channel=4, data=[74, 100]),\n",
      "   midi.NoteOffEvent(tick=192, channel=4, data=[74, 64]),\n",
      "   midi.NoteOnEvent(tick=0, channel=4, data=[73, 100]),\n",
      "   midi.NoteOffEvent(tick=96, channel=4, data=[73, 64]),\n",
      "   midi.NoteOnEvent(tick=0, channel=4, data=[71, 100]),\n",
      "   midi.NoteOffEvent(tick=96, channel=4, data=[71, 64]),\n",
      "   midi.NoteOnEvent(tick=0, channel=4, data=[69, 100]),\n",
      "   midi.NoteOffEvent(tick=96, channel=4, data=[69, 64]),\n",
      "   midi.NoteOnEvent(tick=0, channel=4, data=[67, 100]),\n",
      "   midi.NoteOffEvent(tick=96, channel=4, data=[67, 64]),\n",
      "   midi.NoteOnEvent(tick=0, channel=4, data=[66, 100]),\n",
      "   midi.NoteOffEvent(tick=96, channel=4, data=[66, 64]),\n",
      "   midi.NoteOnEvent(tick=0, channel=4, data=[64, 100]),\n",
      "   midi.NoteOffEvent(tick=96, channel=4, data=[64, 64]),\n",
      "   midi.NoteOnEvent(tick=0, channel=4, data=[62, 100]),\n",
      "   midi.NoteOffEvent(tick=192, channel=4, data=[62, 64]),\n",
      "   midi.NoteOnEvent(tick=0, channel=4, data=[71, 100]),\n",
      "   midi.NoteOffEvent(tick=192, channel=4, data=[71, 64]),\n",
      "   midi.NoteOnEvent(tick=0, channel=4, data=[71, 100]),\n",
      "   midi.NoteOffEvent(tick=192, channel=4, data=[71, 64]),\n",
      "   midi.NoteOnEvent(tick=0, channel=4, data=[69, 100]),\n",
      "   midi.NoteOffEvent(tick=192, channel=4, data=[69, 64]),\n",
      "   midi.NoteOnEvent(tick=0, channel=4, data=[69, 100]),\n",
      "   midi.NoteOffEvent(tick=96, channel=4, data=[69, 64]),\n",
      "   midi.NoteOnEvent(tick=0, channel=4, data=[74, 100]),\n",
      "   midi.NoteOffEvent(tick=96, channel=4, data=[74, 64]),\n",
      "   midi.NoteOnEvent(tick=0, channel=4, data=[73, 100]),\n",
      "   midi.NoteOffEvent(tick=96, channel=4, data=[73, 64]),\n",
      "   midi.NoteOnEvent(tick=0, channel=4, data=[71, 100]),\n",
      "   midi.NoteOffEvent(tick=96, channel=4, data=[71, 64]),\n",
      "   midi.NoteOnEvent(tick=0, channel=4, data=[69, 100]),\n",
      "   midi.NoteOffEvent(tick=96, channel=4, data=[69, 64]),\n",
      "   midi.NoteOnEvent(tick=0, channel=4, data=[67, 100]),\n",
      "   midi.NoteOffEvent(tick=96, channel=4, data=[67, 64]),\n",
      "   midi.NoteOnEvent(tick=0, channel=4, data=[66, 100]),\n",
      "   midi.NoteOffEvent(tick=96, channel=4, data=[66, 64]),\n",
      "   midi.NoteOnEvent(tick=0, channel=4, data=[64, 100]),\n",
      "   midi.NoteOffEvent(tick=96, channel=4, data=[64, 64]),\n",
      "   midi.NoteOnEvent(tick=0, channel=4, data=[62, 100]),\n",
      "   midi.NoteOffEvent(tick=192, channel=4, data=[62, 64]),\n",
      "   midi.NoteOnEvent(tick=0, channel=4, data=[74, 100]),\n",
      "   midi.NoteOffEvent(tick=192, channel=4, data=[74, 64]),\n",
      "   midi.NoteOnEvent(tick=0, channel=4, data=[71, 100]),\n",
      "   midi.NoteOffEvent(tick=192, channel=4, data=[71, 64]),\n",
      "   midi.NoteOnEvent(tick=0, channel=4, data=[66, 100]),\n",
      "   midi.NoteOffEvent(tick=192, channel=4, data=[66, 64]),\n",
      "   midi.NoteOnEvent(tick=0, channel=4, data=[68, 100]),\n",
      "   midi.NoteOffEvent(tick=192, channel=4, data=[68, 64]),\n",
      "   midi.NoteOnEvent(tick=0, channel=4, data=[78, 100]),\n",
      "   midi.NoteOffEvent(tick=384, channel=4, data=[78, 64]),\n",
      "   midi.NoteOnEvent(tick=0, channel=4, data=[76, 100]),\n",
      "   midi.NoteOffEvent(tick=96, channel=4, data=[76, 64]),\n",
      "   midi.NoteOnEvent(tick=0, channel=4, data=[74, 100]),\n",
      "   midi.NoteOffEvent(tick=96, channel=4, data=[74, 64]),\n",
      "   midi.NoteOnEvent(tick=0, channel=4, data=[76, 100]),\n",
      "   midi.NoteOffEvent(tick=192, channel=4, data=[76, 64]),\n",
      "   midi.NoteOnEvent(tick=0, channel=4, data=[73, 100]),\n",
      "   midi.NoteOffEvent(tick=192, channel=4, data=[73, 64]),\n",
      "   midi.NoteOnEvent(tick=0, channel=4, data=[69, 100]),\n",
      "   midi.NoteOffEvent(tick=192, channel=4, data=[69, 64]),\n",
      "   midi.NoteOnEvent(tick=0, channel=4, data=[64, 100]),\n",
      "   midi.NoteOffEvent(tick=192, channel=4, data=[64, 64]),\n",
      "   midi.NoteOnEvent(tick=0, channel=4, data=[66, 100]),\n",
      "   midi.NoteOffEvent(tick=192, channel=4, data=[66, 64]),\n",
      "   midi.NoteOnEvent(tick=0, channel=4, data=[76, 100]),\n",
      "   midi.NoteOffEvent(tick=384, channel=4, data=[76, 64]),\n",
      "   midi.NoteOnEvent(tick=0, channel=4, data=[74, 100]),\n",
      "   midi.NoteOffEvent(tick=96, channel=4, data=[74, 64]),\n",
      "   midi.NoteOnEvent(tick=0, channel=4, data=[73, 100]),\n",
      "   midi.NoteOffEvent(tick=96, channel=4, data=[73, 64]),\n",
      "   midi.NoteOnEvent(tick=0, channel=4, data=[71, 100]),\n",
      "   midi.NoteOffEvent(tick=96, channel=4, data=[71, 64]),\n",
      "   midi.NoteOnEvent(tick=0, channel=4, data=[73, 100]),\n",
      "   midi.NoteOffEvent(tick=96, channel=4, data=[73, 64]),\n",
      "   midi.NoteOnEvent(tick=0, channel=4, data=[71, 100]),\n",
      "   midi.NoteOffEvent(tick=96, channel=4, data=[71, 64]),\n",
      "   midi.NoteOnEvent(tick=96, channel=4, data=[71, 100]),\n",
      "   midi.NoteOffEvent(tick=96, channel=4, data=[71, 64]),\n",
      "   midi.NoteOnEvent(tick=96, channel=4, data=[71, 100]),\n",
      "   midi.NoteOffEvent(tick=96, channel=4, data=[71, 64]),\n",
      "   midi.NoteOnEvent(tick=96, channel=4, data=[83, 100]),\n",
      "   midi.NoteOffEvent(tick=384, channel=4, data=[83, 64]),\n",
      "   midi.NoteOnEvent(tick=192, channel=4, data=[81, 100]),\n",
      "   midi.NoteOffEvent(tick=96, channel=4, data=[81, 64]),\n",
      "   midi.NoteOnEvent(tick=0, channel=4, data=[80, 100]),\n",
      "   midi.NoteOffEvent(tick=96, channel=4, data=[80, 64]),\n",
      "   midi.NoteOnEvent(tick=0, channel=4, data=[81, 100]),\n",
      "   midi.NoteOffEvent(tick=96, channel=4, data=[81, 64]),\n",
      "   midi.NoteOnEvent(tick=0, channel=4, data=[76, 100]),\n",
      "   midi.NoteOffEvent(tick=96, channel=4, data=[76, 64]),\n",
      "   midi.NoteOnEvent(tick=0, channel=4, data=[74, 100]),\n",
      "   midi.NoteOffEvent(tick=96, channel=4, data=[74, 64]),\n",
      "   midi.NoteOnEvent(tick=0, channel=4, data=[73, 100]),\n",
      "   midi.NoteOffEvent(tick=96, channel=4, data=[73, 64]),\n",
      "   midi.NoteOnEvent(tick=0, channel=4, data=[74, 100]),\n",
      "   midi.NoteOffEvent(tick=96, channel=4, data=[74, 64]),\n",
      "   midi.NoteOnEvent(tick=0, channel=4, data=[73, 100]),\n",
      "   midi.NoteOffEvent(tick=96, channel=4, data=[73, 64]),\n",
      "   midi.NoteOnEvent(tick=0, channel=4, data=[71, 100]),\n",
      "   midi.NoteOffEvent(tick=96, channel=4, data=[71, 64]),\n",
      "   midi.NoteOnEvent(tick=0, channel=4, data=[73, 100]),\n",
      "   midi.NoteOffEvent(tick=96, channel=4, data=[73, 64]),\n",
      "   midi.NoteOnEvent(tick=0, channel=4, data=[69, 100]),\n",
      "   midi.NoteOffEvent(tick=192, channel=4, data=[69, 64]),\n",
      "   midi.NoteOnEvent(tick=0, channel=4, data=[57, 100]),\n",
      "   midi.NoteOffEvent(tick=192, channel=4, data=[57, 64]),\n",
      "   midi.NoteOnEvent(tick=0, channel=4, data=[61, 100]),\n",
      "   midi.NoteOffEvent(tick=192, channel=4, data=[61, 64]),\n",
      "   midi.NoteOnEvent(tick=0, channel=4, data=[64, 100]),\n",
      "   midi.NoteOffEvent(tick=192, channel=4, data=[64, 64]),\n",
      "   midi.NoteOnEvent(tick=0, channel=4, data=[69, 100]),\n",
      "   midi.NoteOffEvent(tick=192, channel=4, data=[69, 64]),\n",
      "   midi.NoteOnEvent(tick=0, channel=4, data=[67, 100]),\n",
      "   midi.NoteOffEvent(tick=96, channel=4, data=[67, 64]),\n",
      "   midi.NoteOnEvent(tick=0, channel=4, data=[66, 100]),\n",
      "   midi.NoteOffEvent(tick=96, channel=4, data=[66, 64]),\n",
      "   midi.NoteOnEvent(tick=0, channel=4, data=[64, 100]),\n",
      "   midi.NoteOffEvent(tick=96, channel=4, data=[64, 64]),\n",
      "   midi.NoteOnEvent(tick=0, channel=4, data=[62, 100]),\n",
      "   midi.NoteOffEvent(tick=96, channel=4, data=[62, 64]),\n",
      "   midi.NoteOnEvent(tick=0, channel=4, data=[61, 100]),\n",
      "   midi.NoteOffEvent(tick=96, channel=4, data=[61, 64]),\n",
      "   midi.NoteOnEvent(tick=0, channel=4, data=[59, 100]),\n",
      "   midi.NoteOffEvent(tick=96, channel=4, data=[59, 64]),\n",
      "   midi.NoteOnEvent(tick=0, channel=4, data=[58, 100]),\n",
      "   midi.NoteOffEvent(tick=192, channel=4, data=[58, 64]),\n",
      "   midi.NoteOnEvent(tick=0, channel=4, data=[58, 100]),\n",
      "   midi.NoteOffEvent(tick=192, channel=4, data=[58, 64]),\n",
      "   midi.NoteOnEvent(tick=0, channel=4, data=[61, 100]),\n",
      "   midi.NoteOffEvent(tick=192, channel=4, data=[61, 64]),\n",
      "   midi.NoteOnEvent(tick=0, channel=4, data=[64, 100]),\n",
      "   midi.NoteOffEvent(tick=192, channel=4, data=[64, 64]),\n",
      "   midi.NoteOnEvent(tick=0, channel=4, data=[70, 100]),\n",
      "   midi.NoteOffEvent(tick=192, channel=4, data=[70, 64]),\n",
      "   midi.NoteOnEvent(tick=0, channel=4, data=[73, 100]),\n",
      "   midi.NoteOffEvent(tick=192, channel=4, data=[73, 64]),\n",
      "   midi.NoteOnEvent(tick=0, channel=4, data=[70, 100]),\n",
      "   midi.NoteOffEvent(tick=192, channel=4, data=[70, 64]),\n",
      "   midi.NoteOnEvent(tick=0, channel=4, data=[66, 100]),\n",
      "   midi.NoteOffEvent(tick=192, channel=4, data=[66, 64]),\n",
      "   midi.NoteOnEvent(tick=192, channel=4, data=[71, 100]),\n",
      "   midi.NoteOffEvent(tick=192, channel=4, data=[71, 64]),\n",
      "   midi.NoteOnEvent(tick=0, channel=4, data=[66, 100]),\n",
      "   midi.NoteOffEvent(tick=96, channel=4, data=[66, 64]),\n",
      "   midi.NoteOnEvent(tick=0, channel=4, data=[64, 100]),\n",
      "   midi.NoteOffEvent(tick=96, channel=4, data=[64, 64]),\n",
      "   midi.NoteOnEvent(tick=0, channel=4, data=[62, 100]),\n",
      "   midi.NoteOffEvent(tick=96, channel=4, data=[62, 64]),\n",
      "   midi.NoteOnEvent(tick=0, channel=4, data=[61, 100]),\n",
      "   midi.NoteOffEvent(tick=96, channel=4, data=[61, 64]),\n",
      "   midi.NoteOnEvent(tick=0, channel=4, data=[59, 100]),\n",
      "   midi.NoteOffEvent(tick=192, channel=4, data=[59, 64]),\n",
      "   midi.NoteOnEvent(tick=0, channel=4, data=[63, 100]),\n",
      "   midi.NoteOffEvent(tick=192, channel=4, data=[63, 64]),\n",
      "   midi.NoteOnEvent(tick=0, channel=4, data=[66, 100]),\n",
      "   midi.NoteOffEvent(tick=192, channel=4, data=[66, 64]),\n",
      "   midi.NoteOnEvent(tick=0, channel=4, data=[69, 100]),\n",
      "   midi.NoteOffEvent(tick=192, channel=4, data=[69, 64]),\n",
      "   midi.NoteOnEvent(tick=0, channel=4, data=[72, 100]),\n",
      "   midi.NoteOffEvent(tick=96, channel=4, data=[72, 64]),\n",
      "   midi.NoteOnEvent(tick=0, channel=4, data=[74, 100]),\n",
      "   midi.NoteOffEvent(tick=96, channel=4, data=[74, 64]),\n",
      "   midi.NoteOnEvent(tick=0, channel=4, data=[72, 100]),\n",
      "   midi.NoteOffEvent(tick=96, channel=4, data=[72, 64]),\n",
      "   midi.NoteOnEvent(tick=0, channel=4, data=[71, 100]),\n",
      "   midi.NoteOffEvent(tick=96, channel=4, data=[71, 64]),\n",
      "   midi.NoteOnEvent(tick=0, channel=4, data=[69, 100]),\n",
      "   midi.NoteOffEvent(tick=96, channel=4, data=[69, 64]),\n",
      "   midi.NoteOnEvent(tick=0, channel=4, data=[67, 100]),\n",
      "   midi.NoteOffEvent(tick=96, channel=4, data=[67, 64]),\n",
      "   midi.NoteOnEvent(tick=0, channel=4, data=[66, 100]),\n",
      "   midi.NoteOffEvent(tick=96, channel=4, data=[66, 64]),\n",
      "   midi.NoteOnEvent(tick=0, channel=4, data=[64, 100]),\n",
      "   midi.NoteOffEvent(tick=96, channel=4, data=[64, 64]),\n",
      "   midi.NoteOnEvent(tick=0, channel=4, data=[63, 100]),\n",
      "   midi.NoteOffEvent(tick=192, channel=4, data=[63, 64]),\n",
      "   midi.NoteOnEvent(tick=0, channel=4, data=[78, 100]),\n",
      "   midi.NoteOffEvent(tick=192, channel=4, data=[78, 64]),\n",
      "   midi.NoteOnEvent(tick=0, channel=4, data=[75, 100]),\n",
      "   midi.NoteOffEvent(tick=192, channel=4, data=[75, 64]),\n",
      "   midi.NoteOnEvent(tick=0, channel=4, data=[71, 100]),\n",
      "   midi.NoteOffEvent(tick=192, channel=4, data=[71, 64]),\n",
      "   midi.NoteOnEvent(tick=192, channel=4, data=[76, 100]),\n",
      "   midi.NoteOffEvent(tick=192, channel=4, data=[76, 64]),\n",
      "   midi.NoteOnEvent(tick=0, channel=4, data=[71, 100]),\n",
      "   midi.NoteOffEvent(tick=96, channel=4, data=[71, 64]),\n",
      "   midi.NoteOnEvent(tick=0, channel=4, data=[69, 100]),\n",
      "   midi.NoteOffEvent(tick=96, channel=4, data=[69, 64]),\n",
      "   midi.NoteOnEvent(tick=0, channel=4, data=[67, 100]),\n",
      "   midi.NoteOffEvent(tick=96, channel=4, data=[67, 64]),\n",
      "   midi.NoteOnEvent(tick=0, channel=4, data=[66, 100]),\n",
      "   midi.NoteOffEvent(tick=96, channel=4, data=[66, 64]),\n",
      "   midi.NoteOnEvent(tick=0, channel=4, data=[64, 100]),\n",
      "   midi.NoteOffEvent(tick=192, channel=4, data=[64, 64]),\n",
      "   midi.NoteOnEvent(tick=0, channel=4, data=[79, 100]),\n",
      "   midi.NoteOffEvent(tick=96, channel=4, data=[79, 64]),\n",
      "   midi.NoteOnEvent(tick=0, channel=4, data=[78, 100]),\n",
      "   midi.NoteOffEvent(tick=96, channel=4, data=[78, 64]),\n",
      "   midi.NoteOnEvent(tick=0, channel=4, data=[76, 100]),\n",
      "   midi.NoteOffEvent(tick=96, channel=4, data=[76, 64]),\n",
      "   midi.NoteOnEvent(tick=0, channel=4, data=[74, 100]),\n",
      "   midi.NoteOffEvent(tick=96, channel=4, data=[74, 64]),\n",
      "   midi.NoteOnEvent(tick=0, channel=4, data=[73, 100]),\n",
      "   midi.NoteOffEvent(tick=96, channel=4, data=[73, 64]),\n",
      "   midi.NoteOnEvent(tick=0, channel=4, data=[74, 100]),\n",
      "   midi.NoteOffEvent(tick=96, channel=4, data=[74, 64]),\n",
      "   midi.NoteOnEvent(tick=0, channel=4, data=[76, 100]),\n",
      "   midi.NoteOffEvent(tick=384, channel=4, data=[76, 64]),\n",
      "   midi.NoteOnEvent(tick=576, channel=4, data=[78, 100]),\n",
      "   midi.NoteOffEvent(tick=96, channel=4, data=[78, 64]),\n",
      "   midi.NoteOnEvent(tick=0, channel=4, data=[76, 100]),\n",
      "   midi.NoteOffEvent(tick=96, channel=4, data=[76, 64]),\n",
      "   midi.NoteOnEvent(tick=0, channel=4, data=[74, 100]),\n",
      "   midi.NoteOffEvent(tick=96, channel=4, data=[74, 64]),\n",
      "   midi.NoteOnEvent(tick=0, channel=4, data=[73, 100]),\n",
      "   midi.NoteOffEvent(tick=96, channel=4, data=[73, 64]),\n",
      "   midi.NoteOnEvent(tick=0, channel=4, data=[71, 100]),\n",
      "   midi.NoteOffEvent(tick=96, channel=4, data=[71, 64]),\n",
      "   midi.NoteOnEvent(tick=0, channel=4, data=[73, 100]),\n",
      "   midi.NoteOffEvent(tick=96, channel=4, data=[73, 64]),\n",
      "   midi.NoteOnEvent(tick=0, channel=4, data=[74, 100]),\n",
      "   midi.NoteOffEvent(tick=384, channel=4, data=[74, 64]),\n",
      "   midi.NoteOnEvent(tick=576, channel=4, data=[69, 100]),\n",
      "   midi.NoteOffEvent(tick=384, channel=4, data=[69, 64]),\n",
      "   midi.NoteOnEvent(tick=0, channel=4, data=[73, 100]),\n",
      "   midi.NoteOffEvent(tick=384, channel=4, data=[73, 64]),\n",
      "   midi.NoteOnEvent(tick=0, channel=4, data=[76, 100]),\n",
      "   midi.NoteOffEvent(tick=192, channel=4, data=[76, 64]),\n",
      "   midi.NoteOnEvent(tick=0, channel=4, data=[69, 100]),\n",
      "   midi.NoteOffEvent(tick=192, channel=4, data=[69, 64]),\n",
      "   midi.NoteOnEvent(tick=0, channel=4, data=[73, 100]),\n",
      "   midi.NoteOffEvent(tick=192, channel=4, data=[73, 64]),\n",
      "   midi.NoteOnEvent(tick=0, channel=4, data=[74, 100]),\n",
      "   midi.NoteOffEvent(tick=192, channel=4, data=[74, 64]),\n",
      "   midi.NoteOnEvent(tick=0, channel=4, data=[74, 100]),\n",
      "   midi.NoteOffEvent(tick=192, channel=4, data=[74, 64]),\n",
      "   midi.NoteOnEvent(tick=0, channel=4, data=[74, 100]),\n",
      "   midi.NoteOffEvent(tick=192, channel=4, data=[74, 64]),\n",
      "   midi.NoteOnEvent(tick=0, channel=4, data=[69, 100]),\n",
      "   midi.NoteOffEvent(tick=192, channel=4, data=[69, 64]),\n",
      "   midi.NoteOnEvent(tick=0, channel=4, data=[66, 100]),\n",
      "   midi.NoteOffEvent(tick=384, channel=4, data=[66, 64]),\n",
      "   midi.NoteOnEvent(tick=384, channel=4, data=[69, 100]),\n",
      "   midi.NoteOffEvent(tick=384, channel=4, data=[69, 64]),\n",
      "   midi.NoteOnEvent(tick=0, channel=4, data=[66, 100]),\n",
      "   midi.NoteOffEvent(tick=384, channel=4, data=[66, 64]),\n",
      "   midi.NoteOnEvent(tick=0, channel=4, data=[62, 100]),\n",
      "   midi.NoteOffEvent(tick=512, channel=4, data=[62, 64]),\n",
      "   midi.NoteOnEvent(tick=64, channel=4, data=[66, 100]),\n",
      "   midi.NoteOffEvent(tick=192, channel=4, data=[66, 64]),\n",
      "   midi.NoteOnEvent(tick=0, channel=4, data=[69, 100]),\n",
      "   midi.NoteOffEvent(tick=192, channel=4, data=[69, 64]),\n",
      "   midi.NoteOnEvent(tick=0, channel=4, data=[67, 100]),\n",
      "   midi.NoteOffEvent(tick=192, channel=4, data=[67, 64]),\n",
      "   midi.NoteOnEvent(tick=0, channel=4, data=[66, 100]),\n",
      "   midi.NoteOffEvent(tick=192, channel=4, data=[66, 64]),\n",
      "   midi.NoteOnEvent(tick=0, channel=4, data=[69, 100]),\n",
      "   midi.NoteOffEvent(tick=192, channel=4, data=[69, 64]),\n",
      "   midi.NoteOnEvent(tick=0, channel=4, data=[67, 100]),\n",
      "   midi.NoteOffEvent(tick=192, channel=4, data=[67, 64]),\n",
      "   midi.NoteOnEvent(tick=0, channel=4, data=[66, 100]),\n",
      "   midi.NoteOffEvent(tick=192, channel=4, data=[66, 64]),\n",
      "   midi.NoteOnEvent(tick=0, channel=4, data=[67, 100]),\n",
      "   midi.NoteOffEvent(tick=192, channel=4, data=[67, 64]),\n",
      "   midi.NoteOnEvent(tick=0, channel=4, data=[62, 100]),\n",
      "   midi.NoteOffEvent(tick=192, channel=4, data=[62, 64]),\n",
      "   midi.NoteOnEvent(tick=0, channel=4, data=[67, 100]),\n",
      "   midi.NoteOffEvent(tick=96, channel=4, data=[67, 64]),\n",
      "   midi.NoteOnEvent(tick=0, channel=4, data=[66, 100]),\n",
      "   midi.NoteOffEvent(tick=96, channel=4, data=[66, 64]),\n",
      "   midi.NoteOnEvent(tick=0, channel=4, data=[64, 100]),\n",
      "   midi.NoteOffEvent(tick=96, channel=4, data=[64, 64]),\n",
      "   midi.NoteOnEvent(tick=0, channel=4, data=[62, 100]),\n",
      "   midi.NoteOffEvent(tick=96, channel=4, data=[62, 64]),\n",
      "   midi.NoteOnEvent(tick=0, channel=4, data=[61, 100]),\n",
      "   midi.NoteOffEvent(tick=96, channel=4, data=[61, 64]),\n",
      "   midi.NoteOnEvent(tick=0, channel=4, data=[62, 100]),\n",
      "   midi.NoteOffEvent(tick=96, channel=4, data=[62, 64]),\n",
      "   midi.NoteOnEvent(tick=0, channel=4, data=[64, 100]),\n",
      "   midi.NoteOffEvent(tick=192, channel=4, data=[64, 64]),\n",
      "   midi.NoteOnEvent(tick=0, channel=4, data=[64, 100]),\n",
      "   midi.NoteOffEvent(tick=480, channel=4, data=[64, 64]),\n",
      "   midi.NoteOnEvent(tick=0, channel=4, data=[67, 100]),\n",
      "   midi.NoteOffEvent(tick=96, channel=4, data=[67, 64]),\n",
      "   midi.NoteOnEvent(tick=0, channel=4, data=[66, 100]),\n",
      "   midi.NoteOffEvent(tick=96, channel=4, data=[66, 64]),\n",
      "   midi.NoteOnEvent(tick=0, channel=4, data=[64, 100]),\n",
      "   midi.NoteOffEvent(tick=96, channel=4, data=[64, 64]),\n",
      "   midi.NoteOnEvent(tick=0, channel=4, data=[69, 100]),\n",
      "   midi.NoteOffEvent(tick=192, channel=4, data=[69, 64]),\n",
      "   midi.NoteOnEvent(tick=0, channel=4, data=[66, 100]),\n",
      "   midi.NoteOffEvent(tick=192, channel=4, data=[66, 64]),\n",
      "   midi.NoteOnEvent(tick=0, channel=4, data=[71, 100]),\n",
      "   midi.NoteOffEvent(tick=192, channel=4, data=[71, 64]),\n",
      "   midi.NoteOnEvent(tick=0, channel=4, data=[69, 100]),\n",
      "   midi.NoteOffEvent(tick=192, channel=4, data=[69, 64]),\n",
      "   midi.NoteOnEvent(tick=0, channel=4, data=[69, 100]),\n",
      "   midi.NoteOffEvent(tick=192, channel=4, data=[69, 64]),\n",
      "   midi.NoteOnEvent(tick=0, channel=4, data=[67, 100]),\n",
      "   midi.NoteOffEvent(tick=192, channel=4, data=[67, 64]),\n",
      "   midi.NoteOnEvent(tick=0, channel=4, data=[66, 100]),\n",
      "   midi.NoteOffEvent(tick=384, channel=4, data=[66, 64]),\n",
      "   midi.NoteOnEvent(tick=0, channel=4, data=[62, 100]),\n",
      "   midi.NoteOffEvent(tick=192, channel=4, data=[62, 64]),\n",
      "   midi.NoteOnEvent(tick=0, channel=4, data=[74, 100]),\n",
      "   midi.NoteOffEvent(tick=192, channel=4, data=[74, 64]),\n",
      "   midi.NoteOnEvent(tick=0, channel=4, data=[73, 100]),\n",
      "   midi.NoteOffEvent(tick=192, channel=4, data=[73, 64]),\n",
      "   midi.NoteOnEvent(tick=0, channel=4, data=[69, 100]),\n",
      "   midi.NoteOffEvent(tick=192, channel=4, data=[69, 64]),\n",
      "   midi.NoteOnEvent(tick=0, channel=4, data=[74, 100]),\n",
      "   midi.NoteOffEvent(tick=192, channel=4, data=[74, 64]),\n",
      "   midi.NoteOnEvent(tick=0, channel=4, data=[73, 100]),\n",
      "   midi.NoteOffEvent(tick=96, channel=4, data=[73, 64]),\n",
      "   midi.NoteOnEvent(tick=0, channel=4, data=[71, 100]),\n",
      "   midi.NoteOffEvent(tick=96, channel=4, data=[71, 64]),\n",
      "   midi.NoteOnEvent(tick=0, channel=4, data=[69, 100]),\n",
      "   midi.NoteOffEvent(tick=96, channel=4, data=[69, 64]),\n",
      "   midi.NoteOnEvent(tick=0, channel=4, data=[67, 100]),\n",
      "   midi.NoteOffEvent(tick=96, channel=4, data=[67, 64]),\n",
      "   midi.NoteOnEvent(tick=0, channel=4, data=[66, 100]),\n",
      "   midi.NoteOffEvent(tick=96, channel=4, data=[66, 64]),\n",
      "   midi.NoteOnEvent(tick=0, channel=4, data=[64, 100]),\n",
      "   midi.NoteOffEvent(tick=96, channel=4, data=[64, 64]),\n",
      "   midi.NoteOnEvent(tick=0, channel=4, data=[62, 100]),\n",
      "   midi.NoteOffEvent(tick=192, channel=4, data=[62, 64]),\n",
      "   midi.NoteOnEvent(tick=672, channel=4, data=[74, 100]),\n",
      "   midi.NoteOffEvent(tick=96, channel=4, data=[74, 64]),\n",
      "   midi.NoteOnEvent(tick=0, channel=4, data=[73, 100]),\n",
      "   midi.NoteOffEvent(tick=96, channel=4, data=[73, 64]),\n",
      "   midi.NoteOnEvent(tick=0, channel=4, data=[71, 100]),\n",
      "   midi.NoteOffEvent(tick=96, channel=4, data=[71, 64]),\n",
      "   midi.NoteOnEvent(tick=0, channel=4, data=[69, 100]),\n",
      "   midi.NoteOffEvent(tick=96, channel=4, data=[69, 64]),\n",
      "   midi.NoteOnEvent(tick=0, channel=4, data=[67, 100]),\n",
      "   midi.NoteOffEvent(tick=96, channel=4, data=[67, 64]),\n",
      "   midi.NoteOnEvent(tick=0, channel=4, data=[66, 100]),\n",
      "   midi.NoteOffEvent(tick=96, channel=4, data=[66, 64]),\n",
      "   midi.NoteOnEvent(tick=0, channel=4, data=[64, 100]),\n",
      "   midi.NoteOffEvent(tick=96, channel=4, data=[64, 64]),\n",
      "   midi.NoteOnEvent(tick=0, channel=4, data=[62, 100]),\n",
      "   midi.NoteOffEvent(tick=192, channel=4, data=[62, 64]),\n",
      "   midi.NoteOnEvent(tick=0, channel=4, data=[69, 100]),\n",
      "   midi.NoteOffEvent(tick=256, channel=4, data=[69, 64]),\n",
      "   midi.NoteOnEvent(tick=32, channel=4, data=[67, 100]),\n",
      "   midi.NoteOffEvent(tick=96, channel=4, data=[67, 64]),\n",
      "   midi.NoteOnEvent(tick=0, channel=4, data=[66, 100]),\n",
      "   midi.NoteOffEvent(tick=256, channel=4, data=[66, 64]),\n",
      "   midi.NoteOnEvent(tick=32, channel=4, data=[64, 100]),\n",
      "   midi.NoteOffEvent(tick=96, channel=4, data=[64, 64]),\n",
      "   midi.NoteOnEvent(tick=0, channel=4, data=[62, 100]),\n",
      "   midi.NoteOffEvent(tick=256, channel=4, data=[62, 64]),\n",
      "   midi.NoteOnEvent(tick=32, channel=4, data=[66, 100]),\n",
      "   midi.NoteOffEvent(tick=96, channel=4, data=[66, 64]),\n",
      "   midi.NoteOnEvent(tick=0, channel=4, data=[71, 100]),\n",
      "   midi.NoteOffEvent(tick=192, channel=4, data=[71, 64]),\n",
      "   midi.NoteOnEvent(tick=0, channel=4, data=[71, 100]),\n",
      "   midi.NoteOffEvent(tick=480, channel=4, data=[71, 64]),\n",
      "   midi.NoteOnEvent(tick=0, channel=4, data=[69, 100]),\n",
      "   midi.NoteOffEvent(tick=96, channel=4, data=[69, 64]),\n",
      "   midi.NoteOnEvent(tick=0, channel=4, data=[71, 100]),\n",
      "   midi.NoteOffEvent(tick=96, channel=4, data=[71, 64]),\n",
      "   midi.NoteOnEvent(tick=0, channel=4, data=[67, 100]),\n",
      "   midi.NoteOffEvent(tick=96, channel=4, data=[67, 64]),\n",
      "   midi.NoteOnEvent(tick=0, channel=4, data=[64, 100]),\n",
      "   midi.NoteOffEvent(tick=480, channel=4, data=[64, 64]),\n",
      "   midi.NoteOnEvent(tick=0, channel=4, data=[57, 100]),\n",
      "   midi.NoteOffEvent(tick=96, channel=4, data=[57, 64]),\n",
      "   midi.NoteOnEvent(tick=0, channel=4, data=[59, 100]),\n",
      "   midi.NoteOffEvent(tick=96, channel=4, data=[59, 64]),\n",
      "   midi.NoteOnEvent(tick=0, channel=4, data=[61, 100]),\n",
      "   midi.NoteOffEvent(tick=96, channel=4, data=[61, 64]),\n",
      "   midi.NoteOnEvent(tick=0, channel=4, data=[62, 100]),\n",
      "   midi.NoteOffEvent(tick=192, channel=4, data=[62, 64]),\n",
      "   midi.NoteOnEvent(tick=0, channel=4, data=[74, 100]),\n",
      "   midi.NoteOffEvent(tick=192, channel=4, data=[74, 64]),\n",
      "   midi.NoteOnEvent(tick=0, channel=4, data=[71, 100]),\n",
      "   midi.NoteOffEvent(tick=192, channel=4, data=[71, 64]),\n",
      "   midi.NoteOnEvent(tick=0, channel=4, data=[66, 100]),\n",
      "   midi.NoteOffEvent(tick=192, channel=4, data=[66, 64]),\n",
      "   midi.NoteOnEvent(tick=0, channel=4, data=[68, 100]),\n",
      "   midi.NoteOffEvent(tick=192, channel=4, data=[68, 64]),\n",
      "   midi.NoteOnEvent(tick=0, channel=4, data=[78, 100]),\n",
      "   midi.NoteOffEvent(tick=384, channel=4, data=[78, 64]),\n",
      "   midi.NoteOnEvent(tick=0, channel=4, data=[76, 100]),\n",
      "   midi.NoteOffEvent(tick=96, channel=4, data=[76, 64]),\n",
      "   midi.NoteOnEvent(tick=0, channel=4, data=[74, 100]),\n",
      "   midi.NoteOffEvent(tick=96, channel=4, data=[74, 64]),\n",
      "   midi.NoteOnEvent(tick=0, channel=4, data=[76, 100]),\n",
      "   midi.NoteOffEvent(tick=192, channel=4, data=[76, 64]),\n",
      "   midi.NoteOnEvent(tick=0, channel=4, data=[73, 100]),\n",
      "   midi.NoteOffEvent(tick=192, channel=4, data=[73, 64]),\n",
      "   midi.NoteOnEvent(tick=0, channel=4, data=[69, 100]),\n",
      "   midi.NoteOffEvent(tick=192, channel=4, data=[69, 64]),\n",
      "   midi.NoteOnEvent(tick=0, channel=4, data=[64, 100]),\n",
      "   midi.NoteOffEvent(tick=192, channel=4, data=[64, 64]),\n",
      "   midi.NoteOnEvent(tick=0, channel=4, data=[66, 100]),\n",
      "   midi.NoteOffEvent(tick=192, channel=4, data=[66, 64]),\n",
      "   midi.NoteOnEvent(tick=0, channel=4, data=[76, 100]),\n",
      "   midi.NoteOffEvent(tick=384, channel=4, data=[76, 64]),\n",
      "   midi.NoteOnEvent(tick=0, channel=4, data=[74, 100]),\n",
      "   midi.NoteOffEvent(tick=96, channel=4, data=[74, 64]),\n",
      "   midi.NoteOnEvent(tick=0, channel=4, data=[73, 100]),\n",
      "   midi.NoteOffEvent(tick=96, channel=4, data=[73, 64]),\n",
      "   midi.NoteOnEvent(tick=0, channel=4, data=[71, 100]),\n",
      "   midi.NoteOffEvent(tick=96, channel=4, data=[71, 64]),\n",
      "   midi.NoteOnEvent(tick=0, channel=4, data=[73, 100]),\n",
      "   midi.NoteOffEvent(tick=96, channel=4, data=[73, 64]),\n",
      "   midi.NoteOnEvent(tick=0, channel=4, data=[71, 100]),\n",
      "   midi.NoteOffEvent(tick=96, channel=4, data=[71, 64]),\n",
      "   midi.NoteOnEvent(tick=96, channel=4, data=[71, 100]),\n",
      "   midi.NoteOffEvent(tick=96, channel=4, data=[71, 64]),\n",
      "   midi.NoteOnEvent(tick=96, channel=4, data=[71, 100]),\n",
      "   midi.NoteOffEvent(tick=96, channel=4, data=[71, 64]),\n",
      "   midi.NoteOnEvent(tick=96, channel=4, data=[83, 100]),\n",
      "   midi.NoteOffEvent(tick=384, channel=4, data=[83, 64]),\n",
      "   midi.NoteOnEvent(tick=192, channel=4, data=[81, 100]),\n",
      "   midi.NoteOffEvent(tick=96, channel=4, data=[81, 64]),\n",
      "   midi.NoteOnEvent(tick=0, channel=4, data=[80, 100]),\n",
      "   midi.NoteOffEvent(tick=96, channel=4, data=[80, 64]),\n",
      "   midi.NoteOnEvent(tick=0, channel=4, data=[81, 100]),\n",
      "   midi.NoteOffEvent(tick=96, channel=4, data=[81, 64]),\n",
      "   midi.NoteOnEvent(tick=0, channel=4, data=[76, 100]),\n",
      "   midi.NoteOffEvent(tick=96, channel=4, data=[76, 64]),\n",
      "   midi.NoteOnEvent(tick=0, channel=4, data=[74, 100]),\n",
      "   midi.NoteOffEvent(tick=96, channel=4, data=[74, 64]),\n",
      "   midi.NoteOnEvent(tick=0, channel=4, data=[73, 100]),\n",
      "   midi.NoteOffEvent(tick=96, channel=4, data=[73, 64]),\n",
      "   midi.NoteOnEvent(tick=0, channel=4, data=[74, 100]),\n",
      "   midi.NoteOffEvent(tick=96, channel=4, data=[74, 64]),\n",
      "   midi.NoteOnEvent(tick=0, channel=4, data=[73, 100]),\n",
      "   midi.NoteOffEvent(tick=96, channel=4, data=[73, 64]),\n",
      "   midi.NoteOnEvent(tick=0, channel=4, data=[71, 100]),\n",
      "   midi.NoteOffEvent(tick=96, channel=4, data=[71, 64]),\n",
      "   midi.NoteOnEvent(tick=0, channel=4, data=[73, 100]),\n",
      "   midi.NoteOffEvent(tick=96, channel=4, data=[73, 64]),\n",
      "   midi.NoteOnEvent(tick=2112, channel=4, data=[59, 100]),\n",
      "   midi.NoteOffEvent(tick=192, channel=4, data=[59, 64]),\n",
      "   midi.NoteOnEvent(tick=0, channel=4, data=[64, 100]),\n",
      "   midi.NoteOffEvent(tick=192, channel=4, data=[64, 64]),\n",
      "   midi.NoteOnEvent(tick=0, channel=4, data=[69, 100]),\n",
      "   midi.NoteOffEvent(tick=384, channel=4, data=[69, 64]),\n",
      "   midi.NoteOnEvent(tick=0, channel=4, data=[68, 100]),\n",
      "   midi.NoteOffEvent(tick=192, channel=4, data=[68, 64]),\n",
      "   midi.NoteOnEvent(tick=0, channel=4, data=[69, 100]),\n",
      "   midi.NoteOffEvent(tick=192, channel=4, data=[69, 64]),\n",
      "   midi.NoteOnEvent(tick=0, channel=4, data=[68, 100]),\n",
      "   midi.NoteOffEvent(tick=192, channel=4, data=[68, 64]),\n",
      "   midi.NoteOnEvent(tick=0, channel=4, data=[69, 100]),\n",
      "   midi.NoteOffEvent(tick=192, channel=4, data=[69, 64]),\n",
      "   midi.NoteOnEvent(tick=1536, channel=4, data=[64, 100]),\n",
      "   midi.NoteOffEvent(tick=192, channel=4, data=[64, 64]),\n",
      "   midi.NoteOnEvent(tick=0, channel=4, data=[69, 100]),\n",
      "   midi.NoteOffEvent(tick=192, channel=4, data=[69, 64]),\n",
      "   midi.NoteOnEvent(tick=0, channel=4, data=[74, 100]),\n",
      "   midi.NoteOffEvent(tick=384, channel=4, data=[74, 64]),\n",
      "   midi.NoteOnEvent(tick=0, channel=4, data=[73, 100]),\n",
      "   midi.NoteOffEvent(tick=192, channel=4, data=[73, 64]),\n",
      "   midi.NoteOnEvent(tick=0, channel=4, data=[74, 100]),\n",
      "   midi.NoteOffEvent(tick=192, channel=4, data=[74, 64]),\n",
      "   midi.NoteOnEvent(tick=0, channel=4, data=[73, 100]),\n",
      "   midi.NoteOffEvent(tick=192, channel=4, data=[73, 64]),\n",
      "   midi.NoteOnEvent(tick=0, channel=4, data=[74, 100]),\n",
      "   midi.NoteOffEvent(tick=192, channel=4, data=[74, 64]),\n",
      "   midi.NoteOnEvent(tick=3264, channel=4, data=[69, 100]),\n",
      "   midi.NoteOffEvent(tick=96, channel=4, data=[69, 64]),\n",
      "   midi.NoteOnEvent(tick=0, channel=4, data=[71, 100]),\n",
      "   midi.NoteOffEvent(tick=96, channel=4, data=[71, 64]),\n",
      "   midi.NoteOnEvent(tick=0, channel=4, data=[73, 100]),\n",
      "   midi.NoteOffEvent(tick=96, channel=4, data=[73, 64]),\n",
      "   midi.NoteOnEvent(tick=96, channel=4, data=[73, 100]),\n",
      "   midi.NoteOffEvent(tick=96, channel=4, data=[73, 64]),\n",
      "   midi.NoteOnEvent(tick=96, channel=4, data=[74, 100]),\n",
      "   midi.NoteOffEvent(tick=96, channel=4, data=[74, 64]),\n",
      "   midi.NoteOnEvent(tick=96, channel=4, data=[73, 100]),\n",
      "   midi.NoteOffEvent(tick=512, channel=4, data=[73, 64]),\n",
      "   midi.NoteOnEvent(tick=64, channel=4, data=[61, 100]),\n",
      "   midi.NoteOffEvent(tick=192, channel=4, data=[61, 64]),\n",
      "   midi.NoteOnEvent(tick=0, channel=4, data=[66, 100]),\n",
      "   midi.NoteOffEvent(tick=192, channel=4, data=[66, 64]),\n",
      "   midi.NoteOnEvent(tick=0, channel=4, data=[59, 100]),\n",
      "   midi.NoteOffEvent(tick=384, channel=4, data=[59, 64]),\n",
      "   midi.NoteOnEvent(tick=0, channel=4, data=[64, 100]),\n",
      "   midi.NoteOffEvent(tick=192, channel=4, data=[64, 64]),\n",
      "   midi.NoteOnEvent(tick=0, channel=4, data=[64, 100]),\n",
      "   midi.NoteOffEvent(tick=96, channel=4, data=[64, 64]),\n",
      "   midi.NoteOnEvent(tick=0, channel=4, data=[69, 100]),\n",
      "   midi.NoteOffEvent(tick=96, channel=4, data=[69, 64]),\n",
      "   midi.NoteOnEvent(tick=0, channel=4, data=[68, 100]),\n",
      "   midi.NoteOffEvent(tick=96, channel=4, data=[68, 64]),\n",
      "   midi.NoteOnEvent(tick=0, channel=4, data=[66, 100]),\n",
      "   midi.NoteOffEvent(tick=96, channel=4, data=[66, 64]),\n",
      "   midi.NoteOnEvent(tick=0, channel=4, data=[64, 100]),\n",
      "   midi.NoteOffEvent(tick=96, channel=4, data=[64, 64]),\n",
      "   midi.NoteOnEvent(tick=0, channel=4, data=[62, 100]),\n",
      "   midi.NoteOffEvent(tick=96, channel=4, data=[62, 64]),\n",
      "   midi.NoteOnEvent(tick=0, channel=4, data=[61, 100]),\n",
      "   midi.NoteOffEvent(tick=96, channel=4, data=[61, 64]),\n",
      "   midi.NoteOnEvent(tick=0, channel=4, data=[59, 100]),\n",
      "   midi.NoteOffEvent(tick=96, channel=4, data=[59, 64]),\n",
      "   midi.NoteOnEvent(tick=0, channel=4, data=[57, 100]),\n",
      "   midi.NoteOffEvent(tick=192, channel=4, data=[57, 64]),\n",
      "   midi.NoteOnEvent(tick=0, channel=4, data=[69, 100]),\n",
      "   midi.NoteOffEvent(tick=192, channel=4, data=[69, 64]),\n",
      "   midi.NoteOnEvent(tick=0, channel=4, data=[68, 100]),\n",
      "   midi.NoteOffEvent(tick=192, channel=4, data=[68, 64]),\n",
      "   midi.NoteOnEvent(tick=0, channel=4, data=[64, 100]),\n",
      "   midi.NoteOffEvent(tick=192, channel=4, data=[64, 64]),\n",
      "   midi.NoteOnEvent(tick=0, channel=4, data=[69, 100]),\n",
      "   midi.NoteOffEvent(tick=192, channel=4, data=[69, 64]),\n",
      "   midi.NoteOnEvent(tick=0, channel=4, data=[68, 100]),\n",
      "   midi.NoteOffEvent(tick=96, channel=4, data=[68, 64]),\n",
      "   midi.NoteOnEvent(tick=0, channel=4, data=[66, 100]),\n",
      "   midi.NoteOffEvent(tick=96, channel=4, data=[66, 64]),\n",
      "   midi.NoteOnEvent(tick=0, channel=4, data=[64, 100]),\n",
      "   midi.NoteOffEvent(tick=96, channel=4, data=[64, 64]),\n",
      "   midi.NoteOnEvent(tick=0, channel=4, data=[62, 100]),\n",
      "   midi.NoteOffEvent(tick=96, channel=4, data=[62, 64]),\n",
      "   midi.NoteOnEvent(tick=0, channel=4, data=[61, 100]),\n",
      "   midi.NoteOffEvent(tick=96, channel=4, data=[61, 64]),\n",
      "   midi.NoteOnEvent(tick=0, channel=4, data=[59, 100]),\n",
      "   midi.NoteOffEvent(tick=96, channel=4, data=[59, 64]),\n",
      "   midi.NoteOnEvent(tick=0, channel=4, data=[57, 100]),\n",
      "   midi.NoteOffEvent(tick=192, channel=4, data=[57, 64]),\n",
      "   midi.NoteOnEvent(tick=0, channel=4, data=[78, 100]),\n",
      "   midi.NoteOffEvent(tick=192, channel=4, data=[78, 64]),\n",
      "   midi.NoteOnEvent(tick=0, channel=4, data=[76, 100]),\n",
      "   midi.NoteOffEvent(tick=192, channel=4, data=[76, 64]),\n",
      "   midi.NoteOnEvent(tick=0, channel=4, data=[76, 100]),\n",
      "   midi.NoteOffEvent(tick=192, channel=4, data=[76, 64]),\n",
      "   midi.NoteOnEvent(tick=0, channel=4, data=[76, 100]),\n",
      "   midi.NoteOffEvent(tick=96, channel=4, data=[76, 64]),\n",
      "   midi.NoteOnEvent(tick=0, channel=4, data=[69, 100]),\n",
      "   midi.NoteOffEvent(tick=96, channel=4, data=[69, 64]),\n",
      "   midi.NoteOnEvent(tick=0, channel=4, data=[68, 100]),\n",
      "   midi.NoteOffEvent(tick=96, channel=4, data=[68, 64]),\n",
      "   midi.NoteOnEvent(tick=0, channel=4, data=[66, 100]),\n",
      "   midi.NoteOffEvent(tick=96, channel=4, data=[66, 64]),\n",
      "   midi.NoteOnEvent(tick=0, channel=4, data=[64, 100]),\n",
      "   midi.NoteOffEvent(tick=96, channel=4, data=[64, 64]),\n",
      "   midi.NoteOnEvent(tick=0, channel=4, data=[62, 100]),\n",
      "   midi.NoteOffEvent(tick=96, channel=4, data=[62, 64]),\n",
      "   midi.NoteOnEvent(tick=0, channel=4, data=[61, 100]),\n",
      "   midi.NoteOffEvent(tick=96, channel=4, data=[61, 64]),\n",
      "   midi.NoteOnEvent(tick=0, channel=4, data=[59, 100]),\n",
      "   midi.NoteOffEvent(tick=96, channel=4, data=[59, 64]),\n",
      "   midi.NoteOnEvent(tick=0, channel=4, data=[57, 100]),\n",
      "   midi.NoteOffEvent(tick=192, channel=4, data=[57, 64]),\n",
      "   midi.NoteOnEvent(tick=0, channel=4, data=[69, 100]),\n",
      "   midi.NoteOffEvent(tick=192, channel=4, data=[69, 64]),\n",
      "   midi.NoteOnEvent(tick=0, channel=4, data=[68, 100]),\n",
      "   midi.NoteOffEvent(tick=192, channel=4, data=[68, 64]),\n",
      "   midi.NoteOnEvent(tick=0, channel=4, data=[64, 100]),\n",
      "   midi.NoteOffEvent(tick=192, channel=4, data=[64, 64]),\n",
      "   midi.NoteOnEvent(tick=0, channel=4, data=[69, 100]),\n",
      "   midi.NoteOffEvent(tick=192, channel=4, data=[69, 64]),\n",
      "   midi.NoteOnEvent(tick=0, channel=4, data=[68, 100]),\n",
      "   midi.NoteOffEvent(tick=96, channel=4, data=[68, 64]),\n",
      "   midi.NoteOnEvent(tick=0, channel=4, data=[66, 100]),\n",
      "   midi.NoteOffEvent(tick=96, channel=4, data=[66, 64]),\n",
      "   midi.NoteOnEvent(tick=0, channel=4, data=[64, 100]),\n",
      "   midi.NoteOffEvent(tick=96, channel=4, data=[64, 64]),\n",
      "   midi.NoteOnEvent(tick=0, channel=4, data=[62, 100]),\n",
      "   midi.NoteOffEvent(tick=96, channel=4, data=[62, 64]),\n",
      "   midi.NoteOnEvent(tick=0, channel=4, data=[61, 100]),\n",
      "   midi.NoteOffEvent(tick=96, channel=4, data=[61, 64]),\n",
      "   midi.NoteOnEvent(tick=0, channel=4, data=[59, 100]),\n",
      "   midi.NoteOffEvent(tick=96, channel=4, data=[59, 64]),\n",
      "   midi.NoteOnEvent(tick=0, channel=4, data=[57, 100]),\n",
      "   midi.NoteOffEvent(tick=192, channel=4, data=[57, 64]),\n",
      "   midi.NoteOnEvent(tick=0, channel=4, data=[78, 100]),\n",
      "   midi.NoteOffEvent(tick=192, channel=4, data=[78, 64]),\n",
      "   midi.NoteOnEvent(tick=0, channel=4, data=[76, 100]),\n",
      "   midi.NoteOffEvent(tick=192, channel=4, data=[76, 64]),\n",
      "   midi.NoteOnEvent(tick=0, channel=4, data=[76, 100]),\n",
      "   midi.NoteOffEvent(tick=192, channel=4, data=[76, 64]),\n",
      "   midi.NoteOnEvent(tick=0, channel=4, data=[76, 100]),\n",
      "   midi.NoteOffEvent(tick=96, channel=4, data=[76, 64]),\n",
      "   midi.NoteOnEvent(tick=0, channel=4, data=[69, 100]),\n",
      "   midi.NoteOffEvent(tick=96, channel=4, data=[69, 64]),\n",
      "   midi.NoteOnEvent(tick=0, channel=4, data=[68, 100]),\n",
      "   midi.NoteOffEvent(tick=96, channel=4, data=[68, 64]),\n",
      "   midi.NoteOnEvent(tick=0, channel=4, data=[66, 100]),\n",
      "   midi.NoteOffEvent(tick=96, channel=4, data=[66, 64]),\n",
      "   midi.NoteOnEvent(tick=0, channel=4, data=[64, 100]),\n",
      "   midi.NoteOffEvent(tick=96, channel=4, data=[64, 64]),\n",
      "   midi.NoteOnEvent(tick=0, channel=4, data=[62, 100]),\n",
      "   midi.NoteOffEvent(tick=96, channel=4, data=[62, 64]),\n",
      "   midi.NoteOnEvent(tick=0, channel=4, data=[61, 100]),\n",
      "   midi.NoteOffEvent(tick=96, channel=4, data=[61, 64]),\n",
      "   midi.NoteOnEvent(tick=0, channel=4, data=[59, 100]),\n",
      "   midi.NoteOffEvent(tick=96, channel=4, data=[59, 64]),\n",
      "   midi.NoteOnEvent(tick=0, channel=4, data=[62, 100]),\n",
      "   midi.NoteOffEvent(tick=192, channel=4, data=[62, 64]),\n",
      "   midi.NoteOnEvent(tick=0, channel=4, data=[78, 100]),\n",
      "   midi.NoteOffEvent(tick=192, channel=4, data=[78, 64]),\n",
      "   midi.NoteOnEvent(tick=0, channel=4, data=[71, 100]),\n",
      "   midi.NoteOffEvent(tick=192, channel=4, data=[71, 64]),\n",
      "   midi.NoteOnEvent(tick=0, channel=4, data=[66, 100]),\n",
      "   midi.NoteOffEvent(tick=192, channel=4, data=[66, 64]),\n",
      "   midi.NoteOnEvent(tick=0, channel=4, data=[68, 100]),\n",
      "   midi.NoteOffEvent(tick=192, channel=4, data=[68, 64]),\n",
      "   midi.NoteOnEvent(tick=0, channel=4, data=[78, 100]),\n",
      "   midi.NoteOffEvent(tick=384, channel=4, data=[78, 64]),\n",
      "   midi.NoteOnEvent(tick=0, channel=4, data=[76, 100]),\n",
      "   midi.NoteOffEvent(tick=96, channel=4, data=[76, 64]),\n",
      "   midi.NoteOnEvent(tick=0, channel=4, data=[74, 100]),\n",
      "   midi.NoteOffEvent(tick=96, channel=4, data=[74, 64]),\n",
      "   midi.NoteOnEvent(tick=0, channel=4, data=[76, 100]),\n",
      "   midi.NoteOffEvent(tick=192, channel=4, data=[76, 64]),\n",
      "   midi.NoteOnEvent(tick=0, channel=4, data=[73, 100]),\n",
      "   midi.NoteOffEvent(tick=192, channel=4, data=[73, 64]),\n",
      "   midi.NoteOnEvent(tick=0, channel=4, data=[69, 100]),\n",
      "   midi.NoteOffEvent(tick=192, channel=4, data=[69, 64]),\n",
      "   midi.NoteOnEvent(tick=0, channel=4, data=[64, 100]),\n",
      "   midi.NoteOffEvent(tick=192, channel=4, data=[64, 64]),\n",
      "   midi.NoteOnEvent(tick=0, channel=4, data=[66, 100]),\n",
      "   midi.NoteOffEvent(tick=192, channel=4, data=[66, 64]),\n",
      "   midi.NoteOnEvent(tick=0, channel=4, data=[76, 100]),\n",
      "   midi.NoteOffEvent(tick=384, channel=4, data=[76, 64]),\n",
      "   midi.NoteOnEvent(tick=0, channel=4, data=[74, 100]),\n",
      "   midi.NoteOffEvent(tick=96, channel=4, data=[74, 64]),\n",
      "   midi.NoteOnEvent(tick=0, channel=4, data=[73, 100]),\n",
      "   midi.NoteOffEvent(tick=96, channel=4, data=[73, 64]),\n",
      "   midi.NoteOnEvent(tick=0, channel=4, data=[74, 100]),\n",
      "   midi.NoteOffEvent(tick=192, channel=4, data=[74, 64]),\n",
      "   midi.NoteOnEvent(tick=0, channel=4, data=[74, 100]),\n",
      "   midi.NoteOffEvent(tick=192, channel=4, data=[74, 64]),\n",
      "   midi.NoteOnEvent(tick=0, channel=4, data=[76, 100]),\n",
      "   midi.NoteOffEvent(tick=192, channel=4, data=[76, 64]),\n",
      "   midi.NoteOnEvent(tick=0, channel=4, data=[78, 100]),\n",
      "   midi.NoteOffEvent(tick=192, channel=4, data=[78, 64]),\n",
      "   midi.NoteOnEvent(tick=0, channel=4, data=[76, 100]),\n",
      "   midi.NoteOffEvent(tick=96, channel=4, data=[76, 64]),\n",
      "   midi.NoteOnEvent(tick=0, channel=4, data=[71, 100]),\n",
      "   midi.NoteOffEvent(tick=96, channel=4, data=[71, 64]),\n",
      "   midi.NoteOnEvent(tick=0, channel=4, data=[73, 100]),\n",
      "   midi.NoteOffEvent(tick=96, channel=4, data=[73, 64]),\n",
      "   midi.NoteOnEvent(tick=0, channel=4, data=[74, 100]),\n",
      "   midi.NoteOffEvent(tick=96, channel=4, data=[74, 64]),\n",
      "   midi.NoteOnEvent(tick=0, channel=4, data=[76, 100]),\n",
      "   midi.NoteOffEvent(tick=576, channel=4, data=[76, 64]),\n",
      "   midi.NoteOnEvent(tick=0, channel=4, data=[76, 100]),\n",
      "   midi.NoteOffEvent(tick=192, channel=4, data=[76, 64]),\n",
      "   midi.NoteOnEvent(tick=0, channel=4, data=[64, 100]),\n",
      "   midi.NoteOffEvent(tick=192, channel=4, data=[64, 64]),\n",
      "   midi.NoteOnEvent(tick=0, channel=4, data=[74, 100]),\n",
      "   midi.NoteOffEvent(tick=192, channel=4, data=[74, 64]),\n",
      "   midi.NoteOnEvent(tick=0, channel=4, data=[73, 100]),\n",
      "   midi.NoteOffEvent(tick=192, channel=4, data=[73, 64]),\n",
      "   midi.NoteOnEvent(tick=0, channel=4, data=[62, 100]),\n",
      "   midi.NoteOffEvent(tick=192, channel=4, data=[62, 64]),\n",
      "   midi.NoteOnEvent(tick=0, channel=4, data=[61, 100]),\n",
      "   midi.NoteOffEvent(tick=192, channel=4, data=[61, 64]),\n",
      "   midi.NoteOnEvent(tick=0, channel=4, data=[59, 100]),\n",
      "   midi.NoteOffEvent(tick=192, channel=4, data=[59, 64]),\n",
      "   midi.NoteOnEvent(tick=0, channel=4, data=[57, 100]),\n",
      "   midi.NoteOffEvent(tick=384, channel=4, data=[57, 64]),\n",
      "   midi.NoteOnEvent(tick=0, channel=4, data=[66, 100]),\n",
      "   midi.NoteOffEvent(tick=384, channel=4, data=[66, 64]),\n",
      "   midi.NoteOnEvent(tick=384, channel=4, data=[68, 100]),\n",
      "   midi.NoteOffEvent(tick=192, channel=4, data=[68, 64]),\n",
      "   midi.NoteOnEvent(tick=0, channel=4, data=[65, 100]),\n",
      "   midi.NoteOffEvent(tick=192, channel=4, data=[65, 64]),\n",
      "   midi.NoteOnEvent(tick=0, channel=4, data=[66, 100]),\n",
      "   midi.NoteOffEvent(tick=192, channel=4, data=[66, 64]),\n",
      "   midi.NoteOnEvent(tick=0, channel=4, data=[66, 100]),\n",
      "   midi.NoteOffEvent(tick=384, channel=4, data=[66, 64]),\n",
      "   midi.NoteOnEvent(tick=0, channel=4, data=[65, 100]),\n",
      "   midi.NoteOffEvent(tick=192, channel=4, data=[65, 64]),\n",
      "   midi.NoteOnEvent(tick=0, channel=4, data=[66, 100]),\n",
      "   midi.NoteOffEvent(tick=192, channel=4, data=[66, 64]),\n",
      "   midi.NoteOnEvent(tick=0, channel=4, data=[68, 100]),\n",
      "   midi.NoteOffEvent(tick=192, channel=4, data=[68, 64]),\n",
      "   midi.NoteOnEvent(tick=0, channel=4, data=[69, 100]),\n",
      "   midi.NoteOffEvent(tick=192, channel=4, data=[69, 64]),\n",
      "   midi.NoteOnEvent(tick=0, channel=4, data=[70, 100]),\n",
      "   midi.NoteOffEvent(tick=384, channel=4, data=[70, 64]),\n",
      "   midi.NoteOnEvent(tick=0, channel=4, data=[71, 100]),\n",
      "   midi.NoteOffEvent(tick=192, channel=4, data=[71, 64]),\n",
      "   midi.NoteOnEvent(tick=0, channel=4, data=[74, 100]),\n",
      "   midi.NoteOffEvent(tick=384, channel=4, data=[74, 64]),\n",
      "   midi.NoteOnEvent(tick=384, channel=4, data=[73, 100]),\n",
      "   midi.NoteOffEvent(tick=192, channel=4, data=[73, 64]),\n",
      "   midi.NoteOnEvent(tick=0, channel=4, data=[70, 100]),\n",
      "   midi.NoteOffEvent(tick=192, channel=4, data=[70, 64]),\n",
      "   midi.NoteOnEvent(tick=0, channel=4, data=[71, 100]),\n",
      "   midi.NoteOffEvent(tick=192, channel=4, data=[71, 64]),\n",
      "   midi.NoteOnEvent(tick=0, channel=4, data=[71, 100]),\n",
      "   midi.NoteOffEvent(tick=384, channel=4, data=[71, 64]),\n",
      "   midi.NoteOnEvent(tick=0, channel=4, data=[70, 100]),\n",
      "   midi.NoteOffEvent(tick=192, channel=4, data=[70, 64]),\n",
      "   midi.NoteOnEvent(tick=0, channel=4, data=[71, 100]),\n",
      "   midi.NoteOffEvent(tick=192, channel=4, data=[71, 64]),\n",
      "   midi.NoteOnEvent(tick=0, channel=4, data=[73, 100]),\n",
      "   midi.NoteOffEvent(tick=192, channel=4, data=[73, 64]),\n",
      "   midi.NoteOnEvent(tick=0, channel=4, data=[74, 100]),\n",
      "   midi.NoteOffEvent(tick=192, channel=4, data=[74, 64]),\n",
      "   midi.NoteOnEvent(tick=0, channel=4, data=[74, 100]),\n",
      "   midi.NoteOffEvent(tick=384, channel=4, data=[74, 64]),\n",
      "   midi.NoteOnEvent(tick=0, channel=4, data=[67, 100]),\n",
      "   midi.NoteOffEvent(tick=192, channel=4, data=[67, 64]),\n",
      "   midi.NoteOnEvent(tick=0, channel=4, data=[71, 100]),\n",
      "   midi.NoteOffEvent(tick=192, channel=4, data=[71, 64]),\n",
      "   midi.NoteOnEvent(tick=0, channel=4, data=[76, 100]),\n",
      "   midi.NoteOffEvent(tick=192, channel=4, data=[76, 64]),\n",
      "   midi.NoteOnEvent(tick=0, channel=4, data=[73, 100]),\n",
      "   midi.NoteOffEvent(tick=384, channel=4, data=[73, 64]),\n",
      "   midi.NoteOnEvent(tick=96, channel=4, data=[69, 100]),\n",
      "   midi.NoteOffEvent(tick=96, channel=4, data=[69, 64]),\n",
      "   midi.NoteOnEvent(tick=0, channel=4, data=[71, 100]),\n",
      "   midi.NoteOffEvent(tick=96, channel=4, data=[71, 64]),\n",
      "   midi.NoteOnEvent(tick=0, channel=4, data=[73, 100]),\n",
      "   midi.NoteOffEvent(tick=96, channel=4, data=[73, 64]),\n",
      "   midi.NoteOnEvent(tick=0, channel=4, data=[74, 100]),\n",
      "   midi.NoteOffEvent(tick=512, channel=4, data=[74, 64]),\n",
      "   midi.NoteOnEvent(tick=64, channel=4, data=[69, 100]),\n",
      "   midi.NoteOffEvent(tick=96, channel=4, data=[69, 64]),\n",
      "   midi.NoteOnEvent(tick=0, channel=4, data=[66, 100]),\n",
      "   midi.NoteOffEvent(tick=96, channel=4, data=[66, 64]),\n",
      "   midi.NoteOnEvent(tick=0, channel=4, data=[71, 100]),\n",
      "   midi.NoteOffEvent(tick=384, channel=4, data=[71, 64]),\n",
      "   midi.NoteOnEvent(tick=96, channel=4, data=[69, 100]),\n",
      "   midi.NoteOffEvent(tick=96, channel=4, data=[69, 64]),\n",
      "   midi.NoteOnEvent(tick=0, channel=4, data=[67, 100]),\n",
      "   midi.NoteOffEvent(tick=96, channel=4, data=[67, 64]),\n",
      "   midi.NoteOnEvent(tick=0, channel=4, data=[66, 100]),\n",
      "   midi.NoteOffEvent(tick=96, channel=4, data=[66, 64]),\n",
      "   midi.NoteOnEvent(tick=0, channel=4, data=[64, 100]),\n",
      "   midi.NoteOffEvent(tick=192, channel=4, data=[64, 64]),\n",
      "   midi.NoteOnEvent(tick=0, channel=4, data=[76, 100]),\n",
      "   midi.NoteOffEvent(tick=96, channel=4, data=[76, 64]),\n",
      "   midi.NoteOnEvent(tick=0, channel=4, data=[74, 100]),\n",
      "   midi.NoteOffEvent(tick=96, channel=4, data=[74, 64]),\n",
      "   midi.NoteOnEvent(tick=0, channel=4, data=[73, 100]),\n",
      "   midi.NoteOffEvent(tick=96, channel=4, data=[73, 64]),\n",
      "   midi.NoteOnEvent(tick=0, channel=4, data=[71, 100]),\n",
      "   midi.NoteOffEvent(tick=96, channel=4, data=[71, 64]),\n",
      "   midi.NoteOnEvent(tick=0, channel=4, data=[70, 100]),\n",
      "   midi.NoteOffEvent(tick=96, channel=4, data=[70, 64]),\n",
      "   midi.NoteOnEvent(tick=0, channel=4, data=[71, 100]),\n",
      "   midi.NoteOffEvent(tick=96, channel=4, data=[71, 64]),\n",
      "   midi.NoteOnEvent(tick=0, channel=4, data=[73, 100]),\n",
      "   midi.NoteOffEvent(tick=192, channel=4, data=[73, 64]),\n",
      "   midi.NoteOnEvent(tick=0, channel=4, data=[70, 100]),\n",
      "   midi.NoteOffEvent(tick=192, channel=4, data=[70, 64]),\n",
      "   midi.NoteOnEvent(tick=0, channel=4, data=[71, 100]),\n",
      "   midi.NoteOffEvent(tick=192, channel=4, data=[71, 64]),\n",
      "   midi.NoteOnEvent(tick=0, channel=4, data=[66, 100]),\n",
      "   midi.NoteOffEvent(tick=384, channel=4, data=[66, 64]),\n",
      "   midi.NoteOnEvent(tick=0, channel=4, data=[67, 100]),\n",
      "   midi.NoteOffEvent(tick=384, channel=4, data=[67, 64]),\n",
      "   midi.NoteOnEvent(tick=0, channel=4, data=[66, 100]),\n",
      "   midi.NoteOffEvent(tick=192, channel=4, data=[66, 64]),\n",
      "   midi.NoteOnEvent(tick=0, channel=4, data=[66, 100]),\n",
      "   midi.NoteOnEvent(tick=0, channel=4, data=[66, 100]),\n",
      "   midi.NoteOffEvent(tick=384, channel=4, data=[66, 64]),\n",
      "   midi.NoteOffEvent(tick=0, channel=4, data=[66, 64]),\n",
      "   midi.NoteOnEvent(tick=576, channel=4, data=[67, 100]),\n",
      "   midi.NoteOffEvent(tick=96, channel=4, data=[67, 64]),\n",
      "   midi.NoteOnEvent(tick=0, channel=4, data=[66, 100]),\n",
      "   midi.NoteOffEvent(tick=96, channel=4, data=[66, 64]),\n",
      "   midi.NoteOnEvent(tick=0, channel=4, data=[64, 100]),\n",
      "   midi.NoteOffEvent(tick=96, channel=4, data=[64, 64]),\n",
      "   midi.NoteOnEvent(tick=0, channel=4, data=[62, 100]),\n",
      "   midi.NoteOffEvent(tick=96, channel=4, data=[62, 64]),\n",
      "   midi.NoteOnEvent(tick=0, channel=4, data=[61, 100]),\n",
      "   midi.NoteOffEvent(tick=96, channel=4, data=[61, 64]),\n",
      "   midi.NoteOnEvent(tick=0, channel=4, data=[59, 100]),\n",
      "   midi.NoteOffEvent(tick=96, channel=4, data=[59, 64]),\n",
      "   midi.NoteOnEvent(tick=0, channel=4, data=[58, 100]),\n",
      "   midi.NoteOffEvent(tick=192, channel=4, data=[58, 64]),\n",
      "   midi.NoteOnEvent(tick=0, channel=4, data=[58, 100]),\n",
      "   midi.NoteOffEvent(tick=192, channel=4, data=[58, 64]),\n",
      "   midi.NoteOnEvent(tick=0, channel=4, data=[61, 100]),\n",
      "   midi.NoteOffEvent(tick=192, channel=4, data=[61, 64]),\n",
      "   midi.NoteOnEvent(tick=0, channel=4, data=[64, 100]),\n",
      "   midi.NoteOffEvent(tick=192, channel=4, data=[64, 64]),\n",
      "   midi.NoteOnEvent(tick=0, channel=4, data=[70, 100]),\n",
      "   midi.NoteOffEvent(tick=192, channel=4, data=[70, 64]),\n",
      "   midi.NoteOnEvent(tick=0, channel=4, data=[73, 100]),\n",
      "   midi.NoteOffEvent(tick=192, channel=4, data=[73, 64]),\n",
      "   midi.NoteOnEvent(tick=0, channel=4, data=[70, 100]),\n",
      "   midi.NoteOffEvent(tick=192, channel=4, data=[70, 64]),\n",
      "   midi.NoteOnEvent(tick=0, channel=4, data=[66, 100]),\n",
      "   midi.NoteOffEvent(tick=192, channel=4, data=[66, 64]),\n",
      "   midi.NoteOnEvent(tick=192, channel=4, data=[71, 100]),\n",
      "   midi.NoteOffEvent(tick=192, channel=4, data=[71, 64]),\n",
      "   midi.NoteOnEvent(tick=0, channel=4, data=[66, 100]),\n",
      "   midi.NoteOffEvent(tick=96, channel=4, data=[66, 64]),\n",
      "   midi.NoteOnEvent(tick=0, channel=4, data=[64, 100]),\n",
      "   midi.NoteOffEvent(tick=96, channel=4, data=[64, 64]),\n",
      "   midi.NoteOnEvent(tick=0, channel=4, data=[62, 100]),\n",
      "   midi.NoteOffEvent(tick=96, channel=4, data=[62, 64]),\n",
      "   midi.NoteOnEvent(tick=0, channel=4, data=[61, 100]),\n",
      "   midi.NoteOffEvent(tick=96, channel=4, data=[61, 64]),\n",
      "   midi.NoteOnEvent(tick=0, channel=4, data=[59, 100]),\n",
      "   midi.NoteOffEvent(tick=192, channel=4, data=[59, 64]),\n",
      "   midi.NoteOnEvent(tick=0, channel=4, data=[63, 100]),\n",
      "   midi.NoteOffEvent(tick=192, channel=4, data=[63, 64]),\n",
      "   midi.NoteOnEvent(tick=0, channel=4, data=[66, 100]),\n",
      "   midi.NoteOffEvent(tick=192, channel=4, data=[66, 64]),\n",
      "   midi.NoteOnEvent(tick=0, channel=4, data=[69, 100]),\n",
      "   midi.NoteOffEvent(tick=192, channel=4, data=[69, 64]),\n",
      "   midi.NoteOnEvent(tick=0, channel=4, data=[72, 100]),\n",
      "   midi.NoteOffEvent(tick=96, channel=4, data=[72, 64]),\n",
      "   midi.NoteOnEvent(tick=0, channel=4, data=[74, 100]),\n",
      "   midi.NoteOffEvent(tick=96, channel=4, data=[74, 64]),\n",
      "   midi.NoteOnEvent(tick=0, channel=4, data=[72, 100]),\n",
      "   midi.NoteOffEvent(tick=96, channel=4, data=[72, 64]),\n",
      "   midi.NoteOnEvent(tick=0, channel=4, data=[71, 100]),\n",
      "   midi.NoteOffEvent(tick=96, channel=4, data=[71, 64]),\n",
      "   midi.NoteOnEvent(tick=0, channel=4, data=[69, 100]),\n",
      "   midi.NoteOffEvent(tick=96, channel=4, data=[69, 64]),\n",
      "   midi.NoteOnEvent(tick=0, channel=4, data=[67, 100]),\n",
      "   midi.NoteOffEvent(tick=96, channel=4, data=[67, 64]),\n",
      "   midi.NoteOnEvent(tick=0, channel=4, data=[66, 100]),\n",
      "   midi.NoteOffEvent(tick=96, channel=4, data=[66, 64]),\n",
      "   midi.NoteOnEvent(tick=0, channel=4, data=[64, 100]),\n",
      "   midi.NoteOffEvent(tick=96, channel=4, data=[64, 64]),\n",
      "   midi.NoteOnEvent(tick=0, channel=4, data=[63, 100]),\n",
      "   midi.NoteOffEvent(tick=192, channel=4, data=[63, 64]),\n",
      "   midi.NoteOnEvent(tick=0, channel=4, data=[78, 100]),\n",
      "   midi.NoteOffEvent(tick=192, channel=4, data=[78, 64]),\n",
      "   midi.NoteOnEvent(tick=0, channel=4, data=[75, 100]),\n",
      "   midi.NoteOffEvent(tick=192, channel=4, data=[75, 64]),\n",
      "   midi.NoteOnEvent(tick=0, channel=4, data=[71, 100]),\n",
      "   midi.NoteOffEvent(tick=192, channel=4, data=[71, 64]),\n",
      "   midi.NoteOnEvent(tick=192, channel=4, data=[76, 100]),\n",
      "   midi.NoteOffEvent(tick=192, channel=4, data=[76, 64]),\n",
      "   midi.NoteOnEvent(tick=0, channel=4, data=[71, 100]),\n",
      "   midi.NoteOffEvent(tick=192, channel=4, data=[71, 64]),\n",
      "   midi.NoteOnEvent(tick=0, channel=4, data=[67, 100]),\n",
      "   midi.NoteOffEvent(tick=192, channel=4, data=[67, 64]),\n",
      "   midi.NoteOnEvent(tick=0, channel=4, data=[61, 100]),\n",
      "   midi.NoteOffEvent(tick=192, channel=4, data=[61, 64]),\n",
      "   midi.NoteOnEvent(tick=0, channel=4, data=[65, 100]),\n",
      "   midi.NoteOffEvent(tick=192, channel=4, data=[65, 64]),\n",
      "   midi.NoteOnEvent(tick=0, channel=4, data=[68, 100]),\n",
      "   midi.NoteOffEvent(tick=192, channel=4, data=[68, 64]),\n",
      "   midi.NoteOnEvent(tick=0, channel=4, data=[65, 100]),\n",
      "   midi.NoteOffEvent(tick=192, channel=4, data=[65, 64]),\n",
      "   midi.NoteOnEvent(tick=0, channel=4, data=[66, 100]),\n",
      "   midi.NoteOffEvent(tick=192, channel=4, data=[66, 64]),\n",
      "   midi.NoteOnEvent(tick=0, channel=4, data=[73, 100]),\n",
      "   midi.NoteOffEvent(tick=192, channel=4, data=[73, 64]),\n",
      "   midi.NoteOnEvent(tick=0, channel=4, data=[78, 100]),\n",
      "   midi.NoteOffEvent(tick=192, channel=4, data=[78, 64]),\n",
      "   midi.NoteOnEvent(tick=0, channel=4, data=[71, 100]),\n",
      "   midi.NoteOffEvent(tick=192, channel=4, data=[71, 64]),\n",
      "   midi.NoteOnEvent(tick=0, channel=4, data=[70, 100]),\n",
      "   midi.NoteOffEvent(tick=192, channel=4, data=[70, 64]),\n",
      "   midi.NoteOnEvent(tick=0, channel=4, data=[68, 100]),\n",
      "   midi.NoteOffEvent(tick=192, channel=4, data=[68, 64]),\n",
      "   midi.NoteOnEvent(tick=0, channel=4, data=[73, 100]),\n",
      "   midi.NoteOffEvent(tick=192, channel=4, data=[73, 64]),\n",
      "   midi.NoteOnEvent(tick=0, channel=4, data=[71, 100]),\n",
      "   midi.NoteOffEvent(tick=192, channel=4, data=[71, 64]),\n",
      "   midi.NoteOnEvent(tick=0, channel=4, data=[73, 100]),\n",
      "   midi.NoteOffEvent(tick=96, channel=4, data=[73, 64]),\n",
      "   midi.NoteOnEvent(tick=384, channel=4, data=[71, 100]),\n",
      "   midi.NoteOffEvent(tick=96, channel=4, data=[71, 64]),\n",
      "   midi.NoteOnEvent(tick=0, channel=4, data=[73, 100]),\n",
      "   midi.NoteOffEvent(tick=96, channel=4, data=[73, 64]),\n",
      "   midi.NoteOnEvent(tick=0, channel=4, data=[70, 100]),\n",
      "   midi.NoteOffEvent(tick=96, channel=4, data=[70, 64]),\n",
      "   midi.NoteOnEvent(tick=0, channel=4, data=[66, 100]),\n",
      "   midi.NoteOffEvent(tick=96, channel=4, data=[66, 64]),\n",
      "   midi.NoteOnEvent(tick=0, channel=4, data=[64, 100]),\n",
      "   midi.NoteOffEvent(tick=96, channel=4, data=[64, 64]),\n",
      "   midi.NoteOnEvent(tick=0, channel=4, data=[62, 100]),\n",
      "   midi.NoteOffEvent(tick=96, channel=4, data=[62, 64]),\n",
      "   midi.NoteOnEvent(tick=0, channel=4, data=[61, 100]),\n",
      "   midi.NoteOffEvent(tick=96, channel=4, data=[61, 64]),\n",
      "   midi.NoteOnEvent(tick=0, channel=4, data=[59, 100]),\n",
      "   midi.NoteOffEvent(tick=192, channel=4, data=[59, 64]),\n",
      "   midi.NoteOnEvent(tick=0, channel=4, data=[71, 100]),\n",
      "   midi.NoteOffEvent(tick=384, channel=4, data=[71, 64]),\n",
      "   midi.NoteOnEvent(tick=0, channel=4, data=[74, 100]),\n",
      "   midi.NoteOffEvent(tick=384, channel=4, data=[74, 64]),\n",
      "   midi.NoteOnEvent(tick=0, channel=4, data=[76, 100]),\n",
      "   midi.NoteOffEvent(tick=192, channel=4, data=[76, 64]),\n",
      "   midi.NoteOnEvent(tick=0, channel=4, data=[78, 100]),\n",
      "   midi.NoteOffEvent(tick=384, channel=4, data=[78, 64]),\n",
      "   midi.NoteOnEvent(tick=0, channel=4, data=[70, 100]),\n",
      "   midi.NoteOffEvent(tick=384, channel=4, data=[70, 64]),\n",
      "   midi.NoteOnEvent(tick=0, channel=4, data=[66, 100]),\n",
      "   midi.NoteOffEvent(tick=192, channel=4, data=[66, 64]),\n",
      "   midi.NoteOnEvent(tick=0, channel=4, data=[64, 100]),\n",
      "   midi.NoteOffEvent(tick=192, channel=4, data=[64, 64]),\n",
      "   midi.NoteOnEvent(tick=0, channel=4, data=[62, 100]),\n",
      "   midi.NoteOffEvent(tick=192, channel=4, data=[62, 64]),\n",
      "   midi.NoteOnEvent(tick=0, channel=4, data=[61, 100]),\n",
      "   midi.NoteOffEvent(tick=192, channel=4, data=[61, 64]),\n",
      "   midi.NoteOnEvent(tick=0, channel=4, data=[59, 100]),\n",
      "   midi.NoteOffEvent(tick=384, channel=4, data=[59, 64]),\n",
      "   midi.NoteOnEvent(tick=0, channel=4, data=[67, 100]),\n",
      "   midi.NoteOffEvent(tick=384, channel=4, data=[67, 64]),\n",
      "   midi.NoteOnEvent(tick=384, channel=4, data=[69, 100]),\n",
      "   midi.NoteOffEvent(tick=192, channel=4, data=[69, 64]),\n",
      "   midi.NoteOnEvent(tick=0, channel=4, data=[66, 100]),\n",
      "   midi.NoteOffEvent(tick=192, channel=4, data=[66, 64]),\n",
      "   midi.NoteOnEvent(tick=0, channel=4, data=[67, 100]),\n",
      "   midi.NoteOffEvent(tick=192, channel=4, data=[67, 64]),\n",
      "   midi.NoteOnEvent(tick=0, channel=4, data=[67, 100]),\n",
      "   midi.NoteOffEvent(tick=384, channel=4, data=[67, 64]),\n",
      "   midi.NoteOnEvent(tick=0, channel=4, data=[66, 100]),\n",
      "   midi.NoteOffEvent(tick=192, channel=4, data=[66, 64]),\n",
      "   midi.NoteOnEvent(tick=0, channel=4, data=[67, 100]),\n",
      "   midi.NoteOffEvent(tick=192, channel=4, data=[67, 64]),\n",
      "   midi.NoteOnEvent(tick=0, channel=4, data=[66, 100]),\n",
      "   midi.NoteOffEvent(tick=192, channel=4, data=[66, 64]),\n",
      "   midi.NoteOnEvent(tick=0, channel=4, data=[67, 100]),\n",
      "   midi.NoteOffEvent(tick=192, channel=4, data=[67, 64]),\n",
      "   midi.NoteOnEvent(tick=0, channel=4, data=[72, 100]),\n",
      "   midi.NoteOffEvent(tick=192, channel=4, data=[72, 64]),\n",
      "   midi.NoteOnEvent(tick=0, channel=4, data=[71, 100]),\n",
      "   midi.NoteOffEvent(tick=192, channel=4, data=[71, 64]),\n",
      "   midi.NoteOnEvent(tick=0, channel=4, data=[76, 100]),\n",
      "   midi.NoteOffEvent(tick=192, channel=4, data=[76, 64]),\n",
      "   midi.NoteOnEvent(tick=0, channel=4, data=[71, 100]),\n",
      "   midi.NoteOffEvent(tick=384, channel=4, data=[71, 64]),\n",
      "   midi.NoteOnEvent(tick=384, channel=4, data=[71, 100]),\n",
      "   midi.NoteOffEvent(tick=576, channel=4, data=[71, 64]),\n",
      "   midi.NoteOnEvent(tick=0, channel=4, data=[69, 100]),\n",
      "   midi.NoteOffEvent(tick=96, channel=4, data=[69, 64]),\n",
      "   midi.NoteOnEvent(tick=0, channel=4, data=[67, 100]),\n",
      "   midi.NoteOffEvent(tick=96, channel=4, data=[67, 64]),\n",
      "   midi.NoteOnEvent(tick=0, channel=4, data=[66, 100]),\n",
      "   midi.NoteOffEvent(tick=96, channel=4, data=[66, 64]),\n",
      "   midi.NoteOnEvent(tick=0, channel=4, data=[67, 100]),\n",
      "   midi.NoteOffEvent(tick=96, channel=4, data=[67, 64]),\n",
      "   midi.NoteOnEvent(tick=0, channel=4, data=[69, 100]),\n",
      "   midi.NoteOffEvent(tick=192, channel=4, data=[69, 64]),\n",
      "   midi.NoteOnEvent(tick=0, channel=4, data=[67, 100]),\n",
      "   midi.NoteOffEvent(tick=96, channel=4, data=[67, 64]),\n",
      "   midi.NoteOnEvent(tick=0, channel=4, data=[69, 100]),\n",
      "   midi.NoteOffEvent(tick=96, channel=4, data=[69, 64]),\n",
      "   midi.NoteOnEvent(tick=0, channel=4, data=[71, 100]),\n",
      "   midi.NoteOffEvent(tick=96, channel=4, data=[71, 64]),\n",
      "   midi.NoteOnEvent(tick=96, channel=4, data=[71, 100]),\n",
      "   midi.NoteOffEvent(tick=96, channel=4, data=[71, 64]),\n",
      "   midi.NoteOnEvent(tick=96, channel=4, data=[67, 100]),\n",
      "   midi.NoteOffEvent(tick=96, channel=4, data=[67, 64]),\n",
      "   midi.NoteOnEvent(tick=96, channel=4, data=[64, 100]),\n",
      "   midi.NoteOffEvent(tick=480, channel=4, data=[64, 64]),\n",
      "   midi.NoteOnEvent(tick=0, channel=4, data=[66, 100]),\n",
      "   midi.NoteOffEvent(tick=96, channel=4, data=[66, 64]),\n",
      "   midi.NoteOnEvent(tick=0, channel=4, data=[67, 100]),\n",
      "   midi.NoteOffEvent(tick=96, channel=4, data=[67, 64]),\n",
      "   midi.NoteOnEvent(tick=0, channel=4, data=[64, 100]),\n",
      "   midi.NoteOffEvent(tick=96, channel=4, data=[64, 64]),\n",
      "   midi.NoteOnEvent(tick=0, channel=4, data=[66, 100]),\n",
      "   midi.NoteOffEvent(tick=96, channel=4, data=[66, 64]),\n",
      "   midi.NoteOnEvent(tick=0, channel=4, data=[68, 100]),\n",
      "   midi.NoteOffEvent(tick=96, channel=4, data=[68, 64]),\n",
      "   midi.NoteOnEvent(tick=0, channel=4, data=[69, 100]),\n",
      "   midi.NoteOffEvent(tick=96, channel=4, data=[69, 64]),\n",
      "   midi.NoteOnEvent(tick=96, channel=4, data=[69, 100]),\n",
      "   midi.NoteOffEvent(tick=96, channel=4, data=[69, 64]),\n",
      "   midi.NoteOnEvent(tick=96, channel=4, data=[66, 100]),\n",
      "   midi.NoteOffEvent(tick=96, channel=4, data=[66, 64]),\n",
      "   midi.NoteOnEvent(tick=96, channel=4, data=[71, 100]),\n",
      "   midi.NoteOffEvent(tick=192, channel=4, data=[71, 64]),\n",
      "   midi.NoteOnEvent(tick=0, channel=4, data=[59, 100]),\n",
      "   midi.NoteOffEvent(tick=192, channel=4, data=[59, 64]),\n",
      "   midi.NoteOnEvent(tick=0, channel=4, data=[71, 100]),\n",
      "   midi.NoteOffEvent(tick=384, channel=4, data=[71, 64]),\n",
      "   midi.NoteOnEvent(tick=192, channel=4, data=[68, 100]),\n",
      "   midi.NoteOffEvent(tick=192, channel=4, data=[68, 64]),\n",
      "   midi.NoteOnEvent(tick=0, channel=4, data=[73, 100]),\n",
      "   midi.NoteOffEvent(tick=192, channel=4, data=[73, 64]),\n",
      "   midi.NoteOnEvent(tick=0, channel=4, data=[71, 100]),\n",
      "   midi.NoteOffEvent(tick=192, channel=4, data=[71, 64]),\n",
      "   midi.NoteOnEvent(tick=0, channel=4, data=[69, 100]),\n",
      "   midi.NoteOnEvent(tick=1152, channel=4, data=[68, 100]),\n",
      "   midi.NoteOffEvent(tick=4, channel=4, data=[69, 64]),\n",
      "   midi.NoteOffEvent(tick=188, channel=4, data=[68, 64]),\n",
      "   midi.NoteOnEvent(tick=0, channel=4, data=[66, 100]),\n",
      "   midi.NoteOffEvent(tick=192, channel=4, data=[66, 64]),\n",
      "   midi.NoteOnEvent(tick=0, channel=4, data=[65, 100]),\n",
      "   midi.NoteOffEvent(tick=384, channel=4, data=[65, 64]),\n",
      "   midi.NoteOnEvent(tick=0, channel=4, data=[66, 100]),\n",
      "   midi.NoteOffEvent(tick=384, channel=4, data=[66, 64]),\n",
      "   midi.NoteOnEvent(tick=0, channel=4, data=[66, 100]),\n",
      "   midi.NoteOffEvent(tick=384, channel=4, data=[66, 64]),\n",
      "   midi.NoteOnEvent(tick=0, channel=4, data=[65, 100]),\n",
      "   midi.NoteOffEvent(tick=384, channel=4, data=[65, 64]),\n",
      "   midi.NoteOnEvent(tick=0, channel=4, data=[61, 100]),\n",
      "   midi.NoteOffEvent(tick=384, channel=4, data=[61, 64]),\n",
      "   midi.NoteOnEvent(tick=384, channel=4, data=[62, 100]),\n",
      "   midi.NoteOffEvent(tick=192, channel=4, data=[62, 64]),\n",
      "   midi.NoteOnEvent(tick=0, channel=4, data=[74, 100]),\n",
      "   midi.NoteOffEvent(tick=192, channel=4, data=[74, 64]),\n",
      "   midi.NoteOnEvent(tick=0, channel=4, data=[73, 100]),\n",
      "   midi.NoteOffEvent(tick=192, channel=4, data=[73, 64]),\n",
      "   midi.NoteOnEvent(tick=0, channel=4, data=[69, 100]),\n",
      "   midi.NoteOffEvent(tick=192, channel=4, data=[69, 64]),\n",
      "   midi.NoteOnEvent(tick=0, channel=4, data=[74, 100]),\n",
      "   midi.NoteOffEvent(tick=192, channel=4, data=[74, 64]),\n",
      "   midi.NoteOnEvent(tick=0, channel=4, data=[73, 100]),\n",
      "   midi.NoteOffEvent(tick=96, channel=4, data=[73, 64]),\n",
      "   midi.NoteOnEvent(tick=0, channel=4, data=[71, 100]),\n",
      "   midi.NoteOffEvent(tick=96, channel=4, data=[71, 64]),\n",
      "   midi.NoteOnEvent(tick=0, channel=4, data=[69, 100]),\n",
      "   midi.NoteOffEvent(tick=96, channel=4, data=[69, 64]),\n",
      "   midi.NoteOnEvent(tick=0, channel=4, data=[67, 100]),\n",
      "   midi.NoteOffEvent(tick=96, channel=4, data=[67, 64]),\n",
      "   midi.NoteOnEvent(tick=0, channel=4, data=[66, 100]),\n",
      "   midi.NoteOffEvent(tick=96, channel=4, data=[66, 64]),\n",
      "   midi.NoteOnEvent(tick=0, channel=4, data=[64, 100]),\n",
      "   midi.NoteOffEvent(tick=96, channel=4, data=[64, 64]),\n",
      "   midi.NoteOnEvent(tick=0, channel=4, data=[62, 100]),\n",
      "   midi.NoteOffEvent(tick=192, channel=4, data=[62, 64]),\n",
      "   midi.NoteOnEvent(tick=0, channel=4, data=[71, 100]),\n",
      "   midi.NoteOffEvent(tick=192, channel=4, data=[71, 64]),\n",
      "   midi.NoteOnEvent(tick=0, channel=4, data=[71, 100]),\n",
      "   midi.NoteOffEvent(tick=192, channel=4, data=[71, 64]),\n",
      "   midi.NoteOnEvent(tick=0, channel=4, data=[69, 100]),\n",
      "   midi.NoteOffEvent(tick=192, channel=4, data=[69, 64]),\n",
      "   midi.NoteOnEvent(tick=0, channel=4, data=[69, 100]),\n",
      "   midi.NoteOffEvent(tick=192, channel=4, data=[69, 64]),\n",
      "   midi.NoteOnEvent(tick=0, channel=4, data=[66, 100]),\n",
      "   midi.NoteOffEvent(tick=192, channel=4, data=[66, 64]),\n",
      "   midi.NoteOnEvent(tick=0, channel=4, data=[69, 100]),\n",
      "   midi.NoteOffEvent(tick=192, channel=4, data=[69, 64]),\n",
      "   midi.NoteOnEvent(tick=0, channel=4, data=[74, 100]),\n",
      "   midi.NoteOffEvent(tick=192, channel=4, data=[74, 64]),\n",
      "   midi.NoteOnEvent(tick=0, channel=4, data=[69, 100]),\n",
      "   midi.NoteOffEvent(tick=384, channel=4, data=[69, 64]),\n",
      "   midi.NoteOnEvent(tick=0, channel=4, data=[66, 100]),\n",
      "   midi.NoteOffEvent(tick=384, channel=4, data=[66, 64]),\n",
      "   midi.NoteOnEvent(tick=0, channel=4, data=[62, 100]),\n",
      "   midi.NoteOffEvent(tick=512, channel=4, data=[62, 64]),\n",
      "   midi.NoteOnEvent(tick=64, channel=4, data=[66, 100]),\n",
      "   midi.NoteOffEvent(tick=192, channel=4, data=[66, 64]),\n",
      "   midi.NoteOnEvent(tick=0, channel=4, data=[69, 100]),\n",
      "   midi.NoteOffEvent(tick=192, channel=4, data=[69, 64]),\n",
      "   midi.NoteOnEvent(tick=0, channel=4, data=[67, 100]),\n",
      "   midi.NoteOffEvent(tick=192, channel=4, data=[67, 64]),\n",
      "   midi.NoteOnEvent(tick=0, channel=4, data=[69, 100]),\n",
      "   midi.NoteOffEvent(tick=192, channel=4, data=[69, 64]),\n",
      "   midi.NoteOnEvent(tick=0, channel=4, data=[66, 100]),\n",
      "   midi.NoteOffEvent(tick=192, channel=4, data=[66, 64]),\n",
      "   midi.NoteOnEvent(tick=0, channel=4, data=[67, 100]),\n",
      "   midi.NoteOffEvent(tick=192, channel=4, data=[67, 64]),\n",
      "   midi.NoteOnEvent(tick=0, channel=4, data=[66, 100]),\n",
      "   midi.NoteOffEvent(tick=192, channel=4, data=[66, 64]),\n",
      "   midi.NoteOnEvent(tick=0, channel=4, data=[67, 100]),\n",
      "   midi.NoteOffEvent(tick=192, channel=4, data=[67, 64]),\n",
      "   midi.NoteOnEvent(tick=0, channel=4, data=[62, 100]),\n",
      "   midi.NoteOffEvent(tick=192, channel=4, data=[62, 64]),\n",
      "   midi.NoteOnEvent(tick=0, channel=4, data=[67, 100]),\n",
      "   midi.NoteOffEvent(tick=96, channel=4, data=[67, 64]),\n",
      "   midi.NoteOnEvent(tick=0, channel=4, data=[66, 100]),\n",
      "   midi.NoteOffEvent(tick=96, channel=4, data=[66, 64]),\n",
      "   midi.NoteOnEvent(tick=0, channel=4, data=[64, 100]),\n",
      "   midi.NoteOffEvent(tick=96, channel=4, data=[64, 64]),\n",
      "   midi.NoteOnEvent(tick=0, channel=4, data=[62, 100]),\n",
      "   midi.NoteOffEvent(tick=96, channel=4, data=[62, 64]),\n",
      "   midi.NoteOnEvent(tick=0, channel=4, data=[61, 100]),\n",
      "   midi.NoteOffEvent(tick=96, channel=4, data=[61, 64]),\n",
      "   midi.NoteOnEvent(tick=0, channel=4, data=[62, 100]),\n",
      "   midi.NoteOffEvent(tick=96, channel=4, data=[62, 64]),\n",
      "   midi.NoteOnEvent(tick=0, channel=4, data=[64, 100]),\n",
      "   midi.NoteOffEvent(tick=192, channel=4, data=[64, 64]),\n",
      "   midi.NoteOnEvent(tick=0, channel=4, data=[64, 100]),\n",
      "   midi.NoteOffEvent(tick=480, channel=4, data=[64, 64]),\n",
      "   midi.NoteOnEvent(tick=0, channel=4, data=[67, 100]),\n",
      "   midi.NoteOffEvent(tick=96, channel=4, data=[67, 64]),\n",
      "   midi.NoteOnEvent(tick=0, channel=4, data=[66, 100]),\n",
      "   midi.NoteOffEvent(tick=96, channel=4, data=[66, 64]),\n",
      "   midi.NoteOnEvent(tick=0, channel=4, data=[64, 100]),\n",
      "   midi.NoteOffEvent(tick=96, channel=4, data=[64, 64]),\n",
      "   midi.NoteOnEvent(tick=0, channel=4, data=[69, 100]),\n",
      "   midi.NoteOffEvent(tick=192, channel=4, data=[69, 64]),\n",
      "   midi.NoteOnEvent(tick=0, channel=4, data=[66, 100]),\n",
      "   midi.NoteOffEvent(tick=192, channel=4, data=[66, 64]),\n",
      "   midi.NoteOnEvent(tick=0, channel=4, data=[71, 100]),\n",
      "   midi.NoteOffEvent(tick=192, channel=4, data=[71, 64]),\n",
      "   midi.NoteOnEvent(tick=0, channel=4, data=[69, 100]),\n",
      "   midi.NoteOffEvent(tick=192, channel=4, data=[69, 64]),\n",
      "   midi.NoteOnEvent(tick=0, channel=4, data=[69, 100]),\n",
      "   midi.NoteOffEvent(tick=192, channel=4, data=[69, 64]),\n",
      "   midi.NoteOnEvent(tick=0, channel=4, data=[67, 100]),\n",
      "   midi.NoteOffEvent(tick=192, channel=4, data=[67, 64]),\n",
      "   midi.NoteOnEvent(tick=0, channel=4, data=[66, 100]),\n",
      "   midi.NoteOffEvent(tick=384, channel=4, data=[66, 64]),\n",
      "   midi.NoteOnEvent(tick=0, channel=4, data=[62, 100]),\n",
      "   midi.NoteOffEvent(tick=192, channel=4, data=[62, 64]),\n",
      "   midi.NoteOnEvent(tick=0, channel=4, data=[74, 100]),\n",
      "   midi.NoteOffEvent(tick=192, channel=4, data=[74, 64]),\n",
      "   midi.NoteOnEvent(tick=0, channel=4, data=[73, 100]),\n",
      "   midi.NoteOffEvent(tick=192, channel=4, data=[73, 64]),\n",
      "   midi.NoteOnEvent(tick=0, channel=4, data=[69, 100]),\n",
      "   midi.NoteOffEvent(tick=192, channel=4, data=[69, 64]),\n",
      "   midi.NoteOnEvent(tick=0, channel=4, data=[74, 100]),\n",
      "   midi.NoteOffEvent(tick=192, channel=4, data=[74, 64]),\n",
      "   midi.NoteOnEvent(tick=0, channel=4, data=[73, 100]),\n",
      "   midi.NoteOffEvent(tick=96, channel=4, data=[73, 64]),\n",
      "   midi.NoteOnEvent(tick=0, channel=4, data=[71, 100]),\n",
      "   midi.NoteOffEvent(tick=96, channel=4, data=[71, 64]),\n",
      "   midi.NoteOnEvent(tick=0, channel=4, data=[69, 100]),\n",
      "   midi.NoteOffEvent(tick=96, channel=4, data=[69, 64]),\n",
      "   midi.NoteOnEvent(tick=0, channel=4, data=[67, 100]),\n",
      "   midi.NoteOffEvent(tick=96, channel=4, data=[67, 64]),\n",
      "   midi.NoteOnEvent(tick=0, channel=4, data=[66, 100]),\n",
      "   midi.NoteOffEvent(tick=96, channel=4, data=[66, 64]),\n",
      "   midi.NoteOnEvent(tick=0, channel=4, data=[64, 100]),\n",
      "   midi.NoteOffEvent(tick=96, channel=4, data=[64, 64]),\n",
      "   midi.NoteOnEvent(tick=0, channel=4, data=[62, 100]),\n",
      "   midi.NoteOffEvent(tick=192, channel=4, data=[62, 64]),\n",
      "   midi.NoteOnEvent(tick=672, channel=4, data=[74, 100]),\n",
      "   midi.NoteOffEvent(tick=96, channel=4, data=[74, 64]),\n",
      "   midi.NoteOnEvent(tick=0, channel=4, data=[73, 100]),\n",
      "   midi.NoteOffEvent(tick=96, channel=4, data=[73, 64]),\n",
      "   midi.NoteOnEvent(tick=0, channel=4, data=[71, 100]),\n",
      "   midi.NoteOffEvent(tick=96, channel=4, data=[71, 64]),\n",
      "   midi.NoteOnEvent(tick=0, channel=4, data=[69, 100]),\n",
      "   midi.NoteOffEvent(tick=96, channel=4, data=[69, 64]),\n",
      "   midi.NoteOnEvent(tick=0, channel=4, data=[67, 100]),\n",
      "   midi.NoteOffEvent(tick=96, channel=4, data=[67, 64]),\n",
      "   midi.NoteOnEvent(tick=0, channel=4, data=[66, 100]),\n",
      "   midi.NoteOffEvent(tick=96, channel=4, data=[66, 64]),\n",
      "   midi.NoteOnEvent(tick=0, channel=4, data=[64, 100]),\n",
      "   midi.NoteOffEvent(tick=96, channel=4, data=[64, 64]),\n",
      "   midi.NoteOnEvent(tick=0, channel=4, data=[62, 100]),\n",
      "   midi.NoteOffEvent(tick=192, channel=4, data=[62, 64]),\n",
      "   midi.NoteOnEvent(tick=0, channel=4, data=[69, 100]),\n",
      "   midi.NoteOffEvent(tick=256, channel=4, data=[69, 64]),\n",
      "   midi.NoteOnEvent(tick=32, channel=4, data=[67, 100]),\n",
      "   midi.NoteOffEvent(tick=96, channel=4, data=[67, 64]),\n",
      "   midi.NoteOnEvent(tick=0, channel=4, data=[66, 100]),\n",
      "   midi.NoteOffEvent(tick=256, channel=4, data=[66, 64]),\n",
      "   midi.NoteOnEvent(tick=32, channel=4, data=[64, 100]),\n",
      "   midi.NoteOffEvent(tick=96, channel=4, data=[64, 64]),\n",
      "   midi.NoteOnEvent(tick=0, channel=4, data=[62, 100]),\n",
      "   midi.NoteOffEvent(tick=256, channel=4, data=[62, 64]),\n",
      "   midi.NoteOnEvent(tick=32, channel=4, data=[66, 100]),\n",
      "   midi.NoteOffEvent(tick=96, channel=4, data=[66, 64]),\n",
      "   midi.NoteOnEvent(tick=0, channel=4, data=[71, 100]),\n",
      "   midi.NoteOffEvent(tick=192, channel=4, data=[71, 64]),\n",
      "   midi.NoteOnEvent(tick=0, channel=4, data=[71, 100]),\n",
      "   midi.NoteOffEvent(tick=480, channel=4, data=[71, 64]),\n",
      "   midi.NoteOnEvent(tick=0, channel=4, data=[69, 100]),\n",
      "   midi.NoteOffEvent(tick=96, channel=4, data=[69, 64]),\n",
      "   midi.NoteOnEvent(tick=0, channel=4, data=[71, 100]),\n",
      "   midi.NoteOffEvent(tick=96, channel=4, data=[71, 64]),\n",
      "   midi.NoteOnEvent(tick=0, channel=4, data=[67, 100]),\n",
      "   midi.NoteOffEvent(tick=96, channel=4, data=[67, 64]),\n",
      "   midi.NoteOnEvent(tick=0, channel=4, data=[64, 100]),\n",
      "   midi.NoteOffEvent(tick=384, channel=4, data=[64, 64]),\n",
      "   midi.NoteOnEvent(tick=0, channel=4, data=[64, 100]),\n",
      "   midi.NoteOffEvent(tick=384, channel=4, data=[64, 64]),\n",
      "   midi.NoteOnEvent(tick=192, channel=4, data=[62, 100]),\n",
      "   midi.NoteOffEvent(tick=192, channel=4, data=[62, 64]),\n",
      "   midi.NoteOnEvent(tick=0, channel=4, data=[66, 100]),\n",
      "   midi.NoteOffEvent(tick=192, channel=4, data=[66, 64]),\n",
      "   midi.NoteOnEvent(tick=0, channel=4, data=[69, 100]),\n",
      "   midi.NoteOffEvent(tick=192, channel=4, data=[69, 64]),\n",
      "   midi.NoteOnEvent(tick=192, channel=4, data=[66, 100]),\n",
      "   midi.NoteOffEvent(tick=192, channel=4, data=[66, 64]),\n",
      "   midi.NoteOnEvent(tick=0, channel=4, data=[69, 100]),\n",
      "   midi.NoteOffEvent(tick=192, channel=4, data=[69, 64]),\n",
      "   midi.NoteOnEvent(tick=0, channel=4, data=[74, 100]),\n",
      "   midi.NoteOffEvent(tick=192, channel=4, data=[74, 64]),\n",
      "   midi.NoteOnEvent(tick=192, channel=4, data=[69, 100]),\n",
      "   midi.NoteOffEvent(tick=192, channel=4, data=[69, 64]),\n",
      "   midi.NoteOnEvent(tick=0, channel=4, data=[78, 100]),\n",
      "   midi.NoteOffEvent(tick=192, channel=4, data=[78, 64]),\n",
      "   midi.NoteOnEvent(tick=0, channel=4, data=[81, 100]),\n",
      "   midi.NoteOffEvent(tick=192, channel=4, data=[81, 64]),\n",
      "   midi.NoteOnEvent(tick=192, channel=4, data=[67, 100]),\n",
      "   midi.NoteOffEvent(tick=192, channel=4, data=[67, 64]),\n",
      "   midi.NoteOnEvent(tick=0, channel=4, data=[69, 100]),\n",
      "   midi.NoteOffEvent(tick=192, channel=4, data=[69, 64]),\n",
      "   midi.NoteOnEvent(tick=0, channel=4, data=[71, 100]),\n",
      "   midi.NoteOffEvent(tick=96, channel=4, data=[71, 64]),\n",
      "   midi.NoteOnEvent(tick=0, channel=4, data=[72, 100]),\n",
      "   midi.NoteOffEvent(tick=96, channel=4, data=[72, 64]),\n",
      "   midi.NoteOnEvent(tick=0, channel=4, data=[74, 100]),\n",
      "   midi.NoteOffEvent(tick=192, channel=4, data=[74, 64]),\n",
      "   midi.NoteOnEvent(tick=0, channel=4, data=[67, 100]),\n",
      "   midi.NoteOffEvent(tick=192, channel=4, data=[67, 64]),\n",
      "   midi.NoteOnEvent(tick=0, channel=4, data=[64, 100]),\n",
      "   midi.NoteOffEvent(tick=192, channel=4, data=[64, 64]),\n",
      "   midi.NoteOnEvent(tick=0, channel=4, data=[59, 100]),\n",
      "   midi.NoteOffEvent(tick=192, channel=4, data=[59, 64]),\n",
      "   midi.NoteOnEvent(tick=0, channel=4, data=[61, 100]),\n",
      "   midi.NoteOffEvent(tick=192, channel=4, data=[61, 64]),\n",
      "   midi.NoteOnEvent(tick=0, channel=4, data=[71, 100]),\n",
      "   midi.NoteOffEvent(tick=384, channel=4, data=[71, 64]),\n",
      "   midi.NoteOnEvent(tick=0, channel=4, data=[69, 100]),\n",
      "   midi.NoteOffEvent(tick=96, channel=4, data=[69, 64]),\n",
      "   midi.NoteOnEvent(tick=0, channel=4, data=[67, 100]),\n",
      "   midi.NoteOffEvent(tick=96, channel=4, data=[67, 64]),\n",
      "   midi.NoteOnEvent(tick=0, channel=4, data=[69, 100]),\n",
      "   midi.NoteOffEvent(tick=192, channel=4, data=[69, 64]),\n",
      "   midi.NoteOnEvent(tick=0, channel=4, data=[66, 100]),\n",
      "   midi.NoteOffEvent(tick=192, channel=4, data=[66, 64]),\n",
      "   midi.NoteOnEvent(tick=0, channel=4, data=[62, 100]),\n",
      "   midi.NoteOffEvent(tick=192, channel=4, data=[62, 64]),\n",
      "   midi.NoteOnEvent(tick=0, channel=4, data=[57, 100]),\n",
      "   midi.NoteOffEvent(tick=192, channel=4, data=[57, 64]),\n",
      "   midi.NoteOnEvent(tick=0, channel=4, data=[57, 100]),\n",
      "   midi.NoteOffEvent(tick=192, channel=4, data=[57, 64]),\n",
      "   midi.NoteOnEvent(tick=0, channel=4, data=[69, 100]),\n",
      "   midi.NoteOffEvent(tick=384, channel=4, data=[69, 64]),\n",
      "   midi.NoteOnEvent(tick=0, channel=4, data=[67, 100]),\n",
      "   midi.NoteOffEvent(tick=96, channel=4, data=[67, 64]),\n",
      "   midi.NoteOnEvent(tick=0, channel=4, data=[66, 100]),\n",
      "   midi.NoteOffEvent(tick=96, channel=4, data=[66, 64]),\n",
      "   midi.NoteOnEvent(tick=0, channel=4, data=[67, 100]),\n",
      "   midi.NoteOffEvent(tick=960, channel=4, data=[67, 64]),\n",
      "   midi.NoteOnEvent(tick=0, channel=4, data=[64, 100]),\n",
      "   midi.NoteOffEvent(tick=192, channel=4, data=[64, 64]),\n",
      "   midi.NoteOnEvent(tick=0, channel=4, data=[69, 100]),\n",
      "   midi.NoteOffEvent(tick=576, channel=4, data=[69, 64]),\n",
      "   midi.NoteOnEvent(tick=0, channel=4, data=[71, 100]),\n",
      "   midi.NoteOffEvent(tick=96, channel=4, data=[71, 64]),\n",
      "   midi.NoteOnEvent(tick=0, channel=4, data=[69, 100]),\n",
      "   midi.NoteOffEvent(tick=96, channel=4, data=[69, 64]),\n",
      "   midi.NoteOnEvent(tick=0, channel=4, data=[67, 100]),\n",
      "   midi.NoteOffEvent(tick=96, channel=4, data=[67, 64]),\n",
      "   midi.NoteOnEvent(tick=0, channel=4, data=[66, 100]),\n",
      "   midi.NoteOffEvent(tick=96, channel=4, data=[66, 64]),\n",
      "   midi.NoteOnEvent(tick=0, channel=4, data=[64, 100]),\n",
      "   midi.NoteOffEvent(tick=96, channel=4, data=[64, 64]),\n",
      "   midi.NoteOnEvent(tick=0, channel=4, data=[66, 100]),\n",
      "   midi.NoteOffEvent(tick=96, channel=4, data=[66, 64]),\n",
      "   midi.NoteOnEvent(tick=0, channel=4, data=[62, 100]),\n",
      "   midi.NoteOffEvent(tick=384, channel=4, data=[62, 64]),\n",
      "   midi.NoteOnEvent(tick=1728, channel=4, data=[64, 100]),\n",
      "   midi.NoteOffEvent(tick=192, channel=4, data=[64, 64]),\n",
      "   midi.NoteOnEvent(tick=0, channel=4, data=[69, 100]),\n",
      "   midi.NoteOffEvent(tick=192, channel=4, data=[69, 64]),\n",
      "   midi.NoteOnEvent(tick=0, channel=4, data=[74, 100]),\n",
      "   midi.NoteOffEvent(tick=384, channel=4, data=[74, 64]),\n",
      "   midi.NoteOnEvent(tick=0, channel=4, data=[73, 100]),\n",
      "   midi.NoteOffEvent(tick=192, channel=4, data=[73, 64]),\n",
      "   midi.NoteOnEvent(tick=0, channel=4, data=[74, 100]),\n",
      "   midi.NoteOffEvent(tick=192, channel=4, data=[74, 64]),\n",
      "   midi.NoteOnEvent(tick=0, channel=4, data=[73, 100]),\n",
      "   midi.NoteOffEvent(tick=192, channel=4, data=[73, 64]),\n",
      "   midi.NoteOnEvent(tick=0, channel=4, data=[74, 100]),\n",
      "   midi.NoteOffEvent(tick=192, channel=4, data=[74, 64]),\n",
      "   midi.NoteOnEvent(tick=1536, channel=4, data=[81, 100]),\n",
      "   midi.NoteOffEvent(tick=192, channel=4, data=[81, 64]),\n",
      "   midi.NoteOnEvent(tick=0, channel=4, data=[74, 100]),\n",
      "   midi.NoteOffEvent(tick=192, channel=4, data=[74, 64]),\n",
      "   midi.NoteOnEvent(tick=0, channel=4, data=[79, 100]),\n",
      "   midi.NoteOffEvent(tick=384, channel=4, data=[79, 64]),\n",
      "   midi.NoteOnEvent(tick=0, channel=4, data=[78, 100]),\n",
      "   midi.NoteOffEvent(tick=192, channel=4, data=[78, 64]),\n",
      "   midi.NoteOnEvent(tick=0, channel=4, data=[79, 100]),\n",
      "   midi.NoteOffEvent(tick=192, channel=4, data=[79, 64]),\n",
      "   midi.NoteOnEvent(tick=0, channel=4, data=[78, 100]),\n",
      "   midi.NoteOffEvent(tick=192, channel=4, data=[78, 64]),\n",
      "   midi.NoteOnEvent(tick=0, channel=4, data=[79, 100]),\n",
      "   midi.NoteOffEvent(tick=192, channel=4, data=[79, 64]),\n",
      "   midi.NoteOnEvent(tick=1152, channel=4, data=[76, 100]),\n",
      "   midi.NoteOffEvent(tick=192, channel=4, data=[76, 64]),\n",
      "   midi.NoteOnEvent(tick=0, channel=4, data=[73, 100]),\n",
      "   midi.NoteOffEvent(tick=192, channel=4, data=[73, 64]),\n",
      "   midi.NoteOnEvent(tick=0, channel=4, data=[69, 100]),\n",
      "   midi.NoteOffEvent(tick=192, channel=4, data=[69, 64]),\n",
      "   midi.NoteOnEvent(tick=960, channel=4, data=[67, 100]),\n",
      "   midi.NoteOffEvent(tick=192, channel=4, data=[67, 64]),\n",
      "   midi.NoteOnEvent(tick=0, channel=4, data=[64, 100]),\n",
      "   midi.NoteOffEvent(tick=192, channel=4, data=[64, 64]),\n",
      "   midi.NoteOnEvent(tick=0, channel=4, data=[61, 100]),\n",
      "   midi.NoteOffEvent(tick=192, channel=4, data=[61, 64]),\n",
      "   midi.NoteOnEvent(tick=0, channel=4, data=[74, 100]),\n",
      "   midi.NoteOffEvent(tick=96, channel=4, data=[74, 64]),\n",
      "   midi.NoteOnEvent(tick=0, channel=4, data=[76, 100]),\n",
      "   midi.NoteOffEvent(tick=96, channel=4, data=[76, 64]),\n",
      "   midi.NoteOnEvent(tick=0, channel=4, data=[78, 100]),\n",
      "   midi.NoteOffEvent(tick=96, channel=4, data=[78, 64]),\n",
      "   midi.NoteOnEvent(tick=96, channel=4, data=[78, 100]),\n",
      "   midi.NoteOffEvent(tick=96, channel=4, data=[78, 64]),\n",
      "   midi.NoteOnEvent(tick=96, channel=4, data=[78, 100]),\n",
      "   midi.NoteOffEvent(tick=96, channel=4, data=[78, 64]),\n",
      "   midi.NoteOnEvent(tick=96, channel=4, data=[78, 100]),\n",
      "   midi.NoteOffEvent(tick=192, channel=4, data=[78, 64]),\n",
      "   midi.NoteOnEvent(tick=0, channel=4, data=[66, 100]),\n",
      "   midi.NoteOffEvent(tick=192, channel=4, data=[66, 64]),\n",
      "   midi.NoteOnEvent(tick=0, channel=4, data=[62, 100]),\n",
      "   midi.NoteOffEvent(tick=192, channel=4, data=[62, 64]),\n",
      "   midi.NoteOnEvent(tick=0, channel=4, data=[66, 100]),\n",
      "   midi.NoteOffEvent(tick=192, channel=4, data=[66, 64]),\n",
      "   midi.NoteOnEvent(tick=0, channel=4, data=[71, 100]),\n",
      "   midi.NoteOffEvent(tick=192, channel=4, data=[71, 64]),\n",
      "   midi.NoteOnEvent(tick=0, channel=4, data=[76, 100]),\n",
      "   midi.NoteOffEvent(tick=384, channel=4, data=[76, 64]),\n",
      "   midi.NoteOnEvent(tick=0, channel=4, data=[69, 100]),\n",
      "   midi.NoteOffEvent(tick=256, channel=4, data=[69, 64]),\n",
      "   midi.NoteOnEvent(tick=32, channel=4, data=[74, 100]),\n",
      "   midi.NoteOffEvent(tick=96, channel=4, data=[74, 64]),\n",
      "   midi.NoteOnEvent(tick=0, channel=4, data=[73, 100]),\n",
      "   midi.NoteOffEvent(tick=96, channel=4, data=[73, 64]),\n",
      "   midi.NoteOnEvent(tick=0, channel=4, data=[71, 100]),\n",
      "   midi.NoteOffEvent(tick=96, channel=4, data=[71, 64]),\n",
      "   midi.NoteOnEvent(tick=0, channel=4, data=[69, 100]),\n",
      "   midi.NoteOffEvent(tick=96, channel=4, data=[69, 64]),\n",
      "   midi.NoteOnEvent(tick=0, channel=4, data=[67, 100]),\n",
      "   midi.NoteOffEvent(tick=96, channel=4, data=[67, 64]),\n",
      "   midi.NoteOnEvent(tick=0, channel=4, data=[66, 100]),\n",
      "   midi.NoteOffEvent(tick=96, channel=4, data=[66, 64]),\n",
      "   midi.NoteOnEvent(tick=0, channel=4, data=[64, 100]),\n",
      "   midi.NoteOffEvent(tick=96, channel=4, data=[64, 64]),\n",
      "   midi.NoteOnEvent(tick=0, channel=4, data=[62, 100]),\n",
      "   midi.NoteOffEvent(tick=192, channel=4, data=[62, 64]),\n",
      "   midi.NoteOnEvent(tick=0, channel=4, data=[74, 100]),\n",
      "   midi.NoteOffEvent(tick=192, channel=4, data=[74, 64]),\n",
      "   midi.NoteOnEvent(tick=0, channel=4, data=[73, 100]),\n",
      "   midi.NoteOffEvent(tick=192, channel=4, data=[73, 64]),\n",
      "   midi.NoteOnEvent(tick=0, channel=4, data=[69, 100]),\n",
      "   midi.NoteOffEvent(tick=192, channel=4, data=[69, 64]),\n",
      "   midi.NoteOnEvent(tick=0, channel=4, data=[74, 100]),\n",
      "   midi.NoteOffEvent(tick=192, channel=4, data=[74, 64]),\n",
      "   midi.NoteOnEvent(tick=0, channel=4, data=[73, 100]),\n",
      "   midi.NoteOffEvent(tick=96, channel=4, data=[73, 64]),\n",
      "   midi.NoteOnEvent(tick=0, channel=4, data=[71, 100]),\n",
      "   midi.NoteOffEvent(tick=96, channel=4, data=[71, 64]),\n",
      "   midi.NoteOnEvent(tick=0, channel=4, data=[69, 100]),\n",
      "   midi.NoteOffEvent(tick=96, channel=4, data=[69, 64]),\n",
      "   midi.NoteOnEvent(tick=0, channel=4, data=[67, 100]),\n",
      "   midi.NoteOffEvent(tick=96, channel=4, data=[67, 64]),\n",
      "   midi.NoteOnEvent(tick=0, channel=4, data=[66, 100]),\n",
      "   midi.NoteOffEvent(tick=96, channel=4, data=[66, 64]),\n",
      "   midi.NoteOnEvent(tick=0, channel=4, data=[64, 100]),\n",
      "   midi.NoteOffEvent(tick=96, channel=4, data=[64, 64]),\n",
      "   midi.NoteOnEvent(tick=0, channel=4, data=[62, 100]),\n",
      "   midi.NoteOffEvent(tick=192, channel=4, data=[62, 64]),\n",
      "   midi.NoteOnEvent(tick=0, channel=4, data=[71, 100]),\n",
      "   midi.NoteOffEvent(tick=192, channel=4, data=[71, 64]),\n",
      "   midi.NoteOnEvent(tick=0, channel=4, data=[71, 100]),\n",
      "   midi.NoteOffEvent(tick=192, channel=4, data=[71, 64]),\n",
      "   midi.NoteOnEvent(tick=0, channel=4, data=[69, 100]),\n",
      "   midi.NoteOffEvent(tick=192, channel=4, data=[69, 64]),\n",
      "   midi.NoteOnEvent(tick=0, channel=4, data=[69, 100]),\n",
      "   midi.NoteOffEvent(tick=96, channel=4, data=[69, 64]),\n",
      "   midi.NoteOnEvent(tick=0, channel=4, data=[74, 100]),\n",
      "   midi.NoteOffEvent(tick=96, channel=4, data=[74, 64]),\n",
      "   midi.NoteOnEvent(tick=0, channel=4, data=[73, 100]),\n",
      "   midi.NoteOffEvent(tick=96, channel=4, data=[73, 64]),\n",
      "   midi.NoteOnEvent(tick=0, channel=4, data=[71, 100]),\n",
      "   midi.NoteOffEvent(tick=96, channel=4, data=[71, 64]),\n",
      "   midi.NoteOnEvent(tick=0, channel=4, data=[69, 100]),\n",
      "   midi.NoteOffEvent(tick=96, channel=4, data=[69, 64]),\n",
      "   midi.NoteOnEvent(tick=0, channel=4, data=[67, 100]),\n",
      "   midi.NoteOffEvent(tick=96, channel=4, data=[67, 64]),\n",
      "   midi.NoteOnEvent(tick=0, channel=4, data=[66, 100]),\n",
      "   midi.NoteOffEvent(tick=96, channel=4, data=[66, 64]),\n",
      "   midi.NoteOnEvent(tick=0, channel=4, data=[64, 100]),\n",
      "   midi.NoteOffEvent(tick=96, channel=4, data=[64, 64]),\n",
      "   midi.NoteOnEvent(tick=0, channel=4, data=[62, 100]),\n",
      "   midi.NoteOffEvent(tick=192, channel=4, data=[62, 64]),\n",
      "   midi.NoteOnEvent(tick=0, channel=4, data=[74, 100]),\n",
      "   midi.NoteOffEvent(tick=192, channel=4, data=[74, 64]),\n",
      "   midi.NoteOnEvent(tick=0, channel=4, data=[73, 100]),\n",
      "   midi.NoteOffEvent(tick=192, channel=4, data=[73, 64]),\n",
      "   midi.NoteOnEvent(tick=0, channel=4, data=[69, 100]),\n",
      "   midi.NoteOffEvent(tick=192, channel=4, data=[69, 64]),\n",
      "   midi.NoteOnEvent(tick=0, channel=4, data=[74, 100]),\n",
      "   midi.NoteOffEvent(tick=192, channel=4, data=[74, 64]),\n",
      "   midi.NoteOnEvent(tick=0, channel=4, data=[73, 100]),\n",
      "   midi.NoteOffEvent(tick=96, channel=4, data=[73, 64]),\n",
      "   midi.NoteOnEvent(tick=0, channel=4, data=[71, 100]),\n",
      "   midi.NoteOffEvent(tick=96, channel=4, data=[71, 64]),\n",
      "   midi.NoteOnEvent(tick=0, channel=4, data=[69, 100]),\n",
      "   midi.NoteOffEvent(tick=96, channel=4, data=[69, 64]),\n",
      "   midi.NoteOnEvent(tick=0, channel=4, data=[67, 100]),\n",
      "   midi.NoteOffEvent(tick=96, channel=4, data=[67, 64]),\n",
      "   midi.NoteOnEvent(tick=0, channel=4, data=[66, 100]),\n",
      "   midi.NoteOffEvent(tick=96, channel=4, data=[66, 64]),\n",
      "   midi.NoteOnEvent(tick=0, channel=4, data=[64, 100]),\n",
      "   midi.NoteOffEvent(tick=96, channel=4, data=[64, 64]),\n",
      "   midi.NoteOnEvent(tick=0, channel=4, data=[62, 100]),\n",
      "   midi.NoteOffEvent(tick=192, channel=4, data=[62, 64]),\n",
      "   midi.NoteOnEvent(tick=0, channel=4, data=[71, 100]),\n",
      "   midi.NoteOffEvent(tick=192, channel=4, data=[71, 64]),\n",
      "   midi.NoteOnEvent(tick=0, channel=4, data=[71, 100]),\n",
      "   midi.NoteOffEvent(tick=192, channel=4, data=[71, 64]),\n",
      "   midi.NoteOnEvent(tick=0, channel=4, data=[69, 100]),\n",
      "   midi.NoteOffEvent(tick=192, channel=4, data=[69, 64]),\n",
      "   midi.NoteOnEvent(tick=0, channel=4, data=[69, 100]),\n",
      "   midi.NoteOffEvent(tick=96, channel=4, data=[69, 64]),\n",
      "   midi.NoteOnEvent(tick=0, channel=4, data=[74, 100]),\n",
      "   midi.NoteOffEvent(tick=96, channel=4, data=[74, 64]),\n",
      "   midi.NoteOnEvent(tick=0, channel=4, data=[73, 100]),\n",
      "   midi.NoteOffEvent(tick=96, channel=4, data=[73, 64]),\n",
      "   midi.NoteOnEvent(tick=0, channel=4, data=[71, 100]),\n",
      "   midi.NoteOffEvent(tick=96, channel=4, data=[71, 64]),\n",
      "   midi.NoteOnEvent(tick=0, channel=4, data=[69, 100]),\n",
      "   midi.NoteOffEvent(tick=96, channel=4, data=[69, 64]),\n",
      "   midi.NoteOnEvent(tick=0, channel=4, data=[67, 100]),\n",
      "   midi.NoteOffEvent(tick=96, channel=4, data=[67, 64]),\n",
      "   midi.NoteOnEvent(tick=0, channel=4, data=[66, 100]),\n",
      "   midi.NoteOffEvent(tick=96, channel=4, data=[66, 64]),\n",
      "   midi.NoteOnEvent(tick=0, channel=4, data=[64, 100]),\n",
      "   midi.NoteOffEvent(tick=96, channel=4, data=[64, 64]),\n",
      "   midi.NoteOnEvent(tick=0, channel=4, data=[62, 100]),\n",
      "   midi.NoteOffEvent(tick=192, channel=4, data=[62, 64]),\n",
      "   midi.NoteOnEvent(tick=0, channel=4, data=[74, 100]),\n",
      "   midi.NoteOffEvent(tick=192, channel=4, data=[74, 64]),\n",
      "   midi.NoteOnEvent(tick=0, channel=4, data=[71, 100]),\n",
      "   midi.NoteOffEvent(tick=192, channel=4, data=[71, 64]),\n",
      "   midi.NoteOnEvent(tick=0, channel=4, data=[66, 100]),\n",
      "   midi.NoteOffEvent(tick=192, channel=4, data=[66, 64]),\n",
      "   midi.NoteOnEvent(tick=0, channel=4, data=[68, 100]),\n",
      "   midi.NoteOffEvent(tick=192, channel=4, data=[68, 64]),\n",
      "   midi.NoteOnEvent(tick=0, channel=4, data=[78, 100]),\n",
      "   midi.NoteOffEvent(tick=384, channel=4, data=[78, 64]),\n",
      "   midi.NoteOnEvent(tick=0, channel=4, data=[76, 100]),\n",
      "   midi.NoteOffEvent(tick=96, channel=4, data=[76, 64]),\n",
      "   midi.NoteOnEvent(tick=0, channel=4, data=[74, 100]),\n",
      "   midi.NoteOffEvent(tick=96, channel=4, data=[74, 64]),\n",
      "   midi.NoteOnEvent(tick=0, channel=4, data=[76, 100]),\n",
      "   midi.NoteOffEvent(tick=192, channel=4, data=[76, 64]),\n",
      "   midi.NoteOnEvent(tick=0, channel=4, data=[73, 100]),\n",
      "   midi.NoteOffEvent(tick=192, channel=4, data=[73, 64]),\n",
      "   midi.NoteOnEvent(tick=0, channel=4, data=[69, 100]),\n",
      "   midi.NoteOffEvent(tick=192, channel=4, data=[69, 64]),\n",
      "   midi.NoteOnEvent(tick=0, channel=4, data=[64, 100]),\n",
      "   midi.NoteOffEvent(tick=192, channel=4, data=[64, 64]),\n",
      "   midi.NoteOnEvent(tick=0, channel=4, data=[66, 100]),\n",
      "   midi.NoteOffEvent(tick=192, channel=4, data=[66, 64]),\n",
      "   midi.NoteOnEvent(tick=0, channel=4, data=[76, 100]),\n",
      "   midi.NoteOffEvent(tick=384, channel=4, data=[76, 64]),\n",
      "   midi.NoteOnEvent(tick=0, channel=4, data=[74, 100]),\n",
      "   midi.NoteOffEvent(tick=96, channel=4, data=[74, 64]),\n",
      "   midi.NoteOnEvent(tick=0, channel=4, data=[73, 100]),\n",
      "   midi.NoteOffEvent(tick=96, channel=4, data=[73, 64]),\n",
      "   midi.NoteOnEvent(tick=0, channel=4, data=[71, 100]),\n",
      "   midi.NoteOffEvent(tick=96, channel=4, data=[71, 64]),\n",
      "   midi.NoteOnEvent(tick=0, channel=4, data=[73, 100]),\n",
      "   midi.NoteOffEvent(tick=96, channel=4, data=[73, 64]),\n",
      "   midi.NoteOnEvent(tick=0, channel=4, data=[71, 100]),\n",
      "   midi.NoteOffEvent(tick=96, channel=4, data=[71, 64]),\n",
      "   midi.NoteOnEvent(tick=96, channel=4, data=[71, 100]),\n",
      "   midi.NoteOffEvent(tick=96, channel=4, data=[71, 64]),\n",
      "   midi.NoteOnEvent(tick=96, channel=4, data=[71, 100]),\n",
      "   midi.NoteOffEvent(tick=96, channel=4, data=[71, 64]),\n",
      "   midi.NoteOnEvent(tick=96, channel=4, data=[83, 100]),\n",
      "   midi.NoteOffEvent(tick=384, channel=4, data=[83, 64]),\n",
      "   midi.NoteOnEvent(tick=192, channel=4, data=[81, 100]),\n",
      "   midi.NoteOffEvent(tick=96, channel=4, data=[81, 64]),\n",
      "   midi.NoteOnEvent(tick=0, channel=4, data=[80, 100]),\n",
      "   midi.NoteOffEvent(tick=96, channel=4, data=[80, 64]),\n",
      "   midi.NoteOnEvent(tick=0, channel=4, data=[81, 100]),\n",
      "   midi.NoteOffEvent(tick=96, channel=4, data=[81, 64]),\n",
      "   midi.NoteOnEvent(tick=0, channel=4, data=[76, 100]),\n",
      "   midi.NoteOffEvent(tick=96, channel=4, data=[76, 64]),\n",
      "   midi.NoteOnEvent(tick=0, channel=4, data=[74, 100]),\n",
      "   midi.NoteOffEvent(tick=96, channel=4, data=[74, 64]),\n",
      "   midi.NoteOnEvent(tick=0, channel=4, data=[73, 100]),\n",
      "   midi.NoteOffEvent(tick=96, channel=4, data=[73, 64]),\n",
      "   midi.NoteOnEvent(tick=0, channel=4, data=[74, 100]),\n",
      "   midi.NoteOffEvent(tick=96, channel=4, data=[74, 64]),\n",
      "   midi.NoteOnEvent(tick=0, channel=4, data=[73, 100]),\n",
      "   midi.NoteOffEvent(tick=96, channel=4, data=[73, 64]),\n",
      "   midi.NoteOnEvent(tick=0, channel=4, data=[71, 100]),\n",
      "   midi.NoteOffEvent(tick=96, channel=4, data=[71, 64]),\n",
      "   midi.NoteOnEvent(tick=0, channel=4, data=[73, 100]),\n",
      "   midi.NoteOffEvent(tick=96, channel=4, data=[73, 64]),\n",
      "   midi.NoteOnEvent(tick=0, channel=4, data=[69, 100]),\n",
      "   midi.NoteOffEvent(tick=768, channel=4, data=[69, 64]),\n",
      "   midi.EndOfTrackEvent(tick=0, data=[])]),\n",
      " midi.Track(\\\n",
      "  [midi.TrackNameEvent(tick=0, text='Viola', data=[86, 105, 111, 108, 97]),\n",
      "   midi.ControlChangeEvent(tick=0, channel=4, data=[0, 0]),\n",
      "   midi.ProgramChangeEvent(tick=0, channel=4, data=[48]),\n",
      "   midi.ControlChangeEvent(tick=0, channel=4, data=[7, 100]),\n",
      "   midi.ControlChangeEvent(tick=0, channel=4, data=[10, 61]),\n",
      "   midi.ControlChangeEvent(tick=0, channel=4, data=[91, 127]),\n",
      "   midi.ControlChangeEvent(tick=0, channel=4, data=[93, 127]),\n",
      "   midi.KeySignatureEvent(tick=0, data=[2, 0]),\n",
      "   midi.NoteOnEvent(tick=768, channel=4, data=[62, 100]),\n",
      "   midi.NoteOffEvent(tick=192, channel=4, data=[62, 64]),\n",
      "   midi.NoteOnEvent(tick=0, channel=4, data=[74, 100]),\n",
      "   midi.NoteOffEvent(tick=192, channel=4, data=[74, 64]),\n",
      "   midi.NoteOnEvent(tick=0, channel=4, data=[73, 100]),\n",
      "   midi.NoteOffEvent(tick=192, channel=4, data=[73, 64]),\n",
      "   midi.NoteOnEvent(tick=0, channel=4, data=[69, 100]),\n",
      "   midi.NoteOffEvent(tick=192, channel=4, data=[69, 64]),\n",
      "   midi.NoteOnEvent(tick=0, channel=4, data=[74, 100]),\n",
      "   midi.NoteOffEvent(tick=192, channel=4, data=[74, 64]),\n",
      "   midi.NoteOnEvent(tick=0, channel=4, data=[73, 100]),\n",
      "   midi.NoteOffEvent(tick=96, channel=4, data=[73, 64]),\n",
      "   midi.NoteOnEvent(tick=0, channel=4, data=[71, 100]),\n",
      "   midi.NoteOffEvent(tick=96, channel=4, data=[71, 64]),\n",
      "   midi.NoteOnEvent(tick=0, channel=4, data=[69, 100]),\n",
      "   midi.NoteOffEvent(tick=96, channel=4, data=[69, 64]),\n",
      "   midi.NoteOnEvent(tick=0, channel=4, data=[67, 100]),\n",
      "   midi.NoteOffEvent(tick=96, channel=4, data=[67, 64]),\n",
      "   midi.NoteOnEvent(tick=0, channel=4, data=[66, 100]),\n",
      "   midi.NoteOffEvent(tick=96, channel=4, data=[66, 64]),\n",
      "   midi.NoteOnEvent(tick=0, channel=4, data=[64, 100]),\n",
      "   midi.NoteOffEvent(tick=96, channel=4, data=[64, 64]),\n",
      "   midi.NoteOnEvent(tick=0, channel=4, data=[62, 100]),\n",
      "   midi.NoteOffEvent(tick=192, channel=4, data=[62, 64]),\n",
      "   midi.NoteOnEvent(tick=0, channel=4, data=[62, 100]),\n",
      "   midi.NoteOffEvent(tick=192, channel=4, data=[62, 64]),\n",
      "   midi.NoteOnEvent(tick=0, channel=4, data=[67, 100]),\n",
      "   midi.NoteOffEvent(tick=192, channel=4, data=[67, 64]),\n",
      "   midi.NoteOnEvent(tick=0, channel=4, data=[64, 100]),\n",
      "   midi.NoteOffEvent(tick=192, channel=4, data=[64, 64]),\n",
      "   midi.NoteOnEvent(tick=0, channel=4, data=[66, 100]),\n",
      "   midi.NoteOffEvent(tick=96, channel=4, data=[66, 64]),\n",
      "   midi.NoteOnEvent(tick=0, channel=4, data=[74, 100]),\n",
      "   midi.NoteOffEvent(tick=96, channel=4, data=[74, 64]),\n",
      "   midi.NoteOnEvent(tick=0, channel=4, data=[73, 100]),\n",
      "   midi.NoteOffEvent(tick=96, channel=4, data=[73, 64]),\n",
      "   midi.NoteOnEvent(tick=0, channel=4, data=[71, 100]),\n",
      "   midi.NoteOffEvent(tick=96, channel=4, data=[71, 64]),\n",
      "   midi.NoteOnEvent(tick=0, channel=4, data=[69, 100]),\n",
      "   midi.NoteOffEvent(tick=96, channel=4, data=[69, 64]),\n",
      "   midi.NoteOnEvent(tick=0, channel=4, data=[67, 100]),\n",
      "   midi.NoteOffEvent(tick=96, channel=4, data=[67, 64]),\n",
      "   midi.NoteOnEvent(tick=0, channel=4, data=[66, 100]),\n",
      "   midi.NoteOffEvent(tick=96, channel=4, data=[66, 64]),\n",
      "   midi.NoteOnEvent(tick=0, channel=4, data=[64, 100]),\n",
      "   midi.NoteOffEvent(tick=96, channel=4, data=[64, 64]),\n",
      "   midi.NoteOnEvent(tick=0, channel=4, data=[62, 100]),\n",
      "   midi.NoteOffEvent(tick=192, channel=4, data=[62, 64]),\n",
      "   midi.NoteOnEvent(tick=0, channel=4, data=[74, 100]),\n",
      "   midi.NoteOffEvent(tick=192, channel=4, data=[74, 64]),\n",
      "   midi.NoteOnEvent(tick=0, channel=4, data=[73, 100]),\n",
      "   midi.NoteOffEvent(tick=192, channel=4, data=[73, 64]),\n",
      "   midi.NoteOnEvent(tick=0, channel=4, data=[69, 100]),\n",
      "   midi.NoteOffEvent(tick=192, channel=4, data=[69, 64]),\n",
      "   midi.NoteOnEvent(tick=0, channel=4, data=[74, 100]),\n",
      "   midi.NoteOffEvent(tick=192, channel=4, data=[74, 64]),\n",
      "   midi.NoteOnEvent(tick=0, channel=4, data=[73, 100]),\n",
      "   midi.NoteOffEvent(tick=96, channel=4, data=[73, 64]),\n",
      "   midi.NoteOnEvent(tick=0, channel=4, data=[71, 100]),\n",
      "   midi.NoteOffEvent(tick=96, channel=4, data=[71, 64]),\n",
      "   midi.NoteOnEvent(tick=0, channel=4, data=[69, 100]),\n",
      "   midi.NoteOffEvent(tick=96, channel=4, data=[69, 64]),\n",
      "   midi.NoteOnEvent(tick=0, channel=4, data=[67, 100]),\n",
      "   midi.NoteOffEvent(tick=96, channel=4, data=[67, 64]),\n",
      "   midi.NoteOnEvent(tick=0, channel=4, data=[66, 100]),\n",
      "   midi.NoteOffEvent(tick=96, channel=4, data=[66, 64]),\n",
      "   midi.NoteOnEvent(tick=0, channel=4, data=[64, 100]),\n",
      "   midi.NoteOffEvent(tick=96, channel=4, data=[64, 64]),\n",
      "   midi.NoteOnEvent(tick=0, channel=4, data=[62, 100]),\n",
      "   midi.NoteOffEvent(tick=192, channel=4, data=[62, 64]),\n",
      "   midi.NoteOnEvent(tick=0, channel=4, data=[62, 100]),\n",
      "   midi.NoteOffEvent(tick=192, channel=4, data=[62, 64]),\n",
      "   midi.NoteOnEvent(tick=0, channel=4, data=[67, 100]),\n",
      "   midi.NoteOffEvent(tick=192, channel=4, data=[67, 64]),\n",
      "   midi.NoteOnEvent(tick=0, channel=4, data=[64, 100]),\n",
      "   midi.NoteOffEvent(tick=192, channel=4, data=[64, 64]),\n",
      "   midi.NoteOnEvent(tick=0, channel=4, data=[66, 100]),\n",
      "   midi.NoteOffEvent(tick=96, channel=4, data=[66, 64]),\n",
      "   midi.NoteOnEvent(tick=0, channel=4, data=[74, 100]),\n",
      "   midi.NoteOffEvent(tick=96, channel=4, data=[74, 64]),\n",
      "   midi.NoteOnEvent(tick=0, channel=4, data=[73, 100]),\n",
      "   midi.NoteOffEvent(tick=96, channel=4, data=[73, 64]),\n",
      "   midi.NoteOnEvent(tick=0, channel=4, data=[71, 100]),\n",
      "   midi.NoteOffEvent(tick=96, channel=4, data=[71, 64]),\n",
      "   midi.NoteOnEvent(tick=0, channel=4, data=[69, 100]),\n",
      "   midi.NoteOffEvent(tick=96, channel=4, data=[69, 64]),\n",
      "   midi.NoteOnEvent(tick=0, channel=4, data=[67, 100]),\n",
      "   midi.NoteOffEvent(tick=96, channel=4, data=[67, 64]),\n",
      "   midi.NoteOnEvent(tick=0, channel=4, data=[66, 100]),\n",
      "   midi.NoteOffEvent(tick=96, channel=4, data=[66, 64]),\n",
      "   midi.NoteOnEvent(tick=0, channel=4, data=[64, 100]),\n",
      "   midi.NoteOffEvent(tick=96, channel=4, data=[64, 64]),\n",
      "   midi.NoteOnEvent(tick=0, channel=4, data=[62, 100]),\n",
      "   midi.NoteOffEvent(tick=192, channel=4, data=[62, 64]),\n",
      "   midi.NoteOnEvent(tick=0, channel=4, data=[74, 100]),\n",
      "   midi.NoteOffEvent(tick=192, channel=4, data=[74, 64]),\n",
      "   midi.NoteOnEvent(tick=0, channel=4, data=[71, 100]),\n",
      "   midi.NoteOffEvent(tick=192, channel=4, data=[71, 64]),\n",
      "   midi.NoteOnEvent(tick=0, channel=4, data=[66, 100]),\n",
      "   midi.NoteOffEvent(tick=192, channel=4, data=[66, 64]),\n",
      "   midi.NoteOnEvent(tick=0, channel=4, data=[68, 100]),\n",
      "   midi.NoteOffEvent(tick=96, channel=4, data=[68, 64]),\n",
      "   midi.NoteOnEvent(tick=0, channel=4, data=[69, 100]),\n",
      "   midi.NoteOffEvent(tick=96, channel=4, data=[69, 64]),\n",
      "   midi.NoteOnEvent(tick=0, channel=4, data=[71, 100]),\n",
      "   midi.NoteOffEvent(tick=384, channel=4, data=[71, 64]),\n",
      "   midi.NoteOnEvent(tick=0, channel=4, data=[71, 100]),\n",
      "   midi.NoteOffEvent(tick=384, channel=4, data=[71, 64]),\n",
      "   midi.NoteOnEvent(tick=0, channel=4, data=[73, 100]),\n",
      "   midi.NoteOffEvent(tick=192, channel=4, data=[73, 64]),\n",
      "   midi.NoteOnEvent(tick=0, channel=4, data=[69, 100]),\n",
      "   midi.NoteOffEvent(tick=192, channel=4, data=[69, 64]),\n",
      "   midi.NoteOnEvent(tick=0, channel=4, data=[64, 100]),\n",
      "   midi.NoteOffEvent(tick=192, channel=4, data=[64, 64]),\n",
      "   midi.NoteOnEvent(tick=0, channel=4, data=[66, 100]),\n",
      "   midi.NoteOffEvent(tick=192, channel=4, data=[66, 64]),\n",
      "   midi.NoteOnEvent(tick=0, channel=4, data=[73, 100]),\n",
      "   midi.NoteOffEvent(tick=96, channel=4, data=[73, 64]),\n",
      "   midi.NoteOnEvent(tick=0, channel=4, data=[71, 100]),\n",
      "   midi.NoteOffEvent(tick=96, channel=4, data=[71, 64]),\n",
      "   midi.NoteOnEvent(tick=0, channel=4, data=[73, 100]),\n",
      "   midi.NoteOffEvent(tick=192, channel=4, data=[73, 64]),\n",
      "   midi.NoteOnEvent(tick=0, channel=4, data=[69, 100]),\n",
      "   midi.NoteOffEvent(tick=384, channel=4, data=[69, 64]),\n",
      "   midi.NoteOnEvent(tick=0, channel=4, data=[66, 100]),\n",
      "   midi.NoteOffEvent(tick=192, channel=4, data=[66, 64]),\n",
      "   midi.NoteOnEvent(tick=0, channel=4, data=[71, 100]),\n",
      "   midi.NoteOffEvent(tick=192, channel=4, data=[71, 64]),\n",
      "   midi.NoteOnEvent(tick=0, channel=4, data=[74, 100]),\n",
      "   midi.NoteOffEvent(tick=192, channel=4, data=[74, 64]),\n",
      "   midi.NoteOnEvent(tick=0, channel=4, data=[71, 100]),\n",
      "   midi.NoteOffEvent(tick=192, channel=4, data=[71, 64]),\n",
      "   midi.NoteOnEvent(tick=0, channel=4, data=[68, 100]),\n",
      "   midi.NoteOffEvent(tick=192, channel=4, data=[68, 64]),\n",
      "   midi.NoteOnEvent(tick=0, channel=4, data=[64, 100]),\n",
      "   midi.NoteOffEvent(tick=192, channel=4, data=[64, 64]),\n",
      "   midi.NoteOnEvent(tick=0, channel=4, data=[64, 100]),\n",
      "   midi.NoteOffEvent(tick=384, channel=4, data=[64, 64]),\n",
      "   midi.NoteOnEvent(tick=0, channel=4, data=[57, 100]),\n",
      "   midi.NoteOffEvent(tick=192, channel=4, data=[57, 64]),\n",
      "   midi.NoteOnEvent(tick=0, channel=4, data=[61, 100]),\n",
      "   midi.NoteOffEvent(tick=192, channel=4, data=[61, 64]),\n",
      "   midi.NoteOnEvent(tick=0, channel=4, data=[64, 100]),\n",
      "   midi.NoteOffEvent(tick=384, channel=4, data=[64, 64]),\n",
      "   midi.NoteOnEvent(tick=0, channel=4, data=[57, 100]),\n",
      "   midi.NoteOffEvent(tick=192, channel=4, data=[57, 64]),\n",
      "   midi.NoteOnEvent(tick=0, channel=4, data=[61, 100]),\n",
      "   midi.NoteOffEvent(tick=192, channel=4, data=[61, 64]),\n",
      "   midi.NoteOnEvent(tick=0, channel=4, data=[64, 100]),\n",
      "   midi.NoteOffEvent(tick=192, channel=4, data=[64, 64]),\n",
      "   midi.NoteOnEvent(tick=0, channel=4, data=[69, 100]),\n",
      "   midi.NoteOffEvent(tick=192, channel=4, data=[69, 64]),\n",
      "   midi.NoteOnEvent(tick=0, channel=4, data=[67, 100]),\n",
      "   midi.NoteOffEvent(tick=96, channel=4, data=[67, 64]),\n",
      "   midi.NoteOnEvent(tick=0, channel=4, data=[66, 100]),\n",
      "   midi.NoteOffEvent(tick=96, channel=4, data=[66, 64]),\n",
      "   midi.NoteOnEvent(tick=0, channel=4, data=[64, 100]),\n",
      "   midi.NoteOffEvent(tick=96, channel=4, data=[64, 64]),\n",
      "   midi.NoteOnEvent(tick=0, channel=4, data=[62, 100]),\n",
      "   midi.NoteOffEvent(tick=96, channel=4, data=[62, 64]),\n",
      "   midi.NoteOnEvent(tick=0, channel=4, data=[61, 100]),\n",
      "   midi.NoteOffEvent(tick=96, channel=4, data=[61, 64]),\n",
      "   midi.NoteOnEvent(tick=0, channel=4, data=[59, 100]),\n",
      "   midi.NoteOffEvent(tick=96, channel=4, data=[59, 64]),\n",
      "   midi.NoteOnEvent(tick=0, channel=4, data=[58, 100]),\n",
      "   midi.NoteOffEvent(tick=192, channel=4, data=[58, 64]),\n",
      "   midi.NoteOnEvent(tick=768, channel=4, data=[58, 100]),\n",
      "   midi.NoteOffEvent(tick=192, channel=4, data=[58, 64]),\n",
      "   midi.NoteOnEvent(tick=0, channel=4, data=[61, 100]),\n",
      "   midi.NoteOffEvent(tick=192, channel=4, data=[61, 64]),\n",
      "   midi.NoteOnEvent(tick=0, channel=4, data=[66, 100]),\n",
      "   midi.NoteOffEvent(tick=384, channel=4, data=[66, 64]),\n",
      "   midi.NoteOnEvent(tick=0, channel=4, data=[71, 100]),\n",
      "   midi.NoteOffEvent(tick=96, channel=4, data=[71, 64]),\n",
      "   midi.NoteOnEvent(tick=0, channel=4, data=[70, 100]),\n",
      "   midi.NoteOffEvent(tick=96, channel=4, data=[70, 64]),\n",
      "   midi.NoteOnEvent(tick=0, channel=4, data=[71, 100]),\n",
      "   midi.NoteOffEvent(tick=192, channel=4, data=[71, 64]),\n",
      "   midi.NoteOnEvent(tick=0, channel=4, data=[66, 100]),\n",
      "   midi.NoteOffEvent(tick=192, channel=4, data=[66, 64]),\n",
      "   midi.NoteOnEvent(tick=0, channel=4, data=[62, 100]),\n",
      "   midi.NoteOffEvent(tick=192, channel=4, data=[62, 64]),\n",
      "   midi.NoteOnEvent(tick=0, channel=4, data=[57, 100]),\n",
      "   midi.NoteOffEvent(tick=192, channel=4, data=[57, 64]),\n",
      "   midi.NoteOnEvent(tick=0, channel=4, data=[60, 100]),\n",
      "   midi.NoteOffEvent(tick=192, channel=4, data=[60, 64]),\n",
      "   midi.NoteOnEvent(tick=0, channel=4, data=[66, 100]),\n",
      "   midi.NoteOffEvent(tick=192, channel=4, data=[66, 64]),\n",
      "   midi.NoteOnEvent(tick=0, channel=4, data=[69, 100]),\n",
      "   midi.NoteOffEvent(tick=192, channel=4, data=[69, 64]),\n",
      "   midi.NoteOnEvent(tick=0, channel=4, data=[72, 100]),\n",
      "   midi.NoteOffEvent(tick=96, channel=4, data=[72, 64]),\n",
      "   midi.NoteOnEvent(tick=0, channel=4, data=[71, 100]),\n",
      "   midi.NoteOffEvent(tick=96, channel=4, data=[71, 64]),\n",
      "   midi.NoteOnEvent(tick=0, channel=4, data=[69, 100]),\n",
      "   midi.NoteOffEvent(tick=96, channel=4, data=[69, 64]),\n",
      "   midi.NoteOnEvent(tick=0, channel=4, data=[67, 100]),\n",
      "   midi.NoteOffEvent(tick=96, channel=4, data=[67, 64]),\n",
      "   midi.NoteOnEvent(tick=0, channel=4, data=[66, 100]),\n",
      "   midi.NoteOffEvent(tick=96, channel=4, data=[66, 64]),\n",
      "   midi.NoteOnEvent(tick=0, channel=4, data=[64, 100]),\n",
      "   midi.NoteOffEvent(tick=96, channel=4, data=[64, 64]),\n",
      "   midi.NoteOnEvent(tick=0, channel=4, data=[63, 100]),\n",
      "   midi.NoteOffEvent(tick=192, channel=4, data=[63, 64]),\n",
      "   midi.NoteOnEvent(tick=0, channel=4, data=[63, 100]),\n",
      "   midi.NoteOffEvent(tick=192, channel=4, data=[63, 64]),\n",
      "   midi.NoteOnEvent(tick=0, channel=4, data=[66, 100]),\n",
      "   midi.NoteOffEvent(tick=192, channel=4, data=[66, 64]),\n",
      "   midi.NoteOnEvent(tick=0, channel=4, data=[71, 100]),\n",
      "   midi.NoteOffEvent(tick=192, channel=4, data=[71, 64]),\n",
      "   midi.NoteOnEvent(tick=0, channel=4, data=[59, 100]),\n",
      "   midi.NoteOffEvent(tick=192, channel=4, data=[59, 64]),\n",
      "   midi.NoteOnEvent(tick=0, channel=4, data=[64, 100]),\n",
      "   midi.NoteOffEvent(tick=96, channel=4, data=[64, 64]),\n",
      "   midi.NoteOnEvent(tick=0, channel=4, data=[63, 100]),\n",
      "   midi.NoteOffEvent(tick=96, channel=4, data=[63, 64]),\n",
      "   midi.NoteOnEvent(tick=0, channel=4, data=[64, 100]),\n",
      "   midi.NoteOffEvent(tick=192, channel=4, data=[64, 64]),\n",
      "   midi.NoteOnEvent(tick=0, channel=4, data=[71, 100]),\n",
      "   midi.NoteOffEvent(tick=192, channel=4, data=[71, 64]),\n",
      "   midi.NoteOnEvent(tick=0, channel=4, data=[71, 100]),\n",
      "   midi.NoteOffEvent(tick=192, channel=4, data=[71, 64]),\n",
      "   midi.NoteOnEvent(tick=0, channel=4, data=[76, 100]),\n",
      "   midi.NoteOffEvent(tick=192, channel=4, data=[76, 64]),\n",
      "   midi.NoteOnEvent(tick=0, channel=4, data=[71, 100]),\n",
      "   midi.NoteOffEvent(tick=192, channel=4, data=[71, 64]),\n",
      "   midi.NoteOnEvent(tick=0, channel=4, data=[67, 100]),\n",
      "   midi.NoteOffEvent(tick=192, channel=4, data=[67, 64]),\n",
      "   midi.NoteOnEvent(tick=192, channel=4, data=[67, 100]),\n",
      "   midi.NoteOffEvent(tick=96, channel=4, data=[67, 64]),\n",
      "   midi.NoteOnEvent(tick=0, channel=4, data=[66, 100]),\n",
      "   midi.NoteOffEvent(tick=96, channel=4, data=[66, 64]),\n",
      "   midi.NoteOnEvent(tick=0, channel=4, data=[64, 100]),\n",
      "   midi.NoteOffEvent(tick=192, channel=4, data=[64, 64]),\n",
      "   midi.NoteOnEvent(tick=0, channel=4, data=[69, 100]),\n",
      "   midi.NoteOffEvent(tick=192, channel=4, data=[69, 64]),\n",
      "   midi.NoteOnEvent(tick=0, channel=4, data=[57, 100]),\n",
      "   midi.NoteOffEvent(tick=192, channel=4, data=[57, 64]),\n",
      "   midi.NoteOnEvent(tick=0, channel=4, data=[74, 100]),\n",
      "   midi.NoteOffEvent(tick=192, channel=4, data=[74, 64]),\n",
      "   midi.NoteOnEvent(tick=0, channel=4, data=[69, 100]),\n",
      "   midi.NoteOffEvent(tick=192, channel=4, data=[69, 64]),\n",
      "   midi.NoteOnEvent(tick=0, channel=4, data=[66, 100]),\n",
      "   midi.NoteOffEvent(tick=192, channel=4, data=[66, 64]),\n",
      "   midi.NoteOnEvent(tick=192, channel=4, data=[62, 100]),\n",
      "   midi.NoteOffEvent(tick=192, channel=4, data=[62, 64]),\n",
      "   midi.NoteOnEvent(tick=0, channel=4, data=[67, 100]),\n",
      "   midi.NoteOffEvent(tick=192, channel=4, data=[67, 64]),\n",
      "   midi.NoteOnEvent(tick=0, channel=4, data=[62, 100]),\n",
      "   midi.NoteOffEvent(tick=192, channel=4, data=[62, 64]),\n",
      "   midi.NoteOnEvent(tick=0, channel=4, data=[64, 100]),\n",
      "   midi.NoteOffEvent(tick=192, channel=4, data=[64, 64]),\n",
      "   midi.NoteOnEvent(tick=0, channel=4, data=[64, 100]),\n",
      "   midi.NoteOffEvent(tick=192, channel=4, data=[64, 64]),\n",
      "   midi.NoteOnEvent(tick=0, channel=4, data=[64, 100]),\n",
      "   midi.NoteOffEvent(tick=192, channel=4, data=[64, 64]),\n",
      "   midi.NoteOnEvent(tick=0, channel=4, data=[64, 100]),\n",
      "   midi.NoteOffEvent(tick=192, channel=4, data=[64, 64]),\n",
      "   midi.NoteOnEvent(tick=0, channel=4, data=[64, 100]),\n",
      "   midi.NoteOffEvent(tick=512, channel=4, data=[64, 64]),\n",
      "   midi.NoteOnEvent(tick=64, channel=4, data=[69, 100]),\n",
      "   midi.NoteOffEvent(tick=192, channel=4, data=[69, 64]),\n",
      "   midi.NoteOnEvent(tick=0, channel=4, data=[69, 100]),\n",
      "   midi.NoteOffEvent(tick=192, channel=4, data=[69, 64]),\n",
      "   midi.NoteOnEvent(tick=0, channel=4, data=[71, 100]),\n",
      "   midi.NoteOffEvent(tick=192, channel=4, data=[71, 64]),\n",
      "   midi.NoteOnEvent(tick=0, channel=4, data=[69, 100]),\n",
      "   midi.NoteOffEvent(tick=192, channel=4, data=[69, 64]),\n",
      "   midi.NoteOnEvent(tick=0, channel=4, data=[67, 100]),\n",
      "   midi.NoteOffEvent(tick=192, channel=4, data=[67, 64]),\n",
      "   midi.NoteOnEvent(tick=0, channel=4, data=[66, 100]),\n",
      "   midi.NoteOffEvent(tick=384, channel=4, data=[66, 64]),\n",
      "   midi.NoteOnEvent(tick=384, channel=4, data=[66, 100]),\n",
      "   midi.NoteOffEvent(tick=384, channel=4, data=[66, 64]),\n",
      "   midi.NoteOnEvent(tick=0, channel=4, data=[62, 100]),\n",
      "   midi.NoteOffEvent(tick=384, channel=4, data=[62, 64]),\n",
      "   midi.NoteOnEvent(tick=0, channel=4, data=[57, 100]),\n",
      "   midi.NoteOffEvent(tick=192, channel=4, data=[57, 64]),\n",
      "   midi.NoteOnEvent(tick=0, channel=4, data=[57, 100]),\n",
      "   midi.NoteOffEvent(tick=192, channel=4, data=[57, 64]),\n",
      "   midi.NoteOnEvent(tick=0, channel=4, data=[62, 100]),\n",
      "   midi.NoteOffEvent(tick=1344, channel=4, data=[62, 64]),\n",
      "   midi.NoteOnEvent(tick=0, channel=4, data=[60, 100]),\n",
      "   midi.NoteOffEvent(tick=192, channel=4, data=[60, 64]),\n",
      "   midi.NoteOnEvent(tick=0, channel=4, data=[62, 100]),\n",
      "   midi.NoteOffEvent(tick=192, channel=4, data=[62, 64]),\n",
      "   midi.NoteOnEvent(tick=0, channel=4, data=[67, 100]),\n",
      "   midi.NoteOffEvent(tick=192, channel=4, data=[67, 64]),\n",
      "   midi.NoteOnEvent(tick=0, channel=4, data=[61, 100]),\n",
      "   midi.NoteOffEvent(tick=96, channel=4, data=[61, 64]),\n",
      "   midi.NoteOnEvent(tick=0, channel=4, data=[62, 100]),\n",
      "   midi.NoteOffEvent(tick=96, channel=4, data=[62, 64]),\n",
      "   midi.NoteOnEvent(tick=0, channel=4, data=[64, 100]),\n",
      "   midi.NoteOffEvent(tick=96, channel=4, data=[64, 64]),\n",
      "   midi.NoteOnEvent(tick=96, channel=4, data=[64, 100]),\n",
      "   midi.NoteOffEvent(tick=96, channel=4, data=[64, 64]),\n",
      "   midi.NoteOnEvent(tick=96, channel=4, data=[61, 100]),\n",
      "   midi.NoteOffEvent(tick=96, channel=4, data=[61, 64]),\n",
      "   midi.NoteOnEvent(tick=96, channel=4, data=[57, 100]),\n",
      "   midi.NoteOffEvent(tick=512, channel=4, data=[57, 64]),\n",
      "   midi.NoteOnEvent(tick=64, channel=4, data=[57, 100]),\n",
      "   midi.NoteOffEvent(tick=192, channel=4, data=[57, 64]),\n",
      "   midi.NoteOnEvent(tick=0, channel=4, data=[57, 100]),\n",
      "   midi.NoteOffEvent(tick=192, channel=4, data=[57, 64]),\n",
      "   midi.NoteOnEvent(tick=0, channel=4, data=[62, 100]),\n",
      "   midi.NoteOffEvent(tick=192, channel=4, data=[62, 64]),\n",
      "   midi.NoteOnEvent(tick=0, channel=4, data=[62, 100]),\n",
      "   midi.NoteOffEvent(tick=192, channel=4, data=[62, 64]),\n",
      "   midi.NoteOnEvent(tick=0, channel=4, data=[61, 100]),\n",
      "   midi.NoteOffEvent(tick=192, channel=4, data=[61, 64]),\n",
      "   midi.NoteOnEvent(tick=0, channel=4, data=[62, 100]),\n",
      "   midi.NoteOffEvent(tick=384, channel=4, data=[62, 64]),\n",
      "   midi.NoteOnEvent(tick=0, channel=4, data=[57, 100]),\n",
      "   midi.NoteOffEvent(tick=384, channel=4, data=[57, 64]),\n",
      "   midi.NoteOnEvent(tick=0, channel=4, data=[62, 100]),\n",
      "   midi.NoteOffEvent(tick=192, channel=4, data=[62, 64]),\n",
      "   midi.NoteOnEvent(tick=0, channel=4, data=[74, 100]),\n",
      "   midi.NoteOffEvent(tick=192, channel=4, data=[74, 64]),\n",
      "   midi.NoteOnEvent(tick=0, channel=4, data=[73, 100]),\n",
      "   midi.NoteOffEvent(tick=192, channel=4, data=[73, 64]),\n",
      "   midi.NoteOnEvent(tick=0, channel=4, data=[69, 100]),\n",
      "   midi.NoteOffEvent(tick=192, channel=4, data=[69, 64]),\n",
      "   midi.NoteOnEvent(tick=0, channel=4, data=[74, 100]),\n",
      "   midi.NoteOffEvent(tick=192, channel=4, data=[74, 64]),\n",
      "   midi.NoteOnEvent(tick=0, channel=4, data=[73, 100]),\n",
      "   midi.NoteOffEvent(tick=96, channel=4, data=[73, 64]),\n",
      "   midi.NoteOnEvent(tick=0, channel=4, data=[71, 100]),\n",
      "   midi.NoteOffEvent(tick=96, channel=4, data=[71, 64]),\n",
      "   midi.NoteOnEvent(tick=0, channel=4, data=[69, 100]),\n",
      "   midi.NoteOffEvent(tick=96, channel=4, data=[69, 64]),\n",
      "   midi.NoteOnEvent(tick=0, channel=4, data=[67, 100]),\n",
      "   midi.NoteOffEvent(tick=96, channel=4, data=[67, 64]),\n",
      "   midi.NoteOnEvent(tick=0, channel=4, data=[66, 100]),\n",
      "   midi.NoteOffEvent(tick=96, channel=4, data=[66, 64]),\n",
      "   midi.NoteOnEvent(tick=0, channel=4, data=[64, 100]),\n",
      "   midi.NoteOffEvent(tick=96, channel=4, data=[64, 64]),\n",
      "   midi.NoteOnEvent(tick=0, channel=4, data=[62, 100]),\n",
      "   midi.NoteOffEvent(tick=192, channel=4, data=[62, 64]),\n",
      "   midi.NoteOnEvent(tick=672, channel=4, data=[74, 100]),\n",
      "   midi.NoteOffEvent(tick=96, channel=4, data=[74, 64]),\n",
      "   midi.NoteOnEvent(tick=0, channel=4, data=[73, 100]),\n",
      "   midi.NoteOffEvent(tick=96, channel=4, data=[73, 64]),\n",
      "   midi.NoteOnEvent(tick=0, channel=4, data=[71, 100]),\n",
      "   midi.NoteOffEvent(tick=96, channel=4, data=[71, 64]),\n",
      "   midi.NoteOnEvent(tick=0, channel=4, data=[69, 100]),\n",
      "   midi.NoteOffEvent(tick=96, channel=4, data=[69, 64]),\n",
      "   midi.NoteOnEvent(tick=0, channel=4, data=[67, 100]),\n",
      "   midi.NoteOffEvent(tick=96, channel=4, data=[67, 64]),\n",
      "   midi.NoteOnEvent(tick=0, channel=4, data=[66, 100]),\n",
      "   midi.NoteOffEvent(tick=96, channel=4, data=[66, 64]),\n",
      "   midi.NoteOnEvent(tick=0, channel=4, data=[64, 100]),\n",
      "   midi.NoteOffEvent(tick=96, channel=4, data=[64, 64]),\n",
      "   midi.NoteOnEvent(tick=0, channel=4, data=[62, 100]),\n",
      "   midi.NoteOffEvent(tick=192, channel=4, data=[62, 64]),\n",
      "   midi.NoteOnEvent(tick=0, channel=4, data=[57, 100]),\n",
      "   midi.NoteOffEvent(tick=192, channel=4, data=[57, 64]),\n",
      "   midi.NoteOnEvent(tick=0, channel=4, data=[62, 100]),\n",
      "   midi.NoteOffEvent(tick=480, channel=4, data=[62, 64]),\n",
      "   midi.NoteOnEvent(tick=0, channel=4, data=[61, 100]),\n",
      "   midi.NoteOffEvent(tick=96, channel=4, data=[61, 64]),\n",
      "   midi.NoteOnEvent(tick=0, channel=4, data=[59, 100]),\n",
      "   midi.NoteOffEvent(tick=96, channel=4, data=[59, 64]),\n",
      "   midi.NoteOnEvent(tick=96, channel=4, data=[59, 100]),\n",
      "   midi.NoteOffEvent(tick=96, channel=4, data=[59, 64]),\n",
      "   midi.NoteOnEvent(tick=96, channel=4, data=[59, 100]),\n",
      "   midi.NoteOffEvent(tick=256, channel=4, data=[59, 64]),\n",
      "   midi.NoteOnEvent(tick=32, channel=4, data=[57, 100]),\n",
      "   midi.NoteOffEvent(tick=96, channel=4, data=[57, 64]),\n",
      "   midi.NoteOnEvent(tick=0, channel=4, data=[55, 100]),\n",
      "   midi.NoteOffEvent(tick=96, channel=4, data=[55, 64]),\n",
      "   midi.NoteOnEvent(tick=0, channel=4, data=[54, 100]),\n",
      "   midi.NoteOffEvent(tick=96, channel=4, data=[54, 64]),\n",
      "   midi.NoteOnEvent(tick=0, channel=4, data=[55, 100]),\n",
      "   midi.NoteOffEvent(tick=192, channel=4, data=[55, 64]),\n",
      "   midi.NoteOnEvent(tick=0, channel=4, data=[59, 100]),\n",
      "   midi.NoteOffEvent(tick=192, channel=4, data=[59, 64]),\n",
      "   midi.NoteOnEvent(tick=0, channel=4, data=[57, 100]),\n",
      "   midi.NoteOffEvent(tick=192, channel=4, data=[57, 64]),\n",
      "   midi.NoteOnEvent(tick=0, channel=4, data=[59, 100]),\n",
      "   midi.NoteOffEvent(tick=192, channel=4, data=[59, 64]),\n",
      "   midi.NoteOnEvent(tick=0, channel=4, data=[61, 100]),\n",
      "   midi.NoteOffEvent(tick=96, channel=4, data=[61, 64]),\n",
      "   midi.NoteOnEvent(tick=0, channel=4, data=[57, 100]),\n",
      "   midi.NoteOffEvent(tick=96, channel=4, data=[57, 64]),\n",
      "   midi.NoteOnEvent(tick=0, channel=4, data=[59, 100]),\n",
      "   midi.NoteOffEvent(tick=96, channel=4, data=[59, 64]),\n",
      "   midi.NoteOnEvent(tick=0, channel=4, data=[61, 100]),\n",
      "   midi.NoteOffEvent(tick=96, channel=4, data=[61, 64]),\n",
      "   midi.NoteOnEvent(tick=0, channel=4, data=[62, 100]),\n",
      "   midi.NoteOffEvent(tick=192, channel=4, data=[62, 64]),\n",
      "   midi.NoteOnEvent(tick=0, channel=4, data=[74, 100]),\n",
      "   midi.NoteOffEvent(tick=192, channel=4, data=[74, 64]),\n",
      "   midi.NoteOnEvent(tick=0, channel=4, data=[71, 100]),\n",
      "   midi.NoteOffEvent(tick=192, channel=4, data=[71, 64]),\n",
      "   midi.NoteOnEvent(tick=0, channel=4, data=[66, 100]),\n",
      "   midi.NoteOffEvent(tick=192, channel=4, data=[66, 64]),\n",
      "   midi.NoteOnEvent(tick=0, channel=4, data=[68, 100]),\n",
      "   midi.NoteOffEvent(tick=96, channel=4, data=[68, 64]),\n",
      "   midi.NoteOnEvent(tick=0, channel=4, data=[69, 100]),\n",
      "   midi.NoteOffEvent(tick=96, channel=4, data=[69, 64]),\n",
      "   midi.NoteOnEvent(tick=0, channel=4, data=[71, 100]),\n",
      "   midi.NoteOffEvent(tick=384, channel=4, data=[71, 64]),\n",
      "   midi.NoteOnEvent(tick=0, channel=4, data=[71, 100]),\n",
      "   midi.NoteOffEvent(tick=384, channel=4, data=[71, 64]),\n",
      "   midi.NoteOnEvent(tick=0, channel=4, data=[73, 100]),\n",
      "   midi.NoteOffEvent(tick=192, channel=4, data=[73, 64]),\n",
      "   midi.NoteOnEvent(tick=0, channel=4, data=[69, 100]),\n",
      "   midi.NoteOffEvent(tick=192, channel=4, data=[69, 64]),\n",
      "   midi.NoteOnEvent(tick=0, channel=4, data=[64, 100]),\n",
      "   midi.NoteOffEvent(tick=192, channel=4, data=[64, 64]),\n",
      "   midi.NoteOnEvent(tick=0, channel=4, data=[66, 100]),\n",
      "   midi.NoteOffEvent(tick=192, channel=4, data=[66, 64]),\n",
      "   midi.NoteOnEvent(tick=0, channel=4, data=[73, 100]),\n",
      "   midi.NoteOffEvent(tick=96, channel=4, data=[73, 64]),\n",
      "   midi.NoteOnEvent(tick=0, channel=4, data=[71, 100]),\n",
      "   midi.NoteOffEvent(tick=96, channel=4, data=[71, 64]),\n",
      "   midi.NoteOnEvent(tick=0, channel=4, data=[73, 100]),\n",
      "   midi.NoteOffEvent(tick=192, channel=4, data=[73, 64]),\n",
      "   midi.NoteOnEvent(tick=0, channel=4, data=[66, 100]),\n",
      "   midi.NoteOffEvent(tick=384, channel=4, data=[66, 64]),\n",
      "   midi.NoteOnEvent(tick=0, channel=4, data=[62, 100]),\n",
      "   midi.NoteOffEvent(tick=192, channel=4, data=[62, 64]),\n",
      "   midi.NoteOnEvent(tick=0, channel=4, data=[71, 100]),\n",
      "   midi.NoteOffEvent(tick=192, channel=4, data=[71, 64]),\n",
      "   midi.NoteOnEvent(tick=0, channel=4, data=[74, 100]),\n",
      "   midi.NoteOffEvent(tick=192, channel=4, data=[74, 64]),\n",
      "   midi.NoteOnEvent(tick=0, channel=4, data=[71, 100]),\n",
      "   midi.NoteOffEvent(tick=192, channel=4, data=[71, 64]),\n",
      "   midi.NoteOnEvent(tick=0, channel=4, data=[68, 100]),\n",
      "   midi.NoteOffEvent(tick=192, channel=4, data=[68, 64]),\n",
      "   midi.NoteOnEvent(tick=0, channel=4, data=[64, 100]),\n",
      "   midi.NoteOffEvent(tick=192, channel=4, data=[64, 64]),\n",
      "   midi.NoteOnEvent(tick=0, channel=4, data=[64, 100]),\n",
      "   midi.NoteOffEvent(tick=384, channel=4, data=[64, 64]),\n",
      "   midi.NoteOnEvent(tick=0, channel=4, data=[57, 100]),\n",
      "   midi.NoteOffEvent(tick=192, channel=4, data=[57, 64]),\n",
      "   midi.NoteOnEvent(tick=0, channel=4, data=[61, 100]),\n",
      "   midi.NoteOffEvent(tick=192, channel=4, data=[61, 64]),\n",
      "   midi.NoteOnEvent(tick=0, channel=4, data=[64, 100]),\n",
      "   midi.NoteOffEvent(tick=384, channel=4, data=[64, 64]),\n",
      "   midi.NoteOnEvent(tick=1920, channel=4, data=[56, 100]),\n",
      "   midi.NoteOffEvent(tick=192, channel=4, data=[56, 64]),\n",
      "   midi.NoteOnEvent(tick=0, channel=4, data=[57, 100]),\n",
      "   midi.NoteOffEvent(tick=192, channel=4, data=[57, 64]),\n",
      "   midi.NoteOnEvent(tick=0, channel=4, data=[54, 100]),\n",
      "   midi.NoteOffEvent(tick=192, channel=4, data=[54, 64]),\n",
      "   midi.NoteOnEvent(tick=0, channel=4, data=[66, 100]),\n",
      "   midi.NoteOffEvent(tick=192, channel=4, data=[66, 64]),\n",
      "   midi.NoteOnEvent(tick=0, channel=4, data=[64, 100]),\n",
      "   midi.NoteOffEvent(tick=192, channel=4, data=[64, 64]),\n",
      "   midi.NoteOnEvent(tick=0, channel=4, data=[64, 100]),\n",
      "   midi.NoteOffEvent(tick=192, channel=4, data=[64, 64]),\n",
      "   midi.NoteOnEvent(tick=0, channel=4, data=[62, 100]),\n",
      "   midi.NoteOffEvent(tick=192, channel=4, data=[62, 64]),\n",
      "   midi.NoteOnEvent(tick=0, channel=4, data=[64, 100]),\n",
      "   midi.NoteOffEvent(tick=192, channel=4, data=[64, 64]),\n",
      "   midi.NoteOnEvent(tick=1536, channel=4, data=[61, 100]),\n",
      "   midi.NoteOffEvent(tick=192, channel=4, data=[61, 64]),\n",
      "   midi.NoteOnEvent(tick=0, channel=4, data=[62, 100]),\n",
      "   midi.NoteOffEvent(tick=192, channel=4, data=[62, 64]),\n",
      "   midi.NoteOnEvent(tick=0, channel=4, data=[59, 100]),\n",
      "   midi.NoteOffEvent(tick=192, channel=4, data=[59, 64]),\n",
      "   midi.NoteOnEvent(tick=0, channel=4, data=[64, 100]),\n",
      "   midi.NoteOffEvent(tick=192, channel=4, data=[64, 64]),\n",
      "   midi.NoteOnEvent(tick=0, channel=4, data=[69, 100]),\n",
      "   midi.NoteOffEvent(tick=192, channel=4, data=[69, 64]),\n",
      "   midi.NoteOnEvent(tick=0, channel=4, data=[69, 100]),\n",
      "   midi.NoteOffEvent(tick=192, channel=4, data=[69, 64]),\n",
      "   midi.NoteOnEvent(tick=0, channel=4, data=[67, 100]),\n",
      "   midi.NoteOffEvent(tick=192, channel=4, data=[67, 64]),\n",
      "   midi.NoteOnEvent(tick=0, channel=4, data=[69, 100]),\n",
      "   midi.NoteOffEvent(tick=192, channel=4, data=[69, 64]),\n",
      "   midi.NoteOnEvent(tick=3264, channel=4, data=[64, 100]),\n",
      "   midi.NoteOffEvent(tick=96, channel=4, data=[64, 64]),\n",
      "   midi.NoteOnEvent(tick=0, channel=4, data=[62, 100]),\n",
      "   midi.NoteOffEvent(tick=96, channel=4, data=[62, 64]),\n",
      "   midi.NoteOnEvent(tick=0, channel=4, data=[61, 100]),\n",
      "   midi.NoteOffEvent(tick=96, channel=4, data=[61, 64]),\n",
      "   midi.NoteOnEvent(tick=0, channel=4, data=[59, 100]),\n",
      "   midi.NoteOffEvent(tick=96, channel=4, data=[59, 64]),\n",
      "   midi.NoteOnEvent(tick=0, channel=4, data=[55, 100]),\n",
      "   midi.NoteOffEvent(tick=192, channel=4, data=[55, 64]),\n",
      "   midi.NoteOnEvent(tick=0, channel=4, data=[62, 100]),\n",
      "   midi.NoteOffEvent(tick=192, channel=4, data=[62, 64]),\n",
      "   midi.NoteOnEvent(tick=0, channel=4, data=[64, 100]),\n",
      "   midi.NoteOffEvent(tick=96, channel=4, data=[64, 64]),\n",
      "   midi.NoteOnEvent(tick=0, channel=4, data=[66, 100]),\n",
      "   midi.NoteOffEvent(tick=96, channel=4, data=[66, 64]),\n",
      "   midi.NoteOnEvent(tick=0, channel=4, data=[64, 100]),\n",
      "   midi.NoteOffEvent(tick=96, channel=4, data=[64, 64]),\n",
      "   midi.NoteOnEvent(tick=0, channel=4, data=[62, 100]),\n",
      "   midi.NoteOffEvent(tick=96, channel=4, data=[62, 64]),\n",
      "   midi.NoteOnEvent(tick=0, channel=4, data=[61, 100]),\n",
      "   midi.NoteOffEvent(tick=192, channel=4, data=[61, 64]),\n",
      "   midi.NoteOnEvent(tick=0, channel=4, data=[61, 100]),\n",
      "   midi.NoteOffEvent(tick=192, channel=4, data=[61, 64]),\n",
      "   midi.NoteOnEvent(tick=0, channel=4, data=[62, 100]),\n",
      "   midi.NoteOffEvent(tick=384, channel=4, data=[62, 64]),\n",
      "   midi.NoteOnEvent(tick=0, channel=4, data=[59, 100]),\n",
      "   midi.NoteOffEvent(tick=384, channel=4, data=[59, 64]),\n",
      "   midi.NoteOnEvent(tick=0, channel=4, data=[61, 100]),\n",
      "   midi.NoteOffEvent(tick=96, channel=4, data=[61, 64]),\n",
      "   midi.NoteOnEvent(tick=0, channel=4, data=[69, 100]),\n",
      "   midi.NoteOffEvent(tick=96, channel=4, data=[69, 64]),\n",
      "   midi.NoteOnEvent(tick=0, channel=4, data=[68, 100]),\n",
      "   midi.NoteOffEvent(tick=96, channel=4, data=[68, 64]),\n",
      "   midi.NoteOnEvent(tick=0, channel=4, data=[66, 100]),\n",
      "   midi.NoteOffEvent(tick=96, channel=4, data=[66, 64]),\n",
      "   midi.NoteOnEvent(tick=0, channel=4, data=[64, 100]),\n",
      "   midi.NoteOffEvent(tick=96, channel=4, data=[64, 64]),\n",
      "   midi.NoteOnEvent(tick=0, channel=4, data=[62, 100]),\n",
      "   midi.NoteOffEvent(tick=96, channel=4, data=[62, 64]),\n",
      "   midi.NoteOnEvent(tick=0, channel=4, data=[61, 100]),\n",
      "   midi.NoteOffEvent(tick=96, channel=4, data=[61, 64]),\n",
      "   midi.NoteOnEvent(tick=0, channel=4, data=[59, 100]),\n",
      "   midi.NoteOffEvent(tick=96, channel=4, data=[59, 64]),\n",
      "   midi.NoteOnEvent(tick=0, channel=4, data=[57, 100]),\n",
      "   midi.NoteOffEvent(tick=192, channel=4, data=[57, 64]),\n",
      "   midi.NoteOnEvent(tick=0, channel=4, data=[69, 100]),\n",
      "   midi.NoteOffEvent(tick=192, channel=4, data=[69, 64]),\n",
      "   midi.NoteOnEvent(tick=0, channel=4, data=[68, 100]),\n",
      "   midi.NoteOffEvent(tick=192, channel=4, data=[68, 64]),\n",
      "   midi.NoteOnEvent(tick=0, channel=4, data=[64, 100]),\n",
      "   midi.NoteOffEvent(tick=192, channel=4, data=[64, 64]),\n",
      "   midi.NoteOnEvent(tick=0, channel=4, data=[69, 100]),\n",
      "   midi.NoteOffEvent(tick=192, channel=4, data=[69, 64]),\n",
      "   midi.NoteOnEvent(tick=0, channel=4, data=[68, 100]),\n",
      "   midi.NoteOffEvent(tick=96, channel=4, data=[68, 64]),\n",
      "   midi.NoteOnEvent(tick=0, channel=4, data=[66, 100]),\n",
      "   midi.NoteOffEvent(tick=96, channel=4, data=[66, 64]),\n",
      "   midi.NoteOnEvent(tick=0, channel=4, data=[64, 100]),\n",
      "   midi.NoteOffEvent(tick=96, channel=4, data=[64, 64]),\n",
      "   midi.NoteOnEvent(tick=0, channel=4, data=[62, 100]),\n",
      "   midi.NoteOffEvent(tick=96, channel=4, data=[62, 64]),\n",
      "   midi.NoteOnEvent(tick=0, channel=4, data=[61, 100]),\n",
      "   midi.NoteOffEvent(tick=96, channel=4, data=[61, 64]),\n",
      "   midi.NoteOnEvent(tick=0, channel=4, data=[59, 100]),\n",
      "   midi.NoteOffEvent(tick=96, channel=4, data=[59, 64]),\n",
      "   midi.NoteOnEvent(tick=0, channel=4, data=[57, 100]),\n",
      "   midi.NoteOffEvent(tick=192, channel=4, data=[57, 64]),\n",
      "   midi.NoteOnEvent(tick=0, channel=4, data=[57, 100]),\n",
      "   midi.NoteOffEvent(tick=192, channel=4, data=[57, 64]),\n",
      "   midi.NoteOnEvent(tick=0, channel=4, data=[64, 100]),\n",
      "   midi.NoteOffEvent(tick=192, channel=4, data=[64, 64]),\n",
      "   midi.NoteOnEvent(tick=0, channel=4, data=[59, 100]),\n",
      "   midi.NoteOffEvent(tick=192, channel=4, data=[59, 64]),\n",
      "   midi.NoteOnEvent(tick=0, channel=4, data=[61, 100]),\n",
      "   midi.NoteOffEvent(tick=96, channel=4, data=[61, 64]),\n",
      "   midi.NoteOnEvent(tick=0, channel=4, data=[69, 100]),\n",
      "   midi.NoteOffEvent(tick=96, channel=4, data=[69, 64]),\n",
      "   midi.NoteOnEvent(tick=0, channel=4, data=[68, 100]),\n",
      "   midi.NoteOffEvent(tick=96, channel=4, data=[68, 64]),\n",
      "   midi.NoteOnEvent(tick=0, channel=4, data=[66, 100]),\n",
      "   midi.NoteOffEvent(tick=96, channel=4, data=[66, 64]),\n",
      "   midi.NoteOnEvent(tick=0, channel=4, data=[64, 100]),\n",
      "   midi.NoteOffEvent(tick=96, channel=4, data=[64, 64]),\n",
      "   midi.NoteOnEvent(tick=0, channel=4, data=[62, 100]),\n",
      "   midi.NoteOffEvent(tick=96, channel=4, data=[62, 64]),\n",
      "   midi.NoteOnEvent(tick=0, channel=4, data=[61, 100]),\n",
      "   midi.NoteOffEvent(tick=96, channel=4, data=[61, 64]),\n",
      "   midi.NoteOnEvent(tick=0, channel=4, data=[59, 100]),\n",
      "   midi.NoteOffEvent(tick=96, channel=4, data=[59, 64]),\n",
      "   midi.NoteOnEvent(tick=0, channel=4, data=[57, 100]),\n",
      "   midi.NoteOffEvent(tick=192, channel=4, data=[57, 64]),\n",
      "   midi.NoteOnEvent(tick=0, channel=4, data=[69, 100]),\n",
      "   midi.NoteOffEvent(tick=192, channel=4, data=[69, 64]),\n",
      "   midi.NoteOnEvent(tick=0, channel=4, data=[68, 100]),\n",
      "   midi.NoteOffEvent(tick=192, channel=4, data=[68, 64]),\n",
      "   midi.NoteOnEvent(tick=0, channel=4, data=[64, 100]),\n",
      "   midi.NoteOffEvent(tick=192, channel=4, data=[64, 64]),\n",
      "   midi.NoteOnEvent(tick=0, channel=4, data=[69, 100]),\n",
      "   midi.NoteOffEvent(tick=192, channel=4, data=[69, 64]),\n",
      "   midi.NoteOnEvent(tick=0, channel=4, data=[68, 100]),\n",
      "   midi.NoteOffEvent(tick=96, channel=4, data=[68, 64]),\n",
      "   midi.NoteOnEvent(tick=0, channel=4, data=[66, 100]),\n",
      "   midi.NoteOffEvent(tick=96, channel=4, data=[66, 64]),\n",
      "   midi.NoteOnEvent(tick=0, channel=4, data=[64, 100]),\n",
      "   midi.NoteOffEvent(tick=96, channel=4, data=[64, 64]),\n",
      "   midi.NoteOnEvent(tick=0, channel=4, data=[62, 100]),\n",
      "   midi.NoteOffEvent(tick=96, channel=4, data=[62, 64]),\n",
      "   midi.NoteOnEvent(tick=0, channel=4, data=[61, 100]),\n",
      "   midi.NoteOffEvent(tick=96, channel=4, data=[61, 64]),\n",
      "   midi.NoteOnEvent(tick=0, channel=4, data=[59, 100]),\n",
      "   midi.NoteOffEvent(tick=96, channel=4, data=[59, 64]),\n",
      "   midi.NoteOnEvent(tick=0, channel=4, data=[57, 100]),\n",
      "   midi.NoteOffEvent(tick=192, channel=4, data=[57, 64]),\n",
      "   midi.NoteOnEvent(tick=0, channel=4, data=[57, 100]),\n",
      "   midi.NoteOffEvent(tick=192, channel=4, data=[57, 64]),\n",
      "   midi.NoteOnEvent(tick=0, channel=4, data=[64, 100]),\n",
      "   midi.NoteOffEvent(tick=192, channel=4, data=[64, 64]),\n",
      "   midi.NoteOnEvent(tick=0, channel=4, data=[59, 100]),\n",
      "   midi.NoteOffEvent(tick=192, channel=4, data=[59, 64]),\n",
      "   midi.NoteOnEvent(tick=0, channel=4, data=[61, 100]),\n",
      "   midi.NoteOffEvent(tick=96, channel=4, data=[61, 64]),\n",
      "   midi.NoteOnEvent(tick=0, channel=4, data=[69, 100]),\n",
      "   midi.NoteOffEvent(tick=96, channel=4, data=[69, 64]),\n",
      "   midi.NoteOnEvent(tick=0, channel=4, data=[68, 100]),\n",
      "   midi.NoteOffEvent(tick=96, channel=4, data=[68, 64]),\n",
      "   midi.NoteOnEvent(tick=0, channel=4, data=[66, 100]),\n",
      "   midi.NoteOffEvent(tick=96, channel=4, data=[66, 64]),\n",
      "   midi.NoteOnEvent(tick=0, channel=4, data=[64, 100]),\n",
      "   midi.NoteOffEvent(tick=96, channel=4, data=[64, 64]),\n",
      "   midi.NoteOnEvent(tick=0, channel=4, data=[62, 100]),\n",
      "   midi.NoteOffEvent(tick=96, channel=4, data=[62, 64]),\n",
      "   midi.NoteOnEvent(tick=0, channel=4, data=[61, 100]),\n",
      "   midi.NoteOffEvent(tick=96, channel=4, data=[61, 64]),\n",
      "   midi.NoteOnEvent(tick=0, channel=4, data=[59, 100]),\n",
      "   midi.NoteOffEvent(tick=96, channel=4, data=[59, 64]),\n",
      "   midi.NoteOnEvent(tick=0, channel=4, data=[62, 100]),\n",
      "   midi.NoteOffEvent(tick=192, channel=4, data=[62, 64]),\n",
      "   midi.NoteOnEvent(tick=0, channel=4, data=[78, 100]),\n",
      "   midi.NoteOffEvent(tick=192, channel=4, data=[78, 64]),\n",
      "   midi.NoteOnEvent(tick=0, channel=4, data=[71, 100]),\n",
      "   midi.NoteOffEvent(tick=192, channel=4, data=[71, 64]),\n",
      "   midi.NoteOnEvent(tick=0, channel=4, data=[66, 100]),\n",
      "   midi.NoteOffEvent(tick=192, channel=4, data=[66, 64]),\n",
      "   midi.NoteOnEvent(tick=0, channel=4, data=[68, 100]),\n",
      "   midi.NoteOffEvent(tick=96, channel=4, data=[68, 64]),\n",
      "   midi.NoteOnEvent(tick=0, channel=4, data=[69, 100]),\n",
      "   midi.NoteOffEvent(tick=96, channel=4, data=[69, 64]),\n",
      "   midi.NoteOnEvent(tick=0, channel=4, data=[71, 100]),\n",
      "   midi.NoteOffEvent(tick=384, channel=4, data=[71, 64]),\n",
      "   midi.NoteOnEvent(tick=0, channel=4, data=[71, 100]),\n",
      "   midi.NoteOffEvent(tick=384, channel=4, data=[71, 64]),\n",
      "   midi.NoteOnEvent(tick=0, channel=4, data=[73, 100]),\n",
      "   midi.NoteOffEvent(tick=192, channel=4, data=[73, 64]),\n",
      "   midi.NoteOnEvent(tick=0, channel=4, data=[69, 100]),\n",
      "   midi.NoteOffEvent(tick=192, channel=4, data=[69, 64]),\n",
      "   midi.NoteOnEvent(tick=0, channel=4, data=[64, 100]),\n",
      "   midi.NoteOffEvent(tick=192, channel=4, data=[64, 64]),\n",
      "   midi.NoteOnEvent(tick=0, channel=4, data=[66, 100]),\n",
      "   midi.NoteOffEvent(tick=192, channel=4, data=[66, 64]),\n",
      "   midi.NoteOnEvent(tick=0, channel=4, data=[73, 100]),\n",
      "   midi.NoteOffEvent(tick=96, channel=4, data=[73, 64]),\n",
      "   midi.NoteOnEvent(tick=0, channel=4, data=[71, 100]),\n",
      "   midi.NoteOffEvent(tick=96, channel=4, data=[71, 64]),\n",
      "   midi.NoteOnEvent(tick=0, channel=4, data=[73, 100]),\n",
      "   midi.NoteOffEvent(tick=192, channel=4, data=[73, 64]),\n",
      "   midi.NoteOnEvent(tick=0, channel=4, data=[69, 100]),\n",
      "   midi.NoteOffEvent(tick=384, channel=4, data=[69, 64]),\n",
      "   midi.NoteOnEvent(tick=0, channel=4, data=[66, 100]),\n",
      "   midi.NoteOffEvent(tick=192, channel=4, data=[66, 64]),\n",
      "   midi.NoteOnEvent(tick=0, channel=4, data=[71, 100]),\n",
      "   midi.NoteOffEvent(tick=192, channel=4, data=[71, 64]),\n",
      "   midi.NoteOnEvent(tick=0, channel=4, data=[74, 100]),\n",
      "   midi.NoteOffEvent(tick=192, channel=4, data=[74, 64]),\n",
      "   midi.NoteOnEvent(tick=0, channel=4, data=[71, 100]),\n",
      "   midi.NoteOffEvent(tick=384, channel=4, data=[71, 64]),\n",
      "   midi.NoteOnEvent(tick=192, channel=4, data=[64, 100]),\n",
      "   midi.NoteOffEvent(tick=192, channel=4, data=[64, 64]),\n",
      "   midi.NoteOnEvent(tick=0, channel=4, data=[64, 100]),\n",
      "   midi.NoteOffEvent(tick=192, channel=4, data=[64, 64]),\n",
      "   midi.NoteOnEvent(tick=0, channel=4, data=[69, 100]),\n",
      "   midi.NoteOffEvent(tick=192, channel=4, data=[69, 64]),\n",
      "   midi.NoteOnEvent(tick=0, channel=4, data=[61, 100]),\n",
      "   midi.NoteOffEvent(tick=192, channel=4, data=[61, 64]),\n",
      "   midi.NoteOnEvent(tick=0, channel=4, data=[64, 100]),\n",
      "   midi.NoteOffEvent(tick=192, channel=4, data=[64, 64]),\n",
      "   midi.NoteOnEvent(tick=0, channel=4, data=[64, 100]),\n",
      "   midi.NoteOffEvent(tick=192, channel=4, data=[64, 64]),\n",
      "   midi.NoteOnEvent(tick=0, channel=4, data=[62, 100]),\n",
      "   midi.NoteOffEvent(tick=192, channel=4, data=[62, 64]),\n",
      "   midi.NoteOnEvent(tick=0, channel=4, data=[61, 100]),\n",
      "   midi.NoteOffEvent(tick=192, channel=4, data=[61, 64]),\n",
      "   midi.NoteOnEvent(tick=0, channel=4, data=[59, 100]),\n",
      "   midi.NoteOffEvent(tick=192, channel=4, data=[59, 64]),\n",
      "   midi.NoteOnEvent(tick=0, channel=4, data=[57, 100]),\n",
      "   midi.NoteOffEvent(tick=384, channel=4, data=[57, 64]),\n",
      "   midi.NoteOnEvent(tick=0, channel=4, data=[57, 100]),\n",
      "   midi.NoteOffEvent(tick=384, channel=4, data=[57, 64]),\n",
      "   midi.NoteOnEvent(tick=384, channel=4, data=[61, 100]),\n",
      "   midi.NoteOffEvent(tick=192, channel=4, data=[61, 64]),\n",
      "   midi.NoteOnEvent(tick=0, channel=4, data=[61, 100]),\n",
      "   midi.NoteOffEvent(tick=192, channel=4, data=[61, 64]),\n",
      "   midi.NoteOnEvent(tick=0, channel=4, data=[61, 100]),\n",
      "   midi.NoteOffEvent(tick=192, channel=4, data=[61, 64]),\n",
      "   midi.NoteOnEvent(tick=0, channel=4, data=[59, 100]),\n",
      "   midi.NoteOffEvent(tick=192, channel=4, data=[59, 64]),\n",
      "   midi.NoteOnEvent(tick=0, channel=4, data=[56, 100]),\n",
      "   midi.NoteOffEvent(tick=192, channel=4, data=[56, 64]),\n",
      "   midi.NoteOnEvent(tick=0, channel=4, data=[61, 100]),\n",
      "   midi.NoteOffEvent(tick=384, channel=4, data=[61, 64]),\n",
      "   midi.NoteOnEvent(tick=0, channel=4, data=[65, 100]),\n",
      "   midi.NoteOffEvent(tick=192, channel=4, data=[65, 64]),\n",
      "   midi.NoteOnEvent(tick=0, channel=4, data=[66, 100]),\n",
      "   midi.NoteOffEvent(tick=192, channel=4, data=[66, 64]),\n",
      "   midi.NoteOnEvent(tick=0, channel=4, data=[66, 100]),\n",
      "   midi.NoteOffEvent(tick=192, channel=4, data=[66, 64]),\n",
      "   midi.NoteOnEvent(tick=0, channel=4, data=[66, 100]),\n",
      "   midi.NoteOffEvent(tick=384, channel=4, data=[66, 64]),\n",
      "   midi.NoteOnEvent(tick=0, channel=4, data=[71, 100]),\n",
      "   midi.NoteOffEvent(tick=384, channel=4, data=[71, 64]),\n",
      "   midi.NoteOnEvent(tick=384, channel=4, data=[66, 100]),\n",
      "   midi.NoteOffEvent(tick=192, channel=4, data=[66, 64]),\n",
      "   midi.NoteOnEvent(tick=0, channel=4, data=[66, 100]),\n",
      "   midi.NoteOffEvent(tick=192, channel=4, data=[66, 64]),\n",
      "   midi.NoteOnEvent(tick=0, channel=4, data=[59, 100]),\n",
      "   midi.NoteOffEvent(tick=192, channel=4, data=[59, 64]),\n",
      "   midi.NoteOnEvent(tick=0, channel=4, data=[61, 100]),\n",
      "   midi.NoteOffEvent(tick=192, channel=4, data=[61, 64]),\n",
      "   midi.NoteOnEvent(tick=0, channel=4, data=[61, 100]),\n",
      "   midi.NoteOffEvent(tick=192, channel=4, data=[61, 64]),\n",
      "   midi.NoteOnEvent(tick=0, channel=4, data=[66, 100]),\n",
      "   midi.NoteOffEvent(tick=192, channel=4, data=[66, 64]),\n",
      "   midi.NoteOnEvent(tick=0, channel=4, data=[66, 100]),\n",
      "   midi.NoteOffEvent(tick=192, channel=4, data=[66, 64]),\n",
      "   midi.NoteOnEvent(tick=0, channel=4, data=[70, 100]),\n",
      "   midi.NoteOffEvent(tick=192, channel=4, data=[70, 64]),\n",
      "   midi.NoteOnEvent(tick=0, channel=4, data=[71, 100]),\n",
      "   midi.NoteOffEvent(tick=192, channel=4, data=[71, 64]),\n",
      "   midi.NoteOnEvent(tick=0, channel=4, data=[71, 100]),\n",
      "   midi.NoteOffEvent(tick=192, channel=4, data=[71, 64]),\n",
      "   midi.NoteOnEvent(tick=0, channel=4, data=[71, 100]),\n",
      "   midi.NoteOffEvent(tick=192, channel=4, data=[71, 64]),\n",
      "   midi.NoteOnEvent(tick=0, channel=4, data=[59, 100]),\n",
      "   midi.NoteOffEvent(tick=192, channel=4, data=[59, 64]),\n",
      "   midi.NoteOnEvent(tick=0, channel=4, data=[64, 100]),\n",
      "   midi.NoteOffEvent(tick=384, channel=4, data=[64, 64]),\n",
      "   midi.NoteOnEvent(tick=192, channel=4, data=[64, 100]),\n",
      "   midi.NoteOffEvent(tick=384, channel=4, data=[64, 64]),\n",
      "   midi.NoteOnEvent(tick=0, channel=4, data=[66, 100]),\n",
      "   midi.NoteOffEvent(tick=96, channel=4, data=[66, 64]),\n",
      "   midi.NoteOnEvent(tick=0, channel=4, data=[67, 100]),\n",
      "   midi.NoteOffEvent(tick=96, channel=4, data=[67, 64]),\n",
      "   midi.NoteOnEvent(tick=0, channel=4, data=[69, 100]),\n",
      "   midi.NoteOffEvent(tick=512, channel=4, data=[69, 64]),\n",
      "   midi.NoteOnEvent(tick=64, channel=4, data=[74, 100]),\n",
      "   midi.NoteOffEvent(tick=96, channel=4, data=[74, 64]),\n",
      "   midi.NoteOnEvent(tick=0, channel=4, data=[69, 100]),\n",
      "   midi.NoteOffEvent(tick=96, channel=4, data=[69, 64]),\n",
      "   midi.NoteOnEvent(tick=0, channel=4, data=[62, 100]),\n",
      "   midi.NoteOffEvent(tick=384, channel=4, data=[62, 64]),\n",
      "   midi.NoteOnEvent(tick=96, channel=4, data=[62, 100]),\n",
      "   midi.NoteOffEvent(tick=96, channel=4, data=[62, 64]),\n",
      "   midi.NoteOnEvent(tick=0, channel=4, data=[64, 100]),\n",
      "   midi.NoteOffEvent(tick=96, channel=4, data=[64, 64]),\n",
      "   midi.NoteOnEvent(tick=0, channel=4, data=[66, 100]),\n",
      "   midi.NoteOffEvent(tick=96, channel=4, data=[66, 64]),\n",
      "   midi.NoteOnEvent(tick=0, channel=4, data=[67, 100]),\n",
      "   midi.NoteOffEvent(tick=480, channel=4, data=[67, 64]),\n",
      "   midi.NoteOnEvent(tick=0, channel=4, data=[66, 100]),\n",
      "   midi.NoteOffEvent(tick=96, channel=4, data=[66, 64]),\n",
      "   midi.NoteOnEvent(tick=0, channel=4, data=[64, 100]),\n",
      "   midi.NoteOffEvent(tick=96, channel=4, data=[64, 64]),\n",
      "   midi.NoteOnEvent(tick=0, channel=4, data=[62, 100]),\n",
      "   midi.NoteOffEvent(tick=96, channel=4, data=[62, 64]),\n",
      "   midi.NoteOnEvent(tick=0, channel=4, data=[61, 100]),\n",
      "   midi.NoteOffEvent(tick=192, channel=4, data=[61, 64]),\n",
      "   midi.NoteOnEvent(tick=0, channel=4, data=[64, 100]),\n",
      "   midi.NoteOffEvent(tick=192, channel=4, data=[64, 64]),\n",
      "   midi.NoteOnEvent(tick=0, channel=4, data=[62, 100]),\n",
      "   midi.NoteOffEvent(tick=192, channel=4, data=[62, 64]),\n",
      "   midi.NoteOnEvent(tick=0, channel=4, data=[66, 100]),\n",
      "   midi.NoteOffEvent(tick=192, channel=4, data=[66, 64]),\n",
      "   midi.NoteOnEvent(tick=0, channel=4, data=[59, 100]),\n",
      "   midi.NoteOffEvent(tick=192, channel=4, data=[59, 64]),\n",
      "   midi.NoteOnEvent(tick=0, channel=4, data=[62, 100]),\n",
      "   midi.NoteOffEvent(tick=192, channel=4, data=[62, 64]),\n",
      "   midi.NoteOnEvent(tick=0, channel=4, data=[64, 100]),\n",
      "   midi.NoteOffEvent(tick=192, channel=4, data=[64, 64]),\n",
      "   midi.NoteOnEvent(tick=0, channel=4, data=[61, 100]),\n",
      "   midi.NoteOffEvent(tick=192, channel=4, data=[61, 64]),\n",
      "   midi.NoteOnEvent(tick=0, channel=4, data=[62, 100]),\n",
      "   midi.NoteOffEvent(tick=384, channel=4, data=[62, 64]),\n",
      "   midi.NoteOnEvent(tick=576, channel=4, data=[67, 100]),\n",
      "   midi.NoteOffEvent(tick=96, channel=4, data=[67, 64]),\n",
      "   midi.NoteOnEvent(tick=0, channel=4, data=[66, 100]),\n",
      "   midi.NoteOffEvent(tick=96, channel=4, data=[66, 64]),\n",
      "   midi.NoteOnEvent(tick=0, channel=4, data=[64, 100]),\n",
      "   midi.NoteOffEvent(tick=96, channel=4, data=[64, 64]),\n",
      "   midi.NoteOnEvent(tick=0, channel=4, data=[62, 100]),\n",
      "   midi.NoteOffEvent(tick=96, channel=4, data=[62, 64]),\n",
      "   midi.NoteOnEvent(tick=0, channel=4, data=[61, 100]),\n",
      "   midi.NoteOffEvent(tick=96, channel=4, data=[61, 64]),\n",
      "   midi.NoteOnEvent(tick=0, channel=4, data=[59, 100]),\n",
      "   midi.NoteOffEvent(tick=96, channel=4, data=[59, 64]),\n",
      "   midi.NoteOnEvent(tick=0, channel=4, data=[58, 100]),\n",
      "   midi.NoteOffEvent(tick=192, channel=4, data=[58, 64]),\n",
      "   midi.NoteOnEvent(tick=768, channel=4, data=[58, 100]),\n",
      "   midi.NoteOffEvent(tick=192, channel=4, data=[58, 64]),\n",
      "   midi.NoteOnEvent(tick=0, channel=4, data=[61, 100]),\n",
      "   midi.NoteOffEvent(tick=192, channel=4, data=[61, 64]),\n",
      "   midi.NoteOnEvent(tick=0, channel=4, data=[66, 100]),\n",
      "   midi.NoteOffEvent(tick=384, channel=4, data=[66, 64]),\n",
      "   midi.NoteOnEvent(tick=0, channel=4, data=[71, 100]),\n",
      "   midi.NoteOffEvent(tick=96, channel=4, data=[71, 64]),\n",
      "   midi.NoteOnEvent(tick=0, channel=4, data=[70, 100]),\n",
      "   midi.NoteOffEvent(tick=96, channel=4, data=[70, 64]),\n",
      "   midi.NoteOnEvent(tick=0, channel=4, data=[71, 100]),\n",
      "   midi.NoteOffEvent(tick=192, channel=4, data=[71, 64]),\n",
      "   midi.NoteOnEvent(tick=0, channel=4, data=[66, 100]),\n",
      "   midi.NoteOffEvent(tick=384, channel=4, data=[66, 64]),\n",
      "   midi.NoteOnEvent(tick=0, channel=4, data=[57, 100]),\n",
      "   midi.NoteOffEvent(tick=192, channel=4, data=[57, 64]),\n",
      "   midi.NoteOnEvent(tick=0, channel=4, data=[60, 100]),\n",
      "   midi.NoteOffEvent(tick=192, channel=4, data=[60, 64]),\n",
      "   midi.NoteOnEvent(tick=0, channel=4, data=[63, 100]),\n",
      "   midi.NoteOffEvent(tick=192, channel=4, data=[63, 64]),\n",
      "   midi.NoteOnEvent(tick=0, channel=4, data=[66, 100]),\n",
      "   midi.NoteOffEvent(tick=192, channel=4, data=[66, 64]),\n",
      "   midi.NoteOnEvent(tick=0, channel=4, data=[72, 100]),\n",
      "   midi.NoteOffEvent(tick=96, channel=4, data=[72, 64]),\n",
      "   midi.NoteOnEvent(tick=0, channel=4, data=[71, 100]),\n",
      "   midi.NoteOffEvent(tick=96, channel=4, data=[71, 64]),\n",
      "   midi.NoteOnEvent(tick=0, channel=4, data=[69, 100]),\n",
      "   midi.NoteOffEvent(tick=96, channel=4, data=[69, 64]),\n",
      "   midi.NoteOnEvent(tick=0, channel=4, data=[67, 100]),\n",
      "   midi.NoteOffEvent(tick=96, channel=4, data=[67, 64]),\n",
      "   midi.NoteOnEvent(tick=0, channel=4, data=[66, 100]),\n",
      "   midi.NoteOffEvent(tick=96, channel=4, data=[66, 64]),\n",
      "   midi.NoteOnEvent(tick=0, channel=4, data=[64, 100]),\n",
      "   midi.NoteOffEvent(tick=96, channel=4, data=[64, 64]),\n",
      "   midi.NoteOnEvent(tick=0, channel=4, data=[63, 100]),\n",
      "   midi.NoteOffEvent(tick=192, channel=4, data=[63, 64]),\n",
      "   midi.NoteOnEvent(tick=0, channel=4, data=[63, 100]),\n",
      "   midi.NoteOffEvent(tick=192, channel=4, data=[63, 64]),\n",
      "   midi.NoteOnEvent(tick=0, channel=4, data=[66, 100]),\n",
      "   midi.NoteOffEvent(tick=192, channel=4, data=[66, 64]),\n",
      "   midi.NoteOnEvent(tick=0, channel=4, data=[71, 100]),\n",
      "   midi.NoteOffEvent(tick=192, channel=4, data=[71, 64]),\n",
      "   midi.NoteOnEvent(tick=0, channel=4, data=[59, 100]),\n",
      "   midi.NoteOffEvent(tick=192, channel=4, data=[59, 64]),\n",
      "   midi.NoteOnEvent(tick=0, channel=4, data=[64, 100]),\n",
      "   midi.NoteOffEvent(tick=96, channel=4, data=[64, 64]),\n",
      "   midi.NoteOnEvent(tick=0, channel=4, data=[63, 100]),\n",
      "   midi.NoteOffEvent(tick=96, channel=4, data=[63, 64]),\n",
      "   midi.NoteOnEvent(tick=0, channel=4, data=[64, 100]),\n",
      "   midi.NoteOffEvent(tick=192, channel=4, data=[64, 64]),\n",
      "   midi.NoteOnEvent(tick=0, channel=4, data=[71, 100]),\n",
      "   midi.NoteOffEvent(tick=192, channel=4, data=[71, 64]),\n",
      "   midi.NoteOnEvent(tick=0, channel=4, data=[68, 100]),\n",
      "   midi.NoteOffEvent(tick=384, channel=4, data=[68, 64]),\n",
      "   midi.NoteOnEvent(tick=0, channel=4, data=[61, 100]),\n",
      "   midi.NoteOffEvent(tick=576, channel=4, data=[61, 64]),\n",
      "   midi.NoteOnEvent(tick=0, channel=4, data=[66, 100]),\n",
      "   midi.NoteOffEvent(tick=192, channel=4, data=[66, 64]),\n",
      "   midi.NoteOnEvent(tick=0, channel=4, data=[66, 100]),\n",
      "   midi.NoteOffEvent(tick=576, channel=4, data=[66, 64]),\n",
      "   midi.NoteOnEvent(tick=0, channel=4, data=[64, 100]),\n",
      "   midi.NoteOffEvent(tick=192, channel=4, data=[64, 64]),\n",
      "   midi.NoteOnEvent(tick=0, channel=4, data=[64, 100]),\n",
      "   midi.NoteOffEvent(tick=576, channel=4, data=[64, 64]),\n",
      "   midi.NoteOnEvent(tick=0, channel=4, data=[58, 100]),\n",
      "   midi.NoteOffEvent(tick=192, channel=4, data=[58, 64]),\n",
      "   midi.NoteOnEvent(tick=0, channel=4, data=[54, 100]),\n",
      "   midi.NoteOffEvent(tick=576, channel=4, data=[54, 64]),\n",
      "   midi.NoteOnEvent(tick=0, channel=4, data=[54, 100]),\n",
      "   midi.NoteOffEvent(tick=192, channel=4, data=[54, 64]),\n",
      "   midi.NoteOnEvent(tick=0, channel=4, data=[59, 100]),\n",
      "   midi.NoteOffEvent(tick=96, channel=4, data=[59, 64]),\n",
      "   midi.NoteOnEvent(tick=0, channel=4, data=[57, 100]),\n",
      "   midi.NoteOffEvent(tick=96, channel=4, data=[57, 64]),\n",
      "   midi.NoteOnEvent(tick=0, channel=4, data=[55, 100]),\n",
      "   midi.NoteOffEvent(tick=96, channel=4, data=[55, 64]),\n",
      "   midi.NoteOnEvent(tick=0, channel=4, data=[57, 100]),\n",
      "   midi.NoteOffEvent(tick=96, channel=4, data=[57, 64]),\n",
      "   midi.NoteOnEvent(tick=0, channel=4, data=[59, 100]),\n",
      "   midi.NoteOffEvent(tick=192, channel=4, data=[59, 64]),\n",
      "   midi.NoteOnEvent(tick=0, channel=4, data=[54, 100]),\n",
      "   midi.NoteOffEvent(tick=192, channel=4, data=[54, 64]),\n",
      "   midi.NoteOnEvent(tick=0, channel=4, data=[59, 100]),\n",
      "   midi.NoteOffEvent(tick=192, channel=4, data=[59, 64]),\n",
      "   midi.NoteOnEvent(tick=0, channel=4, data=[59, 100]),\n",
      "   midi.NoteOffEvent(tick=192, channel=4, data=[59, 64]),\n",
      "   midi.NoteOnEvent(tick=0, channel=4, data=[66, 100]),\n",
      "   midi.NoteOffEvent(tick=192, channel=4, data=[66, 64]),\n",
      "   midi.NoteOnEvent(tick=0, channel=4, data=[71, 100]),\n",
      "   midi.NoteOffEvent(tick=192, channel=4, data=[71, 64]),\n",
      "   midi.NoteOnEvent(tick=0, channel=4, data=[66, 100]),\n",
      "   midi.NoteOffEvent(tick=192, channel=4, data=[66, 64]),\n",
      "   midi.NoteOnEvent(tick=0, channel=4, data=[66, 100]),\n",
      "   midi.NoteOffEvent(tick=192, channel=4, data=[66, 64]),\n",
      "   midi.NoteOnEvent(tick=0, channel=4, data=[62, 100]),\n",
      "   midi.NoteOffEvent(tick=192, channel=4, data=[62, 64]),\n",
      "   midi.NoteOnEvent(tick=0, channel=4, data=[64, 100]),\n",
      "   midi.NoteOffEvent(tick=192, channel=4, data=[64, 64]),\n",
      "   midi.NoteOnEvent(tick=0, channel=4, data=[62, 100]),\n",
      "   midi.NoteOffEvent(tick=192, channel=4, data=[62, 64]),\n",
      "   midi.NoteOnEvent(tick=0, channel=4, data=[61, 100]),\n",
      "   midi.NoteOffEvent(tick=192, channel=4, data=[61, 64]),\n",
      "   midi.NoteOnEvent(tick=0, channel=4, data=[59, 100]),\n",
      "   midi.NoteOffEvent(tick=384, channel=4, data=[59, 64]),\n",
      "   midi.NoteOnEvent(tick=0, channel=4, data=[59, 100]),\n",
      "   midi.NoteOffEvent(tick=384, channel=4, data=[59, 64]),\n",
      "   midi.NoteOnEvent(tick=384, channel=4, data=[62, 100]),\n",
      "   midi.NoteOffEvent(tick=192, channel=4, data=[62, 64]),\n",
      "   midi.NoteOnEvent(tick=0, channel=4, data=[62, 100]),\n",
      "   midi.NoteOffEvent(tick=192, channel=4, data=[62, 64]),\n",
      "   midi.NoteOnEvent(tick=0, channel=4, data=[62, 100]),\n",
      "   midi.NoteOffEvent(tick=192, channel=4, data=[62, 64]),\n",
      "   midi.NoteOnEvent(tick=0, channel=4, data=[60, 100]),\n",
      "   midi.NoteOffEvent(tick=192, channel=4, data=[60, 64]),\n",
      "   midi.NoteOnEvent(tick=0, channel=4, data=[57, 100]),\n",
      "   midi.NoteOffEvent(tick=192, channel=4, data=[57, 64]),\n",
      "   midi.NoteOnEvent(tick=0, channel=4, data=[62, 100]),\n",
      "   midi.NoteOffEvent(tick=384, channel=4, data=[62, 64]),\n",
      "   midi.NoteOnEvent(tick=0, channel=4, data=[60, 100]),\n",
      "   midi.NoteOffEvent(tick=96, channel=4, data=[60, 64]),\n",
      "   midi.NoteOnEvent(tick=0, channel=4, data=[62, 100]),\n",
      "   midi.NoteOffEvent(tick=96, channel=4, data=[62, 64]),\n",
      "   midi.NoteOnEvent(tick=0, channel=4, data=[57, 100]),\n",
      "   midi.NoteOffEvent(tick=192, channel=4, data=[57, 64]),\n",
      "   midi.NoteOnEvent(tick=0, channel=4, data=[66, 100]),\n",
      "   midi.NoteOffEvent(tick=192, channel=4, data=[66, 64]),\n",
      "   midi.NoteOnEvent(tick=0, channel=4, data=[67, 100]),\n",
      "   midi.NoteOffEvent(tick=384, channel=4, data=[67, 64]),\n",
      "   midi.NoteOnEvent(tick=0, channel=4, data=[67, 100]),\n",
      "   midi.NoteOffEvent(tick=384, channel=4, data=[67, 64]),\n",
      "   midi.NoteOnEvent(tick=384, channel=4, data=[66, 100]),\n",
      "   midi.NoteOffEvent(tick=192, channel=4, data=[66, 64]),\n",
      "   midi.NoteOnEvent(tick=0, channel=4, data=[71, 100]),\n",
      "   midi.NoteOffEvent(tick=192, channel=4, data=[71, 64]),\n",
      "   midi.NoteOnEvent(tick=0, channel=4, data=[64, 100]),\n",
      "   midi.NoteOffEvent(tick=192, channel=4, data=[64, 64]),\n",
      "   midi.NoteOnEvent(tick=0, channel=4, data=[66, 100]),\n",
      "   midi.NoteOffEvent(tick=192, channel=4, data=[66, 64]),\n",
      "   midi.NoteOnEvent(tick=0, channel=4, data=[66, 100]),\n",
      "   midi.NoteOffEvent(tick=192, channel=4, data=[66, 64]),\n",
      "   midi.NoteOnEvent(tick=0, channel=4, data=[71, 100]),\n",
      "   midi.NoteOffEvent(tick=192, channel=4, data=[71, 64]),\n",
      "   midi.NoteOnEvent(tick=0, channel=4, data=[59, 100]),\n",
      "   midi.NoteOffEvent(tick=192, channel=4, data=[59, 64]),\n",
      "   midi.NoteOnEvent(tick=0, channel=4, data=[64, 100]),\n",
      "   midi.NoteOffEvent(tick=96, channel=4, data=[64, 64]),\n",
      "   midi.NoteOnEvent(tick=0, channel=4, data=[63, 100]),\n",
      "   midi.NoteOffEvent(tick=96, channel=4, data=[63, 64]),\n",
      "   midi.NoteOnEvent(tick=0, channel=4, data=[64, 100]),\n",
      "   midi.NoteOffEvent(tick=192, channel=4, data=[64, 64]),\n",
      "   midi.NoteOnEvent(tick=0, channel=4, data=[67, 100]),\n",
      "   midi.NoteOffEvent(tick=288, channel=4, data=[67, 64]),\n",
      "   midi.NoteOnEvent(tick=0, channel=4, data=[66, 100]),\n",
      "   midi.NoteOffEvent(tick=96, channel=4, data=[66, 64]),\n",
      "   midi.NoteOnEvent(tick=0, channel=4, data=[64, 100]),\n",
      "   midi.NoteOffEvent(tick=96, channel=4, data=[64, 64]),\n",
      "   midi.NoteOnEvent(tick=0, channel=4, data=[62, 100]),\n",
      "   midi.NoteOffEvent(tick=96, channel=4, data=[62, 64]),\n",
      "   midi.NoteOnEvent(tick=0, channel=4, data=[64, 100]),\n",
      "   midi.NoteOffEvent(tick=192, channel=4, data=[64, 64]),\n",
      "   midi.NoteOnEvent(tick=0, channel=4, data=[69, 100]),\n",
      "   midi.NoteOffEvent(tick=192, channel=4, data=[69, 64]),\n",
      "   midi.NoteOnEvent(tick=0, channel=4, data=[57, 100]),\n",
      "   midi.NoteOffEvent(tick=192, channel=4, data=[57, 64]),\n",
      "   midi.NoteOnEvent(tick=0, channel=4, data=[62, 100]),\n",
      "   midi.NoteOffEvent(tick=96, channel=4, data=[62, 64]),\n",
      "   midi.NoteOnEvent(tick=0, channel=4, data=[61, 100]),\n",
      "   midi.NoteOffEvent(tick=96, channel=4, data=[61, 64]),\n",
      "   midi.NoteOnEvent(tick=0, channel=4, data=[62, 100]),\n",
      "   midi.NoteOffEvent(tick=192, channel=4, data=[62, 64]),\n",
      "   midi.NoteOnEvent(tick=0, channel=4, data=[66, 100]),\n",
      "   midi.NoteOffEvent(tick=288, channel=4, data=[66, 64]),\n",
      "   midi.NoteOnEvent(tick=0, channel=4, data=[64, 100]),\n",
      "   midi.NoteOffEvent(tick=96, channel=4, data=[64, 64]),\n",
      "   midi.NoteOnEvent(tick=0, channel=4, data=[62, 100]),\n",
      "   midi.NoteOffEvent(tick=96, channel=4, data=[62, 64]),\n",
      "   midi.NoteOnEvent(tick=0, channel=4, data=[61, 100]),\n",
      "   midi.NoteOffEvent(tick=96, channel=4, data=[61, 64]),\n",
      "   midi.NoteOnEvent(tick=0, channel=4, data=[62, 100]),\n",
      "   midi.NoteOffEvent(tick=192, channel=4, data=[62, 64]),\n",
      "   midi.NoteOnEvent(tick=0, channel=4, data=[68, 100]),\n",
      "   midi.NoteOffEvent(tick=192, channel=4, data=[68, 64]),\n",
      "   midi.NoteOnEvent(tick=0, channel=4, data=[56, 100]),\n",
      "   midi.NoteOffEvent(tick=192, channel=4, data=[56, 64]),\n",
      "   midi.NoteOnEvent(tick=0, channel=4, data=[61, 100]),\n",
      "   midi.NoteOffEvent(tick=96, channel=4, data=[61, 64]),\n",
      "   midi.NoteOnEvent(tick=0, channel=4, data=[59, 100]),\n",
      "   midi.NoteOffEvent(tick=96, channel=4, data=[59, 64]),\n",
      "   midi.NoteOnEvent(tick=0, channel=4, data=[61, 100]),\n",
      "   midi.NoteOffEvent(tick=96, channel=4, data=[61, 64]),\n",
      "   midi.NoteOnEvent(tick=0, channel=4, data=[62, 100]),\n",
      "   midi.NoteOffEvent(tick=96, channel=4, data=[62, 64]),\n",
      "   midi.NoteOnEvent(tick=0, channel=4, data=[61, 100]),\n",
      "   midi.NoteOffEvent(tick=96, channel=4, data=[61, 64]),\n",
      "   midi.NoteOnEvent(tick=0, channel=4, data=[62, 100]),\n",
      "   midi.NoteOffEvent(tick=96, channel=4, data=[62, 64]),\n",
      "   midi.NoteOnEvent(tick=0, channel=4, data=[61, 100]),\n",
      "   midi.NoteOffEvent(tick=192, channel=4, data=[61, 64]),\n",
      "   midi.NoteOnEvent(tick=0, channel=4, data=[66, 100]),\n",
      "   midi.NoteOffEvent(tick=192, channel=4, data=[66, 64]),\n",
      "   midi.NoteOnEvent(tick=576, channel=4, data=[66, 100]),\n",
      "   midi.NoteOffEvent(tick=192, channel=4, data=[66, 64]),\n",
      "   midi.NoteOnEvent(tick=0, channel=4, data=[65, 100]),\n",
      "   midi.NoteOffEvent(tick=192, channel=4, data=[65, 64]),\n",
      "   midi.NoteOnEvent(tick=0, channel=4, data=[66, 100]),\n",
      "   midi.NoteOffEvent(tick=192, channel=4, data=[66, 64]),\n",
      "   midi.NoteOnEvent(tick=0, channel=4, data=[61, 100]),\n",
      "   midi.NoteOffEvent(tick=512, channel=4, data=[61, 64]),\n",
      "   midi.NoteOnEvent(tick=64, channel=4, data=[62, 100]),\n",
      "   midi.NoteOffEvent(tick=192, channel=4, data=[62, 64]),\n",
      "   midi.NoteOnEvent(tick=0, channel=4, data=[61, 100]),\n",
      "   midi.NoteOffEvent(tick=384, channel=4, data=[61, 64]),\n",
      "   midi.NoteOnEvent(tick=0, channel=4, data=[61, 100]),\n",
      "   midi.NoteOffEvent(tick=192, channel=4, data=[61, 64]),\n",
      "   midi.NoteOnEvent(tick=0, channel=4, data=[59, 100]),\n",
      "   midi.NoteOffEvent(tick=192, channel=4, data=[59, 64]),\n",
      "   midi.NoteOnEvent(tick=0, channel=4, data=[57, 100]),\n",
      "   midi.NoteOffEvent(tick=384, channel=4, data=[57, 64]),\n",
      "   midi.NoteOnEvent(tick=384, channel=4, data=[62, 100]),\n",
      "   midi.NoteOffEvent(tick=192, channel=4, data=[62, 64]),\n",
      "   midi.NoteOnEvent(tick=0, channel=4, data=[74, 100]),\n",
      "   midi.NoteOffEvent(tick=192, channel=4, data=[74, 64]),\n",
      "   midi.NoteOnEvent(tick=0, channel=4, data=[73, 100]),\n",
      "   midi.NoteOffEvent(tick=192, channel=4, data=[73, 64]),\n",
      "   midi.NoteOnEvent(tick=0, channel=4, data=[69, 100]),\n",
      "   midi.NoteOffEvent(tick=192, channel=4, data=[69, 64]),\n",
      "   midi.NoteOnEvent(tick=0, channel=4, data=[74, 100]),\n",
      "   midi.NoteOffEvent(tick=192, channel=4, data=[74, 64]),\n",
      "   midi.NoteOnEvent(tick=0, channel=4, data=[73, 100]),\n",
      "   midi.NoteOffEvent(tick=96, channel=4, data=[73, 64]),\n",
      "   midi.NoteOnEvent(tick=0, channel=4, data=[71, 100]),\n",
      "   midi.NoteOffEvent(tick=96, channel=4, data=[71, 64]),\n",
      "   midi.NoteOnEvent(tick=0, channel=4, data=[69, 100]),\n",
      "   midi.NoteOffEvent(tick=96, channel=4, data=[69, 64]),\n",
      "   midi.NoteOnEvent(tick=0, channel=4, data=[67, 100]),\n",
      "   midi.NoteOffEvent(tick=96, channel=4, data=[67, 64]),\n",
      "   midi.NoteOnEvent(tick=0, channel=4, data=[66, 100]),\n",
      "   midi.NoteOffEvent(tick=96, channel=4, data=[66, 64]),\n",
      "   midi.NoteOnEvent(tick=0, channel=4, data=[64, 100]),\n",
      "   midi.NoteOffEvent(tick=96, channel=4, data=[64, 64]),\n",
      "   midi.NoteOnEvent(tick=0, channel=4, data=[62, 100]),\n",
      "   midi.NoteOffEvent(tick=192, channel=4, data=[62, 64]),\n",
      "   midi.NoteOnEvent(tick=0, channel=4, data=[62, 100]),\n",
      "   midi.NoteOffEvent(tick=192, channel=4, data=[62, 64]),\n",
      "   midi.NoteOnEvent(tick=0, channel=4, data=[67, 100]),\n",
      "   midi.NoteOffEvent(tick=192, channel=4, data=[67, 64]),\n",
      "   midi.NoteOnEvent(tick=0, channel=4, data=[64, 100]),\n",
      "   midi.NoteOffEvent(tick=192, channel=4, data=[64, 64]),\n",
      "   midi.NoteOnEvent(tick=0, channel=4, data=[66, 100]),\n",
      "   midi.NoteOffEvent(tick=192, channel=4, data=[66, 64]),\n",
      "   midi.NoteOnEvent(tick=0, channel=4, data=[57, 100]),\n",
      "   midi.NoteOffEvent(tick=192, channel=4, data=[57, 64]),\n",
      "   midi.NoteOnEvent(tick=0, channel=4, data=[62, 100]),\n",
      "   midi.NoteOffEvent(tick=192, channel=4, data=[62, 64]),\n",
      "   midi.NoteOnEvent(tick=0, channel=4, data=[66, 100]),\n",
      "   midi.NoteOffEvent(tick=192, channel=4, data=[66, 64]),\n",
      "   midi.NoteOnEvent(tick=0, channel=4, data=[66, 100]),\n",
      "   midi.NoteOffEvent(tick=384, channel=4, data=[66, 64]),\n",
      "   midi.NoteOnEvent(tick=0, channel=4, data=[62, 100]),\n",
      "   midi.NoteOffEvent(tick=384, channel=4, data=[62, 64]),\n",
      "   midi.NoteOnEvent(tick=0, channel=4, data=[57, 100]),\n",
      "   midi.NoteOffEvent(tick=192, channel=4, data=[57, 64]),\n",
      "   midi.NoteOnEvent(tick=0, channel=4, data=[57, 100]),\n",
      "   midi.NoteOffEvent(tick=192, channel=4, data=[57, 64]),\n",
      "   midi.NoteOnEvent(tick=0, channel=4, data=[62, 100]),\n",
      "   midi.NoteOffEvent(tick=1344, channel=4, data=[62, 64]),\n",
      "   midi.NoteOnEvent(tick=0, channel=4, data=[60, 100]),\n",
      "   midi.NoteOffEvent(tick=192, channel=4, data=[60, 64]),\n",
      "   midi.NoteOnEvent(tick=0, channel=4, data=[62, 100]),\n",
      "   midi.NoteOffEvent(tick=192, channel=4, data=[62, 64]),\n",
      "   midi.NoteOnEvent(tick=0, channel=4, data=[67, 100]),\n",
      "   midi.NoteOffEvent(tick=192, channel=4, data=[67, 64]),\n",
      "   midi.NoteOnEvent(tick=0, channel=4, data=[61, 100]),\n",
      "   midi.NoteOffEvent(tick=96, channel=4, data=[61, 64]),\n",
      "   midi.NoteOnEvent(tick=0, channel=4, data=[62, 100]),\n",
      "   midi.NoteOffEvent(tick=96, channel=4, data=[62, 64]),\n",
      "   midi.NoteOnEvent(tick=0, channel=4, data=[64, 100]),\n",
      "   midi.NoteOffEvent(tick=96, channel=4, data=[64, 64]),\n",
      "   midi.NoteOnEvent(tick=96, channel=4, data=[64, 100]),\n",
      "   midi.NoteOffEvent(tick=96, channel=4, data=[64, 64]),\n",
      "   midi.NoteOnEvent(tick=96, channel=4, data=[61, 100]),\n",
      "   midi.NoteOffEvent(tick=96, channel=4, data=[61, 64]),\n",
      "   midi.NoteOnEvent(tick=96, channel=4, data=[57, 100]),\n",
      "   midi.NoteOffEvent(tick=512, channel=4, data=[57, 64]),\n",
      "   midi.NoteOnEvent(tick=64, channel=4, data=[57, 100]),\n",
      "   midi.NoteOffEvent(tick=192, channel=4, data=[57, 64]),\n",
      "   midi.NoteOnEvent(tick=0, channel=4, data=[57, 100]),\n",
      "   midi.NoteOffEvent(tick=192, channel=4, data=[57, 64]),\n",
      "   midi.NoteOnEvent(tick=0, channel=4, data=[62, 100]),\n",
      "   midi.NoteOffEvent(tick=192, channel=4, data=[62, 64]),\n",
      "   midi.NoteOnEvent(tick=0, channel=4, data=[62, 100]),\n",
      "   midi.NoteOffEvent(tick=192, channel=4, data=[62, 64]),\n",
      "   midi.NoteOnEvent(tick=0, channel=4, data=[61, 100]),\n",
      "   midi.NoteOffEvent(tick=192, channel=4, data=[61, 64]),\n",
      "   midi.NoteOnEvent(tick=0, channel=4, data=[62, 100]),\n",
      "   midi.NoteOffEvent(tick=384, channel=4, data=[62, 64]),\n",
      "   midi.NoteOnEvent(tick=0, channel=4, data=[57, 100]),\n",
      "   midi.NoteOffEvent(tick=384, channel=4, data=[57, 64]),\n",
      "   midi.NoteOnEvent(tick=0, channel=4, data=[62, 100]),\n",
      "   midi.NoteOffEvent(tick=192, channel=4, data=[62, 64]),\n",
      "   midi.NoteOnEvent(tick=0, channel=4, data=[74, 100]),\n",
      "   midi.NoteOffEvent(tick=192, channel=4, data=[74, 64]),\n",
      "   midi.NoteOnEvent(tick=0, channel=4, data=[73, 100]),\n",
      "   midi.NoteOffEvent(tick=192, channel=4, data=[73, 64]),\n",
      "   midi.NoteOnEvent(tick=0, channel=4, data=[69, 100]),\n",
      "   midi.NoteOffEvent(tick=192, channel=4, data=[69, 64]),\n",
      "   midi.NoteOnEvent(tick=0, channel=4, data=[74, 100]),\n",
      "   midi.NoteOffEvent(tick=192, channel=4, data=[74, 64]),\n",
      "   midi.NoteOnEvent(tick=0, channel=4, data=[73, 100]),\n",
      "   midi.NoteOffEvent(tick=96, channel=4, data=[73, 64]),\n",
      "   midi.NoteOnEvent(tick=0, channel=4, data=[71, 100]),\n",
      "   midi.NoteOffEvent(tick=96, channel=4, data=[71, 64]),\n",
      "   midi.NoteOnEvent(tick=0, channel=4, data=[69, 100]),\n",
      "   midi.NoteOffEvent(tick=96, channel=4, data=[69, 64]),\n",
      "   midi.NoteOnEvent(tick=0, channel=4, data=[67, 100]),\n",
      "   midi.NoteOffEvent(tick=96, channel=4, data=[67, 64]),\n",
      "   midi.NoteOnEvent(tick=0, channel=4, data=[66, 100]),\n",
      "   midi.NoteOffEvent(tick=96, channel=4, data=[66, 64]),\n",
      "   midi.NoteOnEvent(tick=0, channel=4, data=[64, 100]),\n",
      "   midi.NoteOffEvent(tick=96, channel=4, data=[64, 64]),\n",
      "   midi.NoteOnEvent(tick=0, channel=4, data=[62, 100]),\n",
      "   midi.NoteOffEvent(tick=192, channel=4, data=[62, 64]),\n",
      "   midi.NoteOnEvent(tick=672, channel=4, data=[74, 100]),\n",
      "   midi.NoteOffEvent(tick=96, channel=4, data=[74, 64]),\n",
      "   midi.NoteOnEvent(tick=0, channel=4, data=[73, 100]),\n",
      "   midi.NoteOffEvent(tick=96, channel=4, data=[73, 64]),\n",
      "   midi.NoteOnEvent(tick=0, channel=4, data=[71, 100]),\n",
      "   midi.NoteOffEvent(tick=96, channel=4, data=[71, 64]),\n",
      "   midi.NoteOnEvent(tick=0, channel=4, data=[69, 100]),\n",
      "   midi.NoteOffEvent(tick=96, channel=4, data=[69, 64]),\n",
      "   midi.NoteOnEvent(tick=0, channel=4, data=[67, 100]),\n",
      "   midi.NoteOffEvent(tick=96, channel=4, data=[67, 64]),\n",
      "   midi.NoteOnEvent(tick=0, channel=4, data=[66, 100]),\n",
      "   midi.NoteOffEvent(tick=96, channel=4, data=[66, 64]),\n",
      "   midi.NoteOnEvent(tick=0, channel=4, data=[64, 100]),\n",
      "   midi.NoteOffEvent(tick=96, channel=4, data=[64, 64]),\n",
      "   midi.NoteOnEvent(tick=0, channel=4, data=[62, 100]),\n",
      "   midi.NoteOffEvent(tick=192, channel=4, data=[62, 64]),\n",
      "   midi.NoteOnEvent(tick=0, channel=4, data=[57, 100]),\n",
      "   midi.NoteOffEvent(tick=192, channel=4, data=[57, 64]),\n",
      "   midi.NoteOnEvent(tick=0, channel=4, data=[62, 100]),\n",
      "   midi.NoteOffEvent(tick=480, channel=4, data=[62, 64]),\n",
      "   midi.NoteOnEvent(tick=0, channel=4, data=[61, 100]),\n",
      "   midi.NoteOffEvent(tick=96, channel=4, data=[61, 64]),\n",
      "   midi.NoteOnEvent(tick=0, channel=4, data=[59, 100]),\n",
      "   midi.NoteOffEvent(tick=96, channel=4, data=[59, 64]),\n",
      "   midi.NoteOnEvent(tick=96, channel=4, data=[59, 100]),\n",
      "   midi.NoteOffEvent(tick=96, channel=4, data=[59, 64]),\n",
      "   midi.NoteOnEvent(tick=96, channel=4, data=[59, 100]),\n",
      "   midi.NoteOffEvent(tick=256, channel=4, data=[59, 64]),\n",
      "   midi.NoteOnEvent(tick=32, channel=4, data=[57, 100]),\n",
      "   midi.NoteOffEvent(tick=96, channel=4, data=[57, 64]),\n",
      "   midi.NoteOnEvent(tick=0, channel=4, data=[55, 100]),\n",
      "   midi.NoteOffEvent(tick=96, channel=4, data=[55, 64]),\n",
      "   midi.NoteOnEvent(tick=0, channel=4, data=[54, 100]),\n",
      "   midi.NoteOffEvent(tick=96, channel=4, data=[54, 64]),\n",
      "   midi.NoteOnEvent(tick=0, channel=4, data=[55, 100]),\n",
      "   midi.NoteOffEvent(tick=192, channel=4, data=[55, 64]),\n",
      "   midi.NoteOnEvent(tick=0, channel=4, data=[59, 100]),\n",
      "   midi.NoteOffEvent(tick=192, channel=4, data=[59, 64]),\n",
      "   midi.NoteOnEvent(tick=0, channel=4, data=[57, 100]),\n",
      "   midi.NoteOffEvent(tick=192, channel=4, data=[57, 64]),\n",
      "   midi.NoteOnEvent(tick=0, channel=4, data=[59, 100]),\n",
      "   midi.NoteOffEvent(tick=192, channel=4, data=[59, 64]),\n",
      "   midi.NoteOnEvent(tick=0, channel=4, data=[61, 100]),\n",
      "   midi.NoteOffEvent(tick=384, channel=4, data=[61, 64]),\n",
      "   midi.NoteOnEvent(tick=192, channel=4, data=[57, 100]),\n",
      "   midi.NoteOffEvent(tick=192, channel=4, data=[57, 64]),\n",
      "   midi.NoteOnEvent(tick=0, channel=4, data=[62, 100]),\n",
      "   midi.NoteOffEvent(tick=192, channel=4, data=[62, 64]),\n",
      "   midi.NoteOnEvent(tick=0, channel=4, data=[66, 100]),\n",
      "   midi.NoteOffEvent(tick=192, channel=4, data=[66, 64]),\n",
      "   midi.NoteOnEvent(tick=192, channel=4, data=[66, 100]),\n",
      "   midi.NoteOffEvent(tick=192, channel=4, data=[66, 64]),\n",
      "   midi.NoteOnEvent(tick=0, channel=4, data=[62, 100]),\n",
      "   midi.NoteOffEvent(tick=192, channel=4, data=[62, 64]),\n",
      "   midi.NoteOnEvent(tick=0, channel=4, data=[57, 100]),\n",
      "   midi.NoteOffEvent(tick=192, channel=4, data=[57, 64]),\n",
      "   midi.NoteOnEvent(tick=192, channel=4, data=[62, 100]),\n",
      "   midi.NoteOffEvent(tick=192, channel=4, data=[62, 64]),\n",
      "   midi.NoteOnEvent(tick=0, channel=4, data=[66, 100]),\n",
      "   midi.NoteOffEvent(tick=192, channel=4, data=[66, 64]),\n",
      "   midi.NoteOnEvent(tick=0, channel=4, data=[69, 100]),\n",
      "   midi.NoteOffEvent(tick=192, channel=4, data=[69, 64]),\n",
      "   midi.NoteOnEvent(tick=192, channel=4, data=[55, 100]),\n",
      "   midi.NoteOffEvent(tick=192, channel=4, data=[55, 64]),\n",
      "   midi.NoteOnEvent(tick=0, channel=4, data=[54, 100]),\n",
      "   midi.NoteOffEvent(tick=192, channel=4, data=[54, 64]),\n",
      "   midi.NoteOnEvent(tick=0, channel=4, data=[55, 100]),\n",
      "   midi.NoteOffEvent(tick=96, channel=4, data=[55, 64]),\n",
      "   midi.NoteOnEvent(tick=0, channel=4, data=[57, 100]),\n",
      "   midi.NoteOffEvent(tick=96, channel=4, data=[57, 64]),\n",
      "   midi.NoteOnEvent(tick=0, channel=4, data=[55, 100]),\n",
      "   midi.NoteOffEvent(tick=192, channel=4, data=[55, 64]),\n",
      "   midi.NoteOnEvent(tick=0, channel=4, data=[67, 100]),\n",
      "   midi.NoteOffEvent(tick=192, channel=4, data=[67, 64]),\n",
      "   midi.NoteOnEvent(tick=0, channel=4, data=[64, 100]),\n",
      "   midi.NoteOffEvent(tick=192, channel=4, data=[64, 64]),\n",
      "   midi.NoteOnEvent(tick=0, channel=4, data=[59, 100]),\n",
      "   midi.NoteOffEvent(tick=192, channel=4, data=[59, 64]),\n",
      "   midi.NoteOnEvent(tick=0, channel=4, data=[61, 100]),\n",
      "   midi.NoteOffEvent(tick=96, channel=4, data=[61, 64]),\n",
      "   midi.NoteOnEvent(tick=0, channel=4, data=[62, 100]),\n",
      "   midi.NoteOffEvent(tick=96, channel=4, data=[62, 64]),\n",
      "   midi.NoteOnEvent(tick=0, channel=4, data=[64, 100]),\n",
      "   midi.NoteOffEvent(tick=384, channel=4, data=[64, 64]),\n",
      "   midi.NoteOnEvent(tick=0, channel=4, data=[64, 100]),\n",
      "   midi.NoteOffEvent(tick=384, channel=4, data=[64, 64]),\n",
      "   midi.NoteOnEvent(tick=0, channel=4, data=[66, 100]),\n",
      "   midi.NoteOffEvent(tick=192, channel=4, data=[66, 64]),\n",
      "   midi.NoteOnEvent(tick=0, channel=4, data=[62, 100]),\n",
      "   midi.NoteOffEvent(tick=192, channel=4, data=[62, 64]),\n",
      "   midi.NoteOnEvent(tick=0, channel=4, data=[57, 100]),\n",
      "   midi.NoteOffEvent(tick=192, channel=4, data=[57, 64]),\n",
      "   midi.NoteOnEvent(tick=0, channel=4, data=[59, 100]),\n",
      "   midi.NoteOffEvent(tick=192, channel=4, data=[59, 64]),\n",
      "   midi.NoteOnEvent(tick=0, channel=4, data=[62, 100]),\n",
      "   midi.NoteOffEvent(tick=192, channel=4, data=[62, 64]),\n",
      "   midi.NoteOnEvent(tick=0, channel=4, data=[66, 100]),\n",
      "   midi.NoteOffEvent(tick=192, channel=4, data=[66, 64]),\n",
      "   midi.NoteOnEvent(tick=0, channel=4, data=[62, 100]),\n",
      "   midi.NoteOffEvent(tick=384, channel=4, data=[62, 64]),\n",
      "   midi.NoteOnEvent(tick=0, channel=4, data=[59, 100]),\n",
      "   midi.NoteOffEvent(tick=192, channel=4, data=[59, 64]),\n",
      "   midi.NoteOnEvent(tick=0, channel=4, data=[64, 100]),\n",
      "   midi.NoteOffEvent(tick=192, channel=4, data=[64, 64]),\n",
      "   midi.NoteOnEvent(tick=0, channel=4, data=[67, 100]),\n",
      "   midi.NoteOffEvent(tick=192, channel=4, data=[67, 64]),\n",
      "   midi.NoteOnEvent(tick=0, channel=4, data=[64, 100]),\n",
      "   midi.NoteOffEvent(tick=192, channel=4, data=[64, 64]),\n",
      "   midi.NoteOnEvent(tick=0, channel=4, data=[61, 100]),\n",
      "   midi.NoteOffEvent(tick=192, channel=4, data=[61, 64]),\n",
      "   midi.NoteOnEvent(tick=0, channel=4, data=[57, 100]),\n",
      "   midi.NoteOffEvent(tick=576, channel=4, data=[57, 64]),\n",
      "   midi.NoteOnEvent(tick=0, channel=4, data=[57, 100]),\n",
      "   midi.NoteOffEvent(tick=192, channel=4, data=[57, 64]),\n",
      "   midi.NoteOnEvent(tick=0, channel=4, data=[69, 100]),\n",
      "   midi.NoteOffEvent(tick=192, channel=4, data=[69, 64]),\n",
      "   midi.NoteOnEvent(tick=0, channel=4, data=[64, 100]),\n",
      "   midi.NoteOffEvent(tick=192, channel=4, data=[64, 64]),\n",
      "   midi.NoteOnEvent(tick=0, channel=4, data=[66, 100]),\n",
      "   midi.NoteOffEvent(tick=384, channel=4, data=[66, 64]),\n",
      "   midi.NoteOnEvent(tick=1728, channel=4, data=[61, 100]),\n",
      "   midi.NoteOffEvent(tick=192, channel=4, data=[61, 64]),\n",
      "   midi.NoteOnEvent(tick=0, channel=4, data=[62, 100]),\n",
      "   midi.NoteOffEvent(tick=192, channel=4, data=[62, 64]),\n",
      "   midi.NoteOnEvent(tick=0, channel=4, data=[59, 100]),\n",
      "   midi.NoteOffEvent(tick=192, channel=4, data=[59, 64]),\n",
      "   midi.NoteOnEvent(tick=0, channel=4, data=[64, 100]),\n",
      "   midi.NoteOffEvent(tick=192, channel=4, data=[64, 64]),\n",
      "   midi.NoteOnEvent(tick=0, channel=4, data=[69, 100]),\n",
      "   midi.NoteOffEvent(tick=192, channel=4, data=[69, 64]),\n",
      "   midi.NoteOnEvent(tick=0, channel=4, data=[69, 100]),\n",
      "   midi.NoteOffEvent(tick=192, channel=4, data=[69, 64]),\n",
      "   midi.NoteOnEvent(tick=0, channel=4, data=[67, 100]),\n",
      "   midi.NoteOffEvent(tick=192, channel=4, data=[67, 64]),\n",
      "   midi.NoteOnEvent(tick=0, channel=4, data=[69, 100]),\n",
      "   midi.NoteOffEvent(tick=192, channel=4, data=[69, 64]),\n",
      "   midi.NoteOnEvent(tick=1536, channel=4, data=[66, 100]),\n",
      "   midi.NoteOffEvent(tick=192, channel=4, data=[66, 64]),\n",
      "   midi.NoteOnEvent(tick=0, channel=4, data=[67, 100]),\n",
      "   midi.NoteOffEvent(tick=192, channel=4, data=[67, 64]),\n",
      "   midi.NoteOnEvent(tick=0, channel=4, data=[64, 100]),\n",
      "   midi.NoteOffEvent(tick=192, channel=4, data=[64, 64]),\n",
      "   midi.NoteOnEvent(tick=0, channel=4, data=[69, 100]),\n",
      "   midi.NoteOffEvent(tick=192, channel=4, data=[69, 64]),\n",
      "   midi.NoteOnEvent(tick=0, channel=4, data=[74, 100]),\n",
      "   midi.NoteOffEvent(tick=192, channel=4, data=[74, 64]),\n",
      "   midi.NoteOnEvent(tick=0, channel=4, data=[74, 100]),\n",
      "   midi.NoteOffEvent(tick=192, channel=4, data=[74, 64]),\n",
      "   midi.NoteOnEvent(tick=0, channel=4, data=[72, 100]),\n",
      "   midi.NoteOffEvent(tick=192, channel=4, data=[72, 64]),\n",
      "   midi.NoteOnEvent(tick=0, channel=4, data=[74, 100]),\n",
      "   midi.NoteOffEvent(tick=192, channel=4, data=[74, 64]),\n",
      "   midi.NoteOnEvent(tick=1152, channel=4, data=[76, 100]),\n",
      "   midi.NoteOffEvent(tick=192, channel=4, data=[76, 64]),\n",
      "   midi.NoteOnEvent(tick=0, channel=4, data=[73, 100]),\n",
      "   midi.NoteOffEvent(tick=192, channel=4, data=[73, 64]),\n",
      "   midi.NoteOnEvent(tick=0, channel=4, data=[69, 100]),\n",
      "   midi.NoteOffEvent(tick=192, channel=4, data=[69, 64]),\n",
      "   midi.NoteOnEvent(tick=960, channel=4, data=[67, 100]),\n",
      "   midi.NoteOffEvent(tick=192, channel=4, data=[67, 64]),\n",
      "   midi.NoteOnEvent(tick=0, channel=4, data=[64, 100]),\n",
      "   midi.NoteOffEvent(tick=192, channel=4, data=[64, 64]),\n",
      "   midi.NoteOnEvent(tick=0, channel=4, data=[61, 100]),\n",
      "   midi.NoteOffEvent(tick=192, channel=4, data=[61, 64]),\n",
      "   midi.NoteOnEvent(tick=0, channel=4, data=[69, 100]),\n",
      "   midi.NoteOffEvent(tick=96, channel=4, data=[69, 64]),\n",
      "   midi.NoteOnEvent(tick=0, channel=4, data=[67, 100]),\n",
      "   midi.NoteOffEvent(tick=96, channel=4, data=[67, 64]),\n",
      "   midi.NoteOnEvent(tick=0, channel=4, data=[66, 100]),\n",
      "   midi.NoteOffEvent(tick=96, channel=4, data=[66, 64]),\n",
      "   midi.NoteOnEvent(tick=0, channel=4, data=[64, 100]),\n",
      "   midi.NoteOffEvent(tick=96, channel=4, data=[64, 64]),\n",
      "   midi.NoteOnEvent(tick=0, channel=4, data=[62, 100]),\n",
      "   midi.NoteOffEvent(tick=192, channel=4, data=[62, 64]),\n",
      "   midi.NoteOnEvent(tick=0, channel=4, data=[67, 100]),\n",
      "   midi.NoteOffEvent(tick=192, channel=4, data=[67, 64]),\n",
      "   midi.NoteOnEvent(tick=0, channel=4, data=[69, 100]),\n",
      "   midi.NoteOffEvent(tick=96, channel=4, data=[69, 64]),\n",
      "   midi.NoteOnEvent(tick=0, channel=4, data=[71, 100]),\n",
      "   midi.NoteOffEvent(tick=96, channel=4, data=[71, 64]),\n",
      "   midi.NoteOnEvent(tick=0, channel=4, data=[69, 100]),\n",
      "   midi.NoteOffEvent(tick=96, channel=4, data=[69, 64]),\n",
      "   midi.NoteOnEvent(tick=0, channel=4, data=[67, 100]),\n",
      "   midi.NoteOffEvent(tick=96, channel=4, data=[67, 64]),\n",
      "   midi.NoteOnEvent(tick=0, channel=4, data=[66, 100]),\n",
      "   midi.NoteOffEvent(tick=192, channel=4, data=[66, 64]),\n",
      "   midi.NoteOnEvent(tick=0, channel=4, data=[66, 100]),\n",
      "   midi.NoteOffEvent(tick=192, channel=4, data=[66, 64]),\n",
      "   midi.NoteOnEvent(tick=0, channel=4, data=[67, 100]),\n",
      "   midi.NoteOffEvent(tick=384, channel=4, data=[67, 64]),\n",
      "   midi.NoteOnEvent(tick=0, channel=4, data=[64, 100]),\n",
      "   midi.NoteOffEvent(tick=384, channel=4, data=[64, 64]),\n",
      "   midi.NoteOnEvent(tick=0, channel=4, data=[62, 100]),\n",
      "   midi.NoteOffEvent(tick=96, channel=4, data=[62, 64]),\n",
      "   midi.NoteOnEvent(tick=0, channel=4, data=[74, 100]),\n",
      "   midi.NoteOffEvent(tick=96, channel=4, data=[74, 64]),\n",
      "   midi.NoteOnEvent(tick=0, channel=4, data=[73, 100]),\n",
      "   midi.NoteOffEvent(tick=96, channel=4, data=[73, 64]),\n",
      "   midi.NoteOnEvent(tick=0, channel=4, data=[71, 100]),\n",
      "   midi.NoteOffEvent(tick=96, channel=4, data=[71, 64]),\n",
      "   midi.NoteOnEvent(tick=0, channel=4, data=[69, 100]),\n",
      "   midi.NoteOffEvent(tick=96, channel=4, data=[69, 64]),\n",
      "   midi.NoteOnEvent(tick=0, channel=4, data=[67, 100]),\n",
      "   midi.NoteOffEvent(tick=96, channel=4, data=[67, 64]),\n",
      "   midi.NoteOnEvent(tick=0, channel=4, data=[66, 100]),\n",
      "   midi.NoteOffEvent(tick=96, channel=4, data=[66, 64]),\n",
      "   midi.NoteOnEvent(tick=0, channel=4, data=[64, 100]),\n",
      "   midi.NoteOffEvent(tick=96, channel=4, data=[64, 64]),\n",
      "   midi.NoteOnEvent(tick=0, channel=4, data=[62, 100]),\n",
      "   midi.NoteOffEvent(tick=192, channel=4, data=[62, 64]),\n",
      "   midi.NoteOnEvent(tick=0, channel=4, data=[74, 100]),\n",
      "   midi.NoteOffEvent(tick=192, channel=4, data=[74, 64]),\n",
      "   midi.NoteOnEvent(tick=0, channel=4, data=[73, 100]),\n",
      "   midi.NoteOffEvent(tick=192, channel=4, data=[73, 64]),\n",
      "   midi.NoteOnEvent(tick=0, channel=4, data=[69, 100]),\n",
      "   midi.NoteOffEvent(tick=192, channel=4, data=[69, 64]),\n",
      "   midi.NoteOnEvent(tick=0, channel=4, data=[74, 100]),\n",
      "   midi.NoteOffEvent(tick=192, channel=4, data=[74, 64]),\n",
      "   midi.NoteOnEvent(tick=0, channel=4, data=[73, 100]),\n",
      "   midi.NoteOffEvent(tick=96, channel=4, data=[73, 64]),\n",
      "   midi.NoteOnEvent(tick=0, channel=4, data=[71, 100]),\n",
      "   midi.NoteOffEvent(tick=96, channel=4, data=[71, 64]),\n",
      "   midi.NoteOnEvent(tick=0, channel=4, data=[69, 100]),\n",
      "   midi.NoteOffEvent(tick=96, channel=4, data=[69, 64]),\n",
      "   midi.NoteOnEvent(tick=0, channel=4, data=[67, 100]),\n",
      "   midi.NoteOffEvent(tick=96, channel=4, data=[67, 64]),\n",
      "   midi.NoteOnEvent(tick=0, channel=4, data=[66, 100]),\n",
      "   midi.NoteOffEvent(tick=96, channel=4, data=[66, 64]),\n",
      "   midi.NoteOnEvent(tick=0, channel=4, data=[64, 100]),\n",
      "   midi.NoteOffEvent(tick=96, channel=4, data=[64, 64]),\n",
      "   midi.NoteOnEvent(tick=0, channel=4, data=[62, 100]),\n",
      "   midi.NoteOffEvent(tick=192, channel=4, data=[62, 64]),\n",
      "   midi.NoteOnEvent(tick=0, channel=4, data=[62, 100]),\n",
      "   midi.NoteOffEvent(tick=192, channel=4, data=[62, 64]),\n",
      "   midi.NoteOnEvent(tick=0, channel=4, data=[67, 100]),\n",
      "   midi.NoteOffEvent(tick=192, channel=4, data=[67, 64]),\n",
      "   midi.NoteOnEvent(tick=0, channel=4, data=[64, 100]),\n",
      "   midi.NoteOffEvent(tick=192, channel=4, data=[64, 64]),\n",
      "   midi.NoteOnEvent(tick=0, channel=4, data=[66, 100]),\n",
      "   midi.NoteOffEvent(tick=96, channel=4, data=[66, 64]),\n",
      "   midi.NoteOnEvent(tick=0, channel=4, data=[74, 100]),\n",
      "   midi.NoteOffEvent(tick=96, channel=4, data=[74, 64]),\n",
      "   midi.NoteOnEvent(tick=0, channel=4, data=[73, 100]),\n",
      "   midi.NoteOffEvent(tick=96, channel=4, data=[73, 64]),\n",
      "   midi.NoteOnEvent(tick=0, channel=4, data=[71, 100]),\n",
      "   midi.NoteOffEvent(tick=96, channel=4, data=[71, 64]),\n",
      "   midi.NoteOnEvent(tick=0, channel=4, data=[69, 100]),\n",
      "   midi.NoteOffEvent(tick=96, channel=4, data=[69, 64]),\n",
      "   midi.NoteOnEvent(tick=0, channel=4, data=[67, 100]),\n",
      "   midi.NoteOffEvent(tick=96, channel=4, data=[67, 64]),\n",
      "   midi.NoteOnEvent(tick=0, channel=4, data=[66, 100]),\n",
      "   midi.NoteOffEvent(tick=96, channel=4, data=[66, 64]),\n",
      "   midi.NoteOnEvent(tick=0, channel=4, data=[64, 100]),\n",
      "   midi.NoteOffEvent(tick=96, channel=4, data=[64, 64]),\n",
      "   midi.NoteOnEvent(tick=0, channel=4, data=[62, 100]),\n",
      "   midi.NoteOffEvent(tick=192, channel=4, data=[62, 64]),\n",
      "   midi.NoteOnEvent(tick=0, channel=4, data=[74, 100]),\n",
      "   midi.NoteOffEvent(tick=192, channel=4, data=[74, 64]),\n",
      "   midi.NoteOnEvent(tick=0, channel=4, data=[73, 100]),\n",
      "   midi.NoteOffEvent(tick=192, channel=4, data=[73, 64]),\n",
      "   midi.NoteOnEvent(tick=0, channel=4, data=[69, 100]),\n",
      "   midi.NoteOffEvent(tick=192, channel=4, data=[69, 64]),\n",
      "   midi.NoteOnEvent(tick=0, channel=4, data=[74, 100]),\n",
      "   midi.NoteOffEvent(tick=192, channel=4, data=[74, 64]),\n",
      "   midi.NoteOnEvent(tick=0, channel=4, data=[73, 100]),\n",
      "   midi.NoteOffEvent(tick=96, channel=4, data=[73, 64]),\n",
      "   midi.NoteOnEvent(tick=0, channel=4, data=[71, 100]),\n",
      "   midi.NoteOffEvent(tick=96, channel=4, data=[71, 64]),\n",
      "   midi.NoteOnEvent(tick=0, channel=4, data=[69, 100]),\n",
      "   midi.NoteOffEvent(tick=96, channel=4, data=[69, 64]),\n",
      "   midi.NoteOnEvent(tick=0, channel=4, data=[67, 100]),\n",
      "   midi.NoteOffEvent(tick=96, channel=4, data=[67, 64]),\n",
      "   midi.NoteOnEvent(tick=0, channel=4, data=[66, 100]),\n",
      "   midi.NoteOffEvent(tick=96, channel=4, data=[66, 64]),\n",
      "   midi.NoteOnEvent(tick=0, channel=4, data=[64, 100]),\n",
      "   midi.NoteOffEvent(tick=96, channel=4, data=[64, 64]),\n",
      "   midi.NoteOnEvent(tick=0, channel=4, data=[62, 100]),\n",
      "   midi.NoteOffEvent(tick=192, channel=4, data=[62, 64]),\n",
      "   midi.NoteOnEvent(tick=0, channel=4, data=[62, 100]),\n",
      "   midi.NoteOffEvent(tick=192, channel=4, data=[62, 64]),\n",
      "   midi.NoteOnEvent(tick=0, channel=4, data=[67, 100]),\n",
      "   midi.NoteOffEvent(tick=192, channel=4, data=[67, 64]),\n",
      "   midi.NoteOnEvent(tick=0, channel=4, data=[64, 100]),\n",
      "   midi.NoteOffEvent(tick=192, channel=4, data=[64, 64]),\n",
      "   midi.NoteOnEvent(tick=0, channel=4, data=[66, 100]),\n",
      "   midi.NoteOffEvent(tick=96, channel=4, data=[66, 64]),\n",
      "   midi.NoteOnEvent(tick=0, channel=4, data=[74, 100]),\n",
      "   midi.NoteOffEvent(tick=96, channel=4, data=[74, 64]),\n",
      "   midi.NoteOnEvent(tick=0, channel=4, data=[73, 100]),\n",
      "   midi.NoteOffEvent(tick=96, channel=4, data=[73, 64]),\n",
      "   midi.NoteOnEvent(tick=0, channel=4, data=[71, 100]),\n",
      "   midi.NoteOffEvent(tick=96, channel=4, data=[71, 64]),\n",
      "   midi.NoteOnEvent(tick=0, channel=4, data=[69, 100]),\n",
      "   midi.NoteOffEvent(tick=96, channel=4, data=[69, 64]),\n",
      "   midi.NoteOnEvent(tick=0, channel=4, data=[67, 100]),\n",
      "   midi.NoteOffEvent(tick=96, channel=4, data=[67, 64]),\n",
      "   midi.NoteOnEvent(tick=0, channel=4, data=[66, 100]),\n",
      "   midi.NoteOffEvent(tick=96, channel=4, data=[66, 64]),\n",
      "   midi.NoteOnEvent(tick=0, channel=4, data=[64, 100]),\n",
      "   midi.NoteOffEvent(tick=96, channel=4, data=[64, 64]),\n",
      "   midi.NoteOnEvent(tick=0, channel=4, data=[62, 100]),\n",
      "   midi.NoteOffEvent(tick=192, channel=4, data=[62, 64]),\n",
      "   midi.NoteOnEvent(tick=0, channel=4, data=[74, 100]),\n",
      "   midi.NoteOffEvent(tick=192, channel=4, data=[74, 64]),\n",
      "   midi.NoteOnEvent(tick=0, channel=4, data=[71, 100]),\n",
      "   midi.NoteOffEvent(tick=192, channel=4, data=[71, 64]),\n",
      "   midi.NoteOnEvent(tick=0, channel=4, data=[66, 100]),\n",
      "   midi.NoteOffEvent(tick=192, channel=4, data=[66, 64]),\n",
      "   midi.NoteOnEvent(tick=0, channel=4, data=[68, 100]),\n",
      "   midi.NoteOffEvent(tick=96, channel=4, data=[68, 64]),\n",
      "   midi.NoteOnEvent(tick=0, channel=4, data=[69, 100]),\n",
      "   midi.NoteOffEvent(tick=96, channel=4, data=[69, 64]),\n",
      "   midi.NoteOnEvent(tick=0, channel=4, data=[71, 100]),\n",
      "   midi.NoteOffEvent(tick=384, channel=4, data=[71, 64]),\n",
      "   midi.NoteOnEvent(tick=0, channel=4, data=[71, 100]),\n",
      "   midi.NoteOffEvent(tick=384, channel=4, data=[71, 64]),\n",
      "   midi.NoteOnEvent(tick=0, channel=4, data=[73, 100]),\n",
      "   midi.NoteOffEvent(tick=192, channel=4, data=[73, 64]),\n",
      "   midi.NoteOnEvent(tick=0, channel=4, data=[69, 100]),\n",
      "   midi.NoteOffEvent(tick=192, channel=4, data=[69, 64]),\n",
      "   midi.NoteOnEvent(tick=0, channel=4, data=[64, 100]),\n",
      "   midi.NoteOffEvent(tick=192, channel=4, data=[64, 64]),\n",
      "   midi.NoteOnEvent(tick=0, channel=4, data=[66, 100]),\n",
      "   midi.NoteOffEvent(tick=192, channel=4, data=[66, 64]),\n",
      "   midi.NoteOnEvent(tick=0, channel=4, data=[73, 100]),\n",
      "   midi.NoteOffEvent(tick=96, channel=4, data=[73, 64]),\n",
      "   midi.NoteOnEvent(tick=0, channel=4, data=[71, 100]),\n",
      "   midi.NoteOffEvent(tick=96, channel=4, data=[71, 64]),\n",
      "   midi.NoteOnEvent(tick=0, channel=4, data=[73, 100]),\n",
      "   midi.NoteOffEvent(tick=192, channel=4, data=[73, 64]),\n",
      "   midi.NoteOnEvent(tick=0, channel=4, data=[69, 100]),\n",
      "   midi.NoteOffEvent(tick=384, channel=4, data=[69, 64]),\n",
      "   midi.NoteOnEvent(tick=0, channel=4, data=[66, 100]),\n",
      "   midi.NoteOffEvent(tick=192, channel=4, data=[66, 64]),\n",
      "   midi.NoteOnEvent(tick=0, channel=4, data=[71, 100]),\n",
      "   midi.NoteOffEvent(tick=192, channel=4, data=[71, 64]),\n",
      "   midi.NoteOnEvent(tick=0, channel=4, data=[74, 100]),\n",
      "   midi.NoteOffEvent(tick=192, channel=4, data=[74, 64]),\n",
      "   midi.NoteOnEvent(tick=0, channel=4, data=[71, 100]),\n",
      "   midi.NoteOffEvent(tick=192, channel=4, data=[71, 64]),\n",
      "   midi.NoteOnEvent(tick=0, channel=4, data=[68, 100]),\n",
      "   midi.NoteOffEvent(tick=192, channel=4, data=[68, 64]),\n",
      "   midi.NoteOnEvent(tick=0, channel=4, data=[64, 100]),\n",
      "   midi.NoteOffEvent(tick=192, channel=4, data=[64, 64]),\n",
      "   midi.NoteOnEvent(tick=0, channel=4, data=[64, 100]),\n",
      "   midi.NoteOffEvent(tick=384, channel=4, data=[64, 64]),\n",
      "   midi.NoteOnEvent(tick=0, channel=4, data=[57, 100]),\n",
      "   midi.NoteOffEvent(tick=192, channel=4, data=[57, 64]),\n",
      "   midi.NoteOnEvent(tick=0, channel=4, data=[61, 100]),\n",
      "   midi.NoteOffEvent(tick=192, channel=4, data=[61, 64]),\n",
      "   midi.NoteOnEvent(tick=0, channel=4, data=[64, 100]),\n",
      "   midi.NoteOffEvent(tick=384, channel=4, data=[64, 64]),\n",
      "   midi.EndOfTrackEvent(tick=0, data=[])]),\n",
      " midi.Track(\\\n",
      "  [midi.TrackNameEvent(tick=0, text='Soprano', data=[83, 111, 112, 114, 97, 110, 111]),\n",
      "   midi.ControlChangeEvent(tick=0, channel=5, data=[0, 0]),\n",
      "   midi.ProgramChangeEvent(tick=0, channel=5, data=[65]),\n",
      "   midi.ControlChangeEvent(tick=0, channel=5, data=[7, 127]),\n",
      "   midi.ControlChangeEvent(tick=0, channel=5, data=[10, 62]),\n",
      "   midi.ControlChangeEvent(tick=0, channel=5, data=[91, 127]),\n",
      "   midi.ControlChangeEvent(tick=0, channel=5, data=[93, 127]),\n",
      "   midi.KeySignatureEvent(tick=0, data=[2, 0]),\n",
      "   midi.NoteOnEvent(tick=25344, channel=5, data=[74, 100]),\n",
      "   midi.NoteOffEvent(tick=384, channel=5, data=[74, 64]),\n",
      "   midi.NoteOnEvent(tick=0, channel=5, data=[69, 100]),\n",
      "   midi.NoteOffEvent(tick=384, channel=5, data=[69, 64]),\n",
      "   midi.NoteOnEvent(tick=0, channel=5, data=[66, 100]),\n",
      "   midi.NoteOffEvent(tick=512, channel=5, data=[66, 64]),\n",
      "   midi.NoteOnEvent(tick=64, channel=5, data=[69, 100]),\n",
      "   midi.NoteOffEvent(tick=192, channel=5, data=[69, 64]),\n",
      "   midi.NoteOnEvent(tick=0, channel=5, data=[72, 100]),\n",
      "   midi.NoteOffEvent(tick=192, channel=5, data=[72, 64]),\n",
      "   midi.NoteOnEvent(tick=0, channel=5, data=[71, 100]),\n",
      "   midi.NoteOffEvent(tick=192, channel=5, data=[71, 64]),\n",
      "   midi.NoteOnEvent(tick=0, channel=5, data=[72, 100]),\n",
      "   midi.NoteOffEvent(tick=192, channel=5, data=[72, 64]),\n",
      "   midi.NoteOnEvent(tick=0, channel=5, data=[69, 100]),\n",
      "   midi.NoteOffEvent(tick=192, channel=5, data=[69, 64]),\n",
      "   midi.NoteOnEvent(tick=0, channel=5, data=[71, 100]),\n",
      "   midi.NoteOffEvent(tick=192, channel=5, data=[71, 64]),\n",
      "   midi.NoteOnEvent(tick=0, channel=5, data=[69, 100]),\n",
      "   midi.NoteOffEvent(tick=192, channel=5, data=[69, 64]),\n",
      "   midi.NoteOnEvent(tick=0, channel=5, data=[71, 100]),\n",
      "   midi.NoteOffEvent(tick=384, channel=5, data=[71, 64]),\n",
      "   midi.NoteOnEvent(tick=0, channel=5, data=[76, 100]),\n",
      "   midi.NoteOffEvent(tick=96, channel=5, data=[76, 64]),\n",
      "   midi.NoteOnEvent(tick=0, channel=5, data=[78, 100]),\n",
      "   midi.NoteOffEvent(tick=96, channel=5, data=[78, 64]),\n",
      "   midi.NoteOnEvent(tick=0, channel=5, data=[79, 100]),\n",
      "   midi.NoteOffEvent(tick=96, channel=5, data=[79, 64]),\n",
      "   midi.NoteOnEvent(tick=96, channel=5, data=[79, 100]),\n",
      "   midi.NoteOffEvent(tick=96, channel=5, data=[79, 64]),\n",
      "   midi.NoteOnEvent(tick=96, channel=5, data=[76, 100]),\n",
      "   midi.NoteOffEvent(tick=96, channel=5, data=[76, 64]),\n",
      "   midi.NoteOnEvent(tick=96, channel=5, data=[73, 100]),\n",
      "   midi.NoteOffEvent(tick=512, channel=5, data=[73, 64]),\n",
      "   midi.NoteOnEvent(tick=64, channel=5, data=[69, 100]),\n",
      "   midi.NoteOffEvent(tick=192, channel=5, data=[69, 64]),\n",
      "   midi.NoteOnEvent(tick=0, channel=5, data=[74, 100]),\n",
      "   midi.NoteOffEvent(tick=48, channel=5, data=[74, 64]),\n",
      "   midi.NoteOnEvent(tick=0, channel=5, data=[76, 100]),\n",
      "   midi.NoteOffEvent(tick=48, channel=5, data=[76, 64]),\n",
      "   midi.NoteOnEvent(tick=0, channel=5, data=[78, 100]),\n",
      "   midi.NoteOffEvent(tick=256, channel=5, data=[78, 64]),\n",
      "   midi.NoteOnEvent(tick=32, channel=5, data=[76, 100]),\n",
      "   midi.NoteOffEvent(tick=48, channel=5, data=[76, 64]),\n",
      "   midi.NoteOnEvent(tick=0, channel=5, data=[78, 100]),\n",
      "   midi.NoteOffEvent(tick=48, channel=5, data=[78, 64]),\n",
      "   midi.NoteOnEvent(tick=0, channel=5, data=[79, 100]),\n",
      "   midi.NoteOffEvent(tick=256, channel=5, data=[79, 64]),\n",
      "   midi.NoteOnEvent(tick=32, channel=5, data=[78, 100]),\n",
      "   midi.NoteOffEvent(tick=192, channel=5, data=[78, 64]),\n",
      "   midi.NoteOnEvent(tick=0, channel=5, data=[76, 100]),\n",
      "   midi.NoteOffEvent(tick=192, channel=5, data=[76, 64]),\n",
      "   midi.NoteOnEvent(tick=0, channel=5, data=[74, 100]),\n",
      "   midi.NoteOffEvent(tick=384, channel=5, data=[74, 64]),\n",
      "   midi.NoteOnEvent(tick=0, channel=5, data=[74, 100]),\n",
      "   midi.NoteOffEvent(tick=192, channel=5, data=[74, 64]),\n",
      "   midi.NoteOnEvent(tick=0, channel=5, data=[73, 100]),\n",
      "   midi.NoteOffEvent(tick=96, channel=5, data=[73, 64]),\n",
      "   midi.NoteOnEvent(tick=0, channel=5, data=[71, 100]),\n",
      "   midi.NoteOffEvent(tick=96, channel=5, data=[71, 64]),\n",
      "   midi.NoteOnEvent(tick=0, channel=5, data=[69, 100]),\n",
      "   midi.NoteOffEvent(tick=96, channel=5, data=[69, 64]),\n",
      "   midi.NoteOnEvent(tick=0, channel=5, data=[67, 100]),\n",
      "   midi.NoteOffEvent(tick=96, channel=5, data=[67, 64]),\n",
      "   midi.NoteOnEvent(tick=0, channel=5, data=[66, 100]),\n",
      "   midi.NoteOffEvent(tick=96, channel=5, data=[66, 64]),\n",
      "   midi.NoteOnEvent(tick=0, channel=5, data=[64, 100]),\n",
      "   midi.NoteOffEvent(tick=96, channel=5, data=[64, 64]),\n",
      "   midi.NoteOnEvent(tick=0, channel=5, data=[62, 100]),\n",
      "   midi.NoteOffEvent(tick=192, channel=5, data=[62, 64]),\n",
      "   midi.NoteOnEvent(tick=0, channel=5, data=[69, 100]),\n",
      "   midi.NoteOffEvent(tick=192, channel=5, data=[69, 64]),\n",
      "   midi.NoteOnEvent(tick=0, channel=5, data=[78, 100]),\n",
      "   midi.NoteOffEvent(tick=576, channel=5, data=[78, 64]),\n",
      "   midi.NoteOnEvent(tick=0, channel=5, data=[76, 100]),\n",
      "   midi.NoteOffEvent(tick=96, channel=5, data=[76, 64]),\n",
      "   midi.NoteOnEvent(tick=0, channel=5, data=[74, 100]),\n",
      "   midi.NoteOffEvent(tick=96, channel=5, data=[74, 64]),\n",
      "   midi.NoteOnEvent(tick=0, channel=5, data=[78, 100]),\n",
      "   midi.NoteOffEvent(tick=96, channel=5, data=[78, 64]),\n",
      "   midi.NoteOnEvent(tick=0, channel=5, data=[76, 100]),\n",
      "   midi.NoteOffEvent(tick=96, channel=5, data=[76, 64]),\n",
      "   midi.NoteOnEvent(tick=0, channel=5, data=[74, 100]),\n",
      "   midi.NoteOffEvent(tick=96, channel=5, data=[74, 64]),\n",
      "   midi.NoteOnEvent(tick=0, channel=5, data=[73, 100]),\n",
      "   midi.NoteOffEvent(tick=96, channel=5, data=[73, 64]),\n",
      "   midi.NoteOnEvent(tick=0, channel=5, data=[74, 100]),\n",
      "   midi.NoteOffEvent(tick=384, channel=5, data=[74, 64]),\n",
      "   midi.NoteOnEvent(tick=0, channel=5, data=[62, 100]),\n",
      "   midi.NoteOffEvent(tick=384, channel=5, data=[62, 64]),\n",
      "   midi.NoteOnEvent(tick=0, channel=5, data=[69, 100]),\n",
      "   midi.NoteOffEvent(tick=512, channel=5, data=[69, 64]),\n",
      "   midi.NoteOnEvent(tick=64, channel=5, data=[71, 100]),\n",
      "   midi.NoteOffEvent(tick=96, channel=5, data=[71, 64]),\n",
      "   midi.NoteOnEvent(tick=0, channel=5, data=[73, 100]),\n",
      "   midi.NoteOffEvent(tick=96, channel=5, data=[73, 64]),\n",
      "   midi.NoteOnEvent(tick=0, channel=5, data=[74, 100]),\n",
      "   midi.NoteOffEvent(tick=96, channel=5, data=[74, 64]),\n",
      "   midi.NoteOnEvent(tick=0, channel=5, data=[76, 100]),\n",
      "   midi.NoteOffEvent(tick=96, channel=5, data=[76, 64]),\n",
      "   midi.NoteOnEvent(tick=0, channel=5, data=[78, 100]),\n",
      "   midi.NoteOffEvent(tick=96, channel=5, data=[78, 64]),\n",
      "   midi.NoteOnEvent(tick=96, channel=5, data=[78, 100]),\n",
      "   midi.NoteOffEvent(tick=96, channel=5, data=[78, 64]),\n",
      "   midi.NoteOnEvent(tick=96, channel=5, data=[74, 100]),\n",
      "   midi.NoteOffEvent(tick=96, channel=5, data=[74, 64]),\n",
      "   midi.NoteOnEvent(tick=96, channel=5, data=[79, 100]),\n",
      "   midi.NoteOffEvent(tick=192, channel=5, data=[79, 64]),\n",
      "   midi.NoteOnEvent(tick=0, channel=5, data=[78, 100]),\n",
      "   midi.NoteOffEvent(tick=192, channel=5, data=[78, 64]),\n",
      "   midi.NoteOnEvent(tick=0, channel=5, data=[76, 100]),\n",
      "   midi.NoteOffEvent(tick=192, channel=5, data=[76, 64]),\n",
      "   midi.NoteOnEvent(tick=0, channel=5, data=[74, 100]),\n",
      "   midi.NoteOffEvent(tick=192, channel=5, data=[74, 64]),\n",
      "   midi.NoteOnEvent(tick=0, channel=5, data=[73, 100]),\n",
      "   midi.NoteOffEvent(tick=192, channel=5, data=[73, 64]),\n",
      "   midi.NoteOnEvent(tick=0, channel=5, data=[71, 100]),\n",
      "   midi.NoteOffEvent(tick=192, channel=5, data=[71, 64]),\n",
      "   midi.NoteOnEvent(tick=0, channel=5, data=[69, 100]),\n",
      "   midi.NoteOffEvent(tick=384, channel=5, data=[69, 64]),\n",
      "   midi.NoteOnEvent(tick=384, channel=5, data=[78, 100]),\n",
      "   midi.NoteOffEvent(tick=576, channel=5, data=[78, 64]),\n",
      "   midi.NoteOnEvent(tick=0, channel=5, data=[74, 100]),\n",
      "   midi.NoteOffEvent(tick=192, channel=5, data=[74, 64]),\n",
      "   midi.NoteOnEvent(tick=0, channel=5, data=[71, 100]),\n",
      "   midi.NoteOffEvent(tick=192, channel=5, data=[71, 64]),\n",
      "   midi.NoteOnEvent(tick=0, channel=5, data=[74, 100]),\n",
      "   midi.NoteOffEvent(tick=192, channel=5, data=[74, 64]),\n",
      "   midi.NoteOnEvent(tick=0, channel=5, data=[76, 100]),\n",
      "   midi.NoteOffEvent(tick=192, channel=5, data=[76, 64]),\n",
      "   midi.NoteOnEvent(tick=0, channel=5, data=[64, 100]),\n",
      "   midi.NoteOffEvent(tick=192, channel=5, data=[64, 64]),\n",
      "   midi.NoteOnEvent(tick=0, channel=5, data=[76, 100]),\n",
      "   midi.NoteOffEvent(tick=576, channel=5, data=[76, 64]),\n",
      "   midi.NoteOnEvent(tick=0, channel=5, data=[73, 100]),\n",
      "   midi.NoteOffEvent(tick=192, channel=5, data=[73, 64]),\n",
      "   midi.NoteOnEvent(tick=0, channel=5, data=[69, 100]),\n",
      "   midi.NoteOffEvent(tick=192, channel=5, data=[69, 64]),\n",
      "   midi.NoteOnEvent(tick=0, channel=5, data=[73, 100]),\n",
      "   midi.NoteOffEvent(tick=192, channel=5, data=[73, 64]),\n",
      "   midi.NoteOnEvent(tick=0, channel=5, data=[74, 100]),\n",
      "   midi.NoteOffEvent(tick=960, channel=5, data=[74, 64]),\n",
      "   midi.NoteOnEvent(tick=0, channel=5, data=[71, 100]),\n",
      "   midi.NoteOffEvent(tick=192, channel=5, data=[71, 64]),\n",
      "   midi.NoteOnEvent(tick=0, channel=5, data=[76, 100]),\n",
      "   midi.NoteOffEvent(tick=576, channel=5, data=[76, 64]),\n",
      "   midi.NoteOnEvent(tick=0, channel=5, data=[78, 100]),\n",
      "   midi.NoteOffEvent(tick=96, channel=5, data=[78, 64]),\n",
      "   midi.NoteOnEvent(tick=0, channel=5, data=[76, 100]),\n",
      "   midi.NoteOffEvent(tick=96, channel=5, data=[76, 64]),\n",
      "   midi.NoteOnEvent(tick=0, channel=5, data=[74, 100]),\n",
      "   midi.NoteOffEvent(tick=96, channel=5, data=[74, 64]),\n",
      "   midi.NoteOnEvent(tick=0, channel=5, data=[73, 100]),\n",
      "   midi.NoteOffEvent(tick=96, channel=5, data=[73, 64]),\n",
      "   midi.NoteOnEvent(tick=0, channel=5, data=[71, 100]),\n",
      "   midi.NoteOffEvent(tick=96, channel=5, data=[71, 64]),\n",
      "   midi.NoteOnEvent(tick=0, channel=5, data=[73, 100]),\n",
      "   midi.NoteOffEvent(tick=96, channel=5, data=[73, 64]),\n",
      "   midi.NoteOnEvent(tick=0, channel=5, data=[69, 100]),\n",
      "   midi.NoteOffEvent(tick=384, channel=5, data=[69, 64]),\n",
      "   midi.NoteOnEvent(tick=384, channel=5, data=[71, 100]),\n",
      "   midi.NoteOffEvent(tick=96, channel=5, data=[71, 64]),\n",
      "   midi.NoteOnEvent(tick=0, channel=5, data=[73, 100]),\n",
      "   midi.NoteOffEvent(tick=96, channel=5, data=[73, 64]),\n",
      "   midi.NoteOnEvent(tick=0, channel=5, data=[74, 100]),\n",
      "   midi.NoteOffEvent(tick=96, channel=5, data=[74, 64]),\n",
      "   midi.NoteOnEvent(tick=96, channel=5, data=[74, 100]),\n",
      "   midi.NoteOffEvent(tick=96, channel=5, data=[74, 64]),\n",
      "   midi.NoteOnEvent(tick=96, channel=5, data=[74, 100]),\n",
      "   midi.NoteOffEvent(tick=96, channel=5, data=[74, 64]),\n",
      "   midi.NoteOnEvent(tick=96, channel=5, data=[74, 100]),\n",
      "   midi.NoteOffEvent(tick=192, channel=5, data=[74, 64]),\n",
      "   midi.NoteOnEvent(tick=0, channel=5, data=[71, 100]),\n",
      "   midi.NoteOffEvent(tick=192, channel=5, data=[71, 64]),\n",
      "   midi.NoteOnEvent(tick=0, channel=5, data=[76, 100]),\n",
      "   midi.NoteOffEvent(tick=576, channel=5, data=[76, 64]),\n",
      "   midi.NoteOnEvent(tick=0, channel=5, data=[69, 100]),\n",
      "   midi.NoteOffEvent(tick=192, channel=5, data=[69, 64]),\n",
      "   midi.NoteOnEvent(tick=0, channel=5, data=[69, 100]),\n",
      "   midi.NoteOffEvent(tick=192, channel=5, data=[69, 64]),\n",
      "   midi.NoteOnEvent(tick=0, channel=5, data=[68, 100]),\n",
      "   midi.NoteOffEvent(tick=192, channel=5, data=[68, 64]),\n",
      "   midi.NoteOnEvent(tick=0, channel=5, data=[69, 100]),\n",
      "   midi.NoteOffEvent(tick=192, channel=5, data=[69, 64]),\n",
      "   midi.NoteOnEvent(tick=0, channel=5, data=[64, 100]),\n",
      "   midi.NoteOffEvent(tick=192, channel=5, data=[64, 64]),\n",
      "   midi.NoteOnEvent(tick=0, channel=5, data=[69, 100]),\n",
      "   midi.NoteOffEvent(tick=192, channel=5, data=[69, 64]),\n",
      "   midi.NoteOnEvent(tick=0, channel=5, data=[71, 100]),\n",
      "   midi.NoteOffEvent(tick=192, channel=5, data=[71, 64]),\n",
      "   midi.NoteOnEvent(tick=0, channel=5, data=[73, 100]),\n",
      "   midi.NoteOffEvent(tick=96, channel=5, data=[73, 64]),\n",
      "   midi.NoteOnEvent(tick=0, channel=5, data=[74, 100]),\n",
      "   midi.NoteOffEvent(tick=96, channel=5, data=[74, 64]),\n",
      "   midi.NoteOnEvent(tick=0, channel=5, data=[76, 100]),\n",
      "   midi.NoteOffEvent(tick=96, channel=5, data=[76, 64]),\n",
      "   midi.NoteOnEvent(tick=96, channel=5, data=[76, 100]),\n",
      "   midi.NoteOffEvent(tick=96, channel=5, data=[76, 64]),\n",
      "   midi.NoteOnEvent(tick=96, channel=5, data=[76, 100]),\n",
      "   midi.NoteOffEvent(tick=96, channel=5, data=[76, 64]),\n",
      "   midi.NoteOnEvent(tick=96, channel=5, data=[76, 100]),\n",
      "   midi.NoteOffEvent(tick=384, channel=5, data=[76, 64]),\n",
      "   midi.NoteOnEvent(tick=192, channel=5, data=[69, 100]),\n",
      "   midi.NoteOffEvent(tick=192, channel=5, data=[69, 64]),\n",
      "   midi.NoteOnEvent(tick=0, channel=5, data=[74, 100]),\n",
      "   midi.NoteOffEvent(tick=48, channel=5, data=[74, 64]),\n",
      "   midi.NoteOnEvent(tick=0, channel=5, data=[76, 100]),\n",
      "   midi.NoteOffEvent(tick=48, channel=5, data=[76, 64]),\n",
      "   midi.NoteOnEvent(tick=0, channel=5, data=[78, 100]),\n",
      "   midi.NoteOffEvent(tick=256, channel=5, data=[78, 64]),\n",
      "   midi.NoteOnEvent(tick=32, channel=5, data=[76, 100]),\n",
      "   midi.NoteOffEvent(tick=48, channel=5, data=[76, 64]),\n",
      "   midi.NoteOnEvent(tick=0, channel=5, data=[78, 100]),\n",
      "   midi.NoteOffEvent(tick=48, channel=5, data=[78, 64]),\n",
      "   midi.NoteOnEvent(tick=0, channel=5, data=[79, 100]),\n",
      "   midi.NoteOffEvent(tick=256, channel=5, data=[79, 64]),\n",
      "   midi.NoteOnEvent(tick=32, channel=5, data=[78, 100]),\n",
      "   midi.NoteOffEvent(tick=192, channel=5, data=[78, 64]),\n",
      "   midi.NoteOnEvent(tick=0, channel=5, data=[76, 100]),\n",
      "   midi.NoteOffEvent(tick=192, channel=5, data=[76, 64]),\n",
      "   midi.NoteOnEvent(tick=0, channel=5, data=[74, 100]),\n",
      "   midi.NoteOffEvent(tick=192, channel=5, data=[74, 64]),\n",
      "   midi.NoteOnEvent(tick=0, channel=5, data=[73, 100]),\n",
      "   midi.NoteOffEvent(tick=192, channel=5, data=[73, 64]),\n",
      "   midi.NoteOnEvent(tick=0, channel=5, data=[71, 100]),\n",
      "   midi.NoteOffEvent(tick=384, channel=5, data=[71, 64]),\n",
      "   midi.NoteOnEvent(tick=0, channel=5, data=[71, 100]),\n",
      "   midi.NoteOffEvent(tick=384, channel=5, data=[71, 64]),\n",
      "   midi.NoteOnEvent(tick=0, channel=5, data=[71, 100]),\n",
      "   midi.NoteOffEvent(tick=96, channel=5, data=[71, 64]),\n",
      "   midi.NoteOnEvent(tick=0, channel=5, data=[69, 100]),\n",
      "   midi.NoteOffEvent(tick=96, channel=5, data=[69, 64]),\n",
      "   midi.NoteOnEvent(tick=0, channel=5, data=[68, 100]),\n",
      "   midi.NoteOffEvent(tick=96, channel=5, data=[68, 64]),\n",
      "   midi.NoteOnEvent(tick=0, channel=5, data=[69, 100]),\n",
      "   midi.NoteOffEvent(tick=96, channel=5, data=[69, 64]),\n",
      "   midi.NoteOnEvent(tick=0, channel=5, data=[71, 100]),\n",
      "   midi.NoteOffEvent(tick=192, channel=5, data=[71, 64]),\n",
      "   midi.NoteOnEvent(tick=0, channel=5, data=[73, 100]),\n",
      "   midi.NoteOffEvent(tick=192, channel=5, data=[73, 64]),\n",
      "   midi.NoteOnEvent(tick=0, channel=5, data=[74, 100]),\n",
      "   midi.NoteOffEvent(tick=384, channel=5, data=[74, 64]),\n",
      "   midi.NoteOnEvent(tick=0, channel=5, data=[74, 100]),\n",
      "   midi.NoteOffEvent(tick=384, channel=5, data=[74, 64]),\n",
      "   midi.NoteOnEvent(tick=0, channel=5, data=[74, 100]),\n",
      "   midi.NoteOffEvent(tick=96, channel=5, data=[74, 64]),\n",
      "   midi.NoteOnEvent(tick=0, channel=5, data=[73, 100]),\n",
      "   midi.NoteOffEvent(tick=96, channel=5, data=[73, 64]),\n",
      "   midi.NoteOnEvent(tick=0, channel=5, data=[71, 100]),\n",
      "   midi.NoteOffEvent(tick=96, channel=5, data=[71, 64]),\n",
      "   midi.NoteOnEvent(tick=0, channel=5, data=[73, 100]),\n",
      "   midi.NoteOffEvent(tick=96, channel=5, data=[73, 64]),\n",
      "   midi.NoteOnEvent(tick=0, channel=5, data=[74, 100]),\n",
      "   midi.NoteOffEvent(tick=192, channel=5, data=[74, 64]),\n",
      "   midi.NoteOnEvent(tick=0, channel=5, data=[76, 100]),\n",
      "   midi.NoteOffEvent(tick=192, channel=5, data=[76, 64]),\n",
      "   midi.NoteOnEvent(tick=0, channel=5, data=[73, 100]),\n",
      "   midi.NoteOffEvent(tick=96, channel=5, data=[73, 64]),\n",
      "   midi.NoteOnEvent(tick=0, channel=5, data=[74, 100]),\n",
      "   midi.NoteOffEvent(tick=96, channel=5, data=[74, 64]),\n",
      "   midi.NoteOnEvent(tick=0, channel=5, data=[76, 100]),\n",
      "   midi.NoteOffEvent(tick=384, channel=5, data=[76, 64]),\n",
      "   midi.NoteOnEvent(tick=0, channel=5, data=[78, 100]),\n",
      "   midi.NoteOffEvent(tick=192, channel=5, data=[78, 64]),\n",
      "   midi.NoteOnEvent(tick=0, channel=5, data=[76, 100]),\n",
      "   midi.NoteOffEvent(tick=96, channel=5, data=[76, 64]),\n",
      "   midi.NoteOnEvent(tick=0, channel=5, data=[81, 100]),\n",
      "   midi.NoteOffEvent(tick=96, channel=5, data=[81, 64]),\n",
      "   midi.NoteOnEvent(tick=0, channel=5, data=[80, 100]),\n",
      "   midi.NoteOffEvent(tick=96, channel=5, data=[80, 64]),\n",
      "   midi.NoteOnEvent(tick=0, channel=5, data=[78, 100]),\n",
      "   midi.NoteOffEvent(tick=96, channel=5, data=[78, 64]),\n",
      "   midi.NoteOnEvent(tick=0, channel=5, data=[76, 100]),\n",
      "   midi.NoteOffEvent(tick=192, channel=5, data=[76, 64]),\n",
      "   midi.NoteOnEvent(tick=0, channel=5, data=[69, 100]),\n",
      "   midi.NoteOffEvent(tick=192, channel=5, data=[69, 64]),\n",
      "   midi.NoteOnEvent(tick=0, channel=5, data=[71, 100]),\n",
      "   midi.NoteOffEvent(tick=384, channel=5, data=[71, 64]),\n",
      "   midi.NoteOnEvent(tick=0, channel=5, data=[68, 100]),\n",
      "   midi.NoteOffEvent(tick=384, channel=5, data=[68, 64]),\n",
      "   midi.NoteOnEvent(tick=0, channel=5, data=[69, 100]),\n",
      "   midi.NoteOffEvent(tick=384, channel=5, data=[69, 64]),\n",
      "   midi.NoteOnEvent(tick=12672, channel=5, data=[73, 100]),\n",
      "   midi.NoteOffEvent(tick=192, channel=5, data=[73, 64]),\n",
      "   midi.NoteOnEvent(tick=0, channel=5, data=[73, 100]),\n",
      "   midi.NoteOffEvent(tick=384, channel=5, data=[73, 64]),\n",
      "   midi.NoteOnEvent(tick=0, channel=5, data=[73, 100]),\n",
      "   midi.NoteOffEvent(tick=384, channel=5, data=[73, 64]),\n",
      "   midi.NoteOnEvent(tick=0, channel=5, data=[73, 100]),\n",
      "   midi.NoteOffEvent(tick=384, channel=5, data=[73, 64]),\n",
      "   midi.NoteOnEvent(tick=0, channel=5, data=[73, 100]),\n",
      "   midi.NoteOffEvent(tick=288, channel=5, data=[73, 64]),\n",
      "   midi.NoteOnEvent(tick=0, channel=5, data=[78, 100]),\n",
      "   midi.NoteOffEvent(tick=96, channel=5, data=[78, 64]),\n",
      "   midi.NoteOnEvent(tick=0, channel=5, data=[76, 100]),\n",
      "   midi.NoteOffEvent(tick=96, channel=5, data=[76, 64]),\n",
      "   midi.NoteOnEvent(tick=0, channel=5, data=[74, 100]),\n",
      "   midi.NoteOffEvent(tick=96, channel=5, data=[74, 64]),\n",
      "   midi.NoteOnEvent(tick=0, channel=5, data=[73, 100]),\n",
      "   midi.NoteOffEvent(tick=192, channel=5, data=[73, 64]),\n",
      "   midi.NoteOnEvent(tick=0, channel=5, data=[71, 100]),\n",
      "   midi.NoteOffEvent(tick=192, channel=5, data=[71, 64]),\n",
      "   midi.NoteOnEvent(tick=0, channel=5, data=[69, 100]),\n",
      "   midi.NoteOffEvent(tick=192, channel=5, data=[69, 64]),\n",
      "   midi.NoteOnEvent(tick=0, channel=5, data=[68, 100]),\n",
      "   midi.NoteOffEvent(tick=96, channel=5, data=[68, 64]),\n",
      "   midi.NoteOnEvent(tick=0, channel=5, data=[69, 100]),\n",
      "   midi.NoteOffEvent(tick=96, channel=5, data=[69, 64]),\n",
      "   midi.NoteOnEvent(tick=0, channel=5, data=[66, 100]),\n",
      "   midi.NoteOffEvent(tick=192, channel=5, data=[66, 64]),\n",
      "   midi.NoteOnEvent(tick=192, channel=5, data=[78, 100]),\n",
      "   midi.NoteOffEvent(tick=192, channel=5, data=[78, 64]),\n",
      "   midi.NoteOnEvent(tick=0, channel=5, data=[74, 100]),\n",
      "   midi.NoteOffEvent(tick=96, channel=5, data=[74, 64]),\n",
      "   midi.NoteOnEvent(tick=0, channel=5, data=[71, 100]),\n",
      "   midi.NoteOffEvent(tick=96, channel=5, data=[71, 64]),\n",
      "   midi.NoteOnEvent(tick=0, channel=5, data=[78, 100]),\n",
      "   midi.NoteOffEvent(tick=576, channel=5, data=[78, 64]),\n",
      "   midi.NoteOnEvent(tick=0, channel=5, data=[73, 100]),\n",
      "   midi.NoteOffEvent(tick=96, channel=5, data=[73, 64]),\n",
      "   midi.NoteOnEvent(tick=0, channel=5, data=[70, 100]),\n",
      "   midi.NoteOffEvent(tick=96, channel=5, data=[70, 64]),\n",
      "   midi.NoteOnEvent(tick=0, channel=5, data=[78, 100]),\n",
      "   midi.NoteOffEvent(tick=576, channel=5, data=[78, 64]),\n",
      "   midi.NoteOnEvent(tick=0, channel=5, data=[76, 100]),\n",
      "   midi.NoteOffEvent(tick=96, channel=5, data=[76, 64]),\n",
      "   midi.NoteOnEvent(tick=0, channel=5, data=[74, 100]),\n",
      "   midi.NoteOffEvent(tick=96, channel=5, data=[74, 64]),\n",
      "   midi.NoteOnEvent(tick=0, channel=5, data=[73, 100]),\n",
      "   midi.NoteOffEvent(tick=96, channel=5, data=[73, 64]),\n",
      "   midi.NoteOnEvent(tick=0, channel=5, data=[74, 100]),\n",
      "   midi.NoteOffEvent(tick=96, channel=5, data=[74, 64]),\n",
      "   midi.NoteOnEvent(tick=0, channel=5, data=[76, 100]),\n",
      "   midi.NoteOffEvent(tick=192, channel=5, data=[76, 64]),\n",
      "   midi.NoteOnEvent(tick=0, channel=5, data=[74, 100]),\n",
      "   midi.NoteOffEvent(tick=192, channel=5, data=[74, 64]),\n",
      "   midi.NoteOnEvent(tick=0, channel=5, data=[73, 100]),\n",
      "   midi.NoteOffEvent(tick=96, channel=5, data=[73, 64]),\n",
      "   midi.NoteOnEvent(tick=0, channel=5, data=[74, 100]),\n",
      "   midi.NoteOffEvent(tick=96, channel=5, data=[74, 64]),\n",
      "   midi.NoteOnEvent(tick=0, channel=5, data=[71, 100]),\n",
      "   midi.NoteOffEvent(tick=384, channel=5, data=[71, 64]),\n",
      "   midi.NoteOnEvent(tick=0, channel=5, data=[79, 100]),\n",
      "   midi.NoteOffEvent(tick=384, channel=5, data=[79, 64]),\n",
      "   midi.NoteOnEvent(tick=192, channel=5, data=[76, 100]),\n",
      "   midi.NoteOffEvent(tick=192, channel=5, data=[76, 64]),\n",
      "   midi.NoteOnEvent(tick=0, channel=5, data=[73, 100]),\n",
      "   midi.NoteOffEvent(tick=96, channel=5, data=[73, 64]),\n",
      "   midi.NoteOnEvent(tick=0, channel=5, data=[69, 100]),\n",
      "   midi.NoteOffEvent(tick=96, channel=5, data=[69, 64]),\n",
      "   midi.NoteOnEvent(tick=0, channel=5, data=[68, 100]),\n",
      "   midi.NoteOffEvent(tick=96, channel=5, data=[68, 64]),\n",
      "   midi.NoteOnEvent(tick=0, channel=5, data=[69, 100]),\n",
      "   midi.NoteOffEvent(tick=96, channel=5, data=[69, 64]),\n",
      "   midi.NoteOnEvent(tick=0, channel=5, data=[71, 100]),\n",
      "   midi.NoteOffEvent(tick=96, channel=5, data=[71, 64]),\n",
      "   midi.NoteOnEvent(tick=0, channel=5, data=[73, 100]),\n",
      "   midi.NoteOffEvent(tick=96, channel=5, data=[73, 64]),\n",
      "   midi.NoteOnEvent(tick=0, channel=5, data=[74, 100]),\n",
      "   midi.NoteOffEvent(tick=96, channel=5, data=[74, 64]),\n",
      "   midi.NoteOnEvent(tick=0, channel=5, data=[76, 100]),\n",
      "   midi.NoteOffEvent(tick=96, channel=5, data=[76, 64]),\n",
      "   midi.NoteOnEvent(tick=0, channel=5, data=[78, 100]),\n",
      "   midi.NoteOffEvent(tick=192, channel=5, data=[78, 64]),\n",
      "   midi.NoteOnEvent(tick=0, channel=5, data=[74, 100]),\n",
      "   midi.NoteOffEvent(tick=192, channel=5, data=[74, 64]),\n",
      "   midi.NoteOnEvent(tick=0, channel=5, data=[78, 100]),\n",
      "   midi.NoteOffEvent(tick=192, channel=5, data=[78, 64]),\n",
      "   midi.NoteOnEvent(tick=0, channel=5, data=[74, 100]),\n",
      "   midi.NoteOffEvent(tick=192, channel=5, data=[74, 64]),\n",
      "   midi.NoteOnEvent(tick=0, channel=5, data=[71, 100]),\n",
      "   midi.NoteOffEvent(tick=384, channel=5, data=[71, 64]),\n",
      "   midi.NoteOnEvent(tick=0, channel=5, data=[76, 100]),\n",
      "   midi.NoteOffEvent(tick=384, channel=5, data=[76, 64]),\n",
      "   midi.NoteOnEvent(tick=192, channel=5, data=[64, 100]),\n",
      "   midi.NoteOffEvent(tick=192, channel=5, data=[64, 64]),\n",
      "   midi.NoteOnEvent(tick=0, channel=5, data=[76, 100]),\n",
      "   midi.NoteOffEvent(tick=192, channel=5, data=[76, 64]),\n",
      "   midi.NoteOnEvent(tick=0, channel=5, data=[76, 100]),\n",
      "   midi.NoteOffEvent(tick=192, channel=5, data=[76, 64]),\n",
      "   midi.NoteOnEvent(tick=0, channel=5, data=[76, 100]),\n",
      "   midi.NoteOffEvent(tick=96, channel=5, data=[76, 64]),\n",
      "   midi.NoteOnEvent(tick=0, channel=5, data=[79, 100]),\n",
      "   midi.NoteOffEvent(tick=96, channel=5, data=[79, 64]),\n",
      "   midi.NoteOnEvent(tick=0, channel=5, data=[78, 100]),\n",
      "   midi.NoteOffEvent(tick=96, channel=5, data=[78, 64]),\n",
      "   midi.NoteOnEvent(tick=0, channel=5, data=[76, 100]),\n",
      "   midi.NoteOffEvent(tick=96, channel=5, data=[76, 64]),\n",
      "   midi.NoteOnEvent(tick=0, channel=5, data=[78, 100]),\n",
      "   midi.NoteOffEvent(tick=96, channel=5, data=[78, 64]),\n",
      "   midi.NoteOnEvent(tick=0, channel=5, data=[76, 100]),\n",
      "   midi.NoteOffEvent(tick=96, channel=5, data=[76, 64]),\n",
      "   midi.NoteOnEvent(tick=0, channel=5, data=[74, 100]),\n",
      "   midi.NoteOffEvent(tick=96, channel=5, data=[74, 64]),\n",
      "   midi.NoteOnEvent(tick=0, channel=5, data=[73, 100]),\n",
      "   midi.NoteOffEvent(tick=96, channel=5, data=[73, 64]),\n",
      "   midi.NoteOnEvent(tick=0, channel=5, data=[76, 100]),\n",
      "   midi.NoteOffEvent(tick=96, channel=5, data=[76, 64]),\n",
      "   midi.NoteOnEvent(tick=0, channel=5, data=[74, 100]),\n",
      "   midi.NoteOffEvent(tick=96, channel=5, data=[74, 64]),\n",
      "   midi.NoteOnEvent(tick=0, channel=5, data=[73, 100]),\n",
      "   midi.NoteOffEvent(tick=96, channel=5, data=[73, 64]),\n",
      "   midi.NoteOnEvent(tick=0, channel=5, data=[71, 100]),\n",
      "   midi.NoteOffEvent(tick=96, channel=5, data=[71, 64]),\n",
      "   midi.NoteOnEvent(tick=0, channel=5, data=[73, 100]),\n",
      "   midi.NoteOffEvent(tick=192, channel=5, data=[73, 64]),\n",
      "   midi.NoteOnEvent(tick=0, channel=5, data=[70, 100]),\n",
      "   midi.NoteOffEvent(tick=192, channel=5, data=[70, 64]),\n",
      "   midi.NoteOnEvent(tick=0, channel=5, data=[71, 100]),\n",
      "   midi.NoteOffEvent(tick=768, channel=5, data=[71, 64]),\n",
      "   midi.NoteOnEvent(tick=12288, channel=5, data=[74, 100]),\n",
      "   midi.NoteOffEvent(tick=192, channel=5, data=[74, 64]),\n",
      "   midi.NoteOnEvent(tick=0, channel=5, data=[74, 100]),\n",
      "   midi.NoteOffEvent(tick=384, channel=5, data=[74, 64]),\n",
      "   midi.NoteOnEvent(tick=0, channel=5, data=[74, 100]),\n",
      "   midi.NoteOffEvent(tick=384, channel=5, data=[74, 64]),\n",
      "   midi.NoteOnEvent(tick=0, channel=5, data=[74, 100]),\n",
      "   midi.NoteOffEvent(tick=384, channel=5, data=[74, 64]),\n",
      "   midi.NoteOnEvent(tick=0, channel=5, data=[74, 100]),\n",
      "   midi.NoteOffEvent(tick=288, channel=5, data=[74, 64]),\n",
      "   midi.NoteOnEvent(tick=0, channel=5, data=[79, 100]),\n",
      "   midi.NoteOffEvent(tick=96, channel=5, data=[79, 64]),\n",
      "   midi.NoteOnEvent(tick=0, channel=5, data=[78, 100]),\n",
      "   midi.NoteOffEvent(tick=96, channel=5, data=[78, 64]),\n",
      "   midi.NoteOnEvent(tick=0, channel=5, data=[76, 100]),\n",
      "   midi.NoteOffEvent(tick=96, channel=5, data=[76, 64]),\n",
      "   midi.NoteOnEvent(tick=0, channel=5, data=[74, 100]),\n",
      "   midi.NoteOffEvent(tick=192, channel=5, data=[74, 64]),\n",
      "   midi.NoteOnEvent(tick=0, channel=5, data=[72, 100]),\n",
      "   midi.NoteOffEvent(tick=192, channel=5, data=[72, 64]),\n",
      "   midi.NoteOnEvent(tick=0, channel=5, data=[71, 100]),\n",
      "   midi.NoteOffEvent(tick=192, channel=5, data=[71, 64]),\n",
      "   midi.NoteOnEvent(tick=0, channel=5, data=[69, 100]),\n",
      "   midi.NoteOffEvent(tick=96, channel=5, data=[69, 64]),\n",
      "   midi.NoteOnEvent(tick=0, channel=5, data=[71, 100]),\n",
      "   midi.NoteOffEvent(tick=96, channel=5, data=[71, 64]),\n",
      "   midi.NoteOnEvent(tick=0, channel=5, data=[67, 100]),\n",
      "   midi.NoteOffEvent(tick=384, channel=5, data=[67, 64]),\n",
      "   midi.NoteOnEvent(tick=384, channel=5, data=[76, 100]),\n",
      "   midi.NoteOffEvent(tick=384, channel=5, data=[76, 64]),\n",
      "   midi.NoteOnEvent(tick=192, channel=5, data=[75, 100]),\n",
      "   midi.NoteOffEvent(tick=192, channel=5, data=[75, 64]),\n",
      "   midi.NoteOnEvent(tick=0, channel=5, data=[78, 100]),\n",
      "   midi.NoteOffEvent(tick=192, channel=5, data=[78, 64]),\n",
      "   midi.NoteOnEvent(tick=0, channel=5, data=[71, 100]),\n",
      "   midi.NoteOffEvent(tick=384, channel=5, data=[71, 64]),\n",
      "   midi.NoteOnEvent(tick=0, channel=5, data=[76, 100]),\n",
      "   midi.NoteOffEvent(tick=192, channel=5, data=[76, 64]),\n",
      "   midi.NoteOnEvent(tick=0, channel=5, data=[76, 100]),\n",
      "   midi.NoteOffEvent(tick=192, channel=5, data=[76, 64]),\n",
      "   midi.NoteOnEvent(tick=0, channel=5, data=[75, 100]),\n",
      "   midi.NoteOffEvent(tick=192, channel=5, data=[75, 64]),\n",
      "   midi.NoteOnEvent(tick=0, channel=5, data=[76, 100]),\n",
      "   midi.NoteOffEvent(tick=480, channel=5, data=[76, 64]),\n",
      "   midi.NoteOnEvent(tick=0, channel=5, data=[71, 100]),\n",
      "   midi.NoteOffEvent(tick=96, channel=5, data=[71, 64]),\n",
      "   midi.NoteOnEvent(tick=0, channel=5, data=[69, 100]),\n",
      "   midi.NoteOffEvent(tick=96, channel=5, data=[69, 64]),\n",
      "   midi.NoteOnEvent(tick=0, channel=5, data=[71, 100]),\n",
      "   midi.NoteOffEvent(tick=96, channel=5, data=[71, 64]),\n",
      "   midi.NoteOnEvent(tick=0, channel=5, data=[73, 100]),\n",
      "   midi.NoteOffEvent(tick=96, channel=5, data=[73, 64]),\n",
      "   midi.NoteOnEvent(tick=0, channel=5, data=[74, 100]),\n",
      "   midi.NoteOffEvent(tick=96, channel=5, data=[74, 64]),\n",
      "   midi.NoteOnEvent(tick=0, channel=5, data=[76, 100]),\n",
      "   midi.NoteOffEvent(tick=96, channel=5, data=[76, 64]),\n",
      "   midi.NoteOnEvent(tick=96, channel=5, data=[76, 100]),\n",
      "   midi.NoteOffEvent(tick=96, channel=5, data=[76, 64]),\n",
      "   midi.NoteOnEvent(tick=96, channel=5, data=[73, 100]),\n",
      "   midi.NoteOffEvent(tick=96, channel=5, data=[73, 64]),\n",
      "   midi.NoteOnEvent(tick=96, channel=5, data=[69, 100]),\n",
      "   midi.NoteOffEvent(tick=480, channel=5, data=[69, 64]),\n",
      "   midi.NoteOnEvent(tick=0, channel=5, data=[73, 100]),\n",
      "   midi.NoteOffEvent(tick=96, channel=5, data=[73, 64]),\n",
      "   midi.NoteOnEvent(tick=0, channel=5, data=[71, 100]),\n",
      "   midi.NoteOffEvent(tick=96, channel=5, data=[71, 64]),\n",
      "   midi.NoteOnEvent(tick=0, channel=5, data=[69, 100]),\n",
      "   midi.NoteOffEvent(tick=96, channel=5, data=[69, 64]),\n",
      "   midi.NoteOnEvent(tick=0, channel=5, data=[71, 100]),\n",
      "   midi.NoteOffEvent(tick=96, channel=5, data=[71, 64]),\n",
      "   midi.NoteOnEvent(tick=0, channel=5, data=[73, 100]),\n",
      "   midi.NoteOffEvent(tick=96, channel=5, data=[73, 64]),\n",
      "   midi.NoteOnEvent(tick=0, channel=5, data=[74, 100]),\n",
      "   midi.NoteOffEvent(tick=96, channel=5, data=[74, 64]),\n",
      "   midi.NoteOnEvent(tick=96, channel=5, data=[74, 100]),\n",
      "   midi.NoteOffEvent(tick=96, channel=5, data=[74, 64]),\n",
      "   midi.NoteOnEvent(tick=96, channel=5, data=[71, 100]),\n",
      "   midi.NoteOffEvent(tick=96, channel=5, data=[71, 64]),\n",
      "   midi.NoteOnEvent(tick=96, channel=5, data=[77, 100]),\n",
      "   midi.NoteOffEvent(tick=192, channel=5, data=[77, 64]),\n",
      "   midi.NoteOnEvent(tick=0, channel=5, data=[73, 100]),\n",
      "   midi.NoteOffEvent(tick=192, channel=5, data=[73, 64]),\n",
      "   midi.NoteOnEvent(tick=0, channel=5, data=[80, 100]),\n",
      "   midi.NoteOffEvent(tick=384, channel=5, data=[80, 64]),\n",
      "   midi.NoteOnEvent(tick=192, channel=5, data=[73, 100]),\n",
      "   midi.NoteOffEvent(tick=192, channel=5, data=[73, 64]),\n",
      "   midi.NoteOnEvent(tick=0, channel=5, data=[78, 100]),\n",
      "   midi.NoteOffEvent(tick=192, channel=5, data=[78, 64]),\n",
      "   midi.NoteOnEvent(tick=0, channel=5, data=[76, 100]),\n",
      "   midi.NoteOffEvent(tick=192, channel=5, data=[76, 64]),\n",
      "   midi.NoteOnEvent(tick=0, channel=5, data=[74, 100]),\n",
      "   midi.NoteOffEvent(tick=96, channel=5, data=[74, 64]),\n",
      "   midi.NoteOnEvent(tick=0, channel=5, data=[73, 100]),\n",
      "   midi.NoteOffEvent(tick=96, channel=5, data=[73, 64]),\n",
      "   midi.NoteOnEvent(tick=0, channel=5, data=[71, 100]),\n",
      "   midi.NoteOffEvent(tick=96, channel=5, data=[71, 64]),\n",
      "   midi.NoteOnEvent(tick=0, channel=5, data=[69, 100]),\n",
      "   midi.NoteOffEvent(tick=96, channel=5, data=[69, 64]),\n",
      "   midi.NoteOnEvent(tick=0, channel=5, data=[71, 100]),\n",
      "   midi.NoteOffEvent(tick=192, channel=5, data=[71, 64]),\n",
      "   midi.NoteOnEvent(tick=0, channel=5, data=[71, 100]),\n",
      "   midi.NoteOffEvent(tick=192, channel=5, data=[71, 64]),\n",
      "   midi.NoteOnEvent(tick=0, channel=5, data=[71, 100]),\n",
      "   midi.NoteOffEvent(tick=192, channel=5, data=[71, 64]),\n",
      "   midi.NoteOnEvent(tick=0, channel=5, data=[74, 100]),\n",
      "   midi.NoteOffEvent(tick=192, channel=5, data=[74, 64]),\n",
      "   midi.NoteOnEvent(tick=0, channel=5, data=[73, 100]),\n",
      "   midi.NoteOffEvent(tick=192, channel=5, data=[73, 64]),\n",
      "   midi.NoteOnEvent(tick=0, channel=5, data=[71, 100]),\n",
      "   midi.NoteOffEvent(tick=192, channel=5, data=[71, 64]),\n",
      "   midi.NoteOnEvent(tick=0, channel=5, data=[69, 100]),\n",
      "   midi.NoteOffEvent(tick=384, channel=5, data=[69, 64]),\n",
      "   midi.NoteOnEvent(tick=0, channel=5, data=[68, 100]),\n",
      "   midi.NoteOffEvent(tick=384, channel=5, data=[68, 64]),\n",
      "   midi.NoteOnEvent(tick=0, channel=5, data=[66, 100]),\n",
      "   midi.NoteOffEvent(tick=384, channel=5, data=[66, 64]),\n",
      "   midi.NoteOnEvent(tick=3456, channel=5, data=[74, 100]),\n",
      "   midi.NoteOffEvent(tick=384, channel=5, data=[74, 64]),\n",
      "   midi.NoteOnEvent(tick=0, channel=5, data=[69, 100]),\n",
      "   midi.NoteOffEvent(tick=384, channel=5, data=[69, 64]),\n",
      "   midi.NoteOnEvent(tick=0, channel=5, data=[66, 100]),\n",
      "   midi.NoteOffEvent(tick=512, channel=5, data=[66, 64]),\n",
      "   midi.NoteOnEvent(tick=256, channel=5, data=[72, 100]),\n",
      "   midi.NoteOffEvent(tick=192, channel=5, data=[72, 64]),\n",
      "   midi.NoteOnEvent(tick=0, channel=5, data=[71, 100]),\n",
      "   midi.NoteOffEvent(tick=192, channel=5, data=[71, 64]),\n",
      "   midi.NoteOnEvent(tick=0, channel=5, data=[72, 100]),\n",
      "   midi.NoteOffEvent(tick=192, channel=5, data=[72, 64]),\n",
      "   midi.NoteOnEvent(tick=0, channel=5, data=[69, 100]),\n",
      "   midi.NoteOffEvent(tick=192, channel=5, data=[69, 64]),\n",
      "   midi.NoteOnEvent(tick=0, channel=5, data=[71, 100]),\n",
      "   midi.NoteOffEvent(tick=192, channel=5, data=[71, 64]),\n",
      "   midi.NoteOnEvent(tick=0, channel=5, data=[69, 100]),\n",
      "   midi.NoteOffEvent(tick=192, channel=5, data=[69, 64]),\n",
      "   midi.NoteOnEvent(tick=0, channel=5, data=[71, 100]),\n",
      "   midi.NoteOffEvent(tick=384, channel=5, data=[71, 64]),\n",
      "   midi.NoteOnEvent(tick=0, channel=5, data=[76, 100]),\n",
      "   midi.NoteOffEvent(tick=96, channel=5, data=[76, 64]),\n",
      "   midi.NoteOnEvent(tick=0, channel=5, data=[78, 100]),\n",
      "   midi.NoteOffEvent(tick=96, channel=5, data=[78, 64]),\n",
      "   midi.NoteOnEvent(tick=0, channel=5, data=[79, 100]),\n",
      "   midi.NoteOffEvent(tick=96, channel=5, data=[79, 64]),\n",
      "   midi.NoteOnEvent(tick=96, channel=5, data=[79, 100]),\n",
      "   midi.NoteOffEvent(tick=96, channel=5, data=[79, 64]),\n",
      "   midi.NoteOnEvent(tick=96, channel=5, data=[76, 100]),\n",
      "   midi.NoteOffEvent(tick=96, channel=5, data=[76, 64]),\n",
      "   midi.NoteOnEvent(tick=96, channel=5, data=[73, 100]),\n",
      "   midi.NoteOffEvent(tick=512, channel=5, data=[73, 64]),\n",
      "   midi.NoteOnEvent(tick=64, channel=5, data=[69, 100]),\n",
      "   midi.NoteOffEvent(tick=192, channel=5, data=[69, 64]),\n",
      "   midi.NoteOnEvent(tick=0, channel=5, data=[74, 100]),\n",
      "   midi.NoteOffEvent(tick=48, channel=5, data=[74, 64]),\n",
      "   midi.NoteOnEvent(tick=0, channel=5, data=[76, 100]),\n",
      "   midi.NoteOffEvent(tick=48, channel=5, data=[76, 64]),\n",
      "   midi.NoteOnEvent(tick=0, channel=5, data=[78, 100]),\n",
      "   midi.NoteOffEvent(tick=256, channel=5, data=[78, 64]),\n",
      "   midi.NoteOnEvent(tick=32, channel=5, data=[76, 100]),\n",
      "   midi.NoteOffEvent(tick=48, channel=5, data=[76, 64]),\n",
      "   midi.NoteOnEvent(tick=0, channel=5, data=[78, 100]),\n",
      "   midi.NoteOffEvent(tick=48, channel=5, data=[78, 64]),\n",
      "   midi.NoteOnEvent(tick=0, channel=5, data=[79, 100]),\n",
      "   midi.NoteOffEvent(tick=256, channel=5, data=[79, 64]),\n",
      "   midi.NoteOnEvent(tick=32, channel=5, data=[78, 100]),\n",
      "   midi.NoteOffEvent(tick=192, channel=5, data=[78, 64]),\n",
      "   midi.NoteOnEvent(tick=0, channel=5, data=[76, 100]),\n",
      "   midi.NoteOffEvent(tick=192, channel=5, data=[76, 64]),\n",
      "   midi.NoteOnEvent(tick=0, channel=5, data=[74, 100]),\n",
      "   midi.NoteOffEvent(tick=384, channel=5, data=[74, 64]),\n",
      "   midi.NoteOnEvent(tick=0, channel=5, data=[74, 100]),\n",
      "   midi.NoteOffEvent(tick=192, channel=5, data=[74, 64]),\n",
      "   midi.NoteOnEvent(tick=0, channel=5, data=[73, 100]),\n",
      "   midi.NoteOffEvent(tick=96, channel=5, data=[73, 64]),\n",
      "   midi.NoteOnEvent(tick=0, channel=5, data=[71, 100]),\n",
      "   midi.NoteOffEvent(tick=96, channel=5, data=[71, 64]),\n",
      "   midi.NoteOnEvent(tick=0, channel=5, data=[69, 100]),\n",
      "   midi.NoteOffEvent(tick=96, channel=5, data=[69, 64]),\n",
      "   midi.NoteOnEvent(tick=0, channel=5, data=[67, 100]),\n",
      "   midi.NoteOffEvent(tick=96, channel=5, data=[67, 64]),\n",
      "   midi.NoteOnEvent(tick=0, channel=5, data=[66, 100]),\n",
      "   midi.NoteOffEvent(tick=96, channel=5, data=[66, 64]),\n",
      "   midi.NoteOnEvent(tick=0, channel=5, data=[64, 100]),\n",
      "   midi.NoteOffEvent(tick=96, channel=5, data=[64, 64]),\n",
      "   midi.NoteOnEvent(tick=0, channel=5, data=[62, 100]),\n",
      "   midi.NoteOffEvent(tick=192, channel=5, data=[62, 64]),\n",
      "   midi.NoteOnEvent(tick=0, channel=5, data=[69, 100]),\n",
      "   midi.NoteOffEvent(tick=192, channel=5, data=[69, 64]),\n",
      "   midi.NoteOnEvent(tick=0, channel=5, data=[78, 100]),\n",
      "   midi.NoteOffEvent(tick=576, channel=5, data=[78, 64]),\n",
      "   midi.NoteOnEvent(tick=0, channel=5, data=[76, 100]),\n",
      "   midi.NoteOffEvent(tick=96, channel=5, data=[76, 64]),\n",
      "   midi.NoteOnEvent(tick=0, channel=5, data=[74, 100]),\n",
      "   midi.NoteOffEvent(tick=96, channel=5, data=[74, 64]),\n",
      "   midi.NoteOnEvent(tick=0, channel=5, data=[78, 100]),\n",
      "   midi.NoteOffEvent(tick=96, channel=5, data=[78, 64]),\n",
      "   midi.NoteOnEvent(tick=0, channel=5, data=[76, 100]),\n",
      "   midi.NoteOffEvent(tick=96, channel=5, data=[76, 64]),\n",
      "   midi.NoteOnEvent(tick=0, channel=5, data=[74, 100]),\n",
      "   midi.NoteOffEvent(tick=96, channel=5, data=[74, 64]),\n",
      "   midi.NoteOnEvent(tick=0, channel=5, data=[73, 100]),\n",
      "   midi.NoteOffEvent(tick=96, channel=5, data=[73, 64]),\n",
      "   midi.NoteOnEvent(tick=0, channel=5, data=[74, 100]),\n",
      "   midi.NoteOffEvent(tick=384, channel=5, data=[74, 64]),\n",
      "   midi.NoteOnEvent(tick=0, channel=5, data=[62, 100]),\n",
      "   midi.NoteOffEvent(tick=384, channel=5, data=[62, 64]),\n",
      "   midi.NoteOnEvent(tick=0, channel=5, data=[69, 100]),\n",
      "   midi.NoteOffEvent(tick=512, channel=5, data=[69, 64]),\n",
      "   midi.NoteOnEvent(tick=64, channel=5, data=[71, 100]),\n",
      "   midi.NoteOffEvent(tick=96, channel=5, data=[71, 64]),\n",
      "   midi.NoteOnEvent(tick=0, channel=5, data=[73, 100]),\n",
      "   midi.NoteOffEvent(tick=96, channel=5, data=[73, 64]),\n",
      "   midi.NoteOnEvent(tick=0, channel=5, data=[74, 100]),\n",
      "   midi.NoteOffEvent(tick=96, channel=5, data=[74, 64]),\n",
      "   midi.NoteOnEvent(tick=0, channel=5, data=[76, 100]),\n",
      "   midi.NoteOffEvent(tick=96, channel=5, data=[76, 64]),\n",
      "   midi.NoteOnEvent(tick=0, channel=5, data=[78, 100]),\n",
      "   midi.NoteOffEvent(tick=96, channel=5, data=[78, 64]),\n",
      "   midi.NoteOnEvent(tick=96, channel=5, data=[78, 100]),\n",
      "   midi.NoteOffEvent(tick=96, channel=5, data=[78, 64]),\n",
      "   midi.NoteOnEvent(tick=96, channel=5, data=[74, 100]),\n",
      "   midi.NoteOffEvent(tick=96, channel=5, data=[74, 64]),\n",
      "   midi.NoteOnEvent(tick=96, channel=5, data=[79, 100]),\n",
      "   midi.NoteOffEvent(tick=192, channel=5, data=[79, 64]),\n",
      "   midi.NoteOnEvent(tick=0, channel=5, data=[78, 100]),\n",
      "   midi.NoteOffEvent(tick=192, channel=5, data=[78, 64]),\n",
      "   midi.NoteOnEvent(tick=0, channel=5, data=[76, 100]),\n",
      "   midi.NoteOffEvent(tick=192, channel=5, data=[76, 64]),\n",
      "   midi.NoteOnEvent(tick=0, channel=5, data=[74, 100]),\n",
      "   midi.NoteOffEvent(tick=192, channel=5, data=[74, 64]),\n",
      "   midi.NoteOnEvent(tick=0, channel=5, data=[73, 100]),\n",
      "   midi.NoteOffEvent(tick=192, channel=5, data=[73, 64]),\n",
      "   midi.NoteOnEvent(tick=0, channel=5, data=[71, 100]),\n",
      "   midi.NoteOffEvent(tick=192, channel=5, data=[71, 64]),\n",
      "   midi.NoteOnEvent(tick=0, channel=5, data=[69, 100]),\n",
      "   midi.NoteOffEvent(tick=384, channel=5, data=[69, 64]),\n",
      "   midi.NoteOnEvent(tick=768, channel=5, data=[78, 100]),\n",
      "   midi.NoteOffEvent(tick=384, channel=5, data=[78, 64]),\n",
      "   midi.NoteOnEvent(tick=0, channel=5, data=[74, 100]),\n",
      "   midi.NoteOffEvent(tick=384, channel=5, data=[74, 64]),\n",
      "   midi.NoteOnEvent(tick=0, channel=5, data=[81, 100]),\n",
      "   midi.NoteOffEvent(tick=384, channel=5, data=[81, 64]),\n",
      "   midi.NoteOnEvent(tick=192, channel=5, data=[69, 100]),\n",
      "   midi.NoteOffEvent(tick=192, channel=5, data=[69, 64]),\n",
      "   midi.NoteOnEvent(tick=0, channel=5, data=[66, 100]),\n",
      "   midi.NoteOffEvent(tick=192, channel=5, data=[66, 64]),\n",
      "   midi.NoteOnEvent(tick=0, channel=5, data=[67, 100]),\n",
      "   midi.NoteOffEvent(tick=192, channel=5, data=[67, 64]),\n",
      "   midi.NoteOnEvent(tick=0, channel=5, data=[69, 100]),\n",
      "   midi.NoteOffEvent(tick=192, channel=5, data=[69, 64]),\n",
      "   midi.NoteOnEvent(tick=0, channel=5, data=[67, 100]),\n",
      "   midi.NoteOffEvent(tick=96, channel=5, data=[67, 64]),\n",
      "   midi.NoteOnEvent(tick=0, channel=5, data=[66, 100]),\n",
      "   midi.NoteOffEvent(tick=96, channel=5, data=[66, 64]),\n",
      "   midi.NoteOnEvent(tick=0, channel=5, data=[71, 100]),\n",
      "   midi.NoteOffEvent(tick=384, channel=5, data=[71, 64]),\n",
      "   midi.NoteOnEvent(tick=0, channel=5, data=[71, 100]),\n",
      "   midi.NoteOffEvent(tick=384, channel=5, data=[71, 64]),\n",
      "   midi.NoteOnEvent(tick=384, channel=5, data=[76, 100]),\n",
      "   midi.NoteOffEvent(tick=576, channel=5, data=[76, 64]),\n",
      "   midi.NoteOnEvent(tick=0, channel=5, data=[69, 100]),\n",
      "   midi.NoteOffEvent(tick=192, channel=5, data=[69, 64]),\n",
      "   midi.NoteOnEvent(tick=0, channel=5, data=[69, 100]),\n",
      "   midi.NoteOffEvent(tick=192, channel=5, data=[69, 64]),\n",
      "   midi.NoteOnEvent(tick=0, channel=5, data=[71, 100]),\n",
      "   midi.NoteOffEvent(tick=96, channel=5, data=[71, 64]),\n",
      "   midi.NoteOnEvent(tick=0, channel=5, data=[73, 100]),\n",
      "   midi.NoteOffEvent(tick=96, channel=5, data=[73, 64]),\n",
      "   midi.NoteOnEvent(tick=0, channel=5, data=[74, 100]),\n",
      "   midi.NoteOffEvent(tick=192, channel=5, data=[74, 64]),\n",
      "   midi.NoteOnEvent(tick=0, channel=5, data=[62, 100]),\n",
      "   midi.NoteOffEvent(tick=192, channel=5, data=[62, 64]),\n",
      "   midi.NoteOnEvent(tick=0, channel=5, data=[74, 100]),\n",
      "   midi.NoteOffEvent(tick=576, channel=5, data=[74, 64]),\n",
      "   midi.NoteOnEvent(tick=0, channel=5, data=[71, 100]),\n",
      "   midi.NoteOffEvent(tick=192, channel=5, data=[71, 64]),\n",
      "   midi.NoteOnEvent(tick=0, channel=5, data=[73, 100]),\n",
      "   midi.NoteOffEvent(tick=192, channel=5, data=[73, 64]),\n",
      "   midi.NoteOnEvent(tick=0, channel=5, data=[74, 100]),\n",
      "   midi.NoteOffEvent(tick=192, channel=5, data=[74, 64]),\n",
      "   midi.NoteOnEvent(tick=0, channel=5, data=[76, 100]),\n",
      "   midi.NoteOffEvent(tick=512, channel=5, data=[76, 64]),\n",
      "   midi.NoteOnEvent(tick=64, channel=5, data=[74, 100]),\n",
      "   midi.NoteOffEvent(tick=96, channel=5, data=[74, 64]),\n",
      "   midi.NoteOnEvent(tick=0, channel=5, data=[73, 100]),\n",
      "   midi.NoteOffEvent(tick=96, channel=5, data=[73, 64]),\n",
      "   midi.NoteOnEvent(tick=0, channel=5, data=[74, 100]),\n",
      "   midi.NoteOffEvent(tick=256, channel=5, data=[74, 64]),\n",
      "   midi.NoteOnEvent(tick=32, channel=5, data=[76, 100]),\n",
      "   midi.NoteOffEvent(tick=96, channel=5, data=[76, 64]),\n",
      "   midi.NoteOnEvent(tick=0, channel=5, data=[73, 100]),\n",
      "   midi.NoteOffEvent(tick=256, channel=5, data=[73, 64]),\n",
      "   midi.NoteOnEvent(tick=32, channel=5, data=[74, 100]),\n",
      "   midi.NoteOffEvent(tick=96, channel=5, data=[74, 64]),\n",
      "   midi.NoteOnEvent(tick=0, channel=5, data=[74, 100]),\n",
      "   midi.NoteOffEvent(tick=384, channel=5, data=[74, 64]),\n",
      "   midi.NoteOnEvent(tick=384, channel=5, data=[73, 100]),\n",
      "   midi.NoteOffEvent(tick=96, channel=5, data=[73, 64]),\n",
      "   midi.NoteOnEvent(tick=0, channel=5, data=[74, 100]),\n",
      "   midi.NoteOffEvent(tick=96, channel=5, data=[74, 64]),\n",
      "   midi.NoteOnEvent(tick=0, channel=5, data=[76, 100]),\n",
      "   midi.NoteOffEvent(tick=96, channel=5, data=[76, 64]),\n",
      "   midi.NoteOnEvent(tick=96, channel=5, data=[76, 100]),\n",
      "   midi.NoteOffEvent(tick=96, channel=5, data=[76, 64]),\n",
      "   midi.NoteOnEvent(tick=96, channel=5, data=[76, 100]),\n",
      "   midi.NoteOffEvent(tick=96, channel=5, data=[76, 64]),\n",
      "   midi.NoteOnEvent(tick=96, channel=5, data=[76, 100]),\n",
      "   midi.NoteOffEvent(tick=384, channel=5, data=[76, 64]),\n",
      "   midi.NoteOnEvent(tick=192, channel=5, data=[69, 100]),\n",
      "   midi.NoteOffEvent(tick=192, channel=5, data=[69, 64]),\n",
      "   midi.NoteOnEvent(tick=0, channel=5, data=[74, 100]),\n",
      "   midi.NoteOffEvent(tick=48, channel=5, data=[74, 64]),\n",
      "   midi.NoteOnEvent(tick=0, channel=5, data=[76, 100]),\n",
      "   midi.NoteOffEvent(tick=48, channel=5, data=[76, 64]),\n",
      "   midi.NoteOnEvent(tick=0, channel=5, data=[78, 100]),\n",
      "   midi.NoteOffEvent(tick=256, channel=5, data=[78, 64]),\n",
      "   midi.NoteOnEvent(tick=32, channel=5, data=[76, 100]),\n",
      "   midi.NoteOffEvent(tick=48, channel=5, data=[76, 64]),\n",
      "   midi.NoteOnEvent(tick=0, channel=5, data=[78, 100]),\n",
      "   midi.NoteOffEvent(tick=48, channel=5, data=[78, 64]),\n",
      "   midi.NoteOnEvent(tick=0, channel=5, data=[79, 100]),\n",
      "   midi.NoteOffEvent(tick=256, channel=5, data=[79, 64]),\n",
      "   midi.NoteOnEvent(tick=32, channel=5, data=[78, 100]),\n",
      "   midi.NoteOffEvent(tick=192, channel=5, data=[78, 64]),\n",
      "   midi.NoteOnEvent(tick=0, channel=5, data=[76, 100]),\n",
      "   midi.NoteOffEvent(tick=192, channel=5, data=[76, 64]),\n",
      "   midi.NoteOnEvent(tick=0, channel=5, data=[74, 100]),\n",
      "   midi.NoteOffEvent(tick=384, channel=5, data=[74, 64]),\n",
      "   midi.NoteOnEvent(tick=0, channel=5, data=[69, 100]),\n",
      "   midi.NoteOffEvent(tick=96, channel=5, data=[69, 64]),\n",
      "   midi.NoteOnEvent(tick=0, channel=5, data=[71, 100]),\n",
      "   midi.NoteOffEvent(tick=96, channel=5, data=[71, 64]),\n",
      "   midi.NoteOnEvent(tick=0, channel=5, data=[72, 100]),\n",
      "   midi.NoteOffEvent(tick=96, channel=5, data=[72, 64]),\n",
      "   midi.NoteOnEvent(tick=96, channel=5, data=[72, 100]),\n",
      "   midi.NoteOffEvent(tick=96, channel=5, data=[72, 64]),\n",
      "   midi.NoteOnEvent(tick=96, channel=5, data=[72, 100]),\n",
      "   midi.NoteOffEvent(tick=96, channel=5, data=[72, 64]),\n",
      "   midi.NoteOnEvent(tick=96, channel=5, data=[72, 100]),\n",
      "   midi.NoteOffEvent(tick=192, channel=5, data=[72, 64]),\n",
      "   midi.NoteOnEvent(tick=0, channel=5, data=[69, 100]),\n",
      "   midi.NoteOffEvent(tick=192, channel=5, data=[69, 64]),\n",
      "   midi.NoteOnEvent(tick=0, channel=5, data=[74, 100]),\n",
      "   midi.NoteOffEvent(tick=576, channel=5, data=[74, 64]),\n",
      "   midi.NoteOnEvent(tick=0, channel=5, data=[79, 100]),\n",
      "   midi.NoteOffEvent(tick=384, channel=5, data=[79, 64]),\n",
      "   midi.NoteOnEvent(tick=0, channel=5, data=[78, 100]),\n",
      "   midi.NoteOffEvent(tick=192, channel=5, data=[78, 64]),\n",
      "   midi.NoteOnEvent(tick=0, channel=5, data=[79, 100]),\n",
      "   midi.NoteOffEvent(tick=192, channel=5, data=[79, 64]),\n",
      "   midi.NoteOnEvent(tick=0, channel=5, data=[78, 100]),\n",
      "   midi.NoteOffEvent(tick=96, channel=5, data=[78, 64]),\n",
      "   midi.NoteOnEvent(tick=0, channel=5, data=[76, 100]),\n",
      "   midi.NoteOffEvent(tick=96, channel=5, data=[76, 64]),\n",
      "   midi.NoteOnEvent(tick=0, channel=5, data=[74, 100]),\n",
      "   midi.NoteOffEvent(tick=576, channel=5, data=[74, 64]),\n",
      "   midi.NoteOnEvent(tick=0, channel=5, data=[74, 100]),\n",
      "   midi.NoteOffEvent(tick=384, channel=5, data=[74, 64]),\n",
      "   midi.NoteOnEvent(tick=0, channel=5, data=[74, 100]),\n",
      "   midi.NoteOffEvent(tick=192, channel=5, data=[74, 64]),\n",
      "   midi.NoteOnEvent(tick=0, channel=5, data=[73, 100]),\n",
      "   midi.NoteOffEvent(tick=96, channel=5, data=[73, 64]),\n",
      "   midi.NoteOnEvent(tick=0, channel=5, data=[71, 100]),\n",
      "   midi.NoteOffEvent(tick=96, channel=5, data=[71, 64]),\n",
      "   midi.NoteOnEvent(tick=0, channel=5, data=[69, 100]),\n",
      "   midi.NoteOffEvent(tick=96, channel=5, data=[69, 64]),\n",
      "   midi.NoteOnEvent(tick=0, channel=5, data=[71, 100]),\n",
      "   midi.NoteOffEvent(tick=96, channel=5, data=[71, 64]),\n",
      "   midi.NoteOnEvent(tick=0, channel=5, data=[73, 100]),\n",
      "   midi.NoteOffEvent(tick=192, channel=5, data=[73, 64]),\n",
      "   midi.NoteOnEvent(tick=0, channel=5, data=[74, 100]),\n",
      "   midi.NoteOffEvent(tick=192, channel=5, data=[74, 64]),\n",
      "   midi.NoteOnEvent(tick=0, channel=5, data=[73, 100]),\n",
      "   midi.NoteOffEvent(tick=96, channel=5, data=[73, 64]),\n",
      "   midi.NoteOnEvent(tick=0, channel=5, data=[71, 100]),\n",
      "   midi.NoteOffEvent(tick=96, channel=5, data=[71, 64]),\n",
      "   midi.NoteOnEvent(tick=0, channel=5, data=[73, 100]),\n",
      "   midi.NoteOffEvent(tick=96, channel=5, data=[73, 64]),\n",
      "   midi.NoteOnEvent(tick=0, channel=5, data=[74, 100]),\n",
      "   midi.NoteOffEvent(tick=96, channel=5, data=[74, 64]),\n",
      "   midi.NoteOnEvent(tick=0, channel=5, data=[76, 100]),\n",
      "   midi.NoteOffEvent(tick=192, channel=5, data=[76, 64]),\n",
      "   midi.NoteOnEvent(tick=0, channel=5, data=[78, 100]),\n",
      "   midi.NoteOffEvent(tick=192, channel=5, data=[78, 64]),\n",
      "   midi.NoteOnEvent(tick=0, channel=5, data=[76, 100]),\n",
      "   midi.NoteOffEvent(tick=96, channel=5, data=[76, 64]),\n",
      "   midi.NoteOnEvent(tick=0, channel=5, data=[74, 100]),\n",
      "   midi.NoteOffEvent(tick=96, channel=5, data=[74, 64]),\n",
      "   midi.NoteOnEvent(tick=0, channel=5, data=[73, 100]),\n",
      "   midi.NoteOffEvent(tick=96, channel=5, data=[73, 64]),\n",
      "   midi.NoteOnEvent(tick=0, channel=5, data=[74, 100]),\n",
      "   midi.NoteOffEvent(tick=96, channel=5, data=[74, 64]),\n",
      "   midi.NoteOnEvent(tick=0, channel=5, data=[76, 100]),\n",
      "   midi.NoteOffEvent(tick=96, channel=5, data=[76, 64]),\n",
      "   midi.NoteOnEvent(tick=0, channel=5, data=[79, 100]),\n",
      "   midi.NoteOffEvent(tick=96, channel=5, data=[79, 64]),\n",
      "   midi.NoteOnEvent(tick=0, channel=5, data=[78, 100]),\n",
      "   midi.NoteOffEvent(tick=96, channel=5, data=[78, 64]),\n",
      "   midi.NoteOnEvent(tick=0, channel=5, data=[76, 100]),\n",
      "   midi.NoteOffEvent(tick=96, channel=5, data=[76, 64]),\n",
      "   midi.NoteOnEvent(tick=0, channel=5, data=[74, 100]),\n",
      "   midi.NoteOffEvent(tick=96, channel=5, data=[74, 64]),\n",
      "   midi.NoteOnEvent(tick=0, channel=5, data=[76, 100]),\n",
      "   midi.NoteOffEvent(tick=96, channel=5, data=[76, 64]),\n",
      "   midi.NoteOnEvent(tick=0, channel=5, data=[78, 100]),\n",
      "   midi.NoteOffEvent(tick=384, channel=5, data=[78, 64]),\n",
      "   midi.NoteOnEvent(tick=0, channel=5, data=[79, 100]),\n",
      "   midi.NoteOffEvent(tick=192, channel=5, data=[79, 64]),\n",
      "   midi.NoteOnEvent(tick=0, channel=5, data=[78, 100]),\n",
      "   midi.NoteOffEvent(tick=96, channel=5, data=[78, 64]),\n",
      "   midi.NoteOnEvent(tick=0, channel=5, data=[76, 100]),\n",
      "   midi.NoteOffEvent(tick=96, channel=5, data=[76, 64]),\n",
      "   midi.NoteOnEvent(tick=0, channel=5, data=[78, 100]),\n",
      "   midi.NoteOffEvent(tick=96, channel=5, data=[78, 64]),\n",
      "   midi.NoteOnEvent(tick=0, channel=5, data=[79, 100]),\n",
      "   midi.NoteOffEvent(tick=96, channel=5, data=[79, 64]),\n",
      "   midi.NoteOnEvent(tick=0, channel=5, data=[81, 100]),\n",
      "   midi.NoteOffEvent(tick=192, channel=5, data=[81, 64]),\n",
      "   midi.NoteOnEvent(tick=0, channel=5, data=[74, 100]),\n",
      "   midi.NoteOffEvent(tick=192, channel=5, data=[74, 64]),\n",
      "   midi.NoteOnEvent(tick=0, channel=5, data=[76, 100]),\n",
      "   midi.NoteOffEvent(tick=384, channel=5, data=[76, 64]),\n",
      "   midi.NoteOnEvent(tick=0, channel=5, data=[73, 100]),\n",
      "   midi.NoteOffEvent(tick=384, channel=5, data=[73, 64]),\n",
      "   midi.NoteOnEvent(tick=0, channel=5, data=[74, 100]),\n",
      "   midi.NoteOffEvent(tick=384, channel=5, data=[74, 64]),\n",
      "   midi.EndOfTrackEvent(tick=0, data=[])]),\n",
      " midi.Track(\\\n",
      "  [midi.TrackNameEvent(tick=0, text='Alto', data=[65, 108, 116, 111]),\n",
      "   midi.ControlChangeEvent(tick=0, channel=5, data=[0, 0]),\n",
      "   midi.ProgramChangeEvent(tick=0, channel=5, data=[65]),\n",
      "   midi.ControlChangeEvent(tick=0, channel=5, data=[7, 127]),\n",
      "   midi.ControlChangeEvent(tick=0, channel=5, data=[10, 62]),\n",
      "   midi.ControlChangeEvent(tick=0, channel=5, data=[91, 127]),\n",
      "   midi.ControlChangeEvent(tick=0, channel=5, data=[93, 127]),\n",
      "   midi.KeySignatureEvent(tick=0, data=[2, 0]),\n",
      "   midi.NoteOnEvent(tick=25344, channel=5, data=[69, 100]),\n",
      "   midi.NoteOffEvent(tick=384, channel=5, data=[69, 64]),\n",
      "   midi.NoteOnEvent(tick=0, channel=5, data=[66, 100]),\n",
      "   midi.NoteOffEvent(tick=384, channel=5, data=[66, 64]),\n",
      "   midi.NoteOnEvent(tick=0, channel=5, data=[62, 100]),\n",
      "   midi.NoteOffEvent(tick=512, channel=5, data=[62, 64]),\n",
      "   midi.NoteOnEvent(tick=64, channel=5, data=[66, 100]),\n",
      "   midi.NoteOffEvent(tick=192, channel=5, data=[66, 64]),\n",
      "   midi.NoteOnEvent(tick=0, channel=5, data=[69, 100]),\n",
      "   midi.NoteOffEvent(tick=192, channel=5, data=[69, 64]),\n",
      "   midi.NoteOnEvent(tick=0, channel=5, data=[67, 100]),\n",
      "   midi.NoteOffEvent(tick=192, channel=5, data=[67, 64]),\n",
      "   midi.NoteOnEvent(tick=0, channel=5, data=[66, 100]),\n",
      "   midi.NoteOffEvent(tick=192, channel=5, data=[66, 64]),\n",
      "   midi.NoteOnEvent(tick=0, channel=5, data=[69, 100]),\n",
      "   midi.NoteOffEvent(tick=192, channel=5, data=[69, 64]),\n",
      "   midi.NoteOnEvent(tick=0, channel=5, data=[67, 100]),\n",
      "   midi.NoteOffEvent(tick=192, channel=5, data=[67, 64]),\n",
      "   midi.NoteOnEvent(tick=0, channel=5, data=[66, 100]),\n",
      "   midi.NoteOffEvent(tick=192, channel=5, data=[66, 64]),\n",
      "   midi.NoteOnEvent(tick=0, channel=5, data=[67, 100]),\n",
      "   midi.NoteOffEvent(tick=192, channel=5, data=[67, 64]),\n",
      "   midi.NoteOnEvent(tick=0, channel=5, data=[62, 100]),\n",
      "   midi.NoteOffEvent(tick=192, channel=5, data=[62, 64]),\n",
      "   midi.NoteOnEvent(tick=0, channel=5, data=[67, 100]),\n",
      "   midi.NoteOffEvent(tick=384, channel=5, data=[67, 64]),\n",
      "   midi.NoteOnEvent(tick=0, channel=5, data=[67, 100]),\n",
      "   midi.NoteOffEvent(tick=384, channel=5, data=[67, 64]),\n",
      "   midi.NoteOnEvent(tick=0, channel=5, data=[67, 100]),\n",
      "   midi.NoteOffEvent(tick=512, channel=5, data=[67, 64]),\n",
      "   midi.NoteOnEvent(tick=64, channel=5, data=[66, 100]),\n",
      "   midi.NoteOffEvent(tick=96, channel=5, data=[66, 64]),\n",
      "   midi.NoteOnEvent(tick=0, channel=5, data=[64, 100]),\n",
      "   midi.NoteOffEvent(tick=96, channel=5, data=[64, 64]),\n",
      "   midi.NoteOnEvent(tick=0, channel=5, data=[69, 100]),\n",
      "   midi.NoteOffEvent(tick=192, channel=5, data=[69, 64]),\n",
      "   midi.NoteOnEvent(tick=0, channel=5, data=[66, 100]),\n",
      "   midi.NoteOffEvent(tick=192, channel=5, data=[66, 64]),\n",
      "   midi.NoteOnEvent(tick=0, channel=5, data=[71, 100]),\n",
      "   midi.NoteOffEvent(tick=192, channel=5, data=[71, 64]),\n",
      "   midi.NoteOnEvent(tick=0, channel=5, data=[69, 100]),\n",
      "   midi.NoteOffEvent(tick=384, channel=5, data=[69, 64]),\n",
      "   midi.NoteOnEvent(tick=0, channel=5, data=[67, 100]),\n",
      "   midi.NoteOffEvent(tick=192, channel=5, data=[67, 64]),\n",
      "   midi.NoteOnEvent(tick=0, channel=5, data=[66, 100]),\n",
      "   midi.NoteOffEvent(tick=384, channel=5, data=[66, 64]),\n",
      "   midi.NoteOnEvent(tick=1536, channel=5, data=[74, 100]),\n",
      "   midi.NoteOffEvent(tick=192, channel=5, data=[74, 64]),\n",
      "   midi.NoteOnEvent(tick=0, channel=5, data=[73, 100]),\n",
      "   midi.NoteOffEvent(tick=96, channel=5, data=[73, 64]),\n",
      "   midi.NoteOnEvent(tick=0, channel=5, data=[71, 100]),\n",
      "   midi.NoteOffEvent(tick=96, channel=5, data=[71, 64]),\n",
      "   midi.NoteOnEvent(tick=0, channel=5, data=[69, 100]),\n",
      "   midi.NoteOffEvent(tick=96, channel=5, data=[69, 64]),\n",
      "   midi.NoteOnEvent(tick=0, channel=5, data=[67, 100]),\n",
      "   midi.NoteOffEvent(tick=96, channel=5, data=[67, 64]),\n",
      "   midi.NoteOnEvent(tick=0, channel=5, data=[66, 100]),\n",
      "   midi.NoteOffEvent(tick=96, channel=5, data=[66, 64]),\n",
      "   midi.NoteOnEvent(tick=0, channel=5, data=[64, 100]),\n",
      "   midi.NoteOffEvent(tick=96, channel=5, data=[64, 64]),\n",
      "   midi.NoteOnEvent(tick=0, channel=5, data=[62, 100]),\n",
      "   midi.NoteOffEvent(tick=192, channel=5, data=[62, 64]),\n",
      "   midi.NoteOnEvent(tick=0, channel=5, data=[57, 100]),\n",
      "   midi.NoteOffEvent(tick=192, channel=5, data=[57, 64]),\n",
      "   midi.NoteOnEvent(tick=0, channel=5, data=[69, 100]),\n",
      "   midi.NoteOffEvent(tick=480, channel=5, data=[69, 64]),\n",
      "   midi.NoteOnEvent(tick=0, channel=5, data=[67, 100]),\n",
      "   midi.NoteOffEvent(tick=96, channel=5, data=[67, 64]),\n",
      "   midi.NoteOnEvent(tick=0, channel=5, data=[66, 100]),\n",
      "   midi.NoteOffEvent(tick=96, channel=5, data=[66, 64]),\n",
      "   midi.NoteOnEvent(tick=0, channel=5, data=[67, 100]),\n",
      "   midi.NoteOffEvent(tick=96, channel=5, data=[67, 64]),\n",
      "   midi.NoteOnEvent(tick=0, channel=5, data=[69, 100]),\n",
      "   midi.NoteOffEvent(tick=192, channel=5, data=[69, 64]),\n",
      "   midi.NoteOnEvent(tick=0, channel=5, data=[66, 100]),\n",
      "   midi.NoteOffEvent(tick=192, channel=5, data=[66, 64]),\n",
      "   midi.NoteOnEvent(tick=0, channel=5, data=[66, 100]),\n",
      "   midi.NoteOffEvent(tick=192, channel=5, data=[66, 64]),\n",
      "   midi.NoteOnEvent(tick=0, channel=5, data=[62, 100]),\n",
      "   midi.NoteOffEvent(tick=192, channel=5, data=[62, 64]),\n",
      "   midi.NoteOnEvent(tick=0, channel=5, data=[62, 100]),\n",
      "   midi.NoteOffEvent(tick=192, channel=5, data=[62, 64]),\n",
      "   midi.NoteOnEvent(tick=0, channel=5, data=[71, 100]),\n",
      "   midi.NoteOffEvent(tick=192, channel=5, data=[71, 64]),\n",
      "   midi.NoteOnEvent(tick=0, channel=5, data=[71, 100]),\n",
      "   midi.NoteOffEvent(tick=512, channel=5, data=[71, 64]),\n",
      "   midi.NoteOnEvent(tick=64, channel=5, data=[67, 100]),\n",
      "   midi.NoteOffEvent(tick=192, channel=5, data=[67, 64]),\n",
      "   midi.NoteOnEvent(tick=0, channel=5, data=[64, 100]),\n",
      "   midi.NoteOffEvent(tick=384, channel=5, data=[64, 64]),\n",
      "   midi.NoteOnEvent(tick=0, channel=5, data=[64, 100]),\n",
      "   midi.NoteOffEvent(tick=384, channel=5, data=[64, 64]),\n",
      "   midi.NoteOnEvent(tick=1152, channel=5, data=[71, 100]),\n",
      "   midi.NoteOffEvent(tick=576, channel=5, data=[71, 64]),\n",
      "   midi.NoteOnEvent(tick=0, channel=5, data=[64, 100]),\n",
      "   midi.NoteOffEvent(tick=192, channel=5, data=[64, 64]),\n",
      "   midi.NoteOnEvent(tick=0, channel=5, data=[64, 100]),\n",
      "   midi.NoteOffEvent(tick=192, channel=5, data=[64, 64]),\n",
      "   midi.NoteOnEvent(tick=0, channel=5, data=[66, 100]),\n",
      "   midi.NoteOffEvent(tick=96, channel=5, data=[66, 64]),\n",
      "   midi.NoteOnEvent(tick=0, channel=5, data=[68, 100]),\n",
      "   midi.NoteOffEvent(tick=96, channel=5, data=[68, 64]),\n",
      "   midi.NoteOnEvent(tick=0, channel=5, data=[69, 100]),\n",
      "   midi.NoteOffEvent(tick=192, channel=5, data=[69, 64]),\n",
      "   midi.NoteOnEvent(tick=0, channel=5, data=[57, 100]),\n",
      "   midi.NoteOffEvent(tick=192, channel=5, data=[57, 64]),\n",
      "   midi.NoteOnEvent(tick=0, channel=5, data=[69, 100]),\n",
      "   midi.NoteOffEvent(tick=576, channel=5, data=[69, 64]),\n",
      "   midi.NoteOnEvent(tick=0, channel=5, data=[66, 100]),\n",
      "   midi.NoteOffEvent(tick=192, channel=5, data=[66, 64]),\n",
      "   midi.NoteOnEvent(tick=0, channel=5, data=[68, 100]),\n",
      "   midi.NoteOffEvent(tick=192, channel=5, data=[68, 64]),\n",
      "   midi.NoteOnEvent(tick=0, channel=5, data=[69, 100]),\n",
      "   midi.NoteOffEvent(tick=192, channel=5, data=[69, 64]),\n",
      "   midi.NoteOnEvent(tick=0, channel=5, data=[71, 100]),\n",
      "   midi.NoteOffEvent(tick=512, channel=5, data=[71, 64]),\n",
      "   midi.NoteOnEvent(tick=64, channel=5, data=[69, 100]),\n",
      "   midi.NoteOffEvent(tick=96, channel=5, data=[69, 64]),\n",
      "   midi.NoteOnEvent(tick=0, channel=5, data=[68, 100]),\n",
      "   midi.NoteOffEvent(tick=96, channel=5, data=[68, 64]),\n",
      "   midi.NoteOnEvent(tick=0, channel=5, data=[69, 100]),\n",
      "   midi.NoteOffEvent(tick=192, channel=5, data=[69, 64]),\n",
      "   midi.NoteOnEvent(tick=0, channel=5, data=[64, 100]),\n",
      "   midi.NoteOffEvent(tick=192, channel=5, data=[64, 64]),\n",
      "   midi.NoteOnEvent(tick=0, channel=5, data=[64, 100]),\n",
      "   midi.NoteOffEvent(tick=384, channel=5, data=[64, 64]),\n",
      "   midi.NoteOnEvent(tick=0, channel=5, data=[64, 100]),\n",
      "   midi.NoteOffEvent(tick=384, channel=5, data=[64, 64]),\n",
      "   midi.NoteOnEvent(tick=384, channel=5, data=[68, 100]),\n",
      "   midi.NoteOffEvent(tick=96, channel=5, data=[68, 64]),\n",
      "   midi.NoteOnEvent(tick=0, channel=5, data=[69, 100]),\n",
      "   midi.NoteOffEvent(tick=96, channel=5, data=[69, 64]),\n",
      "   midi.NoteOnEvent(tick=0, channel=5, data=[71, 100]),\n",
      "   midi.NoteOffEvent(tick=96, channel=5, data=[71, 64]),\n",
      "   midi.NoteOnEvent(tick=96, channel=5, data=[71, 100]),\n",
      "   midi.NoteOffEvent(tick=96, channel=5, data=[71, 64]),\n",
      "   midi.NoteOnEvent(tick=96, channel=5, data=[71, 100]),\n",
      "   midi.NoteOffEvent(tick=96, channel=5, data=[71, 64]),\n",
      "   midi.NoteOnEvent(tick=96, channel=5, data=[71, 100]),\n",
      "   midi.NoteOffEvent(tick=384, channel=5, data=[71, 64]),\n",
      "   midi.NoteOnEvent(tick=192, channel=5, data=[64, 100]),\n",
      "   midi.NoteOffEvent(tick=192, channel=5, data=[64, 64]),\n",
      "   midi.NoteOnEvent(tick=0, channel=5, data=[69, 100]),\n",
      "   midi.NoteOffEvent(tick=48, channel=5, data=[69, 64]),\n",
      "   midi.NoteOnEvent(tick=0, channel=5, data=[71, 100]),\n",
      "   midi.NoteOffEvent(tick=48, channel=5, data=[71, 64]),\n",
      "   midi.NoteOnEvent(tick=0, channel=5, data=[73, 100]),\n",
      "   midi.NoteOffEvent(tick=256, channel=5, data=[73, 64]),\n",
      "   midi.NoteOnEvent(tick=32, channel=5, data=[71, 100]),\n",
      "   midi.NoteOffEvent(tick=48, channel=5, data=[71, 64]),\n",
      "   midi.NoteOnEvent(tick=0, channel=5, data=[73, 100]),\n",
      "   midi.NoteOffEvent(tick=48, channel=5, data=[73, 64]),\n",
      "   midi.NoteOnEvent(tick=0, channel=5, data=[74, 100]),\n",
      "   midi.NoteOffEvent(tick=256, channel=5, data=[74, 64]),\n",
      "   midi.NoteOnEvent(tick=32, channel=5, data=[73, 100]),\n",
      "   midi.NoteOffEvent(tick=192, channel=5, data=[73, 64]),\n",
      "   midi.NoteOnEvent(tick=0, channel=5, data=[71, 100]),\n",
      "   midi.NoteOffEvent(tick=192, channel=5, data=[71, 64]),\n",
      "   midi.NoteOnEvent(tick=0, channel=5, data=[69, 100]),\n",
      "   midi.NoteOffEvent(tick=384, channel=5, data=[69, 64]),\n",
      "   midi.NoteOnEvent(tick=0, channel=5, data=[64, 100]),\n",
      "   midi.NoteOffEvent(tick=96, channel=5, data=[64, 64]),\n",
      "   midi.NoteOnEvent(tick=0, channel=5, data=[66, 100]),\n",
      "   midi.NoteOffEvent(tick=96, channel=5, data=[66, 64]),\n",
      "   midi.NoteOnEvent(tick=0, channel=5, data=[67, 100]),\n",
      "   midi.NoteOffEvent(tick=96, channel=5, data=[67, 64]),\n",
      "   midi.NoteOnEvent(tick=96, channel=5, data=[67, 100]),\n",
      "   midi.NoteOffEvent(tick=96, channel=5, data=[67, 64]),\n",
      "   midi.NoteOnEvent(tick=96, channel=5, data=[67, 100]),\n",
      "   midi.NoteOffEvent(tick=96, channel=5, data=[67, 64]),\n",
      "   midi.NoteOnEvent(tick=96, channel=5, data=[67, 100]),\n",
      "   midi.NoteOffEvent(tick=192, channel=5, data=[67, 64]),\n",
      "   midi.NoteOnEvent(tick=0, channel=5, data=[64, 100]),\n",
      "   midi.NoteOffEvent(tick=192, channel=5, data=[64, 64]),\n",
      "   midi.NoteOnEvent(tick=0, channel=5, data=[69, 100]),\n",
      "   midi.NoteOffEvent(tick=576, channel=5, data=[69, 64]),\n",
      "   midi.NoteOnEvent(tick=0, channel=5, data=[62, 100]),\n",
      "   midi.NoteOffEvent(tick=192, channel=5, data=[62, 64]),\n",
      "   midi.NoteOnEvent(tick=0, channel=5, data=[62, 100]),\n",
      "   midi.NoteOffEvent(tick=192, channel=5, data=[62, 64]),\n",
      "   midi.NoteOnEvent(tick=0, channel=5, data=[61, 100]),\n",
      "   midi.NoteOffEvent(tick=192, channel=5, data=[61, 64]),\n",
      "   midi.NoteOnEvent(tick=0, channel=5, data=[62, 100]),\n",
      "   midi.NoteOffEvent(tick=192, channel=5, data=[62, 64]),\n",
      "   midi.NoteOnEvent(tick=0, channel=5, data=[57, 100]),\n",
      "   midi.NoteOffEvent(tick=192, channel=5, data=[57, 64]),\n",
      "   midi.NoteOnEvent(tick=0, channel=5, data=[62, 100]),\n",
      "   midi.NoteOffEvent(tick=192, channel=5, data=[62, 64]),\n",
      "   midi.NoteOnEvent(tick=0, channel=5, data=[64, 100]),\n",
      "   midi.NoteOffEvent(tick=192, channel=5, data=[64, 64]),\n",
      "   midi.NoteOnEvent(tick=0, channel=5, data=[66, 100]),\n",
      "   midi.NoteOffEvent(tick=192, channel=5, data=[66, 64]),\n",
      "   midi.NoteOnEvent(tick=0, channel=5, data=[64, 100]),\n",
      "   midi.NoteOffEvent(tick=192, channel=5, data=[64, 64]),\n",
      "   midi.NoteOnEvent(tick=0, channel=5, data=[66, 100]),\n",
      "   midi.NoteOffEvent(tick=192, channel=5, data=[66, 64]),\n",
      "   midi.NoteOnEvent(tick=0, channel=5, data=[69, 100]),\n",
      "   midi.NoteOffEvent(tick=192, channel=5, data=[69, 64]),\n",
      "   midi.NoteOnEvent(tick=0, channel=5, data=[68, 100]),\n",
      "   midi.NoteOffEvent(tick=512, channel=5, data=[68, 64]),\n",
      "   midi.NoteOnEvent(tick=64, channel=5, data=[69, 100]),\n",
      "   midi.NoteOffEvent(tick=192, channel=5, data=[69, 64]),\n",
      "   midi.NoteOnEvent(tick=0, channel=5, data=[68, 100]),\n",
      "   midi.NoteOffEvent(tick=192, channel=5, data=[68, 64]),\n",
      "   midi.NoteOnEvent(tick=0, channel=5, data=[66, 100]),\n",
      "   midi.NoteOffEvent(tick=192, channel=5, data=[66, 64]),\n",
      "   midi.NoteOnEvent(tick=0, channel=5, data=[71, 100]),\n",
      "   midi.NoteOffEvent(tick=192, channel=5, data=[71, 64]),\n",
      "   midi.NoteOnEvent(tick=0, channel=5, data=[69, 100]),\n",
      "   midi.NoteOffEvent(tick=192, channel=5, data=[69, 64]),\n",
      "   midi.NoteOnEvent(tick=0, channel=5, data=[71, 100]),\n",
      "   midi.NoteOffEvent(tick=512, channel=5, data=[71, 64]),\n",
      "   midi.NoteOnEvent(tick=64, channel=5, data=[68, 100]),\n",
      "   midi.NoteOffEvent(tick=192, channel=5, data=[68, 64]),\n",
      "   midi.NoteOnEvent(tick=0, channel=5, data=[69, 100]),\n",
      "   midi.NoteOffEvent(tick=96, channel=5, data=[69, 64]),\n",
      "   midi.NoteOnEvent(tick=0, channel=5, data=[71, 100]),\n",
      "   midi.NoteOffEvent(tick=96, channel=5, data=[71, 64]),\n",
      "   midi.NoteOnEvent(tick=0, channel=5, data=[73, 100]),\n",
      "   midi.NoteOffEvent(tick=384, channel=5, data=[73, 64]),\n",
      "   midi.NoteOnEvent(tick=0, channel=5, data=[74, 100]),\n",
      "   midi.NoteOffEvent(tick=192, channel=5, data=[74, 64]),\n",
      "   midi.NoteOnEvent(tick=0, channel=5, data=[73, 100]),\n",
      "   midi.NoteOffEvent(tick=512, channel=5, data=[73, 64]),\n",
      "   midi.NoteOnEvent(tick=64, channel=5, data=[61, 100]),\n",
      "   midi.NoteOffEvent(tick=192, channel=5, data=[61, 64]),\n",
      "   midi.NoteOnEvent(tick=0, channel=5, data=[66, 100]),\n",
      "   midi.NoteOffEvent(tick=192, channel=5, data=[66, 64]),\n",
      "   midi.NoteOnEvent(tick=0, channel=5, data=[59, 100]),\n",
      "   midi.NoteOffEvent(tick=384, channel=5, data=[59, 64]),\n",
      "   midi.NoteOnEvent(tick=0, channel=5, data=[64, 100]),\n",
      "   midi.NoteOffEvent(tick=192, channel=5, data=[64, 64]),\n",
      "   midi.NoteOnEvent(tick=0, channel=5, data=[64, 100]),\n",
      "   midi.NoteOffEvent(tick=384, channel=5, data=[64, 64]),\n",
      "   midi.NoteOnEvent(tick=12672, channel=5, data=[69, 100]),\n",
      "   midi.NoteOffEvent(tick=384, channel=5, data=[69, 64]),\n",
      "   midi.NoteOnEvent(tick=384, channel=5, data=[68, 100]),\n",
      "   midi.NoteOffEvent(tick=384, channel=5, data=[68, 64]),\n",
      "   midi.NoteOnEvent(tick=192, channel=5, data=[65, 100]),\n",
      "   midi.NoteOffEvent(tick=192, channel=5, data=[65, 64]),\n",
      "   midi.NoteOnEvent(tick=0, channel=5, data=[66, 100]),\n",
      "   midi.NoteOffEvent(tick=192, channel=5, data=[66, 64]),\n",
      "   midi.NoteOnEvent(tick=0, channel=5, data=[66, 100]),\n",
      "   midi.NoteOffEvent(tick=192, channel=5, data=[66, 64]),\n",
      "   midi.NoteOnEvent(tick=0, channel=5, data=[66, 100]),\n",
      "   midi.NoteOffEvent(tick=192, channel=5, data=[66, 64]),\n",
      "   midi.NoteOnEvent(tick=0, channel=5, data=[65, 100]),\n",
      "   midi.NoteOffEvent(tick=192, channel=5, data=[65, 64]),\n",
      "   midi.NoteOnEvent(tick=0, channel=5, data=[66, 100]),\n",
      "   midi.NoteOffEvent(tick=384, channel=5, data=[66, 64]),\n",
      "   midi.NoteOnEvent(tick=0, channel=5, data=[61, 100]),\n",
      "   midi.NoteOffEvent(tick=192, channel=5, data=[61, 64]),\n",
      "   midi.NoteOnEvent(tick=576, channel=5, data=[71, 100]),\n",
      "   midi.NoteOffEvent(tick=384, channel=5, data=[71, 64]),\n",
      "   midi.NoteOnEvent(tick=192, channel=5, data=[70, 100]),\n",
      "   midi.NoteOffEvent(tick=192, channel=5, data=[70, 64]),\n",
      "   midi.NoteOnEvent(tick=0, channel=5, data=[73, 100]),\n",
      "   midi.NoteOffEvent(tick=192, channel=5, data=[73, 64]),\n",
      "   midi.NoteOnEvent(tick=0, channel=5, data=[66, 100]),\n",
      "   midi.NoteOffEvent(tick=384, channel=5, data=[66, 64]),\n",
      "   midi.NoteOnEvent(tick=0, channel=5, data=[71, 100]),\n",
      "   midi.NoteOffEvent(tick=192, channel=5, data=[71, 64]),\n",
      "   midi.NoteOnEvent(tick=0, channel=5, data=[71, 100]),\n",
      "   midi.NoteOffEvent(tick=192, channel=5, data=[71, 64]),\n",
      "   midi.NoteOnEvent(tick=0, channel=5, data=[70, 100]),\n",
      "   midi.NoteOffEvent(tick=192, channel=5, data=[70, 64]),\n",
      "   midi.NoteOnEvent(tick=0, channel=5, data=[71, 100]),\n",
      "   midi.NoteOffEvent(tick=384, channel=5, data=[71, 64]),\n",
      "   midi.NoteOnEvent(tick=0, channel=5, data=[66, 100]),\n",
      "   midi.NoteOffEvent(tick=384, channel=5, data=[66, 64]),\n",
      "   midi.NoteOnEvent(tick=384, channel=5, data=[71, 100]),\n",
      "   midi.NoteOffEvent(tick=576, channel=5, data=[71, 64]),\n",
      "   midi.NoteOnEvent(tick=0, channel=5, data=[64, 100]),\n",
      "   midi.NoteOffEvent(tick=192, channel=5, data=[64, 64]),\n",
      "   midi.NoteOnEvent(tick=0, channel=5, data=[69, 100]),\n",
      "   midi.NoteOffEvent(tick=192, channel=5, data=[69, 64]),\n",
      "   midi.NoteOnEvent(tick=0, channel=5, data=[71, 100]),\n",
      "   midi.NoteOffEvent(tick=96, channel=5, data=[71, 64]),\n",
      "   midi.NoteOnEvent(tick=0, channel=5, data=[73, 100]),\n",
      "   midi.NoteOffEvent(tick=96, channel=5, data=[73, 64]),\n",
      "   midi.NoteOnEvent(tick=0, channel=5, data=[74, 100]),\n",
      "   midi.NoteOffEvent(tick=192, channel=5, data=[74, 64]),\n",
      "   midi.NoteOnEvent(tick=0, channel=5, data=[66, 100]),\n",
      "   midi.NoteOffEvent(tick=192, channel=5, data=[66, 64]),\n",
      "   midi.NoteOnEvent(tick=0, channel=5, data=[69, 100]),\n",
      "   midi.NoteOffEvent(tick=192, channel=5, data=[69, 64]),\n",
      "   midi.NoteOnEvent(tick=0, channel=5, data=[66, 100]),\n",
      "   midi.NoteOffEvent(tick=192, channel=5, data=[66, 64]),\n",
      "   midi.NoteOnEvent(tick=0, channel=5, data=[62, 100]),\n",
      "   midi.NoteOffEvent(tick=384, channel=5, data=[62, 64]),\n",
      "   midi.NoteOnEvent(tick=192, channel=5, data=[71, 100]),\n",
      "   midi.NoteOffEvent(tick=192, channel=5, data=[71, 64]),\n",
      "   midi.NoteOnEvent(tick=0, channel=5, data=[70, 100]),\n",
      "   midi.NoteOffEvent(tick=192, channel=5, data=[70, 64]),\n",
      "   midi.NoteOnEvent(tick=0, channel=5, data=[71, 100]),\n",
      "   midi.NoteOffEvent(tick=192, channel=5, data=[71, 64]),\n",
      "   midi.NoteOnEvent(tick=0, channel=5, data=[73, 100]),\n",
      "   midi.NoteOffEvent(tick=576, channel=5, data=[73, 64]),\n",
      "   midi.NoteOnEvent(tick=0, channel=5, data=[70, 100]),\n",
      "   midi.NoteOffEvent(tick=192, channel=5, data=[70, 64]),\n",
      "   midi.NoteOnEvent(tick=0, channel=5, data=[71, 100]),\n",
      "   midi.NoteOffEvent(tick=192, channel=5, data=[71, 64]),\n",
      "   midi.NoteOnEvent(tick=0, channel=5, data=[66, 100]),\n",
      "   midi.NoteOffEvent(tick=192, channel=5, data=[66, 64]),\n",
      "   midi.NoteOnEvent(tick=0, channel=5, data=[66, 100]),\n",
      "   midi.NoteOffEvent(tick=192, channel=5, data=[66, 64]),\n",
      "   midi.NoteOnEvent(tick=0, channel=5, data=[67, 100]),\n",
      "   midi.NoteOffEvent(tick=192, channel=5, data=[67, 64]),\n",
      "   midi.NoteOnEvent(tick=0, channel=5, data=[67, 100]),\n",
      "   midi.NoteOffEvent(tick=192, channel=5, data=[67, 64]),\n",
      "   midi.NoteOnEvent(tick=0, channel=5, data=[66, 100]),\n",
      "   midi.NoteOffEvent(tick=192, channel=5, data=[66, 64]),\n",
      "   midi.NoteOnEvent(tick=0, channel=5, data=[66, 100]),\n",
      "   midi.NoteOffEvent(tick=768, channel=5, data=[66, 64]),\n",
      "   midi.NoteOnEvent(tick=12288, channel=5, data=[71, 100]),\n",
      "   midi.NoteOffEvent(tick=384, channel=5, data=[71, 64]),\n",
      "   midi.NoteOnEvent(tick=384, channel=5, data=[69, 100]),\n",
      "   midi.NoteOffEvent(tick=384, channel=5, data=[69, 64]),\n",
      "   midi.NoteOnEvent(tick=192, channel=5, data=[66, 100]),\n",
      "   midi.NoteOffEvent(tick=192, channel=5, data=[66, 64]),\n",
      "   midi.NoteOnEvent(tick=0, channel=5, data=[67, 100]),\n",
      "   midi.NoteOffEvent(tick=192, channel=5, data=[67, 64]),\n",
      "   midi.NoteOnEvent(tick=0, channel=5, data=[67, 100]),\n",
      "   midi.NoteOffEvent(tick=192, channel=5, data=[67, 64]),\n",
      "   midi.NoteOnEvent(tick=0, channel=5, data=[67, 100]),\n",
      "   midi.NoteOffEvent(tick=192, channel=5, data=[67, 64]),\n",
      "   midi.NoteOnEvent(tick=0, channel=5, data=[66, 100]),\n",
      "   midi.NoteOffEvent(tick=192, channel=5, data=[66, 64]),\n",
      "   midi.NoteOnEvent(tick=0, channel=5, data=[67, 100]),\n",
      "   midi.NoteOffEvent(tick=384, channel=5, data=[67, 64]),\n",
      "   midi.NoteOnEvent(tick=0, channel=5, data=[62, 100]),\n",
      "   midi.NoteOffEvent(tick=192, channel=5, data=[62, 64]),\n",
      "   midi.NoteOnEvent(tick=192, channel=5, data=[71, 100]),\n",
      "   midi.NoteOffEvent(tick=192, channel=5, data=[71, 64]),\n",
      "   midi.NoteOnEvent(tick=0, channel=5, data=[67, 100]),\n",
      "   midi.NoteOffEvent(tick=96, channel=5, data=[67, 64]),\n",
      "   midi.NoteOnEvent(tick=0, channel=5, data=[64, 100]),\n",
      "   midi.NoteOffEvent(tick=96, channel=5, data=[64, 64]),\n",
      "   midi.NoteOnEvent(tick=0, channel=5, data=[71, 100]),\n",
      "   midi.NoteOffEvent(tick=576, channel=5, data=[71, 64]),\n",
      "   midi.NoteOnEvent(tick=0, channel=5, data=[66, 100]),\n",
      "   midi.NoteOffEvent(tick=96, channel=5, data=[66, 64]),\n",
      "   midi.NoteOnEvent(tick=0, channel=5, data=[63, 100]),\n",
      "   midi.NoteOffEvent(tick=96, channel=5, data=[63, 64]),\n",
      "   midi.NoteOnEvent(tick=0, channel=5, data=[71, 100]),\n",
      "   midi.NoteOffEvent(tick=576, channel=5, data=[71, 64]),\n",
      "   midi.NoteOnEvent(tick=0, channel=5, data=[69, 100]),\n",
      "   midi.NoteOffEvent(tick=96, channel=5, data=[69, 64]),\n",
      "   midi.NoteOnEvent(tick=0, channel=5, data=[67, 100]),\n",
      "   midi.NoteOffEvent(tick=96, channel=5, data=[67, 64]),\n",
      "   midi.NoteOnEvent(tick=0, channel=5, data=[66, 100]),\n",
      "   midi.NoteOffEvent(tick=96, channel=5, data=[66, 64]),\n",
      "   midi.NoteOnEvent(tick=0, channel=5, data=[67, 100]),\n",
      "   midi.NoteOffEvent(tick=96, channel=5, data=[67, 64]),\n",
      "   midi.NoteOnEvent(tick=0, channel=5, data=[69, 100]),\n",
      "   midi.NoteOffEvent(tick=192, channel=5, data=[69, 64]),\n",
      "   midi.NoteOnEvent(tick=0, channel=5, data=[67, 100]),\n",
      "   midi.NoteOffEvent(tick=96, channel=5, data=[67, 64]),\n",
      "   midi.NoteOnEvent(tick=0, channel=5, data=[69, 100]),\n",
      "   midi.NoteOffEvent(tick=96, channel=5, data=[69, 64]),\n",
      "   midi.NoteOnEvent(tick=0, channel=5, data=[71, 100]),\n",
      "   midi.NoteOffEvent(tick=96, channel=5, data=[71, 64]),\n",
      "   midi.NoteOnEvent(tick=96, channel=5, data=[71, 100]),\n",
      "   midi.NoteOffEvent(tick=96, channel=5, data=[71, 64]),\n",
      "   midi.NoteOnEvent(tick=96, channel=5, data=[67, 100]),\n",
      "   midi.NoteOffEvent(tick=96, channel=5, data=[67, 64]),\n",
      "   midi.NoteOnEvent(tick=96, channel=5, data=[64, 100]),\n",
      "   midi.NoteOffEvent(tick=480, channel=5, data=[64, 64]),\n",
      "   midi.NoteOnEvent(tick=0, channel=5, data=[66, 100]),\n",
      "   midi.NoteOffEvent(tick=96, channel=5, data=[66, 64]),\n",
      "   midi.NoteOnEvent(tick=0, channel=5, data=[67, 100]),\n",
      "   midi.NoteOffEvent(tick=96, channel=5, data=[67, 64]),\n",
      "   midi.NoteOnEvent(tick=0, channel=5, data=[64, 100]),\n",
      "   midi.NoteOffEvent(tick=96, channel=5, data=[64, 64]),\n",
      "   midi.NoteOnEvent(tick=0, channel=5, data=[66, 100]),\n",
      "   midi.NoteOffEvent(tick=96, channel=5, data=[66, 64]),\n",
      "   midi.NoteOnEvent(tick=0, channel=5, data=[68, 100]),\n",
      "   midi.NoteOffEvent(tick=96, channel=5, data=[68, 64]),\n",
      "   midi.NoteOnEvent(tick=0, channel=5, data=[69, 100]),\n",
      "   midi.NoteOffEvent(tick=96, channel=5, data=[69, 64]),\n",
      "   midi.NoteOnEvent(tick=96, channel=5, data=[69, 100]),\n",
      "   midi.NoteOffEvent(tick=96, channel=5, data=[69, 64]),\n",
      "   midi.NoteOnEvent(tick=96, channel=5, data=[66, 100]),\n",
      "   midi.NoteOffEvent(tick=96, channel=5, data=[66, 64]),\n",
      "   midi.NoteOnEvent(tick=96, channel=5, data=[71, 100]),\n",
      "   midi.NoteOffEvent(tick=192, channel=5, data=[71, 64]),\n",
      "   midi.NoteOnEvent(tick=0, channel=5, data=[59, 100]),\n",
      "   midi.NoteOffEvent(tick=192, channel=5, data=[59, 64]),\n",
      "   midi.NoteOnEvent(tick=0, channel=5, data=[71, 100]),\n",
      "   midi.NoteOffEvent(tick=384, channel=5, data=[71, 64]),\n",
      "   midi.NoteOnEvent(tick=192, channel=5, data=[68, 100]),\n",
      "   midi.NoteOffEvent(tick=192, channel=5, data=[68, 64]),\n",
      "   midi.NoteOnEvent(tick=0, channel=5, data=[73, 100]),\n",
      "   midi.NoteOffEvent(tick=192, channel=5, data=[73, 64]),\n",
      "   midi.NoteOnEvent(tick=0, channel=5, data=[71, 100]),\n",
      "   midi.NoteOffEvent(tick=192, channel=5, data=[71, 64]),\n",
      "   midi.NoteOnEvent(tick=0, channel=5, data=[69, 100]),\n",
      "   midi.NoteOnEvent(tick=1152, channel=5, data=[68, 100]),\n",
      "   midi.NoteOffEvent(tick=4, channel=5, data=[69, 64]),\n",
      "   midi.NoteOffEvent(tick=188, channel=5, data=[68, 64]),\n",
      "   midi.NoteOnEvent(tick=0, channel=5, data=[66, 100]),\n",
      "   midi.NoteOffEvent(tick=192, channel=5, data=[66, 64]),\n",
      "   midi.NoteOnEvent(tick=0, channel=5, data=[65, 100]),\n",
      "   midi.NoteOffEvent(tick=384, channel=5, data=[65, 64]),\n",
      "   midi.NoteOnEvent(tick=0, channel=5, data=[66, 100]),\n",
      "   midi.NoteOffEvent(tick=384, channel=5, data=[66, 64]),\n",
      "   midi.NoteOnEvent(tick=0, channel=5, data=[66, 100]),\n",
      "   midi.NoteOffEvent(tick=384, channel=5, data=[66, 64]),\n",
      "   midi.NoteOnEvent(tick=0, channel=5, data=[65, 100]),\n",
      "   midi.NoteOffEvent(tick=384, channel=5, data=[65, 64]),\n",
      "   midi.NoteOnEvent(tick=0, channel=5, data=[61, 100]),\n",
      "   midi.NoteOffEvent(tick=384, channel=5, data=[61, 64]),\n",
      "   midi.NoteOnEvent(tick=3456, channel=5, data=[69, 100]),\n",
      "   midi.NoteOffEvent(tick=384, channel=5, data=[69, 64]),\n",
      "   midi.NoteOnEvent(tick=0, channel=5, data=[66, 100]),\n",
      "   midi.NoteOffEvent(tick=384, channel=5, data=[66, 64]),\n",
      "   midi.NoteOnEvent(tick=0, channel=5, data=[62, 100]),\n",
      "   midi.NoteOffEvent(tick=512, channel=5, data=[62, 64]),\n",
      "   midi.NoteOnEvent(tick=256, channel=5, data=[69, 100]),\n",
      "   midi.NoteOffEvent(tick=192, channel=5, data=[69, 64]),\n",
      "   midi.NoteOnEvent(tick=0, channel=5, data=[67, 100]),\n",
      "   midi.NoteOffEvent(tick=192, channel=5, data=[67, 64]),\n",
      "   midi.NoteOnEvent(tick=0, channel=5, data=[69, 100]),\n",
      "   midi.NoteOffEvent(tick=192, channel=5, data=[69, 64]),\n",
      "   midi.NoteOnEvent(tick=0, channel=5, data=[66, 100]),\n",
      "   midi.NoteOffEvent(tick=192, channel=5, data=[66, 64]),\n",
      "   midi.NoteOnEvent(tick=0, channel=5, data=[67, 100]),\n",
      "   midi.NoteOffEvent(tick=192, channel=5, data=[67, 64]),\n",
      "   midi.NoteOnEvent(tick=0, channel=5, data=[66, 100]),\n",
      "   midi.NoteOffEvent(tick=192, channel=5, data=[66, 64]),\n",
      "   midi.NoteOnEvent(tick=0, channel=5, data=[67, 100]),\n",
      "   midi.NoteOffEvent(tick=192, channel=5, data=[67, 64]),\n",
      "   midi.NoteOnEvent(tick=0, channel=5, data=[62, 100]),\n",
      "   midi.NoteOffEvent(tick=192, channel=5, data=[62, 64]),\n",
      "   midi.NoteOnEvent(tick=0, channel=5, data=[67, 100]),\n",
      "   midi.NoteOffEvent(tick=384, channel=5, data=[67, 64]),\n",
      "   midi.NoteOnEvent(tick=0, channel=5, data=[67, 100]),\n",
      "   midi.NoteOffEvent(tick=384, channel=5, data=[67, 64]),\n",
      "   midi.NoteOnEvent(tick=0, channel=5, data=[67, 100]),\n",
      "   midi.NoteOffEvent(tick=512, channel=5, data=[67, 64]),\n",
      "   midi.NoteOnEvent(tick=64, channel=5, data=[66, 100]),\n",
      "   midi.NoteOffEvent(tick=96, channel=5, data=[66, 64]),\n",
      "   midi.NoteOnEvent(tick=0, channel=5, data=[64, 100]),\n",
      "   midi.NoteOffEvent(tick=96, channel=5, data=[64, 64]),\n",
      "   midi.NoteOnEvent(tick=0, channel=5, data=[69, 100]),\n",
      "   midi.NoteOffEvent(tick=192, channel=5, data=[69, 64]),\n",
      "   midi.NoteOnEvent(tick=0, channel=5, data=[66, 100]),\n",
      "   midi.NoteOffEvent(tick=192, channel=5, data=[66, 64]),\n",
      "   midi.NoteOnEvent(tick=0, channel=5, data=[71, 100]),\n",
      "   midi.NoteOffEvent(tick=192, channel=5, data=[71, 64]),\n",
      "   midi.NoteOnEvent(tick=0, channel=5, data=[69, 100]),\n",
      "   midi.NoteOffEvent(tick=384, channel=5, data=[69, 64]),\n",
      "   midi.NoteOnEvent(tick=0, channel=5, data=[67, 100]),\n",
      "   midi.NoteOffEvent(tick=192, channel=5, data=[67, 64]),\n",
      "   midi.NoteOnEvent(tick=0, channel=5, data=[66, 100]),\n",
      "   midi.NoteOffEvent(tick=384, channel=5, data=[66, 64]),\n",
      "   midi.NoteOnEvent(tick=1536, channel=5, data=[78, 100]),\n",
      "   midi.NoteOffEvent(tick=192, channel=5, data=[78, 64]),\n",
      "   midi.NoteOnEvent(tick=0, channel=5, data=[76, 100]),\n",
      "   midi.NoteOffEvent(tick=96, channel=5, data=[76, 64]),\n",
      "   midi.NoteOnEvent(tick=0, channel=5, data=[74, 100]),\n",
      "   midi.NoteOffEvent(tick=96, channel=5, data=[74, 64]),\n",
      "   midi.NoteOnEvent(tick=0, channel=5, data=[78, 100]),\n",
      "   midi.NoteOffEvent(tick=96, channel=5, data=[78, 64]),\n",
      "   midi.NoteOnEvent(tick=0, channel=5, data=[76, 100]),\n",
      "   midi.NoteOffEvent(tick=96, channel=5, data=[76, 64]),\n",
      "   midi.NoteOnEvent(tick=0, channel=5, data=[74, 100]),\n",
      "   midi.NoteOffEvent(tick=96, channel=5, data=[74, 64]),\n",
      "   midi.NoteOnEvent(tick=0, channel=5, data=[73, 100]),\n",
      "   midi.NoteOffEvent(tick=96, channel=5, data=[73, 64]),\n",
      "   midi.NoteOnEvent(tick=0, channel=5, data=[62, 100]),\n",
      "   midi.NoteOffEvent(tick=192, channel=5, data=[62, 64]),\n",
      "   midi.NoteOnEvent(tick=0, channel=5, data=[57, 100]),\n",
      "   midi.NoteOffEvent(tick=192, channel=5, data=[57, 64]),\n",
      "   midi.NoteOnEvent(tick=0, channel=5, data=[69, 100]),\n",
      "   midi.NoteOffEvent(tick=480, channel=5, data=[69, 64]),\n",
      "   midi.NoteOnEvent(tick=0, channel=5, data=[67, 100]),\n",
      "   midi.NoteOffEvent(tick=96, channel=5, data=[67, 64]),\n",
      "   midi.NoteOnEvent(tick=0, channel=5, data=[66, 100]),\n",
      "   midi.NoteOffEvent(tick=96, channel=5, data=[66, 64]),\n",
      "   midi.NoteOnEvent(tick=0, channel=5, data=[67, 100]),\n",
      "   midi.NoteOffEvent(tick=96, channel=5, data=[67, 64]),\n",
      "   midi.NoteOnEvent(tick=0, channel=5, data=[69, 100]),\n",
      "   midi.NoteOffEvent(tick=192, channel=5, data=[69, 64]),\n",
      "   midi.NoteOnEvent(tick=0, channel=5, data=[66, 100]),\n",
      "   midi.NoteOffEvent(tick=192, channel=5, data=[66, 64]),\n",
      "   midi.NoteOnEvent(tick=0, channel=5, data=[66, 100]),\n",
      "   midi.NoteOffEvent(tick=192, channel=5, data=[66, 64]),\n",
      "   midi.NoteOnEvent(tick=0, channel=5, data=[62, 100]),\n",
      "   midi.NoteOffEvent(tick=192, channel=5, data=[62, 64]),\n",
      "   midi.NoteOnEvent(tick=0, channel=5, data=[62, 100]),\n",
      "   midi.NoteOffEvent(tick=192, channel=5, data=[62, 64]),\n",
      "   midi.NoteOnEvent(tick=0, channel=5, data=[71, 100]),\n",
      "   midi.NoteOffEvent(tick=192, channel=5, data=[71, 64]),\n",
      "   midi.NoteOnEvent(tick=0, channel=5, data=[71, 100]),\n",
      "   midi.NoteOffEvent(tick=512, channel=5, data=[71, 64]),\n",
      "   midi.NoteOnEvent(tick=64, channel=5, data=[67, 100]),\n",
      "   midi.NoteOffEvent(tick=192, channel=5, data=[67, 64]),\n",
      "   midi.NoteOnEvent(tick=0, channel=5, data=[64, 100]),\n",
      "   midi.NoteOffEvent(tick=384, channel=5, data=[64, 64]),\n",
      "   midi.NoteOnEvent(tick=0, channel=5, data=[64, 100]),\n",
      "   midi.NoteOffEvent(tick=384, channel=5, data=[64, 64]),\n",
      "   midi.NoteOnEvent(tick=0, channel=5, data=[66, 100]),\n",
      "   midi.NoteOffEvent(tick=384, channel=5, data=[66, 64]),\n",
      "   midi.NoteOnEvent(tick=0, channel=5, data=[62, 100]),\n",
      "   midi.NoteOffEvent(tick=384, channel=5, data=[62, 64]),\n",
      "   midi.NoteOnEvent(tick=0, channel=5, data=[69, 100]),\n",
      "   midi.NoteOffEvent(tick=512, channel=5, data=[69, 64]),\n",
      "   midi.NoteOnEvent(tick=64, channel=5, data=[66, 100]),\n",
      "   midi.NoteOffEvent(tick=192, channel=5, data=[66, 64]),\n",
      "   midi.NoteOnEvent(tick=0, channel=5, data=[74, 100]),\n",
      "   midi.NoteOffEvent(tick=192, channel=5, data=[74, 64]),\n",
      "   midi.NoteOnEvent(tick=0, channel=5, data=[69, 100]),\n",
      "   midi.NoteOffEvent(tick=192, channel=5, data=[69, 64]),\n",
      "   midi.NoteOnEvent(tick=0, channel=5, data=[66, 100]),\n",
      "   midi.NoteOffEvent(tick=192, channel=5, data=[66, 64]),\n",
      "   midi.NoteOnEvent(tick=0, channel=5, data=[69, 100]),\n",
      "   midi.NoteOffEvent(tick=192, channel=5, data=[69, 64]),\n",
      "   midi.NoteOnEvent(tick=0, channel=5, data=[72, 100]),\n",
      "   midi.NoteOffEvent(tick=192, channel=5, data=[72, 64]),\n",
      "   midi.NoteOnEvent(tick=0, channel=5, data=[71, 100]),\n",
      "   midi.NoteOffEvent(tick=192, channel=5, data=[71, 64]),\n",
      "   midi.NoteOnEvent(tick=0, channel=5, data=[69, 100]),\n",
      "   midi.NoteOffEvent(tick=192, channel=5, data=[69, 64]),\n",
      "   midi.NoteOnEvent(tick=0, channel=5, data=[71, 100]),\n",
      "   midi.NoteOffEvent(tick=96, channel=5, data=[71, 64]),\n",
      "   midi.NoteOnEvent(tick=0, channel=5, data=[72, 100]),\n",
      "   midi.NoteOffEvent(tick=96, channel=5, data=[72, 64]),\n",
      "   midi.NoteOnEvent(tick=384, channel=5, data=[71, 100]),\n",
      "   midi.NoteOffEvent(tick=576, channel=5, data=[71, 64]),\n",
      "   midi.NoteOnEvent(tick=0, channel=5, data=[67, 100]),\n",
      "   midi.NoteOffEvent(tick=192, channel=5, data=[67, 64]),\n",
      "   midi.NoteOnEvent(tick=0, channel=5, data=[64, 100]),\n",
      "   midi.NoteOffEvent(tick=192, channel=5, data=[64, 64]),\n",
      "   midi.NoteOnEvent(tick=0, channel=5, data=[67, 100]),\n",
      "   midi.NoteOffEvent(tick=192, channel=5, data=[67, 64]),\n",
      "   midi.NoteOnEvent(tick=0, channel=5, data=[69, 100]),\n",
      "   midi.NoteOffEvent(tick=192, channel=5, data=[69, 64]),\n",
      "   midi.NoteOnEvent(tick=0, channel=5, data=[57, 100]),\n",
      "   midi.NoteOffEvent(tick=192, channel=5, data=[57, 64]),\n",
      "   midi.NoteOnEvent(tick=0, channel=5, data=[69, 100]),\n",
      "   midi.NoteOffEvent(tick=576, channel=5, data=[69, 64]),\n",
      "   midi.NoteOnEvent(tick=0, channel=5, data=[66, 100]),\n",
      "   midi.NoteOffEvent(tick=192, channel=5, data=[66, 64]),\n",
      "   midi.NoteOnEvent(tick=0, channel=5, data=[62, 100]),\n",
      "   midi.NoteOffEvent(tick=192, channel=5, data=[62, 64]),\n",
      "   midi.NoteOnEvent(tick=0, channel=5, data=[66, 100]),\n",
      "   midi.NoteOffEvent(tick=192, channel=5, data=[66, 64]),\n",
      "   midi.NoteOnEvent(tick=0, channel=5, data=[67, 100]),\n",
      "   midi.NoteOffEvent(tick=960, channel=5, data=[67, 64]),\n",
      "   midi.NoteOnEvent(tick=0, channel=5, data=[64, 100]),\n",
      "   midi.NoteOffEvent(tick=192, channel=5, data=[64, 64]),\n",
      "   midi.NoteOnEvent(tick=0, channel=5, data=[69, 100]),\n",
      "   midi.NoteOffEvent(tick=576, channel=5, data=[69, 64]),\n",
      "   midi.NoteOnEvent(tick=0, channel=5, data=[71, 100]),\n",
      "   midi.NoteOffEvent(tick=96, channel=5, data=[71, 64]),\n",
      "   midi.NoteOnEvent(tick=0, channel=5, data=[69, 100]),\n",
      "   midi.NoteOffEvent(tick=96, channel=5, data=[69, 64]),\n",
      "   midi.NoteOnEvent(tick=0, channel=5, data=[67, 100]),\n",
      "   midi.NoteOffEvent(tick=96, channel=5, data=[67, 64]),\n",
      "   midi.NoteOnEvent(tick=0, channel=5, data=[66, 100]),\n",
      "   midi.NoteOffEvent(tick=96, channel=5, data=[66, 64]),\n",
      "   midi.NoteOnEvent(tick=0, channel=5, data=[64, 100]),\n",
      "   midi.NoteOffEvent(tick=96, channel=5, data=[64, 64]),\n",
      "   midi.NoteOnEvent(tick=0, channel=5, data=[66, 100]),\n",
      "   midi.NoteOffEvent(tick=96, channel=5, data=[66, 64]),\n",
      "   midi.NoteOnEvent(tick=0, channel=5, data=[62, 100]),\n",
      "   midi.NoteOffEvent(tick=384, channel=5, data=[62, 64]),\n",
      "   midi.NoteOnEvent(tick=384, channel=5, data=[64, 100]),\n",
      "   midi.NoteOffEvent(tick=96, channel=5, data=[64, 64]),\n",
      "   midi.NoteOnEvent(tick=0, channel=5, data=[66, 100]),\n",
      "   midi.NoteOffEvent(tick=96, channel=5, data=[66, 64]),\n",
      "   midi.NoteOnEvent(tick=0, channel=5, data=[67, 100]),\n",
      "   midi.NoteOffEvent(tick=96, channel=5, data=[67, 64]),\n",
      "   midi.NoteOnEvent(tick=96, channel=5, data=[67, 100]),\n",
      "   midi.NoteOffEvent(tick=96, channel=5, data=[67, 64]),\n",
      "   midi.NoteOnEvent(tick=96, channel=5, data=[67, 100]),\n",
      "   midi.NoteOffEvent(tick=96, channel=5, data=[67, 64]),\n",
      "   midi.NoteOnEvent(tick=96, channel=5, data=[67, 100]),\n",
      "   midi.NoteOffEvent(tick=192, channel=5, data=[67, 64]),\n",
      "   midi.NoteOnEvent(tick=0, channel=5, data=[64, 100]),\n",
      "   midi.NoteOffEvent(tick=192, channel=5, data=[64, 64]),\n",
      "   midi.NoteOnEvent(tick=0, channel=5, data=[69, 100]),\n",
      "   midi.NoteOffEvent(tick=576, channel=5, data=[69, 64]),\n",
      "   midi.NoteOnEvent(tick=0, channel=5, data=[62, 100]),\n",
      "   midi.NoteOffEvent(tick=192, channel=5, data=[62, 64]),\n",
      "   midi.NoteOnEvent(tick=0, channel=5, data=[62, 100]),\n",
      "   midi.NoteOffEvent(tick=192, channel=5, data=[62, 64]),\n",
      "   midi.NoteOnEvent(tick=0, channel=5, data=[61, 100]),\n",
      "   midi.NoteOffEvent(tick=192, channel=5, data=[61, 64]),\n",
      "   midi.NoteOnEvent(tick=0, channel=5, data=[62, 100]),\n",
      "   midi.NoteOffEvent(tick=192, channel=5, data=[62, 64]),\n",
      "   midi.NoteOnEvent(tick=0, channel=5, data=[57, 100]),\n",
      "   midi.NoteOffEvent(tick=192, channel=5, data=[57, 64]),\n",
      "   midi.NoteOnEvent(tick=0, channel=5, data=[62, 100]),\n",
      "   midi.NoteOffEvent(tick=192, channel=5, data=[62, 64]),\n",
      "   midi.NoteOnEvent(tick=0, channel=5, data=[64, 100]),\n",
      "   midi.NoteOffEvent(tick=192, channel=5, data=[64, 64]),\n",
      "   midi.NoteOnEvent(tick=0, channel=5, data=[66, 100]),\n",
      "   midi.NoteOffEvent(tick=96, channel=5, data=[66, 64]),\n",
      "   midi.NoteOnEvent(tick=0, channel=5, data=[67, 100]),\n",
      "   midi.NoteOffEvent(tick=96, channel=5, data=[67, 64]),\n",
      "   midi.NoteOnEvent(tick=0, channel=5, data=[69, 100]),\n",
      "   midi.NoteOffEvent(tick=96, channel=5, data=[69, 64]),\n",
      "   midi.NoteOnEvent(tick=96, channel=5, data=[69, 100]),\n",
      "   midi.NoteOffEvent(tick=96, channel=5, data=[69, 64]),\n",
      "   midi.NoteOnEvent(tick=96, channel=5, data=[69, 100]),\n",
      "   midi.NoteOffEvent(tick=96, channel=5, data=[69, 64]),\n",
      "   midi.NoteOnEvent(tick=96, channel=5, data=[69, 100]),\n",
      "   midi.NoteOffEvent(tick=384, channel=5, data=[69, 64]),\n",
      "   midi.NoteOnEvent(tick=192, channel=5, data=[62, 100]),\n",
      "   midi.NoteOffEvent(tick=192, channel=5, data=[62, 64]),\n",
      "   midi.NoteOnEvent(tick=0, channel=5, data=[67, 100]),\n",
      "   midi.NoteOffEvent(tick=48, channel=5, data=[67, 64]),\n",
      "   midi.NoteOnEvent(tick=0, channel=5, data=[69, 100]),\n",
      "   midi.NoteOffEvent(tick=48, channel=5, data=[69, 64]),\n",
      "   midi.NoteOnEvent(tick=0, channel=5, data=[71, 100]),\n",
      "   midi.NoteOffEvent(tick=256, channel=5, data=[71, 64]),\n",
      "   midi.NoteOnEvent(tick=32, channel=5, data=[69, 100]),\n",
      "   midi.NoteOffEvent(tick=48, channel=5, data=[69, 64]),\n",
      "   midi.NoteOnEvent(tick=0, channel=5, data=[71, 100]),\n",
      "   midi.NoteOffEvent(tick=48, channel=5, data=[71, 64]),\n",
      "   midi.NoteOnEvent(tick=0, channel=5, data=[72, 100]),\n",
      "   midi.NoteOffEvent(tick=256, channel=5, data=[72, 64]),\n",
      "   midi.NoteOnEvent(tick=32, channel=5, data=[71, 100]),\n",
      "   midi.NoteOffEvent(tick=192, channel=5, data=[71, 64]),\n",
      "   midi.NoteOnEvent(tick=0, channel=5, data=[62, 100]),\n",
      "   midi.NoteOffEvent(tick=192, channel=5, data=[62, 64]),\n",
      "   midi.NoteOnEvent(tick=0, channel=5, data=[67, 100]),\n",
      "   midi.NoteOffEvent(tick=192, channel=5, data=[67, 64]),\n",
      "   midi.NoteOnEvent(tick=0, channel=5, data=[66, 100]),\n",
      "   midi.NoteOffEvent(tick=192, channel=5, data=[66, 64]),\n",
      "   midi.NoteOnEvent(tick=0, channel=5, data=[64, 100]),\n",
      "   midi.NoteOffEvent(tick=384, channel=5, data=[64, 64]),\n",
      "   midi.NoteOnEvent(tick=0, channel=5, data=[64, 100]),\n",
      "   midi.NoteOffEvent(tick=384, channel=5, data=[64, 64]),\n",
      "   midi.NoteOnEvent(tick=0, channel=5, data=[64, 100]),\n",
      "   midi.NoteOffEvent(tick=96, channel=5, data=[64, 64]),\n",
      "   midi.NoteOnEvent(tick=0, channel=5, data=[62, 100]),\n",
      "   midi.NoteOffEvent(tick=96, channel=5, data=[62, 64]),\n",
      "   midi.NoteOnEvent(tick=0, channel=5, data=[61, 100]),\n",
      "   midi.NoteOffEvent(tick=96, channel=5, data=[61, 64]),\n",
      "   midi.NoteOnEvent(tick=0, channel=5, data=[62, 100]),\n",
      "   midi.NoteOffEvent(tick=96, channel=5, data=[62, 64]),\n",
      "   midi.NoteOnEvent(tick=0, channel=5, data=[64, 100]),\n",
      "   midi.NoteOffEvent(tick=192, channel=5, data=[64, 64]),\n",
      "   midi.NoteOnEvent(tick=0, channel=5, data=[66, 100]),\n",
      "   midi.NoteOffEvent(tick=192, channel=5, data=[66, 64]),\n",
      "   midi.NoteOnEvent(tick=0, channel=5, data=[67, 100]),\n",
      "   midi.NoteOffEvent(tick=384, channel=5, data=[67, 64]),\n",
      "   midi.NoteOnEvent(tick=0, channel=5, data=[67, 100]),\n",
      "   midi.NoteOffEvent(tick=384, channel=5, data=[67, 64]),\n",
      "   midi.NoteOnEvent(tick=0, channel=5, data=[67, 100]),\n",
      "   midi.NoteOffEvent(tick=96, channel=5, data=[67, 64]),\n",
      "   midi.NoteOnEvent(tick=0, channel=5, data=[66, 100]),\n",
      "   midi.NoteOffEvent(tick=96, channel=5, data=[66, 64]),\n",
      "   midi.NoteOnEvent(tick=0, channel=5, data=[64, 100]),\n",
      "   midi.NoteOffEvent(tick=96, channel=5, data=[64, 64]),\n",
      "   midi.NoteOnEvent(tick=0, channel=5, data=[66, 100]),\n",
      "   midi.NoteOffEvent(tick=96, channel=5, data=[66, 64]),\n",
      "   midi.NoteOnEvent(tick=0, channel=5, data=[67, 100]),\n",
      "   midi.NoteOffEvent(tick=192, channel=5, data=[67, 64]),\n",
      "   midi.NoteOnEvent(tick=0, channel=5, data=[69, 100]),\n",
      "   midi.NoteOffEvent(tick=192, channel=5, data=[69, 64]),\n",
      "   midi.NoteOnEvent(tick=0, channel=5, data=[66, 100]),\n",
      "   midi.NoteOffEvent(tick=96, channel=5, data=[66, 64]),\n",
      "   midi.NoteOnEvent(tick=0, channel=5, data=[67, 100]),\n",
      "   midi.NoteOffEvent(tick=96, channel=5, data=[67, 64]),\n",
      "   midi.NoteOnEvent(tick=0, channel=5, data=[69, 100]),\n",
      "   midi.NoteOffEvent(tick=384, channel=5, data=[69, 64]),\n",
      "   midi.NoteOnEvent(tick=0, channel=5, data=[71, 100]),\n",
      "   midi.NoteOffEvent(tick=192, channel=5, data=[71, 64]),\n",
      "   midi.NoteOnEvent(tick=0, channel=5, data=[69, 100]),\n",
      "   midi.NoteOffEvent(tick=96, channel=5, data=[69, 64]),\n",
      "   midi.NoteOnEvent(tick=0, channel=5, data=[74, 100]),\n",
      "   midi.NoteOffEvent(tick=96, channel=5, data=[74, 64]),\n",
      "   midi.NoteOnEvent(tick=0, channel=5, data=[73, 100]),\n",
      "   midi.NoteOffEvent(tick=96, channel=5, data=[73, 64]),\n",
      "   midi.NoteOnEvent(tick=0, channel=5, data=[71, 100]),\n",
      "   midi.NoteOffEvent(tick=96, channel=5, data=[71, 64]),\n",
      "   midi.NoteOnEvent(tick=0, channel=5, data=[69, 100]),\n",
      "   midi.NoteOffEvent(tick=192, channel=5, data=[69, 64]),\n",
      "   midi.NoteOnEvent(tick=0, channel=5, data=[66, 100]),\n",
      "   midi.NoteOffEvent(tick=192, channel=5, data=[66, 64]),\n",
      "   midi.NoteOnEvent(tick=0, channel=5, data=[67, 100]),\n",
      "   midi.NoteOffEvent(tick=384, channel=5, data=[67, 64]),\n",
      "   midi.NoteOnEvent(tick=0, channel=5, data=[64, 100]),\n",
      "   midi.NoteOffEvent(tick=384, channel=5, data=[64, 64]),\n",
      "   midi.NoteOnEvent(tick=0, channel=5, data=[62, 100]),\n",
      "   midi.NoteOffEvent(tick=384, channel=5, data=[62, 64]),\n",
      "   midi.EndOfTrackEvent(tick=0, data=[])]),\n",
      " midi.Track(\\\n",
      "  [midi.TrackNameEvent(tick=0, text='Tenore', data=[84, 101, 110, 111, 114, 101]),\n",
      "   midi.ControlChangeEvent(tick=0, channel=6, data=[0, 0]),\n",
      "   midi.ProgramChangeEvent(tick=0, channel=6, data=[66]),\n",
      "   midi.ControlChangeEvent(tick=0, channel=6, data=[7, 127]),\n",
      "   midi.ControlChangeEvent(tick=0, channel=6, data=[10, 64]),\n",
      "   midi.ControlChangeEvent(tick=0, channel=6, data=[91, 127]),\n",
      "   midi.KeySignatureEvent(tick=0, data=[2, 0]),\n",
      "   midi.NoteOnEvent(tick=25344, channel=6, data=[66, 100]),\n",
      "   midi.NoteOffEvent(tick=384, channel=6, data=[66, 64]),\n",
      "   midi.NoteOnEvent(tick=0, channel=6, data=[62, 100]),\n",
      "   midi.NoteOffEvent(tick=384, channel=6, data=[62, 64]),\n",
      "   midi.NoteOnEvent(tick=0, channel=6, data=[57, 100]),\n",
      "   midi.NoteOffEvent(tick=192, channel=6, data=[57, 64]),\n",
      "   midi.NoteOnEvent(tick=0, channel=6, data=[57, 100]),\n",
      "   midi.NoteOffEvent(tick=192, channel=6, data=[57, 64]),\n",
      "   midi.NoteOnEvent(tick=0, channel=6, data=[62, 100]),\n",
      "   midi.NoteOffEvent(tick=768, channel=6, data=[62, 64]),\n",
      "   midi.NoteOnEvent(tick=0, channel=6, data=[62, 100]),\n",
      "   midi.NoteOffEvent(tick=384, channel=6, data=[62, 64]),\n",
      "   midi.NoteOnEvent(tick=0, channel=6, data=[62, 100]),\n",
      "   midi.NoteOffEvent(tick=192, channel=6, data=[62, 64]),\n",
      "   midi.NoteOnEvent(tick=0, channel=6, data=[60, 100]),\n",
      "   midi.NoteOffEvent(tick=192, channel=6, data=[60, 64]),\n",
      "   midi.NoteOnEvent(tick=0, channel=6, data=[62, 100]),\n",
      "   midi.NoteOffEvent(tick=384, channel=6, data=[62, 64]),\n",
      "   midi.NoteOnEvent(tick=0, channel=6, data=[61, 100]),\n",
      "   midi.NoteOffEvent(tick=96, channel=6, data=[61, 64]),\n",
      "   midi.NoteOnEvent(tick=0, channel=6, data=[62, 100]),\n",
      "   midi.NoteOffEvent(tick=96, channel=6, data=[62, 64]),\n",
      "   midi.NoteOnEvent(tick=0, channel=6, data=[64, 100]),\n",
      "   midi.NoteOffEvent(tick=96, channel=6, data=[64, 64]),\n",
      "   midi.NoteOnEvent(tick=96, channel=6, data=[64, 100]),\n",
      "   midi.NoteOffEvent(tick=96, channel=6, data=[64, 64]),\n",
      "   midi.NoteOnEvent(tick=96, channel=6, data=[61, 100]),\n",
      "   midi.NoteOffEvent(tick=96, channel=6, data=[61, 64]),\n",
      "   midi.NoteOnEvent(tick=96, channel=6, data=[57, 100]),\n",
      "   midi.NoteOffEvent(tick=512, channel=6, data=[57, 64]),\n",
      "   midi.NoteOnEvent(tick=64, channel=6, data=[61, 100]),\n",
      "   midi.NoteOffEvent(tick=192, channel=6, data=[61, 64]),\n",
      "   midi.NoteOnEvent(tick=0, channel=6, data=[62, 100]),\n",
      "   midi.NoteOffEvent(tick=512, channel=6, data=[62, 64]),\n",
      "   midi.NoteOnEvent(tick=64, channel=6, data=[61, 100]),\n",
      "   midi.NoteOffEvent(tick=192, channel=6, data=[61, 64]),\n",
      "   midi.NoteOnEvent(tick=0, channel=6, data=[62, 100]),\n",
      "   midi.NoteOffEvent(tick=384, channel=6, data=[62, 64]),\n",
      "   midi.NoteOnEvent(tick=0, channel=6, data=[57, 100]),\n",
      "   midi.NoteOffEvent(tick=384, channel=6, data=[57, 64]),\n",
      "   midi.NoteOnEvent(tick=768, channel=6, data=[62, 100]),\n",
      "   midi.NoteOffEvent(tick=192, channel=6, data=[62, 64]),\n",
      "   midi.NoteOnEvent(tick=0, channel=6, data=[61, 100]),\n",
      "   midi.NoteOffEvent(tick=96, channel=6, data=[61, 64]),\n",
      "   midi.NoteOnEvent(tick=0, channel=6, data=[59, 100]),\n",
      "   midi.NoteOffEvent(tick=96, channel=6, data=[59, 64]),\n",
      "   midi.NoteOnEvent(tick=0, channel=6, data=[57, 100]),\n",
      "   midi.NoteOffEvent(tick=96, channel=6, data=[57, 64]),\n",
      "   midi.NoteOnEvent(tick=0, channel=6, data=[55, 100]),\n",
      "   midi.NoteOffEvent(tick=96, channel=6, data=[55, 64]),\n",
      "   midi.NoteOnEvent(tick=0, channel=6, data=[54, 100]),\n",
      "   midi.NoteOffEvent(tick=96, channel=6, data=[54, 64]),\n",
      "   midi.NoteOnEvent(tick=0, channel=6, data=[52, 100]),\n",
      "   midi.NoteOffEvent(tick=96, channel=6, data=[52, 64]),\n",
      "   midi.NoteOnEvent(tick=0, channel=6, data=[50, 100]),\n",
      "   midi.NoteOffEvent(tick=192, channel=6, data=[50, 64]),\n",
      "   midi.NoteOnEvent(tick=0, channel=6, data=[62, 100]),\n",
      "   midi.NoteOffEvent(tick=192, channel=6, data=[62, 64]),\n",
      "   midi.NoteOnEvent(tick=0, channel=6, data=[59, 100]),\n",
      "   midi.NoteOffEvent(tick=192, channel=6, data=[59, 64]),\n",
      "   midi.NoteOnEvent(tick=0, channel=6, data=[57, 100]),\n",
      "   midi.NoteOffEvent(tick=192, channel=6, data=[57, 64]),\n",
      "   midi.NoteOnEvent(tick=0, channel=6, data=[57, 100]),\n",
      "   midi.NoteOffEvent(tick=192, channel=6, data=[57, 64]),\n",
      "   midi.NoteOnEvent(tick=0, channel=6, data=[54, 100]),\n",
      "   midi.NoteOffEvent(tick=192, channel=6, data=[54, 64]),\n",
      "   midi.NoteOnEvent(tick=0, channel=6, data=[62, 100]),\n",
      "   midi.NoteOffEvent(tick=576, channel=6, data=[62, 64]),\n",
      "   midi.NoteOnEvent(tick=0, channel=6, data=[57, 100]),\n",
      "   midi.NoteOffEvent(tick=192, channel=6, data=[57, 64]),\n",
      "   midi.NoteOnEvent(tick=0, channel=6, data=[62, 100]),\n",
      "   midi.NoteOffEvent(tick=192, channel=6, data=[62, 64]),\n",
      "   midi.NoteOnEvent(tick=0, channel=6, data=[62, 100]),\n",
      "   midi.NoteOffEvent(tick=192, channel=6, data=[62, 64]),\n",
      "   midi.NoteOnEvent(tick=0, channel=6, data=[62, 100]),\n",
      "   midi.NoteOffEvent(tick=192, channel=6, data=[62, 64]),\n",
      "   midi.NoteOnEvent(tick=0, channel=6, data=[59, 100]),\n",
      "   midi.NoteOffEvent(tick=192, channel=6, data=[59, 64]),\n",
      "   midi.NoteOnEvent(tick=0, channel=6, data=[59, 100]),\n",
      "   midi.NoteOnEvent(tick=480, channel=6, data=[57, 100]),\n",
      "   midi.NoteOffEvent(tick=96, channel=6, data=[59, 64]),\n",
      "   midi.NoteOffEvent(tick=0, channel=6, data=[57, 64]),\n",
      "   midi.NoteOnEvent(tick=0, channel=6, data=[55, 100]),\n",
      "   midi.NoteOffEvent(tick=96, channel=6, data=[55, 64]),\n",
      "   midi.NoteOnEvent(tick=0, channel=6, data=[54, 100]),\n",
      "   midi.NoteOffEvent(tick=96, channel=6, data=[54, 64]),\n",
      "   midi.NoteOnEvent(tick=0, channel=6, data=[55, 100]),\n",
      "   midi.NoteOffEvent(tick=192, channel=6, data=[55, 64]),\n",
      "   midi.NoteOnEvent(tick=0, channel=6, data=[59, 100]),\n",
      "   midi.NoteOffEvent(tick=192, channel=6, data=[59, 64]),\n",
      "   midi.NoteOnEvent(tick=0, channel=6, data=[57, 100]),\n",
      "   midi.NoteOffEvent(tick=192, channel=6, data=[57, 64]),\n",
      "   midi.NoteOnEvent(tick=0, channel=6, data=[59, 100]),\n",
      "   midi.NoteOffEvent(tick=192, channel=6, data=[59, 64]),\n",
      "   midi.NoteOnEvent(tick=0, channel=6, data=[61, 100]),\n",
      "   midi.NoteOffEvent(tick=384, channel=6, data=[61, 64]),\n",
      "   midi.NoteOnEvent(tick=384, channel=6, data=[62, 100]),\n",
      "   midi.NoteOffEvent(tick=576, channel=6, data=[62, 64]),\n",
      "   midi.NoteOnEvent(tick=0, channel=6, data=[59, 100]),\n",
      "   midi.NoteOffEvent(tick=192, channel=6, data=[59, 64]),\n",
      "   midi.NoteOnEvent(tick=0, channel=6, data=[56, 100]),\n",
      "   midi.NoteOffEvent(tick=192, channel=6, data=[56, 64]),\n",
      "   midi.NoteOnEvent(tick=0, channel=6, data=[59, 100]),\n",
      "   midi.NoteOffEvent(tick=192, channel=6, data=[59, 64]),\n",
      "   midi.NoteOnEvent(tick=0, channel=6, data=[61, 100]),\n",
      "   midi.NoteOffEvent(tick=192, channel=6, data=[61, 64]),\n",
      "   midi.NoteOnEvent(tick=0, channel=6, data=[49, 100]),\n",
      "   midi.NoteOffEvent(tick=192, channel=6, data=[49, 64]),\n",
      "   midi.NoteOnEvent(tick=0, channel=6, data=[61, 100]),\n",
      "   midi.NoteOffEvent(tick=576, channel=6, data=[61, 64]),\n",
      "   midi.NoteOnEvent(tick=0, channel=6, data=[57, 100]),\n",
      "   midi.NoteOffEvent(tick=192, channel=6, data=[57, 64]),\n",
      "   midi.NoteOnEvent(tick=0, channel=6, data=[54, 100]),\n",
      "   midi.NoteOffEvent(tick=192, channel=6, data=[54, 64]),\n",
      "   midi.NoteOnEvent(tick=0, channel=6, data=[57, 100]),\n",
      "   midi.NoteOffEvent(tick=192, channel=6, data=[57, 64]),\n",
      "   midi.NoteOnEvent(tick=0, channel=6, data=[59, 100]),\n",
      "   midi.NoteOffEvent(tick=960, channel=6, data=[59, 64]),\n",
      "   midi.NoteOnEvent(tick=0, channel=6, data=[56, 100]),\n",
      "   midi.NoteOffEvent(tick=192, channel=6, data=[56, 64]),\n",
      "   midi.NoteOnEvent(tick=0, channel=6, data=[52, 100]),\n",
      "   midi.NoteOffEvent(tick=576, channel=6, data=[52, 64]),\n",
      "   midi.NoteOnEvent(tick=0, channel=6, data=[57, 100]),\n",
      "   midi.NoteOffEvent(tick=192, channel=6, data=[57, 64]),\n",
      "   midi.NoteOnEvent(tick=0, channel=6, data=[61, 100]),\n",
      "   midi.NoteOffEvent(tick=192, channel=6, data=[61, 64]),\n",
      "   midi.NoteOnEvent(tick=0, channel=6, data=[64, 100]),\n",
      "   midi.NoteOffEvent(tick=192, channel=6, data=[64, 64]),\n",
      "   midi.NoteOnEvent(tick=0, channel=6, data=[61, 100]),\n",
      "   midi.NoteOffEvent(tick=384, channel=6, data=[61, 64]),\n",
      "   midi.NoteOnEvent(tick=1152, channel=6, data=[64, 100]),\n",
      "   midi.NoteOffEvent(tick=192, channel=6, data=[64, 64]),\n",
      "   midi.NoteOnEvent(tick=0, channel=6, data=[62, 100]),\n",
      "   midi.NoteOffEvent(tick=96, channel=6, data=[62, 64]),\n",
      "   midi.NoteOnEvent(tick=0, channel=6, data=[61, 100]),\n",
      "   midi.NoteOffEvent(tick=96, channel=6, data=[61, 64]),\n",
      "   midi.NoteOnEvent(tick=0, channel=6, data=[59, 100]),\n",
      "   midi.NoteOffEvent(tick=96, channel=6, data=[59, 64]),\n",
      "   midi.NoteOnEvent(tick=0, channel=6, data=[57, 100]),\n",
      "   midi.NoteOffEvent(tick=96, channel=6, data=[57, 64]),\n",
      "   midi.NoteOnEvent(tick=0, channel=6, data=[56, 100]),\n",
      "   midi.NoteOffEvent(tick=96, channel=6, data=[56, 64]),\n",
      "   midi.NoteOnEvent(tick=0, channel=6, data=[54, 100]),\n",
      "   midi.NoteOffEvent(tick=96, channel=6, data=[54, 64]),\n",
      "   midi.NoteOnEvent(tick=0, channel=6, data=[52, 100]),\n",
      "   midi.NoteOffEvent(tick=192, channel=6, data=[52, 64]),\n",
      "   midi.NoteOnEvent(tick=0, channel=6, data=[61, 100]),\n",
      "   midi.NoteOffEvent(tick=192, channel=6, data=[61, 64]),\n",
      "   midi.NoteOnEvent(tick=0, channel=6, data=[66, 100]),\n",
      "   midi.NoteOffEvent(tick=192, channel=6, data=[66, 64]),\n",
      "   midi.NoteOnEvent(tick=0, channel=6, data=[64, 100]),\n",
      "   midi.NoteOffEvent(tick=192, channel=6, data=[64, 64]),\n",
      "   midi.NoteOnEvent(tick=0, channel=6, data=[64, 100]),\n",
      "   midi.NoteOffEvent(tick=192, channel=6, data=[64, 64]),\n",
      "   midi.NoteOnEvent(tick=0, channel=6, data=[62, 100]),\n",
      "   midi.NoteOffEvent(tick=192, channel=6, data=[62, 64]),\n",
      "   midi.NoteOnEvent(tick=0, channel=6, data=[64, 100]),\n",
      "   midi.NoteOffEvent(tick=384, channel=6, data=[64, 64]),\n",
      "   midi.NoteOnEvent(tick=768, channel=6, data=[69, 100]),\n",
      "   midi.NoteOffEvent(tick=192, channel=6, data=[69, 64]),\n",
      "   midi.NoteOnEvent(tick=0, channel=6, data=[67, 100]),\n",
      "   midi.NoteOffEvent(tick=96, channel=6, data=[67, 64]),\n",
      "   midi.NoteOnEvent(tick=0, channel=6, data=[66, 100]),\n",
      "   midi.NoteOffEvent(tick=96, channel=6, data=[66, 64]),\n",
      "   midi.NoteOnEvent(tick=0, channel=6, data=[64, 100]),\n",
      "   midi.NoteOffEvent(tick=96, channel=6, data=[64, 64]),\n",
      "   midi.NoteOnEvent(tick=0, channel=6, data=[62, 100]),\n",
      "   midi.NoteOffEvent(tick=96, channel=6, data=[62, 64]),\n",
      "   midi.NoteOnEvent(tick=0, channel=6, data=[61, 100]),\n",
      "   midi.NoteOffEvent(tick=96, channel=6, data=[61, 64]),\n",
      "   midi.NoteOnEvent(tick=0, channel=6, data=[59, 100]),\n",
      "   midi.NoteOffEvent(tick=96, channel=6, data=[59, 64]),\n",
      "   midi.NoteOnEvent(tick=0, channel=6, data=[57, 100]),\n",
      "   midi.NoteOffEvent(tick=192, channel=6, data=[57, 64]),\n",
      "   midi.NoteOnEvent(tick=0, channel=6, data=[54, 100]),\n",
      "   midi.NoteOffEvent(tick=192, channel=6, data=[54, 64]),\n",
      "   midi.NoteOnEvent(tick=0, channel=6, data=[59, 100]),\n",
      "   midi.NoteOffEvent(tick=192, channel=6, data=[59, 64]),\n",
      "   midi.NoteOnEvent(tick=0, channel=6, data=[57, 100]),\n",
      "   midi.NoteOffEvent(tick=192, channel=6, data=[57, 64]),\n",
      "   midi.NoteOnEvent(tick=0, channel=6, data=[57, 100]),\n",
      "   midi.NoteOffEvent(tick=192, channel=6, data=[57, 64]),\n",
      "   midi.NoteOnEvent(tick=0, channel=6, data=[61, 100]),\n",
      "   midi.NoteOffEvent(tick=192, channel=6, data=[61, 64]),\n",
      "   midi.NoteOnEvent(tick=0, channel=6, data=[62, 100]),\n",
      "   midi.NoteOffEvent(tick=384, channel=6, data=[62, 64]),\n",
      "   midi.NoteOnEvent(tick=384, channel=6, data=[59, 100]),\n",
      "   midi.NoteOffEvent(tick=576, channel=6, data=[59, 64]),\n",
      "   midi.NoteOnEvent(tick=0, channel=6, data=[59, 100]),\n",
      "   midi.NoteOffEvent(tick=192, channel=6, data=[59, 64]),\n",
      "   midi.NoteOnEvent(tick=0, channel=6, data=[64, 100]),\n",
      "   midi.NoteOffEvent(tick=576, channel=6, data=[64, 64]),\n",
      "   midi.NoteOnEvent(tick=0, channel=6, data=[59, 100]),\n",
      "   midi.NoteOffEvent(tick=192, channel=6, data=[59, 64]),\n",
      "   midi.NoteOnEvent(tick=0, channel=6, data=[59, 100]),\n",
      "   midi.NoteOffEvent(tick=576, channel=6, data=[59, 64]),\n",
      "   midi.NoteOnEvent(tick=0, channel=6, data=[64, 100]),\n",
      "   midi.NoteOffEvent(tick=192, channel=6, data=[64, 64]),\n",
      "   midi.NoteOnEvent(tick=0, channel=6, data=[52, 100]),\n",
      "   midi.NoteOffEvent(tick=576, channel=6, data=[52, 64]),\n",
      "   midi.NoteOnEvent(tick=0, channel=6, data=[52, 100]),\n",
      "   midi.NoteOffEvent(tick=192, channel=6, data=[52, 64]),\n",
      "   midi.NoteOnEvent(tick=0, channel=6, data=[57, 100]),\n",
      "   midi.NoteOffEvent(tick=576, channel=6, data=[57, 64]),\n",
      "   midi.NoteOnEvent(tick=0, channel=6, data=[57, 100]),\n",
      "   midi.NoteOffEvent(tick=192, channel=6, data=[57, 64]),\n",
      "   midi.NoteOnEvent(tick=0, channel=6, data=[61, 100]),\n",
      "   midi.NoteOffEvent(tick=192, channel=6, data=[61, 64]),\n",
      "   midi.NoteOnEvent(tick=0, channel=6, data=[61, 100]),\n",
      "   midi.NoteOffEvent(tick=192, channel=6, data=[61, 64]),\n",
      "   midi.NoteOnEvent(tick=0, channel=6, data=[62, 100]),\n",
      "   midi.NoteOffEvent(tick=384, channel=6, data=[62, 64]),\n",
      "   midi.NoteOnEvent(tick=0, channel=6, data=[59, 100]),\n",
      "   midi.NoteOffEvent(tick=384, channel=6, data=[59, 64]),\n",
      "   midi.NoteOnEvent(tick=0, channel=6, data=[61, 100]),\n",
      "   midi.NoteOffEvent(tick=384, channel=6, data=[61, 64]),\n",
      "   midi.NoteOnEvent(tick=12672, channel=6, data=[64, 100]),\n",
      "   midi.NoteOffEvent(tick=384, channel=6, data=[64, 64]),\n",
      "   midi.NoteOnEvent(tick=384, channel=6, data=[61, 100]),\n",
      "   midi.NoteOffEvent(tick=384, channel=6, data=[61, 64]),\n",
      "   midi.NoteOnEvent(tick=192, channel=6, data=[56, 100]),\n",
      "   midi.NoteOffEvent(tick=192, channel=6, data=[56, 64]),\n",
      "   midi.NoteOnEvent(tick=0, channel=6, data=[57, 100]),\n",
      "   midi.NoteOffEvent(tick=192, channel=6, data=[57, 64]),\n",
      "   midi.NoteOnEvent(tick=0, channel=6, data=[56, 100]),\n",
      "   midi.NoteOffEvent(tick=192, channel=6, data=[56, 64]),\n",
      "   midi.NoteOnEvent(tick=0, channel=6, data=[56, 100]),\n",
      "   midi.NoteOffEvent(tick=192, channel=6, data=[56, 64]),\n",
      "   midi.NoteOnEvent(tick=0, channel=6, data=[61, 100]),\n",
      "   midi.NoteOffEvent(tick=192, channel=6, data=[61, 64]),\n",
      "   midi.NoteOnEvent(tick=0, channel=6, data=[61, 100]),\n",
      "   midi.NoteOffEvent(tick=192, channel=6, data=[61, 64]),\n",
      "   midi.NoteOnEvent(tick=0, channel=6, data=[59, 100]),\n",
      "   midi.NoteOffEvent(tick=96, channel=6, data=[59, 64]),\n",
      "   midi.NoteOnEvent(tick=0, channel=6, data=[61, 100]),\n",
      "   midi.NoteOffEvent(tick=96, channel=6, data=[61, 64]),\n",
      "   midi.NoteOnEvent(tick=0, channel=6, data=[57, 100]),\n",
      "   midi.NoteOffEvent(tick=192, channel=6, data=[57, 64]),\n",
      "   midi.NoteOnEvent(tick=384, channel=6, data=[66, 100]),\n",
      "   midi.NoteOffEvent(tick=384, channel=6, data=[66, 64]),\n",
      "   midi.NoteOnEvent(tick=0, channel=6, data=[62, 100]),\n",
      "   midi.NoteOffEvent(tick=96, channel=6, data=[62, 64]),\n",
      "   midi.NoteOnEvent(tick=0, channel=6, data=[59, 100]),\n",
      "   midi.NoteOffEvent(tick=96, channel=6, data=[59, 64]),\n",
      "   midi.NoteOnEvent(tick=0, channel=6, data=[66, 100]),\n",
      "   midi.NoteOffEvent(tick=512, channel=6, data=[66, 64]),\n",
      "   midi.NoteOnEvent(tick=64, channel=6, data=[58, 100]),\n",
      "   midi.NoteOffEvent(tick=96, channel=6, data=[58, 64]),\n",
      "   midi.NoteOnEvent(tick=0, channel=6, data=[54, 100]),\n",
      "   midi.NoteOffEvent(tick=96, channel=6, data=[54, 64]),\n",
      "   midi.NoteOnEvent(tick=0, channel=6, data=[62, 100]),\n",
      "   midi.NoteOffEvent(tick=192, channel=6, data=[62, 64]),\n",
      "   midi.NoteOnEvent(tick=0, channel=6, data=[61, 100]),\n",
      "   midi.NoteOffEvent(tick=96, channel=6, data=[61, 64]),\n",
      "   midi.NoteOnEvent(tick=0, channel=6, data=[59, 100]),\n",
      "   midi.NoteOffEvent(tick=96, channel=6, data=[59, 64]),\n",
      "   midi.NoteOnEvent(tick=0, channel=6, data=[66, 100]),\n",
      "   midi.NoteOffEvent(tick=192, channel=6, data=[66, 64]),\n",
      "   midi.NoteOnEvent(tick=0, channel=6, data=[66, 100]),\n",
      "   midi.NoteOffEvent(tick=192, channel=6, data=[66, 64]),\n",
      "   midi.NoteOnEvent(tick=0, channel=6, data=[66, 100]),\n",
      "   midi.NoteOffEvent(tick=192, channel=6, data=[66, 64]),\n",
      "   midi.NoteOnEvent(tick=0, channel=6, data=[64, 100]),\n",
      "   midi.NoteOffEvent(tick=96, channel=6, data=[64, 64]),\n",
      "   midi.NoteOnEvent(tick=0, channel=6, data=[66, 100]),\n",
      "   midi.NoteOffEvent(tick=96, channel=6, data=[66, 64]),\n",
      "   midi.NoteOnEvent(tick=0, channel=6, data=[62, 100]),\n",
      "   midi.NoteOffEvent(tick=384, channel=6, data=[62, 64]),\n",
      "   midi.NoteOnEvent(tick=384, channel=6, data=[64, 100]),\n",
      "   midi.NoteOffEvent(tick=384, channel=6, data=[64, 64]),\n",
      "   midi.NoteOnEvent(tick=192, channel=6, data=[64, 100]),\n",
      "   midi.NoteOffEvent(tick=192, channel=6, data=[64, 64]),\n",
      "   midi.NoteOnEvent(tick=0, channel=6, data=[61, 100]),\n",
      "   midi.NoteOffEvent(tick=192, channel=6, data=[61, 64]),\n",
      "   midi.NoteOnEvent(tick=0, channel=6, data=[57, 100]),\n",
      "   midi.NoteOffEvent(tick=192, channel=6, data=[57, 64]),\n",
      "   midi.NoteOnEvent(tick=0, channel=6, data=[57, 100]),\n",
      "   midi.NoteOffEvent(tick=96, channel=6, data=[57, 64]),\n",
      "   midi.NoteOnEvent(tick=0, channel=6, data=[55, 100]),\n",
      "   midi.NoteOffEvent(tick=96, channel=6, data=[55, 64]),\n",
      "   midi.NoteOnEvent(tick=0, channel=6, data=[54, 100]),\n",
      "   midi.NoteOffEvent(tick=96, channel=6, data=[54, 64]),\n",
      "   midi.NoteOnEvent(tick=0, channel=6, data=[52, 100]),\n",
      "   midi.NoteOffEvent(tick=96, channel=6, data=[52, 64]),\n",
      "   midi.NoteOnEvent(tick=0, channel=6, data=[50, 100]),\n",
      "   midi.NoteOffEvent(tick=192, channel=6, data=[50, 64]),\n",
      "   midi.NoteOnEvent(tick=0, channel=6, data=[57, 100]),\n",
      "   midi.NoteOffEvent(tick=192, channel=6, data=[57, 64]),\n",
      "   midi.NoteOnEvent(tick=0, channel=6, data=[59, 100]),\n",
      "   midi.NoteOffEvent(tick=192, channel=6, data=[59, 64]),\n",
      "   midi.NoteOnEvent(tick=0, channel=6, data=[59, 100]),\n",
      "   midi.NoteOffEvent(tick=192, channel=6, data=[59, 64]),\n",
      "   midi.NoteOnEvent(tick=0, channel=6, data=[58, 100]),\n",
      "   midi.NoteOffEvent(tick=192, channel=6, data=[58, 64]),\n",
      "   midi.NoteOnEvent(tick=0, channel=6, data=[59, 100]),\n",
      "   midi.NoteOffEvent(tick=192, channel=6, data=[59, 64]),\n",
      "   midi.NoteOnEvent(tick=0, channel=6, data=[61, 100]),\n",
      "   midi.NoteOffEvent(tick=192, channel=6, data=[61, 64]),\n",
      "   midi.NoteOnEvent(tick=0, channel=6, data=[59, 100]),\n",
      "   midi.NoteOffEvent(tick=192, channel=6, data=[59, 64]),\n",
      "   midi.NoteOnEvent(tick=0, channel=6, data=[58, 100]),\n",
      "   midi.NoteOffEvent(tick=192, channel=6, data=[58, 64]),\n",
      "   midi.NoteOnEvent(tick=0, channel=6, data=[67, 100]),\n",
      "   midi.NoteOffEvent(tick=192, channel=6, data=[67, 64]),\n",
      "   midi.NoteOnEvent(tick=0, channel=6, data=[66, 100]),\n",
      "   midi.NoteOffEvent(tick=192, channel=6, data=[66, 64]),\n",
      "   midi.NoteOnEvent(tick=0, channel=6, data=[64, 100]),\n",
      "   midi.NoteOffEvent(tick=192, channel=6, data=[64, 64]),\n",
      "   midi.NoteOnEvent(tick=0, channel=6, data=[62, 100]),\n",
      "   midi.NoteOffEvent(tick=192, channel=6, data=[62, 64]),\n",
      "   midi.NoteOnEvent(tick=0, channel=6, data=[66, 100]),\n",
      "   midi.NoteOffEvent(tick=192, channel=6, data=[66, 64]),\n",
      "   midi.NoteOnEvent(tick=0, channel=6, data=[59, 100]),\n",
      "   midi.NoteOffEvent(tick=192, channel=6, data=[59, 64]),\n",
      "   midi.NoteOnEvent(tick=0, channel=6, data=[62, 100]),\n",
      "   midi.NoteOffEvent(tick=192, channel=6, data=[62, 64]),\n",
      "   midi.NoteOnEvent(tick=0, channel=6, data=[66, 100]),\n",
      "   midi.NoteOffEvent(tick=192, channel=6, data=[66, 64]),\n",
      "   midi.NoteOnEvent(tick=0, channel=6, data=[61, 100]),\n",
      "   midi.NoteOffEvent(tick=192, channel=6, data=[61, 64]),\n",
      "   midi.NoteOnEvent(tick=0, channel=6, data=[62, 100]),\n",
      "   midi.NoteOffEvent(tick=768, channel=6, data=[62, 64]),\n",
      "   midi.NoteOnEvent(tick=12288, channel=6, data=[66, 100]),\n",
      "   midi.NoteOffEvent(tick=384, channel=6, data=[66, 64]),\n",
      "   midi.NoteOnEvent(tick=384, channel=6, data=[66, 100]),\n",
      "   midi.NoteOffEvent(tick=384, channel=6, data=[66, 64]),\n",
      "   midi.NoteOnEvent(tick=192, channel=6, data=[57, 100]),\n",
      "   midi.NoteOffEvent(tick=192, channel=6, data=[57, 64]),\n",
      "   midi.NoteOnEvent(tick=0, channel=6, data=[59, 100]),\n",
      "   midi.NoteOffEvent(tick=192, channel=6, data=[59, 64]),\n",
      "   midi.NoteOnEvent(tick=0, channel=6, data=[57, 100]),\n",
      "   midi.NoteOffEvent(tick=192, channel=6, data=[57, 64]),\n",
      "   midi.NoteOnEvent(tick=0, channel=6, data=[57, 100]),\n",
      "   midi.NoteOffEvent(tick=192, channel=6, data=[57, 64]),\n",
      "   midi.NoteOnEvent(tick=0, channel=6, data=[62, 100]),\n",
      "   midi.NoteOffEvent(tick=192, channel=6, data=[62, 64]),\n",
      "   midi.NoteOnEvent(tick=0, channel=6, data=[62, 100]),\n",
      "   midi.NoteOffEvent(tick=192, channel=6, data=[62, 64]),\n",
      "   midi.NoteOnEvent(tick=0, channel=6, data=[60, 100]),\n",
      "   midi.NoteOffEvent(tick=96, channel=6, data=[60, 64]),\n",
      "   midi.NoteOnEvent(tick=0, channel=6, data=[62, 100]),\n",
      "   midi.NoteOffEvent(tick=96, channel=6, data=[62, 64]),\n",
      "   midi.NoteOnEvent(tick=0, channel=6, data=[59, 100]),\n",
      "   midi.NoteOffEvent(tick=192, channel=6, data=[59, 64]),\n",
      "   midi.NoteOnEvent(tick=384, channel=6, data=[59, 100]),\n",
      "   midi.NoteOffEvent(tick=384, channel=6, data=[59, 64]),\n",
      "   midi.NoteOnEvent(tick=0, channel=6, data=[55, 100]),\n",
      "   midi.NoteOffEvent(tick=96, channel=6, data=[55, 64]),\n",
      "   midi.NoteOnEvent(tick=0, channel=6, data=[52, 100]),\n",
      "   midi.NoteOffEvent(tick=96, channel=6, data=[52, 64]),\n",
      "   midi.NoteOnEvent(tick=0, channel=6, data=[59, 100]),\n",
      "   midi.NoteOffEvent(tick=512, channel=6, data=[59, 64]),\n",
      "   midi.NoteOnEvent(tick=64, channel=6, data=[54, 100]),\n",
      "   midi.NoteOffEvent(tick=96, channel=6, data=[54, 64]),\n",
      "   midi.NoteOnEvent(tick=0, channel=6, data=[51, 100]),\n",
      "   midi.NoteOffEvent(tick=96, channel=6, data=[51, 64]),\n",
      "   midi.NoteOnEvent(tick=0, channel=6, data=[55, 100]),\n",
      "   midi.NoteOffEvent(tick=192, channel=6, data=[55, 64]),\n",
      "   midi.NoteOnEvent(tick=0, channel=6, data=[54, 100]),\n",
      "   midi.NoteOffEvent(tick=96, channel=6, data=[54, 64]),\n",
      "   midi.NoteOnEvent(tick=0, channel=6, data=[52, 100]),\n",
      "   midi.NoteOffEvent(tick=96, channel=6, data=[52, 64]),\n",
      "   midi.NoteOnEvent(tick=0, channel=6, data=[59, 100]),\n",
      "   midi.NoteOffEvent(tick=192, channel=6, data=[59, 64]),\n",
      "   midi.NoteOnEvent(tick=0, channel=6, data=[59, 100]),\n",
      "   midi.NoteOffEvent(tick=192, channel=6, data=[59, 64]),\n",
      "   midi.NoteOnEvent(tick=0, channel=6, data=[59, 100]),\n",
      "   midi.NoteOffEvent(tick=192, channel=6, data=[59, 64]),\n",
      "   midi.NoteOnEvent(tick=0, channel=6, data=[64, 100]),\n",
      "   midi.NoteOffEvent(tick=96, channel=6, data=[64, 64]),\n",
      "   midi.NoteOnEvent(tick=0, channel=6, data=[63, 100]),\n",
      "   midi.NoteOffEvent(tick=96, channel=6, data=[63, 64]),\n",
      "   midi.NoteOnEvent(tick=0, channel=6, data=[64, 100]),\n",
      "   midi.NoteOffEvent(tick=192, channel=6, data=[64, 64]),\n",
      "   midi.NoteOnEvent(tick=0, channel=6, data=[67, 100]),\n",
      "   midi.NoteOffEvent(tick=288, channel=6, data=[67, 64]),\n",
      "   midi.NoteOnEvent(tick=0, channel=6, data=[66, 100]),\n",
      "   midi.NoteOffEvent(tick=96, channel=6, data=[66, 64]),\n",
      "   midi.NoteOnEvent(tick=0, channel=6, data=[64, 100]),\n",
      "   midi.NoteOffEvent(tick=96, channel=6, data=[64, 64]),\n",
      "   midi.NoteOnEvent(tick=0, channel=6, data=[62, 100]),\n",
      "   midi.NoteOffEvent(tick=96, channel=6, data=[62, 64]),\n",
      "   midi.NoteOnEvent(tick=0, channel=6, data=[64, 100]),\n",
      "   midi.NoteOffEvent(tick=192, channel=6, data=[64, 64]),\n",
      "   midi.NoteOnEvent(tick=0, channel=6, data=[69, 100]),\n",
      "   midi.NoteOffEvent(tick=192, channel=6, data=[69, 64]),\n",
      "   midi.NoteOnEvent(tick=0, channel=6, data=[57, 100]),\n",
      "   midi.NoteOffEvent(tick=192, channel=6, data=[57, 64]),\n",
      "   midi.NoteOnEvent(tick=0, channel=6, data=[62, 100]),\n",
      "   midi.NoteOffEvent(tick=96, channel=6, data=[62, 64]),\n",
      "   midi.NoteOnEvent(tick=0, channel=6, data=[61, 100]),\n",
      "   midi.NoteOffEvent(tick=96, channel=6, data=[61, 64]),\n",
      "   midi.NoteOnEvent(tick=0, channel=6, data=[62, 100]),\n",
      "   midi.NoteOffEvent(tick=192, channel=6, data=[62, 64]),\n",
      "   midi.NoteOnEvent(tick=0, channel=6, data=[66, 100]),\n",
      "   midi.NoteOffEvent(tick=288, channel=6, data=[66, 64]),\n",
      "   midi.NoteOnEvent(tick=0, channel=6, data=[64, 100]),\n",
      "   midi.NoteOffEvent(tick=96, channel=6, data=[64, 64]),\n",
      "   midi.NoteOnEvent(tick=0, channel=6, data=[62, 100]),\n",
      "   midi.NoteOffEvent(tick=96, channel=6, data=[62, 64]),\n",
      "   midi.NoteOnEvent(tick=0, channel=6, data=[61, 100]),\n",
      "   midi.NoteOffEvent(tick=96, channel=6, data=[61, 64]),\n",
      "   midi.NoteOnEvent(tick=0, channel=6, data=[62, 100]),\n",
      "   midi.NoteOffEvent(tick=192, channel=6, data=[62, 64]),\n",
      "   midi.NoteOnEvent(tick=0, channel=6, data=[68, 100]),\n",
      "   midi.NoteOffEvent(tick=192, channel=6, data=[68, 64]),\n",
      "   midi.NoteOnEvent(tick=0, channel=6, data=[56, 100]),\n",
      "   midi.NoteOffEvent(tick=192, channel=6, data=[56, 64]),\n",
      "   midi.NoteOnEvent(tick=0, channel=6, data=[61, 100]),\n",
      "   midi.NoteOffEvent(tick=96, channel=6, data=[61, 64]),\n",
      "   midi.NoteOnEvent(tick=0, channel=6, data=[59, 100]),\n",
      "   midi.NoteOffEvent(tick=96, channel=6, data=[59, 64]),\n",
      "   midi.NoteOnEvent(tick=0, channel=6, data=[61, 100]),\n",
      "   midi.NoteOffEvent(tick=96, channel=6, data=[61, 64]),\n",
      "   midi.NoteOnEvent(tick=0, channel=6, data=[62, 100]),\n",
      "   midi.NoteOffEvent(tick=96, channel=6, data=[62, 64]),\n",
      "   midi.NoteOnEvent(tick=0, channel=6, data=[61, 100]),\n",
      "   midi.NoteOffEvent(tick=96, channel=6, data=[61, 64]),\n",
      "   midi.NoteOnEvent(tick=0, channel=6, data=[62, 100]),\n",
      "   midi.NoteOffEvent(tick=96, channel=6, data=[62, 64]),\n",
      "   midi.NoteOnEvent(tick=0, channel=6, data=[61, 100]),\n",
      "   midi.NoteOffEvent(tick=192, channel=6, data=[61, 64]),\n",
      "   midi.NoteOnEvent(tick=0, channel=6, data=[54, 100]),\n",
      "   midi.NoteOffEvent(tick=192, channel=6, data=[54, 64]),\n",
      "   midi.NoteOnEvent(tick=576, channel=6, data=[66, 100]),\n",
      "   midi.NoteOffEvent(tick=192, channel=6, data=[66, 64]),\n",
      "   midi.NoteOnEvent(tick=0, channel=6, data=[65, 100]),\n",
      "   midi.NoteOffEvent(tick=192, channel=6, data=[65, 64]),\n",
      "   midi.NoteOnEvent(tick=0, channel=6, data=[66, 100]),\n",
      "   midi.NoteOffEvent(tick=192, channel=6, data=[66, 64]),\n",
      "   midi.NoteOnEvent(tick=0, channel=6, data=[61, 100]),\n",
      "   midi.NoteOffEvent(tick=512, channel=6, data=[61, 64]),\n",
      "   midi.NoteOnEvent(tick=64, channel=6, data=[62, 100]),\n",
      "   midi.NoteOffEvent(tick=192, channel=6, data=[62, 64]),\n",
      "   midi.NoteOnEvent(tick=0, channel=6, data=[61, 100]),\n",
      "   midi.NoteOffEvent(tick=384, channel=6, data=[61, 64]),\n",
      "   midi.NoteOnEvent(tick=0, channel=6, data=[61, 100]),\n",
      "   midi.NoteOffEvent(tick=192, channel=6, data=[61, 64]),\n",
      "   midi.NoteOnEvent(tick=0, channel=6, data=[59, 100]),\n",
      "   midi.NoteOffEvent(tick=192, channel=6, data=[59, 64]),\n",
      "   midi.NoteOnEvent(tick=0, channel=6, data=[57, 100]),\n",
      "   midi.NoteOffEvent(tick=384, channel=6, data=[57, 64]),\n",
      "   midi.NoteOnEvent(tick=3456, channel=6, data=[66, 100]),\n",
      "   midi.NoteOffEvent(tick=384, channel=6, data=[66, 64]),\n",
      "   midi.NoteOnEvent(tick=0, channel=6, data=[62, 100]),\n",
      "   midi.NoteOffEvent(tick=384, channel=6, data=[62, 64]),\n",
      "   midi.NoteOnEvent(tick=0, channel=6, data=[57, 100]),\n",
      "   midi.NoteOffEvent(tick=192, channel=6, data=[57, 64]),\n",
      "   midi.NoteOnEvent(tick=0, channel=6, data=[57, 100]),\n",
      "   midi.NoteOffEvent(tick=192, channel=6, data=[57, 64]),\n",
      "   midi.NoteOnEvent(tick=0, channel=6, data=[62, 100]),\n",
      "   midi.NoteOffEvent(tick=768, channel=6, data=[62, 64]),\n",
      "   midi.NoteOnEvent(tick=0, channel=6, data=[62, 100]),\n",
      "   midi.NoteOffEvent(tick=384, channel=6, data=[62, 64]),\n",
      "   midi.NoteOnEvent(tick=0, channel=6, data=[62, 100]),\n",
      "   midi.NoteOffEvent(tick=192, channel=6, data=[62, 64]),\n",
      "   midi.NoteOnEvent(tick=0, channel=6, data=[60, 100]),\n",
      "   midi.NoteOffEvent(tick=192, channel=6, data=[60, 64]),\n",
      "   midi.NoteOnEvent(tick=0, channel=6, data=[62, 100]),\n",
      "   midi.NoteOffEvent(tick=384, channel=6, data=[62, 64]),\n",
      "   midi.NoteOnEvent(tick=0, channel=6, data=[61, 100]),\n",
      "   midi.NoteOffEvent(tick=96, channel=6, data=[61, 64]),\n",
      "   midi.NoteOnEvent(tick=0, channel=6, data=[62, 100]),\n",
      "   midi.NoteOffEvent(tick=96, channel=6, data=[62, 64]),\n",
      "   midi.NoteOnEvent(tick=0, channel=6, data=[64, 100]),\n",
      "   midi.NoteOffEvent(tick=96, channel=6, data=[64, 64]),\n",
      "   midi.NoteOnEvent(tick=96, channel=6, data=[64, 100]),\n",
      "   midi.NoteOffEvent(tick=96, channel=6, data=[64, 64]),\n",
      "   midi.NoteOnEvent(tick=96, channel=6, data=[61, 100]),\n",
      "   midi.NoteOffEvent(tick=96, channel=6, data=[61, 64]),\n",
      "   midi.NoteOnEvent(tick=96, channel=6, data=[57, 100]),\n",
      "   midi.NoteOffEvent(tick=512, channel=6, data=[57, 64]),\n",
      "   midi.NoteOnEvent(tick=64, channel=6, data=[61, 100]),\n",
      "   midi.NoteOffEvent(tick=192, channel=6, data=[61, 64]),\n",
      "   midi.NoteOnEvent(tick=0, channel=6, data=[62, 100]),\n",
      "   midi.NoteOffEvent(tick=512, channel=6, data=[62, 64]),\n",
      "   midi.NoteOnEvent(tick=64, channel=6, data=[61, 100]),\n",
      "   midi.NoteOffEvent(tick=192, channel=6, data=[61, 64]),\n",
      "   midi.NoteOnEvent(tick=0, channel=6, data=[62, 100]),\n",
      "   midi.NoteOffEvent(tick=384, channel=6, data=[62, 64]),\n",
      "   midi.NoteOnEvent(tick=0, channel=6, data=[57, 100]),\n",
      "   midi.NoteOffEvent(tick=384, channel=6, data=[57, 64]),\n",
      "   midi.NoteOnEvent(tick=768, channel=6, data=[62, 100]),\n",
      "   midi.NoteOffEvent(tick=192, channel=6, data=[62, 64]),\n",
      "   midi.NoteOnEvent(tick=0, channel=6, data=[61, 100]),\n",
      "   midi.NoteOffEvent(tick=96, channel=6, data=[61, 64]),\n",
      "   midi.NoteOnEvent(tick=0, channel=6, data=[59, 100]),\n",
      "   midi.NoteOffEvent(tick=96, channel=6, data=[59, 64]),\n",
      "   midi.NoteOnEvent(tick=0, channel=6, data=[57, 100]),\n",
      "   midi.NoteOffEvent(tick=96, channel=6, data=[57, 64]),\n",
      "   midi.NoteOnEvent(tick=0, channel=6, data=[55, 100]),\n",
      "   midi.NoteOffEvent(tick=96, channel=6, data=[55, 64]),\n",
      "   midi.NoteOnEvent(tick=0, channel=6, data=[54, 100]),\n",
      "   midi.NoteOffEvent(tick=96, channel=6, data=[54, 64]),\n",
      "   midi.NoteOnEvent(tick=0, channel=6, data=[52, 100]),\n",
      "   midi.NoteOffEvent(tick=96, channel=6, data=[52, 64]),\n",
      "   midi.NoteOnEvent(tick=0, channel=6, data=[50, 100]),\n",
      "   midi.NoteOffEvent(tick=192, channel=6, data=[50, 64]),\n",
      "   midi.NoteOnEvent(tick=0, channel=6, data=[62, 100]),\n",
      "   midi.NoteOffEvent(tick=192, channel=6, data=[62, 64]),\n",
      "   midi.NoteOnEvent(tick=0, channel=6, data=[59, 100]),\n",
      "   midi.NoteOffEvent(tick=192, channel=6, data=[59, 64]),\n",
      "   midi.NoteOnEvent(tick=0, channel=6, data=[57, 100]),\n",
      "   midi.NoteOffEvent(tick=192, channel=6, data=[57, 64]),\n",
      "   midi.NoteOnEvent(tick=0, channel=6, data=[57, 100]),\n",
      "   midi.NoteOffEvent(tick=192, channel=6, data=[57, 64]),\n",
      "   midi.NoteOnEvent(tick=0, channel=6, data=[54, 100]),\n",
      "   midi.NoteOffEvent(tick=192, channel=6, data=[54, 64]),\n",
      "   midi.NoteOnEvent(tick=0, channel=6, data=[62, 100]),\n",
      "   midi.NoteOffEvent(tick=576, channel=6, data=[62, 64]),\n",
      "   midi.NoteOnEvent(tick=0, channel=6, data=[57, 100]),\n",
      "   midi.NoteOffEvent(tick=192, channel=6, data=[57, 64]),\n",
      "   midi.NoteOnEvent(tick=0, channel=6, data=[62, 100]),\n",
      "   midi.NoteOffEvent(tick=192, channel=6, data=[62, 64]),\n",
      "   midi.NoteOnEvent(tick=0, channel=6, data=[62, 100]),\n",
      "   midi.NoteOffEvent(tick=192, channel=6, data=[62, 64]),\n",
      "   midi.NoteOnEvent(tick=0, channel=6, data=[62, 100]),\n",
      "   midi.NoteOffEvent(tick=192, channel=6, data=[62, 64]),\n",
      "   midi.NoteOnEvent(tick=0, channel=6, data=[59, 100]),\n",
      "   midi.NoteOffEvent(tick=192, channel=6, data=[59, 64]),\n",
      "   midi.NoteOnEvent(tick=0, channel=6, data=[59, 100]),\n",
      "   midi.NoteOffEvent(tick=480, channel=6, data=[59, 64]),\n",
      "   midi.NoteOnEvent(tick=0, channel=6, data=[57, 100]),\n",
      "   midi.NoteOffEvent(tick=96, channel=6, data=[57, 64]),\n",
      "   midi.NoteOnEvent(tick=0, channel=6, data=[55, 100]),\n",
      "   midi.NoteOffEvent(tick=96, channel=6, data=[55, 64]),\n",
      "   midi.NoteOnEvent(tick=0, channel=6, data=[54, 100]),\n",
      "   midi.NoteOffEvent(tick=96, channel=6, data=[54, 64]),\n",
      "   midi.NoteOnEvent(tick=0, channel=6, data=[55, 100]),\n",
      "   midi.NoteOffEvent(tick=192, channel=6, data=[55, 64]),\n",
      "   midi.NoteOnEvent(tick=0, channel=6, data=[59, 100]),\n",
      "   midi.NoteOffEvent(tick=192, channel=6, data=[59, 64]),\n",
      "   midi.NoteOnEvent(tick=0, channel=6, data=[57, 100]),\n",
      "   midi.NoteOffEvent(tick=192, channel=6, data=[57, 64]),\n",
      "   midi.NoteOnEvent(tick=0, channel=6, data=[59, 100]),\n",
      "   midi.NoteOffEvent(tick=192, channel=6, data=[59, 64]),\n",
      "   midi.NoteOnEvent(tick=0, channel=6, data=[61, 100]),\n",
      "   midi.NoteOffEvent(tick=384, channel=6, data=[61, 64]),\n",
      "   midi.NoteOnEvent(tick=768, channel=6, data=[62, 100]),\n",
      "   midi.NoteOffEvent(tick=192, channel=6, data=[62, 64]),\n",
      "   midi.NoteOnEvent(tick=0, channel=6, data=[57, 100]),\n",
      "   midi.NoteOffEvent(tick=192, channel=6, data=[57, 64]),\n",
      "   midi.NoteOnEvent(tick=0, channel=6, data=[54, 100]),\n",
      "   midi.NoteOffEvent(tick=192, channel=6, data=[54, 64]),\n",
      "   midi.NoteOnEvent(tick=0, channel=6, data=[50, 100]),\n",
      "   midi.NoteOffEvent(tick=192, channel=6, data=[50, 64]),\n",
      "   midi.NoteOnEvent(tick=0, channel=6, data=[60, 100]),\n",
      "   midi.NoteOffEvent(tick=384, channel=6, data=[60, 64]),\n",
      "   midi.NoteOnEvent(tick=192, channel=6, data=[54, 100]),\n",
      "   midi.NoteOffEvent(tick=192, channel=6, data=[54, 64]),\n",
      "   midi.NoteOnEvent(tick=0, channel=6, data=[57, 100]),\n",
      "   midi.NoteOffEvent(tick=192, channel=6, data=[57, 64]),\n",
      "   midi.NoteOnEvent(tick=0, channel=6, data=[55, 100]),\n",
      "   midi.NoteOffEvent(tick=192, channel=6, data=[55, 64]),\n",
      "   midi.NoteOnEvent(tick=0, channel=6, data=[54, 100]),\n",
      "   midi.NoteOffEvent(tick=192, channel=6, data=[54, 64]),\n",
      "   midi.NoteOnEvent(tick=0, channel=6, data=[55, 100]),\n",
      "   midi.NoteOffEvent(tick=96, channel=6, data=[55, 64]),\n",
      "   midi.NoteOnEvent(tick=0, channel=6, data=[57, 100]),\n",
      "   midi.NoteOffEvent(tick=96, channel=6, data=[57, 64]),\n",
      "   midi.NoteOnEvent(tick=0, channel=6, data=[55, 100]),\n",
      "   midi.NoteOffEvent(tick=384, channel=6, data=[55, 64]),\n",
      "   midi.NoteOnEvent(tick=0, channel=6, data=[55, 100]),\n",
      "   midi.NoteOffEvent(tick=384, channel=6, data=[55, 64]),\n",
      "   midi.NoteOnEvent(tick=384, channel=6, data=[61, 100]),\n",
      "   midi.NoteOffEvent(tick=576, channel=6, data=[61, 64]),\n",
      "   midi.NoteOnEvent(tick=0, channel=6, data=[57, 100]),\n",
      "   midi.NoteOffEvent(tick=192, channel=6, data=[57, 64]),\n",
      "   midi.NoteOnEvent(tick=0, channel=6, data=[54, 100]),\n",
      "   midi.NoteOffEvent(tick=192, channel=6, data=[54, 64]),\n",
      "   midi.NoteOnEvent(tick=0, channel=6, data=[57, 100]),\n",
      "   midi.NoteOffEvent(tick=192, channel=6, data=[57, 64]),\n",
      "   midi.NoteOnEvent(tick=0, channel=6, data=[59, 100]),\n",
      "   midi.NoteOffEvent(tick=192, channel=6, data=[59, 64]),\n",
      "   midi.NoteOnEvent(tick=0, channel=6, data=[59, 100]),\n",
      "   midi.NoteOffEvent(tick=96, channel=6, data=[59, 64]),\n",
      "   midi.NoteOnEvent(tick=0, channel=6, data=[57, 100]),\n",
      "   midi.NoteOffEvent(tick=96, channel=6, data=[57, 64]),\n",
      "   midi.NoteOnEvent(tick=0, channel=6, data=[59, 100]),\n",
      "   midi.NoteOffEvent(tick=576, channel=6, data=[59, 64]),\n",
      "   midi.NoteOnEvent(tick=0, channel=6, data=[52, 100]),\n",
      "   midi.NoteOffEvent(tick=192, channel=6, data=[52, 64]),\n",
      "   midi.NoteOnEvent(tick=0, channel=6, data=[64, 100]),\n",
      "   midi.NoteOffEvent(tick=192, channel=6, data=[64, 64]),\n",
      "   midi.NoteOnEvent(tick=0, channel=6, data=[62, 100]),\n",
      "   midi.NoteOffEvent(tick=192, channel=6, data=[62, 64]),\n",
      "   midi.NoteOnEvent(tick=0, channel=6, data=[61, 100]),\n",
      "   midi.NoteOffEvent(tick=512, channel=6, data=[61, 64]),\n",
      "   midi.NoteOnEvent(tick=64, channel=6, data=[62, 100]),\n",
      "   midi.NoteOffEvent(tick=96, channel=6, data=[62, 64]),\n",
      "   midi.NoteOnEvent(tick=0, channel=6, data=[64, 100]),\n",
      "   midi.NoteOffEvent(tick=96, channel=6, data=[64, 64]),\n",
      "   midi.NoteOnEvent(tick=0, channel=6, data=[62, 100]),\n",
      "   midi.NoteOffEvent(tick=192, channel=6, data=[62, 64]),\n",
      "   midi.NoteOnEvent(tick=0, channel=6, data=[57, 100]),\n",
      "   midi.NoteOffEvent(tick=384, channel=6, data=[57, 64]),\n",
      "   midi.NoteOnEvent(tick=0, channel=6, data=[57, 100]),\n",
      "   midi.NoteOffEvent(tick=192, channel=6, data=[57, 64]),\n",
      "   midi.NoteOnEvent(tick=0, channel=6, data=[57, 100]),\n",
      "   midi.NoteOffEvent(tick=384, channel=6, data=[57, 64]),\n",
      "   midi.NoteOnEvent(tick=1152, channel=6, data=[69, 100]),\n",
      "   midi.NoteOffEvent(tick=192, channel=6, data=[69, 64]),\n",
      "   midi.NoteOnEvent(tick=0, channel=6, data=[67, 100]),\n",
      "   midi.NoteOffEvent(tick=96, channel=6, data=[67, 64]),\n",
      "   midi.NoteOnEvent(tick=0, channel=6, data=[66, 100]),\n",
      "   midi.NoteOffEvent(tick=96, channel=6, data=[66, 64]),\n",
      "   midi.NoteOnEvent(tick=0, channel=6, data=[64, 100]),\n",
      "   midi.NoteOffEvent(tick=96, channel=6, data=[64, 64]),\n",
      "   midi.NoteOnEvent(tick=0, channel=6, data=[62, 100]),\n",
      "   midi.NoteOffEvent(tick=96, channel=6, data=[62, 64]),\n",
      "   midi.NoteOnEvent(tick=0, channel=6, data=[61, 100]),\n",
      "   midi.NoteOffEvent(tick=96, channel=6, data=[61, 64]),\n",
      "   midi.NoteOnEvent(tick=0, channel=6, data=[59, 100]),\n",
      "   midi.NoteOffEvent(tick=96, channel=6, data=[59, 64]),\n",
      "   midi.NoteOnEvent(tick=0, channel=6, data=[57, 100]),\n",
      "   midi.NoteOffEvent(tick=192, channel=6, data=[57, 64]),\n",
      "   midi.NoteOnEvent(tick=0, channel=6, data=[59, 100]),\n",
      "   midi.NoteOffEvent(tick=192, channel=6, data=[59, 64]),\n",
      "   midi.NoteOnEvent(tick=0, channel=6, data=[59, 100]),\n",
      "   midi.NoteOffEvent(tick=192, channel=6, data=[59, 64]),\n",
      "   midi.NoteOnEvent(tick=0, channel=6, data=[57, 100]),\n",
      "   midi.NoteOffEvent(tick=192, channel=6, data=[57, 64]),\n",
      "   midi.NoteOnEvent(tick=0, channel=6, data=[57, 100]),\n",
      "   midi.NoteOffEvent(tick=192, channel=6, data=[57, 64]),\n",
      "   midi.NoteOnEvent(tick=0, channel=6, data=[61, 100]),\n",
      "   midi.NoteOffEvent(tick=96, channel=6, data=[61, 64]),\n",
      "   midi.NoteOnEvent(tick=0, channel=6, data=[59, 100]),\n",
      "   midi.NoteOffEvent(tick=96, channel=6, data=[59, 64]),\n",
      "   midi.NoteOnEvent(tick=0, channel=6, data=[57, 100]),\n",
      "   midi.NoteOffEvent(tick=384, channel=6, data=[57, 64]),\n",
      "   midi.NoteOnEvent(tick=768, channel=6, data=[62, 100]),\n",
      "   midi.NoteOffEvent(tick=192, channel=6, data=[62, 64]),\n",
      "   midi.NoteOnEvent(tick=0, channel=6, data=[60, 100]),\n",
      "   midi.NoteOffEvent(tick=96, channel=6, data=[60, 64]),\n",
      "   midi.NoteOnEvent(tick=0, channel=6, data=[59, 100]),\n",
      "   midi.NoteOffEvent(tick=96, channel=6, data=[59, 64]),\n",
      "   midi.NoteOnEvent(tick=0, channel=6, data=[57, 100]),\n",
      "   midi.NoteOffEvent(tick=96, channel=6, data=[57, 64]),\n",
      "   midi.NoteOnEvent(tick=0, channel=6, data=[55, 100]),\n",
      "   midi.NoteOffEvent(tick=96, channel=6, data=[55, 64]),\n",
      "   midi.NoteOnEvent(tick=0, channel=6, data=[54, 100]),\n",
      "   midi.NoteOffEvent(tick=96, channel=6, data=[54, 64]),\n",
      "   midi.NoteOnEvent(tick=0, channel=6, data=[52, 100]),\n",
      "   midi.NoteOffEvent(tick=96, channel=6, data=[52, 64]),\n",
      "   midi.NoteOnEvent(tick=0, channel=6, data=[50, 100]),\n",
      "   midi.NoteOffEvent(tick=192, channel=6, data=[50, 64]),\n",
      "   midi.NoteOnEvent(tick=0, channel=6, data=[59, 100]),\n",
      "   midi.NoteOffEvent(tick=192, channel=6, data=[59, 64]),\n",
      "   midi.NoteOnEvent(tick=0, channel=6, data=[64, 100]),\n",
      "   midi.NoteOffEvent(tick=192, channel=6, data=[64, 64]),\n",
      "   midi.NoteOnEvent(tick=0, channel=6, data=[62, 100]),\n",
      "   midi.NoteOffEvent(tick=192, channel=6, data=[62, 64]),\n",
      "   midi.NoteOnEvent(tick=0, channel=6, data=[62, 100]),\n",
      "   midi.NoteOffEvent(tick=192, channel=6, data=[62, 64]),\n",
      "   midi.NoteOnEvent(tick=0, channel=6, data=[60, 100]),\n",
      "   midi.NoteOffEvent(tick=192, channel=6, data=[60, 64]),\n",
      "   midi.NoteOnEvent(tick=0, channel=6, data=[62, 100]),\n",
      "   midi.NoteOffEvent(tick=384, channel=6, data=[62, 64]),\n",
      "   midi.NoteOnEvent(tick=384, channel=6, data=[59, 100]),\n",
      "   midi.NoteOffEvent(tick=576, channel=6, data=[59, 64]),\n",
      "   midi.NoteOnEvent(tick=0, channel=6, data=[52, 100]),\n",
      "   midi.NoteOffEvent(tick=192, channel=6, data=[52, 64]),\n",
      "   midi.NoteOnEvent(tick=0, channel=6, data=[57, 100]),\n",
      "   midi.NoteOffEvent(tick=576, channel=6, data=[57, 64]),\n",
      "   midi.NoteOnEvent(tick=0, channel=6, data=[52, 100]),\n",
      "   midi.NoteOffEvent(tick=192, channel=6, data=[52, 64]),\n",
      "   midi.NoteOnEvent(tick=0, channel=6, data=[64, 100]),\n",
      "   midi.NoteOffEvent(tick=480, channel=6, data=[64, 64]),\n",
      "   midi.NoteOnEvent(tick=0, channel=6, data=[66, 100]),\n",
      "   midi.NoteOffEvent(tick=96, channel=6, data=[66, 64]),\n",
      "   midi.NoteOnEvent(tick=0, channel=6, data=[67, 100]),\n",
      "   midi.NoteOffEvent(tick=192, channel=6, data=[67, 64]),\n",
      "   midi.NoteOnEvent(tick=0, channel=6, data=[57, 100]),\n",
      "   midi.NoteOffEvent(tick=576, channel=6, data=[57, 64]),\n",
      "   midi.NoteOnEvent(tick=0, channel=6, data=[57, 100]),\n",
      "   midi.NoteOffEvent(tick=192, channel=6, data=[57, 64]),\n",
      "   midi.NoteOnEvent(tick=0, channel=6, data=[62, 100]),\n",
      "   midi.NoteOffEvent(tick=576, channel=6, data=[62, 64]),\n",
      "   midi.NoteOnEvent(tick=0, channel=6, data=[57, 100]),\n",
      "   midi.NoteOffEvent(tick=192, channel=6, data=[57, 64]),\n",
      "   midi.NoteOnEvent(tick=0, channel=6, data=[62, 100]),\n",
      "   midi.NoteOffEvent(tick=192, channel=6, data=[62, 64]),\n",
      "   midi.NoteOnEvent(tick=0, channel=6, data=[62, 100]),\n",
      "   midi.NoteOffEvent(tick=192, channel=6, data=[62, 64]),\n",
      "   midi.NoteOnEvent(tick=0, channel=6, data=[59, 100]),\n",
      "   midi.NoteOffEvent(tick=192, channel=6, data=[59, 64]),\n",
      "   midi.NoteOnEvent(tick=0, channel=6, data=[67, 100]),\n",
      "   midi.NoteOffEvent(tick=384, channel=6, data=[67, 64]),\n",
      "   midi.NoteOnEvent(tick=0, channel=6, data=[57, 100]),\n",
      "   midi.NoteOffEvent(tick=192, channel=6, data=[57, 64]),\n",
      "   midi.NoteOnEvent(tick=0, channel=6, data=[66, 100]),\n",
      "   midi.NoteOffEvent(tick=384, channel=6, data=[66, 64]),\n",
      "   midi.EndOfTrackEvent(tick=0, data=[])]),\n",
      " midi.Track(\\\n",
      "  [midi.TrackNameEvent(tick=0, text='Basso', data=[66, 97, 115, 115, 111]),\n",
      "   midi.ControlChangeEvent(tick=0, channel=7, data=[0, 0]),\n",
      "   midi.ProgramChangeEvent(tick=0, channel=7, data=[67]),\n",
      "   midi.ControlChangeEvent(tick=0, channel=7, data=[7, 127]),\n",
      "   midi.ControlChangeEvent(tick=0, channel=7, data=[10, 62]),\n",
      "   midi.ControlChangeEvent(tick=0, channel=7, data=[91, 127]),\n",
      "   midi.KeySignatureEvent(tick=0, data=[2, 0]),\n",
      "   midi.NoteOnEvent(tick=25344, channel=7, data=[50, 100]),\n",
      "   midi.NoteOffEvent(tick=512, channel=7, data=[50, 64]),\n",
      "   midi.NoteOnEvent(tick=64, channel=7, data=[54, 100]),\n",
      "   midi.NoteOffEvent(tick=96, channel=7, data=[54, 64]),\n",
      "   midi.NoteOnEvent(tick=0, channel=7, data=[57, 100]),\n",
      "   midi.NoteOffEvent(tick=96, channel=7, data=[57, 64]),\n",
      "   midi.NoteOnEvent(tick=0, channel=7, data=[62, 100]),\n",
      "   midi.NoteOffEvent(tick=192, channel=7, data=[62, 64]),\n",
      "   midi.NoteOnEvent(tick=0, channel=7, data=[62, 100]),\n",
      "   midi.NoteOffEvent(tick=192, channel=7, data=[62, 64]),\n",
      "   midi.NoteOnEvent(tick=0, channel=7, data=[62, 100]),\n",
      "   midi.NoteOffEvent(tick=192, channel=7, data=[62, 64]),\n",
      "   midi.NoteOnEvent(tick=0, channel=7, data=[57, 100]),\n",
      "   midi.NoteOffEvent(tick=192, channel=7, data=[57, 64]),\n",
      "   midi.NoteOnEvent(tick=0, channel=7, data=[54, 100]),\n",
      "   midi.NoteOffEvent(tick=192, channel=7, data=[54, 64]),\n",
      "   midi.NoteOnEvent(tick=0, channel=7, data=[55, 100]),\n",
      "   midi.NoteOffEvent(tick=192, channel=7, data=[55, 64]),\n",
      "   midi.NoteOnEvent(tick=0, channel=7, data=[57, 100]),\n",
      "   midi.NoteOffEvent(tick=192, channel=7, data=[57, 64]),\n",
      "   midi.NoteOnEvent(tick=0, channel=7, data=[54, 100]),\n",
      "   midi.NoteOffEvent(tick=192, channel=7, data=[54, 64]),\n",
      "   midi.NoteOnEvent(tick=0, channel=7, data=[55, 100]),\n",
      "   midi.NoteOffEvent(tick=384, channel=7, data=[55, 64]),\n",
      "   midi.NoteOnEvent(tick=0, channel=7, data=[43, 100]),\n",
      "   midi.NoteOffEvent(tick=384, channel=7, data=[43, 64]),\n",
      "   midi.NoteOnEvent(tick=768, channel=7, data=[64, 100]),\n",
      "   midi.NoteOffEvent(tick=96, channel=7, data=[64, 64]),\n",
      "   midi.NoteOnEvent(tick=0, channel=7, data=[62, 100]),\n",
      "   midi.NoteOffEvent(tick=96, channel=7, data=[62, 64]),\n",
      "   midi.NoteOnEvent(tick=0, channel=7, data=[61, 100]),\n",
      "   midi.NoteOffEvent(tick=96, channel=7, data=[61, 64]),\n",
      "   midi.NoteOnEvent(tick=0, channel=7, data=[59, 100]),\n",
      "   midi.NoteOffEvent(tick=96, channel=7, data=[59, 64]),\n",
      "   midi.NoteOnEvent(tick=0, channel=7, data=[57, 100]),\n",
      "   midi.NoteOffEvent(tick=192, channel=7, data=[57, 64]),\n",
      "   midi.NoteOnEvent(tick=0, channel=7, data=[55, 100]),\n",
      "   midi.NoteOffEvent(tick=192, channel=7, data=[55, 64]),\n",
      "   midi.NoteOnEvent(tick=0, channel=7, data=[54, 100]),\n",
      "   midi.NoteOffEvent(tick=192, channel=7, data=[54, 64]),\n",
      "   midi.NoteOnEvent(tick=0, channel=7, data=[59, 100]),\n",
      "   midi.NoteOffEvent(tick=192, channel=7, data=[59, 64]),\n",
      "   midi.NoteOnEvent(tick=0, channel=7, data=[55, 100]),\n",
      "   midi.NoteOffEvent(tick=192, channel=7, data=[55, 64]),\n",
      "   midi.NoteOnEvent(tick=0, channel=7, data=[57, 100]),\n",
      "   midi.NoteOffEvent(tick=192, channel=7, data=[57, 64]),\n",
      "   midi.NoteOnEvent(tick=0, channel=7, data=[62, 100]),\n",
      "   midi.NoteOffEvent(tick=384, channel=7, data=[62, 64]),\n",
      "   midi.NoteOnEvent(tick=0, channel=7, data=[50, 100]),\n",
      "   midi.NoteOffEvent(tick=384, channel=7, data=[50, 64]),\n",
      "   midi.NoteOnEvent(tick=2304, channel=7, data=[62, 100]),\n",
      "   midi.NoteOffEvent(tick=192, channel=7, data=[62, 64]),\n",
      "   midi.NoteOnEvent(tick=0, channel=7, data=[61, 100]),\n",
      "   midi.NoteOffEvent(tick=96, channel=7, data=[61, 64]),\n",
      "   midi.NoteOnEvent(tick=0, channel=7, data=[59, 100]),\n",
      "   midi.NoteOffEvent(tick=96, channel=7, data=[59, 64]),\n",
      "   midi.NoteOnEvent(tick=0, channel=7, data=[57, 100]),\n",
      "   midi.NoteOffEvent(tick=96, channel=7, data=[57, 64]),\n",
      "   midi.NoteOnEvent(tick=0, channel=7, data=[55, 100]),\n",
      "   midi.NoteOffEvent(tick=96, channel=7, data=[55, 64]),\n",
      "   midi.NoteOnEvent(tick=0, channel=7, data=[54, 100]),\n",
      "   midi.NoteOffEvent(tick=96, channel=7, data=[54, 64]),\n",
      "   midi.NoteOnEvent(tick=0, channel=7, data=[52, 100]),\n",
      "   midi.NoteOffEvent(tick=96, channel=7, data=[52, 64]),\n",
      "   midi.NoteOnEvent(tick=0, channel=7, data=[50, 100]),\n",
      "   midi.NoteOffEvent(tick=96, channel=7, data=[50, 64]),\n",
      "   midi.NoteOnEvent(tick=0, channel=7, data=[52, 100]),\n",
      "   midi.NoteOffEvent(tick=96, channel=7, data=[52, 64]),\n",
      "   midi.NoteOnEvent(tick=0, channel=7, data=[54, 100]),\n",
      "   midi.NoteOffEvent(tick=96, channel=7, data=[54, 64]),\n",
      "   midi.NoteOnEvent(tick=96, channel=7, data=[54, 100]),\n",
      "   midi.NoteOffEvent(tick=96, channel=7, data=[54, 64]),\n",
      "   midi.NoteOnEvent(tick=96, channel=7, data=[54, 100]),\n",
      "   midi.NoteOffEvent(tick=96, channel=7, data=[54, 64]),\n",
      "   midi.NoteOnEvent(tick=96, channel=7, data=[47, 100]),\n",
      "   midi.NoteOffEvent(tick=512, channel=7, data=[47, 64]),\n",
      "   midi.NoteOnEvent(tick=64, channel=7, data=[49, 100]),\n",
      "   midi.NoteOffEvent(tick=96, channel=7, data=[49, 64]),\n",
      "   midi.NoteOnEvent(tick=0, channel=7, data=[50, 100]),\n",
      "   midi.NoteOffEvent(tick=96, channel=7, data=[50, 64]),\n",
      "   midi.NoteOnEvent(tick=0, channel=7, data=[52, 100]),\n",
      "   midi.NoteOffEvent(tick=96, channel=7, data=[52, 64]),\n",
      "   midi.NoteOnEvent(tick=0, channel=7, data=[54, 100]),\n",
      "   midi.NoteOffEvent(tick=96, channel=7, data=[54, 64]),\n",
      "   midi.NoteOnEvent(tick=0, channel=7, data=[55, 100]),\n",
      "   midi.NoteOffEvent(tick=384, channel=7, data=[55, 64]),\n",
      "   midi.NoteOnEvent(tick=0, channel=7, data=[52, 100]),\n",
      "   midi.NoteOffEvent(tick=192, channel=7, data=[52, 64]),\n",
      "   midi.NoteOnEvent(tick=0, channel=7, data=[57, 100]),\n",
      "   midi.NoteOffEvent(tick=384, channel=7, data=[57, 64]),\n",
      "   midi.NoteOnEvent(tick=0, channel=7, data=[45, 100]),\n",
      "   midi.NoteOffEvent(tick=384, channel=7, data=[45, 64]),\n",
      "   midi.NoteOnEvent(tick=1152, channel=7, data=[56, 100]),\n",
      "   midi.NoteOffEvent(tick=576, channel=7, data=[56, 64]),\n",
      "   midi.NoteOnEvent(tick=0, channel=7, data=[52, 100]),\n",
      "   midi.NoteOffEvent(tick=192, channel=7, data=[52, 64]),\n",
      "   midi.NoteOnEvent(tick=0, channel=7, data=[49, 100]),\n",
      "   midi.NoteOffEvent(tick=192, channel=7, data=[49, 64]),\n",
      "   midi.NoteOnEvent(tick=0, channel=7, data=[52, 100]),\n",
      "   midi.NoteOffEvent(tick=192, channel=7, data=[52, 64]),\n",
      "   midi.NoteOnEvent(tick=0, channel=7, data=[54, 100]),\n",
      "   midi.NoteOffEvent(tick=192, channel=7, data=[54, 64]),\n",
      "   midi.NoteOnEvent(tick=0, channel=7, data=[42, 100]),\n",
      "   midi.NoteOffEvent(tick=192, channel=7, data=[42, 64]),\n",
      "   midi.NoteOnEvent(tick=0, channel=7, data=[54, 100]),\n",
      "   midi.NoteOffEvent(tick=576, channel=7, data=[54, 64]),\n",
      "   midi.NoteOnEvent(tick=0, channel=7, data=[47, 100]),\n",
      "   midi.NoteOffEvent(tick=192, channel=7, data=[47, 64]),\n",
      "   midi.NoteOnEvent(tick=0, channel=7, data=[59, 100]),\n",
      "   midi.NoteOffEvent(tick=192, channel=7, data=[59, 64]),\n",
      "   midi.NoteOnEvent(tick=0, channel=7, data=[57, 100]),\n",
      "   midi.NoteOffEvent(tick=192, channel=7, data=[57, 64]),\n",
      "   midi.NoteOnEvent(tick=0, channel=7, data=[56, 100]),\n",
      "   midi.NoteOffEvent(tick=512, channel=7, data=[56, 64]),\n",
      "   midi.NoteOnEvent(tick=64, channel=7, data=[52, 100]),\n",
      "   midi.NoteOffEvent(tick=192, channel=7, data=[52, 64]),\n",
      "   midi.NoteOnEvent(tick=0, channel=7, data=[57, 100]),\n",
      "   midi.NoteOffEvent(tick=192, channel=7, data=[57, 64]),\n",
      "   midi.NoteOnEvent(tick=0, channel=7, data=[49, 100]),\n",
      "   midi.NoteOffEvent(tick=192, channel=7, data=[49, 64]),\n",
      "   midi.NoteOnEvent(tick=0, channel=7, data=[52, 100]),\n",
      "   midi.NoteOffEvent(tick=384, channel=7, data=[52, 64]),\n",
      "   midi.NoteOnEvent(tick=0, channel=7, data=[45, 100]),\n",
      "   midi.NoteOffEvent(tick=384, channel=7, data=[45, 64]),\n",
      "   midi.NoteOnEvent(tick=384, channel=7, data=[64, 100]),\n",
      "   midi.NoteOffEvent(tick=192, channel=7, data=[64, 64]),\n",
      "   midi.NoteOnEvent(tick=0, channel=7, data=[62, 100]),\n",
      "   midi.NoteOffEvent(tick=96, channel=7, data=[62, 64]),\n",
      "   midi.NoteOnEvent(tick=0, channel=7, data=[61, 100]),\n",
      "   midi.NoteOffEvent(tick=96, channel=7, data=[61, 64]),\n",
      "   midi.NoteOnEvent(tick=0, channel=7, data=[59, 100]),\n",
      "   midi.NoteOffEvent(tick=96, channel=7, data=[59, 64]),\n",
      "   midi.NoteOnEvent(tick=0, channel=7, data=[57, 100]),\n",
      "   midi.NoteOffEvent(tick=96, channel=7, data=[57, 64]),\n",
      "   midi.NoteOnEvent(tick=0, channel=7, data=[56, 100]),\n",
      "   midi.NoteOffEvent(tick=96, channel=7, data=[56, 64]),\n",
      "   midi.NoteOnEvent(tick=0, channel=7, data=[54, 100]),\n",
      "   midi.NoteOffEvent(tick=96, channel=7, data=[54, 64]),\n",
      "   midi.NoteOnEvent(tick=0, channel=7, data=[52, 100]),\n",
      "   midi.NoteOffEvent(tick=384, channel=7, data=[52, 64]),\n",
      "   midi.NoteOnEvent(tick=192, channel=7, data=[50, 100]),\n",
      "   midi.NoteOffEvent(tick=192, channel=7, data=[50, 64]),\n",
      "   midi.NoteOnEvent(tick=0, channel=7, data=[49, 100]),\n",
      "   midi.NoteOffEvent(tick=192, channel=7, data=[49, 64]),\n",
      "   midi.NoteOnEvent(tick=0, channel=7, data=[54, 100]),\n",
      "   midi.NoteOffEvent(tick=192, channel=7, data=[54, 64]),\n",
      "   midi.NoteOnEvent(tick=0, channel=7, data=[50, 100]),\n",
      "   midi.NoteOffEvent(tick=192, channel=7, data=[50, 64]),\n",
      "   midi.NoteOnEvent(tick=0, channel=7, data=[52, 100]),\n",
      "   midi.NoteOffEvent(tick=192, channel=7, data=[52, 64]),\n",
      "   midi.NoteOnEvent(tick=0, channel=7, data=[57, 100]),\n",
      "   midi.NoteOffEvent(tick=192, channel=7, data=[57, 64]),\n",
      "   midi.NoteOnEvent(tick=0, channel=7, data=[59, 100]),\n",
      "   midi.NoteOffEvent(tick=192, channel=7, data=[59, 64]),\n",
      "   midi.NoteOnEvent(tick=0, channel=7, data=[61, 100]),\n",
      "   midi.NoteOffEvent(tick=192, channel=7, data=[61, 64]),\n",
      "   midi.NoteOnEvent(tick=0, channel=7, data=[59, 100]),\n",
      "   midi.NoteOffEvent(tick=192, channel=7, data=[59, 64]),\n",
      "   midi.NoteOnEvent(tick=0, channel=7, data=[57, 100]),\n",
      "   midi.NoteOffEvent(tick=192, channel=7, data=[57, 64]),\n",
      "   midi.NoteOnEvent(tick=0, channel=7, data=[55, 100]),\n",
      "   midi.NoteOffEvent(tick=96, channel=7, data=[55, 64]),\n",
      "   midi.NoteOnEvent(tick=0, channel=7, data=[54, 100]),\n",
      "   midi.NoteOffEvent(tick=96, channel=7, data=[54, 64]),\n",
      "   midi.NoteOnEvent(tick=0, channel=7, data=[52, 100]),\n",
      "   midi.NoteOffEvent(tick=96, channel=7, data=[52, 64]),\n",
      "   midi.NoteOnEvent(tick=0, channel=7, data=[50, 100]),\n",
      "   midi.NoteOffEvent(tick=96, channel=7, data=[50, 64]),\n",
      "   midi.NoteOnEvent(tick=0, channel=7, data=[49, 100]),\n",
      "   midi.NoteOffEvent(tick=96, channel=7, data=[49, 64]),\n",
      "   midi.NoteOnEvent(tick=0, channel=7, data=[47, 100]),\n",
      "   midi.NoteOffEvent(tick=96, channel=7, data=[47, 64]),\n",
      "   midi.NoteOnEvent(tick=0, channel=7, data=[45, 100]),\n",
      "   midi.NoteOffEvent(tick=384, channel=7, data=[45, 64]),\n",
      "   midi.NoteOnEvent(tick=192, channel=7, data=[55, 100]),\n",
      "   midi.NoteOffEvent(tick=192, channel=7, data=[55, 64]),\n",
      "   midi.NoteOnEvent(tick=0, channel=7, data=[54, 100]),\n",
      "   midi.NoteOffEvent(tick=192, channel=7, data=[54, 64]),\n",
      "   midi.NoteOnEvent(tick=0, channel=7, data=[57, 100]),\n",
      "   midi.NoteOffEvent(tick=192, channel=7, data=[57, 64]),\n",
      "   midi.NoteOnEvent(tick=0, channel=7, data=[55, 100]),\n",
      "   midi.NoteOffEvent(tick=192, channel=7, data=[55, 64]),\n",
      "   midi.NoteOnEvent(tick=0, channel=7, data=[57, 100]),\n",
      "   midi.NoteOffEvent(tick=192, channel=7, data=[57, 64]),\n",
      "   midi.NoteOnEvent(tick=0, channel=7, data=[50, 100]),\n",
      "   midi.NoteOffEvent(tick=192, channel=7, data=[50, 64]),\n",
      "   midi.NoteOnEvent(tick=0, channel=7, data=[52, 100]),\n",
      "   midi.NoteOffEvent(tick=192, channel=7, data=[52, 64]),\n",
      "   midi.NoteOnEvent(tick=0, channel=7, data=[54, 100]),\n",
      "   midi.NoteOffEvent(tick=192, channel=7, data=[54, 64]),\n",
      "   midi.NoteOnEvent(tick=0, channel=7, data=[52, 100]),\n",
      "   midi.NoteOffEvent(tick=192, channel=7, data=[52, 64]),\n",
      "   midi.NoteOnEvent(tick=0, channel=7, data=[51, 100]),\n",
      "   midi.NoteOffEvent(tick=192, channel=7, data=[51, 64]),\n",
      "   midi.NoteOnEvent(tick=0, channel=7, data=[49, 100]),\n",
      "   midi.NoteOffEvent(tick=192, channel=7, data=[49, 64]),\n",
      "   midi.NoteOnEvent(tick=0, channel=7, data=[51, 100]),\n",
      "   midi.NoteOffEvent(tick=192, channel=7, data=[51, 64]),\n",
      "   midi.NoteOnEvent(tick=0, channel=7, data=[47, 100]),\n",
      "   midi.NoteOffEvent(tick=192, channel=7, data=[47, 64]),\n",
      "   midi.NoteOnEvent(tick=0, channel=7, data=[52, 100]),\n",
      "   midi.NoteOffEvent(tick=192, channel=7, data=[52, 64]),\n",
      "   midi.NoteOnEvent(tick=0, channel=7, data=[64, 100]),\n",
      "   midi.NoteOffEvent(tick=192, channel=7, data=[64, 64]),\n",
      "   midi.NoteOnEvent(tick=0, channel=7, data=[62, 100]),\n",
      "   midi.NoteOffEvent(tick=192, channel=7, data=[62, 64]),\n",
      "   midi.NoteOnEvent(tick=0, channel=7, data=[61, 100]),\n",
      "   midi.NoteOffEvent(tick=192, channel=7, data=[61, 64]),\n",
      "   midi.NoteOnEvent(tick=0, channel=7, data=[59, 100]),\n",
      "   midi.NoteOffEvent(tick=192, channel=7, data=[59, 64]),\n",
      "   midi.NoteOnEvent(tick=0, channel=7, data=[57, 100]),\n",
      "   midi.NoteOffEvent(tick=192, channel=7, data=[57, 64]),\n",
      "   midi.NoteOnEvent(tick=0, channel=7, data=[56, 100]),\n",
      "   midi.NoteOffEvent(tick=192, channel=7, data=[56, 64]),\n",
      "   midi.NoteOnEvent(tick=0, channel=7, data=[54, 100]),\n",
      "   midi.NoteOffEvent(tick=192, channel=7, data=[54, 64]),\n",
      "   midi.NoteOnEvent(tick=0, channel=7, data=[56, 100]),\n",
      "   midi.NoteOffEvent(tick=192, channel=7, data=[56, 64]),\n",
      "   midi.NoteOnEvent(tick=0, channel=7, data=[59, 100]),\n",
      "   midi.NoteOffEvent(tick=192, channel=7, data=[59, 64]),\n",
      "   midi.NoteOnEvent(tick=0, channel=7, data=[56, 100]),\n",
      "   midi.NoteOffEvent(tick=192, channel=7, data=[56, 64]),\n",
      "   midi.NoteOnEvent(tick=0, channel=7, data=[52, 100]),\n",
      "   midi.NoteOffEvent(tick=192, channel=7, data=[52, 64]),\n",
      "   midi.NoteOnEvent(tick=0, channel=7, data=[57, 100]),\n",
      "   midi.NoteOffEvent(tick=1280, channel=7, data=[57, 64]),\n",
      "   midi.NoteOnEvent(tick=64, channel=7, data=[54, 100]),\n",
      "   midi.NoteOffEvent(tick=192, channel=7, data=[54, 64]),\n",
      "   midi.NoteOnEvent(tick=0, channel=7, data=[50, 100]),\n",
      "   midi.NoteOffEvent(tick=384, channel=7, data=[50, 64]),\n",
      "   midi.NoteOnEvent(tick=0, channel=7, data=[52, 100]),\n",
      "   midi.NoteOffEvent(tick=384, channel=7, data=[52, 64]),\n",
      "   midi.NoteOnEvent(tick=0, channel=7, data=[45, 100]),\n",
      "   midi.NoteOffEvent(tick=384, channel=7, data=[45, 64]),\n",
      "   midi.NoteOnEvent(tick=12672, channel=7, data=[57, 100]),\n",
      "   midi.NoteOffEvent(tick=384, channel=7, data=[57, 64]),\n",
      "   midi.NoteOnEvent(tick=384, channel=7, data=[53, 100]),\n",
      "   midi.NoteOffEvent(tick=384, channel=7, data=[53, 64]),\n",
      "   midi.NoteOnEvent(tick=192, channel=7, data=[49, 100]),\n",
      "   midi.NoteOffEvent(tick=192, channel=7, data=[49, 64]),\n",
      "   midi.NoteOnEvent(tick=0, channel=7, data=[57, 100]),\n",
      "   midi.NoteOffEvent(tick=192, channel=7, data=[57, 64]),\n",
      "   midi.NoteOnEvent(tick=0, channel=7, data=[59, 100]),\n",
      "   midi.NoteOffEvent(tick=192, channel=7, data=[59, 64]),\n",
      "   midi.NoteOnEvent(tick=0, channel=7, data=[61, 100]),\n",
      "   midi.NoteOffEvent(tick=192, channel=7, data=[61, 64]),\n",
      "   midi.NoteOnEvent(tick=0, channel=7, data=[49, 100]),\n",
      "   midi.NoteOffEvent(tick=192, channel=7, data=[49, 64]),\n",
      "   midi.NoteOnEvent(tick=0, channel=7, data=[54, 100]),\n",
      "   midi.NoteOffEvent(tick=512, channel=7, data=[54, 64]),\n",
      "   midi.NoteOnEvent(tick=64, channel=7, data=[52, 100]),\n",
      "   midi.NoteOffEvent(tick=192, channel=7, data=[52, 64]),\n",
      "   midi.NoteOnEvent(tick=0, channel=7, data=[50, 100]),\n",
      "   midi.NoteOffEvent(tick=384, channel=7, data=[50, 64]),\n",
      "   midi.NoteOnEvent(tick=192, channel=7, data=[62, 100]),\n",
      "   midi.NoteOffEvent(tick=192, channel=7, data=[62, 64]),\n",
      "   midi.NoteOnEvent(tick=0, channel=7, data=[58, 100]),\n",
      "   midi.NoteOffEvent(tick=192, channel=7, data=[58, 64]),\n",
      "   midi.NoteOnEvent(tick=0, channel=7, data=[54, 100]),\n",
      "   midi.NoteOffEvent(tick=96, channel=7, data=[54, 64]),\n",
      "   midi.NoteOnEvent(tick=0, channel=7, data=[56, 100]),\n",
      "   midi.NoteOffEvent(tick=96, channel=7, data=[56, 64]),\n",
      "   midi.NoteOnEvent(tick=0, channel=7, data=[58, 100]),\n",
      "   midi.NoteOffEvent(tick=192, channel=7, data=[58, 64]),\n",
      "   midi.NoteOnEvent(tick=0, channel=7, data=[54, 100]),\n",
      "   midi.NoteOffEvent(tick=192, channel=7, data=[54, 64]),\n",
      "   midi.NoteOnEvent(tick=0, channel=7, data=[59, 100]),\n",
      "   midi.NoteOffEvent(tick=192, channel=7, data=[59, 64]),\n",
      "   midi.NoteOnEvent(tick=0, channel=7, data=[52, 100]),\n",
      "   midi.NoteOffEvent(tick=192, channel=7, data=[52, 64]),\n",
      "   midi.NoteOnEvent(tick=0, channel=7, data=[54, 100]),\n",
      "   midi.NoteOffEvent(tick=192, channel=7, data=[54, 64]),\n",
      "   midi.NoteOnEvent(tick=0, channel=7, data=[54, 100]),\n",
      "   midi.NoteOffEvent(tick=192, channel=7, data=[54, 64]),\n",
      "   midi.NoteOnEvent(tick=0, channel=7, data=[47, 100]),\n",
      "   midi.NoteOffEvent(tick=192, channel=7, data=[47, 64]),\n",
      "   midi.NoteOnEvent(tick=0, channel=7, data=[49, 100]),\n",
      "   midi.NoteOffEvent(tick=192, channel=7, data=[49, 64]),\n",
      "   midi.NoteOnEvent(tick=0, channel=7, data=[50, 100]),\n",
      "   midi.NoteOffEvent(tick=192, channel=7, data=[50, 64]),\n",
      "   midi.NoteOnEvent(tick=0, channel=7, data=[47, 100]),\n",
      "   midi.NoteOffEvent(tick=192, channel=7, data=[47, 64]),\n",
      "   midi.NoteOnEvent(tick=0, channel=7, data=[52, 100]),\n",
      "   midi.NoteOffEvent(tick=384, channel=7, data=[52, 64]),\n",
      "   midi.NoteOnEvent(tick=192, channel=7, data=[55, 100]),\n",
      "   midi.NoteOffEvent(tick=192, channel=7, data=[55, 64]),\n",
      "   midi.NoteOnEvent(tick=0, channel=7, data=[57, 100]),\n",
      "   midi.NoteOffEvent(tick=384, channel=7, data=[57, 64]),\n",
      "   midi.NoteOnEvent(tick=0, channel=7, data=[45, 100]),\n",
      "   midi.NoteOffEvent(tick=384, channel=7, data=[45, 64]),\n",
      "   midi.NoteOnEvent(tick=0, channel=7, data=[50, 100]),\n",
      "   midi.NoteOffEvent(tick=384, channel=7, data=[50, 64]),\n",
      "   midi.NoteOnEvent(tick=192, channel=7, data=[54, 100]),\n",
      "   midi.NoteOffEvent(tick=192, channel=7, data=[54, 64]),\n",
      "   midi.NoteOnEvent(tick=0, channel=7, data=[55, 100]),\n",
      "   midi.NoteOffEvent(tick=192, channel=7, data=[55, 64]),\n",
      "   midi.NoteOnEvent(tick=0, channel=7, data=[43, 100]),\n",
      "   midi.NoteOffEvent(tick=192, channel=7, data=[43, 64]),\n",
      "   midi.NoteOnEvent(tick=384, channel=7, data=[49, 100]),\n",
      "   midi.NoteOffEvent(tick=384, channel=7, data=[49, 64]),\n",
      "   midi.NoteOnEvent(tick=192, channel=7, data=[59, 100]),\n",
      "   midi.NoteOffEvent(tick=192, channel=7, data=[59, 64]),\n",
      "   midi.NoteOnEvent(tick=0, channel=7, data=[58, 100]),\n",
      "   midi.NoteOffEvent(tick=192, channel=7, data=[58, 64]),\n",
      "   midi.NoteOnEvent(tick=0, channel=7, data=[54, 100]),\n",
      "   midi.NoteOffEvent(tick=192, channel=7, data=[54, 64]),\n",
      "   midi.NoteOnEvent(tick=0, channel=7, data=[56, 100]),\n",
      "   midi.NoteOffEvent(tick=192, channel=7, data=[56, 64]),\n",
      "   midi.NoteOnEvent(tick=0, channel=7, data=[58, 100]),\n",
      "   midi.NoteOffEvent(tick=192, channel=7, data=[58, 64]),\n",
      "   midi.NoteOnEvent(tick=0, channel=7, data=[59, 100]),\n",
      "   midi.NoteOffEvent(tick=192, channel=7, data=[59, 64]),\n",
      "   midi.NoteOnEvent(tick=0, channel=7, data=[55, 100]),\n",
      "   midi.NoteOffEvent(tick=192, channel=7, data=[55, 64]),\n",
      "   midi.NoteOnEvent(tick=0, channel=7, data=[52, 100]),\n",
      "   midi.NoteOffEvent(tick=192, channel=7, data=[52, 64]),\n",
      "   midi.NoteOnEvent(tick=0, channel=7, data=[54, 100]),\n",
      "   midi.NoteOffEvent(tick=192, channel=7, data=[54, 64]),\n",
      "   midi.NoteOnEvent(tick=0, channel=7, data=[47, 100]),\n",
      "   midi.NoteOffEvent(tick=768, channel=7, data=[47, 64]),\n",
      "   midi.NoteOnEvent(tick=12288, channel=7, data=[59, 100]),\n",
      "   midi.NoteOffEvent(tick=384, channel=7, data=[59, 64]),\n",
      "   midi.NoteOnEvent(tick=384, channel=7, data=[54, 100]),\n",
      "   midi.NoteOffEvent(tick=384, channel=7, data=[54, 64]),\n",
      "   midi.NoteOnEvent(tick=192, channel=7, data=[50, 100]),\n",
      "   midi.NoteOffEvent(tick=192, channel=7, data=[50, 64]),\n",
      "   midi.NoteOnEvent(tick=0, channel=7, data=[47, 100]),\n",
      "   midi.NoteOffEvent(tick=192, channel=7, data=[47, 64]),\n",
      "   midi.NoteOnEvent(tick=0, channel=7, data=[48, 100]),\n",
      "   midi.NoteOffEvent(tick=192, channel=7, data=[48, 64]),\n",
      "   midi.NoteOnEvent(tick=0, channel=7, data=[50, 100]),\n",
      "   midi.NoteOffEvent(tick=192, channel=7, data=[50, 64]),\n",
      "   midi.NoteOnEvent(tick=0, channel=7, data=[50, 100]),\n",
      "   midi.NoteOffEvent(tick=192, channel=7, data=[50, 64]),\n",
      "   midi.NoteOnEvent(tick=0, channel=7, data=[55, 100]),\n",
      "   midi.NoteOffEvent(tick=384, channel=7, data=[55, 64]),\n",
      "   midi.NoteOnEvent(tick=0, channel=7, data=[43, 100]),\n",
      "   midi.NoteOffEvent(tick=384, channel=7, data=[43, 64]),\n",
      "   midi.NoteOnEvent(tick=0, channel=7, data=[55, 100]),\n",
      "   midi.NoteOffEvent(tick=384, channel=7, data=[55, 64]),\n",
      "   midi.NoteOnEvent(tick=192, channel=7, data=[55, 100]),\n",
      "   midi.NoteOffEvent(tick=192, channel=7, data=[55, 64]),\n",
      "   midi.NoteOnEvent(tick=0, channel=7, data=[51, 100]),\n",
      "   midi.NoteOffEvent(tick=192, channel=7, data=[51, 64]),\n",
      "   midi.NoteOnEvent(tick=0, channel=7, data=[47, 100]),\n",
      "   midi.NoteOffEvent(tick=96, channel=7, data=[47, 64]),\n",
      "   midi.NoteOnEvent(tick=0, channel=7, data=[49, 100]),\n",
      "   midi.NoteOffEvent(tick=96, channel=7, data=[49, 64]),\n",
      "   midi.NoteOnEvent(tick=0, channel=7, data=[51, 100]),\n",
      "   midi.NoteOffEvent(tick=192, channel=7, data=[51, 64]),\n",
      "   midi.NoteOnEvent(tick=0, channel=7, data=[47, 100]),\n",
      "   midi.NoteOffEvent(tick=192, channel=7, data=[47, 64]),\n",
      "   midi.NoteOnEvent(tick=0, channel=7, data=[52, 100]),\n",
      "   midi.NoteOffEvent(tick=192, channel=7, data=[52, 64]),\n",
      "   midi.NoteOnEvent(tick=0, channel=7, data=[57, 100]),\n",
      "   midi.NoteOffEvent(tick=192, channel=7, data=[57, 64]),\n",
      "   midi.NoteOnEvent(tick=0, channel=7, data=[59, 100]),\n",
      "   midi.NoteOffEvent(tick=192, channel=7, data=[59, 64]),\n",
      "   midi.NoteOnEvent(tick=0, channel=7, data=[47, 100]),\n",
      "   midi.NoteOffEvent(tick=192, channel=7, data=[47, 64]),\n",
      "   midi.NoteOnEvent(tick=0, channel=7, data=[52, 100]),\n",
      "   midi.NoteOffEvent(tick=96, channel=7, data=[52, 64]),\n",
      "   midi.NoteOnEvent(tick=0, channel=7, data=[54, 100]),\n",
      "   midi.NoteOffEvent(tick=96, channel=7, data=[54, 64]),\n",
      "   midi.NoteOnEvent(tick=0, channel=7, data=[55, 100]),\n",
      "   midi.NoteOffEvent(tick=96, channel=7, data=[55, 64]),\n",
      "   midi.NoteOnEvent(tick=0, channel=7, data=[54, 100]),\n",
      "   midi.NoteOffEvent(tick=96, channel=7, data=[54, 64]),\n",
      "   midi.NoteOnEvent(tick=0, channel=7, data=[57, 100]),\n",
      "   midi.NoteOffEvent(tick=96, channel=7, data=[57, 64]),\n",
      "   midi.NoteOnEvent(tick=0, channel=7, data=[55, 100]),\n",
      "   midi.NoteOffEvent(tick=96, channel=7, data=[55, 64]),\n",
      "   midi.NoteOnEvent(tick=0, channel=7, data=[54, 100]),\n",
      "   midi.NoteOffEvent(tick=96, channel=7, data=[54, 64]),\n",
      "   midi.NoteOnEvent(tick=0, channel=7, data=[52, 100]),\n",
      "   midi.NoteOffEvent(tick=96, channel=7, data=[52, 64]),\n",
      "   midi.NoteOnEvent(tick=0, channel=7, data=[57, 100]),\n",
      "   midi.NoteOffEvent(tick=96, channel=7, data=[57, 64]),\n",
      "   midi.NoteOnEvent(tick=0, channel=7, data=[59, 100]),\n",
      "   midi.NoteOffEvent(tick=96, channel=7, data=[59, 64]),\n",
      "   midi.NoteOnEvent(tick=0, channel=7, data=[61, 100]),\n",
      "   midi.NoteOffEvent(tick=96, channel=7, data=[61, 64]),\n",
      "   midi.NoteOnEvent(tick=0, channel=7, data=[59, 100]),\n",
      "   midi.NoteOffEvent(tick=96, channel=7, data=[59, 64]),\n",
      "   midi.NoteOnEvent(tick=0, channel=7, data=[62, 100]),\n",
      "   midi.NoteOffEvent(tick=96, channel=7, data=[62, 64]),\n",
      "   midi.NoteOnEvent(tick=0, channel=7, data=[61, 100]),\n",
      "   midi.NoteOffEvent(tick=96, channel=7, data=[61, 64]),\n",
      "   midi.NoteOnEvent(tick=0, channel=7, data=[59, 100]),\n",
      "   midi.NoteOffEvent(tick=96, channel=7, data=[59, 64]),\n",
      "   midi.NoteOnEvent(tick=0, channel=7, data=[57, 100]),\n",
      "   midi.NoteOffEvent(tick=96, channel=7, data=[57, 64]),\n",
      "   midi.NoteOnEvent(tick=0, channel=7, data=[62, 100]),\n",
      "   midi.NoteOffEvent(tick=96, channel=7, data=[62, 64]),\n",
      "   midi.NoteOnEvent(tick=96, channel=7, data=[50, 100]),\n",
      "   midi.NoteOffEvent(tick=96, channel=7, data=[50, 64]),\n",
      "   midi.NoteOnEvent(tick=96, channel=7, data=[62, 100]),\n",
      "   midi.NoteOffEvent(tick=384, channel=7, data=[62, 64]),\n",
      "   midi.NoteOnEvent(tick=192, channel=7, data=[62, 100]),\n",
      "   midi.NoteOffEvent(tick=192, channel=7, data=[62, 64]),\n",
      "   midi.NoteOnEvent(tick=0, channel=7, data=[59, 100]),\n",
      "   midi.NoteOffEvent(tick=192, channel=7, data=[59, 64]),\n",
      "   midi.NoteOnEvent(tick=0, channel=7, data=[56, 100]),\n",
      "   midi.NoteOffEvent(tick=192, channel=7, data=[56, 64]),\n",
      "   midi.NoteOnEvent(tick=0, channel=7, data=[61, 100]),\n",
      "   midi.NoteOffEvent(tick=192, channel=7, data=[61, 64]),\n",
      "   midi.NoteOnEvent(tick=0, channel=7, data=[49, 100]),\n",
      "   midi.NoteOffEvent(tick=192, channel=7, data=[49, 64]),\n",
      "   midi.NoteOnEvent(tick=0, channel=7, data=[61, 100]),\n",
      "   midi.NoteOffEvent(tick=384, channel=7, data=[61, 64]),\n",
      "   midi.NoteOnEvent(tick=192, channel=7, data=[61, 100]),\n",
      "   midi.NoteOffEvent(tick=192, channel=7, data=[61, 64]),\n",
      "   midi.NoteOnEvent(tick=0, channel=7, data=[57, 100]),\n",
      "   midi.NoteOffEvent(tick=192, channel=7, data=[57, 64]),\n",
      "   midi.NoteOnEvent(tick=0, channel=7, data=[54, 100]),\n",
      "   midi.NoteOffEvent(tick=192, channel=7, data=[54, 64]),\n",
      "   midi.NoteOnEvent(tick=0, channel=7, data=[59, 100]),\n",
      "   midi.NoteOffEvent(tick=96, channel=7, data=[59, 64]),\n",
      "   midi.NoteOnEvent(tick=96, channel=7, data=[47, 100]),\n",
      "   midi.NoteOffEvent(tick=96, channel=7, data=[47, 64]),\n",
      "   midi.NoteOnEvent(tick=96, channel=7, data=[59, 100]),\n",
      "   midi.NoteOffEvent(tick=384, channel=7, data=[59, 64]),\n",
      "   midi.NoteOnEvent(tick=192, channel=7, data=[56, 100]),\n",
      "   midi.NoteOffEvent(tick=192, channel=7, data=[56, 64]),\n",
      "   midi.NoteOnEvent(tick=0, channel=7, data=[57, 100]),\n",
      "   midi.NoteOffEvent(tick=192, channel=7, data=[57, 64]),\n",
      "   midi.NoteOnEvent(tick=0, channel=7, data=[59, 100]),\n",
      "   midi.NoteOffEvent(tick=192, channel=7, data=[59, 64]),\n",
      "   midi.NoteOnEvent(tick=0, channel=7, data=[61, 100]),\n",
      "   midi.NoteOffEvent(tick=384, channel=7, data=[61, 64]),\n",
      "   midi.NoteOnEvent(tick=0, channel=7, data=[49, 100]),\n",
      "   midi.NoteOffEvent(tick=384, channel=7, data=[49, 64]),\n",
      "   midi.NoteOnEvent(tick=0, channel=7, data=[42, 100]),\n",
      "   midi.NoteOffEvent(tick=384, channel=7, data=[42, 64]),\n",
      "   midi.NoteOnEvent(tick=4224, channel=7, data=[50, 100]),\n",
      "   midi.NoteOffEvent(tick=512, channel=7, data=[50, 64]),\n",
      "   midi.NoteOnEvent(tick=64, channel=7, data=[54, 100]),\n",
      "   midi.NoteOffEvent(tick=96, channel=7, data=[54, 64]),\n",
      "   midi.NoteOnEvent(tick=0, channel=7, data=[57, 100]),\n",
      "   midi.NoteOffEvent(tick=96, channel=7, data=[57, 64]),\n",
      "   midi.NoteOnEvent(tick=0, channel=7, data=[62, 100]),\n",
      "   midi.NoteOffEvent(tick=192, channel=7, data=[62, 64]),\n",
      "   midi.NoteOnEvent(tick=0, channel=7, data=[62, 100]),\n",
      "   midi.NoteOffEvent(tick=192, channel=7, data=[62, 64]),\n",
      "   midi.NoteOnEvent(tick=0, channel=7, data=[62, 100]),\n",
      "   midi.NoteOffEvent(tick=192, channel=7, data=[62, 64]),\n",
      "   midi.NoteOnEvent(tick=0, channel=7, data=[57, 100]),\n",
      "   midi.NoteOffEvent(tick=192, channel=7, data=[57, 64]),\n",
      "   midi.NoteOnEvent(tick=0, channel=7, data=[55, 100]),\n",
      "   midi.NoteOffEvent(tick=384, channel=7, data=[55, 64]),\n",
      "   midi.NoteOnEvent(tick=0, channel=7, data=[43, 100]),\n",
      "   midi.NoteOffEvent(tick=384, channel=7, data=[43, 64]),\n",
      "   midi.NoteOnEvent(tick=768, channel=7, data=[64, 100]),\n",
      "   midi.NoteOffEvent(tick=96, channel=7, data=[64, 64]),\n",
      "   midi.NoteOnEvent(tick=0, channel=7, data=[62, 100]),\n",
      "   midi.NoteOffEvent(tick=96, channel=7, data=[62, 64]),\n",
      "   midi.NoteOnEvent(tick=0, channel=7, data=[61, 100]),\n",
      "   midi.NoteOffEvent(tick=96, channel=7, data=[61, 64]),\n",
      "   midi.NoteOnEvent(tick=0, channel=7, data=[59, 100]),\n",
      "   midi.NoteOffEvent(tick=96, channel=7, data=[59, 64]),\n",
      "   midi.NoteOnEvent(tick=0, channel=7, data=[57, 100]),\n",
      "   midi.NoteOffEvent(tick=192, channel=7, data=[57, 64]),\n",
      "   midi.NoteOnEvent(tick=0, channel=7, data=[55, 100]),\n",
      "   midi.NoteOffEvent(tick=192, channel=7, data=[55, 64]),\n",
      "   midi.NoteOnEvent(tick=0, channel=7, data=[54, 100]),\n",
      "   midi.NoteOffEvent(tick=192, channel=7, data=[54, 64]),\n",
      "   midi.NoteOnEvent(tick=0, channel=7, data=[57, 100]),\n",
      "   midi.NoteOffEvent(tick=192, channel=7, data=[57, 64]),\n",
      "   midi.NoteOnEvent(tick=0, channel=7, data=[55, 100]),\n",
      "   midi.NoteOffEvent(tick=192, channel=7, data=[55, 64]),\n",
      "   midi.NoteOnEvent(tick=0, channel=7, data=[57, 100]),\n",
      "   midi.NoteOffEvent(tick=192, channel=7, data=[57, 64]),\n",
      "   midi.NoteOnEvent(tick=0, channel=7, data=[62, 100]),\n",
      "   midi.NoteOffEvent(tick=384, channel=7, data=[62, 64]),\n",
      "   midi.NoteOnEvent(tick=0, channel=7, data=[50, 100]),\n",
      "   midi.NoteOffEvent(tick=384, channel=7, data=[50, 64]),\n",
      "   midi.NoteOnEvent(tick=2304, channel=7, data=[62, 100]),\n",
      "   midi.NoteOffEvent(tick=192, channel=7, data=[62, 64]),\n",
      "   midi.NoteOnEvent(tick=0, channel=7, data=[61, 100]),\n",
      "   midi.NoteOffEvent(tick=96, channel=7, data=[61, 64]),\n",
      "   midi.NoteOnEvent(tick=0, channel=7, data=[59, 100]),\n",
      "   midi.NoteOffEvent(tick=96, channel=7, data=[59, 64]),\n",
      "   midi.NoteOnEvent(tick=0, channel=7, data=[57, 100]),\n",
      "   midi.NoteOffEvent(tick=96, channel=7, data=[57, 64]),\n",
      "   midi.NoteOnEvent(tick=0, channel=7, data=[55, 100]),\n",
      "   midi.NoteOffEvent(tick=96, channel=7, data=[55, 64]),\n",
      "   midi.NoteOnEvent(tick=0, channel=7, data=[54, 100]),\n",
      "   midi.NoteOffEvent(tick=96, channel=7, data=[54, 64]),\n",
      "   midi.NoteOnEvent(tick=0, channel=7, data=[52, 100]),\n",
      "   midi.NoteOffEvent(tick=96, channel=7, data=[52, 64]),\n",
      "   midi.NoteOnEvent(tick=0, channel=7, data=[50, 100]),\n",
      "   midi.NoteOffEvent(tick=96, channel=7, data=[50, 64]),\n",
      "   midi.NoteOnEvent(tick=0, channel=7, data=[52, 100]),\n",
      "   midi.NoteOffEvent(tick=96, channel=7, data=[52, 64]),\n",
      "   midi.NoteOnEvent(tick=0, channel=7, data=[54, 100]),\n",
      "   midi.NoteOffEvent(tick=96, channel=7, data=[54, 64]),\n",
      "   midi.NoteOnEvent(tick=96, channel=7, data=[54, 100]),\n",
      "   midi.NoteOffEvent(tick=96, channel=7, data=[54, 64]),\n",
      "   midi.NoteOnEvent(tick=96, channel=7, data=[54, 100]),\n",
      "   midi.NoteOffEvent(tick=96, channel=7, data=[54, 64]),\n",
      "   midi.NoteOnEvent(tick=96, channel=7, data=[47, 100]),\n",
      "   midi.NoteOffEvent(tick=512, channel=7, data=[47, 64]),\n",
      "   midi.NoteOnEvent(tick=64, channel=7, data=[49, 100]),\n",
      "   midi.NoteOffEvent(tick=96, channel=7, data=[49, 64]),\n",
      "   midi.NoteOnEvent(tick=0, channel=7, data=[50, 100]),\n",
      "   midi.NoteOffEvent(tick=96, channel=7, data=[50, 64]),\n",
      "   midi.NoteOnEvent(tick=0, channel=7, data=[52, 100]),\n",
      "   midi.NoteOffEvent(tick=96, channel=7, data=[52, 64]),\n",
      "   midi.NoteOnEvent(tick=0, channel=7, data=[54, 100]),\n",
      "   midi.NoteOffEvent(tick=96, channel=7, data=[54, 64]),\n",
      "   midi.NoteOnEvent(tick=0, channel=7, data=[55, 100]),\n",
      "   midi.NoteOffEvent(tick=384, channel=7, data=[55, 64]),\n",
      "   midi.NoteOnEvent(tick=0, channel=7, data=[52, 100]),\n",
      "   midi.NoteOffEvent(tick=192, channel=7, data=[52, 64]),\n",
      "   midi.NoteOnEvent(tick=0, channel=7, data=[57, 100]),\n",
      "   midi.NoteOffEvent(tick=384, channel=7, data=[57, 64]),\n",
      "   midi.NoteOnEvent(tick=0, channel=7, data=[45, 100]),\n",
      "   midi.NoteOffEvent(tick=384, channel=7, data=[45, 64]),\n",
      "   midi.NoteOnEvent(tick=0, channel=7, data=[57, 100]),\n",
      "   midi.NoteOffEvent(tick=384, channel=7, data=[57, 64]),\n",
      "   midi.NoteOnEvent(tick=0, channel=7, data=[54, 100]),\n",
      "   midi.NoteOffEvent(tick=384, channel=7, data=[54, 64]),\n",
      "   midi.NoteOnEvent(tick=0, channel=7, data=[62, 100]),\n",
      "   midi.NoteOffEvent(tick=512, channel=7, data=[62, 64]),\n",
      "   midi.NoteOnEvent(tick=64, channel=7, data=[57, 100]),\n",
      "   midi.NoteOffEvent(tick=192, channel=7, data=[57, 64]),\n",
      "   midi.NoteOnEvent(tick=0, channel=7, data=[54, 100]),\n",
      "   midi.NoteOffEvent(tick=96, channel=7, data=[54, 64]),\n",
      "   midi.NoteOnEvent(tick=0, channel=7, data=[55, 100]),\n",
      "   midi.NoteOffEvent(tick=96, channel=7, data=[55, 64]),\n",
      "   midi.NoteOnEvent(tick=0, channel=7, data=[57, 100]),\n",
      "   midi.NoteOffEvent(tick=384, channel=7, data=[57, 64]),\n",
      "   midi.NoteOnEvent(tick=0, channel=7, data=[54, 100]),\n",
      "   midi.NoteOffEvent(tick=192, channel=7, data=[54, 64]),\n",
      "   midi.NoteOnEvent(tick=0, channel=7, data=[50, 100]),\n",
      "   midi.NoteOffEvent(tick=192, channel=7, data=[50, 64]),\n",
      "   midi.NoteOnEvent(tick=0, channel=7, data=[52, 100]),\n",
      "   midi.NoteOffEvent(tick=192, channel=7, data=[52, 64]),\n",
      "   midi.NoteOnEvent(tick=0, channel=7, data=[54, 100]),\n",
      "   midi.NoteOffEvent(tick=192, channel=7, data=[54, 64]),\n",
      "   midi.NoteOnEvent(tick=0, channel=7, data=[50, 100]),\n",
      "   midi.NoteOffEvent(tick=192, channel=7, data=[50, 64]),\n",
      "   midi.NoteOnEvent(tick=384, channel=7, data=[55, 100]),\n",
      "   midi.NoteOffEvent(tick=576, channel=7, data=[55, 64]),\n",
      "   midi.NoteOnEvent(tick=0, channel=7, data=[52, 100]),\n",
      "   midi.NoteOffEvent(tick=192, channel=7, data=[52, 64]),\n",
      "   midi.NoteOnEvent(tick=0, channel=7, data=[49, 100]),\n",
      "   midi.NoteOffEvent(tick=192, channel=7, data=[49, 64]),\n",
      "   midi.NoteOnEvent(tick=0, channel=7, data=[52, 100]),\n",
      "   midi.NoteOffEvent(tick=192, channel=7, data=[52, 64]),\n",
      "   midi.NoteOnEvent(tick=0, channel=7, data=[54, 100]),\n",
      "   midi.NoteOffEvent(tick=192, channel=7, data=[54, 64]),\n",
      "   midi.NoteOnEvent(tick=0, channel=7, data=[42, 100]),\n",
      "   midi.NoteOffEvent(tick=192, channel=7, data=[42, 64]),\n",
      "   midi.NoteOnEvent(tick=0, channel=7, data=[54, 100]),\n",
      "   midi.NoteOffEvent(tick=576, channel=7, data=[54, 64]),\n",
      "   midi.NoteOnEvent(tick=0, channel=7, data=[50, 100]),\n",
      "   midi.NoteOffEvent(tick=192, channel=7, data=[50, 64]),\n",
      "   midi.NoteOnEvent(tick=0, channel=7, data=[47, 100]),\n",
      "   midi.NoteOffEvent(tick=192, channel=7, data=[47, 64]),\n",
      "   midi.NoteOnEvent(tick=0, channel=7, data=[50, 100]),\n",
      "   midi.NoteOffEvent(tick=192, channel=7, data=[50, 64]),\n",
      "   midi.NoteOnEvent(tick=0, channel=7, data=[52, 100]),\n",
      "   midi.NoteOffEvent(tick=960, channel=7, data=[52, 64]),\n",
      "   midi.NoteOnEvent(tick=0, channel=7, data=[55, 100]),\n",
      "   midi.NoteOffEvent(tick=192, channel=7, data=[55, 64]),\n",
      "   midi.NoteOnEvent(tick=0, channel=7, data=[49, 100]),\n",
      "   midi.NoteOffEvent(tick=192, channel=7, data=[49, 64]),\n",
      "   midi.NoteOnEvent(tick=0, channel=7, data=[45, 100]),\n",
      "   midi.NoteOffEvent(tick=192, channel=7, data=[45, 64]),\n",
      "   midi.NoteOnEvent(tick=0, channel=7, data=[50, 100]),\n",
      "   midi.NoteOffEvent(tick=192, channel=7, data=[50, 64]),\n",
      "   midi.NoteOnEvent(tick=0, channel=7, data=[54, 100]),\n",
      "   midi.NoteOffEvent(tick=192, channel=7, data=[54, 64]),\n",
      "   midi.NoteOnEvent(tick=0, channel=7, data=[57, 100]),\n",
      "   midi.NoteOffEvent(tick=192, channel=7, data=[57, 64]),\n",
      "   midi.NoteOnEvent(tick=0, channel=7, data=[45, 100]),\n",
      "   midi.NoteOffEvent(tick=192, channel=7, data=[45, 64]),\n",
      "   midi.NoteOnEvent(tick=0, channel=7, data=[50, 100]),\n",
      "   midi.NoteOffEvent(tick=384, channel=7, data=[50, 64]),\n",
      "   midi.NoteOnEvent(tick=384, channel=7, data=[57, 100]),\n",
      "   midi.NoteOffEvent(tick=192, channel=7, data=[57, 64]),\n",
      "   midi.NoteOnEvent(tick=0, channel=7, data=[55, 100]),\n",
      "   midi.NoteOffEvent(tick=96, channel=7, data=[55, 64]),\n",
      "   midi.NoteOnEvent(tick=0, channel=7, data=[54, 100]),\n",
      "   midi.NoteOffEvent(tick=96, channel=7, data=[54, 64]),\n",
      "   midi.NoteOnEvent(tick=0, channel=7, data=[52, 100]),\n",
      "   midi.NoteOffEvent(tick=96, channel=7, data=[52, 64]),\n",
      "   midi.NoteOnEvent(tick=0, channel=7, data=[50, 100]),\n",
      "   midi.NoteOffEvent(tick=96, channel=7, data=[50, 64]),\n",
      "   midi.NoteOnEvent(tick=0, channel=7, data=[49, 100]),\n",
      "   midi.NoteOffEvent(tick=96, channel=7, data=[49, 64]),\n",
      "   midi.NoteOnEvent(tick=0, channel=7, data=[47, 100]),\n",
      "   midi.NoteOffEvent(tick=96, channel=7, data=[47, 64]),\n",
      "   midi.NoteOnEvent(tick=0, channel=7, data=[45, 100]),\n",
      "   midi.NoteOffEvent(tick=384, channel=7, data=[45, 64]),\n",
      "   midi.NoteOnEvent(tick=192, channel=7, data=[55, 100]),\n",
      "   midi.NoteOffEvent(tick=192, channel=7, data=[55, 64]),\n",
      "   midi.NoteOnEvent(tick=0, channel=7, data=[54, 100]),\n",
      "   midi.NoteOffEvent(tick=192, channel=7, data=[54, 64]),\n",
      "   midi.NoteOnEvent(tick=0, channel=7, data=[59, 100]),\n",
      "   midi.NoteOffEvent(tick=192, channel=7, data=[59, 64]),\n",
      "   midi.NoteOnEvent(tick=0, channel=7, data=[55, 100]),\n",
      "   midi.NoteOffEvent(tick=192, channel=7, data=[55, 64]),\n",
      "   midi.NoteOnEvent(tick=0, channel=7, data=[57, 100]),\n",
      "   midi.NoteOffEvent(tick=192, channel=7, data=[57, 64]),\n",
      "   midi.NoteOnEvent(tick=0, channel=7, data=[50, 100]),\n",
      "   midi.NoteOffEvent(tick=192, channel=7, data=[50, 64]),\n",
      "   midi.NoteOnEvent(tick=0, channel=7, data=[52, 100]),\n",
      "   midi.NoteOffEvent(tick=192, channel=7, data=[52, 64]),\n",
      "   midi.NoteOnEvent(tick=0, channel=7, data=[54, 100]),\n",
      "   midi.NoteOffEvent(tick=192, channel=7, data=[54, 64]),\n",
      "   midi.NoteOnEvent(tick=0, channel=7, data=[52, 100]),\n",
      "   midi.NoteOffEvent(tick=192, channel=7, data=[52, 64]),\n",
      "   midi.NoteOnEvent(tick=0, channel=7, data=[50, 100]),\n",
      "   midi.NoteOffEvent(tick=96, channel=7, data=[50, 64]),\n",
      "   midi.NoteOnEvent(tick=0, channel=7, data=[62, 100]),\n",
      "   midi.NoteOffEvent(tick=96, channel=7, data=[62, 64]),\n",
      "   midi.NoteOnEvent(tick=0, channel=7, data=[60, 100]),\n",
      "   midi.NoteOffEvent(tick=96, channel=7, data=[60, 64]),\n",
      "   midi.NoteOnEvent(tick=0, channel=7, data=[59, 100]),\n",
      "   midi.NoteOffEvent(tick=96, channel=7, data=[59, 64]),\n",
      "   midi.NoteOnEvent(tick=0, channel=7, data=[57, 100]),\n",
      "   midi.NoteOffEvent(tick=96, channel=7, data=[57, 64]),\n",
      "   midi.NoteOnEvent(tick=0, channel=7, data=[55, 100]),\n",
      "   midi.NoteOffEvent(tick=96, channel=7, data=[55, 64]),\n",
      "   midi.NoteOnEvent(tick=0, channel=7, data=[54, 100]),\n",
      "   midi.NoteOffEvent(tick=96, channel=7, data=[54, 64]),\n",
      "   midi.NoteOnEvent(tick=0, channel=7, data=[52, 100]),\n",
      "   midi.NoteOffEvent(tick=96, channel=7, data=[52, 64]),\n",
      "   midi.NoteOnEvent(tick=0, channel=7, data=[50, 100]),\n",
      "   midi.NoteOffEvent(tick=384, channel=7, data=[50, 64]),\n",
      "   midi.NoteOnEvent(tick=192, channel=7, data=[48, 100]),\n",
      "   midi.NoteOffEvent(tick=192, channel=7, data=[48, 64]),\n",
      "   midi.NoteOnEvent(tick=0, channel=7, data=[47, 100]),\n",
      "   midi.NoteOffEvent(tick=192, channel=7, data=[47, 64]),\n",
      "   midi.NoteOnEvent(tick=0, channel=7, data=[52, 100]),\n",
      "   midi.NoteOffEvent(tick=192, channel=7, data=[52, 64]),\n",
      "   midi.NoteOnEvent(tick=0, channel=7, data=[48, 100]),\n",
      "   midi.NoteOffEvent(tick=192, channel=7, data=[48, 64]),\n",
      "   midi.NoteOnEvent(tick=0, channel=7, data=[50, 100]),\n",
      "   midi.NoteOffEvent(tick=192, channel=7, data=[50, 64]),\n",
      "   midi.NoteOnEvent(tick=0, channel=7, data=[55, 100]),\n",
      "   midi.NoteOffEvent(tick=192, channel=7, data=[55, 64]),\n",
      "   midi.NoteOnEvent(tick=0, channel=7, data=[57, 100]),\n",
      "   midi.NoteOffEvent(tick=192, channel=7, data=[57, 64]),\n",
      "   midi.NoteOnEvent(tick=0, channel=7, data=[59, 100]),\n",
      "   midi.NoteOffEvent(tick=192, channel=7, data=[59, 64]),\n",
      "   midi.NoteOnEvent(tick=0, channel=7, data=[57, 100]),\n",
      "   midi.NoteOffEvent(tick=192, channel=7, data=[57, 64]),\n",
      "   midi.NoteOnEvent(tick=0, channel=7, data=[56, 100]),\n",
      "   midi.NoteOffEvent(tick=192, channel=7, data=[56, 64]),\n",
      "   midi.NoteOnEvent(tick=0, channel=7, data=[54, 100]),\n",
      "   midi.NoteOffEvent(tick=192, channel=7, data=[54, 64]),\n",
      "   midi.NoteOnEvent(tick=0, channel=7, data=[56, 100]),\n",
      "   midi.NoteOffEvent(tick=192, channel=7, data=[56, 64]),\n",
      "   midi.NoteOnEvent(tick=0, channel=7, data=[52, 100]),\n",
      "   midi.NoteOffEvent(tick=192, channel=7, data=[52, 64]),\n",
      "   midi.NoteOnEvent(tick=0, channel=7, data=[57, 100]),\n",
      "   midi.NoteOffEvent(tick=384, channel=7, data=[57, 64]),\n",
      "   midi.NoteOnEvent(tick=0, channel=7, data=[55, 100]),\n",
      "   midi.NoteOffEvent(tick=192, channel=7, data=[55, 64]),\n",
      "   midi.NoteOnEvent(tick=0, channel=7, data=[54, 100]),\n",
      "   midi.NoteOffEvent(tick=192, channel=7, data=[54, 64]),\n",
      "   midi.NoteOnEvent(tick=0, channel=7, data=[52, 100]),\n",
      "   midi.NoteOffEvent(tick=192, channel=7, data=[52, 64]),\n",
      "   midi.NoteOnEvent(tick=0, channel=7, data=[50, 100]),\n",
      "   midi.NoteOffEvent(tick=192, channel=7, data=[50, 64]),\n",
      "   midi.NoteOnEvent(tick=0, channel=7, data=[49, 100]),\n",
      "   midi.NoteOffEvent(tick=192, channel=7, data=[49, 64]),\n",
      "   midi.NoteOnEvent(tick=0, channel=7, data=[47, 100]),\n",
      "   midi.NoteOffEvent(tick=192, channel=7, data=[47, 64]),\n",
      "   midi.NoteOnEvent(tick=0, channel=7, data=[49, 100]),\n",
      "   midi.NoteOffEvent(tick=192, channel=7, data=[49, 64]),\n",
      "   midi.NoteOnEvent(tick=0, channel=7, data=[52, 100]),\n",
      "   midi.NoteOffEvent(tick=192, channel=7, data=[52, 64]),\n",
      "   midi.NoteOnEvent(tick=0, channel=7, data=[49, 100]),\n",
      "   midi.NoteOffEvent(tick=192, channel=7, data=[49, 64]),\n",
      "   midi.NoteOnEvent(tick=0, channel=7, data=[45, 100]),\n",
      "   midi.NoteOffEvent(tick=192, channel=7, data=[45, 64]),\n",
      "   midi.NoteOnEvent(tick=0, channel=7, data=[50, 100]),\n",
      "   midi.NoteOffEvent(tick=864, channel=7, data=[50, 64]),\n",
      "   midi.NoteOnEvent(tick=0, channel=7, data=[49, 100]),\n",
      "   midi.NoteOffEvent(tick=96, channel=7, data=[49, 64]),\n",
      "   midi.NoteOnEvent(tick=0, channel=7, data=[50, 100]),\n",
      "   midi.NoteOffEvent(tick=96, channel=7, data=[50, 64]),\n",
      "   midi.NoteOnEvent(tick=0, channel=7, data=[52, 100]),\n",
      "   midi.NoteOffEvent(tick=96, channel=7, data=[52, 64]),\n",
      "   midi.NoteOnEvent(tick=0, channel=7, data=[54, 100]),\n",
      "   midi.NoteOffEvent(tick=192, channel=7, data=[54, 64]),\n",
      "   midi.NoteOnEvent(tick=0, channel=7, data=[59, 100]),\n",
      "   midi.NoteOffEvent(tick=192, channel=7, data=[59, 64]),\n",
      "   midi.NoteOnEvent(tick=0, channel=7, data=[55, 100]),\n",
      "   midi.NoteOffEvent(tick=384, channel=7, data=[55, 64]),\n",
      "   midi.NoteOnEvent(tick=0, channel=7, data=[57, 100]),\n",
      "   midi.NoteOffEvent(tick=384, channel=7, data=[57, 64]),\n",
      "   midi.NoteOnEvent(tick=0, channel=7, data=[50, 100]),\n",
      "   midi.NoteOffEvent(tick=384, channel=7, data=[50, 64]),\n",
      "   midi.EndOfTrackEvent(tick=0, data=[])]),\n",
      " midi.Track(\\\n",
      "  [midi.TrackNameEvent(tick=0, text='Continuo', data=[67, 111, 110, 116, 105, 110, 117, 111]),\n",
      "   midi.ControlChangeEvent(tick=0, channel=8, data=[0, 0]),\n",
      "   midi.ProgramChangeEvent(tick=0, channel=8, data=[19]),\n",
      "   midi.ControlChangeEvent(tick=0, channel=8, data=[7, 110]),\n",
      "   midi.ControlChangeEvent(tick=0, channel=8, data=[10, 63]),\n",
      "   midi.ControlChangeEvent(tick=0, channel=8, data=[91, 127]),\n",
      "   midi.ControlChangeEvent(tick=0, channel=8, data=[93, 127]),\n",
      "   midi.KeySignatureEvent(tick=0, data=[2, 0]),\n",
      "   midi.NoteOnEvent(tick=768, channel=8, data=[50, 100]),\n",
      "   midi.NoteOffEvent(tick=192, channel=8, data=[50, 64]),\n",
      "   midi.NoteOnEvent(tick=0, channel=8, data=[62, 100]),\n",
      "   midi.NoteOffEvent(tick=192, channel=8, data=[62, 64]),\n",
      "   midi.NoteOnEvent(tick=0, channel=8, data=[61, 100]),\n",
      "   midi.NoteOffEvent(tick=192, channel=8, data=[61, 64]),\n",
      "   midi.NoteOnEvent(tick=0, channel=8, data=[57, 100]),\n",
      "   midi.NoteOffEvent(tick=192, channel=8, data=[57, 64]),\n",
      "   midi.NoteOnEvent(tick=0, channel=8, data=[62, 100]),\n",
      "   midi.NoteOffEvent(tick=192, channel=8, data=[62, 64]),\n",
      "   midi.NoteOnEvent(tick=0, channel=8, data=[61, 100]),\n",
      "   midi.NoteOffEvent(tick=96, channel=8, data=[61, 64]),\n",
      "   midi.NoteOnEvent(tick=0, channel=8, data=[59, 100]),\n",
      "   midi.NoteOffEvent(tick=96, channel=8, data=[59, 64]),\n",
      "   midi.NoteOnEvent(tick=0, channel=8, data=[57, 100]),\n",
      "   midi.NoteOffEvent(tick=96, channel=8, data=[57, 64]),\n",
      "   midi.NoteOnEvent(tick=0, channel=8, data=[55, 100]),\n",
      "   midi.NoteOffEvent(tick=96, channel=8, data=[55, 64]),\n",
      "   midi.NoteOnEvent(tick=0, channel=8, data=[54, 100]),\n",
      "   midi.NoteOffEvent(tick=96, channel=8, data=[54, 64]),\n",
      "   midi.NoteOnEvent(tick=0, channel=8, data=[52, 100]),\n",
      "   midi.NoteOffEvent(tick=96, channel=8, data=[52, 64]),\n",
      "   midi.NoteOnEvent(tick=0, channel=8, data=[50, 100]),\n",
      "   midi.NoteOffEvent(tick=192, channel=8, data=[50, 64]),\n",
      "   midi.NoteOnEvent(tick=0, channel=8, data=[47, 100]),\n",
      "   midi.NoteOffEvent(tick=192, channel=8, data=[47, 64]),\n",
      "   midi.NoteOnEvent(tick=0, channel=8, data=[43, 100]),\n",
      "   midi.NoteOffEvent(tick=192, channel=8, data=[43, 64]),\n",
      "   midi.NoteOnEvent(tick=0, channel=8, data=[45, 100]),\n",
      "   midi.NoteOffEvent(tick=192, channel=8, data=[45, 64]),\n",
      "   midi.NoteOnEvent(tick=0, channel=8, data=[38, 100]),\n",
      "   midi.NoteOffEvent(tick=192, channel=8, data=[38, 64]),\n",
      "   midi.NoteOnEvent(tick=0, channel=8, data=[40, 100]),\n",
      "   midi.NoteOffEvent(tick=96, channel=8, data=[40, 64]),\n",
      "   midi.NoteOnEvent(tick=0, channel=8, data=[42, 100]),\n",
      "   midi.NoteOffEvent(tick=96, channel=8, data=[42, 64]),\n",
      "   midi.NoteOnEvent(tick=0, channel=8, data=[43, 100]),\n",
      "   midi.NoteOffEvent(tick=96, channel=8, data=[43, 64]),\n",
      "   midi.NoteOnEvent(tick=0, channel=8, data=[45, 100]),\n",
      "   midi.NoteOffEvent(tick=96, channel=8, data=[45, 64]),\n",
      "   midi.NoteOnEvent(tick=0, channel=8, data=[47, 100]),\n",
      "   midi.NoteOffEvent(tick=96, channel=8, data=[47, 64]),\n",
      "   midi.NoteOnEvent(tick=0, channel=8, data=[49, 100]),\n",
      "   midi.NoteOffEvent(tick=96, channel=8, data=[49, 64]),\n",
      "   midi.NoteOnEvent(tick=0, channel=8, data=[50, 100]),\n",
      "   midi.NoteOffEvent(tick=192, channel=8, data=[50, 64]),\n",
      "   midi.NoteOnEvent(tick=0, channel=8, data=[62, 100]),\n",
      "   midi.NoteOffEvent(tick=192, channel=8, data=[62, 64]),\n",
      "   midi.NoteOnEvent(tick=0, channel=8, data=[61, 100]),\n",
      "   midi.NoteOffEvent(tick=192, channel=8, data=[61, 64]),\n",
      "   midi.NoteOnEvent(tick=0, channel=8, data=[57, 100]),\n",
      "   midi.NoteOffEvent(tick=192, channel=8, data=[57, 64]),\n",
      "   midi.NoteOnEvent(tick=0, channel=8, data=[62, 100]),\n",
      "   midi.NoteOffEvent(tick=192, channel=8, data=[62, 64]),\n",
      "   midi.NoteOnEvent(tick=0, channel=8, data=[61, 100]),\n",
      "   midi.NoteOffEvent(tick=96, channel=8, data=[61, 64]),\n",
      "   midi.NoteOnEvent(tick=0, channel=8, data=[59, 100]),\n",
      "   midi.NoteOffEvent(tick=96, channel=8, data=[59, 64]),\n",
      "   midi.NoteOnEvent(tick=0, channel=8, data=[57, 100]),\n",
      "   midi.NoteOffEvent(tick=96, channel=8, data=[57, 64]),\n",
      "   midi.NoteOnEvent(tick=0, channel=8, data=[55, 100]),\n",
      "   midi.NoteOffEvent(tick=96, channel=8, data=[55, 64]),\n",
      "   midi.NoteOnEvent(tick=0, channel=8, data=[54, 100]),\n",
      "   midi.NoteOffEvent(tick=96, channel=8, data=[54, 64]),\n",
      "   midi.NoteOnEvent(tick=0, channel=8, data=[52, 100]),\n",
      "   midi.NoteOffEvent(tick=96, channel=8, data=[52, 64]),\n",
      "   midi.NoteOnEvent(tick=0, channel=8, data=[50, 100]),\n",
      "   midi.NoteOffEvent(tick=192, channel=8, data=[50, 64]),\n",
      "   midi.NoteOnEvent(tick=0, channel=8, data=[47, 100]),\n",
      "   midi.NoteOffEvent(tick=192, channel=8, data=[47, 64]),\n",
      "   midi.NoteOnEvent(tick=0, channel=8, data=[43, 100]),\n",
      "   midi.NoteOffEvent(tick=192, channel=8, data=[43, 64]),\n",
      "   midi.NoteOnEvent(tick=0, channel=8, data=[45, 100]),\n",
      "   midi.NoteOffEvent(tick=192, channel=8, data=[45, 64]),\n",
      "   midi.NoteOnEvent(tick=0, channel=8, data=[38, 100]),\n",
      "   midi.NoteOffEvent(tick=192, channel=8, data=[38, 64]),\n",
      "   midi.NoteOnEvent(tick=0, channel=8, data=[40, 100]),\n",
      "   midi.NoteOffEvent(tick=96, channel=8, data=[40, 64]),\n",
      "   midi.NoteOnEvent(tick=0, channel=8, data=[42, 100]),\n",
      "   midi.NoteOffEvent(tick=96, channel=8, data=[42, 64]),\n",
      "   midi.NoteOnEvent(tick=0, channel=8, data=[43, 100]),\n",
      "   midi.NoteOffEvent(tick=96, channel=8, data=[43, 64]),\n",
      "   midi.NoteOnEvent(tick=0, channel=8, data=[45, 100]),\n",
      "   midi.NoteOffEvent(tick=96, channel=8, data=[45, 64]),\n",
      "   midi.NoteOnEvent(tick=0, channel=8, data=[47, 100]),\n",
      "   midi.NoteOffEvent(tick=96, channel=8, data=[47, 64]),\n",
      "   midi.NoteOnEvent(tick=0, channel=8, data=[49, 100]),\n",
      "   midi.NoteOffEvent(tick=96, channel=8, data=[49, 64]),\n",
      "   midi.NoteOnEvent(tick=0, channel=8, data=[50, 100]),\n",
      "   midi.NoteOffEvent(tick=192, channel=8, data=[50, 64]),\n",
      "   midi.NoteOnEvent(tick=0, channel=8, data=[62, 100]),\n",
      "   midi.NoteOffEvent(tick=192, channel=8, data=[62, 64]),\n",
      "   midi.NoteOnEvent(tick=0, channel=8, data=[59, 100]),\n",
      "   midi.NoteOffEvent(tick=192, channel=8, data=[59, 64]),\n",
      "   midi.NoteOnEvent(tick=0, channel=8, data=[54, 100]),\n",
      "   midi.NoteOffEvent(tick=192, channel=8, data=[54, 64]),\n",
      "   midi.NoteOnEvent(tick=0, channel=8, data=[56, 100]),\n",
      "   midi.NoteOffEvent(tick=192, channel=8, data=[56, 64]),\n",
      "   midi.NoteOnEvent(tick=0, channel=8, data=[52, 100]),\n",
      "   midi.NoteOffEvent(tick=192, channel=8, data=[52, 64]),\n",
      "   midi.NoteOnEvent(tick=0, channel=8, data=[56, 100]),\n",
      "   midi.NoteOffEvent(tick=192, channel=8, data=[56, 64]),\n",
      "   midi.NoteOnEvent(tick=0, channel=8, data=[59, 100]),\n",
      "   midi.NoteOffEvent(tick=192, channel=8, data=[59, 64]),\n",
      "   midi.NoteOnEvent(tick=0, channel=8, data=[49, 100]),\n",
      "   midi.NoteOffEvent(tick=192, channel=8, data=[49, 64]),\n",
      "   midi.NoteOnEvent(tick=0, channel=8, data=[61, 100]),\n",
      "   midi.NoteOffEvent(tick=192, channel=8, data=[61, 64]),\n",
      "   midi.NoteOnEvent(tick=0, channel=8, data=[57, 100]),\n",
      "   midi.NoteOffEvent(tick=192, channel=8, data=[57, 64]),\n",
      "   midi.NoteOnEvent(tick=0, channel=8, data=[52, 100]),\n",
      "   midi.NoteOffEvent(tick=192, channel=8, data=[52, 64]),\n",
      "   midi.NoteOnEvent(tick=0, channel=8, data=[54, 100]),\n",
      "   midi.NoteOffEvent(tick=192, channel=8, data=[54, 64]),\n",
      "   midi.NoteOnEvent(tick=0, channel=8, data=[42, 100]),\n",
      "   midi.NoteOffEvent(tick=192, channel=8, data=[42, 64]),\n",
      "   midi.NoteOnEvent(tick=0, channel=8, data=[54, 100]),\n",
      "   midi.NoteOffEvent(tick=192, channel=8, data=[54, 64]),\n",
      "   midi.NoteOnEvent(tick=0, channel=8, data=[57, 100]),\n",
      "   midi.NoteOffEvent(tick=192, channel=8, data=[57, 64]),\n",
      "   midi.NoteOnEvent(tick=0, channel=8, data=[47, 100]),\n",
      "   midi.NoteOffEvent(tick=192, channel=8, data=[47, 64]),\n",
      "   midi.NoteOnEvent(tick=0, channel=8, data=[59, 100]),\n",
      "   midi.NoteOffEvent(tick=96, channel=8, data=[59, 64]),\n",
      "   midi.NoteOnEvent(tick=0, channel=8, data=[61, 100]),\n",
      "   midi.NoteOffEvent(tick=96, channel=8, data=[61, 64]),\n",
      "   midi.NoteOnEvent(tick=0, channel=8, data=[59, 100]),\n",
      "   midi.NoteOffEvent(tick=96, channel=8, data=[59, 64]),\n",
      "   midi.NoteOnEvent(tick=0, channel=8, data=[57, 100]),\n",
      "   midi.NoteOffEvent(tick=96, channel=8, data=[57, 64]),\n",
      "   midi.NoteOnEvent(tick=0, channel=8, data=[56, 100]),\n",
      "   midi.NoteOffEvent(tick=96, channel=8, data=[56, 64]),\n",
      "   midi.NoteOnEvent(tick=0, channel=8, data=[54, 100]),\n",
      "   midi.NoteOffEvent(tick=96, channel=8, data=[54, 64]),\n",
      "   midi.NoteOnEvent(tick=0, channel=8, data=[56, 100]),\n",
      "   midi.NoteOffEvent(tick=96, channel=8, data=[56, 64]),\n",
      "   midi.NoteOnEvent(tick=0, channel=8, data=[57, 100]),\n",
      "   midi.NoteOffEvent(tick=96, channel=8, data=[57, 64]),\n",
      "   midi.NoteOnEvent(tick=0, channel=8, data=[59, 100]),\n",
      "   midi.NoteOffEvent(tick=96, channel=8, data=[59, 64]),\n",
      "   midi.NoteOnEvent(tick=0, channel=8, data=[57, 100]),\n",
      "   midi.NoteOffEvent(tick=96, channel=8, data=[57, 64]),\n",
      "   midi.NoteOnEvent(tick=0, channel=8, data=[56, 100]),\n",
      "   midi.NoteOffEvent(tick=192, channel=8, data=[56, 64]),\n",
      "   midi.NoteOnEvent(tick=0, channel=8, data=[52, 100]),\n",
      "   midi.NoteOffEvent(tick=192, channel=8, data=[52, 64]),\n",
      "   midi.NoteOnEvent(tick=0, channel=8, data=[57, 100]),\n",
      "   midi.NoteOffEvent(tick=192, channel=8, data=[57, 64]),\n",
      "   midi.NoteOnEvent(tick=0, channel=8, data=[61, 100]),\n",
      "   midi.NoteOffEvent(tick=192, channel=8, data=[61, 64]),\n",
      "   midi.NoteOnEvent(tick=0, channel=8, data=[64, 100]),\n",
      "   midi.NoteOffEvent(tick=192, channel=8, data=[64, 64]),\n",
      "   midi.NoteOnEvent(tick=0, channel=8, data=[52, 100]),\n",
      "   midi.NoteOffEvent(tick=192, channel=8, data=[52, 64]),\n",
      "   midi.NoteOnEvent(tick=0, channel=8, data=[57, 100]),\n",
      "   midi.NoteOffEvent(tick=192, channel=8, data=[57, 64]),\n",
      "   midi.NoteOnEvent(tick=0, channel=8, data=[56, 100]),\n",
      "   midi.NoteOffEvent(tick=96, channel=8, data=[56, 64]),\n",
      "   midi.NoteOnEvent(tick=0, channel=8, data=[54, 100]),\n",
      "   midi.NoteOffEvent(tick=96, channel=8, data=[54, 64]),\n",
      "   midi.NoteOnEvent(tick=0, channel=8, data=[52, 100]),\n",
      "   midi.NoteOffEvent(tick=96, channel=8, data=[52, 64]),\n",
      "   midi.NoteOnEvent(tick=0, channel=8, data=[50, 100]),\n",
      "   midi.NoteOffEvent(tick=96, channel=8, data=[50, 64]),\n",
      "   midi.NoteOnEvent(tick=0, channel=8, data=[49, 100]),\n",
      "   midi.NoteOffEvent(tick=96, channel=8, data=[49, 64]),\n",
      "   midi.NoteOnEvent(tick=0, channel=8, data=[47, 100]),\n",
      "   midi.NoteOffEvent(tick=96, channel=8, data=[47, 64]),\n",
      "   midi.NoteOnEvent(tick=0, channel=8, data=[45, 100]),\n",
      "   midi.NoteOffEvent(tick=384, channel=8, data=[45, 64]),\n",
      "   midi.NoteOnEvent(tick=384, channel=8, data=[49, 100]),\n",
      "   midi.NoteOffEvent(tick=384, channel=8, data=[49, 64]),\n",
      "   midi.NoteOnEvent(tick=576, channel=8, data=[42, 100]),\n",
      "   midi.NoteOffEvent(tick=192, channel=8, data=[42, 64]),\n",
      "   midi.NoteOnEvent(tick=0, channel=8, data=[54, 100]),\n",
      "   midi.NoteOffEvent(tick=192, channel=8, data=[54, 64]),\n",
      "   midi.NoteOnEvent(tick=0, channel=8, data=[58, 100]),\n",
      "   midi.NoteOffEvent(tick=192, channel=8, data=[58, 64]),\n",
      "   midi.NoteOnEvent(tick=0, channel=8, data=[59, 100]),\n",
      "   midi.NoteOffEvent(tick=192, channel=8, data=[59, 64]),\n",
      "   midi.NoteOnEvent(tick=0, channel=8, data=[47, 100]),\n",
      "   midi.NoteOffEvent(tick=192, channel=8, data=[47, 64]),\n",
      "   midi.NoteOnEvent(tick=0, channel=8, data=[50, 100]),\n",
      "   midi.NoteOffEvent(tick=192, channel=8, data=[50, 64]),\n",
      "   midi.NoteOnEvent(tick=0, channel=8, data=[54, 100]),\n",
      "   midi.NoteOffEvent(tick=192, channel=8, data=[54, 64]),\n",
      "   midi.NoteOnEvent(tick=0, channel=8, data=[59, 100]),\n",
      "   midi.NoteOffEvent(tick=192, channel=8, data=[59, 64]),\n",
      "   midi.NoteOnEvent(tick=0, channel=8, data=[60, 100]),\n",
      "   midi.NoteOffEvent(tick=96, channel=8, data=[60, 64]),\n",
      "   midi.NoteOnEvent(tick=0, channel=8, data=[59, 100]),\n",
      "   midi.NoteOffEvent(tick=96, channel=8, data=[59, 64]),\n",
      "   midi.NoteOnEvent(tick=0, channel=8, data=[57, 100]),\n",
      "   midi.NoteOffEvent(tick=96, channel=8, data=[57, 64]),\n",
      "   midi.NoteOnEvent(tick=0, channel=8, data=[55, 100]),\n",
      "   midi.NoteOffEvent(tick=96, channel=8, data=[55, 64]),\n",
      "   midi.NoteOnEvent(tick=0, channel=8, data=[54, 100]),\n",
      "   midi.NoteOffEvent(tick=96, channel=8, data=[54, 64]),\n",
      "   midi.NoteOnEvent(tick=0, channel=8, data=[52, 100]),\n",
      "   midi.NoteOffEvent(tick=96, channel=8, data=[52, 64]),\n",
      "   midi.NoteOnEvent(tick=0, channel=8, data=[51, 100]),\n",
      "   midi.NoteOffEvent(tick=384, channel=8, data=[51, 64]),\n",
      "   midi.NoteOnEvent(tick=576, channel=8, data=[47, 100]),\n",
      "   midi.NoteOffEvent(tick=192, channel=8, data=[47, 64]),\n",
      "   midi.NoteOnEvent(tick=0, channel=8, data=[59, 100]),\n",
      "   midi.NoteOffEvent(tick=192, channel=8, data=[59, 64]),\n",
      "   midi.NoteOnEvent(tick=0, channel=8, data=[63, 100]),\n",
      "   midi.NoteOffEvent(tick=192, channel=8, data=[63, 64]),\n",
      "   midi.NoteOnEvent(tick=0, channel=8, data=[64, 100]),\n",
      "   midi.NoteOffEvent(tick=192, channel=8, data=[64, 64]),\n",
      "   midi.NoteOnEvent(tick=0, channel=8, data=[52, 100]),\n",
      "   midi.NoteOffEvent(tick=192, channel=8, data=[52, 64]),\n",
      "   midi.NoteOnEvent(tick=0, channel=8, data=[55, 100]),\n",
      "   midi.NoteOffEvent(tick=192, channel=8, data=[55, 64]),\n",
      "   midi.NoteOnEvent(tick=0, channel=8, data=[59, 100]),\n",
      "   midi.NoteOffEvent(tick=192, channel=8, data=[59, 64]),\n",
      "   midi.NoteOnEvent(tick=0, channel=8, data=[64, 100]),\n",
      "   midi.NoteOffEvent(tick=192, channel=8, data=[64, 64]),\n",
      "   midi.NoteOnEvent(tick=0, channel=8, data=[52, 100]),\n",
      "   midi.NoteOffEvent(tick=192, channel=8, data=[52, 64]),\n",
      "   midi.NoteOnEvent(tick=0, channel=8, data=[64, 100]),\n",
      "   midi.NoteOffEvent(tick=192, channel=8, data=[64, 64]),\n",
      "   midi.NoteOnEvent(tick=0, channel=8, data=[62, 100]),\n",
      "   midi.NoteOffEvent(tick=192, channel=8, data=[62, 64]),\n",
      "   midi.NoteOnEvent(tick=0, channel=8, data=[61, 100]),\n",
      "   midi.NoteOffEvent(tick=192, channel=8, data=[61, 64]),\n",
      "   midi.NoteOnEvent(tick=0, channel=8, data=[57, 100]),\n",
      "   midi.NoteOffEvent(tick=192, channel=8, data=[57, 64]),\n",
      "   midi.NoteOnEvent(tick=0, channel=8, data=[61, 100]),\n",
      "   midi.NoteOffEvent(tick=192, channel=8, data=[61, 64]),\n",
      "   midi.NoteOnEvent(tick=0, channel=8, data=[57, 100]),\n",
      "   midi.NoteOffEvent(tick=192, channel=8, data=[57, 64]),\n",
      "   midi.NoteOnEvent(tick=0, channel=8, data=[62, 100]),\n",
      "   midi.NoteOffEvent(tick=192, channel=8, data=[62, 64]),\n",
      "   midi.NoteOnEvent(tick=0, channel=8, data=[50, 100]),\n",
      "   midi.NoteOffEvent(tick=192, channel=8, data=[50, 64]),\n",
      "   midi.NoteOnEvent(tick=0, channel=8, data=[62, 100]),\n",
      "   midi.NoteOffEvent(tick=192, channel=8, data=[62, 64]),\n",
      "   midi.NoteOnEvent(tick=0, channel=8, data=[61, 100]),\n",
      "   midi.NoteOffEvent(tick=192, channel=8, data=[61, 64]),\n",
      "   midi.NoteOnEvent(tick=0, channel=8, data=[59, 100]),\n",
      "   midi.NoteOffEvent(tick=192, channel=8, data=[59, 64]),\n",
      "   midi.NoteOnEvent(tick=0, channel=8, data=[57, 100]),\n",
      "   midi.NoteOffEvent(tick=192, channel=8, data=[57, 64]),\n",
      "   midi.NoteOnEvent(tick=0, channel=8, data=[55, 100]),\n",
      "   midi.NoteOffEvent(tick=192, channel=8, data=[55, 64]),\n",
      "   midi.NoteOnEvent(tick=0, channel=8, data=[54, 100]),\n",
      "   midi.NoteOffEvent(tick=192, channel=8, data=[54, 64]),\n",
      "   midi.NoteOnEvent(tick=0, channel=8, data=[52, 100]),\n",
      "   midi.NoteOffEvent(tick=192, channel=8, data=[52, 64]),\n",
      "   midi.NoteOnEvent(tick=0, channel=8, data=[50, 100]),\n",
      "   midi.NoteOffEvent(tick=192, channel=8, data=[50, 64]),\n",
      "   midi.NoteOnEvent(tick=0, channel=8, data=[49, 100]),\n",
      "   midi.NoteOffEvent(tick=192, channel=8, data=[49, 64]),\n",
      "   midi.NoteOnEvent(tick=0, channel=8, data=[52, 100]),\n",
      "   midi.NoteOffEvent(tick=192, channel=8, data=[52, 64]),\n",
      "   midi.NoteOnEvent(tick=0, channel=8, data=[45, 100]),\n",
      "   midi.NoteOffEvent(tick=192, channel=8, data=[45, 64]),\n",
      "   midi.NoteOnEvent(tick=0, channel=8, data=[47, 100]),\n",
      "   midi.NoteOffEvent(tick=192, channel=8, data=[47, 64]),\n",
      "   midi.NoteOnEvent(tick=0, channel=8, data=[49, 100]),\n",
      "   midi.NoteOffEvent(tick=192, channel=8, data=[49, 64]),\n",
      "   midi.NoteOnEvent(tick=0, channel=8, data=[45, 100]),\n",
      "   midi.NoteOffEvent(tick=192, channel=8, data=[45, 64]),\n",
      "   midi.NoteOnEvent(tick=0, channel=8, data=[50, 100]),\n",
      "   midi.NoteOffEvent(tick=192, channel=8, data=[50, 64]),\n",
      "   midi.NoteOnEvent(tick=0, channel=8, data=[55, 100]),\n",
      "   midi.NoteOffEvent(tick=192, channel=8, data=[55, 64]),\n",
      "   midi.NoteOnEvent(tick=0, channel=8, data=[57, 100]),\n",
      "   midi.NoteOffEvent(tick=192, channel=8, data=[57, 64]),\n",
      "   midi.NoteOnEvent(tick=0, channel=8, data=[45, 100]),\n",
      "   midi.NoteOffEvent(tick=192, channel=8, data=[45, 64]),\n",
      "   midi.NoteOnEvent(tick=0, channel=8, data=[50, 100]),\n",
      "   midi.NoteOffEvent(tick=192, channel=8, data=[50, 64]),\n",
      "   midi.NoteOnEvent(tick=0, channel=8, data=[45, 100]),\n",
      "   midi.NoteOffEvent(tick=192, channel=8, data=[45, 64]),\n",
      "   midi.NoteOnEvent(tick=0, channel=8, data=[42, 100]),\n",
      "   midi.NoteOffEvent(tick=192, channel=8, data=[42, 64]),\n",
      "   midi.NoteOnEvent(tick=0, channel=8, data=[45, 100]),\n",
      "   midi.NoteOffEvent(tick=192, channel=8, data=[45, 64]),\n",
      "   midi.NoteOnEvent(tick=0, channel=8, data=[38, 100]),\n",
      "   midi.NoteOffEvent(tick=192, channel=8, data=[38, 64]),\n",
      "   midi.NoteOnEvent(tick=0, channel=8, data=[50, 100]),\n",
      "   midi.NoteOffEvent(tick=192, channel=8, data=[50, 64]),\n",
      "   midi.NoteOnEvent(tick=0, channel=8, data=[50, 100]),\n",
      "   midi.NoteOffEvent(tick=192, channel=8, data=[50, 64]),\n",
      "   midi.NoteOnEvent(tick=0, channel=8, data=[38, 100]),\n",
      "   midi.NoteOffEvent(tick=192, channel=8, data=[38, 64]),\n",
      "   midi.NoteOnEvent(tick=0, channel=8, data=[38, 100]),\n",
      "   midi.NoteOffEvent(tick=192, channel=8, data=[38, 64]),\n",
      "   midi.NoteOnEvent(tick=0, channel=8, data=[50, 100]),\n",
      "   midi.NoteOffEvent(tick=192, channel=8, data=[50, 64]),\n",
      "   midi.NoteOnEvent(tick=0, channel=8, data=[50, 100]),\n",
      "   midi.NoteOffEvent(tick=192, channel=8, data=[50, 64]),\n",
      "   midi.NoteOnEvent(tick=0, channel=8, data=[38, 100]),\n",
      "   midi.NoteOffEvent(tick=192, channel=8, data=[38, 64]),\n",
      "   midi.NoteOnEvent(tick=0, channel=8, data=[38, 100]),\n",
      "   midi.NoteOffEvent(tick=192, channel=8, data=[38, 64]),\n",
      "   midi.NoteOnEvent(tick=0, channel=8, data=[50, 100]),\n",
      "   midi.NoteOffEvent(tick=192, channel=8, data=[50, 64]),\n",
      "   midi.NoteOnEvent(tick=0, channel=8, data=[50, 100]),\n",
      "   midi.NoteOffEvent(tick=192, channel=8, data=[50, 64]),\n",
      "   midi.NoteOnEvent(tick=0, channel=8, data=[38, 100]),\n",
      "   midi.NoteOffEvent(tick=192, channel=8, data=[38, 64]),\n",
      "   midi.NoteOnEvent(tick=0, channel=8, data=[43, 100]),\n",
      "   midi.NoteOffEvent(tick=192, channel=8, data=[43, 64]),\n",
      "   midi.NoteOnEvent(tick=0, channel=8, data=[55, 100]),\n",
      "   midi.NoteOffEvent(tick=96, channel=8, data=[55, 64]),\n",
      "   midi.NoteOnEvent(tick=0, channel=8, data=[57, 100]),\n",
      "   midi.NoteOffEvent(tick=96, channel=8, data=[57, 64]),\n",
      "   midi.NoteOnEvent(tick=0, channel=8, data=[55, 100]),\n",
      "   midi.NoteOffEvent(tick=96, channel=8, data=[55, 64]),\n",
      "   midi.NoteOnEvent(tick=0, channel=8, data=[54, 100]),\n",
      "   midi.NoteOffEvent(tick=96, channel=8, data=[54, 64]),\n",
      "   midi.NoteOnEvent(tick=0, channel=8, data=[52, 100]),\n",
      "   midi.NoteOffEvent(tick=96, channel=8, data=[52, 64]),\n",
      "   midi.NoteOnEvent(tick=0, channel=8, data=[50, 100]),\n",
      "   midi.NoteOffEvent(tick=96, channel=8, data=[50, 64]),\n",
      "   midi.NoteOnEvent(tick=0, channel=8, data=[49, 100]),\n",
      "   midi.NoteOffEvent(tick=96, channel=8, data=[49, 64]),\n",
      "   midi.NoteOnEvent(tick=0, channel=8, data=[50, 100]),\n",
      "   midi.NoteOffEvent(tick=96, channel=8, data=[50, 64]),\n",
      "   midi.NoteOnEvent(tick=0, channel=8, data=[52, 100]),\n",
      "   midi.NoteOffEvent(tick=96, channel=8, data=[52, 64]),\n",
      "   midi.NoteOnEvent(tick=0, channel=8, data=[54, 100]),\n",
      "   midi.NoteOffEvent(tick=96, channel=8, data=[54, 64]),\n",
      "   midi.NoteOnEvent(tick=0, channel=8, data=[52, 100]),\n",
      "   midi.NoteOffEvent(tick=96, channel=8, data=[52, 64]),\n",
      "   midi.NoteOnEvent(tick=0, channel=8, data=[50, 100]),\n",
      "   midi.NoteOffEvent(tick=96, channel=8, data=[50, 64]),\n",
      "   midi.NoteOnEvent(tick=0, channel=8, data=[49, 100]),\n",
      "   midi.NoteOffEvent(tick=96, channel=8, data=[49, 64]),\n",
      "   midi.NoteOnEvent(tick=0, channel=8, data=[47, 100]),\n",
      "   midi.NoteOffEvent(tick=96, channel=8, data=[47, 64]),\n",
      "   midi.NoteOnEvent(tick=0, channel=8, data=[45, 100]),\n",
      "   midi.NoteOffEvent(tick=192, channel=8, data=[45, 64]),\n",
      "   midi.NoteOnEvent(tick=0, channel=8, data=[57, 100]),\n",
      "   midi.NoteOffEvent(tick=192, channel=8, data=[57, 64]),\n",
      "   midi.NoteOnEvent(tick=0, channel=8, data=[57, 100]),\n",
      "   midi.NoteOffEvent(tick=192, channel=8, data=[57, 64]),\n",
      "   midi.NoteOnEvent(tick=0, channel=8, data=[55, 100]),\n",
      "   midi.NoteOffEvent(tick=192, channel=8, data=[55, 64]),\n",
      "   midi.NoteOnEvent(tick=0, channel=8, data=[54, 100]),\n",
      "   midi.NoteOffEvent(tick=192, channel=8, data=[54, 64]),\n",
      "   midi.NoteOnEvent(tick=0, channel=8, data=[59, 100]),\n",
      "   midi.NoteOffEvent(tick=192, channel=8, data=[59, 64]),\n",
      "   midi.NoteOnEvent(tick=0, channel=8, data=[55, 100]),\n",
      "   midi.NoteOffEvent(tick=192, channel=8, data=[55, 64]),\n",
      "   midi.NoteOnEvent(tick=0, channel=8, data=[57, 100]),\n",
      "   midi.NoteOffEvent(tick=192, channel=8, data=[57, 64]),\n",
      "   midi.NoteOnEvent(tick=0, channel=8, data=[62, 100]),\n",
      "   midi.NoteOffEvent(tick=192, channel=8, data=[62, 64]),\n",
      "   midi.NoteOnEvent(tick=0, channel=8, data=[61, 100]),\n",
      "   midi.NoteOffEvent(tick=96, channel=8, data=[61, 64]),\n",
      "   midi.NoteOnEvent(tick=0, channel=8, data=[59, 100]),\n",
      "   midi.NoteOffEvent(tick=96, channel=8, data=[59, 64]),\n",
      "   midi.NoteOnEvent(tick=0, channel=8, data=[57, 100]),\n",
      "   midi.NoteOffEvent(tick=96, channel=8, data=[57, 64]),\n",
      "   midi.NoteOnEvent(tick=0, channel=8, data=[55, 100]),\n",
      "   midi.NoteOffEvent(tick=96, channel=8, data=[55, 64]),\n",
      "   midi.NoteOnEvent(tick=0, channel=8, data=[54, 100]),\n",
      "   midi.NoteOffEvent(tick=96, channel=8, data=[54, 64]),\n",
      "   midi.NoteOnEvent(tick=0, channel=8, data=[52, 100]),\n",
      "   midi.NoteOffEvent(tick=96, channel=8, data=[52, 64]),\n",
      "   midi.NoteOnEvent(tick=0, channel=8, data=[50, 100]),\n",
      "   midi.NoteOffEvent(tick=192, channel=8, data=[50, 64]),\n",
      "   midi.NoteOnEvent(tick=0, channel=8, data=[62, 100]),\n",
      "   midi.NoteOffEvent(tick=192, channel=8, data=[62, 64]),\n",
      "   midi.NoteOnEvent(tick=0, channel=8, data=[61, 100]),\n",
      "   midi.NoteOffEvent(tick=192, channel=8, data=[61, 64]),\n",
      "   midi.NoteOnEvent(tick=0, channel=8, data=[57, 100]),\n",
      "   midi.NoteOffEvent(tick=192, channel=8, data=[57, 64]),\n",
      "   midi.NoteOnEvent(tick=0, channel=8, data=[62, 100]),\n",
      "   midi.NoteOffEvent(tick=192, channel=8, data=[62, 64]),\n",
      "   midi.NoteOnEvent(tick=0, channel=8, data=[61, 100]),\n",
      "   midi.NoteOffEvent(tick=96, channel=8, data=[61, 64]),\n",
      "   midi.NoteOnEvent(tick=0, channel=8, data=[59, 100]),\n",
      "   midi.NoteOffEvent(tick=96, channel=8, data=[59, 64]),\n",
      "   midi.NoteOnEvent(tick=0, channel=8, data=[57, 100]),\n",
      "   midi.NoteOffEvent(tick=96, channel=8, data=[57, 64]),\n",
      "   midi.NoteOnEvent(tick=0, channel=8, data=[55, 100]),\n",
      "   midi.NoteOffEvent(tick=96, channel=8, data=[55, 64]),\n",
      "   midi.NoteOnEvent(tick=0, channel=8, data=[54, 100]),\n",
      "   midi.NoteOffEvent(tick=96, channel=8, data=[54, 64]),\n",
      "   midi.NoteOnEvent(tick=0, channel=8, data=[52, 100]),\n",
      "   midi.NoteOffEvent(tick=96, channel=8, data=[52, 64]),\n",
      "   midi.NoteOnEvent(tick=0, channel=8, data=[50, 100]),\n",
      "   midi.NoteOffEvent(tick=192, channel=8, data=[50, 64]),\n",
      "   midi.NoteOnEvent(tick=0, channel=8, data=[47, 100]),\n",
      "   midi.NoteOffEvent(tick=192, channel=8, data=[47, 64]),\n",
      "   midi.NoteOnEvent(tick=0, channel=8, data=[43, 100]),\n",
      "   midi.NoteOffEvent(tick=192, channel=8, data=[43, 64]),\n",
      "   midi.NoteOnEvent(tick=0, channel=8, data=[45, 100]),\n",
      "   midi.NoteOffEvent(tick=192, channel=8, data=[45, 64]),\n",
      "   midi.NoteOnEvent(tick=0, channel=8, data=[38, 100]),\n",
      "   midi.NoteOffEvent(tick=192, channel=8, data=[38, 64]),\n",
      "   midi.NoteOnEvent(tick=0, channel=8, data=[40, 100]),\n",
      "   midi.NoteOffEvent(tick=96, channel=8, data=[40, 64]),\n",
      "   midi.NoteOnEvent(tick=0, channel=8, data=[42, 100]),\n",
      "   midi.NoteOffEvent(tick=96, channel=8, data=[42, 64]),\n",
      "   midi.NoteOnEvent(tick=0, channel=8, data=[43, 100]),\n",
      "   midi.NoteOffEvent(tick=96, channel=8, data=[43, 64]),\n",
      "   midi.NoteOnEvent(tick=0, channel=8, data=[45, 100]),\n",
      "   midi.NoteOffEvent(tick=96, channel=8, data=[45, 64]),\n",
      "   midi.NoteOnEvent(tick=0, channel=8, data=[47, 100]),\n",
      "   midi.NoteOffEvent(tick=96, channel=8, data=[47, 64]),\n",
      "   midi.NoteOnEvent(tick=0, channel=8, data=[49, 100]),\n",
      "   midi.NoteOffEvent(tick=96, channel=8, data=[49, 64]),\n",
      "   midi.NoteOnEvent(tick=0, channel=8, data=[50, 100]),\n",
      "   midi.NoteOffEvent(tick=96, channel=8, data=[50, 64]),\n",
      "   midi.NoteOnEvent(tick=0, channel=8, data=[52, 100]),\n",
      "   midi.NoteOffEvent(tick=96, channel=8, data=[52, 64]),\n",
      "   midi.NoteOnEvent(tick=0, channel=8, data=[54, 100]),\n",
      "   midi.NoteOffEvent(tick=96, channel=8, data=[54, 64]),\n",
      "   midi.NoteOnEvent(tick=96, channel=8, data=[54, 100]),\n",
      "   midi.NoteOffEvent(tick=96, channel=8, data=[54, 64]),\n",
      "   midi.NoteOnEvent(tick=96, channel=8, data=[54, 100]),\n",
      "   midi.NoteOffEvent(tick=96, channel=8, data=[54, 64]),\n",
      "   midi.NoteOnEvent(tick=96, channel=8, data=[47, 100]),\n",
      "   midi.NoteOffEvent(tick=512, channel=8, data=[47, 64]),\n",
      "   midi.NoteOnEvent(tick=64, channel=8, data=[49, 100]),\n",
      "   midi.NoteOffEvent(tick=96, channel=8, data=[49, 64]),\n",
      "   midi.NoteOnEvent(tick=0, channel=8, data=[50, 100]),\n",
      "   midi.NoteOffEvent(tick=96, channel=8, data=[50, 64]),\n",
      "   midi.NoteOnEvent(tick=0, channel=8, data=[52, 100]),\n",
      "   midi.NoteOffEvent(tick=96, channel=8, data=[52, 64]),\n",
      "   midi.NoteOnEvent(tick=0, channel=8, data=[54, 100]),\n",
      "   midi.NoteOffEvent(tick=96, channel=8, data=[54, 64]),\n",
      "   midi.NoteOnEvent(tick=0, channel=8, data=[55, 100]),\n",
      "   midi.NoteOffEvent(tick=96, channel=8, data=[55, 64]),\n",
      "   midi.NoteOnEvent(tick=96, channel=8, data=[55, 100]),\n",
      "   midi.NoteOffEvent(tick=96, channel=8, data=[55, 64]),\n",
      "   midi.NoteOnEvent(tick=96, channel=8, data=[55, 100]),\n",
      "   midi.NoteOffEvent(tick=96, channel=8, data=[55, 64]),\n",
      "   midi.NoteOnEvent(tick=96, channel=8, data=[45, 100]),\n",
      "   midi.NoteOffEvent(tick=512, channel=8, data=[45, 64]),\n",
      "   midi.NoteOnEvent(tick=64, channel=8, data=[47, 100]),\n",
      "   midi.NoteOffEvent(tick=96, channel=8, data=[47, 64]),\n",
      "   midi.NoteOnEvent(tick=0, channel=8, data=[49, 100]),\n",
      "   midi.NoteOffEvent(tick=96, channel=8, data=[49, 64]),\n",
      "   midi.NoteOnEvent(tick=0, channel=8, data=[50, 100]),\n",
      "   midi.NoteOffEvent(tick=192, channel=8, data=[50, 64]),\n",
      "   midi.NoteOnEvent(tick=0, channel=8, data=[62, 100]),\n",
      "   midi.NoteOffEvent(tick=192, channel=8, data=[62, 64]),\n",
      "   midi.NoteOnEvent(tick=0, channel=8, data=[59, 100]),\n",
      "   midi.NoteOffEvent(tick=192, channel=8, data=[59, 64]),\n",
      "   midi.NoteOnEvent(tick=0, channel=8, data=[54, 100]),\n",
      "   midi.NoteOffEvent(tick=192, channel=8, data=[54, 64]),\n",
      "   midi.NoteOnEvent(tick=0, channel=8, data=[56, 100]),\n",
      "   midi.NoteOffEvent(tick=192, channel=8, data=[56, 64]),\n",
      "   midi.NoteOnEvent(tick=0, channel=8, data=[44, 100]),\n",
      "   midi.NoteOffEvent(tick=192, channel=8, data=[44, 64]),\n",
      "   midi.NoteOnEvent(tick=0, channel=8, data=[56, 100]),\n",
      "   midi.NoteOffEvent(tick=192, channel=8, data=[56, 64]),\n",
      "   midi.NoteOnEvent(tick=0, channel=8, data=[59, 100]),\n",
      "   midi.NoteOffEvent(tick=192, channel=8, data=[59, 64]),\n",
      "   midi.NoteOnEvent(tick=0, channel=8, data=[49, 100]),\n",
      "   midi.NoteOffEvent(tick=192, channel=8, data=[49, 64]),\n",
      "   midi.NoteOnEvent(tick=0, channel=8, data=[61, 100]),\n",
      "   midi.NoteOffEvent(tick=192, channel=8, data=[61, 64]),\n",
      "   midi.NoteOnEvent(tick=0, channel=8, data=[57, 100]),\n",
      "   midi.NoteOffEvent(tick=192, channel=8, data=[57, 64]),\n",
      "   midi.NoteOnEvent(tick=0, channel=8, data=[52, 100]),\n",
      "   midi.NoteOffEvent(tick=192, channel=8, data=[52, 64]),\n",
      "   midi.NoteOnEvent(tick=0, channel=8, data=[54, 100]),\n",
      "   midi.NoteOffEvent(tick=192, channel=8, data=[54, 64]),\n",
      "   midi.NoteOnEvent(tick=0, channel=8, data=[42, 100]),\n",
      "   midi.NoteOffEvent(tick=192, channel=8, data=[42, 64]),\n",
      "   midi.NoteOnEvent(tick=0, channel=8, data=[54, 100]),\n",
      "   midi.NoteOffEvent(tick=192, channel=8, data=[54, 64]),\n",
      "   midi.NoteOnEvent(tick=0, channel=8, data=[57, 100]),\n",
      "   midi.NoteOffEvent(tick=192, channel=8, data=[57, 64]),\n",
      "   midi.NoteOnEvent(tick=0, channel=8, data=[47, 100]),\n",
      "   midi.NoteOffEvent(tick=192, channel=8, data=[47, 64]),\n",
      "   midi.NoteOnEvent(tick=0, channel=8, data=[59, 100]),\n",
      "   midi.NoteOffEvent(tick=96, channel=8, data=[59, 64]),\n",
      "   midi.NoteOnEvent(tick=0, channel=8, data=[61, 100]),\n",
      "   midi.NoteOffEvent(tick=96, channel=8, data=[61, 64]),\n",
      "   midi.NoteOnEvent(tick=0, channel=8, data=[59, 100]),\n",
      "   midi.NoteOffEvent(tick=96, channel=8, data=[59, 64]),\n",
      "   midi.NoteOnEvent(tick=0, channel=8, data=[57, 100]),\n",
      "   midi.NoteOffEvent(tick=96, channel=8, data=[57, 64]),\n",
      "   midi.NoteOnEvent(tick=0, channel=8, data=[56, 100]),\n",
      "   midi.NoteOffEvent(tick=96, channel=8, data=[56, 64]),\n",
      "   midi.NoteOnEvent(tick=0, channel=8, data=[54, 100]),\n",
      "   midi.NoteOffEvent(tick=96, channel=8, data=[54, 64]),\n",
      "   midi.NoteOnEvent(tick=0, channel=8, data=[56, 100]),\n",
      "   midi.NoteOffEvent(tick=96, channel=8, data=[56, 64]),\n",
      "   midi.NoteOnEvent(tick=0, channel=8, data=[57, 100]),\n",
      "   midi.NoteOffEvent(tick=96, channel=8, data=[57, 64]),\n",
      "   midi.NoteOnEvent(tick=0, channel=8, data=[59, 100]),\n",
      "   midi.NoteOffEvent(tick=96, channel=8, data=[59, 64]),\n",
      "   midi.NoteOnEvent(tick=0, channel=8, data=[57, 100]),\n",
      "   midi.NoteOffEvent(tick=96, channel=8, data=[57, 64]),\n",
      "   midi.NoteOnEvent(tick=0, channel=8, data=[56, 100]),\n",
      "   midi.NoteOffEvent(tick=192, channel=8, data=[56, 64]),\n",
      "   midi.NoteOnEvent(tick=0, channel=8, data=[52, 100]),\n",
      "   midi.NoteOffEvent(tick=192, channel=8, data=[52, 64]),\n",
      "   midi.NoteOnEvent(tick=0, channel=8, data=[57, 100]),\n",
      "   midi.NoteOffEvent(tick=192, channel=8, data=[57, 64]),\n",
      "   midi.NoteOnEvent(tick=0, channel=8, data=[61, 100]),\n",
      "   midi.NoteOffEvent(tick=192, channel=8, data=[61, 64]),\n",
      "   midi.NoteOnEvent(tick=0, channel=8, data=[64, 100]),\n",
      "   midi.NoteOffEvent(tick=192, channel=8, data=[64, 64]),\n",
      "   midi.NoteOnEvent(tick=0, channel=8, data=[52, 100]),\n",
      "   midi.NoteOffEvent(tick=192, channel=8, data=[52, 64]),\n",
      "   midi.NoteOnEvent(tick=0, channel=8, data=[57, 100]),\n",
      "   midi.NoteOffEvent(tick=192, channel=8, data=[57, 64]),\n",
      "   midi.NoteOnEvent(tick=0, channel=8, data=[52, 100]),\n",
      "   midi.NoteOffEvent(tick=192, channel=8, data=[52, 64]),\n",
      "   midi.NoteOnEvent(tick=0, channel=8, data=[49, 100]),\n",
      "   midi.NoteOffEvent(tick=192, channel=8, data=[49, 64]),\n",
      "   midi.NoteOnEvent(tick=0, channel=8, data=[45, 100]),\n",
      "   midi.NoteOffEvent(tick=192, channel=8, data=[45, 64]),\n",
      "   midi.NoteOnEvent(tick=0, channel=8, data=[40, 100]),\n",
      "   midi.NoteOffEvent(tick=192, channel=8, data=[40, 64]),\n",
      "   midi.NoteOnEvent(tick=0, channel=8, data=[52, 100]),\n",
      "   midi.NoteOffEvent(tick=192, channel=8, data=[52, 64]),\n",
      "   midi.NoteOnEvent(tick=0, channel=8, data=[56, 100]),\n",
      "   midi.NoteOffEvent(tick=192, channel=8, data=[56, 64]),\n",
      "   midi.NoteOnEvent(tick=0, channel=8, data=[59, 100]),\n",
      "   midi.NoteOffEvent(tick=192, channel=8, data=[59, 64]),\n",
      "   midi.NoteOnEvent(tick=0, channel=8, data=[52, 100]),\n",
      "   midi.NoteOffEvent(tick=192, channel=8, data=[52, 64]),\n",
      "   midi.NoteOnEvent(tick=0, channel=8, data=[40, 100]),\n",
      "   midi.NoteOffEvent(tick=192, channel=8, data=[40, 64]),\n",
      "   midi.NoteOnEvent(tick=0, channel=8, data=[52, 100]),\n",
      "   midi.NoteOffEvent(tick=192, channel=8, data=[52, 64]),\n",
      "   midi.NoteOnEvent(tick=0, channel=8, data=[50, 100]),\n",
      "   midi.NoteOffEvent(tick=192, channel=8, data=[50, 64]),\n",
      "   midi.NoteOnEvent(tick=0, channel=8, data=[49, 100]),\n",
      "   midi.NoteOffEvent(tick=192, channel=8, data=[49, 64]),\n",
      "   midi.NoteOnEvent(tick=0, channel=8, data=[54, 100]),\n",
      "   midi.NoteOffEvent(tick=192, channel=8, data=[54, 64]),\n",
      "   midi.NoteOnEvent(tick=0, channel=8, data=[50, 100]),\n",
      "   midi.NoteOffEvent(tick=192, channel=8, data=[50, 64]),\n",
      "   midi.NoteOnEvent(tick=0, channel=8, data=[52, 100]),\n",
      "   midi.NoteOffEvent(tick=192, channel=8, data=[52, 64]),\n",
      "   midi.NoteOnEvent(tick=0, channel=8, data=[57, 100]),\n",
      "   midi.NoteOffEvent(tick=192, channel=8, data=[57, 64]),\n",
      "   midi.NoteOnEvent(tick=0, channel=8, data=[59, 100]),\n",
      "   midi.NoteOffEvent(tick=192, channel=8, data=[59, 64]),\n",
      "   midi.NoteOnEvent(tick=0, channel=8, data=[61, 100]),\n",
      "   midi.NoteOffEvent(tick=192, channel=8, data=[61, 64]),\n",
      "   midi.NoteOnEvent(tick=0, channel=8, data=[59, 100]),\n",
      "   midi.NoteOffEvent(tick=192, channel=8, data=[59, 64]),\n",
      "   midi.NoteOnEvent(tick=0, channel=8, data=[57, 100]),\n",
      "   midi.NoteOffEvent(tick=192, channel=8, data=[57, 64]),\n",
      "   midi.NoteOnEvent(tick=0, channel=8, data=[45, 100]),\n",
      "   midi.NoteOffEvent(tick=192, channel=8, data=[45, 64]),\n",
      "   midi.NoteOnEvent(tick=0, channel=8, data=[49, 100]),\n",
      "   midi.NoteOffEvent(tick=192, channel=8, data=[49, 64]),\n",
      "   midi.NoteOnEvent(tick=0, channel=8, data=[52, 100]),\n",
      "   midi.NoteOffEvent(tick=192, channel=8, data=[52, 64]),\n",
      "   midi.NoteOnEvent(tick=0, channel=8, data=[57, 100]),\n",
      "   midi.NoteOffEvent(tick=192, channel=8, data=[57, 64]),\n",
      "   midi.NoteOnEvent(tick=0, channel=8, data=[45, 100]),\n",
      "   midi.NoteOffEvent(tick=192, channel=8, data=[45, 64]),\n",
      "   midi.NoteOnEvent(tick=0, channel=8, data=[57, 100]),\n",
      "   midi.NoteOffEvent(tick=192, channel=8, data=[57, 64]),\n",
      "   midi.NoteOnEvent(tick=0, channel=8, data=[55, 100]),\n",
      "   midi.NoteOffEvent(tick=192, channel=8, data=[55, 64]),\n",
      "   midi.NoteOnEvent(tick=0, channel=8, data=[54, 100]),\n",
      "   midi.NoteOffEvent(tick=192, channel=8, data=[54, 64]),\n",
      "   midi.NoteOnEvent(tick=0, channel=8, data=[57, 100]),\n",
      "   midi.NoteOffEvent(tick=192, channel=8, data=[57, 64]),\n",
      "   midi.NoteOnEvent(tick=0, channel=8, data=[55, 100]),\n",
      "   midi.NoteOffEvent(tick=192, channel=8, data=[55, 64]),\n",
      "   midi.NoteOnEvent(tick=0, channel=8, data=[57, 100]),\n",
      "   midi.NoteOffEvent(tick=192, channel=8, data=[57, 64]),\n",
      "   midi.NoteOnEvent(tick=0, channel=8, data=[50, 100]),\n",
      "   midi.NoteOffEvent(tick=192, channel=8, data=[50, 64]),\n",
      "   midi.NoteOnEvent(tick=0, channel=8, data=[52, 100]),\n",
      "   midi.NoteOffEvent(tick=192, channel=8, data=[52, 64]),\n",
      "   midi.NoteOnEvent(tick=0, channel=8, data=[54, 100]),\n",
      "   midi.NoteOffEvent(tick=192, channel=8, data=[54, 64]),\n",
      "   midi.NoteOnEvent(tick=0, channel=8, data=[52, 100]),\n",
      "   midi.NoteOffEvent(tick=192, channel=8, data=[52, 64]),\n",
      "   midi.NoteOnEvent(tick=0, channel=8, data=[51, 100]),\n",
      "   midi.NoteOffEvent(tick=192, channel=8, data=[51, 64]),\n",
      "   midi.NoteOnEvent(tick=0, channel=8, data=[49, 100]),\n",
      "   midi.NoteOffEvent(tick=192, channel=8, data=[49, 64]),\n",
      "   midi.NoteOnEvent(tick=0, channel=8, data=[51, 100]),\n",
      "   midi.NoteOffEvent(tick=192, channel=8, data=[51, 64]),\n",
      "   midi.NoteOnEvent(tick=0, channel=8, data=[47, 100]),\n",
      "   midi.NoteOffEvent(tick=192, channel=8, data=[47, 64]),\n",
      "   midi.NoteOnEvent(tick=0, channel=8, data=[40, 100]),\n",
      "   midi.NoteOffEvent(tick=192, channel=8, data=[40, 64]),\n",
      "   midi.NoteOnEvent(tick=0, channel=8, data=[52, 100]),\n",
      "   midi.NoteOffEvent(tick=192, channel=8, data=[52, 64]),\n",
      "   midi.NoteOnEvent(tick=0, channel=8, data=[50, 100]),\n",
      "   midi.NoteOffEvent(tick=192, channel=8, data=[50, 64]),\n",
      "   midi.NoteOnEvent(tick=0, channel=8, data=[49, 100]),\n",
      "   midi.NoteOffEvent(tick=192, channel=8, data=[49, 64]),\n",
      "   midi.NoteOnEvent(tick=0, channel=8, data=[47, 100]),\n",
      "   midi.NoteOffEvent(tick=192, channel=8, data=[47, 64]),\n",
      "   midi.NoteOnEvent(tick=0, channel=8, data=[45, 100]),\n",
      "   midi.NoteOffEvent(tick=192, channel=8, data=[45, 64]),\n",
      "   midi.NoteOnEvent(tick=0, channel=8, data=[44, 100]),\n",
      "   midi.NoteOffEvent(tick=192, channel=8, data=[44, 64]),\n",
      "   midi.NoteOnEvent(tick=0, channel=8, data=[42, 100]),\n",
      "   midi.NoteOffEvent(tick=192, channel=8, data=[42, 64]),\n",
      "   midi.NoteOnEvent(tick=0, channel=8, data=[44, 100]),\n",
      "   midi.NoteOffEvent(tick=192, channel=8, data=[44, 64]),\n",
      "   midi.NoteOnEvent(tick=0, channel=8, data=[47, 100]),\n",
      "   midi.NoteOffEvent(tick=192, channel=8, data=[47, 64]),\n",
      "   midi.NoteOnEvent(tick=0, channel=8, data=[44, 100]),\n",
      "   midi.NoteOffEvent(tick=192, channel=8, data=[44, 64]),\n",
      "   midi.NoteOnEvent(tick=0, channel=8, data=[40, 100]),\n",
      "   midi.NoteOffEvent(tick=192, channel=8, data=[40, 64]),\n",
      "   midi.NoteOnEvent(tick=0, channel=8, data=[45, 100]),\n",
      "   midi.NoteOffEvent(tick=192, channel=8, data=[45, 64]),\n",
      "   midi.NoteOnEvent(tick=0, channel=8, data=[57, 100]),\n",
      "   midi.NoteOffEvent(tick=192, channel=8, data=[57, 64]),\n",
      "   midi.NoteOnEvent(tick=0, channel=8, data=[45, 100]),\n",
      "   midi.NoteOffEvent(tick=192, channel=8, data=[45, 64]),\n",
      "   midi.NoteOnEvent(tick=0, channel=8, data=[50, 100]),\n",
      "   midi.NoteOffEvent(tick=192, channel=8, data=[50, 64]),\n",
      "   midi.NoteOnEvent(tick=0, channel=8, data=[45, 100]),\n",
      "   midi.NoteOffEvent(tick=192, channel=8, data=[45, 64]),\n",
      "   midi.NoteOnEvent(tick=0, channel=8, data=[57, 100]),\n",
      "   midi.NoteOffEvent(tick=192, channel=8, data=[57, 64]),\n",
      "   midi.NoteOnEvent(tick=0, channel=8, data=[49, 100]),\n",
      "   midi.NoteOffEvent(tick=192, channel=8, data=[49, 64]),\n",
      "   midi.NoteOnEvent(tick=0, channel=8, data=[54, 100]),\n",
      "   midi.NoteOffEvent(tick=192, channel=8, data=[54, 64]),\n",
      "   midi.NoteOnEvent(tick=768, channel=8, data=[57, 100]),\n",
      "   midi.NoteOffEvent(tick=192, channel=8, data=[57, 64]),\n",
      "   midi.NoteOnEvent(tick=0, channel=8, data=[56, 100]),\n",
      "   midi.NoteOffEvent(tick=96, channel=8, data=[56, 64]),\n",
      "   midi.NoteOnEvent(tick=0, channel=8, data=[54, 100]),\n",
      "   midi.NoteOffEvent(tick=96, channel=8, data=[54, 64]),\n",
      "   midi.NoteOnEvent(tick=0, channel=8, data=[52, 100]),\n",
      "   midi.NoteOffEvent(tick=96, channel=8, data=[52, 64]),\n",
      "   midi.NoteOnEvent(tick=0, channel=8, data=[50, 100]),\n",
      "   midi.NoteOffEvent(tick=96, channel=8, data=[50, 64]),\n",
      "   midi.NoteOnEvent(tick=0, channel=8, data=[49, 100]),\n",
      "   midi.NoteOffEvent(tick=96, channel=8, data=[49, 64]),\n",
      "   midi.NoteOnEvent(tick=0, channel=8, data=[47, 100]),\n",
      "   midi.NoteOffEvent(tick=96, channel=8, data=[47, 64]),\n",
      "   midi.NoteOnEvent(tick=0, channel=8, data=[45, 100]),\n",
      "   midi.NoteOffEvent(tick=192, channel=8, data=[45, 64]),\n",
      "   midi.NoteOnEvent(tick=768, channel=8, data=[57, 100]),\n",
      "   midi.NoteOffEvent(tick=192, channel=8, data=[57, 64]),\n",
      "   midi.NoteOnEvent(tick=0, channel=8, data=[61, 100]),\n",
      "   midi.NoteOffEvent(tick=192, channel=8, data=[61, 64]),\n",
      "   midi.NoteOnEvent(tick=0, channel=8, data=[57, 100]),\n",
      "   midi.NoteOffEvent(tick=192, channel=8, data=[57, 64]),\n",
      "   midi.NoteOnEvent(tick=0, channel=8, data=[54, 100]),\n",
      "   midi.NoteOffEvent(tick=192, channel=8, data=[54, 64]),\n",
      "   midi.NoteOnEvent(tick=0, channel=8, data=[50, 100]),\n",
      "   midi.NoteOffEvent(tick=192, channel=8, data=[50, 64]),\n",
      "   midi.NoteOnEvent(tick=0, channel=8, data=[52, 100]),\n",
      "   midi.NoteOffEvent(tick=192, channel=8, data=[52, 64]),\n",
      "   midi.NoteOnEvent(tick=0, channel=8, data=[40, 100]),\n",
      "   midi.NoteOffEvent(tick=192, channel=8, data=[40, 64]),\n",
      "   midi.NoteOnEvent(tick=0, channel=8, data=[57, 100]),\n",
      "   midi.NoteOffEvent(tick=192, channel=8, data=[57, 64]),\n",
      "   midi.NoteOnEvent(tick=0, channel=8, data=[56, 100]),\n",
      "   midi.NoteOffEvent(tick=96, channel=8, data=[56, 64]),\n",
      "   midi.NoteOnEvent(tick=0, channel=8, data=[54, 100]),\n",
      "   midi.NoteOffEvent(tick=96, channel=8, data=[54, 64]),\n",
      "   midi.NoteOnEvent(tick=0, channel=8, data=[52, 100]),\n",
      "   midi.NoteOffEvent(tick=96, channel=8, data=[52, 64]),\n",
      "   midi.NoteOnEvent(tick=0, channel=8, data=[50, 100]),\n",
      "   midi.NoteOffEvent(tick=96, channel=8, data=[50, 64]),\n",
      "   midi.NoteOnEvent(tick=0, channel=8, data=[49, 100]),\n",
      "   midi.NoteOffEvent(tick=96, channel=8, data=[49, 64]),\n",
      "   midi.NoteOnEvent(tick=0, channel=8, data=[47, 100]),\n",
      "   midi.NoteOffEvent(tick=96, channel=8, data=[47, 64]),\n",
      "   midi.NoteOnEvent(tick=0, channel=8, data=[45, 100]),\n",
      "   midi.NoteOffEvent(tick=192, channel=8, data=[45, 64]),\n",
      "   midi.NoteOnEvent(tick=768, channel=8, data=[45, 100]),\n",
      "   midi.NoteOffEvent(tick=192, channel=8, data=[45, 64]),\n",
      "   midi.NoteOnEvent(tick=0, channel=8, data=[49, 100]),\n",
      "   midi.NoteOffEvent(tick=192, channel=8, data=[49, 64]),\n",
      "   midi.NoteOnEvent(tick=0, channel=8, data=[45, 100]),\n",
      "   midi.NoteOffEvent(tick=192, channel=8, data=[45, 64]),\n",
      "   midi.NoteOnEvent(tick=0, channel=8, data=[42, 100]),\n",
      "   midi.NoteOffEvent(tick=192, channel=8, data=[42, 64]),\n",
      "   midi.NoteOnEvent(tick=0, channel=8, data=[38, 100]),\n",
      "   midi.NoteOffEvent(tick=192, channel=8, data=[38, 64]),\n",
      "   midi.NoteOnEvent(tick=0, channel=8, data=[40, 100]),\n",
      "   midi.NoteOffEvent(tick=192, channel=8, data=[40, 64]),\n",
      "   midi.NoteOnEvent(tick=0, channel=8, data=[52, 100]),\n",
      "   midi.NoteOffEvent(tick=192, channel=8, data=[52, 64]),\n",
      "   midi.NoteOnEvent(tick=0, channel=8, data=[45, 100]),\n",
      "   midi.NoteOffEvent(tick=192, channel=8, data=[45, 64]),\n",
      "   midi.NoteOnEvent(tick=0, channel=8, data=[49, 100]),\n",
      "   midi.NoteOffEvent(tick=192, channel=8, data=[49, 64]),\n",
      "   midi.NoteOnEvent(tick=0, channel=8, data=[52, 100]),\n",
      "   midi.NoteOffEvent(tick=192, channel=8, data=[52, 64]),\n",
      "   midi.NoteOnEvent(tick=0, channel=8, data=[57, 100]),\n",
      "   midi.NoteOffEvent(tick=192, channel=8, data=[57, 64]),\n",
      "   midi.NoteOnEvent(tick=0, channel=8, data=[50, 100]),\n",
      "   midi.NoteOffEvent(tick=192, channel=8, data=[50, 64]),\n",
      "   midi.NoteOnEvent(tick=0, channel=8, data=[62, 100]),\n",
      "   midi.NoteOffEvent(tick=192, channel=8, data=[62, 64]),\n",
      "   midi.NoteOnEvent(tick=0, channel=8, data=[59, 100]),\n",
      "   midi.NoteOffEvent(tick=192, channel=8, data=[59, 64]),\n",
      "   midi.NoteOnEvent(tick=0, channel=8, data=[54, 100]),\n",
      "   midi.NoteOffEvent(tick=192, channel=8, data=[54, 64]),\n",
      "   midi.NoteOnEvent(tick=0, channel=8, data=[56, 100]),\n",
      "   midi.NoteOffEvent(tick=192, channel=8, data=[56, 64]),\n",
      "   midi.NoteOnEvent(tick=0, channel=8, data=[44, 100]),\n",
      "   midi.NoteOffEvent(tick=192, channel=8, data=[44, 64]),\n",
      "   midi.NoteOnEvent(tick=0, channel=8, data=[56, 100]),\n",
      "   midi.NoteOffEvent(tick=192, channel=8, data=[56, 64]),\n",
      "   midi.NoteOnEvent(tick=0, channel=8, data=[59, 100]),\n",
      "   midi.NoteOffEvent(tick=192, channel=8, data=[59, 64]),\n",
      "   midi.NoteOnEvent(tick=0, channel=8, data=[49, 100]),\n",
      "   midi.NoteOffEvent(tick=192, channel=8, data=[49, 64]),\n",
      "   midi.NoteOnEvent(tick=0, channel=8, data=[61, 100]),\n",
      "   midi.NoteOffEvent(tick=192, channel=8, data=[61, 64]),\n",
      "   midi.NoteOnEvent(tick=0, channel=8, data=[57, 100]),\n",
      "   midi.NoteOffEvent(tick=192, channel=8, data=[57, 64]),\n",
      "   midi.NoteOnEvent(tick=0, channel=8, data=[52, 100]),\n",
      "   midi.NoteOffEvent(tick=192, channel=8, data=[52, 64]),\n",
      "   midi.NoteOnEvent(tick=0, channel=8, data=[54, 100]),\n",
      "   midi.NoteOffEvent(tick=192, channel=8, data=[54, 64]),\n",
      "   midi.NoteOnEvent(tick=0, channel=8, data=[42, 100]),\n",
      "   midi.NoteOffEvent(tick=192, channel=8, data=[42, 64]),\n",
      "   midi.NoteOnEvent(tick=0, channel=8, data=[54, 100]),\n",
      "   midi.NoteOffEvent(tick=192, channel=8, data=[54, 64]),\n",
      "   midi.NoteOnEvent(tick=0, channel=8, data=[57, 100]),\n",
      "   midi.NoteOffEvent(tick=192, channel=8, data=[57, 64]),\n",
      "   midi.NoteOnEvent(tick=0, channel=8, data=[47, 100]),\n",
      "   midi.NoteOffEvent(tick=192, channel=8, data=[47, 64]),\n",
      "   midi.NoteOnEvent(tick=0, channel=8, data=[59, 100]),\n",
      "   midi.NoteOffEvent(tick=96, channel=8, data=[59, 64]),\n",
      "   midi.NoteOnEvent(tick=0, channel=8, data=[61, 100]),\n",
      "   midi.NoteOffEvent(tick=96, channel=8, data=[61, 64]),\n",
      "   midi.NoteOnEvent(tick=0, channel=8, data=[59, 100]),\n",
      "   midi.NoteOffEvent(tick=96, channel=8, data=[59, 64]),\n",
      "   midi.NoteOnEvent(tick=0, channel=8, data=[57, 100]),\n",
      "   midi.NoteOffEvent(tick=96, channel=8, data=[57, 64]),\n",
      "   midi.NoteOnEvent(tick=0, channel=8, data=[56, 100]),\n",
      "   midi.NoteOffEvent(tick=96, channel=8, data=[56, 64]),\n",
      "   midi.NoteOnEvent(tick=0, channel=8, data=[54, 100]),\n",
      "   midi.NoteOffEvent(tick=96, channel=8, data=[54, 64]),\n",
      "   midi.NoteOnEvent(tick=0, channel=8, data=[56, 100]),\n",
      "   midi.NoteOffEvent(tick=192, channel=8, data=[56, 64]),\n",
      "   midi.NoteOnEvent(tick=0, channel=8, data=[52, 100]),\n",
      "   midi.NoteOffEvent(tick=192, channel=8, data=[52, 64]),\n",
      "   midi.NoteOnEvent(tick=0, channel=8, data=[40, 100]),\n",
      "   midi.NoteOffEvent(tick=192, channel=8, data=[40, 64]),\n",
      "   midi.NoteOnEvent(tick=0, channel=8, data=[52, 100]),\n",
      "   midi.NoteOffEvent(tick=192, channel=8, data=[52, 64]),\n",
      "   midi.NoteOnEvent(tick=0, channel=8, data=[45, 100]),\n",
      "   midi.NoteOffEvent(tick=192, channel=8, data=[45, 64]),\n",
      "   midi.NoteOnEvent(tick=0, channel=8, data=[49, 100]),\n",
      "   midi.NoteOffEvent(tick=192, channel=8, data=[49, 64]),\n",
      "   midi.NoteOnEvent(tick=0, channel=8, data=[52, 100]),\n",
      "   midi.NoteOffEvent(tick=192, channel=8, data=[52, 64]),\n",
      "   midi.NoteOnEvent(tick=0, channel=8, data=[40, 100]),\n",
      "   midi.NoteOffEvent(tick=192, channel=8, data=[40, 64]),\n",
      "   midi.NoteOnEvent(tick=0, channel=8, data=[45, 100]),\n",
      "   midi.NoteOffEvent(tick=384, channel=8, data=[45, 64]),\n",
      "   midi.NoteOnEvent(tick=384, channel=8, data=[45, 100]),\n",
      "   midi.NoteOffEvent(tick=192, channel=8, data=[45, 64]),\n",
      "   midi.NoteOnEvent(tick=0, channel=8, data=[57, 100]),\n",
      "   midi.NoteOffEvent(tick=192, channel=8, data=[57, 64]),\n",
      "   midi.NoteOnEvent(tick=0, channel=8, data=[56, 100]),\n",
      "   midi.NoteOffEvent(tick=192, channel=8, data=[56, 64]),\n",
      "   midi.NoteOnEvent(tick=0, channel=8, data=[54, 100]),\n",
      "   midi.NoteOffEvent(tick=192, channel=8, data=[54, 64]),\n",
      "   midi.NoteOnEvent(tick=0, channel=8, data=[53, 100]),\n",
      "   midi.NoteOffEvent(tick=192, channel=8, data=[53, 64]),\n",
      "   midi.NoteOnEvent(tick=0, channel=8, data=[56, 100]),\n",
      "   midi.NoteOffEvent(tick=192, channel=8, data=[56, 64]),\n",
      "   midi.NoteOnEvent(tick=0, channel=8, data=[53, 100]),\n",
      "   midi.NoteOffEvent(tick=192, channel=8, data=[53, 64]),\n",
      "   midi.NoteOnEvent(tick=0, channel=8, data=[49, 100]),\n",
      "   midi.NoteOffEvent(tick=192, channel=8, data=[49, 64]),\n",
      "   midi.NoteOnEvent(tick=0, channel=8, data=[57, 100]),\n",
      "   midi.NoteOffEvent(tick=192, channel=8, data=[57, 64]),\n",
      "   midi.NoteOnEvent(tick=0, channel=8, data=[59, 100]),\n",
      "   midi.NoteOffEvent(tick=192, channel=8, data=[59, 64]),\n",
      "   midi.NoteOnEvent(tick=0, channel=8, data=[61, 100]),\n",
      "   midi.NoteOffEvent(tick=192, channel=8, data=[61, 64]),\n",
      "   midi.NoteOnEvent(tick=0, channel=8, data=[49, 100]),\n",
      "   midi.NoteOffEvent(tick=192, channel=8, data=[49, 64]),\n",
      "   midi.NoteOnEvent(tick=0, channel=8, data=[54, 100]),\n",
      "   midi.NoteOffEvent(tick=192, channel=8, data=[54, 64]),\n",
      "   midi.NoteOnEvent(tick=0, channel=8, data=[42, 100]),\n",
      "   midi.NoteOffEvent(tick=192, channel=8, data=[42, 64]),\n",
      "   midi.NoteOnEvent(tick=0, channel=8, data=[54, 100]),\n",
      "   midi.NoteOffEvent(tick=192, channel=8, data=[54, 64]),\n",
      "   midi.NoteOnEvent(tick=0, channel=8, data=[52, 100]),\n",
      "   midi.NoteOffEvent(tick=192, channel=8, data=[52, 64]),\n",
      "   midi.NoteOnEvent(tick=0, channel=8, data=[50, 100]),\n",
      "   midi.NoteOffEvent(tick=192, channel=8, data=[50, 64]),\n",
      "   midi.NoteOnEvent(tick=0, channel=8, data=[62, 100]),\n",
      "   midi.NoteOffEvent(tick=192, channel=8, data=[62, 64]),\n",
      "   midi.NoteOnEvent(tick=0, channel=8, data=[61, 100]),\n",
      "   midi.NoteOffEvent(tick=192, channel=8, data=[61, 64]),\n",
      "   midi.NoteOnEvent(tick=0, channel=8, data=[59, 100]),\n",
      "   midi.NoteOffEvent(tick=192, channel=8, data=[59, 64]),\n",
      "   midi.NoteOnEvent(tick=0, channel=8, data=[58, 100]),\n",
      "   midi.NoteOffEvent(tick=192, channel=8, data=[58, 64]),\n",
      "   midi.NoteOnEvent(tick=0, channel=8, data=[61, 100]),\n",
      "   midi.NoteOffEvent(tick=192, channel=8, data=[61, 64]),\n",
      "   midi.NoteOnEvent(tick=0, channel=8, data=[58, 100]),\n",
      "   midi.NoteOffEvent(tick=192, channel=8, data=[58, 64]),\n",
      "   midi.NoteOnEvent(tick=0, channel=8, data=[54, 100]),\n",
      "   midi.NoteOffEvent(tick=192, channel=8, data=[54, 64]),\n",
      "   midi.NoteOnEvent(tick=0, channel=8, data=[50, 100]),\n",
      "   midi.NoteOffEvent(tick=192, channel=8, data=[50, 64]),\n",
      "   midi.NoteOnEvent(tick=0, channel=8, data=[52, 100]),\n",
      "   midi.NoteOffEvent(tick=192, channel=8, data=[52, 64]),\n",
      "   midi.NoteOnEvent(tick=0, channel=8, data=[54, 100]),\n",
      "   midi.NoteOffEvent(tick=192, channel=8, data=[54, 64]),\n",
      "   midi.NoteOnEvent(tick=0, channel=8, data=[42, 100]),\n",
      "   midi.NoteOffEvent(tick=192, channel=8, data=[42, 64]),\n",
      "   midi.NoteOnEvent(tick=0, channel=8, data=[47, 100]),\n",
      "   midi.NoteOffEvent(tick=192, channel=8, data=[47, 64]),\n",
      "   midi.NoteOnEvent(tick=0, channel=8, data=[49, 100]),\n",
      "   midi.NoteOffEvent(tick=192, channel=8, data=[49, 64]),\n",
      "   midi.NoteOnEvent(tick=0, channel=8, data=[50, 100]),\n",
      "   midi.NoteOffEvent(tick=192, channel=8, data=[50, 64]),\n",
      "   midi.NoteOnEvent(tick=0, channel=8, data=[47, 100]),\n",
      "   midi.NoteOffEvent(tick=192, channel=8, data=[47, 64]),\n",
      "   midi.NoteOnEvent(tick=0, channel=8, data=[52, 100]),\n",
      "   midi.NoteOffEvent(tick=192, channel=8, data=[52, 64]),\n",
      "   midi.NoteOnEvent(tick=0, channel=8, data=[40, 100]),\n",
      "   midi.NoteOffEvent(tick=192, channel=8, data=[40, 64]),\n",
      "   midi.NoteOnEvent(tick=0, channel=8, data=[52, 100]),\n",
      "   midi.NoteOffEvent(tick=192, channel=8, data=[52, 64]),\n",
      "   midi.NoteOnEvent(tick=0, channel=8, data=[55, 100]),\n",
      "   midi.NoteOffEvent(tick=192, channel=8, data=[55, 64]),\n",
      "   midi.NoteOnEvent(tick=0, channel=8, data=[57, 100]),\n",
      "   midi.NoteOffEvent(tick=192, channel=8, data=[57, 64]),\n",
      "   midi.NoteOnEvent(tick=0, channel=8, data=[61, 100]),\n",
      "   midi.NoteOffEvent(tick=96, channel=8, data=[61, 64]),\n",
      "   midi.NoteOnEvent(tick=0, channel=8, data=[59, 100]),\n",
      "   midi.NoteOffEvent(tick=96, channel=8, data=[59, 64]),\n",
      "   midi.NoteOnEvent(tick=0, channel=8, data=[57, 100]),\n",
      "   midi.NoteOffEvent(tick=96, channel=8, data=[57, 64]),\n",
      "   midi.NoteOnEvent(tick=0, channel=8, data=[55, 100]),\n",
      "   midi.NoteOffEvent(tick=96, channel=8, data=[55, 64]),\n",
      "   midi.NoteOnEvent(tick=0, channel=8, data=[54, 100]),\n",
      "   midi.NoteOffEvent(tick=96, channel=8, data=[54, 64]),\n",
      "   midi.NoteOnEvent(tick=0, channel=8, data=[52, 100]),\n",
      "   midi.NoteOffEvent(tick=96, channel=8, data=[52, 64]),\n",
      "   midi.NoteOnEvent(tick=0, channel=8, data=[50, 100]),\n",
      "   midi.NoteOffEvent(tick=192, channel=8, data=[50, 64]),\n",
      "   midi.NoteOnEvent(tick=0, channel=8, data=[38, 100]),\n",
      "   midi.NoteOffEvent(tick=192, channel=8, data=[38, 64]),\n",
      "   midi.NoteOnEvent(tick=0, channel=8, data=[50, 100]),\n",
      "   midi.NoteOffEvent(tick=192, channel=8, data=[50, 64]),\n",
      "   midi.NoteOnEvent(tick=0, channel=8, data=[54, 100]),\n",
      "   midi.NoteOffEvent(tick=192, channel=8, data=[54, 64]),\n",
      "   midi.NoteOnEvent(tick=0, channel=8, data=[55, 100]),\n",
      "   midi.NoteOffEvent(tick=192, channel=8, data=[55, 64]),\n",
      "   midi.NoteOnEvent(tick=0, channel=8, data=[59, 100]),\n",
      "   midi.NoteOffEvent(tick=96, channel=8, data=[59, 64]),\n",
      "   midi.NoteOnEvent(tick=0, channel=8, data=[57, 100]),\n",
      "   midi.NoteOffEvent(tick=96, channel=8, data=[57, 64]),\n",
      "   midi.NoteOnEvent(tick=0, channel=8, data=[55, 100]),\n",
      "   midi.NoteOffEvent(tick=96, channel=8, data=[55, 64]),\n",
      "   midi.NoteOnEvent(tick=0, channel=8, data=[54, 100]),\n",
      "   midi.NoteOffEvent(tick=96, channel=8, data=[54, 64]),\n",
      "   midi.NoteOnEvent(tick=0, channel=8, data=[52, 100]),\n",
      "   midi.NoteOffEvent(tick=96, channel=8, data=[52, 64]),\n",
      "   midi.NoteOnEvent(tick=0, channel=8, data=[50, 100]),\n",
      "   midi.NoteOffEvent(tick=96, channel=8, data=[50, 64]),\n",
      "   midi.NoteOnEvent(tick=0, channel=8, data=[49, 100]),\n",
      "   midi.NoteOffEvent(tick=96, channel=8, data=[49, 64]),\n",
      "   midi.NoteOnEvent(tick=0, channel=8, data=[52, 100]),\n",
      "   midi.NoteOffEvent(tick=96, channel=8, data=[52, 64]),\n",
      "   midi.NoteOnEvent(tick=0, channel=8, data=[55, 100]),\n",
      "   midi.NoteOffEvent(tick=96, channel=8, data=[55, 64]),\n",
      "   midi.NoteOnEvent(tick=0, channel=8, data=[54, 100]),\n",
      "   midi.NoteOffEvent(tick=96, channel=8, data=[54, 64]),\n",
      "   midi.NoteOnEvent(tick=0, channel=8, data=[52, 100]),\n",
      "   midi.NoteOffEvent(tick=96, channel=8, data=[52, 64]),\n",
      "   midi.NoteOnEvent(tick=0, channel=8, data=[50, 100]),\n",
      "   midi.NoteOffEvent(tick=96, channel=8, data=[50, 64]),\n",
      "   midi.NoteOnEvent(tick=0, channel=8, data=[49, 100]),\n",
      "   midi.NoteOffEvent(tick=96, channel=8, data=[49, 64]),\n",
      "   midi.NoteOnEvent(tick=0, channel=8, data=[47, 100]),\n",
      "   midi.NoteOffEvent(tick=96, channel=8, data=[47, 64]),\n",
      "   midi.NoteOnEvent(tick=0, channel=8, data=[46, 100]),\n",
      "   midi.NoteOffEvent(tick=192, channel=8, data=[46, 64]),\n",
      "   midi.NoteOnEvent(tick=0, channel=8, data=[42, 100]),\n",
      "   midi.NoteOffEvent(tick=192, channel=8, data=[42, 64]),\n",
      "   midi.NoteOnEvent(tick=0, channel=8, data=[44, 100]),\n",
      "   midi.NoteOffEvent(tick=192, channel=8, data=[44, 64]),\n",
      "   midi.NoteOnEvent(tick=0, channel=8, data=[46, 100]),\n",
      "   midi.NoteOffEvent(tick=192, channel=8, data=[46, 64]),\n",
      "   midi.NoteOnEvent(tick=0, channel=8, data=[47, 100]),\n",
      "   midi.NoteOffEvent(tick=192, channel=8, data=[47, 64]),\n",
      "   midi.NoteOnEvent(tick=0, channel=8, data=[43, 100]),\n",
      "   midi.NoteOffEvent(tick=192, channel=8, data=[43, 64]),\n",
      "   midi.NoteOnEvent(tick=0, channel=8, data=[40, 100]),\n",
      "   midi.NoteOffEvent(tick=192, channel=8, data=[40, 64]),\n",
      "   midi.NoteOnEvent(tick=0, channel=8, data=[42, 100]),\n",
      "   midi.NoteOffEvent(tick=192, channel=8, data=[42, 64]),\n",
      "   midi.NoteOnEvent(tick=0, channel=8, data=[47, 100]),\n",
      "   midi.NoteOffEvent(tick=192, channel=8, data=[47, 64]),\n",
      "   midi.NoteOnEvent(tick=0, channel=8, data=[50, 100]),\n",
      "   midi.NoteOffEvent(tick=192, channel=8, data=[50, 64]),\n",
      "   midi.NoteOnEvent(tick=0, channel=8, data=[49, 100]),\n",
      "   midi.NoteOffEvent(tick=192, channel=8, data=[49, 64]),\n",
      "   midi.NoteOnEvent(tick=0, channel=8, data=[47, 100]),\n",
      "   midi.NoteOffEvent(tick=192, channel=8, data=[47, 64]),\n",
      "   midi.NoteOnEvent(tick=0, channel=8, data=[54, 100]),\n",
      "   midi.NoteOffEvent(tick=384, channel=8, data=[54, 64]),\n",
      "   midi.NoteOnEvent(tick=384, channel=8, data=[49, 100]),\n",
      "   midi.NoteOffEvent(tick=384, channel=8, data=[49, 64]),\n",
      "   midi.NoteOnEvent(tick=576, channel=8, data=[42, 100]),\n",
      "   midi.NoteOffEvent(tick=192, channel=8, data=[42, 64]),\n",
      "   midi.NoteOnEvent(tick=0, channel=8, data=[54, 100]),\n",
      "   midi.NoteOffEvent(tick=192, channel=8, data=[54, 64]),\n",
      "   midi.NoteOnEvent(tick=0, channel=8, data=[58, 100]),\n",
      "   midi.NoteOffEvent(tick=192, channel=8, data=[58, 64]),\n",
      "   midi.NoteOnEvent(tick=0, channel=8, data=[59, 100]),\n",
      "   midi.NoteOffEvent(tick=192, channel=8, data=[59, 64]),\n",
      "   midi.NoteOnEvent(tick=0, channel=8, data=[47, 100]),\n",
      "   midi.NoteOffEvent(tick=192, channel=8, data=[47, 64]),\n",
      "   midi.NoteOnEvent(tick=0, channel=8, data=[50, 100]),\n",
      "   midi.NoteOffEvent(tick=192, channel=8, data=[50, 64]),\n",
      "   midi.NoteOnEvent(tick=0, channel=8, data=[54, 100]),\n",
      "   midi.NoteOffEvent(tick=192, channel=8, data=[54, 64]),\n",
      "   midi.NoteOnEvent(tick=0, channel=8, data=[59, 100]),\n",
      "   midi.NoteOffEvent(tick=192, channel=8, data=[59, 64]),\n",
      "   midi.NoteOnEvent(tick=0, channel=8, data=[60, 100]),\n",
      "   midi.NoteOffEvent(tick=96, channel=8, data=[60, 64]),\n",
      "   midi.NoteOnEvent(tick=0, channel=8, data=[59, 100]),\n",
      "   midi.NoteOffEvent(tick=96, channel=8, data=[59, 64]),\n",
      "   midi.NoteOnEvent(tick=0, channel=8, data=[57, 100]),\n",
      "   midi.NoteOffEvent(tick=96, channel=8, data=[57, 64]),\n",
      "   midi.NoteOnEvent(tick=0, channel=8, data=[55, 100]),\n",
      "   midi.NoteOffEvent(tick=96, channel=8, data=[55, 64]),\n",
      "   midi.NoteOnEvent(tick=0, channel=8, data=[54, 100]),\n",
      "   midi.NoteOffEvent(tick=96, channel=8, data=[54, 64]),\n",
      "   midi.NoteOnEvent(tick=0, channel=8, data=[52, 100]),\n",
      "   midi.NoteOffEvent(tick=96, channel=8, data=[52, 64]),\n",
      "   midi.NoteOnEvent(tick=0, channel=8, data=[51, 100]),\n",
      "   midi.NoteOffEvent(tick=384, channel=8, data=[51, 64]),\n",
      "   midi.NoteOnEvent(tick=576, channel=8, data=[47, 100]),\n",
      "   midi.NoteOffEvent(tick=192, channel=8, data=[47, 64]),\n",
      "   midi.NoteOnEvent(tick=0, channel=8, data=[59, 100]),\n",
      "   midi.NoteOffEvent(tick=192, channel=8, data=[59, 64]),\n",
      "   midi.NoteOnEvent(tick=0, channel=8, data=[63, 100]),\n",
      "   midi.NoteOffEvent(tick=192, channel=8, data=[63, 64]),\n",
      "   midi.NoteOnEvent(tick=0, channel=8, data=[64, 100]),\n",
      "   midi.NoteOffEvent(tick=192, channel=8, data=[64, 64]),\n",
      "   midi.NoteOnEvent(tick=0, channel=8, data=[52, 100]),\n",
      "   midi.NoteOffEvent(tick=96, channel=8, data=[52, 64]),\n",
      "   midi.NoteOnEvent(tick=0, channel=8, data=[54, 100]),\n",
      "   midi.NoteOffEvent(tick=96, channel=8, data=[54, 64]),\n",
      "   midi.NoteOnEvent(tick=0, channel=8, data=[55, 100]),\n",
      "   midi.NoteOffEvent(tick=192, channel=8, data=[55, 64]),\n",
      "   midi.NoteOnEvent(tick=0, channel=8, data=[54, 100]),\n",
      "   midi.NoteOffEvent(tick=192, channel=8, data=[54, 64]),\n",
      "   midi.NoteOnEvent(tick=0, channel=8, data=[53, 100]),\n",
      "   midi.NoteOffEvent(tick=192, channel=8, data=[53, 64]),\n",
      "   midi.NoteOnEvent(tick=0, channel=8, data=[56, 100]),\n",
      "   midi.NoteOffEvent(tick=192, channel=8, data=[56, 64]),\n",
      "   midi.NoteOnEvent(tick=0, channel=8, data=[53, 100]),\n",
      "   midi.NoteOffEvent(tick=192, channel=8, data=[53, 64]),\n",
      "   midi.NoteOnEvent(tick=0, channel=8, data=[49, 100]),\n",
      "   midi.NoteOffEvent(tick=192, channel=8, data=[49, 64]),\n",
      "   midi.NoteOnEvent(tick=0, channel=8, data=[42, 100]),\n",
      "   midi.NoteOffEvent(tick=192, channel=8, data=[42, 64]),\n",
      "   midi.NoteOnEvent(tick=0, channel=8, data=[54, 100]),\n",
      "   midi.NoteOffEvent(tick=192, channel=8, data=[54, 64]),\n",
      "   midi.NoteOnEvent(tick=0, channel=8, data=[52, 100]),\n",
      "   midi.NoteOffEvent(tick=192, channel=8, data=[52, 64]),\n",
      "   midi.NoteOnEvent(tick=0, channel=8, data=[50, 100]),\n",
      "   midi.NoteOffEvent(tick=192, channel=8, data=[50, 64]),\n",
      "   midi.NoteOnEvent(tick=0, channel=8, data=[49, 100]),\n",
      "   midi.NoteOffEvent(tick=192, channel=8, data=[49, 64]),\n",
      "   midi.NoteOnEvent(tick=0, channel=8, data=[47, 100]),\n",
      "   midi.NoteOffEvent(tick=192, channel=8, data=[47, 64]),\n",
      "   midi.NoteOnEvent(tick=0, channel=8, data=[46, 100]),\n",
      "   midi.NoteOffEvent(tick=192, channel=8, data=[46, 64]),\n",
      "   midi.NoteOnEvent(tick=0, channel=8, data=[44, 100]),\n",
      "   midi.NoteOffEvent(tick=192, channel=8, data=[44, 64]),\n",
      "   midi.NoteOnEvent(tick=0, channel=8, data=[46, 100]),\n",
      "   midi.NoteOffEvent(tick=192, channel=8, data=[46, 64]),\n",
      "   midi.NoteOnEvent(tick=0, channel=8, data=[49, 100]),\n",
      "   midi.NoteOffEvent(tick=192, channel=8, data=[49, 64]),\n",
      "   midi.NoteOnEvent(tick=0, channel=8, data=[46, 100]),\n",
      "   midi.NoteOffEvent(tick=192, channel=8, data=[46, 64]),\n",
      "   midi.NoteOnEvent(tick=0, channel=8, data=[42, 100]),\n",
      "   midi.NoteOffEvent(tick=192, channel=8, data=[42, 64]),\n",
      "   midi.NoteOnEvent(tick=0, channel=8, data=[47, 100]),\n",
      "   midi.NoteOffEvent(tick=192, channel=8, data=[47, 64]),\n",
      "   midi.NoteOnEvent(tick=0, channel=8, data=[59, 100]),\n",
      "   midi.NoteOffEvent(tick=192, channel=8, data=[59, 64]),\n",
      "   midi.NoteOnEvent(tick=0, channel=8, data=[47, 100]),\n",
      "   midi.NoteOffEvent(tick=192, channel=8, data=[47, 64]),\n",
      "   midi.NoteOnEvent(tick=0, channel=8, data=[52, 100]),\n",
      "   midi.NoteOffEvent(tick=192, channel=8, data=[52, 64]),\n",
      "   midi.NoteOnEvent(tick=0, channel=8, data=[59, 100]),\n",
      "   midi.NoteOffEvent(tick=192, channel=8, data=[59, 64]),\n",
      "   midi.NoteOnEvent(tick=0, channel=8, data=[47, 100]),\n",
      "   midi.NoteOffEvent(tick=96, channel=8, data=[47, 64]),\n",
      "   midi.NoteOnEvent(tick=0, channel=8, data=[49, 100]),\n",
      "   midi.NoteOffEvent(tick=96, channel=8, data=[49, 64]),\n",
      "   midi.NoteOnEvent(tick=0, channel=8, data=[50, 100]),\n",
      "   midi.NoteOffEvent(tick=192, channel=8, data=[50, 64]),\n",
      "   midi.NoteOnEvent(tick=0, channel=8, data=[55, 100]),\n",
      "   midi.NoteOffEvent(tick=192, channel=8, data=[55, 64]),\n",
      "   midi.NoteOnEvent(tick=0, channel=8, data=[54, 100]),\n",
      "   midi.NoteOffEvent(tick=192, channel=8, data=[54, 64]),\n",
      "   midi.NoteOnEvent(tick=0, channel=8, data=[52, 100]),\n",
      "   midi.NoteOffEvent(tick=192, channel=8, data=[52, 64]),\n",
      "   midi.NoteOnEvent(tick=0, channel=8, data=[54, 100]),\n",
      "   midi.NoteOffEvent(tick=192, channel=8, data=[54, 64]),\n",
      "   midi.NoteOnEvent(tick=0, channel=8, data=[42, 100]),\n",
      "   midi.NoteOffEvent(tick=192, channel=8, data=[42, 64]),\n",
      "   midi.NoteOnEvent(tick=0, channel=8, data=[47, 100]),\n",
      "   midi.NoteOffEvent(tick=192, channel=8, data=[47, 64]),\n",
      "   midi.NoteOnEvent(tick=0, channel=8, data=[49, 100]),\n",
      "   midi.NoteOffEvent(tick=96, channel=8, data=[49, 64]),\n",
      "   midi.NoteOnEvent(tick=0, channel=8, data=[50, 100]),\n",
      "   midi.NoteOffEvent(tick=96, channel=8, data=[50, 64]),\n",
      "   midi.NoteOnEvent(tick=0, channel=8, data=[52, 100]),\n",
      "   midi.NoteOffEvent(tick=96, channel=8, data=[52, 64]),\n",
      "   midi.NoteOnEvent(tick=0, channel=8, data=[54, 100]),\n",
      "   midi.NoteOffEvent(tick=96, channel=8, data=[54, 64]),\n",
      "   midi.NoteOnEvent(tick=0, channel=8, data=[56, 100]),\n",
      "   midi.NoteOffEvent(tick=96, channel=8, data=[56, 64]),\n",
      "   midi.NoteOnEvent(tick=0, channel=8, data=[58, 100]),\n",
      "   midi.NoteOffEvent(tick=96, channel=8, data=[58, 64]),\n",
      "   midi.NoteOnEvent(tick=0, channel=8, data=[59, 100]),\n",
      "   midi.NoteOffEvent(tick=192, channel=8, data=[59, 64]),\n",
      "   midi.NoteOnEvent(tick=0, channel=8, data=[47, 100]),\n",
      "   midi.NoteOffEvent(tick=192, channel=8, data=[47, 64]),\n",
      "   midi.NoteOnEvent(tick=0, channel=8, data=[45, 100]),\n",
      "   midi.NoteOffEvent(tick=192, channel=8, data=[45, 64]),\n",
      "   midi.NoteOnEvent(tick=0, channel=8, data=[43, 100]),\n",
      "   midi.NoteOffEvent(tick=192, channel=8, data=[43, 64]),\n",
      "   midi.NoteOnEvent(tick=0, channel=8, data=[42, 100]),\n",
      "   midi.NoteOffEvent(tick=192, channel=8, data=[42, 64]),\n",
      "   midi.NoteOnEvent(tick=0, channel=8, data=[45, 100]),\n",
      "   midi.NoteOffEvent(tick=192, channel=8, data=[45, 64]),\n",
      "   midi.NoteOnEvent(tick=0, channel=8, data=[42, 100]),\n",
      "   midi.NoteOffEvent(tick=192, channel=8, data=[42, 64]),\n",
      "   midi.NoteOnEvent(tick=0, channel=8, data=[38, 100]),\n",
      "   midi.NoteOffEvent(tick=192, channel=8, data=[38, 64]),\n",
      "   midi.NoteOnEvent(tick=0, channel=8, data=[47, 100]),\n",
      "   midi.NoteOffEvent(tick=192, channel=8, data=[47, 64]),\n",
      "   midi.NoteOnEvent(tick=0, channel=8, data=[48, 100]),\n",
      "   midi.NoteOffEvent(tick=192, channel=8, data=[48, 64]),\n",
      "   midi.NoteOnEvent(tick=0, channel=8, data=[50, 100]),\n",
      "   midi.NoteOffEvent(tick=192, channel=8, data=[50, 64]),\n",
      "   midi.NoteOnEvent(tick=0, channel=8, data=[38, 100]),\n",
      "   midi.NoteOffEvent(tick=192, channel=8, data=[38, 64]),\n",
      "   midi.NoteOnEvent(tick=0, channel=8, data=[43, 100]),\n",
      "   midi.NoteOffEvent(tick=192, channel=8, data=[43, 64]),\n",
      "   midi.NoteOnEvent(tick=0, channel=8, data=[45, 100]),\n",
      "   midi.NoteOffEvent(tick=192, channel=8, data=[45, 64]),\n",
      "   midi.NoteOnEvent(tick=0, channel=8, data=[47, 100]),\n",
      "   midi.NoteOffEvent(tick=192, channel=8, data=[47, 64]),\n",
      "   midi.NoteOnEvent(tick=0, channel=8, data=[45, 100]),\n",
      "   midi.NoteOffEvent(tick=192, channel=8, data=[45, 64]),\n",
      "   midi.NoteOnEvent(tick=0, channel=8, data=[43, 100]),\n",
      "   midi.NoteOffEvent(tick=192, channel=8, data=[43, 64]),\n",
      "   midi.NoteOnEvent(tick=0, channel=8, data=[55, 100]),\n",
      "   midi.NoteOffEvent(tick=192, channel=8, data=[55, 64]),\n",
      "   midi.NoteOnEvent(tick=0, channel=8, data=[54, 100]),\n",
      "   midi.NoteOffEvent(tick=192, channel=8, data=[54, 64]),\n",
      "   midi.NoteOnEvent(tick=0, channel=8, data=[52, 100]),\n",
      "   midi.NoteOffEvent(tick=192, channel=8, data=[52, 64]),\n",
      "   midi.NoteOnEvent(tick=0, channel=8, data=[51, 100]),\n",
      "   midi.NoteOffEvent(tick=192, channel=8, data=[51, 64]),\n",
      "   midi.NoteOnEvent(tick=0, channel=8, data=[54, 100]),\n",
      "   midi.NoteOffEvent(tick=192, channel=8, data=[54, 64]),\n",
      "   midi.NoteOnEvent(tick=0, channel=8, data=[51, 100]),\n",
      "   midi.NoteOffEvent(tick=192, channel=8, data=[51, 64]),\n",
      "   midi.NoteOnEvent(tick=0, channel=8, data=[47, 100]),\n",
      "   midi.NoteOffEvent(tick=192, channel=8, data=[47, 64]),\n",
      "   midi.NoteOnEvent(tick=0, channel=8, data=[52, 100]),\n",
      "   midi.NoteOffEvent(tick=192, channel=8, data=[52, 64]),\n",
      "   midi.NoteOnEvent(tick=0, channel=8, data=[57, 100]),\n",
      "   midi.NoteOffEvent(tick=192, channel=8, data=[57, 64]),\n",
      "   midi.NoteOnEvent(tick=0, channel=8, data=[59, 100]),\n",
      "   midi.NoteOffEvent(tick=192, channel=8, data=[59, 64]),\n",
      "   midi.NoteOnEvent(tick=0, channel=8, data=[47, 100]),\n",
      "   midi.NoteOffEvent(tick=192, channel=8, data=[47, 64]),\n",
      "   midi.NoteOnEvent(tick=0, channel=8, data=[52, 100]),\n",
      "   midi.NoteOffEvent(tick=96, channel=8, data=[52, 64]),\n",
      "   midi.NoteOnEvent(tick=0, channel=8, data=[54, 100]),\n",
      "   midi.NoteOffEvent(tick=96, channel=8, data=[54, 64]),\n",
      "   midi.NoteOnEvent(tick=0, channel=8, data=[55, 100]),\n",
      "   midi.NoteOffEvent(tick=96, channel=8, data=[55, 64]),\n",
      "   midi.NoteOnEvent(tick=96, channel=8, data=[55, 100]),\n",
      "   midi.NoteOffEvent(tick=96, channel=8, data=[55, 64]),\n",
      "   midi.NoteOnEvent(tick=96, channel=8, data=[52, 100]),\n",
      "   midi.NoteOffEvent(tick=96, channel=8, data=[52, 64]),\n",
      "   midi.NoteOnEvent(tick=96, channel=8, data=[45, 100]),\n",
      "   midi.NoteOffEvent(tick=96, channel=8, data=[45, 64]),\n",
      "   midi.NoteOnEvent(tick=0, channel=8, data=[47, 100]),\n",
      "   midi.NoteOffEvent(tick=96, channel=8, data=[47, 64]),\n",
      "   midi.NoteOnEvent(tick=0, channel=8, data=[49, 100]),\n",
      "   midi.NoteOffEvent(tick=96, channel=8, data=[49, 64]),\n",
      "   midi.NoteOnEvent(tick=96, channel=8, data=[49, 100]),\n",
      "   midi.NoteOffEvent(tick=96, channel=8, data=[49, 64]),\n",
      "   midi.NoteOnEvent(tick=96, channel=8, data=[45, 100]),\n",
      "   midi.NoteOffEvent(tick=96, channel=8, data=[45, 64]),\n",
      "   midi.NoteOnEvent(tick=96, channel=8, data=[50, 100]),\n",
      "   midi.NoteOffEvent(tick=96, channel=8, data=[50, 64]),\n",
      "   midi.NoteOnEvent(tick=0, channel=8, data=[52, 100]),\n",
      "   midi.NoteOffEvent(tick=96, channel=8, data=[52, 64]),\n",
      "   midi.NoteOnEvent(tick=0, channel=8, data=[54, 100]),\n",
      "   midi.NoteOffEvent(tick=96, channel=8, data=[54, 64]),\n",
      "   midi.NoteOnEvent(tick=96, channel=8, data=[54, 100]),\n",
      "   midi.NoteOffEvent(tick=96, channel=8, data=[54, 64]),\n",
      "   midi.NoteOnEvent(tick=96, channel=8, data=[50, 100]),\n",
      "   midi.NoteOffEvent(tick=96, channel=8, data=[50, 64]),\n",
      "   midi.NoteOnEvent(tick=96, channel=8, data=[44, 100]),\n",
      "   midi.NoteOffEvent(tick=96, channel=8, data=[44, 64]),\n",
      "   midi.NoteOnEvent(tick=0, channel=8, data=[45, 100]),\n",
      "   midi.NoteOffEvent(tick=96, channel=8, data=[45, 64]),\n",
      "   midi.NoteOnEvent(tick=0, channel=8, data=[47, 100]),\n",
      "   midi.NoteOffEvent(tick=96, channel=8, data=[47, 64]),\n",
      "   midi.NoteOnEvent(tick=96, channel=8, data=[47, 100]),\n",
      "   midi.NoteOffEvent(tick=96, channel=8, data=[47, 64]),\n",
      "   midi.NoteOnEvent(tick=96, channel=8, data=[44, 100]),\n",
      "   midi.NoteOffEvent(tick=96, channel=8, data=[44, 64]),\n",
      "   midi.NoteOnEvent(tick=96, channel=8, data=[49, 100]),\n",
      "   midi.NoteOffEvent(tick=96, channel=8, data=[49, 64]),\n",
      "   midi.NoteOnEvent(tick=0, channel=8, data=[51, 100]),\n",
      "   midi.NoteOffEvent(tick=96, channel=8, data=[51, 64]),\n",
      "   midi.NoteOnEvent(tick=0, channel=8, data=[53, 100]),\n",
      "   midi.NoteOffEvent(tick=96, channel=8, data=[53, 64]),\n",
      "   midi.NoteOnEvent(tick=96, channel=8, data=[53, 100]),\n",
      "   midi.NoteOffEvent(tick=96, channel=8, data=[53, 64]),\n",
      "   midi.NoteOnEvent(tick=96, channel=8, data=[49, 100]),\n",
      "   midi.NoteOffEvent(tick=96, channel=8, data=[49, 64]),\n",
      "   midi.NoteOnEvent(tick=96, channel=8, data=[42, 100]),\n",
      "   midi.NoteOffEvent(tick=96, channel=8, data=[42, 64]),\n",
      "   midi.NoteOnEvent(tick=0, channel=8, data=[44, 100]),\n",
      "   midi.NoteOffEvent(tick=96, channel=8, data=[44, 64]),\n",
      "   midi.NoteOnEvent(tick=0, channel=8, data=[45, 100]),\n",
      "   midi.NoteOffEvent(tick=96, channel=8, data=[45, 64]),\n",
      "   midi.NoteOnEvent(tick=96, channel=8, data=[45, 100]),\n",
      "   midi.NoteOffEvent(tick=96, channel=8, data=[45, 64]),\n",
      "   midi.NoteOnEvent(tick=96, channel=8, data=[42, 100]),\n",
      "   midi.NoteOffEvent(tick=96, channel=8, data=[42, 64]),\n",
      "   midi.NoteOnEvent(tick=96, channel=8, data=[47, 100]),\n",
      "   midi.NoteOffEvent(tick=96, channel=8, data=[47, 64]),\n",
      "   midi.NoteOnEvent(tick=0, channel=8, data=[49, 100]),\n",
      "   midi.NoteOffEvent(tick=96, channel=8, data=[49, 64]),\n",
      "   midi.NoteOnEvent(tick=0, channel=8, data=[50, 100]),\n",
      "   midi.NoteOffEvent(tick=96, channel=8, data=[50, 64]),\n",
      "   midi.NoteOnEvent(tick=96, channel=8, data=[50, 100]),\n",
      "   midi.NoteOffEvent(tick=96, channel=8, data=[50, 64]),\n",
      "   midi.NoteOnEvent(tick=96, channel=8, data=[47, 100]),\n",
      "   midi.NoteOffEvent(tick=96, channel=8, data=[47, 64]),\n",
      "   midi.NoteOnEvent(tick=96, channel=8, data=[49, 100]),\n",
      "   midi.NoteOffEvent(tick=192, channel=8, data=[49, 64]),\n",
      "   midi.NoteOnEvent(tick=0, channel=8, data=[47, 100]),\n",
      "   midi.NoteOffEvent(tick=192, channel=8, data=[47, 64]),\n",
      "   midi.NoteOnEvent(tick=0, channel=8, data=[45, 100]),\n",
      "   midi.NoteOffEvent(tick=192, channel=8, data=[45, 64]),\n",
      "   midi.NoteOnEvent(tick=0, channel=8, data=[47, 100]),\n",
      "   midi.NoteOffEvent(tick=192, channel=8, data=[47, 64]),\n",
      "   midi.NoteOnEvent(tick=0, channel=8, data=[49, 100]),\n",
      "   midi.NoteOffEvent(tick=384, channel=8, data=[49, 64]),\n",
      "   midi.NoteOnEvent(tick=0, channel=8, data=[37, 100]),\n",
      "   midi.NoteOffEvent(tick=384, channel=8, data=[37, 64]),\n",
      "   midi.NoteOnEvent(tick=0, channel=8, data=[42, 100]),\n",
      "   midi.NoteOffEvent(tick=384, channel=8, data=[42, 64]),\n",
      "   midi.NoteOnEvent(tick=384, channel=8, data=[50, 100]),\n",
      "   midi.NoteOffEvent(tick=192, channel=8, data=[50, 64]),\n",
      "   midi.NoteOnEvent(tick=0, channel=8, data=[62, 100]),\n",
      "   midi.NoteOffEvent(tick=192, channel=8, data=[62, 64]),\n",
      "   midi.NoteOnEvent(tick=0, channel=8, data=[61, 100]),\n",
      "   midi.NoteOffEvent(tick=192, channel=8, data=[61, 64]),\n",
      "   midi.NoteOnEvent(tick=0, channel=8, data=[57, 100]),\n",
      "   midi.NoteOffEvent(tick=192, channel=8, data=[57, 64]),\n",
      "   midi.NoteOnEvent(tick=0, channel=8, data=[62, 100]),\n",
      "   midi.NoteOffEvent(tick=192, channel=8, data=[62, 64]),\n",
      "   midi.NoteOnEvent(tick=0, channel=8, data=[61, 100]),\n",
      "   midi.NoteOffEvent(tick=96, channel=8, data=[61, 64]),\n",
      "   midi.NoteOnEvent(tick=0, channel=8, data=[59, 100]),\n",
      "   midi.NoteOffEvent(tick=96, channel=8, data=[59, 64]),\n",
      "   midi.NoteOnEvent(tick=0, channel=8, data=[57, 100]),\n",
      "   midi.NoteOffEvent(tick=96, channel=8, data=[57, 64]),\n",
      "   midi.NoteOnEvent(tick=0, channel=8, data=[55, 100]),\n",
      "   midi.NoteOffEvent(tick=96, channel=8, data=[55, 64]),\n",
      "   midi.NoteOnEvent(tick=0, channel=8, data=[54, 100]),\n",
      "   midi.NoteOffEvent(tick=96, channel=8, data=[54, 64]),\n",
      "   midi.NoteOnEvent(tick=0, channel=8, data=[52, 100]),\n",
      "   midi.NoteOffEvent(tick=96, channel=8, data=[52, 64]),\n",
      "   midi.NoteOnEvent(tick=0, channel=8, data=[50, 100]),\n",
      "   midi.NoteOffEvent(tick=192, channel=8, data=[50, 64]),\n",
      "   midi.NoteOnEvent(tick=0, channel=8, data=[47, 100]),\n",
      "   midi.NoteOffEvent(tick=192, channel=8, data=[47, 64]),\n",
      "   midi.NoteOnEvent(tick=0, channel=8, data=[43, 100]),\n",
      "   midi.NoteOffEvent(tick=192, channel=8, data=[43, 64]),\n",
      "   midi.NoteOnEvent(tick=0, channel=8, data=[45, 100]),\n",
      "   midi.NoteOffEvent(tick=192, channel=8, data=[45, 64]),\n",
      "   midi.NoteOnEvent(tick=0, channel=8, data=[50, 100]),\n",
      "   midi.NoteOffEvent(tick=192, channel=8, data=[50, 64]),\n",
      "   midi.NoteOnEvent(tick=0, channel=8, data=[38, 100]),\n",
      "   midi.NoteOffEvent(tick=192, channel=8, data=[38, 64]),\n",
      "   midi.NoteOnEvent(tick=0, channel=8, data=[42, 100]),\n",
      "   midi.NoteOffEvent(tick=192, channel=8, data=[42, 64]),\n",
      "   midi.NoteOnEvent(tick=0, channel=8, data=[45, 100]),\n",
      "   midi.NoteOffEvent(tick=192, channel=8, data=[45, 64]),\n",
      "   midi.NoteOnEvent(tick=0, channel=8, data=[50, 100]),\n",
      "   midi.NoteOffEvent(tick=192, channel=8, data=[50, 64]),\n",
      "   midi.NoteOnEvent(tick=0, channel=8, data=[38, 100]),\n",
      "   midi.NoteOffEvent(tick=192, channel=8, data=[38, 64]),\n",
      "   midi.NoteOnEvent(tick=0, channel=8, data=[38, 100]),\n",
      "   midi.NoteOffEvent(tick=192, channel=8, data=[38, 64]),\n",
      "   midi.NoteOnEvent(tick=0, channel=8, data=[50, 100]),\n",
      "   midi.NoteOffEvent(tick=192, channel=8, data=[50, 64]),\n",
      "   midi.NoteOnEvent(tick=0, channel=8, data=[50, 100]),\n",
      "   midi.NoteOffEvent(tick=192, channel=8, data=[50, 64]),\n",
      "   midi.NoteOnEvent(tick=0, channel=8, data=[38, 100]),\n",
      "   midi.NoteOffEvent(tick=192, channel=8, data=[38, 64]),\n",
      "   midi.NoteOnEvent(tick=0, channel=8, data=[38, 100]),\n",
      "   midi.NoteOffEvent(tick=192, channel=8, data=[38, 64]),\n",
      "   midi.NoteOnEvent(tick=0, channel=8, data=[50, 100]),\n",
      "   midi.NoteOffEvent(tick=192, channel=8, data=[50, 64]),\n",
      "   midi.NoteOnEvent(tick=0, channel=8, data=[50, 100]),\n",
      "   midi.NoteOffEvent(tick=192, channel=8, data=[50, 64]),\n",
      "   midi.NoteOnEvent(tick=0, channel=8, data=[38, 100]),\n",
      "   midi.NoteOffEvent(tick=192, channel=8, data=[38, 64]),\n",
      "   midi.NoteOnEvent(tick=0, channel=8, data=[38, 100]),\n",
      "   midi.NoteOffEvent(tick=192, channel=8, data=[38, 64]),\n",
      "   midi.NoteOnEvent(tick=0, channel=8, data=[50, 100]),\n",
      "   midi.NoteOffEvent(tick=192, channel=8, data=[50, 64]),\n",
      "   midi.NoteOnEvent(tick=0, channel=8, data=[43, 100]),\n",
      "   midi.NoteOffEvent(tick=192, channel=8, data=[43, 64]),\n",
      "   midi.NoteOnEvent(tick=0, channel=8, data=[55, 100]),\n",
      "   midi.NoteOffEvent(tick=96, channel=8, data=[55, 64]),\n",
      "   midi.NoteOnEvent(tick=0, channel=8, data=[57, 100]),\n",
      "   midi.NoteOffEvent(tick=96, channel=8, data=[57, 64]),\n",
      "   midi.NoteOnEvent(tick=0, channel=8, data=[55, 100]),\n",
      "   midi.NoteOffEvent(tick=96, channel=8, data=[55, 64]),\n",
      "   midi.NoteOnEvent(tick=0, channel=8, data=[54, 100]),\n",
      "   midi.NoteOffEvent(tick=96, channel=8, data=[54, 64]),\n",
      "   midi.NoteOnEvent(tick=0, channel=8, data=[52, 100]),\n",
      "   midi.NoteOffEvent(tick=96, channel=8, data=[52, 64]),\n",
      "   midi.NoteOnEvent(tick=0, channel=8, data=[50, 100]),\n",
      "   midi.NoteOffEvent(tick=96, channel=8, data=[50, 64]),\n",
      "   midi.NoteOnEvent(tick=0, channel=8, data=[49, 100]),\n",
      "   midi.NoteOffEvent(tick=96, channel=8, data=[49, 64]),\n",
      "   midi.NoteOnEvent(tick=0, channel=8, data=[50, 100]),\n",
      "   midi.NoteOffEvent(tick=96, channel=8, data=[50, 64]),\n",
      "   midi.NoteOnEvent(tick=0, channel=8, data=[52, 100]),\n",
      "   midi.NoteOffEvent(tick=96, channel=8, data=[52, 64]),\n",
      "   midi.NoteOnEvent(tick=0, channel=8, data=[54, 100]),\n",
      "   midi.NoteOffEvent(tick=96, channel=8, data=[54, 64]),\n",
      "   midi.NoteOnEvent(tick=0, channel=8, data=[52, 100]),\n",
      "   midi.NoteOffEvent(tick=96, channel=8, data=[52, 64]),\n",
      "   midi.NoteOnEvent(tick=0, channel=8, data=[50, 100]),\n",
      "   midi.NoteOffEvent(tick=96, channel=8, data=[50, 64]),\n",
      "   midi.NoteOnEvent(tick=0, channel=8, data=[49, 100]),\n",
      "   midi.NoteOffEvent(tick=96, channel=8, data=[49, 64]),\n",
      "   midi.NoteOnEvent(tick=0, channel=8, data=[47, 100]),\n",
      "   midi.NoteOffEvent(tick=96, channel=8, data=[47, 64]),\n",
      "   midi.NoteOnEvent(tick=0, channel=8, data=[45, 100]),\n",
      "   midi.NoteOffEvent(tick=192, channel=8, data=[45, 64]),\n",
      "   midi.NoteOnEvent(tick=0, channel=8, data=[57, 100]),\n",
      "   midi.NoteOffEvent(tick=192, channel=8, data=[57, 64]),\n",
      "   midi.NoteOnEvent(tick=0, channel=8, data=[57, 100]),\n",
      "   midi.NoteOffEvent(tick=192, channel=8, data=[57, 64]),\n",
      "   midi.NoteOnEvent(tick=0, channel=8, data=[55, 100]),\n",
      "   midi.NoteOffEvent(tick=192, channel=8, data=[55, 64]),\n",
      "   midi.NoteOnEvent(tick=0, channel=8, data=[54, 100]),\n",
      "   midi.NoteOffEvent(tick=192, channel=8, data=[54, 64]),\n",
      "   midi.NoteOnEvent(tick=0, channel=8, data=[57, 100]),\n",
      "   midi.NoteOffEvent(tick=192, channel=8, data=[57, 64]),\n",
      "   midi.NoteOnEvent(tick=0, channel=8, data=[55, 100]),\n",
      "   midi.NoteOffEvent(tick=192, channel=8, data=[55, 64]),\n",
      "   midi.NoteOnEvent(tick=0, channel=8, data=[57, 100]),\n",
      "   midi.NoteOffEvent(tick=192, channel=8, data=[57, 64]),\n",
      "   midi.NoteOnEvent(tick=0, channel=8, data=[62, 100]),\n",
      "   midi.NoteOffEvent(tick=192, channel=8, data=[62, 64]),\n",
      "   midi.NoteOnEvent(tick=0, channel=8, data=[61, 100]),\n",
      "   midi.NoteOffEvent(tick=96, channel=8, data=[61, 64]),\n",
      "   midi.NoteOnEvent(tick=0, channel=8, data=[59, 100]),\n",
      "   midi.NoteOffEvent(tick=96, channel=8, data=[59, 64]),\n",
      "   midi.NoteOnEvent(tick=0, channel=8, data=[57, 100]),\n",
      "   midi.NoteOffEvent(tick=96, channel=8, data=[57, 64]),\n",
      "   midi.NoteOnEvent(tick=0, channel=8, data=[55, 100]),\n",
      "   midi.NoteOffEvent(tick=96, channel=8, data=[55, 64]),\n",
      "   midi.NoteOnEvent(tick=0, channel=8, data=[54, 100]),\n",
      "   midi.NoteOffEvent(tick=96, channel=8, data=[54, 64]),\n",
      "   midi.NoteOnEvent(tick=0, channel=8, data=[52, 100]),\n",
      "   midi.NoteOffEvent(tick=96, channel=8, data=[52, 64]),\n",
      "   midi.NoteOnEvent(tick=0, channel=8, data=[50, 100]),\n",
      "   midi.NoteOffEvent(tick=192, channel=8, data=[50, 64]),\n",
      "   midi.NoteOnEvent(tick=0, channel=8, data=[62, 100]),\n",
      "   midi.NoteOffEvent(tick=192, channel=8, data=[62, 64]),\n",
      "   midi.NoteOnEvent(tick=0, channel=8, data=[61, 100]),\n",
      "   midi.NoteOffEvent(tick=192, channel=8, data=[61, 64]),\n",
      "   midi.NoteOnEvent(tick=0, channel=8, data=[57, 100]),\n",
      "   midi.NoteOffEvent(tick=192, channel=8, data=[57, 64]),\n",
      "   midi.NoteOnEvent(tick=0, channel=8, data=[62, 100]),\n",
      "   midi.NoteOffEvent(tick=192, channel=8, data=[62, 64]),\n",
      "   midi.NoteOnEvent(tick=0, channel=8, data=[61, 100]),\n",
      "   midi.NoteOffEvent(tick=96, channel=8, data=[61, 64]),\n",
      "   midi.NoteOnEvent(tick=0, channel=8, data=[59, 100]),\n",
      "   midi.NoteOffEvent(tick=96, channel=8, data=[59, 64]),\n",
      "   midi.NoteOnEvent(tick=0, channel=8, data=[57, 100]),\n",
      "   midi.NoteOffEvent(tick=96, channel=8, data=[57, 64]),\n",
      "   midi.NoteOnEvent(tick=0, channel=8, data=[55, 100]),\n",
      "   midi.NoteOffEvent(tick=96, channel=8, data=[55, 64]),\n",
      "   midi.NoteOnEvent(tick=0, channel=8, data=[54, 100]),\n",
      "   midi.NoteOffEvent(tick=96, channel=8, data=[54, 64]),\n",
      "   midi.NoteOnEvent(tick=0, channel=8, data=[52, 100]),\n",
      "   midi.NoteOffEvent(tick=96, channel=8, data=[52, 64]),\n",
      "   midi.NoteOnEvent(tick=0, channel=8, data=[50, 100]),\n",
      "   midi.NoteOffEvent(tick=192, channel=8, data=[50, 64]),\n",
      "   midi.NoteOnEvent(tick=0, channel=8, data=[47, 100]),\n",
      "   midi.NoteOffEvent(tick=192, channel=8, data=[47, 64]),\n",
      "   midi.NoteOnEvent(tick=0, channel=8, data=[43, 100]),\n",
      "   midi.NoteOffEvent(tick=192, channel=8, data=[43, 64]),\n",
      "   midi.NoteOnEvent(tick=0, channel=8, data=[45, 100]),\n",
      "   midi.NoteOffEvent(tick=192, channel=8, data=[45, 64]),\n",
      "   midi.NoteOnEvent(tick=0, channel=8, data=[38, 100]),\n",
      "   midi.NoteOffEvent(tick=192, channel=8, data=[38, 64]),\n",
      "   midi.NoteOnEvent(tick=0, channel=8, data=[40, 100]),\n",
      "   midi.NoteOffEvent(tick=96, channel=8, data=[40, 64]),\n",
      "   midi.NoteOnEvent(tick=0, channel=8, data=[42, 100]),\n",
      "   midi.NoteOffEvent(tick=96, channel=8, data=[42, 64]),\n",
      "   midi.NoteOnEvent(tick=0, channel=8, data=[43, 100]),\n",
      "   midi.NoteOffEvent(tick=96, channel=8, data=[43, 64]),\n",
      "   midi.NoteOnEvent(tick=0, channel=8, data=[45, 100]),\n",
      "   midi.NoteOffEvent(tick=96, channel=8, data=[45, 64]),\n",
      "   midi.NoteOnEvent(tick=0, channel=8, data=[47, 100]),\n",
      "   midi.NoteOffEvent(tick=96, channel=8, data=[47, 64]),\n",
      "   midi.NoteOnEvent(tick=0, channel=8, data=[49, 100]),\n",
      "   midi.NoteOffEvent(tick=96, channel=8, data=[49, 64]),\n",
      "   midi.NoteOnEvent(tick=0, channel=8, data=[50, 100]),\n",
      "   midi.NoteOffEvent(tick=96, channel=8, data=[50, 64]),\n",
      "   midi.NoteOnEvent(tick=0, channel=8, data=[52, 100]),\n",
      "   midi.NoteOffEvent(tick=96, channel=8, data=[52, 64]),\n",
      "   midi.NoteOnEvent(tick=0, channel=8, data=[54, 100]),\n",
      "   midi.NoteOffEvent(tick=96, channel=8, data=[54, 64]),\n",
      "   midi.NoteOnEvent(tick=96, channel=8, data=[54, 100]),\n",
      "   midi.NoteOffEvent(tick=96, channel=8, data=[54, 64]),\n",
      "   midi.NoteOnEvent(tick=96, channel=8, data=[54, 100]),\n",
      "   midi.NoteOffEvent(tick=96, channel=8, data=[54, 64]),\n",
      "   midi.NoteOnEvent(tick=96, channel=8, data=[47, 100]),\n",
      "   midi.NoteOffEvent(tick=512, channel=8, data=[47, 64]),\n",
      "   midi.NoteOnEvent(tick=64, channel=8, data=[49, 100]),\n",
      "   midi.NoteOffEvent(tick=96, channel=8, data=[49, 64]),\n",
      "   midi.NoteOnEvent(tick=0, channel=8, data=[50, 100]),\n",
      "   midi.NoteOffEvent(tick=96, channel=8, data=[50, 64]),\n",
      "   midi.NoteOnEvent(tick=0, channel=8, data=[52, 100]),\n",
      "   midi.NoteOffEvent(tick=96, channel=8, data=[52, 64]),\n",
      "   midi.NoteOnEvent(tick=0, channel=8, data=[54, 100]),\n",
      "   midi.NoteOffEvent(tick=96, channel=8, data=[54, 64]),\n",
      "   midi.NoteOnEvent(tick=0, channel=8, data=[55, 100]),\n",
      "   midi.NoteOffEvent(tick=96, channel=8, data=[55, 64]),\n",
      "   midi.NoteOnEvent(tick=96, channel=8, data=[55, 100]),\n",
      "   midi.NoteOffEvent(tick=96, channel=8, data=[55, 64]),\n",
      "   midi.NoteOnEvent(tick=96, channel=8, data=[55, 100]),\n",
      "   midi.NoteOffEvent(tick=96, channel=8, data=[55, 64]),\n",
      "   midi.NoteOnEvent(tick=96, channel=8, data=[45, 100]),\n",
      "   midi.NoteOffEvent(tick=192, channel=8, data=[45, 64]),\n",
      "   midi.NoteOnEvent(tick=0, channel=8, data=[57, 100]),\n",
      "   midi.NoteOffEvent(tick=192, channel=8, data=[57, 64]),\n",
      "   midi.NoteOnEvent(tick=0, channel=8, data=[57, 100]),\n",
      "   midi.NoteOffEvent(tick=192, channel=8, data=[57, 64]),\n",
      "   midi.NoteOnEvent(tick=0, channel=8, data=[45, 100]),\n",
      "   midi.NoteOffEvent(tick=192, channel=8, data=[45, 64]),\n",
      "   midi.NoteOnEvent(tick=0, channel=8, data=[45, 100]),\n",
      "   midi.NoteOffEvent(tick=96, channel=8, data=[45, 64]),\n",
      "   midi.NoteOnEvent(tick=0, channel=8, data=[47, 100]),\n",
      "   midi.NoteOffEvent(tick=96, channel=8, data=[47, 64]),\n",
      "   midi.NoteOnEvent(tick=0, channel=8, data=[48, 100]),\n",
      "   midi.NoteOffEvent(tick=96, channel=8, data=[48, 64]),\n",
      "   midi.NoteOnEvent(tick=96, channel=8, data=[48, 100]),\n",
      "   midi.NoteOffEvent(tick=96, channel=8, data=[48, 64]),\n",
      "   midi.NoteOnEvent(tick=96, channel=8, data=[48, 100]),\n",
      "   midi.NoteOffEvent(tick=96, channel=8, data=[48, 64]),\n",
      "   midi.NoteOnEvent(tick=96, channel=8, data=[42, 100]),\n",
      "   midi.NoteOffEvent(tick=480, channel=8, data=[42, 64]),\n",
      "   midi.NoteOnEvent(tick=0, channel=8, data=[43, 100]),\n",
      "   midi.NoteOffEvent(tick=96, channel=8, data=[43, 64]),\n",
      "   midi.NoteOnEvent(tick=0, channel=8, data=[42, 100]),\n",
      "   midi.NoteOffEvent(tick=96, channel=8, data=[42, 64]),\n",
      "   midi.NoteOnEvent(tick=0, channel=8, data=[40, 100]),\n",
      "   midi.NoteOffEvent(tick=96, channel=8, data=[40, 64]),\n",
      "   midi.NoteOnEvent(tick=0, channel=8, data=[42, 100]),\n",
      "   midi.NoteOffEvent(tick=96, channel=8, data=[42, 64]),\n",
      "   midi.NoteOnEvent(tick=0, channel=8, data=[43, 100]),\n",
      "   midi.NoteOffEvent(tick=96, channel=8, data=[43, 64]),\n",
      "   midi.NoteOnEvent(tick=0, channel=8, data=[45, 100]),\n",
      "   midi.NoteOffEvent(tick=96, channel=8, data=[45, 64]),\n",
      "   midi.NoteOnEvent(tick=96, channel=8, data=[45, 100]),\n",
      "   midi.NoteOffEvent(tick=96, channel=8, data=[45, 64]),\n",
      "   midi.NoteOnEvent(tick=96, channel=8, data=[45, 100]),\n",
      "   midi.NoteOffEvent(tick=96, channel=8, data=[45, 64]),\n",
      "   midi.NoteOnEvent(tick=96, channel=8, data=[38, 100]),\n",
      "   midi.NoteOffEvent(tick=512, channel=8, data=[38, 64]),\n",
      "   midi.NoteOnEvent(tick=64, channel=8, data=[40, 100]),\n",
      "   midi.NoteOffEvent(tick=96, channel=8, data=[40, 64]),\n",
      "   midi.NoteOnEvent(tick=0, channel=8, data=[42, 100]),\n",
      "   midi.NoteOffEvent(tick=96, channel=8, data=[42, 64]),\n",
      "   midi.NoteOnEvent(tick=0, channel=8, data=[43, 100]),\n",
      "   midi.NoteOffEvent(tick=192, channel=8, data=[43, 64]),\n",
      "   midi.NoteOnEvent(tick=0, channel=8, data=[55, 100]),\n",
      "   midi.NoteOffEvent(tick=192, channel=8, data=[55, 64]),\n",
      "   midi.NoteOnEvent(tick=0, channel=8, data=[52, 100]),\n",
      "   midi.NoteOffEvent(tick=192, channel=8, data=[52, 64]),\n",
      "   midi.NoteOnEvent(tick=0, channel=8, data=[47, 100]),\n",
      "   midi.NoteOffEvent(tick=192, channel=8, data=[47, 64]),\n",
      "   midi.NoteOnEvent(tick=0, channel=8, data=[49, 100]),\n",
      "   midi.NoteOffEvent(tick=192, channel=8, data=[49, 64]),\n",
      "   midi.NoteOnEvent(tick=0, channel=8, data=[61, 100]),\n",
      "   midi.NoteOffEvent(tick=192, channel=8, data=[61, 64]),\n",
      "   midi.NoteOnEvent(tick=0, channel=8, data=[49, 100]),\n",
      "   midi.NoteOffEvent(tick=192, channel=8, data=[49, 64]),\n",
      "   midi.NoteOnEvent(tick=0, channel=8, data=[52, 100]),\n",
      "   midi.NoteOffEvent(tick=192, channel=8, data=[52, 64]),\n",
      "   midi.NoteOnEvent(tick=0, channel=8, data=[42, 100]),\n",
      "   midi.NoteOffEvent(tick=192, channel=8, data=[42, 64]),\n",
      "   midi.NoteOnEvent(tick=0, channel=8, data=[54, 100]),\n",
      "   midi.NoteOffEvent(tick=192, channel=8, data=[54, 64]),\n",
      "   midi.NoteOnEvent(tick=0, channel=8, data=[50, 100]),\n",
      "   midi.NoteOffEvent(tick=192, channel=8, data=[50, 64]),\n",
      "   midi.NoteOnEvent(tick=0, channel=8, data=[45, 100]),\n",
      "   midi.NoteOffEvent(tick=192, channel=8, data=[45, 64]),\n",
      "   midi.NoteOnEvent(tick=0, channel=8, data=[47, 100]),\n",
      "   midi.NoteOffEvent(tick=192, channel=8, data=[47, 64]),\n",
      "   midi.NoteOnEvent(tick=0, channel=8, data=[59, 100]),\n",
      "   midi.NoteOffEvent(tick=192, channel=8, data=[59, 64]),\n",
      "   midi.NoteOnEvent(tick=0, channel=8, data=[47, 100]),\n",
      "   midi.NoteOffEvent(tick=192, channel=8, data=[47, 64]),\n",
      "   midi.NoteOnEvent(tick=0, channel=8, data=[50, 100]),\n",
      "   midi.NoteOffEvent(tick=192, channel=8, data=[50, 64]),\n",
      "   midi.NoteOnEvent(tick=0, channel=8, data=[40, 100]),\n",
      "   midi.NoteOffEvent(tick=192, channel=8, data=[40, 64]),\n",
      "   midi.NoteOnEvent(tick=0, channel=8, data=[52, 100]),\n",
      "   midi.NoteOffEvent(tick=96, channel=8, data=[52, 64]),\n",
      "   midi.NoteOnEvent(tick=0, channel=8, data=[54, 100]),\n",
      "   midi.NoteOffEvent(tick=96, channel=8, data=[54, 64]),\n",
      "   midi.NoteOnEvent(tick=0, channel=8, data=[52, 100]),\n",
      "   midi.NoteOffEvent(tick=96, channel=8, data=[52, 64]),\n",
      "   midi.NoteOnEvent(tick=0, channel=8, data=[50, 100]),\n",
      "   midi.NoteOffEvent(tick=96, channel=8, data=[50, 64]),\n",
      "   midi.NoteOnEvent(tick=0, channel=8, data=[49, 100]),\n",
      "   midi.NoteOffEvent(tick=96, channel=8, data=[49, 64]),\n",
      "   midi.NoteOnEvent(tick=0, channel=8, data=[47, 100]),\n",
      "   midi.NoteOffEvent(tick=96, channel=8, data=[47, 64]),\n",
      "   midi.NoteOnEvent(tick=0, channel=8, data=[49, 100]),\n",
      "   midi.NoteOffEvent(tick=96, channel=8, data=[49, 64]),\n",
      "   midi.NoteOnEvent(tick=0, channel=8, data=[50, 100]),\n",
      "   midi.NoteOffEvent(tick=96, channel=8, data=[50, 64]),\n",
      "   midi.NoteOnEvent(tick=0, channel=8, data=[52, 100]),\n",
      "   midi.NoteOffEvent(tick=96, channel=8, data=[52, 64]),\n",
      "   midi.NoteOnEvent(tick=0, channel=8, data=[50, 100]),\n",
      "   midi.NoteOffEvent(tick=96, channel=8, data=[50, 64]),\n",
      "   midi.NoteOnEvent(tick=0, channel=8, data=[49, 100]),\n",
      "   midi.NoteOffEvent(tick=192, channel=8, data=[49, 64]),\n",
      "   midi.NoteOnEvent(tick=0, channel=8, data=[45, 100]),\n",
      "   midi.NoteOffEvent(tick=192, channel=8, data=[45, 64]),\n",
      "   midi.NoteOnEvent(tick=0, channel=8, data=[50, 100]),\n",
      "   midi.NoteOffEvent(tick=192, channel=8, data=[50, 64]),\n",
      "   midi.NoteOnEvent(tick=0, channel=8, data=[54, 100]),\n",
      "   midi.NoteOffEvent(tick=192, channel=8, data=[54, 64]),\n",
      "   midi.NoteOnEvent(tick=0, channel=8, data=[57, 100]),\n",
      "   midi.NoteOffEvent(tick=192, channel=8, data=[57, 64]),\n",
      "   midi.NoteOnEvent(tick=0, channel=8, data=[45, 100]),\n",
      "   midi.NoteOffEvent(tick=192, channel=8, data=[45, 64]),\n",
      "   midi.NoteOnEvent(tick=0, channel=8, data=[50, 100]),\n",
      "   midi.NoteOffEvent(tick=192, channel=8, data=[50, 64]),\n",
      "   midi.NoteOnEvent(tick=0, channel=8, data=[45, 100]),\n",
      "   midi.NoteOffEvent(tick=192, channel=8, data=[45, 64]),\n",
      "   midi.NoteOnEvent(tick=0, channel=8, data=[42, 100]),\n",
      "   midi.NoteOffEvent(tick=192, channel=8, data=[42, 64]),\n",
      "   midi.NoteOnEvent(tick=0, channel=8, data=[38, 100]),\n",
      "   midi.NoteOffEvent(tick=192, channel=8, data=[38, 64]),\n",
      "   midi.NoteOnEvent(tick=0, channel=8, data=[57, 100]),\n",
      "   midi.NoteOffEvent(tick=192, channel=8, data=[57, 64]),\n",
      "   midi.NoteOnEvent(tick=0, channel=8, data=[45, 100]),\n",
      "   midi.NoteOffEvent(tick=192, channel=8, data=[45, 64]),\n",
      "   midi.NoteOnEvent(tick=0, channel=8, data=[49, 100]),\n",
      "   midi.NoteOffEvent(tick=192, channel=8, data=[49, 64]),\n",
      "   midi.NoteOnEvent(tick=0, channel=8, data=[52, 100]),\n",
      "   midi.NoteOffEvent(tick=192, channel=8, data=[52, 64]),\n",
      "   midi.NoteOnEvent(tick=0, channel=8, data=[57, 100]),\n",
      "   midi.NoteOffEvent(tick=192, channel=8, data=[57, 64]),\n",
      "   midi.NoteOnEvent(tick=0, channel=8, data=[45, 100]),\n",
      "   midi.NoteOffEvent(tick=192, channel=8, data=[45, 64]),\n",
      "   midi.NoteOnEvent(tick=0, channel=8, data=[57, 100]),\n",
      "   midi.NoteOffEvent(tick=192, channel=8, data=[57, 64]),\n",
      "   midi.NoteOnEvent(tick=0, channel=8, data=[55, 100]),\n",
      "   midi.NoteOffEvent(tick=192, channel=8, data=[55, 64]),\n",
      "   midi.NoteOnEvent(tick=0, channel=8, data=[54, 100]),\n",
      "   midi.NoteOffEvent(tick=192, channel=8, data=[54, 64]),\n",
      "   midi.NoteOnEvent(tick=0, channel=8, data=[59, 100]),\n",
      "   midi.NoteOffEvent(tick=192, channel=8, data=[59, 64]),\n",
      "   midi.NoteOnEvent(tick=0, channel=8, data=[55, 100]),\n",
      "   midi.NoteOffEvent(tick=192, channel=8, data=[55, 64]),\n",
      "   midi.NoteOnEvent(tick=0, channel=8, data=[57, 100]),\n",
      "   midi.NoteOffEvent(tick=192, channel=8, data=[57, 64]),\n",
      "   midi.NoteOnEvent(tick=0, channel=8, data=[50, 100]),\n",
      "   midi.NoteOffEvent(tick=192, channel=8, data=[50, 64]),\n",
      "   midi.NoteOnEvent(tick=0, channel=8, data=[52, 100]),\n",
      "   midi.NoteOffEvent(tick=192, channel=8, data=[52, 64]),\n",
      "   midi.NoteOnEvent(tick=0, channel=8, data=[54, 100]),\n",
      "   midi.NoteOffEvent(tick=192, channel=8, data=[54, 64]),\n",
      "   midi.NoteOnEvent(tick=0, channel=8, data=[52, 100]),\n",
      "   midi.NoteOffEvent(tick=192, channel=8, data=[52, 64]),\n",
      "   midi.NoteOnEvent(tick=0, channel=8, data=[50, 100]),\n",
      "   midi.NoteOffEvent(tick=192, channel=8, data=[50, 64]),\n",
      "   midi.NoteOnEvent(tick=0, channel=8, data=[38, 100]),\n",
      "   midi.NoteOffEvent(tick=192, channel=8, data=[38, 64]),\n",
      "   midi.NoteOnEvent(tick=0, channel=8, data=[42, 100]),\n",
      "   midi.NoteOffEvent(tick=192, channel=8, data=[42, 64]),\n",
      "   midi.NoteOnEvent(tick=0, channel=8, data=[45, 100]),\n",
      "   midi.NoteOffEvent(tick=192, channel=8, data=[45, 64]),\n",
      "   midi.NoteOnEvent(tick=0, channel=8, data=[50, 100]),\n",
      "   midi.NoteOffEvent(tick=192, channel=8, data=[50, 64]),\n",
      "   midi.NoteOnEvent(tick=0, channel=8, data=[38, 100]),\n",
      "   midi.NoteOffEvent(tick=192, channel=8, data=[38, 64]),\n",
      "   midi.NoteOnEvent(tick=0, channel=8, data=[50, 100]),\n",
      "   midi.NoteOffEvent(tick=192, channel=8, data=[50, 64]),\n",
      "   midi.NoteOnEvent(tick=0, channel=8, data=[48, 100]),\n",
      "   midi.NoteOffEvent(tick=192, channel=8, data=[48, 64]),\n",
      "   midi.NoteOnEvent(tick=0, channel=8, data=[47, 100]),\n",
      "   midi.NoteOffEvent(tick=192, channel=8, data=[47, 64]),\n",
      "   midi.NoteOnEvent(tick=0, channel=8, data=[52, 100]),\n",
      "   midi.NoteOffEvent(tick=192, channel=8, data=[52, 64]),\n",
      "   midi.NoteOnEvent(tick=0, channel=8, data=[48, 100]),\n",
      "   midi.NoteOffEvent(tick=192, channel=8, data=[48, 64]),\n",
      "   midi.NoteOnEvent(tick=0, channel=8, data=[50, 100]),\n",
      "   midi.NoteOffEvent(tick=192, channel=8, data=[50, 64]),\n",
      "   midi.NoteOnEvent(tick=0, channel=8, data=[43, 100]),\n",
      "   midi.NoteOffEvent(tick=192, channel=8, data=[43, 64]),\n",
      "   midi.NoteOnEvent(tick=0, channel=8, data=[45, 100]),\n",
      "   midi.NoteOffEvent(tick=192, channel=8, data=[45, 64]),\n",
      "   midi.NoteOnEvent(tick=0, channel=8, data=[47, 100]),\n",
      "   midi.NoteOffEvent(tick=192, channel=8, data=[47, 64]),\n",
      "   midi.NoteOnEvent(tick=0, channel=8, data=[45, 100]),\n",
      "   midi.NoteOffEvent(tick=192, channel=8, data=[45, 64]),\n",
      "   midi.NoteOnEvent(tick=0, channel=8, data=[44, 100]),\n",
      "   midi.NoteOffEvent(tick=192, channel=8, data=[44, 64]),\n",
      "   midi.NoteOnEvent(tick=0, channel=8, data=[42, 100]),\n",
      "   midi.NoteOffEvent(tick=192, channel=8, data=[42, 64]),\n",
      "   midi.NoteOnEvent(tick=0, channel=8, data=[44, 100]),\n",
      "   midi.NoteOffEvent(tick=192, channel=8, data=[44, 64]),\n",
      "   midi.NoteOnEvent(tick=0, channel=8, data=[40, 100]),\n",
      "   midi.NoteOffEvent(tick=192, channel=8, data=[40, 64]),\n",
      "   midi.NoteOnEvent(tick=0, channel=8, data=[45, 100]),\n",
      "   midi.NoteOffEvent(tick=192, channel=8, data=[45, 64]),\n",
      "   midi.NoteOnEvent(tick=0, channel=8, data=[57, 100]),\n",
      "   midi.NoteOffEvent(tick=192, channel=8, data=[57, 64]),\n",
      "   midi.NoteOnEvent(tick=0, channel=8, data=[55, 100]),\n",
      "   midi.NoteOffEvent(tick=192, channel=8, data=[55, 64]),\n",
      "   midi.NoteOnEvent(tick=0, channel=8, data=[54, 100]),\n",
      "   midi.NoteOffEvent(tick=192, channel=8, data=[54, 64]),\n",
      "   midi.NoteOnEvent(tick=0, channel=8, data=[52, 100]),\n",
      "   midi.NoteOffEvent(tick=192, channel=8, data=[52, 64]),\n",
      "   midi.NoteOnEvent(tick=0, channel=8, data=[50, 100]),\n",
      "   midi.NoteOffEvent(tick=192, channel=8, data=[50, 64]),\n",
      "   midi.NoteOnEvent(tick=0, channel=8, data=[49, 100]),\n",
      "   midi.NoteOffEvent(tick=192, channel=8, data=[49, 64]),\n",
      "   midi.NoteOnEvent(tick=0, channel=8, data=[47, 100]),\n",
      "   midi.NoteOffEvent(tick=192, channel=8, data=[47, 64]),\n",
      "   midi.NoteOnEvent(tick=0, channel=8, data=[49, 100]),\n",
      "   midi.NoteOffEvent(tick=192, channel=8, data=[49, 64]),\n",
      "   midi.NoteOnEvent(tick=0, channel=8, data=[52, 100]),\n",
      "   midi.NoteOffEvent(tick=192, channel=8, data=[52, 64]),\n",
      "   midi.NoteOnEvent(tick=0, channel=8, data=[49, 100]),\n",
      "   midi.NoteOffEvent(tick=192, channel=8, data=[49, 64]),\n",
      "   midi.NoteOnEvent(tick=0, channel=8, data=[45, 100]),\n",
      "   midi.NoteOffEvent(tick=192, channel=8, data=[45, 64]),\n",
      "   midi.NoteOnEvent(tick=0, channel=8, data=[50, 100]),\n",
      "   midi.NoteOffEvent(tick=192, channel=8, data=[50, 64]),\n",
      "   midi.NoteOnEvent(tick=0, channel=8, data=[38, 100]),\n",
      "   midi.NoteOffEvent(tick=192, channel=8, data=[38, 64]),\n",
      "   midi.NoteOnEvent(tick=0, channel=8, data=[50, 100]),\n",
      "   midi.NoteOffEvent(tick=192, channel=8, data=[50, 64]),\n",
      "   midi.NoteOnEvent(tick=0, channel=8, data=[43, 100]),\n",
      "   midi.NoteOffEvent(tick=192, channel=8, data=[43, 64]),\n",
      "   midi.NoteOnEvent(tick=0, channel=8, data=[50, 100]),\n",
      "   midi.NoteOffEvent(tick=192, channel=8, data=[50, 64]),\n",
      "   midi.NoteOnEvent(tick=0, channel=8, data=[38, 100]),\n",
      "   midi.NoteOffEvent(tick=192, channel=8, data=[38, 64]),\n",
      "   midi.NoteOnEvent(tick=0, channel=8, data=[42, 100]),\n",
      "   midi.NoteOffEvent(tick=192, channel=8, data=[42, 64]),\n",
      "   midi.NoteOnEvent(tick=0, channel=8, data=[47, 100]),\n",
      "   midi.NoteOffEvent(tick=192, channel=8, data=[47, 64]),\n",
      "   midi.NoteOnEvent(tick=0, channel=8, data=[43, 100]),\n",
      "   midi.NoteOffEvent(tick=384, channel=8, data=[43, 64]),\n",
      "   midi.NoteOnEvent(tick=0, channel=8, data=[45, 100]),\n",
      "   midi.NoteOffEvent(tick=384, channel=8, data=[45, 64]),\n",
      "   midi.NoteOnEvent(tick=0, channel=8, data=[50, 100]),\n",
      "   midi.NoteOffEvent(tick=192, channel=8, data=[50, 64]),\n",
      "   midi.NoteOnEvent(tick=0, channel=8, data=[49, 100]),\n",
      "   midi.NoteOffEvent(tick=96, channel=8, data=[49, 64]),\n",
      "   midi.NoteOnEvent(tick=0, channel=8, data=[47, 100]),\n",
      "   midi.NoteOffEvent(tick=96, channel=8, data=[47, 64]),\n",
      "   midi.NoteOnEvent(tick=0, channel=8, data=[45, 100]),\n",
      "   midi.NoteOffEvent(tick=96, channel=8, data=[45, 64]),\n",
      "   midi.NoteOnEvent(tick=0, channel=8, data=[43, 100]),\n",
      "   midi.NoteOffEvent(tick=96, channel=8, data=[43, 64]),\n",
      "   midi.NoteOnEvent(tick=0, channel=8, data=[42, 100]),\n",
      "   midi.NoteOffEvent(tick=96, channel=8, data=[42, 64]),\n",
      "   midi.NoteOnEvent(tick=0, channel=8, data=[40, 100]),\n",
      "   midi.NoteOffEvent(tick=96, channel=8, data=[40, 64]),\n",
      "   midi.NoteOnEvent(tick=0, channel=8, data=[38, 100]),\n",
      "   midi.NoteOffEvent(tick=192, channel=8, data=[38, 64]),\n",
      "   midi.NoteOnEvent(tick=0, channel=8, data=[62, 100]),\n",
      "   midi.NoteOffEvent(tick=192, channel=8, data=[62, 64]),\n",
      "   midi.NoteOnEvent(tick=0, channel=8, data=[61, 100]),\n",
      "   midi.NoteOffEvent(tick=192, channel=8, data=[61, 64]),\n",
      "   midi.NoteOnEvent(tick=0, channel=8, data=[59, 100]),\n",
      "   midi.NoteOffEvent(tick=192, channel=8, data=[59, 64]),\n",
      "   midi.NoteOnEvent(tick=0, channel=8, data=[62, 100]),\n",
      "   midi.NoteOffEvent(tick=192, channel=8, data=[62, 64]),\n",
      "   midi.NoteOnEvent(tick=0, channel=8, data=[61, 100]),\n",
      "   midi.NoteOffEvent(tick=96, channel=8, data=[61, 64]),\n",
      "   midi.NoteOnEvent(tick=0, channel=8, data=[59, 100]),\n",
      "   midi.NoteOffEvent(tick=96, channel=8, data=[59, 64]),\n",
      "   midi.NoteOnEvent(tick=0, channel=8, data=[57, 100]),\n",
      "   midi.NoteOffEvent(tick=96, channel=8, data=[57, 64]),\n",
      "   midi.NoteOnEvent(tick=0, channel=8, data=[55, 100]),\n",
      "   midi.NoteOffEvent(tick=96, channel=8, data=[55, 64]),\n",
      "   midi.NoteOnEvent(tick=0, channel=8, data=[54, 100]),\n",
      "   midi.NoteOffEvent(tick=96, channel=8, data=[54, 64]),\n",
      "   midi.NoteOnEvent(tick=0, channel=8, data=[52, 100]),\n",
      "   midi.NoteOffEvent(tick=96, channel=8, data=[52, 64]),\n",
      "   midi.NoteOnEvent(tick=0, channel=8, data=[50, 100]),\n",
      "   midi.NoteOffEvent(tick=192, channel=8, data=[50, 64]),\n",
      "   midi.NoteOnEvent(tick=0, channel=8, data=[47, 100]),\n",
      "   midi.NoteOffEvent(tick=192, channel=8, data=[47, 64]),\n",
      "   midi.NoteOnEvent(tick=0, channel=8, data=[43, 100]),\n",
      "   midi.NoteOffEvent(tick=192, channel=8, data=[43, 64]),\n",
      "   midi.NoteOnEvent(tick=0, channel=8, data=[45, 100]),\n",
      "   midi.NoteOffEvent(tick=192, channel=8, data=[45, 64]),\n",
      "   midi.NoteOnEvent(tick=0, channel=8, data=[38, 100]),\n",
      "   midi.NoteOffEvent(tick=192, channel=8, data=[38, 64]),\n",
      "   midi.NoteOnEvent(tick=0, channel=8, data=[40, 100]),\n",
      "   midi.NoteOffEvent(tick=96, channel=8, data=[40, 64]),\n",
      "   midi.NoteOnEvent(tick=0, channel=8, data=[42, 100]),\n",
      "   midi.NoteOffEvent(tick=96, channel=8, data=[42, 64]),\n",
      "   midi.NoteOnEvent(tick=0, channel=8, data=[43, 100]),\n",
      "   midi.NoteOffEvent(tick=96, channel=8, data=[43, 64]),\n",
      "   midi.NoteOnEvent(tick=0, channel=8, data=[45, 100]),\n",
      "   midi.NoteOffEvent(tick=96, channel=8, data=[45, 64]),\n",
      "   midi.NoteOnEvent(tick=0, channel=8, data=[47, 100]),\n",
      "   midi.NoteOffEvent(tick=96, channel=8, data=[47, 64]),\n",
      "   midi.NoteOnEvent(tick=0, channel=8, data=[49, 100]),\n",
      "   midi.NoteOffEvent(tick=96, channel=8, data=[49, 64]),\n",
      "   midi.NoteOnEvent(tick=0, channel=8, data=[50, 100]),\n",
      "   midi.NoteOffEvent(tick=192, channel=8, data=[50, 64]),\n",
      "   midi.NoteOnEvent(tick=0, channel=8, data=[62, 100]),\n",
      "   midi.NoteOffEvent(tick=192, channel=8, data=[62, 64]),\n",
      "   midi.NoteOnEvent(tick=0, channel=8, data=[61, 100]),\n",
      "   midi.NoteOffEvent(tick=192, channel=8, data=[61, 64]),\n",
      "   midi.NoteOnEvent(tick=0, channel=8, data=[57, 100]),\n",
      "   midi.NoteOffEvent(tick=192, channel=8, data=[57, 64]),\n",
      "   midi.NoteOnEvent(tick=0, channel=8, data=[62, 100]),\n",
      "   midi.NoteOffEvent(tick=192, channel=8, data=[62, 64]),\n",
      "   midi.NoteOnEvent(tick=0, channel=8, data=[61, 100]),\n",
      "   midi.NoteOffEvent(tick=96, channel=8, data=[61, 64]),\n",
      "   midi.NoteOnEvent(tick=0, channel=8, data=[59, 100]),\n",
      "   midi.NoteOffEvent(tick=96, channel=8, data=[59, 64]),\n",
      "   midi.NoteOnEvent(tick=0, channel=8, data=[57, 100]),\n",
      "   midi.NoteOffEvent(tick=96, channel=8, data=[57, 64]),\n",
      "   midi.NoteOnEvent(tick=0, channel=8, data=[55, 100]),\n",
      "   midi.NoteOffEvent(tick=96, channel=8, data=[55, 64]),\n",
      "   midi.NoteOnEvent(tick=0, channel=8, data=[54, 100]),\n",
      "   midi.NoteOffEvent(tick=96, channel=8, data=[54, 64]),\n",
      "   midi.NoteOnEvent(tick=0, channel=8, data=[52, 100]),\n",
      "   midi.NoteOffEvent(tick=96, channel=8, data=[52, 64]),\n",
      "   midi.NoteOnEvent(tick=0, channel=8, data=[50, 100]),\n",
      "   midi.NoteOffEvent(tick=192, channel=8, data=[50, 64]),\n",
      "   midi.NoteOnEvent(tick=0, channel=8, data=[47, 100]),\n",
      "   midi.NoteOffEvent(tick=192, channel=8, data=[47, 64]),\n",
      "   midi.NoteOnEvent(tick=0, channel=8, data=[43, 100]),\n",
      "   midi.NoteOffEvent(tick=192, channel=8, data=[43, 64]),\n",
      "   midi.NoteOnEvent(tick=0, channel=8, data=[45, 100]),\n",
      "   midi.NoteOffEvent(tick=192, channel=8, data=[45, 64]),\n",
      "   midi.NoteOnEvent(tick=0, channel=8, data=[38, 100]),\n",
      "   midi.NoteOffEvent(tick=192, channel=8, data=[38, 64]),\n",
      "   midi.NoteOnEvent(tick=0, channel=8, data=[40, 100]),\n",
      "   midi.NoteOffEvent(tick=96, channel=8, data=[40, 64]),\n",
      "   midi.NoteOnEvent(tick=0, channel=8, data=[42, 100]),\n",
      "   midi.NoteOffEvent(tick=96, channel=8, data=[42, 64]),\n",
      "   midi.NoteOnEvent(tick=0, channel=8, data=[43, 100]),\n",
      "   midi.NoteOffEvent(tick=96, channel=8, data=[43, 64]),\n",
      "   midi.NoteOnEvent(tick=0, channel=8, data=[45, 100]),\n",
      "   midi.NoteOffEvent(tick=96, channel=8, data=[45, 64]),\n",
      "   midi.NoteOnEvent(tick=0, channel=8, data=[47, 100]),\n",
      "   midi.NoteOffEvent(tick=96, channel=8, data=[47, 64]),\n",
      "   midi.NoteOnEvent(tick=0, channel=8, data=[49, 100]),\n",
      "   midi.NoteOffEvent(tick=96, channel=8, data=[49, 64]),\n",
      "   midi.NoteOnEvent(tick=0, channel=8, data=[50, 100]),\n",
      "   midi.NoteOffEvent(tick=192, channel=8, data=[50, 64]),\n",
      "   midi.NoteOnEvent(tick=0, channel=8, data=[62, 100]),\n",
      "   midi.NoteOffEvent(tick=192, channel=8, data=[62, 64]),\n",
      "   midi.NoteOnEvent(tick=0, channel=8, data=[59, 100]),\n",
      "   midi.NoteOffEvent(tick=192, channel=8, data=[59, 64]),\n",
      "   midi.NoteOnEvent(tick=0, channel=8, data=[54, 100]),\n",
      "   midi.NoteOffEvent(tick=192, channel=8, data=[54, 64]),\n",
      "   midi.NoteOnEvent(tick=0, channel=8, data=[56, 100]),\n",
      "   midi.NoteOffEvent(tick=192, channel=8, data=[56, 64]),\n",
      "   midi.NoteOnEvent(tick=0, channel=8, data=[52, 100]),\n",
      "   midi.NoteOffEvent(tick=192, channel=8, data=[52, 64]),\n",
      "   midi.NoteOnEvent(tick=0, channel=8, data=[56, 100]),\n",
      "   midi.NoteOffEvent(tick=192, channel=8, data=[56, 64]),\n",
      "   midi.NoteOnEvent(tick=0, channel=8, data=[59, 100]),\n",
      "   midi.NoteOffEvent(tick=192, channel=8, data=[59, 64]),\n",
      "   midi.NoteOnEvent(tick=0, channel=8, data=[49, 100]),\n",
      "   midi.NoteOffEvent(tick=192, channel=8, data=[49, 64]),\n",
      "   midi.NoteOnEvent(tick=0, channel=8, data=[61, 100]),\n",
      "   midi.NoteOffEvent(tick=192, channel=8, data=[61, 64]),\n",
      "   midi.NoteOnEvent(tick=0, channel=8, data=[57, 100]),\n",
      "   midi.NoteOffEvent(tick=192, channel=8, data=[57, 64]),\n",
      "   midi.NoteOnEvent(tick=0, channel=8, data=[52, 100]),\n",
      "   midi.NoteOffEvent(tick=192, channel=8, data=[52, 64]),\n",
      "   midi.NoteOnEvent(tick=0, channel=8, data=[54, 100]),\n",
      "   midi.NoteOffEvent(tick=192, channel=8, data=[54, 64]),\n",
      "   midi.NoteOnEvent(tick=0, channel=8, data=[42, 100]),\n",
      "   midi.NoteOffEvent(tick=192, channel=8, data=[42, 64]),\n",
      "   midi.NoteOnEvent(tick=0, channel=8, data=[54, 100]),\n",
      "   midi.NoteOffEvent(tick=192, channel=8, data=[54, 64]),\n",
      "   midi.NoteOnEvent(tick=0, channel=8, data=[57, 100]),\n",
      "   midi.NoteOffEvent(tick=192, channel=8, data=[57, 64]),\n",
      "   midi.NoteOnEvent(tick=0, channel=8, data=[47, 100]),\n",
      "   midi.NoteOffEvent(tick=192, channel=8, data=[47, 64]),\n",
      "   midi.NoteOnEvent(tick=0, channel=8, data=[59, 100]),\n",
      "   midi.NoteOffEvent(tick=96, channel=8, data=[59, 64]),\n",
      "   midi.NoteOnEvent(tick=0, channel=8, data=[61, 100]),\n",
      "   midi.NoteOffEvent(tick=96, channel=8, data=[61, 64]),\n",
      "   midi.NoteOnEvent(tick=0, channel=8, data=[59, 100]),\n",
      "   midi.NoteOffEvent(tick=96, channel=8, data=[59, 64]),\n",
      "   midi.NoteOnEvent(tick=0, channel=8, data=[57, 100]),\n",
      "   midi.NoteOffEvent(tick=96, channel=8, data=[57, 64]),\n",
      "   midi.NoteOnEvent(tick=0, channel=8, data=[56, 100]),\n",
      "   midi.NoteOffEvent(tick=96, channel=8, data=[56, 64]),\n",
      "   midi.NoteOnEvent(tick=0, channel=8, data=[54, 100]),\n",
      "   midi.NoteOffEvent(tick=96, channel=8, data=[54, 64]),\n",
      "   midi.NoteOnEvent(tick=0, channel=8, data=[56, 100]),\n",
      "   midi.NoteOffEvent(tick=96, channel=8, data=[56, 64]),\n",
      "   midi.NoteOnEvent(tick=0, channel=8, data=[57, 100]),\n",
      "   midi.NoteOffEvent(tick=96, channel=8, data=[57, 64]),\n",
      "   midi.NoteOnEvent(tick=0, channel=8, data=[59, 100]),\n",
      "   midi.NoteOffEvent(tick=96, channel=8, data=[59, 64]),\n",
      "   midi.NoteOnEvent(tick=0, channel=8, data=[57, 100]),\n",
      "   midi.NoteOffEvent(tick=96, channel=8, data=[57, 64]),\n",
      "   midi.NoteOnEvent(tick=0, channel=8, data=[56, 100]),\n",
      "   midi.NoteOffEvent(tick=192, channel=8, data=[56, 64]),\n",
      "   midi.NoteOnEvent(tick=0, channel=8, data=[52, 100]),\n",
      "   midi.NoteOffEvent(tick=192, channel=8, data=[52, 64]),\n",
      "   midi.NoteOnEvent(tick=0, channel=8, data=[57, 100]),\n",
      "   midi.NoteOffEvent(tick=192, channel=8, data=[57, 64]),\n",
      "   midi.NoteOnEvent(tick=0, channel=8, data=[61, 100]),\n",
      "   midi.NoteOffEvent(tick=192, channel=8, data=[61, 64]),\n",
      "   midi.NoteOnEvent(tick=0, channel=8, data=[64, 100]),\n",
      "   midi.NoteOffEvent(tick=192, channel=8, data=[64, 64]),\n",
      "   midi.NoteOnEvent(tick=0, channel=8, data=[52, 100]),\n",
      "   midi.NoteOffEvent(tick=192, channel=8, data=[52, 64]),\n",
      "   midi.NoteOnEvent(tick=0, channel=8, data=[57, 100]),\n",
      "   midi.NoteOffEvent(tick=768, channel=8, data=[57, 64]),\n",
      "   midi.EndOfTrackEvent(tick=0, data=[])]),\n",
      " midi.Track(\\\n",
      "  [midi.ControlChangeEvent(tick=0, channel=5, data=[0, 0]),\n",
      "   midi.ProgramChangeEvent(tick=0, channel=5, data=[65]),\n",
      "   midi.ControlChangeEvent(tick=0, channel=5, data=[7, 127]),\n",
      "   midi.ControlChangeEvent(tick=0, channel=5, data=[10, 62]),\n",
      "   midi.ControlChangeEvent(tick=0, channel=5, data=[91, 127]),\n",
      "   midi.ControlChangeEvent(tick=0, channel=5, data=[93, 127]),\n",
      "   midi.KeySignatureEvent(tick=0, data=[0, 0]),\n",
      "   midi.EndOfTrackEvent(tick=0, data=[])]),\n",
      " midi.Track(\\\n",
      "  [midi.ControlChangeEvent(tick=0, channel=6, data=[0, 0]),\n",
      "   midi.ProgramChangeEvent(tick=0, channel=6, data=[66]),\n",
      "   midi.ControlChangeEvent(tick=0, channel=6, data=[7, 127]),\n",
      "   midi.ControlChangeEvent(tick=0, channel=6, data=[10, 64]),\n",
      "   midi.ControlChangeEvent(tick=0, channel=6, data=[91, 127]),\n",
      "   midi.KeySignatureEvent(tick=0, data=[0, 0]),\n",
      "   midi.EndOfTrackEvent(tick=0, data=[])]),\n",
      " midi.Track(\\\n",
      "  [midi.ControlChangeEvent(tick=0, channel=7, data=[0, 0]),\n",
      "   midi.ProgramChangeEvent(tick=0, channel=7, data=[67]),\n",
      "   midi.ControlChangeEvent(tick=0, channel=7, data=[7, 127]),\n",
      "   midi.ControlChangeEvent(tick=0, channel=7, data=[10, 62]),\n",
      "   midi.ControlChangeEvent(tick=0, channel=7, data=[91, 127]),\n",
      "   midi.KeySignatureEvent(tick=0, data=[0, 0]),\n",
      "   midi.EndOfTrackEvent(tick=0, data=[])]),\n",
      " midi.Track(\\\n",
      "  [midi.ControlChangeEvent(tick=0, channel=8, data=[0, 0]),\n",
      "   midi.ProgramChangeEvent(tick=0, channel=8, data=[19]),\n",
      "   midi.ControlChangeEvent(tick=0, channel=8, data=[7, 110]),\n",
      "   midi.ControlChangeEvent(tick=0, channel=8, data=[10, 63]),\n",
      "   midi.ControlChangeEvent(tick=0, channel=8, data=[91, 127]),\n",
      "   midi.ControlChangeEvent(tick=0, channel=8, data=[93, 127]),\n",
      "   midi.KeySignatureEvent(tick=0, data=[0, 0]),\n",
      "   midi.EndOfTrackEvent(tick=0, data=[])])])\n",
      "recon\n"
     ]
    },
    {
     "name": "stdout",
     "output_type": "stream",
     "text": [
      "midi.Pattern(format=1, resolution=384, tracks=\\\n",
      "[midi.Track(\\\n",
      "  [midi.TimeSignatureEvent(tick=0, data=[2, 2, 96, 8]),\n",
      "   midi.SequencerSpecificEvent(tick=0, data=[0, 0, 65]),\n",
      "   midi.SetTempoEvent(tick=0, data=[10, 44, 42]),\n",
      "   midi.SetTempoEvent(tick=153600, data=[10, 44, 42]),\n",
      "   midi.SetTempoEvent(tick=28, data=[10, 73, 109]),\n",
      "   midi.SetTempoEvent(tick=28, data=[10, 103, 90]),\n",
      "   midi.SetTempoEvent(tick=28, data=[10, 133, 247]),\n",
      "   midi.SetTempoEvent(tick=28, data=[10, 165, 74]),\n",
      "   midi.SetTempoEvent(tick=28, data=[10, 197, 90]),\n",
      "   midi.SetTempoEvent(tick=28, data=[10, 230, 45]),\n",
      "   midi.SetTempoEvent(tick=28, data=[11, 7, 203]),\n",
      "   midi.SetTempoEvent(tick=28, data=[11, 42, 59]),\n",
      "   midi.SetTempoEvent(tick=28, data=[11, 77, 132]),\n",
      "   midi.SetTempoEvent(tick=28, data=[11, 113, 176]),\n",
      "   midi.SetTempoEvent(tick=28, data=[11, 150, 197]),\n",
      "   midi.SetTempoEvent(tick=28, data=[11, 188, 206]),\n",
      "   midi.SetTempoEvent(tick=28, data=[11, 227, 212]),\n",
      "   midi.SetTempoEvent(tick=28, data=[12, 11, 225]),\n",
      "   midi.SetTempoEvent(tick=28, data=[12, 53, 0]),\n",
      "   midi.SetTempoEvent(tick=28, data=[12, 95, 58]),\n",
      "   midi.SetTempoEvent(tick=28, data=[12, 138, 157]),\n",
      "   midi.SetTempoEvent(tick=28, data=[12, 183, 53]),\n",
      "   midi.SetTempoEvent(tick=28, data=[12, 229, 14]),\n",
      "   midi.SetTempoEvent(tick=28, data=[13, 20, 54]),\n",
      "   midi.SetTempoEvent(tick=28, data=[13, 68, 189]),\n",
      "   midi.SetTempoEvent(tick=28, data=[13, 118, 176]),\n",
      "   midi.SetTempoEvent(tick=28, data=[13, 170, 34]),\n",
      "   midi.SetTempoEvent(tick=28, data=[13, 223, 34]),\n",
      "   midi.SetTempoEvent(tick=28, data=[14, 21, 196]),\n",
      "   midi.SetTempoEvent(tick=28, data=[14, 78, 28]),\n",
      "   midi.SetTempoEvent(tick=28, data=[14, 136, 60]),\n",
      "   midi.SetTempoEvent(tick=28, data=[14, 196, 61]),\n",
      "   midi.SetTempoEvent(tick=28, data=[15, 2, 54]),\n",
      "   midi.SetTempoEvent(tick=28, data=[15, 66, 64]),\n",
      "   midi.SetTempoEvent(tick=28, data=[15, 132, 117]),\n",
      "   midi.SetTempoEvent(tick=28, data=[15, 200, 242]),\n",
      "   midi.SetTempoEvent(tick=28, data=[16, 15, 215]),\n",
      "   midi.SetTempoEvent(tick=28, data=[16, 89, 68]),\n",
      "   midi.SetTempoEvent(tick=28, data=[16, 165, 93]),\n",
      "   midi.SetTempoEvent(tick=28, data=[16, 244, 71]),\n",
      "   midi.SetTempoEvent(tick=28, data=[17, 70, 43]),\n",
      "   midi.SetTempoEvent(tick=28, data=[17, 155, 54]),\n",
      "   midi.SetTempoEvent(tick=28, data=[17, 243, 150]),\n",
      "   midi.SetTempoEvent(tick=28, data=[18, 79, 128]),\n",
      "   midi.SetTempoEvent(tick=28, data=[18, 175, 41]),\n",
      "   midi.SetTempoEvent(tick=28, data=[19, 18, 208]),\n",
      "   midi.SetTempoEvent(tick=28, data=[19, 122, 179]),\n",
      "   midi.SetTempoEvent(tick=28, data=[19, 231, 27]),\n",
      "   midi.SetTempoEvent(tick=28, data=[20, 88, 85]),\n",
      "   midi.SetTempoEvent(tick=28, data=[20, 206, 180]),\n",
      "   midi.SetTempoEvent(tick=28, data=[21, 74, 148]),\n",
      "   midi.SetTempoEvent(tick=28, data=[21, 204, 91]),\n",
      "   midi.SetTempoEvent(tick=28, data=[22, 84, 118]),\n",
      "   midi.SetTempoEvent(tick=28, data=[22, 227, 96]),\n",
      "   midi.EndOfTrackEvent(tick=0, data=[])]),\n",
      " midi.Track(\\\n",
      "  [midi.TrackNameEvent(tick=0, text='Tromba I', data=[84, 114, 111, 109, 98, 97, 32, 73]),\n",
      "   midi.ControlChangeEvent(tick=0, channel=0, data=[0, 0]),\n",
      "   midi.ProgramChangeEvent(tick=0, channel=0, data=[56]),\n",
      "   midi.ControlChangeEvent(tick=0, channel=0, data=[7, 127]),\n",
      "   midi.ControlChangeEvent(tick=0, channel=0, data=[10, 61]),\n",
      "   midi.ControlChangeEvent(tick=0, channel=0, data=[91, 127]),\n",
      "   midi.ControlChangeEvent(tick=0, channel=0, data=[93, 127]),\n",
      "   midi.KeySignatureEvent(tick=0, data=[2, 0]),\n",
      "   midi.NoteOnEvent(tick=768, channel=0, data=[78, 80]),\n",
      "   midi.NoteOffEvent(tick=96, channel=0, data=[78, 0]),\n",
      "   midi.NoteOnEvent(tick=0, channel=0, data=[79, 80]),\n",
      "   midi.NoteOffEvent(tick=96, channel=0, data=[79, 0]),\n",
      "   midi.NoteOnEvent(tick=0, channel=0, data=[81, 80]),\n",
      "   midi.NoteOffEvent(tick=96, channel=0, data=[81, 0]),\n",
      "   midi.NoteOnEvent(tick=96, channel=0, data=[81, 80]),\n",
      "   midi.NoteOffEvent(tick=96, channel=0, data=[81, 0]),\n",
      "   midi.NoteOnEvent(tick=96, channel=0, data=[81, 80]),\n",
      "   midi.NoteOffEvent(tick=96, channel=0, data=[81, 0]),\n",
      "   midi.NoteOnEvent(tick=96, channel=0, data=[81, 80]),\n",
      "   midi.NoteOffEvent(tick=384, channel=0, data=[81, 0]),\n",
      "   midi.NoteOnEvent(tick=192, channel=0, data=[69, 80]),\n",
      "   midi.NoteOffEvent(tick=192, channel=0, data=[69, 0]),\n",
      "   midi.NoteOnEvent(tick=0, channel=0, data=[74, 80]),\n",
      "   midi.NoteOffEvent(tick=48, channel=0, data=[74, 0]),\n",
      "   midi.NoteOnEvent(tick=0, channel=0, data=[76, 80]),\n",
      "   midi.NoteOffEvent(tick=48, channel=0, data=[76, 0]),\n",
      "   midi.NoteOnEvent(tick=0, channel=0, data=[78, 80]),\n",
      "   midi.NoteOffEvent(tick=256, channel=0, data=[78, 0]),\n",
      "   midi.NoteOnEvent(tick=32, channel=0, data=[76, 80]),\n",
      "   midi.NoteOffEvent(tick=48, channel=0, data=[76, 0]),\n",
      "   midi.NoteOnEvent(tick=0, channel=0, data=[78, 80]),\n",
      "   midi.NoteOffEvent(tick=48, channel=0, data=[78, 0]),\n",
      "   midi.NoteOnEvent(tick=0, channel=0, data=[79, 80]),\n",
      "   midi.NoteOffEvent(tick=256, channel=0, data=[79, 0]),\n",
      "   midi.NoteOnEvent(tick=32, channel=0, data=[78, 80]),\n",
      "   midi.NoteOffEvent(tick=48, channel=0, data=[78, 0]),\n",
      "   midi.NoteOnEvent(tick=0, channel=0, data=[76, 80]),\n",
      "   midi.NoteOffEvent(tick=48, channel=0, data=[76, 0]),\n",
      "   midi.NoteOnEvent(tick=0, channel=0, data=[74, 80]),\n",
      "   midi.NoteOffEvent(tick=352, channel=0, data=[74, 0]),\n",
      "   midi.NoteOnEvent(tick=32, channel=0, data=[69, 80]),\n",
      "   midi.NoteOffEvent(tick=96, channel=0, data=[69, 0]),\n",
      "   midi.NoteOnEvent(tick=0, channel=0, data=[74, 80]),\n",
      "   midi.NoteOffEvent(tick=96, channel=0, data=[74, 0]),\n",
      "   midi.NoteOnEvent(tick=0, channel=0, data=[76, 80]),\n",
      "   midi.NoteOffEvent(tick=96, channel=0, data=[76, 0]),\n",
      "   midi.NoteOnEvent(tick=0, channel=0, data=[78, 80]),\n",
      "   midi.NoteOffEvent(tick=96, channel=0, data=[78, 0]),\n",
      "   midi.NoteOnEvent(tick=0, channel=0, data=[79, 80]),\n",
      "   midi.NoteOffEvent(tick=96, channel=0, data=[79, 0]),\n",
      "   midi.NoteOnEvent(tick=0, channel=0, data=[81, 80]),\n",
      "   midi.NoteOffEvent(tick=96, channel=0, data=[81, 0]),\n",
      "   midi.NoteOnEvent(tick=96, channel=0, data=[81, 80]),\n",
      "   midi.NoteOffEvent(tick=96, channel=0, data=[81, 0]),\n",
      "   midi.NoteOnEvent(tick=96, channel=0, data=[81, 80]),\n",
      "   midi.NoteOffEvent(tick=96, channel=0, data=[81, 0]),\n",
      "   midi.NoteOnEvent(tick=96, channel=0, data=[81, 80]),\n",
      "   midi.NoteOffEvent(tick=384, channel=0, data=[81, 0]),\n",
      "   midi.NoteOnEvent(tick=192, channel=0, data=[69, 80]),\n",
      "   midi.NoteOffEvent(tick=192, channel=0, data=[69, 0]),\n",
      "   midi.NoteOnEvent(tick=0, channel=0, data=[74, 80]),\n",
      "   midi.NoteOffEvent(tick=48, channel=0, data=[74, 0]),\n",
      "   midi.NoteOnEvent(tick=0, channel=0, data=[76, 80]),\n",
      "   midi.NoteOffEvent(tick=48, channel=0, data=[76, 0]),\n",
      "   midi.NoteOnEvent(tick=0, channel=0, data=[78, 80]),\n",
      "   midi.NoteOffEvent(tick=256, channel=0, data=[78, 0]),\n",
      "   midi.NoteOnEvent(tick=32, channel=0, data=[76, 80]),\n",
      "   midi.NoteOffEvent(tick=48, channel=0, data=[76, 0]),\n",
      "   midi.NoteOnEvent(tick=0, channel=0, data=[78, 80]),\n",
      "   midi.NoteOffEvent(tick=48, channel=0, data=[78, 0]),\n",
      "   midi.NoteOnEvent(tick=0, channel=0, data=[79, 80]),\n",
      "   midi.NoteOffEvent(tick=256, channel=0, data=[79, 0]),\n",
      "   midi.NoteOnEvent(tick=32, channel=0, data=[78, 80]),\n",
      "   midi.NoteOffEvent(tick=48, channel=0, data=[78, 0]),\n",
      "   midi.NoteOnEvent(tick=0, channel=0, data=[76, 80]),\n",
      "   midi.NoteOffEvent(tick=48, channel=0, data=[76, 0]),\n",
      "   midi.NoteOnEvent(tick=0, channel=0, data=[74, 80]),\n",
      "   midi.NoteOffEvent(tick=352, channel=0, data=[74, 0]),\n",
      "   midi.NoteOnEvent(tick=32, channel=0, data=[69, 80]),\n",
      "   midi.NoteOffEvent(tick=96, channel=0, data=[69, 0]),\n",
      "   midi.NoteOnEvent(tick=0, channel=0, data=[74, 80]),\n",
      "   midi.NoteOffEvent(tick=96, channel=0, data=[74, 0]),\n",
      "   midi.NoteOnEvent(tick=0, channel=0, data=[76, 80]),\n",
      "   midi.NoteOffEvent(tick=96, channel=0, data=[76, 0]),\n",
      "   midi.NoteOnEvent(tick=0, channel=0, data=[78, 80]),\n",
      "   midi.NoteOffEvent(tick=96, channel=0, data=[78, 0]),\n",
      "   midi.NoteOnEvent(tick=0, channel=0, data=[79, 80]),\n",
      "   midi.NoteOffEvent(tick=96, channel=0, data=[79, 0]),\n",
      "   midi.NoteOnEvent(tick=0, channel=0, data=[78, 80]),\n",
      "   midi.NoteOffEvent(tick=96, channel=0, data=[78, 0]),\n",
      "   midi.NoteOnEvent(tick=96, channel=0, data=[78, 80]),\n",
      "   midi.NoteOffEvent(tick=96, channel=0, data=[78, 0]),\n",
      "   midi.NoteOnEvent(tick=96, channel=0, data=[78, 80]),\n",
      "   midi.NoteOffEvent(tick=96, channel=0, data=[78, 0]),\n",
      "   midi.NoteOnEvent(tick=96, channel=0, data=[78, 80]),\n",
      "   midi.NoteOffEvent(tick=192, channel=0, data=[78, 0]),\n",
      "   midi.NoteOnEvent(tick=0, channel=0, data=[83, 80]),\n",
      "   midi.NoteOffEvent(tick=96, channel=0, data=[83, 0]),\n",
      "   midi.NoteOnEvent(tick=0, channel=0, data=[81, 80]),\n",
      "   midi.NoteOffEvent(tick=96, channel=0, data=[81, 0]),\n",
      "   midi.NoteOnEvent(tick=0, channel=0, data=[83, 80]),\n",
      "   midi.NoteOffEvent(tick=96, channel=0, data=[83, 0]),\n",
      "   midi.NoteOnEvent(tick=0, channel=0, data=[81, 80]),\n",
      "   midi.NoteOffEvent(tick=96, channel=0, data=[81, 0]),\n",
      "   midi.NoteOnEvent(tick=0, channel=0, data=[80, 80]),\n",
      "   midi.NoteOffEvent(tick=96, channel=0, data=[80, 0]),\n",
      "   midi.NoteOnEvent(tick=0, channel=0, data=[78, 80]),\n",
      "   midi.NoteOffEvent(tick=96, channel=0, data=[78, 0]),\n",
      "   midi.NoteOnEvent(tick=0, channel=0, data=[76, 80]),\n",
      "   midi.NoteOffEvent(tick=96, channel=0, data=[76, 0]),\n",
      "   midi.NoteOnEvent(tick=0, channel=0, data=[78, 80]),\n",
      "   midi.NoteOffEvent(tick=96, channel=0, data=[78, 0]),\n",
      "   midi.NoteOnEvent(tick=0, channel=0, data=[76, 80]),\n",
      "   midi.NoteOffEvent(tick=96, channel=0, data=[76, 0]),\n",
      "   midi.NoteOnEvent(tick=0, channel=0, data=[76, 80]),\n",
      "   midi.NoteOffEvent(tick=96, channel=0, data=[76, 0]),\n",
      "   midi.NoteOnEvent(tick=0, channel=0, data=[76, 80]),\n",
      "   midi.NoteOffEvent(tick=96, channel=0, data=[76, 0]),\n",
      "   midi.NoteOnEvent(tick=96, channel=0, data=[76, 80]),\n",
      "   midi.NoteOffEvent(tick=192, channel=0, data=[76, 0]),\n",
      "   midi.NoteOnEvent(tick=0, channel=0, data=[81, 80]),\n",
      "   midi.NoteOffEvent(tick=96, channel=0, data=[81, 0]),\n",
      "   midi.NoteOnEvent(tick=0, channel=0, data=[80, 80]),\n",
      "   midi.NoteOffEvent(tick=96, channel=0, data=[80, 0]),\n",
      "   midi.NoteOnEvent(tick=0, channel=0, data=[81, 80]),\n",
      "   midi.NoteOffEvent(tick=96, channel=0, data=[81, 0]),\n",
      "   midi.NoteOnEvent(tick=0, channel=0, data=[80, 80]),\n",
      "   midi.NoteOffEvent(tick=96, channel=0, data=[80, 0]),\n",
      "   midi.NoteOnEvent(tick=0, channel=0, data=[78, 80]),\n",
      "   midi.NoteOffEvent(tick=96, channel=0, data=[78, 0]),\n",
      "   midi.NoteOnEvent(tick=0, channel=0, data=[76, 80]),\n",
      "   midi.NoteOffEvent(tick=96, channel=0, data=[76, 0]),\n",
      "   midi.NoteOnEvent(tick=0, channel=0, data=[74, 80]),\n",
      "   midi.NoteOffEvent(tick=96, channel=0, data=[74, 0]),\n",
      "   midi.NoteOnEvent(tick=0, channel=0, data=[76, 80]),\n",
      "   midi.NoteOffEvent(tick=96, channel=0, data=[76, 0]),\n",
      "   midi.NoteOnEvent(tick=0, channel=0, data=[74, 80]),\n",
      "   midi.NoteOffEvent(tick=96, channel=0, data=[74, 0]),\n",
      "   midi.NoteOnEvent(tick=96, channel=0, data=[74, 80]),\n",
      "   midi.NoteOffEvent(tick=96, channel=0, data=[74, 0]),\n",
      "   midi.NoteOnEvent(tick=96, channel=0, data=[74, 80]),\n",
      "   midi.NoteOffEvent(tick=96, channel=0, data=[74, 0]),\n",
      "   midi.NoteOnEvent(tick=96, channel=0, data=[86, 80]),\n",
      "   midi.NoteOffEvent(tick=512, channel=0, data=[86, 0]),\n",
      "   midi.NoteOnEvent(tick=64, channel=0, data=[85, 80]),\n",
      "   midi.NoteOffEvent(tick=96, channel=0, data=[85, 0]),\n",
      "   midi.NoteOnEvent(tick=0, channel=0, data=[83, 80]),\n",
      "   midi.NoteOffEvent(tick=96, channel=0, data=[83, 0]),\n",
      "   midi.NoteOnEvent(tick=0, channel=0, data=[85, 80]),\n",
      "   midi.NoteOffEvent(tick=192, channel=0, data=[85, 0]),\n",
      "   midi.NoteOnEvent(tick=0, channel=0, data=[81, 80]),\n",
      "   midi.NoteOffEvent(tick=192, channel=0, data=[81, 0]),\n",
      "   midi.NoteOnEvent(tick=0, channel=0, data=[76, 80]),\n",
      "   midi.NoteOffEvent(tick=192, channel=0, data=[76, 0]),\n",
      "   midi.NoteOnEvent(tick=0, channel=0, data=[80, 80]),\n",
      "   midi.NoteOffEvent(tick=192, channel=0, data=[80, 0]),\n",
      "   midi.NoteOnEvent(tick=0, channel=0, data=[81, 80]),\n",
      "   midi.NoteOffEvent(tick=768, channel=0, data=[81, 0]),\n",
      "   midi.NoteOnEvent(tick=768, channel=0, data=[79, 80]),\n",
      "   midi.NoteOffEvent(tick=192, channel=0, data=[79, 0]),\n",
      "   midi.NoteOnEvent(tick=0, channel=0, data=[73, 80]),\n",
      "   midi.NoteOffEvent(tick=192, channel=0, data=[73, 0]),\n",
      "   midi.NoteOnEvent(tick=4992, channel=0, data=[79, 80]),\n",
      "   midi.NoteOffEvent(tick=96, channel=0, data=[79, 0]),\n",
      "   midi.NoteOnEvent(tick=0, channel=0, data=[81, 80]),\n",
      "   midi.NoteOffEvent(tick=96, channel=0, data=[81, 0]),\n",
      "   midi.NoteOnEvent(tick=0, channel=0, data=[79, 80]),\n",
      "   midi.NoteOffEvent(tick=96, channel=0, data=[79, 0]),\n",
      "   midi.NoteOnEvent(tick=96, channel=0, data=[79, 80]),\n",
      "   midi.NoteOffEvent(tick=96, channel=0, data=[79, 0]),\n",
      "   midi.NoteOnEvent(tick=96, channel=0, data=[79, 80]),\n",
      "   midi.NoteOffEvent(tick=96, channel=0, data=[79, 0]),\n",
      "   midi.NoteOnEvent(tick=96, channel=0, data=[79, 80]),\n",
      "   midi.NoteOffEvent(tick=512, channel=0, data=[79, 0]),\n",
      "   midi.NoteOnEvent(tick=64, channel=0, data=[69, 80]),\n",
      "   midi.NoteOffEvent(tick=192, channel=0, data=[69, 0]),\n",
      "   midi.NoteOnEvent(tick=0, channel=0, data=[78, 80]),\n",
      "   midi.NoteOffEvent(tick=96, channel=0, data=[78, 0]),\n",
      "   midi.NoteOnEvent(tick=0, channel=0, data=[79, 80]),\n",
      "   midi.NoteOffEvent(tick=96, channel=0, data=[79, 0]),\n",
      "   midi.NoteOnEvent(tick=0, channel=0, data=[78, 80]),\n",
      "   midi.NoteOffEvent(tick=96, channel=0, data=[78, 0]),\n",
      "   midi.NoteOnEvent(tick=96, channel=0, data=[78, 80]),\n",
      "   midi.NoteOffEvent(tick=96, channel=0, data=[78, 0]),\n",
      "   midi.NoteOnEvent(tick=96, channel=0, data=[78, 80]),\n",
      "   midi.NoteOffEvent(tick=96, channel=0, data=[78, 0]),\n",
      "   midi.NoteOnEvent(tick=96, channel=0, data=[78, 80]),\n",
      "   midi.NoteOffEvent(tick=512, channel=0, data=[78, 0]),\n",
      "   midi.NoteOnEvent(tick=64, channel=0, data=[69, 80]),\n",
      "   midi.NoteOffEvent(tick=192, channel=0, data=[69, 0]),\n",
      "   midi.NoteOnEvent(tick=0, channel=0, data=[69, 80]),\n",
      "   midi.NoteOffEvent(tick=192, channel=0, data=[69, 0]),\n",
      "   midi.NoteOnEvent(tick=0, channel=0, data=[76, 80]),\n",
      "   midi.NoteOffEvent(tick=192, channel=0, data=[76, 0]),\n",
      "   midi.NoteOnEvent(tick=0, channel=0, data=[76, 80]),\n",
      "   midi.NoteOffEvent(tick=192, channel=0, data=[76, 0]),\n",
      "   midi.NoteOnEvent(tick=0, channel=0, data=[79, 80]),\n",
      "   midi.NoteOffEvent(tick=192, channel=0, data=[79, 0]),\n",
      "   midi.NoteOnEvent(tick=0, channel=0, data=[79, 80]),\n",
      "   midi.NoteOffEvent(tick=96, channel=0, data=[79, 0]),\n",
      "   midi.NoteOnEvent(tick=0, channel=0, data=[83, 80]),\n",
      "   midi.NoteOffEvent(tick=96, channel=0, data=[83, 0]),\n",
      "   midi.NoteOnEvent(tick=0, channel=0, data=[81, 80]),\n",
      "   midi.NoteOffEvent(tick=96, channel=0, data=[81, 0]),\n",
      "   midi.NoteOnEvent(tick=0, channel=0, data=[79, 80]),\n",
      "   midi.NoteOffEvent(tick=96, channel=0, data=[79, 0]),\n",
      "   midi.NoteOnEvent(tick=0, channel=0, data=[81, 80]),\n",
      "   midi.NoteOffEvent(tick=96, channel=0, data=[81, 0]),\n",
      "   midi.NoteOnEvent(tick=0, channel=0, data=[79, 80]),\n",
      "   midi.NoteOffEvent(tick=96, channel=0, data=[79, 0]),\n",
      "   midi.NoteOnEvent(tick=0, channel=0, data=[78, 80]),\n",
      "   midi.NoteOffEvent(tick=96, channel=0, data=[78, 0]),\n",
      "   midi.NoteOnEvent(tick=0, channel=0, data=[76, 80]),\n",
      "   midi.NoteOffEvent(tick=96, channel=0, data=[76, 0]),\n",
      "   midi.NoteOnEvent(tick=0, channel=0, data=[78, 80]),\n",
      "   midi.NoteOffEvent(tick=96, channel=0, data=[78, 0]),\n",
      "   midi.NoteOnEvent(tick=0, channel=0, data=[81, 80]),\n",
      "   midi.NoteOffEvent(tick=96, channel=0, data=[81, 0]),\n",
      "   midi.NoteOnEvent(tick=0, channel=0, data=[79, 80]),\n",
      "   midi.NoteOffEvent(tick=96, channel=0, data=[79, 0]),\n",
      "   midi.NoteOnEvent(tick=0, channel=0, data=[78, 80]),\n",
      "   midi.NoteOffEvent(tick=96, channel=0, data=[78, 0]),\n",
      "   midi.NoteOnEvent(tick=0, channel=0, data=[79, 80]),\n",
      "   midi.NoteOffEvent(tick=96, channel=0, data=[79, 0]),\n",
      "   midi.NoteOnEvent(tick=0, channel=0, data=[78, 80]),\n",
      "   midi.NoteOffEvent(tick=96, channel=0, data=[78, 0]),\n",
      "   midi.NoteOnEvent(tick=0, channel=0, data=[76, 80]),\n",
      "   midi.NoteOffEvent(tick=96, channel=0, data=[76, 0]),\n",
      "   midi.NoteOnEvent(tick=0, channel=0, data=[78, 80]),\n",
      "   midi.NoteOffEvent(tick=96, channel=0, data=[78, 0]),\n",
      "   midi.NoteOnEvent(tick=0, channel=0, data=[74, 80]),\n",
      "   midi.NoteOffEvent(tick=384, channel=0, data=[74, 0]),\n",
      "   midi.NoteOnEvent(tick=6240, channel=0, data=[69, 80]),\n",
      "   midi.NoteOffEvent(tick=96, channel=0, data=[69, 0]),\n",
      "   midi.NoteOnEvent(tick=0, channel=0, data=[74, 80]),\n",
      "   midi.NoteOffEvent(tick=96, channel=0, data=[74, 0]),\n",
      "   midi.NoteOnEvent(tick=0, channel=0, data=[76, 80]),\n",
      "   midi.NoteOffEvent(tick=96, channel=0, data=[76, 0]),\n",
      "   midi.NoteOnEvent(tick=0, channel=0, data=[78, 80]),\n",
      "   midi.NoteOffEvent(tick=96, channel=0, data=[78, 0]),\n",
      "   midi.NoteOnEvent(tick=0, channel=0, data=[79, 80]),\n",
      "   midi.NoteOffEvent(tick=96, channel=0, data=[79, 0]),\n",
      "   midi.NoteOnEvent(tick=0, channel=0, data=[81, 80]),\n",
      "   midi.NoteOffEvent(tick=96, channel=0, data=[81, 0]),\n",
      "   midi.NoteOnEvent(tick=96, channel=0, data=[81, 80]),\n",
      "   midi.NoteOffEvent(tick=96, channel=0, data=[81, 0]),\n",
      "   midi.NoteOnEvent(tick=96, channel=0, data=[81, 80]),\n",
      "   midi.NoteOffEvent(tick=96, channel=0, data=[81, 0]),\n",
      "   midi.NoteOnEvent(tick=96, channel=0, data=[81, 80]),\n",
      "   midi.NoteOffEvent(tick=512, channel=0, data=[81, 0]),\n",
      "   midi.NoteOnEvent(tick=64, channel=0, data=[69, 80]),\n",
      "   midi.NoteOffEvent(tick=192, channel=0, data=[69, 0]),\n",
      "   midi.NoteOnEvent(tick=0, channel=0, data=[74, 80]),\n",
      "   midi.NoteOffEvent(tick=48, channel=0, data=[74, 0]),\n",
      "   midi.NoteOnEvent(tick=0, channel=0, data=[76, 80]),\n",
      "   midi.NoteOffEvent(tick=48, channel=0, data=[76, 0]),\n",
      "   midi.NoteOnEvent(tick=0, channel=0, data=[78, 80]),\n",
      "   midi.NoteOffEvent(tick=256, channel=0, data=[78, 0]),\n",
      "   midi.NoteOnEvent(tick=32, channel=0, data=[76, 80]),\n",
      "   midi.NoteOffEvent(tick=48, channel=0, data=[76, 0]),\n",
      "   midi.NoteOnEvent(tick=0, channel=0, data=[78, 80]),\n",
      "   midi.NoteOffEvent(tick=48, channel=0, data=[78, 0]),\n",
      "   midi.NoteOnEvent(tick=0, channel=0, data=[79, 80]),\n",
      "   midi.NoteOffEvent(tick=256, channel=0, data=[79, 0]),\n",
      "   midi.NoteOnEvent(tick=32, channel=0, data=[78, 80]),\n",
      "   midi.NoteOffEvent(tick=192, channel=0, data=[78, 0]),\n",
      "   midi.NoteOnEvent(tick=0, channel=0, data=[76, 80]),\n",
      "   midi.NoteOffEvent(tick=192, channel=0, data=[76, 0]),\n",
      "   midi.NoteOnEvent(tick=0, channel=0, data=[74, 80]),\n",
      "   midi.NoteOffEvent(tick=384, channel=0, data=[74, 0]),\n",
      "   midi.NoteOnEvent(tick=0, channel=0, data=[81, 80]),\n",
      "   midi.NoteOffEvent(tick=960, channel=0, data=[81, 0]),\n",
      "   midi.NoteOnEvent(tick=0, channel=0, data=[83, 80]),\n",
      "   midi.NoteOffEvent(tick=96, channel=0, data=[83, 0]),\n",
      "   midi.NoteOnEvent(tick=0, channel=0, data=[81, 80]),\n",
      "   midi.NoteOffEvent(tick=96, channel=0, data=[81, 0]),\n",
      "   midi.NoteOnEvent(tick=0, channel=0, data=[83, 80]),\n",
      "   midi.NoteOffEvent(tick=96, channel=0, data=[83, 0]),\n",
      "   midi.NoteOnEvent(tick=0, channel=0, data=[81, 80]),\n",
      "   midi.NoteOffEvent(tick=96, channel=0, data=[81, 0]),\n",
      "   midi.NoteOnEvent(tick=0, channel=0, data=[79, 80]),\n",
      "   midi.NoteOffEvent(tick=96, channel=0, data=[79, 0]),\n",
      "   midi.NoteOnEvent(tick=0, channel=0, data=[78, 80]),\n",
      "   midi.NoteOffEvent(tick=96, channel=0, data=[78, 0]),\n",
      "   midi.NoteOnEvent(tick=0, channel=0, data=[79, 80]),\n",
      "   midi.NoteOffEvent(tick=960, channel=0, data=[79, 0]),\n",
      "   midi.NoteOnEvent(tick=0, channel=0, data=[76, 80]),\n",
      "   midi.NoteOffEvent(tick=192, channel=0, data=[76, 0]),\n",
      "   midi.NoteOnEvent(tick=0, channel=0, data=[69, 80]),\n",
      "   midi.NoteOffEvent(tick=192, channel=0, data=[69, 0]),\n",
      "   midi.NoteOnEvent(tick=0, channel=0, data=[81, 80]),\n",
      "   midi.NoteOffEvent(tick=192, channel=0, data=[81, 0]),\n",
      "   midi.NoteOnEvent(tick=0, channel=0, data=[78, 80]),\n",
      "   midi.NoteOffEvent(tick=96, channel=0, data=[78, 0]),\n",
      "   midi.NoteOnEvent(tick=0, channel=0, data=[79, 80]),\n",
      "   midi.NoteOffEvent(tick=96, channel=0, data=[79, 0]),\n",
      "   midi.NoteOnEvent(tick=0, channel=0, data=[78, 80]),\n",
      "   midi.NoteOffEvent(tick=96, channel=0, data=[78, 0]),\n",
      "   midi.NoteOnEvent(tick=96, channel=0, data=[78, 80]),\n",
      "   midi.NoteOffEvent(tick=96, channel=0, data=[78, 0]),\n",
      "   midi.NoteOnEvent(tick=96, channel=0, data=[78, 80]),\n",
      "   midi.NoteOffEvent(tick=96, channel=0, data=[78, 0]),\n",
      "   midi.NoteOnEvent(tick=96, channel=0, data=[78, 80]),\n",
      "   midi.NoteOffEvent(tick=192, channel=0, data=[78, 0]),\n",
      "   midi.NoteOnEvent(tick=0, channel=0, data=[83, 80]),\n",
      "   midi.NoteOffEvent(tick=96, channel=0, data=[83, 0]),\n",
      "   midi.NoteOnEvent(tick=0, channel=0, data=[81, 80]),\n",
      "   midi.NoteOffEvent(tick=96, channel=0, data=[81, 0]),\n",
      "   midi.NoteOnEvent(tick=0, channel=0, data=[83, 80]),\n",
      "   midi.NoteOffEvent(tick=96, channel=0, data=[83, 0]),\n",
      "   midi.NoteOnEvent(tick=0, channel=0, data=[81, 80]),\n",
      "   midi.NoteOffEvent(tick=96, channel=0, data=[81, 0]),\n",
      "   midi.NoteOnEvent(tick=0, channel=0, data=[80, 80]),\n",
      "   midi.NoteOffEvent(tick=96, channel=0, data=[80, 0]),\n",
      "   midi.NoteOnEvent(tick=0, channel=0, data=[78, 80]),\n",
      "   midi.NoteOffEvent(tick=96, channel=0, data=[78, 0]),\n",
      "   midi.NoteOnEvent(tick=0, channel=0, data=[76, 80]),\n",
      "   midi.NoteOffEvent(tick=96, channel=0, data=[76, 0]),\n",
      "   midi.NoteOnEvent(tick=0, channel=0, data=[78, 80]),\n",
      "   midi.NoteOffEvent(tick=96, channel=0, data=[78, 0]),\n",
      "   midi.NoteOnEvent(tick=0, channel=0, data=[76, 80]),\n",
      "   midi.NoteOffEvent(tick=96, channel=0, data=[76, 0]),\n",
      "   midi.NoteOnEvent(tick=96, channel=0, data=[76, 80]),\n",
      "   midi.NoteOffEvent(tick=96, channel=0, data=[76, 0]),\n",
      "   midi.NoteOnEvent(tick=96, channel=0, data=[76, 80]),\n",
      "   midi.NoteOffEvent(tick=96, channel=0, data=[76, 0]),\n",
      "   midi.NoteOnEvent(tick=96, channel=0, data=[76, 80]),\n",
      "   midi.NoteOffEvent(tick=192, channel=0, data=[76, 0]),\n",
      "   midi.NoteOnEvent(tick=0, channel=0, data=[81, 80]),\n",
      "   midi.NoteOffEvent(tick=96, channel=0, data=[81, 0]),\n",
      "   midi.NoteOnEvent(tick=0, channel=0, data=[80, 80]),\n",
      "   midi.NoteOffEvent(tick=96, channel=0, data=[80, 0]),\n",
      "   midi.NoteOnEvent(tick=0, channel=0, data=[81, 80]),\n",
      "   midi.NoteOffEvent(tick=96, channel=0, data=[81, 0]),\n",
      "   midi.NoteOnEvent(tick=0, channel=0, data=[80, 80]),\n",
      "   midi.NoteOffEvent(tick=96, channel=0, data=[80, 0]),\n",
      "   midi.NoteOnEvent(tick=0, channel=0, data=[78, 80]),\n",
      "   midi.NoteOffEvent(tick=96, channel=0, data=[78, 0]),\n",
      "   midi.NoteOnEvent(tick=0, channel=0, data=[76, 80]),\n",
      "   midi.NoteOffEvent(tick=96, channel=0, data=[76, 0]),\n",
      "   midi.NoteOnEvent(tick=0, channel=0, data=[74, 80]),\n",
      "   midi.NoteOffEvent(tick=96, channel=0, data=[74, 0]),\n",
      "   midi.NoteOnEvent(tick=0, channel=0, data=[76, 80]),\n",
      "   midi.NoteOffEvent(tick=96, channel=0, data=[76, 0]),\n",
      "   midi.NoteOnEvent(tick=0, channel=0, data=[74, 80]),\n",
      "   midi.NoteOffEvent(tick=96, channel=0, data=[74, 0]),\n",
      "   midi.NoteOnEvent(tick=96, channel=0, data=[74, 80]),\n",
      "   midi.NoteOffEvent(tick=96, channel=0, data=[74, 0]),\n",
      "   midi.NoteOnEvent(tick=96, channel=0, data=[74, 80]),\n",
      "   midi.NoteOffEvent(tick=96, channel=0, data=[74, 0]),\n",
      "   midi.NoteOnEvent(tick=96, channel=0, data=[86, 80]),\n",
      "   midi.NoteOffEvent(tick=512, channel=0, data=[86, 0]),\n",
      "   midi.NoteOnEvent(tick=64, channel=0, data=[85, 80]),\n",
      "   midi.NoteOffEvent(tick=96, channel=0, data=[85, 0]),\n",
      "   midi.NoteOnEvent(tick=0, channel=0, data=[83, 80]),\n",
      "   midi.NoteOffEvent(tick=96, channel=0, data=[83, 0]),\n",
      "   midi.NoteOnEvent(tick=0, channel=0, data=[85, 80]),\n",
      "   midi.NoteOffEvent(tick=192, channel=0, data=[85, 0]),\n",
      "   midi.NoteOnEvent(tick=0, channel=0, data=[81, 80]),\n",
      "   midi.NoteOffEvent(tick=192, channel=0, data=[81, 0]),\n",
      "   midi.NoteOnEvent(tick=0, channel=0, data=[76, 80]),\n",
      "   midi.NoteOffEvent(tick=192, channel=0, data=[76, 0]),\n",
      "   midi.NoteOnEvent(tick=0, channel=0, data=[80, 80]),\n",
      "   midi.NoteOffEvent(tick=192, channel=0, data=[80, 0]),\n",
      "   midi.NoteOnEvent(tick=0, channel=0, data=[81, 80]),\n",
      "   midi.NoteOffEvent(tick=192, channel=0, data=[81, 0]),\n",
      "   midi.NoteOnEvent(tick=14208, channel=0, data=[81, 80]),\n",
      "   midi.NoteOffEvent(tick=96, channel=0, data=[81, 0]),\n",
      "   midi.NoteOnEvent(tick=0, channel=0, data=[83, 80]),\n",
      "   midi.NoteOffEvent(tick=96, channel=0, data=[83, 0]),\n",
      "   midi.NoteOnEvent(tick=0, channel=0, data=[85, 80]),\n",
      "   midi.NoteOffEvent(tick=192, channel=0, data=[85, 0]),\n",
      "   midi.NoteOnEvent(tick=192, channel=0, data=[83, 80]),\n",
      "   midi.NoteOffEvent(tick=192, channel=0, data=[83, 0]),\n",
      "   midi.NoteOnEvent(tick=192, channel=0, data=[81, 80]),\n",
      "   midi.NoteOffEvent(tick=192, channel=0, data=[81, 0]),\n",
      "   midi.NoteOnEvent(tick=1920, channel=0, data=[81, 80]),\n",
      "   midi.NoteOffEvent(tick=96, channel=0, data=[81, 0]),\n",
      "   midi.NoteOnEvent(tick=0, channel=0, data=[83, 80]),\n",
      "   midi.NoteOffEvent(tick=96, channel=0, data=[83, 0]),\n",
      "   midi.NoteOnEvent(tick=0, channel=0, data=[85, 80]),\n",
      "   midi.NoteOffEvent(tick=192, channel=0, data=[85, 0]),\n",
      "   midi.NoteOnEvent(tick=192, channel=0, data=[83, 80]),\n",
      "   midi.NoteOffEvent(tick=192, channel=0, data=[83, 0]),\n",
      "   midi.NoteOnEvent(tick=192, channel=0, data=[81, 80]),\n",
      "   midi.NoteOffEvent(tick=192, channel=0, data=[81, 0]),\n",
      "   midi.NoteOnEvent(tick=1536, channel=0, data=[83, 80]),\n",
      "   midi.NoteOffEvent(tick=96, channel=0, data=[83, 0]),\n",
      "   midi.NoteOnEvent(tick=0, channel=0, data=[81, 80]),\n",
      "   midi.NoteOffEvent(tick=96, channel=0, data=[81, 0]),\n",
      "   midi.NoteOnEvent(tick=0, channel=0, data=[83, 80]),\n",
      "   midi.NoteOffEvent(tick=96, channel=0, data=[83, 0]),\n",
      "   midi.NoteOnEvent(tick=0, channel=0, data=[81, 80]),\n",
      "   midi.NoteOffEvent(tick=96, channel=0, data=[81, 0]),\n",
      "   midi.NoteOnEvent(tick=0, channel=0, data=[80, 80]),\n",
      "   midi.NoteOffEvent(tick=96, channel=0, data=[80, 0]),\n",
      "   midi.NoteOnEvent(tick=0, channel=0, data=[78, 80]),\n",
      "   midi.NoteOffEvent(tick=96, channel=0, data=[78, 0]),\n",
      "   midi.NoteOnEvent(tick=0, channel=0, data=[76, 80]),\n",
      "   midi.NoteOffEvent(tick=192, channel=0, data=[76, 0]),\n",
      "   midi.NoteOnEvent(tick=768, channel=0, data=[81, 80]),\n",
      "   midi.NoteOffEvent(tick=96, channel=0, data=[81, 0]),\n",
      "   midi.NoteOnEvent(tick=0, channel=0, data=[80, 80]),\n",
      "   midi.NoteOffEvent(tick=96, channel=0, data=[80, 0]),\n",
      "   midi.NoteOnEvent(tick=0, channel=0, data=[81, 80]),\n",
      "   midi.NoteOffEvent(tick=96, channel=0, data=[81, 0]),\n",
      "   midi.NoteOnEvent(tick=0, channel=0, data=[80, 80]),\n",
      "   midi.NoteOffEvent(tick=96, channel=0, data=[80, 0]),\n",
      "   midi.NoteOnEvent(tick=0, channel=0, data=[78, 80]),\n",
      "   midi.NoteOffEvent(tick=96, channel=0, data=[78, 0]),\n",
      "   midi.NoteOnEvent(tick=0, channel=0, data=[76, 80]),\n",
      "   midi.NoteOffEvent(tick=96, channel=0, data=[76, 0]),\n",
      "   midi.NoteOnEvent(tick=0, channel=0, data=[74, 80]),\n",
      "   midi.NoteOffEvent(tick=192, channel=0, data=[74, 0]),\n",
      "   midi.NoteOnEvent(tick=672, channel=0, data=[76, 80]),\n",
      "   midi.NoteOffEvent(tick=96, channel=0, data=[76, 0]),\n",
      "   midi.NoteOnEvent(tick=0, channel=0, data=[78, 80]),\n",
      "   midi.NoteOffEvent(tick=96, channel=0, data=[78, 0]),\n",
      "   midi.NoteOnEvent(tick=0, channel=0, data=[80, 80]),\n",
      "   midi.NoteOffEvent(tick=96, channel=0, data=[80, 0]),\n",
      "   midi.NoteOnEvent(tick=0, channel=0, data=[81, 80]),\n",
      "   midi.NoteOffEvent(tick=96, channel=0, data=[81, 0]),\n",
      "   midi.NoteOnEvent(tick=0, channel=0, data=[83, 80]),\n",
      "   midi.NoteOffEvent(tick=96, channel=0, data=[83, 0]),\n",
      "   midi.NoteOnEvent(tick=0, channel=0, data=[85, 80]),\n",
      "   midi.NoteOffEvent(tick=96, channel=0, data=[85, 0]),\n",
      "   midi.NoteOnEvent(tick=0, channel=0, data=[86, 80]),\n",
      "   midi.NoteOffEvent(tick=96, channel=0, data=[86, 0]),\n",
      "   midi.NoteOnEvent(tick=0, channel=0, data=[85, 80]),\n",
      "   midi.NoteOffEvent(tick=192, channel=0, data=[85, 0]),\n",
      "   midi.NoteOnEvent(tick=0, channel=0, data=[81, 80]),\n",
      "   midi.NoteOffEvent(tick=192, channel=0, data=[81, 0]),\n",
      "   midi.NoteOnEvent(tick=0, channel=0, data=[76, 80]),\n",
      "   midi.NoteOffEvent(tick=192, channel=0, data=[76, 0]),\n",
      "   midi.NoteOnEvent(tick=0, channel=0, data=[80, 80]),\n",
      "   midi.NoteOffEvent(tick=192, channel=0, data=[80, 0]),\n",
      "   midi.NoteOnEvent(tick=0, channel=0, data=[81, 80]),\n",
      "   midi.NoteOffEvent(tick=768, channel=0, data=[81, 0]),\n",
      "   midi.NoteOnEvent(tick=37632, channel=0, data=[78, 80]),\n",
      "   midi.NoteOffEvent(tick=96, channel=0, data=[78, 0]),\n",
      "   midi.NoteOnEvent(tick=0, channel=0, data=[79, 80]),\n",
      "   midi.NoteOffEvent(tick=96, channel=0, data=[79, 0]),\n",
      "   midi.NoteOnEvent(tick=0, channel=0, data=[81, 80]),\n",
      "   midi.NoteOffEvent(tick=96, channel=0, data=[81, 0]),\n",
      "   midi.NoteOnEvent(tick=96, channel=0, data=[81, 80]),\n",
      "   midi.NoteOffEvent(tick=96, channel=0, data=[81, 0]),\n",
      "   midi.NoteOnEvent(tick=96, channel=0, data=[81, 80]),\n",
      "   midi.NoteOffEvent(tick=96, channel=0, data=[81, 0]),\n",
      "   midi.NoteOnEvent(tick=96, channel=0, data=[81, 80]),\n",
      "   midi.NoteOffEvent(tick=384, channel=0, data=[81, 0]),\n",
      "   midi.NoteOnEvent(tick=192, channel=0, data=[69, 80]),\n",
      "   midi.NoteOffEvent(tick=192, channel=0, data=[69, 0]),\n",
      "   midi.NoteOnEvent(tick=0, channel=0, data=[74, 80]),\n",
      "   midi.NoteOffEvent(tick=48, channel=0, data=[74, 0]),\n",
      "   midi.NoteOnEvent(tick=0, channel=0, data=[76, 80]),\n",
      "   midi.NoteOffEvent(tick=48, channel=0, data=[76, 0]),\n",
      "   midi.NoteOnEvent(tick=0, channel=0, data=[78, 80]),\n",
      "   midi.NoteOffEvent(tick=256, channel=0, data=[78, 0]),\n",
      "   midi.NoteOnEvent(tick=32, channel=0, data=[76, 80]),\n",
      "   midi.NoteOffEvent(tick=48, channel=0, data=[76, 0]),\n",
      "   midi.NoteOnEvent(tick=0, channel=0, data=[78, 80]),\n",
      "   midi.NoteOffEvent(tick=48, channel=0, data=[78, 0]),\n",
      "   midi.NoteOnEvent(tick=0, channel=0, data=[79, 80]),\n",
      "   midi.NoteOffEvent(tick=256, channel=0, data=[79, 0]),\n",
      "   midi.NoteOnEvent(tick=32, channel=0, data=[78, 80]),\n",
      "   midi.NoteOffEvent(tick=48, channel=0, data=[78, 0]),\n",
      "   midi.NoteOnEvent(tick=0, channel=0, data=[76, 80]),\n",
      "   midi.NoteOffEvent(tick=48, channel=0, data=[76, 0]),\n",
      "   midi.NoteOnEvent(tick=0, channel=0, data=[74, 80]),\n",
      "   midi.NoteOffEvent(tick=352, channel=0, data=[74, 0]),\n",
      "   midi.NoteOnEvent(tick=32, channel=0, data=[69, 80]),\n",
      "   midi.NoteOffEvent(tick=96, channel=0, data=[69, 0]),\n",
      "   midi.NoteOnEvent(tick=0, channel=0, data=[74, 80]),\n",
      "   midi.NoteOffEvent(tick=96, channel=0, data=[74, 0]),\n",
      "   midi.NoteOnEvent(tick=0, channel=0, data=[76, 80]),\n",
      "   midi.NoteOffEvent(tick=96, channel=0, data=[76, 0]),\n",
      "   midi.NoteOnEvent(tick=0, channel=0, data=[78, 80]),\n",
      "   midi.NoteOffEvent(tick=96, channel=0, data=[78, 0]),\n",
      "   midi.NoteOnEvent(tick=0, channel=0, data=[79, 80]),\n",
      "   midi.NoteOffEvent(tick=96, channel=0, data=[79, 0]),\n",
      "   midi.NoteOnEvent(tick=0, channel=0, data=[81, 80]),\n",
      "   midi.NoteOffEvent(tick=96, channel=0, data=[81, 0]),\n",
      "   midi.NoteOnEvent(tick=96, channel=0, data=[81, 80]),\n",
      "   midi.NoteOffEvent(tick=96, channel=0, data=[81, 0]),\n",
      "   midi.NoteOnEvent(tick=96, channel=0, data=[81, 80]),\n",
      "   midi.NoteOffEvent(tick=96, channel=0, data=[81, 0]),\n",
      "   midi.NoteOnEvent(tick=96, channel=0, data=[81, 80]),\n",
      "   midi.NoteOffEvent(tick=384, channel=0, data=[81, 0]),\n",
      "   midi.NoteOnEvent(tick=4704, channel=0, data=[69, 80]),\n",
      "   midi.NoteOffEvent(tick=96, channel=0, data=[69, 0]),\n",
      "   midi.NoteOnEvent(tick=0, channel=0, data=[74, 80]),\n",
      "   midi.NoteOffEvent(tick=96, channel=0, data=[74, 0]),\n",
      "   midi.NoteOnEvent(tick=0, channel=0, data=[76, 80]),\n",
      "   midi.NoteOffEvent(tick=96, channel=0, data=[76, 0]),\n",
      "   midi.NoteOnEvent(tick=0, channel=0, data=[78, 80]),\n",
      "   midi.NoteOffEvent(tick=96, channel=0, data=[78, 0]),\n",
      "   midi.NoteOnEvent(tick=0, channel=0, data=[79, 80]),\n",
      "   midi.NoteOffEvent(tick=96, channel=0, data=[79, 0]),\n",
      "   midi.NoteOnEvent(tick=0, channel=0, data=[81, 80]),\n",
      "   midi.NoteOffEvent(tick=96, channel=0, data=[81, 0]),\n",
      "   midi.NoteOnEvent(tick=96, channel=0, data=[81, 80]),\n",
      "   midi.NoteOffEvent(tick=96, channel=0, data=[81, 0]),\n",
      "   midi.NoteOnEvent(tick=96, channel=0, data=[81, 80]),\n",
      "   midi.NoteOffEvent(tick=96, channel=0, data=[81, 0]),\n",
      "   midi.NoteOnEvent(tick=96, channel=0, data=[81, 80]),\n",
      "   midi.NoteOffEvent(tick=512, channel=0, data=[81, 0]),\n",
      "   midi.NoteOnEvent(tick=64, channel=0, data=[69, 80]),\n",
      "   midi.NoteOffEvent(tick=192, channel=0, data=[69, 0]),\n",
      "   midi.NoteOnEvent(tick=0, channel=0, data=[74, 80]),\n",
      "   midi.NoteOffEvent(tick=48, channel=0, data=[74, 0]),\n",
      "   midi.NoteOnEvent(tick=0, channel=0, data=[76, 80]),\n",
      "   midi.NoteOffEvent(tick=48, channel=0, data=[76, 0]),\n",
      "   midi.NoteOnEvent(tick=0, channel=0, data=[78, 80]),\n",
      "   midi.NoteOffEvent(tick=256, channel=0, data=[78, 0]),\n",
      "   midi.NoteOnEvent(tick=32, channel=0, data=[76, 80]),\n",
      "   midi.NoteOffEvent(tick=48, channel=0, data=[76, 0]),\n",
      "   midi.NoteOnEvent(tick=0, channel=0, data=[78, 80]),\n",
      "   midi.NoteOffEvent(tick=48, channel=0, data=[78, 0]),\n",
      "   midi.NoteOnEvent(tick=0, channel=0, data=[79, 80]),\n",
      "   midi.NoteOffEvent(tick=256, channel=0, data=[79, 0]),\n",
      "   midi.NoteOnEvent(tick=32, channel=0, data=[78, 80]),\n",
      "   midi.NoteOffEvent(tick=192, channel=0, data=[78, 0]),\n",
      "   midi.NoteOnEvent(tick=0, channel=0, data=[76, 80]),\n",
      "   midi.NoteOffEvent(tick=192, channel=0, data=[76, 0]),\n",
      "   midi.NoteOnEvent(tick=0, channel=0, data=[74, 80]),\n",
      "   midi.NoteOffEvent(tick=384, channel=0, data=[74, 0]),\n",
      "   midi.NoteOnEvent(tick=0, channel=0, data=[81, 80]),\n",
      "   midi.NoteOffEvent(tick=960, channel=0, data=[81, 0]),\n",
      "   midi.NoteOnEvent(tick=0, channel=0, data=[83, 80]),\n",
      "   midi.NoteOffEvent(tick=96, channel=0, data=[83, 0]),\n",
      "   midi.NoteOnEvent(tick=0, channel=0, data=[81, 80]),\n",
      "   midi.NoteOffEvent(tick=96, channel=0, data=[81, 0]),\n",
      "   midi.NoteOnEvent(tick=0, channel=0, data=[83, 80]),\n",
      "   midi.NoteOffEvent(tick=96, channel=0, data=[83, 0]),\n",
      "   midi.NoteOnEvent(tick=0, channel=0, data=[81, 80]),\n",
      "   midi.NoteOffEvent(tick=96, channel=0, data=[81, 0]),\n",
      "   midi.NoteOnEvent(tick=0, channel=0, data=[79, 80]),\n",
      "   midi.NoteOffEvent(tick=96, channel=0, data=[79, 0]),\n",
      "   midi.NoteOnEvent(tick=0, channel=0, data=[78, 80]),\n",
      "   midi.NoteOffEvent(tick=96, channel=0, data=[78, 0]),\n",
      "   midi.NoteOnEvent(tick=0, channel=0, data=[79, 80]),\n",
      "   midi.NoteOffEvent(tick=960, channel=0, data=[79, 0]),\n",
      "   midi.NoteOnEvent(tick=0, channel=0, data=[76, 80]),\n",
      "   midi.NoteOffEvent(tick=192, channel=0, data=[76, 0]),\n",
      "   midi.NoteOnEvent(tick=0, channel=0, data=[69, 80]),\n",
      "   midi.NoteOffEvent(tick=192, channel=0, data=[69, 0]),\n",
      "   midi.NoteOnEvent(tick=0, channel=0, data=[79, 80]),\n",
      "   midi.NoteOffEvent(tick=192, channel=0, data=[79, 0]),\n",
      "   midi.NoteOnEvent(tick=0, channel=0, data=[78, 80]),\n",
      "   midi.NoteOffEvent(tick=192, channel=0, data=[78, 0]),\n",
      "   midi.NoteOnEvent(tick=576, channel=0, data=[81, 80]),\n",
      "   midi.NoteOffEvent(tick=192, channel=0, data=[81, 0]),\n",
      "   midi.NoteOnEvent(tick=576, channel=0, data=[86, 80]),\n",
      "   midi.NoteOffEvent(tick=192, channel=0, data=[86, 0]),\n",
      "   midi.NoteOnEvent(tick=576, channel=0, data=[81, 80]),\n",
      "   midi.NoteOffEvent(tick=192, channel=0, data=[81, 0]),\n",
      "   midi.NoteOnEvent(tick=576, channel=0, data=[83, 80]),\n",
      "   midi.NoteOffEvent(tick=192, channel=0, data=[83, 0]),\n",
      "   midi.NoteOnEvent(tick=0, channel=0, data=[79, 80]),\n",
      "   midi.NoteOffEvent(tick=96, channel=0, data=[79, 0]),\n",
      "   midi.NoteOnEvent(tick=0, channel=0, data=[78, 80]),\n",
      "   midi.NoteOffEvent(tick=96, channel=0, data=[78, 0]),\n",
      "   midi.NoteOnEvent(tick=0, channel=0, data=[79, 80]),\n",
      "   midi.NoteOffEvent(tick=96, channel=0, data=[79, 0]),\n",
      "   midi.NoteOnEvent(tick=0, channel=0, data=[78, 80]),\n",
      "   midi.NoteOffEvent(tick=96, channel=0, data=[78, 0]),\n",
      "   midi.NoteOnEvent(tick=0, channel=0, data=[76, 80]),\n",
      "   midi.NoteOffEvent(tick=96, channel=0, data=[76, 0]),\n",
      "   midi.NoteOnEvent(tick=0, channel=0, data=[74, 80]),\n",
      "   midi.NoteOffEvent(tick=96, channel=0, data=[74, 0]),\n",
      "   midi.NoteOnEvent(tick=0, channel=0, data=[81, 80]),\n",
      "   midi.NoteOffEvent(tick=960, channel=0, data=[81, 0]),\n",
      "   midi.NoteOnEvent(tick=0, channel=0, data=[79, 80]),\n",
      "   midi.NoteOffEvent(tick=96, channel=0, data=[79, 0]),\n",
      "   midi.NoteOnEvent(tick=0, channel=0, data=[78, 80]),\n",
      "   midi.NoteOffEvent(tick=96, channel=0, data=[78, 0]),\n",
      "   midi.NoteOnEvent(tick=0, channel=0, data=[79, 80]),\n",
      "   midi.NoteOffEvent(tick=96, channel=0, data=[79, 0]),\n",
      "   midi.NoteOnEvent(tick=0, channel=0, data=[78, 80]),\n",
      "   midi.NoteOffEvent(tick=96, channel=0, data=[78, 0]),\n",
      "   midi.NoteOnEvent(tick=0, channel=0, data=[76, 80]),\n",
      "   midi.NoteOffEvent(tick=96, channel=0, data=[76, 0]),\n",
      "   midi.NoteOnEvent(tick=0, channel=0, data=[78, 80]),\n",
      "   midi.NoteOffEvent(tick=96, channel=0, data=[78, 0]),\n",
      "   midi.NoteOnEvent(tick=0, channel=0, data=[74, 80]),\n",
      "   midi.NoteOffEvent(tick=192, channel=0, data=[74, 0]),\n",
      "   midi.NoteOnEvent(tick=12288, channel=0, data=[66, 80]),\n",
      "   midi.NoteOffEvent(tick=96, channel=0, data=[66, 0]),\n",
      "   midi.NoteOnEvent(tick=0, channel=0, data=[66, 80]),\n",
      "   midi.NoteOffEvent(tick=96, channel=0, data=[66, 0]),\n",
      "   midi.NoteOnEvent(tick=0, channel=0, data=[69, 80]),\n",
      "   midi.NoteOffEvent(tick=96, channel=0, data=[69, 0]),\n",
      "   midi.NoteOnEvent(tick=0, channel=0, data=[69, 80]),\n",
      "   midi.NoteOffEvent(tick=96, channel=0, data=[69, 0]),\n",
      "   midi.NoteOnEvent(tick=0, channel=0, data=[74, 80]),\n",
      "   midi.NoteOffEvent(tick=96, channel=0, data=[74, 0]),\n",
      "   midi.NoteOnEvent(tick=0, channel=0, data=[74, 80]),\n",
      "   midi.NoteOffEvent(tick=96, channel=0, data=[74, 0]),\n",
      "   midi.NoteOnEvent(tick=0, channel=0, data=[78, 80]),\n",
      "   midi.NoteOffEvent(tick=96, channel=0, data=[78, 0]),\n",
      "   midi.NoteOnEvent(tick=0, channel=0, data=[79, 80]),\n",
      "   midi.NoteOffEvent(tick=96, channel=0, data=[79, 0]),\n",
      "   midi.NoteOnEvent(tick=0, channel=0, data=[81, 80]),\n",
      "   midi.NoteOffEvent(tick=96, channel=0, data=[81, 0]),\n",
      "   midi.NoteOnEvent(tick=96, channel=0, data=[81, 80]),\n",
      "   midi.NoteOffEvent(tick=96, channel=0, data=[81, 0]),\n",
      "   midi.NoteOnEvent(tick=96, channel=0, data=[81, 80]),\n",
      "   midi.NoteOffEvent(tick=96, channel=0, data=[81, 0]),\n",
      "   midi.NoteOnEvent(tick=96, channel=0, data=[81, 80]),\n",
      "   midi.NoteOffEvent(tick=384, channel=0, data=[81, 0]),\n",
      "   midi.NoteOnEvent(tick=192, channel=0, data=[69, 80]),\n",
      "   midi.NoteOffEvent(tick=192, channel=0, data=[69, 0]),\n",
      "   midi.NoteOnEvent(tick=0, channel=0, data=[74, 80]),\n",
      "   midi.NoteOffEvent(tick=48, channel=0, data=[74, 0]),\n",
      "   midi.NoteOnEvent(tick=0, channel=0, data=[76, 80]),\n",
      "   midi.NoteOffEvent(tick=48, channel=0, data=[76, 0]),\n",
      "   midi.NoteOnEvent(tick=0, channel=0, data=[78, 80]),\n",
      "   midi.NoteOffEvent(tick=256, channel=0, data=[78, 0]),\n",
      "   midi.NoteOnEvent(tick=32, channel=0, data=[76, 80]),\n",
      "   midi.NoteOffEvent(tick=48, channel=0, data=[76, 0]),\n",
      "   midi.NoteOnEvent(tick=0, channel=0, data=[78, 80]),\n",
      "   midi.NoteOffEvent(tick=48, channel=0, data=[78, 0]),\n",
      "   midi.NoteOnEvent(tick=0, channel=0, data=[79, 80]),\n",
      "   midi.NoteOffEvent(tick=256, channel=0, data=[79, 0]),\n",
      "   midi.NoteOnEvent(tick=32, channel=0, data=[78, 80]),\n",
      "   midi.NoteOffEvent(tick=48, channel=0, data=[78, 0]),\n",
      "   midi.NoteOnEvent(tick=0, channel=0, data=[76, 80]),\n",
      "   midi.NoteOffEvent(tick=48, channel=0, data=[76, 0]),\n",
      "   midi.NoteOnEvent(tick=0, channel=0, data=[74, 80]),\n",
      "   midi.NoteOffEvent(tick=352, channel=0, data=[74, 0]),\n",
      "   midi.NoteOnEvent(tick=32, channel=0, data=[69, 80]),\n",
      "   midi.NoteOffEvent(tick=96, channel=0, data=[69, 0]),\n",
      "   midi.NoteOnEvent(tick=0, channel=0, data=[74, 80]),\n",
      "   midi.NoteOffEvent(tick=96, channel=0, data=[74, 0]),\n",
      "   midi.NoteOnEvent(tick=0, channel=0, data=[76, 80]),\n",
      "   midi.NoteOffEvent(tick=96, channel=0, data=[76, 0]),\n",
      "   midi.NoteOnEvent(tick=0, channel=0, data=[78, 80]),\n",
      "   midi.NoteOffEvent(tick=96, channel=0, data=[78, 0]),\n",
      "   midi.NoteOnEvent(tick=0, channel=0, data=[79, 80]),\n",
      "   midi.NoteOffEvent(tick=96, channel=0, data=[79, 0]),\n",
      "   midi.NoteOnEvent(tick=0, channel=0, data=[81, 80]),\n",
      "   midi.NoteOffEvent(tick=96, channel=0, data=[81, 0]),\n",
      "   midi.NoteOnEvent(tick=96, channel=0, data=[81, 80]),\n",
      "   midi.NoteOffEvent(tick=96, channel=0, data=[81, 0]),\n",
      "   midi.NoteOnEvent(tick=96, channel=0, data=[81, 80]),\n",
      "   midi.NoteOffEvent(tick=96, channel=0, data=[81, 0]),\n",
      "   midi.NoteOnEvent(tick=96, channel=0, data=[81, 80]),\n",
      "   midi.NoteOffEvent(tick=384, channel=0, data=[81, 0]),\n",
      "   midi.NoteOnEvent(tick=192, channel=0, data=[69, 80]),\n",
      "   midi.NoteOffEvent(tick=192, channel=0, data=[69, 0]),\n",
      "   midi.NoteOnEvent(tick=0, channel=0, data=[74, 80]),\n",
      "   midi.NoteOffEvent(tick=48, channel=0, data=[74, 0]),\n",
      "   midi.NoteOnEvent(tick=0, channel=0, data=[76, 80]),\n",
      "   midi.NoteOffEvent(tick=48, channel=0, data=[76, 0]),\n",
      "   midi.NoteOnEvent(tick=0, channel=0, data=[78, 80]),\n",
      "   midi.NoteOffEvent(tick=256, channel=0, data=[78, 0]),\n",
      "   midi.NoteOnEvent(tick=32, channel=0, data=[76, 80]),\n",
      "   midi.NoteOffEvent(tick=48, channel=0, data=[76, 0]),\n",
      "   midi.NoteOnEvent(tick=0, channel=0, data=[78, 80]),\n",
      "   midi.NoteOffEvent(tick=48, channel=0, data=[78, 0]),\n",
      "   midi.NoteOnEvent(tick=0, channel=0, data=[79, 80]),\n",
      "   midi.NoteOffEvent(tick=256, channel=0, data=[79, 0]),\n",
      "   midi.NoteOnEvent(tick=32, channel=0, data=[78, 80]),\n",
      "   midi.NoteOffEvent(tick=48, channel=0, data=[78, 0]),\n",
      "   midi.NoteOnEvent(tick=0, channel=0, data=[76, 80]),\n",
      "   midi.NoteOffEvent(tick=48, channel=0, data=[76, 0]),\n",
      "   midi.NoteOnEvent(tick=0, channel=0, data=[74, 80]),\n",
      "   midi.NoteOffEvent(tick=352, channel=0, data=[74, 0]),\n",
      "   midi.NoteOnEvent(tick=32, channel=0, data=[69, 80]),\n",
      "   midi.NoteOffEvent(tick=96, channel=0, data=[69, 0]),\n",
      "   midi.NoteOnEvent(tick=0, channel=0, data=[74, 80]),\n",
      "   midi.NoteOffEvent(tick=96, channel=0, data=[74, 0]),\n",
      "   midi.NoteOnEvent(tick=0, channel=0, data=[76, 80]),\n",
      "   midi.NoteOffEvent(tick=96, channel=0, data=[76, 0]),\n",
      "   midi.NoteOnEvent(tick=0, channel=0, data=[78, 80]),\n",
      "   midi.NoteOffEvent(tick=96, channel=0, data=[78, 0]),\n",
      "   midi.NoteOnEvent(tick=0, channel=0, data=[79, 80]),\n",
      "   midi.NoteOffEvent(tick=96, channel=0, data=[79, 0]),\n",
      "   midi.NoteOnEvent(tick=0, channel=0, data=[78, 80]),\n",
      "   midi.NoteOffEvent(tick=96, channel=0, data=[78, 0]),\n",
      "   midi.NoteOnEvent(tick=96, channel=0, data=[78, 80]),\n",
      "   midi.NoteOffEvent(tick=96, channel=0, data=[78, 0]),\n",
      "   midi.NoteOnEvent(tick=96, channel=0, data=[78, 80]),\n",
      "   midi.NoteOffEvent(tick=96, channel=0, data=[78, 0]),\n",
      "   midi.NoteOnEvent(tick=96, channel=0, data=[78, 80]),\n",
      "   midi.NoteOffEvent(tick=192, channel=0, data=[78, 0]),\n",
      "   midi.NoteOnEvent(tick=0, channel=0, data=[83, 80]),\n",
      "   midi.NoteOffEvent(tick=96, channel=0, data=[83, 0]),\n",
      "   midi.NoteOnEvent(tick=0, channel=0, data=[81, 80]),\n",
      "   midi.NoteOffEvent(tick=96, channel=0, data=[81, 0]),\n",
      "   midi.NoteOnEvent(tick=0, channel=0, data=[83, 80]),\n",
      "   midi.NoteOffEvent(tick=96, channel=0, data=[83, 0]),\n",
      "   midi.NoteOnEvent(tick=0, channel=0, data=[81, 80]),\n",
      "   midi.NoteOffEvent(tick=96, channel=0, data=[81, 0]),\n",
      "   midi.NoteOnEvent(tick=0, channel=0, data=[80, 80]),\n",
      "   midi.NoteOffEvent(tick=96, channel=0, data=[80, 0]),\n",
      "   midi.NoteOnEvent(tick=0, channel=0, data=[78, 80]),\n",
      "   midi.NoteOffEvent(tick=96, channel=0, data=[78, 0]),\n",
      "   midi.NoteOnEvent(tick=0, channel=0, data=[76, 80]),\n",
      "   midi.NoteOffEvent(tick=96, channel=0, data=[76, 0]),\n",
      "   midi.NoteOnEvent(tick=0, channel=0, data=[78, 80]),\n",
      "   midi.NoteOffEvent(tick=96, channel=0, data=[78, 0]),\n",
      "   midi.NoteOnEvent(tick=0, channel=0, data=[76, 80]),\n",
      "   midi.NoteOffEvent(tick=96, channel=0, data=[76, 0]),\n",
      "   midi.NoteOnEvent(tick=0, channel=0, data=[76, 80]),\n",
      "   midi.NoteOffEvent(tick=96, channel=0, data=[76, 0]),\n",
      "   midi.NoteOnEvent(tick=0, channel=0, data=[76, 80]),\n",
      "   midi.NoteOffEvent(tick=96, channel=0, data=[76, 0]),\n",
      "   midi.NoteOnEvent(tick=96, channel=0, data=[76, 80]),\n",
      "   midi.NoteOffEvent(tick=192, channel=0, data=[76, 0]),\n",
      "   midi.NoteOnEvent(tick=0, channel=0, data=[81, 80]),\n",
      "   midi.NoteOffEvent(tick=96, channel=0, data=[81, 0]),\n",
      "   midi.NoteOnEvent(tick=0, channel=0, data=[80, 80]),\n",
      "   midi.NoteOffEvent(tick=96, channel=0, data=[80, 0]),\n",
      "   midi.NoteOnEvent(tick=0, channel=0, data=[81, 80]),\n",
      "   midi.NoteOffEvent(tick=96, channel=0, data=[81, 0]),\n",
      "   midi.NoteOnEvent(tick=0, channel=0, data=[80, 80]),\n",
      "   midi.NoteOffEvent(tick=96, channel=0, data=[80, 0]),\n",
      "   midi.NoteOnEvent(tick=0, channel=0, data=[78, 80]),\n",
      "   midi.NoteOffEvent(tick=96, channel=0, data=[78, 0]),\n",
      "   midi.NoteOnEvent(tick=0, channel=0, data=[76, 80]),\n",
      "   midi.NoteOffEvent(tick=96, channel=0, data=[76, 0]),\n",
      "   midi.NoteOnEvent(tick=0, channel=0, data=[74, 80]),\n",
      "   midi.NoteOffEvent(tick=96, channel=0, data=[74, 0]),\n",
      "   midi.NoteOnEvent(tick=0, channel=0, data=[76, 80]),\n",
      "   midi.NoteOffEvent(tick=96, channel=0, data=[76, 0]),\n",
      "   midi.NoteOnEvent(tick=0, channel=0, data=[74, 80]),\n",
      "   midi.NoteOffEvent(tick=96, channel=0, data=[74, 0]),\n",
      "   midi.NoteOnEvent(tick=96, channel=0, data=[74, 80]),\n",
      "   midi.NoteOffEvent(tick=96, channel=0, data=[74, 0]),\n",
      "   midi.NoteOnEvent(tick=96, channel=0, data=[74, 80]),\n",
      "   midi.NoteOffEvent(tick=96, channel=0, data=[74, 0]),\n",
      "   midi.NoteOnEvent(tick=96, channel=0, data=[86, 80]),\n",
      "   midi.NoteOffEvent(tick=512, channel=0, data=[86, 0]),\n",
      "   midi.NoteOnEvent(tick=64, channel=0, data=[85, 80]),\n",
      "   midi.NoteOffEvent(tick=96, channel=0, data=[85, 0]),\n",
      "   midi.NoteOnEvent(tick=0, channel=0, data=[83, 80]),\n",
      "   midi.NoteOffEvent(tick=96, channel=0, data=[83, 0]),\n",
      "   midi.NoteOnEvent(tick=0, channel=0, data=[85, 80]),\n",
      "   midi.NoteOffEvent(tick=192, channel=0, data=[85, 0]),\n",
      "   midi.NoteOnEvent(tick=0, channel=0, data=[81, 80]),\n",
      "   midi.NoteOffEvent(tick=192, channel=0, data=[81, 0]),\n",
      "   midi.NoteOnEvent(tick=0, channel=0, data=[76, 80]),\n",
      "   midi.NoteOffEvent(tick=192, channel=0, data=[76, 0]),\n",
      "   midi.NoteOnEvent(tick=0, channel=0, data=[80, 80]),\n",
      "   midi.NoteOffEvent(tick=192, channel=0, data=[80, 0]),\n",
      "   midi.NoteOnEvent(tick=0, channel=0, data=[81, 80]),\n",
      "   midi.NoteOffEvent(tick=768, channel=0, data=[81, 0]),\n",
      "   midi.EndOfTrackEvent(tick=0, data=[])]),\n",
      " midi.Track(\\\n",
      "  [midi.TrackNameEvent(tick=0, text='Tromba II', data=[84, 114, 111, 109, 98, 97, 32, 73, 73]),\n",
      "   midi.ControlChangeEvent(tick=0, channel=0, data=[0, 0]),\n",
      "   midi.ProgramChangeEvent(tick=0, channel=0, data=[56]),\n",
      "   midi.ControlChangeEvent(tick=0, channel=0, data=[7, 127]),\n",
      "   midi.ControlChangeEvent(tick=0, channel=0, data=[10, 61]),\n",
      "   midi.ControlChangeEvent(tick=0, channel=0, data=[91, 127]),\n",
      "   midi.ControlChangeEvent(tick=0, channel=0, data=[93, 127]),\n",
      "   midi.KeySignatureEvent(tick=0, data=[2, 0]),\n",
      "   midi.NoteOnEvent(tick=768, channel=0, data=[74, 80]),\n",
      "   midi.NoteOffEvent(tick=96, channel=0, data=[74, 0]),\n",
      "   midi.NoteOnEvent(tick=0, channel=0, data=[76, 80]),\n",
      "   midi.NoteOffEvent(tick=96, channel=0, data=[76, 0]),\n",
      "   midi.NoteOnEvent(tick=0, channel=0, data=[78, 80]),\n",
      "   midi.NoteOffEvent(tick=192, channel=0, data=[78, 0]),\n",
      "   midi.NoteOnEvent(tick=192, channel=0, data=[69, 80]),\n",
      "   midi.NoteOffEvent(tick=192, channel=0, data=[69, 0]),\n",
      "   midi.NoteOnEvent(tick=0, channel=0, data=[66, 80]),\n",
      "   midi.NoteOffEvent(tick=192, channel=0, data=[66, 0]),\n",
      "   midi.NoteOnEvent(tick=0, channel=0, data=[62, 80]),\n",
      "   midi.NoteOffEvent(tick=192, channel=0, data=[62, 0]),\n",
      "   midi.NoteOnEvent(tick=0, channel=0, data=[66, 80]),\n",
      "   midi.NoteOffEvent(tick=192, channel=0, data=[66, 0]),\n",
      "   midi.NoteOnEvent(tick=0, channel=0, data=[69, 80]),\n",
      "   midi.NoteOffEvent(tick=192, channel=0, data=[69, 0]),\n",
      "   midi.NoteOnEvent(tick=0, channel=0, data=[69, 80]),\n",
      "   midi.NoteOffEvent(tick=192, channel=0, data=[69, 0]),\n",
      "   midi.NoteOnEvent(tick=384, channel=0, data=[76, 80]),\n",
      "   midi.NoteOffEvent(tick=192, channel=0, data=[76, 0]),\n",
      "   midi.NoteOnEvent(tick=0, channel=0, data=[74, 80]),\n",
      "   midi.NoteOffEvent(tick=192, channel=0, data=[74, 0]),\n",
      "   midi.NoteOnEvent(tick=384, channel=0, data=[69, 80]),\n",
      "   midi.NoteOffEvent(tick=192, channel=0, data=[69, 0]),\n",
      "   midi.NoteOnEvent(tick=0, channel=0, data=[74, 80]),\n",
      "   midi.NoteOffEvent(tick=96, channel=0, data=[74, 0]),\n",
      "   midi.NoteOnEvent(tick=0, channel=0, data=[76, 80]),\n",
      "   midi.NoteOffEvent(tick=96, channel=0, data=[76, 0]),\n",
      "   midi.NoteOnEvent(tick=0, channel=0, data=[78, 80]),\n",
      "   midi.NoteOffEvent(tick=192, channel=0, data=[78, 0]),\n",
      "   midi.NoteOnEvent(tick=192, channel=0, data=[69, 80]),\n",
      "   midi.NoteOffEvent(tick=192, channel=0, data=[69, 0]),\n",
      "   midi.NoteOnEvent(tick=0, channel=0, data=[66, 80]),\n",
      "   midi.NoteOffEvent(tick=192, channel=0, data=[66, 0]),\n",
      "   midi.NoteOnEvent(tick=0, channel=0, data=[62, 80]),\n",
      "   midi.NoteOffEvent(tick=192, channel=0, data=[62, 0]),\n",
      "   midi.NoteOnEvent(tick=0, channel=0, data=[66, 80]),\n",
      "   midi.NoteOffEvent(tick=192, channel=0, data=[66, 0]),\n",
      "   midi.NoteOnEvent(tick=0, channel=0, data=[69, 80]),\n",
      "   midi.NoteOffEvent(tick=192, channel=0, data=[69, 0]),\n",
      "   midi.NoteOnEvent(tick=0, channel=0, data=[69, 80]),\n",
      "   midi.NoteOffEvent(tick=192, channel=0, data=[69, 0]),\n",
      "   midi.NoteOnEvent(tick=384, channel=0, data=[76, 80]),\n",
      "   midi.NoteOffEvent(tick=192, channel=0, data=[76, 0]),\n",
      "   midi.NoteOnEvent(tick=0, channel=0, data=[74, 80]),\n",
      "   midi.NoteOffEvent(tick=192, channel=0, data=[74, 0]),\n",
      "   midi.NoteOnEvent(tick=384, channel=0, data=[69, 80]),\n",
      "   midi.NoteOffEvent(tick=192, channel=0, data=[69, 0]),\n",
      "   midi.NoteOnEvent(tick=0, channel=0, data=[74, 80]),\n",
      "   midi.NoteOffEvent(tick=96, channel=0, data=[74, 0]),\n",
      "   midi.NoteOnEvent(tick=0, channel=0, data=[76, 80]),\n",
      "   midi.NoteOffEvent(tick=96, channel=0, data=[76, 0]),\n",
      "   midi.NoteOnEvent(tick=0, channel=0, data=[74, 80]),\n",
      "   midi.NoteOffEvent(tick=96, channel=0, data=[74, 0]),\n",
      "   midi.NoteOnEvent(tick=96, channel=0, data=[74, 80]),\n",
      "   midi.NoteOffEvent(tick=96, channel=0, data=[74, 0]),\n",
      "   midi.NoteOnEvent(tick=96, channel=0, data=[74, 80]),\n",
      "   midi.NoteOffEvent(tick=96, channel=0, data=[74, 0]),\n",
      "   midi.NoteOnEvent(tick=96, channel=0, data=[74, 80]),\n",
      "   midi.NoteOffEvent(tick=192, channel=0, data=[74, 0]),\n",
      "   midi.NoteOnEvent(tick=2304, channel=0, data=[78, 80]),\n",
      "   midi.NoteOffEvent(tick=192, channel=0, data=[78, 0]),\n",
      "   midi.NoteOnEvent(tick=0, channel=0, data=[80, 80]),\n",
      "   midi.NoteOffEvent(tick=192, channel=0, data=[80, 0]),\n",
      "   midi.NoteOnEvent(tick=0, channel=0, data=[81, 80]),\n",
      "   midi.NoteOffEvent(tick=192, channel=0, data=[81, 0]),\n",
      "   midi.NoteOnEvent(tick=0, channel=0, data=[83, 80]),\n",
      "   midi.NoteOffEvent(tick=512, channel=0, data=[83, 0]),\n",
      "   midi.NoteOnEvent(tick=64, channel=0, data=[81, 80]),\n",
      "   midi.NoteOffEvent(tick=96, channel=0, data=[81, 0]),\n",
      "   midi.NoteOnEvent(tick=0, channel=0, data=[80, 80]),\n",
      "   midi.NoteOffEvent(tick=96, channel=0, data=[80, 0]),\n",
      "   midi.NoteOnEvent(tick=0, channel=0, data=[81, 80]),\n",
      "   midi.NoteOffEvent(tick=192, channel=0, data=[81, 0]),\n",
      "   midi.NoteOnEvent(tick=0, channel=0, data=[76, 80]),\n",
      "   midi.NoteOffEvent(tick=192, channel=0, data=[76, 0]),\n",
      "   midi.NoteOnEvent(tick=0, channel=0, data=[76, 80]),\n",
      "   midi.NoteOffEvent(tick=192, channel=0, data=[76, 0]),\n",
      "   midi.NoteOnEvent(tick=0, channel=0, data=[76, 80]),\n",
      "   midi.NoteOffEvent(tick=192, channel=0, data=[76, 0]),\n",
      "   midi.NoteOnEvent(tick=0, channel=0, data=[76, 80]),\n",
      "   midi.NoteOffEvent(tick=768, channel=0, data=[76, 0]),\n",
      "   midi.NoteOnEvent(tick=1152, channel=0, data=[79, 80]),\n",
      "   midi.NoteOffEvent(tick=192, channel=0, data=[79, 0]),\n",
      "   midi.NoteOnEvent(tick=0, channel=0, data=[73, 80]),\n",
      "   midi.NoteOffEvent(tick=192, channel=0, data=[73, 0]),\n",
      "   midi.NoteOnEvent(tick=7872, channel=0, data=[69, 80]),\n",
      "   midi.NoteOffEvent(tick=192, channel=0, data=[69, 0]),\n",
      "   midi.NoteOnEvent(tick=0, channel=0, data=[69, 80]),\n",
      "   midi.NoteOffEvent(tick=192, channel=0, data=[69, 0]),\n",
      "   midi.NoteOnEvent(tick=0, channel=0, data=[76, 80]),\n",
      "   midi.NoteOffEvent(tick=192, channel=0, data=[76, 0]),\n",
      "   midi.NoteOnEvent(tick=0, channel=0, data=[76, 80]),\n",
      "   midi.NoteOffEvent(tick=512, channel=0, data=[76, 0]),\n",
      "   midi.NoteOnEvent(tick=64, channel=0, data=[74, 80]),\n",
      "   midi.NoteOffEvent(tick=96, channel=0, data=[74, 0]),\n",
      "   midi.NoteOnEvent(tick=0, channel=0, data=[73, 80]),\n",
      "   midi.NoteOffEvent(tick=96, channel=0, data=[73, 0]),\n",
      "   midi.NoteOnEvent(tick=0, channel=0, data=[74, 80]),\n",
      "   midi.NoteOffEvent(tick=192, channel=0, data=[74, 0]),\n",
      "   midi.NoteOnEvent(tick=0, channel=0, data=[74, 80]),\n",
      "   midi.NoteOffEvent(tick=192, channel=0, data=[74, 0]),\n",
      "   midi.NoteOnEvent(tick=0, channel=0, data=[74, 80]),\n",
      "   midi.NoteOffEvent(tick=192, channel=0, data=[74, 0]),\n",
      "   midi.NoteOnEvent(tick=0, channel=0, data=[69, 80]),\n",
      "   midi.NoteOffEvent(tick=192, channel=0, data=[69, 0]),\n",
      "   midi.NoteOnEvent(tick=0, channel=0, data=[69, 80]),\n",
      "   midi.NoteOffEvent(tick=384, channel=0, data=[69, 0]),\n",
      "   midi.NoteOnEvent(tick=6528, channel=0, data=[74, 80]),\n",
      "   midi.NoteOffEvent(tick=96, channel=0, data=[74, 0]),\n",
      "   midi.NoteOnEvent(tick=0, channel=0, data=[76, 80]),\n",
      "   midi.NoteOffEvent(tick=96, channel=0, data=[76, 0]),\n",
      "   midi.NoteOnEvent(tick=0, channel=0, data=[78, 80]),\n",
      "   midi.NoteOffEvent(tick=96, channel=0, data=[78, 0]),\n",
      "   midi.NoteOnEvent(tick=96, channel=0, data=[78, 80]),\n",
      "   midi.NoteOffEvent(tick=96, channel=0, data=[78, 0]),\n",
      "   midi.NoteOnEvent(tick=96, channel=0, data=[69, 80]),\n",
      "   midi.NoteOffEvent(tick=192, channel=0, data=[69, 0]),\n",
      "   midi.NoteOnEvent(tick=0, channel=0, data=[66, 80]),\n",
      "   midi.NoteOffEvent(tick=192, channel=0, data=[66, 0]),\n",
      "   midi.NoteOnEvent(tick=0, channel=0, data=[62, 80]),\n",
      "   midi.NoteOffEvent(tick=192, channel=0, data=[62, 0]),\n",
      "   midi.NoteOnEvent(tick=0, channel=0, data=[66, 80]),\n",
      "   midi.NoteOffEvent(tick=192, channel=0, data=[66, 0]),\n",
      "   midi.NoteOnEvent(tick=0, channel=0, data=[69, 80]),\n",
      "   midi.NoteOffEvent(tick=192, channel=0, data=[69, 0]),\n",
      "   midi.NoteOnEvent(tick=0, channel=0, data=[69, 80]),\n",
      "   midi.NoteOffEvent(tick=192, channel=0, data=[69, 0]),\n",
      "   midi.NoteOnEvent(tick=384, channel=0, data=[76, 80]),\n",
      "   midi.NoteOffEvent(tick=192, channel=0, data=[76, 0]),\n",
      "   midi.NoteOnEvent(tick=0, channel=0, data=[74, 80]),\n",
      "   midi.NoteOffEvent(tick=192, channel=0, data=[74, 0]),\n",
      "   midi.NoteOnEvent(tick=960, channel=0, data=[78, 80]),\n",
      "   midi.NoteOffEvent(tick=576, channel=0, data=[78, 0]),\n",
      "   midi.NoteOnEvent(tick=0, channel=0, data=[74, 80]),\n",
      "   midi.NoteOffEvent(tick=192, channel=0, data=[74, 0]),\n",
      "   midi.NoteOnEvent(tick=0, channel=0, data=[66, 80]),\n",
      "   midi.NoteOffEvent(tick=192, channel=0, data=[66, 0]),\n",
      "   midi.NoteOnEvent(tick=576, channel=0, data=[76, 80]),\n",
      "   midi.NoteOffEvent(tick=576, channel=0, data=[76, 0]),\n",
      "   midi.NoteOnEvent(tick=0, channel=0, data=[69, 80]),\n",
      "   midi.NoteOffEvent(tick=192, channel=0, data=[69, 0]),\n",
      "   midi.NoteOnEvent(tick=0, channel=0, data=[81, 80]),\n",
      "   midi.NoteOffEvent(tick=192, channel=0, data=[81, 0]),\n",
      "   midi.NoteOnEvent(tick=192, channel=0, data=[74, 80]),\n",
      "   midi.NoteOffEvent(tick=96, channel=0, data=[74, 0]),\n",
      "   midi.NoteOnEvent(tick=0, channel=0, data=[76, 80]),\n",
      "   midi.NoteOffEvent(tick=96, channel=0, data=[76, 0]),\n",
      "   midi.NoteOnEvent(tick=0, channel=0, data=[74, 80]),\n",
      "   midi.NoteOffEvent(tick=96, channel=0, data=[74, 0]),\n",
      "   midi.NoteOnEvent(tick=96, channel=0, data=[74, 80]),\n",
      "   midi.NoteOffEvent(tick=96, channel=0, data=[74, 0]),\n",
      "   midi.NoteOnEvent(tick=96, channel=0, data=[74, 80]),\n",
      "   midi.NoteOffEvent(tick=96, channel=0, data=[74, 0]),\n",
      "   midi.NoteOnEvent(tick=96, channel=0, data=[74, 80]),\n",
      "   midi.NoteOffEvent(tick=192, channel=0, data=[74, 0]),\n",
      "   midi.NoteOnEvent(tick=2304, channel=0, data=[78, 80]),\n",
      "   midi.NoteOffEvent(tick=192, channel=0, data=[78, 0]),\n",
      "   midi.NoteOnEvent(tick=0, channel=0, data=[80, 80]),\n",
      "   midi.NoteOffEvent(tick=192, channel=0, data=[80, 0]),\n",
      "   midi.NoteOnEvent(tick=0, channel=0, data=[81, 80]),\n",
      "   midi.NoteOffEvent(tick=192, channel=0, data=[81, 0]),\n",
      "   midi.NoteOnEvent(tick=0, channel=0, data=[83, 80]),\n",
      "   midi.NoteOffEvent(tick=512, channel=0, data=[83, 0]),\n",
      "   midi.NoteOnEvent(tick=64, channel=0, data=[81, 80]),\n",
      "   midi.NoteOffEvent(tick=96, channel=0, data=[81, 0]),\n",
      "   midi.NoteOnEvent(tick=0, channel=0, data=[80, 80]),\n",
      "   midi.NoteOffEvent(tick=96, channel=0, data=[80, 0]),\n",
      "   midi.NoteOnEvent(tick=0, channel=0, data=[81, 80]),\n",
      "   midi.NoteOffEvent(tick=192, channel=0, data=[81, 0]),\n",
      "   midi.NoteOnEvent(tick=0, channel=0, data=[76, 80]),\n",
      "   midi.NoteOffEvent(tick=192, channel=0, data=[76, 0]),\n",
      "   midi.NoteOnEvent(tick=0, channel=0, data=[76, 80]),\n",
      "   midi.NoteOffEvent(tick=192, channel=0, data=[76, 0]),\n",
      "   midi.NoteOnEvent(tick=0, channel=0, data=[76, 80]),\n",
      "   midi.NoteOffEvent(tick=192, channel=0, data=[76, 0]),\n",
      "   midi.NoteOnEvent(tick=0, channel=0, data=[76, 80]),\n",
      "   midi.NoteOffEvent(tick=192, channel=0, data=[76, 0]),\n",
      "   midi.NoteOnEvent(tick=14208, channel=0, data=[76, 80]),\n",
      "   midi.NoteOffEvent(tick=192, channel=0, data=[76, 0]),\n",
      "   midi.NoteOnEvent(tick=0, channel=0, data=[81, 80]),\n",
      "   midi.NoteOffEvent(tick=192, channel=0, data=[81, 0]),\n",
      "   midi.NoteOnEvent(tick=192, channel=0, data=[80, 80]),\n",
      "   midi.NoteOffEvent(tick=192, channel=0, data=[80, 0]),\n",
      "   midi.NoteOnEvent(tick=192, channel=0, data=[76, 80]),\n",
      "   midi.NoteOffEvent(tick=192, channel=0, data=[76, 0]),\n",
      "   midi.NoteOnEvent(tick=1920, channel=0, data=[76, 80]),\n",
      "   midi.NoteOffEvent(tick=192, channel=0, data=[76, 0]),\n",
      "   midi.NoteOnEvent(tick=0, channel=0, data=[81, 80]),\n",
      "   midi.NoteOffEvent(tick=192, channel=0, data=[81, 0]),\n",
      "   midi.NoteOnEvent(tick=192, channel=0, data=[80, 80]),\n",
      "   midi.NoteOffEvent(tick=192, channel=0, data=[80, 0]),\n",
      "   midi.NoteOnEvent(tick=192, channel=0, data=[76, 80]),\n",
      "   midi.NoteOffEvent(tick=192, channel=0, data=[76, 0]),\n",
      "   midi.NoteOnEvent(tick=4992, channel=0, data=[81, 80]),\n",
      "   midi.NoteOffEvent(tick=96, channel=0, data=[81, 0]),\n",
      "   midi.NoteOnEvent(tick=0, channel=0, data=[80, 80]),\n",
      "   midi.NoteOffEvent(tick=96, channel=0, data=[80, 0]),\n",
      "   midi.NoteOnEvent(tick=0, channel=0, data=[81, 80]),\n",
      "   midi.NoteOffEvent(tick=192, channel=0, data=[81, 0]),\n",
      "   midi.NoteOnEvent(tick=0, channel=0, data=[76, 80]),\n",
      "   midi.NoteOffEvent(tick=192, channel=0, data=[76, 0]),\n",
      "   midi.NoteOnEvent(tick=0, channel=0, data=[76, 80]),\n",
      "   midi.NoteOffEvent(tick=192, channel=0, data=[76, 0]),\n",
      "   midi.NoteOnEvent(tick=0, channel=0, data=[76, 80]),\n",
      "   midi.NoteOffEvent(tick=192, channel=0, data=[76, 0]),\n",
      "   midi.NoteOnEvent(tick=0, channel=0, data=[76, 80]),\n",
      "   midi.NoteOffEvent(tick=768, channel=0, data=[76, 0]),\n",
      "   midi.NoteOnEvent(tick=37632, channel=0, data=[74, 80]),\n",
      "   midi.NoteOffEvent(tick=96, channel=0, data=[74, 0]),\n",
      "   midi.NoteOnEvent(tick=0, channel=0, data=[76, 80]),\n",
      "   midi.NoteOffEvent(tick=96, channel=0, data=[76, 0]),\n",
      "   midi.NoteOnEvent(tick=0, channel=0, data=[78, 80]),\n",
      "   midi.NoteOffEvent(tick=192, channel=0, data=[78, 0]),\n",
      "   midi.NoteOnEvent(tick=192, channel=0, data=[69, 80]),\n",
      "   midi.NoteOffEvent(tick=192, channel=0, data=[69, 0]),\n",
      "   midi.NoteOnEvent(tick=0, channel=0, data=[66, 80]),\n",
      "   midi.NoteOffEvent(tick=192, channel=0, data=[66, 0]),\n",
      "   midi.NoteOnEvent(tick=0, channel=0, data=[62, 80]),\n",
      "   midi.NoteOffEvent(tick=192, channel=0, data=[62, 0]),\n",
      "   midi.NoteOnEvent(tick=0, channel=0, data=[66, 80]),\n",
      "   midi.NoteOffEvent(tick=192, channel=0, data=[66, 0]),\n",
      "   midi.NoteOnEvent(tick=0, channel=0, data=[69, 80]),\n",
      "   midi.NoteOffEvent(tick=192, channel=0, data=[69, 0]),\n",
      "   midi.NoteOnEvent(tick=0, channel=0, data=[69, 80]),\n",
      "   midi.NoteOffEvent(tick=192, channel=0, data=[69, 0]),\n",
      "   midi.NoteOnEvent(tick=384, channel=0, data=[76, 80]),\n",
      "   midi.NoteOffEvent(tick=192, channel=0, data=[76, 0]),\n",
      "   midi.NoteOnEvent(tick=0, channel=0, data=[74, 80]),\n",
      "   midi.NoteOffEvent(tick=192, channel=0, data=[74, 0]),\n",
      "   midi.NoteOnEvent(tick=384, channel=0, data=[69, 80]),\n",
      "   midi.NoteOffEvent(tick=192, channel=0, data=[69, 0]),\n",
      "   midi.NoteOnEvent(tick=0, channel=0, data=[74, 80]),\n",
      "   midi.NoteOffEvent(tick=96, channel=0, data=[74, 0]),\n",
      "   midi.NoteOnEvent(tick=0, channel=0, data=[76, 80]),\n",
      "   midi.NoteOffEvent(tick=96, channel=0, data=[76, 0]),\n",
      "   midi.NoteOnEvent(tick=0, channel=0, data=[78, 80]),\n",
      "   midi.NoteOffEvent(tick=96, channel=0, data=[78, 0]),\n",
      "   midi.NoteOnEvent(tick=96, channel=0, data=[78, 80]),\n",
      "   midi.NoteOffEvent(tick=96, channel=0, data=[78, 0]),\n",
      "   midi.NoteOnEvent(tick=96, channel=0, data=[78, 80]),\n",
      "   midi.NoteOffEvent(tick=96, channel=0, data=[78, 0]),\n",
      "   midi.NoteOnEvent(tick=96, channel=0, data=[78, 80]),\n",
      "   midi.NoteOffEvent(tick=384, channel=0, data=[78, 0]),\n",
      "   midi.NoteOnEvent(tick=4992, channel=0, data=[74, 80]),\n",
      "   midi.NoteOffEvent(tick=96, channel=0, data=[74, 0]),\n",
      "   midi.NoteOnEvent(tick=0, channel=0, data=[76, 80]),\n",
      "   midi.NoteOffEvent(tick=96, channel=0, data=[76, 0]),\n",
      "   midi.NoteOnEvent(tick=0, channel=0, data=[78, 80]),\n",
      "   midi.NoteOffEvent(tick=192, channel=0, data=[78, 0]),\n",
      "   midi.NoteOnEvent(tick=192, channel=0, data=[69, 80]),\n",
      "   midi.NoteOffEvent(tick=192, channel=0, data=[69, 0]),\n",
      "   midi.NoteOnEvent(tick=0, channel=0, data=[66, 80]),\n",
      "   midi.NoteOffEvent(tick=192, channel=0, data=[66, 0]),\n",
      "   midi.NoteOnEvent(tick=0, channel=0, data=[62, 80]),\n",
      "   midi.NoteOffEvent(tick=192, channel=0, data=[62, 0]),\n",
      "   midi.NoteOnEvent(tick=0, channel=0, data=[66, 80]),\n",
      "   midi.NoteOffEvent(tick=192, channel=0, data=[66, 0]),\n",
      "   midi.NoteOnEvent(tick=0, channel=0, data=[69, 80]),\n",
      "   midi.NoteOffEvent(tick=192, channel=0, data=[69, 0]),\n",
      "   midi.NoteOnEvent(tick=0, channel=0, data=[69, 80]),\n",
      "   midi.NoteOffEvent(tick=192, channel=0, data=[69, 0]),\n",
      "   midi.NoteOnEvent(tick=384, channel=0, data=[76, 80]),\n",
      "   midi.NoteOffEvent(tick=192, channel=0, data=[76, 0]),\n",
      "   midi.NoteOnEvent(tick=0, channel=0, data=[74, 80]),\n",
      "   midi.NoteOffEvent(tick=192, channel=0, data=[74, 0]),\n",
      "   midi.NoteOnEvent(tick=960, channel=0, data=[78, 80]),\n",
      "   midi.NoteOffEvent(tick=576, channel=0, data=[78, 0]),\n",
      "   midi.NoteOnEvent(tick=0, channel=0, data=[74, 80]),\n",
      "   midi.NoteOffEvent(tick=192, channel=0, data=[74, 0]),\n",
      "   midi.NoteOnEvent(tick=0, channel=0, data=[66, 80]),\n",
      "   midi.NoteOffEvent(tick=192, channel=0, data=[66, 0]),\n",
      "   midi.NoteOnEvent(tick=576, channel=0, data=[76, 80]),\n",
      "   midi.NoteOffEvent(tick=576, channel=0, data=[76, 0]),\n",
      "   midi.NoteOnEvent(tick=0, channel=0, data=[69, 80]),\n",
      "   midi.NoteOffEvent(tick=192, channel=0, data=[69, 0]),\n",
      "   midi.NoteOnEvent(tick=0, channel=0, data=[81, 80]),\n",
      "   midi.NoteOffEvent(tick=192, channel=0, data=[81, 0]),\n",
      "   midi.NoteOnEvent(tick=192, channel=0, data=[74, 80]),\n",
      "   midi.NoteOffEvent(tick=192, channel=0, data=[74, 0]),\n",
      "   midi.NoteOnEvent(tick=576, channel=0, data=[78, 80]),\n",
      "   midi.NoteOffEvent(tick=192, channel=0, data=[78, 0]),\n",
      "   midi.NoteOnEvent(tick=576, channel=0, data=[81, 80]),\n",
      "   midi.NoteOffEvent(tick=192, channel=0, data=[81, 0]),\n",
      "   midi.NoteOnEvent(tick=576, channel=0, data=[78, 80]),\n",
      "   midi.NoteOffEvent(tick=192, channel=0, data=[78, 0]),\n",
      "   midi.NoteOnEvent(tick=576, channel=0, data=[79, 80]),\n",
      "   midi.NoteOffEvent(tick=192, channel=0, data=[79, 0]),\n",
      "   midi.NoteOnEvent(tick=4224, channel=0, data=[76, 80]),\n",
      "   midi.NoteOffEvent(tick=192, channel=0, data=[76, 0]),\n",
      "   midi.NoteOnEvent(tick=0, channel=0, data=[78, 80]),\n",
      "   midi.NoteOffEvent(tick=192, channel=0, data=[78, 0]),\n",
      "   midi.NoteOnEvent(tick=0, channel=0, data=[74, 80]),\n",
      "   midi.NoteOffEvent(tick=96, channel=0, data=[74, 0]),\n",
      "   midi.NoteOnEvent(tick=0, channel=0, data=[69, 80]),\n",
      "   midi.NoteOffEvent(tick=96, channel=0, data=[69, 0]),\n",
      "   midi.NoteOnEvent(tick=0, channel=0, data=[76, 80]),\n",
      "   midi.NoteOffEvent(tick=192, channel=0, data=[76, 0]),\n",
      "   midi.NoteOnEvent(tick=0, channel=0, data=[69, 80]),\n",
      "   midi.NoteOffEvent(tick=192, channel=0, data=[69, 0]),\n",
      "   midi.NoteOnEvent(tick=0, channel=0, data=[69, 80]),\n",
      "   midi.NoteOffEvent(tick=192, channel=0, data=[69, 0]),\n",
      "   midi.NoteOnEvent(tick=12288, channel=0, data=[62, 80]),\n",
      "   midi.NoteOffEvent(tick=96, channel=0, data=[62, 0]),\n",
      "   midi.NoteOnEvent(tick=0, channel=0, data=[62, 80]),\n",
      "   midi.NoteOffEvent(tick=96, channel=0, data=[62, 0]),\n",
      "   midi.NoteOnEvent(tick=0, channel=0, data=[66, 80]),\n",
      "   midi.NoteOffEvent(tick=96, channel=0, data=[66, 0]),\n",
      "   midi.NoteOnEvent(tick=0, channel=0, data=[66, 80]),\n",
      "   midi.NoteOffEvent(tick=96, channel=0, data=[66, 0]),\n",
      "   midi.NoteOnEvent(tick=0, channel=0, data=[69, 80]),\n",
      "   midi.NoteOffEvent(tick=96, channel=0, data=[69, 0]),\n",
      "   midi.NoteOnEvent(tick=0, channel=0, data=[69, 80]),\n",
      "   midi.NoteOffEvent(tick=96, channel=0, data=[69, 0]),\n",
      "   midi.NoteOnEvent(tick=0, channel=0, data=[74, 80]),\n",
      "   midi.NoteOffEvent(tick=96, channel=0, data=[74, 0]),\n",
      "   midi.NoteOnEvent(tick=0, channel=0, data=[76, 80]),\n",
      "   midi.NoteOffEvent(tick=96, channel=0, data=[76, 0]),\n",
      "   midi.NoteOnEvent(tick=0, channel=0, data=[78, 80]),\n",
      "   midi.NoteOffEvent(tick=192, channel=0, data=[78, 0]),\n",
      "   midi.NoteOnEvent(tick=384, channel=0, data=[66, 80]),\n",
      "   midi.NoteOffEvent(tick=192, channel=0, data=[66, 0]),\n",
      "   midi.NoteOnEvent(tick=0, channel=0, data=[62, 80]),\n",
      "   midi.NoteOffEvent(tick=192, channel=0, data=[62, 0]),\n",
      "   midi.NoteOnEvent(tick=0, channel=0, data=[66, 80]),\n",
      "   midi.NoteOffEvent(tick=192, channel=0, data=[66, 0]),\n",
      "   midi.NoteOnEvent(tick=0, channel=0, data=[69, 80]),\n",
      "   midi.NoteOffEvent(tick=192, channel=0, data=[69, 0]),\n",
      "   midi.NoteOnEvent(tick=0, channel=0, data=[69, 80]),\n",
      "   midi.NoteOffEvent(tick=192, channel=0, data=[69, 0]),\n",
      "   midi.NoteOnEvent(tick=384, channel=0, data=[76, 80]),\n",
      "   midi.NoteOffEvent(tick=192, channel=0, data=[76, 0]),\n",
      "   midi.NoteOnEvent(tick=0, channel=0, data=[74, 80]),\n",
      "   midi.NoteOffEvent(tick=192, channel=0, data=[74, 0]),\n",
      "   midi.NoteOnEvent(tick=384, channel=0, data=[69, 80]),\n",
      "   midi.NoteOffEvent(tick=192, channel=0, data=[69, 0]),\n",
      "   midi.NoteOnEvent(tick=0, channel=0, data=[74, 80]),\n",
      "   midi.NoteOffEvent(tick=96, channel=0, data=[74, 0]),\n",
      "   midi.NoteOnEvent(tick=0, channel=0, data=[76, 80]),\n",
      "   midi.NoteOffEvent(tick=96, channel=0, data=[76, 0]),\n",
      "   midi.NoteOnEvent(tick=0, channel=0, data=[78, 80]),\n",
      "   midi.NoteOffEvent(tick=192, channel=0, data=[78, 0]),\n",
      "   midi.NoteOnEvent(tick=192, channel=0, data=[69, 80]),\n",
      "   midi.NoteOffEvent(tick=192, channel=0, data=[69, 0]),\n",
      "   midi.NoteOnEvent(tick=0, channel=0, data=[66, 80]),\n",
      "   midi.NoteOffEvent(tick=192, channel=0, data=[66, 0]),\n",
      "   midi.NoteOnEvent(tick=0, channel=0, data=[62, 80]),\n",
      "   midi.NoteOffEvent(tick=192, channel=0, data=[62, 0]),\n",
      "   midi.NoteOnEvent(tick=0, channel=0, data=[66, 80]),\n",
      "   midi.NoteOffEvent(tick=192, channel=0, data=[66, 0]),\n",
      "   midi.NoteOnEvent(tick=0, channel=0, data=[69, 80]),\n",
      "   midi.NoteOffEvent(tick=192, channel=0, data=[69, 0]),\n",
      "   midi.NoteOnEvent(tick=0, channel=0, data=[69, 80]),\n",
      "   midi.NoteOffEvent(tick=192, channel=0, data=[69, 0]),\n",
      "   midi.NoteOnEvent(tick=384, channel=0, data=[76, 80]),\n",
      "   midi.NoteOffEvent(tick=192, channel=0, data=[76, 0]),\n",
      "   midi.NoteOnEvent(tick=0, channel=0, data=[74, 80]),\n",
      "   midi.NoteOffEvent(tick=192, channel=0, data=[74, 0]),\n",
      "   midi.NoteOnEvent(tick=384, channel=0, data=[69, 80]),\n",
      "   midi.NoteOffEvent(tick=192, channel=0, data=[69, 0]),\n",
      "   midi.NoteOnEvent(tick=0, channel=0, data=[74, 80]),\n",
      "   midi.NoteOffEvent(tick=96, channel=0, data=[74, 0]),\n",
      "   midi.NoteOnEvent(tick=0, channel=0, data=[76, 80]),\n",
      "   midi.NoteOffEvent(tick=96, channel=0, data=[76, 0]),\n",
      "   midi.NoteOnEvent(tick=0, channel=0, data=[74, 80]),\n",
      "   midi.NoteOffEvent(tick=96, channel=0, data=[74, 0]),\n",
      "   midi.NoteOnEvent(tick=96, channel=0, data=[74, 80]),\n",
      "   midi.NoteOffEvent(tick=96, channel=0, data=[74, 0]),\n",
      "   midi.NoteOnEvent(tick=96, channel=0, data=[74, 80]),\n",
      "   midi.NoteOffEvent(tick=96, channel=0, data=[74, 0]),\n",
      "   midi.NoteOnEvent(tick=96, channel=0, data=[74, 80]),\n",
      "   midi.NoteOffEvent(tick=192, channel=0, data=[74, 0]),\n",
      "   midi.NoteOnEvent(tick=2304, channel=0, data=[78, 80]),\n",
      "   midi.NoteOffEvent(tick=192, channel=0, data=[78, 0]),\n",
      "   midi.NoteOnEvent(tick=0, channel=0, data=[80, 80]),\n",
      "   midi.NoteOffEvent(tick=192, channel=0, data=[80, 0]),\n",
      "   midi.NoteOnEvent(tick=0, channel=0, data=[81, 80]),\n",
      "   midi.NoteOffEvent(tick=192, channel=0, data=[81, 0]),\n",
      "   midi.NoteOnEvent(tick=0, channel=0, data=[83, 80]),\n",
      "   midi.NoteOffEvent(tick=512, channel=0, data=[83, 0]),\n",
      "   midi.NoteOnEvent(tick=64, channel=0, data=[81, 80]),\n",
      "   midi.NoteOffEvent(tick=96, channel=0, data=[81, 0]),\n",
      "   midi.NoteOnEvent(tick=0, channel=0, data=[80, 80]),\n",
      "   midi.NoteOffEvent(tick=96, channel=0, data=[80, 0]),\n",
      "   midi.NoteOnEvent(tick=0, channel=0, data=[81, 80]),\n",
      "   midi.NoteOffEvent(tick=192, channel=0, data=[81, 0]),\n",
      "   midi.NoteOnEvent(tick=0, channel=0, data=[76, 80]),\n",
      "   midi.NoteOffEvent(tick=192, channel=0, data=[76, 0]),\n",
      "   midi.NoteOnEvent(tick=0, channel=0, data=[76, 80]),\n",
      "   midi.NoteOffEvent(tick=192, channel=0, data=[76, 0]),\n",
      "   midi.NoteOnEvent(tick=0, channel=0, data=[76, 80]),\n",
      "   midi.NoteOffEvent(tick=192, channel=0, data=[76, 0]),\n",
      "   midi.NoteOnEvent(tick=0, channel=0, data=[76, 80]),\n",
      "   midi.NoteOffEvent(tick=768, channel=0, data=[76, 0]),\n",
      "   midi.EndOfTrackEvent(tick=0, data=[])]),\n",
      " midi.Track(\\\n",
      "  [midi.TrackNameEvent(tick=0, text='Tromba III', data=[84, 114, 111, 109, 98, 97, 32, 73, 73, 73]),\n",
      "   midi.ControlChangeEvent(tick=0, channel=0, data=[0, 0]),\n",
      "   midi.ProgramChangeEvent(tick=0, channel=0, data=[56]),\n",
      "   midi.ControlChangeEvent(tick=0, channel=0, data=[7, 127]),\n",
      "   midi.ControlChangeEvent(tick=0, channel=0, data=[10, 61]),\n",
      "   midi.ControlChangeEvent(tick=0, channel=0, data=[91, 127]),\n",
      "   midi.ControlChangeEvent(tick=0, channel=0, data=[93, 127]),\n",
      "   midi.KeySignatureEvent(tick=0, data=[2, 0]),\n",
      "   midi.NoteOnEvent(tick=2112, channel=0, data=[62, 80]),\n",
      "   midi.NoteOffEvent(tick=192, channel=0, data=[62, 0]),\n",
      "   midi.NoteOnEvent(tick=0, channel=0, data=[66, 80]),\n",
      "   midi.NoteOffEvent(tick=192, channel=0, data=[66, 0]),\n",
      "   midi.NoteOnEvent(tick=384, channel=0, data=[69, 80]),\n",
      "   midi.NoteOffEvent(tick=192, channel=0, data=[69, 0]),\n",
      "   midi.NoteOnEvent(tick=0, channel=0, data=[69, 80]),\n",
      "   midi.NoteOffEvent(tick=192, channel=0, data=[69, 0]),\n",
      "   midi.NoteOnEvent(tick=1920, channel=0, data=[62, 80]),\n",
      "   midi.NoteOffEvent(tick=192, channel=0, data=[62, 0]),\n",
      "   midi.NoteOnEvent(tick=0, channel=0, data=[66, 80]),\n",
      "   midi.NoteOffEvent(tick=192, channel=0, data=[66, 0]),\n",
      "   midi.NoteOnEvent(tick=384, channel=0, data=[69, 80]),\n",
      "   midi.NoteOffEvent(tick=192, channel=0, data=[69, 0]),\n",
      "   midi.NoteOnEvent(tick=0, channel=0, data=[69, 80]),\n",
      "   midi.NoteOffEvent(tick=192, channel=0, data=[69, 0]),\n",
      "   midi.NoteOnEvent(tick=3840, channel=0, data=[74, 80]),\n",
      "   midi.NoteOffEvent(tick=192, channel=0, data=[74, 0]),\n",
      "   midi.NoteOnEvent(tick=0, channel=0, data=[76, 80]),\n",
      "   midi.NoteOffEvent(tick=192, channel=0, data=[76, 0]),\n",
      "   midi.NoteOnEvent(tick=0, channel=0, data=[78, 80]),\n",
      "   midi.NoteOffEvent(tick=192, channel=0, data=[78, 0]),\n",
      "   midi.NoteOnEvent(tick=0, channel=0, data=[76, 80]),\n",
      "   midi.NoteOffEvent(tick=192, channel=0, data=[76, 0]),\n",
      "   midi.NoteOnEvent(tick=768, channel=0, data=[69, 80]),\n",
      "   midi.NoteOffEvent(tick=192, channel=0, data=[69, 0]),\n",
      "   midi.NoteOnEvent(tick=0, channel=0, data=[69, 80]),\n",
      "   midi.NoteOffEvent(tick=192, channel=0, data=[69, 0]),\n",
      "   midi.NoteOnEvent(tick=0, channel=0, data=[62, 80]),\n",
      "   midi.NoteOffEvent(tick=192, channel=0, data=[62, 0]),\n",
      "   midi.NoteOnEvent(tick=0, channel=0, data=[69, 80]),\n",
      "   midi.NoteOffEvent(tick=768, channel=0, data=[69, 0]),\n",
      "   midi.NoteOnEvent(tick=10560, channel=0, data=[69, 80]),\n",
      "   midi.NoteOffEvent(tick=192, channel=0, data=[69, 0]),\n",
      "   midi.NoteOnEvent(tick=0, channel=0, data=[69, 80]),\n",
      "   midi.NoteOffEvent(tick=192, channel=0, data=[69, 0]),\n",
      "   midi.NoteOnEvent(tick=0, channel=0, data=[62, 80]),\n",
      "   midi.NoteOffEvent(tick=192, channel=0, data=[62, 0]),\n",
      "   midi.NoteOnEvent(tick=0, channel=0, data=[69, 80]),\n",
      "   midi.NoteOffEvent(tick=192, channel=0, data=[69, 0]),\n",
      "   midi.NoteOnEvent(tick=0, channel=0, data=[69, 80]),\n",
      "   midi.NoteOffEvent(tick=192, channel=0, data=[69, 0]),\n",
      "   midi.NoteOnEvent(tick=0, channel=0, data=[69, 80]),\n",
      "   midi.NoteOffEvent(tick=384, channel=0, data=[69, 0]),\n",
      "   midi.NoteOnEvent(tick=7872, channel=0, data=[62, 80]),\n",
      "   midi.NoteOffEvent(tick=192, channel=0, data=[62, 0]),\n",
      "   midi.NoteOnEvent(tick=0, channel=0, data=[66, 80]),\n",
      "   midi.NoteOffEvent(tick=192, channel=0, data=[66, 0]),\n",
      "   midi.NoteOnEvent(tick=384, channel=0, data=[69, 80]),\n",
      "   midi.NoteOffEvent(tick=192, channel=0, data=[69, 0]),\n",
      "   midi.NoteOnEvent(tick=0, channel=0, data=[69, 80]),\n",
      "   midi.NoteOffEvent(tick=192, channel=0, data=[69, 0]),\n",
      "   midi.NoteOnEvent(tick=1536, channel=0, data=[78, 80]),\n",
      "   midi.NoteOffEvent(tick=96, channel=0, data=[78, 0]),\n",
      "   midi.NoteOnEvent(tick=0, channel=0, data=[76, 80]),\n",
      "   midi.NoteOffEvent(tick=96, channel=0, data=[76, 0]),\n",
      "   midi.NoteOnEvent(tick=0, channel=0, data=[74, 80]),\n",
      "   midi.NoteOffEvent(tick=192, channel=0, data=[74, 0]),\n",
      "   midi.NoteOnEvent(tick=1152, channel=0, data=[76, 80]),\n",
      "   midi.NoteOffEvent(tick=96, channel=0, data=[76, 0]),\n",
      "   midi.NoteOnEvent(tick=0, channel=0, data=[76, 80]),\n",
      "   midi.NoteOffEvent(tick=96, channel=0, data=[76, 0]),\n",
      "   midi.NoteOnEvent(tick=0, channel=0, data=[76, 80]),\n",
      "   midi.NoteOffEvent(tick=192, channel=0, data=[76, 0]),\n",
      "   midi.NoteOnEvent(tick=3456, channel=0, data=[74, 80]),\n",
      "   midi.NoteOffEvent(tick=192, channel=0, data=[74, 0]),\n",
      "   midi.NoteOnEvent(tick=0, channel=0, data=[76, 80]),\n",
      "   midi.NoteOffEvent(tick=192, channel=0, data=[76, 0]),\n",
      "   midi.NoteOnEvent(tick=0, channel=0, data=[78, 80]),\n",
      "   midi.NoteOffEvent(tick=192, channel=0, data=[78, 0]),\n",
      "   midi.NoteOnEvent(tick=0, channel=0, data=[76, 80]),\n",
      "   midi.NoteOffEvent(tick=192, channel=0, data=[76, 0]),\n",
      "   midi.NoteOnEvent(tick=768, channel=0, data=[69, 80]),\n",
      "   midi.NoteOffEvent(tick=192, channel=0, data=[69, 0]),\n",
      "   midi.NoteOnEvent(tick=0, channel=0, data=[69, 80]),\n",
      "   midi.NoteOffEvent(tick=192, channel=0, data=[69, 0]),\n",
      "   midi.NoteOnEvent(tick=0, channel=0, data=[62, 80]),\n",
      "   midi.NoteOffEvent(tick=192, channel=0, data=[62, 0]),\n",
      "   midi.NoteOnEvent(tick=0, channel=0, data=[69, 80]),\n",
      "   midi.NoteOffEvent(tick=192, channel=0, data=[69, 0]),\n",
      "   midi.NoteOnEvent(tick=14208, channel=0, data=[69, 80]),\n",
      "   midi.NoteOffEvent(tick=192, channel=0, data=[69, 0]),\n",
      "   midi.NoteOnEvent(tick=0, channel=0, data=[69, 80]),\n",
      "   midi.NoteOffEvent(tick=192, channel=0, data=[69, 0]),\n",
      "   midi.NoteOnEvent(tick=192, channel=0, data=[76, 80]),\n",
      "   midi.NoteOffEvent(tick=192, channel=0, data=[76, 0]),\n",
      "   midi.NoteOnEvent(tick=192, channel=0, data=[69, 80]),\n",
      "   midi.NoteOffEvent(tick=192, channel=0, data=[69, 0]),\n",
      "   midi.NoteOnEvent(tick=1920, channel=0, data=[69, 80]),\n",
      "   midi.NoteOffEvent(tick=192, channel=0, data=[69, 0]),\n",
      "   midi.NoteOnEvent(tick=0, channel=0, data=[69, 80]),\n",
      "   midi.NoteOffEvent(tick=192, channel=0, data=[69, 0]),\n",
      "   midi.NoteOnEvent(tick=192, channel=0, data=[76, 80]),\n",
      "   midi.NoteOffEvent(tick=192, channel=0, data=[76, 0]),\n",
      "   midi.NoteOnEvent(tick=192, channel=0, data=[69, 80]),\n",
      "   midi.NoteOffEvent(tick=192, channel=0, data=[69, 0]),\n",
      "   midi.NoteOnEvent(tick=4992, channel=0, data=[76, 80]),\n",
      "   midi.NoteOffEvent(tick=192, channel=0, data=[76, 0]),\n",
      "   midi.NoteOnEvent(tick=0, channel=0, data=[76, 80]),\n",
      "   midi.NoteOffEvent(tick=192, channel=0, data=[76, 0]),\n",
      "   midi.NoteOnEvent(tick=0, channel=0, data=[69, 80]),\n",
      "   midi.NoteOffEvent(tick=192, channel=0, data=[69, 0]),\n",
      "   midi.NoteOnEvent(tick=0, channel=0, data=[69, 80]),\n",
      "   midi.NoteOffEvent(tick=192, channel=0, data=[69, 0]),\n",
      "   midi.NoteOnEvent(tick=0, channel=0, data=[62, 80]),\n",
      "   midi.NoteOffEvent(tick=192, channel=0, data=[62, 0]),\n",
      "   midi.NoteOnEvent(tick=0, channel=0, data=[69, 80]),\n",
      "   midi.NoteOffEvent(tick=768, channel=0, data=[69, 0]),\n",
      "   midi.NoteOnEvent(tick=38976, channel=0, data=[62, 80]),\n",
      "   midi.NoteOffEvent(tick=192, channel=0, data=[62, 0]),\n",
      "   midi.NoteOnEvent(tick=0, channel=0, data=[66, 80]),\n",
      "   midi.NoteOffEvent(tick=192, channel=0, data=[66, 0]),\n",
      "   midi.NoteOnEvent(tick=384, channel=0, data=[69, 80]),\n",
      "   midi.NoteOffEvent(tick=192, channel=0, data=[69, 0]),\n",
      "   midi.NoteOnEvent(tick=0, channel=0, data=[69, 80]),\n",
      "   midi.NoteOffEvent(tick=192, channel=0, data=[69, 0]),\n",
      "   midi.NoteOnEvent(tick=576, channel=0, data=[69, 80]),\n",
      "   midi.NoteOffEvent(tick=96, channel=0, data=[69, 0]),\n",
      "   midi.NoteOnEvent(tick=0, channel=0, data=[74, 80]),\n",
      "   midi.NoteOffEvent(tick=96, channel=0, data=[74, 0]),\n",
      "   midi.NoteOnEvent(tick=0, channel=0, data=[74, 80]),\n",
      "   midi.NoteOffEvent(tick=96, channel=0, data=[74, 0]),\n",
      "   midi.NoteOnEvent(tick=0, channel=0, data=[74, 80]),\n",
      "   midi.NoteOffEvent(tick=96, channel=0, data=[74, 0]),\n",
      "   midi.NoteOnEvent(tick=0, channel=0, data=[74, 80]),\n",
      "   midi.NoteOffEvent(tick=96, channel=0, data=[74, 0]),\n",
      "   midi.NoteOnEvent(tick=0, channel=0, data=[74, 80]),\n",
      "   midi.NoteOffEvent(tick=96, channel=0, data=[74, 0]),\n",
      "   midi.NoteOnEvent(tick=0, channel=0, data=[74, 80]),\n",
      "   midi.NoteOffEvent(tick=96, channel=0, data=[74, 0]),\n",
      "   midi.NoteOnEvent(tick=0, channel=0, data=[74, 80]),\n",
      "   midi.NoteOffEvent(tick=96, channel=0, data=[74, 0]),\n",
      "   midi.NoteOnEvent(tick=0, channel=0, data=[74, 80]),\n",
      "   midi.NoteOffEvent(tick=384, channel=0, data=[74, 0]),\n",
      "   midi.NoteOnEvent(tick=6336, channel=0, data=[62, 80]),\n",
      "   midi.NoteOffEvent(tick=192, channel=0, data=[62, 0]),\n",
      "   midi.NoteOnEvent(tick=0, channel=0, data=[66, 80]),\n",
      "   midi.NoteOffEvent(tick=192, channel=0, data=[66, 0]),\n",
      "   midi.NoteOnEvent(tick=384, channel=0, data=[69, 80]),\n",
      "   midi.NoteOffEvent(tick=192, channel=0, data=[69, 0]),\n",
      "   midi.NoteOnEvent(tick=0, channel=0, data=[69, 80]),\n",
      "   midi.NoteOffEvent(tick=192, channel=0, data=[69, 0]),\n",
      "   midi.NoteOnEvent(tick=1536, channel=0, data=[78, 80]),\n",
      "   midi.NoteOffEvent(tick=96, channel=0, data=[78, 0]),\n",
      "   midi.NoteOnEvent(tick=0, channel=0, data=[76, 80]),\n",
      "   midi.NoteOffEvent(tick=96, channel=0, data=[76, 0]),\n",
      "   midi.NoteOnEvent(tick=0, channel=0, data=[74, 80]),\n",
      "   midi.NoteOffEvent(tick=192, channel=0, data=[74, 0]),\n",
      "   midi.NoteOnEvent(tick=1152, channel=0, data=[76, 80]),\n",
      "   midi.NoteOffEvent(tick=96, channel=0, data=[76, 0]),\n",
      "   midi.NoteOnEvent(tick=0, channel=0, data=[76, 80]),\n",
      "   midi.NoteOffEvent(tick=96, channel=0, data=[76, 0]),\n",
      "   midi.NoteOnEvent(tick=0, channel=0, data=[76, 80]),\n",
      "   midi.NoteOffEvent(tick=192, channel=0, data=[76, 0]),\n",
      "   midi.NoteOnEvent(tick=192, channel=0, data=[69, 80]),\n",
      "   midi.NoteOffEvent(tick=192, channel=0, data=[69, 0]),\n",
      "   midi.NoteOnEvent(tick=576, channel=0, data=[74, 80]),\n",
      "   midi.NoteOffEvent(tick=192, channel=0, data=[74, 0]),\n",
      "   midi.NoteOnEvent(tick=576, channel=0, data=[78, 80]),\n",
      "   midi.NoteOffEvent(tick=192, channel=0, data=[78, 0]),\n",
      "   midi.NoteOnEvent(tick=576, channel=0, data=[74, 80]),\n",
      "   midi.NoteOffEvent(tick=192, channel=0, data=[74, 0]),\n",
      "   midi.NoteOnEvent(tick=576, channel=0, data=[74, 80]),\n",
      "   midi.NoteOffEvent(tick=192, channel=0, data=[74, 0]),\n",
      "   midi.NoteOnEvent(tick=4224, channel=0, data=[69, 80]),\n",
      "   midi.NoteOffEvent(tick=192, channel=0, data=[69, 0]),\n",
      "   midi.NoteOnEvent(tick=0, channel=0, data=[62, 80]),\n",
      "   midi.NoteOffEvent(tick=192, channel=0, data=[62, 0]),\n",
      "   midi.NoteOnEvent(tick=0, channel=0, data=[69, 80]),\n",
      "   midi.NoteOffEvent(tick=96, channel=0, data=[69, 0]),\n",
      "   midi.NoteOnEvent(tick=0, channel=0, data=[69, 80]),\n",
      "   midi.NoteOffEvent(tick=96, channel=0, data=[69, 0]),\n",
      "   midi.NoteOnEvent(tick=0, channel=0, data=[69, 80]),\n",
      "   midi.NoteOffEvent(tick=192, channel=0, data=[69, 0]),\n",
      "   midi.NoteOnEvent(tick=0, channel=0, data=[69, 80]),\n",
      "   midi.NoteOffEvent(tick=192, channel=0, data=[69, 0]),\n",
      "   midi.NoteOnEvent(tick=0, channel=0, data=[66, 80]),\n",
      "   midi.NoteOffEvent(tick=192, channel=0, data=[66, 0]),\n",
      "   midi.NoteOnEvent(tick=12288, channel=0, data=[57, 80]),\n",
      "   midi.NoteOffEvent(tick=96, channel=0, data=[57, 0]),\n",
      "   midi.NoteOnEvent(tick=0, channel=0, data=[57, 80]),\n",
      "   midi.NoteOffEvent(tick=96, channel=0, data=[57, 0]),\n",
      "   midi.NoteOnEvent(tick=0, channel=0, data=[62, 80]),\n",
      "   midi.NoteOffEvent(tick=96, channel=0, data=[62, 0]),\n",
      "   midi.NoteOnEvent(tick=0, channel=0, data=[62, 80]),\n",
      "   midi.NoteOffEvent(tick=96, channel=0, data=[62, 0]),\n",
      "   midi.NoteOnEvent(tick=0, channel=0, data=[66, 80]),\n",
      "   midi.NoteOffEvent(tick=96, channel=0, data=[66, 0]),\n",
      "   midi.NoteOnEvent(tick=0, channel=0, data=[66, 80]),\n",
      "   midi.NoteOffEvent(tick=96, channel=0, data=[66, 0]),\n",
      "   midi.NoteOnEvent(tick=0, channel=0, data=[69, 80]),\n",
      "   midi.NoteOffEvent(tick=192, channel=0, data=[69, 0]),\n",
      "   midi.NoteOnEvent(tick=1152, channel=0, data=[62, 80]),\n",
      "   midi.NoteOffEvent(tick=192, channel=0, data=[62, 0]),\n",
      "   midi.NoteOnEvent(tick=0, channel=0, data=[66, 80]),\n",
      "   midi.NoteOffEvent(tick=192, channel=0, data=[66, 0]),\n",
      "   midi.NoteOnEvent(tick=384, channel=0, data=[69, 80]),\n",
      "   midi.NoteOffEvent(tick=192, channel=0, data=[69, 0]),\n",
      "   midi.NoteOnEvent(tick=0, channel=0, data=[69, 80]),\n",
      "   midi.NoteOffEvent(tick=192, channel=0, data=[69, 0]),\n",
      "   midi.NoteOnEvent(tick=1920, channel=0, data=[62, 80]),\n",
      "   midi.NoteOffEvent(tick=192, channel=0, data=[62, 0]),\n",
      "   midi.NoteOnEvent(tick=0, channel=0, data=[66, 80]),\n",
      "   midi.NoteOffEvent(tick=192, channel=0, data=[66, 0]),\n",
      "   midi.NoteOnEvent(tick=384, channel=0, data=[69, 80]),\n",
      "   midi.NoteOffEvent(tick=192, channel=0, data=[69, 0]),\n",
      "   midi.NoteOnEvent(tick=0, channel=0, data=[69, 80]),\n",
      "   midi.NoteOffEvent(tick=192, channel=0, data=[69, 0]),\n",
      "   midi.NoteOnEvent(tick=3840, channel=0, data=[74, 80]),\n",
      "   midi.NoteOffEvent(tick=192, channel=0, data=[74, 0]),\n",
      "   midi.NoteOnEvent(tick=0, channel=0, data=[76, 80]),\n",
      "   midi.NoteOffEvent(tick=192, channel=0, data=[76, 0]),\n",
      "   midi.NoteOnEvent(tick=0, channel=0, data=[78, 80]),\n",
      "   midi.NoteOffEvent(tick=192, channel=0, data=[78, 0]),\n",
      "   midi.NoteOnEvent(tick=0, channel=0, data=[76, 80]),\n",
      "   midi.NoteOffEvent(tick=192, channel=0, data=[76, 0]),\n",
      "   midi.NoteOnEvent(tick=768, channel=0, data=[69, 80]),\n",
      "   midi.NoteOffEvent(tick=192, channel=0, data=[69, 0]),\n",
      "   midi.NoteOnEvent(tick=0, channel=0, data=[69, 80]),\n",
      "   midi.NoteOffEvent(tick=192, channel=0, data=[69, 0]),\n",
      "   midi.NoteOnEvent(tick=0, channel=0, data=[62, 80]),\n",
      "   midi.NoteOffEvent(tick=192, channel=0, data=[62, 0]),\n",
      "   midi.NoteOnEvent(tick=0, channel=0, data=[69, 80]),\n",
      "   midi.NoteOffEvent(tick=768, channel=0, data=[69, 0]),\n",
      "   midi.EndOfTrackEvent(tick=0, data=[])]),\n",
      " midi.Track(\\\n",
      "  [midi.TrackNameEvent(tick=0, text='Timpani', data=[84, 105, 109, 112, 97, 110, 105]),\n",
      "   midi.ControlChangeEvent(tick=0, channel=1, data=[0, 0]),\n",
      "   midi.ProgramChangeEvent(tick=0, channel=1, data=[47]),\n",
      "   midi.ControlChangeEvent(tick=0, channel=1, data=[7, 100]),\n",
      "   midi.ControlChangeEvent(tick=0, channel=1, data=[10, 66]),\n",
      "   midi.ControlChangeEvent(tick=0, channel=1, data=[91, 127]),\n",
      "   midi.ControlChangeEvent(tick=0, channel=1, data=[93, 127]),\n",
      "   midi.KeySignatureEvent(tick=0, data=[2, 0]),\n",
      "   midi.NoteOnEvent(tick=2112, channel=1, data=[50, 80]),\n",
      "   midi.NoteOffEvent(tick=96, channel=1, data=[50, 0]),\n",
      "   midi.NoteOnEvent(tick=0, channel=1, data=[50, 80]),\n",
      "   midi.NoteOffEvent(tick=96, channel=1, data=[50, 0]),\n",
      "   midi.NoteOnEvent(tick=0, channel=1, data=[50, 80]),\n",
      "   midi.NoteOffEvent(tick=192, channel=1, data=[50, 0]),\n",
      "   midi.NoteOnEvent(tick=384, channel=1, data=[45, 80]),\n",
      "   midi.NoteOffEvent(tick=96, channel=1, data=[45, 0]),\n",
      "   midi.NoteOnEvent(tick=0, channel=1, data=[45, 80]),\n",
      "   midi.NoteOffEvent(tick=96, channel=1, data=[45, 0]),\n",
      "   midi.NoteOnEvent(tick=0, channel=1, data=[50, 80]),\n",
      "   midi.NoteOffEvent(tick=192, channel=1, data=[50, 0]),\n",
      "   midi.NoteOnEvent(tick=1920, channel=1, data=[50, 80]),\n",
      "   midi.NoteOffEvent(tick=96, channel=1, data=[50, 0]),\n",
      "   midi.NoteOnEvent(tick=0, channel=1, data=[50, 80]),\n",
      "   midi.NoteOffEvent(tick=96, channel=1, data=[50, 0]),\n",
      "   midi.NoteOnEvent(tick=0, channel=1, data=[50, 80]),\n",
      "   midi.NoteOffEvent(tick=192, channel=1, data=[50, 0]),\n",
      "   midi.NoteOnEvent(tick=384, channel=1, data=[45, 80]),\n",
      "   midi.NoteOffEvent(tick=96, channel=1, data=[45, 0]),\n",
      "   midi.NoteOnEvent(tick=0, channel=1, data=[45, 80]),\n",
      "   midi.NoteOffEvent(tick=96, channel=1, data=[45, 0]),\n",
      "   midi.NoteOnEvent(tick=0, channel=1, data=[50, 80]),\n",
      "   midi.NoteOffEvent(tick=192, channel=1, data=[50, 0]),\n",
      "   midi.NoteOnEvent(tick=5376, channel=1, data=[45, 80]),\n",
      "   midi.NoteOffEvent(tick=96, channel=1, data=[45, 0]),\n",
      "   midi.NoteOnEvent(tick=0, channel=1, data=[45, 80]),\n",
      "   midi.NoteOffEvent(tick=96, channel=1, data=[45, 0]),\n",
      "   midi.NoteOnEvent(tick=0, channel=1, data=[45, 80]),\n",
      "   midi.NoteOffEvent(tick=192, channel=1, data=[45, 0]),\n",
      "   midi.NoteOnEvent(tick=0, channel=1, data=[50, 80]),\n",
      "   midi.NoteOffEvent(tick=192, channel=1, data=[50, 0]),\n",
      "   midi.NoteOnEvent(tick=0, channel=1, data=[45, 80]),\n",
      "   midi.NoteOffEvent(tick=768, channel=1, data=[45, 0]),\n",
      "   midi.NoteOnEvent(tick=10560, channel=1, data=[45, 80]),\n",
      "   midi.NoteOffEvent(tick=96, channel=1, data=[45, 0]),\n",
      "   midi.NoteOnEvent(tick=0, channel=1, data=[45, 80]),\n",
      "   midi.NoteOffEvent(tick=96, channel=1, data=[45, 0]),\n",
      "   midi.NoteOnEvent(tick=0, channel=1, data=[50, 80]),\n",
      "   midi.NoteOffEvent(tick=192, channel=1, data=[50, 0]),\n",
      "   midi.NoteOnEvent(tick=0, channel=1, data=[50, 80]),\n",
      "   midi.NoteOffEvent(tick=192, channel=1, data=[50, 0]),\n",
      "   midi.NoteOnEvent(tick=0, channel=1, data=[45, 80]),\n",
      "   midi.NoteOffEvent(tick=192, channel=1, data=[45, 0]),\n",
      "   midi.NoteOnEvent(tick=0, channel=1, data=[45, 80]),\n",
      "   midi.NoteOffEvent(tick=192, channel=1, data=[45, 0]),\n",
      "   midi.NoteOnEvent(tick=0, channel=1, data=[50, 80]),\n",
      "   midi.NoteOffEvent(tick=384, channel=1, data=[50, 0]),\n",
      "   midi.NoteOnEvent(tick=7872, channel=1, data=[50, 80]),\n",
      "   midi.NoteOffEvent(tick=96, channel=1, data=[50, 0]),\n",
      "   midi.NoteOnEvent(tick=0, channel=1, data=[50, 80]),\n",
      "   midi.NoteOffEvent(tick=96, channel=1, data=[50, 0]),\n",
      "   midi.NoteOnEvent(tick=0, channel=1, data=[50, 80]),\n",
      "   midi.NoteOffEvent(tick=192, channel=1, data=[50, 0]),\n",
      "   midi.NoteOnEvent(tick=384, channel=1, data=[45, 80]),\n",
      "   midi.NoteOffEvent(tick=96, channel=1, data=[45, 0]),\n",
      "   midi.NoteOnEvent(tick=0, channel=1, data=[45, 80]),\n",
      "   midi.NoteOffEvent(tick=96, channel=1, data=[45, 0]),\n",
      "   midi.NoteOnEvent(tick=0, channel=1, data=[50, 80]),\n",
      "   midi.NoteOffEvent(tick=192, channel=1, data=[50, 0]),\n",
      "   midi.NoteOnEvent(tick=1536, channel=1, data=[50, 80]),\n",
      "   midi.NoteOffEvent(tick=96, channel=1, data=[50, 0]),\n",
      "   midi.NoteOnEvent(tick=0, channel=1, data=[50, 80]),\n",
      "   midi.NoteOffEvent(tick=96, channel=1, data=[50, 0]),\n",
      "   midi.NoteOnEvent(tick=0, channel=1, data=[50, 80]),\n",
      "   midi.NoteOffEvent(tick=192, channel=1, data=[50, 0]),\n",
      "   midi.NoteOnEvent(tick=1152, channel=1, data=[45, 80]),\n",
      "   midi.NoteOffEvent(tick=96, channel=1, data=[45, 0]),\n",
      "   midi.NoteOnEvent(tick=0, channel=1, data=[45, 80]),\n",
      "   midi.NoteOffEvent(tick=96, channel=1, data=[45, 0]),\n",
      "   midi.NoteOnEvent(tick=0, channel=1, data=[45, 80]),\n",
      "   midi.NoteOffEvent(tick=192, channel=1, data=[45, 0]),\n",
      "   midi.NoteOnEvent(tick=4992, channel=1, data=[45, 80]),\n",
      "   midi.NoteOffEvent(tick=96, channel=1, data=[45, 0]),\n",
      "   midi.NoteOnEvent(tick=0, channel=1, data=[45, 80]),\n",
      "   midi.NoteOffEvent(tick=96, channel=1, data=[45, 0]),\n",
      "   midi.NoteOnEvent(tick=0, channel=1, data=[45, 80]),\n",
      "   midi.NoteOffEvent(tick=192, channel=1, data=[45, 0]),\n",
      "   midi.NoteOnEvent(tick=0, channel=1, data=[50, 80]),\n",
      "   midi.NoteOffEvent(tick=192, channel=1, data=[50, 0]),\n",
      "   midi.NoteOnEvent(tick=0, channel=1, data=[45, 80]),\n",
      "   midi.NoteOffEvent(tick=192, channel=1, data=[45, 0]),\n",
      "   midi.NoteOnEvent(tick=14208, channel=1, data=[45, 80]),\n",
      "   midi.NoteOffEvent(tick=96, channel=1, data=[45, 0]),\n",
      "   midi.NoteOnEvent(tick=0, channel=1, data=[45, 80]),\n",
      "   midi.NoteOffEvent(tick=96, channel=1, data=[45, 0]),\n",
      "   midi.NoteOnEvent(tick=0, channel=1, data=[45, 80]),\n",
      "   midi.NoteOffEvent(tick=96, channel=1, data=[45, 0]),\n",
      "   midi.NoteOnEvent(tick=672, channel=1, data=[45, 80]),\n",
      "   midi.NoteOffEvent(tick=192, channel=1, data=[45, 0]),\n",
      "   midi.NoteOnEvent(tick=1920, channel=1, data=[45, 80]),\n",
      "   midi.NoteOffEvent(tick=96, channel=1, data=[45, 0]),\n",
      "   midi.NoteOnEvent(tick=0, channel=1, data=[45, 80]),\n",
      "   midi.NoteOffEvent(tick=96, channel=1, data=[45, 0]),\n",
      "   midi.NoteOnEvent(tick=0, channel=1, data=[45, 80]),\n",
      "   midi.NoteOffEvent(tick=96, channel=1, data=[45, 0]),\n",
      "   midi.NoteOnEvent(tick=672, channel=1, data=[45, 80]),\n",
      "   midi.NoteOffEvent(tick=192, channel=1, data=[45, 0]),\n",
      "   midi.NoteOnEvent(tick=5376, channel=1, data=[45, 80]),\n",
      "   midi.NoteOffEvent(tick=96, channel=1, data=[45, 0]),\n",
      "   midi.NoteOnEvent(tick=0, channel=1, data=[45, 80]),\n",
      "   midi.NoteOffEvent(tick=96, channel=1, data=[45, 0]),\n",
      "   midi.NoteOnEvent(tick=0, channel=1, data=[45, 80]),\n",
      "   midi.NoteOffEvent(tick=192, channel=1, data=[45, 0]),\n",
      "   midi.NoteOnEvent(tick=0, channel=1, data=[50, 80]),\n",
      "   midi.NoteOffEvent(tick=192, channel=1, data=[50, 0]),\n",
      "   midi.NoteOnEvent(tick=0, channel=1, data=[45, 80]),\n",
      "   midi.NoteOffEvent(tick=768, channel=1, data=[45, 0]),\n",
      "   midi.NoteOnEvent(tick=38976, channel=1, data=[50, 80]),\n",
      "   midi.NoteOffEvent(tick=96, channel=1, data=[50, 0]),\n",
      "   midi.NoteOnEvent(tick=0, channel=1, data=[50, 80]),\n",
      "   midi.NoteOffEvent(tick=96, channel=1, data=[50, 0]),\n",
      "   midi.NoteOnEvent(tick=0, channel=1, data=[50, 80]),\n",
      "   midi.NoteOffEvent(tick=192, channel=1, data=[50, 0]),\n",
      "   midi.NoteOnEvent(tick=384, channel=1, data=[45, 80]),\n",
      "   midi.NoteOffEvent(tick=96, channel=1, data=[45, 0]),\n",
      "   midi.NoteOnEvent(tick=0, channel=1, data=[45, 80]),\n",
      "   midi.NoteOffEvent(tick=96, channel=1, data=[45, 0]),\n",
      "   midi.NoteOnEvent(tick=0, channel=1, data=[50, 80]),\n",
      "   midi.NoteOffEvent(tick=192, channel=1, data=[50, 0]),\n",
      "   midi.NoteOnEvent(tick=576, channel=1, data=[45, 80]),\n",
      "   midi.NoteOffEvent(tick=96, channel=1, data=[45, 0]),\n",
      "   midi.NoteOnEvent(tick=0, channel=1, data=[50, 80]),\n",
      "   midi.NoteOffEvent(tick=96, channel=1, data=[50, 0]),\n",
      "   midi.NoteOnEvent(tick=0, channel=1, data=[50, 80]),\n",
      "   midi.NoteOffEvent(tick=96, channel=1, data=[50, 0]),\n",
      "   midi.NoteOnEvent(tick=0, channel=1, data=[50, 80]),\n",
      "   midi.NoteOffEvent(tick=96, channel=1, data=[50, 0]),\n",
      "   midi.NoteOnEvent(tick=0, channel=1, data=[50, 80]),\n",
      "   midi.NoteOffEvent(tick=96, channel=1, data=[50, 0]),\n",
      "   midi.NoteOnEvent(tick=0, channel=1, data=[50, 80]),\n",
      "   midi.NoteOffEvent(tick=96, channel=1, data=[50, 0]),\n",
      "   midi.NoteOnEvent(tick=0, channel=1, data=[50, 80]),\n",
      "   midi.NoteOffEvent(tick=96, channel=1, data=[50, 0]),\n",
      "   midi.NoteOnEvent(tick=0, channel=1, data=[50, 80]),\n",
      "   midi.NoteOffEvent(tick=96, channel=1, data=[50, 0]),\n",
      "   midi.NoteOnEvent(tick=0, channel=1, data=[50, 80]),\n",
      "   midi.NoteOffEvent(tick=384, channel=1, data=[50, 0]),\n",
      "   midi.NoteOnEvent(tick=6336, channel=1, data=[50, 80]),\n",
      "   midi.NoteOffEvent(tick=96, channel=1, data=[50, 0]),\n",
      "   midi.NoteOnEvent(tick=0, channel=1, data=[50, 80]),\n",
      "   midi.NoteOffEvent(tick=96, channel=1, data=[50, 0]),\n",
      "   midi.NoteOnEvent(tick=0, channel=1, data=[50, 80]),\n",
      "   midi.NoteOffEvent(tick=192, channel=1, data=[50, 0]),\n",
      "   midi.NoteOnEvent(tick=384, channel=1, data=[45, 80]),\n",
      "   midi.NoteOffEvent(tick=96, channel=1, data=[45, 0]),\n",
      "   midi.NoteOnEvent(tick=0, channel=1, data=[45, 80]),\n",
      "   midi.NoteOffEvent(tick=96, channel=1, data=[45, 0]),\n",
      "   midi.NoteOnEvent(tick=0, channel=1, data=[50, 80]),\n",
      "   midi.NoteOffEvent(tick=192, channel=1, data=[50, 0]),\n",
      "   midi.NoteOnEvent(tick=1536, channel=1, data=[50, 80]),\n",
      "   midi.NoteOffEvent(tick=96, channel=1, data=[50, 0]),\n",
      "   midi.NoteOnEvent(tick=0, channel=1, data=[50, 80]),\n",
      "   midi.NoteOffEvent(tick=96, channel=1, data=[50, 0]),\n",
      "   midi.NoteOnEvent(tick=0, channel=1, data=[50, 80]),\n",
      "   midi.NoteOffEvent(tick=192, channel=1, data=[50, 0]),\n",
      "   midi.NoteOnEvent(tick=1152, channel=1, data=[45, 80]),\n",
      "   midi.NoteOffEvent(tick=96, channel=1, data=[45, 0]),\n",
      "   midi.NoteOnEvent(tick=0, channel=1, data=[45, 80]),\n",
      "   midi.NoteOffEvent(tick=96, channel=1, data=[45, 0]),\n",
      "   midi.NoteOnEvent(tick=0, channel=1, data=[45, 80]),\n",
      "   midi.NoteOffEvent(tick=192, channel=1, data=[45, 0]),\n",
      "   midi.NoteOnEvent(tick=192, channel=1, data=[50, 80]),\n",
      "   midi.NoteOffEvent(tick=192, channel=1, data=[50, 0]),\n",
      "   midi.NoteOnEvent(tick=576, channel=1, data=[50, 80]),\n",
      "   midi.NoteOffEvent(tick=192, channel=1, data=[50, 0]),\n",
      "   midi.NoteOnEvent(tick=576, channel=1, data=[50, 80]),\n",
      "   midi.NoteOffEvent(tick=192, channel=1, data=[50, 0]),\n",
      "   midi.NoteOnEvent(tick=576, channel=1, data=[50, 80]),\n",
      "   midi.NoteOffEvent(tick=192, channel=1, data=[50, 0]),\n",
      "   midi.NoteOnEvent(tick=576, channel=1, data=[50, 80]),\n",
      "   midi.NoteOffEvent(tick=192, channel=1, data=[50, 0]),\n",
      "   midi.NoteOnEvent(tick=4224, channel=1, data=[45, 80]),\n",
      "   midi.NoteOffEvent(tick=192, channel=1, data=[45, 0]),\n",
      "   midi.NoteOnEvent(tick=0, channel=1, data=[50, 80]),\n",
      "   midi.NoteOffEvent(tick=192, channel=1, data=[50, 0]),\n",
      "   midi.NoteOnEvent(tick=0, channel=1, data=[50, 80]),\n",
      "   midi.NoteOffEvent(tick=96, channel=1, data=[50, 0]),\n",
      "   midi.NoteOnEvent(tick=0, channel=1, data=[50, 80]),\n",
      "   midi.NoteOffEvent(tick=96, channel=1, data=[50, 0]),\n",
      "   midi.NoteOnEvent(tick=0, channel=1, data=[45, 80]),\n",
      "   midi.NoteOffEvent(tick=192, channel=1, data=[45, 0]),\n",
      "   midi.NoteOnEvent(tick=0, channel=1, data=[45, 80]),\n",
      "   midi.NoteOffEvent(tick=192, channel=1, data=[45, 0]),\n",
      "   midi.NoteOnEvent(tick=0, channel=1, data=[50, 80]),\n",
      "   midi.NoteOffEvent(tick=192, channel=1, data=[50, 0]),\n",
      "   midi.NoteOnEvent(tick=12288, channel=1, data=[50, 80]),\n",
      "   midi.NoteOffEvent(tick=96, channel=1, data=[50, 0]),\n",
      "   midi.NoteOnEvent(tick=0, channel=1, data=[50, 80]),\n",
      "   midi.NoteOffEvent(tick=96, channel=1, data=[50, 0]),\n",
      "   midi.NoteOnEvent(tick=0, channel=1, data=[50, 80]),\n",
      "   midi.NoteOffEvent(tick=96, channel=1, data=[50, 0]),\n",
      "   midi.NoteOnEvent(tick=0, channel=1, data=[50, 80]),\n",
      "   midi.NoteOffEvent(tick=96, channel=1, data=[50, 0]),\n",
      "   midi.NoteOnEvent(tick=0, channel=1, data=[50, 80]),\n",
      "   midi.NoteOffEvent(tick=96, channel=1, data=[50, 0]),\n",
      "   midi.NoteOnEvent(tick=0, channel=1, data=[50, 80]),\n",
      "   midi.NoteOffEvent(tick=96, channel=1, data=[50, 0]),\n",
      "   midi.NoteOnEvent(tick=0, channel=1, data=[50, 80]),\n",
      "   midi.NoteOffEvent(tick=192, channel=1, data=[50, 0]),\n",
      "   midi.NoteOnEvent(tick=1152, channel=1, data=[50, 80]),\n",
      "   midi.NoteOffEvent(tick=96, channel=1, data=[50, 0]),\n",
      "   midi.NoteOnEvent(tick=0, channel=1, data=[50, 80]),\n",
      "   midi.NoteOffEvent(tick=96, channel=1, data=[50, 0]),\n",
      "   midi.NoteOnEvent(tick=0, channel=1, data=[50, 80]),\n",
      "   midi.NoteOffEvent(tick=192, channel=1, data=[50, 0]),\n",
      "   midi.NoteOnEvent(tick=384, channel=1, data=[45, 80]),\n",
      "   midi.NoteOffEvent(tick=96, channel=1, data=[45, 0]),\n",
      "   midi.NoteOnEvent(tick=0, channel=1, data=[45, 80]),\n",
      "   midi.NoteOffEvent(tick=96, channel=1, data=[45, 0]),\n",
      "   midi.NoteOnEvent(tick=0, channel=1, data=[50, 80]),\n",
      "   midi.NoteOffEvent(tick=192, channel=1, data=[50, 0]),\n",
      "   midi.NoteOnEvent(tick=1920, channel=1, data=[50, 80]),\n",
      "   midi.NoteOffEvent(tick=96, channel=1, data=[50, 0]),\n",
      "   midi.NoteOnEvent(tick=0, channel=1, data=[50, 80]),\n",
      "   midi.NoteOffEvent(tick=96, channel=1, data=[50, 0]),\n",
      "   midi.NoteOnEvent(tick=0, channel=1, data=[50, 80]),\n",
      "   midi.NoteOffEvent(tick=192, channel=1, data=[50, 0]),\n",
      "   midi.NoteOnEvent(tick=384, channel=1, data=[45, 80]),\n",
      "   midi.NoteOffEvent(tick=96, channel=1, data=[45, 0]),\n",
      "   midi.NoteOnEvent(tick=0, channel=1, data=[45, 80]),\n",
      "   midi.NoteOffEvent(tick=96, channel=1, data=[45, 0]),\n",
      "   midi.NoteOnEvent(tick=0, channel=1, data=[50, 80]),\n",
      "   midi.NoteOffEvent(tick=192, channel=1, data=[50, 0]),\n",
      "   midi.NoteOnEvent(tick=5376, channel=1, data=[45, 80]),\n",
      "   midi.NoteOffEvent(tick=96, channel=1, data=[45, 0]),\n",
      "   midi.NoteOnEvent(tick=0, channel=1, data=[45, 80]),\n",
      "   midi.NoteOffEvent(tick=96, channel=1, data=[45, 0]),\n",
      "   midi.NoteOnEvent(tick=0, channel=1, data=[45, 80]),\n",
      "   midi.NoteOffEvent(tick=192, channel=1, data=[45, 0]),\n",
      "   midi.NoteOnEvent(tick=0, channel=1, data=[50, 80]),\n",
      "   midi.NoteOffEvent(tick=192, channel=1, data=[50, 0]),\n",
      "   midi.NoteOnEvent(tick=0, channel=1, data=[45, 80]),\n",
      "   midi.NoteOffEvent(tick=768, channel=1, data=[45, 0]),\n",
      "   midi.EndOfTrackEvent(tick=0, data=[])]),\n",
      " midi.Track(\\\n",
      "  [midi.TrackNameEvent(tick=0, text='Flauto transverso I', data=[70, 108, 97, 117, 116, 111, 32, 116, 114, 97, 110, 115, 118, 101, 114, 115, 111, 32, 73]),\n",
      "   midi.ControlChangeEvent(tick=0, channel=2, data=[0, 0]),\n",
      "   midi.ProgramChangeEvent(tick=0, channel=2, data=[73]),\n",
      "   midi.ControlChangeEvent(tick=0, channel=2, data=[7, 100]),\n",
      "   midi.ControlChangeEvent(tick=0, channel=2, data=[10, 62]),\n",
      "   midi.ControlChangeEvent(tick=0, channel=2, data=[91, 127]),\n",
      "   midi.ControlChangeEvent(tick=0, channel=2, data=[93, 127]),\n",
      "   midi.KeySignatureEvent(tick=0, data=[2, 0]),\n",
      "   midi.NoteOnEvent(tick=2112, channel=2, data=[69, 80]),\n",
      "   midi.NoteOffEvent(tick=192, channel=2, data=[69, 0]),\n",
      "   midi.NoteOnEvent(tick=0, channel=2, data=[74, 80]),\n",
      "   midi.NoteOffEvent(tick=48, channel=2, data=[74, 0]),\n",
      "   midi.NoteOnEvent(tick=0, channel=2, data=[76, 80]),\n",
      "   midi.NoteOffEvent(tick=48, channel=2, data=[76, 0]),\n",
      "   midi.NoteOnEvent(tick=0, channel=2, data=[78, 80]),\n",
      "   midi.NoteOffEvent(tick=256, channel=2, data=[78, 0]),\n",
      "   midi.NoteOnEvent(tick=32, channel=2, data=[76, 80]),\n",
      "   midi.NoteOffEvent(tick=48, channel=2, data=[76, 0]),\n",
      "   midi.NoteOnEvent(tick=0, channel=2, data=[78, 80]),\n",
      "   midi.NoteOffEvent(tick=48, channel=2, data=[78, 0]),\n",
      "   midi.NoteOnEvent(tick=0, channel=2, data=[79, 80]),\n",
      "   midi.NoteOffEvent(tick=256, channel=2, data=[79, 0]),\n",
      "   midi.NoteOnEvent(tick=32, channel=2, data=[78, 80]),\n",
      "   midi.NoteOffEvent(tick=192, channel=2, data=[78, 0]),\n",
      "   midi.NoteOnEvent(tick=0, channel=2, data=[81, 80]),\n",
      "   midi.NoteOffEvent(tick=192, channel=2, data=[81, 0]),\n",
      "   midi.NoteOnEvent(tick=0, channel=2, data=[78, 80]),\n",
      "   midi.NoteOffEvent(tick=192, channel=2, data=[78, 0]),\n",
      "   midi.NoteOnEvent(tick=0, channel=2, data=[74, 80]),\n",
      "   midi.NoteOffEvent(tick=192, channel=2, data=[74, 0]),\n",
      "   midi.NoteOnEvent(tick=1344, channel=2, data=[69, 80]),\n",
      "   midi.NoteOffEvent(tick=192, channel=2, data=[69, 0]),\n",
      "   midi.NoteOnEvent(tick=0, channel=2, data=[74, 80]),\n",
      "   midi.NoteOffEvent(tick=48, channel=2, data=[74, 0]),\n",
      "   midi.NoteOnEvent(tick=0, channel=2, data=[76, 80]),\n",
      "   midi.NoteOffEvent(tick=48, channel=2, data=[76, 0]),\n",
      "   midi.NoteOnEvent(tick=0, channel=2, data=[78, 80]),\n",
      "   midi.NoteOffEvent(tick=256, channel=2, data=[78, 0]),\n",
      "   midi.NoteOnEvent(tick=32, channel=2, data=[76, 80]),\n",
      "   midi.NoteOffEvent(tick=48, channel=2, data=[76, 0]),\n",
      "   midi.NoteOnEvent(tick=0, channel=2, data=[78, 80]),\n",
      "   midi.NoteOffEvent(tick=48, channel=2, data=[78, 0]),\n",
      "   midi.NoteOnEvent(tick=0, channel=2, data=[79, 80]),\n",
      "   midi.NoteOffEvent(tick=256, channel=2, data=[79, 0]),\n",
      "   midi.NoteOnEvent(tick=32, channel=2, data=[78, 80]),\n",
      "   midi.NoteOffEvent(tick=192, channel=2, data=[78, 0]),\n",
      "   midi.NoteOnEvent(tick=0, channel=2, data=[81, 80]),\n",
      "   midi.NoteOffEvent(tick=192, channel=2, data=[81, 0]),\n",
      "   midi.NoteOnEvent(tick=0, channel=2, data=[78, 80]),\n",
      "   midi.NoteOffEvent(tick=192, channel=2, data=[78, 0]),\n",
      "   midi.NoteOnEvent(tick=0, channel=2, data=[74, 80]),\n",
      "   midi.NoteOffEvent(tick=192, channel=2, data=[74, 0]),\n",
      "   midi.NoteOnEvent(tick=192, channel=2, data=[78, 80]),\n",
      "   midi.NoteOffEvent(tick=96, channel=2, data=[78, 0]),\n",
      "   midi.NoteOnEvent(tick=0, channel=2, data=[76, 80]),\n",
      "   midi.NoteOffEvent(tick=96, channel=2, data=[76, 0]),\n",
      "   midi.NoteOnEvent(tick=0, channel=2, data=[74, 80]),\n",
      "   midi.NoteOffEvent(tick=96, channel=2, data=[74, 0]),\n",
      "   midi.NoteOnEvent(tick=0, channel=2, data=[73, 80]),\n",
      "   midi.NoteOffEvent(tick=96, channel=2, data=[73, 0]),\n",
      "   midi.NoteOnEvent(tick=0, channel=2, data=[71, 80]),\n",
      "   midi.NoteOffEvent(tick=96, channel=2, data=[71, 0]),\n",
      "   midi.NoteOnEvent(tick=0, channel=2, data=[69, 80]),\n",
      "   midi.NoteOffEvent(tick=96, channel=2, data=[69, 0]),\n",
      "   midi.NoteOnEvent(tick=0, channel=2, data=[71, 80]),\n",
      "   midi.NoteOffEvent(tick=192, channel=2, data=[71, 0]),\n",
      "   midi.NoteOnEvent(tick=0, channel=2, data=[83, 80]),\n",
      "   midi.NoteOffEvent(tick=96, channel=2, data=[83, 0]),\n",
      "   midi.NoteOnEvent(tick=0, channel=2, data=[81, 80]),\n",
      "   midi.NoteOffEvent(tick=96, channel=2, data=[81, 0]),\n",
      "   midi.NoteOnEvent(tick=0, channel=2, data=[83, 80]),\n",
      "   midi.NoteOffEvent(tick=96, channel=2, data=[83, 0]),\n",
      "   midi.NoteOnEvent(tick=0, channel=2, data=[81, 80]),\n",
      "   midi.NoteOffEvent(tick=96, channel=2, data=[81, 0]),\n",
      "   midi.NoteOnEvent(tick=0, channel=2, data=[80, 80]),\n",
      "   midi.NoteOffEvent(tick=96, channel=2, data=[80, 0]),\n",
      "   midi.NoteOnEvent(tick=0, channel=2, data=[78, 80]),\n",
      "   midi.NoteOffEvent(tick=96, channel=2, data=[78, 0]),\n",
      "   midi.NoteOnEvent(tick=0, channel=2, data=[76, 80]),\n",
      "   midi.NoteOffEvent(tick=96, channel=2, data=[76, 0]),\n",
      "   midi.NoteOnEvent(tick=0, channel=2, data=[78, 80]),\n",
      "   midi.NoteOffEvent(tick=96, channel=2, data=[78, 0]),\n",
      "   midi.NoteOnEvent(tick=0, channel=2, data=[76, 80]),\n",
      "   midi.NoteOffEvent(tick=96, channel=2, data=[76, 0]),\n",
      "   midi.NoteOnEvent(tick=0, channel=2, data=[74, 80]),\n",
      "   midi.NoteOffEvent(tick=96, channel=2, data=[74, 0]),\n",
      "   midi.NoteOnEvent(tick=0, channel=2, data=[73, 80]),\n",
      "   midi.NoteOffEvent(tick=96, channel=2, data=[73, 0]),\n",
      "   midi.NoteOnEvent(tick=0, channel=2, data=[71, 80]),\n",
      "   midi.NoteOffEvent(tick=96, channel=2, data=[71, 0]),\n",
      "   midi.NoteOnEvent(tick=0, channel=2, data=[69, 80]),\n",
      "   midi.NoteOffEvent(tick=96, channel=2, data=[69, 0]),\n",
      "   midi.NoteOnEvent(tick=0, channel=2, data=[68, 80]),\n",
      "   midi.NoteOffEvent(tick=96, channel=2, data=[68, 0]),\n",
      "   midi.NoteOnEvent(tick=0, channel=2, data=[69, 80]),\n",
      "   midi.NoteOffEvent(tick=192, channel=2, data=[69, 0]),\n",
      "   midi.NoteOnEvent(tick=0, channel=2, data=[81, 80]),\n",
      "   midi.NoteOffEvent(tick=96, channel=2, data=[81, 0]),\n",
      "   midi.NoteOnEvent(tick=0, channel=2, data=[80, 80]),\n",
      "   midi.NoteOffEvent(tick=96, channel=2, data=[80, 0]),\n",
      "   midi.NoteOnEvent(tick=0, channel=2, data=[81, 80]),\n",
      "   midi.NoteOffEvent(tick=96, channel=2, data=[81, 0]),\n",
      "   midi.NoteOnEvent(tick=0, channel=2, data=[80, 80]),\n",
      "   midi.NoteOffEvent(tick=96, channel=2, data=[80, 0]),\n",
      "   midi.NoteOnEvent(tick=0, channel=2, data=[78, 80]),\n",
      "   midi.NoteOffEvent(tick=96, channel=2, data=[78, 0]),\n",
      "   midi.NoteOnEvent(tick=0, channel=2, data=[76, 80]),\n",
      "   midi.NoteOffEvent(tick=96, channel=2, data=[76, 0]),\n",
      "   midi.NoteOnEvent(tick=0, channel=2, data=[74, 80]),\n",
      "   midi.NoteOffEvent(tick=96, channel=2, data=[74, 0]),\n",
      "   midi.NoteOnEvent(tick=0, channel=2, data=[73, 80]),\n",
      "   midi.NoteOffEvent(tick=96, channel=2, data=[73, 0]),\n",
      "   midi.NoteOnEvent(tick=0, channel=2, data=[74, 80]),\n",
      "   midi.NoteOffEvent(tick=96, channel=2, data=[74, 0]),\n",
      "   midi.NoteOnEvent(tick=0, channel=2, data=[76, 80]),\n",
      "   midi.NoteOffEvent(tick=96, channel=2, data=[76, 0]),\n",
      "   midi.NoteOnEvent(tick=0, channel=2, data=[74, 80]),\n",
      "   midi.NoteOffEvent(tick=96, channel=2, data=[74, 0]),\n",
      "   midi.NoteOnEvent(tick=0, channel=2, data=[73, 80]),\n",
      "   midi.NoteOffEvent(tick=96, channel=2, data=[73, 0]),\n",
      "   midi.NoteOnEvent(tick=0, channel=2, data=[71, 80]),\n",
      "   midi.NoteOffEvent(tick=96, channel=2, data=[71, 0]),\n",
      "   midi.NoteOnEvent(tick=0, channel=2, data=[69, 80]),\n",
      "   midi.NoteOffEvent(tick=96, channel=2, data=[69, 0]),\n",
      "   midi.NoteOnEvent(tick=0, channel=2, data=[76, 80]),\n",
      "   midi.NoteOffEvent(tick=896, channel=2, data=[76, 0]),\n",
      "   midi.NoteOnEvent(tick=64, channel=2, data=[74, 80]),\n",
      "   midi.NoteOffEvent(tick=96, channel=2, data=[74, 0]),\n",
      "   midi.NoteOnEvent(tick=0, channel=2, data=[73, 80]),\n",
      "   midi.NoteOffEvent(tick=96, channel=2, data=[73, 0]),\n",
      "   midi.NoteOnEvent(tick=0, channel=2, data=[74, 80]),\n",
      "   midi.NoteOffEvent(tick=96, channel=2, data=[74, 0]),\n",
      "   midi.NoteOnEvent(tick=0, channel=2, data=[73, 80]),\n",
      "   midi.NoteOffEvent(tick=96, channel=2, data=[73, 0]),\n",
      "   midi.NoteOnEvent(tick=0, channel=2, data=[71, 80]),\n",
      "   midi.NoteOffEvent(tick=96, channel=2, data=[71, 0]),\n",
      "   midi.NoteOnEvent(tick=0, channel=2, data=[73, 80]),\n",
      "   midi.NoteOffEvent(tick=96, channel=2, data=[73, 0]),\n",
      "   midi.NoteOnEvent(tick=0, channel=2, data=[69, 80]),\n",
      "   midi.NoteOffEvent(tick=192, channel=2, data=[69, 0]),\n",
      "   midi.NoteOnEvent(tick=0, channel=2, data=[88, 80]),\n",
      "   midi.NoteOffEvent(tick=192, channel=2, data=[88, 0]),\n",
      "   midi.NoteOnEvent(tick=0, channel=2, data=[85, 80]),\n",
      "   midi.NoteOffEvent(tick=192, channel=2, data=[85, 0]),\n",
      "   midi.NoteOnEvent(tick=0, channel=2, data=[81, 80]),\n",
      "   midi.NoteOffEvent(tick=192, channel=2, data=[81, 0]),\n",
      "   midi.NoteOnEvent(tick=192, channel=2, data=[76, 80]),\n",
      "   midi.NoteOffEvent(tick=192, channel=2, data=[76, 0]),\n",
      "   midi.NoteOnEvent(tick=0, channel=2, data=[73, 80]),\n",
      "   midi.NoteOffEvent(tick=192, channel=2, data=[73, 0]),\n",
      "   midi.NoteOnEvent(tick=0, channel=2, data=[69, 80]),\n",
      "   midi.NoteOffEvent(tick=192, channel=2, data=[69, 0]),\n",
      "   midi.NoteOnEvent(tick=192, channel=2, data=[79, 80]),\n",
      "   midi.NoteOffEvent(tick=96, channel=2, data=[79, 0]),\n",
      "   midi.NoteOnEvent(tick=0, channel=2, data=[78, 80]),\n",
      "   midi.NoteOffEvent(tick=96, channel=2, data=[78, 0]),\n",
      "   midi.NoteOnEvent(tick=0, channel=2, data=[76, 80]),\n",
      "   midi.NoteOffEvent(tick=96, channel=2, data=[76, 0]),\n",
      "   midi.NoteOnEvent(tick=0, channel=2, data=[74, 80]),\n",
      "   midi.NoteOffEvent(tick=96, channel=2, data=[74, 0]),\n",
      "   midi.NoteOnEvent(tick=0, channel=2, data=[73, 80]),\n",
      "   midi.NoteOffEvent(tick=96, channel=2, data=[73, 0]),\n",
      "   midi.NoteOnEvent(tick=0, channel=2, data=[71, 80]),\n",
      "   midi.NoteOffEvent(tick=96, channel=2, data=[71, 0]),\n",
      "   midi.NoteOnEvent(tick=0, channel=2, data=[70, 80]),\n",
      "   midi.NoteOffEvent(tick=192, channel=2, data=[70, 0]),\n",
      "   midi.NoteOnEvent(tick=0, channel=2, data=[78, 80]),\n",
      "   midi.NoteOffEvent(tick=256, channel=2, data=[78, 0]),\n",
      "   midi.NoteOnEvent(tick=32, channel=2, data=[76, 80]),\n",
      "   midi.NoteOffEvent(tick=96, channel=2, data=[76, 0]),\n",
      "   midi.NoteOnEvent(tick=0, channel=2, data=[74, 80]),\n",
      "   midi.NoteOffEvent(tick=96, channel=2, data=[74, 0]),\n",
      "   midi.NoteOnEvent(tick=0, channel=2, data=[73, 80]),\n",
      "   midi.NoteOffEvent(tick=96, channel=2, data=[73, 0]),\n",
      "   midi.NoteOnEvent(tick=0, channel=2, data=[74, 80]),\n",
      "   midi.NoteOffEvent(tick=192, channel=2, data=[74, 0]),\n",
      "   midi.NoteOnEvent(tick=0, channel=2, data=[78, 80]),\n",
      "   midi.NoteOffEvent(tick=192, channel=2, data=[78, 0]),\n",
      "   midi.NoteOnEvent(tick=0, channel=2, data=[74, 80]),\n",
      "   midi.NoteOffEvent(tick=192, channel=2, data=[74, 0]),\n",
      "   midi.NoteOnEvent(tick=0, channel=2, data=[71, 80]),\n",
      "   midi.NoteOffEvent(tick=192, channel=2, data=[71, 0]),\n",
      "   midi.NoteOnEvent(tick=0, channel=2, data=[78, 80]),\n",
      "   midi.NoteOffEvent(tick=96, channel=2, data=[78, 0]),\n",
      "   midi.NoteOnEvent(tick=0, channel=2, data=[79, 80]),\n",
      "   midi.NoteOffEvent(tick=96, channel=2, data=[79, 0]),\n",
      "   midi.NoteOnEvent(tick=0, channel=2, data=[81, 80]),\n",
      "   midi.NoteOffEvent(tick=96, channel=2, data=[81, 0]),\n",
      "   midi.NoteOnEvent(tick=96, channel=2, data=[81, 80]),\n",
      "   midi.NoteOffEvent(tick=96, channel=2, data=[81, 0]),\n",
      "   midi.NoteOnEvent(tick=96, channel=2, data=[81, 80]),\n",
      "   midi.NoteOffEvent(tick=96, channel=2, data=[81, 0]),\n",
      "   midi.NoteOnEvent(tick=96, channel=2, data=[81, 80]),\n",
      "   midi.NoteOffEvent(tick=864, channel=2, data=[81, 0]),\n",
      "   midi.NoteOnEvent(tick=0, channel=2, data=[84, 80]),\n",
      "   midi.NoteOffEvent(tick=96, channel=2, data=[84, 0]),\n",
      "   midi.NoteOnEvent(tick=0, channel=2, data=[83, 80]),\n",
      "   midi.NoteOffEvent(tick=96, channel=2, data=[83, 0]),\n",
      "   midi.NoteOnEvent(tick=0, channel=2, data=[81, 80]),\n",
      "   midi.NoteOffEvent(tick=96, channel=2, data=[81, 0]),\n",
      "   midi.NoteOnEvent(tick=0, channel=2, data=[83, 80]),\n",
      "   midi.NoteOffEvent(tick=96, channel=2, data=[83, 0]),\n",
      "   midi.NoteOnEvent(tick=0, channel=2, data=[81, 80]),\n",
      "   midi.NoteOffEvent(tick=96, channel=2, data=[81, 0]),\n",
      "   midi.NoteOnEvent(tick=0, channel=2, data=[79, 80]),\n",
      "   midi.NoteOffEvent(tick=96, channel=2, data=[79, 0]),\n",
      "   midi.NoteOnEvent(tick=0, channel=2, data=[78, 80]),\n",
      "   midi.NoteOffEvent(tick=96, channel=2, data=[78, 0]),\n",
      "   midi.NoteOnEvent(tick=0, channel=2, data=[79, 80]),\n",
      "   midi.NoteOffEvent(tick=96, channel=2, data=[79, 0]),\n",
      "   midi.NoteOnEvent(tick=0, channel=2, data=[81, 80]),\n",
      "   midi.NoteOffEvent(tick=96, channel=2, data=[81, 0]),\n",
      "   midi.NoteOnEvent(tick=0, channel=2, data=[79, 80]),\n",
      "   midi.NoteOffEvent(tick=96, channel=2, data=[79, 0]),\n",
      "   midi.NoteOnEvent(tick=0, channel=2, data=[78, 80]),\n",
      "   midi.NoteOffEvent(tick=96, channel=2, data=[78, 0]),\n",
      "   midi.NoteOnEvent(tick=0, channel=2, data=[76, 80]),\n",
      "   midi.NoteOffEvent(tick=96, channel=2, data=[76, 0]),\n",
      "   midi.NoteOnEvent(tick=0, channel=2, data=[78, 80]),\n",
      "   midi.NoteOffEvent(tick=96, channel=2, data=[78, 0]),\n",
      "   midi.NoteOnEvent(tick=0, channel=2, data=[79, 80]),\n",
      "   midi.NoteOffEvent(tick=96, channel=2, data=[79, 0]),\n",
      "   midi.NoteOnEvent(tick=0, channel=2, data=[81, 80]),\n",
      "   midi.NoteOffEvent(tick=96, channel=2, data=[81, 0]),\n",
      "   midi.NoteOnEvent(tick=0, channel=2, data=[83, 80]),\n",
      "   midi.NoteOffEvent(tick=96, channel=2, data=[83, 0]),\n",
      "   midi.NoteOnEvent(tick=0, channel=2, data=[84, 80]),\n",
      "   midi.NoteOffEvent(tick=96, channel=2, data=[84, 0]),\n",
      "   midi.NoteOnEvent(tick=0, channel=2, data=[83, 80]),\n",
      "   midi.NoteOffEvent(tick=96, channel=2, data=[83, 0]),\n",
      "   midi.NoteOnEvent(tick=96, channel=2, data=[83, 80]),\n",
      "   midi.NoteOffEvent(tick=96, channel=2, data=[83, 0]),\n",
      "   midi.NoteOnEvent(tick=96, channel=2, data=[83, 80]),\n",
      "   midi.NoteOffEvent(tick=96, channel=2, data=[83, 0]),\n",
      "   midi.NoteOnEvent(tick=96, channel=2, data=[83, 80]),\n",
      "   midi.NoteOffEvent(tick=192, channel=2, data=[83, 0]),\n",
      "   midi.NoteOnEvent(tick=0, channel=2, data=[88, 80]),\n",
      "   midi.NoteOffEvent(tick=96, channel=2, data=[88, 0]),\n",
      "   midi.NoteOnEvent(tick=0, channel=2, data=[86, 80]),\n",
      "   midi.NoteOffEvent(tick=96, channel=2, data=[86, 0]),\n",
      "   midi.NoteOnEvent(tick=0, channel=2, data=[88, 80]),\n",
      "   midi.NoteOffEvent(tick=96, channel=2, data=[88, 0]),\n",
      "   midi.NoteOnEvent(tick=0, channel=2, data=[86, 80]),\n",
      "   midi.NoteOffEvent(tick=96, channel=2, data=[86, 0]),\n",
      "   midi.NoteOnEvent(tick=0, channel=2, data=[85, 80]),\n",
      "   midi.NoteOffEvent(tick=96, channel=2, data=[85, 0]),\n",
      "   midi.NoteOnEvent(tick=0, channel=2, data=[83, 80]),\n",
      "   midi.NoteOffEvent(tick=96, channel=2, data=[83, 0]),\n",
      "   midi.NoteOnEvent(tick=0, channel=2, data=[81, 80]),\n",
      "   midi.NoteOffEvent(tick=96, channel=2, data=[81, 0]),\n",
      "   midi.NoteOnEvent(tick=0, channel=2, data=[83, 80]),\n",
      "   midi.NoteOffEvent(tick=96, channel=2, data=[83, 0]),\n",
      "   midi.NoteOnEvent(tick=0, channel=2, data=[81, 80]),\n",
      "   midi.NoteOffEvent(tick=96, channel=2, data=[81, 0]),\n",
      "   midi.NoteOnEvent(tick=96, channel=2, data=[81, 80]),\n",
      "   midi.NoteOffEvent(tick=96, channel=2, data=[81, 0]),\n",
      "   midi.NoteOnEvent(tick=96, channel=2, data=[81, 80]),\n",
      "   midi.NoteOffEvent(tick=96, channel=2, data=[81, 0]),\n",
      "   midi.NoteOnEvent(tick=96, channel=2, data=[81, 80]),\n",
      "   midi.NoteOffEvent(tick=192, channel=2, data=[81, 0]),\n",
      "   midi.NoteOnEvent(tick=0, channel=2, data=[86, 80]),\n",
      "   midi.NoteOffEvent(tick=96, channel=2, data=[86, 0]),\n",
      "   midi.NoteOnEvent(tick=0, channel=2, data=[85, 80]),\n",
      "   midi.NoteOffEvent(tick=96, channel=2, data=[85, 0]),\n",
      "   midi.NoteOnEvent(tick=0, channel=2, data=[86, 80]),\n",
      "   midi.NoteOffEvent(tick=96, channel=2, data=[86, 0]),\n",
      "   midi.NoteOnEvent(tick=0, channel=2, data=[85, 80]),\n",
      "   midi.NoteOffEvent(tick=96, channel=2, data=[85, 0]),\n",
      "   midi.NoteOnEvent(tick=0, channel=2, data=[83, 80]),\n",
      "   midi.NoteOffEvent(tick=96, channel=2, data=[83, 0]),\n",
      "   midi.NoteOnEvent(tick=0, channel=2, data=[81, 80]),\n",
      "   midi.NoteOffEvent(tick=96, channel=2, data=[81, 0]),\n",
      "   midi.NoteOnEvent(tick=0, channel=2, data=[79, 80]),\n",
      "   midi.NoteOffEvent(tick=96, channel=2, data=[79, 0]),\n",
      "   midi.NoteOnEvent(tick=0, channel=2, data=[81, 80]),\n",
      "   midi.NoteOffEvent(tick=96, channel=2, data=[81, 0]),\n",
      "   midi.NoteOnEvent(tick=0, channel=2, data=[79, 80]),\n",
      "   midi.NoteOffEvent(tick=96, channel=2, data=[79, 0]),\n",
      "   midi.NoteOnEvent(tick=0, channel=2, data=[78, 80]),\n",
      "   midi.NoteOffEvent(tick=96, channel=2, data=[78, 0]),\n",
      "   midi.NoteOnEvent(tick=0, channel=2, data=[76, 80]),\n",
      "   midi.NoteOffEvent(tick=96, channel=2, data=[76, 0]),\n",
      "   midi.NoteOnEvent(tick=0, channel=2, data=[74, 80]),\n",
      "   midi.NoteOffEvent(tick=96, channel=2, data=[74, 0]),\n",
      "   midi.NoteOnEvent(tick=0, channel=2, data=[73, 80]),\n",
      "   midi.NoteOffEvent(tick=96, channel=2, data=[73, 0]),\n",
      "   midi.NoteOnEvent(tick=0, channel=2, data=[71, 80]),\n",
      "   midi.NoteOffEvent(tick=96, channel=2, data=[71, 0]),\n",
      "   midi.NoteOnEvent(tick=0, channel=2, data=[73, 80]),\n",
      "   midi.NoteOffEvent(tick=96, channel=2, data=[73, 0]),\n",
      "   midi.NoteOnEvent(tick=0, channel=2, data=[71, 80]),\n",
      "   midi.NoteOffEvent(tick=96, channel=2, data=[71, 0]),\n",
      "   midi.NoteOnEvent(tick=0, channel=2, data=[73, 80]),\n",
      "   midi.NoteOffEvent(tick=96, channel=2, data=[73, 0]),\n",
      "   midi.NoteOnEvent(tick=0, channel=2, data=[74, 80]),\n",
      "   midi.NoteOffEvent(tick=96, channel=2, data=[74, 0]),\n",
      "   midi.NoteOnEvent(tick=0, channel=2, data=[76, 80]),\n",
      "   midi.NoteOffEvent(tick=96, channel=2, data=[76, 0]),\n",
      "   midi.NoteOnEvent(tick=0, channel=2, data=[79, 80]),\n",
      "   midi.NoteOffEvent(tick=96, channel=2, data=[79, 0]),\n",
      "   midi.NoteOnEvent(tick=0, channel=2, data=[78, 80]),\n",
      "   midi.NoteOffEvent(tick=96, channel=2, data=[78, 0]),\n",
      "   midi.NoteOnEvent(tick=0, channel=2, data=[76, 80]),\n",
      "   midi.NoteOffEvent(tick=96, channel=2, data=[76, 0]),\n",
      "   midi.NoteOnEvent(tick=0, channel=2, data=[78, 80]),\n",
      "   midi.NoteOffEvent(tick=96, channel=2, data=[78, 0]),\n",
      "   midi.NoteOnEvent(tick=0, channel=2, data=[81, 80]),\n",
      "   midi.NoteOffEvent(tick=96, channel=2, data=[81, 0]),\n",
      "   midi.NoteOnEvent(tick=0, channel=2, data=[79, 80]),\n",
      "   midi.NoteOffEvent(tick=96, channel=2, data=[79, 0]),\n",
      "   midi.NoteOnEvent(tick=0, channel=2, data=[78, 80]),\n",
      "   midi.NoteOffEvent(tick=96, channel=2, data=[78, 0]),\n",
      "   midi.NoteOnEvent(tick=0, channel=2, data=[79, 80]),\n",
      "   midi.NoteOffEvent(tick=96, channel=2, data=[79, 0]),\n",
      "   midi.NoteOnEvent(tick=0, channel=2, data=[78, 80]),\n",
      "   midi.NoteOffEvent(tick=96, channel=2, data=[78, 0]),\n",
      "   midi.NoteOnEvent(tick=0, channel=2, data=[76, 80]),\n",
      "   midi.NoteOffEvent(tick=96, channel=2, data=[76, 0]),\n",
      "   midi.NoteOnEvent(tick=0, channel=2, data=[78, 80]),\n",
      "   midi.NoteOffEvent(tick=96, channel=2, data=[78, 0]),\n",
      "   midi.NoteOnEvent(tick=0, channel=2, data=[74, 80]),\n",
      "   midi.NoteOffEvent(tick=96, channel=2, data=[74, 0]),\n",
      "   midi.NoteOnEvent(tick=0, channel=2, data=[69, 80]),\n",
      "   midi.NoteOffEvent(tick=96, channel=2, data=[69, 0]),\n",
      "   midi.NoteOnEvent(tick=0, channel=2, data=[71, 80]),\n",
      "   midi.NoteOffEvent(tick=96, channel=2, data=[71, 0]),\n",
      "   midi.NoteOnEvent(tick=0, channel=2, data=[73, 80]),\n",
      "   midi.NoteOffEvent(tick=96, channel=2, data=[73, 0]),\n",
      "   midi.NoteOnEvent(tick=0, channel=2, data=[74, 80]),\n",
      "   midi.NoteOffEvent(tick=96, channel=2, data=[74, 0]),\n",
      "   midi.NoteOnEvent(tick=0, channel=2, data=[73, 80]),\n",
      "   midi.NoteOffEvent(tick=96, channel=2, data=[73, 0]),\n",
      "   midi.NoteOnEvent(tick=0, channel=2, data=[74, 80]),\n",
      "   midi.NoteOffEvent(tick=96, channel=2, data=[74, 0]),\n",
      "   midi.NoteOnEvent(tick=0, channel=2, data=[76, 80]),\n",
      "   midi.NoteOffEvent(tick=96, channel=2, data=[76, 0]),\n",
      "   midi.NoteOnEvent(tick=0, channel=2, data=[78, 80]),\n",
      "   midi.NoteOffEvent(tick=96, channel=2, data=[78, 0]),\n",
      "   midi.NoteOnEvent(tick=0, channel=2, data=[79, 80]),\n",
      "   midi.NoteOffEvent(tick=96, channel=2, data=[79, 0]),\n",
      "   midi.NoteOnEvent(tick=0, channel=2, data=[81, 80]),\n",
      "   midi.NoteOffEvent(tick=96, channel=2, data=[81, 0]),\n",
      "   midi.NoteOnEvent(tick=96, channel=2, data=[81, 80]),\n",
      "   midi.NoteOffEvent(tick=96, channel=2, data=[81, 0]),\n",
      "   midi.NoteOnEvent(tick=96, channel=2, data=[81, 80]),\n",
      "   midi.NoteOffEvent(tick=96, channel=2, data=[81, 0]),\n",
      "   midi.NoteOnEvent(tick=96, channel=2, data=[81, 80]),\n",
      "   midi.NoteOffEvent(tick=192, channel=2, data=[81, 0]),\n",
      "   midi.NoteOnEvent(tick=2112, channel=2, data=[79, 80]),\n",
      "   midi.NoteOffEvent(tick=864, channel=2, data=[79, 0]),\n",
      "   midi.NoteOnEvent(tick=0, channel=2, data=[78, 80]),\n",
      "   midi.NoteOffEvent(tick=96, channel=2, data=[78, 0]),\n",
      "   midi.NoteOnEvent(tick=0, channel=2, data=[76, 80]),\n",
      "   midi.NoteOffEvent(tick=96, channel=2, data=[76, 0]),\n",
      "   midi.NoteOnEvent(tick=0, channel=2, data=[74, 80]),\n",
      "   midi.NoteOffEvent(tick=96, channel=2, data=[74, 0]),\n",
      "   midi.NoteOnEvent(tick=0, channel=2, data=[73, 80]),\n",
      "   midi.NoteOffEvent(tick=96, channel=2, data=[73, 0]),\n",
      "   midi.NoteOnEvent(tick=0, channel=2, data=[71, 80]),\n",
      "   midi.NoteOffEvent(tick=96, channel=2, data=[71, 0]),\n",
      "   midi.NoteOnEvent(tick=0, channel=2, data=[73, 80]),\n",
      "   midi.NoteOffEvent(tick=96, channel=2, data=[73, 0]),\n",
      "   midi.NoteOnEvent(tick=0, channel=2, data=[69, 80]),\n",
      "   midi.NoteOffEvent(tick=96, channel=2, data=[69, 0]),\n",
      "   midi.NoteOnEvent(tick=0, channel=2, data=[74, 80]),\n",
      "   midi.NoteOffEvent(tick=48, channel=2, data=[74, 0]),\n",
      "   midi.NoteOnEvent(tick=0, channel=2, data=[76, 80]),\n",
      "   midi.NoteOffEvent(tick=48, channel=2, data=[76, 0]),\n",
      "   midi.NoteOnEvent(tick=0, channel=2, data=[78, 80]),\n",
      "   midi.NoteOffEvent(tick=256, channel=2, data=[78, 0]),\n",
      "   midi.NoteOnEvent(tick=32, channel=2, data=[76, 80]),\n",
      "   midi.NoteOffEvent(tick=48, channel=2, data=[76, 0]),\n",
      "   midi.NoteOnEvent(tick=0, channel=2, data=[78, 80]),\n",
      "   midi.NoteOffEvent(tick=48, channel=2, data=[78, 0]),\n",
      "   midi.NoteOnEvent(tick=0, channel=2, data=[79, 80]),\n",
      "   midi.NoteOffEvent(tick=256, channel=2, data=[79, 0]),\n",
      "   midi.NoteOnEvent(tick=2144, channel=2, data=[69, 80]),\n",
      "   midi.NoteOffEvent(tick=192, channel=2, data=[69, 0]),\n",
      "   midi.NoteOnEvent(tick=0, channel=2, data=[74, 80]),\n",
      "   midi.NoteOffEvent(tick=48, channel=2, data=[74, 0]),\n",
      "   midi.NoteOnEvent(tick=0, channel=2, data=[76, 80]),\n",
      "   midi.NoteOffEvent(tick=48, channel=2, data=[76, 0]),\n",
      "   midi.NoteOnEvent(tick=0, channel=2, data=[78, 80]),\n",
      "   midi.NoteOffEvent(tick=256, channel=2, data=[78, 0]),\n",
      "   midi.NoteOnEvent(tick=32, channel=2, data=[76, 80]),\n",
      "   midi.NoteOffEvent(tick=48, channel=2, data=[76, 0]),\n",
      "   midi.NoteOnEvent(tick=0, channel=2, data=[78, 80]),\n",
      "   midi.NoteOffEvent(tick=48, channel=2, data=[78, 0]),\n",
      "   midi.NoteOnEvent(tick=0, channel=2, data=[79, 80]),\n",
      "   midi.NoteOffEvent(tick=256, channel=2, data=[79, 0]),\n",
      "   midi.NoteOnEvent(tick=32, channel=2, data=[78, 80]),\n",
      "   midi.NoteOffEvent(tick=192, channel=2, data=[78, 0]),\n",
      "   midi.NoteOnEvent(tick=0, channel=2, data=[81, 80]),\n",
      "   midi.NoteOffEvent(tick=192, channel=2, data=[81, 0]),\n",
      "   midi.NoteOnEvent(tick=0, channel=2, data=[78, 80]),\n",
      "   midi.NoteOffEvent(tick=192, channel=2, data=[78, 0]),\n",
      "   midi.NoteOnEvent(tick=0, channel=2, data=[74, 80]),\n",
      "   midi.NoteOffEvent(tick=192, channel=2, data=[74, 0]),\n",
      "   midi.NoteOnEvent(tick=0, channel=2, data=[78, 80]),\n",
      "   midi.NoteOffEvent(tick=96, channel=2, data=[78, 0]),\n",
      "   midi.NoteOnEvent(tick=0, channel=2, data=[79, 80]),\n",
      "   midi.NoteOffEvent(tick=96, channel=2, data=[79, 0]),\n",
      "   midi.NoteOnEvent(tick=0, channel=2, data=[81, 80]),\n",
      "   midi.NoteOffEvent(tick=96, channel=2, data=[81, 0]),\n",
      "   midi.NoteOnEvent(tick=96, channel=2, data=[81, 80]),\n",
      "   midi.NoteOffEvent(tick=96, channel=2, data=[81, 0]),\n",
      "   midi.NoteOnEvent(tick=96, channel=2, data=[81, 80]),\n",
      "   midi.NoteOffEvent(tick=96, channel=2, data=[81, 0]),\n",
      "   midi.NoteOnEvent(tick=96, channel=2, data=[81, 80]),\n",
      "   midi.NoteOffEvent(tick=192, channel=2, data=[81, 0]),\n",
      "   midi.NoteOnEvent(tick=0, channel=2, data=[86, 80]),\n",
      "   midi.NoteOffEvent(tick=96, channel=2, data=[86, 0]),\n",
      "   midi.NoteOnEvent(tick=0, channel=2, data=[85, 80]),\n",
      "   midi.NoteOffEvent(tick=96, channel=2, data=[85, 0]),\n",
      "   midi.NoteOnEvent(tick=0, channel=2, data=[86, 80]),\n",
      "   midi.NoteOffEvent(tick=96, channel=2, data=[86, 0]),\n",
      "   midi.NoteOnEvent(tick=0, channel=2, data=[85, 80]),\n",
      "   midi.NoteOffEvent(tick=96, channel=2, data=[85, 0]),\n",
      "   midi.NoteOnEvent(tick=0, channel=2, data=[83, 80]),\n",
      "   midi.NoteOffEvent(tick=96, channel=2, data=[83, 0]),\n",
      "   midi.NoteOnEvent(tick=0, channel=2, data=[81, 80]),\n",
      "   midi.NoteOffEvent(tick=96, channel=2, data=[81, 0]),\n",
      "   midi.NoteOnEvent(tick=0, channel=2, data=[79, 80]),\n",
      "   midi.NoteOffEvent(tick=96, channel=2, data=[79, 0]),\n",
      "   midi.NoteOnEvent(tick=0, channel=2, data=[81, 80]),\n",
      "   midi.NoteOffEvent(tick=96, channel=2, data=[81, 0]),\n",
      "   midi.NoteOnEvent(tick=0, channel=2, data=[83, 80]),\n",
      "   midi.NoteOffEvent(tick=96, channel=2, data=[83, 0]),\n",
      "   midi.NoteOnEvent(tick=96, channel=2, data=[83, 80]),\n",
      "   midi.NoteOffEvent(tick=96, channel=2, data=[83, 0]),\n",
      "   midi.NoteOnEvent(tick=96, channel=2, data=[83, 80]),\n",
      "   midi.NoteOffEvent(tick=96, channel=2, data=[83, 0]),\n",
      "   midi.NoteOnEvent(tick=96, channel=2, data=[83, 80]),\n",
      "   midi.NoteOffEvent(tick=192, channel=2, data=[83, 0]),\n",
      "   midi.NoteOnEvent(tick=0, channel=2, data=[81, 80]),\n",
      "   midi.NoteOffEvent(tick=96, channel=2, data=[81, 0]),\n",
      "   midi.NoteOnEvent(tick=0, channel=2, data=[79, 80]),\n",
      "   midi.NoteOffEvent(tick=96, channel=2, data=[79, 0]),\n",
      "   midi.NoteOnEvent(tick=0, channel=2, data=[81, 80]),\n",
      "   midi.NoteOffEvent(tick=96, channel=2, data=[81, 0]),\n",
      "   midi.NoteOnEvent(tick=0, channel=2, data=[79, 80]),\n",
      "   midi.NoteOffEvent(tick=96, channel=2, data=[79, 0]),\n",
      "   midi.NoteOnEvent(tick=0, channel=2, data=[78, 80]),\n",
      "   midi.NoteOffEvent(tick=96, channel=2, data=[78, 0]),\n",
      "   midi.NoteOnEvent(tick=0, channel=2, data=[76, 80]),\n",
      "   midi.NoteOffEvent(tick=96, channel=2, data=[76, 0]),\n",
      "   midi.NoteOnEvent(tick=0, channel=2, data=[78, 80]),\n",
      "   midi.NoteOffEvent(tick=96, channel=2, data=[78, 0]),\n",
      "   midi.NoteOnEvent(tick=0, channel=2, data=[79, 80]),\n",
      "   midi.NoteOffEvent(tick=96, channel=2, data=[79, 0]),\n",
      "   midi.NoteOnEvent(tick=0, channel=2, data=[78, 80]),\n",
      "   midi.NoteOffEvent(tick=96, channel=2, data=[78, 0]),\n",
      "   midi.NoteOnEvent(tick=0, channel=2, data=[76, 80]),\n",
      "   midi.NoteOffEvent(tick=96, channel=2, data=[76, 0]),\n",
      "   midi.NoteOnEvent(tick=0, channel=2, data=[74, 80]),\n",
      "   midi.NoteOffEvent(tick=96, channel=2, data=[74, 0]),\n",
      "   midi.NoteOnEvent(tick=0, channel=2, data=[73, 80]),\n",
      "   midi.NoteOffEvent(tick=96, channel=2, data=[73, 0]),\n",
      "   midi.NoteOnEvent(tick=0, channel=2, data=[71, 80]),\n",
      "   midi.NoteOffEvent(tick=96, channel=2, data=[71, 0]),\n",
      "   midi.NoteOnEvent(tick=0, channel=2, data=[69, 80]),\n",
      "   midi.NoteOffEvent(tick=96, channel=2, data=[69, 0]),\n",
      "   midi.NoteOnEvent(tick=0, channel=2, data=[71, 80]),\n",
      "   midi.NoteOffEvent(tick=192, channel=2, data=[71, 0]),\n",
      "   midi.NoteOnEvent(tick=0, channel=2, data=[83, 80]),\n",
      "   midi.NoteOffEvent(tick=96, channel=2, data=[83, 0]),\n",
      "   midi.NoteOnEvent(tick=0, channel=2, data=[81, 80]),\n",
      "   midi.NoteOffEvent(tick=96, channel=2, data=[81, 0]),\n",
      "   midi.NoteOnEvent(tick=0, channel=2, data=[83, 80]),\n",
      "   midi.NoteOffEvent(tick=96, channel=2, data=[83, 0]),\n",
      "   midi.NoteOnEvent(tick=0, channel=2, data=[81, 80]),\n",
      "   midi.NoteOffEvent(tick=96, channel=2, data=[81, 0]),\n",
      "   midi.NoteOnEvent(tick=0, channel=2, data=[80, 80]),\n",
      "   midi.NoteOffEvent(tick=96, channel=2, data=[80, 0]),\n",
      "   midi.NoteOnEvent(tick=0, channel=2, data=[78, 80]),\n",
      "   midi.NoteOffEvent(tick=96, channel=2, data=[78, 0]),\n",
      "   midi.NoteOnEvent(tick=0, channel=2, data=[76, 80]),\n",
      "   midi.NoteOffEvent(tick=96, channel=2, data=[76, 0]),\n",
      "   midi.NoteOnEvent(tick=0, channel=2, data=[78, 80]),\n",
      "   midi.NoteOffEvent(tick=96, channel=2, data=[78, 0]),\n",
      "   midi.NoteOnEvent(tick=0, channel=2, data=[76, 80]),\n",
      "   midi.NoteOffEvent(tick=96, channel=2, data=[76, 0]),\n",
      "   midi.NoteOnEvent(tick=0, channel=2, data=[74, 80]),\n",
      "   midi.NoteOffEvent(tick=96, channel=2, data=[74, 0]),\n",
      "   midi.NoteOnEvent(tick=0, channel=2, data=[73, 80]),\n",
      "   midi.NoteOffEvent(tick=96, channel=2, data=[73, 0]),\n",
      "   midi.NoteOnEvent(tick=0, channel=2, data=[71, 80]),\n",
      "   midi.NoteOffEvent(tick=96, channel=2, data=[71, 0]),\n",
      "   midi.NoteOnEvent(tick=0, channel=2, data=[69, 80]),\n",
      "   midi.NoteOffEvent(tick=96, channel=2, data=[69, 0]),\n",
      "   midi.NoteOnEvent(tick=0, channel=2, data=[68, 80]),\n",
      "   midi.NoteOffEvent(tick=96, channel=2, data=[68, 0]),\n",
      "   midi.NoteOnEvent(tick=0, channel=2, data=[69, 80]),\n",
      "   midi.NoteOffEvent(tick=192, channel=2, data=[69, 0]),\n",
      "   midi.NoteOnEvent(tick=0, channel=2, data=[81, 80]),\n",
      "   midi.NoteOffEvent(tick=96, channel=2, data=[81, 0]),\n",
      "   midi.NoteOnEvent(tick=0, channel=2, data=[80, 80]),\n",
      "   midi.NoteOffEvent(tick=96, channel=2, data=[80, 0]),\n",
      "   midi.NoteOnEvent(tick=0, channel=2, data=[81, 80]),\n",
      "   midi.NoteOffEvent(tick=96, channel=2, data=[81, 0]),\n",
      "   midi.NoteOnEvent(tick=0, channel=2, data=[80, 80]),\n",
      "   midi.NoteOffEvent(tick=96, channel=2, data=[80, 0]),\n",
      "   midi.NoteOnEvent(tick=0, channel=2, data=[78, 80]),\n",
      "   midi.NoteOffEvent(tick=96, channel=2, data=[78, 0]),\n",
      "   midi.NoteOnEvent(tick=0, channel=2, data=[76, 80]),\n",
      "   midi.NoteOffEvent(tick=96, channel=2, data=[76, 0]),\n",
      "   midi.NoteOnEvent(tick=0, channel=2, data=[74, 80]),\n",
      "   midi.NoteOffEvent(tick=96, channel=2, data=[74, 0]),\n",
      "   midi.NoteOnEvent(tick=0, channel=2, data=[73, 80]),\n",
      "   midi.NoteOffEvent(tick=96, channel=2, data=[73, 0]),\n",
      "   midi.NoteOnEvent(tick=0, channel=2, data=[74, 80]),\n",
      "   midi.NoteOffEvent(tick=96, channel=2, data=[74, 0]),\n",
      "   midi.NoteOnEvent(tick=0, channel=2, data=[76, 80]),\n",
      "   midi.NoteOffEvent(tick=96, channel=2, data=[76, 0]),\n",
      "   midi.NoteOnEvent(tick=0, channel=2, data=[74, 80]),\n",
      "   midi.NoteOffEvent(tick=96, channel=2, data=[74, 0]),\n",
      "   midi.NoteOnEvent(tick=0, channel=2, data=[73, 80]),\n",
      "   midi.NoteOffEvent(tick=96, channel=2, data=[73, 0]),\n",
      "   midi.NoteOnEvent(tick=0, channel=2, data=[71, 80]),\n",
      "   midi.NoteOffEvent(tick=96, channel=2, data=[71, 0]),\n",
      "   midi.NoteOnEvent(tick=0, channel=2, data=[69, 80]),\n",
      "   midi.NoteOffEvent(tick=96, channel=2, data=[69, 0]),\n",
      "   midi.NoteOnEvent(tick=0, channel=2, data=[76, 80]),\n",
      "   midi.NoteOffEvent(tick=896, channel=2, data=[76, 0]),\n",
      "   midi.NoteOnEvent(tick=64, channel=2, data=[74, 80]),\n",
      "   midi.NoteOffEvent(tick=96, channel=2, data=[74, 0]),\n",
      "   midi.NoteOnEvent(tick=0, channel=2, data=[73, 80]),\n",
      "   midi.NoteOffEvent(tick=96, channel=2, data=[73, 0]),\n",
      "   midi.NoteOnEvent(tick=0, channel=2, data=[74, 80]),\n",
      "   midi.NoteOffEvent(tick=96, channel=2, data=[74, 0]),\n",
      "   midi.NoteOnEvent(tick=0, channel=2, data=[73, 80]),\n",
      "   midi.NoteOffEvent(tick=96, channel=2, data=[73, 0]),\n",
      "   midi.NoteOnEvent(tick=0, channel=2, data=[71, 80]),\n",
      "   midi.NoteOffEvent(tick=96, channel=2, data=[71, 0]),\n",
      "   midi.NoteOnEvent(tick=0, channel=2, data=[73, 80]),\n",
      "   midi.NoteOffEvent(tick=96, channel=2, data=[73, 0]),\n",
      "   midi.NoteOnEvent(tick=0, channel=2, data=[69, 80]),\n",
      "   midi.NoteOffEvent(tick=96, channel=2, data=[69, 0]),\n",
      "   midi.NoteOnEvent(tick=0, channel=2, data=[71, 80]),\n",
      "   midi.NoteOffEvent(tick=96, channel=2, data=[71, 0]),\n",
      "   midi.NoteOnEvent(tick=0, channel=2, data=[73, 80]),\n",
      "   midi.NoteOffEvent(tick=96, channel=2, data=[73, 0]),\n",
      "   midi.NoteOnEvent(tick=0, channel=2, data=[74, 80]),\n",
      "   midi.NoteOffEvent(tick=96, channel=2, data=[74, 0]),\n",
      "   midi.NoteOnEvent(tick=0, channel=2, data=[76, 80]),\n",
      "   midi.NoteOffEvent(tick=96, channel=2, data=[76, 0]),\n",
      "   midi.NoteOnEvent(tick=0, channel=2, data=[78, 80]),\n",
      "   midi.NoteOffEvent(tick=96, channel=2, data=[78, 0]),\n",
      "   midi.NoteOnEvent(tick=0, channel=2, data=[80, 80]),\n",
      "   midi.NoteOffEvent(tick=96, channel=2, data=[80, 0]),\n",
      "   midi.NoteOnEvent(tick=0, channel=2, data=[81, 80]),\n",
      "   midi.NoteOffEvent(tick=96, channel=2, data=[81, 0]),\n",
      "   midi.NoteOnEvent(tick=0, channel=2, data=[83, 80]),\n",
      "   midi.NoteOffEvent(tick=96, channel=2, data=[83, 0]),\n",
      "   midi.NoteOnEvent(tick=0, channel=2, data=[81, 80]),\n",
      "   midi.NoteOffEvent(tick=96, channel=2, data=[81, 0]),\n",
      "   midi.NoteOnEvent(tick=0, channel=2, data=[80, 80]),\n",
      "   midi.NoteOffEvent(tick=96, channel=2, data=[80, 0]),\n",
      "   midi.NoteOnEvent(tick=0, channel=2, data=[78, 80]),\n",
      "   midi.NoteOffEvent(tick=96, channel=2, data=[78, 0]),\n",
      "   midi.NoteOnEvent(tick=0, channel=2, data=[76, 80]),\n",
      "   midi.NoteOffEvent(tick=576, channel=2, data=[76, 0]),\n",
      "   midi.NoteOnEvent(tick=0, channel=2, data=[71, 80]),\n",
      "   midi.NoteOffEvent(tick=192, channel=2, data=[71, 0]),\n",
      "   midi.NoteOnEvent(tick=0, channel=2, data=[68, 80]),\n",
      "   midi.NoteOffEvent(tick=192, channel=2, data=[68, 0]),\n",
      "   midi.NoteOnEvent(tick=0, channel=2, data=[64, 80]),\n",
      "   midi.NoteOffEvent(tick=192, channel=2, data=[64, 0]),\n",
      "   midi.NoteOnEvent(tick=0, channel=2, data=[69, 80]),\n",
      "   midi.NoteOffEvent(tick=48, channel=2, data=[69, 0]),\n",
      "   midi.NoteOnEvent(tick=0, channel=2, data=[71, 80]),\n",
      "   midi.NoteOffEvent(tick=48, channel=2, data=[71, 0]),\n",
      "   midi.NoteOnEvent(tick=0, channel=2, data=[73, 80]),\n",
      "   midi.NoteOffEvent(tick=256, channel=2, data=[73, 0]),\n",
      "   midi.NoteOnEvent(tick=32, channel=2, data=[71, 80]),\n",
      "   midi.NoteOffEvent(tick=48, channel=2, data=[71, 0]),\n",
      "   midi.NoteOnEvent(tick=0, channel=2, data=[73, 80]),\n",
      "   midi.NoteOffEvent(tick=48, channel=2, data=[73, 0]),\n",
      "   midi.NoteOnEvent(tick=0, channel=2, data=[74, 80]),\n",
      "   midi.NoteOffEvent(tick=256, channel=2, data=[74, 0]),\n",
      "   midi.NoteOnEvent(tick=32, channel=2, data=[73, 80]),\n",
      "   midi.NoteOffEvent(tick=192, channel=2, data=[73, 0]),\n",
      "   midi.NoteOnEvent(tick=0, channel=2, data=[71, 80]),\n",
      "   midi.NoteOffEvent(tick=192, channel=2, data=[71, 0]),\n",
      "   midi.NoteOnEvent(tick=0, channel=2, data=[69, 80]),\n",
      "   midi.NoteOffEvent(tick=192, channel=2, data=[69, 0]),\n",
      "   midi.NoteOnEvent(tick=960, channel=2, data=[85, 80]),\n",
      "   midi.NoteOffEvent(tick=96, channel=2, data=[85, 0]),\n",
      "   midi.NoteOnEvent(tick=0, channel=2, data=[86, 80]),\n",
      "   midi.NoteOffEvent(tick=96, channel=2, data=[86, 0]),\n",
      "   midi.NoteOnEvent(tick=0, channel=2, data=[88, 80]),\n",
      "   midi.NoteOffEvent(tick=96, channel=2, data=[88, 0]),\n",
      "   midi.NoteOnEvent(tick=96, channel=2, data=[88, 80]),\n",
      "   midi.NoteOffEvent(tick=96, channel=2, data=[88, 0]),\n",
      "   midi.NoteOnEvent(tick=96, channel=2, data=[81, 80]),\n",
      "   midi.NoteOffEvent(tick=96, channel=2, data=[81, 0]),\n",
      "   midi.NoteOnEvent(tick=96, channel=2, data=[74, 80]),\n",
      "   midi.NoteOffEvent(tick=48, channel=2, data=[74, 0]),\n",
      "   midi.NoteOnEvent(tick=0, channel=2, data=[76, 80]),\n",
      "   midi.NoteOffEvent(tick=48, channel=2, data=[76, 0]),\n",
      "   midi.NoteOnEvent(tick=0, channel=2, data=[78, 80]),\n",
      "   midi.NoteOffEvent(tick=256, channel=2, data=[78, 0]),\n",
      "   midi.NoteOnEvent(tick=32, channel=2, data=[76, 80]),\n",
      "   midi.NoteOffEvent(tick=48, channel=2, data=[76, 0]),\n",
      "   midi.NoteOnEvent(tick=0, channel=2, data=[78, 80]),\n",
      "   midi.NoteOffEvent(tick=48, channel=2, data=[78, 0]),\n",
      "   midi.NoteOnEvent(tick=0, channel=2, data=[79, 80]),\n",
      "   midi.NoteOffEvent(tick=256, channel=2, data=[79, 0]),\n",
      "   midi.NoteOnEvent(tick=32, channel=2, data=[78, 80]),\n",
      "   midi.NoteOffEvent(tick=192, channel=2, data=[78, 0]),\n",
      "   midi.NoteOnEvent(tick=0, channel=2, data=[76, 80]),\n",
      "   midi.NoteOffEvent(tick=192, channel=2, data=[76, 0]),\n",
      "   midi.NoteOnEvent(tick=0, channel=2, data=[74, 80]),\n",
      "   midi.NoteOffEvent(tick=192, channel=2, data=[74, 0]),\n",
      "   midi.NoteOnEvent(tick=1152, channel=2, data=[83, 80]),\n",
      "   midi.NoteOffEvent(tick=192, channel=2, data=[83, 0]),\n",
      "   midi.NoteOnEvent(tick=0, channel=2, data=[80, 80]),\n",
      "   midi.NoteOffEvent(tick=192, channel=2, data=[80, 0]),\n",
      "   midi.NoteOnEvent(tick=0, channel=2, data=[76, 80]),\n",
      "   midi.NoteOffEvent(tick=192, channel=2, data=[76, 0]),\n",
      "   midi.NoteOnEvent(tick=960, channel=2, data=[74, 80]),\n",
      "   midi.NoteOffEvent(tick=192, channel=2, data=[74, 0]),\n",
      "   midi.NoteOnEvent(tick=0, channel=2, data=[71, 80]),\n",
      "   midi.NoteOffEvent(tick=192, channel=2, data=[71, 0]),\n",
      "   midi.NoteOnEvent(tick=0, channel=2, data=[68, 80]),\n",
      "   midi.NoteOffEvent(tick=192, channel=2, data=[68, 0]),\n",
      "   midi.NoteOnEvent(tick=0, channel=2, data=[73, 80]),\n",
      "   midi.NoteOffEvent(tick=96, channel=2, data=[73, 0]),\n",
      "   midi.NoteOnEvent(tick=0, channel=2, data=[74, 80]),\n",
      "   midi.NoteOffEvent(tick=96, channel=2, data=[74, 0]),\n",
      "   midi.NoteOnEvent(tick=0, channel=2, data=[76, 80]),\n",
      "   midi.NoteOffEvent(tick=96, channel=2, data=[76, 0]),\n",
      "   midi.NoteOnEvent(tick=96, channel=2, data=[76, 80]),\n",
      "   midi.NoteOffEvent(tick=96, channel=2, data=[76, 0]),\n",
      "   midi.NoteOnEvent(tick=96, channel=2, data=[78, 80]),\n",
      "   midi.NoteOffEvent(tick=96, channel=2, data=[78, 0]),\n",
      "   midi.NoteOnEvent(tick=96, channel=2, data=[76, 80]),\n",
      "   midi.NoteOffEvent(tick=192, channel=2, data=[76, 0]),\n",
      "   midi.NoteOnEvent(tick=0, channel=2, data=[69, 80]),\n",
      "   midi.NoteOffEvent(tick=192, channel=2, data=[69, 0]),\n",
      "   midi.NoteOnEvent(tick=0, channel=2, data=[81, 80]),\n",
      "   midi.NoteOffEvent(tick=576, channel=2, data=[81, 0]),\n",
      "   midi.NoteOnEvent(tick=0, channel=2, data=[80, 80]),\n",
      "   midi.NoteOffEvent(tick=96, channel=2, data=[80, 0]),\n",
      "   midi.NoteOnEvent(tick=0, channel=2, data=[78, 80]),\n",
      "   midi.NoteOffEvent(tick=96, channel=2, data=[78, 0]),\n",
      "   midi.NoteOnEvent(tick=0, channel=2, data=[76, 80]),\n",
      "   midi.NoteOffEvent(tick=96, channel=2, data=[76, 0]),\n",
      "   midi.NoteOnEvent(tick=0, channel=2, data=[74, 80]),\n",
      "   midi.NoteOffEvent(tick=96, channel=2, data=[74, 0]),\n",
      "   midi.NoteOnEvent(tick=0, channel=2, data=[73, 80]),\n",
      "   midi.NoteOffEvent(tick=96, channel=2, data=[73, 0]),\n",
      "   midi.NoteOnEvent(tick=0, channel=2, data=[71, 80]),\n",
      "   midi.NoteOffEvent(tick=96, channel=2, data=[71, 0]),\n",
      "   midi.NoteOnEvent(tick=0, channel=2, data=[69, 80]),\n",
      "   midi.NoteOffEvent(tick=192, channel=2, data=[69, 0]),\n",
      "   midi.NoteOnEvent(tick=0, channel=2, data=[71, 80]),\n",
      "   midi.NoteOffEvent(tick=96, channel=2, data=[71, 0]),\n",
      "   midi.NoteOnEvent(tick=0, channel=2, data=[73, 80]),\n",
      "   midi.NoteOffEvent(tick=96, channel=2, data=[73, 0]),\n",
      "   midi.NoteOnEvent(tick=0, channel=2, data=[74, 80]),\n",
      "   midi.NoteOffEvent(tick=96, channel=2, data=[74, 0]),\n",
      "   midi.NoteOnEvent(tick=0, channel=2, data=[76, 80]),\n",
      "   midi.NoteOffEvent(tick=96, channel=2, data=[76, 0]),\n",
      "   midi.NoteOnEvent(tick=0, channel=2, data=[78, 80]),\n",
      "   midi.NoteOffEvent(tick=96, channel=2, data=[78, 0]),\n",
      "   midi.NoteOnEvent(tick=0, channel=2, data=[80, 80]),\n",
      "   midi.NoteOffEvent(tick=96, channel=2, data=[80, 0]),\n",
      "   midi.NoteOnEvent(tick=0, channel=2, data=[81, 80]),\n",
      "   midi.NoteOffEvent(tick=192, channel=2, data=[81, 0]),\n",
      "   midi.NoteOnEvent(tick=1152, channel=2, data=[76, 80]),\n",
      "   midi.NoteOffEvent(tick=192, channel=2, data=[76, 0]),\n",
      "   midi.NoteOnEvent(tick=0, channel=2, data=[81, 80]),\n",
      "   midi.NoteOffEvent(tick=48, channel=2, data=[81, 0]),\n",
      "   midi.NoteOnEvent(tick=0, channel=2, data=[83, 80]),\n",
      "   midi.NoteOffEvent(tick=48, channel=2, data=[83, 0]),\n",
      "   midi.NoteOnEvent(tick=0, channel=2, data=[85, 80]),\n",
      "   midi.NoteOffEvent(tick=256, channel=2, data=[85, 0]),\n",
      "   midi.NoteOnEvent(tick=32, channel=2, data=[83, 80]),\n",
      "   midi.NoteOffEvent(tick=48, channel=2, data=[83, 0]),\n",
      "   midi.NoteOnEvent(tick=0, channel=2, data=[85, 80]),\n",
      "   midi.NoteOffEvent(tick=48, channel=2, data=[85, 0]),\n",
      "   midi.NoteOnEvent(tick=0, channel=2, data=[86, 80]),\n",
      "   midi.NoteOffEvent(tick=256, channel=2, data=[86, 0]),\n",
      "   midi.NoteOnEvent(tick=32, channel=2, data=[85, 80]),\n",
      "   midi.NoteOffEvent(tick=192, channel=2, data=[85, 0]),\n",
      "   midi.NoteOnEvent(tick=0, channel=2, data=[88, 80]),\n",
      "   midi.NoteOffEvent(tick=192, channel=2, data=[88, 0]),\n",
      "   midi.NoteOnEvent(tick=0, channel=2, data=[85, 80]),\n",
      "   midi.NoteOffEvent(tick=192, channel=2, data=[85, 0]),\n",
      "   midi.NoteOnEvent(tick=0, channel=2, data=[81, 80]),\n",
      "   midi.NoteOffEvent(tick=192, channel=2, data=[81, 0]),\n",
      "   midi.NoteOnEvent(tick=1344, channel=2, data=[76, 80]),\n",
      "   midi.NoteOffEvent(tick=192, channel=2, data=[76, 0]),\n",
      "   midi.NoteOnEvent(tick=0, channel=2, data=[81, 80]),\n",
      "   midi.NoteOffEvent(tick=48, channel=2, data=[81, 0]),\n",
      "   midi.NoteOnEvent(tick=0, channel=2, data=[83, 80]),\n",
      "   midi.NoteOffEvent(tick=48, channel=2, data=[83, 0]),\n",
      "   midi.NoteOnEvent(tick=0, channel=2, data=[85, 80]),\n",
      "   midi.NoteOffEvent(tick=256, channel=2, data=[85, 0]),\n",
      "   midi.NoteOnEvent(tick=32, channel=2, data=[83, 80]),\n",
      "   midi.NoteOffEvent(tick=48, channel=2, data=[83, 0]),\n",
      "   midi.NoteOnEvent(tick=0, channel=2, data=[85, 80]),\n",
      "   midi.NoteOffEvent(tick=48, channel=2, data=[85, 0]),\n",
      "   midi.NoteOnEvent(tick=0, channel=2, data=[86, 80]),\n",
      "   midi.NoteOffEvent(tick=256, channel=2, data=[86, 0]),\n",
      "   midi.NoteOnEvent(tick=32, channel=2, data=[85, 80]),\n",
      "   midi.NoteOffEvent(tick=192, channel=2, data=[85, 0]),\n",
      "   midi.NoteOnEvent(tick=0, channel=2, data=[88, 80]),\n",
      "   midi.NoteOffEvent(tick=192, channel=2, data=[88, 0]),\n",
      "   midi.NoteOnEvent(tick=0, channel=2, data=[85, 80]),\n",
      "   midi.NoteOffEvent(tick=192, channel=2, data=[85, 0]),\n",
      "   midi.NoteOnEvent(tick=0, channel=2, data=[81, 80]),\n",
      "   midi.NoteOffEvent(tick=192, channel=2, data=[81, 0]),\n",
      "   midi.NoteOnEvent(tick=192, channel=2, data=[78, 80]),\n",
      "   midi.NoteOffEvent(tick=96, channel=2, data=[78, 0]),\n",
      "   midi.NoteOnEvent(tick=0, channel=2, data=[76, 80]),\n",
      "   midi.NoteOffEvent(tick=96, channel=2, data=[76, 0]),\n",
      "   midi.NoteOnEvent(tick=0, channel=2, data=[74, 80]),\n",
      "   midi.NoteOffEvent(tick=96, channel=2, data=[74, 0]),\n",
      "   midi.NoteOnEvent(tick=0, channel=2, data=[73, 80]),\n",
      "   midi.NoteOffEvent(tick=96, channel=2, data=[73, 0]),\n",
      "   midi.NoteOnEvent(tick=0, channel=2, data=[71, 80]),\n",
      "   midi.NoteOffEvent(tick=96, channel=2, data=[71, 0]),\n",
      "   midi.NoteOnEvent(tick=0, channel=2, data=[69, 80]),\n",
      "   midi.NoteOffEvent(tick=96, channel=2, data=[69, 0]),\n",
      "   midi.NoteOnEvent(tick=0, channel=2, data=[71, 80]),\n",
      "   midi.NoteOffEvent(tick=192, channel=2, data=[71, 0]),\n",
      "   midi.NoteOnEvent(tick=0, channel=2, data=[83, 80]),\n",
      "   midi.NoteOffEvent(tick=96, channel=2, data=[83, 0]),\n",
      "   midi.NoteOnEvent(tick=0, channel=2, data=[81, 80]),\n",
      "   midi.NoteOffEvent(tick=96, channel=2, data=[81, 0]),\n",
      "   midi.NoteOnEvent(tick=0, channel=2, data=[83, 80]),\n",
      "   midi.NoteOffEvent(tick=96, channel=2, data=[83, 0]),\n",
      "   midi.NoteOnEvent(tick=0, channel=2, data=[81, 80]),\n",
      "   midi.NoteOffEvent(tick=96, channel=2, data=[81, 0]),\n",
      "   midi.NoteOnEvent(tick=0, channel=2, data=[80, 80]),\n",
      "   midi.NoteOffEvent(tick=96, channel=2, data=[80, 0]),\n",
      "   midi.NoteOnEvent(tick=0, channel=2, data=[78, 80]),\n",
      "   midi.NoteOffEvent(tick=96, channel=2, data=[78, 0]),\n",
      "   midi.NoteOnEvent(tick=0, channel=2, data=[76, 80]),\n",
      "   midi.NoteOffEvent(tick=96, channel=2, data=[76, 0]),\n",
      "   midi.NoteOnEvent(tick=0, channel=2, data=[78, 80]),\n",
      "   midi.NoteOffEvent(tick=96, channel=2, data=[78, 0]),\n",
      "   midi.NoteOnEvent(tick=0, channel=2, data=[76, 80]),\n",
      "   midi.NoteOffEvent(tick=96, channel=2, data=[76, 0]),\n",
      "   midi.NoteOnEvent(tick=0, channel=2, data=[74, 80]),\n",
      "   midi.NoteOffEvent(tick=96, channel=2, data=[74, 0]),\n",
      "   midi.NoteOnEvent(tick=0, channel=2, data=[73, 80]),\n",
      "   midi.NoteOffEvent(tick=96, channel=2, data=[73, 0]),\n",
      "   midi.NoteOnEvent(tick=0, channel=2, data=[71, 80]),\n",
      "   midi.NoteOffEvent(tick=96, channel=2, data=[71, 0]),\n",
      "   midi.NoteOnEvent(tick=0, channel=2, data=[69, 80]),\n",
      "   midi.NoteOffEvent(tick=96, channel=2, data=[69, 0]),\n",
      "   midi.NoteOnEvent(tick=0, channel=2, data=[68, 80]),\n",
      "   midi.NoteOffEvent(tick=96, channel=2, data=[68, 0]),\n",
      "   midi.NoteOnEvent(tick=0, channel=2, data=[69, 80]),\n",
      "   midi.NoteOffEvent(tick=192, channel=2, data=[69, 0]),\n",
      "   midi.NoteOnEvent(tick=0, channel=2, data=[81, 80]),\n",
      "   midi.NoteOffEvent(tick=96, channel=2, data=[81, 0]),\n",
      "   midi.NoteOnEvent(tick=0, channel=2, data=[80, 80]),\n",
      "   midi.NoteOffEvent(tick=96, channel=2, data=[80, 0]),\n",
      "   midi.NoteOnEvent(tick=0, channel=2, data=[81, 80]),\n",
      "   midi.NoteOffEvent(tick=96, channel=2, data=[81, 0]),\n",
      "   midi.NoteOnEvent(tick=0, channel=2, data=[80, 80]),\n",
      "   midi.NoteOffEvent(tick=96, channel=2, data=[80, 0]),\n",
      "   midi.NoteOnEvent(tick=0, channel=2, data=[78, 80]),\n",
      "   midi.NoteOffEvent(tick=96, channel=2, data=[78, 0]),\n",
      "   midi.NoteOnEvent(tick=0, channel=2, data=[76, 80]),\n",
      "   midi.NoteOffEvent(tick=96, channel=2, data=[76, 0]),\n",
      "   midi.NoteOnEvent(tick=0, channel=2, data=[74, 80]),\n",
      "   midi.NoteOffEvent(tick=96, channel=2, data=[74, 0]),\n",
      "   midi.NoteOnEvent(tick=0, channel=2, data=[73, 80]),\n",
      "   midi.NoteOffEvent(tick=96, channel=2, data=[73, 0]),\n",
      "   midi.NoteOnEvent(tick=0, channel=2, data=[74, 80]),\n",
      "   midi.NoteOffEvent(tick=96, channel=2, data=[74, 0]),\n",
      "   midi.NoteOnEvent(tick=0, channel=2, data=[76, 80]),\n",
      "   midi.NoteOffEvent(tick=96, channel=2, data=[76, 0]),\n",
      "   midi.NoteOnEvent(tick=0, channel=2, data=[74, 80]),\n",
      "   midi.NoteOffEvent(tick=96, channel=2, data=[74, 0]),\n",
      "   midi.NoteOnEvent(tick=0, channel=2, data=[73, 80]),\n",
      "   midi.NoteOffEvent(tick=96, channel=2, data=[73, 0]),\n",
      "   midi.NoteOnEvent(tick=0, channel=2, data=[71, 80]),\n",
      "   midi.NoteOffEvent(tick=96, channel=2, data=[71, 0]),\n",
      "   midi.NoteOnEvent(tick=0, channel=2, data=[69, 80]),\n",
      "   midi.NoteOffEvent(tick=96, channel=2, data=[69, 0]),\n",
      "   midi.NoteOnEvent(tick=0, channel=2, data=[76, 80]),\n",
      "   midi.NoteOffEvent(tick=960, channel=2, data=[76, 0]),\n",
      "   midi.NoteOnEvent(tick=0, channel=2, data=[74, 80]),\n",
      "   midi.NoteOffEvent(tick=96, channel=2, data=[74, 0]),\n",
      "   midi.NoteOnEvent(tick=0, channel=2, data=[73, 80]),\n",
      "   midi.NoteOffEvent(tick=96, channel=2, data=[73, 0]),\n",
      "   midi.NoteOnEvent(tick=0, channel=2, data=[74, 80]),\n",
      "   midi.NoteOffEvent(tick=96, channel=2, data=[74, 0]),\n",
      "   midi.NoteOnEvent(tick=0, channel=2, data=[73, 80]),\n",
      "   midi.NoteOffEvent(tick=96, channel=2, data=[73, 0]),\n",
      "   midi.NoteOnEvent(tick=0, channel=2, data=[71, 80]),\n",
      "   midi.NoteOffEvent(tick=96, channel=2, data=[71, 0]),\n",
      "   midi.NoteOnEvent(tick=0, channel=2, data=[73, 80]),\n",
      "   midi.NoteOffEvent(tick=96, channel=2, data=[73, 0]),\n",
      "   midi.NoteOnEvent(tick=0, channel=2, data=[69, 80]),\n",
      "   midi.NoteOffEvent(tick=192, channel=2, data=[69, 0]),\n",
      "   midi.NoteOnEvent(tick=0, channel=2, data=[71, 80]),\n",
      "   midi.NoteOffEvent(tick=96, channel=2, data=[71, 0]),\n",
      "   midi.NoteOnEvent(tick=0, channel=2, data=[73, 80]),\n",
      "   midi.NoteOffEvent(tick=96, channel=2, data=[73, 0]),\n",
      "   midi.NoteOnEvent(tick=0, channel=2, data=[74, 80]),\n",
      "   midi.NoteOffEvent(tick=96, channel=2, data=[74, 0]),\n",
      "   midi.NoteOnEvent(tick=0, channel=2, data=[76, 80]),\n",
      "   midi.NoteOffEvent(tick=96, channel=2, data=[76, 0]),\n",
      "   midi.NoteOnEvent(tick=0, channel=2, data=[78, 80]),\n",
      "   midi.NoteOffEvent(tick=96, channel=2, data=[78, 0]),\n",
      "   midi.NoteOnEvent(tick=0, channel=2, data=[80, 80]),\n",
      "   midi.NoteOffEvent(tick=96, channel=2, data=[80, 0]),\n",
      "   midi.NoteOnEvent(tick=0, channel=2, data=[81, 80]),\n",
      "   midi.NoteOffEvent(tick=96, channel=2, data=[81, 0]),\n",
      "   midi.NoteOnEvent(tick=0, channel=2, data=[83, 80]),\n",
      "   midi.NoteOffEvent(tick=96, channel=2, data=[83, 0]),\n",
      "   midi.NoteOnEvent(tick=0, channel=2, data=[85, 80]),\n",
      "   midi.NoteOffEvent(tick=96, channel=2, data=[85, 0]),\n",
      "   midi.NoteOnEvent(tick=96, channel=2, data=[85, 80]),\n",
      "   midi.NoteOffEvent(tick=96, channel=2, data=[85, 0]),\n",
      "   midi.NoteOnEvent(tick=96, channel=2, data=[85, 80]),\n",
      "   midi.NoteOffEvent(tick=96, channel=2, data=[85, 0]),\n",
      "   midi.NoteOnEvent(tick=96, channel=2, data=[85, 80]),\n",
      "   midi.NoteOffEvent(tick=480, channel=2, data=[85, 0]),\n",
      "   midi.NoteOnEvent(tick=0, channel=2, data=[83, 80]),\n",
      "   midi.NoteOffEvent(tick=96, channel=2, data=[83, 0]),\n",
      "   midi.NoteOnEvent(tick=0, channel=2, data=[81, 80]),\n",
      "   midi.NoteOffEvent(tick=96, channel=2, data=[81, 0]),\n",
      "   midi.NoteOnEvent(tick=0, channel=2, data=[80, 80]),\n",
      "   midi.NoteOffEvent(tick=96, channel=2, data=[80, 0]),\n",
      "   midi.NoteOnEvent(tick=0, channel=2, data=[78, 80]),\n",
      "   midi.NoteOffEvent(tick=192, channel=2, data=[78, 0]),\n",
      "   midi.NoteOnEvent(tick=0, channel=2, data=[80, 80]),\n",
      "   midi.NoteOffEvent(tick=192, channel=2, data=[80, 0]),\n",
      "   midi.NoteOnEvent(tick=0, channel=2, data=[73, 80]),\n",
      "   midi.NoteOffEvent(tick=192, channel=2, data=[73, 0]),\n",
      "   midi.NoteOnEvent(tick=0, channel=2, data=[71, 80]),\n",
      "   midi.NoteOffEvent(tick=192, channel=2, data=[71, 0]),\n",
      "   midi.NoteOnEvent(tick=0, channel=2, data=[69, 80]),\n",
      "   midi.NoteOffEvent(tick=192, channel=2, data=[69, 0]),\n",
      "   midi.NoteOnEvent(tick=0, channel=2, data=[68, 80]),\n",
      "   midi.NoteOffEvent(tick=96, channel=2, data=[68, 0]),\n",
      "   midi.NoteOnEvent(tick=0, channel=2, data=[69, 80]),\n",
      "   midi.NoteOffEvent(tick=96, channel=2, data=[69, 0]),\n",
      "   midi.NoteOnEvent(tick=0, channel=2, data=[66, 80]),\n",
      "   midi.NoteOffEvent(tick=192, channel=2, data=[66, 0]),\n",
      "   midi.NoteOnEvent(tick=960, channel=2, data=[85, 80]),\n",
      "   midi.NoteOffEvent(tick=96, channel=2, data=[85, 0]),\n",
      "   midi.NoteOnEvent(tick=0, channel=2, data=[86, 80]),\n",
      "   midi.NoteOffEvent(tick=96, channel=2, data=[86, 0]),\n",
      "   midi.NoteOnEvent(tick=0, channel=2, data=[88, 80]),\n",
      "   midi.NoteOffEvent(tick=96, channel=2, data=[88, 0]),\n",
      "   midi.NoteOnEvent(tick=96, channel=2, data=[88, 80]),\n",
      "   midi.NoteOffEvent(tick=96, channel=2, data=[88, 0]),\n",
      "   midi.NoteOnEvent(tick=96, channel=2, data=[78, 80]),\n",
      "   midi.NoteOffEvent(tick=384, channel=2, data=[78, 0]),\n",
      "   midi.NoteOnEvent(tick=0, channel=2, data=[79, 80]),\n",
      "   midi.NoteOffEvent(tick=192, channel=2, data=[79, 0]),\n",
      "   midi.NoteOnEvent(tick=0, channel=2, data=[78, 80]),\n",
      "   midi.NoteOffEvent(tick=192, channel=2, data=[78, 0]),\n",
      "   midi.NoteOnEvent(tick=0, channel=2, data=[76, 80]),\n",
      "   midi.NoteOffEvent(tick=192, channel=2, data=[76, 0]),\n",
      "   midi.NoteOnEvent(tick=0, channel=2, data=[74, 80]),\n",
      "   midi.NoteOffEvent(tick=192, channel=2, data=[74, 0]),\n",
      "   midi.NoteOnEvent(tick=0, channel=2, data=[73, 80]),\n",
      "   midi.NoteOffEvent(tick=96, channel=2, data=[73, 0]),\n",
      "   midi.NoteOnEvent(tick=0, channel=2, data=[74, 80]),\n",
      "   midi.NoteOffEvent(tick=96, channel=2, data=[74, 0]),\n",
      "   midi.NoteOnEvent(tick=0, channel=2, data=[71, 80]),\n",
      "   midi.NoteOffEvent(tick=384, channel=2, data=[71, 0]),\n",
      "   midi.NoteOnEvent(tick=0, channel=2, data=[79, 80]),\n",
      "   midi.NoteOffEvent(tick=96, channel=2, data=[79, 0]),\n",
      "   midi.NoteOnEvent(tick=0, channel=2, data=[81, 80]),\n",
      "   midi.NoteOffEvent(tick=96, channel=2, data=[81, 0]),\n",
      "   midi.NoteOnEvent(tick=0, channel=2, data=[83, 80]),\n",
      "   midi.NoteOffEvent(tick=96, channel=2, data=[83, 0]),\n",
      "   midi.NoteOnEvent(tick=96, channel=2, data=[83, 80]),\n",
      "   midi.NoteOffEvent(tick=96, channel=2, data=[83, 0]),\n",
      "   midi.NoteOnEvent(tick=96, channel=2, data=[83, 80]),\n",
      "   midi.NoteOffEvent(tick=96, channel=2, data=[83, 0]),\n",
      "   midi.NoteOnEvent(tick=96, channel=2, data=[73, 80]),\n",
      "   midi.NoteOffEvent(tick=384, channel=2, data=[73, 0]),\n",
      "   midi.NoteOnEvent(tick=384, channel=2, data=[78, 80]),\n",
      "   midi.NoteOffEvent(tick=96, channel=2, data=[78, 0]),\n",
      "   midi.NoteOnEvent(tick=0, channel=2, data=[79, 80]),\n",
      "   midi.NoteOffEvent(tick=96, channel=2, data=[79, 0]),\n",
      "   midi.NoteOnEvent(tick=0, channel=2, data=[81, 80]),\n",
      "   midi.NoteOffEvent(tick=96, channel=2, data=[81, 0]),\n",
      "   midi.NoteOnEvent(tick=96, channel=2, data=[81, 80]),\n",
      "   midi.NoteOffEvent(tick=96, channel=2, data=[81, 0]),\n",
      "   midi.NoteOnEvent(tick=96, channel=2, data=[81, 80]),\n",
      "   midi.NoteOffEvent(tick=96, channel=2, data=[81, 0]),\n",
      "   midi.NoteOnEvent(tick=96, channel=2, data=[71, 80]),\n",
      "   midi.NoteOffEvent(tick=384, channel=2, data=[71, 0]),\n",
      "   midi.NoteOnEvent(tick=384, channel=2, data=[70, 80]),\n",
      "   midi.NoteOffEvent(tick=96, channel=2, data=[70, 0]),\n",
      "   midi.NoteOnEvent(tick=0, channel=2, data=[71, 80]),\n",
      "   midi.NoteOffEvent(tick=96, channel=2, data=[71, 0]),\n",
      "   midi.NoteOnEvent(tick=0, channel=2, data=[73, 80]),\n",
      "   midi.NoteOffEvent(tick=256, channel=2, data=[73, 0]),\n",
      "   midi.NoteOnEvent(tick=32, channel=2, data=[74, 80]),\n",
      "   midi.NoteOffEvent(tick=96, channel=2, data=[74, 0]),\n",
      "   midi.NoteOnEvent(tick=0, channel=2, data=[76, 80]),\n",
      "   midi.NoteOffEvent(tick=288, channel=2, data=[76, 0]),\n",
      "   midi.NoteOnEvent(tick=0, channel=2, data=[79, 80]),\n",
      "   midi.NoteOffEvent(tick=96, channel=2, data=[79, 0]),\n",
      "   midi.NoteOnEvent(tick=0, channel=2, data=[78, 80]),\n",
      "   midi.NoteOffEvent(tick=96, channel=2, data=[78, 0]),\n",
      "   midi.NoteOnEvent(tick=0, channel=2, data=[76, 80]),\n",
      "   midi.NoteOffEvent(tick=96, channel=2, data=[76, 0]),\n",
      "   midi.NoteOnEvent(tick=0, channel=2, data=[78, 80]),\n",
      "   midi.NoteOffEvent(tick=96, channel=2, data=[78, 0]),\n",
      "   midi.NoteOnEvent(tick=0, channel=2, data=[76, 80]),\n",
      "   midi.NoteOffEvent(tick=96, channel=2, data=[76, 0]),\n",
      "   midi.NoteOnEvent(tick=0, channel=2, data=[74, 80]),\n",
      "   midi.NoteOffEvent(tick=96, channel=2, data=[74, 0]),\n",
      "   midi.NoteOnEvent(tick=0, channel=2, data=[73, 80]),\n",
      "   midi.NoteOffEvent(tick=96, channel=2, data=[73, 0]),\n",
      "   midi.NoteOnEvent(tick=0, channel=2, data=[76, 80]),\n",
      "   midi.NoteOffEvent(tick=96, channel=2, data=[76, 0]),\n",
      "   midi.NoteOnEvent(tick=0, channel=2, data=[74, 80]),\n",
      "   midi.NoteOffEvent(tick=96, channel=2, data=[74, 0]),\n",
      "   midi.NoteOnEvent(tick=0, channel=2, data=[73, 80]),\n",
      "   midi.NoteOffEvent(tick=96, channel=2, data=[73, 0]),\n",
      "   midi.NoteOnEvent(tick=0, channel=2, data=[71, 80]),\n",
      "   midi.NoteOffEvent(tick=96, channel=2, data=[71, 0]),\n",
      "   midi.NoteOnEvent(tick=0, channel=2, data=[73, 80]),\n",
      "   midi.NoteOffEvent(tick=192, channel=2, data=[73, 0]),\n",
      "   midi.NoteOnEvent(tick=0, channel=2, data=[70, 80]),\n",
      "   midi.NoteOffEvent(tick=192, channel=2, data=[70, 0]),\n",
      "   midi.NoteOnEvent(tick=0, channel=2, data=[71, 80]),\n",
      "   midi.NoteOffEvent(tick=192, channel=2, data=[71, 0]),\n",
      "   midi.NoteOnEvent(tick=0, channel=2, data=[78, 80]),\n",
      "   midi.NoteOffEvent(tick=96, channel=2, data=[78, 0]),\n",
      "   midi.NoteOnEvent(tick=0, channel=2, data=[80, 80]),\n",
      "   midi.NoteOffEvent(tick=96, channel=2, data=[80, 0]),\n",
      "   midi.NoteOnEvent(tick=0, channel=2, data=[82, 80]),\n",
      "   midi.NoteOffEvent(tick=96, channel=2, data=[82, 0]),\n",
      "   midi.NoteOnEvent(tick=0, channel=2, data=[83, 80]),\n",
      "   midi.NoteOffEvent(tick=96, channel=2, data=[83, 0]),\n",
      "   midi.NoteOnEvent(tick=0, channel=2, data=[85, 80]),\n",
      "   midi.NoteOffEvent(tick=96, channel=2, data=[85, 0]),\n",
      "   midi.NoteOnEvent(tick=0, channel=2, data=[86, 80]),\n",
      "   midi.NoteOffEvent(tick=96, channel=2, data=[86, 0]),\n",
      "   midi.NoteOnEvent(tick=0, channel=2, data=[88, 80]),\n",
      "   midi.NoteOffEvent(tick=192, channel=2, data=[88, 0]),\n",
      "   midi.NoteOnEvent(tick=0, channel=2, data=[85, 80]),\n",
      "   midi.NoteOffEvent(tick=192, channel=2, data=[85, 0]),\n",
      "   midi.NoteOnEvent(tick=0, channel=2, data=[82, 80]),\n",
      "   midi.NoteOffEvent(tick=192, channel=2, data=[82, 0]),\n",
      "   midi.NoteOnEvent(tick=0, channel=2, data=[78, 80]),\n",
      "   midi.NoteOffEvent(tick=192, channel=2, data=[78, 0]),\n",
      "   midi.NoteOnEvent(tick=192, channel=2, data=[79, 80]),\n",
      "   midi.NoteOffEvent(tick=96, channel=2, data=[79, 0]),\n",
      "   midi.NoteOnEvent(tick=0, channel=2, data=[78, 80]),\n",
      "   midi.NoteOffEvent(tick=96, channel=2, data=[78, 0]),\n",
      "   midi.NoteOnEvent(tick=0, channel=2, data=[76, 80]),\n",
      "   midi.NoteOffEvent(tick=96, channel=2, data=[76, 0]),\n",
      "   midi.NoteOnEvent(tick=0, channel=2, data=[74, 80]),\n",
      "   midi.NoteOffEvent(tick=96, channel=2, data=[74, 0]),\n",
      "   midi.NoteOnEvent(tick=0, channel=2, data=[73, 80]),\n",
      "   midi.NoteOffEvent(tick=96, channel=2, data=[73, 0]),\n",
      "   midi.NoteOnEvent(tick=0, channel=2, data=[71, 80]),\n",
      "   midi.NoteOffEvent(tick=96, channel=2, data=[71, 0]),\n",
      "   midi.NoteOnEvent(tick=0, channel=2, data=[70, 80]),\n",
      "   midi.NoteOffEvent(tick=192, channel=2, data=[70, 0]),\n",
      "   midi.NoteOnEvent(tick=0, channel=2, data=[78, 80]),\n",
      "   midi.NoteOffEvent(tick=256, channel=2, data=[78, 0]),\n",
      "   midi.NoteOnEvent(tick=32, channel=2, data=[76, 80]),\n",
      "   midi.NoteOffEvent(tick=96, channel=2, data=[76, 0]),\n",
      "   midi.NoteOnEvent(tick=0, channel=2, data=[74, 80]),\n",
      "   midi.NoteOffEvent(tick=96, channel=2, data=[74, 0]),\n",
      "   midi.NoteOnEvent(tick=0, channel=2, data=[73, 80]),\n",
      "   midi.NoteOffEvent(tick=96, channel=2, data=[73, 0]),\n",
      "   midi.NoteOnEvent(tick=0, channel=2, data=[74, 80]),\n",
      "   midi.NoteOffEvent(tick=192, channel=2, data=[74, 0]),\n",
      "   midi.NoteOnEvent(tick=0, channel=2, data=[78, 80]),\n",
      "   midi.NoteOffEvent(tick=192, channel=2, data=[78, 0]),\n",
      "   midi.NoteOnEvent(tick=0, channel=2, data=[74, 80]),\n",
      "   midi.NoteOffEvent(tick=192, channel=2, data=[74, 0]),\n",
      "   midi.NoteOnEvent(tick=0, channel=2, data=[71, 80]),\n",
      "   midi.NoteOffEvent(tick=192, channel=2, data=[71, 0]),\n",
      "   midi.NoteOnEvent(tick=0, channel=2, data=[78, 80]),\n",
      "   midi.NoteOffEvent(tick=96, channel=2, data=[78, 0]),\n",
      "   midi.NoteOnEvent(tick=0, channel=2, data=[79, 80]),\n",
      "   midi.NoteOffEvent(tick=96, channel=2, data=[79, 0]),\n",
      "   midi.NoteOnEvent(tick=0, channel=2, data=[81, 80]),\n",
      "   midi.NoteOffEvent(tick=96, channel=2, data=[81, 0]),\n",
      "   midi.NoteOnEvent(tick=96, channel=2, data=[81, 80]),\n",
      "   midi.NoteOffEvent(tick=96, channel=2, data=[81, 0]),\n",
      "   midi.NoteOnEvent(tick=96, channel=2, data=[81, 80]),\n",
      "   midi.NoteOffEvent(tick=96, channel=2, data=[81, 0]),\n",
      "   midi.NoteOnEvent(tick=96, channel=2, data=[81, 80]),\n",
      "   midi.NoteOffEvent(tick=864, channel=2, data=[81, 0]),\n",
      "   midi.NoteOnEvent(tick=0, channel=2, data=[84, 80]),\n",
      "   midi.NoteOffEvent(tick=96, channel=2, data=[84, 0]),\n",
      "   midi.NoteOnEvent(tick=0, channel=2, data=[83, 80]),\n",
      "   midi.NoteOffEvent(tick=96, channel=2, data=[83, 0]),\n",
      "   midi.NoteOnEvent(tick=0, channel=2, data=[81, 80]),\n",
      "   midi.NoteOffEvent(tick=96, channel=2, data=[81, 0]),\n",
      "   midi.NoteOnEvent(tick=0, channel=2, data=[83, 80]),\n",
      "   midi.NoteOffEvent(tick=96, channel=2, data=[83, 0]),\n",
      "   midi.NoteOnEvent(tick=0, channel=2, data=[81, 80]),\n",
      "   midi.NoteOffEvent(tick=96, channel=2, data=[81, 0]),\n",
      "   midi.NoteOnEvent(tick=0, channel=2, data=[79, 80]),\n",
      "   midi.NoteOffEvent(tick=96, channel=2, data=[79, 0]),\n",
      "   midi.NoteOnEvent(tick=0, channel=2, data=[78, 80]),\n",
      "   midi.NoteOffEvent(tick=96, channel=2, data=[78, 0]),\n",
      "   midi.NoteOnEvent(tick=0, channel=2, data=[79, 80]),\n",
      "   midi.NoteOffEvent(tick=96, channel=2, data=[79, 0]),\n",
      "   midi.NoteOnEvent(tick=0, channel=2, data=[81, 80]),\n",
      "   midi.NoteOffEvent(tick=96, channel=2, data=[81, 0]),\n",
      "   midi.NoteOnEvent(tick=0, channel=2, data=[79, 80]),\n",
      "   midi.NoteOffEvent(tick=96, channel=2, data=[79, 0]),\n",
      "   midi.NoteOnEvent(tick=0, channel=2, data=[78, 80]),\n",
      "   midi.NoteOffEvent(tick=96, channel=2, data=[78, 0]),\n",
      "   midi.NoteOnEvent(tick=0, channel=2, data=[76, 80]),\n",
      "   midi.NoteOffEvent(tick=96, channel=2, data=[76, 0]),\n",
      "   midi.NoteOnEvent(tick=0, channel=2, data=[78, 80]),\n",
      "   midi.NoteOffEvent(tick=96, channel=2, data=[78, 0]),\n",
      "   midi.NoteOnEvent(tick=0, channel=2, data=[79, 80]),\n",
      "   midi.NoteOffEvent(tick=96, channel=2, data=[79, 0]),\n",
      "   midi.NoteOnEvent(tick=0, channel=2, data=[81, 80]),\n",
      "   midi.NoteOffEvent(tick=96, channel=2, data=[81, 0]),\n",
      "   midi.NoteOnEvent(tick=0, channel=2, data=[83, 80]),\n",
      "   midi.NoteOffEvent(tick=768, channel=2, data=[83, 0]),\n",
      "   midi.NoteOnEvent(tick=0, channel=2, data=[82, 80]),\n",
      "   midi.NoteOffEvent(tick=96, channel=2, data=[82, 0]),\n",
      "   midi.NoteOnEvent(tick=0, channel=2, data=[80, 80]),\n",
      "   midi.NoteOffEvent(tick=96, channel=2, data=[80, 0]),\n",
      "   midi.NoteOnEvent(tick=0, channel=2, data=[78, 80]),\n",
      "   midi.NoteOffEvent(tick=96, channel=2, data=[78, 0]),\n",
      "   midi.NoteOnEvent(tick=0, channel=2, data=[80, 80]),\n",
      "   midi.NoteOffEvent(tick=96, channel=2, data=[80, 0]),\n",
      "   midi.NoteOnEvent(tick=0, channel=2, data=[82, 80]),\n",
      "   midi.NoteOffEvent(tick=192, channel=2, data=[82, 0]),\n",
      "   midi.NoteOnEvent(tick=0, channel=2, data=[83, 80]),\n",
      "   midi.NoteOffEvent(tick=192, channel=2, data=[83, 0]),\n",
      "   midi.NoteOnEvent(tick=0, channel=2, data=[85, 80]),\n",
      "   midi.NoteOffEvent(tick=864, channel=2, data=[85, 0]),\n",
      "   midi.NoteOnEvent(tick=0, channel=2, data=[83, 80]),\n",
      "   midi.NoteOffEvent(tick=96, channel=2, data=[83, 0]),\n",
      "   midi.NoteOnEvent(tick=0, channel=2, data=[82, 80]),\n",
      "   midi.NoteOffEvent(tick=96, channel=2, data=[82, 0]),\n",
      "   midi.NoteOnEvent(tick=0, channel=2, data=[83, 80]),\n",
      "   midi.NoteOffEvent(tick=96, channel=2, data=[83, 0]),\n",
      "   midi.NoteOnEvent(tick=0, channel=2, data=[85, 80]),\n",
      "   midi.NoteOffEvent(tick=192, channel=2, data=[85, 0]),\n",
      "   midi.NoteOnEvent(tick=0, channel=2, data=[82, 80]),\n",
      "   midi.NoteOffEvent(tick=192, channel=2, data=[82, 0]),\n",
      "   midi.NoteOnEvent(tick=0, channel=2, data=[83, 80]),\n",
      "   midi.NoteOffEvent(tick=192, channel=2, data=[83, 0]),\n",
      "   midi.NoteOnEvent(tick=0, channel=2, data=[78, 80]),\n",
      "   midi.NoteOffEvent(tick=384, channel=2, data=[78, 0]),\n",
      "   midi.NoteOnEvent(tick=0, channel=2, data=[79, 80]),\n",
      "   midi.NoteOffEvent(tick=192, channel=2, data=[79, 0]),\n",
      "   midi.NoteOnEvent(tick=0, channel=2, data=[78, 80]),\n",
      "   midi.NoteOffEvent(tick=96, channel=2, data=[78, 0]),\n",
      "   midi.NoteOnEvent(tick=0, channel=2, data=[83, 80]),\n",
      "   midi.NoteOffEvent(tick=96, channel=2, data=[83, 0]),\n",
      "   midi.NoteOnEvent(tick=0, channel=2, data=[81, 80]),\n",
      "   midi.NoteOffEvent(tick=96, channel=2, data=[81, 0]),\n",
      "   midi.NoteOnEvent(tick=0, channel=2, data=[79, 80]),\n",
      "   midi.NoteOffEvent(tick=96, channel=2, data=[79, 0]),\n",
      "   midi.NoteOnEvent(tick=0, channel=2, data=[78, 80]),\n",
      "   midi.NoteOffEvent(tick=192, channel=2, data=[78, 0]),\n",
      "   midi.NoteOnEvent(tick=0, channel=2, data=[76, 80]),\n",
      "   midi.NoteOffEvent(tick=192, channel=2, data=[76, 0]),\n",
      "   midi.NoteOnEvent(tick=0, channel=2, data=[74, 80]),\n",
      "   midi.NoteOffEvent(tick=384, channel=2, data=[74, 0]),\n",
      "   midi.NoteOnEvent(tick=0, channel=2, data=[73, 80]),\n",
      "   midi.NoteOffEvent(tick=384, channel=2, data=[73, 0]),\n",
      "   midi.NoteOnEvent(tick=0, channel=2, data=[71, 80]),\n",
      "   midi.NoteOffEvent(tick=480, channel=2, data=[71, 0]),\n",
      "   midi.NoteOnEvent(tick=0, channel=2, data=[70, 80]),\n",
      "   midi.NoteOffEvent(tick=96, channel=2, data=[70, 0]),\n",
      "   midi.NoteOnEvent(tick=0, channel=2, data=[71, 80]),\n",
      "   midi.NoteOffEvent(tick=96, channel=2, data=[71, 0]),\n",
      "   midi.NoteOnEvent(tick=0, channel=2, data=[73, 80]),\n",
      "   midi.NoteOffEvent(tick=96, channel=2, data=[73, 0]),\n",
      "   midi.NoteOnEvent(tick=0, channel=2, data=[74, 80]),\n",
      "   midi.NoteOffEvent(tick=96, channel=2, data=[74, 0]),\n",
      "   midi.NoteOnEvent(tick=0, channel=2, data=[76, 80]),\n",
      "   midi.NoteOffEvent(tick=96, channel=2, data=[76, 0]),\n",
      "   midi.NoteOnEvent(tick=0, channel=2, data=[78, 80]),\n",
      "   midi.NoteOffEvent(tick=96, channel=2, data=[78, 0]),\n",
      "   midi.NoteOnEvent(tick=96, channel=2, data=[78, 80]),\n",
      "   midi.NoteOffEvent(tick=96, channel=2, data=[78, 0]),\n",
      "   midi.NoteOnEvent(tick=96, channel=2, data=[79, 80]),\n",
      "   midi.NoteOffEvent(tick=96, channel=2, data=[79, 0]),\n",
      "   midi.NoteOnEvent(tick=96, channel=2, data=[81, 80]),\n",
      "   midi.NoteOffEvent(tick=480, channel=2, data=[81, 0]),\n",
      "   midi.NoteOnEvent(tick=0, channel=2, data=[84, 80]),\n",
      "   midi.NoteOffEvent(tick=96, channel=2, data=[84, 0]),\n",
      "   midi.NoteOnEvent(tick=0, channel=2, data=[83, 80]),\n",
      "   midi.NoteOffEvent(tick=96, channel=2, data=[83, 0]),\n",
      "   midi.NoteOnEvent(tick=0, channel=2, data=[81, 80]),\n",
      "   midi.NoteOffEvent(tick=96, channel=2, data=[81, 0]),\n",
      "   midi.NoteOnEvent(tick=0, channel=2, data=[79, 80]),\n",
      "   midi.NoteOffEvent(tick=192, channel=2, data=[79, 0]),\n",
      "   midi.NoteOnEvent(tick=0, channel=2, data=[81, 80]),\n",
      "   midi.NoteOffEvent(tick=192, channel=2, data=[81, 0]),\n",
      "   midi.NoteOnEvent(tick=0, channel=2, data=[74, 80]),\n",
      "   midi.NoteOffEvent(tick=192, channel=2, data=[74, 0]),\n",
      "   midi.NoteOnEvent(tick=0, channel=2, data=[72, 80]),\n",
      "   midi.NoteOffEvent(tick=192, channel=2, data=[72, 0]),\n",
      "   midi.NoteOnEvent(tick=0, channel=2, data=[71, 80]),\n",
      "   midi.NoteOffEvent(tick=192, channel=2, data=[71, 0]),\n",
      "   midi.NoteOnEvent(tick=0, channel=2, data=[69, 80]),\n",
      "   midi.NoteOffEvent(tick=96, channel=2, data=[69, 0]),\n",
      "   midi.NoteOnEvent(tick=0, channel=2, data=[71, 80]),\n",
      "   midi.NoteOffEvent(tick=96, channel=2, data=[71, 0]),\n",
      "   midi.NoteOnEvent(tick=0, channel=2, data=[67, 80]),\n",
      "   midi.NoteOffEvent(tick=192, channel=2, data=[67, 0]),\n",
      "   midi.NoteOnEvent(tick=960, channel=2, data=[78, 80]),\n",
      "   midi.NoteOffEvent(tick=96, channel=2, data=[78, 0]),\n",
      "   midi.NoteOnEvent(tick=0, channel=2, data=[79, 80]),\n",
      "   midi.NoteOffEvent(tick=96, channel=2, data=[79, 0]),\n",
      "   midi.NoteOnEvent(tick=0, channel=2, data=[81, 80]),\n",
      "   midi.NoteOffEvent(tick=96, channel=2, data=[81, 0]),\n",
      "   midi.NoteOnEvent(tick=96, channel=2, data=[81, 80]),\n",
      "   midi.NoteOffEvent(tick=96, channel=2, data=[81, 0]),\n",
      "   midi.NoteOnEvent(tick=96, channel=2, data=[71, 80]),\n",
      "   midi.NoteOffEvent(tick=384, channel=2, data=[71, 0]),\n",
      "   midi.NoteOnEvent(tick=0, channel=2, data=[76, 80]),\n",
      "   midi.NoteOffEvent(tick=384, channel=2, data=[76, 0]),\n",
      "   midi.NoteOnEvent(tick=0, channel=2, data=[75, 80]),\n",
      "   midi.NoteOffEvent(tick=192, channel=2, data=[75, 0]),\n",
      "   midi.NoteOnEvent(tick=0, channel=2, data=[76, 80]),\n",
      "   midi.NoteOffEvent(tick=192, channel=2, data=[76, 0]),\n",
      "   midi.NoteOnEvent(tick=0, channel=2, data=[71, 80]),\n",
      "   midi.NoteOffEvent(tick=192, channel=2, data=[71, 0]),\n",
      "   midi.NoteOnEvent(tick=0, channel=2, data=[76, 80]),\n",
      "   midi.NoteOffEvent(tick=192, channel=2, data=[76, 0]),\n",
      "   midi.NoteOnEvent(tick=0, channel=2, data=[74, 80]),\n",
      "   midi.NoteOffEvent(tick=192, channel=2, data=[74, 0]),\n",
      "   midi.NoteOnEvent(tick=192, channel=2, data=[76, 80]),\n",
      "   midi.NoteOffEvent(tick=192, channel=2, data=[76, 0]),\n",
      "   midi.NoteOnEvent(tick=0, channel=2, data=[81, 80]),\n",
      "   midi.NoteOffEvent(tick=192, channel=2, data=[81, 0]),\n",
      "   midi.NoteOnEvent(tick=0, channel=2, data=[79, 80]),\n",
      "   midi.NoteOffEvent(tick=192, channel=2, data=[79, 0]),\n",
      "   midi.NoteOnEvent(tick=192, channel=2, data=[81, 80]),\n",
      "   midi.NoteOffEvent(tick=192, channel=2, data=[81, 0]),\n",
      "   midi.NoteOnEvent(tick=0, channel=2, data=[86, 80]),\n",
      "   midi.NoteOffEvent(tick=192, channel=2, data=[86, 0]),\n",
      "   midi.NoteOnEvent(tick=0, channel=2, data=[85, 80]),\n",
      "   midi.NoteOffEvent(tick=192, channel=2, data=[85, 0]),\n",
      "   midi.NoteOnEvent(tick=192, channel=2, data=[83, 80]),\n",
      "   midi.NoteOffEvent(tick=192, channel=2, data=[83, 0]),\n",
      "   midi.NoteOnEvent(tick=0, channel=2, data=[80, 80]),\n",
      "   midi.NoteOffEvent(tick=192, channel=2, data=[80, 0]),\n",
      "   midi.NoteOnEvent(tick=0, channel=2, data=[81, 80]),\n",
      "   midi.NoteOffEvent(tick=192, channel=2, data=[81, 0]),\n",
      "   midi.NoteOnEvent(tick=192, channel=2, data=[80, 80]),\n",
      "   midi.NoteOffEvent(tick=192, channel=2, data=[80, 0]),\n",
      "   midi.NoteOnEvent(tick=0, channel=2, data=[73, 80]),\n",
      "   midi.NoteOffEvent(tick=192, channel=2, data=[73, 0]),\n",
      "   midi.NoteOnEvent(tick=0, channel=2, data=[77, 80]),\n",
      "   midi.NoteOffEvent(tick=192, channel=2, data=[77, 0]),\n",
      "   midi.NoteOnEvent(tick=0, channel=2, data=[78, 80]),\n",
      "   midi.NoteOffEvent(tick=960, channel=2, data=[78, 0]),\n",
      "   midi.NoteOnEvent(tick=0, channel=2, data=[78, 80]),\n",
      "   midi.NoteOffEvent(tick=192, channel=2, data=[78, 0]),\n",
      "   midi.NoteOnEvent(tick=0, channel=2, data=[83, 80]),\n",
      "   midi.NoteOffEvent(tick=192, channel=2, data=[83, 0]),\n",
      "   midi.NoteOnEvent(tick=0, channel=2, data=[81, 80]),\n",
      "   midi.NoteOffEvent(tick=192, channel=2, data=[81, 0]),\n",
      "   midi.NoteOnEvent(tick=0, channel=2, data=[80, 80]),\n",
      "   midi.NoteOffEvent(tick=192, channel=2, data=[80, 0]),\n",
      "   midi.NoteOnEvent(tick=0, channel=2, data=[68, 80]),\n",
      "   midi.NoteOffEvent(tick=192, channel=2, data=[68, 0]),\n",
      "   midi.NoteOnEvent(tick=0, channel=2, data=[73, 80]),\n",
      "   midi.NoteOffEvent(tick=192, channel=2, data=[73, 0]),\n",
      "   midi.NoteOnEvent(tick=0, channel=2, data=[71, 80]),\n",
      "   midi.NoteOffEvent(tick=192, channel=2, data=[71, 0]),\n",
      "   midi.NoteOnEvent(tick=0, channel=2, data=[69, 80]),\n",
      "   midi.NoteOffEvent(tick=384, channel=2, data=[69, 0]),\n",
      "   midi.NoteOnEvent(tick=0, channel=2, data=[68, 80]),\n",
      "   midi.NoteOffEvent(tick=384, channel=2, data=[68, 0]),\n",
      "   midi.NoteOnEvent(tick=0, channel=2, data=[66, 80]),\n",
      "   midi.NoteOffEvent(tick=384, channel=2, data=[66, 0]),\n",
      "   midi.NoteOnEvent(tick=1728, channel=2, data=[69, 80]),\n",
      "   midi.NoteOffEvent(tick=192, channel=2, data=[69, 0]),\n",
      "   midi.NoteOnEvent(tick=0, channel=2, data=[74, 80]),\n",
      "   midi.NoteOffEvent(tick=48, channel=2, data=[74, 0]),\n",
      "   midi.NoteOnEvent(tick=0, channel=2, data=[76, 80]),\n",
      "   midi.NoteOffEvent(tick=48, channel=2, data=[76, 0]),\n",
      "   midi.NoteOnEvent(tick=0, channel=2, data=[78, 80]),\n",
      "   midi.NoteOffEvent(tick=256, channel=2, data=[78, 0]),\n",
      "   midi.NoteOnEvent(tick=32, channel=2, data=[76, 80]),\n",
      "   midi.NoteOffEvent(tick=48, channel=2, data=[76, 0]),\n",
      "   midi.NoteOnEvent(tick=0, channel=2, data=[78, 80]),\n",
      "   midi.NoteOffEvent(tick=48, channel=2, data=[78, 0]),\n",
      "   midi.NoteOnEvent(tick=0, channel=2, data=[79, 80]),\n",
      "   midi.NoteOffEvent(tick=256, channel=2, data=[79, 0]),\n",
      "   midi.NoteOnEvent(tick=32, channel=2, data=[78, 80]),\n",
      "   midi.NoteOffEvent(tick=192, channel=2, data=[78, 0]),\n",
      "   midi.NoteOnEvent(tick=0, channel=2, data=[81, 80]),\n",
      "   midi.NoteOffEvent(tick=192, channel=2, data=[81, 0]),\n",
      "   midi.NoteOnEvent(tick=0, channel=2, data=[78, 80]),\n",
      "   midi.NoteOffEvent(tick=192, channel=2, data=[78, 0]),\n",
      "   midi.NoteOnEvent(tick=0, channel=2, data=[74, 80]),\n",
      "   midi.NoteOffEvent(tick=192, channel=2, data=[74, 0]),\n",
      "   midi.NoteOnEvent(tick=768, channel=2, data=[78, 80]),\n",
      "   midi.NoteOffEvent(tick=96, channel=2, data=[78, 0]),\n",
      "   midi.NoteOnEvent(tick=0, channel=2, data=[79, 80]),\n",
      "   midi.NoteOffEvent(tick=96, channel=2, data=[79, 0]),\n",
      "   midi.NoteOnEvent(tick=0, channel=2, data=[81, 80]),\n",
      "   midi.NoteOffEvent(tick=96, channel=2, data=[81, 0]),\n",
      "   midi.NoteOnEvent(tick=96, channel=2, data=[81, 80]),\n",
      "   midi.NoteOffEvent(tick=96, channel=2, data=[81, 0]),\n",
      "   midi.NoteOnEvent(tick=96, channel=2, data=[81, 80]),\n",
      "   midi.NoteOffEvent(tick=96, channel=2, data=[81, 0]),\n",
      "   midi.NoteOnEvent(tick=96, channel=2, data=[81, 80]),\n",
      "   midi.NoteOffEvent(tick=192, channel=2, data=[81, 0]),\n",
      "   midi.NoteOnEvent(tick=1344, channel=2, data=[79, 80]),\n",
      "   midi.NoteOffEvent(tick=864, channel=2, data=[79, 0]),\n",
      "   midi.NoteOnEvent(tick=0, channel=2, data=[78, 80]),\n",
      "   midi.NoteOffEvent(tick=96, channel=2, data=[78, 0]),\n",
      "   midi.NoteOnEvent(tick=0, channel=2, data=[76, 80]),\n",
      "   midi.NoteOffEvent(tick=96, channel=2, data=[76, 0]),\n",
      "   midi.NoteOnEvent(tick=0, channel=2, data=[74, 80]),\n",
      "   midi.NoteOffEvent(tick=96, channel=2, data=[74, 0]),\n",
      "   midi.NoteOnEvent(tick=0, channel=2, data=[73, 80]),\n",
      "   midi.NoteOffEvent(tick=96, channel=2, data=[73, 0]),\n",
      "   midi.NoteOnEvent(tick=0, channel=2, data=[71, 80]),\n",
      "   midi.NoteOffEvent(tick=96, channel=2, data=[71, 0]),\n",
      "   midi.NoteOnEvent(tick=0, channel=2, data=[73, 80]),\n",
      "   midi.NoteOffEvent(tick=96, channel=2, data=[73, 0]),\n",
      "   midi.NoteOnEvent(tick=0, channel=2, data=[69, 80]),\n",
      "   midi.NoteOffEvent(tick=96, channel=2, data=[69, 0]),\n",
      "   midi.NoteOnEvent(tick=0, channel=2, data=[74, 80]),\n",
      "   midi.NoteOffEvent(tick=48, channel=2, data=[74, 0]),\n",
      "   midi.NoteOnEvent(tick=0, channel=2, data=[76, 80]),\n",
      "   midi.NoteOffEvent(tick=48, channel=2, data=[76, 0]),\n",
      "   midi.NoteOnEvent(tick=0, channel=2, data=[78, 80]),\n",
      "   midi.NoteOffEvent(tick=256, channel=2, data=[78, 0]),\n",
      "   midi.NoteOnEvent(tick=32, channel=2, data=[76, 80]),\n",
      "   midi.NoteOffEvent(tick=48, channel=2, data=[76, 0]),\n",
      "   midi.NoteOnEvent(tick=0, channel=2, data=[78, 80]),\n",
      "   midi.NoteOffEvent(tick=48, channel=2, data=[78, 0]),\n",
      "   midi.NoteOnEvent(tick=0, channel=2, data=[79, 80]),\n",
      "   midi.NoteOffEvent(tick=256, channel=2, data=[79, 0]),\n",
      "   midi.NoteOnEvent(tick=32, channel=2, data=[78, 80]),\n",
      "   midi.NoteOffEvent(tick=192, channel=2, data=[78, 0]),\n",
      "   midi.NoteOnEvent(tick=0, channel=2, data=[76, 80]),\n",
      "   midi.NoteOffEvent(tick=192, channel=2, data=[76, 0]),\n",
      "   midi.NoteOnEvent(tick=0, channel=2, data=[74, 80]),\n",
      "   midi.NoteOffEvent(tick=384, channel=2, data=[74, 0]),\n",
      "   midi.NoteOnEvent(tick=1344, channel=2, data=[69, 80]),\n",
      "   midi.NoteOffEvent(tick=192, channel=2, data=[69, 0]),\n",
      "   midi.NoteOnEvent(tick=0, channel=2, data=[74, 80]),\n",
      "   midi.NoteOffEvent(tick=48, channel=2, data=[74, 0]),\n",
      "   midi.NoteOnEvent(tick=0, channel=2, data=[76, 80]),\n",
      "   midi.NoteOffEvent(tick=48, channel=2, data=[76, 0]),\n",
      "   midi.NoteOnEvent(tick=0, channel=2, data=[78, 80]),\n",
      "   midi.NoteOffEvent(tick=256, channel=2, data=[78, 0]),\n",
      "   midi.NoteOnEvent(tick=32, channel=2, data=[76, 80]),\n",
      "   midi.NoteOffEvent(tick=48, channel=2, data=[76, 0]),\n",
      "   midi.NoteOnEvent(tick=0, channel=2, data=[78, 80]),\n",
      "   midi.NoteOffEvent(tick=48, channel=2, data=[78, 0]),\n",
      "   midi.NoteOnEvent(tick=0, channel=2, data=[79, 80]),\n",
      "   midi.NoteOffEvent(tick=256, channel=2, data=[79, 0]),\n",
      "   midi.NoteOnEvent(tick=32, channel=2, data=[78, 80]),\n",
      "   midi.NoteOffEvent(tick=192, channel=2, data=[78, 0]),\n",
      "   midi.NoteOnEvent(tick=0, channel=2, data=[81, 80]),\n",
      "   midi.NoteOffEvent(tick=192, channel=2, data=[81, 0]),\n",
      "   midi.NoteOnEvent(tick=0, channel=2, data=[78, 80]),\n",
      "   midi.NoteOffEvent(tick=192, channel=2, data=[78, 0]),\n",
      "   midi.NoteOnEvent(tick=0, channel=2, data=[74, 80]),\n",
      "   midi.NoteOffEvent(tick=192, channel=2, data=[74, 0]),\n",
      "   midi.NoteOnEvent(tick=0, channel=2, data=[78, 80]),\n",
      "   midi.NoteOffEvent(tick=96, channel=2, data=[78, 0]),\n",
      "   midi.NoteOnEvent(tick=0, channel=2, data=[79, 80]),\n",
      "   midi.NoteOffEvent(tick=96, channel=2, data=[79, 0]),\n",
      "   midi.NoteOnEvent(tick=0, channel=2, data=[81, 80]),\n",
      "   midi.NoteOffEvent(tick=96, channel=2, data=[81, 0]),\n",
      "   midi.NoteOnEvent(tick=96, channel=2, data=[81, 80]),\n",
      "   midi.NoteOffEvent(tick=96, channel=2, data=[81, 0]),\n",
      "   midi.NoteOnEvent(tick=96, channel=2, data=[81, 80]),\n",
      "   midi.NoteOffEvent(tick=96, channel=2, data=[81, 0]),\n",
      "   midi.NoteOnEvent(tick=96, channel=2, data=[81, 80]),\n",
      "   midi.NoteOffEvent(tick=192, channel=2, data=[81, 0]),\n",
      "   midi.NoteOnEvent(tick=0, channel=2, data=[86, 80]),\n",
      "   midi.NoteOffEvent(tick=96, channel=2, data=[86, 0]),\n",
      "   midi.NoteOnEvent(tick=0, channel=2, data=[85, 80]),\n",
      "   midi.NoteOffEvent(tick=96, channel=2, data=[85, 0]),\n",
      "   midi.NoteOnEvent(tick=0, channel=2, data=[86, 80]),\n",
      "   midi.NoteOffEvent(tick=96, channel=2, data=[86, 0]),\n",
      "   midi.NoteOnEvent(tick=0, channel=2, data=[85, 80]),\n",
      "   midi.NoteOffEvent(tick=96, channel=2, data=[85, 0]),\n",
      "   midi.NoteOnEvent(tick=0, channel=2, data=[83, 80]),\n",
      "   midi.NoteOffEvent(tick=96, channel=2, data=[83, 0]),\n",
      "   midi.NoteOnEvent(tick=0, channel=2, data=[81, 80]),\n",
      "   midi.NoteOffEvent(tick=96, channel=2, data=[81, 0]),\n",
      "   midi.NoteOnEvent(tick=0, channel=2, data=[79, 80]),\n",
      "   midi.NoteOffEvent(tick=96, channel=2, data=[79, 0]),\n",
      "   midi.NoteOnEvent(tick=0, channel=2, data=[81, 80]),\n",
      "   midi.NoteOffEvent(tick=96, channel=2, data=[81, 0]),\n",
      "   midi.NoteOnEvent(tick=0, channel=2, data=[83, 80]),\n",
      "   midi.NoteOffEvent(tick=96, channel=2, data=[83, 0]),\n",
      "   midi.NoteOnEvent(tick=96, channel=2, data=[83, 80]),\n",
      "   midi.NoteOffEvent(tick=96, channel=2, data=[83, 0]),\n",
      "   midi.NoteOnEvent(tick=96, channel=2, data=[83, 80]),\n",
      "   midi.NoteOffEvent(tick=96, channel=2, data=[83, 0]),\n",
      "   midi.NoteOnEvent(tick=96, channel=2, data=[83, 80]),\n",
      "   midi.NoteOffEvent(tick=192, channel=2, data=[83, 0]),\n",
      "   midi.NoteOnEvent(tick=0, channel=2, data=[81, 80]),\n",
      "   midi.NoteOffEvent(tick=96, channel=2, data=[81, 0]),\n",
      "   midi.NoteOnEvent(tick=0, channel=2, data=[79, 80]),\n",
      "   midi.NoteOffEvent(tick=96, channel=2, data=[79, 0]),\n",
      "   midi.NoteOnEvent(tick=0, channel=2, data=[81, 80]),\n",
      "   midi.NoteOffEvent(tick=96, channel=2, data=[81, 0]),\n",
      "   midi.NoteOnEvent(tick=0, channel=2, data=[79, 80]),\n",
      "   midi.NoteOffEvent(tick=96, channel=2, data=[79, 0]),\n",
      "   midi.NoteOnEvent(tick=0, channel=2, data=[78, 80]),\n",
      "   midi.NoteOffEvent(tick=96, channel=2, data=[78, 0]),\n",
      "   midi.NoteOnEvent(tick=0, channel=2, data=[76, 80]),\n",
      "   midi.NoteOffEvent(tick=96, channel=2, data=[76, 0]),\n",
      "   midi.NoteOnEvent(tick=0, channel=2, data=[78, 80]),\n",
      "   midi.NoteOffEvent(tick=96, channel=2, data=[78, 0]),\n",
      "   midi.NoteOnEvent(tick=0, channel=2, data=[79, 80]),\n",
      "   midi.NoteOffEvent(tick=96, channel=2, data=[79, 0]),\n",
      "   midi.NoteOnEvent(tick=0, channel=2, data=[81, 80]),\n",
      "   midi.NoteOffEvent(tick=96, channel=2, data=[81, 0]),\n",
      "   midi.NoteOnEvent(tick=0, channel=2, data=[79, 80]),\n",
      "   midi.NoteOffEvent(tick=96, channel=2, data=[79, 0]),\n",
      "   midi.NoteOnEvent(tick=0, channel=2, data=[81, 80]),\n",
      "   midi.NoteOffEvent(tick=96, channel=2, data=[81, 0]),\n",
      "   midi.NoteOnEvent(tick=0, channel=2, data=[79, 80]),\n",
      "   midi.NoteOffEvent(tick=96, channel=2, data=[79, 0]),\n",
      "   midi.NoteOnEvent(tick=0, channel=2, data=[78, 80]),\n",
      "   midi.NoteOffEvent(tick=96, channel=2, data=[78, 0]),\n",
      "   midi.NoteOnEvent(tick=0, channel=2, data=[76, 80]),\n",
      "   midi.NoteOffEvent(tick=96, channel=2, data=[76, 0]),\n",
      "   midi.NoteOnEvent(tick=0, channel=2, data=[74, 80]),\n",
      "   midi.NoteOffEvent(tick=96, channel=2, data=[74, 0]),\n",
      "   midi.NoteOnEvent(tick=0, channel=2, data=[69, 80]),\n",
      "   midi.NoteOffEvent(tick=96, channel=2, data=[69, 0]),\n",
      "   midi.NoteOnEvent(tick=0, channel=2, data=[71, 80]),\n",
      "   midi.NoteOffEvent(tick=96, channel=2, data=[71, 0]),\n",
      "   midi.NoteOnEvent(tick=0, channel=2, data=[72, 80]),\n",
      "   midi.NoteOffEvent(tick=96, channel=2, data=[72, 0]),\n",
      "   midi.NoteOnEvent(tick=0, channel=2, data=[74, 80]),\n",
      "   midi.NoteOffEvent(tick=96, channel=2, data=[74, 0]),\n",
      "   midi.NoteOnEvent(tick=0, channel=2, data=[76, 80]),\n",
      "   midi.NoteOffEvent(tick=96, channel=2, data=[76, 0]),\n",
      "   midi.NoteOnEvent(tick=0, channel=2, data=[78, 80]),\n",
      "   midi.NoteOffEvent(tick=96, channel=2, data=[78, 0]),\n",
      "   midi.NoteOnEvent(tick=0, channel=2, data=[79, 80]),\n",
      "   midi.NoteOffEvent(tick=96, channel=2, data=[79, 0]),\n",
      "   midi.NoteOnEvent(tick=0, channel=2, data=[81, 80]),\n",
      "   midi.NoteOffEvent(tick=96, channel=2, data=[81, 0]),\n",
      "   midi.NoteOnEvent(tick=0, channel=2, data=[83, 80]),\n",
      "   midi.NoteOffEvent(tick=96, channel=2, data=[83, 0]),\n",
      "   midi.NoteOnEvent(tick=0, channel=2, data=[84, 80]),\n",
      "   midi.NoteOffEvent(tick=96, channel=2, data=[84, 0]),\n",
      "   midi.NoteOnEvent(tick=0, channel=2, data=[83, 80]),\n",
      "   midi.NoteOffEvent(tick=96, channel=2, data=[83, 0]),\n",
      "   midi.NoteOnEvent(tick=0, channel=2, data=[84, 80]),\n",
      "   midi.NoteOffEvent(tick=96, channel=2, data=[84, 0]),\n",
      "   midi.NoteOnEvent(tick=0, channel=2, data=[83, 80]),\n",
      "   midi.NoteOffEvent(tick=96, channel=2, data=[83, 0]),\n",
      "   midi.NoteOnEvent(tick=0, channel=2, data=[81, 80]),\n",
      "   midi.NoteOffEvent(tick=96, channel=2, data=[81, 0]),\n",
      "   midi.NoteOnEvent(tick=0, channel=2, data=[79, 80]),\n",
      "   midi.NoteOffEvent(tick=96, channel=2, data=[79, 0]),\n",
      "   midi.NoteOnEvent(tick=0, channel=2, data=[78, 80]),\n",
      "   midi.NoteOffEvent(tick=96, channel=2, data=[78, 0]),\n",
      "   midi.NoteOnEvent(tick=0, channel=2, data=[79, 80]),\n",
      "   midi.NoteOffEvent(tick=96, channel=2, data=[79, 0]),\n",
      "   midi.NoteOnEvent(tick=0, channel=2, data=[78, 80]),\n",
      "   midi.NoteOffEvent(tick=96, channel=2, data=[78, 0]),\n",
      "   midi.NoteOnEvent(tick=0, channel=2, data=[76, 80]),\n",
      "   midi.NoteOffEvent(tick=96, channel=2, data=[76, 0]),\n",
      "   midi.NoteOnEvent(tick=0, channel=2, data=[74, 80]),\n",
      "   midi.NoteOffEvent(tick=96, channel=2, data=[74, 0]),\n",
      "   midi.NoteOnEvent(tick=0, channel=2, data=[72, 80]),\n",
      "   midi.NoteOffEvent(tick=96, channel=2, data=[72, 0]),\n",
      "   midi.NoteOnEvent(tick=0, channel=2, data=[71, 80]),\n",
      "   midi.NoteOffEvent(tick=96, channel=2, data=[71, 0]),\n",
      "   midi.NoteOnEvent(tick=0, channel=2, data=[69, 80]),\n",
      "   midi.NoteOffEvent(tick=96, channel=2, data=[69, 0]),\n",
      "   midi.NoteOnEvent(tick=0, channel=2, data=[71, 80]),\n",
      "   midi.NoteOffEvent(tick=192, channel=2, data=[71, 0]),\n",
      "   midi.NoteOnEvent(tick=0, channel=2, data=[83, 80]),\n",
      "   midi.NoteOffEvent(tick=96, channel=2, data=[83, 0]),\n",
      "   midi.NoteOnEvent(tick=0, channel=2, data=[81, 80]),\n",
      "   midi.NoteOffEvent(tick=96, channel=2, data=[81, 0]),\n",
      "   midi.NoteOnEvent(tick=0, channel=2, data=[79, 80]),\n",
      "   midi.NoteOffEvent(tick=96, channel=2, data=[79, 0]),\n",
      "   midi.NoteOnEvent(tick=0, channel=2, data=[78, 80]),\n",
      "   midi.NoteOffEvent(tick=96, channel=2, data=[78, 0]),\n",
      "   midi.NoteOnEvent(tick=0, channel=2, data=[76, 80]),\n",
      "   midi.NoteOffEvent(tick=96, channel=2, data=[76, 0]),\n",
      "   midi.NoteOnEvent(tick=0, channel=2, data=[74, 80]),\n",
      "   midi.NoteOffEvent(tick=96, channel=2, data=[74, 0]),\n",
      "   midi.NoteOnEvent(tick=0, channel=2, data=[76, 80]),\n",
      "   midi.NoteOffEvent(tick=96, channel=2, data=[76, 0]),\n",
      "   midi.NoteOnEvent(tick=0, channel=2, data=[78, 80]),\n",
      "   midi.NoteOffEvent(tick=96, channel=2, data=[78, 0]),\n",
      "   midi.NoteOnEvent(tick=0, channel=2, data=[76, 80]),\n",
      "   midi.NoteOffEvent(tick=96, channel=2, data=[76, 0]),\n",
      "   midi.NoteOnEvent(tick=0, channel=2, data=[74, 80]),\n",
      "   midi.NoteOffEvent(tick=96, channel=2, data=[74, 0]),\n",
      "   midi.NoteOnEvent(tick=0, channel=2, data=[76, 80]),\n",
      "   midi.NoteOffEvent(tick=96, channel=2, data=[76, 0]),\n",
      "   midi.NoteOnEvent(tick=0, channel=2, data=[74, 80]),\n",
      "   midi.NoteOffEvent(tick=96, channel=2, data=[74, 0]),\n",
      "   midi.NoteOnEvent(tick=0, channel=2, data=[73, 80]),\n",
      "   midi.NoteOffEvent(tick=96, channel=2, data=[73, 0]),\n",
      "   midi.NoteOnEvent(tick=0, channel=2, data=[71, 80]),\n",
      "   midi.NoteOffEvent(tick=96, channel=2, data=[71, 0]),\n",
      "   midi.NoteOnEvent(tick=0, channel=2, data=[69, 80]),\n",
      "   midi.NoteOffEvent(tick=192, channel=2, data=[69, 0]),\n",
      "   midi.NoteOnEvent(tick=0, channel=2, data=[81, 80]),\n",
      "   midi.NoteOffEvent(tick=96, channel=2, data=[81, 0]),\n",
      "   midi.NoteOnEvent(tick=0, channel=2, data=[79, 80]),\n",
      "   midi.NoteOffEvent(tick=96, channel=2, data=[79, 0]),\n",
      "   midi.NoteOnEvent(tick=0, channel=2, data=[78, 80]),\n",
      "   midi.NoteOffEvent(tick=96, channel=2, data=[78, 0]),\n",
      "   midi.NoteOnEvent(tick=0, channel=2, data=[76, 80]),\n",
      "   midi.NoteOffEvent(tick=96, channel=2, data=[76, 0]),\n",
      "   midi.NoteOnEvent(tick=0, channel=2, data=[74, 80]),\n",
      "   midi.NoteOffEvent(tick=96, channel=2, data=[74, 0]),\n",
      "   midi.NoteOnEvent(tick=0, channel=2, data=[73, 80]),\n",
      "   midi.NoteOffEvent(tick=96, channel=2, data=[73, 0]),\n",
      "   midi.NoteOnEvent(tick=0, channel=2, data=[74, 80]),\n",
      "   midi.NoteOffEvent(tick=96, channel=2, data=[74, 0]),\n",
      "   midi.NoteOnEvent(tick=0, channel=2, data=[76, 80]),\n",
      "   midi.NoteOffEvent(tick=96, channel=2, data=[76, 0]),\n",
      "   midi.NoteOnEvent(tick=0, channel=2, data=[74, 80]),\n",
      "   midi.NoteOffEvent(tick=96, channel=2, data=[74, 0]),\n",
      "   midi.NoteOnEvent(tick=0, channel=2, data=[73, 80]),\n",
      "   midi.NoteOffEvent(tick=96, channel=2, data=[73, 0]),\n",
      "   midi.NoteOnEvent(tick=0, channel=2, data=[74, 80]),\n",
      "   midi.NoteOffEvent(tick=96, channel=2, data=[74, 0]),\n",
      "   midi.NoteOnEvent(tick=0, channel=2, data=[73, 80]),\n",
      "   midi.NoteOffEvent(tick=96, channel=2, data=[73, 0]),\n",
      "   midi.NoteOnEvent(tick=0, channel=2, data=[71, 80]),\n",
      "   midi.NoteOffEvent(tick=96, channel=2, data=[71, 0]),\n",
      "   midi.NoteOnEvent(tick=0, channel=2, data=[69, 80]),\n",
      "   midi.NoteOffEvent(tick=96, channel=2, data=[69, 0]),\n",
      "   midi.NoteOnEvent(tick=0, channel=2, data=[67, 80]),\n",
      "   midi.NoteOffEvent(tick=192, channel=2, data=[67, 0]),\n",
      "   midi.NoteOnEvent(tick=0, channel=2, data=[83, 80]),\n",
      "   midi.NoteOffEvent(tick=192, channel=2, data=[83, 0]),\n",
      "   midi.NoteOnEvent(tick=0, channel=2, data=[85, 80]),\n",
      "   midi.NoteOffEvent(tick=192, channel=2, data=[85, 0]),\n",
      "   midi.NoteOnEvent(tick=0, channel=2, data=[86, 80]),\n",
      "   midi.NoteOffEvent(tick=192, channel=2, data=[86, 0]),\n",
      "   midi.NoteOnEvent(tick=0, channel=2, data=[88, 80]),\n",
      "   midi.NoteOffEvent(tick=192, channel=2, data=[88, 0]),\n",
      "   midi.NoteOnEvent(tick=0, channel=2, data=[76, 80]),\n",
      "   midi.NoteOffEvent(tick=96, channel=2, data=[76, 0]),\n",
      "   midi.NoteOnEvent(tick=0, channel=2, data=[78, 80]),\n",
      "   midi.NoteOffEvent(tick=96, channel=2, data=[78, 0]),\n",
      "   midi.NoteOnEvent(tick=0, channel=2, data=[79, 80]),\n",
      "   midi.NoteOffEvent(tick=96, channel=2, data=[79, 0]),\n",
      "   midi.NoteOnEvent(tick=0, channel=2, data=[81, 80]),\n",
      "   midi.NoteOffEvent(tick=96, channel=2, data=[81, 0]),\n",
      "   midi.NoteOnEvent(tick=0, channel=2, data=[83, 80]),\n",
      "   midi.NoteOffEvent(tick=96, channel=2, data=[83, 0]),\n",
      "   midi.NoteOnEvent(tick=0, channel=2, data=[85, 80]),\n",
      "   midi.NoteOffEvent(tick=96, channel=2, data=[85, 0]),\n",
      "   midi.NoteOnEvent(tick=0, channel=2, data=[86, 80]),\n",
      "   midi.NoteOffEvent(tick=96, channel=2, data=[86, 0]),\n",
      "   midi.NoteOnEvent(tick=0, channel=2, data=[81, 80]),\n",
      "   midi.NoteOffEvent(tick=96, channel=2, data=[81, 0]),\n",
      "   midi.NoteOnEvent(tick=0, channel=2, data=[79, 80]),\n",
      "   midi.NoteOffEvent(tick=96, channel=2, data=[79, 0]),\n",
      "   midi.NoteOnEvent(tick=0, channel=2, data=[78, 80]),\n",
      "   midi.NoteOffEvent(tick=96, channel=2, data=[78, 0]),\n",
      "   midi.NoteOnEvent(tick=0, channel=2, data=[79, 80]),\n",
      "   midi.NoteOffEvent(tick=96, channel=2, data=[79, 0]),\n",
      "   midi.NoteOnEvent(tick=0, channel=2, data=[78, 80]),\n",
      "   midi.NoteOffEvent(tick=96, channel=2, data=[78, 0]),\n",
      "   midi.NoteOnEvent(tick=0, channel=2, data=[76, 80]),\n",
      "   midi.NoteOffEvent(tick=96, channel=2, data=[76, 0]),\n",
      "   midi.NoteOnEvent(tick=0, channel=2, data=[78, 80]),\n",
      "   midi.NoteOffEvent(tick=96, channel=2, data=[78, 0]),\n",
      "   midi.NoteOnEvent(tick=0, channel=2, data=[74, 80]),\n",
      "   midi.NoteOffEvent(tick=384, channel=2, data=[74, 0]),\n",
      "   midi.NoteOnEvent(tick=1152, channel=2, data=[85, 80]),\n",
      "   midi.NoteOffEvent(tick=96, channel=2, data=[85, 0]),\n",
      "   midi.NoteOnEvent(tick=0, channel=2, data=[86, 80]),\n",
      "   midi.NoteOffEvent(tick=96, channel=2, data=[86, 0]),\n",
      "   midi.NoteOnEvent(tick=0, channel=2, data=[88, 80]),\n",
      "   midi.NoteOffEvent(tick=96, channel=2, data=[88, 0]),\n",
      "   midi.NoteOnEvent(tick=96, channel=2, data=[88, 80]),\n",
      "   midi.NoteOffEvent(tick=96, channel=2, data=[88, 0]),\n",
      "   midi.NoteOnEvent(tick=96, channel=2, data=[81, 80]),\n",
      "   midi.NoteOffEvent(tick=96, channel=2, data=[81, 0]),\n",
      "   midi.NoteOnEvent(tick=96, channel=2, data=[74, 80]),\n",
      "   midi.NoteOffEvent(tick=48, channel=2, data=[74, 0]),\n",
      "   midi.NoteOnEvent(tick=0, channel=2, data=[76, 80]),\n",
      "   midi.NoteOffEvent(tick=48, channel=2, data=[76, 0]),\n",
      "   midi.NoteOnEvent(tick=0, channel=2, data=[78, 80]),\n",
      "   midi.NoteOffEvent(tick=256, channel=2, data=[78, 0]),\n",
      "   midi.NoteOnEvent(tick=32, channel=2, data=[76, 80]),\n",
      "   midi.NoteOffEvent(tick=48, channel=2, data=[76, 0]),\n",
      "   midi.NoteOnEvent(tick=0, channel=2, data=[78, 80]),\n",
      "   midi.NoteOffEvent(tick=48, channel=2, data=[78, 0]),\n",
      "   midi.NoteOnEvent(tick=0, channel=2, data=[79, 80]),\n",
      "   midi.NoteOffEvent(tick=256, channel=2, data=[79, 0]),\n",
      "   midi.NoteOnEvent(tick=32, channel=2, data=[78, 80]),\n",
      "   midi.NoteOffEvent(tick=192, channel=2, data=[78, 0]),\n",
      "   midi.NoteOnEvent(tick=0, channel=2, data=[76, 80]),\n",
      "   midi.NoteOffEvent(tick=192, channel=2, data=[76, 0]),\n",
      "   midi.NoteOnEvent(tick=0, channel=2, data=[74, 80]),\n",
      "   midi.NoteOffEvent(tick=96, channel=2, data=[74, 0]),\n",
      "   midi.NoteOnEvent(tick=0, channel=2, data=[76, 80]),\n",
      "   midi.NoteOffEvent(tick=96, channel=2, data=[76, 0]),\n",
      "   midi.NoteOnEvent(tick=0, channel=2, data=[78, 80]),\n",
      "   midi.NoteOffEvent(tick=96, channel=2, data=[78, 0]),\n",
      "   midi.NoteOnEvent(tick=0, channel=2, data=[79, 80]),\n",
      "   midi.NoteOffEvent(tick=96, channel=2, data=[79, 0]),\n",
      "   midi.NoteOnEvent(tick=0, channel=2, data=[81, 80]),\n",
      "   midi.NoteOffEvent(tick=96, channel=2, data=[81, 0]),\n",
      "   midi.NoteOnEvent(tick=0, channel=2, data=[79, 80]),\n",
      "   midi.NoteOffEvent(tick=96, channel=2, data=[79, 0]),\n",
      "   midi.NoteOnEvent(tick=0, channel=2, data=[78, 80]),\n",
      "   midi.NoteOffEvent(tick=96, channel=2, data=[78, 0]),\n",
      "   midi.NoteOnEvent(tick=0, channel=2, data=[79, 80]),\n",
      "   midi.NoteOffEvent(tick=96, channel=2, data=[79, 0]),\n",
      "   midi.NoteOnEvent(tick=0, channel=2, data=[81, 80]),\n",
      "   midi.NoteOffEvent(tick=96, channel=2, data=[81, 0]),\n",
      "   midi.NoteOnEvent(tick=0, channel=2, data=[83, 80]),\n",
      "   midi.NoteOffEvent(tick=96, channel=2, data=[83, 0]),\n",
      "   midi.NoteOnEvent(tick=0, channel=2, data=[84, 80]),\n",
      "   midi.NoteOffEvent(tick=96, channel=2, data=[84, 0]),\n",
      "   midi.NoteOnEvent(tick=0, channel=2, data=[81, 80]),\n",
      "   midi.NoteOffEvent(tick=96, channel=2, data=[81, 0]),\n",
      "   midi.NoteOnEvent(tick=0, channel=2, data=[78, 80]),\n",
      "   midi.NoteOffEvent(tick=192, channel=2, data=[78, 0]),\n",
      "   midi.NoteOnEvent(tick=0, channel=2, data=[74, 80]),\n",
      "   midi.NoteOffEvent(tick=192, channel=2, data=[74, 0]),\n",
      "   midi.NoteOnEvent(tick=192, channel=2, data=[74, 80]),\n",
      "   midi.NoteOffEvent(tick=192, channel=2, data=[74, 0]),\n",
      "   midi.NoteOnEvent(tick=0, channel=2, data=[79, 80]),\n",
      "   midi.NoteOffEvent(tick=48, channel=2, data=[79, 0]),\n",
      "   midi.NoteOnEvent(tick=0, channel=2, data=[81, 80]),\n",
      "   midi.NoteOffEvent(tick=48, channel=2, data=[81, 0]),\n",
      "   midi.NoteOnEvent(tick=0, channel=2, data=[83, 80]),\n",
      "   midi.NoteOffEvent(tick=256, channel=2, data=[83, 0]),\n",
      "   midi.NoteOnEvent(tick=32, channel=2, data=[81, 80]),\n",
      "   midi.NoteOffEvent(tick=48, channel=2, data=[81, 0]),\n",
      "   midi.NoteOnEvent(tick=0, channel=2, data=[83, 80]),\n",
      "   midi.NoteOffEvent(tick=48, channel=2, data=[83, 0]),\n",
      "   midi.NoteOnEvent(tick=0, channel=2, data=[84, 80]),\n",
      "   midi.NoteOffEvent(tick=256, channel=2, data=[84, 0]),\n",
      "   midi.NoteOnEvent(tick=32, channel=2, data=[83, 80]),\n",
      "   midi.NoteOffEvent(tick=192, channel=2, data=[83, 0]),\n",
      "   midi.NoteOnEvent(tick=0, channel=2, data=[81, 80]),\n",
      "   midi.NoteOffEvent(tick=192, channel=2, data=[81, 0]),\n",
      "   midi.NoteOnEvent(tick=0, channel=2, data=[79, 80]),\n",
      "   midi.NoteOffEvent(tick=192, channel=2, data=[79, 0]),\n",
      "   midi.NoteOnEvent(tick=0, channel=2, data=[78, 80]),\n",
      "   midi.NoteOffEvent(tick=192, channel=2, data=[78, 0]),\n",
      "   midi.NoteOnEvent(tick=0, channel=2, data=[76, 80]),\n",
      "   midi.NoteOffEvent(tick=864, channel=2, data=[76, 0]),\n",
      "   midi.NoteOnEvent(tick=0, channel=2, data=[74, 80]),\n",
      "   midi.NoteOffEvent(tick=96, channel=2, data=[74, 0]),\n",
      "   midi.NoteOnEvent(tick=0, channel=2, data=[73, 80]),\n",
      "   midi.NoteOffEvent(tick=96, channel=2, data=[73, 0]),\n",
      "   midi.NoteOnEvent(tick=0, channel=2, data=[74, 80]),\n",
      "   midi.NoteOffEvent(tick=96, channel=2, data=[74, 0]),\n",
      "   midi.NoteOnEvent(tick=0, channel=2, data=[76, 80]),\n",
      "   midi.NoteOffEvent(tick=192, channel=2, data=[76, 0]),\n",
      "   midi.NoteOnEvent(tick=0, channel=2, data=[78, 80]),\n",
      "   midi.NoteOffEvent(tick=192, channel=2, data=[78, 0]),\n",
      "   midi.NoteOnEvent(tick=0, channel=2, data=[79, 80]),\n",
      "   midi.NoteOffEvent(tick=864, channel=2, data=[79, 0]),\n",
      "   midi.NoteOnEvent(tick=0, channel=2, data=[78, 80]),\n",
      "   midi.NoteOffEvent(tick=96, channel=2, data=[78, 0]),\n",
      "   midi.NoteOnEvent(tick=0, channel=2, data=[76, 80]),\n",
      "   midi.NoteOffEvent(tick=96, channel=2, data=[76, 0]),\n",
      "   midi.NoteOnEvent(tick=0, channel=2, data=[78, 80]),\n",
      "   midi.NoteOffEvent(tick=96, channel=2, data=[78, 0]),\n",
      "   midi.NoteOnEvent(tick=0, channel=2, data=[79, 80]),\n",
      "   midi.NoteOffEvent(tick=192, channel=2, data=[79, 0]),\n",
      "   midi.NoteOnEvent(tick=0, channel=2, data=[81, 80]),\n",
      "   midi.NoteOffEvent(tick=192, channel=2, data=[81, 0]),\n",
      "   midi.NoteOnEvent(tick=0, channel=2, data=[78, 80]),\n",
      "   midi.NoteOffEvent(tick=96, channel=2, data=[78, 0]),\n",
      "   midi.NoteOnEvent(tick=0, channel=2, data=[76, 80]),\n",
      "   midi.NoteOffEvent(tick=96, channel=2, data=[76, 0]),\n",
      "   midi.NoteOnEvent(tick=0, channel=2, data=[74, 80]),\n",
      "   midi.NoteOffEvent(tick=96, channel=2, data=[74, 0]),\n",
      "   midi.NoteOnEvent(tick=0, channel=2, data=[76, 80]),\n",
      "   midi.NoteOffEvent(tick=96, channel=2, data=[76, 0]),\n",
      "   midi.NoteOnEvent(tick=0, channel=2, data=[78, 80]),\n",
      "   midi.NoteOffEvent(tick=96, channel=2, data=[78, 0]),\n",
      "   midi.NoteOnEvent(tick=0, channel=2, data=[76, 80]),\n",
      "   midi.NoteOffEvent(tick=96, channel=2, data=[76, 0]),\n",
      "   midi.NoteOnEvent(tick=0, channel=2, data=[74, 80]),\n",
      "   midi.NoteOffEvent(tick=96, channel=2, data=[74, 0]),\n",
      "   midi.NoteOnEvent(tick=0, channel=2, data=[76, 80]),\n",
      "   midi.NoteOffEvent(tick=96, channel=2, data=[76, 0]),\n",
      "   midi.NoteOnEvent(tick=0, channel=2, data=[78, 80]),\n",
      "   midi.NoteOffEvent(tick=96, channel=2, data=[78, 0]),\n",
      "   midi.NoteOnEvent(tick=0, channel=2, data=[76, 80]),\n",
      "   midi.NoteOffEvent(tick=96, channel=2, data=[76, 0]),\n",
      "   midi.NoteOnEvent(tick=0, channel=2, data=[78, 80]),\n",
      "   midi.NoteOffEvent(tick=96, channel=2, data=[78, 0]),\n",
      "   midi.NoteOnEvent(tick=0, channel=2, data=[79, 80]),\n",
      "   midi.NoteOffEvent(tick=96, channel=2, data=[79, 0]),\n",
      "   midi.NoteOnEvent(tick=0, channel=2, data=[81, 80]),\n",
      "   midi.NoteOffEvent(tick=192, channel=2, data=[81, 0]),\n",
      "   midi.NoteOnEvent(tick=0, channel=2, data=[74, 80]),\n",
      "   midi.NoteOffEvent(tick=192, channel=2, data=[74, 0]),\n",
      "   midi.NoteOnEvent(tick=0, channel=2, data=[76, 80]),\n",
      "   midi.NoteOffEvent(tick=384, channel=2, data=[76, 0]),\n",
      "   midi.NoteOnEvent(tick=0, channel=2, data=[73, 80]),\n",
      "   midi.NoteOffEvent(tick=384, channel=2, data=[73, 0]),\n",
      "   midi.NoteOnEvent(tick=0, channel=2, data=[74, 80]),\n",
      "   midi.NoteOffEvent(tick=192, channel=2, data=[74, 0]),\n",
      "   midi.NoteOnEvent(tick=0, channel=2, data=[81, 80]),\n",
      "   midi.NoteOffEvent(tick=192, channel=2, data=[81, 0]),\n",
      "   midi.NoteOnEvent(tick=0, channel=2, data=[78, 80]),\n",
      "   midi.NoteOffEvent(tick=192, channel=2, data=[78, 0]),\n",
      "   midi.NoteOnEvent(tick=0, channel=2, data=[74, 80]),\n",
      "   midi.NoteOffEvent(tick=192, channel=2, data=[74, 0]),\n",
      "   midi.NoteOnEvent(tick=0, channel=2, data=[69, 80]),\n",
      "   midi.NoteOffEvent(tick=192, channel=2, data=[69, 0]),\n",
      "   midi.NoteOnEvent(tick=1152, channel=2, data=[69, 80]),\n",
      "   midi.NoteOffEvent(tick=192, channel=2, data=[69, 0]),\n",
      "   midi.NoteOnEvent(tick=0, channel=2, data=[74, 80]),\n",
      "   midi.NoteOffEvent(tick=48, channel=2, data=[74, 0]),\n",
      "   midi.NoteOnEvent(tick=0, channel=2, data=[76, 80]),\n",
      "   midi.NoteOffEvent(tick=48, channel=2, data=[76, 0]),\n",
      "   midi.NoteOnEvent(tick=0, channel=2, data=[78, 80]),\n",
      "   midi.NoteOffEvent(tick=256, channel=2, data=[78, 0]),\n",
      "   midi.NoteOnEvent(tick=32, channel=2, data=[76, 80]),\n",
      "   midi.NoteOffEvent(tick=48, channel=2, data=[76, 0]),\n",
      "   midi.NoteOnEvent(tick=0, channel=2, data=[78, 80]),\n",
      "   midi.NoteOffEvent(tick=48, channel=2, data=[78, 0]),\n",
      "   midi.NoteOnEvent(tick=0, channel=2, data=[79, 80]),\n",
      "   midi.NoteOffEvent(tick=256, channel=2, data=[79, 0]),\n",
      "   midi.NoteOnEvent(tick=32, channel=2, data=[78, 80]),\n",
      "   midi.NoteOffEvent(tick=192, channel=2, data=[78, 0]),\n",
      "   midi.NoteOnEvent(tick=0, channel=2, data=[81, 80]),\n",
      "   midi.NoteOffEvent(tick=192, channel=2, data=[81, 0]),\n",
      "   midi.NoteOnEvent(tick=0, channel=2, data=[78, 80]),\n",
      "   midi.NoteOffEvent(tick=192, channel=2, data=[78, 0]),\n",
      "   midi.NoteOnEvent(tick=0, channel=2, data=[74, 80]),\n",
      "   midi.NoteOffEvent(tick=192, channel=2, data=[74, 0]),\n",
      "   midi.NoteOnEvent(tick=1344, channel=2, data=[69, 80]),\n",
      "   midi.NoteOffEvent(tick=192, channel=2, data=[69, 0]),\n",
      "   midi.NoteOnEvent(tick=0, channel=2, data=[74, 80]),\n",
      "   midi.NoteOffEvent(tick=48, channel=2, data=[74, 0]),\n",
      "   midi.NoteOnEvent(tick=0, channel=2, data=[76, 80]),\n",
      "   midi.NoteOffEvent(tick=48, channel=2, data=[76, 0]),\n",
      "   midi.NoteOnEvent(tick=0, channel=2, data=[78, 80]),\n",
      "   midi.NoteOffEvent(tick=256, channel=2, data=[78, 0]),\n",
      "   midi.NoteOnEvent(tick=32, channel=2, data=[76, 80]),\n",
      "   midi.NoteOffEvent(tick=48, channel=2, data=[76, 0]),\n",
      "   midi.NoteOnEvent(tick=0, channel=2, data=[78, 80]),\n",
      "   midi.NoteOffEvent(tick=48, channel=2, data=[78, 0]),\n",
      "   midi.NoteOnEvent(tick=0, channel=2, data=[79, 80]),\n",
      "   midi.NoteOffEvent(tick=256, channel=2, data=[79, 0]),\n",
      "   midi.NoteOnEvent(tick=32, channel=2, data=[78, 80]),\n",
      "   midi.NoteOffEvent(tick=192, channel=2, data=[78, 0]),\n",
      "   midi.NoteOnEvent(tick=0, channel=2, data=[81, 80]),\n",
      "   midi.NoteOffEvent(tick=192, channel=2, data=[81, 0]),\n",
      "   midi.NoteOnEvent(tick=0, channel=2, data=[78, 80]),\n",
      "   midi.NoteOffEvent(tick=192, channel=2, data=[78, 0]),\n",
      "   midi.NoteOnEvent(tick=0, channel=2, data=[74, 80]),\n",
      "   midi.NoteOffEvent(tick=192, channel=2, data=[74, 0]),\n",
      "   midi.NoteOnEvent(tick=192, channel=2, data=[78, 80]),\n",
      "   midi.NoteOffEvent(tick=96, channel=2, data=[78, 0]),\n",
      "   midi.NoteOnEvent(tick=0, channel=2, data=[76, 80]),\n",
      "   midi.NoteOffEvent(tick=96, channel=2, data=[76, 0]),\n",
      "   midi.NoteOnEvent(tick=0, channel=2, data=[74, 80]),\n",
      "   midi.NoteOffEvent(tick=96, channel=2, data=[74, 0]),\n",
      "   midi.NoteOnEvent(tick=0, channel=2, data=[73, 80]),\n",
      "   midi.NoteOffEvent(tick=96, channel=2, data=[73, 0]),\n",
      "   midi.NoteOnEvent(tick=0, channel=2, data=[71, 80]),\n",
      "   midi.NoteOffEvent(tick=96, channel=2, data=[71, 0]),\n",
      "   midi.NoteOnEvent(tick=0, channel=2, data=[69, 80]),\n",
      "   midi.NoteOffEvent(tick=96, channel=2, data=[69, 0]),\n",
      "   midi.NoteOnEvent(tick=0, channel=2, data=[71, 80]),\n",
      "   midi.NoteOffEvent(tick=192, channel=2, data=[71, 0]),\n",
      "   midi.NoteOnEvent(tick=0, channel=2, data=[83, 80]),\n",
      "   midi.NoteOffEvent(tick=96, channel=2, data=[83, 0]),\n",
      "   midi.NoteOnEvent(tick=0, channel=2, data=[81, 80]),\n",
      "   midi.NoteOffEvent(tick=96, channel=2, data=[81, 0]),\n",
      "   midi.NoteOnEvent(tick=0, channel=2, data=[83, 80]),\n",
      "   midi.NoteOffEvent(tick=96, channel=2, data=[83, 0]),\n",
      "   midi.NoteOnEvent(tick=0, channel=2, data=[81, 80]),\n",
      "   midi.NoteOffEvent(tick=96, channel=2, data=[81, 0]),\n",
      "   midi.NoteOnEvent(tick=0, channel=2, data=[80, 80]),\n",
      "   midi.NoteOffEvent(tick=96, channel=2, data=[80, 0]),\n",
      "   midi.NoteOnEvent(tick=0, channel=2, data=[78, 80]),\n",
      "   midi.NoteOffEvent(tick=96, channel=2, data=[78, 0]),\n",
      "   midi.NoteOnEvent(tick=0, channel=2, data=[76, 80]),\n",
      "   midi.NoteOffEvent(tick=96, channel=2, data=[76, 0]),\n",
      "   midi.NoteOnEvent(tick=0, channel=2, data=[78, 80]),\n",
      "   midi.NoteOffEvent(tick=96, channel=2, data=[78, 0]),\n",
      "   midi.NoteOnEvent(tick=0, channel=2, data=[76, 80]),\n",
      "   midi.NoteOffEvent(tick=96, channel=2, data=[76, 0]),\n",
      "   midi.NoteOnEvent(tick=0, channel=2, data=[74, 80]),\n",
      "   midi.NoteOffEvent(tick=96, channel=2, data=[74, 0]),\n",
      "   midi.NoteOnEvent(tick=0, channel=2, data=[73, 80]),\n",
      "   midi.NoteOffEvent(tick=96, channel=2, data=[73, 0]),\n",
      "   midi.NoteOnEvent(tick=0, channel=2, data=[71, 80]),\n",
      "   midi.NoteOffEvent(tick=96, channel=2, data=[71, 0]),\n",
      "   midi.NoteOnEvent(tick=0, channel=2, data=[69, 80]),\n",
      "   midi.NoteOffEvent(tick=96, channel=2, data=[69, 0]),\n",
      "   midi.NoteOnEvent(tick=0, channel=2, data=[68, 80]),\n",
      "   midi.NoteOffEvent(tick=96, channel=2, data=[68, 0]),\n",
      "   midi.NoteOnEvent(tick=0, channel=2, data=[69, 80]),\n",
      "   midi.NoteOffEvent(tick=192, channel=2, data=[69, 0]),\n",
      "   midi.NoteOnEvent(tick=0, channel=2, data=[81, 80]),\n",
      "   midi.NoteOffEvent(tick=96, channel=2, data=[81, 0]),\n",
      "   midi.NoteOnEvent(tick=0, channel=2, data=[80, 80]),\n",
      "   midi.NoteOffEvent(tick=96, channel=2, data=[80, 0]),\n",
      "   midi.NoteOnEvent(tick=0, channel=2, data=[81, 80]),\n",
      "   midi.NoteOffEvent(tick=96, channel=2, data=[81, 0]),\n",
      "   midi.NoteOnEvent(tick=0, channel=2, data=[80, 80]),\n",
      "   midi.NoteOffEvent(tick=96, channel=2, data=[80, 0]),\n",
      "   midi.NoteOnEvent(tick=0, channel=2, data=[78, 80]),\n",
      "   midi.NoteOffEvent(tick=96, channel=2, data=[78, 0]),\n",
      "   midi.NoteOnEvent(tick=0, channel=2, data=[76, 80]),\n",
      "   midi.NoteOffEvent(tick=96, channel=2, data=[76, 0]),\n",
      "   midi.NoteOnEvent(tick=0, channel=2, data=[74, 80]),\n",
      "   midi.NoteOffEvent(tick=96, channel=2, data=[74, 0]),\n",
      "   midi.NoteOnEvent(tick=0, channel=2, data=[73, 80]),\n",
      "   midi.NoteOffEvent(tick=96, channel=2, data=[73, 0]),\n",
      "   midi.NoteOnEvent(tick=0, channel=2, data=[74, 80]),\n",
      "   midi.NoteOffEvent(tick=96, channel=2, data=[74, 0]),\n",
      "   midi.NoteOnEvent(tick=0, channel=2, data=[76, 80]),\n",
      "   midi.NoteOffEvent(tick=96, channel=2, data=[76, 0]),\n",
      "   midi.NoteOnEvent(tick=0, channel=2, data=[74, 80]),\n",
      "   midi.NoteOffEvent(tick=96, channel=2, data=[74, 0]),\n",
      "   midi.NoteOnEvent(tick=0, channel=2, data=[73, 80]),\n",
      "   midi.NoteOffEvent(tick=96, channel=2, data=[73, 0]),\n",
      "   midi.NoteOnEvent(tick=0, channel=2, data=[71, 80]),\n",
      "   midi.NoteOffEvent(tick=96, channel=2, data=[71, 0]),\n",
      "   midi.NoteOnEvent(tick=0, channel=2, data=[69, 80]),\n",
      "   midi.NoteOffEvent(tick=96, channel=2, data=[69, 0]),\n",
      "   midi.NoteOnEvent(tick=0, channel=2, data=[76, 80]),\n",
      "   midi.NoteOffEvent(tick=896, channel=2, data=[76, 0]),\n",
      "   midi.NoteOnEvent(tick=64, channel=2, data=[74, 80]),\n",
      "   midi.NoteOffEvent(tick=96, channel=2, data=[74, 0]),\n",
      "   midi.NoteOnEvent(tick=0, channel=2, data=[73, 80]),\n",
      "   midi.NoteOffEvent(tick=96, channel=2, data=[73, 0]),\n",
      "   midi.NoteOnEvent(tick=0, channel=2, data=[74, 80]),\n",
      "   midi.NoteOffEvent(tick=96, channel=2, data=[74, 0]),\n",
      "   midi.NoteOnEvent(tick=0, channel=2, data=[73, 80]),\n",
      "   midi.NoteOffEvent(tick=96, channel=2, data=[73, 0]),\n",
      "   midi.NoteOnEvent(tick=0, channel=2, data=[71, 80]),\n",
      "   midi.NoteOffEvent(tick=96, channel=2, data=[71, 0]),\n",
      "   midi.NoteOnEvent(tick=0, channel=2, data=[73, 80]),\n",
      "   midi.NoteOffEvent(tick=96, channel=2, data=[73, 0]),\n",
      "   midi.NoteOnEvent(tick=0, channel=2, data=[69, 80]),\n",
      "   midi.NoteOffEvent(tick=768, channel=2, data=[69, 0]),\n",
      "   midi.EndOfTrackEvent(tick=0, data=[])]),\n",
      " midi.Track(\\\n",
      "  [midi.TrackNameEvent(tick=0, text='Flauto transverso II', data=[70, 108, 97, 117, 116, 111, 32, 116, 114, 97, 110, 115, 118, 101, 114, 115, 111, 32, 73, 73]),\n",
      "   midi.ControlChangeEvent(tick=0, channel=2, data=[0, 0]),\n",
      "   midi.ProgramChangeEvent(tick=0, channel=2, data=[73]),\n",
      "   midi.ControlChangeEvent(tick=0, channel=2, data=[7, 100]),\n",
      "   midi.ControlChangeEvent(tick=0, channel=2, data=[10, 62]),\n",
      "   midi.ControlChangeEvent(tick=0, channel=2, data=[91, 127]),\n",
      "   midi.ControlChangeEvent(tick=0, channel=2, data=[93, 127]),\n",
      "   midi.KeySignatureEvent(tick=0, data=[2, 0]),\n",
      "   midi.NoteOnEvent(tick=2112, channel=2, data=[69, 80]),\n",
      "   midi.NoteOffEvent(tick=192, channel=2, data=[69, 0]),\n",
      "   midi.NoteOnEvent(tick=0, channel=2, data=[74, 80]),\n",
      "   midi.NoteOffEvent(tick=48, channel=2, data=[74, 0]),\n",
      "   midi.NoteOnEvent(tick=0, channel=2, data=[76, 80]),\n",
      "   midi.NoteOffEvent(tick=48, channel=2, data=[76, 0]),\n",
      "   midi.NoteOnEvent(tick=0, channel=2, data=[78, 80]),\n",
      "   midi.NoteOffEvent(tick=256, channel=2, data=[78, 0]),\n",
      "   midi.NoteOnEvent(tick=32, channel=2, data=[76, 80]),\n",
      "   midi.NoteOffEvent(tick=48, channel=2, data=[76, 0]),\n",
      "   midi.NoteOnEvent(tick=0, channel=2, data=[78, 80]),\n",
      "   midi.NoteOffEvent(tick=48, channel=2, data=[78, 0]),\n",
      "   midi.NoteOnEvent(tick=0, channel=2, data=[79, 80]),\n",
      "   midi.NoteOffEvent(tick=256, channel=2, data=[79, 0]),\n",
      "   midi.NoteOnEvent(tick=32, channel=2, data=[78, 80]),\n",
      "   midi.NoteOffEvent(tick=192, channel=2, data=[78, 0]),\n",
      "   midi.NoteOnEvent(tick=0, channel=2, data=[81, 80]),\n",
      "   midi.NoteOffEvent(tick=192, channel=2, data=[81, 0]),\n",
      "   midi.NoteOnEvent(tick=0, channel=2, data=[78, 80]),\n",
      "   midi.NoteOffEvent(tick=192, channel=2, data=[78, 0]),\n",
      "   midi.NoteOnEvent(tick=0, channel=2, data=[74, 80]),\n",
      "   midi.NoteOffEvent(tick=192, channel=2, data=[74, 0]),\n",
      "   midi.NoteOnEvent(tick=1344, channel=2, data=[69, 80]),\n",
      "   midi.NoteOffEvent(tick=192, channel=2, data=[69, 0]),\n",
      "   midi.NoteOnEvent(tick=0, channel=2, data=[74, 80]),\n",
      "   midi.NoteOffEvent(tick=48, channel=2, data=[74, 0]),\n",
      "   midi.NoteOnEvent(tick=0, channel=2, data=[76, 80]),\n",
      "   midi.NoteOffEvent(tick=48, channel=2, data=[76, 0]),\n",
      "   midi.NoteOnEvent(tick=0, channel=2, data=[78, 80]),\n",
      "   midi.NoteOffEvent(tick=256, channel=2, data=[78, 0]),\n",
      "   midi.NoteOnEvent(tick=32, channel=2, data=[76, 80]),\n",
      "   midi.NoteOffEvent(tick=48, channel=2, data=[76, 0]),\n",
      "   midi.NoteOnEvent(tick=0, channel=2, data=[78, 80]),\n",
      "   midi.NoteOffEvent(tick=48, channel=2, data=[78, 0]),\n",
      "   midi.NoteOnEvent(tick=0, channel=2, data=[79, 80]),\n",
      "   midi.NoteOffEvent(tick=256, channel=2, data=[79, 0]),\n",
      "   midi.NoteOnEvent(tick=32, channel=2, data=[78, 80]),\n",
      "   midi.NoteOffEvent(tick=192, channel=2, data=[78, 0]),\n",
      "   midi.NoteOnEvent(tick=0, channel=2, data=[81, 80]),\n",
      "   midi.NoteOffEvent(tick=192, channel=2, data=[81, 0]),\n",
      "   midi.NoteOnEvent(tick=0, channel=2, data=[78, 80]),\n",
      "   midi.NoteOffEvent(tick=192, channel=2, data=[78, 0]),\n",
      "   midi.NoteOnEvent(tick=0, channel=2, data=[74, 80]),\n",
      "   midi.NoteOffEvent(tick=192, channel=2, data=[74, 0]),\n",
      "   midi.NoteOnEvent(tick=192, channel=2, data=[78, 80]),\n",
      "   midi.NoteOffEvent(tick=96, channel=2, data=[78, 0]),\n",
      "   midi.NoteOnEvent(tick=0, channel=2, data=[76, 80]),\n",
      "   midi.NoteOffEvent(tick=96, channel=2, data=[76, 0]),\n",
      "   midi.NoteOnEvent(tick=0, channel=2, data=[74, 80]),\n",
      "   midi.NoteOffEvent(tick=96, channel=2, data=[74, 0]),\n",
      "   midi.NoteOnEvent(tick=0, channel=2, data=[73, 80]),\n",
      "   midi.NoteOffEvent(tick=96, channel=2, data=[73, 0]),\n",
      "   midi.NoteOnEvent(tick=0, channel=2, data=[71, 80]),\n",
      "   midi.NoteOffEvent(tick=96, channel=2, data=[71, 0]),\n",
      "   midi.NoteOnEvent(tick=0, channel=2, data=[69, 80]),\n",
      "   midi.NoteOffEvent(tick=96, channel=2, data=[69, 0]),\n",
      "   midi.NoteOnEvent(tick=0, channel=2, data=[71, 80]),\n",
      "   midi.NoteOffEvent(tick=192, channel=2, data=[71, 0]),\n",
      "   midi.NoteOnEvent(tick=0, channel=2, data=[83, 80]),\n",
      "   midi.NoteOffEvent(tick=96, channel=2, data=[83, 0]),\n",
      "   midi.NoteOnEvent(tick=0, channel=2, data=[81, 80]),\n",
      "   midi.NoteOffEvent(tick=96, channel=2, data=[81, 0]),\n",
      "   midi.NoteOnEvent(tick=0, channel=2, data=[83, 80]),\n",
      "   midi.NoteOffEvent(tick=96, channel=2, data=[83, 0]),\n",
      "   midi.NoteOnEvent(tick=0, channel=2, data=[81, 80]),\n",
      "   midi.NoteOffEvent(tick=96, channel=2, data=[81, 0]),\n",
      "   midi.NoteOnEvent(tick=0, channel=2, data=[80, 80]),\n",
      "   midi.NoteOffEvent(tick=96, channel=2, data=[80, 0]),\n",
      "   midi.NoteOnEvent(tick=0, channel=2, data=[78, 80]),\n",
      "   midi.NoteOffEvent(tick=96, channel=2, data=[78, 0]),\n",
      "   midi.NoteOnEvent(tick=0, channel=2, data=[76, 80]),\n",
      "   midi.NoteOffEvent(tick=96, channel=2, data=[76, 0]),\n",
      "   midi.NoteOnEvent(tick=0, channel=2, data=[78, 80]),\n",
      "   midi.NoteOffEvent(tick=96, channel=2, data=[78, 0]),\n",
      "   midi.NoteOnEvent(tick=0, channel=2, data=[76, 80]),\n",
      "   midi.NoteOffEvent(tick=96, channel=2, data=[76, 0]),\n",
      "   midi.NoteOnEvent(tick=0, channel=2, data=[74, 80]),\n",
      "   midi.NoteOffEvent(tick=96, channel=2, data=[74, 0]),\n",
      "   midi.NoteOnEvent(tick=0, channel=2, data=[73, 80]),\n",
      "   midi.NoteOffEvent(tick=96, channel=2, data=[73, 0]),\n",
      "   midi.NoteOnEvent(tick=0, channel=2, data=[71, 80]),\n",
      "   midi.NoteOffEvent(tick=96, channel=2, data=[71, 0]),\n",
      "   midi.NoteOnEvent(tick=0, channel=2, data=[69, 80]),\n",
      "   midi.NoteOffEvent(tick=96, channel=2, data=[69, 0]),\n",
      "   midi.NoteOnEvent(tick=0, channel=2, data=[68, 80]),\n",
      "   midi.NoteOffEvent(tick=96, channel=2, data=[68, 0]),\n",
      "   midi.NoteOnEvent(tick=0, channel=2, data=[69, 80]),\n",
      "   midi.NoteOffEvent(tick=192, channel=2, data=[69, 0]),\n",
      "   midi.NoteOnEvent(tick=0, channel=2, data=[81, 80]),\n",
      "   midi.NoteOffEvent(tick=96, channel=2, data=[81, 0]),\n",
      "   midi.NoteOnEvent(tick=0, channel=2, data=[80, 80]),\n",
      "   midi.NoteOffEvent(tick=96, channel=2, data=[80, 0]),\n",
      "   midi.NoteOnEvent(tick=0, channel=2, data=[81, 80]),\n",
      "   midi.NoteOffEvent(tick=96, channel=2, data=[81, 0]),\n",
      "   midi.NoteOnEvent(tick=0, channel=2, data=[80, 80]),\n",
      "   midi.NoteOffEvent(tick=96, channel=2, data=[80, 0]),\n",
      "   midi.NoteOnEvent(tick=0, channel=2, data=[78, 80]),\n",
      "   midi.NoteOffEvent(tick=96, channel=2, data=[78, 0]),\n",
      "   midi.NoteOnEvent(tick=0, channel=2, data=[76, 80]),\n",
      "   midi.NoteOffEvent(tick=96, channel=2, data=[76, 0]),\n",
      "   midi.NoteOnEvent(tick=0, channel=2, data=[74, 80]),\n",
      "   midi.NoteOffEvent(tick=96, channel=2, data=[74, 0]),\n",
      "   midi.NoteOnEvent(tick=0, channel=2, data=[73, 80]),\n",
      "   midi.NoteOffEvent(tick=96, channel=2, data=[73, 0]),\n",
      "   midi.NoteOnEvent(tick=0, channel=2, data=[74, 80]),\n",
      "   midi.NoteOffEvent(tick=96, channel=2, data=[74, 0]),\n",
      "   midi.NoteOnEvent(tick=0, channel=2, data=[76, 80]),\n",
      "   midi.NoteOffEvent(tick=96, channel=2, data=[76, 0]),\n",
      "   midi.NoteOnEvent(tick=0, channel=2, data=[74, 80]),\n",
      "   midi.NoteOffEvent(tick=96, channel=2, data=[74, 0]),\n",
      "   midi.NoteOnEvent(tick=0, channel=2, data=[73, 80]),\n",
      "   midi.NoteOffEvent(tick=96, channel=2, data=[73, 0]),\n",
      "   midi.NoteOnEvent(tick=0, channel=2, data=[71, 80]),\n",
      "   midi.NoteOffEvent(tick=96, channel=2, data=[71, 0]),\n",
      "   midi.NoteOnEvent(tick=0, channel=2, data=[69, 80]),\n",
      "   midi.NoteOffEvent(tick=96, channel=2, data=[69, 0]),\n",
      "   midi.NoteOnEvent(tick=0, channel=2, data=[76, 80]),\n",
      "   midi.NoteOffEvent(tick=896, channel=2, data=[76, 0]),\n",
      "   midi.NoteOnEvent(tick=64, channel=2, data=[74, 80]),\n",
      "   midi.NoteOffEvent(tick=96, channel=2, data=[74, 0]),\n",
      "   midi.NoteOnEvent(tick=0, channel=2, data=[73, 80]),\n",
      "   midi.NoteOffEvent(tick=96, channel=2, data=[73, 0]),\n",
      "   midi.NoteOnEvent(tick=0, channel=2, data=[74, 80]),\n",
      "   midi.NoteOffEvent(tick=96, channel=2, data=[74, 0]),\n",
      "   midi.NoteOnEvent(tick=0, channel=2, data=[73, 80]),\n",
      "   midi.NoteOffEvent(tick=96, channel=2, data=[73, 0]),\n",
      "   midi.NoteOnEvent(tick=0, channel=2, data=[71, 80]),\n",
      "   midi.NoteOffEvent(tick=96, channel=2, data=[71, 0]),\n",
      "   midi.NoteOnEvent(tick=0, channel=2, data=[73, 80]),\n",
      "   midi.NoteOffEvent(tick=96, channel=2, data=[73, 0]),\n",
      "   midi.NoteOnEvent(tick=0, channel=2, data=[69, 80]),\n",
      "   midi.NoteOffEvent(tick=192, channel=2, data=[69, 0]),\n",
      "   midi.NoteOnEvent(tick=0, channel=2, data=[85, 80]),\n",
      "   midi.NoteOffEvent(tick=192, channel=2, data=[85, 0]),\n",
      "   midi.NoteOnEvent(tick=0, channel=2, data=[81, 80]),\n",
      "   midi.NoteOffEvent(tick=192, channel=2, data=[81, 0]),\n",
      "   midi.NoteOnEvent(tick=0, channel=2, data=[76, 80]),\n",
      "   midi.NoteOffEvent(tick=192, channel=2, data=[76, 0]),\n",
      "   midi.NoteOnEvent(tick=192, channel=2, data=[73, 80]),\n",
      "   midi.NoteOffEvent(tick=192, channel=2, data=[73, 0]),\n",
      "   midi.NoteOnEvent(tick=0, channel=2, data=[69, 80]),\n",
      "   midi.NoteOffEvent(tick=192, channel=2, data=[69, 0]),\n",
      "   midi.NoteOnEvent(tick=0, channel=2, data=[64, 80]),\n",
      "   midi.NoteOffEvent(tick=192, channel=2, data=[64, 0]),\n",
      "   midi.NoteOnEvent(tick=192, channel=2, data=[79, 80]),\n",
      "   midi.NoteOffEvent(tick=96, channel=2, data=[79, 0]),\n",
      "   midi.NoteOnEvent(tick=0, channel=2, data=[78, 80]),\n",
      "   midi.NoteOffEvent(tick=96, channel=2, data=[78, 0]),\n",
      "   midi.NoteOnEvent(tick=0, channel=2, data=[76, 80]),\n",
      "   midi.NoteOffEvent(tick=96, channel=2, data=[76, 0]),\n",
      "   midi.NoteOnEvent(tick=0, channel=2, data=[74, 80]),\n",
      "   midi.NoteOffEvent(tick=96, channel=2, data=[74, 0]),\n",
      "   midi.NoteOnEvent(tick=0, channel=2, data=[73, 80]),\n",
      "   midi.NoteOffEvent(tick=96, channel=2, data=[73, 0]),\n",
      "   midi.NoteOnEvent(tick=0, channel=2, data=[71, 80]),\n",
      "   midi.NoteOffEvent(tick=96, channel=2, data=[71, 0]),\n",
      "   midi.NoteOnEvent(tick=0, channel=2, data=[70, 80]),\n",
      "   midi.NoteOffEvent(tick=192, channel=2, data=[70, 0]),\n",
      "   midi.NoteOnEvent(tick=0, channel=2, data=[78, 80]),\n",
      "   midi.NoteOffEvent(tick=256, channel=2, data=[78, 0]),\n",
      "   midi.NoteOnEvent(tick=32, channel=2, data=[76, 80]),\n",
      "   midi.NoteOffEvent(tick=96, channel=2, data=[76, 0]),\n",
      "   midi.NoteOnEvent(tick=0, channel=2, data=[74, 80]),\n",
      "   midi.NoteOffEvent(tick=96, channel=2, data=[74, 0]),\n",
      "   midi.NoteOnEvent(tick=0, channel=2, data=[73, 80]),\n",
      "   midi.NoteOffEvent(tick=96, channel=2, data=[73, 0]),\n",
      "   midi.NoteOnEvent(tick=0, channel=2, data=[74, 80]),\n",
      "   midi.NoteOffEvent(tick=192, channel=2, data=[74, 0]),\n",
      "   midi.NoteOnEvent(tick=0, channel=2, data=[78, 80]),\n",
      "   midi.NoteOffEvent(tick=192, channel=2, data=[78, 0]),\n",
      "   midi.NoteOnEvent(tick=0, channel=2, data=[74, 80]),\n",
      "   midi.NoteOffEvent(tick=192, channel=2, data=[74, 0]),\n",
      "   midi.NoteOnEvent(tick=0, channel=2, data=[71, 80]),\n",
      "   midi.NoteOffEvent(tick=192, channel=2, data=[71, 0]),\n",
      "   midi.NoteOnEvent(tick=0, channel=2, data=[74, 80]),\n",
      "   midi.NoteOffEvent(tick=96, channel=2, data=[74, 0]),\n",
      "   midi.NoteOnEvent(tick=0, channel=2, data=[76, 80]),\n",
      "   midi.NoteOffEvent(tick=96, channel=2, data=[76, 0]),\n",
      "   midi.NoteOnEvent(tick=0, channel=2, data=[78, 80]),\n",
      "   midi.NoteOffEvent(tick=96, channel=2, data=[78, 0]),\n",
      "   midi.NoteOnEvent(tick=96, channel=2, data=[78, 80]),\n",
      "   midi.NoteOffEvent(tick=96, channel=2, data=[78, 0]),\n",
      "   midi.NoteOnEvent(tick=96, channel=2, data=[78, 80]),\n",
      "   midi.NoteOffEvent(tick=96, channel=2, data=[78, 0]),\n",
      "   midi.NoteOnEvent(tick=96, channel=2, data=[78, 80]),\n",
      "   midi.NoteOffEvent(tick=864, channel=2, data=[78, 0]),\n",
      "   midi.NoteOnEvent(tick=0, channel=2, data=[84, 80]),\n",
      "   midi.NoteOffEvent(tick=96, channel=2, data=[84, 0]),\n",
      "   midi.NoteOnEvent(tick=0, channel=2, data=[83, 80]),\n",
      "   midi.NoteOffEvent(tick=96, channel=2, data=[83, 0]),\n",
      "   midi.NoteOnEvent(tick=0, channel=2, data=[81, 80]),\n",
      "   midi.NoteOffEvent(tick=96, channel=2, data=[81, 0]),\n",
      "   midi.NoteOnEvent(tick=0, channel=2, data=[83, 80]),\n",
      "   midi.NoteOffEvent(tick=96, channel=2, data=[83, 0]),\n",
      "   midi.NoteOnEvent(tick=0, channel=2, data=[81, 80]),\n",
      "   midi.NoteOffEvent(tick=96, channel=2, data=[81, 0]),\n",
      "   midi.NoteOnEvent(tick=0, channel=2, data=[79, 80]),\n",
      "   midi.NoteOffEvent(tick=96, channel=2, data=[79, 0]),\n",
      "   midi.NoteOnEvent(tick=0, channel=2, data=[78, 80]),\n",
      "   midi.NoteOffEvent(tick=96, channel=2, data=[78, 0]),\n",
      "   midi.NoteOnEvent(tick=0, channel=2, data=[79, 80]),\n",
      "   midi.NoteOffEvent(tick=96, channel=2, data=[79, 0]),\n",
      "   midi.NoteOnEvent(tick=0, channel=2, data=[81, 80]),\n",
      "   midi.NoteOffEvent(tick=96, channel=2, data=[81, 0]),\n",
      "   midi.NoteOnEvent(tick=0, channel=2, data=[79, 80]),\n",
      "   midi.NoteOffEvent(tick=96, channel=2, data=[79, 0]),\n",
      "   midi.NoteOnEvent(tick=0, channel=2, data=[78, 80]),\n",
      "   midi.NoteOffEvent(tick=96, channel=2, data=[78, 0]),\n",
      "   midi.NoteOnEvent(tick=0, channel=2, data=[76, 80]),\n",
      "   midi.NoteOffEvent(tick=96, channel=2, data=[76, 0]),\n",
      "   midi.NoteOnEvent(tick=0, channel=2, data=[78, 80]),\n",
      "   midi.NoteOffEvent(tick=96, channel=2, data=[78, 0]),\n",
      "   midi.NoteOnEvent(tick=0, channel=2, data=[79, 80]),\n",
      "   midi.NoteOffEvent(tick=96, channel=2, data=[79, 0]),\n",
      "   midi.NoteOnEvent(tick=0, channel=2, data=[81, 80]),\n",
      "   midi.NoteOffEvent(tick=96, channel=2, data=[81, 0]),\n",
      "   midi.NoteOnEvent(tick=0, channel=2, data=[83, 80]),\n",
      "   midi.NoteOffEvent(tick=96, channel=2, data=[83, 0]),\n",
      "   midi.NoteOnEvent(tick=0, channel=2, data=[84, 80]),\n",
      "   midi.NoteOffEvent(tick=96, channel=2, data=[84, 0]),\n",
      "   midi.NoteOnEvent(tick=0, channel=2, data=[83, 80]),\n",
      "   midi.NoteOffEvent(tick=96, channel=2, data=[83, 0]),\n",
      "   midi.NoteOnEvent(tick=96, channel=2, data=[83, 80]),\n",
      "   midi.NoteOffEvent(tick=96, channel=2, data=[83, 0]),\n",
      "   midi.NoteOnEvent(tick=96, channel=2, data=[83, 80]),\n",
      "   midi.NoteOffEvent(tick=96, channel=2, data=[83, 0]),\n",
      "   midi.NoteOnEvent(tick=96, channel=2, data=[83, 80]),\n",
      "   midi.NoteOffEvent(tick=192, channel=2, data=[83, 0]),\n",
      "   midi.NoteOnEvent(tick=0, channel=2, data=[88, 80]),\n",
      "   midi.NoteOffEvent(tick=96, channel=2, data=[88, 0]),\n",
      "   midi.NoteOnEvent(tick=0, channel=2, data=[86, 80]),\n",
      "   midi.NoteOffEvent(tick=96, channel=2, data=[86, 0]),\n",
      "   midi.NoteOnEvent(tick=0, channel=2, data=[88, 80]),\n",
      "   midi.NoteOffEvent(tick=96, channel=2, data=[88, 0]),\n",
      "   midi.NoteOnEvent(tick=0, channel=2, data=[86, 80]),\n",
      "   midi.NoteOffEvent(tick=96, channel=2, data=[86, 0]),\n",
      "   midi.NoteOnEvent(tick=0, channel=2, data=[85, 80]),\n",
      "   midi.NoteOffEvent(tick=96, channel=2, data=[85, 0]),\n",
      "   midi.NoteOnEvent(tick=0, channel=2, data=[83, 80]),\n",
      "   midi.NoteOffEvent(tick=96, channel=2, data=[83, 0]),\n",
      "   midi.NoteOnEvent(tick=0, channel=2, data=[81, 80]),\n",
      "   midi.NoteOffEvent(tick=96, channel=2, data=[81, 0]),\n",
      "   midi.NoteOnEvent(tick=0, channel=2, data=[83, 80]),\n",
      "   midi.NoteOffEvent(tick=96, channel=2, data=[83, 0]),\n",
      "   midi.NoteOnEvent(tick=0, channel=2, data=[81, 80]),\n",
      "   midi.NoteOffEvent(tick=96, channel=2, data=[81, 0]),\n",
      "   midi.NoteOnEvent(tick=96, channel=2, data=[81, 80]),\n",
      "   midi.NoteOffEvent(tick=96, channel=2, data=[81, 0]),\n",
      "   midi.NoteOnEvent(tick=96, channel=2, data=[81, 80]),\n",
      "   midi.NoteOffEvent(tick=96, channel=2, data=[81, 0]),\n",
      "   midi.NoteOnEvent(tick=96, channel=2, data=[81, 80]),\n",
      "   midi.NoteOffEvent(tick=192, channel=2, data=[81, 0]),\n",
      "   midi.NoteOnEvent(tick=0, channel=2, data=[86, 80]),\n",
      "   midi.NoteOffEvent(tick=96, channel=2, data=[86, 0]),\n",
      "   midi.NoteOnEvent(tick=0, channel=2, data=[85, 80]),\n",
      "   midi.NoteOffEvent(tick=96, channel=2, data=[85, 0]),\n",
      "   midi.NoteOnEvent(tick=0, channel=2, data=[86, 80]),\n",
      "   midi.NoteOffEvent(tick=96, channel=2, data=[86, 0]),\n",
      "   midi.NoteOnEvent(tick=0, channel=2, data=[85, 80]),\n",
      "   midi.NoteOffEvent(tick=96, channel=2, data=[85, 0]),\n",
      "   midi.NoteOnEvent(tick=0, channel=2, data=[83, 80]),\n",
      "   midi.NoteOffEvent(tick=96, channel=2, data=[83, 0]),\n",
      "   midi.NoteOnEvent(tick=0, channel=2, data=[81, 80]),\n",
      "   midi.NoteOffEvent(tick=96, channel=2, data=[81, 0]),\n",
      "   midi.NoteOnEvent(tick=0, channel=2, data=[79, 80]),\n",
      "   midi.NoteOffEvent(tick=96, channel=2, data=[79, 0]),\n",
      "   midi.NoteOnEvent(tick=0, channel=2, data=[81, 80]),\n",
      "   midi.NoteOffEvent(tick=96, channel=2, data=[81, 0]),\n",
      "   midi.NoteOnEvent(tick=0, channel=2, data=[79, 80]),\n",
      "   midi.NoteOffEvent(tick=96, channel=2, data=[79, 0]),\n",
      "   midi.NoteOnEvent(tick=0, channel=2, data=[78, 80]),\n",
      "   midi.NoteOffEvent(tick=96, channel=2, data=[78, 0]),\n",
      "   midi.NoteOnEvent(tick=0, channel=2, data=[76, 80]),\n",
      "   midi.NoteOffEvent(tick=96, channel=2, data=[76, 0]),\n",
      "   midi.NoteOnEvent(tick=0, channel=2, data=[74, 80]),\n",
      "   midi.NoteOffEvent(tick=96, channel=2, data=[74, 0]),\n",
      "   midi.NoteOnEvent(tick=0, channel=2, data=[73, 80]),\n",
      "   midi.NoteOffEvent(tick=96, channel=2, data=[73, 0]),\n",
      "   midi.NoteOnEvent(tick=0, channel=2, data=[71, 80]),\n",
      "   midi.NoteOffEvent(tick=96, channel=2, data=[71, 0]),\n",
      "   midi.NoteOnEvent(tick=0, channel=2, data=[73, 80]),\n",
      "   midi.NoteOffEvent(tick=96, channel=2, data=[73, 0]),\n",
      "   midi.NoteOnEvent(tick=0, channel=2, data=[71, 80]),\n",
      "   midi.NoteOffEvent(tick=96, channel=2, data=[71, 0]),\n",
      "   midi.NoteOnEvent(tick=0, channel=2, data=[73, 80]),\n",
      "   midi.NoteOffEvent(tick=96, channel=2, data=[73, 0]),\n",
      "   midi.NoteOnEvent(tick=0, channel=2, data=[74, 80]),\n",
      "   midi.NoteOffEvent(tick=96, channel=2, data=[74, 0]),\n",
      "   midi.NoteOnEvent(tick=0, channel=2, data=[76, 80]),\n",
      "   midi.NoteOffEvent(tick=96, channel=2, data=[76, 0]),\n",
      "   midi.NoteOnEvent(tick=0, channel=2, data=[79, 80]),\n",
      "   midi.NoteOffEvent(tick=96, channel=2, data=[79, 0]),\n",
      "   midi.NoteOnEvent(tick=0, channel=2, data=[78, 80]),\n",
      "   midi.NoteOffEvent(tick=96, channel=2, data=[78, 0]),\n",
      "   midi.NoteOnEvent(tick=0, channel=2, data=[76, 80]),\n",
      "   midi.NoteOffEvent(tick=96, channel=2, data=[76, 0]),\n",
      "   midi.NoteOnEvent(tick=0, channel=2, data=[78, 80]),\n",
      "   midi.NoteOffEvent(tick=96, channel=2, data=[78, 0]),\n",
      "   midi.NoteOnEvent(tick=0, channel=2, data=[81, 80]),\n",
      "   midi.NoteOffEvent(tick=96, channel=2, data=[81, 0]),\n",
      "   midi.NoteOnEvent(tick=0, channel=2, data=[79, 80]),\n",
      "   midi.NoteOffEvent(tick=96, channel=2, data=[79, 0]),\n",
      "   midi.NoteOnEvent(tick=0, channel=2, data=[78, 80]),\n",
      "   midi.NoteOffEvent(tick=96, channel=2, data=[78, 0]),\n",
      "   midi.NoteOnEvent(tick=0, channel=2, data=[79, 80]),\n",
      "   midi.NoteOffEvent(tick=96, channel=2, data=[79, 0]),\n",
      "   midi.NoteOnEvent(tick=0, channel=2, data=[78, 80]),\n",
      "   midi.NoteOffEvent(tick=96, channel=2, data=[78, 0]),\n",
      "   midi.NoteOnEvent(tick=0, channel=2, data=[76, 80]),\n",
      "   midi.NoteOffEvent(tick=96, channel=2, data=[76, 0]),\n",
      "   midi.NoteOnEvent(tick=0, channel=2, data=[78, 80]),\n",
      "   midi.NoteOffEvent(tick=96, channel=2, data=[78, 0]),\n",
      "   midi.NoteOnEvent(tick=0, channel=2, data=[74, 80]),\n",
      "   midi.NoteOffEvent(tick=384, channel=2, data=[74, 0]),\n",
      "   midi.NoteOnEvent(tick=96, channel=2, data=[69, 80]),\n",
      "   midi.NoteOffEvent(tick=96, channel=2, data=[69, 0]),\n",
      "   midi.NoteOnEvent(tick=0, channel=2, data=[71, 80]),\n",
      "   midi.NoteOffEvent(tick=96, channel=2, data=[71, 0]),\n",
      "   midi.NoteOnEvent(tick=0, channel=2, data=[73, 80]),\n",
      "   midi.NoteOffEvent(tick=96, channel=2, data=[73, 0]),\n",
      "   midi.NoteOnEvent(tick=0, channel=2, data=[74, 80]),\n",
      "   midi.NoteOffEvent(tick=96, channel=2, data=[74, 0]),\n",
      "   midi.NoteOnEvent(tick=0, channel=2, data=[76, 80]),\n",
      "   midi.NoteOffEvent(tick=96, channel=2, data=[76, 0]),\n",
      "   midi.NoteOnEvent(tick=0, channel=2, data=[78, 80]),\n",
      "   midi.NoteOffEvent(tick=96, channel=2, data=[78, 0]),\n",
      "   midi.NoteOnEvent(tick=96, channel=2, data=[78, 80]),\n",
      "   midi.NoteOffEvent(tick=96, channel=2, data=[78, 0]),\n",
      "   midi.NoteOnEvent(tick=96, channel=2, data=[78, 80]),\n",
      "   midi.NoteOffEvent(tick=96, channel=2, data=[78, 0]),\n",
      "   midi.NoteOnEvent(tick=96, channel=2, data=[78, 80]),\n",
      "   midi.NoteOffEvent(tick=192, channel=2, data=[78, 0]),\n",
      "   midi.NoteOnEvent(tick=2112, channel=2, data=[79, 80]),\n",
      "   midi.NoteOffEvent(tick=864, channel=2, data=[79, 0]),\n",
      "   midi.NoteOnEvent(tick=0, channel=2, data=[78, 80]),\n",
      "   midi.NoteOffEvent(tick=96, channel=2, data=[78, 0]),\n",
      "   midi.NoteOnEvent(tick=0, channel=2, data=[76, 80]),\n",
      "   midi.NoteOffEvent(tick=96, channel=2, data=[76, 0]),\n",
      "   midi.NoteOnEvent(tick=0, channel=2, data=[74, 80]),\n",
      "   midi.NoteOffEvent(tick=96, channel=2, data=[74, 0]),\n",
      "   midi.NoteOnEvent(tick=0, channel=2, data=[73, 80]),\n",
      "   midi.NoteOffEvent(tick=96, channel=2, data=[73, 0]),\n",
      "   midi.NoteOnEvent(tick=0, channel=2, data=[71, 80]),\n",
      "   midi.NoteOffEvent(tick=96, channel=2, data=[71, 0]),\n",
      "   midi.NoteOnEvent(tick=0, channel=2, data=[73, 80]),\n",
      "   midi.NoteOffEvent(tick=96, channel=2, data=[73, 0]),\n",
      "   midi.NoteOnEvent(tick=0, channel=2, data=[69, 80]),\n",
      "   midi.NoteOffEvent(tick=96, channel=2, data=[69, 0]),\n",
      "   midi.NoteOnEvent(tick=0, channel=2, data=[74, 80]),\n",
      "   midi.NoteOffEvent(tick=48, channel=2, data=[74, 0]),\n",
      "   midi.NoteOnEvent(tick=0, channel=2, data=[76, 80]),\n",
      "   midi.NoteOffEvent(tick=48, channel=2, data=[76, 0]),\n",
      "   midi.NoteOnEvent(tick=0, channel=2, data=[78, 80]),\n",
      "   midi.NoteOffEvent(tick=256, channel=2, data=[78, 0]),\n",
      "   midi.NoteOnEvent(tick=32, channel=2, data=[76, 80]),\n",
      "   midi.NoteOffEvent(tick=48, channel=2, data=[76, 0]),\n",
      "   midi.NoteOnEvent(tick=0, channel=2, data=[78, 80]),\n",
      "   midi.NoteOffEvent(tick=48, channel=2, data=[78, 0]),\n",
      "   midi.NoteOnEvent(tick=0, channel=2, data=[79, 80]),\n",
      "   midi.NoteOffEvent(tick=256, channel=2, data=[79, 0]),\n",
      "   midi.NoteOnEvent(tick=32, channel=2, data=[78, 80]),\n",
      "   midi.NoteOffEvent(tick=192, channel=2, data=[78, 0]),\n",
      "   midi.NoteOnEvent(tick=0, channel=2, data=[76, 80]),\n",
      "   midi.NoteOffEvent(tick=192, channel=2, data=[76, 0]),\n",
      "   midi.NoteOnEvent(tick=0, channel=2, data=[74, 80]),\n",
      "   midi.NoteOffEvent(tick=384, channel=2, data=[74, 0]),\n",
      "   midi.NoteOnEvent(tick=1344, channel=2, data=[69, 80]),\n",
      "   midi.NoteOffEvent(tick=192, channel=2, data=[69, 0]),\n",
      "   midi.NoteOnEvent(tick=0, channel=2, data=[74, 80]),\n",
      "   midi.NoteOffEvent(tick=48, channel=2, data=[74, 0]),\n",
      "   midi.NoteOnEvent(tick=0, channel=2, data=[76, 80]),\n",
      "   midi.NoteOffEvent(tick=48, channel=2, data=[76, 0]),\n",
      "   midi.NoteOnEvent(tick=0, channel=2, data=[78, 80]),\n",
      "   midi.NoteOffEvent(tick=256, channel=2, data=[78, 0]),\n",
      "   midi.NoteOnEvent(tick=32, channel=2, data=[76, 80]),\n",
      "   midi.NoteOffEvent(tick=48, channel=2, data=[76, 0]),\n",
      "   midi.NoteOnEvent(tick=0, channel=2, data=[78, 80]),\n",
      "   midi.NoteOffEvent(tick=48, channel=2, data=[78, 0]),\n",
      "   midi.NoteOnEvent(tick=0, channel=2, data=[79, 80]),\n",
      "   midi.NoteOffEvent(tick=256, channel=2, data=[79, 0]),\n",
      "   midi.NoteOnEvent(tick=32, channel=2, data=[78, 80]),\n",
      "   midi.NoteOffEvent(tick=192, channel=2, data=[78, 0]),\n",
      "   midi.NoteOnEvent(tick=0, channel=2, data=[81, 80]),\n",
      "   midi.NoteOffEvent(tick=192, channel=2, data=[81, 0]),\n",
      "   midi.NoteOnEvent(tick=0, channel=2, data=[78, 80]),\n",
      "   midi.NoteOffEvent(tick=192, channel=2, data=[78, 0]),\n",
      "   midi.NoteOnEvent(tick=0, channel=2, data=[74, 80]),\n",
      "   midi.NoteOffEvent(tick=192, channel=2, data=[74, 0]),\n",
      "   midi.NoteOnEvent(tick=0, channel=2, data=[78, 80]),\n",
      "   midi.NoteOffEvent(tick=96, channel=2, data=[78, 0]),\n",
      "   midi.NoteOnEvent(tick=0, channel=2, data=[79, 80]),\n",
      "   midi.NoteOffEvent(tick=96, channel=2, data=[79, 0]),\n",
      "   midi.NoteOnEvent(tick=0, channel=2, data=[81, 80]),\n",
      "   midi.NoteOffEvent(tick=96, channel=2, data=[81, 0]),\n",
      "   midi.NoteOnEvent(tick=96, channel=2, data=[81, 80]),\n",
      "   midi.NoteOffEvent(tick=96, channel=2, data=[81, 0]),\n",
      "   midi.NoteOnEvent(tick=96, channel=2, data=[81, 80]),\n",
      "   midi.NoteOffEvent(tick=96, channel=2, data=[81, 0]),\n",
      "   midi.NoteOnEvent(tick=96, channel=2, data=[81, 80]),\n",
      "   midi.NoteOffEvent(tick=192, channel=2, data=[81, 0]),\n",
      "   midi.NoteOnEvent(tick=0, channel=2, data=[86, 80]),\n",
      "   midi.NoteOffEvent(tick=96, channel=2, data=[86, 0]),\n",
      "   midi.NoteOnEvent(tick=0, channel=2, data=[85, 80]),\n",
      "   midi.NoteOffEvent(tick=96, channel=2, data=[85, 0]),\n",
      "   midi.NoteOnEvent(tick=0, channel=2, data=[86, 80]),\n",
      "   midi.NoteOffEvent(tick=96, channel=2, data=[86, 0]),\n",
      "   midi.NoteOnEvent(tick=0, channel=2, data=[85, 80]),\n",
      "   midi.NoteOffEvent(tick=96, channel=2, data=[85, 0]),\n",
      "   midi.NoteOnEvent(tick=0, channel=2, data=[83, 80]),\n",
      "   midi.NoteOffEvent(tick=96, channel=2, data=[83, 0]),\n",
      "   midi.NoteOnEvent(tick=0, channel=2, data=[81, 80]),\n",
      "   midi.NoteOffEvent(tick=96, channel=2, data=[81, 0]),\n",
      "   midi.NoteOnEvent(tick=0, channel=2, data=[79, 80]),\n",
      "   midi.NoteOffEvent(tick=96, channel=2, data=[79, 0]),\n",
      "   midi.NoteOnEvent(tick=0, channel=2, data=[81, 80]),\n",
      "   midi.NoteOffEvent(tick=96, channel=2, data=[81, 0]),\n",
      "   midi.NoteOnEvent(tick=0, channel=2, data=[83, 80]),\n",
      "   midi.NoteOffEvent(tick=96, channel=2, data=[83, 0]),\n",
      "   midi.NoteOnEvent(tick=96, channel=2, data=[83, 80]),\n",
      "   midi.NoteOffEvent(tick=96, channel=2, data=[83, 0]),\n",
      "   midi.NoteOnEvent(tick=96, channel=2, data=[83, 80]),\n",
      "   midi.NoteOffEvent(tick=96, channel=2, data=[83, 0]),\n",
      "   midi.NoteOnEvent(tick=96, channel=2, data=[83, 80]),\n",
      "   midi.NoteOffEvent(tick=192, channel=2, data=[83, 0]),\n",
      "   midi.NoteOnEvent(tick=0, channel=2, data=[81, 80]),\n",
      "   midi.NoteOffEvent(tick=96, channel=2, data=[81, 0]),\n",
      "   midi.NoteOnEvent(tick=0, channel=2, data=[79, 80]),\n",
      "   midi.NoteOffEvent(tick=96, channel=2, data=[79, 0]),\n",
      "   midi.NoteOnEvent(tick=0, channel=2, data=[81, 80]),\n",
      "   midi.NoteOffEvent(tick=96, channel=2, data=[81, 0]),\n",
      "   midi.NoteOnEvent(tick=0, channel=2, data=[79, 80]),\n",
      "   midi.NoteOffEvent(tick=96, channel=2, data=[79, 0]),\n",
      "   midi.NoteOnEvent(tick=0, channel=2, data=[78, 80]),\n",
      "   midi.NoteOffEvent(tick=96, channel=2, data=[78, 0]),\n",
      "   midi.NoteOnEvent(tick=0, channel=2, data=[76, 80]),\n",
      "   midi.NoteOffEvent(tick=96, channel=2, data=[76, 0]),\n",
      "   midi.NoteOnEvent(tick=0, channel=2, data=[78, 80]),\n",
      "   midi.NoteOffEvent(tick=96, channel=2, data=[78, 0]),\n",
      "   midi.NoteOnEvent(tick=0, channel=2, data=[79, 80]),\n",
      "   midi.NoteOffEvent(tick=96, channel=2, data=[79, 0]),\n",
      "   midi.NoteOnEvent(tick=0, channel=2, data=[78, 80]),\n",
      "   midi.NoteOffEvent(tick=96, channel=2, data=[78, 0]),\n",
      "   midi.NoteOnEvent(tick=0, channel=2, data=[76, 80]),\n",
      "   midi.NoteOffEvent(tick=96, channel=2, data=[76, 0]),\n",
      "   midi.NoteOnEvent(tick=0, channel=2, data=[74, 80]),\n",
      "   midi.NoteOffEvent(tick=96, channel=2, data=[74, 0]),\n",
      "   midi.NoteOnEvent(tick=0, channel=2, data=[73, 80]),\n",
      "   midi.NoteOffEvent(tick=96, channel=2, data=[73, 0]),\n",
      "   midi.NoteOnEvent(tick=0, channel=2, data=[71, 80]),\n",
      "   midi.NoteOffEvent(tick=96, channel=2, data=[71, 0]),\n",
      "   midi.NoteOnEvent(tick=0, channel=2, data=[69, 80]),\n",
      "   midi.NoteOffEvent(tick=96, channel=2, data=[69, 0]),\n",
      "   midi.NoteOnEvent(tick=0, channel=2, data=[71, 80]),\n",
      "   midi.NoteOffEvent(tick=192, channel=2, data=[71, 0]),\n",
      "   midi.NoteOnEvent(tick=0, channel=2, data=[83, 80]),\n",
      "   midi.NoteOffEvent(tick=96, channel=2, data=[83, 0]),\n",
      "   midi.NoteOnEvent(tick=0, channel=2, data=[81, 80]),\n",
      "   midi.NoteOffEvent(tick=96, channel=2, data=[81, 0]),\n",
      "   midi.NoteOnEvent(tick=0, channel=2, data=[83, 80]),\n",
      "   midi.NoteOffEvent(tick=96, channel=2, data=[83, 0]),\n",
      "   midi.NoteOnEvent(tick=0, channel=2, data=[81, 80]),\n",
      "   midi.NoteOffEvent(tick=96, channel=2, data=[81, 0]),\n",
      "   midi.NoteOnEvent(tick=0, channel=2, data=[80, 80]),\n",
      "   midi.NoteOffEvent(tick=96, channel=2, data=[80, 0]),\n",
      "   midi.NoteOnEvent(tick=0, channel=2, data=[78, 80]),\n",
      "   midi.NoteOffEvent(tick=96, channel=2, data=[78, 0]),\n",
      "   midi.NoteOnEvent(tick=0, channel=2, data=[76, 80]),\n",
      "   midi.NoteOffEvent(tick=96, channel=2, data=[76, 0]),\n",
      "   midi.NoteOnEvent(tick=0, channel=2, data=[78, 80]),\n",
      "   midi.NoteOffEvent(tick=96, channel=2, data=[78, 0]),\n",
      "   midi.NoteOnEvent(tick=0, channel=2, data=[76, 80]),\n",
      "   midi.NoteOffEvent(tick=96, channel=2, data=[76, 0]),\n",
      "   midi.NoteOnEvent(tick=0, channel=2, data=[74, 80]),\n",
      "   midi.NoteOffEvent(tick=96, channel=2, data=[74, 0]),\n",
      "   midi.NoteOnEvent(tick=0, channel=2, data=[73, 80]),\n",
      "   midi.NoteOffEvent(tick=96, channel=2, data=[73, 0]),\n",
      "   midi.NoteOnEvent(tick=0, channel=2, data=[71, 80]),\n",
      "   midi.NoteOffEvent(tick=96, channel=2, data=[71, 0]),\n",
      "   midi.NoteOnEvent(tick=0, channel=2, data=[69, 80]),\n",
      "   midi.NoteOffEvent(tick=96, channel=2, data=[69, 0]),\n",
      "   midi.NoteOnEvent(tick=0, channel=2, data=[68, 80]),\n",
      "   midi.NoteOffEvent(tick=96, channel=2, data=[68, 0]),\n",
      "   midi.NoteOnEvent(tick=0, channel=2, data=[69, 80]),\n",
      "   midi.NoteOffEvent(tick=192, channel=2, data=[69, 0]),\n",
      "   midi.NoteOnEvent(tick=0, channel=2, data=[81, 80]),\n",
      "   midi.NoteOffEvent(tick=96, channel=2, data=[81, 0]),\n",
      "   midi.NoteOnEvent(tick=0, channel=2, data=[80, 80]),\n",
      "   midi.NoteOffEvent(tick=96, channel=2, data=[80, 0]),\n",
      "   midi.NoteOnEvent(tick=0, channel=2, data=[81, 80]),\n",
      "   midi.NoteOffEvent(tick=96, channel=2, data=[81, 0]),\n",
      "   midi.NoteOnEvent(tick=0, channel=2, data=[80, 80]),\n",
      "   midi.NoteOffEvent(tick=96, channel=2, data=[80, 0]),\n",
      "   midi.NoteOnEvent(tick=0, channel=2, data=[78, 80]),\n",
      "   midi.NoteOffEvent(tick=96, channel=2, data=[78, 0]),\n",
      "   midi.NoteOnEvent(tick=0, channel=2, data=[76, 80]),\n",
      "   midi.NoteOffEvent(tick=96, channel=2, data=[76, 0]),\n",
      "   midi.NoteOnEvent(tick=0, channel=2, data=[74, 80]),\n",
      "   midi.NoteOffEvent(tick=96, channel=2, data=[74, 0]),\n",
      "   midi.NoteOnEvent(tick=0, channel=2, data=[73, 80]),\n",
      "   midi.NoteOffEvent(tick=96, channel=2, data=[73, 0]),\n",
      "   midi.NoteOnEvent(tick=0, channel=2, data=[74, 80]),\n",
      "   midi.NoteOffEvent(tick=96, channel=2, data=[74, 0]),\n",
      "   midi.NoteOnEvent(tick=0, channel=2, data=[76, 80]),\n",
      "   midi.NoteOffEvent(tick=96, channel=2, data=[76, 0]),\n",
      "   midi.NoteOnEvent(tick=0, channel=2, data=[74, 80]),\n",
      "   midi.NoteOffEvent(tick=96, channel=2, data=[74, 0]),\n",
      "   midi.NoteOnEvent(tick=0, channel=2, data=[73, 80]),\n",
      "   midi.NoteOffEvent(tick=96, channel=2, data=[73, 0]),\n",
      "   midi.NoteOnEvent(tick=0, channel=2, data=[71, 80]),\n",
      "   midi.NoteOffEvent(tick=96, channel=2, data=[71, 0]),\n",
      "   midi.NoteOnEvent(tick=0, channel=2, data=[69, 80]),\n",
      "   midi.NoteOffEvent(tick=96, channel=2, data=[69, 0]),\n",
      "   midi.NoteOnEvent(tick=0, channel=2, data=[76, 80]),\n",
      "   midi.NoteOffEvent(tick=896, channel=2, data=[76, 0]),\n",
      "   midi.NoteOnEvent(tick=64, channel=2, data=[74, 80]),\n",
      "   midi.NoteOffEvent(tick=96, channel=2, data=[74, 0]),\n",
      "   midi.NoteOnEvent(tick=0, channel=2, data=[73, 80]),\n",
      "   midi.NoteOffEvent(tick=96, channel=2, data=[73, 0]),\n",
      "   midi.NoteOnEvent(tick=0, channel=2, data=[74, 80]),\n",
      "   midi.NoteOffEvent(tick=96, channel=2, data=[74, 0]),\n",
      "   midi.NoteOnEvent(tick=0, channel=2, data=[73, 80]),\n",
      "   midi.NoteOffEvent(tick=96, channel=2, data=[73, 0]),\n",
      "   midi.NoteOnEvent(tick=0, channel=2, data=[71, 80]),\n",
      "   midi.NoteOffEvent(tick=96, channel=2, data=[71, 0]),\n",
      "   midi.NoteOnEvent(tick=0, channel=2, data=[73, 80]),\n",
      "   midi.NoteOffEvent(tick=96, channel=2, data=[73, 0]),\n",
      "   midi.NoteOnEvent(tick=0, channel=2, data=[69, 80]),\n",
      "   midi.NoteOffEvent(tick=96, channel=2, data=[69, 0]),\n",
      "   midi.NoteOnEvent(tick=0, channel=2, data=[71, 80]),\n",
      "   midi.NoteOffEvent(tick=96, channel=2, data=[71, 0]),\n",
      "   midi.NoteOnEvent(tick=0, channel=2, data=[73, 80]),\n",
      "   midi.NoteOffEvent(tick=96, channel=2, data=[73, 0]),\n",
      "   midi.NoteOnEvent(tick=0, channel=2, data=[74, 80]),\n",
      "   midi.NoteOffEvent(tick=96, channel=2, data=[74, 0]),\n",
      "   midi.NoteOnEvent(tick=0, channel=2, data=[76, 80]),\n",
      "   midi.NoteOffEvent(tick=96, channel=2, data=[76, 0]),\n",
      "   midi.NoteOnEvent(tick=0, channel=2, data=[78, 80]),\n",
      "   midi.NoteOffEvent(tick=96, channel=2, data=[78, 0]),\n",
      "   midi.NoteOnEvent(tick=0, channel=2, data=[80, 80]),\n",
      "   midi.NoteOffEvent(tick=96, channel=2, data=[80, 0]),\n",
      "   midi.NoteOnEvent(tick=0, channel=2, data=[81, 80]),\n",
      "   midi.NoteOffEvent(tick=96, channel=2, data=[81, 0]),\n",
      "   midi.NoteOnEvent(tick=0, channel=2, data=[83, 80]),\n",
      "   midi.NoteOffEvent(tick=96, channel=2, data=[83, 0]),\n",
      "   midi.NoteOnEvent(tick=0, channel=2, data=[81, 80]),\n",
      "   midi.NoteOffEvent(tick=96, channel=2, data=[81, 0]),\n",
      "   midi.NoteOnEvent(tick=0, channel=2, data=[80, 80]),\n",
      "   midi.NoteOffEvent(tick=96, channel=2, data=[80, 0]),\n",
      "   midi.NoteOnEvent(tick=0, channel=2, data=[78, 80]),\n",
      "   midi.NoteOffEvent(tick=96, channel=2, data=[78, 0]),\n",
      "   midi.NoteOnEvent(tick=0, channel=2, data=[76, 80]),\n",
      "   midi.NoteOffEvent(tick=576, channel=2, data=[76, 0]),\n",
      "   midi.NoteOnEvent(tick=0, channel=2, data=[71, 80]),\n",
      "   midi.NoteOffEvent(tick=192, channel=2, data=[71, 0]),\n",
      "   midi.NoteOnEvent(tick=0, channel=2, data=[68, 80]),\n",
      "   midi.NoteOffEvent(tick=192, channel=2, data=[68, 0]),\n",
      "   midi.NoteOnEvent(tick=0, channel=2, data=[64, 80]),\n",
      "   midi.NoteOffEvent(tick=192, channel=2, data=[64, 0]),\n",
      "   midi.NoteOnEvent(tick=0, channel=2, data=[69, 80]),\n",
      "   midi.NoteOffEvent(tick=48, channel=2, data=[69, 0]),\n",
      "   midi.NoteOnEvent(tick=0, channel=2, data=[71, 80]),\n",
      "   midi.NoteOffEvent(tick=48, channel=2, data=[71, 0]),\n",
      "   midi.NoteOnEvent(tick=0, channel=2, data=[73, 80]),\n",
      "   midi.NoteOffEvent(tick=256, channel=2, data=[73, 0]),\n",
      "   midi.NoteOnEvent(tick=32, channel=2, data=[71, 80]),\n",
      "   midi.NoteOffEvent(tick=48, channel=2, data=[71, 0]),\n",
      "   midi.NoteOnEvent(tick=0, channel=2, data=[73, 80]),\n",
      "   midi.NoteOffEvent(tick=48, channel=2, data=[73, 0]),\n",
      "   midi.NoteOnEvent(tick=0, channel=2, data=[74, 80]),\n",
      "   midi.NoteOffEvent(tick=256, channel=2, data=[74, 0]),\n",
      "   midi.NoteOnEvent(tick=32, channel=2, data=[73, 80]),\n",
      "   midi.NoteOffEvent(tick=192, channel=2, data=[73, 0]),\n",
      "   midi.NoteOnEvent(tick=0, channel=2, data=[71, 80]),\n",
      "   midi.NoteOffEvent(tick=192, channel=2, data=[71, 0]),\n",
      "   midi.NoteOnEvent(tick=0, channel=2, data=[69, 80]),\n",
      "   midi.NoteOffEvent(tick=192, channel=2, data=[69, 0]),\n",
      "   midi.NoteOnEvent(tick=960, channel=2, data=[85, 80]),\n",
      "   midi.NoteOffEvent(tick=96, channel=2, data=[85, 0]),\n",
      "   midi.NoteOnEvent(tick=0, channel=2, data=[86, 80]),\n",
      "   midi.NoteOffEvent(tick=96, channel=2, data=[86, 0]),\n",
      "   midi.NoteOnEvent(tick=0, channel=2, data=[88, 80]),\n",
      "   midi.NoteOffEvent(tick=96, channel=2, data=[88, 0]),\n",
      "   midi.NoteOnEvent(tick=96, channel=2, data=[88, 80]),\n",
      "   midi.NoteOffEvent(tick=96, channel=2, data=[88, 0]),\n",
      "   midi.NoteOnEvent(tick=96, channel=2, data=[81, 80]),\n",
      "   midi.NoteOffEvent(tick=96, channel=2, data=[81, 0]),\n",
      "   midi.NoteOnEvent(tick=96, channel=2, data=[74, 80]),\n",
      "   midi.NoteOffEvent(tick=48, channel=2, data=[74, 0]),\n",
      "   midi.NoteOnEvent(tick=0, channel=2, data=[76, 80]),\n",
      "   midi.NoteOffEvent(tick=48, channel=2, data=[76, 0]),\n",
      "   midi.NoteOnEvent(tick=0, channel=2, data=[78, 80]),\n",
      "   midi.NoteOffEvent(tick=256, channel=2, data=[78, 0]),\n",
      "   midi.NoteOnEvent(tick=32, channel=2, data=[76, 80]),\n",
      "   midi.NoteOffEvent(tick=48, channel=2, data=[76, 0]),\n",
      "   midi.NoteOnEvent(tick=0, channel=2, data=[78, 80]),\n",
      "   midi.NoteOffEvent(tick=48, channel=2, data=[78, 0]),\n",
      "   midi.NoteOnEvent(tick=0, channel=2, data=[79, 80]),\n",
      "   midi.NoteOffEvent(tick=256, channel=2, data=[79, 0]),\n",
      "   midi.NoteOnEvent(tick=32, channel=2, data=[74, 80]),\n",
      "   midi.NoteOffEvent(tick=192, channel=2, data=[74, 0]),\n",
      "   midi.NoteOnEvent(tick=0, channel=2, data=[73, 80]),\n",
      "   midi.NoteOffEvent(tick=192, channel=2, data=[73, 0]),\n",
      "   midi.NoteOnEvent(tick=0, channel=2, data=[74, 80]),\n",
      "   midi.NoteOffEvent(tick=192, channel=2, data=[74, 0]),\n",
      "   midi.NoteOnEvent(tick=1152, channel=2, data=[83, 80]),\n",
      "   midi.NoteOffEvent(tick=192, channel=2, data=[83, 0]),\n",
      "   midi.NoteOnEvent(tick=0, channel=2, data=[80, 80]),\n",
      "   midi.NoteOffEvent(tick=192, channel=2, data=[80, 0]),\n",
      "   midi.NoteOnEvent(tick=0, channel=2, data=[76, 80]),\n",
      "   midi.NoteOffEvent(tick=192, channel=2, data=[76, 0]),\n",
      "   midi.NoteOnEvent(tick=960, channel=2, data=[74, 80]),\n",
      "   midi.NoteOffEvent(tick=192, channel=2, data=[74, 0]),\n",
      "   midi.NoteOnEvent(tick=0, channel=2, data=[71, 80]),\n",
      "   midi.NoteOffEvent(tick=192, channel=2, data=[71, 0]),\n",
      "   midi.NoteOnEvent(tick=0, channel=2, data=[68, 80]),\n",
      "   midi.NoteOffEvent(tick=192, channel=2, data=[68, 0]),\n",
      "   midi.NoteOnEvent(tick=0, channel=2, data=[69, 80]),\n",
      "   midi.NoteOffEvent(tick=96, channel=2, data=[69, 0]),\n",
      "   midi.NoteOnEvent(tick=0, channel=2, data=[71, 80]),\n",
      "   midi.NoteOffEvent(tick=96, channel=2, data=[71, 0]),\n",
      "   midi.NoteOnEvent(tick=0, channel=2, data=[73, 80]),\n",
      "   midi.NoteOffEvent(tick=96, channel=2, data=[73, 0]),\n",
      "   midi.NoteOnEvent(tick=96, channel=2, data=[73, 80]),\n",
      "   midi.NoteOffEvent(tick=96, channel=2, data=[73, 0]),\n",
      "   midi.NoteOnEvent(tick=96, channel=2, data=[74, 80]),\n",
      "   midi.NoteOffEvent(tick=96, channel=2, data=[74, 0]),\n",
      "   midi.NoteOnEvent(tick=96, channel=2, data=[76, 80]),\n",
      "   midi.NoteOffEvent(tick=192, channel=2, data=[76, 0]),\n",
      "   midi.NoteOnEvent(tick=0, channel=2, data=[69, 80]),\n",
      "   midi.NoteOffEvent(tick=192, channel=2, data=[69, 0]),\n",
      "   midi.NoteOnEvent(tick=0, channel=2, data=[81, 80]),\n",
      "   midi.NoteOffEvent(tick=576, channel=2, data=[81, 0]),\n",
      "   midi.NoteOnEvent(tick=0, channel=2, data=[80, 80]),\n",
      "   midi.NoteOffEvent(tick=96, channel=2, data=[80, 0]),\n",
      "   midi.NoteOnEvent(tick=0, channel=2, data=[78, 80]),\n",
      "   midi.NoteOffEvent(tick=96, channel=2, data=[78, 0]),\n",
      "   midi.NoteOnEvent(tick=0, channel=2, data=[76, 80]),\n",
      "   midi.NoteOffEvent(tick=96, channel=2, data=[76, 0]),\n",
      "   midi.NoteOnEvent(tick=0, channel=2, data=[74, 80]),\n",
      "   midi.NoteOffEvent(tick=96, channel=2, data=[74, 0]),\n",
      "   midi.NoteOnEvent(tick=0, channel=2, data=[71, 80]),\n",
      "   midi.NoteOffEvent(tick=96, channel=2, data=[71, 0]),\n",
      "   midi.NoteOnEvent(tick=0, channel=2, data=[71, 80]),\n",
      "   midi.NoteOffEvent(tick=96, channel=2, data=[71, 0]),\n",
      "   midi.NoteOnEvent(tick=0, channel=2, data=[69, 80]),\n",
      "   midi.NoteOffEvent(tick=192, channel=2, data=[69, 0]),\n",
      "   midi.NoteOnEvent(tick=0, channel=2, data=[71, 80]),\n",
      "   midi.NoteOffEvent(tick=96, channel=2, data=[71, 0]),\n",
      "   midi.NoteOnEvent(tick=0, channel=2, data=[73, 80]),\n",
      "   midi.NoteOffEvent(tick=96, channel=2, data=[73, 0]),\n",
      "   midi.NoteOnEvent(tick=0, channel=2, data=[74, 80]),\n",
      "   midi.NoteOffEvent(tick=96, channel=2, data=[74, 0]),\n",
      "   midi.NoteOnEvent(tick=0, channel=2, data=[76, 80]),\n",
      "   midi.NoteOffEvent(tick=96, channel=2, data=[76, 0]),\n",
      "   midi.NoteOnEvent(tick=0, channel=2, data=[78, 80]),\n",
      "   midi.NoteOffEvent(tick=96, channel=2, data=[78, 0]),\n",
      "   midi.NoteOnEvent(tick=0, channel=2, data=[80, 80]),\n",
      "   midi.NoteOffEvent(tick=96, channel=2, data=[80, 0]),\n",
      "   midi.NoteOnEvent(tick=0, channel=2, data=[81, 80]),\n",
      "   midi.NoteOffEvent(tick=192, channel=2, data=[81, 0]),\n",
      "   midi.NoteOnEvent(tick=1152, channel=2, data=[76, 80]),\n",
      "   midi.NoteOffEvent(tick=192, channel=2, data=[76, 0]),\n",
      "   midi.NoteOnEvent(tick=0, channel=2, data=[81, 80]),\n",
      "   midi.NoteOffEvent(tick=48, channel=2, data=[81, 0]),\n",
      "   midi.NoteOnEvent(tick=0, channel=2, data=[83, 80]),\n",
      "   midi.NoteOffEvent(tick=48, channel=2, data=[83, 0]),\n",
      "   midi.NoteOnEvent(tick=0, channel=2, data=[85, 80]),\n",
      "   midi.NoteOffEvent(tick=256, channel=2, data=[85, 0]),\n",
      "   midi.NoteOnEvent(tick=32, channel=2, data=[83, 80]),\n",
      "   midi.NoteOffEvent(tick=48, channel=2, data=[83, 0]),\n",
      "   midi.NoteOnEvent(tick=0, channel=2, data=[85, 80]),\n",
      "   midi.NoteOffEvent(tick=48, channel=2, data=[85, 0]),\n",
      "   midi.NoteOnEvent(tick=0, channel=2, data=[86, 80]),\n",
      "   midi.NoteOffEvent(tick=256, channel=2, data=[86, 0]),\n",
      "   midi.NoteOnEvent(tick=32, channel=2, data=[85, 80]),\n",
      "   midi.NoteOffEvent(tick=192, channel=2, data=[85, 0]),\n",
      "   midi.NoteOnEvent(tick=0, channel=2, data=[88, 80]),\n",
      "   midi.NoteOffEvent(tick=192, channel=2, data=[88, 0]),\n",
      "   midi.NoteOnEvent(tick=0, channel=2, data=[85, 80]),\n",
      "   midi.NoteOffEvent(tick=192, channel=2, data=[85, 0]),\n",
      "   midi.NoteOnEvent(tick=0, channel=2, data=[81, 80]),\n",
      "   midi.NoteOffEvent(tick=192, channel=2, data=[81, 0]),\n",
      "   midi.NoteOnEvent(tick=1344, channel=2, data=[76, 80]),\n",
      "   midi.NoteOffEvent(tick=192, channel=2, data=[76, 0]),\n",
      "   midi.NoteOnEvent(tick=0, channel=2, data=[81, 80]),\n",
      "   midi.NoteOffEvent(tick=48, channel=2, data=[81, 0]),\n",
      "   midi.NoteOnEvent(tick=0, channel=2, data=[83, 80]),\n",
      "   midi.NoteOffEvent(tick=48, channel=2, data=[83, 0]),\n",
      "   midi.NoteOnEvent(tick=0, channel=2, data=[85, 80]),\n",
      "   midi.NoteOffEvent(tick=256, channel=2, data=[85, 0]),\n",
      "   midi.NoteOnEvent(tick=32, channel=2, data=[83, 80]),\n",
      "   midi.NoteOffEvent(tick=48, channel=2, data=[83, 0]),\n",
      "   midi.NoteOnEvent(tick=0, channel=2, data=[85, 80]),\n",
      "   midi.NoteOffEvent(tick=48, channel=2, data=[85, 0]),\n",
      "   midi.NoteOnEvent(tick=0, channel=2, data=[86, 80]),\n",
      "   midi.NoteOffEvent(tick=256, channel=2, data=[86, 0]),\n",
      "   midi.NoteOnEvent(tick=32, channel=2, data=[85, 80]),\n",
      "   midi.NoteOffEvent(tick=192, channel=2, data=[85, 0]),\n",
      "   midi.NoteOnEvent(tick=0, channel=2, data=[88, 80]),\n",
      "   midi.NoteOffEvent(tick=192, channel=2, data=[88, 0]),\n",
      "   midi.NoteOnEvent(tick=0, channel=2, data=[85, 80]),\n",
      "   midi.NoteOffEvent(tick=192, channel=2, data=[85, 0]),\n",
      "   midi.NoteOnEvent(tick=0, channel=2, data=[81, 80]),\n",
      "   midi.NoteOffEvent(tick=192, channel=2, data=[81, 0]),\n",
      "   midi.NoteOnEvent(tick=192, channel=2, data=[78, 80]),\n",
      "   midi.NoteOffEvent(tick=96, channel=2, data=[78, 0]),\n",
      "   midi.NoteOnEvent(tick=0, channel=2, data=[76, 80]),\n",
      "   midi.NoteOffEvent(tick=96, channel=2, data=[76, 0]),\n",
      "   midi.NoteOnEvent(tick=0, channel=2, data=[74, 80]),\n",
      "   midi.NoteOffEvent(tick=96, channel=2, data=[74, 0]),\n",
      "   midi.NoteOnEvent(tick=0, channel=2, data=[73, 80]),\n",
      "   midi.NoteOffEvent(tick=96, channel=2, data=[73, 0]),\n",
      "   midi.NoteOnEvent(tick=0, channel=2, data=[71, 80]),\n",
      "   midi.NoteOffEvent(tick=96, channel=2, data=[71, 0]),\n",
      "   midi.NoteOnEvent(tick=0, channel=2, data=[69, 80]),\n",
      "   midi.NoteOffEvent(tick=96, channel=2, data=[69, 0]),\n",
      "   midi.NoteOnEvent(tick=0, channel=2, data=[71, 80]),\n",
      "   midi.NoteOffEvent(tick=192, channel=2, data=[71, 0]),\n",
      "   midi.NoteOnEvent(tick=0, channel=2, data=[83, 80]),\n",
      "   midi.NoteOffEvent(tick=96, channel=2, data=[83, 0]),\n",
      "   midi.NoteOnEvent(tick=0, channel=2, data=[81, 80]),\n",
      "   midi.NoteOffEvent(tick=96, channel=2, data=[81, 0]),\n",
      "   midi.NoteOnEvent(tick=0, channel=2, data=[83, 80]),\n",
      "   midi.NoteOffEvent(tick=96, channel=2, data=[83, 0]),\n",
      "   midi.NoteOnEvent(tick=0, channel=2, data=[81, 80]),\n",
      "   midi.NoteOffEvent(tick=96, channel=2, data=[81, 0]),\n",
      "   midi.NoteOnEvent(tick=0, channel=2, data=[80, 80]),\n",
      "   midi.NoteOffEvent(tick=96, channel=2, data=[80, 0]),\n",
      "   midi.NoteOnEvent(tick=0, channel=2, data=[78, 80]),\n",
      "   midi.NoteOffEvent(tick=96, channel=2, data=[78, 0]),\n",
      "   midi.NoteOnEvent(tick=0, channel=2, data=[76, 80]),\n",
      "   midi.NoteOffEvent(tick=96, channel=2, data=[76, 0]),\n",
      "   midi.NoteOnEvent(tick=0, channel=2, data=[78, 80]),\n",
      "   midi.NoteOffEvent(tick=96, channel=2, data=[78, 0]),\n",
      "   midi.NoteOnEvent(tick=0, channel=2, data=[76, 80]),\n",
      "   midi.NoteOffEvent(tick=96, channel=2, data=[76, 0]),\n",
      "   midi.NoteOnEvent(tick=0, channel=2, data=[74, 80]),\n",
      "   midi.NoteOffEvent(tick=96, channel=2, data=[74, 0]),\n",
      "   midi.NoteOnEvent(tick=0, channel=2, data=[73, 80]),\n",
      "   midi.NoteOffEvent(tick=96, channel=2, data=[73, 0]),\n",
      "   midi.NoteOnEvent(tick=0, channel=2, data=[71, 80]),\n",
      "   midi.NoteOffEvent(tick=96, channel=2, data=[71, 0]),\n",
      "   midi.NoteOnEvent(tick=0, channel=2, data=[69, 80]),\n",
      "   midi.NoteOffEvent(tick=96, channel=2, data=[69, 0]),\n",
      "   midi.NoteOnEvent(tick=0, channel=2, data=[68, 80]),\n",
      "   midi.NoteOffEvent(tick=96, channel=2, data=[68, 0]),\n",
      "   midi.NoteOnEvent(tick=0, channel=2, data=[69, 80]),\n",
      "   midi.NoteOffEvent(tick=192, channel=2, data=[69, 0]),\n",
      "   midi.NoteOnEvent(tick=0, channel=2, data=[81, 80]),\n",
      "   midi.NoteOffEvent(tick=96, channel=2, data=[81, 0]),\n",
      "   midi.NoteOnEvent(tick=0, channel=2, data=[80, 80]),\n",
      "   midi.NoteOffEvent(tick=96, channel=2, data=[80, 0]),\n",
      "   midi.NoteOnEvent(tick=0, channel=2, data=[81, 80]),\n",
      "   midi.NoteOffEvent(tick=96, channel=2, data=[81, 0]),\n",
      "   midi.NoteOnEvent(tick=0, channel=2, data=[80, 80]),\n",
      "   midi.NoteOffEvent(tick=96, channel=2, data=[80, 0]),\n",
      "   midi.NoteOnEvent(tick=0, channel=2, data=[78, 80]),\n",
      "   midi.NoteOffEvent(tick=96, channel=2, data=[78, 0]),\n",
      "   midi.NoteOnEvent(tick=0, channel=2, data=[76, 80]),\n",
      "   midi.NoteOffEvent(tick=96, channel=2, data=[76, 0]),\n",
      "   midi.NoteOnEvent(tick=0, channel=2, data=[74, 80]),\n",
      "   midi.NoteOffEvent(tick=96, channel=2, data=[74, 0]),\n",
      "   midi.NoteOnEvent(tick=0, channel=2, data=[73, 80]),\n",
      "   midi.NoteOffEvent(tick=96, channel=2, data=[73, 0]),\n",
      "   midi.NoteOnEvent(tick=0, channel=2, data=[74, 80]),\n",
      "   midi.NoteOffEvent(tick=96, channel=2, data=[74, 0]),\n",
      "   midi.NoteOnEvent(tick=0, channel=2, data=[76, 80]),\n",
      "   midi.NoteOffEvent(tick=96, channel=2, data=[76, 0]),\n",
      "   midi.NoteOnEvent(tick=0, channel=2, data=[74, 80]),\n",
      "   midi.NoteOffEvent(tick=96, channel=2, data=[74, 0]),\n",
      "   midi.NoteOnEvent(tick=0, channel=2, data=[73, 80]),\n",
      "   midi.NoteOffEvent(tick=96, channel=2, data=[73, 0]),\n",
      "   midi.NoteOnEvent(tick=0, channel=2, data=[71, 80]),\n",
      "   midi.NoteOffEvent(tick=96, channel=2, data=[71, 0]),\n",
      "   midi.NoteOnEvent(tick=0, channel=2, data=[69, 80]),\n",
      "   midi.NoteOffEvent(tick=96, channel=2, data=[69, 0]),\n",
      "   midi.NoteOnEvent(tick=0, channel=2, data=[76, 80]),\n",
      "   midi.NoteOffEvent(tick=960, channel=2, data=[76, 0]),\n",
      "   midi.NoteOnEvent(tick=0, channel=2, data=[74, 80]),\n",
      "   midi.NoteOffEvent(tick=96, channel=2, data=[74, 0]),\n",
      "   midi.NoteOnEvent(tick=0, channel=2, data=[73, 80]),\n",
      "   midi.NoteOffEvent(tick=96, channel=2, data=[73, 0]),\n",
      "   midi.NoteOnEvent(tick=0, channel=2, data=[74, 80]),\n",
      "   midi.NoteOffEvent(tick=96, channel=2, data=[74, 0]),\n",
      "   midi.NoteOnEvent(tick=0, channel=2, data=[73, 80]),\n",
      "   midi.NoteOffEvent(tick=96, channel=2, data=[73, 0]),\n",
      "   midi.NoteOnEvent(tick=0, channel=2, data=[71, 80]),\n",
      "   midi.NoteOffEvent(tick=96, channel=2, data=[71, 0]),\n",
      "   midi.NoteOnEvent(tick=0, channel=2, data=[73, 80]),\n",
      "   midi.NoteOffEvent(tick=96, channel=2, data=[73, 0]),\n",
      "   midi.NoteOnEvent(tick=0, channel=2, data=[69, 80]),\n",
      "   midi.NoteOffEvent(tick=192, channel=2, data=[69, 0]),\n",
      "   midi.NoteOnEvent(tick=0, channel=2, data=[71, 80]),\n",
      "   midi.NoteOffEvent(tick=96, channel=2, data=[71, 0]),\n",
      "   midi.NoteOnEvent(tick=0, channel=2, data=[73, 80]),\n",
      "   midi.NoteOffEvent(tick=96, channel=2, data=[73, 0]),\n",
      "   midi.NoteOnEvent(tick=0, channel=2, data=[74, 80]),\n",
      "   midi.NoteOffEvent(tick=96, channel=2, data=[74, 0]),\n",
      "   midi.NoteOnEvent(tick=0, channel=2, data=[76, 80]),\n",
      "   midi.NoteOffEvent(tick=96, channel=2, data=[76, 0]),\n",
      "   midi.NoteOnEvent(tick=0, channel=2, data=[78, 80]),\n",
      "   midi.NoteOffEvent(tick=96, channel=2, data=[78, 0]),\n",
      "   midi.NoteOnEvent(tick=0, channel=2, data=[80, 80]),\n",
      "   midi.NoteOffEvent(tick=96, channel=2, data=[80, 0]),\n",
      "   midi.NoteOnEvent(tick=0, channel=2, data=[81, 80]),\n",
      "   midi.NoteOffEvent(tick=96, channel=2, data=[81, 0]),\n",
      "   midi.NoteOnEvent(tick=0, channel=2, data=[83, 80]),\n",
      "   midi.NoteOffEvent(tick=96, channel=2, data=[83, 0]),\n",
      "   midi.NoteOnEvent(tick=0, channel=2, data=[85, 80]),\n",
      "   midi.NoteOffEvent(tick=96, channel=2, data=[85, 0]),\n",
      "   midi.NoteOnEvent(tick=96, channel=2, data=[85, 80]),\n",
      "   midi.NoteOffEvent(tick=96, channel=2, data=[85, 0]),\n",
      "   midi.NoteOnEvent(tick=96, channel=2, data=[85, 80]),\n",
      "   midi.NoteOffEvent(tick=96, channel=2, data=[85, 0]),\n",
      "   midi.NoteOnEvent(tick=96, channel=2, data=[85, 80]),\n",
      "   midi.NoteOffEvent(tick=480, channel=2, data=[85, 0]),\n",
      "   midi.NoteOnEvent(tick=0, channel=2, data=[83, 80]),\n",
      "   midi.NoteOffEvent(tick=96, channel=2, data=[83, 0]),\n",
      "   midi.NoteOnEvent(tick=0, channel=2, data=[81, 80]),\n",
      "   midi.NoteOffEvent(tick=96, channel=2, data=[81, 0]),\n",
      "   midi.NoteOnEvent(tick=0, channel=2, data=[80, 80]),\n",
      "   midi.NoteOffEvent(tick=96, channel=2, data=[80, 0]),\n",
      "   midi.NoteOnEvent(tick=0, channel=2, data=[78, 80]),\n",
      "   midi.NoteOffEvent(tick=192, channel=2, data=[78, 0]),\n",
      "   midi.NoteOnEvent(tick=0, channel=2, data=[80, 80]),\n",
      "   midi.NoteOffEvent(tick=192, channel=2, data=[80, 0]),\n",
      "   midi.NoteOnEvent(tick=0, channel=2, data=[73, 80]),\n",
      "   midi.NoteOffEvent(tick=192, channel=2, data=[73, 0]),\n",
      "   midi.NoteOnEvent(tick=0, channel=2, data=[71, 80]),\n",
      "   midi.NoteOffEvent(tick=192, channel=2, data=[71, 0]),\n",
      "   midi.NoteOnEvent(tick=0, channel=2, data=[69, 80]),\n",
      "   midi.NoteOffEvent(tick=192, channel=2, data=[69, 0]),\n",
      "   midi.NoteOnEvent(tick=0, channel=2, data=[68, 80]),\n",
      "   midi.NoteOffEvent(tick=96, channel=2, data=[68, 0]),\n",
      "   midi.NoteOnEvent(tick=0, channel=2, data=[69, 80]),\n",
      "   midi.NoteOffEvent(tick=96, channel=2, data=[69, 0]),\n",
      "   midi.NoteOnEvent(tick=0, channel=2, data=[66, 80]),\n",
      "   midi.NoteOffEvent(tick=192, channel=2, data=[66, 0]),\n",
      "   midi.NoteOnEvent(tick=960, channel=2, data=[85, 80]),\n",
      "   midi.NoteOffEvent(tick=96, channel=2, data=[85, 0]),\n",
      "   midi.NoteOnEvent(tick=0, channel=2, data=[86, 80]),\n",
      "   midi.NoteOffEvent(tick=96, channel=2, data=[86, 0]),\n",
      "   midi.NoteOnEvent(tick=0, channel=2, data=[88, 80]),\n",
      "   midi.NoteOffEvent(tick=96, channel=2, data=[88, 0]),\n",
      "   midi.NoteOnEvent(tick=96, channel=2, data=[88, 80]),\n",
      "   midi.NoteOffEvent(tick=96, channel=2, data=[88, 0]),\n",
      "   midi.NoteOnEvent(tick=96, channel=2, data=[78, 80]),\n",
      "   midi.NoteOffEvent(tick=384, channel=2, data=[78, 0]),\n",
      "   midi.NoteOnEvent(tick=0, channel=2, data=[79, 80]),\n",
      "   midi.NoteOffEvent(tick=192, channel=2, data=[79, 0]),\n",
      "   midi.NoteOnEvent(tick=0, channel=2, data=[78, 80]),\n",
      "   midi.NoteOffEvent(tick=192, channel=2, data=[78, 0]),\n",
      "   midi.NoteOnEvent(tick=0, channel=2, data=[76, 80]),\n",
      "   midi.NoteOffEvent(tick=192, channel=2, data=[76, 0]),\n",
      "   midi.NoteOnEvent(tick=0, channel=2, data=[74, 80]),\n",
      "   midi.NoteOffEvent(tick=192, channel=2, data=[74, 0]),\n",
      "   midi.NoteOnEvent(tick=0, channel=2, data=[73, 80]),\n",
      "   midi.NoteOffEvent(tick=96, channel=2, data=[73, 0]),\n",
      "   midi.NoteOnEvent(tick=0, channel=2, data=[74, 80]),\n",
      "   midi.NoteOffEvent(tick=96, channel=2, data=[74, 0]),\n",
      "   midi.NoteOnEvent(tick=0, channel=2, data=[71, 80]),\n",
      "   midi.NoteOffEvent(tick=384, channel=2, data=[71, 0]),\n",
      "   midi.NoteOnEvent(tick=0, channel=2, data=[79, 80]),\n",
      "   midi.NoteOffEvent(tick=96, channel=2, data=[79, 0]),\n",
      "   midi.NoteOnEvent(tick=0, channel=2, data=[81, 80]),\n",
      "   midi.NoteOffEvent(tick=96, channel=2, data=[81, 0]),\n",
      "   midi.NoteOnEvent(tick=0, channel=2, data=[83, 80]),\n",
      "   midi.NoteOffEvent(tick=96, channel=2, data=[83, 0]),\n",
      "   midi.NoteOnEvent(tick=96, channel=2, data=[83, 80]),\n",
      "   midi.NoteOffEvent(tick=96, channel=2, data=[83, 0]),\n",
      "   midi.NoteOnEvent(tick=96, channel=2, data=[83, 80]),\n",
      "   midi.NoteOffEvent(tick=96, channel=2, data=[83, 0]),\n",
      "   midi.NoteOnEvent(tick=96, channel=2, data=[73, 80]),\n",
      "   midi.NoteOffEvent(tick=384, channel=2, data=[73, 0]),\n",
      "   midi.NoteOnEvent(tick=384, channel=2, data=[78, 80]),\n",
      "   midi.NoteOffEvent(tick=96, channel=2, data=[78, 0]),\n",
      "   midi.NoteOnEvent(tick=0, channel=2, data=[79, 80]),\n",
      "   midi.NoteOffEvent(tick=96, channel=2, data=[79, 0]),\n",
      "   midi.NoteOnEvent(tick=0, channel=2, data=[81, 80]),\n",
      "   midi.NoteOffEvent(tick=96, channel=2, data=[81, 0]),\n",
      "   midi.NoteOnEvent(tick=96, channel=2, data=[81, 80]),\n",
      "   midi.NoteOffEvent(tick=96, channel=2, data=[81, 0]),\n",
      "   midi.NoteOnEvent(tick=96, channel=2, data=[81, 80]),\n",
      "   midi.NoteOffEvent(tick=96, channel=2, data=[81, 0]),\n",
      "   midi.NoteOnEvent(tick=96, channel=2, data=[71, 80]),\n",
      "   midi.NoteOffEvent(tick=384, channel=2, data=[71, 0]),\n",
      "   midi.NoteOnEvent(tick=384, channel=2, data=[70, 80]),\n",
      "   midi.NoteOffEvent(tick=96, channel=2, data=[70, 0]),\n",
      "   midi.NoteOnEvent(tick=0, channel=2, data=[71, 80]),\n",
      "   midi.NoteOffEvent(tick=96, channel=2, data=[71, 0]),\n",
      "   midi.NoteOnEvent(tick=0, channel=2, data=[73, 80]),\n",
      "   midi.NoteOffEvent(tick=256, channel=2, data=[73, 0]),\n",
      "   midi.NoteOnEvent(tick=32, channel=2, data=[74, 80]),\n",
      "   midi.NoteOffEvent(tick=96, channel=2, data=[74, 0]),\n",
      "   midi.NoteOnEvent(tick=0, channel=2, data=[76, 80]),\n",
      "   midi.NoteOffEvent(tick=288, channel=2, data=[76, 0]),\n",
      "   midi.NoteOnEvent(tick=0, channel=2, data=[79, 80]),\n",
      "   midi.NoteOffEvent(tick=96, channel=2, data=[79, 0]),\n",
      "   midi.NoteOnEvent(tick=0, channel=2, data=[78, 80]),\n",
      "   midi.NoteOffEvent(tick=96, channel=2, data=[78, 0]),\n",
      "   midi.NoteOnEvent(tick=0, channel=2, data=[76, 80]),\n",
      "   midi.NoteOffEvent(tick=96, channel=2, data=[76, 0]),\n",
      "   midi.NoteOnEvent(tick=0, channel=2, data=[78, 80]),\n",
      "   midi.NoteOffEvent(tick=96, channel=2, data=[78, 0]),\n",
      "   midi.NoteOnEvent(tick=0, channel=2, data=[76, 80]),\n",
      "   midi.NoteOffEvent(tick=96, channel=2, data=[76, 0]),\n",
      "   midi.NoteOnEvent(tick=0, channel=2, data=[74, 80]),\n",
      "   midi.NoteOffEvent(tick=96, channel=2, data=[74, 0]),\n",
      "   midi.NoteOnEvent(tick=0, channel=2, data=[73, 80]),\n",
      "   midi.NoteOffEvent(tick=96, channel=2, data=[73, 0]),\n",
      "   midi.NoteOnEvent(tick=0, channel=2, data=[76, 80]),\n",
      "   midi.NoteOffEvent(tick=96, channel=2, data=[76, 0]),\n",
      "   midi.NoteOnEvent(tick=0, channel=2, data=[74, 80]),\n",
      "   midi.NoteOffEvent(tick=96, channel=2, data=[74, 0]),\n",
      "   midi.NoteOnEvent(tick=0, channel=2, data=[73, 80]),\n",
      "   midi.NoteOffEvent(tick=96, channel=2, data=[73, 0]),\n",
      "   midi.NoteOnEvent(tick=0, channel=2, data=[71, 80]),\n",
      "   midi.NoteOffEvent(tick=96, channel=2, data=[71, 0]),\n",
      "   midi.NoteOnEvent(tick=0, channel=2, data=[73, 80]),\n",
      "   midi.NoteOffEvent(tick=192, channel=2, data=[73, 0]),\n",
      "   midi.NoteOnEvent(tick=0, channel=2, data=[70, 80]),\n",
      "   midi.NoteOffEvent(tick=192, channel=2, data=[70, 0]),\n",
      "   midi.NoteOnEvent(tick=0, channel=2, data=[71, 80]),\n",
      "   midi.NoteOffEvent(tick=192, channel=2, data=[71, 0]),\n",
      "   midi.NoteOnEvent(tick=0, channel=2, data=[78, 80]),\n",
      "   midi.NoteOffEvent(tick=256, channel=2, data=[78, 0]),\n",
      "   midi.NoteOnEvent(tick=32, channel=2, data=[80, 80]),\n",
      "   midi.NoteOffEvent(tick=96, channel=2, data=[80, 0]),\n",
      "   midi.NoteOnEvent(tick=0, channel=2, data=[82, 80]),\n",
      "   midi.NoteOffEvent(tick=96, channel=2, data=[82, 0]),\n",
      "   midi.NoteOnEvent(tick=0, channel=2, data=[83, 80]),\n",
      "   midi.NoteOffEvent(tick=96, channel=2, data=[83, 0]),\n",
      "   midi.NoteOnEvent(tick=0, channel=2, data=[85, 80]),\n",
      "   midi.NoteOffEvent(tick=192, channel=2, data=[85, 0]),\n",
      "   midi.NoteOnEvent(tick=0, channel=2, data=[82, 80]),\n",
      "   midi.NoteOffEvent(tick=192, channel=2, data=[82, 0]),\n",
      "   midi.NoteOnEvent(tick=0, channel=2, data=[78, 80]),\n",
      "   midi.NoteOffEvent(tick=192, channel=2, data=[78, 0]),\n",
      "   midi.NoteOnEvent(tick=0, channel=2, data=[73, 80]),\n",
      "   midi.NoteOffEvent(tick=192, channel=2, data=[73, 0]),\n",
      "   midi.NoteOnEvent(tick=192, channel=2, data=[79, 80]),\n",
      "   midi.NoteOffEvent(tick=96, channel=2, data=[79, 0]),\n",
      "   midi.NoteOnEvent(tick=0, channel=2, data=[78, 80]),\n",
      "   midi.NoteOffEvent(tick=96, channel=2, data=[78, 0]),\n",
      "   midi.NoteOnEvent(tick=0, channel=2, data=[76, 80]),\n",
      "   midi.NoteOffEvent(tick=96, channel=2, data=[76, 0]),\n",
      "   midi.NoteOnEvent(tick=0, channel=2, data=[74, 80]),\n",
      "   midi.NoteOffEvent(tick=96, channel=2, data=[74, 0]),\n",
      "   midi.NoteOnEvent(tick=0, channel=2, data=[73, 80]),\n",
      "   midi.NoteOffEvent(tick=96, channel=2, data=[73, 0]),\n",
      "   midi.NoteOnEvent(tick=0, channel=2, data=[71, 80]),\n",
      "   midi.NoteOffEvent(tick=96, channel=2, data=[71, 0]),\n",
      "   midi.NoteOnEvent(tick=0, channel=2, data=[70, 80]),\n",
      "   midi.NoteOffEvent(tick=192, channel=2, data=[70, 0]),\n",
      "   midi.NoteOnEvent(tick=0, channel=2, data=[78, 80]),\n",
      "   midi.NoteOffEvent(tick=256, channel=2, data=[78, 0]),\n",
      "   midi.NoteOnEvent(tick=32, channel=2, data=[76, 80]),\n",
      "   midi.NoteOffEvent(tick=96, channel=2, data=[76, 0]),\n",
      "   midi.NoteOnEvent(tick=0, channel=2, data=[74, 80]),\n",
      "   midi.NoteOffEvent(tick=96, channel=2, data=[74, 0]),\n",
      "   midi.NoteOnEvent(tick=0, channel=2, data=[73, 80]),\n",
      "   midi.NoteOffEvent(tick=96, channel=2, data=[73, 0]),\n",
      "   midi.NoteOnEvent(tick=768, channel=2, data=[75, 80]),\n",
      "   midi.NoteOffEvent(tick=96, channel=2, data=[75, 0]),\n",
      "   midi.NoteOnEvent(tick=0, channel=2, data=[76, 80]),\n",
      "   midi.NoteOffEvent(tick=96, channel=2, data=[76, 0]),\n",
      "   midi.NoteOnEvent(tick=0, channel=2, data=[78, 80]),\n",
      "   midi.NoteOffEvent(tick=96, channel=2, data=[78, 0]),\n",
      "   midi.NoteOnEvent(tick=96, channel=2, data=[78, 80]),\n",
      "   midi.NoteOffEvent(tick=96, channel=2, data=[78, 0]),\n",
      "   midi.NoteOnEvent(tick=96, channel=2, data=[78, 80]),\n",
      "   midi.NoteOffEvent(tick=96, channel=2, data=[78, 0]),\n",
      "   midi.NoteOnEvent(tick=96, channel=2, data=[78, 80]),\n",
      "   midi.NoteOffEvent(tick=864, channel=2, data=[78, 0]),\n",
      "   midi.NoteOnEvent(tick=0, channel=2, data=[84, 80]),\n",
      "   midi.NoteOffEvent(tick=96, channel=2, data=[84, 0]),\n",
      "   midi.NoteOnEvent(tick=0, channel=2, data=[83, 80]),\n",
      "   midi.NoteOffEvent(tick=96, channel=2, data=[83, 0]),\n",
      "   midi.NoteOnEvent(tick=0, channel=2, data=[81, 80]),\n",
      "   midi.NoteOffEvent(tick=96, channel=2, data=[81, 0]),\n",
      "   midi.NoteOnEvent(tick=0, channel=2, data=[83, 80]),\n",
      "   midi.NoteOffEvent(tick=96, channel=2, data=[83, 0]),\n",
      "   midi.NoteOnEvent(tick=0, channel=2, data=[81, 80]),\n",
      "   midi.NoteOffEvent(tick=96, channel=2, data=[81, 0]),\n",
      "   midi.NoteOnEvent(tick=0, channel=2, data=[79, 80]),\n",
      "   midi.NoteOffEvent(tick=96, channel=2, data=[79, 0]),\n",
      "   midi.NoteOnEvent(tick=0, channel=2, data=[78, 80]),\n",
      "   midi.NoteOffEvent(tick=96, channel=2, data=[78, 0]),\n",
      "   midi.NoteOnEvent(tick=0, channel=2, data=[79, 80]),\n",
      "   midi.NoteOffEvent(tick=96, channel=2, data=[79, 0]),\n",
      "   midi.NoteOnEvent(tick=0, channel=2, data=[81, 80]),\n",
      "   midi.NoteOffEvent(tick=96, channel=2, data=[81, 0]),\n",
      "   midi.NoteOnEvent(tick=0, channel=2, data=[79, 80]),\n",
      "   midi.NoteOffEvent(tick=96, channel=2, data=[79, 0]),\n",
      "   midi.NoteOnEvent(tick=0, channel=2, data=[78, 80]),\n",
      "   midi.NoteOffEvent(tick=96, channel=2, data=[78, 0]),\n",
      "   midi.NoteOnEvent(tick=0, channel=2, data=[76, 80]),\n",
      "   midi.NoteOffEvent(tick=96, channel=2, data=[76, 0]),\n",
      "   midi.NoteOnEvent(tick=0, channel=2, data=[78, 80]),\n",
      "   midi.NoteOffEvent(tick=96, channel=2, data=[78, 0]),\n",
      "   midi.NoteOnEvent(tick=0, channel=2, data=[79, 80]),\n",
      "   midi.NoteOffEvent(tick=96, channel=2, data=[79, 0]),\n",
      "   midi.NoteOnEvent(tick=0, channel=2, data=[81, 80]),\n",
      "   midi.NoteOffEvent(tick=96, channel=2, data=[81, 0]),\n",
      "   midi.NoteOnEvent(tick=0, channel=2, data=[83, 80]),\n",
      "   midi.NoteOffEvent(tick=768, channel=2, data=[83, 0]),\n",
      "   midi.NoteOnEvent(tick=2304, channel=2, data=[83, 80]),\n",
      "   midi.NoteOffEvent(tick=192, channel=2, data=[83, 0]),\n",
      "   midi.NoteOnEvent(tick=0, channel=2, data=[78, 80]),\n",
      "   midi.NoteOffEvent(tick=384, channel=2, data=[78, 0]),\n",
      "   midi.NoteOnEvent(tick=0, channel=2, data=[79, 80]),\n",
      "   midi.NoteOffEvent(tick=192, channel=2, data=[79, 0]),\n",
      "   midi.NoteOnEvent(tick=0, channel=2, data=[78, 80]),\n",
      "   midi.NoteOffEvent(tick=96, channel=2, data=[78, 0]),\n",
      "   midi.NoteOnEvent(tick=0, channel=2, data=[83, 80]),\n",
      "   midi.NoteOffEvent(tick=96, channel=2, data=[83, 0]),\n",
      "   midi.NoteOnEvent(tick=0, channel=2, data=[81, 80]),\n",
      "   midi.NoteOffEvent(tick=96, channel=2, data=[81, 0]),\n",
      "   midi.NoteOnEvent(tick=0, channel=2, data=[79, 80]),\n",
      "   midi.NoteOffEvent(tick=96, channel=2, data=[79, 0]),\n",
      "   midi.NoteOnEvent(tick=0, channel=2, data=[78, 80]),\n",
      "   midi.NoteOffEvent(tick=192, channel=2, data=[78, 0]),\n",
      "   midi.NoteOnEvent(tick=0, channel=2, data=[76, 80]),\n",
      "   midi.NoteOffEvent(tick=192, channel=2, data=[76, 0]),\n",
      "   midi.NoteOnEvent(tick=0, channel=2, data=[74, 80]),\n",
      "   midi.NoteOffEvent(tick=384, channel=2, data=[74, 0]),\n",
      "   midi.NoteOnEvent(tick=0, channel=2, data=[73, 80]),\n",
      "   midi.NoteOffEvent(tick=384, channel=2, data=[73, 0]),\n",
      "   midi.NoteOnEvent(tick=0, channel=2, data=[71, 80]),\n",
      "   midi.NoteOffEvent(tick=480, channel=2, data=[71, 0]),\n",
      "   midi.NoteOnEvent(tick=0, channel=2, data=[70, 80]),\n",
      "   midi.NoteOffEvent(tick=96, channel=2, data=[70, 0]),\n",
      "   midi.NoteOnEvent(tick=0, channel=2, data=[71, 80]),\n",
      "   midi.NoteOffEvent(tick=96, channel=2, data=[71, 0]),\n",
      "   midi.NoteOnEvent(tick=0, channel=2, data=[73, 80]),\n",
      "   midi.NoteOffEvent(tick=96, channel=2, data=[73, 0]),\n",
      "   midi.NoteOnEvent(tick=0, channel=2, data=[74, 80]),\n",
      "   midi.NoteOffEvent(tick=96, channel=2, data=[74, 0]),\n",
      "   midi.NoteOnEvent(tick=0, channel=2, data=[76, 80]),\n",
      "   midi.NoteOffEvent(tick=96, channel=2, data=[76, 0]),\n",
      "   midi.NoteOnEvent(tick=0, channel=2, data=[78, 80]),\n",
      "   midi.NoteOffEvent(tick=96, channel=2, data=[78, 0]),\n",
      "   midi.NoteOnEvent(tick=96, channel=2, data=[78, 80]),\n",
      "   midi.NoteOffEvent(tick=96, channel=2, data=[78, 0]),\n",
      "   midi.NoteOnEvent(tick=96, channel=2, data=[79, 80]),\n",
      "   midi.NoteOffEvent(tick=96, channel=2, data=[79, 0]),\n",
      "   midi.NoteOnEvent(tick=96, channel=2, data=[81, 80]),\n",
      "   midi.NoteOffEvent(tick=480, channel=2, data=[81, 0]),\n",
      "   midi.NoteOnEvent(tick=0, channel=2, data=[84, 80]),\n",
      "   midi.NoteOffEvent(tick=96, channel=2, data=[84, 0]),\n",
      "   midi.NoteOnEvent(tick=0, channel=2, data=[83, 80]),\n",
      "   midi.NoteOffEvent(tick=96, channel=2, data=[83, 0]),\n",
      "   midi.NoteOnEvent(tick=0, channel=2, data=[81, 80]),\n",
      "   midi.NoteOffEvent(tick=96, channel=2, data=[81, 0]),\n",
      "   midi.NoteOnEvent(tick=0, channel=2, data=[79, 80]),\n",
      "   midi.NoteOffEvent(tick=192, channel=2, data=[79, 0]),\n",
      "   midi.NoteOnEvent(tick=0, channel=2, data=[81, 80]),\n",
      "   midi.NoteOffEvent(tick=192, channel=2, data=[81, 0]),\n",
      "   midi.NoteOnEvent(tick=0, channel=2, data=[74, 80]),\n",
      "   midi.NoteOffEvent(tick=192, channel=2, data=[74, 0]),\n",
      "   midi.NoteOnEvent(tick=0, channel=2, data=[72, 80]),\n",
      "   midi.NoteOffEvent(tick=192, channel=2, data=[72, 0]),\n",
      "   midi.NoteOnEvent(tick=0, channel=2, data=[71, 80]),\n",
      "   midi.NoteOffEvent(tick=192, channel=2, data=[71, 0]),\n",
      "   midi.NoteOnEvent(tick=0, channel=2, data=[69, 80]),\n",
      "   midi.NoteOffEvent(tick=96, channel=2, data=[69, 0]),\n",
      "   midi.NoteOnEvent(tick=0, channel=2, data=[71, 80]),\n",
      "   midi.NoteOffEvent(tick=96, channel=2, data=[71, 0]),\n",
      "   midi.NoteOnEvent(tick=0, channel=2, data=[67, 80]),\n",
      "   midi.NoteOffEvent(tick=192, channel=2, data=[67, 0]),\n",
      "   midi.NoteOnEvent(tick=960, channel=2, data=[78, 80]),\n",
      "   midi.NoteOffEvent(tick=96, channel=2, data=[78, 0]),\n",
      "   midi.NoteOnEvent(tick=0, channel=2, data=[79, 80]),\n",
      "   midi.NoteOffEvent(tick=96, channel=2, data=[79, 0]),\n",
      "   midi.NoteOnEvent(tick=0, channel=2, data=[81, 80]),\n",
      "   midi.NoteOffEvent(tick=96, channel=2, data=[81, 0]),\n",
      "   midi.NoteOnEvent(tick=96, channel=2, data=[81, 80]),\n",
      "   midi.NoteOffEvent(tick=96, channel=2, data=[81, 0]),\n",
      "   midi.NoteOnEvent(tick=96, channel=2, data=[71, 80]),\n",
      "   midi.NoteOffEvent(tick=384, channel=2, data=[71, 0]),\n",
      "   midi.NoteOnEvent(tick=0, channel=2, data=[76, 80]),\n",
      "   midi.NoteOffEvent(tick=384, channel=2, data=[76, 0]),\n",
      "   midi.NoteOnEvent(tick=0, channel=2, data=[75, 80]),\n",
      "   midi.NoteOffEvent(tick=192, channel=2, data=[75, 0]),\n",
      "   midi.NoteOnEvent(tick=0, channel=2, data=[76, 80]),\n",
      "   midi.NoteOffEvent(tick=192, channel=2, data=[76, 0]),\n",
      "   midi.NoteOnEvent(tick=0, channel=2, data=[71, 80]),\n",
      "   midi.NoteOffEvent(tick=192, channel=2, data=[71, 0]),\n",
      "   midi.NoteOnEvent(tick=0, channel=2, data=[76, 80]),\n",
      "   midi.NoteOffEvent(tick=192, channel=2, data=[76, 0]),\n",
      "   midi.NoteOnEvent(tick=0, channel=2, data=[74, 80]),\n",
      "   midi.NoteOffEvent(tick=192, channel=2, data=[74, 0]),\n",
      "   midi.NoteOnEvent(tick=192, channel=2, data=[76, 80]),\n",
      "   midi.NoteOffEvent(tick=192, channel=2, data=[76, 0]),\n",
      "   midi.NoteOnEvent(tick=0, channel=2, data=[81, 80]),\n",
      "   midi.NoteOffEvent(tick=192, channel=2, data=[81, 0]),\n",
      "   midi.NoteOnEvent(tick=0, channel=2, data=[79, 80]),\n",
      "   midi.NoteOffEvent(tick=192, channel=2, data=[79, 0]),\n",
      "   midi.NoteOnEvent(tick=192, channel=2, data=[81, 80]),\n",
      "   midi.NoteOffEvent(tick=192, channel=2, data=[81, 0]),\n",
      "   midi.NoteOnEvent(tick=0, channel=2, data=[86, 80]),\n",
      "   midi.NoteOffEvent(tick=192, channel=2, data=[86, 0]),\n",
      "   midi.NoteOnEvent(tick=0, channel=2, data=[85, 80]),\n",
      "   midi.NoteOffEvent(tick=192, channel=2, data=[85, 0]),\n",
      "   midi.NoteOnEvent(tick=192, channel=2, data=[83, 80]),\n",
      "   midi.NoteOffEvent(tick=192, channel=2, data=[83, 0]),\n",
      "   midi.NoteOnEvent(tick=0, channel=2, data=[80, 80]),\n",
      "   midi.NoteOffEvent(tick=192, channel=2, data=[80, 0]),\n",
      "   midi.NoteOnEvent(tick=0, channel=2, data=[81, 80]),\n",
      "   midi.NoteOffEvent(tick=192, channel=2, data=[81, 0]),\n",
      "   midi.NoteOnEvent(tick=192, channel=2, data=[80, 80]),\n",
      "   midi.NoteOffEvent(tick=192, channel=2, data=[80, 0]),\n",
      "   midi.NoteOnEvent(tick=0, channel=2, data=[73, 80]),\n",
      "   midi.NoteOffEvent(tick=192, channel=2, data=[73, 0]),\n",
      "   midi.NoteOnEvent(tick=0, channel=2, data=[77, 80]),\n",
      "   midi.NoteOffEvent(tick=192, channel=2, data=[77, 0]),\n",
      "   midi.NoteOnEvent(tick=0, channel=2, data=[78, 80]),\n",
      "   midi.NoteOffEvent(tick=960, channel=2, data=[78, 0]),\n",
      "   midi.NoteOnEvent(tick=0, channel=2, data=[78, 80]),\n",
      "   midi.NoteOffEvent(tick=192, channel=2, data=[78, 0]),\n",
      "   midi.NoteOnEvent(tick=0, channel=2, data=[83, 80]),\n",
      "   midi.NoteOffEvent(tick=192, channel=2, data=[83, 0]),\n",
      "   midi.NoteOnEvent(tick=0, channel=2, data=[81, 80]),\n",
      "   midi.NoteOffEvent(tick=192, channel=2, data=[81, 0]),\n",
      "   midi.NoteOnEvent(tick=0, channel=2, data=[80, 80]),\n",
      "   midi.NoteOffEvent(tick=192, channel=2, data=[80, 0]),\n",
      "   midi.NoteOnEvent(tick=0, channel=2, data=[68, 80]),\n",
      "   midi.NoteOffEvent(tick=192, channel=2, data=[68, 0]),\n",
      "   midi.NoteOnEvent(tick=0, channel=2, data=[73, 80]),\n",
      "   midi.NoteOffEvent(tick=192, channel=2, data=[73, 0]),\n",
      "   midi.NoteOnEvent(tick=0, channel=2, data=[71, 80]),\n",
      "   midi.NoteOffEvent(tick=192, channel=2, data=[71, 0]),\n",
      "   midi.NoteOnEvent(tick=0, channel=2, data=[69, 80]),\n",
      "   midi.NoteOffEvent(tick=384, channel=2, data=[69, 0]),\n",
      "   midi.NoteOnEvent(tick=0, channel=2, data=[68, 80]),\n",
      "   midi.NoteOffEvent(tick=384, channel=2, data=[68, 0]),\n",
      "   midi.NoteOnEvent(tick=0, channel=2, data=[66, 80]),\n",
      "   midi.NoteOffEvent(tick=384, channel=2, data=[66, 0]),\n",
      "   midi.NoteOnEvent(tick=1728, channel=2, data=[69, 80]),\n",
      "   midi.NoteOffEvent(tick=192, channel=2, data=[69, 0]),\n",
      "   midi.NoteOnEvent(tick=0, channel=2, data=[74, 80]),\n",
      "   midi.NoteOffEvent(tick=48, channel=2, data=[74, 0]),\n",
      "   midi.NoteOnEvent(tick=0, channel=2, data=[76, 80]),\n",
      "   midi.NoteOffEvent(tick=48, channel=2, data=[76, 0]),\n",
      "   midi.NoteOnEvent(tick=0, channel=2, data=[78, 80]),\n",
      "   midi.NoteOffEvent(tick=256, channel=2, data=[78, 0]),\n",
      "   midi.NoteOnEvent(tick=32, channel=2, data=[76, 80]),\n",
      "   midi.NoteOffEvent(tick=48, channel=2, data=[76, 0]),\n",
      "   midi.NoteOnEvent(tick=0, channel=2, data=[78, 80]),\n",
      "   midi.NoteOffEvent(tick=48, channel=2, data=[78, 0]),\n",
      "   midi.NoteOnEvent(tick=0, channel=2, data=[79, 80]),\n",
      "   midi.NoteOffEvent(tick=256, channel=2, data=[79, 0]),\n",
      "   midi.NoteOnEvent(tick=32, channel=2, data=[78, 80]),\n",
      "   midi.NoteOffEvent(tick=192, channel=2, data=[78, 0]),\n",
      "   midi.NoteOnEvent(tick=0, channel=2, data=[81, 80]),\n",
      "   midi.NoteOffEvent(tick=192, channel=2, data=[81, 0]),\n",
      "   midi.NoteOnEvent(tick=0, channel=2, data=[78, 80]),\n",
      "   midi.NoteOffEvent(tick=192, channel=2, data=[78, 0]),\n",
      "   midi.NoteOnEvent(tick=0, channel=2, data=[74, 80]),\n",
      "   midi.NoteOffEvent(tick=192, channel=2, data=[74, 0]),\n",
      "   midi.NoteOnEvent(tick=768, channel=2, data=[78, 80]),\n",
      "   midi.NoteOffEvent(tick=96, channel=2, data=[78, 0]),\n",
      "   midi.NoteOnEvent(tick=0, channel=2, data=[79, 80]),\n",
      "   midi.NoteOffEvent(tick=96, channel=2, data=[79, 0]),\n",
      "   midi.NoteOnEvent(tick=0, channel=2, data=[81, 80]),\n",
      "   midi.NoteOffEvent(tick=96, channel=2, data=[81, 0]),\n",
      "   midi.NoteOnEvent(tick=96, channel=2, data=[81, 80]),\n",
      "   midi.NoteOffEvent(tick=96, channel=2, data=[81, 0]),\n",
      "   midi.NoteOnEvent(tick=96, channel=2, data=[81, 80]),\n",
      "   midi.NoteOffEvent(tick=96, channel=2, data=[81, 0]),\n",
      "   midi.NoteOnEvent(tick=96, channel=2, data=[81, 80]),\n",
      "   midi.NoteOffEvent(tick=192, channel=2, data=[81, 0]),\n",
      "   midi.NoteOnEvent(tick=1344, channel=2, data=[76, 80]),\n",
      "   midi.NoteOffEvent(tick=864, channel=2, data=[76, 0]),\n",
      "   midi.NoteOnEvent(tick=0, channel=2, data=[78, 80]),\n",
      "   midi.NoteOffEvent(tick=96, channel=2, data=[78, 0]),\n",
      "   midi.NoteOnEvent(tick=0, channel=2, data=[76, 80]),\n",
      "   midi.NoteOffEvent(tick=96, channel=2, data=[76, 0]),\n",
      "   midi.NoteOnEvent(tick=0, channel=2, data=[74, 80]),\n",
      "   midi.NoteOffEvent(tick=96, channel=2, data=[74, 0]),\n",
      "   midi.NoteOnEvent(tick=0, channel=2, data=[73, 80]),\n",
      "   midi.NoteOffEvent(tick=96, channel=2, data=[73, 0]),\n",
      "   midi.NoteOnEvent(tick=0, channel=2, data=[71, 80]),\n",
      "   midi.NoteOffEvent(tick=96, channel=2, data=[71, 0]),\n",
      "   midi.NoteOnEvent(tick=0, channel=2, data=[73, 80]),\n",
      "   midi.NoteOffEvent(tick=96, channel=2, data=[73, 0]),\n",
      "   midi.NoteOnEvent(tick=0, channel=2, data=[69, 80]),\n",
      "   midi.NoteOffEvent(tick=96, channel=2, data=[69, 0]),\n",
      "   midi.NoteOnEvent(tick=0, channel=2, data=[74, 80]),\n",
      "   midi.NoteOffEvent(tick=48, channel=2, data=[74, 0]),\n",
      "   midi.NoteOnEvent(tick=0, channel=2, data=[76, 80]),\n",
      "   midi.NoteOffEvent(tick=48, channel=2, data=[76, 0]),\n",
      "   midi.NoteOnEvent(tick=0, channel=2, data=[78, 80]),\n",
      "   midi.NoteOffEvent(tick=256, channel=2, data=[78, 0]),\n",
      "   midi.NoteOnEvent(tick=32, channel=2, data=[76, 80]),\n",
      "   midi.NoteOffEvent(tick=48, channel=2, data=[76, 0]),\n",
      "   midi.NoteOnEvent(tick=0, channel=2, data=[78, 80]),\n",
      "   midi.NoteOffEvent(tick=48, channel=2, data=[78, 0]),\n",
      "   midi.NoteOnEvent(tick=0, channel=2, data=[79, 80]),\n",
      "   midi.NoteOffEvent(tick=256, channel=2, data=[79, 0]),\n",
      "   midi.NoteOnEvent(tick=32, channel=2, data=[78, 80]),\n",
      "   midi.NoteOffEvent(tick=192, channel=2, data=[78, 0]),\n",
      "   midi.NoteOnEvent(tick=0, channel=2, data=[76, 80]),\n",
      "   midi.NoteOffEvent(tick=192, channel=2, data=[76, 0]),\n",
      "   midi.NoteOnEvent(tick=0, channel=2, data=[74, 80]),\n",
      "   midi.NoteOffEvent(tick=384, channel=2, data=[74, 0]),\n",
      "   midi.NoteOnEvent(tick=1344, channel=2, data=[69, 80]),\n",
      "   midi.NoteOffEvent(tick=192, channel=2, data=[69, 0]),\n",
      "   midi.NoteOnEvent(tick=0, channel=2, data=[74, 80]),\n",
      "   midi.NoteOffEvent(tick=48, channel=2, data=[74, 0]),\n",
      "   midi.NoteOnEvent(tick=0, channel=2, data=[76, 80]),\n",
      "   midi.NoteOffEvent(tick=48, channel=2, data=[76, 0]),\n",
      "   midi.NoteOnEvent(tick=0, channel=2, data=[78, 80]),\n",
      "   midi.NoteOffEvent(tick=256, channel=2, data=[78, 0]),\n",
      "   midi.NoteOnEvent(tick=32, channel=2, data=[76, 80]),\n",
      "   midi.NoteOffEvent(tick=48, channel=2, data=[76, 0]),\n",
      "   midi.NoteOnEvent(tick=0, channel=2, data=[78, 80]),\n",
      "   midi.NoteOffEvent(tick=48, channel=2, data=[78, 0]),\n",
      "   midi.NoteOnEvent(tick=0, channel=2, data=[79, 80]),\n",
      "   midi.NoteOffEvent(tick=256, channel=2, data=[79, 0]),\n",
      "   midi.NoteOnEvent(tick=32, channel=2, data=[78, 80]),\n",
      "   midi.NoteOffEvent(tick=192, channel=2, data=[78, 0]),\n",
      "   midi.NoteOnEvent(tick=0, channel=2, data=[81, 80]),\n",
      "   midi.NoteOffEvent(tick=192, channel=2, data=[81, 0]),\n",
      "   midi.NoteOnEvent(tick=0, channel=2, data=[78, 80]),\n",
      "   midi.NoteOffEvent(tick=192, channel=2, data=[78, 0]),\n",
      "   midi.NoteOnEvent(tick=0, channel=2, data=[74, 80]),\n",
      "   midi.NoteOffEvent(tick=192, channel=2, data=[74, 0]),\n",
      "   midi.NoteOnEvent(tick=0, channel=2, data=[78, 80]),\n",
      "   midi.NoteOffEvent(tick=96, channel=2, data=[78, 0]),\n",
      "   midi.NoteOnEvent(tick=0, channel=2, data=[79, 80]),\n",
      "   midi.NoteOffEvent(tick=96, channel=2, data=[79, 0]),\n",
      "   midi.NoteOnEvent(tick=0, channel=2, data=[81, 80]),\n",
      "   midi.NoteOffEvent(tick=96, channel=2, data=[81, 0]),\n",
      "   midi.NoteOnEvent(tick=96, channel=2, data=[81, 80]),\n",
      "   midi.NoteOffEvent(tick=96, channel=2, data=[81, 0]),\n",
      "   midi.NoteOnEvent(tick=96, channel=2, data=[81, 80]),\n",
      "   midi.NoteOffEvent(tick=96, channel=2, data=[81, 0]),\n",
      "   midi.NoteOnEvent(tick=96, channel=2, data=[81, 80]),\n",
      "   midi.NoteOffEvent(tick=192, channel=2, data=[81, 0]),\n",
      "   midi.NoteOnEvent(tick=0, channel=2, data=[86, 80]),\n",
      "   midi.NoteOffEvent(tick=96, channel=2, data=[86, 0]),\n",
      "   midi.NoteOnEvent(tick=0, channel=2, data=[85, 80]),\n",
      "   midi.NoteOffEvent(tick=96, channel=2, data=[85, 0]),\n",
      "   midi.NoteOnEvent(tick=0, channel=2, data=[86, 80]),\n",
      "   midi.NoteOffEvent(tick=96, channel=2, data=[86, 0]),\n",
      "   midi.NoteOnEvent(tick=0, channel=2, data=[85, 80]),\n",
      "   midi.NoteOffEvent(tick=96, channel=2, data=[85, 0]),\n",
      "   midi.NoteOnEvent(tick=0, channel=2, data=[83, 80]),\n",
      "   midi.NoteOffEvent(tick=96, channel=2, data=[83, 0]),\n",
      "   midi.NoteOnEvent(tick=0, channel=2, data=[81, 80]),\n",
      "   midi.NoteOffEvent(tick=96, channel=2, data=[81, 0]),\n",
      "   midi.NoteOnEvent(tick=0, channel=2, data=[79, 80]),\n",
      "   midi.NoteOffEvent(tick=96, channel=2, data=[79, 0]),\n",
      "   midi.NoteOnEvent(tick=0, channel=2, data=[81, 80]),\n",
      "   midi.NoteOffEvent(tick=96, channel=2, data=[81, 0]),\n",
      "   midi.NoteOnEvent(tick=0, channel=2, data=[83, 80]),\n",
      "   midi.NoteOffEvent(tick=96, channel=2, data=[83, 0]),\n",
      "   midi.NoteOnEvent(tick=96, channel=2, data=[83, 80]),\n",
      "   midi.NoteOffEvent(tick=96, channel=2, data=[83, 0]),\n",
      "   midi.NoteOnEvent(tick=96, channel=2, data=[83, 80]),\n",
      "   midi.NoteOffEvent(tick=96, channel=2, data=[83, 0]),\n",
      "   midi.NoteOnEvent(tick=96, channel=2, data=[83, 80]),\n",
      "   midi.NoteOffEvent(tick=192, channel=2, data=[83, 0]),\n",
      "   midi.NoteOnEvent(tick=0, channel=2, data=[81, 80]),\n",
      "   midi.NoteOffEvent(tick=96, channel=2, data=[81, 0]),\n",
      "   midi.NoteOnEvent(tick=0, channel=2, data=[79, 80]),\n",
      "   midi.NoteOffEvent(tick=96, channel=2, data=[79, 0]),\n",
      "   midi.NoteOnEvent(tick=0, channel=2, data=[81, 80]),\n",
      "   midi.NoteOffEvent(tick=96, channel=2, data=[81, 0]),\n",
      "   midi.NoteOnEvent(tick=0, channel=2, data=[79, 80]),\n",
      "   midi.NoteOffEvent(tick=96, channel=2, data=[79, 0]),\n",
      "   midi.NoteOnEvent(tick=0, channel=2, data=[78, 80]),\n",
      "   midi.NoteOffEvent(tick=96, channel=2, data=[78, 0]),\n",
      "   midi.NoteOnEvent(tick=0, channel=2, data=[76, 80]),\n",
      "   midi.NoteOffEvent(tick=96, channel=2, data=[76, 0]),\n",
      "   midi.NoteOnEvent(tick=0, channel=2, data=[78, 80]),\n",
      "   midi.NoteOffEvent(tick=96, channel=2, data=[78, 0]),\n",
      "   midi.NoteOnEvent(tick=0, channel=2, data=[79, 80]),\n",
      "   midi.NoteOffEvent(tick=96, channel=2, data=[79, 0]),\n",
      "   midi.NoteOnEvent(tick=0, channel=2, data=[81, 80]),\n",
      "   midi.NoteOffEvent(tick=96, channel=2, data=[81, 0]),\n",
      "   midi.NoteOnEvent(tick=0, channel=2, data=[79, 80]),\n",
      "   midi.NoteOffEvent(tick=96, channel=2, data=[79, 0]),\n",
      "   midi.NoteOnEvent(tick=0, channel=2, data=[81, 80]),\n",
      "   midi.NoteOffEvent(tick=96, channel=2, data=[81, 0]),\n",
      "   midi.NoteOnEvent(tick=0, channel=2, data=[79, 80]),\n",
      "   midi.NoteOffEvent(tick=96, channel=2, data=[79, 0]),\n",
      "   midi.NoteOnEvent(tick=0, channel=2, data=[78, 80]),\n",
      "   midi.NoteOffEvent(tick=96, channel=2, data=[78, 0]),\n",
      "   midi.NoteOnEvent(tick=0, channel=2, data=[76, 80]),\n",
      "   midi.NoteOffEvent(tick=96, channel=2, data=[76, 0]),\n",
      "   midi.NoteOnEvent(tick=0, channel=2, data=[74, 80]),\n",
      "   midi.NoteOffEvent(tick=96, channel=2, data=[74, 0]),\n",
      "   midi.NoteOnEvent(tick=0, channel=2, data=[69, 80]),\n",
      "   midi.NoteOffEvent(tick=96, channel=2, data=[69, 0]),\n",
      "   midi.NoteOnEvent(tick=0, channel=2, data=[71, 80]),\n",
      "   midi.NoteOffEvent(tick=96, channel=2, data=[71, 0]),\n",
      "   midi.NoteOnEvent(tick=0, channel=2, data=[72, 80]),\n",
      "   midi.NoteOffEvent(tick=96, channel=2, data=[72, 0]),\n",
      "   midi.NoteOnEvent(tick=0, channel=2, data=[74, 80]),\n",
      "   midi.NoteOffEvent(tick=96, channel=2, data=[74, 0]),\n",
      "   midi.NoteOnEvent(tick=0, channel=2, data=[76, 80]),\n",
      "   midi.NoteOffEvent(tick=96, channel=2, data=[76, 0]),\n",
      "   midi.NoteOnEvent(tick=0, channel=2, data=[78, 80]),\n",
      "   midi.NoteOffEvent(tick=96, channel=2, data=[78, 0]),\n",
      "   midi.NoteOnEvent(tick=0, channel=2, data=[79, 80]),\n",
      "   midi.NoteOffEvent(tick=96, channel=2, data=[79, 0]),\n",
      "   midi.NoteOnEvent(tick=0, channel=2, data=[81, 80]),\n",
      "   midi.NoteOffEvent(tick=96, channel=2, data=[81, 0]),\n",
      "   midi.NoteOnEvent(tick=0, channel=2, data=[83, 80]),\n",
      "   midi.NoteOffEvent(tick=96, channel=2, data=[83, 0]),\n",
      "   midi.NoteOnEvent(tick=0, channel=2, data=[84, 80]),\n",
      "   midi.NoteOffEvent(tick=96, channel=2, data=[84, 0]),\n",
      "   midi.NoteOnEvent(tick=0, channel=2, data=[83, 80]),\n",
      "   midi.NoteOffEvent(tick=96, channel=2, data=[83, 0]),\n",
      "   midi.NoteOnEvent(tick=0, channel=2, data=[84, 80]),\n",
      "   midi.NoteOffEvent(tick=96, channel=2, data=[84, 0]),\n",
      "   midi.NoteOnEvent(tick=0, channel=2, data=[83, 80]),\n",
      "   midi.NoteOffEvent(tick=96, channel=2, data=[83, 0]),\n",
      "   midi.NoteOnEvent(tick=0, channel=2, data=[81, 80]),\n",
      "   midi.NoteOffEvent(tick=96, channel=2, data=[81, 0]),\n",
      "   midi.NoteOnEvent(tick=0, channel=2, data=[79, 80]),\n",
      "   midi.NoteOffEvent(tick=96, channel=2, data=[79, 0]),\n",
      "   midi.NoteOnEvent(tick=0, channel=2, data=[78, 80]),\n",
      "   midi.NoteOffEvent(tick=96, channel=2, data=[78, 0]),\n",
      "   midi.NoteOnEvent(tick=0, channel=2, data=[79, 80]),\n",
      "   midi.NoteOffEvent(tick=96, channel=2, data=[79, 0]),\n",
      "   midi.NoteOnEvent(tick=0, channel=2, data=[78, 80]),\n",
      "   midi.NoteOffEvent(tick=96, channel=2, data=[78, 0]),\n",
      "   midi.NoteOnEvent(tick=0, channel=2, data=[76, 80]),\n",
      "   midi.NoteOffEvent(tick=96, channel=2, data=[76, 0]),\n",
      "   midi.NoteOnEvent(tick=0, channel=2, data=[74, 80]),\n",
      "   midi.NoteOffEvent(tick=96, channel=2, data=[74, 0]),\n",
      "   midi.NoteOnEvent(tick=0, channel=2, data=[72, 80]),\n",
      "   midi.NoteOffEvent(tick=96, channel=2, data=[72, 0]),\n",
      "   midi.NoteOnEvent(tick=0, channel=2, data=[71, 80]),\n",
      "   midi.NoteOffEvent(tick=96, channel=2, data=[71, 0]),\n",
      "   midi.NoteOnEvent(tick=0, channel=2, data=[69, 80]),\n",
      "   midi.NoteOffEvent(tick=96, channel=2, data=[69, 0]),\n",
      "   midi.NoteOnEvent(tick=0, channel=2, data=[71, 80]),\n",
      "   midi.NoteOffEvent(tick=192, channel=2, data=[71, 0]),\n",
      "   midi.NoteOnEvent(tick=0, channel=2, data=[83, 80]),\n",
      "   midi.NoteOffEvent(tick=96, channel=2, data=[83, 0]),\n",
      "   midi.NoteOnEvent(tick=0, channel=2, data=[81, 80]),\n",
      "   midi.NoteOffEvent(tick=96, channel=2, data=[81, 0]),\n",
      "   midi.NoteOnEvent(tick=0, channel=2, data=[79, 80]),\n",
      "   midi.NoteOffEvent(tick=96, channel=2, data=[79, 0]),\n",
      "   midi.NoteOnEvent(tick=0, channel=2, data=[78, 80]),\n",
      "   midi.NoteOffEvent(tick=96, channel=2, data=[78, 0]),\n",
      "   midi.NoteOnEvent(tick=0, channel=2, data=[76, 80]),\n",
      "   midi.NoteOffEvent(tick=96, channel=2, data=[76, 0]),\n",
      "   midi.NoteOnEvent(tick=0, channel=2, data=[74, 80]),\n",
      "   midi.NoteOffEvent(tick=96, channel=2, data=[74, 0]),\n",
      "   midi.NoteOnEvent(tick=0, channel=2, data=[76, 80]),\n",
      "   midi.NoteOffEvent(tick=96, channel=2, data=[76, 0]),\n",
      "   midi.NoteOnEvent(tick=0, channel=2, data=[78, 80]),\n",
      "   midi.NoteOffEvent(tick=96, channel=2, data=[78, 0]),\n",
      "   midi.NoteOnEvent(tick=0, channel=2, data=[76, 80]),\n",
      "   midi.NoteOffEvent(tick=96, channel=2, data=[76, 0]),\n",
      "   midi.NoteOnEvent(tick=0, channel=2, data=[74, 80]),\n",
      "   midi.NoteOffEvent(tick=96, channel=2, data=[74, 0]),\n",
      "   midi.NoteOnEvent(tick=0, channel=2, data=[76, 80]),\n",
      "   midi.NoteOffEvent(tick=96, channel=2, data=[76, 0]),\n",
      "   midi.NoteOnEvent(tick=0, channel=2, data=[74, 80]),\n",
      "   midi.NoteOffEvent(tick=96, channel=2, data=[74, 0]),\n",
      "   midi.NoteOnEvent(tick=0, channel=2, data=[73, 80]),\n",
      "   midi.NoteOffEvent(tick=96, channel=2, data=[73, 0]),\n",
      "   midi.NoteOnEvent(tick=0, channel=2, data=[71, 80]),\n",
      "   midi.NoteOffEvent(tick=96, channel=2, data=[71, 0]),\n",
      "   midi.NoteOnEvent(tick=0, channel=2, data=[69, 80]),\n",
      "   midi.NoteOffEvent(tick=192, channel=2, data=[69, 0]),\n",
      "   midi.NoteOnEvent(tick=0, channel=2, data=[81, 80]),\n",
      "   midi.NoteOffEvent(tick=96, channel=2, data=[81, 0]),\n",
      "   midi.NoteOnEvent(tick=0, channel=2, data=[79, 80]),\n",
      "   midi.NoteOffEvent(tick=96, channel=2, data=[79, 0]),\n",
      "   midi.NoteOnEvent(tick=0, channel=2, data=[78, 80]),\n",
      "   midi.NoteOffEvent(tick=96, channel=2, data=[78, 0]),\n",
      "   midi.NoteOnEvent(tick=0, channel=2, data=[76, 80]),\n",
      "   midi.NoteOffEvent(tick=96, channel=2, data=[76, 0]),\n",
      "   midi.NoteOnEvent(tick=0, channel=2, data=[74, 80]),\n",
      "   midi.NoteOffEvent(tick=96, channel=2, data=[74, 0]),\n",
      "   midi.NoteOnEvent(tick=0, channel=2, data=[73, 80]),\n",
      "   midi.NoteOffEvent(tick=96, channel=2, data=[73, 0]),\n",
      "   midi.NoteOnEvent(tick=0, channel=2, data=[74, 80]),\n",
      "   midi.NoteOffEvent(tick=96, channel=2, data=[74, 0]),\n",
      "   midi.NoteOnEvent(tick=0, channel=2, data=[76, 80]),\n",
      "   midi.NoteOffEvent(tick=96, channel=2, data=[76, 0]),\n",
      "   midi.NoteOnEvent(tick=0, channel=2, data=[74, 80]),\n",
      "   midi.NoteOffEvent(tick=96, channel=2, data=[74, 0]),\n",
      "   midi.NoteOnEvent(tick=0, channel=2, data=[73, 80]),\n",
      "   midi.NoteOffEvent(tick=96, channel=2, data=[73, 0]),\n",
      "   midi.NoteOnEvent(tick=0, channel=2, data=[74, 80]),\n",
      "   midi.NoteOffEvent(tick=96, channel=2, data=[74, 0]),\n",
      "   midi.NoteOnEvent(tick=0, channel=2, data=[73, 80]),\n",
      "   midi.NoteOffEvent(tick=96, channel=2, data=[73, 0]),\n",
      "   midi.NoteOnEvent(tick=0, channel=2, data=[71, 80]),\n",
      "   midi.NoteOffEvent(tick=96, channel=2, data=[71, 0]),\n",
      "   midi.NoteOnEvent(tick=0, channel=2, data=[69, 80]),\n",
      "   midi.NoteOffEvent(tick=96, channel=2, data=[69, 0]),\n",
      "   midi.NoteOnEvent(tick=0, channel=2, data=[67, 80]),\n",
      "   midi.NoteOffEvent(tick=192, channel=2, data=[67, 0]),\n",
      "   midi.NoteOnEvent(tick=0, channel=2, data=[83, 80]),\n",
      "   midi.NoteOffEvent(tick=192, channel=2, data=[83, 0]),\n",
      "   midi.NoteOnEvent(tick=0, channel=2, data=[85, 80]),\n",
      "   midi.NoteOffEvent(tick=192, channel=2, data=[85, 0]),\n",
      "   midi.NoteOnEvent(tick=0, channel=2, data=[86, 80]),\n",
      "   midi.NoteOffEvent(tick=192, channel=2, data=[86, 0]),\n",
      "   midi.NoteOnEvent(tick=0, channel=2, data=[88, 80]),\n",
      "   midi.NoteOffEvent(tick=192, channel=2, data=[88, 0]),\n",
      "   midi.NoteOnEvent(tick=0, channel=2, data=[76, 80]),\n",
      "   midi.NoteOffEvent(tick=96, channel=2, data=[76, 0]),\n",
      "   midi.NoteOnEvent(tick=0, channel=2, data=[78, 80]),\n",
      "   midi.NoteOffEvent(tick=96, channel=2, data=[78, 0]),\n",
      "   midi.NoteOnEvent(tick=0, channel=2, data=[79, 80]),\n",
      "   midi.NoteOffEvent(tick=96, channel=2, data=[79, 0]),\n",
      "   midi.NoteOnEvent(tick=0, channel=2, data=[81, 80]),\n",
      "   midi.NoteOffEvent(tick=96, channel=2, data=[81, 0]),\n",
      "   midi.NoteOnEvent(tick=0, channel=2, data=[83, 80]),\n",
      "   midi.NoteOffEvent(tick=96, channel=2, data=[83, 0]),\n",
      "   midi.NoteOnEvent(tick=0, channel=2, data=[85, 80]),\n",
      "   midi.NoteOffEvent(tick=96, channel=2, data=[85, 0]),\n",
      "   midi.NoteOnEvent(tick=0, channel=2, data=[78, 80]),\n",
      "   midi.NoteOffEvent(tick=192, channel=2, data=[78, 0]),\n",
      "   midi.NoteOnEvent(tick=0, channel=2, data=[81, 80]),\n",
      "   midi.NoteOffEvent(tick=192, channel=2, data=[81, 0]),\n",
      "   midi.NoteOnEvent(tick=0, channel=2, data=[69, 80]),\n",
      "   midi.NoteOffEvent(tick=192, channel=2, data=[69, 0]),\n",
      "   midi.NoteOnEvent(tick=0, channel=2, data=[79, 80]),\n",
      "   midi.NoteOffEvent(tick=192, channel=2, data=[79, 0]),\n",
      "   midi.NoteOnEvent(tick=0, channel=2, data=[74, 80]),\n",
      "   midi.NoteOffEvent(tick=384, channel=2, data=[74, 0]),\n",
      "   midi.NoteOnEvent(tick=1152, channel=2, data=[76, 80]),\n",
      "   midi.NoteOffEvent(tick=96, channel=2, data=[76, 0]),\n",
      "   midi.NoteOnEvent(tick=0, channel=2, data=[78, 80]),\n",
      "   midi.NoteOffEvent(tick=96, channel=2, data=[78, 0]),\n",
      "   midi.NoteOnEvent(tick=0, channel=2, data=[79, 80]),\n",
      "   midi.NoteOffEvent(tick=96, channel=2, data=[79, 0]),\n",
      "   midi.NoteOnEvent(tick=96, channel=2, data=[79, 80]),\n",
      "   midi.NoteOffEvent(tick=96, channel=2, data=[79, 0]),\n",
      "   midi.NoteOnEvent(tick=96, channel=2, data=[76, 80]),\n",
      "   midi.NoteOffEvent(tick=96, channel=2, data=[76, 0]),\n",
      "   midi.NoteOnEvent(tick=96, channel=2, data=[74, 80]),\n",
      "   midi.NoteOffEvent(tick=48, channel=2, data=[74, 0]),\n",
      "   midi.NoteOnEvent(tick=0, channel=2, data=[76, 80]),\n",
      "   midi.NoteOffEvent(tick=48, channel=2, data=[76, 0]),\n",
      "   midi.NoteOnEvent(tick=0, channel=2, data=[78, 80]),\n",
      "   midi.NoteOffEvent(tick=256, channel=2, data=[78, 0]),\n",
      "   midi.NoteOnEvent(tick=32, channel=2, data=[76, 80]),\n",
      "   midi.NoteOffEvent(tick=48, channel=2, data=[76, 0]),\n",
      "   midi.NoteOnEvent(tick=0, channel=2, data=[78, 80]),\n",
      "   midi.NoteOffEvent(tick=48, channel=2, data=[78, 0]),\n",
      "   midi.NoteOnEvent(tick=0, channel=2, data=[79, 80]),\n",
      "   midi.NoteOffEvent(tick=256, channel=2, data=[79, 0]),\n",
      "   midi.NoteOnEvent(tick=32, channel=2, data=[74, 80]),\n",
      "   midi.NoteOffEvent(tick=192, channel=2, data=[74, 0]),\n",
      "   midi.NoteOnEvent(tick=0, channel=2, data=[73, 80]),\n",
      "   midi.NoteOffEvent(tick=192, channel=2, data=[73, 0]),\n",
      "   midi.NoteOnEvent(tick=0, channel=2, data=[74, 80]),\n",
      "   midi.NoteOffEvent(tick=192, channel=2, data=[74, 0]),\n",
      "   midi.NoteOnEvent(tick=384, channel=2, data=[74, 80]),\n",
      "   midi.NoteOffEvent(tick=96, channel=2, data=[74, 0]),\n",
      "   midi.NoteOnEvent(tick=0, channel=2, data=[76, 80]),\n",
      "   midi.NoteOffEvent(tick=96, channel=2, data=[76, 0]),\n",
      "   midi.NoteOnEvent(tick=0, channel=2, data=[78, 80]),\n",
      "   midi.NoteOffEvent(tick=96, channel=2, data=[78, 0]),\n",
      "   midi.NoteOnEvent(tick=0, channel=2, data=[79, 80]),\n",
      "   midi.NoteOffEvent(tick=96, channel=2, data=[79, 0]),\n",
      "   midi.NoteOnEvent(tick=0, channel=2, data=[81, 80]),\n",
      "   midi.NoteOffEvent(tick=192, channel=2, data=[81, 0]),\n",
      "   midi.NoteOnEvent(tick=0, channel=2, data=[81, 80]),\n",
      "   midi.NoteOffEvent(tick=192, channel=2, data=[81, 0]),\n",
      "   midi.NoteOnEvent(tick=384, channel=2, data=[81, 80]),\n",
      "   midi.NoteOffEvent(tick=192, channel=2, data=[81, 0]),\n",
      "   midi.NoteOnEvent(tick=0, channel=2, data=[74, 80]),\n",
      "   midi.NoteOffEvent(tick=192, channel=2, data=[74, 0]),\n",
      "   midi.NoteOnEvent(tick=0, channel=2, data=[79, 80]),\n",
      "   midi.NoteOffEvent(tick=384, channel=2, data=[79, 0]),\n",
      "   midi.NoteOnEvent(tick=0, channel=2, data=[78, 80]),\n",
      "   midi.NoteOffEvent(tick=192, channel=2, data=[78, 0]),\n",
      "   midi.NoteOnEvent(tick=0, channel=2, data=[79, 80]),\n",
      "   midi.NoteOffEvent(tick=192, channel=2, data=[79, 0]),\n",
      "   midi.NoteOnEvent(tick=0, channel=2, data=[78, 80]),\n",
      "   midi.NoteOffEvent(tick=96, channel=2, data=[78, 0]),\n",
      "   midi.NoteOnEvent(tick=0, channel=2, data=[76, 80]),\n",
      "   midi.NoteOffEvent(tick=96, channel=2, data=[76, 0]),\n",
      "   midi.NoteOnEvent(tick=0, channel=2, data=[74, 80]),\n",
      "   midi.NoteOffEvent(tick=1152, channel=2, data=[74, 0]),\n",
      "   midi.NoteOnEvent(tick=0, channel=2, data=[73, 80]),\n",
      "   midi.NoteOffEvent(tick=96, channel=2, data=[73, 0]),\n",
      "   midi.NoteOnEvent(tick=0, channel=2, data=[71, 80]),\n",
      "   midi.NoteOffEvent(tick=96, channel=2, data=[71, 0]),\n",
      "   midi.NoteOnEvent(tick=0, channel=2, data=[69, 80]),\n",
      "   midi.NoteOffEvent(tick=96, channel=2, data=[69, 0]),\n",
      "   midi.NoteOnEvent(tick=0, channel=2, data=[71, 80]),\n",
      "   midi.NoteOffEvent(tick=96, channel=2, data=[71, 0]),\n",
      "   midi.NoteOnEvent(tick=0, channel=2, data=[73, 80]),\n",
      "   midi.NoteOffEvent(tick=192, channel=2, data=[73, 0]),\n",
      "   midi.NoteOnEvent(tick=0, channel=2, data=[74, 80]),\n",
      "   midi.NoteOffEvent(tick=192, channel=2, data=[74, 0]),\n",
      "   midi.NoteOnEvent(tick=0, channel=2, data=[76, 80]),\n",
      "   midi.NoteOffEvent(tick=864, channel=2, data=[76, 0]),\n",
      "   midi.NoteOnEvent(tick=0, channel=2, data=[74, 80]),\n",
      "   midi.NoteOffEvent(tick=96, channel=2, data=[74, 0]),\n",
      "   midi.NoteOnEvent(tick=0, channel=2, data=[73, 80]),\n",
      "   midi.NoteOffEvent(tick=96, channel=2, data=[73, 0]),\n",
      "   midi.NoteOnEvent(tick=0, channel=2, data=[74, 80]),\n",
      "   midi.NoteOffEvent(tick=96, channel=2, data=[74, 0]),\n",
      "   midi.NoteOnEvent(tick=0, channel=2, data=[76, 80]),\n",
      "   midi.NoteOffEvent(tick=192, channel=2, data=[76, 0]),\n",
      "   midi.NoteOnEvent(tick=0, channel=2, data=[69, 80]),\n",
      "   midi.NoteOffEvent(tick=192, channel=2, data=[69, 0]),\n",
      "   midi.NoteOnEvent(tick=0, channel=2, data=[74, 80]),\n",
      "   midi.NoteOffEvent(tick=96, channel=2, data=[74, 0]),\n",
      "   midi.NoteOnEvent(tick=0, channel=2, data=[73, 80]),\n",
      "   midi.NoteOffEvent(tick=96, channel=2, data=[73, 0]),\n",
      "   midi.NoteOnEvent(tick=0, channel=2, data=[74, 80]),\n",
      "   midi.NoteOffEvent(tick=96, channel=2, data=[74, 0]),\n",
      "   midi.NoteOnEvent(tick=0, channel=2, data=[73, 80]),\n",
      "   midi.NoteOffEvent(tick=96, channel=2, data=[73, 0]),\n",
      "   midi.NoteOnEvent(tick=0, channel=2, data=[71, 80]),\n",
      "   midi.NoteOffEvent(tick=96, channel=2, data=[71, 0]),\n",
      "   midi.NoteOnEvent(tick=0, channel=2, data=[73, 80]),\n",
      "   midi.NoteOffEvent(tick=96, channel=2, data=[73, 0]),\n",
      "   midi.NoteOnEvent(tick=0, channel=2, data=[78, 80]),\n",
      "   midi.NoteOffEvent(tick=96, channel=2, data=[78, 0]),\n",
      "   midi.NoteOnEvent(tick=0, channel=2, data=[76, 80]),\n",
      "   midi.NoteOffEvent(tick=96, channel=2, data=[76, 0]),\n",
      "   midi.NoteOnEvent(tick=0, channel=2, data=[78, 80]),\n",
      "   midi.NoteOffEvent(tick=96, channel=2, data=[78, 0]),\n",
      "   midi.NoteOnEvent(tick=0, channel=2, data=[79, 80]),\n",
      "   midi.NoteOffEvent(tick=96, channel=2, data=[79, 0]),\n",
      "   midi.NoteOnEvent(tick=0, channel=2, data=[81, 80]),\n",
      "   midi.NoteOffEvent(tick=192, channel=2, data=[81, 0]),\n",
      "   midi.NoteOnEvent(tick=0, channel=2, data=[74, 80]),\n",
      "   midi.NoteOffEvent(tick=192, channel=2, data=[74, 0]),\n",
      "   midi.NoteOnEvent(tick=0, channel=2, data=[76, 80]),\n",
      "   midi.NoteOffEvent(tick=384, channel=2, data=[76, 0]),\n",
      "   midi.NoteOnEvent(tick=0, channel=2, data=[73, 80]),\n",
      "   midi.NoteOffEvent(tick=384, channel=2, data=[73, 0]),\n",
      "   midi.NoteOnEvent(tick=0, channel=2, data=[74, 80]),\n",
      "   midi.NoteOffEvent(tick=192, channel=2, data=[74, 0]),\n",
      "   midi.NoteOnEvent(tick=0, channel=2, data=[81, 80]),\n",
      "   midi.NoteOffEvent(tick=192, channel=2, data=[81, 0]),\n",
      "   midi.NoteOnEvent(tick=0, channel=2, data=[78, 80]),\n",
      "   midi.NoteOffEvent(tick=192, channel=2, data=[78, 0]),\n",
      "   midi.NoteOnEvent(tick=0, channel=2, data=[74, 80]),\n",
      "   midi.NoteOffEvent(tick=192, channel=2, data=[74, 0]),\n",
      "   midi.NoteOnEvent(tick=0, channel=2, data=[69, 80]),\n",
      "   midi.NoteOffEvent(tick=192, channel=2, data=[69, 0]),\n",
      "   midi.NoteOnEvent(tick=1152, channel=2, data=[69, 80]),\n",
      "   midi.NoteOffEvent(tick=192, channel=2, data=[69, 0]),\n",
      "   midi.NoteOnEvent(tick=0, channel=2, data=[74, 80]),\n",
      "   midi.NoteOffEvent(tick=48, channel=2, data=[74, 0]),\n",
      "   midi.NoteOnEvent(tick=0, channel=2, data=[76, 80]),\n",
      "   midi.NoteOffEvent(tick=48, channel=2, data=[76, 0]),\n",
      "   midi.NoteOnEvent(tick=0, channel=2, data=[78, 80]),\n",
      "   midi.NoteOffEvent(tick=256, channel=2, data=[78, 0]),\n",
      "   midi.NoteOnEvent(tick=32, channel=2, data=[76, 80]),\n",
      "   midi.NoteOffEvent(tick=48, channel=2, data=[76, 0]),\n",
      "   midi.NoteOnEvent(tick=0, channel=2, data=[78, 80]),\n",
      "   midi.NoteOffEvent(tick=48, channel=2, data=[78, 0]),\n",
      "   midi.NoteOnEvent(tick=0, channel=2, data=[79, 80]),\n",
      "   midi.NoteOffEvent(tick=256, channel=2, data=[79, 0]),\n",
      "   midi.NoteOnEvent(tick=32, channel=2, data=[78, 80]),\n",
      "   midi.NoteOffEvent(tick=192, channel=2, data=[78, 0]),\n",
      "   midi.NoteOnEvent(tick=0, channel=2, data=[81, 80]),\n",
      "   midi.NoteOffEvent(tick=192, channel=2, data=[81, 0]),\n",
      "   midi.NoteOnEvent(tick=0, channel=2, data=[78, 80]),\n",
      "   midi.NoteOffEvent(tick=192, channel=2, data=[78, 0]),\n",
      "   midi.NoteOnEvent(tick=0, channel=2, data=[74, 80]),\n",
      "   midi.NoteOffEvent(tick=192, channel=2, data=[74, 0]),\n",
      "   midi.NoteOnEvent(tick=1344, channel=2, data=[69, 80]),\n",
      "   midi.NoteOffEvent(tick=192, channel=2, data=[69, 0]),\n",
      "   midi.NoteOnEvent(tick=0, channel=2, data=[74, 80]),\n",
      "   midi.NoteOffEvent(tick=48, channel=2, data=[74, 0]),\n",
      "   midi.NoteOnEvent(tick=0, channel=2, data=[76, 80]),\n",
      "   midi.NoteOffEvent(tick=48, channel=2, data=[76, 0]),\n",
      "   midi.NoteOnEvent(tick=0, channel=2, data=[78, 80]),\n",
      "   midi.NoteOffEvent(tick=256, channel=2, data=[78, 0]),\n",
      "   midi.NoteOnEvent(tick=32, channel=2, data=[76, 80]),\n",
      "   midi.NoteOffEvent(tick=48, channel=2, data=[76, 0]),\n",
      "   midi.NoteOnEvent(tick=0, channel=2, data=[78, 80]),\n",
      "   midi.NoteOffEvent(tick=48, channel=2, data=[78, 0]),\n",
      "   midi.NoteOnEvent(tick=0, channel=2, data=[79, 80]),\n",
      "   midi.NoteOffEvent(tick=256, channel=2, data=[79, 0]),\n",
      "   midi.NoteOnEvent(tick=32, channel=2, data=[78, 80]),\n",
      "   midi.NoteOffEvent(tick=192, channel=2, data=[78, 0]),\n",
      "   midi.NoteOnEvent(tick=0, channel=2, data=[81, 80]),\n",
      "   midi.NoteOffEvent(tick=192, channel=2, data=[81, 0]),\n",
      "   midi.NoteOnEvent(tick=0, channel=2, data=[78, 80]),\n",
      "   midi.NoteOffEvent(tick=192, channel=2, data=[78, 0]),\n",
      "   midi.NoteOnEvent(tick=0, channel=2, data=[74, 80]),\n",
      "   midi.NoteOffEvent(tick=192, channel=2, data=[74, 0]),\n",
      "   midi.NoteOnEvent(tick=192, channel=2, data=[78, 80]),\n",
      "   midi.NoteOffEvent(tick=96, channel=2, data=[78, 0]),\n",
      "   midi.NoteOnEvent(tick=0, channel=2, data=[76, 80]),\n",
      "   midi.NoteOffEvent(tick=96, channel=2, data=[76, 0]),\n",
      "   midi.NoteOnEvent(tick=0, channel=2, data=[74, 80]),\n",
      "   midi.NoteOffEvent(tick=96, channel=2, data=[74, 0]),\n",
      "   midi.NoteOnEvent(tick=0, channel=2, data=[73, 80]),\n",
      "   midi.NoteOffEvent(tick=96, channel=2, data=[73, 0]),\n",
      "   midi.NoteOnEvent(tick=0, channel=2, data=[71, 80]),\n",
      "   midi.NoteOffEvent(tick=96, channel=2, data=[71, 0]),\n",
      "   midi.NoteOnEvent(tick=0, channel=2, data=[69, 80]),\n",
      "   midi.NoteOffEvent(tick=96, channel=2, data=[69, 0]),\n",
      "   midi.NoteOnEvent(tick=0, channel=2, data=[71, 80]),\n",
      "   midi.NoteOffEvent(tick=192, channel=2, data=[71, 0]),\n",
      "   midi.NoteOnEvent(tick=0, channel=2, data=[83, 80]),\n",
      "   midi.NoteOffEvent(tick=96, channel=2, data=[83, 0]),\n",
      "   midi.NoteOnEvent(tick=0, channel=2, data=[81, 80]),\n",
      "   midi.NoteOffEvent(tick=96, channel=2, data=[81, 0]),\n",
      "   midi.NoteOnEvent(tick=0, channel=2, data=[83, 80]),\n",
      "   midi.NoteOffEvent(tick=96, channel=2, data=[83, 0]),\n",
      "   midi.NoteOnEvent(tick=0, channel=2, data=[81, 80]),\n",
      "   midi.NoteOffEvent(tick=96, channel=2, data=[81, 0]),\n",
      "   midi.NoteOnEvent(tick=0, channel=2, data=[80, 80]),\n",
      "   midi.NoteOffEvent(tick=96, channel=2, data=[80, 0]),\n",
      "   midi.NoteOnEvent(tick=0, channel=2, data=[78, 80]),\n",
      "   midi.NoteOffEvent(tick=96, channel=2, data=[78, 0]),\n",
      "   midi.NoteOnEvent(tick=0, channel=2, data=[76, 80]),\n",
      "   midi.NoteOffEvent(tick=96, channel=2, data=[76, 0]),\n",
      "   midi.NoteOnEvent(tick=0, channel=2, data=[78, 80]),\n",
      "   midi.NoteOffEvent(tick=96, channel=2, data=[78, 0]),\n",
      "   midi.NoteOnEvent(tick=0, channel=2, data=[76, 80]),\n",
      "   midi.NoteOffEvent(tick=96, channel=2, data=[76, 0]),\n",
      "   midi.NoteOnEvent(tick=0, channel=2, data=[74, 80]),\n",
      "   midi.NoteOffEvent(tick=96, channel=2, data=[74, 0]),\n",
      "   midi.NoteOnEvent(tick=0, channel=2, data=[73, 80]),\n",
      "   midi.NoteOffEvent(tick=96, channel=2, data=[73, 0]),\n",
      "   midi.NoteOnEvent(tick=0, channel=2, data=[71, 80]),\n",
      "   midi.NoteOffEvent(tick=96, channel=2, data=[71, 0]),\n",
      "   midi.NoteOnEvent(tick=0, channel=2, data=[69, 80]),\n",
      "   midi.NoteOffEvent(tick=96, channel=2, data=[69, 0]),\n",
      "   midi.NoteOnEvent(tick=0, channel=2, data=[68, 80]),\n",
      "   midi.NoteOffEvent(tick=96, channel=2, data=[68, 0]),\n",
      "   midi.NoteOnEvent(tick=0, channel=2, data=[69, 80]),\n",
      "   midi.NoteOffEvent(tick=192, channel=2, data=[69, 0]),\n",
      "   midi.NoteOnEvent(tick=0, channel=2, data=[81, 80]),\n",
      "   midi.NoteOffEvent(tick=96, channel=2, data=[81, 0]),\n",
      "   midi.NoteOnEvent(tick=0, channel=2, data=[80, 80]),\n",
      "   midi.NoteOffEvent(tick=96, channel=2, data=[80, 0]),\n",
      "   midi.NoteOnEvent(tick=0, channel=2, data=[81, 80]),\n",
      "   midi.NoteOffEvent(tick=96, channel=2, data=[81, 0]),\n",
      "   midi.NoteOnEvent(tick=0, channel=2, data=[80, 80]),\n",
      "   midi.NoteOffEvent(tick=96, channel=2, data=[80, 0]),\n",
      "   midi.NoteOnEvent(tick=0, channel=2, data=[78, 80]),\n",
      "   midi.NoteOffEvent(tick=96, channel=2, data=[78, 0]),\n",
      "   midi.NoteOnEvent(tick=0, channel=2, data=[76, 80]),\n",
      "   midi.NoteOffEvent(tick=96, channel=2, data=[76, 0]),\n",
      "   midi.NoteOnEvent(tick=0, channel=2, data=[74, 80]),\n",
      "   midi.NoteOffEvent(tick=96, channel=2, data=[74, 0]),\n",
      "   midi.NoteOnEvent(tick=0, channel=2, data=[73, 80]),\n",
      "   midi.NoteOffEvent(tick=96, channel=2, data=[73, 0]),\n",
      "   midi.NoteOnEvent(tick=0, channel=2, data=[74, 80]),\n",
      "   midi.NoteOffEvent(tick=96, channel=2, data=[74, 0]),\n",
      "   midi.NoteOnEvent(tick=0, channel=2, data=[76, 80]),\n",
      "   midi.NoteOffEvent(tick=96, channel=2, data=[76, 0]),\n",
      "   midi.NoteOnEvent(tick=0, channel=2, data=[74, 80]),\n",
      "   midi.NoteOffEvent(tick=96, channel=2, data=[74, 0]),\n",
      "   midi.NoteOnEvent(tick=0, channel=2, data=[73, 80]),\n",
      "   midi.NoteOffEvent(tick=96, channel=2, data=[73, 0]),\n",
      "   midi.NoteOnEvent(tick=0, channel=2, data=[71, 80]),\n",
      "   midi.NoteOffEvent(tick=96, channel=2, data=[71, 0]),\n",
      "   midi.NoteOnEvent(tick=0, channel=2, data=[69, 80]),\n",
      "   midi.NoteOffEvent(tick=96, channel=2, data=[69, 0]),\n",
      "   midi.NoteOnEvent(tick=0, channel=2, data=[76, 80]),\n",
      "   midi.NoteOffEvent(tick=896, channel=2, data=[76, 0]),\n",
      "   midi.NoteOnEvent(tick=64, channel=2, data=[74, 80]),\n",
      "   midi.NoteOffEvent(tick=96, channel=2, data=[74, 0]),\n",
      "   midi.NoteOnEvent(tick=0, channel=2, data=[73, 80]),\n",
      "   midi.NoteOffEvent(tick=96, channel=2, data=[73, 0]),\n",
      "   midi.NoteOnEvent(tick=0, channel=2, data=[74, 80]),\n",
      "   midi.NoteOffEvent(tick=96, channel=2, data=[74, 0]),\n",
      "   midi.NoteOnEvent(tick=0, channel=2, data=[73, 80]),\n",
      "   midi.NoteOffEvent(tick=96, channel=2, data=[73, 0]),\n",
      "   midi.NoteOnEvent(tick=0, channel=2, data=[71, 80]),\n",
      "   midi.NoteOffEvent(tick=96, channel=2, data=[71, 0]),\n",
      "   midi.NoteOnEvent(tick=0, channel=2, data=[73, 80]),\n",
      "   midi.NoteOffEvent(tick=96, channel=2, data=[73, 0]),\n",
      "   midi.NoteOnEvent(tick=0, channel=2, data=[69, 80]),\n",
      "   midi.NoteOffEvent(tick=768, channel=2, data=[69, 0]),\n",
      "   midi.EndOfTrackEvent(tick=0, data=[])]),\n",
      " midi.Track(\\\n",
      "  [midi.TrackNameEvent(tick=0, text='Oboe I', data=[79, 98, 111, 101, 32, 73]),\n",
      "   midi.ControlChangeEvent(tick=0, channel=3, data=[0, 0]),\n",
      "   midi.ProgramChangeEvent(tick=0, channel=3, data=[68]),\n",
      "   midi.ControlChangeEvent(tick=0, channel=3, data=[7, 100]),\n",
      "   midi.ControlChangeEvent(tick=0, channel=3, data=[10, 64]),\n",
      "   midi.ControlChangeEvent(tick=0, channel=3, data=[91, 127]),\n",
      "   midi.ControlChangeEvent(tick=0, channel=3, data=[93, 127]),\n",
      "   midi.KeySignatureEvent(tick=0, data=[2, 0]),\n",
      "   midi.NoteOnEvent(tick=2112, channel=3, data=[69, 80]),\n",
      "   midi.NoteOffEvent(tick=192, channel=3, data=[69, 0]),\n",
      "   midi.NoteOnEvent(tick=0, channel=3, data=[74, 80]),\n",
      "   midi.NoteOffEvent(tick=48, channel=3, data=[74, 0]),\n",
      "   midi.NoteOnEvent(tick=0, channel=3, data=[76, 80]),\n",
      "   midi.NoteOffEvent(tick=48, channel=3, data=[76, 0]),\n",
      "   midi.NoteOnEvent(tick=0, channel=3, data=[78, 80]),\n",
      "   midi.NoteOffEvent(tick=256, channel=3, data=[78, 0]),\n",
      "   midi.NoteOnEvent(tick=32, channel=3, data=[76, 80]),\n",
      "   midi.NoteOffEvent(tick=48, channel=3, data=[76, 0]),\n",
      "   midi.NoteOnEvent(tick=0, channel=3, data=[78, 80]),\n",
      "   midi.NoteOffEvent(tick=48, channel=3, data=[78, 0]),\n",
      "   midi.NoteOnEvent(tick=0, channel=3, data=[79, 80]),\n",
      "   midi.NoteOffEvent(tick=256, channel=3, data=[79, 0]),\n",
      "   midi.NoteOnEvent(tick=32, channel=3, data=[78, 80]),\n",
      "   midi.NoteOffEvent(tick=192, channel=3, data=[78, 0]),\n",
      "   midi.NoteOnEvent(tick=0, channel=3, data=[81, 80]),\n",
      "   midi.NoteOffEvent(tick=192, channel=3, data=[81, 0]),\n",
      "   midi.NoteOnEvent(tick=0, channel=3, data=[78, 80]),\n",
      "   midi.NoteOffEvent(tick=192, channel=3, data=[78, 0]),\n",
      "   midi.NoteOnEvent(tick=0, channel=3, data=[74, 80]),\n",
      "   midi.NoteOffEvent(tick=192, channel=3, data=[74, 0]),\n",
      "   midi.NoteOnEvent(tick=1344, channel=3, data=[69, 80]),\n",
      "   midi.NoteOffEvent(tick=192, channel=3, data=[69, 0]),\n",
      "   midi.NoteOnEvent(tick=0, channel=3, data=[74, 80]),\n",
      "   midi.NoteOffEvent(tick=48, channel=3, data=[74, 0]),\n",
      "   midi.NoteOnEvent(tick=0, channel=3, data=[76, 80]),\n",
      "   midi.NoteOffEvent(tick=48, channel=3, data=[76, 0]),\n",
      "   midi.NoteOnEvent(tick=0, channel=3, data=[78, 80]),\n",
      "   midi.NoteOffEvent(tick=256, channel=3, data=[78, 0]),\n",
      "   midi.NoteOnEvent(tick=32, channel=3, data=[76, 80]),\n",
      "   midi.NoteOffEvent(tick=48, channel=3, data=[76, 0]),\n",
      "   midi.NoteOnEvent(tick=0, channel=3, data=[78, 80]),\n",
      "   midi.NoteOffEvent(tick=48, channel=3, data=[78, 0]),\n",
      "   midi.NoteOnEvent(tick=0, channel=3, data=[79, 80]),\n",
      "   midi.NoteOffEvent(tick=256, channel=3, data=[79, 0]),\n",
      "   midi.NoteOnEvent(tick=32, channel=3, data=[78, 80]),\n",
      "   midi.NoteOffEvent(tick=192, channel=3, data=[78, 0]),\n",
      "   midi.NoteOnEvent(tick=0, channel=3, data=[81, 80]),\n",
      "   midi.NoteOffEvent(tick=192, channel=3, data=[81, 0]),\n",
      "   midi.NoteOnEvent(tick=0, channel=3, data=[78, 80]),\n",
      "   midi.NoteOffEvent(tick=192, channel=3, data=[78, 0]),\n",
      "   midi.NoteOnEvent(tick=0, channel=3, data=[74, 80]),\n",
      "   midi.NoteOffEvent(tick=192, channel=3, data=[74, 0]),\n",
      "   midi.NoteOnEvent(tick=960, channel=3, data=[83, 80]),\n",
      "   midi.NoteOffEvent(tick=96, channel=3, data=[83, 0]),\n",
      "   midi.NoteOnEvent(tick=0, channel=3, data=[81, 80]),\n",
      "   midi.NoteOffEvent(tick=96, channel=3, data=[81, 0]),\n",
      "   midi.NoteOnEvent(tick=0, channel=3, data=[83, 80]),\n",
      "   midi.NoteOffEvent(tick=96, channel=3, data=[83, 0]),\n",
      "   midi.NoteOnEvent(tick=0, channel=3, data=[81, 80]),\n",
      "   midi.NoteOffEvent(tick=96, channel=3, data=[81, 0]),\n",
      "   midi.NoteOnEvent(tick=0, channel=3, data=[80, 80]),\n",
      "   midi.NoteOffEvent(tick=96, channel=3, data=[80, 0]),\n",
      "   midi.NoteOnEvent(tick=0, channel=3, data=[78, 80]),\n",
      "   midi.NoteOffEvent(tick=96, channel=3, data=[78, 0]),\n",
      "   midi.NoteOnEvent(tick=0, channel=3, data=[76, 80]),\n",
      "   midi.NoteOffEvent(tick=192, channel=3, data=[76, 0]),\n",
      "   midi.NoteOnEvent(tick=768, channel=3, data=[81, 80]),\n",
      "   midi.NoteOffEvent(tick=96, channel=3, data=[81, 0]),\n",
      "   midi.NoteOnEvent(tick=0, channel=3, data=[80, 80]),\n",
      "   midi.NoteOffEvent(tick=96, channel=3, data=[80, 0]),\n",
      "   midi.NoteOnEvent(tick=0, channel=3, data=[81, 80]),\n",
      "   midi.NoteOffEvent(tick=96, channel=3, data=[81, 0]),\n",
      "   midi.NoteOnEvent(tick=0, channel=3, data=[80, 80]),\n",
      "   midi.NoteOffEvent(tick=96, channel=3, data=[80, 0]),\n",
      "   midi.NoteOnEvent(tick=0, channel=3, data=[78, 80]),\n",
      "   midi.NoteOffEvent(tick=96, channel=3, data=[78, 0]),\n",
      "   midi.NoteOnEvent(tick=0, channel=3, data=[76, 80]),\n",
      "   midi.NoteOffEvent(tick=96, channel=3, data=[76, 0]),\n",
      "   midi.NoteOnEvent(tick=0, channel=3, data=[74, 80]),\n",
      "   midi.NoteOffEvent(tick=192, channel=3, data=[74, 0]),\n",
      "   midi.NoteOnEvent(tick=0, channel=3, data=[78, 80]),\n",
      "   midi.NoteOffEvent(tick=192, channel=3, data=[78, 0]),\n",
      "   midi.NoteOnEvent(tick=0, channel=3, data=[80, 80]),\n",
      "   midi.NoteOffEvent(tick=192, channel=3, data=[80, 0]),\n",
      "   midi.NoteOnEvent(tick=0, channel=3, data=[81, 80]),\n",
      "   midi.NoteOffEvent(tick=192, channel=3, data=[81, 0]),\n",
      "   midi.NoteOnEvent(tick=0, channel=3, data=[83, 80]),\n",
      "   midi.NoteOffEvent(tick=192, channel=3, data=[83, 0]),\n",
      "   midi.NoteOnEvent(tick=0, channel=3, data=[71, 80]),\n",
      "   midi.NoteOffEvent(tick=96, channel=3, data=[71, 0]),\n",
      "   midi.NoteOnEvent(tick=0, channel=3, data=[73, 80]),\n",
      "   midi.NoteOffEvent(tick=96, channel=3, data=[73, 0]),\n",
      "   midi.NoteOnEvent(tick=0, channel=3, data=[74, 80]),\n",
      "   midi.NoteOffEvent(tick=96, channel=3, data=[74, 0]),\n",
      "   midi.NoteOnEvent(tick=0, channel=3, data=[76, 80]),\n",
      "   midi.NoteOffEvent(tick=96, channel=3, data=[76, 0]),\n",
      "   midi.NoteOnEvent(tick=0, channel=3, data=[78, 80]),\n",
      "   midi.NoteOffEvent(tick=96, channel=3, data=[78, 0]),\n",
      "   midi.NoteOnEvent(tick=0, channel=3, data=[80, 80]),\n",
      "   midi.NoteOffEvent(tick=96, channel=3, data=[80, 0]),\n",
      "   midi.NoteOnEvent(tick=0, channel=3, data=[81, 80]),\n",
      "   midi.NoteOffEvent(tick=96, channel=3, data=[81, 0]),\n",
      "   midi.NoteOnEvent(tick=0, channel=3, data=[76, 80]),\n",
      "   midi.NoteOffEvent(tick=96, channel=3, data=[76, 0]),\n",
      "   midi.NoteOnEvent(tick=0, channel=3, data=[74, 80]),\n",
      "   midi.NoteOffEvent(tick=96, channel=3, data=[74, 0]),\n",
      "   midi.NoteOnEvent(tick=0, channel=3, data=[73, 80]),\n",
      "   midi.NoteOffEvent(tick=96, channel=3, data=[73, 0]),\n",
      "   midi.NoteOnEvent(tick=0, channel=3, data=[74, 80]),\n",
      "   midi.NoteOffEvent(tick=96, channel=3, data=[74, 0]),\n",
      "   midi.NoteOnEvent(tick=0, channel=3, data=[73, 80]),\n",
      "   midi.NoteOffEvent(tick=96, channel=3, data=[73, 0]),\n",
      "   midi.NoteOnEvent(tick=0, channel=3, data=[71, 80]),\n",
      "   midi.NoteOffEvent(tick=96, channel=3, data=[71, 0]),\n",
      "   midi.NoteOnEvent(tick=0, channel=3, data=[73, 80]),\n",
      "   midi.NoteOffEvent(tick=96, channel=3, data=[73, 0]),\n",
      "   midi.NoteOnEvent(tick=0, channel=3, data=[69, 80]),\n",
      "   midi.NoteOffEvent(tick=480, channel=3, data=[69, 0]),\n",
      "   midi.NoteOnEvent(tick=0, channel=3, data=[64, 80]),\n",
      "   midi.NoteOffEvent(tick=96, channel=3, data=[64, 0]),\n",
      "   midi.NoteOnEvent(tick=0, channel=3, data=[69, 80]),\n",
      "   midi.NoteOffEvent(tick=96, channel=3, data=[69, 0]),\n",
      "   midi.NoteOnEvent(tick=0, channel=3, data=[71, 80]),\n",
      "   midi.NoteOffEvent(tick=96, channel=3, data=[71, 0]),\n",
      "   midi.NoteOnEvent(tick=0, channel=3, data=[73, 80]),\n",
      "   midi.NoteOffEvent(tick=96, channel=3, data=[73, 0]),\n",
      "   midi.NoteOnEvent(tick=0, channel=3, data=[74, 80]),\n",
      "   midi.NoteOffEvent(tick=96, channel=3, data=[74, 0]),\n",
      "   midi.NoteOnEvent(tick=0, channel=3, data=[76, 80]),\n",
      "   midi.NoteOffEvent(tick=96, channel=3, data=[76, 0]),\n",
      "   midi.NoteOnEvent(tick=96, channel=3, data=[76, 80]),\n",
      "   midi.NoteOffEvent(tick=96, channel=3, data=[76, 0]),\n",
      "   midi.NoteOnEvent(tick=96, channel=3, data=[76, 80]),\n",
      "   midi.NoteOffEvent(tick=96, channel=3, data=[76, 0]),\n",
      "   midi.NoteOnEvent(tick=96, channel=3, data=[76, 80]),\n",
      "   midi.NoteOffEvent(tick=864, channel=3, data=[76, 0]),\n",
      "   midi.NoteOnEvent(tick=0, channel=3, data=[79, 80]),\n",
      "   midi.NoteOffEvent(tick=96, channel=3, data=[79, 0]),\n",
      "   midi.NoteOnEvent(tick=0, channel=3, data=[78, 80]),\n",
      "   midi.NoteOffEvent(tick=96, channel=3, data=[78, 0]),\n",
      "   midi.NoteOnEvent(tick=0, channel=3, data=[76, 80]),\n",
      "   midi.NoteOffEvent(tick=96, channel=3, data=[76, 0]),\n",
      "   midi.NoteOnEvent(tick=0, channel=3, data=[78, 80]),\n",
      "   midi.NoteOffEvent(tick=96, channel=3, data=[78, 0]),\n",
      "   midi.NoteOnEvent(tick=0, channel=3, data=[76, 80]),\n",
      "   midi.NoteOffEvent(tick=96, channel=3, data=[76, 0]),\n",
      "   midi.NoteOnEvent(tick=0, channel=3, data=[74, 80]),\n",
      "   midi.NoteOffEvent(tick=96, channel=3, data=[74, 0]),\n",
      "   midi.NoteOnEvent(tick=0, channel=3, data=[73, 80]),\n",
      "   midi.NoteOffEvent(tick=96, channel=3, data=[73, 0]),\n",
      "   midi.NoteOnEvent(tick=0, channel=3, data=[74, 80]),\n",
      "   midi.NoteOffEvent(tick=96, channel=3, data=[74, 0]),\n",
      "   midi.NoteOnEvent(tick=0, channel=3, data=[76, 80]),\n",
      "   midi.NoteOffEvent(tick=96, channel=3, data=[76, 0]),\n",
      "   midi.NoteOnEvent(tick=0, channel=3, data=[74, 80]),\n",
      "   midi.NoteOffEvent(tick=96, channel=3, data=[74, 0]),\n",
      "   midi.NoteOnEvent(tick=0, channel=3, data=[73, 80]),\n",
      "   midi.NoteOffEvent(tick=96, channel=3, data=[73, 0]),\n",
      "   midi.NoteOnEvent(tick=0, channel=3, data=[71, 80]),\n",
      "   midi.NoteOffEvent(tick=96, channel=3, data=[71, 0]),\n",
      "   midi.NoteOnEvent(tick=0, channel=3, data=[73, 80]),\n",
      "   midi.NoteOffEvent(tick=96, channel=3, data=[73, 0]),\n",
      "   midi.NoteOnEvent(tick=0, channel=3, data=[74, 80]),\n",
      "   midi.NoteOffEvent(tick=96, channel=3, data=[74, 0]),\n",
      "   midi.NoteOnEvent(tick=0, channel=3, data=[76, 80]),\n",
      "   midi.NoteOffEvent(tick=96, channel=3, data=[76, 0]),\n",
      "   midi.NoteOnEvent(tick=0, channel=3, data=[78, 80]),\n",
      "   midi.NoteOffEvent(tick=192, channel=3, data=[78, 0]),\n",
      "   midi.NoteOnEvent(tick=0, channel=3, data=[81, 80]),\n",
      "   midi.NoteOffEvent(tick=192, channel=3, data=[81, 0]),\n",
      "   midi.NoteOnEvent(tick=0, channel=3, data=[78, 80]),\n",
      "   midi.NoteOffEvent(tick=192, channel=3, data=[78, 0]),\n",
      "   midi.NoteOnEvent(tick=0, channel=3, data=[75, 80]),\n",
      "   midi.NoteOffEvent(tick=192, channel=3, data=[75, 0]),\n",
      "   midi.NoteOnEvent(tick=0, channel=3, data=[84, 80]),\n",
      "   midi.NoteOffEvent(tick=192, channel=3, data=[84, 0]),\n",
      "   midi.NoteOnEvent(tick=0, channel=3, data=[81, 80]),\n",
      "   midi.NoteOffEvent(tick=192, channel=3, data=[81, 0]),\n",
      "   midi.NoteOnEvent(tick=576, channel=3, data=[83, 80]),\n",
      "   midi.NoteOffEvent(tick=256, channel=3, data=[83, 0]),\n",
      "   midi.NoteOnEvent(tick=32, channel=3, data=[81, 80]),\n",
      "   midi.NoteOffEvent(tick=96, channel=3, data=[81, 0]),\n",
      "   midi.NoteOnEvent(tick=0, channel=3, data=[79, 80]),\n",
      "   midi.NoteOffEvent(tick=96, channel=3, data=[79, 0]),\n",
      "   midi.NoteOnEvent(tick=0, channel=3, data=[78, 80]),\n",
      "   midi.NoteOffEvent(tick=96, channel=3, data=[78, 0]),\n",
      "   midi.NoteOnEvent(tick=0, channel=3, data=[79, 80]),\n",
      "   midi.NoteOffEvent(tick=192, channel=3, data=[79, 0]),\n",
      "   midi.NoteOnEvent(tick=0, channel=3, data=[83, 80]),\n",
      "   midi.NoteOffEvent(tick=192, channel=3, data=[83, 0]),\n",
      "   midi.NoteOnEvent(tick=0, channel=3, data=[79, 80]),\n",
      "   midi.NoteOffEvent(tick=192, channel=3, data=[79, 0]),\n",
      "   midi.NoteOnEvent(tick=0, channel=3, data=[76, 80]),\n",
      "   midi.NoteOffEvent(tick=192, channel=3, data=[76, 0]),\n",
      "   midi.NoteOnEvent(tick=576, channel=3, data=[79, 80]),\n",
      "   midi.NoteOffEvent(tick=384, channel=3, data=[79, 0]),\n",
      "   midi.NoteOnEvent(tick=0, channel=3, data=[73, 80]),\n",
      "   midi.NoteOffEvent(tick=192, channel=3, data=[73, 0]),\n",
      "   midi.NoteOnEvent(tick=0, channel=3, data=[69, 80]),\n",
      "   midi.NoteOffEvent(tick=192, channel=3, data=[69, 0]),\n",
      "   midi.NoteOnEvent(tick=0, channel=3, data=[79, 80]),\n",
      "   midi.NoteOffEvent(tick=192, channel=3, data=[79, 0]),\n",
      "   midi.NoteOnEvent(tick=0, channel=3, data=[78, 80]),\n",
      "   midi.NoteOffEvent(tick=192, channel=3, data=[78, 0]),\n",
      "   midi.NoteOnEvent(tick=0, channel=3, data=[74, 80]),\n",
      "   midi.NoteOffEvent(tick=192, channel=3, data=[74, 0]),\n",
      "   midi.NoteOnEvent(tick=192, channel=3, data=[78, 80]),\n",
      "   midi.NoteOffEvent(tick=384, channel=3, data=[78, 0]),\n",
      "   midi.NoteOnEvent(tick=0, channel=3, data=[67, 80]),\n",
      "   midi.NoteOffEvent(tick=192, channel=3, data=[67, 0]),\n",
      "   midi.NoteOnEvent(tick=0, channel=3, data=[71, 80]),\n",
      "   midi.NoteOffEvent(tick=192, channel=3, data=[71, 0]),\n",
      "   midi.NoteOnEvent(tick=0, channel=3, data=[74, 80]),\n",
      "   midi.NoteOffEvent(tick=192, channel=3, data=[74, 0]),\n",
      "   midi.NoteOnEvent(tick=0, channel=3, data=[79, 80]),\n",
      "   midi.NoteOffEvent(tick=96, channel=3, data=[79, 0]),\n",
      "   midi.NoteOnEvent(tick=0, channel=3, data=[78, 80]),\n",
      "   midi.NoteOffEvent(tick=96, channel=3, data=[78, 0]),\n",
      "   midi.NoteOnEvent(tick=0, channel=3, data=[76, 80]),\n",
      "   midi.NoteOffEvent(tick=96, channel=3, data=[76, 0]),\n",
      "   midi.NoteOnEvent(tick=0, channel=3, data=[78, 80]),\n",
      "   midi.NoteOffEvent(tick=96, channel=3, data=[78, 0]),\n",
      "   midi.NoteOnEvent(tick=0, channel=3, data=[79, 80]),\n",
      "   midi.NoteOffEvent(tick=96, channel=3, data=[79, 0]),\n",
      "   midi.NoteOnEvent(tick=0, channel=3, data=[78, 80]),\n",
      "   midi.NoteOffEvent(tick=96, channel=3, data=[78, 0]),\n",
      "   midi.NoteOnEvent(tick=0, channel=3, data=[76, 80]),\n",
      "   midi.NoteOffEvent(tick=96, channel=3, data=[76, 0]),\n",
      "   midi.NoteOnEvent(tick=0, channel=3, data=[78, 80]),\n",
      "   midi.NoteOffEvent(tick=96, channel=3, data=[78, 0]),\n",
      "   midi.NoteOnEvent(tick=0, channel=3, data=[79, 80]),\n",
      "   midi.NoteOffEvent(tick=512, channel=3, data=[79, 0]),\n",
      "   midi.NoteOnEvent(tick=64, channel=3, data=[78, 80]),\n",
      "   midi.NoteOffEvent(tick=96, channel=3, data=[78, 0]),\n",
      "   midi.NoteOnEvent(tick=0, channel=3, data=[76, 80]),\n",
      "   midi.NoteOffEvent(tick=96, channel=3, data=[76, 0]),\n",
      "   midi.NoteOnEvent(tick=0, channel=3, data=[78, 80]),\n",
      "   midi.NoteOffEvent(tick=96, channel=3, data=[78, 0]),\n",
      "   midi.NoteOnEvent(tick=0, channel=3, data=[81, 80]),\n",
      "   midi.NoteOffEvent(tick=96, channel=3, data=[81, 0]),\n",
      "   midi.NoteOnEvent(tick=0, channel=3, data=[79, 80]),\n",
      "   midi.NoteOffEvent(tick=96, channel=3, data=[79, 0]),\n",
      "   midi.NoteOnEvent(tick=0, channel=3, data=[78, 80]),\n",
      "   midi.NoteOffEvent(tick=96, channel=3, data=[78, 0]),\n",
      "   midi.NoteOnEvent(tick=0, channel=3, data=[79, 80]),\n",
      "   midi.NoteOffEvent(tick=96, channel=3, data=[79, 0]),\n",
      "   midi.NoteOnEvent(tick=0, channel=3, data=[78, 80]),\n",
      "   midi.NoteOffEvent(tick=96, channel=3, data=[78, 0]),\n",
      "   midi.NoteOnEvent(tick=0, channel=3, data=[76, 80]),\n",
      "   midi.NoteOffEvent(tick=96, channel=3, data=[76, 0]),\n",
      "   midi.NoteOnEvent(tick=0, channel=3, data=[78, 80]),\n",
      "   midi.NoteOffEvent(tick=96, channel=3, data=[78, 0]),\n",
      "   midi.NoteOnEvent(tick=0, channel=3, data=[74, 80]),\n",
      "   midi.NoteOffEvent(tick=384, channel=3, data=[74, 0]),\n",
      "   midi.NoteOnEvent(tick=1152, channel=3, data=[74, 80]),\n",
      "   midi.NoteOffEvent(tick=96, channel=3, data=[74, 0]),\n",
      "   midi.NoteOnEvent(tick=0, channel=3, data=[76, 80]),\n",
      "   midi.NoteOffEvent(tick=96, channel=3, data=[76, 0]),\n",
      "   midi.NoteOnEvent(tick=0, channel=3, data=[78, 80]),\n",
      "   midi.NoteOffEvent(tick=96, channel=3, data=[78, 0]),\n",
      "   midi.NoteOnEvent(tick=96, channel=3, data=[78, 80]),\n",
      "   midi.NoteOffEvent(tick=96, channel=3, data=[78, 0]),\n",
      "   midi.NoteOnEvent(tick=96, channel=3, data=[78, 80]),\n",
      "   midi.NoteOffEvent(tick=96, channel=3, data=[78, 0]),\n",
      "   midi.NoteOnEvent(tick=96, channel=3, data=[78, 80]),\n",
      "   midi.NoteOffEvent(tick=192, channel=3, data=[78, 0]),\n",
      "   midi.NoteOnEvent(tick=2112, channel=3, data=[73, 80]),\n",
      "   midi.NoteOffEvent(tick=96, channel=3, data=[73, 0]),\n",
      "   midi.NoteOnEvent(tick=0, channel=3, data=[74, 80]),\n",
      "   midi.NoteOffEvent(tick=96, channel=3, data=[74, 0]),\n",
      "   midi.NoteOnEvent(tick=0, channel=3, data=[76, 80]),\n",
      "   midi.NoteOffEvent(tick=96, channel=3, data=[76, 0]),\n",
      "   midi.NoteOnEvent(tick=96, channel=3, data=[76, 80]),\n",
      "   midi.NoteOffEvent(tick=96, channel=3, data=[76, 0]),\n",
      "   midi.NoteOnEvent(tick=96, channel=3, data=[76, 80]),\n",
      "   midi.NoteOffEvent(tick=96, channel=3, data=[76, 0]),\n",
      "   midi.NoteOnEvent(tick=96, channel=3, data=[74, 80]),\n",
      "   midi.NoteOffEvent(tick=48, channel=3, data=[74, 0]),\n",
      "   midi.NoteOnEvent(tick=0, channel=3, data=[76, 80]),\n",
      "   midi.NoteOffEvent(tick=48, channel=3, data=[76, 0]),\n",
      "   midi.NoteOnEvent(tick=0, channel=3, data=[78, 80]),\n",
      "   midi.NoteOffEvent(tick=256, channel=3, data=[78, 0]),\n",
      "   midi.NoteOnEvent(tick=32, channel=3, data=[76, 80]),\n",
      "   midi.NoteOffEvent(tick=48, channel=3, data=[76, 0]),\n",
      "   midi.NoteOnEvent(tick=0, channel=3, data=[78, 80]),\n",
      "   midi.NoteOffEvent(tick=48, channel=3, data=[78, 0]),\n",
      "   midi.NoteOnEvent(tick=0, channel=3, data=[79, 80]),\n",
      "   midi.NoteOffEvent(tick=256, channel=3, data=[79, 0]),\n",
      "   midi.NoteOnEvent(tick=32, channel=3, data=[78, 80]),\n",
      "   midi.NoteOffEvent(tick=192, channel=3, data=[78, 0]),\n",
      "   midi.NoteOnEvent(tick=0, channel=3, data=[76, 80]),\n",
      "   midi.NoteOffEvent(tick=192, channel=3, data=[76, 0]),\n",
      "   midi.NoteOnEvent(tick=0, channel=3, data=[74, 80]),\n",
      "   midi.NoteOffEvent(tick=384, channel=3, data=[74, 0]),\n",
      "   midi.NoteOnEvent(tick=1344, channel=3, data=[69, 80]),\n",
      "   midi.NoteOffEvent(tick=192, channel=3, data=[69, 0]),\n",
      "   midi.NoteOnEvent(tick=0, channel=3, data=[74, 80]),\n",
      "   midi.NoteOffEvent(tick=48, channel=3, data=[74, 0]),\n",
      "   midi.NoteOnEvent(tick=0, channel=3, data=[76, 80]),\n",
      "   midi.NoteOffEvent(tick=48, channel=3, data=[76, 0]),\n",
      "   midi.NoteOnEvent(tick=0, channel=3, data=[78, 80]),\n",
      "   midi.NoteOffEvent(tick=256, channel=3, data=[78, 0]),\n",
      "   midi.NoteOnEvent(tick=32, channel=3, data=[76, 80]),\n",
      "   midi.NoteOffEvent(tick=48, channel=3, data=[76, 0]),\n",
      "   midi.NoteOnEvent(tick=0, channel=3, data=[78, 80]),\n",
      "   midi.NoteOffEvent(tick=48, channel=3, data=[78, 0]),\n",
      "   midi.NoteOnEvent(tick=0, channel=3, data=[79, 80]),\n",
      "   midi.NoteOffEvent(tick=256, channel=3, data=[79, 0]),\n",
      "   midi.NoteOnEvent(tick=32, channel=3, data=[78, 80]),\n",
      "   midi.NoteOffEvent(tick=192, channel=3, data=[78, 0]),\n",
      "   midi.NoteOnEvent(tick=0, channel=3, data=[81, 80]),\n",
      "   midi.NoteOffEvent(tick=192, channel=3, data=[81, 0]),\n",
      "   midi.NoteOnEvent(tick=0, channel=3, data=[78, 80]),\n",
      "   midi.NoteOffEvent(tick=192, channel=3, data=[78, 0]),\n",
      "   midi.NoteOnEvent(tick=0, channel=3, data=[74, 80]),\n",
      "   midi.NoteOffEvent(tick=192, channel=3, data=[74, 0]),\n",
      "   midi.NoteOnEvent(tick=192, channel=3, data=[69, 80]),\n",
      "   midi.NoteOffEvent(tick=192, channel=3, data=[69, 0]),\n",
      "   midi.NoteOnEvent(tick=0, channel=3, data=[74, 80]),\n",
      "   midi.NoteOffEvent(tick=192, channel=3, data=[74, 0]),\n",
      "   midi.NoteOnEvent(tick=0, channel=3, data=[78, 80]),\n",
      "   midi.NoteOffEvent(tick=192, channel=3, data=[78, 0]),\n",
      "   midi.NoteOnEvent(tick=192, channel=3, data=[74, 80]),\n",
      "   midi.NoteOffEvent(tick=192, channel=3, data=[74, 0]),\n",
      "   midi.NoteOnEvent(tick=0, channel=3, data=[78, 80]),\n",
      "   midi.NoteOffEvent(tick=192, channel=3, data=[78, 0]),\n",
      "   midi.NoteOnEvent(tick=0, channel=3, data=[83, 80]),\n",
      "   midi.NoteOffEvent(tick=192, channel=3, data=[83, 0]),\n",
      "   midi.NoteOnEvent(tick=192, channel=3, data=[71, 80]),\n",
      "   midi.NoteOffEvent(tick=192, channel=3, data=[71, 0]),\n",
      "   midi.NoteOnEvent(tick=0, channel=3, data=[76, 80]),\n",
      "   midi.NoteOffEvent(tick=192, channel=3, data=[76, 0]),\n",
      "   midi.NoteOnEvent(tick=0, channel=3, data=[79, 80]),\n",
      "   midi.NoteOffEvent(tick=192, channel=3, data=[79, 0]),\n",
      "   midi.NoteOnEvent(tick=192, channel=3, data=[76, 80]),\n",
      "   midi.NoteOffEvent(tick=192, channel=3, data=[76, 0]),\n",
      "   midi.NoteOnEvent(tick=0, channel=3, data=[73, 80]),\n",
      "   midi.NoteOffEvent(tick=192, channel=3, data=[73, 0]),\n",
      "   midi.NoteOnEvent(tick=0, channel=3, data=[69, 80]),\n",
      "   midi.NoteOffEvent(tick=192, channel=3, data=[69, 0]),\n",
      "   midi.NoteOnEvent(tick=960, channel=3, data=[83, 80]),\n",
      "   midi.NoteOffEvent(tick=96, channel=3, data=[83, 0]),\n",
      "   midi.NoteOnEvent(tick=0, channel=3, data=[81, 80]),\n",
      "   midi.NoteOffEvent(tick=96, channel=3, data=[81, 0]),\n",
      "   midi.NoteOnEvent(tick=0, channel=3, data=[83, 80]),\n",
      "   midi.NoteOffEvent(tick=96, channel=3, data=[83, 0]),\n",
      "   midi.NoteOnEvent(tick=0, channel=3, data=[81, 80]),\n",
      "   midi.NoteOffEvent(tick=96, channel=3, data=[81, 0]),\n",
      "   midi.NoteOnEvent(tick=0, channel=3, data=[80, 80]),\n",
      "   midi.NoteOffEvent(tick=96, channel=3, data=[80, 0]),\n",
      "   midi.NoteOnEvent(tick=0, channel=3, data=[78, 80]),\n",
      "   midi.NoteOffEvent(tick=96, channel=3, data=[78, 0]),\n",
      "   midi.NoteOnEvent(tick=0, channel=3, data=[76, 80]),\n",
      "   midi.NoteOffEvent(tick=192, channel=3, data=[76, 0]),\n",
      "   midi.NoteOnEvent(tick=768, channel=3, data=[81, 80]),\n",
      "   midi.NoteOffEvent(tick=96, channel=3, data=[81, 0]),\n",
      "   midi.NoteOnEvent(tick=0, channel=3, data=[80, 80]),\n",
      "   midi.NoteOffEvent(tick=96, channel=3, data=[80, 0]),\n",
      "   midi.NoteOnEvent(tick=0, channel=3, data=[81, 80]),\n",
      "   midi.NoteOffEvent(tick=96, channel=3, data=[81, 0]),\n",
      "   midi.NoteOnEvent(tick=0, channel=3, data=[80, 80]),\n",
      "   midi.NoteOffEvent(tick=96, channel=3, data=[80, 0]),\n",
      "   midi.NoteOnEvent(tick=0, channel=3, data=[78, 80]),\n",
      "   midi.NoteOffEvent(tick=96, channel=3, data=[78, 0]),\n",
      "   midi.NoteOnEvent(tick=0, channel=3, data=[76, 80]),\n",
      "   midi.NoteOffEvent(tick=96, channel=3, data=[76, 0]),\n",
      "   midi.NoteOnEvent(tick=0, channel=3, data=[74, 80]),\n",
      "   midi.NoteOffEvent(tick=192, channel=3, data=[74, 0]),\n",
      "   midi.NoteOnEvent(tick=0, channel=3, data=[78, 80]),\n",
      "   midi.NoteOffEvent(tick=192, channel=3, data=[78, 0]),\n",
      "   midi.NoteOnEvent(tick=0, channel=3, data=[80, 80]),\n",
      "   midi.NoteOffEvent(tick=192, channel=3, data=[80, 0]),\n",
      "   midi.NoteOnEvent(tick=0, channel=3, data=[81, 80]),\n",
      "   midi.NoteOffEvent(tick=192, channel=3, data=[81, 0]),\n",
      "   midi.NoteOnEvent(tick=0, channel=3, data=[83, 80]),\n",
      "   midi.NoteOffEvent(tick=192, channel=3, data=[83, 0]),\n",
      "   midi.NoteOnEvent(tick=0, channel=3, data=[71, 80]),\n",
      "   midi.NoteOffEvent(tick=96, channel=3, data=[71, 0]),\n",
      "   midi.NoteOnEvent(tick=0, channel=3, data=[73, 80]),\n",
      "   midi.NoteOffEvent(tick=96, channel=3, data=[73, 0]),\n",
      "   midi.NoteOnEvent(tick=0, channel=3, data=[74, 80]),\n",
      "   midi.NoteOffEvent(tick=96, channel=3, data=[74, 0]),\n",
      "   midi.NoteOnEvent(tick=0, channel=3, data=[76, 80]),\n",
      "   midi.NoteOffEvent(tick=96, channel=3, data=[76, 0]),\n",
      "   midi.NoteOnEvent(tick=0, channel=3, data=[78, 80]),\n",
      "   midi.NoteOffEvent(tick=96, channel=3, data=[78, 0]),\n",
      "   midi.NoteOnEvent(tick=0, channel=3, data=[80, 80]),\n",
      "   midi.NoteOffEvent(tick=96, channel=3, data=[80, 0]),\n",
      "   midi.NoteOnEvent(tick=0, channel=3, data=[81, 80]),\n",
      "   midi.NoteOffEvent(tick=96, channel=3, data=[81, 0]),\n",
      "   midi.NoteOnEvent(tick=0, channel=3, data=[76, 80]),\n",
      "   midi.NoteOffEvent(tick=96, channel=3, data=[76, 0]),\n",
      "   midi.NoteOnEvent(tick=0, channel=3, data=[74, 80]),\n",
      "   midi.NoteOffEvent(tick=96, channel=3, data=[74, 0]),\n",
      "   midi.NoteOnEvent(tick=0, channel=3, data=[73, 80]),\n",
      "   midi.NoteOffEvent(tick=96, channel=3, data=[73, 0]),\n",
      "   midi.NoteOnEvent(tick=0, channel=3, data=[74, 80]),\n",
      "   midi.NoteOffEvent(tick=96, channel=3, data=[74, 0]),\n",
      "   midi.NoteOnEvent(tick=0, channel=3, data=[73, 80]),\n",
      "   midi.NoteOffEvent(tick=96, channel=3, data=[73, 0]),\n",
      "   midi.NoteOnEvent(tick=0, channel=3, data=[71, 80]),\n",
      "   midi.NoteOffEvent(tick=96, channel=3, data=[71, 0]),\n",
      "   midi.NoteOnEvent(tick=0, channel=3, data=[73, 80]),\n",
      "   midi.NoteOffEvent(tick=96, channel=3, data=[73, 0]),\n",
      "   midi.NoteOnEvent(tick=1536, channel=3, data=[80, 80]),\n",
      "   midi.NoteOffEvent(tick=96, channel=3, data=[80, 0]),\n",
      "   midi.NoteOnEvent(tick=0, channel=3, data=[81, 80]),\n",
      "   midi.NoteOffEvent(tick=96, channel=3, data=[81, 0]),\n",
      "   midi.NoteOnEvent(tick=0, channel=3, data=[83, 80]),\n",
      "   midi.NoteOffEvent(tick=96, channel=3, data=[83, 0]),\n",
      "   midi.NoteOnEvent(tick=96, channel=3, data=[83, 80]),\n",
      "   midi.NoteOffEvent(tick=96, channel=3, data=[83, 0]),\n",
      "   midi.NoteOnEvent(tick=96, channel=3, data=[76, 80]),\n",
      "   midi.NoteOffEvent(tick=96, channel=3, data=[76, 0]),\n",
      "   midi.NoteOnEvent(tick=96, channel=3, data=[69, 80]),\n",
      "   midi.NoteOffEvent(tick=48, channel=3, data=[69, 0]),\n",
      "   midi.NoteOnEvent(tick=0, channel=3, data=[71, 80]),\n",
      "   midi.NoteOffEvent(tick=48, channel=3, data=[71, 0]),\n",
      "   midi.NoteOnEvent(tick=0, channel=3, data=[73, 80]),\n",
      "   midi.NoteOffEvent(tick=256, channel=3, data=[73, 0]),\n",
      "   midi.NoteOnEvent(tick=32, channel=3, data=[71, 80]),\n",
      "   midi.NoteOffEvent(tick=48, channel=3, data=[71, 0]),\n",
      "   midi.NoteOnEvent(tick=0, channel=3, data=[73, 80]),\n",
      "   midi.NoteOffEvent(tick=48, channel=3, data=[73, 0]),\n",
      "   midi.NoteOnEvent(tick=0, channel=3, data=[74, 80]),\n",
      "   midi.NoteOffEvent(tick=256, channel=3, data=[74, 0]),\n",
      "   midi.NoteOnEvent(tick=32, channel=3, data=[73, 80]),\n",
      "   midi.NoteOffEvent(tick=192, channel=3, data=[73, 0]),\n",
      "   midi.NoteOnEvent(tick=0, channel=3, data=[71, 80]),\n",
      "   midi.NoteOffEvent(tick=192, channel=3, data=[71, 0]),\n",
      "   midi.NoteOnEvent(tick=0, channel=3, data=[69, 80]),\n",
      "   midi.NoteOffEvent(tick=96, channel=3, data=[69, 0]),\n",
      "   midi.NoteOnEvent(tick=0, channel=3, data=[71, 80]),\n",
      "   midi.NoteOffEvent(tick=96, channel=3, data=[71, 0]),\n",
      "   midi.NoteOnEvent(tick=0, channel=3, data=[73, 80]),\n",
      "   midi.NoteOffEvent(tick=96, channel=3, data=[73, 0]),\n",
      "   midi.NoteOnEvent(tick=0, channel=3, data=[74, 80]),\n",
      "   midi.NoteOffEvent(tick=96, channel=3, data=[74, 0]),\n",
      "   midi.NoteOnEvent(tick=0, channel=3, data=[76, 80]),\n",
      "   midi.NoteOffEvent(tick=96, channel=3, data=[76, 0]),\n",
      "   midi.NoteOnEvent(tick=0, channel=3, data=[74, 80]),\n",
      "   midi.NoteOffEvent(tick=96, channel=3, data=[74, 0]),\n",
      "   midi.NoteOnEvent(tick=0, channel=3, data=[73, 80]),\n",
      "   midi.NoteOffEvent(tick=96, channel=3, data=[73, 0]),\n",
      "   midi.NoteOnEvent(tick=0, channel=3, data=[74, 80]),\n",
      "   midi.NoteOffEvent(tick=96, channel=3, data=[74, 0]),\n",
      "   midi.NoteOnEvent(tick=0, channel=3, data=[76, 80]),\n",
      "   midi.NoteOffEvent(tick=96, channel=3, data=[76, 0]),\n",
      "   midi.NoteOnEvent(tick=0, channel=3, data=[78, 80]),\n",
      "   midi.NoteOffEvent(tick=96, channel=3, data=[78, 0]),\n",
      "   midi.NoteOnEvent(tick=0, channel=3, data=[79, 80]),\n",
      "   midi.NoteOffEvent(tick=96, channel=3, data=[79, 0]),\n",
      "   midi.NoteOnEvent(tick=0, channel=3, data=[76, 80]),\n",
      "   midi.NoteOffEvent(tick=96, channel=3, data=[76, 0]),\n",
      "   midi.NoteOnEvent(tick=0, channel=3, data=[73, 80]),\n",
      "   midi.NoteOffEvent(tick=192, channel=3, data=[73, 0]),\n",
      "   midi.NoteOnEvent(tick=0, channel=3, data=[69, 80]),\n",
      "   midi.NoteOffEvent(tick=192, channel=3, data=[69, 0]),\n",
      "   midi.NoteOnEvent(tick=192, channel=3, data=[69, 80]),\n",
      "   midi.NoteOffEvent(tick=192, channel=3, data=[69, 0]),\n",
      "   midi.NoteOnEvent(tick=0, channel=3, data=[74, 80]),\n",
      "   midi.NoteOffEvent(tick=48, channel=3, data=[74, 0]),\n",
      "   midi.NoteOnEvent(tick=0, channel=3, data=[76, 80]),\n",
      "   midi.NoteOffEvent(tick=48, channel=3, data=[76, 0]),\n",
      "   midi.NoteOnEvent(tick=0, channel=3, data=[78, 80]),\n",
      "   midi.NoteOffEvent(tick=256, channel=3, data=[78, 0]),\n",
      "   midi.NoteOnEvent(tick=32, channel=3, data=[76, 80]),\n",
      "   midi.NoteOffEvent(tick=48, channel=3, data=[76, 0]),\n",
      "   midi.NoteOnEvent(tick=0, channel=3, data=[78, 80]),\n",
      "   midi.NoteOffEvent(tick=48, channel=3, data=[78, 0]),\n",
      "   midi.NoteOnEvent(tick=0, channel=3, data=[79, 80]),\n",
      "   midi.NoteOffEvent(tick=256, channel=3, data=[79, 0]),\n",
      "   midi.NoteOnEvent(tick=32, channel=3, data=[78, 80]),\n",
      "   midi.NoteOffEvent(tick=192, channel=3, data=[78, 0]),\n",
      "   midi.NoteOnEvent(tick=0, channel=3, data=[76, 80]),\n",
      "   midi.NoteOffEvent(tick=192, channel=3, data=[76, 0]),\n",
      "   midi.NoteOnEvent(tick=0, channel=3, data=[74, 80]),\n",
      "   midi.NoteOffEvent(tick=192, channel=3, data=[74, 0]),\n",
      "   midi.NoteOnEvent(tick=0, channel=3, data=[73, 80]),\n",
      "   midi.NoteOffEvent(tick=192, channel=3, data=[73, 0]),\n",
      "   midi.NoteOnEvent(tick=0, channel=3, data=[71, 80]),\n",
      "   midi.NoteOffEvent(tick=864, channel=3, data=[71, 0]),\n",
      "   midi.NoteOnEvent(tick=0, channel=3, data=[69, 80]),\n",
      "   midi.NoteOffEvent(tick=96, channel=3, data=[69, 0]),\n",
      "   midi.NoteOnEvent(tick=0, channel=3, data=[68, 80]),\n",
      "   midi.NoteOffEvent(tick=96, channel=3, data=[68, 0]),\n",
      "   midi.NoteOnEvent(tick=0, channel=3, data=[69, 80]),\n",
      "   midi.NoteOffEvent(tick=96, channel=3, data=[69, 0]),\n",
      "   midi.NoteOnEvent(tick=0, channel=3, data=[71, 80]),\n",
      "   midi.NoteOffEvent(tick=192, channel=3, data=[71, 0]),\n",
      "   midi.NoteOnEvent(tick=0, channel=3, data=[73, 80]),\n",
      "   midi.NoteOffEvent(tick=192, channel=3, data=[73, 0]),\n",
      "   midi.NoteOnEvent(tick=0, channel=3, data=[74, 80]),\n",
      "   midi.NoteOffEvent(tick=864, channel=3, data=[74, 0]),\n",
      "   midi.NoteOnEvent(tick=0, channel=3, data=[73, 80]),\n",
      "   midi.NoteOffEvent(tick=96, channel=3, data=[73, 0]),\n",
      "   midi.NoteOnEvent(tick=0, channel=3, data=[71, 80]),\n",
      "   midi.NoteOffEvent(tick=96, channel=3, data=[71, 0]),\n",
      "   midi.NoteOnEvent(tick=0, channel=3, data=[73, 80]),\n",
      "   midi.NoteOffEvent(tick=96, channel=3, data=[73, 0]),\n",
      "   midi.NoteOnEvent(tick=0, channel=3, data=[74, 80]),\n",
      "   midi.NoteOffEvent(tick=192, channel=3, data=[74, 0]),\n",
      "   midi.NoteOnEvent(tick=0, channel=3, data=[76, 80]),\n",
      "   midi.NoteOffEvent(tick=192, channel=3, data=[76, 0]),\n",
      "   midi.NoteOnEvent(tick=0, channel=3, data=[73, 80]),\n",
      "   midi.NoteOffEvent(tick=96, channel=3, data=[73, 0]),\n",
      "   midi.NoteOnEvent(tick=0, channel=3, data=[71, 80]),\n",
      "   midi.NoteOffEvent(tick=96, channel=3, data=[71, 0]),\n",
      "   midi.NoteOnEvent(tick=0, channel=3, data=[69, 80]),\n",
      "   midi.NoteOffEvent(tick=96, channel=3, data=[69, 0]),\n",
      "   midi.NoteOnEvent(tick=0, channel=3, data=[71, 80]),\n",
      "   midi.NoteOffEvent(tick=96, channel=3, data=[71, 0]),\n",
      "   midi.NoteOnEvent(tick=0, channel=3, data=[73, 80]),\n",
      "   midi.NoteOffEvent(tick=96, channel=3, data=[73, 0]),\n",
      "   midi.NoteOnEvent(tick=0, channel=3, data=[71, 80]),\n",
      "   midi.NoteOffEvent(tick=96, channel=3, data=[71, 0]),\n",
      "   midi.NoteOnEvent(tick=0, channel=3, data=[69, 80]),\n",
      "   midi.NoteOffEvent(tick=96, channel=3, data=[69, 0]),\n",
      "   midi.NoteOnEvent(tick=0, channel=3, data=[71, 80]),\n",
      "   midi.NoteOffEvent(tick=96, channel=3, data=[71, 0]),\n",
      "   midi.NoteOnEvent(tick=0, channel=3, data=[73, 80]),\n",
      "   midi.NoteOffEvent(tick=96, channel=3, data=[73, 0]),\n",
      "   midi.NoteOnEvent(tick=0, channel=3, data=[71, 80]),\n",
      "   midi.NoteOffEvent(tick=96, channel=3, data=[71, 0]),\n",
      "   midi.NoteOnEvent(tick=0, channel=3, data=[73, 80]),\n",
      "   midi.NoteOffEvent(tick=96, channel=3, data=[73, 0]),\n",
      "   midi.NoteOnEvent(tick=0, channel=3, data=[74, 80]),\n",
      "   midi.NoteOffEvent(tick=96, channel=3, data=[74, 0]),\n",
      "   midi.NoteOnEvent(tick=0, channel=3, data=[76, 80]),\n",
      "   midi.NoteOffEvent(tick=192, channel=3, data=[76, 0]),\n",
      "   midi.NoteOnEvent(tick=0, channel=3, data=[69, 80]),\n",
      "   midi.NoteOffEvent(tick=192, channel=3, data=[69, 0]),\n",
      "   midi.NoteOnEvent(tick=0, channel=3, data=[71, 80]),\n",
      "   midi.NoteOffEvent(tick=384, channel=3, data=[71, 0]),\n",
      "   midi.NoteOnEvent(tick=0, channel=3, data=[68, 80]),\n",
      "   midi.NoteOffEvent(tick=384, channel=3, data=[68, 0]),\n",
      "   midi.NoteOnEvent(tick=0, channel=3, data=[69, 80]),\n",
      "   midi.NoteOffEvent(tick=480, channel=3, data=[69, 0]),\n",
      "   midi.NoteOnEvent(tick=0, channel=3, data=[64, 80]),\n",
      "   midi.NoteOffEvent(tick=96, channel=3, data=[64, 0]),\n",
      "   midi.NoteOnEvent(tick=0, channel=3, data=[69, 80]),\n",
      "   midi.NoteOffEvent(tick=96, channel=3, data=[69, 0]),\n",
      "   midi.NoteOnEvent(tick=0, channel=3, data=[71, 80]),\n",
      "   midi.NoteOffEvent(tick=96, channel=3, data=[71, 0]),\n",
      "   midi.NoteOnEvent(tick=0, channel=3, data=[73, 80]),\n",
      "   midi.NoteOffEvent(tick=96, channel=3, data=[73, 0]),\n",
      "   midi.NoteOnEvent(tick=0, channel=3, data=[74, 80]),\n",
      "   midi.NoteOffEvent(tick=96, channel=3, data=[74, 0]),\n",
      "   midi.NoteOnEvent(tick=0, channel=3, data=[76, 80]),\n",
      "   midi.NoteOffEvent(tick=96, channel=3, data=[76, 0]),\n",
      "   midi.NoteOnEvent(tick=0, channel=3, data=[76, 80]),\n",
      "   midi.NoteOffEvent(tick=96, channel=3, data=[76, 0]),\n",
      "   midi.NoteOnEvent(tick=0, channel=3, data=[76, 80]),\n",
      "   midi.NoteOffEvent(tick=96, channel=3, data=[76, 0]),\n",
      "   midi.NoteOnEvent(tick=0, channel=3, data=[76, 80]),\n",
      "   midi.NoteOffEvent(tick=384, channel=3, data=[76, 0]),\n",
      "   midi.NoteOnEvent(tick=192, channel=3, data=[64, 80]),\n",
      "   midi.NoteOffEvent(tick=192, channel=3, data=[64, 0]),\n",
      "   midi.NoteOnEvent(tick=0, channel=3, data=[69, 80]),\n",
      "   midi.NoteOffEvent(tick=48, channel=3, data=[69, 0]),\n",
      "   midi.NoteOnEvent(tick=0, channel=3, data=[71, 80]),\n",
      "   midi.NoteOffEvent(tick=48, channel=3, data=[71, 0]),\n",
      "   midi.NoteOnEvent(tick=0, channel=3, data=[73, 80]),\n",
      "   midi.NoteOffEvent(tick=256, channel=3, data=[73, 0]),\n",
      "   midi.NoteOnEvent(tick=32, channel=3, data=[71, 80]),\n",
      "   midi.NoteOffEvent(tick=48, channel=3, data=[71, 0]),\n",
      "   midi.NoteOnEvent(tick=0, channel=3, data=[73, 80]),\n",
      "   midi.NoteOffEvent(tick=48, channel=3, data=[73, 0]),\n",
      "   midi.NoteOnEvent(tick=0, channel=3, data=[74, 80]),\n",
      "   midi.NoteOffEvent(tick=256, channel=3, data=[74, 0]),\n",
      "   midi.NoteOnEvent(tick=32, channel=3, data=[73, 80]),\n",
      "   midi.NoteOffEvent(tick=48, channel=3, data=[73, 0]),\n",
      "   midi.NoteOnEvent(tick=0, channel=3, data=[71, 80]),\n",
      "   midi.NoteOffEvent(tick=48, channel=3, data=[71, 0]),\n",
      "   midi.NoteOnEvent(tick=0, channel=3, data=[69, 80]),\n",
      "   midi.NoteOffEvent(tick=384, channel=3, data=[69, 0]),\n",
      "   midi.NoteOnEvent(tick=0, channel=3, data=[64, 80]),\n",
      "   midi.NoteOffEvent(tick=96, channel=3, data=[64, 0]),\n",
      "   midi.NoteOnEvent(tick=0, channel=3, data=[69, 80]),\n",
      "   midi.NoteOffEvent(tick=96, channel=3, data=[69, 0]),\n",
      "   midi.NoteOnEvent(tick=0, channel=3, data=[71, 80]),\n",
      "   midi.NoteOffEvent(tick=96, channel=3, data=[71, 0]),\n",
      "   midi.NoteOnEvent(tick=0, channel=3, data=[73, 80]),\n",
      "   midi.NoteOffEvent(tick=96, channel=3, data=[73, 0]),\n",
      "   midi.NoteOnEvent(tick=0, channel=3, data=[74, 80]),\n",
      "   midi.NoteOffEvent(tick=96, channel=3, data=[74, 0]),\n",
      "   midi.NoteOnEvent(tick=0, channel=3, data=[76, 80]),\n",
      "   midi.NoteOffEvent(tick=96, channel=3, data=[76, 0]),\n",
      "   midi.NoteOnEvent(tick=0, channel=3, data=[76, 80]),\n",
      "   midi.NoteOffEvent(tick=96, channel=3, data=[76, 0]),\n",
      "   midi.NoteOnEvent(tick=0, channel=3, data=[76, 80]),\n",
      "   midi.NoteOffEvent(tick=96, channel=3, data=[76, 0]),\n",
      "   midi.NoteOnEvent(tick=0, channel=3, data=[76, 80]),\n",
      "   midi.NoteOffEvent(tick=384, channel=3, data=[76, 0]),\n",
      "   midi.NoteOnEvent(tick=192, channel=3, data=[64, 80]),\n",
      "   midi.NoteOffEvent(tick=192, channel=3, data=[64, 0]),\n",
      "   midi.NoteOnEvent(tick=0, channel=3, data=[69, 80]),\n",
      "   midi.NoteOffEvent(tick=48, channel=3, data=[69, 0]),\n",
      "   midi.NoteOnEvent(tick=0, channel=3, data=[71, 80]),\n",
      "   midi.NoteOffEvent(tick=48, channel=3, data=[71, 0]),\n",
      "   midi.NoteOnEvent(tick=0, channel=3, data=[73, 80]),\n",
      "   midi.NoteOffEvent(tick=256, channel=3, data=[73, 0]),\n",
      "   midi.NoteOnEvent(tick=32, channel=3, data=[71, 80]),\n",
      "   midi.NoteOffEvent(tick=48, channel=3, data=[71, 0]),\n",
      "   midi.NoteOnEvent(tick=0, channel=3, data=[73, 80]),\n",
      "   midi.NoteOffEvent(tick=48, channel=3, data=[73, 0]),\n",
      "   midi.NoteOnEvent(tick=0, channel=3, data=[74, 80]),\n",
      "   midi.NoteOffEvent(tick=256, channel=3, data=[74, 0]),\n",
      "   midi.NoteOnEvent(tick=32, channel=3, data=[73, 80]),\n",
      "   midi.NoteOffEvent(tick=48, channel=3, data=[73, 0]),\n",
      "   midi.NoteOnEvent(tick=0, channel=3, data=[71, 80]),\n",
      "   midi.NoteOffEvent(tick=48, channel=3, data=[71, 0]),\n",
      "   midi.NoteOnEvent(tick=0, channel=3, data=[69, 80]),\n",
      "   midi.NoteOffEvent(tick=384, channel=3, data=[69, 0]),\n",
      "   midi.NoteOnEvent(tick=0, channel=3, data=[73, 80]),\n",
      "   midi.NoteOffEvent(tick=96, channel=3, data=[73, 0]),\n",
      "   midi.NoteOnEvent(tick=0, channel=3, data=[74, 80]),\n",
      "   midi.NoteOffEvent(tick=96, channel=3, data=[74, 0]),\n",
      "   midi.NoteOnEvent(tick=0, channel=3, data=[76, 80]),\n",
      "   midi.NoteOffEvent(tick=96, channel=3, data=[76, 0]),\n",
      "   midi.NoteOnEvent(tick=0, channel=3, data=[78, 80]),\n",
      "   midi.NoteOffEvent(tick=96, channel=3, data=[78, 0]),\n",
      "   midi.NoteOnEvent(tick=0, channel=3, data=[79, 80]),\n",
      "   midi.NoteOffEvent(tick=96, channel=3, data=[79, 0]),\n",
      "   midi.NoteOnEvent(tick=0, channel=3, data=[78, 80]),\n",
      "   midi.NoteOffEvent(tick=96, channel=3, data=[78, 0]),\n",
      "   midi.NoteOnEvent(tick=0, channel=3, data=[78, 80]),\n",
      "   midi.NoteOffEvent(tick=96, channel=3, data=[78, 0]),\n",
      "   midi.NoteOnEvent(tick=0, channel=3, data=[78, 80]),\n",
      "   midi.NoteOffEvent(tick=96, channel=3, data=[78, 0]),\n",
      "   midi.NoteOnEvent(tick=96, channel=3, data=[78, 80]),\n",
      "   midi.NoteOffEvent(tick=192, channel=3, data=[78, 0]),\n",
      "   midi.NoteOnEvent(tick=0, channel=3, data=[83, 80]),\n",
      "   midi.NoteOffEvent(tick=96, channel=3, data=[83, 0]),\n",
      "   midi.NoteOnEvent(tick=0, channel=3, data=[81, 80]),\n",
      "   midi.NoteOffEvent(tick=96, channel=3, data=[81, 0]),\n",
      "   midi.NoteOnEvent(tick=0, channel=3, data=[83, 80]),\n",
      "   midi.NoteOffEvent(tick=96, channel=3, data=[83, 0]),\n",
      "   midi.NoteOnEvent(tick=0, channel=3, data=[81, 80]),\n",
      "   midi.NoteOffEvent(tick=96, channel=3, data=[81, 0]),\n",
      "   midi.NoteOnEvent(tick=0, channel=3, data=[80, 80]),\n",
      "   midi.NoteOffEvent(tick=96, channel=3, data=[80, 0]),\n",
      "   midi.NoteOnEvent(tick=0, channel=3, data=[78, 80]),\n",
      "   midi.NoteOffEvent(tick=96, channel=3, data=[78, 0]),\n",
      "   midi.NoteOnEvent(tick=0, channel=3, data=[76, 80]),\n",
      "   midi.NoteOffEvent(tick=96, channel=3, data=[76, 0]),\n",
      "   midi.NoteOnEvent(tick=0, channel=3, data=[78, 80]),\n",
      "   midi.NoteOffEvent(tick=96, channel=3, data=[78, 0]),\n",
      "   midi.NoteOnEvent(tick=0, channel=3, data=[76, 80]),\n",
      "   midi.NoteOffEvent(tick=96, channel=3, data=[76, 0]),\n",
      "   midi.NoteOnEvent(tick=0, channel=3, data=[76, 80]),\n",
      "   midi.NoteOffEvent(tick=96, channel=3, data=[76, 0]),\n",
      "   midi.NoteOnEvent(tick=0, channel=3, data=[76, 80]),\n",
      "   midi.NoteOffEvent(tick=96, channel=3, data=[76, 0]),\n",
      "   midi.NoteOnEvent(tick=96, channel=3, data=[76, 80]),\n",
      "   midi.NoteOffEvent(tick=192, channel=3, data=[76, 0]),\n",
      "   midi.NoteOnEvent(tick=0, channel=3, data=[81, 80]),\n",
      "   midi.NoteOffEvent(tick=96, channel=3, data=[81, 0]),\n",
      "   midi.NoteOnEvent(tick=0, channel=3, data=[80, 80]),\n",
      "   midi.NoteOffEvent(tick=96, channel=3, data=[80, 0]),\n",
      "   midi.NoteOnEvent(tick=0, channel=3, data=[81, 80]),\n",
      "   midi.NoteOffEvent(tick=96, channel=3, data=[81, 0]),\n",
      "   midi.NoteOnEvent(tick=0, channel=3, data=[80, 80]),\n",
      "   midi.NoteOffEvent(tick=96, channel=3, data=[80, 0]),\n",
      "   midi.NoteOnEvent(tick=0, channel=3, data=[78, 80]),\n",
      "   midi.NoteOffEvent(tick=96, channel=3, data=[78, 0]),\n",
      "   midi.NoteOnEvent(tick=0, channel=3, data=[76, 80]),\n",
      "   midi.NoteOffEvent(tick=96, channel=3, data=[76, 0]),\n",
      "   midi.NoteOnEvent(tick=0, channel=3, data=[74, 80]),\n",
      "   midi.NoteOffEvent(tick=96, channel=3, data=[74, 0]),\n",
      "   midi.NoteOnEvent(tick=0, channel=3, data=[76, 80]),\n",
      "   midi.NoteOffEvent(tick=96, channel=3, data=[76, 0]),\n",
      "   midi.NoteOnEvent(tick=0, channel=3, data=[74, 80]),\n",
      "   midi.NoteOffEvent(tick=96, channel=3, data=[74, 0]),\n",
      "   midi.NoteOnEvent(tick=96, channel=3, data=[74, 80]),\n",
      "   midi.NoteOffEvent(tick=96, channel=3, data=[74, 0]),\n",
      "   midi.NoteOnEvent(tick=96, channel=3, data=[74, 80]),\n",
      "   midi.NoteOffEvent(tick=96, channel=3, data=[74, 0]),\n",
      "   midi.NoteOnEvent(tick=96, channel=3, data=[86, 80]),\n",
      "   midi.NoteOffEvent(tick=512, channel=3, data=[86, 0]),\n",
      "   midi.NoteOnEvent(tick=64, channel=3, data=[85, 80]),\n",
      "   midi.NoteOffEvent(tick=96, channel=3, data=[85, 0]),\n",
      "   midi.NoteOnEvent(tick=0, channel=3, data=[83, 80]),\n",
      "   midi.NoteOffEvent(tick=96, channel=3, data=[83, 0]),\n",
      "   midi.NoteOnEvent(tick=0, channel=3, data=[85, 80]),\n",
      "   midi.NoteOffEvent(tick=192, channel=3, data=[85, 0]),\n",
      "   midi.NoteOnEvent(tick=0, channel=3, data=[81, 80]),\n",
      "   midi.NoteOffEvent(tick=192, channel=3, data=[81, 0]),\n",
      "   midi.NoteOnEvent(tick=0, channel=3, data=[76, 80]),\n",
      "   midi.NoteOffEvent(tick=192, channel=3, data=[76, 0]),\n",
      "   midi.NoteOnEvent(tick=0, channel=3, data=[80, 80]),\n",
      "   midi.NoteOffEvent(tick=192, channel=3, data=[80, 0]),\n",
      "   midi.NoteOnEvent(tick=0, channel=3, data=[81, 80]),\n",
      "   midi.NoteOffEvent(tick=384, channel=3, data=[81, 0]),\n",
      "   midi.NoteOnEvent(tick=1152, channel=3, data=[68, 80]),\n",
      "   midi.NoteOffEvent(tick=96, channel=3, data=[68, 0]),\n",
      "   midi.NoteOnEvent(tick=0, channel=3, data=[69, 80]),\n",
      "   midi.NoteOffEvent(tick=96, channel=3, data=[69, 0]),\n",
      "   midi.NoteOnEvent(tick=0, channel=3, data=[71, 80]),\n",
      "   midi.NoteOffEvent(tick=96, channel=3, data=[71, 0]),\n",
      "   midi.NoteOnEvent(tick=96, channel=3, data=[71, 80]),\n",
      "   midi.NoteOffEvent(tick=96, channel=3, data=[71, 0]),\n",
      "   midi.NoteOnEvent(tick=96, channel=3, data=[73, 80]),\n",
      "   midi.NoteOffEvent(tick=96, channel=3, data=[73, 0]),\n",
      "   midi.NoteOnEvent(tick=96, channel=3, data=[66, 80]),\n",
      "   midi.NoteOffEvent(tick=96, channel=3, data=[66, 0]),\n",
      "   midi.NoteOnEvent(tick=0, channel=3, data=[78, 80]),\n",
      "   midi.NoteOffEvent(tick=96, channel=3, data=[78, 0]),\n",
      "   midi.NoteOnEvent(tick=0, channel=3, data=[76, 80]),\n",
      "   midi.NoteOffEvent(tick=96, channel=3, data=[76, 0]),\n",
      "   midi.NoteOnEvent(tick=0, channel=3, data=[74, 80]),\n",
      "   midi.NoteOffEvent(tick=96, channel=3, data=[74, 0]),\n",
      "   midi.NoteOnEvent(tick=0, channel=3, data=[73, 80]),\n",
      "   midi.NoteOffEvent(tick=192, channel=3, data=[73, 0]),\n",
      "   midi.NoteOnEvent(tick=0, channel=3, data=[71, 80]),\n",
      "   midi.NoteOffEvent(tick=192, channel=3, data=[71, 0]),\n",
      "   midi.NoteOnEvent(tick=0, channel=3, data=[69, 80]),\n",
      "   midi.NoteOffEvent(tick=192, channel=3, data=[69, 0]),\n",
      "   midi.NoteOnEvent(tick=0, channel=3, data=[68, 80]),\n",
      "   midi.NoteOffEvent(tick=96, channel=3, data=[68, 0]),\n",
      "   midi.NoteOnEvent(tick=0, channel=3, data=[69, 80]),\n",
      "   midi.NoteOffEvent(tick=96, channel=3, data=[69, 0]),\n",
      "   midi.NoteOnEvent(tick=0, channel=3, data=[66, 80]),\n",
      "   midi.NoteOffEvent(tick=192, channel=3, data=[66, 0]),\n",
      "   midi.NoteOnEvent(tick=192, channel=3, data=[74, 80]),\n",
      "   midi.NoteOffEvent(tick=96, channel=3, data=[74, 0]),\n",
      "   midi.NoteOnEvent(tick=0, channel=3, data=[76, 80]),\n",
      "   midi.NoteOffEvent(tick=96, channel=3, data=[76, 0]),\n",
      "   midi.NoteOnEvent(tick=0, channel=3, data=[78, 80]),\n",
      "   midi.NoteOffEvent(tick=96, channel=3, data=[78, 0]),\n",
      "   midi.NoteOnEvent(tick=96, channel=3, data=[78, 80]),\n",
      "   midi.NoteOffEvent(tick=96, channel=3, data=[78, 0]),\n",
      "   midi.NoteOnEvent(tick=96, channel=3, data=[78, 80]),\n",
      "   midi.NoteOffEvent(tick=96, channel=3, data=[78, 0]),\n",
      "   midi.NoteOnEvent(tick=96, channel=3, data=[78, 80]),\n",
      "   midi.NoteOffEvent(tick=480, channel=3, data=[78, 0]),\n",
      "   midi.NoteOnEvent(tick=0, channel=3, data=[76, 80]),\n",
      "   midi.NoteOffEvent(tick=96, channel=3, data=[76, 0]),\n",
      "   midi.NoteOnEvent(tick=0, channel=3, data=[74, 80]),\n",
      "   midi.NoteOffEvent(tick=96, channel=3, data=[74, 0]),\n",
      "   midi.NoteOnEvent(tick=0, channel=3, data=[73, 80]),\n",
      "   midi.NoteOffEvent(tick=96, channel=3, data=[73, 0]),\n",
      "   midi.NoteOnEvent(tick=0, channel=3, data=[71, 80]),\n",
      "   midi.NoteOffEvent(tick=192, channel=3, data=[71, 0]),\n",
      "   midi.NoteOnEvent(tick=0, channel=3, data=[79, 80]),\n",
      "   midi.NoteOffEvent(tick=192, channel=3, data=[79, 0]),\n",
      "   midi.NoteOnEvent(tick=0, channel=3, data=[78, 80]),\n",
      "   midi.NoteOffEvent(tick=192, channel=3, data=[78, 0]),\n",
      "   midi.NoteOnEvent(tick=0, channel=3, data=[76, 80]),\n",
      "   midi.NoteOffEvent(tick=192, channel=3, data=[76, 0]),\n",
      "   midi.NoteOnEvent(tick=0, channel=3, data=[74, 80]),\n",
      "   midi.NoteOffEvent(tick=192, channel=3, data=[74, 0]),\n",
      "   midi.NoteOnEvent(tick=0, channel=3, data=[73, 80]),\n",
      "   midi.NoteOffEvent(tick=96, channel=3, data=[73, 0]),\n",
      "   midi.NoteOnEvent(tick=0, channel=3, data=[74, 80]),\n",
      "   midi.NoteOffEvent(tick=96, channel=3, data=[74, 0]),\n",
      "   midi.NoteOnEvent(tick=0, channel=3, data=[71, 80]),\n",
      "   midi.NoteOffEvent(tick=384, channel=3, data=[71, 0]),\n",
      "   midi.NoteOnEvent(tick=768, channel=3, data=[73, 80]),\n",
      "   midi.NoteOffEvent(tick=96, channel=3, data=[73, 0]),\n",
      "   midi.NoteOnEvent(tick=0, channel=3, data=[74, 80]),\n",
      "   midi.NoteOffEvent(tick=96, channel=3, data=[74, 0]),\n",
      "   midi.NoteOnEvent(tick=0, channel=3, data=[76, 80]),\n",
      "   midi.NoteOffEvent(tick=96, channel=3, data=[76, 0]),\n",
      "   midi.NoteOnEvent(tick=96, channel=3, data=[76, 80]),\n",
      "   midi.NoteOffEvent(tick=96, channel=3, data=[76, 0]),\n",
      "   midi.NoteOnEvent(tick=96, channel=3, data=[76, 80]),\n",
      "   midi.NoteOffEvent(tick=96, channel=3, data=[76, 0]),\n",
      "   midi.NoteOnEvent(tick=96, channel=3, data=[66, 80]),\n",
      "   midi.NoteOffEvent(tick=384, channel=3, data=[66, 0]),\n",
      "   midi.NoteOnEvent(tick=384, channel=3, data=[71, 80]),\n",
      "   midi.NoteOffEvent(tick=96, channel=3, data=[71, 0]),\n",
      "   midi.NoteOnEvent(tick=0, channel=3, data=[73, 80]),\n",
      "   midi.NoteOffEvent(tick=96, channel=3, data=[73, 0]),\n",
      "   midi.NoteOnEvent(tick=0, channel=3, data=[74, 80]),\n",
      "   midi.NoteOffEvent(tick=96, channel=3, data=[74, 0]),\n",
      "   midi.NoteOnEvent(tick=96, channel=3, data=[74, 80]),\n",
      "   midi.NoteOffEvent(tick=96, channel=3, data=[74, 0]),\n",
      "   midi.NoteOnEvent(tick=96, channel=3, data=[74, 80]),\n",
      "   midi.NoteOffEvent(tick=96, channel=3, data=[74, 0]),\n",
      "   midi.NoteOnEvent(tick=96, channel=3, data=[64, 80]),\n",
      "   midi.NoteOffEvent(tick=192, channel=3, data=[64, 0]),\n",
      "   midi.NoteOnEvent(tick=0, channel=3, data=[73, 80]),\n",
      "   midi.NoteOffEvent(tick=96, channel=3, data=[73, 0]),\n",
      "   midi.NoteOnEvent(tick=0, channel=3, data=[74, 80]),\n",
      "   midi.NoteOffEvent(tick=96, channel=3, data=[74, 0]),\n",
      "   midi.NoteOnEvent(tick=0, channel=3, data=[76, 80]),\n",
      "   midi.NoteOffEvent(tick=96, channel=3, data=[76, 0]),\n",
      "   midi.NoteOnEvent(tick=0, channel=3, data=[71, 80]),\n",
      "   midi.NoteOffEvent(tick=96, channel=3, data=[71, 0]),\n",
      "   midi.NoteOnEvent(tick=0, channel=3, data=[70, 80]),\n",
      "   midi.NoteOffEvent(tick=96, channel=3, data=[70, 0]),\n",
      "   midi.NoteOnEvent(tick=0, channel=3, data=[71, 80]),\n",
      "   midi.NoteOffEvent(tick=96, channel=3, data=[71, 0]),\n",
      "   midi.NoteOnEvent(tick=0, channel=3, data=[73, 80]),\n",
      "   midi.NoteOffEvent(tick=480, channel=3, data=[73, 0]),\n",
      "   midi.NoteOnEvent(tick=0, channel=3, data=[76, 80]),\n",
      "   midi.NoteOffEvent(tick=96, channel=3, data=[76, 0]),\n",
      "   midi.NoteOnEvent(tick=0, channel=3, data=[74, 80]),\n",
      "   midi.NoteOffEvent(tick=96, channel=3, data=[74, 0]),\n",
      "   midi.NoteOnEvent(tick=0, channel=3, data=[73, 80]),\n",
      "   midi.NoteOffEvent(tick=96, channel=3, data=[73, 0]),\n",
      "   midi.NoteOnEvent(tick=0, channel=3, data=[76, 80]),\n",
      "   midi.NoteOffEvent(tick=96, channel=3, data=[76, 0]),\n",
      "   midi.NoteOnEvent(tick=0, channel=3, data=[74, 80]),\n",
      "   midi.NoteOffEvent(tick=96, channel=3, data=[74, 0]),\n",
      "   midi.NoteOnEvent(tick=0, channel=3, data=[73, 80]),\n",
      "   midi.NoteOffEvent(tick=96, channel=3, data=[73, 0]),\n",
      "   midi.NoteOnEvent(tick=0, channel=3, data=[71, 80]),\n",
      "   midi.NoteOffEvent(tick=96, channel=3, data=[71, 0]),\n",
      "   midi.NoteOnEvent(tick=0, channel=3, data=[73, 80]),\n",
      "   midi.NoteOffEvent(tick=192, channel=3, data=[73, 0]),\n",
      "   midi.NoteOnEvent(tick=0, channel=3, data=[70, 80]),\n",
      "   midi.NoteOffEvent(tick=192, channel=3, data=[70, 0]),\n",
      "   midi.NoteOnEvent(tick=0, channel=3, data=[71, 80]),\n",
      "   midi.NoteOffEvent(tick=384, channel=3, data=[71, 0]),\n",
      "   midi.NoteOnEvent(tick=384, channel=3, data=[73, 80]),\n",
      "   midi.NoteOffEvent(tick=96, channel=3, data=[73, 0]),\n",
      "   midi.NoteOnEvent(tick=0, channel=3, data=[74, 80]),\n",
      "   midi.NoteOffEvent(tick=96, channel=3, data=[74, 0]),\n",
      "   midi.NoteOnEvent(tick=0, channel=3, data=[76, 80]),\n",
      "   midi.NoteOffEvent(tick=96, channel=3, data=[76, 0]),\n",
      "   midi.NoteOnEvent(tick=96, channel=3, data=[76, 80]),\n",
      "   midi.NoteOffEvent(tick=96, channel=3, data=[76, 0]),\n",
      "   midi.NoteOnEvent(tick=96, channel=3, data=[76, 80]),\n",
      "   midi.NoteOffEvent(tick=96, channel=3, data=[76, 0]),\n",
      "   midi.NoteOnEvent(tick=864, channel=3, data=[76, 80]),\n",
      "   midi.NoteOffEvent(tick=96, channel=3, data=[76, 0]),\n",
      "   midi.NoteOnEvent(tick=0, channel=3, data=[78, 80]),\n",
      "   midi.NoteOffEvent(tick=96, channel=3, data=[78, 0]),\n",
      "   midi.NoteOnEvent(tick=0, channel=3, data=[76, 80]),\n",
      "   midi.NoteOffEvent(tick=96, channel=3, data=[76, 0]),\n",
      "   midi.NoteOnEvent(tick=0, channel=3, data=[78, 80]),\n",
      "   midi.NoteOffEvent(tick=96, channel=3, data=[78, 0]),\n",
      "   midi.NoteOnEvent(tick=0, channel=3, data=[76, 80]),\n",
      "   midi.NoteOffEvent(tick=96, channel=3, data=[76, 0]),\n",
      "   midi.NoteOnEvent(tick=0, channel=3, data=[74, 80]),\n",
      "   midi.NoteOffEvent(tick=96, channel=3, data=[74, 0]),\n",
      "   midi.NoteOnEvent(tick=0, channel=3, data=[73, 80]),\n",
      "   midi.NoteOffEvent(tick=96, channel=3, data=[73, 0]),\n",
      "   midi.NoteOnEvent(tick=0, channel=3, data=[74, 80]),\n",
      "   midi.NoteOffEvent(tick=96, channel=3, data=[74, 0]),\n",
      "   midi.NoteOnEvent(tick=0, channel=3, data=[76, 80]),\n",
      "   midi.NoteOffEvent(tick=96, channel=3, data=[76, 0]),\n",
      "   midi.NoteOnEvent(tick=0, channel=3, data=[74, 80]),\n",
      "   midi.NoteOffEvent(tick=96, channel=3, data=[74, 0]),\n",
      "   midi.NoteOnEvent(tick=0, channel=3, data=[73, 80]),\n",
      "   midi.NoteOffEvent(tick=96, channel=3, data=[73, 0]),\n",
      "   midi.NoteOnEvent(tick=0, channel=3, data=[71, 80]),\n",
      "   midi.NoteOffEvent(tick=96, channel=3, data=[71, 0]),\n",
      "   midi.NoteOnEvent(tick=0, channel=3, data=[73, 80]),\n",
      "   midi.NoteOffEvent(tick=96, channel=3, data=[73, 0]),\n",
      "   midi.NoteOnEvent(tick=0, channel=3, data=[74, 80]),\n",
      "   midi.NoteOffEvent(tick=96, channel=3, data=[74, 0]),\n",
      "   midi.NoteOnEvent(tick=0, channel=3, data=[76, 80]),\n",
      "   midi.NoteOffEvent(tick=96, channel=3, data=[76, 0]),\n",
      "   midi.NoteOnEvent(tick=0, channel=3, data=[78, 80]),\n",
      "   midi.NoteOffEvent(tick=192, channel=3, data=[78, 0]),\n",
      "   midi.NoteOnEvent(tick=0, channel=3, data=[81, 80]),\n",
      "   midi.NoteOffEvent(tick=192, channel=3, data=[81, 0]),\n",
      "   midi.NoteOnEvent(tick=0, channel=3, data=[78, 80]),\n",
      "   midi.NoteOffEvent(tick=192, channel=3, data=[78, 0]),\n",
      "   midi.NoteOnEvent(tick=0, channel=3, data=[75, 80]),\n",
      "   midi.NoteOffEvent(tick=192, channel=3, data=[75, 0]),\n",
      "   midi.NoteOnEvent(tick=0, channel=3, data=[84, 80]),\n",
      "   midi.NoteOffEvent(tick=192, channel=3, data=[84, 0]),\n",
      "   midi.NoteOnEvent(tick=0, channel=3, data=[81, 80]),\n",
      "   midi.NoteOffEvent(tick=192, channel=3, data=[81, 0]),\n",
      "   midi.NoteOnEvent(tick=576, channel=3, data=[83, 80]),\n",
      "   midi.NoteOffEvent(tick=256, channel=3, data=[83, 0]),\n",
      "   midi.NoteOnEvent(tick=32, channel=3, data=[81, 80]),\n",
      "   midi.NoteOffEvent(tick=96, channel=3, data=[81, 0]),\n",
      "   midi.NoteOnEvent(tick=0, channel=3, data=[79, 80]),\n",
      "   midi.NoteOffEvent(tick=96, channel=3, data=[79, 0]),\n",
      "   midi.NoteOnEvent(tick=0, channel=3, data=[78, 80]),\n",
      "   midi.NoteOffEvent(tick=96, channel=3, data=[78, 0]),\n",
      "   midi.NoteOnEvent(tick=0, channel=3, data=[79, 80]),\n",
      "   midi.NoteOffEvent(tick=192, channel=3, data=[79, 0]),\n",
      "   midi.NoteOnEvent(tick=0, channel=3, data=[83, 80]),\n",
      "   midi.NoteOffEvent(tick=96, channel=3, data=[83, 0]),\n",
      "   midi.NoteOnEvent(tick=0, channel=3, data=[81, 80]),\n",
      "   midi.NoteOffEvent(tick=96, channel=3, data=[81, 0]),\n",
      "   midi.NoteOnEvent(tick=0, channel=3, data=[79, 80]),\n",
      "   midi.NoteOffEvent(tick=96, channel=3, data=[79, 0]),\n",
      "   midi.NoteOnEvent(tick=0, channel=3, data=[78, 80]),\n",
      "   midi.NoteOffEvent(tick=96, channel=3, data=[78, 0]),\n",
      "   midi.NoteOnEvent(tick=0, channel=3, data=[76, 80]),\n",
      "   midi.NoteOffEvent(tick=96, channel=3, data=[76, 0]),\n",
      "   midi.NoteOnEvent(tick=0, channel=3, data=[74, 80]),\n",
      "   midi.NoteOffEvent(tick=96, channel=3, data=[74, 0]),\n",
      "   midi.NoteOnEvent(tick=0, channel=3, data=[73, 80]),\n",
      "   midi.NoteOffEvent(tick=864, channel=3, data=[73, 0]),\n",
      "   midi.NoteOnEvent(tick=0, channel=3, data=[71, 80]),\n",
      "   midi.NoteOffEvent(tick=96, channel=3, data=[71, 0]),\n",
      "   midi.NoteOnEvent(tick=0, channel=3, data=[70, 80]),\n",
      "   midi.NoteOffEvent(tick=96, channel=3, data=[70, 0]),\n",
      "   midi.NoteOnEvent(tick=0, channel=3, data=[71, 80]),\n",
      "   midi.NoteOffEvent(tick=96, channel=3, data=[71, 0]),\n",
      "   midi.NoteOnEvent(tick=0, channel=3, data=[73, 80]),\n",
      "   midi.NoteOffEvent(tick=192, channel=3, data=[73, 0]),\n",
      "   midi.NoteOnEvent(tick=0, channel=3, data=[74, 80]),\n",
      "   midi.NoteOffEvent(tick=192, channel=3, data=[74, 0]),\n",
      "   midi.NoteOnEvent(tick=0, channel=3, data=[76, 80]),\n",
      "   midi.NoteOffEvent(tick=864, channel=3, data=[76, 0]),\n",
      "   midi.NoteOnEvent(tick=0, channel=3, data=[74, 80]),\n",
      "   midi.NoteOffEvent(tick=96, channel=3, data=[74, 0]),\n",
      "   midi.NoteOnEvent(tick=0, channel=3, data=[73, 80]),\n",
      "   midi.NoteOffEvent(tick=96, channel=3, data=[73, 0]),\n",
      "   midi.NoteOnEvent(tick=0, channel=3, data=[74, 80]),\n",
      "   midi.NoteOffEvent(tick=96, channel=3, data=[74, 0]),\n",
      "   midi.NoteOnEvent(tick=0, channel=3, data=[76, 80]),\n",
      "   midi.NoteOffEvent(tick=96, channel=3, data=[76, 0]),\n",
      "   midi.NoteOnEvent(tick=0, channel=3, data=[74, 80]),\n",
      "   midi.NoteOffEvent(tick=96, channel=3, data=[74, 0]),\n",
      "   midi.NoteOnEvent(tick=0, channel=3, data=[76, 80]),\n",
      "   midi.NoteOffEvent(tick=96, channel=3, data=[76, 0]),\n",
      "   midi.NoteOnEvent(tick=0, channel=3, data=[73, 80]),\n",
      "   midi.NoteOffEvent(tick=96, channel=3, data=[73, 0]),\n",
      "   midi.NoteOnEvent(tick=0, channel=3, data=[74, 80]),\n",
      "   midi.NoteOffEvent(tick=96, channel=3, data=[74, 0]),\n",
      "   midi.NoteOnEvent(tick=0, channel=3, data=[76, 80]),\n",
      "   midi.NoteOffEvent(tick=96, channel=3, data=[76, 0]),\n",
      "   midi.NoteOnEvent(tick=0, channel=3, data=[78, 80]),\n",
      "   midi.NoteOffEvent(tick=96, channel=3, data=[78, 0]),\n",
      "   midi.NoteOnEvent(tick=96, channel=3, data=[78, 80]),\n",
      "   midi.NoteOffEvent(tick=96, channel=3, data=[78, 0]),\n",
      "   midi.NoteOnEvent(tick=96, channel=3, data=[79, 80]),\n",
      "   midi.NoteOffEvent(tick=96, channel=3, data=[79, 0]),\n",
      "   midi.NoteOnEvent(tick=96, channel=3, data=[78, 80]),\n",
      "   midi.NoteOffEvent(tick=96, channel=3, data=[78, 0]),\n",
      "   midi.NoteOnEvent(tick=0, channel=3, data=[83, 80]),\n",
      "   midi.NoteOffEvent(tick=96, channel=3, data=[83, 0]),\n",
      "   midi.NoteOnEvent(tick=0, channel=3, data=[81, 80]),\n",
      "   midi.NoteOffEvent(tick=96, channel=3, data=[81, 0]),\n",
      "   midi.NoteOnEvent(tick=0, channel=3, data=[79, 80]),\n",
      "   midi.NoteOffEvent(tick=96, channel=3, data=[79, 0]),\n",
      "   midi.NoteOnEvent(tick=0, channel=3, data=[78, 80]),\n",
      "   midi.NoteOffEvent(tick=192, channel=3, data=[78, 0]),\n",
      "   midi.NoteOnEvent(tick=0, channel=3, data=[76, 80]),\n",
      "   midi.NoteOffEvent(tick=192, channel=3, data=[76, 0]),\n",
      "   midi.NoteOnEvent(tick=0, channel=3, data=[74, 80]),\n",
      "   midi.NoteOffEvent(tick=384, channel=3, data=[74, 0]),\n",
      "   midi.NoteOnEvent(tick=0, channel=3, data=[73, 80]),\n",
      "   midi.NoteOffEvent(tick=384, channel=3, data=[73, 0]),\n",
      "   midi.NoteOnEvent(tick=0, channel=3, data=[71, 80]),\n",
      "   midi.NoteOffEvent(tick=384, channel=3, data=[71, 0]),\n",
      "   midi.NoteOnEvent(tick=1152, channel=3, data=[69, 80]),\n",
      "   midi.NoteOffEvent(tick=96, channel=3, data=[69, 0]),\n",
      "   midi.NoteOnEvent(tick=0, channel=3, data=[71, 80]),\n",
      "   midi.NoteOffEvent(tick=96, channel=3, data=[71, 0]),\n",
      "   midi.NoteOnEvent(tick=0, channel=3, data=[72, 80]),\n",
      "   midi.NoteOffEvent(tick=96, channel=3, data=[72, 0]),\n",
      "   midi.NoteOnEvent(tick=96, channel=3, data=[72, 80]),\n",
      "   midi.NoteOffEvent(tick=96, channel=3, data=[72, 0]),\n",
      "   midi.NoteOnEvent(tick=96, channel=3, data=[74, 80]),\n",
      "   midi.NoteOffEvent(tick=96, channel=3, data=[74, 0]),\n",
      "   midi.NoteOnEvent(tick=1632, channel=3, data=[79, 80]),\n",
      "   midi.NoteOffEvent(tick=96, channel=3, data=[79, 0]),\n",
      "   midi.NoteOnEvent(tick=0, channel=3, data=[81, 80]),\n",
      "   midi.NoteOffEvent(tick=96, channel=3, data=[81, 0]),\n",
      "   midi.NoteOnEvent(tick=0, channel=3, data=[83, 80]),\n",
      "   midi.NoteOffEvent(tick=96, channel=3, data=[83, 0]),\n",
      "   midi.NoteOnEvent(tick=96, channel=3, data=[83, 80]),\n",
      "   midi.NoteOffEvent(tick=96, channel=3, data=[83, 0]),\n",
      "   midi.NoteOnEvent(tick=96, channel=3, data=[83, 80]),\n",
      "   midi.NoteOffEvent(tick=96, channel=3, data=[83, 0]),\n",
      "   midi.NoteOnEvent(tick=96, channel=3, data=[83, 80]),\n",
      "   midi.NoteOffEvent(tick=480, channel=3, data=[83, 0]),\n",
      "   midi.NoteOnEvent(tick=0, channel=3, data=[81, 80]),\n",
      "   midi.NoteOffEvent(tick=96, channel=3, data=[81, 0]),\n",
      "   midi.NoteOnEvent(tick=0, channel=3, data=[79, 80]),\n",
      "   midi.NoteOffEvent(tick=96, channel=3, data=[79, 0]),\n",
      "   midi.NoteOnEvent(tick=0, channel=3, data=[78, 80]),\n",
      "   midi.NoteOffEvent(tick=96, channel=3, data=[78, 0]),\n",
      "   midi.NoteOnEvent(tick=0, channel=3, data=[76, 80]),\n",
      "   midi.NoteOffEvent(tick=192, channel=3, data=[76, 0]),\n",
      "   midi.NoteOnEvent(tick=0, channel=3, data=[72, 80]),\n",
      "   midi.NoteOffEvent(tick=192, channel=3, data=[72, 0]),\n",
      "   midi.NoteOnEvent(tick=0, channel=3, data=[71, 80]),\n",
      "   midi.NoteOffEvent(tick=192, channel=3, data=[71, 0]),\n",
      "   midi.NoteOnEvent(tick=0, channel=3, data=[69, 80]),\n",
      "   midi.NoteOffEvent(tick=192, channel=3, data=[69, 0]),\n",
      "   midi.NoteOnEvent(tick=0, channel=3, data=[67, 80]),\n",
      "   midi.NoteOffEvent(tick=192, channel=3, data=[67, 0]),\n",
      "   midi.NoteOnEvent(tick=0, channel=3, data=[66, 80]),\n",
      "   midi.NoteOffEvent(tick=96, channel=3, data=[66, 0]),\n",
      "   midi.NoteOnEvent(tick=0, channel=3, data=[67, 80]),\n",
      "   midi.NoteOffEvent(tick=96, channel=3, data=[67, 0]),\n",
      "   midi.NoteOnEvent(tick=0, channel=3, data=[64, 80]),\n",
      "   midi.NoteOffEvent(tick=192, channel=3, data=[64, 0]),\n",
      "   midi.NoteOnEvent(tick=0, channel=3, data=[79, 80]),\n",
      "   midi.NoteOffEvent(tick=192, channel=3, data=[79, 0]),\n",
      "   midi.NoteOnEvent(tick=0, channel=3, data=[76, 80]),\n",
      "   midi.NoteOffEvent(tick=192, channel=3, data=[76, 0]),\n",
      "   midi.NoteOnEvent(tick=0, channel=3, data=[73, 80]),\n",
      "   midi.NoteOffEvent(tick=192, channel=3, data=[73, 0]),\n",
      "   midi.NoteOnEvent(tick=192, channel=3, data=[73, 80]),\n",
      "   midi.NoteOffEvent(tick=192, channel=3, data=[73, 0]),\n",
      "   midi.NoteOnEvent(tick=0, channel=3, data=[78, 80]),\n",
      "   midi.NoteOffEvent(tick=192, channel=3, data=[78, 0]),\n",
      "   midi.NoteOnEvent(tick=0, channel=3, data=[74, 80]),\n",
      "   midi.NoteOffEvent(tick=192, channel=3, data=[74, 0]),\n",
      "   midi.NoteOnEvent(tick=192, channel=3, data=[78, 80]),\n",
      "   midi.NoteOffEvent(tick=192, channel=3, data=[78, 0]),\n",
      "   midi.NoteOnEvent(tick=0, channel=3, data=[71, 80]),\n",
      "   midi.NoteOffEvent(tick=192, channel=3, data=[71, 0]),\n",
      "   midi.NoteOnEvent(tick=0, channel=3, data=[80, 80]),\n",
      "   midi.NoteOffEvent(tick=192, channel=3, data=[80, 0]),\n",
      "   midi.NoteOnEvent(tick=192, channel=3, data=[78, 80]),\n",
      "   midi.NoteOffEvent(tick=192, channel=3, data=[78, 0]),\n",
      "   midi.NoteOnEvent(tick=0, channel=3, data=[77, 80]),\n",
      "   midi.NoteOffEvent(tick=192, channel=3, data=[77, 0]),\n",
      "   midi.NoteOnEvent(tick=0, channel=3, data=[73, 80]),\n",
      "   midi.NoteOffEvent(tick=192, channel=3, data=[73, 0]),\n",
      "   midi.NoteOnEvent(tick=192, channel=3, data=[68, 80]),\n",
      "   midi.NoteOffEvent(tick=192, channel=3, data=[68, 0]),\n",
      "   midi.NoteOnEvent(tick=0, channel=3, data=[69, 80]),\n",
      "   midi.NoteOffEvent(tick=192, channel=3, data=[69, 0]),\n",
      "   midi.NoteOnEvent(tick=0, channel=3, data=[73, 80]),\n",
      "   midi.NoteOffEvent(tick=192, channel=3, data=[73, 0]),\n",
      "   midi.NoteOnEvent(tick=0, channel=3, data=[78, 80]),\n",
      "   midi.NoteOffEvent(tick=192, channel=3, data=[78, 0]),\n",
      "   midi.NoteOnEvent(tick=0, channel=3, data=[76, 80]),\n",
      "   midi.NoteOffEvent(tick=192, channel=3, data=[76, 0]),\n",
      "   midi.NoteOnEvent(tick=0, channel=3, data=[74, 80]),\n",
      "   midi.NoteOffEvent(tick=96, channel=3, data=[74, 0]),\n",
      "   midi.NoteOnEvent(tick=0, channel=3, data=[73, 80]),\n",
      "   midi.NoteOffEvent(tick=96, channel=3, data=[73, 0]),\n",
      "   midi.NoteOnEvent(tick=0, channel=3, data=[71, 80]),\n",
      "   midi.NoteOffEvent(tick=96, channel=3, data=[71, 0]),\n",
      "   midi.NoteOnEvent(tick=0, channel=3, data=[69, 80]),\n",
      "   midi.NoteOffEvent(tick=96, channel=3, data=[69, 0]),\n",
      "   midi.NoteOnEvent(tick=0, channel=3, data=[71, 80]),\n",
      "   midi.NoteOffEvent(tick=192, channel=3, data=[71, 0]),\n",
      "   midi.NoteOnEvent(tick=0, channel=3, data=[71, 80]),\n",
      "   midi.NoteOffEvent(tick=192, channel=3, data=[71, 0]),\n",
      "   midi.NoteOnEvent(tick=0, channel=3, data=[71, 80]),\n",
      "   midi.NoteOffEvent(tick=192, channel=3, data=[71, 0]),\n",
      "   midi.NoteOnEvent(tick=0, channel=3, data=[74, 80]),\n",
      "   midi.NoteOffEvent(tick=192, channel=3, data=[74, 0]),\n",
      "   midi.NoteOnEvent(tick=0, channel=3, data=[73, 80]),\n",
      "   midi.NoteOffEvent(tick=192, channel=3, data=[73, 0]),\n",
      "   midi.NoteOnEvent(tick=0, channel=3, data=[71, 80]),\n",
      "   midi.NoteOffEvent(tick=192, channel=3, data=[71, 0]),\n",
      "   midi.NoteOnEvent(tick=0, channel=3, data=[69, 80]),\n",
      "   midi.NoteOffEvent(tick=384, channel=3, data=[69, 0]),\n",
      "   midi.NoteOnEvent(tick=0, channel=3, data=[68, 80]),\n",
      "   midi.NoteOffEvent(tick=384, channel=3, data=[68, 0]),\n",
      "   midi.NoteOnEvent(tick=0, channel=3, data=[66, 80]),\n",
      "   midi.NoteOffEvent(tick=384, channel=3, data=[66, 0]),\n",
      "   midi.NoteOnEvent(tick=1728, channel=3, data=[69, 80]),\n",
      "   midi.NoteOffEvent(tick=192, channel=3, data=[69, 0]),\n",
      "   midi.NoteOnEvent(tick=0, channel=3, data=[74, 80]),\n",
      "   midi.NoteOffEvent(tick=48, channel=3, data=[74, 0]),\n",
      "   midi.NoteOnEvent(tick=0, channel=3, data=[76, 80]),\n",
      "   midi.NoteOffEvent(tick=48, channel=3, data=[76, 0]),\n",
      "   midi.NoteOnEvent(tick=0, channel=3, data=[78, 80]),\n",
      "   midi.NoteOffEvent(tick=256, channel=3, data=[78, 0]),\n",
      "   midi.NoteOnEvent(tick=32, channel=3, data=[76, 80]),\n",
      "   midi.NoteOffEvent(tick=48, channel=3, data=[76, 0]),\n",
      "   midi.NoteOnEvent(tick=0, channel=3, data=[78, 80]),\n",
      "   midi.NoteOffEvent(tick=48, channel=3, data=[78, 0]),\n",
      "   midi.NoteOnEvent(tick=0, channel=3, data=[79, 80]),\n",
      "   midi.NoteOffEvent(tick=256, channel=3, data=[79, 0]),\n",
      "   midi.NoteOnEvent(tick=32, channel=3, data=[78, 80]),\n",
      "   midi.NoteOffEvent(tick=192, channel=3, data=[78, 0]),\n",
      "   midi.NoteOnEvent(tick=0, channel=3, data=[81, 80]),\n",
      "   midi.NoteOffEvent(tick=192, channel=3, data=[81, 0]),\n",
      "   midi.NoteOnEvent(tick=0, channel=3, data=[78, 80]),\n",
      "   midi.NoteOffEvent(tick=192, channel=3, data=[78, 0]),\n",
      "   midi.NoteOnEvent(tick=0, channel=3, data=[74, 80]),\n",
      "   midi.NoteOffEvent(tick=192, channel=3, data=[74, 0]),\n",
      "   midi.NoteOnEvent(tick=768, channel=3, data=[74, 80]),\n",
      "   midi.NoteOffEvent(tick=96, channel=3, data=[74, 0]),\n",
      "   midi.NoteOnEvent(tick=0, channel=3, data=[76, 80]),\n",
      "   midi.NoteOffEvent(tick=96, channel=3, data=[76, 0]),\n",
      "   midi.NoteOnEvent(tick=0, channel=3, data=[78, 80]),\n",
      "   midi.NoteOffEvent(tick=96, channel=3, data=[78, 0]),\n",
      "   midi.NoteOnEvent(tick=96, channel=3, data=[78, 80]),\n",
      "   midi.NoteOffEvent(tick=96, channel=3, data=[78, 0]),\n",
      "   midi.NoteOnEvent(tick=96, channel=3, data=[78, 80]),\n",
      "   midi.NoteOffEvent(tick=96, channel=3, data=[78, 0]),\n",
      "   midi.NoteOnEvent(tick=96, channel=3, data=[78, 80]),\n",
      "   midi.NoteOffEvent(tick=192, channel=3, data=[78, 0]),\n",
      "   midi.NoteOnEvent(tick=2112, channel=3, data=[73, 80]),\n",
      "   midi.NoteOffEvent(tick=96, channel=3, data=[73, 0]),\n",
      "   midi.NoteOnEvent(tick=0, channel=3, data=[74, 80]),\n",
      "   midi.NoteOffEvent(tick=96, channel=3, data=[74, 0]),\n",
      "   midi.NoteOnEvent(tick=0, channel=3, data=[76, 80]),\n",
      "   midi.NoteOffEvent(tick=96, channel=3, data=[76, 0]),\n",
      "   midi.NoteOnEvent(tick=96, channel=3, data=[76, 80]),\n",
      "   midi.NoteOffEvent(tick=96, channel=3, data=[76, 0]),\n",
      "   midi.NoteOnEvent(tick=96, channel=3, data=[69, 80]),\n",
      "   midi.NoteOffEvent(tick=96, channel=3, data=[69, 0]),\n",
      "   midi.NoteOnEvent(tick=96, channel=3, data=[74, 80]),\n",
      "   midi.NoteOffEvent(tick=48, channel=3, data=[74, 0]),\n",
      "   midi.NoteOnEvent(tick=0, channel=3, data=[76, 80]),\n",
      "   midi.NoteOffEvent(tick=48, channel=3, data=[76, 0]),\n",
      "   midi.NoteOnEvent(tick=0, channel=3, data=[78, 80]),\n",
      "   midi.NoteOffEvent(tick=256, channel=3, data=[78, 0]),\n",
      "   midi.NoteOnEvent(tick=32, channel=3, data=[76, 80]),\n",
      "   midi.NoteOffEvent(tick=48, channel=3, data=[76, 0]),\n",
      "   midi.NoteOnEvent(tick=0, channel=3, data=[78, 80]),\n",
      "   midi.NoteOffEvent(tick=48, channel=3, data=[78, 0]),\n",
      "   midi.NoteOnEvent(tick=0, channel=3, data=[79, 80]),\n",
      "   midi.NoteOffEvent(tick=256, channel=3, data=[79, 0]),\n",
      "   midi.NoteOnEvent(tick=32, channel=3, data=[78, 80]),\n",
      "   midi.NoteOffEvent(tick=192, channel=3, data=[78, 0]),\n",
      "   midi.NoteOnEvent(tick=0, channel=3, data=[76, 80]),\n",
      "   midi.NoteOffEvent(tick=192, channel=3, data=[76, 0]),\n",
      "   midi.NoteOnEvent(tick=0, channel=3, data=[74, 80]),\n",
      "   midi.NoteOffEvent(tick=384, channel=3, data=[74, 0]),\n",
      "   midi.NoteOnEvent(tick=1344, channel=3, data=[69, 80]),\n",
      "   midi.NoteOffEvent(tick=192, channel=3, data=[69, 0]),\n",
      "   midi.NoteOnEvent(tick=0, channel=3, data=[74, 80]),\n",
      "   midi.NoteOffEvent(tick=48, channel=3, data=[74, 0]),\n",
      "   midi.NoteOnEvent(tick=0, channel=3, data=[76, 80]),\n",
      "   midi.NoteOffEvent(tick=48, channel=3, data=[76, 0]),\n",
      "   midi.NoteOnEvent(tick=0, channel=3, data=[78, 80]),\n",
      "   midi.NoteOffEvent(tick=256, channel=3, data=[78, 0]),\n",
      "   midi.NoteOnEvent(tick=32, channel=3, data=[76, 80]),\n",
      "   midi.NoteOffEvent(tick=48, channel=3, data=[76, 0]),\n",
      "   midi.NoteOnEvent(tick=0, channel=3, data=[78, 80]),\n",
      "   midi.NoteOffEvent(tick=48, channel=3, data=[78, 0]),\n",
      "   midi.NoteOnEvent(tick=0, channel=3, data=[79, 80]),\n",
      "   midi.NoteOffEvent(tick=256, channel=3, data=[79, 0]),\n",
      "   midi.NoteOnEvent(tick=32, channel=3, data=[78, 80]),\n",
      "   midi.NoteOffEvent(tick=192, channel=3, data=[78, 0]),\n",
      "   midi.NoteOnEvent(tick=0, channel=3, data=[81, 80]),\n",
      "   midi.NoteOffEvent(tick=192, channel=3, data=[81, 0]),\n",
      "   midi.NoteOnEvent(tick=0, channel=3, data=[78, 80]),\n",
      "   midi.NoteOffEvent(tick=192, channel=3, data=[78, 0]),\n",
      "   midi.NoteOnEvent(tick=0, channel=3, data=[74, 80]),\n",
      "   midi.NoteOffEvent(tick=192, channel=3, data=[74, 0]),\n",
      "   midi.NoteOnEvent(tick=192, channel=3, data=[69, 80]),\n",
      "   midi.NoteOffEvent(tick=192, channel=3, data=[69, 0]),\n",
      "   midi.NoteOnEvent(tick=0, channel=3, data=[74, 80]),\n",
      "   midi.NoteOffEvent(tick=192, channel=3, data=[74, 0]),\n",
      "   midi.NoteOnEvent(tick=0, channel=3, data=[78, 80]),\n",
      "   midi.NoteOffEvent(tick=192, channel=3, data=[78, 0]),\n",
      "   midi.NoteOnEvent(tick=192, channel=3, data=[74, 80]),\n",
      "   midi.NoteOffEvent(tick=192, channel=3, data=[74, 0]),\n",
      "   midi.NoteOnEvent(tick=0, channel=3, data=[78, 80]),\n",
      "   midi.NoteOffEvent(tick=192, channel=3, data=[78, 0]),\n",
      "   midi.NoteOnEvent(tick=0, channel=3, data=[83, 80]),\n",
      "   midi.NoteOffEvent(tick=192, channel=3, data=[83, 0]),\n",
      "   midi.NoteOnEvent(tick=192, channel=3, data=[71, 80]),\n",
      "   midi.NoteOffEvent(tick=192, channel=3, data=[71, 0]),\n",
      "   midi.NoteOnEvent(tick=0, channel=3, data=[76, 80]),\n",
      "   midi.NoteOffEvent(tick=192, channel=3, data=[76, 0]),\n",
      "   midi.NoteOnEvent(tick=0, channel=3, data=[79, 80]),\n",
      "   midi.NoteOffEvent(tick=192, channel=3, data=[79, 0]),\n",
      "   midi.NoteOnEvent(tick=192, channel=3, data=[76, 80]),\n",
      "   midi.NoteOffEvent(tick=192, channel=3, data=[76, 0]),\n",
      "   midi.NoteOnEvent(tick=0, channel=3, data=[73, 80]),\n",
      "   midi.NoteOffEvent(tick=192, channel=3, data=[73, 0]),\n",
      "   midi.NoteOnEvent(tick=0, channel=3, data=[69, 80]),\n",
      "   midi.NoteOffEvent(tick=192, channel=3, data=[69, 0]),\n",
      "   midi.NoteOnEvent(tick=0, channel=3, data=[71, 80]),\n",
      "   midi.NoteOffEvent(tick=4, channel=3, data=[71, 0]),\n",
      "   midi.NoteOnEvent(tick=0, channel=3, data=[72, 80]),\n",
      "   midi.NoteOffEvent(tick=96, channel=3, data=[72, 0]),\n",
      "   midi.NoteOnEvent(tick=0, channel=3, data=[71, 80]),\n",
      "   midi.NoteOffEvent(tick=96, channel=3, data=[71, 0]),\n",
      "   midi.NoteOnEvent(tick=0, channel=3, data=[71, 80]),\n",
      "   midi.NoteOffEvent(tick=96, channel=3, data=[71, 0]),\n",
      "   midi.NoteOnEvent(tick=0, channel=3, data=[71, 80]),\n",
      "   midi.NoteOffEvent(tick=96, channel=3, data=[71, 0]),\n",
      "   midi.NoteOnEvent(tick=96, channel=3, data=[71, 80]),\n",
      "   midi.NoteOffEvent(tick=192, channel=3, data=[71, 0]),\n",
      "   midi.NoteOnEvent(tick=0, channel=3, data=[76, 80]),\n",
      "   midi.NoteOffEvent(tick=96, channel=3, data=[76, 0]),\n",
      "   midi.NoteOnEvent(tick=0, channel=3, data=[74, 80]),\n",
      "   midi.NoteOffEvent(tick=96, channel=3, data=[74, 0]),\n",
      "   midi.NoteOnEvent(tick=0, channel=3, data=[76, 80]),\n",
      "   midi.NoteOffEvent(tick=96, channel=3, data=[76, 0]),\n",
      "   midi.NoteOnEvent(tick=0, channel=3, data=[74, 80]),\n",
      "   midi.NoteOffEvent(tick=96, channel=3, data=[74, 0]),\n",
      "   midi.NoteOnEvent(tick=0, channel=3, data=[73, 80]),\n",
      "   midi.NoteOffEvent(tick=96, channel=3, data=[73, 0]),\n",
      "   midi.NoteOnEvent(tick=0, channel=3, data=[71, 80]),\n",
      "   midi.NoteOffEvent(tick=96, channel=3, data=[71, 0]),\n",
      "   midi.NoteOnEvent(tick=0, channel=3, data=[69, 80]),\n",
      "   midi.NoteOffEvent(tick=96, channel=3, data=[69, 0]),\n",
      "   midi.NoteOnEvent(tick=0, channel=3, data=[71, 80]),\n",
      "   midi.NoteOffEvent(tick=96, channel=3, data=[71, 0]),\n",
      "   midi.NoteOnEvent(tick=0, channel=3, data=[69, 80]),\n",
      "   midi.NoteOffEvent(tick=96, channel=3, data=[69, 0]),\n",
      "   midi.NoteOnEvent(tick=0, channel=3, data=[69, 80]),\n",
      "   midi.NoteOffEvent(tick=96, channel=3, data=[69, 0]),\n",
      "   midi.NoteOnEvent(tick=0, channel=3, data=[69, 80]),\n",
      "   midi.NoteOffEvent(tick=96, channel=3, data=[69, 0]),\n",
      "   midi.NoteOnEvent(tick=96, channel=3, data=[69, 80]),\n",
      "   midi.NoteOffEvent(tick=192, channel=3, data=[69, 0]),\n",
      "   midi.NoteOnEvent(tick=0, channel=3, data=[74, 80]),\n",
      "   midi.NoteOffEvent(tick=96, channel=3, data=[74, 0]),\n",
      "   midi.NoteOnEvent(tick=0, channel=3, data=[73, 80]),\n",
      "   midi.NoteOffEvent(tick=96, channel=3, data=[73, 0]),\n",
      "   midi.NoteOnEvent(tick=0, channel=3, data=[74, 80]),\n",
      "   midi.NoteOffEvent(tick=96, channel=3, data=[74, 0]),\n",
      "   midi.NoteOnEvent(tick=0, channel=3, data=[73, 80]),\n",
      "   midi.NoteOffEvent(tick=96, channel=3, data=[73, 0]),\n",
      "   midi.NoteOnEvent(tick=0, channel=3, data=[71, 80]),\n",
      "   midi.NoteOffEvent(tick=96, channel=3, data=[71, 0]),\n",
      "   midi.NoteOnEvent(tick=0, channel=3, data=[69, 80]),\n",
      "   midi.NoteOffEvent(tick=96, channel=3, data=[69, 0]),\n",
      "   midi.NoteOnEvent(tick=0, channel=3, data=[67, 80]),\n",
      "   midi.NoteOffEvent(tick=96, channel=3, data=[67, 0]),\n",
      "   midi.NoteOnEvent(tick=0, channel=3, data=[69, 80]),\n",
      "   midi.NoteOffEvent(tick=96, channel=3, data=[69, 0]),\n",
      "   midi.NoteOnEvent(tick=0, channel=3, data=[67, 80]),\n",
      "   midi.NoteOffEvent(tick=96, channel=3, data=[67, 0]),\n",
      "   midi.NoteOnEvent(tick=0, channel=3, data=[67, 80]),\n",
      "   midi.NoteOffEvent(tick=96, channel=3, data=[67, 0]),\n",
      "   midi.NoteOnEvent(tick=0, channel=3, data=[67, 80]),\n",
      "   midi.NoteOffEvent(tick=96, channel=3, data=[67, 0]),\n",
      "   midi.NoteOnEvent(tick=96, channel=3, data=[76, 80]),\n",
      "   midi.NoteOffEvent(tick=512, channel=3, data=[76, 0]),\n",
      "   midi.NoteOnEvent(tick=64, channel=3, data=[78, 80]),\n",
      "   midi.NoteOffEvent(tick=96, channel=3, data=[78, 0]),\n",
      "   midi.NoteOnEvent(tick=0, channel=3, data=[76, 80]),\n",
      "   midi.NoteOffEvent(tick=96, channel=3, data=[76, 0]),\n",
      "   midi.NoteOnEvent(tick=0, channel=3, data=[78, 80]),\n",
      "   midi.NoteOffEvent(tick=192, channel=3, data=[78, 0]),\n",
      "   midi.NoteOnEvent(tick=0, channel=3, data=[74, 80]),\n",
      "   midi.NoteOffEvent(tick=192, channel=3, data=[74, 0]),\n",
      "   midi.NoteOnEvent(tick=0, channel=3, data=[69, 80]),\n",
      "   midi.NoteOffEvent(tick=192, channel=3, data=[69, 0]),\n",
      "   midi.NoteOnEvent(tick=0, channel=3, data=[73, 80]),\n",
      "   midi.NoteOffEvent(tick=192, channel=3, data=[73, 0]),\n",
      "   midi.NoteOnEvent(tick=0, channel=3, data=[62, 80]),\n",
      "   midi.NoteOffEvent(tick=96, channel=3, data=[62, 0]),\n",
      "   midi.NoteOnEvent(tick=0, channel=3, data=[64, 80]),\n",
      "   midi.NoteOffEvent(tick=96, channel=3, data=[64, 0]),\n",
      "   midi.NoteOnEvent(tick=0, channel=3, data=[66, 80]),\n",
      "   midi.NoteOffEvent(tick=96, channel=3, data=[66, 0]),\n",
      "   midi.NoteOnEvent(tick=0, channel=3, data=[67, 80]),\n",
      "   midi.NoteOffEvent(tick=96, channel=3, data=[67, 0]),\n",
      "   midi.NoteOnEvent(tick=0, channel=3, data=[69, 80]),\n",
      "   midi.NoteOffEvent(tick=96, channel=3, data=[69, 0]),\n",
      "   midi.NoteOnEvent(tick=0, channel=3, data=[71, 80]),\n",
      "   midi.NoteOffEvent(tick=96, channel=3, data=[71, 0]),\n",
      "   midi.NoteOnEvent(tick=0, channel=3, data=[73, 80]),\n",
      "   midi.NoteOffEvent(tick=96, channel=3, data=[73, 0]),\n",
      "   midi.NoteOnEvent(tick=0, channel=3, data=[74, 80]),\n",
      "   midi.NoteOffEvent(tick=96, channel=3, data=[74, 0]),\n",
      "   midi.NoteOnEvent(tick=0, channel=3, data=[76, 80]),\n",
      "   midi.NoteOffEvent(tick=96, channel=3, data=[76, 0]),\n",
      "   midi.NoteOnEvent(tick=0, channel=3, data=[74, 80]),\n",
      "   midi.NoteOffEvent(tick=96, channel=3, data=[74, 0]),\n",
      "   midi.NoteOnEvent(tick=0, channel=3, data=[73, 80]),\n",
      "   midi.NoteOffEvent(tick=96, channel=3, data=[73, 0]),\n",
      "   midi.NoteOnEvent(tick=0, channel=3, data=[71, 80]),\n",
      "   midi.NoteOffEvent(tick=96, channel=3, data=[71, 0]),\n",
      "   midi.NoteOnEvent(tick=0, channel=3, data=[69, 80]),\n",
      "   midi.NoteOffEvent(tick=576, channel=3, data=[69, 0]),\n",
      "   midi.NoteOnEvent(tick=0, channel=3, data=[64, 80]),\n",
      "   midi.NoteOffEvent(tick=192, channel=3, data=[64, 0]),\n",
      "   midi.NoteOnEvent(tick=0, channel=3, data=[73, 80]),\n",
      "   midi.NoteOffEvent(tick=192, channel=3, data=[73, 0]),\n",
      "   midi.NoteOnEvent(tick=0, channel=3, data=[69, 80]),\n",
      "   midi.NoteOffEvent(tick=192, channel=3, data=[69, 0]),\n",
      "   midi.NoteOnEvent(tick=0, channel=3, data=[74, 80]),\n",
      "   midi.NoteOffEvent(tick=48, channel=3, data=[74, 0]),\n",
      "   midi.NoteOnEvent(tick=0, channel=3, data=[76, 80]),\n",
      "   midi.NoteOffEvent(tick=48, channel=3, data=[76, 0]),\n",
      "   midi.NoteOnEvent(tick=0, channel=3, data=[78, 80]),\n",
      "   midi.NoteOffEvent(tick=256, channel=3, data=[78, 0]),\n",
      "   midi.NoteOnEvent(tick=32, channel=3, data=[76, 80]),\n",
      "   midi.NoteOffEvent(tick=48, channel=3, data=[76, 0]),\n",
      "   midi.NoteOnEvent(tick=0, channel=3, data=[78, 80]),\n",
      "   midi.NoteOffEvent(tick=48, channel=3, data=[78, 0]),\n",
      "   midi.NoteOnEvent(tick=0, channel=3, data=[79, 80]),\n",
      "   midi.NoteOffEvent(tick=256, channel=3, data=[79, 0]),\n",
      "   midi.NoteOnEvent(tick=32, channel=3, data=[78, 80]),\n",
      "   midi.NoteOffEvent(tick=192, channel=3, data=[78, 0]),\n",
      "   midi.NoteOnEvent(tick=0, channel=3, data=[76, 80]),\n",
      "   midi.NoteOffEvent(tick=192, channel=3, data=[76, 0]),\n",
      "   midi.NoteOnEvent(tick=0, channel=3, data=[74, 80]),\n",
      "   midi.NoteOffEvent(tick=192, channel=3, data=[74, 0]),\n",
      "   midi.NoteOnEvent(tick=1536, channel=3, data=[74, 80]),\n",
      "   midi.NoteOffEvent(tick=192, channel=3, data=[74, 0]),\n",
      "   midi.NoteOnEvent(tick=0, channel=3, data=[79, 80]),\n",
      "   midi.NoteOffEvent(tick=48, channel=3, data=[79, 0]),\n",
      "   midi.NoteOnEvent(tick=0, channel=3, data=[81, 80]),\n",
      "   midi.NoteOffEvent(tick=48, channel=3, data=[81, 0]),\n",
      "   midi.NoteOnEvent(tick=0, channel=3, data=[83, 80]),\n",
      "   midi.NoteOffEvent(tick=256, channel=3, data=[83, 0]),\n",
      "   midi.NoteOnEvent(tick=32, channel=3, data=[81, 80]),\n",
      "   midi.NoteOffEvent(tick=48, channel=3, data=[81, 0]),\n",
      "   midi.NoteOnEvent(tick=0, channel=3, data=[83, 80]),\n",
      "   midi.NoteOffEvent(tick=48, channel=3, data=[83, 0]),\n",
      "   midi.NoteOnEvent(tick=0, channel=3, data=[84, 80]),\n",
      "   midi.NoteOffEvent(tick=256, channel=3, data=[84, 0]),\n",
      "   midi.NoteOnEvent(tick=32, channel=3, data=[83, 80]),\n",
      "   midi.NoteOffEvent(tick=192, channel=3, data=[83, 0]),\n",
      "   midi.NoteOnEvent(tick=0, channel=3, data=[81, 80]),\n",
      "   midi.NoteOffEvent(tick=192, channel=3, data=[81, 0]),\n",
      "   midi.NoteOnEvent(tick=0, channel=3, data=[79, 80]),\n",
      "   midi.NoteOffEvent(tick=192, channel=3, data=[79, 0]),\n",
      "   midi.NoteOnEvent(tick=0, channel=3, data=[64, 80]),\n",
      "   midi.NoteOffEvent(tick=96, channel=3, data=[64, 0]),\n",
      "   midi.NoteOnEvent(tick=0, channel=3, data=[66, 80]),\n",
      "   midi.NoteOffEvent(tick=96, channel=3, data=[66, 0]),\n",
      "   midi.NoteOnEvent(tick=0, channel=3, data=[64, 80]),\n",
      "   midi.NoteOffEvent(tick=96, channel=3, data=[64, 0]),\n",
      "   midi.NoteOnEvent(tick=0, channel=3, data=[64, 80]),\n",
      "   midi.NoteOffEvent(tick=96, channel=3, data=[64, 0]),\n",
      "   midi.NoteOnEvent(tick=0, channel=3, data=[64, 80]),\n",
      "   midi.NoteOffEvent(tick=96, channel=3, data=[64, 0]),\n",
      "   midi.NoteOnEvent(tick=0, channel=3, data=[73, 80]),\n",
      "   midi.NoteOffEvent(tick=192, channel=3, data=[73, 0]),\n",
      "   midi.NoteOnEvent(tick=0, channel=3, data=[67, 80]),\n",
      "   midi.NoteOffEvent(tick=96, channel=3, data=[67, 0]),\n",
      "   midi.NoteOnEvent(tick=0, channel=3, data=[69, 80]),\n",
      "   midi.NoteOffEvent(tick=96, channel=3, data=[69, 0]),\n",
      "   midi.NoteOnEvent(tick=0, channel=3, data=[67, 80]),\n",
      "   midi.NoteOffEvent(tick=96, channel=3, data=[67, 0]),\n",
      "   midi.NoteOnEvent(tick=0, channel=3, data=[67, 80]),\n",
      "   midi.NoteOffEvent(tick=96, channel=3, data=[67, 0]),\n",
      "   midi.NoteOnEvent(tick=0, channel=3, data=[67, 80]),\n",
      "   midi.NoteOffEvent(tick=96, channel=3, data=[67, 0]),\n",
      "   midi.NoteOnEvent(tick=0, channel=3, data=[76, 80]),\n",
      "   midi.NoteOffEvent(tick=192, channel=3, data=[76, 0]),\n",
      "   midi.NoteOnEvent(tick=576, channel=3, data=[78, 80]),\n",
      "   midi.NoteOffEvent(tick=96, channel=3, data=[78, 0]),\n",
      "   midi.NoteOnEvent(tick=0, channel=3, data=[79, 80]),\n",
      "   midi.NoteOffEvent(tick=96, channel=3, data=[79, 0]),\n",
      "   midi.NoteOnEvent(tick=0, channel=3, data=[81, 80]),\n",
      "   midi.NoteOffEvent(tick=96, channel=3, data=[81, 0]),\n",
      "   midi.NoteOnEvent(tick=96, channel=3, data=[81, 80]),\n",
      "   midi.NoteOffEvent(tick=96, channel=3, data=[81, 0]),\n",
      "   midi.NoteOnEvent(tick=96, channel=3, data=[81, 80]),\n",
      "   midi.NoteOffEvent(tick=96, channel=3, data=[81, 0]),\n",
      "   midi.NoteOnEvent(tick=96, channel=3, data=[81, 80]),\n",
      "   midi.NoteOffEvent(tick=96, channel=3, data=[81, 0]),\n",
      "   midi.NoteOnEvent(tick=0, channel=3, data=[86, 80]),\n",
      "   midi.NoteOffEvent(tick=96, channel=3, data=[86, 0]),\n",
      "   midi.NoteOnEvent(tick=0, channel=3, data=[85, 80]),\n",
      "   midi.NoteOffEvent(tick=96, channel=3, data=[85, 0]),\n",
      "   midi.NoteOnEvent(tick=0, channel=3, data=[83, 80]),\n",
      "   midi.NoteOffEvent(tick=96, channel=3, data=[83, 0]),\n",
      "   midi.NoteOnEvent(tick=0, channel=3, data=[81, 80]),\n",
      "   midi.NoteOffEvent(tick=192, channel=3, data=[81, 0]),\n",
      "   midi.NoteOnEvent(tick=0, channel=3, data=[74, 80]),\n",
      "   midi.NoteOffEvent(tick=192, channel=3, data=[74, 0]),\n",
      "   midi.NoteOnEvent(tick=0, channel=3, data=[76, 80]),\n",
      "   midi.NoteOffEvent(tick=384, channel=3, data=[76, 0]),\n",
      "   midi.NoteOnEvent(tick=0, channel=3, data=[73, 80]),\n",
      "   midi.NoteOffEvent(tick=384, channel=3, data=[73, 0]),\n",
      "   midi.NoteOnEvent(tick=0, channel=3, data=[74, 80]),\n",
      "   midi.NoteOffEvent(tick=192, channel=3, data=[74, 0]),\n",
      "   midi.NoteOnEvent(tick=0, channel=3, data=[78, 80]),\n",
      "   midi.NoteOffEvent(tick=192, channel=3, data=[78, 0]),\n",
      "   midi.NoteOnEvent(tick=0, channel=3, data=[74, 80]),\n",
      "   midi.NoteOffEvent(tick=192, channel=3, data=[74, 0]),\n",
      "   midi.NoteOnEvent(tick=0, channel=3, data=[69, 80]),\n",
      "   midi.NoteOffEvent(tick=192, channel=3, data=[69, 0]),\n",
      "   midi.NoteOnEvent(tick=0, channel=3, data=[66, 80]),\n",
      "   midi.NoteOffEvent(tick=192, channel=3, data=[66, 0]),\n",
      "   midi.NoteOnEvent(tick=1152, channel=3, data=[69, 80]),\n",
      "   midi.NoteOffEvent(tick=192, channel=3, data=[69, 0]),\n",
      "   midi.NoteOnEvent(tick=0, channel=3, data=[74, 80]),\n",
      "   midi.NoteOffEvent(tick=48, channel=3, data=[74, 0]),\n",
      "   midi.NoteOnEvent(tick=0, channel=3, data=[76, 80]),\n",
      "   midi.NoteOffEvent(tick=48, channel=3, data=[76, 0]),\n",
      "   midi.NoteOnEvent(tick=0, channel=3, data=[78, 80]),\n",
      "   midi.NoteOffEvent(tick=256, channel=3, data=[78, 0]),\n",
      "   midi.NoteOnEvent(tick=32, channel=3, data=[76, 80]),\n",
      "   midi.NoteOffEvent(tick=48, channel=3, data=[76, 0]),\n",
      "   midi.NoteOnEvent(tick=0, channel=3, data=[78, 80]),\n",
      "   midi.NoteOffEvent(tick=48, channel=3, data=[78, 0]),\n",
      "   midi.NoteOnEvent(tick=0, channel=3, data=[79, 80]),\n",
      "   midi.NoteOffEvent(tick=256, channel=3, data=[79, 0]),\n",
      "   midi.NoteOnEvent(tick=32, channel=3, data=[78, 80]),\n",
      "   midi.NoteOffEvent(tick=192, channel=3, data=[78, 0]),\n",
      "   midi.NoteOnEvent(tick=0, channel=3, data=[81, 80]),\n",
      "   midi.NoteOffEvent(tick=192, channel=3, data=[81, 0]),\n",
      "   midi.NoteOnEvent(tick=0, channel=3, data=[78, 80]),\n",
      "   midi.NoteOffEvent(tick=192, channel=3, data=[78, 0]),\n",
      "   midi.NoteOnEvent(tick=0, channel=3, data=[74, 80]),\n",
      "   midi.NoteOffEvent(tick=192, channel=3, data=[74, 0]),\n",
      "   midi.NoteOnEvent(tick=1344, channel=3, data=[69, 80]),\n",
      "   midi.NoteOffEvent(tick=192, channel=3, data=[69, 0]),\n",
      "   midi.NoteOnEvent(tick=0, channel=3, data=[74, 80]),\n",
      "   midi.NoteOffEvent(tick=48, channel=3, data=[74, 0]),\n",
      "   midi.NoteOnEvent(tick=0, channel=3, data=[76, 80]),\n",
      "   midi.NoteOffEvent(tick=48, channel=3, data=[76, 0]),\n",
      "   midi.NoteOnEvent(tick=0, channel=3, data=[78, 80]),\n",
      "   midi.NoteOffEvent(tick=256, channel=3, data=[78, 0]),\n",
      "   midi.NoteOnEvent(tick=32, channel=3, data=[76, 80]),\n",
      "   midi.NoteOffEvent(tick=48, channel=3, data=[76, 0]),\n",
      "   midi.NoteOnEvent(tick=0, channel=3, data=[78, 80]),\n",
      "   midi.NoteOffEvent(tick=48, channel=3, data=[78, 0]),\n",
      "   midi.NoteOnEvent(tick=0, channel=3, data=[79, 80]),\n",
      "   midi.NoteOffEvent(tick=256, channel=3, data=[79, 0]),\n",
      "   midi.NoteOnEvent(tick=32, channel=3, data=[78, 80]),\n",
      "   midi.NoteOffEvent(tick=192, channel=3, data=[78, 0]),\n",
      "   midi.NoteOnEvent(tick=0, channel=3, data=[81, 80]),\n",
      "   midi.NoteOffEvent(tick=192, channel=3, data=[81, 0]),\n",
      "   midi.NoteOnEvent(tick=0, channel=3, data=[78, 80]),\n",
      "   midi.NoteOffEvent(tick=192, channel=3, data=[78, 0]),\n",
      "   midi.NoteOnEvent(tick=0, channel=3, data=[74, 80]),\n",
      "   midi.NoteOffEvent(tick=192, channel=3, data=[74, 0]),\n",
      "   midi.NoteOnEvent(tick=960, channel=3, data=[83, 80]),\n",
      "   midi.NoteOffEvent(tick=96, channel=3, data=[83, 0]),\n",
      "   midi.NoteOnEvent(tick=0, channel=3, data=[81, 80]),\n",
      "   midi.NoteOffEvent(tick=96, channel=3, data=[81, 0]),\n",
      "   midi.NoteOnEvent(tick=0, channel=3, data=[83, 80]),\n",
      "   midi.NoteOffEvent(tick=96, channel=3, data=[83, 0]),\n",
      "   midi.NoteOnEvent(tick=0, channel=3, data=[81, 80]),\n",
      "   midi.NoteOffEvent(tick=96, channel=3, data=[81, 0]),\n",
      "   midi.NoteOnEvent(tick=0, channel=3, data=[80, 80]),\n",
      "   midi.NoteOffEvent(tick=96, channel=3, data=[80, 0]),\n",
      "   midi.NoteOnEvent(tick=0, channel=3, data=[78, 80]),\n",
      "   midi.NoteOffEvent(tick=96, channel=3, data=[78, 0]),\n",
      "   midi.NoteOnEvent(tick=0, channel=3, data=[76, 80]),\n",
      "   midi.NoteOffEvent(tick=192, channel=3, data=[76, 0]),\n",
      "   midi.NoteOnEvent(tick=768, channel=3, data=[81, 80]),\n",
      "   midi.NoteOffEvent(tick=96, channel=3, data=[81, 0]),\n",
      "   midi.NoteOnEvent(tick=0, channel=3, data=[80, 80]),\n",
      "   midi.NoteOffEvent(tick=96, channel=3, data=[80, 0]),\n",
      "   midi.NoteOnEvent(tick=0, channel=3, data=[81, 80]),\n",
      "   midi.NoteOffEvent(tick=96, channel=3, data=[81, 0]),\n",
      "   midi.NoteOnEvent(tick=0, channel=3, data=[80, 80]),\n",
      "   midi.NoteOffEvent(tick=96, channel=3, data=[80, 0]),\n",
      "   midi.NoteOnEvent(tick=0, channel=3, data=[78, 80]),\n",
      "   midi.NoteOffEvent(tick=96, channel=3, data=[78, 0]),\n",
      "   midi.NoteOnEvent(tick=0, channel=3, data=[76, 80]),\n",
      "   midi.NoteOffEvent(tick=96, channel=3, data=[76, 0]),\n",
      "   midi.NoteOnEvent(tick=0, channel=3, data=[74, 80]),\n",
      "   midi.NoteOffEvent(tick=192, channel=3, data=[74, 0]),\n",
      "   midi.NoteOnEvent(tick=0, channel=3, data=[78, 80]),\n",
      "   midi.NoteOffEvent(tick=192, channel=3, data=[78, 0]),\n",
      "   midi.NoteOnEvent(tick=0, channel=3, data=[80, 80]),\n",
      "   midi.NoteOffEvent(tick=192, channel=3, data=[80, 0]),\n",
      "   midi.NoteOnEvent(tick=0, channel=3, data=[81, 80]),\n",
      "   midi.NoteOffEvent(tick=192, channel=3, data=[81, 0]),\n",
      "   midi.NoteOnEvent(tick=0, channel=3, data=[83, 80]),\n",
      "   midi.NoteOffEvent(tick=192, channel=3, data=[83, 0]),\n",
      "   midi.NoteOnEvent(tick=0, channel=3, data=[71, 80]),\n",
      "   midi.NoteOffEvent(tick=96, channel=3, data=[71, 0]),\n",
      "   midi.NoteOnEvent(tick=0, channel=3, data=[73, 80]),\n",
      "   midi.NoteOffEvent(tick=96, channel=3, data=[73, 0]),\n",
      "   midi.NoteOnEvent(tick=0, channel=3, data=[74, 80]),\n",
      "   midi.NoteOffEvent(tick=96, channel=3, data=[74, 0]),\n",
      "   midi.NoteOnEvent(tick=0, channel=3, data=[76, 80]),\n",
      "   midi.NoteOffEvent(tick=96, channel=3, data=[76, 0]),\n",
      "   midi.NoteOnEvent(tick=0, channel=3, data=[78, 80]),\n",
      "   midi.NoteOffEvent(tick=96, channel=3, data=[78, 0]),\n",
      "   midi.NoteOnEvent(tick=0, channel=3, data=[80, 80]),\n",
      "   midi.NoteOffEvent(tick=96, channel=3, data=[80, 0]),\n",
      "   midi.NoteOnEvent(tick=0, channel=3, data=[81, 80]),\n",
      "   midi.NoteOffEvent(tick=96, channel=3, data=[81, 0]),\n",
      "   midi.NoteOnEvent(tick=0, channel=3, data=[76, 80]),\n",
      "   midi.NoteOffEvent(tick=96, channel=3, data=[76, 0]),\n",
      "   midi.NoteOnEvent(tick=0, channel=3, data=[74, 80]),\n",
      "   midi.NoteOffEvent(tick=96, channel=3, data=[74, 0]),\n",
      "   midi.NoteOnEvent(tick=0, channel=3, data=[73, 80]),\n",
      "   midi.NoteOffEvent(tick=96, channel=3, data=[73, 0]),\n",
      "   midi.NoteOnEvent(tick=0, channel=3, data=[74, 80]),\n",
      "   midi.NoteOffEvent(tick=96, channel=3, data=[74, 0]),\n",
      "   midi.NoteOnEvent(tick=0, channel=3, data=[73, 80]),\n",
      "   midi.NoteOffEvent(tick=96, channel=3, data=[73, 0]),\n",
      "   midi.NoteOnEvent(tick=0, channel=3, data=[71, 80]),\n",
      "   midi.NoteOffEvent(tick=96, channel=3, data=[71, 0]),\n",
      "   midi.NoteOnEvent(tick=0, channel=3, data=[73, 80]),\n",
      "   midi.NoteOffEvent(tick=96, channel=3, data=[73, 0]),\n",
      "   midi.NoteOnEvent(tick=0, channel=3, data=[69, 80]),\n",
      "   midi.NoteOffEvent(tick=480, channel=3, data=[69, 0]),\n",
      "   midi.EndOfTrackEvent(tick=0, data=[])]),\n",
      " midi.Track(\\\n",
      "  [midi.TrackNameEvent(tick=0, text='Oboe II', data=[79, 98, 111, 101, 32, 73, 73]),\n",
      "   midi.ControlChangeEvent(tick=0, channel=3, data=[0, 0]),\n",
      "   midi.ProgramChangeEvent(tick=0, channel=3, data=[68]),\n",
      "   midi.ControlChangeEvent(tick=0, channel=3, data=[7, 100]),\n",
      "   midi.ControlChangeEvent(tick=0, channel=3, data=[10, 64]),\n",
      "   midi.ControlChangeEvent(tick=0, channel=3, data=[91, 127]),\n",
      "   midi.ControlChangeEvent(tick=0, channel=3, data=[93, 127]),\n",
      "   midi.KeySignatureEvent(tick=0, data=[2, 0]),\n",
      "   midi.NoteOnEvent(tick=2112, channel=3, data=[66, 80]),\n",
      "   midi.NoteOffEvent(tick=96, channel=3, data=[66, 0]),\n",
      "   midi.NoteOnEvent(tick=0, channel=3, data=[67, 80]),\n",
      "   midi.NoteOffEvent(tick=96, channel=3, data=[67, 0]),\n",
      "   midi.NoteOnEvent(tick=0, channel=3, data=[69, 80]),\n",
      "   midi.NoteOffEvent(tick=192, channel=3, data=[69, 0]),\n",
      "   midi.NoteOnEvent(tick=0, channel=3, data=[74, 80]),\n",
      "   midi.NoteOffEvent(tick=192, channel=3, data=[74, 0]),\n",
      "   midi.NoteOnEvent(tick=0, channel=3, data=[71, 80]),\n",
      "   midi.NoteOffEvent(tick=192, channel=3, data=[71, 0]),\n",
      "   midi.NoteOnEvent(tick=0, channel=3, data=[76, 80]),\n",
      "   midi.NoteOffEvent(tick=192, channel=3, data=[76, 0]),\n",
      "   midi.NoteOnEvent(tick=0, channel=3, data=[74, 80]),\n",
      "   midi.NoteOffEvent(tick=192, channel=3, data=[74, 0]),\n",
      "   midi.NoteOnEvent(tick=0, channel=3, data=[78, 80]),\n",
      "   midi.NoteOffEvent(tick=192, channel=3, data=[78, 0]),\n",
      "   midi.NoteOnEvent(tick=0, channel=3, data=[74, 80]),\n",
      "   midi.NoteOffEvent(tick=192, channel=3, data=[74, 0]),\n",
      "   midi.NoteOnEvent(tick=0, channel=3, data=[69, 80]),\n",
      "   midi.NoteOffEvent(tick=192, channel=3, data=[69, 0]),\n",
      "   midi.NoteOnEvent(tick=1344, channel=3, data=[66, 80]),\n",
      "   midi.NoteOffEvent(tick=96, channel=3, data=[66, 0]),\n",
      "   midi.NoteOnEvent(tick=0, channel=3, data=[67, 80]),\n",
      "   midi.NoteOffEvent(tick=96, channel=3, data=[67, 0]),\n",
      "   midi.NoteOnEvent(tick=0, channel=3, data=[69, 80]),\n",
      "   midi.NoteOffEvent(tick=192, channel=3, data=[69, 0]),\n",
      "   midi.NoteOnEvent(tick=0, channel=3, data=[74, 80]),\n",
      "   midi.NoteOffEvent(tick=192, channel=3, data=[74, 0]),\n",
      "   midi.NoteOnEvent(tick=0, channel=3, data=[71, 80]),\n",
      "   midi.NoteOffEvent(tick=192, channel=3, data=[71, 0]),\n",
      "   midi.NoteOnEvent(tick=0, channel=3, data=[76, 80]),\n",
      "   midi.NoteOffEvent(tick=192, channel=3, data=[76, 0]),\n",
      "   midi.NoteOnEvent(tick=0, channel=3, data=[74, 80]),\n",
      "   midi.NoteOffEvent(tick=192, channel=3, data=[74, 0]),\n",
      "   midi.NoteOnEvent(tick=0, channel=3, data=[78, 80]),\n",
      "   midi.NoteOffEvent(tick=192, channel=3, data=[78, 0]),\n",
      "   midi.NoteOnEvent(tick=0, channel=3, data=[74, 80]),\n",
      "   midi.NoteOffEvent(tick=192, channel=3, data=[74, 0]),\n",
      "   midi.NoteOnEvent(tick=0, channel=3, data=[69, 80]),\n",
      "   midi.NoteOffEvent(tick=192, channel=3, data=[69, 0]),\n",
      "   midi.NoteOnEvent(tick=960, channel=3, data=[78, 80]),\n",
      "   midi.NoteOffEvent(tick=384, channel=3, data=[78, 0]),\n",
      "   midi.NoteOnEvent(tick=0, channel=3, data=[76, 80]),\n",
      "   midi.NoteOffEvent(tick=96, channel=3, data=[76, 0]),\n",
      "   midi.NoteOnEvent(tick=0, channel=3, data=[74, 80]),\n",
      "   midi.NoteOffEvent(tick=96, channel=3, data=[74, 0]),\n",
      "   midi.NoteOnEvent(tick=0, channel=3, data=[76, 80]),\n",
      "   midi.NoteOffEvent(tick=192, channel=3, data=[76, 0]),\n",
      "   midi.NoteOnEvent(tick=768, channel=3, data=[76, 80]),\n",
      "   midi.NoteOffEvent(tick=384, channel=3, data=[76, 0]),\n",
      "   midi.NoteOnEvent(tick=0, channel=3, data=[74, 80]),\n",
      "   midi.NoteOffEvent(tick=96, channel=3, data=[74, 0]),\n",
      "   midi.NoteOnEvent(tick=0, channel=3, data=[73, 80]),\n",
      "   midi.NoteOffEvent(tick=96, channel=3, data=[73, 0]),\n",
      "   midi.NoteOnEvent(tick=0, channel=3, data=[74, 80]),\n",
      "   midi.NoteOffEvent(tick=192, channel=3, data=[74, 0]),\n",
      "   midi.NoteOnEvent(tick=0, channel=3, data=[74, 80]),\n",
      "   midi.NoteOffEvent(tick=192, channel=3, data=[74, 0]),\n",
      "   midi.NoteOnEvent(tick=0, channel=3, data=[76, 80]),\n",
      "   midi.NoteOffEvent(tick=192, channel=3, data=[76, 0]),\n",
      "   midi.NoteOnEvent(tick=0, channel=3, data=[78, 80]),\n",
      "   midi.NoteOffEvent(tick=192, channel=3, data=[78, 0]),\n",
      "   midi.NoteOnEvent(tick=0, channel=3, data=[76, 80]),\n",
      "   midi.NoteOffEvent(tick=192, channel=3, data=[76, 0]),\n",
      "   midi.NoteOnEvent(tick=0, channel=3, data=[68, 80]),\n",
      "   midi.NoteOffEvent(tick=96, channel=3, data=[68, 0]),\n",
      "   midi.NoteOnEvent(tick=0, channel=3, data=[69, 80]),\n",
      "   midi.NoteOffEvent(tick=96, channel=3, data=[69, 0]),\n",
      "   midi.NoteOnEvent(tick=0, channel=3, data=[71, 80]),\n",
      "   midi.NoteOffEvent(tick=96, channel=3, data=[71, 0]),\n",
      "   midi.NoteOnEvent(tick=0, channel=3, data=[73, 80]),\n",
      "   midi.NoteOffEvent(tick=96, channel=3, data=[73, 0]),\n",
      "   midi.NoteOnEvent(tick=0, channel=3, data=[74, 80]),\n",
      "   midi.NoteOffEvent(tick=96, channel=3, data=[74, 0]),\n",
      "   midi.NoteOnEvent(tick=0, channel=3, data=[76, 80]),\n",
      "   midi.NoteOffEvent(tick=96, channel=3, data=[76, 0]),\n",
      "   midi.NoteOnEvent(tick=0, channel=3, data=[73, 80]),\n",
      "   midi.NoteOffEvent(tick=192, channel=3, data=[73, 0]),\n",
      "   midi.NoteOnEvent(tick=0, channel=3, data=[76, 80]),\n",
      "   midi.NoteOffEvent(tick=192, channel=3, data=[76, 0]),\n",
      "   midi.NoteOnEvent(tick=0, channel=3, data=[64, 80]),\n",
      "   midi.NoteOffEvent(tick=192, channel=3, data=[64, 0]),\n",
      "   midi.NoteOnEvent(tick=0, channel=3, data=[74, 80]),\n",
      "   midi.NoteOffEvent(tick=192, channel=3, data=[74, 0]),\n",
      "   midi.NoteOnEvent(tick=0, channel=3, data=[73, 80]),\n",
      "   midi.NoteOffEvent(tick=384, channel=3, data=[73, 0]),\n",
      "   midi.NoteOnEvent(tick=384, channel=3, data=[69, 80]),\n",
      "   midi.NoteOffEvent(tick=96, channel=3, data=[69, 0]),\n",
      "   midi.NoteOnEvent(tick=0, channel=3, data=[71, 80]),\n",
      "   midi.NoteOffEvent(tick=96, channel=3, data=[71, 0]),\n",
      "   midi.NoteOnEvent(tick=0, channel=3, data=[73, 80]),\n",
      "   midi.NoteOffEvent(tick=96, channel=3, data=[73, 0]),\n",
      "   midi.NoteOnEvent(tick=96, channel=3, data=[73, 80]),\n",
      "   midi.NoteOffEvent(tick=96, channel=3, data=[73, 0]),\n",
      "   midi.NoteOnEvent(tick=96, channel=3, data=[73, 80]),\n",
      "   midi.NoteOffEvent(tick=96, channel=3, data=[73, 0]),\n",
      "   midi.NoteOnEvent(tick=96, channel=3, data=[73, 80]),\n",
      "   midi.NoteOffEvent(tick=896, channel=3, data=[73, 0]),\n",
      "   midi.NoteOnEvent(tick=64, channel=3, data=[73, 80]),\n",
      "   midi.NoteOffEvent(tick=192, channel=3, data=[73, 0]),\n",
      "   midi.NoteOnEvent(tick=0, channel=3, data=[70, 80]),\n",
      "   midi.NoteOffEvent(tick=192, channel=3, data=[70, 0]),\n",
      "   midi.NoteOnEvent(tick=0, channel=3, data=[66, 80]),\n",
      "   midi.NoteOffEvent(tick=192, channel=3, data=[66, 0]),\n",
      "   midi.NoteOnEvent(tick=192, channel=3, data=[71, 80]),\n",
      "   midi.NoteOffEvent(tick=192, channel=3, data=[71, 0]),\n",
      "   midi.NoteOnEvent(tick=0, channel=3, data=[66, 80]),\n",
      "   midi.NoteOffEvent(tick=192, channel=3, data=[66, 0]),\n",
      "   midi.NoteOnEvent(tick=0, channel=3, data=[62, 80]),\n",
      "   midi.NoteOffEvent(tick=192, channel=3, data=[62, 0]),\n",
      "   midi.NoteOnEvent(tick=192, channel=3, data=[78, 80]),\n",
      "   midi.NoteOffEvent(tick=192, channel=3, data=[78, 0]),\n",
      "   midi.NoteOnEvent(tick=0, channel=3, data=[75, 80]),\n",
      "   midi.NoteOffEvent(tick=192, channel=3, data=[75, 0]),\n",
      "   midi.NoteOnEvent(tick=0, channel=3, data=[69, 80]),\n",
      "   midi.NoteOffEvent(tick=192, channel=3, data=[69, 0]),\n",
      "   midi.NoteOnEvent(tick=384, channel=3, data=[84, 80]),\n",
      "   midi.NoteOffEvent(tick=192, channel=3, data=[84, 0]),\n",
      "   midi.NoteOnEvent(tick=0, channel=3, data=[81, 80]),\n",
      "   midi.NoteOffEvent(tick=192, channel=3, data=[81, 0]),\n",
      "   midi.NoteOnEvent(tick=192, channel=3, data=[78, 80]),\n",
      "   midi.NoteOffEvent(tick=192, channel=3, data=[78, 0]),\n",
      "   midi.NoteOnEvent(tick=0, channel=3, data=[75, 80]),\n",
      "   midi.NoteOffEvent(tick=192, channel=3, data=[75, 0]),\n",
      "   midi.NoteOnEvent(tick=0, channel=3, data=[71, 80]),\n",
      "   midi.NoteOffEvent(tick=192, channel=3, data=[71, 0]),\n",
      "   midi.NoteOnEvent(tick=192, channel=3, data=[79, 80]),\n",
      "   midi.NoteOffEvent(tick=192, channel=3, data=[79, 0]),\n",
      "   midi.NoteOnEvent(tick=0, channel=3, data=[76, 80]),\n",
      "   midi.NoteOffEvent(tick=192, channel=3, data=[76, 0]),\n",
      "   midi.NoteOnEvent(tick=0, channel=3, data=[71, 80]),\n",
      "   midi.NoteOffEvent(tick=192, channel=3, data=[71, 0]),\n",
      "   midi.NoteOnEvent(tick=0, channel=3, data=[67, 80]),\n",
      "   midi.NoteOffEvent(tick=192, channel=3, data=[67, 0]),\n",
      "   midi.NoteOnEvent(tick=0, channel=3, data=[64, 80]),\n",
      "   midi.NoteOffEvent(tick=192, channel=3, data=[64, 0]),\n",
      "   midi.NoteOnEvent(tick=960, channel=3, data=[69, 80]),\n",
      "   midi.NoteOffEvent(tick=384, channel=3, data=[69, 0]),\n",
      "   midi.NoteOnEvent(tick=0, channel=3, data=[66, 80]),\n",
      "   midi.NoteOffEvent(tick=192, channel=3, data=[66, 0]),\n",
      "   midi.NoteOnEvent(tick=0, channel=3, data=[62, 80]),\n",
      "   midi.NoteOffEvent(tick=192, channel=3, data=[62, 0]),\n",
      "   midi.NoteOnEvent(tick=0, channel=3, data=[69, 80]),\n",
      "   midi.NoteOffEvent(tick=192, channel=3, data=[69, 0]),\n",
      "   midi.NoteOnEvent(tick=0, channel=3, data=[74, 80]),\n",
      "   midi.NoteOffEvent(tick=192, channel=3, data=[74, 0]),\n",
      "   midi.NoteOnEvent(tick=0, channel=3, data=[71, 80]),\n",
      "   midi.NoteOffEvent(tick=192, channel=3, data=[71, 0]),\n",
      "   midi.NoteOnEvent(tick=192, channel=3, data=[71, 80]),\n",
      "   midi.NoteOffEvent(tick=192, channel=3, data=[71, 0]),\n",
      "   midi.NoteOnEvent(tick=0, channel=3, data=[73, 80]),\n",
      "   midi.NoteOffEvent(tick=96, channel=3, data=[73, 0]),\n",
      "   midi.NoteOnEvent(tick=0, channel=3, data=[74, 80]),\n",
      "   midi.NoteOffEvent(tick=96, channel=3, data=[74, 0]),\n",
      "   midi.NoteOnEvent(tick=0, channel=3, data=[76, 80]),\n",
      "   midi.NoteOffEvent(tick=256, channel=3, data=[76, 0]),\n",
      "   midi.NoteOnEvent(tick=32, channel=3, data=[78, 80]),\n",
      "   midi.NoteOffEvent(tick=96, channel=3, data=[78, 0]),\n",
      "   midi.NoteOnEvent(tick=0, channel=3, data=[79, 80]),\n",
      "   midi.NoteOffEvent(tick=192, channel=3, data=[79, 0]),\n",
      "   midi.NoteOnEvent(tick=0, channel=3, data=[73, 80]),\n",
      "   midi.NoteOffEvent(tick=192, channel=3, data=[73, 0]),\n",
      "   midi.NoteOnEvent(tick=0, channel=3, data=[76, 80]),\n",
      "   midi.NoteOffEvent(tick=192, channel=3, data=[76, 0]),\n",
      "   midi.NoteOnEvent(tick=0, channel=3, data=[69, 80]),\n",
      "   midi.NoteOffEvent(tick=192, channel=3, data=[69, 0]),\n",
      "   midi.NoteOnEvent(tick=0, channel=3, data=[74, 80]),\n",
      "   midi.NoteOffEvent(tick=96, channel=3, data=[74, 0]),\n",
      "   midi.NoteOnEvent(tick=0, channel=3, data=[73, 80]),\n",
      "   midi.NoteOffEvent(tick=96, channel=3, data=[73, 0]),\n",
      "   midi.NoteOnEvent(tick=0, channel=3, data=[74, 80]),\n",
      "   midi.NoteOffEvent(tick=192, channel=3, data=[74, 0]),\n",
      "   midi.NoteOnEvent(tick=0, channel=3, data=[74, 80]),\n",
      "   midi.NoteOffEvent(tick=192, channel=3, data=[74, 0]),\n",
      "   midi.NoteOnEvent(tick=0, channel=3, data=[74, 80]),\n",
      "   midi.NoteOffEvent(tick=192, channel=3, data=[74, 0]),\n",
      "   midi.NoteOnEvent(tick=0, channel=3, data=[69, 80]),\n",
      "   midi.NoteOffEvent(tick=192, channel=3, data=[69, 0]),\n",
      "   midi.NoteOnEvent(tick=0, channel=3, data=[66, 80]),\n",
      "   midi.NoteOffEvent(tick=384, channel=3, data=[66, 0]),\n",
      "   midi.NoteOnEvent(tick=1152, channel=3, data=[66, 80]),\n",
      "   midi.NoteOffEvent(tick=96, channel=3, data=[66, 0]),\n",
      "   midi.NoteOnEvent(tick=0, channel=3, data=[67, 80]),\n",
      "   midi.NoteOffEvent(tick=96, channel=3, data=[67, 0]),\n",
      "   midi.NoteOnEvent(tick=0, channel=3, data=[69, 80]),\n",
      "   midi.NoteOffEvent(tick=96, channel=3, data=[69, 0]),\n",
      "   midi.NoteOnEvent(tick=96, channel=3, data=[69, 80]),\n",
      "   midi.NoteOffEvent(tick=96, channel=3, data=[69, 0]),\n",
      "   midi.NoteOnEvent(tick=96, channel=3, data=[69, 80]),\n",
      "   midi.NoteOffEvent(tick=96, channel=3, data=[69, 0]),\n",
      "   midi.NoteOnEvent(tick=96, channel=3, data=[69, 80]),\n",
      "   midi.NoteOffEvent(tick=192, channel=3, data=[69, 0]),\n",
      "   midi.NoteOnEvent(tick=2112, channel=3, data=[64, 80]),\n",
      "   midi.NoteOffEvent(tick=96, channel=3, data=[64, 0]),\n",
      "   midi.NoteOnEvent(tick=0, channel=3, data=[66, 80]),\n",
      "   midi.NoteOffEvent(tick=96, channel=3, data=[66, 0]),\n",
      "   midi.NoteOnEvent(tick=0, channel=3, data=[67, 80]),\n",
      "   midi.NoteOffEvent(tick=96, channel=3, data=[67, 0]),\n",
      "   midi.NoteOnEvent(tick=96, channel=3, data=[67, 80]),\n",
      "   midi.NoteOffEvent(tick=96, channel=3, data=[67, 0]),\n",
      "   midi.NoteOnEvent(tick=96, channel=3, data=[67, 80]),\n",
      "   midi.NoteOffEvent(tick=96, channel=3, data=[67, 0]),\n",
      "   midi.NoteOnEvent(tick=96, channel=3, data=[69, 80]),\n",
      "   midi.NoteOffEvent(tick=192, channel=3, data=[69, 0]),\n",
      "   midi.NoteOnEvent(tick=0, channel=3, data=[66, 80]),\n",
      "   midi.NoteOffEvent(tick=192, channel=3, data=[66, 0]),\n",
      "   midi.NoteOnEvent(tick=0, channel=3, data=[71, 80]),\n",
      "   midi.NoteOffEvent(tick=192, channel=3, data=[71, 0]),\n",
      "   midi.NoteOnEvent(tick=0, channel=3, data=[69, 80]),\n",
      "   midi.NoteOffEvent(tick=384, channel=3, data=[69, 0]),\n",
      "   midi.NoteOnEvent(tick=0, channel=3, data=[67, 80]),\n",
      "   midi.NoteOffEvent(tick=192, channel=3, data=[67, 0]),\n",
      "   midi.NoteOnEvent(tick=0, channel=3, data=[66, 80]),\n",
      "   midi.NoteOffEvent(tick=384, channel=3, data=[66, 0]),\n",
      "   midi.NoteOnEvent(tick=1344, channel=3, data=[65, 80]),\n",
      "   midi.NoteOffEvent(tick=96, channel=3, data=[65, 0]),\n",
      "   midi.NoteOnEvent(tick=0, channel=3, data=[67, 80]),\n",
      "   midi.NoteOffEvent(tick=96, channel=3, data=[67, 0]),\n",
      "   midi.NoteOnEvent(tick=0, channel=3, data=[69, 80]),\n",
      "   midi.NoteOffEvent(tick=192, channel=3, data=[69, 0]),\n",
      "   midi.NoteOnEvent(tick=0, channel=3, data=[74, 80]),\n",
      "   midi.NoteOffEvent(tick=192, channel=3, data=[74, 0]),\n",
      "   midi.NoteOnEvent(tick=0, channel=3, data=[74, 80]),\n",
      "   midi.NoteOffEvent(tick=192, channel=3, data=[74, 0]),\n",
      "   midi.NoteOnEvent(tick=0, channel=3, data=[69, 80]),\n",
      "   midi.NoteOffEvent(tick=192, channel=3, data=[69, 0]),\n",
      "   midi.NoteOnEvent(tick=0, channel=3, data=[69, 80]),\n",
      "   midi.NoteOffEvent(tick=192, channel=3, data=[69, 0]),\n",
      "   midi.NoteOnEvent(tick=0, channel=3, data=[78, 80]),\n",
      "   midi.NoteOffEvent(tick=192, channel=3, data=[78, 0]),\n",
      "   midi.NoteOnEvent(tick=0, channel=3, data=[74, 80]),\n",
      "   midi.NoteOffEvent(tick=192, channel=3, data=[74, 0]),\n",
      "   midi.NoteOnEvent(tick=0, channel=3, data=[69, 80]),\n",
      "   midi.NoteOffEvent(tick=192, channel=3, data=[69, 0]),\n",
      "   midi.NoteOnEvent(tick=192, channel=3, data=[66, 80]),\n",
      "   midi.NoteOffEvent(tick=192, channel=3, data=[66, 0]),\n",
      "   midi.NoteOnEvent(tick=0, channel=3, data=[69, 80]),\n",
      "   midi.NoteOffEvent(tick=192, channel=3, data=[69, 0]),\n",
      "   midi.NoteOnEvent(tick=0, channel=3, data=[74, 80]),\n",
      "   midi.NoteOffEvent(tick=192, channel=3, data=[74, 0]),\n",
      "   midi.NoteOnEvent(tick=192, channel=3, data=[71, 80]),\n",
      "   midi.NoteOffEvent(tick=192, channel=3, data=[71, 0]),\n",
      "   midi.NoteOnEvent(tick=0, channel=3, data=[74, 80]),\n",
      "   midi.NoteOffEvent(tick=192, channel=3, data=[74, 0]),\n",
      "   midi.NoteOnEvent(tick=0, channel=3, data=[78, 80]),\n",
      "   midi.NoteOffEvent(tick=192, channel=3, data=[78, 0]),\n",
      "   midi.NoteOnEvent(tick=192, channel=3, data=[67, 80]),\n",
      "   midi.NoteOffEvent(tick=192, channel=3, data=[67, 0]),\n",
      "   midi.NoteOnEvent(tick=0, channel=3, data=[71, 80]),\n",
      "   midi.NoteOffEvent(tick=192, channel=3, data=[71, 0]),\n",
      "   midi.NoteOnEvent(tick=0, channel=3, data=[76, 80]),\n",
      "   midi.NoteOffEvent(tick=192, channel=3, data=[76, 0]),\n",
      "   midi.NoteOnEvent(tick=192, channel=3, data=[79, 80]),\n",
      "   midi.NoteOffEvent(tick=192, channel=3, data=[79, 0]),\n",
      "   midi.NoteOnEvent(tick=0, channel=3, data=[76, 80]),\n",
      "   midi.NoteOffEvent(tick=192, channel=3, data=[76, 0]),\n",
      "   midi.NoteOnEvent(tick=0, channel=3, data=[73, 80]),\n",
      "   midi.NoteOffEvent(tick=192, channel=3, data=[73, 0]),\n",
      "   midi.NoteOnEvent(tick=960, channel=3, data=[78, 80]),\n",
      "   midi.NoteOffEvent(tick=384, channel=3, data=[78, 0]),\n",
      "   midi.NoteOnEvent(tick=0, channel=3, data=[76, 80]),\n",
      "   midi.NoteOffEvent(tick=96, channel=3, data=[76, 0]),\n",
      "   midi.NoteOnEvent(tick=0, channel=3, data=[74, 80]),\n",
      "   midi.NoteOffEvent(tick=96, channel=3, data=[74, 0]),\n",
      "   midi.NoteOnEvent(tick=0, channel=3, data=[76, 80]),\n",
      "   midi.NoteOffEvent(tick=192, channel=3, data=[76, 0]),\n",
      "   midi.NoteOnEvent(tick=768, channel=3, data=[76, 80]),\n",
      "   midi.NoteOffEvent(tick=384, channel=3, data=[76, 0]),\n",
      "   midi.NoteOnEvent(tick=0, channel=3, data=[74, 80]),\n",
      "   midi.NoteOffEvent(tick=96, channel=3, data=[74, 0]),\n",
      "   midi.NoteOnEvent(tick=0, channel=3, data=[73, 80]),\n",
      "   midi.NoteOffEvent(tick=96, channel=3, data=[73, 0]),\n",
      "   midi.NoteOnEvent(tick=0, channel=3, data=[74, 80]),\n",
      "   midi.NoteOffEvent(tick=192, channel=3, data=[74, 0]),\n",
      "   midi.NoteOnEvent(tick=0, channel=3, data=[74, 80]),\n",
      "   midi.NoteOffEvent(tick=192, channel=3, data=[74, 0]),\n",
      "   midi.NoteOnEvent(tick=0, channel=3, data=[76, 80]),\n",
      "   midi.NoteOffEvent(tick=192, channel=3, data=[76, 0]),\n",
      "   midi.NoteOnEvent(tick=0, channel=3, data=[78, 80]),\n",
      "   midi.NoteOffEvent(tick=192, channel=3, data=[78, 0]),\n",
      "   midi.NoteOnEvent(tick=0, channel=3, data=[76, 80]),\n",
      "   midi.NoteOffEvent(tick=192, channel=3, data=[76, 0]),\n",
      "   midi.NoteOnEvent(tick=0, channel=3, data=[68, 80]),\n",
      "   midi.NoteOffEvent(tick=96, channel=3, data=[68, 0]),\n",
      "   midi.NoteOnEvent(tick=0, channel=3, data=[69, 80]),\n",
      "   midi.NoteOffEvent(tick=96, channel=3, data=[69, 0]),\n",
      "   midi.NoteOnEvent(tick=0, channel=3, data=[71, 80]),\n",
      "   midi.NoteOffEvent(tick=96, channel=3, data=[71, 0]),\n",
      "   midi.NoteOnEvent(tick=0, channel=3, data=[73, 80]),\n",
      "   midi.NoteOffEvent(tick=96, channel=3, data=[73, 0]),\n",
      "   midi.NoteOnEvent(tick=0, channel=3, data=[74, 80]),\n",
      "   midi.NoteOffEvent(tick=96, channel=3, data=[74, 0]),\n",
      "   midi.NoteOnEvent(tick=0, channel=3, data=[76, 80]),\n",
      "   midi.NoteOffEvent(tick=96, channel=3, data=[76, 0]),\n",
      "   midi.NoteOnEvent(tick=0, channel=3, data=[73, 80]),\n",
      "   midi.NoteOffEvent(tick=192, channel=3, data=[73, 0]),\n",
      "   midi.NoteOnEvent(tick=0, channel=3, data=[76, 80]),\n",
      "   midi.NoteOffEvent(tick=192, channel=3, data=[76, 0]),\n",
      "   midi.NoteOnEvent(tick=0, channel=3, data=[64, 80]),\n",
      "   midi.NoteOffEvent(tick=192, channel=3, data=[64, 0]),\n",
      "   midi.NoteOnEvent(tick=0, channel=3, data=[74, 80]),\n",
      "   midi.NoteOffEvent(tick=192, channel=3, data=[74, 0]),\n",
      "   midi.NoteOnEvent(tick=1536, channel=3, data=[71, 80]),\n",
      "   midi.NoteOffEvent(tick=96, channel=3, data=[71, 0]),\n",
      "   midi.NoteOnEvent(tick=0, channel=3, data=[73, 80]),\n",
      "   midi.NoteOffEvent(tick=96, channel=3, data=[73, 0]),\n",
      "   midi.NoteOnEvent(tick=0, channel=3, data=[74, 80]),\n",
      "   midi.NoteOffEvent(tick=96, channel=3, data=[74, 0]),\n",
      "   midi.NoteOnEvent(tick=96, channel=3, data=[74, 80]),\n",
      "   midi.NoteOffEvent(tick=96, channel=3, data=[74, 0]),\n",
      "   midi.NoteOnEvent(tick=96, channel=3, data=[71, 80]),\n",
      "   midi.NoteOffEvent(tick=96, channel=3, data=[71, 0]),\n",
      "   midi.NoteOnEvent(tick=96, channel=3, data=[73, 80]),\n",
      "   midi.NoteOffEvent(tick=192, channel=3, data=[73, 0]),\n",
      "   midi.NoteOnEvent(tick=0, channel=3, data=[69, 80]),\n",
      "   midi.NoteOffEvent(tick=384, channel=3, data=[69, 0]),\n",
      "   midi.NoteOnEvent(tick=0, channel=3, data=[68, 80]),\n",
      "   midi.NoteOffEvent(tick=192, channel=3, data=[68, 0]),\n",
      "   midi.NoteOnEvent(tick=0, channel=3, data=[69, 80]),\n",
      "   midi.NoteOffEvent(tick=192, channel=3, data=[69, 0]),\n",
      "   midi.NoteOnEvent(tick=0, channel=3, data=[68, 80]),\n",
      "   midi.NoteOffEvent(tick=192, channel=3, data=[68, 0]),\n",
      "   midi.NoteOnEvent(tick=0, channel=3, data=[69, 80]),\n",
      "   midi.NoteOffEvent(tick=192, channel=3, data=[69, 0]),\n",
      "   midi.NoteOnEvent(tick=384, channel=3, data=[69, 80]),\n",
      "   midi.NoteOffEvent(tick=96, channel=3, data=[69, 0]),\n",
      "   midi.NoteOnEvent(tick=0, channel=3, data=[71, 80]),\n",
      "   midi.NoteOffEvent(tick=96, channel=3, data=[71, 0]),\n",
      "   midi.NoteOnEvent(tick=0, channel=3, data=[73, 80]),\n",
      "   midi.NoteOffEvent(tick=96, channel=3, data=[73, 0]),\n",
      "   midi.NoteOnEvent(tick=0, channel=3, data=[74, 80]),\n",
      "   midi.NoteOffEvent(tick=96, channel=3, data=[74, 0]),\n",
      "   midi.NoteOnEvent(tick=0, channel=3, data=[76, 80]),\n",
      "   midi.NoteOffEvent(tick=192, channel=3, data=[76, 0]),\n",
      "   midi.NoteOnEvent(tick=0, channel=3, data=[76, 80]),\n",
      "   midi.NoteOffEvent(tick=192, channel=3, data=[76, 0]),\n",
      "   midi.NoteOnEvent(tick=384, channel=3, data=[64, 80]),\n",
      "   midi.NoteOffEvent(tick=192, channel=3, data=[64, 0]),\n",
      "   midi.NoteOnEvent(tick=0, channel=3, data=[69, 80]),\n",
      "   midi.NoteOffEvent(tick=192, channel=3, data=[69, 0]),\n",
      "   midi.NoteOnEvent(tick=0, channel=3, data=[74, 80]),\n",
      "   midi.NoteOffEvent(tick=384, channel=3, data=[74, 0]),\n",
      "   midi.NoteOnEvent(tick=0, channel=3, data=[73, 80]),\n",
      "   midi.NoteOffEvent(tick=192, channel=3, data=[73, 0]),\n",
      "   midi.NoteOnEvent(tick=0, channel=3, data=[74, 80]),\n",
      "   midi.NoteOffEvent(tick=192, channel=3, data=[74, 0]),\n",
      "   midi.NoteOnEvent(tick=0, channel=3, data=[73, 80]),\n",
      "   midi.NoteOffEvent(tick=96, channel=3, data=[73, 0]),\n",
      "   midi.NoteOnEvent(tick=0, channel=3, data=[71, 80]),\n",
      "   midi.NoteOffEvent(tick=96, channel=3, data=[71, 0]),\n",
      "   midi.NoteOnEvent(tick=0, channel=3, data=[69, 80]),\n",
      "   midi.NoteOffEvent(tick=1028, channel=3, data=[69, 0]),\n",
      "   midi.NoteOnEvent(tick=124, channel=3, data=[68, 80]),\n",
      "   midi.NoteOffEvent(tick=96, channel=3, data=[68, 0]),\n",
      "   midi.NoteOnEvent(tick=0, channel=3, data=[66, 80]),\n",
      "   midi.NoteOffEvent(tick=96, channel=3, data=[66, 0]),\n",
      "   midi.NoteOnEvent(tick=0, channel=3, data=[64, 80]),\n",
      "   midi.NoteOffEvent(tick=96, channel=3, data=[64, 0]),\n",
      "   midi.NoteOnEvent(tick=0, channel=3, data=[66, 80]),\n",
      "   midi.NoteOffEvent(tick=96, channel=3, data=[66, 0]),\n",
      "   midi.NoteOnEvent(tick=0, channel=3, data=[68, 80]),\n",
      "   midi.NoteOffEvent(tick=192, channel=3, data=[68, 0]),\n",
      "   midi.NoteOnEvent(tick=0, channel=3, data=[69, 80]),\n",
      "   midi.NoteOffEvent(tick=192, channel=3, data=[69, 0]),\n",
      "   midi.NoteOnEvent(tick=0, channel=3, data=[71, 80]),\n",
      "   midi.NoteOffEvent(tick=864, channel=3, data=[71, 0]),\n",
      "   midi.NoteOnEvent(tick=0, channel=3, data=[69, 80]),\n",
      "   midi.NoteOffEvent(tick=96, channel=3, data=[69, 0]),\n",
      "   midi.NoteOnEvent(tick=0, channel=3, data=[68, 80]),\n",
      "   midi.NoteOffEvent(tick=96, channel=3, data=[68, 0]),\n",
      "   midi.NoteOnEvent(tick=0, channel=3, data=[69, 80]),\n",
      "   midi.NoteOffEvent(tick=96, channel=3, data=[69, 0]),\n",
      "   midi.NoteOnEvent(tick=0, channel=3, data=[71, 80]),\n",
      "   midi.NoteOffEvent(tick=192, channel=3, data=[71, 0]),\n",
      "   midi.NoteOnEvent(tick=192, channel=3, data=[64, 80]),\n",
      "   midi.NoteOffEvent(tick=192, channel=3, data=[64, 0]),\n",
      "   midi.NoteOnEvent(tick=0, channel=3, data=[69, 80]),\n",
      "   midi.NoteOffEvent(tick=96, channel=3, data=[69, 0]),\n",
      "   midi.NoteOnEvent(tick=0, channel=3, data=[68, 80]),\n",
      "   midi.NoteOffEvent(tick=96, channel=3, data=[68, 0]),\n",
      "   midi.NoteOnEvent(tick=0, channel=3, data=[69, 80]),\n",
      "   midi.NoteOffEvent(tick=96, channel=3, data=[69, 0]),\n",
      "   midi.NoteOnEvent(tick=0, channel=3, data=[68, 80]),\n",
      "   midi.NoteOffEvent(tick=96, channel=3, data=[68, 0]),\n",
      "   midi.NoteOnEvent(tick=0, channel=3, data=[66, 80]),\n",
      "   midi.NoteOffEvent(tick=96, channel=3, data=[66, 0]),\n",
      "   midi.NoteOnEvent(tick=0, channel=3, data=[68, 80]),\n",
      "   midi.NoteOffEvent(tick=96, channel=3, data=[68, 0]),\n",
      "   midi.NoteOnEvent(tick=0, channel=3, data=[69, 80]),\n",
      "   midi.NoteOffEvent(tick=192, channel=3, data=[69, 0]),\n",
      "   midi.NoteOnEvent(tick=0, channel=3, data=[64, 80]),\n",
      "   midi.NoteOffEvent(tick=192, channel=3, data=[64, 0]),\n",
      "   midi.NoteOnEvent(tick=0, channel=3, data=[73, 80]),\n",
      "   midi.NoteOffEvent(tick=192, channel=3, data=[73, 0]),\n",
      "   midi.NoteOnEvent(tick=0, channel=3, data=[73, 80]),\n",
      "   midi.NoteOffEvent(tick=192, channel=3, data=[73, 0]),\n",
      "   midi.NoteOnEvent(tick=0, channel=3, data=[66, 80]),\n",
      "   midi.NoteOffEvent(tick=192, channel=3, data=[66, 0]),\n",
      "   midi.NoteOnEvent(tick=0, channel=3, data=[71, 80]),\n",
      "   midi.NoteOffEvent(tick=384, channel=3, data=[71, 0]),\n",
      "   midi.NoteOnEvent(tick=0, channel=3, data=[64, 80]),\n",
      "   midi.NoteOffEvent(tick=192, channel=3, data=[64, 0]),\n",
      "   midi.NoteOnEvent(tick=0, channel=3, data=[64, 80]),\n",
      "   midi.NoteOffEvent(tick=384, channel=3, data=[64, 0]),\n",
      "   midi.NoteOnEvent(tick=1728, channel=3, data=[64, 80]),\n",
      "   midi.NoteOffEvent(tick=192, channel=3, data=[64, 0]),\n",
      "   midi.NoteOnEvent(tick=0, channel=3, data=[66, 80]),\n",
      "   midi.NoteOffEvent(tick=192, channel=3, data=[66, 0]),\n",
      "   midi.NoteOnEvent(tick=0, channel=3, data=[69, 80]),\n",
      "   midi.NoteOffEvent(tick=192, channel=3, data=[69, 0]),\n",
      "   midi.NoteOnEvent(tick=0, channel=3, data=[68, 80]),\n",
      "   midi.NoteOffEvent(tick=192, channel=3, data=[68, 0]),\n",
      "   midi.NoteOnEvent(tick=0, channel=3, data=[71, 80]),\n",
      "   midi.NoteOffEvent(tick=192, channel=3, data=[71, 0]),\n",
      "   midi.NoteOnEvent(tick=2112, channel=3, data=[64, 80]),\n",
      "   midi.NoteOffEvent(tick=192, channel=3, data=[64, 0]),\n",
      "   midi.NoteOnEvent(tick=0, channel=3, data=[66, 80]),\n",
      "   midi.NoteOffEvent(tick=192, channel=3, data=[66, 0]),\n",
      "   midi.NoteOnEvent(tick=0, channel=3, data=[69, 80]),\n",
      "   midi.NoteOffEvent(tick=192, channel=3, data=[69, 0]),\n",
      "   midi.NoteOnEvent(tick=0, channel=3, data=[68, 80]),\n",
      "   midi.NoteOffEvent(tick=192, channel=3, data=[68, 0]),\n",
      "   midi.NoteOnEvent(tick=0, channel=3, data=[71, 80]),\n",
      "   midi.NoteOffEvent(tick=192, channel=3, data=[71, 0]),\n",
      "   midi.NoteOnEvent(tick=1728, channel=3, data=[78, 80]),\n",
      "   midi.NoteOffEvent(tick=384, channel=3, data=[78, 0]),\n",
      "   midi.NoteOnEvent(tick=0, channel=3, data=[76, 80]),\n",
      "   midi.NoteOffEvent(tick=96, channel=3, data=[76, 0]),\n",
      "   midi.NoteOnEvent(tick=0, channel=3, data=[74, 80]),\n",
      "   midi.NoteOffEvent(tick=96, channel=3, data=[74, 0]),\n",
      "   midi.NoteOnEvent(tick=0, channel=3, data=[76, 80]),\n",
      "   midi.NoteOffEvent(tick=192, channel=3, data=[76, 0]),\n",
      "   midi.NoteOnEvent(tick=768, channel=3, data=[76, 80]),\n",
      "   midi.NoteOffEvent(tick=384, channel=3, data=[76, 0]),\n",
      "   midi.NoteOnEvent(tick=0, channel=3, data=[74, 80]),\n",
      "   midi.NoteOffEvent(tick=96, channel=3, data=[74, 0]),\n",
      "   midi.NoteOnEvent(tick=0, channel=3, data=[73, 80]),\n",
      "   midi.NoteOffEvent(tick=96, channel=3, data=[73, 0]),\n",
      "   midi.NoteOnEvent(tick=0, channel=3, data=[71, 80]),\n",
      "   midi.NoteOffEvent(tick=96, channel=3, data=[71, 0]),\n",
      "   midi.NoteOnEvent(tick=0, channel=3, data=[73, 80]),\n",
      "   midi.NoteOffEvent(tick=96, channel=3, data=[73, 0]),\n",
      "   midi.NoteOnEvent(tick=0, channel=3, data=[71, 80]),\n",
      "   midi.NoteOffEvent(tick=96, channel=3, data=[71, 0]),\n",
      "   midi.NoteOnEvent(tick=96, channel=3, data=[71, 80]),\n",
      "   midi.NoteOffEvent(tick=96, channel=3, data=[71, 0]),\n",
      "   midi.NoteOnEvent(tick=96, channel=3, data=[71, 80]),\n",
      "   midi.NoteOffEvent(tick=96, channel=3, data=[71, 0]),\n",
      "   midi.NoteOnEvent(tick=96, channel=3, data=[83, 80]),\n",
      "   midi.NoteOffEvent(tick=512, channel=3, data=[83, 0]),\n",
      "   midi.NoteOnEvent(tick=64, channel=3, data=[81, 80]),\n",
      "   midi.NoteOffEvent(tick=96, channel=3, data=[81, 0]),\n",
      "   midi.NoteOnEvent(tick=0, channel=3, data=[80, 80]),\n",
      "   midi.NoteOffEvent(tick=96, channel=3, data=[80, 0]),\n",
      "   midi.NoteOnEvent(tick=0, channel=3, data=[81, 80]),\n",
      "   midi.NoteOffEvent(tick=96, channel=3, data=[81, 0]),\n",
      "   midi.NoteOnEvent(tick=0, channel=3, data=[76, 80]),\n",
      "   midi.NoteOffEvent(tick=96, channel=3, data=[76, 0]),\n",
      "   midi.NoteOnEvent(tick=0, channel=3, data=[74, 80]),\n",
      "   midi.NoteOffEvent(tick=96, channel=3, data=[74, 0]),\n",
      "   midi.NoteOnEvent(tick=0, channel=3, data=[73, 80]),\n",
      "   midi.NoteOffEvent(tick=96, channel=3, data=[73, 0]),\n",
      "   midi.NoteOnEvent(tick=0, channel=3, data=[74, 80]),\n",
      "   midi.NoteOffEvent(tick=96, channel=3, data=[74, 0]),\n",
      "   midi.NoteOnEvent(tick=0, channel=3, data=[73, 80]),\n",
      "   midi.NoteOffEvent(tick=96, channel=3, data=[73, 0]),\n",
      "   midi.NoteOnEvent(tick=0, channel=3, data=[71, 80]),\n",
      "   midi.NoteOffEvent(tick=96, channel=3, data=[71, 0]),\n",
      "   midi.NoteOnEvent(tick=0, channel=3, data=[73, 80]),\n",
      "   midi.NoteOffEvent(tick=96, channel=3, data=[73, 0]),\n",
      "   midi.NoteOnEvent(tick=0, channel=3, data=[69, 80]),\n",
      "   midi.NoteOffEvent(tick=384, channel=3, data=[69, 0]),\n",
      "   midi.NoteOnEvent(tick=1152, channel=3, data=[68, 80]),\n",
      "   midi.NoteOffEvent(tick=96, channel=3, data=[68, 0]),\n",
      "   midi.NoteOnEvent(tick=0, channel=3, data=[69, 80]),\n",
      "   midi.NoteOffEvent(tick=96, channel=3, data=[69, 0]),\n",
      "   midi.NoteOnEvent(tick=0, channel=3, data=[71, 80]),\n",
      "   midi.NoteOffEvent(tick=96, channel=3, data=[71, 0]),\n",
      "   midi.NoteOnEvent(tick=96, channel=3, data=[71, 80]),\n",
      "   midi.NoteOffEvent(tick=96, channel=3, data=[71, 0]),\n",
      "   midi.NoteOnEvent(tick=96, channel=3, data=[65, 80]),\n",
      "   midi.NoteOffEvent(tick=96, channel=3, data=[65, 0]),\n",
      "   midi.NoteOnEvent(tick=96, channel=3, data=[66, 80]),\n",
      "   midi.NoteOffEvent(tick=192, channel=3, data=[66, 0]),\n",
      "   midi.NoteOnEvent(tick=0, channel=3, data=[66, 80]),\n",
      "   midi.NoteOffEvent(tick=384, channel=3, data=[66, 0]),\n",
      "   midi.NoteOnEvent(tick=0, channel=3, data=[65, 80]),\n",
      "   midi.NoteOffEvent(tick=192, channel=3, data=[65, 0]),\n",
      "   midi.NoteOnEvent(tick=0, channel=3, data=[66, 80]),\n",
      "   midi.NoteOffEvent(tick=192, channel=3, data=[66, 0]),\n",
      "   midi.NoteOnEvent(tick=0, channel=3, data=[65, 80]),\n",
      "   midi.NoteOffEvent(tick=192, channel=3, data=[65, 0]),\n",
      "   midi.NoteOnEvent(tick=0, channel=3, data=[66, 80]),\n",
      "   midi.NoteOffEvent(tick=192, channel=3, data=[66, 0]),\n",
      "   midi.NoteOnEvent(tick=192, channel=3, data=[74, 80]),\n",
      "   midi.NoteOffEvent(tick=96, channel=3, data=[74, 0]),\n",
      "   midi.NoteOnEvent(tick=0, channel=3, data=[76, 80]),\n",
      "   midi.NoteOffEvent(tick=96, channel=3, data=[76, 0]),\n",
      "   midi.NoteOnEvent(tick=0, channel=3, data=[78, 80]),\n",
      "   midi.NoteOffEvent(tick=96, channel=3, data=[78, 0]),\n",
      "   midi.NoteOnEvent(tick=96, channel=3, data=[78, 80]),\n",
      "   midi.NoteOffEvent(tick=96, channel=3, data=[78, 0]),\n",
      "   midi.NoteOnEvent(tick=96, channel=3, data=[78, 80]),\n",
      "   midi.NoteOffEvent(tick=96, channel=3, data=[78, 0]),\n",
      "   midi.NoteOnEvent(tick=96, channel=3, data=[78, 80]),\n",
      "   midi.NoteOffEvent(tick=512, channel=3, data=[78, 0]),\n",
      "   midi.NoteOnEvent(tick=64, channel=3, data=[70, 80]),\n",
      "   midi.NoteOffEvent(tick=192, channel=3, data=[70, 0]),\n",
      "   midi.NoteOnEvent(tick=0, channel=3, data=[71, 80]),\n",
      "   midi.NoteOffEvent(tick=192, channel=3, data=[71, 0]),\n",
      "   midi.NoteOnEvent(tick=0, channel=3, data=[71, 80]),\n",
      "   midi.NoteOffEvent(tick=384, channel=3, data=[71, 0]),\n",
      "   midi.NoteOnEvent(tick=0, channel=3, data=[70, 80]),\n",
      "   midi.NoteOffEvent(tick=192, channel=3, data=[70, 0]),\n",
      "   midi.NoteOnEvent(tick=0, channel=3, data=[71, 80]),\n",
      "   midi.NoteOffEvent(tick=192, channel=3, data=[71, 0]),\n",
      "   midi.NoteOnEvent(tick=0, channel=3, data=[70, 80]),\n",
      "   midi.NoteOffEvent(tick=192, channel=3, data=[70, 0]),\n",
      "   midi.NoteOnEvent(tick=0, channel=3, data=[71, 80]),\n",
      "   midi.NoteOffEvent(tick=192, channel=3, data=[71, 0]),\n",
      "   midi.NoteOnEvent(tick=576, channel=3, data=[67, 80]),\n",
      "   midi.NoteOffEvent(tick=96, channel=3, data=[67, 0]),\n",
      "   midi.NoteOnEvent(tick=0, channel=3, data=[69, 80]),\n",
      "   midi.NoteOffEvent(tick=96, channel=3, data=[69, 0]),\n",
      "   midi.NoteOnEvent(tick=0, channel=3, data=[71, 80]),\n",
      "   midi.NoteOffEvent(tick=96, channel=3, data=[71, 0]),\n",
      "   midi.NoteOnEvent(tick=96, channel=3, data=[71, 80]),\n",
      "   midi.NoteOffEvent(tick=96, channel=3, data=[71, 0]),\n",
      "   midi.NoteOnEvent(tick=96, channel=3, data=[64, 80]),\n",
      "   midi.NoteOffEvent(tick=192, channel=3, data=[64, 0]),\n",
      "   midi.NoteOnEvent(tick=768, channel=3, data=[66, 80]),\n",
      "   midi.NoteOffEvent(tick=96, channel=3, data=[66, 0]),\n",
      "   midi.NoteOnEvent(tick=0, channel=3, data=[67, 80]),\n",
      "   midi.NoteOffEvent(tick=96, channel=3, data=[67, 0]),\n",
      "   midi.NoteOnEvent(tick=0, channel=3, data=[69, 80]),\n",
      "   midi.NoteOffEvent(tick=96, channel=3, data=[69, 0]),\n",
      "   midi.NoteOnEvent(tick=96, channel=3, data=[69, 80]),\n",
      "   midi.NoteOffEvent(tick=96, channel=3, data=[69, 0]),\n",
      "   midi.NoteOnEvent(tick=96, channel=3, data=[62, 80]),\n",
      "   midi.NoteOffEvent(tick=192, channel=3, data=[62, 0]),\n",
      "   midi.NoteOnEvent(tick=384, channel=3, data=[73, 80]),\n",
      "   midi.NoteOffEvent(tick=96, channel=3, data=[73, 0]),\n",
      "   midi.NoteOnEvent(tick=0, channel=3, data=[74, 80]),\n",
      "   midi.NoteOffEvent(tick=96, channel=3, data=[74, 0]),\n",
      "   midi.NoteOnEvent(tick=0, channel=3, data=[76, 80]),\n",
      "   midi.NoteOffEvent(tick=96, channel=3, data=[76, 0]),\n",
      "   midi.NoteOnEvent(tick=96, channel=3, data=[76, 80]),\n",
      "   midi.NoteOffEvent(tick=96, channel=3, data=[76, 0]),\n",
      "   midi.NoteOnEvent(tick=96, channel=3, data=[76, 80]),\n",
      "   midi.NoteOffEvent(tick=96, channel=3, data=[76, 0]),\n",
      "   midi.NoteOnEvent(tick=96, channel=3, data=[66, 80]),\n",
      "   midi.NoteOffEvent(tick=192, channel=3, data=[66, 0]),\n",
      "   midi.NoteOnEvent(tick=0, channel=3, data=[70, 80]),\n",
      "   midi.NoteOffEvent(tick=192, channel=3, data=[70, 0]),\n",
      "   midi.NoteOnEvent(tick=0, channel=3, data=[71, 80]),\n",
      "   midi.NoteOffEvent(tick=192, channel=3, data=[71, 0]),\n",
      "   midi.NoteOnEvent(tick=0, channel=3, data=[66, 80]),\n",
      "   midi.NoteOffEvent(tick=192, channel=3, data=[66, 0]),\n",
      "   midi.NoteOnEvent(tick=0, channel=3, data=[66, 80]),\n",
      "   midi.NoteOffEvent(tick=192, channel=3, data=[66, 0]),\n",
      "   midi.NoteOnEvent(tick=0, channel=3, data=[67, 80]),\n",
      "   midi.NoteOffEvent(tick=384, channel=3, data=[67, 0]),\n",
      "   midi.NoteOnEvent(tick=0, channel=3, data=[66, 80]),\n",
      "   midi.NoteOffEvent(tick=192, channel=3, data=[66, 0]),\n",
      "   midi.NoteOnEvent(tick=0, channel=3, data=[62, 80]),\n",
      "   midi.NoteOffEvent(tick=384, channel=3, data=[62, 0]),\n",
      "   midi.NoteOnEvent(tick=384, channel=3, data=[70, 80]),\n",
      "   midi.NoteOffEvent(tick=96, channel=3, data=[70, 0]),\n",
      "   midi.NoteOnEvent(tick=0, channel=3, data=[71, 80]),\n",
      "   midi.NoteOffEvent(tick=96, channel=3, data=[71, 0]),\n",
      "   midi.NoteOnEvent(tick=0, channel=3, data=[73, 80]),\n",
      "   midi.NoteOffEvent(tick=96, channel=3, data=[73, 0]),\n",
      "   midi.NoteOnEvent(tick=96, channel=3, data=[73, 80]),\n",
      "   midi.NoteOffEvent(tick=96, channel=3, data=[73, 0]),\n",
      "   midi.NoteOnEvent(tick=96, channel=3, data=[73, 80]),\n",
      "   midi.NoteOffEvent(tick=96, channel=3, data=[73, 0]),\n",
      "   midi.NoteOnEvent(tick=96, channel=3, data=[73, 80]),\n",
      "   midi.NoteOffEvent(tick=864, channel=3, data=[73, 0]),\n",
      "   midi.NoteOnEvent(tick=96, channel=3, data=[73, 80]),\n",
      "   midi.NoteOffEvent(tick=192, channel=3, data=[73, 0]),\n",
      "   midi.NoteOnEvent(tick=0, channel=3, data=[70, 80]),\n",
      "   midi.NoteOffEvent(tick=192, channel=3, data=[70, 0]),\n",
      "   midi.NoteOnEvent(tick=0, channel=3, data=[66, 80]),\n",
      "   midi.NoteOffEvent(tick=192, channel=3, data=[66, 0]),\n",
      "   midi.NoteOnEvent(tick=192, channel=3, data=[71, 80]),\n",
      "   midi.NoteOffEvent(tick=192, channel=3, data=[71, 0]),\n",
      "   midi.NoteOnEvent(tick=0, channel=3, data=[66, 80]),\n",
      "   midi.NoteOffEvent(tick=192, channel=3, data=[66, 0]),\n",
      "   midi.NoteOnEvent(tick=0, channel=3, data=[62, 80]),\n",
      "   midi.NoteOffEvent(tick=192, channel=3, data=[62, 0]),\n",
      "   midi.NoteOnEvent(tick=192, channel=3, data=[78, 80]),\n",
      "   midi.NoteOffEvent(tick=192, channel=3, data=[78, 0]),\n",
      "   midi.NoteOnEvent(tick=0, channel=3, data=[75, 80]),\n",
      "   midi.NoteOffEvent(tick=192, channel=3, data=[75, 0]),\n",
      "   midi.NoteOnEvent(tick=0, channel=3, data=[71, 80]),\n",
      "   midi.NoteOffEvent(tick=192, channel=3, data=[71, 0]),\n",
      "   midi.NoteOnEvent(tick=384, channel=3, data=[84, 80]),\n",
      "   midi.NoteOffEvent(tick=192, channel=3, data=[84, 0]),\n",
      "   midi.NoteOnEvent(tick=0, channel=3, data=[81, 80]),\n",
      "   midi.NoteOffEvent(tick=192, channel=3, data=[81, 0]),\n",
      "   midi.NoteOnEvent(tick=192, channel=3, data=[78, 80]),\n",
      "   midi.NoteOffEvent(tick=192, channel=3, data=[78, 0]),\n",
      "   midi.NoteOnEvent(tick=0, channel=3, data=[75, 80]),\n",
      "   midi.NoteOffEvent(tick=192, channel=3, data=[75, 0]),\n",
      "   midi.NoteOnEvent(tick=0, channel=3, data=[71, 80]),\n",
      "   midi.NoteOffEvent(tick=192, channel=3, data=[71, 0]),\n",
      "   midi.NoteOnEvent(tick=192, channel=3, data=[76, 80]),\n",
      "   midi.NoteOffEvent(tick=192, channel=3, data=[76, 0]),\n",
      "   midi.NoteOnEvent(tick=0, channel=3, data=[71, 80]),\n",
      "   midi.NoteOffEvent(tick=192, channel=3, data=[71, 0]),\n",
      "   midi.NoteOnEvent(tick=0, channel=3, data=[67, 80]),\n",
      "   midi.NoteOffEvent(tick=192, channel=3, data=[67, 0]),\n",
      "   midi.NoteOnEvent(tick=0, channel=3, data=[73, 80]),\n",
      "   midi.NoteOffEvent(tick=864, channel=3, data=[73, 0]),\n",
      "   midi.NoteOnEvent(tick=0, channel=3, data=[71, 80]),\n",
      "   midi.NoteOffEvent(tick=96, channel=3, data=[71, 0]),\n",
      "   midi.NoteOnEvent(tick=0, channel=3, data=[70, 80]),\n",
      "   midi.NoteOffEvent(tick=96, channel=3, data=[70, 0]),\n",
      "   midi.NoteOnEvent(tick=0, channel=3, data=[71, 80]),\n",
      "   midi.NoteOffEvent(tick=96, channel=3, data=[71, 0]),\n",
      "   midi.NoteOnEvent(tick=0, channel=3, data=[73, 80]),\n",
      "   midi.NoteOffEvent(tick=192, channel=3, data=[73, 0]),\n",
      "   midi.NoteOnEvent(tick=0, channel=3, data=[74, 80]),\n",
      "   midi.NoteOffEvent(tick=192, channel=3, data=[74, 0]),\n",
      "   midi.NoteOnEvent(tick=0, channel=3, data=[76, 80]),\n",
      "   midi.NoteOffEvent(tick=864, channel=3, data=[76, 0]),\n",
      "   midi.NoteOnEvent(tick=0, channel=3, data=[74, 80]),\n",
      "   midi.NoteOffEvent(tick=96, channel=3, data=[74, 0]),\n",
      "   midi.NoteOnEvent(tick=0, channel=3, data=[73, 80]),\n",
      "   midi.NoteOffEvent(tick=96, channel=3, data=[73, 0]),\n",
      "   midi.NoteOnEvent(tick=0, channel=3, data=[74, 80]),\n",
      "   midi.NoteOffEvent(tick=96, channel=3, data=[74, 0]),\n",
      "   midi.NoteOnEvent(tick=0, channel=3, data=[76, 80]),\n",
      "   midi.NoteOffEvent(tick=96, channel=3, data=[76, 0]),\n",
      "   midi.NoteOnEvent(tick=0, channel=3, data=[74, 80]),\n",
      "   midi.NoteOffEvent(tick=96, channel=3, data=[74, 0]),\n",
      "   midi.NoteOnEvent(tick=0, channel=3, data=[76, 80]),\n",
      "   midi.NoteOffEvent(tick=96, channel=3, data=[76, 0]),\n",
      "   midi.NoteOnEvent(tick=0, channel=3, data=[73, 80]),\n",
      "   midi.NoteOffEvent(tick=96, channel=3, data=[73, 0]),\n",
      "   midi.NoteOnEvent(tick=0, channel=3, data=[71, 80]),\n",
      "   midi.NoteOffEvent(tick=96, channel=3, data=[71, 0]),\n",
      "   midi.NoteOnEvent(tick=0, channel=3, data=[73, 80]),\n",
      "   midi.NoteOffEvent(tick=96, channel=3, data=[73, 0]),\n",
      "   midi.NoteOnEvent(tick=0, channel=3, data=[74, 80]),\n",
      "   midi.NoteOffEvent(tick=96, channel=3, data=[74, 0]),\n",
      "   midi.NoteOnEvent(tick=96, channel=3, data=[74, 80]),\n",
      "   midi.NoteOffEvent(tick=96, channel=3, data=[74, 0]),\n",
      "   midi.NoteOnEvent(tick=96, channel=3, data=[76, 80]),\n",
      "   midi.NoteOffEvent(tick=96, channel=3, data=[76, 0]),\n",
      "   midi.NoteOnEvent(tick=96, channel=3, data=[74, 80]),\n",
      "   midi.NoteOffEvent(tick=96, channel=3, data=[74, 0]),\n",
      "   midi.NoteOnEvent(tick=0, channel=3, data=[79, 80]),\n",
      "   midi.NoteOffEvent(tick=96, channel=3, data=[79, 0]),\n",
      "   midi.NoteOnEvent(tick=0, channel=3, data=[78, 80]),\n",
      "   midi.NoteOffEvent(tick=96, channel=3, data=[78, 0]),\n",
      "   midi.NoteOnEvent(tick=0, channel=3, data=[76, 80]),\n",
      "   midi.NoteOffEvent(tick=96, channel=3, data=[76, 0]),\n",
      "   midi.NoteOnEvent(tick=0, channel=3, data=[74, 80]),\n",
      "   midi.NoteOffEvent(tick=96, channel=3, data=[74, 0]),\n",
      "   midi.NoteOnEvent(tick=0, channel=3, data=[73, 80]),\n",
      "   midi.NoteOffEvent(tick=96, channel=3, data=[73, 0]),\n",
      "   midi.NoteOnEvent(tick=0, channel=3, data=[71, 80]),\n",
      "   midi.NoteOffEvent(tick=96, channel=3, data=[71, 0]),\n",
      "   midi.NoteOnEvent(tick=0, channel=3, data=[70, 80]),\n",
      "   midi.NoteOffEvent(tick=96, channel=3, data=[70, 0]),\n",
      "   midi.NoteOnEvent(tick=0, channel=3, data=[71, 80]),\n",
      "   midi.NoteOffEvent(tick=384, channel=3, data=[71, 0]),\n",
      "   midi.NoteOnEvent(tick=0, channel=3, data=[70, 80]),\n",
      "   midi.NoteOffEvent(tick=384, channel=3, data=[70, 0]),\n",
      "   midi.NoteOnEvent(tick=0, channel=3, data=[71, 80]),\n",
      "   midi.NoteOffEvent(tick=384, channel=3, data=[71, 0]),\n",
      "   midi.NoteOnEvent(tick=1152, channel=3, data=[69, 80]),\n",
      "   midi.NoteOffEvent(tick=96, channel=3, data=[69, 0]),\n",
      "   midi.NoteOnEvent(tick=0, channel=3, data=[71, 80]),\n",
      "   midi.NoteOffEvent(tick=96, channel=3, data=[71, 0]),\n",
      "   midi.NoteOnEvent(tick=0, channel=3, data=[72, 80]),\n",
      "   midi.NoteOffEvent(tick=96, channel=3, data=[72, 0]),\n",
      "   midi.NoteOnEvent(tick=96, channel=3, data=[72, 80]),\n",
      "   midi.NoteOffEvent(tick=96, channel=3, data=[72, 0]),\n",
      "   midi.NoteOnEvent(tick=96, channel=3, data=[69, 80]),\n",
      "   midi.NoteOffEvent(tick=96, channel=3, data=[69, 0]),\n",
      "   midi.NoteOnEvent(tick=1632, channel=3, data=[79, 80]),\n",
      "   midi.NoteOffEvent(tick=96, channel=3, data=[79, 0]),\n",
      "   midi.NoteOnEvent(tick=0, channel=3, data=[81, 80]),\n",
      "   midi.NoteOffEvent(tick=96, channel=3, data=[81, 0]),\n",
      "   midi.NoteOnEvent(tick=0, channel=3, data=[83, 80]),\n",
      "   midi.NoteOffEvent(tick=96, channel=3, data=[83, 0]),\n",
      "   midi.NoteOnEvent(tick=96, channel=3, data=[83, 80]),\n",
      "   midi.NoteOffEvent(tick=96, channel=3, data=[83, 0]),\n",
      "   midi.NoteOnEvent(tick=96, channel=3, data=[83, 80]),\n",
      "   midi.NoteOffEvent(tick=96, channel=3, data=[83, 0]),\n",
      "   midi.NoteOnEvent(tick=576, channel=3, data=[81, 80]),\n",
      "   midi.NoteOffEvent(tick=96, channel=3, data=[81, 0]),\n",
      "   midi.NoteOnEvent(tick=0, channel=3, data=[79, 80]),\n",
      "   midi.NoteOffEvent(tick=96, channel=3, data=[79, 0]),\n",
      "   midi.NoteOnEvent(tick=0, channel=3, data=[78, 80]),\n",
      "   midi.NoteOffEvent(tick=96, channel=3, data=[78, 0]),\n",
      "   midi.NoteOnEvent(tick=0, channel=3, data=[76, 80]),\n",
      "   midi.NoteOffEvent(tick=192, channel=3, data=[76, 0]),\n",
      "   midi.NoteOnEvent(tick=0, channel=3, data=[69, 80]),\n",
      "   midi.NoteOffEvent(tick=96, channel=3, data=[69, 0]),\n",
      "   midi.NoteOnEvent(tick=0, channel=3, data=[67, 80]),\n",
      "   midi.NoteOffEvent(tick=96, channel=3, data=[67, 0]),\n",
      "   midi.NoteOnEvent(tick=0, channel=3, data=[66, 80]),\n",
      "   midi.NoteOffEvent(tick=96, channel=3, data=[66, 0]),\n",
      "   midi.NoteOnEvent(tick=0, channel=3, data=[67, 80]),\n",
      "   midi.NoteOffEvent(tick=96, channel=3, data=[67, 0]),\n",
      "   midi.NoteOnEvent(tick=0, channel=3, data=[69, 80]),\n",
      "   midi.NoteOffEvent(tick=192, channel=3, data=[69, 0]),\n",
      "   midi.NoteOnEvent(tick=0, channel=3, data=[64, 80]),\n",
      "   midi.NoteOffEvent(tick=384, channel=3, data=[64, 0]),\n",
      "   midi.NoteOnEvent(tick=192, channel=3, data=[79, 80]),\n",
      "   midi.NoteOffEvent(tick=192, channel=3, data=[79, 0]),\n",
      "   midi.NoteOnEvent(tick=0, channel=3, data=[76, 80]),\n",
      "   midi.NoteOffEvent(tick=192, channel=3, data=[76, 0]),\n",
      "   midi.NoteOnEvent(tick=0, channel=3, data=[73, 80]),\n",
      "   midi.NoteOffEvent(tick=192, channel=3, data=[73, 0]),\n",
      "   midi.NoteOnEvent(tick=192, channel=3, data=[73, 80]),\n",
      "   midi.NoteOffEvent(tick=192, channel=3, data=[73, 0]),\n",
      "   midi.NoteOnEvent(tick=0, channel=3, data=[78, 80]),\n",
      "   midi.NoteOffEvent(tick=192, channel=3, data=[78, 0]),\n",
      "   midi.NoteOnEvent(tick=0, channel=3, data=[74, 80]),\n",
      "   midi.NoteOffEvent(tick=192, channel=3, data=[74, 0]),\n",
      "   midi.NoteOnEvent(tick=192, channel=3, data=[78, 80]),\n",
      "   midi.NoteOffEvent(tick=192, channel=3, data=[78, 0]),\n",
      "   midi.NoteOnEvent(tick=0, channel=3, data=[71, 80]),\n",
      "   midi.NoteOffEvent(tick=192, channel=3, data=[71, 0]),\n",
      "   midi.NoteOnEvent(tick=0, channel=3, data=[80, 80]),\n",
      "   midi.NoteOffEvent(tick=192, channel=3, data=[80, 0]),\n",
      "   midi.NoteOnEvent(tick=192, channel=3, data=[78, 80]),\n",
      "   midi.NoteOffEvent(tick=192, channel=3, data=[78, 0]),\n",
      "   midi.NoteOnEvent(tick=0, channel=3, data=[77, 80]),\n",
      "   midi.NoteOffEvent(tick=192, channel=3, data=[77, 0]),\n",
      "   midi.NoteOnEvent(tick=0, channel=3, data=[68, 80]),\n",
      "   midi.NoteOffEvent(tick=192, channel=3, data=[68, 0]),\n",
      "   midi.NoteOnEvent(tick=0, channel=3, data=[73, 80]),\n",
      "   midi.NoteOffEvent(tick=192, channel=3, data=[73, 0]),\n",
      "   midi.NoteOnEvent(tick=0, channel=3, data=[71, 80]),\n",
      "   midi.NoteOffEvent(tick=192, channel=3, data=[71, 0]),\n",
      "   midi.NoteOnEvent(tick=1152, channel=3, data=[69, 80]),\n",
      "   midi.NoteOffEvent(tick=4, channel=3, data=[69, 0]),\n",
      "   midi.NoteOnEvent(tick=0, channel=3, data=[66, 80]),\n",
      "   midi.NoteOffEvent(tick=192, channel=3, data=[66, 0]),\n",
      "   midi.NoteOnEvent(tick=0, channel=3, data=[65, 80]),\n",
      "   midi.NoteOffEvent(tick=384, channel=3, data=[65, 0]),\n",
      "   midi.NoteOnEvent(tick=0, channel=3, data=[66, 80]),\n",
      "   midi.NoteOffEvent(tick=768, channel=3, data=[66, 0]),\n",
      "   midi.NoteOnEvent(tick=0, channel=3, data=[65, 80]),\n",
      "   midi.NoteOffEvent(tick=384, channel=3, data=[65, 0]),\n",
      "   midi.NoteOnEvent(tick=0, channel=3, data=[66, 80]),\n",
      "   midi.NoteOffEvent(tick=384, channel=3, data=[66, 0]),\n",
      "   midi.NoteOnEvent(tick=1728, channel=3, data=[66, 80]),\n",
      "   midi.NoteOffEvent(tick=96, channel=3, data=[66, 0]),\n",
      "   midi.NoteOnEvent(tick=0, channel=3, data=[67, 80]),\n",
      "   midi.NoteOffEvent(tick=96, channel=3, data=[67, 0]),\n",
      "   midi.NoteOnEvent(tick=0, channel=3, data=[69, 80]),\n",
      "   midi.NoteOffEvent(tick=192, channel=3, data=[69, 0]),\n",
      "   midi.NoteOnEvent(tick=0, channel=3, data=[74, 80]),\n",
      "   midi.NoteOffEvent(tick=192, channel=3, data=[74, 0]),\n",
      "   midi.NoteOnEvent(tick=0, channel=3, data=[71, 80]),\n",
      "   midi.NoteOffEvent(tick=192, channel=3, data=[71, 0]),\n",
      "   midi.NoteOnEvent(tick=0, channel=3, data=[76, 80]),\n",
      "   midi.NoteOffEvent(tick=192, channel=3, data=[76, 0]),\n",
      "   midi.NoteOnEvent(tick=0, channel=3, data=[74, 80]),\n",
      "   midi.NoteOffEvent(tick=192, channel=3, data=[74, 0]),\n",
      "   midi.NoteOnEvent(tick=0, channel=3, data=[78, 80]),\n",
      "   midi.NoteOffEvent(tick=192, channel=3, data=[78, 0]),\n",
      "   midi.NoteOnEvent(tick=0, channel=3, data=[74, 80]),\n",
      "   midi.NoteOffEvent(tick=192, channel=3, data=[74, 0]),\n",
      "   midi.NoteOnEvent(tick=0, channel=3, data=[69, 80]),\n",
      "   midi.NoteOffEvent(tick=192, channel=3, data=[69, 0]),\n",
      "   midi.NoteOnEvent(tick=768, channel=3, data=[69, 80]),\n",
      "   midi.NoteOffEvent(tick=96, channel=3, data=[69, 0]),\n",
      "   midi.NoteOnEvent(tick=0, channel=3, data=[71, 80]),\n",
      "   midi.NoteOffEvent(tick=96, channel=3, data=[71, 0]),\n",
      "   midi.NoteOnEvent(tick=0, channel=3, data=[72, 80]),\n",
      "   midi.NoteOffEvent(tick=96, channel=3, data=[72, 0]),\n",
      "   midi.NoteOnEvent(tick=96, channel=3, data=[72, 80]),\n",
      "   midi.NoteOffEvent(tick=96, channel=3, data=[72, 0]),\n",
      "   midi.NoteOnEvent(tick=96, channel=3, data=[72, 80]),\n",
      "   midi.NoteOffEvent(tick=96, channel=3, data=[72, 0]),\n",
      "   midi.NoteOnEvent(tick=96, channel=3, data=[72, 80]),\n",
      "   midi.NoteOffEvent(tick=192, channel=3, data=[72, 0]),\n",
      "   midi.NoteOnEvent(tick=2112, channel=3, data=[64, 80]),\n",
      "   midi.NoteOffEvent(tick=96, channel=3, data=[64, 0]),\n",
      "   midi.NoteOnEvent(tick=0, channel=3, data=[66, 80]),\n",
      "   midi.NoteOffEvent(tick=96, channel=3, data=[66, 0]),\n",
      "   midi.NoteOnEvent(tick=0, channel=3, data=[67, 80]),\n",
      "   midi.NoteOffEvent(tick=96, channel=3, data=[67, 0]),\n",
      "   midi.NoteOnEvent(tick=96, channel=3, data=[67, 80]),\n",
      "   midi.NoteOffEvent(tick=96, channel=3, data=[67, 0]),\n",
      "   midi.NoteOnEvent(tick=96, channel=3, data=[66, 80]),\n",
      "   midi.NoteOffEvent(tick=96, channel=3, data=[66, 0]),\n",
      "   midi.NoteOnEvent(tick=0, channel=3, data=[64, 80]),\n",
      "   midi.NoteOffEvent(tick=96, channel=3, data=[64, 0]),\n",
      "   midi.NoteOnEvent(tick=0, channel=3, data=[69, 80]),\n",
      "   midi.NoteOffEvent(tick=192, channel=3, data=[69, 0]),\n",
      "   midi.NoteOnEvent(tick=0, channel=3, data=[66, 80]),\n",
      "   midi.NoteOffEvent(tick=192, channel=3, data=[66, 0]),\n",
      "   midi.NoteOnEvent(tick=0, channel=3, data=[71, 80]),\n",
      "   midi.NoteOffEvent(tick=192, channel=3, data=[71, 0]),\n",
      "   midi.NoteOnEvent(tick=0, channel=3, data=[69, 80]),\n",
      "   midi.NoteOffEvent(tick=192, channel=3, data=[69, 0]),\n",
      "   midi.NoteOnEvent(tick=0, channel=3, data=[69, 80]),\n",
      "   midi.NoteOffEvent(tick=192, channel=3, data=[69, 0]),\n",
      "   midi.NoteOnEvent(tick=0, channel=3, data=[67, 80]),\n",
      "   midi.NoteOffEvent(tick=192, channel=3, data=[67, 0]),\n",
      "   midi.NoteOnEvent(tick=0, channel=3, data=[66, 80]),\n",
      "   midi.NoteOffEvent(tick=384, channel=3, data=[66, 0]),\n",
      "   midi.NoteOnEvent(tick=1344, channel=3, data=[65, 80]),\n",
      "   midi.NoteOffEvent(tick=96, channel=3, data=[65, 0]),\n",
      "   midi.NoteOnEvent(tick=0, channel=3, data=[67, 80]),\n",
      "   midi.NoteOffEvent(tick=96, channel=3, data=[67, 0]),\n",
      "   midi.NoteOnEvent(tick=0, channel=3, data=[69, 80]),\n",
      "   midi.NoteOffEvent(tick=192, channel=3, data=[69, 0]),\n",
      "   midi.NoteOnEvent(tick=0, channel=3, data=[74, 80]),\n",
      "   midi.NoteOffEvent(tick=192, channel=3, data=[74, 0]),\n",
      "   midi.NoteOnEvent(tick=0, channel=3, data=[74, 80]),\n",
      "   midi.NoteOffEvent(tick=192, channel=3, data=[74, 0]),\n",
      "   midi.NoteOnEvent(tick=0, channel=3, data=[69, 80]),\n",
      "   midi.NoteOffEvent(tick=192, channel=3, data=[69, 0]),\n",
      "   midi.NoteOnEvent(tick=0, channel=3, data=[69, 80]),\n",
      "   midi.NoteOffEvent(tick=192, channel=3, data=[69, 0]),\n",
      "   midi.NoteOnEvent(tick=0, channel=3, data=[78, 80]),\n",
      "   midi.NoteOffEvent(tick=192, channel=3, data=[78, 0]),\n",
      "   midi.NoteOnEvent(tick=0, channel=3, data=[74, 80]),\n",
      "   midi.NoteOffEvent(tick=192, channel=3, data=[74, 0]),\n",
      "   midi.NoteOnEvent(tick=0, channel=3, data=[69, 80]),\n",
      "   midi.NoteOffEvent(tick=192, channel=3, data=[69, 0]),\n",
      "   midi.NoteOnEvent(tick=192, channel=3, data=[66, 80]),\n",
      "   midi.NoteOffEvent(tick=192, channel=3, data=[66, 0]),\n",
      "   midi.NoteOnEvent(tick=0, channel=3, data=[69, 80]),\n",
      "   midi.NoteOffEvent(tick=192, channel=3, data=[69, 0]),\n",
      "   midi.NoteOnEvent(tick=0, channel=3, data=[74, 80]),\n",
      "   midi.NoteOffEvent(tick=192, channel=3, data=[74, 0]),\n",
      "   midi.NoteOnEvent(tick=192, channel=3, data=[71, 80]),\n",
      "   midi.NoteOffEvent(tick=192, channel=3, data=[71, 0]),\n",
      "   midi.NoteOnEvent(tick=0, channel=3, data=[74, 80]),\n",
      "   midi.NoteOffEvent(tick=192, channel=3, data=[74, 0]),\n",
      "   midi.NoteOnEvent(tick=0, channel=3, data=[78, 80]),\n",
      "   midi.NoteOffEvent(tick=192, channel=3, data=[78, 0]),\n",
      "   midi.NoteOnEvent(tick=192, channel=3, data=[67, 80]),\n",
      "   midi.NoteOffEvent(tick=192, channel=3, data=[67, 0]),\n",
      "   midi.NoteOnEvent(tick=0, channel=3, data=[71, 80]),\n",
      "   midi.NoteOffEvent(tick=192, channel=3, data=[71, 0]),\n",
      "   midi.NoteOnEvent(tick=0, channel=3, data=[76, 80]),\n",
      "   midi.NoteOffEvent(tick=192, channel=3, data=[76, 0]),\n",
      "   midi.NoteOnEvent(tick=192, channel=3, data=[79, 80]),\n",
      "   midi.NoteOffEvent(tick=192, channel=3, data=[79, 0]),\n",
      "   midi.NoteOnEvent(tick=0, channel=3, data=[76, 80]),\n",
      "   midi.NoteOffEvent(tick=192, channel=3, data=[76, 0]),\n",
      "   midi.NoteOnEvent(tick=0, channel=3, data=[73, 80]),\n",
      "   midi.NoteOffEvent(tick=192, channel=3, data=[73, 0]),\n",
      "   midi.NoteOnEvent(tick=0, channel=3, data=[71, 80]),\n",
      "   midi.NoteOffEvent(tick=4, channel=3, data=[71, 0]),\n",
      "   midi.NoteOnEvent(tick=0, channel=3, data=[72, 80]),\n",
      "   midi.NoteOffEvent(tick=96, channel=3, data=[72, 0]),\n",
      "   midi.NoteOnEvent(tick=0, channel=3, data=[71, 80]),\n",
      "   midi.NoteOffEvent(tick=96, channel=3, data=[71, 0]),\n",
      "   midi.NoteOnEvent(tick=0, channel=3, data=[71, 80]),\n",
      "   midi.NoteOffEvent(tick=96, channel=3, data=[71, 0]),\n",
      "   midi.NoteOnEvent(tick=0, channel=3, data=[71, 80]),\n",
      "   midi.NoteOffEvent(tick=96, channel=3, data=[71, 0]),\n",
      "   midi.NoteOnEvent(tick=96, channel=3, data=[71, 80]),\n",
      "   midi.NoteOffEvent(tick=192, channel=3, data=[71, 0]),\n",
      "   midi.NoteOnEvent(tick=0, channel=3, data=[71, 80]),\n",
      "   midi.NoteOffEvent(tick=384, channel=3, data=[71, 0]),\n",
      "   midi.NoteOnEvent(tick=0, channel=3, data=[69, 80]),\n",
      "   midi.NoteOffEvent(tick=96, channel=3, data=[69, 0]),\n",
      "   midi.NoteOnEvent(tick=0, channel=3, data=[67, 80]),\n",
      "   midi.NoteOffEvent(tick=96, channel=3, data=[67, 0]),\n",
      "   midi.NoteOnEvent(tick=0, channel=3, data=[69, 80]),\n",
      "   midi.NoteOffEvent(tick=96, channel=3, data=[69, 0]),\n",
      "   midi.NoteOnEvent(tick=0, channel=3, data=[71, 80]),\n",
      "   midi.NoteOffEvent(tick=96, channel=3, data=[71, 0]),\n",
      "   midi.NoteOnEvent(tick=0, channel=3, data=[69, 80]),\n",
      "   midi.NoteOffEvent(tick=96, channel=3, data=[69, 0]),\n",
      "   midi.NoteOnEvent(tick=0, channel=3, data=[69, 80]),\n",
      "   midi.NoteOffEvent(tick=96, channel=3, data=[69, 0]),\n",
      "   midi.NoteOnEvent(tick=0, channel=3, data=[69, 80]),\n",
      "   midi.NoteOffEvent(tick=96, channel=3, data=[69, 0]),\n",
      "   midi.NoteOnEvent(tick=96, channel=3, data=[69, 80]),\n",
      "   midi.NoteOffEvent(tick=192, channel=3, data=[69, 0]),\n",
      "   midi.NoteOnEvent(tick=0, channel=3, data=[69, 80]),\n",
      "   midi.NoteOffEvent(tick=384, channel=3, data=[69, 0]),\n",
      "   midi.NoteOnEvent(tick=0, channel=3, data=[67, 80]),\n",
      "   midi.NoteOffEvent(tick=96, channel=3, data=[67, 0]),\n",
      "   midi.NoteOnEvent(tick=0, channel=3, data=[66, 80]),\n",
      "   midi.NoteOffEvent(tick=96, channel=3, data=[66, 0]),\n",
      "   midi.NoteOnEvent(tick=0, channel=3, data=[67, 80]),\n",
      "   midi.NoteOffEvent(tick=96, channel=3, data=[67, 0]),\n",
      "   midi.NoteOnEvent(tick=0, channel=3, data=[69, 80]),\n",
      "   midi.NoteOffEvent(tick=96, channel=3, data=[69, 0]),\n",
      "   midi.NoteOnEvent(tick=0, channel=3, data=[67, 80]),\n",
      "   midi.NoteOffEvent(tick=96, channel=3, data=[67, 0]),\n",
      "   midi.NoteOnEvent(tick=0, channel=3, data=[67, 80]),\n",
      "   midi.NoteOffEvent(tick=96, channel=3, data=[67, 0]),\n",
      "   midi.NoteOnEvent(tick=0, channel=3, data=[67, 80]),\n",
      "   midi.NoteOffEvent(tick=96, channel=3, data=[67, 0]),\n",
      "   midi.NoteOnEvent(tick=96, channel=3, data=[79, 80]),\n",
      "   midi.NoteOffEvent(tick=512, channel=3, data=[79, 0]),\n",
      "   midi.NoteOnEvent(tick=64, channel=3, data=[74, 80]),\n",
      "   midi.NoteOffEvent(tick=96, channel=3, data=[74, 0]),\n",
      "   midi.NoteOnEvent(tick=0, channel=3, data=[73, 80]),\n",
      "   midi.NoteOffEvent(tick=96, channel=3, data=[73, 0]),\n",
      "   midi.NoteOnEvent(tick=0, channel=3, data=[81, 80]),\n",
      "   midi.NoteOffEvent(tick=192, channel=3, data=[81, 0]),\n",
      "   midi.NoteOnEvent(tick=0, channel=3, data=[79, 80]),\n",
      "   midi.NoteOffEvent(tick=96, channel=3, data=[79, 0]),\n",
      "   midi.NoteOnEvent(tick=0, channel=3, data=[78, 80]),\n",
      "   midi.NoteOffEvent(tick=96, channel=3, data=[78, 0]),\n",
      "   midi.NoteOnEvent(tick=0, channel=3, data=[79, 80]),\n",
      "   midi.NoteOffEvent(tick=96, channel=3, data=[79, 0]),\n",
      "   midi.NoteOnEvent(tick=0, channel=3, data=[78, 80]),\n",
      "   midi.NoteOffEvent(tick=96, channel=3, data=[78, 0]),\n",
      "   midi.NoteOnEvent(tick=0, channel=3, data=[76, 80]),\n",
      "   midi.NoteOffEvent(tick=96, channel=3, data=[76, 0]),\n",
      "   midi.NoteOnEvent(tick=0, channel=3, data=[78, 80]),\n",
      "   midi.NoteOffEvent(tick=96, channel=3, data=[78, 0]),\n",
      "   midi.NoteOnEvent(tick=0, channel=3, data=[74, 80]),\n",
      "   midi.NoteOffEvent(tick=192, channel=3, data=[74, 0]),\n",
      "   midi.NoteOnEvent(tick=1920, channel=3, data=[69, 80]),\n",
      "   midi.NoteOffEvent(tick=192, channel=3, data=[69, 0]),\n",
      "   midi.NoteOnEvent(tick=0, channel=3, data=[69, 80]),\n",
      "   midi.NoteOffEvent(tick=192, channel=3, data=[69, 0]),\n",
      "   midi.NoteOnEvent(tick=0, channel=3, data=[74, 80]),\n",
      "   midi.NoteOffEvent(tick=384, channel=3, data=[74, 0]),\n",
      "   midi.NoteOnEvent(tick=0, channel=3, data=[73, 80]),\n",
      "   midi.NoteOffEvent(tick=192, channel=3, data=[73, 0]),\n",
      "   midi.NoteOnEvent(tick=0, channel=3, data=[74, 80]),\n",
      "   midi.NoteOffEvent(tick=192, channel=3, data=[74, 0]),\n",
      "   midi.NoteOnEvent(tick=0, channel=3, data=[73, 80]),\n",
      "   midi.NoteOffEvent(tick=192, channel=3, data=[73, 0]),\n",
      "   midi.NoteOnEvent(tick=0, channel=3, data=[74, 80]),\n",
      "   midi.NoteOffEvent(tick=192, channel=3, data=[74, 0]),\n",
      "   midi.NoteOnEvent(tick=1536, channel=3, data=[81, 80]),\n",
      "   midi.NoteOffEvent(tick=192, channel=3, data=[81, 0]),\n",
      "   midi.NoteOnEvent(tick=0, channel=3, data=[74, 80]),\n",
      "   midi.NoteOffEvent(tick=192, channel=3, data=[74, 0]),\n",
      "   midi.NoteOnEvent(tick=0, channel=3, data=[79, 80]),\n",
      "   midi.NoteOffEvent(tick=384, channel=3, data=[79, 0]),\n",
      "   midi.NoteOnEvent(tick=0, channel=3, data=[78, 80]),\n",
      "   midi.NoteOffEvent(tick=192, channel=3, data=[78, 0]),\n",
      "   midi.NoteOnEvent(tick=0, channel=3, data=[79, 80]),\n",
      "   midi.NoteOffEvent(tick=192, channel=3, data=[79, 0]),\n",
      "   midi.NoteOnEvent(tick=0, channel=3, data=[78, 80]),\n",
      "   midi.NoteOffEvent(tick=192, channel=3, data=[78, 0]),\n",
      "   midi.NoteOnEvent(tick=0, channel=3, data=[79, 80]),\n",
      "   midi.NoteOffEvent(tick=192, channel=3, data=[79, 0]),\n",
      "   midi.NoteOnEvent(tick=0, channel=3, data=[64, 80]),\n",
      "   midi.NoteOffEvent(tick=96, channel=3, data=[64, 0]),\n",
      "   midi.NoteOnEvent(tick=0, channel=3, data=[66, 80]),\n",
      "   midi.NoteOffEvent(tick=96, channel=3, data=[66, 0]),\n",
      "   midi.NoteOnEvent(tick=0, channel=3, data=[64, 80]),\n",
      "   midi.NoteOffEvent(tick=96, channel=3, data=[64, 0]),\n",
      "   midi.NoteOnEvent(tick=0, channel=3, data=[64, 80]),\n",
      "   midi.NoteOffEvent(tick=96, channel=3, data=[64, 0]),\n",
      "   midi.NoteOnEvent(tick=0, channel=3, data=[64, 80]),\n",
      "   midi.NoteOffEvent(tick=96, channel=3, data=[64, 0]),\n",
      "   midi.NoteOnEvent(tick=0, channel=3, data=[73, 80]),\n",
      "   midi.NoteOffEvent(tick=192, channel=3, data=[73, 0]),\n",
      "   midi.NoteOnEvent(tick=0, channel=3, data=[67, 80]),\n",
      "   midi.NoteOffEvent(tick=96, channel=3, data=[67, 0]),\n",
      "   midi.NoteOnEvent(tick=0, channel=3, data=[69, 80]),\n",
      "   midi.NoteOffEvent(tick=96, channel=3, data=[69, 0]),\n",
      "   midi.NoteOnEvent(tick=0, channel=3, data=[67, 80]),\n",
      "   midi.NoteOffEvent(tick=96, channel=3, data=[67, 0]),\n",
      "   midi.NoteOnEvent(tick=0, channel=3, data=[67, 80]),\n",
      "   midi.NoteOffEvent(tick=96, channel=3, data=[67, 0]),\n",
      "   midi.NoteOnEvent(tick=0, channel=3, data=[67, 80]),\n",
      "   midi.NoteOffEvent(tick=96, channel=3, data=[67, 0]),\n",
      "   midi.NoteOnEvent(tick=0, channel=3, data=[76, 80]),\n",
      "   midi.NoteOffEvent(tick=192, channel=3, data=[76, 0]),\n",
      "   midi.NoteOnEvent(tick=576, channel=3, data=[78, 80]),\n",
      "   midi.NoteOffEvent(tick=512, channel=3, data=[78, 0]),\n",
      "   midi.NoteOnEvent(tick=64, channel=3, data=[66, 80]),\n",
      "   midi.NoteOffEvent(tick=192, channel=3, data=[66, 0]),\n",
      "   midi.NoteOnEvent(tick=0, channel=3, data=[67, 80]),\n",
      "   midi.NoteOffEvent(tick=384, channel=3, data=[67, 0]),\n",
      "   midi.NoteOnEvent(tick=0, channel=3, data=[64, 80]),\n",
      "   midi.NoteOffEvent(tick=384, channel=3, data=[64, 0]),\n",
      "   midi.NoteOnEvent(tick=0, channel=3, data=[67, 80]),\n",
      "   midi.NoteOffEvent(tick=384, channel=3, data=[67, 0]),\n",
      "   midi.NoteOnEvent(tick=0, channel=3, data=[64, 80]),\n",
      "   midi.NoteOffEvent(tick=384, channel=3, data=[64, 0]),\n",
      "   midi.NoteOnEvent(tick=0, channel=3, data=[66, 80]),\n",
      "   midi.NoteOffEvent(tick=192, channel=3, data=[66, 0]),\n",
      "   midi.NoteOnEvent(tick=0, channel=3, data=[78, 80]),\n",
      "   midi.NoteOffEvent(tick=192, channel=3, data=[78, 0]),\n",
      "   midi.NoteOnEvent(tick=0, channel=3, data=[74, 80]),\n",
      "   midi.NoteOffEvent(tick=192, channel=3, data=[74, 0]),\n",
      "   midi.NoteOnEvent(tick=0, channel=3, data=[69, 80]),\n",
      "   midi.NoteOffEvent(tick=192, channel=3, data=[69, 0]),\n",
      "   midi.NoteOnEvent(tick=0, channel=3, data=[66, 80]),\n",
      "   midi.NoteOffEvent(tick=192, channel=3, data=[66, 0]),\n",
      "   midi.NoteOnEvent(tick=1152, channel=3, data=[66, 80]),\n",
      "   midi.NoteOffEvent(tick=96, channel=3, data=[66, 0]),\n",
      "   midi.NoteOnEvent(tick=0, channel=3, data=[67, 80]),\n",
      "   midi.NoteOffEvent(tick=96, channel=3, data=[67, 0]),\n",
      "   midi.NoteOnEvent(tick=0, channel=3, data=[69, 80]),\n",
      "   midi.NoteOffEvent(tick=192, channel=3, data=[69, 0]),\n",
      "   midi.NoteOnEvent(tick=0, channel=3, data=[74, 80]),\n",
      "   midi.NoteOffEvent(tick=192, channel=3, data=[74, 0]),\n",
      "   midi.NoteOnEvent(tick=0, channel=3, data=[71, 80]),\n",
      "   midi.NoteOffEvent(tick=192, channel=3, data=[71, 0]),\n",
      "   midi.NoteOnEvent(tick=0, channel=3, data=[76, 80]),\n",
      "   midi.NoteOffEvent(tick=192, channel=3, data=[76, 0]),\n",
      "   midi.NoteOnEvent(tick=0, channel=3, data=[74, 80]),\n",
      "   midi.NoteOffEvent(tick=192, channel=3, data=[74, 0]),\n",
      "   midi.NoteOnEvent(tick=0, channel=3, data=[78, 80]),\n",
      "   midi.NoteOffEvent(tick=192, channel=3, data=[78, 0]),\n",
      "   midi.NoteOnEvent(tick=0, channel=3, data=[74, 80]),\n",
      "   midi.NoteOffEvent(tick=192, channel=3, data=[74, 0]),\n",
      "   midi.NoteOnEvent(tick=0, channel=3, data=[69, 80]),\n",
      "   midi.NoteOffEvent(tick=192, channel=3, data=[69, 0]),\n",
      "   midi.NoteOnEvent(tick=1344, channel=3, data=[66, 80]),\n",
      "   midi.NoteOffEvent(tick=96, channel=3, data=[66, 0]),\n",
      "   midi.NoteOnEvent(tick=0, channel=3, data=[67, 80]),\n",
      "   midi.NoteOffEvent(tick=96, channel=3, data=[67, 0]),\n",
      "   midi.NoteOnEvent(tick=0, channel=3, data=[69, 80]),\n",
      "   midi.NoteOffEvent(tick=192, channel=3, data=[69, 0]),\n",
      "   midi.NoteOnEvent(tick=0, channel=3, data=[74, 80]),\n",
      "   midi.NoteOffEvent(tick=192, channel=3, data=[74, 0]),\n",
      "   midi.NoteOnEvent(tick=0, channel=3, data=[71, 80]),\n",
      "   midi.NoteOffEvent(tick=192, channel=3, data=[71, 0]),\n",
      "   midi.NoteOnEvent(tick=0, channel=3, data=[76, 80]),\n",
      "   midi.NoteOffEvent(tick=192, channel=3, data=[76, 0]),\n",
      "   midi.NoteOnEvent(tick=0, channel=3, data=[74, 80]),\n",
      "   midi.NoteOffEvent(tick=192, channel=3, data=[74, 0]),\n",
      "   midi.NoteOnEvent(tick=0, channel=3, data=[78, 80]),\n",
      "   midi.NoteOffEvent(tick=192, channel=3, data=[78, 0]),\n",
      "   midi.NoteOnEvent(tick=0, channel=3, data=[74, 80]),\n",
      "   midi.NoteOffEvent(tick=192, channel=3, data=[74, 0]),\n",
      "   midi.NoteOnEvent(tick=0, channel=3, data=[69, 80]),\n",
      "   midi.NoteOffEvent(tick=192, channel=3, data=[69, 0]),\n",
      "   midi.NoteOnEvent(tick=960, channel=3, data=[78, 80]),\n",
      "   midi.NoteOffEvent(tick=384, channel=3, data=[78, 0]),\n",
      "   midi.NoteOnEvent(tick=0, channel=3, data=[76, 80]),\n",
      "   midi.NoteOffEvent(tick=96, channel=3, data=[76, 0]),\n",
      "   midi.NoteOnEvent(tick=0, channel=3, data=[74, 80]),\n",
      "   midi.NoteOffEvent(tick=96, channel=3, data=[74, 0]),\n",
      "   midi.NoteOnEvent(tick=0, channel=3, data=[76, 80]),\n",
      "   midi.NoteOffEvent(tick=192, channel=3, data=[76, 0]),\n",
      "   midi.NoteOnEvent(tick=768, channel=3, data=[76, 80]),\n",
      "   midi.NoteOffEvent(tick=384, channel=3, data=[76, 0]),\n",
      "   midi.NoteOnEvent(tick=0, channel=3, data=[74, 80]),\n",
      "   midi.NoteOffEvent(tick=96, channel=3, data=[74, 0]),\n",
      "   midi.NoteOnEvent(tick=0, channel=3, data=[73, 80]),\n",
      "   midi.NoteOffEvent(tick=96, channel=3, data=[73, 0]),\n",
      "   midi.NoteOnEvent(tick=0, channel=3, data=[74, 80]),\n",
      "   midi.NoteOffEvent(tick=192, channel=3, data=[74, 0]),\n",
      "   midi.NoteOnEvent(tick=0, channel=3, data=[74, 80]),\n",
      "   midi.NoteOffEvent(tick=192, channel=3, data=[74, 0]),\n",
      "   midi.NoteOnEvent(tick=0, channel=3, data=[76, 80]),\n",
      "   midi.NoteOffEvent(tick=192, channel=3, data=[76, 0]),\n",
      "   midi.NoteOnEvent(tick=0, channel=3, data=[78, 80]),\n",
      "   midi.NoteOffEvent(tick=192, channel=3, data=[78, 0]),\n",
      "   midi.NoteOnEvent(tick=0, channel=3, data=[76, 80]),\n",
      "   midi.NoteOffEvent(tick=192, channel=3, data=[76, 0]),\n",
      "   midi.NoteOnEvent(tick=0, channel=3, data=[68, 80]),\n",
      "   midi.NoteOffEvent(tick=96, channel=3, data=[68, 0]),\n",
      "   midi.NoteOnEvent(tick=0, channel=3, data=[69, 80]),\n",
      "   midi.NoteOffEvent(tick=96, channel=3, data=[69, 0]),\n",
      "   midi.NoteOnEvent(tick=0, channel=3, data=[71, 80]),\n",
      "   midi.NoteOffEvent(tick=96, channel=3, data=[71, 0]),\n",
      "   midi.NoteOnEvent(tick=0, channel=3, data=[73, 80]),\n",
      "   midi.NoteOffEvent(tick=96, channel=3, data=[73, 0]),\n",
      "   midi.NoteOnEvent(tick=0, channel=3, data=[74, 80]),\n",
      "   midi.NoteOffEvent(tick=96, channel=3, data=[74, 0]),\n",
      "   midi.NoteOnEvent(tick=0, channel=3, data=[76, 80]),\n",
      "   midi.NoteOffEvent(tick=96, channel=3, data=[76, 0]),\n",
      "   midi.NoteOnEvent(tick=0, channel=3, data=[73, 80]),\n",
      "   midi.NoteOffEvent(tick=192, channel=3, data=[73, 0]),\n",
      "   midi.NoteOnEvent(tick=0, channel=3, data=[76, 80]),\n",
      "   midi.NoteOffEvent(tick=192, channel=3, data=[76, 0]),\n",
      "   midi.NoteOnEvent(tick=0, channel=3, data=[64, 80]),\n",
      "   midi.NoteOffEvent(tick=192, channel=3, data=[64, 0]),\n",
      "   midi.NoteOnEvent(tick=0, channel=3, data=[74, 80]),\n",
      "   midi.NoteOffEvent(tick=192, channel=3, data=[74, 0]),\n",
      "   midi.NoteOnEvent(tick=0, channel=3, data=[73, 80]),\n",
      "   midi.NoteOffEvent(tick=768, channel=3, data=[73, 0]),\n",
      "   midi.EndOfTrackEvent(tick=0, data=[])]),\n",
      " midi.Track(\\\n",
      "  [midi.TrackNameEvent(tick=0, text='Violino I', data=[86, 105, 111, 108, 105, 110, 111, 32, 73]),\n",
      "   midi.ControlChangeEvent(tick=0, channel=4, data=[0, 0]),\n",
      "   midi.ProgramChangeEvent(tick=0, channel=4, data=[48]),\n",
      "   midi.ControlChangeEvent(tick=0, channel=4, data=[7, 100]),\n",
      "   midi.ControlChangeEvent(tick=0, channel=4, data=[10, 61]),\n",
      "   midi.ControlChangeEvent(tick=0, channel=4, data=[91, 127]),\n",
      "   midi.ControlChangeEvent(tick=0, channel=4, data=[93, 127]),\n",
      "   midi.KeySignatureEvent(tick=0, data=[2, 0]),\n",
      "   midi.NoteOnEvent(tick=768, channel=4, data=[62, 80]),\n",
      "   midi.NoteOffEvent(tick=192, channel=4, data=[62, 0]),\n",
      "   midi.NoteOnEvent(tick=0, channel=4, data=[74, 80]),\n",
      "   midi.NoteOffEvent(tick=192, channel=4, data=[74, 0]),\n",
      "   midi.NoteOnEvent(tick=0, channel=4, data=[73, 80]),\n",
      "   midi.NoteOffEvent(tick=192, channel=4, data=[73, 0]),\n",
      "   midi.NoteOnEvent(tick=0, channel=4, data=[69, 80]),\n",
      "   midi.NoteOffEvent(tick=192, channel=4, data=[69, 0]),\n",
      "   midi.NoteOnEvent(tick=0, channel=4, data=[74, 80]),\n",
      "   midi.NoteOffEvent(tick=192, channel=4, data=[74, 0]),\n",
      "   midi.NoteOnEvent(tick=0, channel=4, data=[73, 80]),\n",
      "   midi.NoteOffEvent(tick=96, channel=4, data=[73, 0]),\n",
      "   midi.NoteOnEvent(tick=0, channel=4, data=[71, 80]),\n",
      "   midi.NoteOffEvent(tick=96, channel=4, data=[71, 0]),\n",
      "   midi.NoteOnEvent(tick=0, channel=4, data=[69, 80]),\n",
      "   midi.NoteOffEvent(tick=96, channel=4, data=[69, 0]),\n",
      "   midi.NoteOnEvent(tick=0, channel=4, data=[67, 80]),\n",
      "   midi.NoteOffEvent(tick=96, channel=4, data=[67, 0]),\n",
      "   midi.NoteOnEvent(tick=0, channel=4, data=[66, 80]),\n",
      "   midi.NoteOffEvent(tick=96, channel=4, data=[66, 0]),\n",
      "   midi.NoteOnEvent(tick=0, channel=4, data=[64, 80]),\n",
      "   midi.NoteOffEvent(tick=96, channel=4, data=[64, 0]),\n",
      "   midi.NoteOnEvent(tick=0, channel=4, data=[62, 80]),\n",
      "   midi.NoteOffEvent(tick=192, channel=4, data=[62, 0]),\n",
      "   midi.NoteOnEvent(tick=0, channel=4, data=[86, 80]),\n",
      "   midi.NoteOffEvent(tick=192, channel=4, data=[86, 0]),\n",
      "   midi.NoteOnEvent(tick=0, channel=4, data=[76, 80]),\n",
      "   midi.NoteOffEvent(tick=192, channel=4, data=[76, 0]),\n",
      "   midi.NoteOnEvent(tick=0, channel=4, data=[85, 80]),\n",
      "   midi.NoteOffEvent(tick=192, channel=4, data=[85, 0]),\n",
      "   midi.NoteOnEvent(tick=0, channel=4, data=[86, 80]),\n",
      "   midi.NoteOffEvent(tick=96, channel=4, data=[86, 0]),\n",
      "   midi.NoteOnEvent(tick=0, channel=4, data=[74, 80]),\n",
      "   midi.NoteOffEvent(tick=96, channel=4, data=[74, 0]),\n",
      "   midi.NoteOnEvent(tick=0, channel=4, data=[73, 80]),\n",
      "   midi.NoteOffEvent(tick=96, channel=4, data=[73, 0]),\n",
      "   midi.NoteOnEvent(tick=0, channel=4, data=[71, 80]),\n",
      "   midi.NoteOffEvent(tick=96, channel=4, data=[71, 0]),\n",
      "   midi.NoteOnEvent(tick=0, channel=4, data=[69, 80]),\n",
      "   midi.NoteOffEvent(tick=96, channel=4, data=[69, 0]),\n",
      "   midi.NoteOnEvent(tick=0, channel=4, data=[67, 80]),\n",
      "   midi.NoteOffEvent(tick=96, channel=4, data=[67, 0]),\n",
      "   midi.NoteOnEvent(tick=0, channel=4, data=[66, 80]),\n",
      "   midi.NoteOffEvent(tick=96, channel=4, data=[66, 0]),\n",
      "   midi.NoteOnEvent(tick=0, channel=4, data=[64, 80]),\n",
      "   midi.NoteOffEvent(tick=96, channel=4, data=[64, 0]),\n",
      "   midi.NoteOnEvent(tick=0, channel=4, data=[62, 80]),\n",
      "   midi.NoteOffEvent(tick=192, channel=4, data=[62, 0]),\n",
      "   midi.NoteOnEvent(tick=0, channel=4, data=[74, 80]),\n",
      "   midi.NoteOffEvent(tick=192, channel=4, data=[74, 0]),\n",
      "   midi.NoteOnEvent(tick=0, channel=4, data=[73, 80]),\n",
      "   midi.NoteOffEvent(tick=192, channel=4, data=[73, 0]),\n",
      "   midi.NoteOnEvent(tick=0, channel=4, data=[69, 80]),\n",
      "   midi.NoteOffEvent(tick=192, channel=4, data=[69, 0]),\n",
      "   midi.NoteOnEvent(tick=0, channel=4, data=[74, 80]),\n",
      "   midi.NoteOffEvent(tick=192, channel=4, data=[74, 0]),\n",
      "   midi.NoteOnEvent(tick=0, channel=4, data=[73, 80]),\n",
      "   midi.NoteOffEvent(tick=96, channel=4, data=[73, 0]),\n",
      "   midi.NoteOnEvent(tick=0, channel=4, data=[71, 80]),\n",
      "   midi.NoteOffEvent(tick=96, channel=4, data=[71, 0]),\n",
      "   midi.NoteOnEvent(tick=0, channel=4, data=[69, 80]),\n",
      "   midi.NoteOffEvent(tick=96, channel=4, data=[69, 0]),\n",
      "   midi.NoteOnEvent(tick=0, channel=4, data=[67, 80]),\n",
      "   midi.NoteOffEvent(tick=96, channel=4, data=[67, 0]),\n",
      "   midi.NoteOnEvent(tick=0, channel=4, data=[66, 80]),\n",
      "   midi.NoteOffEvent(tick=96, channel=4, data=[66, 0]),\n",
      "   midi.NoteOnEvent(tick=0, channel=4, data=[64, 80]),\n",
      "   midi.NoteOffEvent(tick=96, channel=4, data=[64, 0]),\n",
      "   midi.NoteOnEvent(tick=0, channel=4, data=[62, 80]),\n",
      "   midi.NoteOffEvent(tick=192, channel=4, data=[62, 0]),\n",
      "   midi.NoteOnEvent(tick=0, channel=4, data=[86, 80]),\n",
      "   midi.NoteOffEvent(tick=192, channel=4, data=[86, 0]),\n",
      "   midi.NoteOnEvent(tick=0, channel=4, data=[76, 80]),\n",
      "   midi.NoteOffEvent(tick=192, channel=4, data=[76, 0]),\n",
      "   midi.NoteOnEvent(tick=0, channel=4, data=[85, 80]),\n",
      "   midi.NoteOffEvent(tick=192, channel=4, data=[85, 0]),\n",
      "   midi.NoteOnEvent(tick=0, channel=4, data=[86, 80]),\n",
      "   midi.NoteOffEvent(tick=96, channel=4, data=[86, 0]),\n",
      "   midi.NoteOnEvent(tick=0, channel=4, data=[74, 80]),\n",
      "   midi.NoteOffEvent(tick=96, channel=4, data=[74, 0]),\n",
      "   midi.NoteOnEvent(tick=0, channel=4, data=[73, 80]),\n",
      "   midi.NoteOffEvent(tick=96, channel=4, data=[73, 0]),\n",
      "   midi.NoteOnEvent(tick=0, channel=4, data=[71, 80]),\n",
      "   midi.NoteOffEvent(tick=96, channel=4, data=[71, 0]),\n",
      "   midi.NoteOnEvent(tick=0, channel=4, data=[69, 80]),\n",
      "   midi.NoteOffEvent(tick=96, channel=4, data=[69, 0]),\n",
      "   midi.NoteOnEvent(tick=0, channel=4, data=[67, 80]),\n",
      "   midi.NoteOffEvent(tick=96, channel=4, data=[67, 0]),\n",
      "   midi.NoteOnEvent(tick=0, channel=4, data=[66, 80]),\n",
      "   midi.NoteOffEvent(tick=96, channel=4, data=[66, 0]),\n",
      "   midi.NoteOnEvent(tick=0, channel=4, data=[64, 80]),\n",
      "   midi.NoteOffEvent(tick=96, channel=4, data=[64, 0]),\n",
      "   midi.NoteOnEvent(tick=0, channel=4, data=[62, 80]),\n",
      "   midi.NoteOffEvent(tick=192, channel=4, data=[62, 0]),\n",
      "   midi.NoteOnEvent(tick=0, channel=4, data=[74, 80]),\n",
      "   midi.NoteOffEvent(tick=192, channel=4, data=[74, 0]),\n",
      "   midi.NoteOnEvent(tick=0, channel=4, data=[71, 80]),\n",
      "   midi.NoteOffEvent(tick=192, channel=4, data=[71, 0]),\n",
      "   midi.NoteOnEvent(tick=0, channel=4, data=[66, 80]),\n",
      "   midi.NoteOffEvent(tick=192, channel=4, data=[66, 0]),\n",
      "   midi.NoteOnEvent(tick=0, channel=4, data=[68, 80]),\n",
      "   midi.NoteOffEvent(tick=192, channel=4, data=[68, 0]),\n",
      "   midi.NoteOnEvent(tick=0, channel=4, data=[83, 80]),\n",
      "   midi.NoteOffEvent(tick=96, channel=4, data=[83, 0]),\n",
      "   midi.NoteOnEvent(tick=0, channel=4, data=[81, 80]),\n",
      "   midi.NoteOffEvent(tick=96, channel=4, data=[81, 0]),\n",
      "   midi.NoteOnEvent(tick=0, channel=4, data=[83, 80]),\n",
      "   midi.NoteOffEvent(tick=96, channel=4, data=[83, 0]),\n",
      "   midi.NoteOnEvent(tick=0, channel=4, data=[81, 80]),\n",
      "   midi.NoteOffEvent(tick=96, channel=4, data=[81, 0]),\n",
      "   midi.NoteOnEvent(tick=0, channel=4, data=[80, 80]),\n",
      "   midi.NoteOffEvent(tick=96, channel=4, data=[80, 0]),\n",
      "   midi.NoteOnEvent(tick=0, channel=4, data=[78, 80]),\n",
      "   midi.NoteOffEvent(tick=96, channel=4, data=[78, 0]),\n",
      "   midi.NoteOnEvent(tick=0, channel=4, data=[76, 80]),\n",
      "   midi.NoteOffEvent(tick=192, channel=4, data=[76, 0]),\n",
      "   midi.NoteOnEvent(tick=0, channel=4, data=[73, 80]),\n",
      "   midi.NoteOffEvent(tick=192, channel=4, data=[73, 0]),\n",
      "   midi.NoteOnEvent(tick=0, channel=4, data=[69, 80]),\n",
      "   midi.NoteOffEvent(tick=192, channel=4, data=[69, 0]),\n",
      "   midi.NoteOnEvent(tick=0, channel=4, data=[64, 80]),\n",
      "   midi.NoteOffEvent(tick=192, channel=4, data=[64, 0]),\n",
      "   midi.NoteOnEvent(tick=0, channel=4, data=[69, 80]),\n",
      "   midi.NoteOffEvent(tick=192, channel=4, data=[69, 0]),\n",
      "   midi.NoteOnEvent(tick=0, channel=4, data=[81, 80]),\n",
      "   midi.NoteOffEvent(tick=96, channel=4, data=[81, 0]),\n",
      "   midi.NoteOnEvent(tick=0, channel=4, data=[80, 80]),\n",
      "   midi.NoteOffEvent(tick=96, channel=4, data=[80, 0]),\n",
      "   midi.NoteOnEvent(tick=0, channel=4, data=[81, 80]),\n",
      "   midi.NoteOffEvent(tick=96, channel=4, data=[81, 0]),\n",
      "   midi.NoteOnEvent(tick=0, channel=4, data=[80, 80]),\n",
      "   midi.NoteOffEvent(tick=96, channel=4, data=[80, 0]),\n",
      "   midi.NoteOnEvent(tick=0, channel=4, data=[78, 80]),\n",
      "   midi.NoteOffEvent(tick=96, channel=4, data=[78, 0]),\n",
      "   midi.NoteOnEvent(tick=0, channel=4, data=[76, 80]),\n",
      "   midi.NoteOffEvent(tick=96, channel=4, data=[76, 0]),\n",
      "   midi.NoteOnEvent(tick=0, channel=4, data=[74, 80]),\n",
      "   midi.NoteOffEvent(tick=96, channel=4, data=[74, 0]),\n",
      "   midi.NoteOnEvent(tick=0, channel=4, data=[76, 80]),\n",
      "   midi.NoteOffEvent(tick=96, channel=4, data=[76, 0]),\n",
      "   midi.NoteOnEvent(tick=0, channel=4, data=[74, 80]),\n",
      "   midi.NoteOffEvent(tick=96, channel=4, data=[74, 0]),\n",
      "   midi.NoteOnEvent(tick=96, channel=4, data=[74, 80]),\n",
      "   midi.NoteOffEvent(tick=96, channel=4, data=[74, 0]),\n",
      "   midi.NoteOnEvent(tick=96, channel=4, data=[74, 80]),\n",
      "   midi.NoteOffEvent(tick=96, channel=4, data=[74, 0]),\n",
      "   midi.NoteOnEvent(tick=96, channel=4, data=[86, 80]),\n",
      "   midi.NoteOffEvent(tick=384, channel=4, data=[86, 0]),\n",
      "   midi.NoteOnEvent(tick=192, channel=4, data=[85, 80]),\n",
      "   midi.NoteOffEvent(tick=96, channel=4, data=[85, 0]),\n",
      "   midi.NoteOnEvent(tick=0, channel=4, data=[83, 80]),\n",
      "   midi.NoteOffEvent(tick=96, channel=4, data=[83, 0]),\n",
      "   midi.NoteOnEvent(tick=0, channel=4, data=[85, 80]),\n",
      "   midi.NoteOffEvent(tick=192, channel=4, data=[85, 0]),\n",
      "   midi.NoteOnEvent(tick=0, channel=4, data=[81, 80]),\n",
      "   midi.NoteOffEvent(tick=192, channel=4, data=[81, 0]),\n",
      "   midi.NoteOnEvent(tick=0, channel=4, data=[76, 80]),\n",
      "   midi.NoteOffEvent(tick=192, channel=4, data=[76, 0]),\n",
      "   midi.NoteOnEvent(tick=0, channel=4, data=[80, 80]),\n",
      "   midi.NoteOffEvent(tick=192, channel=4, data=[80, 0]),\n",
      "   midi.NoteOnEvent(tick=0, channel=4, data=[81, 80]),\n",
      "   midi.NoteOffEvent(tick=192, channel=4, data=[81, 0]),\n",
      "   midi.NoteOnEvent(tick=0, channel=4, data=[57, 80]),\n",
      "   midi.NoteOffEvent(tick=192, channel=4, data=[57, 0]),\n",
      "   midi.NoteOnEvent(tick=0, channel=4, data=[61, 80]),\n",
      "   midi.NoteOffEvent(tick=192, channel=4, data=[61, 0]),\n",
      "   midi.NoteOnEvent(tick=0, channel=4, data=[64, 80]),\n",
      "   midi.NoteOffEvent(tick=192, channel=4, data=[64, 0]),\n",
      "   midi.NoteOnEvent(tick=0, channel=4, data=[69, 80]),\n",
      "   midi.NoteOffEvent(tick=192, channel=4, data=[69, 0]),\n",
      "   midi.NoteOnEvent(tick=0, channel=4, data=[67, 80]),\n",
      "   midi.NoteOffEvent(tick=96, channel=4, data=[67, 0]),\n",
      "   midi.NoteOnEvent(tick=0, channel=4, data=[66, 80]),\n",
      "   midi.NoteOffEvent(tick=96, channel=4, data=[66, 0]),\n",
      "   midi.NoteOnEvent(tick=0, channel=4, data=[64, 80]),\n",
      "   midi.NoteOffEvent(tick=96, channel=4, data=[64, 0]),\n",
      "   midi.NoteOnEvent(tick=0, channel=4, data=[62, 80]),\n",
      "   midi.NoteOffEvent(tick=96, channel=4, data=[62, 0]),\n",
      "   midi.NoteOnEvent(tick=0, channel=4, data=[61, 80]),\n",
      "   midi.NoteOffEvent(tick=96, channel=4, data=[61, 0]),\n",
      "   midi.NoteOnEvent(tick=0, channel=4, data=[59, 80]),\n",
      "   midi.NoteOffEvent(tick=96, channel=4, data=[59, 0]),\n",
      "   midi.NoteOnEvent(tick=0, channel=4, data=[58, 80]),\n",
      "   midi.NoteOffEvent(tick=192, channel=4, data=[58, 0]),\n",
      "   midi.NoteOnEvent(tick=0, channel=4, data=[61, 80]),\n",
      "   midi.NoteOffEvent(tick=192, channel=4, data=[61, 0]),\n",
      "   midi.NoteOnEvent(tick=0, channel=4, data=[64, 80]),\n",
      "   midi.NoteOffEvent(tick=192, channel=4, data=[64, 0]),\n",
      "   midi.NoteOnEvent(tick=0, channel=4, data=[70, 80]),\n",
      "   midi.NoteOffEvent(tick=192, channel=4, data=[70, 0]),\n",
      "   midi.NoteOnEvent(tick=0, channel=4, data=[73, 80]),\n",
      "   midi.NoteOffEvent(tick=192, channel=4, data=[73, 0]),\n",
      "   midi.NoteOnEvent(tick=0, channel=4, data=[78, 80]),\n",
      "   midi.NoteOffEvent(tick=256, channel=4, data=[78, 0]),\n",
      "   midi.NoteOnEvent(tick=32, channel=4, data=[76, 80]),\n",
      "   midi.NoteOffEvent(tick=96, channel=4, data=[76, 0]),\n",
      "   midi.NoteOnEvent(tick=0, channel=4, data=[74, 80]),\n",
      "   midi.NoteOffEvent(tick=96, channel=4, data=[74, 0]),\n",
      "   midi.NoteOnEvent(tick=0, channel=4, data=[73, 80]),\n",
      "   midi.NoteOffEvent(tick=96, channel=4, data=[73, 0]),\n",
      "   midi.NoteOnEvent(tick=0, channel=4, data=[74, 80]),\n",
      "   midi.NoteOffEvent(tick=192, channel=4, data=[74, 0]),\n",
      "   midi.NoteOnEvent(tick=0, channel=4, data=[62, 80]),\n",
      "   midi.NoteOffEvent(tick=192, channel=4, data=[62, 0]),\n",
      "   midi.NoteOnEvent(tick=0, channel=4, data=[66, 80]),\n",
      "   midi.NoteOffEvent(tick=192, channel=4, data=[66, 0]),\n",
      "   midi.NoteOnEvent(tick=0, channel=4, data=[71, 80]),\n",
      "   midi.NoteOffEvent(tick=192, channel=4, data=[71, 0]),\n",
      "   midi.NoteOnEvent(tick=0, channel=4, data=[74, 80]),\n",
      "   midi.NoteOffEvent(tick=192, channel=4, data=[74, 0]),\n",
      "   midi.NoteOnEvent(tick=0, channel=4, data=[66, 80]),\n",
      "   midi.NoteOffEvent(tick=192, channel=4, data=[66, 0]),\n",
      "   midi.NoteOnEvent(tick=0, channel=4, data=[69, 80]),\n",
      "   midi.NoteOffEvent(tick=192, channel=4, data=[69, 0]),\n",
      "   midi.NoteOnEvent(tick=0, channel=4, data=[75, 80]),\n",
      "   midi.NoteOffEvent(tick=192, channel=4, data=[75, 0]),\n",
      "   midi.NoteOnEvent(tick=0, channel=4, data=[78, 80]),\n",
      "   midi.NoteOffEvent(tick=192, channel=4, data=[78, 0]),\n",
      "   midi.NoteOnEvent(tick=0, channel=4, data=[72, 80]),\n",
      "   midi.NoteOffEvent(tick=96, channel=4, data=[72, 0]),\n",
      "   midi.NoteOnEvent(tick=0, channel=4, data=[71, 80]),\n",
      "   midi.NoteOffEvent(tick=96, channel=4, data=[71, 0]),\n",
      "   midi.NoteOnEvent(tick=0, channel=4, data=[69, 80]),\n",
      "   midi.NoteOffEvent(tick=96, channel=4, data=[69, 0]),\n",
      "   midi.NoteOnEvent(tick=0, channel=4, data=[67, 80]),\n",
      "   midi.NoteOffEvent(tick=96, channel=4, data=[67, 0]),\n",
      "   midi.NoteOnEvent(tick=0, channel=4, data=[66, 80]),\n",
      "   midi.NoteOffEvent(tick=96, channel=4, data=[66, 0]),\n",
      "   midi.NoteOnEvent(tick=0, channel=4, data=[64, 80]),\n",
      "   midi.NoteOffEvent(tick=96, channel=4, data=[64, 0]),\n",
      "   midi.NoteOnEvent(tick=0, channel=4, data=[63, 80]),\n",
      "   midi.NoteOffEvent(tick=192, channel=4, data=[63, 0]),\n",
      "   midi.NoteOnEvent(tick=0, channel=4, data=[83, 80]),\n",
      "   midi.NoteOffEvent(tick=256, channel=4, data=[83, 0]),\n",
      "   midi.NoteOnEvent(tick=32, channel=4, data=[81, 80]),\n",
      "   midi.NoteOffEvent(tick=96, channel=4, data=[81, 0]),\n",
      "   midi.NoteOnEvent(tick=0, channel=4, data=[79, 80]),\n",
      "   midi.NoteOffEvent(tick=96, channel=4, data=[79, 0]),\n",
      "   midi.NoteOnEvent(tick=0, channel=4, data=[78, 80]),\n",
      "   midi.NoteOffEvent(tick=96, channel=4, data=[78, 0]),\n",
      "   midi.NoteOnEvent(tick=0, channel=4, data=[79, 80]),\n",
      "   midi.NoteOffEvent(tick=192, channel=4, data=[79, 0]),\n",
      "   midi.NoteOnEvent(tick=0, channel=4, data=[67, 80]),\n",
      "   midi.NoteOffEvent(tick=192, channel=4, data=[67, 0]),\n",
      "   midi.NoteOnEvent(tick=0, channel=4, data=[71, 80]),\n",
      "   midi.NoteOffEvent(tick=192, channel=4, data=[71, 0]),\n",
      "   midi.NoteOnEvent(tick=0, channel=4, data=[76, 80]),\n",
      "   midi.NoteOffEvent(tick=192, channel=4, data=[76, 0]),\n",
      "   midi.NoteOnEvent(tick=0, channel=4, data=[79, 80]),\n",
      "   midi.NoteOffEvent(tick=192, channel=4, data=[79, 0]),\n",
      "   midi.NoteOnEvent(tick=0, channel=4, data=[83, 80]),\n",
      "   midi.NoteOffEvent(tick=192, channel=4, data=[83, 0]),\n",
      "   midi.NoteOnEvent(tick=0, channel=4, data=[79, 80]),\n",
      "   midi.NoteOffEvent(tick=192, channel=4, data=[79, 0]),\n",
      "   midi.NoteOnEvent(tick=0, channel=4, data=[76, 80]),\n",
      "   midi.NoteOffEvent(tick=192, channel=4, data=[76, 0]),\n",
      "   midi.NoteOnEvent(tick=192, channel=4, data=[76, 80]),\n",
      "   midi.NoteOffEvent(tick=192, channel=4, data=[76, 0]),\n",
      "   midi.NoteOnEvent(tick=0, channel=4, data=[81, 80]),\n",
      "   midi.NoteOffEvent(tick=192, channel=4, data=[81, 0]),\n",
      "   midi.NoteOnEvent(tick=0, channel=4, data=[76, 80]),\n",
      "   midi.NoteOffEvent(tick=192, channel=4, data=[76, 0]),\n",
      "   midi.NoteOnEvent(tick=0, channel=4, data=[78, 80]),\n",
      "   midi.NoteOffEvent(tick=192, channel=4, data=[78, 0]),\n",
      "   midi.NoteOnEvent(tick=0, channel=4, data=[81, 80]),\n",
      "   midi.NoteOffEvent(tick=192, channel=4, data=[81, 0]),\n",
      "   midi.NoteOnEvent(tick=0, channel=4, data=[78, 80]),\n",
      "   midi.NoteOffEvent(tick=192, channel=4, data=[78, 0]),\n",
      "   midi.NoteOnEvent(tick=0, channel=4, data=[74, 80]),\n",
      "   midi.NoteOffEvent(tick=192, channel=4, data=[74, 0]),\n",
      "   midi.NoteOnEvent(tick=192, channel=4, data=[71, 80]),\n",
      "   midi.NoteOffEvent(tick=192, channel=4, data=[71, 0]),\n",
      "   midi.NoteOnEvent(tick=0, channel=4, data=[74, 80]),\n",
      "   midi.NoteOffEvent(tick=192, channel=4, data=[74, 0]),\n",
      "   midi.NoteOnEvent(tick=0, channel=4, data=[78, 80]),\n",
      "   midi.NoteOffEvent(tick=192, channel=4, data=[78, 0]),\n",
      "   midi.NoteOnEvent(tick=0, channel=4, data=[73, 80]),\n",
      "   midi.NoteOffEvent(tick=256, channel=4, data=[73, 0]),\n",
      "   midi.NoteOnEvent(tick=32, channel=4, data=[74, 80]),\n",
      "   midi.NoteOffEvent(tick=96, channel=4, data=[74, 0]),\n",
      "   midi.NoteOnEvent(tick=0, channel=4, data=[76, 80]),\n",
      "   midi.NoteOffEvent(tick=256, channel=4, data=[76, 0]),\n",
      "   midi.NoteOnEvent(tick=32, channel=4, data=[78, 80]),\n",
      "   midi.NoteOffEvent(tick=96, channel=4, data=[78, 0]),\n",
      "   midi.NoteOnEvent(tick=0, channel=4, data=[79, 80]),\n",
      "   midi.NoteOffEvent(tick=512, channel=4, data=[79, 0]),\n",
      "   midi.NoteOnEvent(tick=64, channel=4, data=[78, 80]),\n",
      "   midi.NoteOffEvent(tick=96, channel=4, data=[78, 0]),\n",
      "   midi.NoteOnEvent(tick=0, channel=4, data=[76, 80]),\n",
      "   midi.NoteOffEvent(tick=96, channel=4, data=[76, 0]),\n",
      "   midi.NoteOnEvent(tick=0, channel=4, data=[78, 80]),\n",
      "   midi.NoteOffEvent(tick=96, channel=4, data=[78, 0]),\n",
      "   midi.NoteOnEvent(tick=0, channel=4, data=[81, 80]),\n",
      "   midi.NoteOffEvent(tick=96, channel=4, data=[81, 0]),\n",
      "   midi.NoteOnEvent(tick=0, channel=4, data=[79, 80]),\n",
      "   midi.NoteOffEvent(tick=96, channel=4, data=[79, 0]),\n",
      "   midi.NoteOnEvent(tick=0, channel=4, data=[78, 80]),\n",
      "   midi.NoteOffEvent(tick=96, channel=4, data=[78, 0]),\n",
      "   midi.NoteOnEvent(tick=0, channel=4, data=[79, 80]),\n",
      "   midi.NoteOffEvent(tick=96, channel=4, data=[79, 0]),\n",
      "   midi.NoteOnEvent(tick=0, channel=4, data=[78, 80]),\n",
      "   midi.NoteOffEvent(tick=96, channel=4, data=[78, 0]),\n",
      "   midi.NoteOnEvent(tick=0, channel=4, data=[76, 80]),\n",
      "   midi.NoteOffEvent(tick=96, channel=4, data=[76, 0]),\n",
      "   midi.NoteOnEvent(tick=0, channel=4, data=[78, 80]),\n",
      "   midi.NoteOffEvent(tick=96, channel=4, data=[78, 0]),\n",
      "   midi.NoteOnEvent(tick=0, channel=4, data=[74, 80]),\n",
      "   midi.NoteOffEvent(tick=384, channel=4, data=[74, 0]),\n",
      "   midi.NoteOnEvent(tick=384, channel=4, data=[74, 80]),\n",
      "   midi.NoteOffEvent(tick=384, channel=4, data=[74, 0]),\n",
      "   midi.NoteOnEvent(tick=0, channel=4, data=[69, 80]),\n",
      "   midi.NoteOffEvent(tick=384, channel=4, data=[69, 0]),\n",
      "   midi.NoteOnEvent(tick=0, channel=4, data=[66, 80]),\n",
      "   midi.NoteOffEvent(tick=512, channel=4, data=[66, 0]),\n",
      "   midi.NoteOnEvent(tick=64, channel=4, data=[69, 80]),\n",
      "   midi.NoteOffEvent(tick=192, channel=4, data=[69, 0]),\n",
      "   midi.NoteOnEvent(tick=0, channel=4, data=[72, 80]),\n",
      "   midi.NoteOffEvent(tick=192, channel=4, data=[72, 0]),\n",
      "   midi.NoteOnEvent(tick=0, channel=4, data=[71, 80]),\n",
      "   midi.NoteOffEvent(tick=192, channel=4, data=[71, 0]),\n",
      "   midi.NoteOnEvent(tick=0, channel=4, data=[72, 80]),\n",
      "   midi.NoteOffEvent(tick=192, channel=4, data=[72, 0]),\n",
      "   midi.NoteOnEvent(tick=0, channel=4, data=[69, 80]),\n",
      "   midi.NoteOffEvent(tick=192, channel=4, data=[69, 0]),\n",
      "   midi.NoteOnEvent(tick=0, channel=4, data=[71, 80]),\n",
      "   midi.NoteOffEvent(tick=192, channel=4, data=[71, 0]),\n",
      "   midi.NoteOnEvent(tick=0, channel=4, data=[69, 80]),\n",
      "   midi.NoteOffEvent(tick=192, channel=4, data=[69, 0]),\n",
      "   midi.NoteOnEvent(tick=0, channel=4, data=[71, 80]),\n",
      "   midi.NoteOffEvent(tick=384, channel=4, data=[71, 0]),\n",
      "   midi.NoteOnEvent(tick=0, channel=4, data=[76, 80]),\n",
      "   midi.NoteOffEvent(tick=96, channel=4, data=[76, 0]),\n",
      "   midi.NoteOnEvent(tick=0, channel=4, data=[78, 80]),\n",
      "   midi.NoteOffEvent(tick=96, channel=4, data=[78, 0]),\n",
      "   midi.NoteOnEvent(tick=0, channel=4, data=[79, 80]),\n",
      "   midi.NoteOffEvent(tick=96, channel=4, data=[79, 0]),\n",
      "   midi.NoteOnEvent(tick=96, channel=4, data=[79, 80]),\n",
      "   midi.NoteOffEvent(tick=96, channel=4, data=[79, 0]),\n",
      "   midi.NoteOnEvent(tick=96, channel=4, data=[76, 80]),\n",
      "   midi.NoteOffEvent(tick=96, channel=4, data=[76, 0]),\n",
      "   midi.NoteOnEvent(tick=0, channel=4, data=[74, 80]),\n",
      "   midi.NoteOffEvent(tick=48, channel=4, data=[74, 0]),\n",
      "   midi.NoteOnEvent(tick=64, channel=4, data=[69, 80]),\n",
      "   midi.NoteOffEvent(tick=192, channel=4, data=[69, 0]),\n",
      "   midi.NoteOnEvent(tick=0, channel=4, data=[74, 80]),\n",
      "   midi.NoteOffEvent(tick=48, channel=4, data=[74, 0]),\n",
      "   midi.NoteOnEvent(tick=0, channel=4, data=[76, 80]),\n",
      "   midi.NoteOffEvent(tick=48, channel=4, data=[76, 0]),\n",
      "   midi.NoteOnEvent(tick=0, channel=4, data=[78, 80]),\n",
      "   midi.NoteOffEvent(tick=256, channel=4, data=[78, 0]),\n",
      "   midi.NoteOnEvent(tick=32, channel=4, data=[76, 80]),\n",
      "   midi.NoteOffEvent(tick=48, channel=4, data=[76, 0]),\n",
      "   midi.NoteOnEvent(tick=0, channel=4, data=[78, 80]),\n",
      "   midi.NoteOffEvent(tick=48, channel=4, data=[78, 0]),\n",
      "   midi.NoteOnEvent(tick=0, channel=4, data=[79, 80]),\n",
      "   midi.NoteOffEvent(tick=256, channel=4, data=[79, 0]),\n",
      "   midi.NoteOnEvent(tick=32, channel=4, data=[78, 80]),\n",
      "   midi.NoteOffEvent(tick=192, channel=4, data=[78, 0]),\n",
      "   midi.NoteOnEvent(tick=0, channel=4, data=[76, 80]),\n",
      "   midi.NoteOffEvent(tick=192, channel=4, data=[76, 0]),\n",
      "   midi.NoteOnEvent(tick=0, channel=4, data=[74, 80]),\n",
      "   midi.NoteOffEvent(tick=384, channel=4, data=[74, 0]),\n",
      "   midi.NoteOnEvent(tick=0, channel=4, data=[62, 80]),\n",
      "   midi.NoteOffEvent(tick=192, channel=4, data=[62, 0]),\n",
      "   midi.NoteOnEvent(tick=0, channel=4, data=[74, 80]),\n",
      "   midi.NoteOffEvent(tick=192, channel=4, data=[74, 0]),\n",
      "   midi.NoteOnEvent(tick=0, channel=4, data=[73, 80]),\n",
      "   midi.NoteOffEvent(tick=192, channel=4, data=[73, 0]),\n",
      "   midi.NoteOnEvent(tick=0, channel=4, data=[69, 80]),\n",
      "   midi.NoteOffEvent(tick=192, channel=4, data=[69, 0]),\n",
      "   midi.NoteOnEvent(tick=0, channel=4, data=[74, 80]),\n",
      "   midi.NoteOffEvent(tick=192, channel=4, data=[74, 0]),\n",
      "   midi.NoteOnEvent(tick=0, channel=4, data=[73, 80]),\n",
      "   midi.NoteOffEvent(tick=96, channel=4, data=[73, 0]),\n",
      "   midi.NoteOnEvent(tick=0, channel=4, data=[71, 80]),\n",
      "   midi.NoteOffEvent(tick=96, channel=4, data=[71, 0]),\n",
      "   midi.NoteOnEvent(tick=0, channel=4, data=[69, 80]),\n",
      "   midi.NoteOffEvent(tick=96, channel=4, data=[69, 0]),\n",
      "   midi.NoteOnEvent(tick=0, channel=4, data=[67, 80]),\n",
      "   midi.NoteOffEvent(tick=96, channel=4, data=[67, 0]),\n",
      "   midi.NoteOnEvent(tick=0, channel=4, data=[66, 80]),\n",
      "   midi.NoteOffEvent(tick=96, channel=4, data=[66, 0]),\n",
      "   midi.NoteOnEvent(tick=0, channel=4, data=[64, 80]),\n",
      "   midi.NoteOffEvent(tick=96, channel=4, data=[64, 0]),\n",
      "   midi.NoteOnEvent(tick=0, channel=4, data=[62, 80]),\n",
      "   midi.NoteOffEvent(tick=192, channel=4, data=[62, 0]),\n",
      "   midi.NoteOnEvent(tick=672, channel=4, data=[74, 80]),\n",
      "   midi.NoteOffEvent(tick=96, channel=4, data=[74, 0]),\n",
      "   midi.NoteOnEvent(tick=0, channel=4, data=[73, 80]),\n",
      "   midi.NoteOffEvent(tick=96, channel=4, data=[73, 0]),\n",
      "   midi.NoteOnEvent(tick=0, channel=4, data=[71, 80]),\n",
      "   midi.NoteOffEvent(tick=96, channel=4, data=[71, 0]),\n",
      "   midi.NoteOnEvent(tick=0, channel=4, data=[69, 80]),\n",
      "   midi.NoteOffEvent(tick=96, channel=4, data=[69, 0]),\n",
      "   midi.NoteOnEvent(tick=0, channel=4, data=[67, 80]),\n",
      "   midi.NoteOffEvent(tick=96, channel=4, data=[67, 0]),\n",
      "   midi.NoteOnEvent(tick=0, channel=4, data=[66, 80]),\n",
      "   midi.NoteOffEvent(tick=96, channel=4, data=[66, 0]),\n",
      "   midi.NoteOnEvent(tick=0, channel=4, data=[64, 80]),\n",
      "   midi.NoteOffEvent(tick=96, channel=4, data=[64, 0]),\n",
      "   midi.NoteOnEvent(tick=0, channel=4, data=[62, 80]),\n",
      "   midi.NoteOffEvent(tick=192, channel=4, data=[62, 0]),\n",
      "   midi.NoteOnEvent(tick=0, channel=4, data=[69, 80]),\n",
      "   midi.NoteOffEvent(tick=384, channel=4, data=[69, 0]),\n",
      "   midi.NoteOnEvent(tick=0, channel=4, data=[71, 80]),\n",
      "   midi.NoteOffEvent(tick=96, channel=4, data=[71, 0]),\n",
      "   midi.NoteOnEvent(tick=0, channel=4, data=[73, 80]),\n",
      "   midi.NoteOffEvent(tick=96, channel=4, data=[73, 0]),\n",
      "   midi.NoteOnEvent(tick=0, channel=4, data=[74, 80]),\n",
      "   midi.NoteOffEvent(tick=96, channel=4, data=[74, 0]),\n",
      "   midi.NoteOnEvent(tick=0, channel=4, data=[76, 80]),\n",
      "   midi.NoteOffEvent(tick=96, channel=4, data=[76, 0]),\n",
      "   midi.NoteOnEvent(tick=0, channel=4, data=[78, 80]),\n",
      "   midi.NoteOffEvent(tick=96, channel=4, data=[78, 0]),\n",
      "   midi.NoteOnEvent(tick=96, channel=4, data=[78, 80]),\n",
      "   midi.NoteOffEvent(tick=96, channel=4, data=[78, 0]),\n",
      "   midi.NoteOnEvent(tick=96, channel=4, data=[74, 80]),\n",
      "   midi.NoteOffEvent(tick=96, channel=4, data=[74, 0]),\n",
      "   midi.NoteOnEvent(tick=96, channel=4, data=[79, 80]),\n",
      "   midi.NoteOffEvent(tick=192, channel=4, data=[79, 0]),\n",
      "   midi.NoteOnEvent(tick=0, channel=4, data=[78, 80]),\n",
      "   midi.NoteOffEvent(tick=192, channel=4, data=[78, 0]),\n",
      "   midi.NoteOnEvent(tick=0, channel=4, data=[76, 80]),\n",
      "   midi.NoteOffEvent(tick=192, channel=4, data=[76, 0]),\n",
      "   midi.NoteOnEvent(tick=0, channel=4, data=[74, 80]),\n",
      "   midi.NoteOffEvent(tick=192, channel=4, data=[74, 0]),\n",
      "   midi.NoteOnEvent(tick=0, channel=4, data=[73, 80]),\n",
      "   midi.NoteOffEvent(tick=192, channel=4, data=[73, 0]),\n",
      "   midi.NoteOnEvent(tick=0, channel=4, data=[71, 80]),\n",
      "   midi.NoteOffEvent(tick=192, channel=4, data=[71, 0]),\n",
      "   midi.NoteOnEvent(tick=0, channel=4, data=[69, 80]),\n",
      "   midi.NoteOffEvent(tick=96, channel=4, data=[69, 0]),\n",
      "   midi.NoteOnEvent(tick=0, channel=4, data=[57, 80]),\n",
      "   midi.NoteOffEvent(tick=96, channel=4, data=[57, 0]),\n",
      "   midi.NoteOnEvent(tick=0, channel=4, data=[59, 80]),\n",
      "   midi.NoteOffEvent(tick=96, channel=4, data=[59, 0]),\n",
      "   midi.NoteOnEvent(tick=0, channel=4, data=[61, 80]),\n",
      "   midi.NoteOffEvent(tick=96, channel=4, data=[61, 0]),\n",
      "   midi.NoteOnEvent(tick=0, channel=4, data=[62, 80]),\n",
      "   midi.NoteOffEvent(tick=192, channel=4, data=[62, 0]),\n",
      "   midi.NoteOnEvent(tick=0, channel=4, data=[74, 80]),\n",
      "   midi.NoteOffEvent(tick=192, channel=4, data=[74, 0]),\n",
      "   midi.NoteOnEvent(tick=0, channel=4, data=[71, 80]),\n",
      "   midi.NoteOffEvent(tick=192, channel=4, data=[71, 0]),\n",
      "   midi.NoteOnEvent(tick=0, channel=4, data=[66, 80]),\n",
      "   midi.NoteOffEvent(tick=192, channel=4, data=[66, 0]),\n",
      "   midi.NoteOnEvent(tick=0, channel=4, data=[68, 80]),\n",
      "   midi.NoteOffEvent(tick=192, channel=4, data=[68, 0]),\n",
      "   midi.NoteOnEvent(tick=0, channel=4, data=[83, 80]),\n",
      "   midi.NoteOffEvent(tick=96, channel=4, data=[83, 0]),\n",
      "   midi.NoteOnEvent(tick=0, channel=4, data=[81, 80]),\n",
      "   midi.NoteOffEvent(tick=96, channel=4, data=[81, 0]),\n",
      "   midi.NoteOnEvent(tick=0, channel=4, data=[83, 80]),\n",
      "   midi.NoteOffEvent(tick=96, channel=4, data=[83, 0]),\n",
      "   midi.NoteOnEvent(tick=0, channel=4, data=[81, 80]),\n",
      "   midi.NoteOffEvent(tick=96, channel=4, data=[81, 0]),\n",
      "   midi.NoteOnEvent(tick=0, channel=4, data=[80, 80]),\n",
      "   midi.NoteOffEvent(tick=96, channel=4, data=[80, 0]),\n",
      "   midi.NoteOnEvent(tick=0, channel=4, data=[78, 80]),\n",
      "   midi.NoteOffEvent(tick=96, channel=4, data=[78, 0]),\n",
      "   midi.NoteOnEvent(tick=0, channel=4, data=[76, 80]),\n",
      "   midi.NoteOffEvent(tick=192, channel=4, data=[76, 0]),\n",
      "   midi.NoteOnEvent(tick=0, channel=4, data=[73, 80]),\n",
      "   midi.NoteOffEvent(tick=192, channel=4, data=[73, 0]),\n",
      "   midi.NoteOnEvent(tick=0, channel=4, data=[69, 80]),\n",
      "   midi.NoteOffEvent(tick=192, channel=4, data=[69, 0]),\n",
      "   midi.NoteOnEvent(tick=0, channel=4, data=[64, 80]),\n",
      "   midi.NoteOffEvent(tick=192, channel=4, data=[64, 0]),\n",
      "   midi.NoteOnEvent(tick=0, channel=4, data=[66, 80]),\n",
      "   midi.NoteOffEvent(tick=192, channel=4, data=[66, 0]),\n",
      "   midi.NoteOnEvent(tick=0, channel=4, data=[81, 80]),\n",
      "   midi.NoteOffEvent(tick=96, channel=4, data=[81, 0]),\n",
      "   midi.NoteOnEvent(tick=0, channel=4, data=[80, 80]),\n",
      "   midi.NoteOffEvent(tick=96, channel=4, data=[80, 0]),\n",
      "   midi.NoteOnEvent(tick=0, channel=4, data=[81, 80]),\n",
      "   midi.NoteOffEvent(tick=96, channel=4, data=[81, 0]),\n",
      "   midi.NoteOnEvent(tick=0, channel=4, data=[80, 80]),\n",
      "   midi.NoteOffEvent(tick=96, channel=4, data=[80, 0]),\n",
      "   midi.NoteOnEvent(tick=0, channel=4, data=[78, 80]),\n",
      "   midi.NoteOffEvent(tick=96, channel=4, data=[78, 0]),\n",
      "   midi.NoteOnEvent(tick=0, channel=4, data=[76, 80]),\n",
      "   midi.NoteOffEvent(tick=96, channel=4, data=[76, 0]),\n",
      "   midi.NoteOnEvent(tick=0, channel=4, data=[74, 80]),\n",
      "   midi.NoteOffEvent(tick=96, channel=4, data=[74, 0]),\n",
      "   midi.NoteOnEvent(tick=0, channel=4, data=[76, 80]),\n",
      "   midi.NoteOffEvent(tick=96, channel=4, data=[76, 0]),\n",
      "   midi.NoteOnEvent(tick=0, channel=4, data=[74, 80]),\n",
      "   midi.NoteOffEvent(tick=96, channel=4, data=[74, 0]),\n",
      "   midi.NoteOnEvent(tick=96, channel=4, data=[74, 80]),\n",
      "   midi.NoteOffEvent(tick=96, channel=4, data=[74, 0]),\n",
      "   midi.NoteOnEvent(tick=96, channel=4, data=[74, 80]),\n",
      "   midi.NoteOffEvent(tick=96, channel=4, data=[74, 0]),\n",
      "   midi.NoteOnEvent(tick=96, channel=4, data=[86, 80]),\n",
      "   midi.NoteOffEvent(tick=384, channel=4, data=[86, 0]),\n",
      "   midi.NoteOnEvent(tick=192, channel=4, data=[85, 80]),\n",
      "   midi.NoteOffEvent(tick=96, channel=4, data=[85, 0]),\n",
      "   midi.NoteOnEvent(tick=0, channel=4, data=[83, 80]),\n",
      "   midi.NoteOffEvent(tick=96, channel=4, data=[83, 0]),\n",
      "   midi.NoteOnEvent(tick=0, channel=4, data=[85, 80]),\n",
      "   midi.NoteOffEvent(tick=192, channel=4, data=[85, 0]),\n",
      "   midi.NoteOnEvent(tick=0, channel=4, data=[81, 80]),\n",
      "   midi.NoteOffEvent(tick=192, channel=4, data=[81, 0]),\n",
      "   midi.NoteOnEvent(tick=0, channel=4, data=[76, 80]),\n",
      "   midi.NoteOffEvent(tick=192, channel=4, data=[76, 0]),\n",
      "   midi.NoteOnEvent(tick=0, channel=4, data=[80, 80]),\n",
      "   midi.NoteOffEvent(tick=192, channel=4, data=[80, 0]),\n",
      "   midi.NoteOnEvent(tick=2112, channel=4, data=[64, 80]),\n",
      "   midi.NoteOffEvent(tick=192, channel=4, data=[64, 0]),\n",
      "   midi.NoteOnEvent(tick=0, channel=4, data=[69, 80]),\n",
      "   midi.NoteOffEvent(tick=48, channel=4, data=[69, 0]),\n",
      "   midi.NoteOnEvent(tick=0, channel=4, data=[71, 80]),\n",
      "   midi.NoteOffEvent(tick=48, channel=4, data=[71, 0]),\n",
      "   midi.NoteOnEvent(tick=0, channel=4, data=[73, 80]),\n",
      "   midi.NoteOffEvent(tick=256, channel=4, data=[73, 0]),\n",
      "   midi.NoteOnEvent(tick=32, channel=4, data=[71, 80]),\n",
      "   midi.NoteOffEvent(tick=48, channel=4, data=[71, 0]),\n",
      "   midi.NoteOnEvent(tick=0, channel=4, data=[73, 80]),\n",
      "   midi.NoteOffEvent(tick=48, channel=4, data=[73, 0]),\n",
      "   midi.NoteOnEvent(tick=0, channel=4, data=[74, 80]),\n",
      "   midi.NoteOffEvent(tick=256, channel=4, data=[74, 0]),\n",
      "   midi.NoteOnEvent(tick=32, channel=4, data=[73, 80]),\n",
      "   midi.NoteOffEvent(tick=192, channel=4, data=[73, 0]),\n",
      "   midi.NoteOnEvent(tick=0, channel=4, data=[71, 80]),\n",
      "   midi.NoteOffEvent(tick=192, channel=4, data=[71, 0]),\n",
      "   midi.NoteOnEvent(tick=0, channel=4, data=[69, 80]),\n",
      "   midi.NoteOffEvent(tick=192, channel=4, data=[69, 0]),\n",
      "   midi.NoteOnEvent(tick=1536, channel=4, data=[69, 80]),\n",
      "   midi.NoteOffEvent(tick=192, channel=4, data=[69, 0]),\n",
      "   midi.NoteOnEvent(tick=0, channel=4, data=[74, 80]),\n",
      "   midi.NoteOffEvent(tick=48, channel=4, data=[74, 0]),\n",
      "   midi.NoteOnEvent(tick=0, channel=4, data=[76, 80]),\n",
      "   midi.NoteOffEvent(tick=48, channel=4, data=[76, 0]),\n",
      "   midi.NoteOnEvent(tick=0, channel=4, data=[78, 80]),\n",
      "   midi.NoteOffEvent(tick=256, channel=4, data=[78, 0]),\n",
      "   midi.NoteOnEvent(tick=32, channel=4, data=[76, 80]),\n",
      "   midi.NoteOffEvent(tick=48, channel=4, data=[76, 0]),\n",
      "   midi.NoteOnEvent(tick=0, channel=4, data=[78, 80]),\n",
      "   midi.NoteOffEvent(tick=48, channel=4, data=[78, 0]),\n",
      "   midi.NoteOnEvent(tick=0, channel=4, data=[79, 80]),\n",
      "   midi.NoteOffEvent(tick=256, channel=4, data=[79, 0]),\n",
      "   midi.NoteOnEvent(tick=32, channel=4, data=[78, 80]),\n",
      "   midi.NoteOffEvent(tick=192, channel=4, data=[78, 0]),\n",
      "   midi.NoteOnEvent(tick=0, channel=4, data=[76, 80]),\n",
      "   midi.NoteOffEvent(tick=192, channel=4, data=[76, 0]),\n",
      "   midi.NoteOnEvent(tick=0, channel=4, data=[74, 80]),\n",
      "   midi.NoteOffEvent(tick=192, channel=4, data=[74, 0]),\n",
      "   midi.NoteOnEvent(tick=192, channel=4, data=[71, 80]),\n",
      "   midi.NoteOffEvent(tick=96, channel=4, data=[71, 0]),\n",
      "   midi.NoteOnEvent(tick=0, channel=4, data=[69, 80]),\n",
      "   midi.NoteOffEvent(tick=96, channel=4, data=[69, 0]),\n",
      "   midi.NoteOnEvent(tick=0, channel=4, data=[71, 80]),\n",
      "   midi.NoteOffEvent(tick=96, channel=4, data=[71, 0]),\n",
      "   midi.NoteOnEvent(tick=96, channel=4, data=[71, 80]),\n",
      "   midi.NoteOffEvent(tick=96, channel=4, data=[71, 0]),\n",
      "   midi.NoteOnEvent(tick=96, channel=4, data=[71, 80]),\n",
      "   midi.NoteOffEvent(tick=96, channel=4, data=[71, 0]),\n",
      "   midi.NoteOnEvent(tick=96, channel=4, data=[80, 80]),\n",
      "   midi.NoteOffEvent(tick=192, channel=4, data=[80, 0]),\n",
      "   midi.NoteOnEvent(tick=576, channel=4, data=[74, 80]),\n",
      "   midi.NoteOffEvent(tick=96, channel=4, data=[74, 0]),\n",
      "   midi.NoteOnEvent(tick=0, channel=4, data=[73, 80]),\n",
      "   midi.NoteOffEvent(tick=96, channel=4, data=[73, 0]),\n",
      "   midi.NoteOnEvent(tick=0, channel=4, data=[74, 80]),\n",
      "   midi.NoteOffEvent(tick=96, channel=4, data=[74, 0]),\n",
      "   midi.NoteOnEvent(tick=96, channel=4, data=[74, 80]),\n",
      "   midi.NoteOffEvent(tick=96, channel=4, data=[74, 0]),\n",
      "   midi.NoteOnEvent(tick=96, channel=4, data=[74, 80]),\n",
      "   midi.NoteOffEvent(tick=96, channel=4, data=[74, 0]),\n",
      "   midi.NoteOnEvent(tick=96, channel=4, data=[83, 80]),\n",
      "   midi.NoteOffEvent(tick=192, channel=4, data=[83, 0]),\n",
      "   midi.NoteOnEvent(tick=576, channel=4, data=[73, 80]),\n",
      "   midi.NoteOffEvent(tick=96, channel=4, data=[73, 0]),\n",
      "   midi.NoteOnEvent(tick=0, channel=4, data=[74, 80]),\n",
      "   midi.NoteOffEvent(tick=96, channel=4, data=[74, 0]),\n",
      "   midi.NoteOnEvent(tick=0, channel=4, data=[76, 80]),\n",
      "   midi.NoteOffEvent(tick=96, channel=4, data=[76, 0]),\n",
      "   midi.NoteOnEvent(tick=96, channel=4, data=[76, 80]),\n",
      "   midi.NoteOffEvent(tick=96, channel=4, data=[76, 0]),\n",
      "   midi.NoteOnEvent(tick=96, channel=4, data=[78, 80]),\n",
      "   midi.NoteOffEvent(tick=96, channel=4, data=[78, 0]),\n",
      "   midi.NoteOnEvent(tick=96, channel=4, data=[76, 80]),\n",
      "   midi.NoteOffEvent(tick=96, channel=4, data=[76, 0]),\n",
      "   midi.NoteOnEvent(tick=0, channel=4, data=[81, 80]),\n",
      "   midi.NoteOffEvent(tick=96, channel=4, data=[81, 0]),\n",
      "   midi.NoteOnEvent(tick=0, channel=4, data=[80, 80]),\n",
      "   midi.NoteOffEvent(tick=96, channel=4, data=[80, 0]),\n",
      "   midi.NoteOnEvent(tick=0, channel=4, data=[78, 80]),\n",
      "   midi.NoteOffEvent(tick=96, channel=4, data=[78, 0]),\n",
      "   midi.NoteOnEvent(tick=0, channel=4, data=[76, 80]),\n",
      "   midi.NoteOffEvent(tick=192, channel=4, data=[76, 0]),\n",
      "   midi.NoteOnEvent(tick=0, channel=4, data=[69, 80]),\n",
      "   midi.NoteOffEvent(tick=192, channel=4, data=[69, 0]),\n",
      "   midi.NoteOnEvent(tick=0, channel=4, data=[71, 80]),\n",
      "   midi.NoteOffEvent(tick=384, channel=4, data=[71, 0]),\n",
      "   midi.NoteOnEvent(tick=0, channel=4, data=[68, 80]),\n",
      "   midi.NoteOffEvent(tick=384, channel=4, data=[68, 0]),\n",
      "   midi.NoteOnEvent(tick=0, channel=4, data=[69, 80]),\n",
      "   midi.NoteOffEvent(tick=192, channel=4, data=[69, 0]),\n",
      "   midi.NoteOnEvent(tick=0, channel=4, data=[68, 80]),\n",
      "   midi.NoteOffEvent(tick=96, channel=4, data=[68, 0]),\n",
      "   midi.NoteOnEvent(tick=0, channel=4, data=[66, 80]),\n",
      "   midi.NoteOffEvent(tick=96, channel=4, data=[66, 0]),\n",
      "   midi.NoteOnEvent(tick=0, channel=4, data=[64, 80]),\n",
      "   midi.NoteOffEvent(tick=96, channel=4, data=[64, 0]),\n",
      "   midi.NoteOnEvent(tick=0, channel=4, data=[62, 80]),\n",
      "   midi.NoteOffEvent(tick=96, channel=4, data=[62, 0]),\n",
      "   midi.NoteOnEvent(tick=0, channel=4, data=[61, 80]),\n",
      "   midi.NoteOffEvent(tick=96, channel=4, data=[61, 0]),\n",
      "   midi.NoteOnEvent(tick=0, channel=4, data=[59, 80]),\n",
      "   midi.NoteOffEvent(tick=96, channel=4, data=[59, 0]),\n",
      "   midi.NoteOnEvent(tick=0, channel=4, data=[57, 80]),\n",
      "   midi.NoteOffEvent(tick=192, channel=4, data=[57, 0]),\n",
      "   midi.NoteOnEvent(tick=0, channel=4, data=[69, 80]),\n",
      "   midi.NoteOffEvent(tick=192, channel=4, data=[69, 0]),\n",
      "   midi.NoteOnEvent(tick=0, channel=4, data=[68, 80]),\n",
      "   midi.NoteOffEvent(tick=192, channel=4, data=[68, 0]),\n",
      "   midi.NoteOnEvent(tick=0, channel=4, data=[64, 80]),\n",
      "   midi.NoteOffEvent(tick=192, channel=4, data=[64, 0]),\n",
      "   midi.NoteOnEvent(tick=0, channel=4, data=[69, 80]),\n",
      "   midi.NoteOffEvent(tick=192, channel=4, data=[69, 0]),\n",
      "   midi.NoteOnEvent(tick=0, channel=4, data=[68, 80]),\n",
      "   midi.NoteOffEvent(tick=96, channel=4, data=[68, 0]),\n",
      "   midi.NoteOnEvent(tick=0, channel=4, data=[66, 80]),\n",
      "   midi.NoteOffEvent(tick=96, channel=4, data=[66, 0]),\n",
      "   midi.NoteOnEvent(tick=0, channel=4, data=[64, 80]),\n",
      "   midi.NoteOffEvent(tick=96, channel=4, data=[64, 0]),\n",
      "   midi.NoteOnEvent(tick=0, channel=4, data=[62, 80]),\n",
      "   midi.NoteOffEvent(tick=96, channel=4, data=[62, 0]),\n",
      "   midi.NoteOnEvent(tick=0, channel=4, data=[61, 80]),\n",
      "   midi.NoteOffEvent(tick=96, channel=4, data=[61, 0]),\n",
      "   midi.NoteOnEvent(tick=0, channel=4, data=[59, 80]),\n",
      "   midi.NoteOffEvent(tick=96, channel=4, data=[59, 0]),\n",
      "   midi.NoteOnEvent(tick=0, channel=4, data=[57, 80]),\n",
      "   midi.NoteOffEvent(tick=192, channel=4, data=[57, 0]),\n",
      "   midi.NoteOnEvent(tick=0, channel=4, data=[81, 80]),\n",
      "   midi.NoteOffEvent(tick=192, channel=4, data=[81, 0]),\n",
      "   midi.NoteOnEvent(tick=0, channel=4, data=[71, 80]),\n",
      "   midi.NoteOffEvent(tick=192, channel=4, data=[71, 0]),\n",
      "   midi.NoteOnEvent(tick=0, channel=4, data=[80, 80]),\n",
      "   midi.NoteOffEvent(tick=192, channel=4, data=[80, 0]),\n",
      "   midi.NoteOnEvent(tick=0, channel=4, data=[81, 80]),\n",
      "   midi.NoteOffEvent(tick=96, channel=4, data=[81, 0]),\n",
      "   midi.NoteOnEvent(tick=0, channel=4, data=[69, 80]),\n",
      "   midi.NoteOffEvent(tick=96, channel=4, data=[69, 0]),\n",
      "   midi.NoteOnEvent(tick=0, channel=4, data=[68, 80]),\n",
      "   midi.NoteOffEvent(tick=96, channel=4, data=[68, 0]),\n",
      "   midi.NoteOnEvent(tick=0, channel=4, data=[66, 80]),\n",
      "   midi.NoteOffEvent(tick=96, channel=4, data=[66, 0]),\n",
      "   midi.NoteOnEvent(tick=0, channel=4, data=[64, 80]),\n",
      "   midi.NoteOffEvent(tick=96, channel=4, data=[64, 0]),\n",
      "   midi.NoteOnEvent(tick=0, channel=4, data=[62, 80]),\n",
      "   midi.NoteOffEvent(tick=96, channel=4, data=[62, 0]),\n",
      "   midi.NoteOnEvent(tick=0, channel=4, data=[61, 80]),\n",
      "   midi.NoteOffEvent(tick=96, channel=4, data=[61, 0]),\n",
      "   midi.NoteOnEvent(tick=0, channel=4, data=[59, 80]),\n",
      "   midi.NoteOffEvent(tick=96, channel=4, data=[59, 0]),\n",
      "   midi.NoteOnEvent(tick=0, channel=4, data=[57, 80]),\n",
      "   midi.NoteOffEvent(tick=192, channel=4, data=[57, 0]),\n",
      "   midi.NoteOnEvent(tick=0, channel=4, data=[69, 80]),\n",
      "   midi.NoteOffEvent(tick=192, channel=4, data=[69, 0]),\n",
      "   midi.NoteOnEvent(tick=0, channel=4, data=[68, 80]),\n",
      "   midi.NoteOffEvent(tick=192, channel=4, data=[68, 0]),\n",
      "   midi.NoteOnEvent(tick=0, channel=4, data=[64, 80]),\n",
      "   midi.NoteOffEvent(tick=192, channel=4, data=[64, 0]),\n",
      "   midi.NoteOnEvent(tick=0, channel=4, data=[69, 80]),\n",
      "   midi.NoteOffEvent(tick=192, channel=4, data=[69, 0]),\n",
      "   midi.NoteOnEvent(tick=0, channel=4, data=[68, 80]),\n",
      "   midi.NoteOffEvent(tick=96, channel=4, data=[68, 0]),\n",
      "   midi.NoteOnEvent(tick=0, channel=4, data=[66, 80]),\n",
      "   midi.NoteOffEvent(tick=96, channel=4, data=[66, 0]),\n",
      "   midi.NoteOnEvent(tick=0, channel=4, data=[64, 80]),\n",
      "   midi.NoteOffEvent(tick=96, channel=4, data=[64, 0]),\n",
      "   midi.NoteOnEvent(tick=0, channel=4, data=[62, 80]),\n",
      "   midi.NoteOffEvent(tick=96, channel=4, data=[62, 0]),\n",
      "   midi.NoteOnEvent(tick=0, channel=4, data=[61, 80]),\n",
      "   midi.NoteOffEvent(tick=96, channel=4, data=[61, 0]),\n",
      "   midi.NoteOnEvent(tick=0, channel=4, data=[59, 80]),\n",
      "   midi.NoteOffEvent(tick=96, channel=4, data=[59, 0]),\n",
      "   midi.NoteOnEvent(tick=0, channel=4, data=[57, 80]),\n",
      "   midi.NoteOffEvent(tick=192, channel=4, data=[57, 0]),\n",
      "   midi.NoteOnEvent(tick=0, channel=4, data=[81, 80]),\n",
      "   midi.NoteOffEvent(tick=192, channel=4, data=[81, 0]),\n",
      "   midi.NoteOnEvent(tick=0, channel=4, data=[71, 80]),\n",
      "   midi.NoteOffEvent(tick=192, channel=4, data=[71, 0]),\n",
      "   midi.NoteOnEvent(tick=0, channel=4, data=[80, 80]),\n",
      "   midi.NoteOffEvent(tick=192, channel=4, data=[80, 0]),\n",
      "   midi.NoteOnEvent(tick=0, channel=4, data=[81, 80]),\n",
      "   midi.NoteOffEvent(tick=96, channel=4, data=[81, 0]),\n",
      "   midi.NoteOnEvent(tick=0, channel=4, data=[69, 80]),\n",
      "   midi.NoteOffEvent(tick=96, channel=4, data=[69, 0]),\n",
      "   midi.NoteOnEvent(tick=0, channel=4, data=[68, 80]),\n",
      "   midi.NoteOffEvent(tick=96, channel=4, data=[68, 0]),\n",
      "   midi.NoteOnEvent(tick=0, channel=4, data=[66, 80]),\n",
      "   midi.NoteOffEvent(tick=96, channel=4, data=[66, 0]),\n",
      "   midi.NoteOnEvent(tick=0, channel=4, data=[64, 80]),\n",
      "   midi.NoteOffEvent(tick=96, channel=4, data=[64, 0]),\n",
      "   midi.NoteOnEvent(tick=0, channel=4, data=[62, 80]),\n",
      "   midi.NoteOffEvent(tick=96, channel=4, data=[62, 0]),\n",
      "   midi.NoteOnEvent(tick=0, channel=4, data=[61, 80]),\n",
      "   midi.NoteOffEvent(tick=96, channel=4, data=[61, 0]),\n",
      "   midi.NoteOnEvent(tick=0, channel=4, data=[59, 80]),\n",
      "   midi.NoteOffEvent(tick=96, channel=4, data=[59, 0]),\n",
      "   midi.NoteOnEvent(tick=0, channel=4, data=[62, 80]),\n",
      "   midi.NoteOffEvent(tick=192, channel=4, data=[62, 0]),\n",
      "   midi.NoteOnEvent(tick=0, channel=4, data=[78, 80]),\n",
      "   midi.NoteOffEvent(tick=192, channel=4, data=[78, 0]),\n",
      "   midi.NoteOnEvent(tick=0, channel=4, data=[71, 80]),\n",
      "   midi.NoteOffEvent(tick=192, channel=4, data=[71, 0]),\n",
      "   midi.NoteOnEvent(tick=0, channel=4, data=[66, 80]),\n",
      "   midi.NoteOffEvent(tick=192, channel=4, data=[66, 0]),\n",
      "   midi.NoteOnEvent(tick=0, channel=4, data=[68, 80]),\n",
      "   midi.NoteOffEvent(tick=192, channel=4, data=[68, 0]),\n",
      "   midi.NoteOnEvent(tick=0, channel=4, data=[83, 80]),\n",
      "   midi.NoteOffEvent(tick=96, channel=4, data=[83, 0]),\n",
      "   midi.NoteOnEvent(tick=0, channel=4, data=[81, 80]),\n",
      "   midi.NoteOffEvent(tick=96, channel=4, data=[81, 0]),\n",
      "   midi.NoteOnEvent(tick=0, channel=4, data=[83, 80]),\n",
      "   midi.NoteOffEvent(tick=96, channel=4, data=[83, 0]),\n",
      "   midi.NoteOnEvent(tick=0, channel=4, data=[81, 80]),\n",
      "   midi.NoteOffEvent(tick=96, channel=4, data=[81, 0]),\n",
      "   midi.NoteOnEvent(tick=0, channel=4, data=[80, 80]),\n",
      "   midi.NoteOffEvent(tick=96, channel=4, data=[80, 0]),\n",
      "   midi.NoteOnEvent(tick=0, channel=4, data=[78, 80]),\n",
      "   midi.NoteOffEvent(tick=96, channel=4, data=[78, 0]),\n",
      "   midi.NoteOnEvent(tick=0, channel=4, data=[76, 80]),\n",
      "   midi.NoteOffEvent(tick=192, channel=4, data=[76, 0]),\n",
      "   midi.NoteOnEvent(tick=0, channel=4, data=[73, 80]),\n",
      "   midi.NoteOffEvent(tick=192, channel=4, data=[73, 0]),\n",
      "   midi.NoteOnEvent(tick=0, channel=4, data=[69, 80]),\n",
      "   midi.NoteOffEvent(tick=192, channel=4, data=[69, 0]),\n",
      "   midi.NoteOnEvent(tick=0, channel=4, data=[64, 80]),\n",
      "   midi.NoteOffEvent(tick=192, channel=4, data=[64, 0]),\n",
      "   midi.NoteOnEvent(tick=0, channel=4, data=[66, 80]),\n",
      "   midi.NoteOffEvent(tick=192, channel=4, data=[66, 0]),\n",
      "   midi.NoteOnEvent(tick=0, channel=4, data=[81, 80]),\n",
      "   midi.NoteOffEvent(tick=96, channel=4, data=[81, 0]),\n",
      "   midi.NoteOnEvent(tick=0, channel=4, data=[80, 80]),\n",
      "   midi.NoteOffEvent(tick=96, channel=4, data=[80, 0]),\n",
      "   midi.NoteOnEvent(tick=0, channel=4, data=[81, 80]),\n",
      "   midi.NoteOffEvent(tick=96, channel=4, data=[81, 0]),\n",
      "   midi.NoteOnEvent(tick=0, channel=4, data=[80, 80]),\n",
      "   midi.NoteOffEvent(tick=96, channel=4, data=[80, 0]),\n",
      "   midi.NoteOnEvent(tick=0, channel=4, data=[78, 80]),\n",
      "   midi.NoteOffEvent(tick=96, channel=4, data=[78, 0]),\n",
      "   midi.NoteOnEvent(tick=0, channel=4, data=[76, 80]),\n",
      "   midi.NoteOffEvent(tick=96, channel=4, data=[76, 0]),\n",
      "   midi.NoteOnEvent(tick=0, channel=4, data=[74, 80]),\n",
      "   midi.NoteOffEvent(tick=192, channel=4, data=[74, 0]),\n",
      "   midi.NoteOnEvent(tick=0, channel=4, data=[78, 80]),\n",
      "   midi.NoteOffEvent(tick=192, channel=4, data=[78, 0]),\n",
      "   midi.NoteOnEvent(tick=0, channel=4, data=[80, 80]),\n",
      "   midi.NoteOffEvent(tick=192, channel=4, data=[80, 0]),\n",
      "   midi.NoteOnEvent(tick=0, channel=4, data=[81, 80]),\n",
      "   midi.NoteOffEvent(tick=192, channel=4, data=[81, 0]),\n",
      "   midi.NoteOnEvent(tick=0, channel=4, data=[83, 80]),\n",
      "   midi.NoteOffEvent(tick=96, channel=4, data=[83, 0]),\n",
      "   midi.NoteOnEvent(tick=0, channel=4, data=[80, 80]),\n",
      "   midi.NoteOffEvent(tick=96, channel=4, data=[80, 0]),\n",
      "   midi.NoteOnEvent(tick=0, channel=4, data=[81, 80]),\n",
      "   midi.NoteOffEvent(tick=96, channel=4, data=[81, 0]),\n",
      "   midi.NoteOnEvent(tick=0, channel=4, data=[83, 80]),\n",
      "   midi.NoteOffEvent(tick=96, channel=4, data=[83, 0]),\n",
      "   midi.NoteOnEvent(tick=0, channel=4, data=[76, 80]),\n",
      "   midi.NoteOffEvent(tick=576, channel=4, data=[76, 0]),\n",
      "   midi.NoteOnEvent(tick=0, channel=4, data=[74, 80]),\n",
      "   midi.NoteOffEvent(tick=96, channel=4, data=[74, 0]),\n",
      "   midi.NoteOnEvent(tick=0, channel=4, data=[73, 80]),\n",
      "   midi.NoteOffEvent(tick=96, channel=4, data=[73, 0]),\n",
      "   midi.NoteOnEvent(tick=0, channel=4, data=[74, 80]),\n",
      "   midi.NoteOffEvent(tick=96, channel=4, data=[74, 0]),\n",
      "   midi.NoteOnEvent(tick=0, channel=4, data=[73, 80]),\n",
      "   midi.NoteOffEvent(tick=96, channel=4, data=[73, 0]),\n",
      "   midi.NoteOnEvent(tick=0, channel=4, data=[71, 80]),\n",
      "   midi.NoteOffEvent(tick=96, channel=4, data=[71, 0]),\n",
      "   midi.NoteOnEvent(tick=0, channel=4, data=[73, 80]),\n",
      "   midi.NoteOffEvent(tick=96, channel=4, data=[73, 0]),\n",
      "   midi.NoteOnEvent(tick=0, channel=4, data=[69, 80]),\n",
      "   midi.NoteOffEvent(tick=192, channel=4, data=[69, 0]),\n",
      "   midi.NoteOnEvent(tick=0, channel=4, data=[66, 80]),\n",
      "   midi.NoteOffEvent(tick=192, channel=4, data=[66, 0]),\n",
      "   midi.NoteOnEvent(tick=0, channel=4, data=[64, 80]),\n",
      "   midi.NoteOffEvent(tick=192, channel=4, data=[64, 0]),\n",
      "   midi.NoteOnEvent(tick=0, channel=4, data=[62, 80]),\n",
      "   midi.NoteOffEvent(tick=192, channel=4, data=[62, 0]),\n",
      "   midi.NoteOnEvent(tick=0, channel=4, data=[61, 80]),\n",
      "   midi.NoteOffEvent(tick=384, channel=4, data=[61, 0]),\n",
      "   midi.NoteOnEvent(tick=0, channel=4, data=[73, 80]),\n",
      "   midi.NoteOffEvent(tick=384, channel=4, data=[73, 0]),\n",
      "   midi.NoteOnEvent(tick=384, channel=4, data=[73, 80]),\n",
      "   midi.NoteOffEvent(tick=480, channel=4, data=[73, 0]),\n",
      "   midi.NoteOnEvent(tick=0, channel=4, data=[78, 80]),\n",
      "   midi.NoteOffEvent(tick=96, channel=4, data=[78, 0]),\n",
      "   midi.NoteOnEvent(tick=0, channel=4, data=[76, 80]),\n",
      "   midi.NoteOffEvent(tick=96, channel=4, data=[76, 0]),\n",
      "   midi.NoteOnEvent(tick=0, channel=4, data=[74, 80]),\n",
      "   midi.NoteOffEvent(tick=96, channel=4, data=[74, 0]),\n",
      "   midi.NoteOnEvent(tick=0, channel=4, data=[73, 80]),\n",
      "   midi.NoteOffEvent(tick=192, channel=4, data=[73, 0]),\n",
      "   midi.NoteOnEvent(tick=0, channel=4, data=[71, 80]),\n",
      "   midi.NoteOffEvent(tick=192, channel=4, data=[71, 0]),\n",
      "   midi.NoteOnEvent(tick=0, channel=4, data=[69, 80]),\n",
      "   midi.NoteOffEvent(tick=96, channel=4, data=[69, 0]),\n",
      "   midi.NoteOnEvent(tick=0, channel=4, data=[71, 80]),\n",
      "   midi.NoteOffEvent(tick=96, channel=4, data=[71, 0]),\n",
      "   midi.NoteOnEvent(tick=0, channel=4, data=[73, 80]),\n",
      "   midi.NoteOffEvent(tick=96, channel=4, data=[73, 0]),\n",
      "   midi.NoteOnEvent(tick=96, channel=4, data=[73, 80]),\n",
      "   midi.NoteOffEvent(tick=96, channel=4, data=[73, 0]),\n",
      "   midi.NoteOnEvent(tick=96, channel=4, data=[73, 80]),\n",
      "   midi.NoteOffEvent(tick=384, channel=4, data=[73, 0]),\n",
      "   midi.NoteOnEvent(tick=0, channel=4, data=[71, 80]),\n",
      "   midi.NoteOffEvent(tick=192, channel=4, data=[71, 0]),\n",
      "   midi.NoteOnEvent(tick=0, channel=4, data=[78, 80]),\n",
      "   midi.NoteOffEvent(tick=384, channel=4, data=[78, 0]),\n",
      "   midi.NoteOnEvent(tick=384, channel=4, data=[78, 80]),\n",
      "   midi.NoteOffEvent(tick=576, channel=4, data=[78, 0]),\n",
      "   midi.NoteOnEvent(tick=0, channel=4, data=[76, 80]),\n",
      "   midi.NoteOffEvent(tick=96, channel=4, data=[76, 0]),\n",
      "   midi.NoteOnEvent(tick=0, channel=4, data=[74, 80]),\n",
      "   midi.NoteOffEvent(tick=96, channel=4, data=[74, 0]),\n",
      "   midi.NoteOnEvent(tick=0, channel=4, data=[73, 80]),\n",
      "   midi.NoteOffEvent(tick=96, channel=4, data=[73, 0]),\n",
      "   midi.NoteOnEvent(tick=0, channel=4, data=[74, 80]),\n",
      "   midi.NoteOffEvent(tick=96, channel=4, data=[74, 0]),\n",
      "   midi.NoteOnEvent(tick=0, channel=4, data=[76, 80]),\n",
      "   midi.NoteOffEvent(tick=192, channel=4, data=[76, 0]),\n",
      "   midi.NoteOnEvent(tick=0, channel=4, data=[74, 80]),\n",
      "   midi.NoteOffEvent(tick=96, channel=4, data=[74, 0]),\n",
      "   midi.NoteOnEvent(tick=0, channel=4, data=[76, 80]),\n",
      "   midi.NoteOffEvent(tick=96, channel=4, data=[76, 0]),\n",
      "   midi.NoteOnEvent(tick=0, channel=4, data=[78, 80]),\n",
      "   midi.NoteOffEvent(tick=96, channel=4, data=[78, 0]),\n",
      "   midi.NoteOnEvent(tick=96, channel=4, data=[78, 80]),\n",
      "   midi.NoteOffEvent(tick=96, channel=4, data=[78, 0]),\n",
      "   midi.NoteOnEvent(tick=96, channel=4, data=[78, 80]),\n",
      "   midi.NoteOffEvent(tick=384, channel=4, data=[78, 0]),\n",
      "   midi.NoteOnEvent(tick=0, channel=4, data=[76, 80]),\n",
      "   midi.NoteOffEvent(tick=192, channel=4, data=[76, 0]),\n",
      "   midi.NoteOnEvent(tick=0, channel=4, data=[79, 80]),\n",
      "   midi.NoteOffEvent(tick=384, channel=4, data=[79, 0]),\n",
      "   midi.NoteOnEvent(tick=96, channel=4, data=[69, 80]),\n",
      "   midi.NoteOffEvent(tick=96, channel=4, data=[69, 0]),\n",
      "   midi.NoteOnEvent(tick=0, channel=4, data=[68, 80]),\n",
      "   midi.NoteOffEvent(tick=96, channel=4, data=[68, 0]),\n",
      "   midi.NoteOnEvent(tick=0, channel=4, data=[69, 80]),\n",
      "   midi.NoteOffEvent(tick=96, channel=4, data=[69, 0]),\n",
      "   midi.NoteOnEvent(tick=0, channel=4, data=[71, 80]),\n",
      "   midi.NoteOffEvent(tick=96, channel=4, data=[71, 0]),\n",
      "   midi.NoteOnEvent(tick=0, channel=4, data=[73, 80]),\n",
      "   midi.NoteOffEvent(tick=96, channel=4, data=[73, 0]),\n",
      "   midi.NoteOnEvent(tick=0, channel=4, data=[74, 80]),\n",
      "   midi.NoteOffEvent(tick=96, channel=4, data=[74, 0]),\n",
      "   midi.NoteOnEvent(tick=0, channel=4, data=[76, 80]),\n",
      "   midi.NoteOffEvent(tick=96, channel=4, data=[76, 0]),\n",
      "   midi.NoteOnEvent(tick=0, channel=4, data=[78, 80]),\n",
      "   midi.NoteOffEvent(tick=192, channel=4, data=[78, 0]),\n",
      "   midi.NoteOnEvent(tick=0, channel=4, data=[74, 80]),\n",
      "   midi.NoteOffEvent(tick=96, channel=4, data=[74, 0]),\n",
      "   midi.NoteOnEvent(tick=0, channel=4, data=[69, 80]),\n",
      "   midi.NoteOffEvent(tick=96, channel=4, data=[69, 0]),\n",
      "   midi.NoteOnEvent(tick=0, channel=4, data=[78, 80]),\n",
      "   midi.NoteOffEvent(tick=384, channel=4, data=[78, 0]),\n",
      "   midi.NoteOnEvent(tick=96, channel=4, data=[81, 80]),\n",
      "   midi.NoteOffEvent(tick=96, channel=4, data=[81, 0]),\n",
      "   midi.NoteOnEvent(tick=0, channel=4, data=[79, 80]),\n",
      "   midi.NoteOffEvent(tick=96, channel=4, data=[79, 0]),\n",
      "   midi.NoteOnEvent(tick=0, channel=4, data=[78, 80]),\n",
      "   midi.NoteOffEvent(tick=96, channel=4, data=[78, 0]),\n",
      "   midi.NoteOnEvent(tick=0, channel=4, data=[76, 80]),\n",
      "   midi.NoteOffEvent(tick=96, channel=4, data=[76, 0]),\n",
      "   midi.NoteOnEvent(tick=0, channel=4, data=[74, 80]),\n",
      "   midi.NoteOffEvent(tick=96, channel=4, data=[74, 0]),\n",
      "   midi.NoteOnEvent(tick=0, channel=4, data=[73, 80]),\n",
      "   midi.NoteOffEvent(tick=96, channel=4, data=[73, 0]),\n",
      "   midi.NoteOnEvent(tick=0, channel=4, data=[71, 80]),\n",
      "   midi.NoteOffEvent(tick=96, channel=4, data=[71, 0]),\n",
      "   midi.NoteOnEvent(tick=0, channel=4, data=[76, 80]),\n",
      "   midi.NoteOffEvent(tick=384, channel=4, data=[76, 0]),\n",
      "   midi.NoteOnEvent(tick=192, channel=4, data=[64, 80]),\n",
      "   midi.NoteOffEvent(tick=192, channel=4, data=[64, 0]),\n",
      "   midi.NoteOnEvent(tick=0, channel=4, data=[76, 80]),\n",
      "   midi.NoteOffEvent(tick=96, channel=4, data=[76, 0]),\n",
      "   midi.NoteOnEvent(tick=0, channel=4, data=[79, 80]),\n",
      "   midi.NoteOffEvent(tick=96, channel=4, data=[79, 0]),\n",
      "   midi.NoteOnEvent(tick=0, channel=4, data=[78, 80]),\n",
      "   midi.NoteOffEvent(tick=96, channel=4, data=[78, 0]),\n",
      "   midi.NoteOnEvent(tick=0, channel=4, data=[76, 80]),\n",
      "   midi.NoteOffEvent(tick=96, channel=4, data=[76, 0]),\n",
      "   midi.NoteOnEvent(tick=0, channel=4, data=[78, 80]),\n",
      "   midi.NoteOffEvent(tick=96, channel=4, data=[78, 0]),\n",
      "   midi.NoteOnEvent(tick=0, channel=4, data=[76, 80]),\n",
      "   midi.NoteOffEvent(tick=96, channel=4, data=[76, 0]),\n",
      "   midi.NoteOnEvent(tick=0, channel=4, data=[74, 80]),\n",
      "   midi.NoteOffEvent(tick=96, channel=4, data=[74, 0]),\n",
      "   midi.NoteOnEvent(tick=0, channel=4, data=[73, 80]),\n",
      "   midi.NoteOffEvent(tick=96, channel=4, data=[73, 0]),\n",
      "   midi.NoteOnEvent(tick=0, channel=4, data=[76, 80]),\n",
      "   midi.NoteOffEvent(tick=96, channel=4, data=[76, 0]),\n",
      "   midi.NoteOnEvent(tick=0, channel=4, data=[74, 80]),\n",
      "   midi.NoteOffEvent(tick=96, channel=4, data=[74, 0]),\n",
      "   midi.NoteOnEvent(tick=0, channel=4, data=[73, 80]),\n",
      "   midi.NoteOffEvent(tick=96, channel=4, data=[73, 0]),\n",
      "   midi.NoteOnEvent(tick=0, channel=4, data=[71, 80]),\n",
      "   midi.NoteOffEvent(tick=96, channel=4, data=[71, 0]),\n",
      "   midi.NoteOnEvent(tick=0, channel=4, data=[73, 80]),\n",
      "   midi.NoteOffEvent(tick=192, channel=4, data=[73, 0]),\n",
      "   midi.NoteOnEvent(tick=0, channel=4, data=[70, 80]),\n",
      "   midi.NoteOffEvent(tick=192, channel=4, data=[70, 0]),\n",
      "   midi.NoteOnEvent(tick=0, channel=4, data=[71, 80]),\n",
      "   midi.NoteOffEvent(tick=384, channel=4, data=[71, 0]),\n",
      "   midi.NoteOnEvent(tick=576, channel=4, data=[67, 80]),\n",
      "   midi.NoteOffEvent(tick=96, channel=4, data=[67, 0]),\n",
      "   midi.NoteOnEvent(tick=0, channel=4, data=[66, 80]),\n",
      "   midi.NoteOffEvent(tick=96, channel=4, data=[66, 0]),\n",
      "   midi.NoteOnEvent(tick=0, channel=4, data=[64, 80]),\n",
      "   midi.NoteOffEvent(tick=96, channel=4, data=[64, 0]),\n",
      "   midi.NoteOnEvent(tick=0, channel=4, data=[62, 80]),\n",
      "   midi.NoteOffEvent(tick=96, channel=4, data=[62, 0]),\n",
      "   midi.NoteOnEvent(tick=0, channel=4, data=[61, 80]),\n",
      "   midi.NoteOffEvent(tick=96, channel=4, data=[61, 0]),\n",
      "   midi.NoteOnEvent(tick=0, channel=4, data=[59, 80]),\n",
      "   midi.NoteOffEvent(tick=96, channel=4, data=[59, 0]),\n",
      "   midi.NoteOnEvent(tick=0, channel=4, data=[58, 80]),\n",
      "   midi.NoteOffEvent(tick=192, channel=4, data=[58, 0]),\n",
      "   midi.NoteOnEvent(tick=0, channel=4, data=[61, 80]),\n",
      "   midi.NoteOffEvent(tick=192, channel=4, data=[61, 0]),\n",
      "   midi.NoteOnEvent(tick=0, channel=4, data=[64, 80]),\n",
      "   midi.NoteOffEvent(tick=192, channel=4, data=[64, 0]),\n",
      "   midi.NoteOnEvent(tick=0, channel=4, data=[70, 80]),\n",
      "   midi.NoteOffEvent(tick=192, channel=4, data=[70, 0]),\n",
      "   midi.NoteOnEvent(tick=0, channel=4, data=[70, 80]),\n",
      "   midi.NoteOffEvent(tick=192, channel=4, data=[70, 0]),\n",
      "   midi.NoteOnEvent(tick=0, channel=4, data=[78, 80]),\n",
      "   midi.NoteOffEvent(tick=256, channel=4, data=[78, 0]),\n",
      "   midi.NoteOnEvent(tick=32, channel=4, data=[76, 80]),\n",
      "   midi.NoteOffEvent(tick=96, channel=4, data=[76, 0]),\n",
      "   midi.NoteOnEvent(tick=0, channel=4, data=[74, 80]),\n",
      "   midi.NoteOffEvent(tick=96, channel=4, data=[74, 0]),\n",
      "   midi.NoteOnEvent(tick=0, channel=4, data=[73, 80]),\n",
      "   midi.NoteOffEvent(tick=96, channel=4, data=[73, 0]),\n",
      "   midi.NoteOnEvent(tick=0, channel=4, data=[74, 80]),\n",
      "   midi.NoteOffEvent(tick=192, channel=4, data=[74, 0]),\n",
      "   midi.NoteOnEvent(tick=0, channel=4, data=[62, 80]),\n",
      "   midi.NoteOffEvent(tick=192, channel=4, data=[62, 0]),\n",
      "   midi.NoteOnEvent(tick=0, channel=4, data=[66, 80]),\n",
      "   midi.NoteOffEvent(tick=192, channel=4, data=[66, 0]),\n",
      "   midi.NoteOnEvent(tick=0, channel=4, data=[71, 80]),\n",
      "   midi.NoteOffEvent(tick=192, channel=4, data=[71, 0]),\n",
      "   midi.NoteOnEvent(tick=0, channel=4, data=[75, 80]),\n",
      "   midi.NoteOffEvent(tick=192, channel=4, data=[75, 0]),\n",
      "   midi.NoteOnEvent(tick=0, channel=4, data=[66, 80]),\n",
      "   midi.NoteOffEvent(tick=192, channel=4, data=[66, 0]),\n",
      "   midi.NoteOnEvent(tick=0, channel=4, data=[69, 80]),\n",
      "   midi.NoteOffEvent(tick=192, channel=4, data=[69, 0]),\n",
      "   midi.NoteOnEvent(tick=0, channel=4, data=[75, 80]),\n",
      "   midi.NoteOffEvent(tick=192, channel=4, data=[75, 0]),\n",
      "   midi.NoteOnEvent(tick=0, channel=4, data=[78, 80]),\n",
      "   midi.NoteOffEvent(tick=192, channel=4, data=[78, 0]),\n",
      "   midi.NoteOnEvent(tick=0, channel=4, data=[72, 80]),\n",
      "   midi.NoteOffEvent(tick=96, channel=4, data=[72, 0]),\n",
      "   midi.NoteOnEvent(tick=0, channel=4, data=[71, 80]),\n",
      "   midi.NoteOffEvent(tick=96, channel=4, data=[71, 0]),\n",
      "   midi.NoteOnEvent(tick=0, channel=4, data=[69, 80]),\n",
      "   midi.NoteOffEvent(tick=96, channel=4, data=[69, 0]),\n",
      "   midi.NoteOnEvent(tick=0, channel=4, data=[67, 80]),\n",
      "   midi.NoteOffEvent(tick=96, channel=4, data=[67, 0]),\n",
      "   midi.NoteOnEvent(tick=0, channel=4, data=[66, 80]),\n",
      "   midi.NoteOffEvent(tick=96, channel=4, data=[66, 0]),\n",
      "   midi.NoteOnEvent(tick=0, channel=4, data=[64, 80]),\n",
      "   midi.NoteOffEvent(tick=96, channel=4, data=[64, 0]),\n",
      "   midi.NoteOnEvent(tick=0, channel=4, data=[63, 80]),\n",
      "   midi.NoteOffEvent(tick=192, channel=4, data=[63, 0]),\n",
      "   midi.NoteOnEvent(tick=0, channel=4, data=[83, 80]),\n",
      "   midi.NoteOffEvent(tick=256, channel=4, data=[83, 0]),\n",
      "   midi.NoteOnEvent(tick=32, channel=4, data=[81, 80]),\n",
      "   midi.NoteOffEvent(tick=96, channel=4, data=[81, 0]),\n",
      "   midi.NoteOnEvent(tick=0, channel=4, data=[79, 80]),\n",
      "   midi.NoteOffEvent(tick=96, channel=4, data=[79, 0]),\n",
      "   midi.NoteOnEvent(tick=0, channel=4, data=[78, 80]),\n",
      "   midi.NoteOffEvent(tick=96, channel=4, data=[78, 0]),\n",
      "   midi.NoteOnEvent(tick=0, channel=4, data=[79, 80]),\n",
      "   midi.NoteOffEvent(tick=192, channel=4, data=[79, 0]),\n",
      "   midi.NoteOnEvent(tick=0, channel=4, data=[67, 80]),\n",
      "   midi.NoteOffEvent(tick=192, channel=4, data=[67, 0]),\n",
      "   midi.NoteOnEvent(tick=0, channel=4, data=[71, 80]),\n",
      "   midi.NoteOffEvent(tick=192, channel=4, data=[71, 0]),\n",
      "   midi.NoteOnEvent(tick=0, channel=4, data=[74, 80]),\n",
      "   midi.NoteOffEvent(tick=192, channel=4, data=[74, 0]),\n",
      "   midi.NoteOnEvent(tick=0, channel=4, data=[80, 80]),\n",
      "   midi.NoteOffEvent(tick=192, channel=4, data=[80, 0]),\n",
      "   midi.NoteOnEvent(tick=0, channel=4, data=[73, 80]),\n",
      "   midi.NoteOffEvent(tick=384, channel=4, data=[73, 0]),\n",
      "   midi.NoteOnEvent(tick=192, channel=4, data=[73, 80]),\n",
      "   midi.NoteOffEvent(tick=96, channel=4, data=[73, 0]),\n",
      "   midi.NoteOnEvent(tick=0, channel=4, data=[71, 80]),\n",
      "   midi.NoteOffEvent(tick=96, channel=4, data=[71, 0]),\n",
      "   midi.NoteOnEvent(tick=0, channel=4, data=[70, 80]),\n",
      "   midi.NoteOffEvent(tick=96, channel=4, data=[70, 0]),\n",
      "   midi.NoteOnEvent(tick=0, channel=4, data=[71, 80]),\n",
      "   midi.NoteOffEvent(tick=96, channel=4, data=[71, 0]),\n",
      "   midi.NoteOnEvent(tick=0, channel=4, data=[73, 80]),\n",
      "   midi.NoteOffEvent(tick=192, channel=4, data=[73, 0]),\n",
      "   midi.NoteOnEvent(tick=0, channel=4, data=[74, 80]),\n",
      "   midi.NoteOffEvent(tick=192, channel=4, data=[74, 0]),\n",
      "   midi.NoteOnEvent(tick=0, channel=4, data=[76, 80]),\n",
      "   midi.NoteOffEvent(tick=864, channel=4, data=[76, 0]),\n",
      "   midi.NoteOnEvent(tick=0, channel=4, data=[74, 80]),\n",
      "   midi.NoteOffEvent(tick=96, channel=4, data=[74, 0]),\n",
      "   midi.NoteOnEvent(tick=0, channel=4, data=[73, 80]),\n",
      "   midi.NoteOffEvent(tick=96, channel=4, data=[73, 0]),\n",
      "   midi.NoteOnEvent(tick=0, channel=4, data=[74, 80]),\n",
      "   midi.NoteOffEvent(tick=96, channel=4, data=[74, 0]),\n",
      "   midi.NoteOnEvent(tick=0, channel=4, data=[76, 80]),\n",
      "   midi.NoteOffEvent(tick=192, channel=4, data=[76, 0]),\n",
      "   midi.NoteOnEvent(tick=0, channel=4, data=[78, 80]),\n",
      "   midi.NoteOffEvent(tick=192, channel=4, data=[78, 0]),\n",
      "   midi.NoteOnEvent(tick=0, channel=4, data=[74, 80]),\n",
      "   midi.NoteOffEvent(tick=96, channel=4, data=[74, 0]),\n",
      "   midi.NoteOnEvent(tick=0, channel=4, data=[73, 80]),\n",
      "   midi.NoteOffEvent(tick=96, channel=4, data=[73, 0]),\n",
      "   midi.NoteOnEvent(tick=0, channel=4, data=[71, 80]),\n",
      "   midi.NoteOffEvent(tick=96, channel=4, data=[71, 0]),\n",
      "   midi.NoteOnEvent(tick=0, channel=4, data=[73, 80]),\n",
      "   midi.NoteOffEvent(tick=96, channel=4, data=[73, 0]),\n",
      "   midi.NoteOnEvent(tick=0, channel=4, data=[74, 80]),\n",
      "   midi.NoteOffEvent(tick=96, channel=4, data=[74, 0]),\n",
      "   midi.NoteOnEvent(tick=0, channel=4, data=[73, 80]),\n",
      "   midi.NoteOffEvent(tick=96, channel=4, data=[73, 0]),\n",
      "   midi.NoteOnEvent(tick=0, channel=4, data=[71, 80]),\n",
      "   midi.NoteOffEvent(tick=96, channel=4, data=[71, 0]),\n",
      "   midi.NoteOnEvent(tick=0, channel=4, data=[73, 80]),\n",
      "   midi.NoteOffEvent(tick=96, channel=4, data=[73, 0]),\n",
      "   midi.NoteOnEvent(tick=0, channel=4, data=[74, 80]),\n",
      "   midi.NoteOffEvent(tick=96, channel=4, data=[74, 0]),\n",
      "   midi.NoteOnEvent(tick=0, channel=4, data=[73, 80]),\n",
      "   midi.NoteOffEvent(tick=96, channel=4, data=[73, 0]),\n",
      "   midi.NoteOnEvent(tick=0, channel=4, data=[74, 80]),\n",
      "   midi.NoteOffEvent(tick=96, channel=4, data=[74, 0]),\n",
      "   midi.NoteOnEvent(tick=0, channel=4, data=[76, 80]),\n",
      "   midi.NoteOffEvent(tick=96, channel=4, data=[76, 0]),\n",
      "   midi.NoteOnEvent(tick=0, channel=4, data=[78, 80]),\n",
      "   midi.NoteOffEvent(tick=192, channel=4, data=[78, 0]),\n",
      "   midi.NoteOnEvent(tick=0, channel=4, data=[71, 80]),\n",
      "   midi.NoteOffEvent(tick=192, channel=4, data=[71, 0]),\n",
      "   midi.NoteOnEvent(tick=0, channel=4, data=[74, 80]),\n",
      "   midi.NoteOffEvent(tick=384, channel=4, data=[74, 0]),\n",
      "   midi.NoteOnEvent(tick=0, channel=4, data=[73, 80]),\n",
      "   midi.NoteOffEvent(tick=384, channel=4, data=[73, 0]),\n",
      "   midi.NoteOnEvent(tick=0, channel=4, data=[71, 80]),\n",
      "   midi.NoteOffEvent(tick=192, channel=4, data=[71, 0]),\n",
      "   midi.NoteOnEvent(tick=0, channel=4, data=[67, 80]),\n",
      "   midi.NoteOffEvent(tick=192, channel=4, data=[67, 0]),\n",
      "   midi.NoteOnEvent(tick=0, channel=4, data=[66, 80]),\n",
      "   midi.NoteOffEvent(tick=192, channel=4, data=[66, 0]),\n",
      "   midi.NoteOnEvent(tick=0, channel=4, data=[64, 80]),\n",
      "   midi.NoteOffEvent(tick=192, channel=4, data=[64, 0]),\n",
      "   midi.NoteOnEvent(tick=0, channel=4, data=[62, 80]),\n",
      "   midi.NoteOffEvent(tick=384, channel=4, data=[62, 0]),\n",
      "   midi.NoteOnEvent(tick=0, channel=4, data=[74, 80]),\n",
      "   midi.NoteOffEvent(tick=384, channel=4, data=[74, 0]),\n",
      "   midi.NoteOnEvent(tick=384, channel=4, data=[74, 80]),\n",
      "   midi.NoteOffEvent(tick=480, channel=4, data=[74, 0]),\n",
      "   midi.NoteOnEvent(tick=0, channel=4, data=[79, 80]),\n",
      "   midi.NoteOffEvent(tick=96, channel=4, data=[79, 0]),\n",
      "   midi.NoteOnEvent(tick=0, channel=4, data=[78, 80]),\n",
      "   midi.NoteOffEvent(tick=96, channel=4, data=[78, 0]),\n",
      "   midi.NoteOnEvent(tick=0, channel=4, data=[76, 80]),\n",
      "   midi.NoteOffEvent(tick=96, channel=4, data=[76, 0]),\n",
      "   midi.NoteOnEvent(tick=0, channel=4, data=[74, 80]),\n",
      "   midi.NoteOffEvent(tick=192, channel=4, data=[74, 0]),\n",
      "   midi.NoteOnEvent(tick=0, channel=4, data=[72, 80]),\n",
      "   midi.NoteOffEvent(tick=192, channel=4, data=[72, 0]),\n",
      "   midi.NoteOnEvent(tick=0, channel=4, data=[71, 80]),\n",
      "   midi.NoteOffEvent(tick=96, channel=4, data=[71, 0]),\n",
      "   midi.NoteOnEvent(tick=0, channel=4, data=[72, 80]),\n",
      "   midi.NoteOffEvent(tick=96, channel=4, data=[72, 0]),\n",
      "   midi.NoteOnEvent(tick=0, channel=4, data=[74, 80]),\n",
      "   midi.NoteOffEvent(tick=96, channel=4, data=[74, 0]),\n",
      "   midi.NoteOnEvent(tick=96, channel=4, data=[74, 80]),\n",
      "   midi.NoteOffEvent(tick=96, channel=4, data=[74, 0]),\n",
      "   midi.NoteOnEvent(tick=96, channel=4, data=[74, 80]),\n",
      "   midi.NoteOffEvent(tick=384, channel=4, data=[74, 0]),\n",
      "   midi.NoteOnEvent(tick=0, channel=4, data=[71, 80]),\n",
      "   midi.NoteOffEvent(tick=96, channel=4, data=[71, 0]),\n",
      "   midi.NoteOnEvent(tick=0, channel=4, data=[67, 80]),\n",
      "   midi.NoteOffEvent(tick=96, channel=4, data=[67, 0]),\n",
      "   midi.NoteOnEvent(tick=0, channel=4, data=[76, 80]),\n",
      "   midi.NoteOffEvent(tick=384, channel=4, data=[76, 0]),\n",
      "   midi.NoteOnEvent(tick=384, channel=4, data=[78, 80]),\n",
      "   midi.NoteOffEvent(tick=192, channel=4, data=[78, 0]),\n",
      "   midi.NoteOnEvent(tick=0, channel=4, data=[75, 80]),\n",
      "   midi.NoteOffEvent(tick=192, channel=4, data=[75, 0]),\n",
      "   midi.NoteOnEvent(tick=0, channel=4, data=[76, 80]),\n",
      "   midi.NoteOffEvent(tick=96, channel=4, data=[76, 0]),\n",
      "   midi.NoteOnEvent(tick=0, channel=4, data=[73, 80]),\n",
      "   midi.NoteOffEvent(tick=96, channel=4, data=[73, 0]),\n",
      "   midi.NoteOnEvent(tick=0, channel=4, data=[76, 80]),\n",
      "   midi.NoteOffEvent(tick=384, channel=4, data=[76, 0]),\n",
      "   midi.NoteOnEvent(tick=0, channel=4, data=[75, 80]),\n",
      "   midi.NoteOffEvent(tick=192, channel=4, data=[75, 0]),\n",
      "   midi.NoteOnEvent(tick=0, channel=4, data=[76, 80]),\n",
      "   midi.NoteOffEvent(tick=480, channel=4, data=[76, 0]),\n",
      "   midi.NoteOnEvent(tick=0, channel=4, data=[71, 80]),\n",
      "   midi.NoteOffEvent(tick=96, channel=4, data=[71, 0]),\n",
      "   midi.NoteOnEvent(tick=0, channel=4, data=[69, 80]),\n",
      "   midi.NoteOffEvent(tick=96, channel=4, data=[69, 0]),\n",
      "   midi.NoteOnEvent(tick=0, channel=4, data=[71, 80]),\n",
      "   midi.NoteOffEvent(tick=96, channel=4, data=[71, 0]),\n",
      "   midi.NoteOnEvent(tick=0, channel=4, data=[73, 80]),\n",
      "   midi.NoteOffEvent(tick=96, channel=4, data=[73, 0]),\n",
      "   midi.NoteOnEvent(tick=0, channel=4, data=[74, 80]),\n",
      "   midi.NoteOffEvent(tick=96, channel=4, data=[74, 0]),\n",
      "   midi.NoteOnEvent(tick=0, channel=4, data=[76, 80]),\n",
      "   midi.NoteOffEvent(tick=96, channel=4, data=[76, 0]),\n",
      "   midi.NoteOnEvent(tick=96, channel=4, data=[76, 80]),\n",
      "   midi.NoteOffEvent(tick=96, channel=4, data=[76, 0]),\n",
      "   midi.NoteOnEvent(tick=96, channel=4, data=[73, 80]),\n",
      "   midi.NoteOffEvent(tick=96, channel=4, data=[73, 0]),\n",
      "   midi.NoteOnEvent(tick=96, channel=4, data=[69, 80]),\n",
      "   midi.NoteOffEvent(tick=480, channel=4, data=[69, 0]),\n",
      "   midi.NoteOnEvent(tick=0, channel=4, data=[73, 80]),\n",
      "   midi.NoteOffEvent(tick=96, channel=4, data=[73, 0]),\n",
      "   midi.NoteOnEvent(tick=0, channel=4, data=[71, 80]),\n",
      "   midi.NoteOffEvent(tick=96, channel=4, data=[71, 0]),\n",
      "   midi.NoteOnEvent(tick=0, channel=4, data=[69, 80]),\n",
      "   midi.NoteOffEvent(tick=96, channel=4, data=[69, 0]),\n",
      "   midi.NoteOnEvent(tick=0, channel=4, data=[71, 80]),\n",
      "   midi.NoteOffEvent(tick=96, channel=4, data=[71, 0]),\n",
      "   midi.NoteOnEvent(tick=0, channel=4, data=[73, 80]),\n",
      "   midi.NoteOffEvent(tick=96, channel=4, data=[73, 0]),\n",
      "   midi.NoteOnEvent(tick=0, channel=4, data=[74, 80]),\n",
      "   midi.NoteOffEvent(tick=96, channel=4, data=[74, 0]),\n",
      "   midi.NoteOnEvent(tick=96, channel=4, data=[74, 80]),\n",
      "   midi.NoteOffEvent(tick=96, channel=4, data=[74, 0]),\n",
      "   midi.NoteOnEvent(tick=96, channel=4, data=[71, 80]),\n",
      "   midi.NoteOffEvent(tick=96, channel=4, data=[71, 0]),\n",
      "   midi.NoteOnEvent(tick=96, channel=4, data=[77, 80]),\n",
      "   midi.NoteOffEvent(tick=192, channel=4, data=[77, 0]),\n",
      "   midi.NoteOnEvent(tick=0, channel=4, data=[73, 80]),\n",
      "   midi.NoteOffEvent(tick=192, channel=4, data=[73, 0]),\n",
      "   midi.NoteOnEvent(tick=0, channel=4, data=[80, 80]),\n",
      "   midi.NoteOffEvent(tick=384, channel=4, data=[80, 0]),\n",
      "   midi.NoteOnEvent(tick=192, channel=4, data=[73, 80]),\n",
      "   midi.NoteOffEvent(tick=192, channel=4, data=[73, 0]),\n",
      "   midi.NoteOnEvent(tick=0, channel=4, data=[78, 80]),\n",
      "   midi.NoteOffEvent(tick=192, channel=4, data=[78, 0]),\n",
      "   midi.NoteOnEvent(tick=0, channel=4, data=[76, 80]),\n",
      "   midi.NoteOffEvent(tick=192, channel=4, data=[76, 0]),\n",
      "   midi.NoteOnEvent(tick=0, channel=4, data=[74, 80]),\n",
      "   midi.NoteOffEvent(tick=96, channel=4, data=[74, 0]),\n",
      "   midi.NoteOnEvent(tick=0, channel=4, data=[73, 80]),\n",
      "   midi.NoteOffEvent(tick=96, channel=4, data=[73, 0]),\n",
      "   midi.NoteOnEvent(tick=0, channel=4, data=[71, 80]),\n",
      "   midi.NoteOffEvent(tick=96, channel=4, data=[71, 0]),\n",
      "   midi.NoteOnEvent(tick=0, channel=4, data=[69, 80]),\n",
      "   midi.NoteOffEvent(tick=96, channel=4, data=[69, 0]),\n",
      "   midi.NoteOnEvent(tick=384, channel=4, data=[71, 80]),\n",
      "   midi.NoteOffEvent(tick=192, channel=4, data=[71, 0]),\n",
      "   midi.NoteOnEvent(tick=0, channel=4, data=[74, 80]),\n",
      "   midi.NoteOffEvent(tick=192, channel=4, data=[74, 0]),\n",
      "   midi.NoteOnEvent(tick=0, channel=4, data=[73, 80]),\n",
      "   midi.NoteOffEvent(tick=192, channel=4, data=[73, 0]),\n",
      "   midi.NoteOnEvent(tick=0, channel=4, data=[71, 80]),\n",
      "   midi.NoteOffEvent(tick=192, channel=4, data=[71, 0]),\n",
      "   midi.NoteOnEvent(tick=0, channel=4, data=[69, 80]),\n",
      "   midi.NoteOffEvent(tick=384, channel=4, data=[69, 0]),\n",
      "   midi.NoteOnEvent(tick=0, channel=4, data=[68, 80]),\n",
      "   midi.NoteOffEvent(tick=384, channel=4, data=[68, 0]),\n",
      "   midi.NoteOnEvent(tick=0, channel=4, data=[66, 80]),\n",
      "   midi.NoteOffEvent(tick=384, channel=4, data=[66, 0]),\n",
      "   midi.NoteOnEvent(tick=384, channel=4, data=[62, 80]),\n",
      "   midi.NoteOffEvent(tick=192, channel=4, data=[62, 0]),\n",
      "   midi.NoteOnEvent(tick=0, channel=4, data=[74, 80]),\n",
      "   midi.NoteOffEvent(tick=192, channel=4, data=[74, 0]),\n",
      "   midi.NoteOnEvent(tick=0, channel=4, data=[73, 80]),\n",
      "   midi.NoteOffEvent(tick=192, channel=4, data=[73, 0]),\n",
      "   midi.NoteOnEvent(tick=0, channel=4, data=[69, 80]),\n",
      "   midi.NoteOffEvent(tick=192, channel=4, data=[69, 0]),\n",
      "   midi.NoteOnEvent(tick=0, channel=4, data=[74, 80]),\n",
      "   midi.NoteOffEvent(tick=192, channel=4, data=[74, 0]),\n",
      "   midi.NoteOnEvent(tick=0, channel=4, data=[73, 80]),\n",
      "   midi.NoteOffEvent(tick=96, channel=4, data=[73, 0]),\n",
      "   midi.NoteOnEvent(tick=0, channel=4, data=[71, 80]),\n",
      "   midi.NoteOffEvent(tick=96, channel=4, data=[71, 0]),\n",
      "   midi.NoteOnEvent(tick=0, channel=4, data=[69, 80]),\n",
      "   midi.NoteOffEvent(tick=96, channel=4, data=[69, 0]),\n",
      "   midi.NoteOnEvent(tick=0, channel=4, data=[67, 80]),\n",
      "   midi.NoteOffEvent(tick=96, channel=4, data=[67, 0]),\n",
      "   midi.NoteOnEvent(tick=0, channel=4, data=[66, 80]),\n",
      "   midi.NoteOffEvent(tick=96, channel=4, data=[66, 0]),\n",
      "   midi.NoteOnEvent(tick=0, channel=4, data=[64, 80]),\n",
      "   midi.NoteOffEvent(tick=96, channel=4, data=[64, 0]),\n",
      "   midi.NoteOnEvent(tick=0, channel=4, data=[62, 80]),\n",
      "   midi.NoteOffEvent(tick=192, channel=4, data=[62, 0]),\n",
      "   midi.NoteOnEvent(tick=0, channel=4, data=[86, 80]),\n",
      "   midi.NoteOffEvent(tick=192, channel=4, data=[86, 0]),\n",
      "   midi.NoteOnEvent(tick=0, channel=4, data=[76, 80]),\n",
      "   midi.NoteOffEvent(tick=192, channel=4, data=[76, 0]),\n",
      "   midi.NoteOnEvent(tick=0, channel=4, data=[85, 80]),\n",
      "   midi.NoteOffEvent(tick=192, channel=4, data=[85, 0]),\n",
      "   midi.NoteOnEvent(tick=0, channel=4, data=[86, 80]),\n",
      "   midi.NoteOffEvent(tick=192, channel=4, data=[86, 0]),\n",
      "   midi.NoteOnEvent(tick=0, channel=4, data=[85, 80]),\n",
      "   midi.NoteOffEvent(tick=96, channel=4, data=[85, 0]),\n",
      "   midi.NoteOnEvent(tick=0, channel=4, data=[83, 80]),\n",
      "   midi.NoteOffEvent(tick=96, channel=4, data=[83, 0]),\n",
      "   midi.NoteOnEvent(tick=0, channel=4, data=[81, 80]),\n",
      "   midi.NoteOffEvent(tick=96, channel=4, data=[81, 0]),\n",
      "   midi.NoteOnEvent(tick=0, channel=4, data=[79, 80]),\n",
      "   midi.NoteOffEvent(tick=96, channel=4, data=[79, 0]),\n",
      "   midi.NoteOnEvent(tick=0, channel=4, data=[78, 80]),\n",
      "   midi.NoteOffEvent(tick=96, channel=4, data=[78, 0]),\n",
      "   midi.NoteOnEvent(tick=0, channel=4, data=[76, 80]),\n",
      "   midi.NoteOffEvent(tick=96, channel=4, data=[76, 0]),\n",
      "   midi.NoteOnEvent(tick=0, channel=4, data=[74, 80]),\n",
      "   midi.NoteOffEvent(tick=384, channel=4, data=[74, 0]),\n",
      "   midi.NoteOnEvent(tick=0, channel=4, data=[69, 80]),\n",
      "   midi.NoteOffEvent(tick=384, channel=4, data=[69, 0]),\n",
      "   midi.NoteOnEvent(tick=0, channel=4, data=[66, 80]),\n",
      "   midi.NoteOffEvent(tick=512, channel=4, data=[66, 0]),\n",
      "   midi.NoteOnEvent(tick=64, channel=4, data=[69, 80]),\n",
      "   midi.NoteOffEvent(tick=192, channel=4, data=[69, 0]),\n",
      "   midi.NoteOnEvent(tick=0, channel=4, data=[72, 80]),\n",
      "   midi.NoteOffEvent(tick=192, channel=4, data=[72, 0]),\n",
      "   midi.NoteOnEvent(tick=0, channel=4, data=[71, 80]),\n",
      "   midi.NoteOffEvent(tick=192, channel=4, data=[71, 0]),\n",
      "   midi.NoteOnEvent(tick=0, channel=4, data=[72, 80]),\n",
      "   midi.NoteOffEvent(tick=192, channel=4, data=[72, 0]),\n",
      "   midi.NoteOnEvent(tick=0, channel=4, data=[69, 80]),\n",
      "   midi.NoteOffEvent(tick=192, channel=4, data=[69, 0]),\n",
      "   midi.NoteOnEvent(tick=0, channel=4, data=[71, 80]),\n",
      "   midi.NoteOffEvent(tick=192, channel=4, data=[71, 0]),\n",
      "   midi.NoteOnEvent(tick=0, channel=4, data=[69, 80]),\n",
      "   midi.NoteOffEvent(tick=192, channel=4, data=[69, 0]),\n",
      "   midi.NoteOnEvent(tick=0, channel=4, data=[71, 80]),\n",
      "   midi.NoteOffEvent(tick=384, channel=4, data=[71, 0]),\n",
      "   midi.NoteOnEvent(tick=0, channel=4, data=[76, 80]),\n",
      "   midi.NoteOffEvent(tick=96, channel=4, data=[76, 0]),\n",
      "   midi.NoteOnEvent(tick=0, channel=4, data=[78, 80]),\n",
      "   midi.NoteOffEvent(tick=96, channel=4, data=[78, 0]),\n",
      "   midi.NoteOnEvent(tick=0, channel=4, data=[79, 80]),\n",
      "   midi.NoteOffEvent(tick=96, channel=4, data=[79, 0]),\n",
      "   midi.NoteOnEvent(tick=96, channel=4, data=[79, 80]),\n",
      "   midi.NoteOffEvent(tick=96, channel=4, data=[79, 0]),\n",
      "   midi.NoteOnEvent(tick=96, channel=4, data=[76, 80]),\n",
      "   midi.NoteOffEvent(tick=96, channel=4, data=[76, 0]),\n",
      "   midi.NoteOnEvent(tick=96, channel=4, data=[73, 80]),\n",
      "   midi.NoteOffEvent(tick=512, channel=4, data=[73, 0]),\n",
      "   midi.NoteOnEvent(tick=64, channel=4, data=[69, 80]),\n",
      "   midi.NoteOffEvent(tick=192, channel=4, data=[69, 0]),\n",
      "   midi.NoteOnEvent(tick=0, channel=4, data=[74, 80]),\n",
      "   midi.NoteOffEvent(tick=48, channel=4, data=[74, 0]),\n",
      "   midi.NoteOnEvent(tick=0, channel=4, data=[76, 80]),\n",
      "   midi.NoteOffEvent(tick=48, channel=4, data=[76, 0]),\n",
      "   midi.NoteOnEvent(tick=0, channel=4, data=[78, 80]),\n",
      "   midi.NoteOffEvent(tick=256, channel=4, data=[78, 0]),\n",
      "   midi.NoteOnEvent(tick=32, channel=4, data=[76, 80]),\n",
      "   midi.NoteOffEvent(tick=48, channel=4, data=[76, 0]),\n",
      "   midi.NoteOnEvent(tick=0, channel=4, data=[78, 80]),\n",
      "   midi.NoteOffEvent(tick=48, channel=4, data=[78, 0]),\n",
      "   midi.NoteOnEvent(tick=0, channel=4, data=[79, 80]),\n",
      "   midi.NoteOffEvent(tick=256, channel=4, data=[79, 0]),\n",
      "   midi.NoteOnEvent(tick=32, channel=4, data=[78, 80]),\n",
      "   midi.NoteOffEvent(tick=192, channel=4, data=[78, 0]),\n",
      "   midi.NoteOnEvent(tick=0, channel=4, data=[76, 80]),\n",
      "   midi.NoteOffEvent(tick=192, channel=4, data=[76, 0]),\n",
      "   midi.NoteOnEvent(tick=0, channel=4, data=[74, 80]),\n",
      "   midi.NoteOffEvent(tick=384, channel=4, data=[74, 0]),\n",
      "   midi.NoteOnEvent(tick=0, channel=4, data=[62, 80]),\n",
      "   midi.NoteOffEvent(tick=192, channel=4, data=[62, 0]),\n",
      "   midi.NoteOnEvent(tick=0, channel=4, data=[74, 80]),\n",
      "   midi.NoteOffEvent(tick=192, channel=4, data=[74, 0]),\n",
      "   midi.NoteOnEvent(tick=0, channel=4, data=[73, 80]),\n",
      "   midi.NoteOffEvent(tick=192, channel=4, data=[73, 0]),\n",
      "   midi.NoteOnEvent(tick=0, channel=4, data=[69, 80]),\n",
      "   midi.NoteOffEvent(tick=192, channel=4, data=[69, 0]),\n",
      "   midi.NoteOnEvent(tick=0, channel=4, data=[74, 80]),\n",
      "   midi.NoteOffEvent(tick=192, channel=4, data=[74, 0]),\n",
      "   midi.NoteOnEvent(tick=0, channel=4, data=[73, 80]),\n",
      "   midi.NoteOffEvent(tick=96, channel=4, data=[73, 0]),\n",
      "   midi.NoteOnEvent(tick=0, channel=4, data=[71, 80]),\n",
      "   midi.NoteOffEvent(tick=96, channel=4, data=[71, 0]),\n",
      "   midi.NoteOnEvent(tick=0, channel=4, data=[69, 80]),\n",
      "   midi.NoteOffEvent(tick=96, channel=4, data=[69, 0]),\n",
      "   midi.NoteOnEvent(tick=0, channel=4, data=[67, 80]),\n",
      "   midi.NoteOffEvent(tick=96, channel=4, data=[67, 0]),\n",
      "   midi.NoteOnEvent(tick=0, channel=4, data=[66, 80]),\n",
      "   midi.NoteOffEvent(tick=96, channel=4, data=[66, 0]),\n",
      "   midi.NoteOnEvent(tick=0, channel=4, data=[64, 80]),\n",
      "   midi.NoteOffEvent(tick=96, channel=4, data=[64, 0]),\n",
      "   midi.NoteOnEvent(tick=0, channel=4, data=[62, 80]),\n",
      "   midi.NoteOffEvent(tick=192, channel=4, data=[62, 0]),\n",
      "   midi.NoteOnEvent(tick=672, channel=4, data=[74, 80]),\n",
      "   midi.NoteOffEvent(tick=96, channel=4, data=[74, 0]),\n",
      "   midi.NoteOnEvent(tick=0, channel=4, data=[73, 80]),\n",
      "   midi.NoteOffEvent(tick=96, channel=4, data=[73, 0]),\n",
      "   midi.NoteOnEvent(tick=0, channel=4, data=[71, 80]),\n",
      "   midi.NoteOffEvent(tick=96, channel=4, data=[71, 0]),\n",
      "   midi.NoteOnEvent(tick=0, channel=4, data=[69, 80]),\n",
      "   midi.NoteOffEvent(tick=96, channel=4, data=[69, 0]),\n",
      "   midi.NoteOnEvent(tick=0, channel=4, data=[67, 80]),\n",
      "   midi.NoteOffEvent(tick=96, channel=4, data=[67, 0]),\n",
      "   midi.NoteOnEvent(tick=0, channel=4, data=[66, 80]),\n",
      "   midi.NoteOffEvent(tick=96, channel=4, data=[66, 0]),\n",
      "   midi.NoteOnEvent(tick=0, channel=4, data=[64, 80]),\n",
      "   midi.NoteOffEvent(tick=96, channel=4, data=[64, 0]),\n",
      "   midi.NoteOnEvent(tick=0, channel=4, data=[62, 80]),\n",
      "   midi.NoteOffEvent(tick=192, channel=4, data=[62, 0]),\n",
      "   midi.NoteOnEvent(tick=0, channel=4, data=[69, 80]),\n",
      "   midi.NoteOffEvent(tick=384, channel=4, data=[69, 0]),\n",
      "   midi.NoteOnEvent(tick=0, channel=4, data=[71, 80]),\n",
      "   midi.NoteOffEvent(tick=96, channel=4, data=[71, 0]),\n",
      "   midi.NoteOnEvent(tick=0, channel=4, data=[73, 80]),\n",
      "   midi.NoteOffEvent(tick=96, channel=4, data=[73, 0]),\n",
      "   midi.NoteOnEvent(tick=0, channel=4, data=[74, 80]),\n",
      "   midi.NoteOffEvent(tick=96, channel=4, data=[74, 0]),\n",
      "   midi.NoteOnEvent(tick=0, channel=4, data=[76, 80]),\n",
      "   midi.NoteOffEvent(tick=96, channel=4, data=[76, 0]),\n",
      "   midi.NoteOnEvent(tick=0, channel=4, data=[78, 80]),\n",
      "   midi.NoteOffEvent(tick=96, channel=4, data=[78, 0]),\n",
      "   midi.NoteOnEvent(tick=96, channel=4, data=[78, 80]),\n",
      "   midi.NoteOffEvent(tick=96, channel=4, data=[78, 0]),\n",
      "   midi.NoteOnEvent(tick=96, channel=4, data=[74, 80]),\n",
      "   midi.NoteOffEvent(tick=96, channel=4, data=[74, 0]),\n",
      "   midi.NoteOnEvent(tick=96, channel=4, data=[79, 80]),\n",
      "   midi.NoteOffEvent(tick=192, channel=4, data=[79, 0]),\n",
      "   midi.NoteOnEvent(tick=0, channel=4, data=[78, 80]),\n",
      "   midi.NoteOffEvent(tick=192, channel=4, data=[78, 0]),\n",
      "   midi.NoteOnEvent(tick=0, channel=4, data=[76, 80]),\n",
      "   midi.NoteOffEvent(tick=192, channel=4, data=[76, 0]),\n",
      "   midi.NoteOnEvent(tick=0, channel=4, data=[74, 80]),\n",
      "   midi.NoteOffEvent(tick=192, channel=4, data=[74, 0]),\n",
      "   midi.NoteOnEvent(tick=0, channel=4, data=[73, 80]),\n",
      "   midi.NoteOffEvent(tick=192, channel=4, data=[73, 0]),\n",
      "   midi.NoteOnEvent(tick=0, channel=4, data=[71, 80]),\n",
      "   midi.NoteOffEvent(tick=192, channel=4, data=[71, 0]),\n",
      "   midi.NoteOnEvent(tick=0, channel=4, data=[69, 80]),\n",
      "   midi.NoteOffEvent(tick=384, channel=4, data=[69, 0]),\n",
      "   midi.NoteOnEvent(tick=192, channel=4, data=[66, 80]),\n",
      "   midi.NoteOffEvent(tick=192, channel=4, data=[66, 0]),\n",
      "   midi.NoteOnEvent(tick=0, channel=4, data=[69, 80]),\n",
      "   midi.NoteOffEvent(tick=192, channel=4, data=[69, 0]),\n",
      "   midi.NoteOnEvent(tick=0, channel=4, data=[74, 80]),\n",
      "   midi.NoteOffEvent(tick=192, channel=4, data=[74, 0]),\n",
      "   midi.NoteOnEvent(tick=192, channel=4, data=[74, 80]),\n",
      "   midi.NoteOffEvent(tick=192, channel=4, data=[74, 0]),\n",
      "   midi.NoteOnEvent(tick=0, channel=4, data=[78, 80]),\n",
      "   midi.NoteOffEvent(tick=192, channel=4, data=[78, 0]),\n",
      "   midi.NoteOnEvent(tick=0, channel=4, data=[81, 80]),\n",
      "   midi.NoteOffEvent(tick=192, channel=4, data=[81, 0]),\n",
      "   midi.NoteOnEvent(tick=192, channel=4, data=[78, 80]),\n",
      "   midi.NoteOffEvent(tick=192, channel=4, data=[78, 0]),\n",
      "   midi.NoteOnEvent(tick=0, channel=4, data=[81, 80]),\n",
      "   midi.NoteOffEvent(tick=192, channel=4, data=[81, 0]),\n",
      "   midi.NoteOnEvent(tick=0, channel=4, data=[84, 80]),\n",
      "   midi.NoteOffEvent(tick=192, channel=4, data=[84, 0]),\n",
      "   midi.NoteOnEvent(tick=192, channel=4, data=[71, 80]),\n",
      "   midi.NoteOffEvent(tick=192, channel=4, data=[71, 0]),\n",
      "   midi.NoteOnEvent(tick=0, channel=4, data=[69, 80]),\n",
      "   midi.NoteOffEvent(tick=192, channel=4, data=[69, 0]),\n",
      "   midi.NoteOnEvent(tick=0, channel=4, data=[67, 80]),\n",
      "   midi.NoteOffEvent(tick=96, channel=4, data=[67, 0]),\n",
      "   midi.NoteOnEvent(tick=0, channel=4, data=[66, 80]),\n",
      "   midi.NoteOffEvent(tick=96, channel=4, data=[66, 0]),\n",
      "   midi.NoteOnEvent(tick=0, channel=4, data=[71, 80]),\n",
      "   midi.NoteOffEvent(tick=192, channel=4, data=[71, 0]),\n",
      "   midi.NoteOnEvent(tick=0, channel=4, data=[67, 80]),\n",
      "   midi.NoteOffEvent(tick=192, channel=4, data=[67, 0]),\n",
      "   midi.NoteOnEvent(tick=0, channel=4, data=[64, 80]),\n",
      "   midi.NoteOffEvent(tick=192, channel=4, data=[64, 0]),\n",
      "   midi.NoteOnEvent(tick=0, channel=4, data=[59, 80]),\n",
      "   midi.NoteOffEvent(tick=192, channel=4, data=[59, 0]),\n",
      "   midi.NoteOnEvent(tick=0, channel=4, data=[61, 80]),\n",
      "   midi.NoteOffEvent(tick=192, channel=4, data=[61, 0]),\n",
      "   midi.NoteOnEvent(tick=0, channel=4, data=[76, 80]),\n",
      "   midi.NoteOffEvent(tick=96, channel=4, data=[76, 0]),\n",
      "   midi.NoteOnEvent(tick=0, channel=4, data=[74, 80]),\n",
      "   midi.NoteOffEvent(tick=96, channel=4, data=[74, 0]),\n",
      "   midi.NoteOnEvent(tick=0, channel=4, data=[76, 80]),\n",
      "   midi.NoteOffEvent(tick=96, channel=4, data=[76, 0]),\n",
      "   midi.NoteOnEvent(tick=0, channel=4, data=[74, 80]),\n",
      "   midi.NoteOffEvent(tick=96, channel=4, data=[74, 0]),\n",
      "   midi.NoteOnEvent(tick=0, channel=4, data=[73, 80]),\n",
      "   midi.NoteOffEvent(tick=96, channel=4, data=[73, 0]),\n",
      "   midi.NoteOnEvent(tick=0, channel=4, data=[71, 80]),\n",
      "   midi.NoteOffEvent(tick=96, channel=4, data=[71, 0]),\n",
      "   midi.NoteOnEvent(tick=0, channel=4, data=[69, 80]),\n",
      "   midi.NoteOffEvent(tick=192, channel=4, data=[69, 0]),\n",
      "   midi.NoteOnEvent(tick=0, channel=4, data=[66, 80]),\n",
      "   midi.NoteOffEvent(tick=192, channel=4, data=[66, 0]),\n",
      "   midi.NoteOnEvent(tick=0, channel=4, data=[62, 80]),\n",
      "   midi.NoteOffEvent(tick=192, channel=4, data=[62, 0]),\n",
      "   midi.NoteOnEvent(tick=0, channel=4, data=[57, 80]),\n",
      "   midi.NoteOffEvent(tick=192, channel=4, data=[57, 0]),\n",
      "   midi.NoteOnEvent(tick=0, channel=4, data=[59, 80]),\n",
      "   midi.NoteOffEvent(tick=192, channel=4, data=[59, 0]),\n",
      "   midi.NoteOnEvent(tick=0, channel=4, data=[74, 80]),\n",
      "   midi.NoteOffEvent(tick=96, channel=4, data=[74, 0]),\n",
      "   midi.NoteOnEvent(tick=0, channel=4, data=[73, 80]),\n",
      "   midi.NoteOffEvent(tick=96, channel=4, data=[73, 0]),\n",
      "   midi.NoteOnEvent(tick=0, channel=4, data=[74, 80]),\n",
      "   midi.NoteOffEvent(tick=96, channel=4, data=[74, 0]),\n",
      "   midi.NoteOnEvent(tick=0, channel=4, data=[73, 80]),\n",
      "   midi.NoteOffEvent(tick=96, channel=4, data=[73, 0]),\n",
      "   midi.NoteOnEvent(tick=0, channel=4, data=[71, 80]),\n",
      "   midi.NoteOffEvent(tick=96, channel=4, data=[71, 0]),\n",
      "   midi.NoteOnEvent(tick=0, channel=4, data=[69, 80]),\n",
      "   midi.NoteOffEvent(tick=96, channel=4, data=[69, 0]),\n",
      "   midi.NoteOnEvent(tick=0, channel=4, data=[67, 80]),\n",
      "   midi.NoteOffEvent(tick=192, channel=4, data=[67, 0]),\n",
      "   midi.NoteOnEvent(tick=0, channel=4, data=[79, 80]),\n",
      "   midi.NoteOffEvent(tick=96, channel=4, data=[79, 0]),\n",
      "   midi.NoteOnEvent(tick=0, channel=4, data=[69, 80]),\n",
      "   midi.NoteOffEvent(tick=96, channel=4, data=[69, 0]),\n",
      "   midi.NoteOnEvent(tick=0, channel=4, data=[79, 80]),\n",
      "   midi.NoteOffEvent(tick=96, channel=4, data=[79, 0]),\n",
      "   midi.NoteOnEvent(tick=0, channel=4, data=[78, 80]),\n",
      "   midi.NoteOffEvent(tick=96, channel=4, data=[78, 0]),\n",
      "   midi.NoteOnEvent(tick=0, channel=4, data=[76, 80]),\n",
      "   midi.NoteOffEvent(tick=96, channel=4, data=[76, 0]),\n",
      "   midi.NoteOnEvent(tick=0, channel=4, data=[74, 80]),\n",
      "   midi.NoteOffEvent(tick=96, channel=4, data=[74, 0]),\n",
      "   midi.NoteOnEvent(tick=0, channel=4, data=[81, 80]),\n",
      "   midi.NoteOffEvent(tick=192, channel=4, data=[81, 0]),\n",
      "   midi.NoteOnEvent(tick=0, channel=4, data=[79, 80]),\n",
      "   midi.NoteOffEvent(tick=96, channel=4, data=[79, 0]),\n",
      "   midi.NoteOnEvent(tick=0, channel=4, data=[78, 80]),\n",
      "   midi.NoteOffEvent(tick=96, channel=4, data=[78, 0]),\n",
      "   midi.NoteOnEvent(tick=0, channel=4, data=[76, 80]),\n",
      "   midi.NoteOffEvent(tick=192, channel=4, data=[76, 0]),\n",
      "   midi.NoteOnEvent(tick=0, channel=4, data=[74, 80]),\n",
      "   midi.NoteOffEvent(tick=96, channel=4, data=[74, 0]),\n",
      "   midi.NoteOnEvent(tick=0, channel=4, data=[73, 80]),\n",
      "   midi.NoteOffEvent(tick=96, channel=4, data=[73, 0]),\n",
      "   midi.NoteOnEvent(tick=2880, channel=4, data=[69, 80]),\n",
      "   midi.NoteOffEvent(tick=192, channel=4, data=[69, 0]),\n",
      "   midi.NoteOnEvent(tick=0, channel=4, data=[74, 80]),\n",
      "   midi.NoteOffEvent(tick=48, channel=4, data=[74, 0]),\n",
      "   midi.NoteOnEvent(tick=0, channel=4, data=[76, 80]),\n",
      "   midi.NoteOffEvent(tick=48, channel=4, data=[76, 0]),\n",
      "   midi.NoteOnEvent(tick=0, channel=4, data=[78, 80]),\n",
      "   midi.NoteOffEvent(tick=256, channel=4, data=[78, 0]),\n",
      "   midi.NoteOnEvent(tick=32, channel=4, data=[76, 80]),\n",
      "   midi.NoteOffEvent(tick=48, channel=4, data=[76, 0]),\n",
      "   midi.NoteOnEvent(tick=0, channel=4, data=[78, 80]),\n",
      "   midi.NoteOffEvent(tick=48, channel=4, data=[78, 0]),\n",
      "   midi.NoteOnEvent(tick=0, channel=4, data=[79, 80]),\n",
      "   midi.NoteOffEvent(tick=256, channel=4, data=[79, 0]),\n",
      "   midi.NoteOnEvent(tick=32, channel=4, data=[78, 80]),\n",
      "   midi.NoteOffEvent(tick=192, channel=4, data=[78, 0]),\n",
      "   midi.NoteOnEvent(tick=0, channel=4, data=[76, 80]),\n",
      "   midi.NoteOffEvent(tick=192, channel=4, data=[76, 0]),\n",
      "   midi.NoteOnEvent(tick=0, channel=4, data=[74, 80]),\n",
      "   midi.NoteOffEvent(tick=192, channel=4, data=[74, 0]),\n",
      "   midi.NoteOnEvent(tick=1536, channel=4, data=[74, 80]),\n",
      "   midi.NoteOffEvent(tick=192, channel=4, data=[74, 0]),\n",
      "   midi.NoteOnEvent(tick=0, channel=4, data=[79, 80]),\n",
      "   midi.NoteOffEvent(tick=48, channel=4, data=[79, 0]),\n",
      "   midi.NoteOnEvent(tick=0, channel=4, data=[81, 80]),\n",
      "   midi.NoteOffEvent(tick=48, channel=4, data=[81, 0]),\n",
      "   midi.NoteOnEvent(tick=0, channel=4, data=[83, 80]),\n",
      "   midi.NoteOffEvent(tick=256, channel=4, data=[83, 0]),\n",
      "   midi.NoteOnEvent(tick=32, channel=4, data=[81, 80]),\n",
      "   midi.NoteOffEvent(tick=48, channel=4, data=[81, 0]),\n",
      "   midi.NoteOnEvent(tick=0, channel=4, data=[83, 80]),\n",
      "   midi.NoteOffEvent(tick=48, channel=4, data=[83, 0]),\n",
      "   midi.NoteOnEvent(tick=0, channel=4, data=[84, 80]),\n",
      "   midi.NoteOffEvent(tick=256, channel=4, data=[84, 0]),\n",
      "   midi.NoteOnEvent(tick=32, channel=4, data=[83, 80]),\n",
      "   midi.NoteOffEvent(tick=192, channel=4, data=[83, 0]),\n",
      "   midi.NoteOnEvent(tick=0, channel=4, data=[81, 80]),\n",
      "   midi.NoteOffEvent(tick=192, channel=4, data=[81, 0]),\n",
      "   midi.NoteOnEvent(tick=0, channel=4, data=[79, 80]),\n",
      "   midi.NoteOffEvent(tick=192, channel=4, data=[79, 0]),\n",
      "   midi.NoteOnEvent(tick=1152, channel=4, data=[76, 80]),\n",
      "   midi.NoteOffEvent(tick=192, channel=4, data=[76, 0]),\n",
      "   midi.NoteOnEvent(tick=0, channel=4, data=[73, 80]),\n",
      "   midi.NoteOffEvent(tick=192, channel=4, data=[73, 0]),\n",
      "   midi.NoteOnEvent(tick=0, channel=4, data=[69, 80]),\n",
      "   midi.NoteOffEvent(tick=192, channel=4, data=[69, 0]),\n",
      "   midi.NoteOnEvent(tick=960, channel=4, data=[67, 80]),\n",
      "   midi.NoteOffEvent(tick=192, channel=4, data=[67, 0]),\n",
      "   midi.NoteOnEvent(tick=0, channel=4, data=[64, 80]),\n",
      "   midi.NoteOffEvent(tick=192, channel=4, data=[64, 0]),\n",
      "   midi.NoteOnEvent(tick=0, channel=4, data=[61, 80]),\n",
      "   midi.NoteOffEvent(tick=192, channel=4, data=[61, 0]),\n",
      "   midi.NoteOnEvent(tick=0, channel=4, data=[78, 80]),\n",
      "   midi.NoteOffEvent(tick=96, channel=4, data=[78, 0]),\n",
      "   midi.NoteOnEvent(tick=0, channel=4, data=[79, 80]),\n",
      "   midi.NoteOffEvent(tick=96, channel=4, data=[79, 0]),\n",
      "   midi.NoteOnEvent(tick=0, channel=4, data=[81, 80]),\n",
      "   midi.NoteOffEvent(tick=96, channel=4, data=[81, 0]),\n",
      "   midi.NoteOnEvent(tick=96, channel=4, data=[81, 80]),\n",
      "   midi.NoteOffEvent(tick=96, channel=4, data=[81, 0]),\n",
      "   midi.NoteOnEvent(tick=96, channel=4, data=[81, 80]),\n",
      "   midi.NoteOffEvent(tick=96, channel=4, data=[81, 0]),\n",
      "   midi.NoteOnEvent(tick=96, channel=4, data=[81, 80]),\n",
      "   midi.NoteOffEvent(tick=192, channel=4, data=[81, 0]),\n",
      "   midi.NoteOnEvent(tick=0, channel=4, data=[74, 80]),\n",
      "   midi.NoteOffEvent(tick=192, channel=4, data=[74, 0]),\n",
      "   midi.NoteOnEvent(tick=0, channel=4, data=[86, 80]),\n",
      "   midi.NoteOffEvent(tick=576, channel=4, data=[86, 0]),\n",
      "   midi.NoteOnEvent(tick=96, channel=4, data=[85, 80]),\n",
      "   midi.NoteOffEvent(tick=96, channel=4, data=[85, 0]),\n",
      "   midi.NoteOnEvent(tick=0, channel=4, data=[83, 80]),\n",
      "   midi.NoteOffEvent(tick=96, channel=4, data=[83, 0]),\n",
      "   midi.NoteOnEvent(tick=0, channel=4, data=[81, 80]),\n",
      "   midi.NoteOffEvent(tick=96, channel=4, data=[81, 0]),\n",
      "   midi.NoteOnEvent(tick=0, channel=4, data=[79, 80]),\n",
      "   midi.NoteOffEvent(tick=96, channel=4, data=[79, 0]),\n",
      "   midi.NoteOnEvent(tick=0, channel=4, data=[78, 80]),\n",
      "   midi.NoteOffEvent(tick=96, channel=4, data=[78, 0]),\n",
      "   midi.NoteOnEvent(tick=0, channel=4, data=[76, 80]),\n",
      "   midi.NoteOffEvent(tick=192, channel=4, data=[76, 0]),\n",
      "   midi.NoteOnEvent(tick=0, channel=4, data=[73, 80]),\n",
      "   midi.NoteOffEvent(tick=96, channel=4, data=[73, 0]),\n",
      "   midi.NoteOnEvent(tick=0, channel=4, data=[71, 80]),\n",
      "   midi.NoteOffEvent(tick=96, channel=4, data=[71, 0]),\n",
      "   midi.NoteOnEvent(tick=0, channel=4, data=[69, 80]),\n",
      "   midi.NoteOffEvent(tick=96, channel=4, data=[69, 0]),\n",
      "   midi.NoteOnEvent(tick=0, channel=4, data=[67, 80]),\n",
      "   midi.NoteOffEvent(tick=96, channel=4, data=[67, 0]),\n",
      "   midi.NoteOnEvent(tick=0, channel=4, data=[66, 80]),\n",
      "   midi.NoteOffEvent(tick=96, channel=4, data=[66, 0]),\n",
      "   midi.NoteOnEvent(tick=0, channel=4, data=[64, 80]),\n",
      "   midi.NoteOffEvent(tick=96, channel=4, data=[64, 0]),\n",
      "   midi.NoteOnEvent(tick=0, channel=4, data=[62, 80]),\n",
      "   midi.NoteOffEvent(tick=192, channel=4, data=[62, 0]),\n",
      "   midi.NoteOnEvent(tick=0, channel=4, data=[74, 80]),\n",
      "   midi.NoteOffEvent(tick=192, channel=4, data=[74, 0]),\n",
      "   midi.NoteOnEvent(tick=0, channel=4, data=[73, 80]),\n",
      "   midi.NoteOffEvent(tick=192, channel=4, data=[73, 0]),\n",
      "   midi.NoteOnEvent(tick=0, channel=4, data=[69, 80]),\n",
      "   midi.NoteOffEvent(tick=192, channel=4, data=[69, 0]),\n",
      "   midi.NoteOnEvent(tick=0, channel=4, data=[74, 80]),\n",
      "   midi.NoteOffEvent(tick=192, channel=4, data=[74, 0]),\n",
      "   midi.NoteOnEvent(tick=0, channel=4, data=[73, 80]),\n",
      "   midi.NoteOffEvent(tick=96, channel=4, data=[73, 0]),\n",
      "   midi.NoteOnEvent(tick=0, channel=4, data=[71, 80]),\n",
      "   midi.NoteOffEvent(tick=96, channel=4, data=[71, 0]),\n",
      "   midi.NoteOnEvent(tick=0, channel=4, data=[69, 80]),\n",
      "   midi.NoteOffEvent(tick=96, channel=4, data=[69, 0]),\n",
      "   midi.NoteOnEvent(tick=0, channel=4, data=[67, 80]),\n",
      "   midi.NoteOffEvent(tick=96, channel=4, data=[67, 0]),\n",
      "   midi.NoteOnEvent(tick=0, channel=4, data=[66, 80]),\n",
      "   midi.NoteOffEvent(tick=96, channel=4, data=[66, 0]),\n",
      "   midi.NoteOnEvent(tick=0, channel=4, data=[64, 80]),\n",
      "   midi.NoteOffEvent(tick=96, channel=4, data=[64, 0]),\n",
      "   midi.NoteOnEvent(tick=0, channel=4, data=[62, 80]),\n",
      "   midi.NoteOffEvent(tick=192, channel=4, data=[62, 0]),\n",
      "   midi.NoteOnEvent(tick=0, channel=4, data=[86, 80]),\n",
      "   midi.NoteOffEvent(tick=192, channel=4, data=[86, 0]),\n",
      "   midi.NoteOnEvent(tick=0, channel=4, data=[76, 80]),\n",
      "   midi.NoteOffEvent(tick=192, channel=4, data=[76, 0]),\n",
      "   midi.NoteOnEvent(tick=0, channel=4, data=[85, 80]),\n",
      "   midi.NoteOffEvent(tick=192, channel=4, data=[85, 0]),\n",
      "   midi.NoteOnEvent(tick=0, channel=4, data=[86, 80]),\n",
      "   midi.NoteOffEvent(tick=96, channel=4, data=[86, 0]),\n",
      "   midi.NoteOnEvent(tick=0, channel=4, data=[74, 80]),\n",
      "   midi.NoteOffEvent(tick=96, channel=4, data=[74, 0]),\n",
      "   midi.NoteOnEvent(tick=0, channel=4, data=[73, 80]),\n",
      "   midi.NoteOffEvent(tick=96, channel=4, data=[73, 0]),\n",
      "   midi.NoteOnEvent(tick=0, channel=4, data=[71, 80]),\n",
      "   midi.NoteOffEvent(tick=96, channel=4, data=[71, 0]),\n",
      "   midi.NoteOnEvent(tick=0, channel=4, data=[69, 80]),\n",
      "   midi.NoteOffEvent(tick=96, channel=4, data=[69, 0]),\n",
      "   midi.NoteOnEvent(tick=0, channel=4, data=[67, 80]),\n",
      "   midi.NoteOffEvent(tick=96, channel=4, data=[67, 0]),\n",
      "   midi.NoteOnEvent(tick=0, channel=4, data=[66, 80]),\n",
      "   midi.NoteOffEvent(tick=96, channel=4, data=[66, 0]),\n",
      "   midi.NoteOnEvent(tick=0, channel=4, data=[64, 80]),\n",
      "   midi.NoteOffEvent(tick=96, channel=4, data=[64, 0]),\n",
      "   midi.NoteOnEvent(tick=0, channel=4, data=[62, 80]),\n",
      "   midi.NoteOffEvent(tick=192, channel=4, data=[62, 0]),\n",
      "   midi.NoteOnEvent(tick=0, channel=4, data=[74, 80]),\n",
      "   midi.NoteOffEvent(tick=192, channel=4, data=[74, 0]),\n",
      "   midi.NoteOnEvent(tick=0, channel=4, data=[73, 80]),\n",
      "   midi.NoteOffEvent(tick=192, channel=4, data=[73, 0]),\n",
      "   midi.NoteOnEvent(tick=0, channel=4, data=[69, 80]),\n",
      "   midi.NoteOffEvent(tick=192, channel=4, data=[69, 0]),\n",
      "   midi.NoteOnEvent(tick=0, channel=4, data=[74, 80]),\n",
      "   midi.NoteOffEvent(tick=192, channel=4, data=[74, 0]),\n",
      "   midi.NoteOnEvent(tick=0, channel=4, data=[73, 80]),\n",
      "   midi.NoteOffEvent(tick=96, channel=4, data=[73, 0]),\n",
      "   midi.NoteOnEvent(tick=0, channel=4, data=[71, 80]),\n",
      "   midi.NoteOffEvent(tick=96, channel=4, data=[71, 0]),\n",
      "   midi.NoteOnEvent(tick=0, channel=4, data=[69, 80]),\n",
      "   midi.NoteOffEvent(tick=96, channel=4, data=[69, 0]),\n",
      "   midi.NoteOnEvent(tick=0, channel=4, data=[67, 80]),\n",
      "   midi.NoteOffEvent(tick=96, channel=4, data=[67, 0]),\n",
      "   midi.NoteOnEvent(tick=0, channel=4, data=[66, 80]),\n",
      "   midi.NoteOffEvent(tick=96, channel=4, data=[66, 0]),\n",
      "   midi.NoteOnEvent(tick=0, channel=4, data=[64, 80]),\n",
      "   midi.NoteOffEvent(tick=96, channel=4, data=[64, 0]),\n",
      "   midi.NoteOnEvent(tick=0, channel=4, data=[62, 80]),\n",
      "   midi.NoteOffEvent(tick=192, channel=4, data=[62, 0]),\n",
      "   midi.NoteOnEvent(tick=0, channel=4, data=[86, 80]),\n",
      "   midi.NoteOffEvent(tick=192, channel=4, data=[86, 0]),\n",
      "   midi.NoteOnEvent(tick=0, channel=4, data=[76, 80]),\n",
      "   midi.NoteOffEvent(tick=192, channel=4, data=[76, 0]),\n",
      "   midi.NoteOnEvent(tick=0, channel=4, data=[85, 80]),\n",
      "   midi.NoteOffEvent(tick=192, channel=4, data=[85, 0]),\n",
      "   midi.NoteOnEvent(tick=0, channel=4, data=[86, 80]),\n",
      "   midi.NoteOffEvent(tick=96, channel=4, data=[86, 0]),\n",
      "   midi.NoteOnEvent(tick=0, channel=4, data=[74, 80]),\n",
      "   midi.NoteOffEvent(tick=96, channel=4, data=[74, 0]),\n",
      "   midi.NoteOnEvent(tick=0, channel=4, data=[73, 80]),\n",
      "   midi.NoteOffEvent(tick=96, channel=4, data=[73, 0]),\n",
      "   midi.NoteOnEvent(tick=0, channel=4, data=[71, 80]),\n",
      "   midi.NoteOffEvent(tick=96, channel=4, data=[71, 0]),\n",
      "   midi.NoteOnEvent(tick=0, channel=4, data=[69, 80]),\n",
      "   midi.NoteOffEvent(tick=96, channel=4, data=[69, 0]),\n",
      "   midi.NoteOnEvent(tick=0, channel=4, data=[67, 80]),\n",
      "   midi.NoteOffEvent(tick=96, channel=4, data=[67, 0]),\n",
      "   midi.NoteOnEvent(tick=0, channel=4, data=[66, 80]),\n",
      "   midi.NoteOffEvent(tick=96, channel=4, data=[66, 0]),\n",
      "   midi.NoteOnEvent(tick=0, channel=4, data=[64, 80]),\n",
      "   midi.NoteOffEvent(tick=96, channel=4, data=[64, 0]),\n",
      "   midi.NoteOnEvent(tick=0, channel=4, data=[62, 80]),\n",
      "   midi.NoteOffEvent(tick=192, channel=4, data=[62, 0]),\n",
      "   midi.NoteOnEvent(tick=0, channel=4, data=[74, 80]),\n",
      "   midi.NoteOffEvent(tick=192, channel=4, data=[74, 0]),\n",
      "   midi.NoteOnEvent(tick=0, channel=4, data=[71, 80]),\n",
      "   midi.NoteOffEvent(tick=192, channel=4, data=[71, 0]),\n",
      "   midi.NoteOnEvent(tick=0, channel=4, data=[66, 80]),\n",
      "   midi.NoteOffEvent(tick=192, channel=4, data=[66, 0]),\n",
      "   midi.NoteOnEvent(tick=0, channel=4, data=[68, 80]),\n",
      "   midi.NoteOffEvent(tick=192, channel=4, data=[68, 0]),\n",
      "   midi.NoteOnEvent(tick=0, channel=4, data=[83, 80]),\n",
      "   midi.NoteOffEvent(tick=96, channel=4, data=[83, 0]),\n",
      "   midi.NoteOnEvent(tick=0, channel=4, data=[81, 80]),\n",
      "   midi.NoteOffEvent(tick=96, channel=4, data=[81, 0]),\n",
      "   midi.NoteOnEvent(tick=0, channel=4, data=[83, 80]),\n",
      "   midi.NoteOffEvent(tick=96, channel=4, data=[83, 0]),\n",
      "   midi.NoteOnEvent(tick=0, channel=4, data=[81, 80]),\n",
      "   midi.NoteOffEvent(tick=96, channel=4, data=[81, 0]),\n",
      "   midi.NoteOnEvent(tick=0, channel=4, data=[80, 80]),\n",
      "   midi.NoteOffEvent(tick=96, channel=4, data=[80, 0]),\n",
      "   midi.NoteOnEvent(tick=0, channel=4, data=[78, 80]),\n",
      "   midi.NoteOffEvent(tick=96, channel=4, data=[78, 0]),\n",
      "   midi.NoteOnEvent(tick=0, channel=4, data=[76, 80]),\n",
      "   midi.NoteOffEvent(tick=192, channel=4, data=[76, 0]),\n",
      "   midi.NoteOnEvent(tick=0, channel=4, data=[73, 80]),\n",
      "   midi.NoteOffEvent(tick=192, channel=4, data=[73, 0]),\n",
      "   midi.NoteOnEvent(tick=0, channel=4, data=[69, 80]),\n",
      "   midi.NoteOffEvent(tick=192, channel=4, data=[69, 0]),\n",
      "   midi.NoteOnEvent(tick=0, channel=4, data=[64, 80]),\n",
      "   midi.NoteOffEvent(tick=192, channel=4, data=[64, 0]),\n",
      "   midi.NoteOnEvent(tick=0, channel=4, data=[69, 80]),\n",
      "   midi.NoteOffEvent(tick=192, channel=4, data=[69, 0]),\n",
      "   midi.NoteOnEvent(tick=0, channel=4, data=[81, 80]),\n",
      "   midi.NoteOffEvent(tick=96, channel=4, data=[81, 0]),\n",
      "   midi.NoteOnEvent(tick=0, channel=4, data=[80, 80]),\n",
      "   midi.NoteOffEvent(tick=96, channel=4, data=[80, 0]),\n",
      "   midi.NoteOnEvent(tick=0, channel=4, data=[81, 80]),\n",
      "   midi.NoteOffEvent(tick=96, channel=4, data=[81, 0]),\n",
      "   midi.NoteOnEvent(tick=0, channel=4, data=[80, 80]),\n",
      "   midi.NoteOffEvent(tick=96, channel=4, data=[80, 0]),\n",
      "   midi.NoteOnEvent(tick=0, channel=4, data=[78, 80]),\n",
      "   midi.NoteOffEvent(tick=96, channel=4, data=[78, 0]),\n",
      "   midi.NoteOnEvent(tick=0, channel=4, data=[76, 80]),\n",
      "   midi.NoteOffEvent(tick=96, channel=4, data=[76, 0]),\n",
      "   midi.NoteOnEvent(tick=0, channel=4, data=[74, 80]),\n",
      "   midi.NoteOffEvent(tick=96, channel=4, data=[74, 0]),\n",
      "   midi.NoteOnEvent(tick=0, channel=4, data=[76, 80]),\n",
      "   midi.NoteOffEvent(tick=96, channel=4, data=[76, 0]),\n",
      "   midi.NoteOnEvent(tick=0, channel=4, data=[74, 80]),\n",
      "   midi.NoteOffEvent(tick=96, channel=4, data=[74, 0]),\n",
      "   midi.NoteOnEvent(tick=96, channel=4, data=[74, 80]),\n",
      "   midi.NoteOffEvent(tick=96, channel=4, data=[74, 0]),\n",
      "   midi.NoteOnEvent(tick=96, channel=4, data=[74, 80]),\n",
      "   midi.NoteOffEvent(tick=96, channel=4, data=[74, 0]),\n",
      "   midi.NoteOnEvent(tick=96, channel=4, data=[86, 80]),\n",
      "   midi.NoteOffEvent(tick=384, channel=4, data=[86, 0]),\n",
      "   midi.NoteOnEvent(tick=192, channel=4, data=[85, 80]),\n",
      "   midi.NoteOffEvent(tick=96, channel=4, data=[85, 0]),\n",
      "   midi.NoteOnEvent(tick=0, channel=4, data=[83, 80]),\n",
      "   midi.NoteOffEvent(tick=96, channel=4, data=[83, 0]),\n",
      "   midi.NoteOnEvent(tick=0, channel=4, data=[85, 80]),\n",
      "   midi.NoteOffEvent(tick=192, channel=4, data=[85, 0]),\n",
      "   midi.NoteOnEvent(tick=0, channel=4, data=[81, 80]),\n",
      "   midi.NoteOffEvent(tick=192, channel=4, data=[81, 0]),\n",
      "   midi.NoteOnEvent(tick=0, channel=4, data=[76, 80]),\n",
      "   midi.NoteOffEvent(tick=192, channel=4, data=[76, 0]),\n",
      "   midi.NoteOnEvent(tick=0, channel=4, data=[80, 80]),\n",
      "   midi.NoteOffEvent(tick=192, channel=4, data=[80, 0]),\n",
      "   midi.NoteOnEvent(tick=0, channel=4, data=[81, 80]),\n",
      "   midi.NoteOffEvent(tick=768, channel=4, data=[81, 0]),\n",
      "   midi.EndOfTrackEvent(tick=0, data=[])]),\n",
      " midi.Track(\\\n",
      "  [midi.TrackNameEvent(tick=0, text='Violino II', data=[86, 105, 111, 108, 105, 110, 111, 32, 73, 73]),\n",
      "   midi.ControlChangeEvent(tick=0, channel=4, data=[0, 0]),\n",
      "   midi.ProgramChangeEvent(tick=0, channel=4, data=[48]),\n",
      "   midi.ControlChangeEvent(tick=0, channel=4, data=[7, 100]),\n",
      "   midi.ControlChangeEvent(tick=0, channel=4, data=[10, 61]),\n",
      "   midi.ControlChangeEvent(tick=0, channel=4, data=[91, 127]),\n",
      "   midi.ControlChangeEvent(tick=0, channel=4, data=[93, 127]),\n",
      "   midi.KeySignatureEvent(tick=0, data=[2, 0]),\n",
      "   midi.NoteOnEvent(tick=768, channel=4, data=[62, 80]),\n",
      "   midi.NoteOffEvent(tick=192, channel=4, data=[62, 0]),\n",
      "   midi.NoteOnEvent(tick=0, channel=4, data=[74, 80]),\n",
      "   midi.NoteOffEvent(tick=192, channel=4, data=[74, 0]),\n",
      "   midi.NoteOnEvent(tick=0, channel=4, data=[73, 80]),\n",
      "   midi.NoteOffEvent(tick=192, channel=4, data=[73, 0]),\n",
      "   midi.NoteOnEvent(tick=0, channel=4, data=[69, 80]),\n",
      "   midi.NoteOffEvent(tick=192, channel=4, data=[69, 0]),\n",
      "   midi.NoteOnEvent(tick=0, channel=4, data=[74, 80]),\n",
      "   midi.NoteOffEvent(tick=192, channel=4, data=[74, 0]),\n",
      "   midi.NoteOnEvent(tick=0, channel=4, data=[73, 80]),\n",
      "   midi.NoteOffEvent(tick=96, channel=4, data=[73, 0]),\n",
      "   midi.NoteOnEvent(tick=0, channel=4, data=[71, 80]),\n",
      "   midi.NoteOffEvent(tick=96, channel=4, data=[71, 0]),\n",
      "   midi.NoteOnEvent(tick=0, channel=4, data=[69, 80]),\n",
      "   midi.NoteOffEvent(tick=96, channel=4, data=[69, 0]),\n",
      "   midi.NoteOnEvent(tick=0, channel=4, data=[67, 80]),\n",
      "   midi.NoteOffEvent(tick=96, channel=4, data=[67, 0]),\n",
      "   midi.NoteOnEvent(tick=0, channel=4, data=[66, 80]),\n",
      "   midi.NoteOffEvent(tick=96, channel=4, data=[66, 0]),\n",
      "   midi.NoteOnEvent(tick=0, channel=4, data=[64, 80]),\n",
      "   midi.NoteOffEvent(tick=96, channel=4, data=[64, 0]),\n",
      "   midi.NoteOnEvent(tick=0, channel=4, data=[62, 80]),\n",
      "   midi.NoteOffEvent(tick=192, channel=4, data=[62, 0]),\n",
      "   midi.NoteOnEvent(tick=0, channel=4, data=[71, 80]),\n",
      "   midi.NoteOffEvent(tick=192, channel=4, data=[71, 0]),\n",
      "   midi.NoteOnEvent(tick=0, channel=4, data=[71, 80]),\n",
      "   midi.NoteOffEvent(tick=192, channel=4, data=[71, 0]),\n",
      "   midi.NoteOnEvent(tick=0, channel=4, data=[69, 80]),\n",
      "   midi.NoteOffEvent(tick=192, channel=4, data=[69, 0]),\n",
      "   midi.NoteOnEvent(tick=0, channel=4, data=[69, 80]),\n",
      "   midi.NoteOffEvent(tick=96, channel=4, data=[69, 0]),\n",
      "   midi.NoteOnEvent(tick=0, channel=4, data=[74, 80]),\n",
      "   midi.NoteOffEvent(tick=96, channel=4, data=[74, 0]),\n",
      "   midi.NoteOnEvent(tick=0, channel=4, data=[73, 80]),\n",
      "   midi.NoteOffEvent(tick=96, channel=4, data=[73, 0]),\n",
      "   midi.NoteOnEvent(tick=0, channel=4, data=[71, 80]),\n",
      "   midi.NoteOffEvent(tick=96, channel=4, data=[71, 0]),\n",
      "   midi.NoteOnEvent(tick=0, channel=4, data=[69, 80]),\n",
      "   midi.NoteOffEvent(tick=96, channel=4, data=[69, 0]),\n",
      "   midi.NoteOnEvent(tick=0, channel=4, data=[67, 80]),\n",
      "   midi.NoteOffEvent(tick=96, channel=4, data=[67, 0]),\n",
      "   midi.NoteOnEvent(tick=0, channel=4, data=[66, 80]),\n",
      "   midi.NoteOffEvent(tick=96, channel=4, data=[66, 0]),\n",
      "   midi.NoteOnEvent(tick=0, channel=4, data=[64, 80]),\n",
      "   midi.NoteOffEvent(tick=96, channel=4, data=[64, 0]),\n",
      "   midi.NoteOnEvent(tick=0, channel=4, data=[62, 80]),\n",
      "   midi.NoteOffEvent(tick=192, channel=4, data=[62, 0]),\n",
      "   midi.NoteOnEvent(tick=0, channel=4, data=[74, 80]),\n",
      "   midi.NoteOffEvent(tick=192, channel=4, data=[74, 0]),\n",
      "   midi.NoteOnEvent(tick=0, channel=4, data=[73, 80]),\n",
      "   midi.NoteOffEvent(tick=192, channel=4, data=[73, 0]),\n",
      "   midi.NoteOnEvent(tick=0, channel=4, data=[69, 80]),\n",
      "   midi.NoteOffEvent(tick=192, channel=4, data=[69, 0]),\n",
      "   midi.NoteOnEvent(tick=0, channel=4, data=[74, 80]),\n",
      "   midi.NoteOffEvent(tick=192, channel=4, data=[74, 0]),\n",
      "   midi.NoteOnEvent(tick=0, channel=4, data=[73, 80]),\n",
      "   midi.NoteOffEvent(tick=96, channel=4, data=[73, 0]),\n",
      "   midi.NoteOnEvent(tick=0, channel=4, data=[71, 80]),\n",
      "   midi.NoteOffEvent(tick=96, channel=4, data=[71, 0]),\n",
      "   midi.NoteOnEvent(tick=0, channel=4, data=[69, 80]),\n",
      "   midi.NoteOffEvent(tick=96, channel=4, data=[69, 0]),\n",
      "   midi.NoteOnEvent(tick=0, channel=4, data=[67, 80]),\n",
      "   midi.NoteOffEvent(tick=96, channel=4, data=[67, 0]),\n",
      "   midi.NoteOnEvent(tick=0, channel=4, data=[66, 80]),\n",
      "   midi.NoteOffEvent(tick=96, channel=4, data=[66, 0]),\n",
      "   midi.NoteOnEvent(tick=0, channel=4, data=[64, 80]),\n",
      "   midi.NoteOffEvent(tick=96, channel=4, data=[64, 0]),\n",
      "   midi.NoteOnEvent(tick=0, channel=4, data=[62, 80]),\n",
      "   midi.NoteOffEvent(tick=192, channel=4, data=[62, 0]),\n",
      "   midi.NoteOnEvent(tick=0, channel=4, data=[71, 80]),\n",
      "   midi.NoteOffEvent(tick=192, channel=4, data=[71, 0]),\n",
      "   midi.NoteOnEvent(tick=0, channel=4, data=[71, 80]),\n",
      "   midi.NoteOffEvent(tick=192, channel=4, data=[71, 0]),\n",
      "   midi.NoteOnEvent(tick=0, channel=4, data=[69, 80]),\n",
      "   midi.NoteOffEvent(tick=192, channel=4, data=[69, 0]),\n",
      "   midi.NoteOnEvent(tick=0, channel=4, data=[69, 80]),\n",
      "   midi.NoteOffEvent(tick=96, channel=4, data=[69, 0]),\n",
      "   midi.NoteOnEvent(tick=0, channel=4, data=[74, 80]),\n",
      "   midi.NoteOffEvent(tick=96, channel=4, data=[74, 0]),\n",
      "   midi.NoteOnEvent(tick=0, channel=4, data=[73, 80]),\n",
      "   midi.NoteOffEvent(tick=96, channel=4, data=[73, 0]),\n",
      "   midi.NoteOnEvent(tick=0, channel=4, data=[71, 80]),\n",
      "   midi.NoteOffEvent(tick=96, channel=4, data=[71, 0]),\n",
      "   midi.NoteOnEvent(tick=0, channel=4, data=[69, 80]),\n",
      "   midi.NoteOffEvent(tick=96, channel=4, data=[69, 0]),\n",
      "   midi.NoteOnEvent(tick=0, channel=4, data=[67, 80]),\n",
      "   midi.NoteOffEvent(tick=96, channel=4, data=[67, 0]),\n",
      "   midi.NoteOnEvent(tick=0, channel=4, data=[66, 80]),\n",
      "   midi.NoteOffEvent(tick=96, channel=4, data=[66, 0]),\n",
      "   midi.NoteOnEvent(tick=0, channel=4, data=[64, 80]),\n",
      "   midi.NoteOffEvent(tick=96, channel=4, data=[64, 0]),\n",
      "   midi.NoteOnEvent(tick=0, channel=4, data=[62, 80]),\n",
      "   midi.NoteOffEvent(tick=192, channel=4, data=[62, 0]),\n",
      "   midi.NoteOnEvent(tick=0, channel=4, data=[74, 80]),\n",
      "   midi.NoteOffEvent(tick=192, channel=4, data=[74, 0]),\n",
      "   midi.NoteOnEvent(tick=0, channel=4, data=[71, 80]),\n",
      "   midi.NoteOffEvent(tick=192, channel=4, data=[71, 0]),\n",
      "   midi.NoteOnEvent(tick=0, channel=4, data=[66, 80]),\n",
      "   midi.NoteOffEvent(tick=192, channel=4, data=[66, 0]),\n",
      "   midi.NoteOnEvent(tick=0, channel=4, data=[68, 80]),\n",
      "   midi.NoteOffEvent(tick=192, channel=4, data=[68, 0]),\n",
      "   midi.NoteOnEvent(tick=0, channel=4, data=[78, 80]),\n",
      "   midi.NoteOffEvent(tick=384, channel=4, data=[78, 0]),\n",
      "   midi.NoteOnEvent(tick=0, channel=4, data=[76, 80]),\n",
      "   midi.NoteOffEvent(tick=96, channel=4, data=[76, 0]),\n",
      "   midi.NoteOnEvent(tick=0, channel=4, data=[74, 80]),\n",
      "   midi.NoteOffEvent(tick=96, channel=4, data=[74, 0]),\n",
      "   midi.NoteOnEvent(tick=0, channel=4, data=[76, 80]),\n",
      "   midi.NoteOffEvent(tick=192, channel=4, data=[76, 0]),\n",
      "   midi.NoteOnEvent(tick=0, channel=4, data=[73, 80]),\n",
      "   midi.NoteOffEvent(tick=192, channel=4, data=[73, 0]),\n",
      "   midi.NoteOnEvent(tick=0, channel=4, data=[69, 80]),\n",
      "   midi.NoteOffEvent(tick=192, channel=4, data=[69, 0]),\n",
      "   midi.NoteOnEvent(tick=0, channel=4, data=[64, 80]),\n",
      "   midi.NoteOffEvent(tick=192, channel=4, data=[64, 0]),\n",
      "   midi.NoteOnEvent(tick=0, channel=4, data=[66, 80]),\n",
      "   midi.NoteOffEvent(tick=192, channel=4, data=[66, 0]),\n",
      "   midi.NoteOnEvent(tick=0, channel=4, data=[76, 80]),\n",
      "   midi.NoteOffEvent(tick=384, channel=4, data=[76, 0]),\n",
      "   midi.NoteOnEvent(tick=0, channel=4, data=[74, 80]),\n",
      "   midi.NoteOffEvent(tick=96, channel=4, data=[74, 0]),\n",
      "   midi.NoteOnEvent(tick=0, channel=4, data=[73, 80]),\n",
      "   midi.NoteOffEvent(tick=96, channel=4, data=[73, 0]),\n",
      "   midi.NoteOnEvent(tick=0, channel=4, data=[71, 80]),\n",
      "   midi.NoteOffEvent(tick=96, channel=4, data=[71, 0]),\n",
      "   midi.NoteOnEvent(tick=0, channel=4, data=[73, 80]),\n",
      "   midi.NoteOffEvent(tick=96, channel=4, data=[73, 0]),\n",
      "   midi.NoteOnEvent(tick=0, channel=4, data=[71, 80]),\n",
      "   midi.NoteOffEvent(tick=96, channel=4, data=[71, 0]),\n",
      "   midi.NoteOnEvent(tick=96, channel=4, data=[71, 80]),\n",
      "   midi.NoteOffEvent(tick=96, channel=4, data=[71, 0]),\n",
      "   midi.NoteOnEvent(tick=96, channel=4, data=[71, 80]),\n",
      "   midi.NoteOffEvent(tick=96, channel=4, data=[71, 0]),\n",
      "   midi.NoteOnEvent(tick=96, channel=4, data=[83, 80]),\n",
      "   midi.NoteOffEvent(tick=384, channel=4, data=[83, 0]),\n",
      "   midi.NoteOnEvent(tick=192, channel=4, data=[81, 80]),\n",
      "   midi.NoteOffEvent(tick=96, channel=4, data=[81, 0]),\n",
      "   midi.NoteOnEvent(tick=0, channel=4, data=[80, 80]),\n",
      "   midi.NoteOffEvent(tick=96, channel=4, data=[80, 0]),\n",
      "   midi.NoteOnEvent(tick=0, channel=4, data=[81, 80]),\n",
      "   midi.NoteOffEvent(tick=96, channel=4, data=[81, 0]),\n",
      "   midi.NoteOnEvent(tick=0, channel=4, data=[76, 80]),\n",
      "   midi.NoteOffEvent(tick=96, channel=4, data=[76, 0]),\n",
      "   midi.NoteOnEvent(tick=0, channel=4, data=[74, 80]),\n",
      "   midi.NoteOffEvent(tick=96, channel=4, data=[74, 0]),\n",
      "   midi.NoteOnEvent(tick=0, channel=4, data=[73, 80]),\n",
      "   midi.NoteOffEvent(tick=96, channel=4, data=[73, 0]),\n",
      "   midi.NoteOnEvent(tick=0, channel=4, data=[74, 80]),\n",
      "   midi.NoteOffEvent(tick=96, channel=4, data=[74, 0]),\n",
      "   midi.NoteOnEvent(tick=0, channel=4, data=[73, 80]),\n",
      "   midi.NoteOffEvent(tick=96, channel=4, data=[73, 0]),\n",
      "   midi.NoteOnEvent(tick=0, channel=4, data=[71, 80]),\n",
      "   midi.NoteOffEvent(tick=96, channel=4, data=[71, 0]),\n",
      "   midi.NoteOnEvent(tick=0, channel=4, data=[73, 80]),\n",
      "   midi.NoteOffEvent(tick=96, channel=4, data=[73, 0]),\n",
      "   midi.NoteOnEvent(tick=0, channel=4, data=[69, 80]),\n",
      "   midi.NoteOffEvent(tick=192, channel=4, data=[69, 0]),\n",
      "   midi.NoteOnEvent(tick=0, channel=4, data=[57, 80]),\n",
      "   midi.NoteOffEvent(tick=192, channel=4, data=[57, 0]),\n",
      "   midi.NoteOnEvent(tick=0, channel=4, data=[61, 80]),\n",
      "   midi.NoteOffEvent(tick=192, channel=4, data=[61, 0]),\n",
      "   midi.NoteOnEvent(tick=0, channel=4, data=[64, 80]),\n",
      "   midi.NoteOffEvent(tick=192, channel=4, data=[64, 0]),\n",
      "   midi.NoteOnEvent(tick=0, channel=4, data=[69, 80]),\n",
      "   midi.NoteOffEvent(tick=192, channel=4, data=[69, 0]),\n",
      "   midi.NoteOnEvent(tick=0, channel=4, data=[67, 80]),\n",
      "   midi.NoteOffEvent(tick=96, channel=4, data=[67, 0]),\n",
      "   midi.NoteOnEvent(tick=0, channel=4, data=[66, 80]),\n",
      "   midi.NoteOffEvent(tick=96, channel=4, data=[66, 0]),\n",
      "   midi.NoteOnEvent(tick=0, channel=4, data=[64, 80]),\n",
      "   midi.NoteOffEvent(tick=96, channel=4, data=[64, 0]),\n",
      "   midi.NoteOnEvent(tick=0, channel=4, data=[62, 80]),\n",
      "   midi.NoteOffEvent(tick=96, channel=4, data=[62, 0]),\n",
      "   midi.NoteOnEvent(tick=0, channel=4, data=[61, 80]),\n",
      "   midi.NoteOffEvent(tick=96, channel=4, data=[61, 0]),\n",
      "   midi.NoteOnEvent(tick=0, channel=4, data=[59, 80]),\n",
      "   midi.NoteOffEvent(tick=96, channel=4, data=[59, 0]),\n",
      "   midi.NoteOnEvent(tick=0, channel=4, data=[58, 80]),\n",
      "   midi.NoteOffEvent(tick=192, channel=4, data=[58, 0]),\n",
      "   midi.NoteOnEvent(tick=0, channel=4, data=[58, 80]),\n",
      "   midi.NoteOffEvent(tick=192, channel=4, data=[58, 0]),\n",
      "   midi.NoteOnEvent(tick=0, channel=4, data=[61, 80]),\n",
      "   midi.NoteOffEvent(tick=192, channel=4, data=[61, 0]),\n",
      "   midi.NoteOnEvent(tick=0, channel=4, data=[64, 80]),\n",
      "   midi.NoteOffEvent(tick=192, channel=4, data=[64, 0]),\n",
      "   midi.NoteOnEvent(tick=0, channel=4, data=[70, 80]),\n",
      "   midi.NoteOffEvent(tick=192, channel=4, data=[70, 0]),\n",
      "   midi.NoteOnEvent(tick=0, channel=4, data=[73, 80]),\n",
      "   midi.NoteOffEvent(tick=192, channel=4, data=[73, 0]),\n",
      "   midi.NoteOnEvent(tick=0, channel=4, data=[70, 80]),\n",
      "   midi.NoteOffEvent(tick=192, channel=4, data=[70, 0]),\n",
      "   midi.NoteOnEvent(tick=0, channel=4, data=[66, 80]),\n",
      "   midi.NoteOffEvent(tick=192, channel=4, data=[66, 0]),\n",
      "   midi.NoteOnEvent(tick=192, channel=4, data=[71, 80]),\n",
      "   midi.NoteOffEvent(tick=192, channel=4, data=[71, 0]),\n",
      "   midi.NoteOnEvent(tick=0, channel=4, data=[66, 80]),\n",
      "   midi.NoteOffEvent(tick=96, channel=4, data=[66, 0]),\n",
      "   midi.NoteOnEvent(tick=0, channel=4, data=[64, 80]),\n",
      "   midi.NoteOffEvent(tick=96, channel=4, data=[64, 0]),\n",
      "   midi.NoteOnEvent(tick=0, channel=4, data=[62, 80]),\n",
      "   midi.NoteOffEvent(tick=96, channel=4, data=[62, 0]),\n",
      "   midi.NoteOnEvent(tick=0, channel=4, data=[61, 80]),\n",
      "   midi.NoteOffEvent(tick=96, channel=4, data=[61, 0]),\n",
      "   midi.NoteOnEvent(tick=0, channel=4, data=[59, 80]),\n",
      "   midi.NoteOffEvent(tick=192, channel=4, data=[59, 0]),\n",
      "   midi.NoteOnEvent(tick=0, channel=4, data=[63, 80]),\n",
      "   midi.NoteOffEvent(tick=192, channel=4, data=[63, 0]),\n",
      "   midi.NoteOnEvent(tick=0, channel=4, data=[66, 80]),\n",
      "   midi.NoteOffEvent(tick=192, channel=4, data=[66, 0]),\n",
      "   midi.NoteOnEvent(tick=0, channel=4, data=[69, 80]),\n",
      "   midi.NoteOffEvent(tick=192, channel=4, data=[69, 0]),\n",
      "   midi.NoteOnEvent(tick=0, channel=4, data=[72, 80]),\n",
      "   midi.NoteOffEvent(tick=96, channel=4, data=[72, 0]),\n",
      "   midi.NoteOnEvent(tick=0, channel=4, data=[74, 80]),\n",
      "   midi.NoteOffEvent(tick=96, channel=4, data=[74, 0]),\n",
      "   midi.NoteOnEvent(tick=0, channel=4, data=[72, 80]),\n",
      "   midi.NoteOffEvent(tick=96, channel=4, data=[72, 0]),\n",
      "   midi.NoteOnEvent(tick=0, channel=4, data=[71, 80]),\n",
      "   midi.NoteOffEvent(tick=96, channel=4, data=[71, 0]),\n",
      "   midi.NoteOnEvent(tick=0, channel=4, data=[69, 80]),\n",
      "   midi.NoteOffEvent(tick=96, channel=4, data=[69, 0]),\n",
      "   midi.NoteOnEvent(tick=0, channel=4, data=[67, 80]),\n",
      "   midi.NoteOffEvent(tick=96, channel=4, data=[67, 0]),\n",
      "   midi.NoteOnEvent(tick=0, channel=4, data=[66, 80]),\n",
      "   midi.NoteOffEvent(tick=96, channel=4, data=[66, 0]),\n",
      "   midi.NoteOnEvent(tick=0, channel=4, data=[64, 80]),\n",
      "   midi.NoteOffEvent(tick=96, channel=4, data=[64, 0]),\n",
      "   midi.NoteOnEvent(tick=0, channel=4, data=[63, 80]),\n",
      "   midi.NoteOffEvent(tick=192, channel=4, data=[63, 0]),\n",
      "   midi.NoteOnEvent(tick=0, channel=4, data=[78, 80]),\n",
      "   midi.NoteOffEvent(tick=192, channel=4, data=[78, 0]),\n",
      "   midi.NoteOnEvent(tick=0, channel=4, data=[75, 80]),\n",
      "   midi.NoteOffEvent(tick=192, channel=4, data=[75, 0]),\n",
      "   midi.NoteOnEvent(tick=0, channel=4, data=[71, 80]),\n",
      "   midi.NoteOffEvent(tick=192, channel=4, data=[71, 0]),\n",
      "   midi.NoteOnEvent(tick=192, channel=4, data=[76, 80]),\n",
      "   midi.NoteOffEvent(tick=192, channel=4, data=[76, 0]),\n",
      "   midi.NoteOnEvent(tick=0, channel=4, data=[71, 80]),\n",
      "   midi.NoteOffEvent(tick=96, channel=4, data=[71, 0]),\n",
      "   midi.NoteOnEvent(tick=0, channel=4, data=[69, 80]),\n",
      "   midi.NoteOffEvent(tick=96, channel=4, data=[69, 0]),\n",
      "   midi.NoteOnEvent(tick=0, channel=4, data=[67, 80]),\n",
      "   midi.NoteOffEvent(tick=96, channel=4, data=[67, 0]),\n",
      "   midi.NoteOnEvent(tick=0, channel=4, data=[66, 80]),\n",
      "   midi.NoteOffEvent(tick=96, channel=4, data=[66, 0]),\n",
      "   midi.NoteOnEvent(tick=0, channel=4, data=[64, 80]),\n",
      "   midi.NoteOffEvent(tick=192, channel=4, data=[64, 0]),\n",
      "   midi.NoteOnEvent(tick=0, channel=4, data=[79, 80]),\n",
      "   midi.NoteOffEvent(tick=96, channel=4, data=[79, 0]),\n",
      "   midi.NoteOnEvent(tick=0, channel=4, data=[78, 80]),\n",
      "   midi.NoteOffEvent(tick=96, channel=4, data=[78, 0]),\n",
      "   midi.NoteOnEvent(tick=0, channel=4, data=[76, 80]),\n",
      "   midi.NoteOffEvent(tick=96, channel=4, data=[76, 0]),\n",
      "   midi.NoteOnEvent(tick=0, channel=4, data=[74, 80]),\n",
      "   midi.NoteOffEvent(tick=96, channel=4, data=[74, 0]),\n",
      "   midi.NoteOnEvent(tick=0, channel=4, data=[73, 80]),\n",
      "   midi.NoteOffEvent(tick=96, channel=4, data=[73, 0]),\n",
      "   midi.NoteOnEvent(tick=0, channel=4, data=[74, 80]),\n",
      "   midi.NoteOffEvent(tick=96, channel=4, data=[74, 0]),\n",
      "   midi.NoteOnEvent(tick=0, channel=4, data=[76, 80]),\n",
      "   midi.NoteOffEvent(tick=384, channel=4, data=[76, 0]),\n",
      "   midi.NoteOnEvent(tick=576, channel=4, data=[78, 80]),\n",
      "   midi.NoteOffEvent(tick=96, channel=4, data=[78, 0]),\n",
      "   midi.NoteOnEvent(tick=0, channel=4, data=[76, 80]),\n",
      "   midi.NoteOffEvent(tick=96, channel=4, data=[76, 0]),\n",
      "   midi.NoteOnEvent(tick=0, channel=4, data=[74, 80]),\n",
      "   midi.NoteOffEvent(tick=96, channel=4, data=[74, 0]),\n",
      "   midi.NoteOnEvent(tick=0, channel=4, data=[73, 80]),\n",
      "   midi.NoteOffEvent(tick=96, channel=4, data=[73, 0]),\n",
      "   midi.NoteOnEvent(tick=0, channel=4, data=[71, 80]),\n",
      "   midi.NoteOffEvent(tick=96, channel=4, data=[71, 0]),\n",
      "   midi.NoteOnEvent(tick=0, channel=4, data=[73, 80]),\n",
      "   midi.NoteOffEvent(tick=96, channel=4, data=[73, 0]),\n",
      "   midi.NoteOnEvent(tick=0, channel=4, data=[74, 80]),\n",
      "   midi.NoteOffEvent(tick=384, channel=4, data=[74, 0]),\n",
      "   midi.NoteOnEvent(tick=576, channel=4, data=[69, 80]),\n",
      "   midi.NoteOffEvent(tick=384, channel=4, data=[69, 0]),\n",
      "   midi.NoteOnEvent(tick=0, channel=4, data=[73, 80]),\n",
      "   midi.NoteOffEvent(tick=384, channel=4, data=[73, 0]),\n",
      "   midi.NoteOnEvent(tick=0, channel=4, data=[76, 80]),\n",
      "   midi.NoteOffEvent(tick=192, channel=4, data=[76, 0]),\n",
      "   midi.NoteOnEvent(tick=0, channel=4, data=[69, 80]),\n",
      "   midi.NoteOffEvent(tick=192, channel=4, data=[69, 0]),\n",
      "   midi.NoteOnEvent(tick=0, channel=4, data=[73, 80]),\n",
      "   midi.NoteOffEvent(tick=192, channel=4, data=[73, 0]),\n",
      "   midi.NoteOnEvent(tick=0, channel=4, data=[74, 80]),\n",
      "   midi.NoteOffEvent(tick=192, channel=4, data=[74, 0]),\n",
      "   midi.NoteOnEvent(tick=0, channel=4, data=[74, 80]),\n",
      "   midi.NoteOffEvent(tick=192, channel=4, data=[74, 0]),\n",
      "   midi.NoteOnEvent(tick=0, channel=4, data=[74, 80]),\n",
      "   midi.NoteOffEvent(tick=192, channel=4, data=[74, 0]),\n",
      "   midi.NoteOnEvent(tick=0, channel=4, data=[69, 80]),\n",
      "   midi.NoteOffEvent(tick=192, channel=4, data=[69, 0]),\n",
      "   midi.NoteOnEvent(tick=0, channel=4, data=[66, 80]),\n",
      "   midi.NoteOffEvent(tick=384, channel=4, data=[66, 0]),\n",
      "   midi.NoteOnEvent(tick=384, channel=4, data=[69, 80]),\n",
      "   midi.NoteOffEvent(tick=384, channel=4, data=[69, 0]),\n",
      "   midi.NoteOnEvent(tick=0, channel=4, data=[66, 80]),\n",
      "   midi.NoteOffEvent(tick=384, channel=4, data=[66, 0]),\n",
      "   midi.NoteOnEvent(tick=0, channel=4, data=[62, 80]),\n",
      "   midi.NoteOffEvent(tick=512, channel=4, data=[62, 0]),\n",
      "   midi.NoteOnEvent(tick=64, channel=4, data=[66, 80]),\n",
      "   midi.NoteOffEvent(tick=192, channel=4, data=[66, 0]),\n",
      "   midi.NoteOnEvent(tick=0, channel=4, data=[69, 80]),\n",
      "   midi.NoteOffEvent(tick=192, channel=4, data=[69, 0]),\n",
      "   midi.NoteOnEvent(tick=0, channel=4, data=[67, 80]),\n",
      "   midi.NoteOffEvent(tick=192, channel=4, data=[67, 0]),\n",
      "   midi.NoteOnEvent(tick=0, channel=4, data=[66, 80]),\n",
      "   midi.NoteOffEvent(tick=192, channel=4, data=[66, 0]),\n",
      "   midi.NoteOnEvent(tick=0, channel=4, data=[69, 80]),\n",
      "   midi.NoteOffEvent(tick=192, channel=4, data=[69, 0]),\n",
      "   midi.NoteOnEvent(tick=0, channel=4, data=[67, 80]),\n",
      "   midi.NoteOffEvent(tick=192, channel=4, data=[67, 0]),\n",
      "   midi.NoteOnEvent(tick=0, channel=4, data=[66, 80]),\n",
      "   midi.NoteOffEvent(tick=192, channel=4, data=[66, 0]),\n",
      "   midi.NoteOnEvent(tick=0, channel=4, data=[67, 80]),\n",
      "   midi.NoteOffEvent(tick=192, channel=4, data=[67, 0]),\n",
      "   midi.NoteOnEvent(tick=0, channel=4, data=[62, 80]),\n",
      "   midi.NoteOffEvent(tick=192, channel=4, data=[62, 0]),\n",
      "   midi.NoteOnEvent(tick=0, channel=4, data=[67, 80]),\n",
      "   midi.NoteOffEvent(tick=96, channel=4, data=[67, 0]),\n",
      "   midi.NoteOnEvent(tick=0, channel=4, data=[66, 80]),\n",
      "   midi.NoteOffEvent(tick=96, channel=4, data=[66, 0]),\n",
      "   midi.NoteOnEvent(tick=0, channel=4, data=[64, 80]),\n",
      "   midi.NoteOffEvent(tick=96, channel=4, data=[64, 0]),\n",
      "   midi.NoteOnEvent(tick=0, channel=4, data=[62, 80]),\n",
      "   midi.NoteOffEvent(tick=96, channel=4, data=[62, 0]),\n",
      "   midi.NoteOnEvent(tick=0, channel=4, data=[61, 80]),\n",
      "   midi.NoteOffEvent(tick=96, channel=4, data=[61, 0]),\n",
      "   midi.NoteOnEvent(tick=0, channel=4, data=[62, 80]),\n",
      "   midi.NoteOffEvent(tick=96, channel=4, data=[62, 0]),\n",
      "   midi.NoteOnEvent(tick=0, channel=4, data=[64, 80]),\n",
      "   midi.NoteOffEvent(tick=192, channel=4, data=[64, 0]),\n",
      "   midi.NoteOnEvent(tick=0, channel=4, data=[64, 80]),\n",
      "   midi.NoteOffEvent(tick=480, channel=4, data=[64, 0]),\n",
      "   midi.NoteOnEvent(tick=0, channel=4, data=[67, 80]),\n",
      "   midi.NoteOffEvent(tick=96, channel=4, data=[67, 0]),\n",
      "   midi.NoteOnEvent(tick=0, channel=4, data=[66, 80]),\n",
      "   midi.NoteOffEvent(tick=96, channel=4, data=[66, 0]),\n",
      "   midi.NoteOnEvent(tick=0, channel=4, data=[64, 80]),\n",
      "   midi.NoteOffEvent(tick=96, channel=4, data=[64, 0]),\n",
      "   midi.NoteOnEvent(tick=0, channel=4, data=[69, 80]),\n",
      "   midi.NoteOffEvent(tick=192, channel=4, data=[69, 0]),\n",
      "   midi.NoteOnEvent(tick=0, channel=4, data=[66, 80]),\n",
      "   midi.NoteOffEvent(tick=192, channel=4, data=[66, 0]),\n",
      "   midi.NoteOnEvent(tick=0, channel=4, data=[71, 80]),\n",
      "   midi.NoteOffEvent(tick=192, channel=4, data=[71, 0]),\n",
      "   midi.NoteOnEvent(tick=0, channel=4, data=[69, 80]),\n",
      "   midi.NoteOffEvent(tick=192, channel=4, data=[69, 0]),\n",
      "   midi.NoteOnEvent(tick=0, channel=4, data=[69, 80]),\n",
      "   midi.NoteOffEvent(tick=192, channel=4, data=[69, 0]),\n",
      "   midi.NoteOnEvent(tick=0, channel=4, data=[67, 80]),\n",
      "   midi.NoteOffEvent(tick=192, channel=4, data=[67, 0]),\n",
      "   midi.NoteOnEvent(tick=0, channel=4, data=[66, 80]),\n",
      "   midi.NoteOffEvent(tick=384, channel=4, data=[66, 0]),\n",
      "   midi.NoteOnEvent(tick=0, channel=4, data=[62, 80]),\n",
      "   midi.NoteOffEvent(tick=192, channel=4, data=[62, 0]),\n",
      "   midi.NoteOnEvent(tick=0, channel=4, data=[74, 80]),\n",
      "   midi.NoteOffEvent(tick=192, channel=4, data=[74, 0]),\n",
      "   midi.NoteOnEvent(tick=0, channel=4, data=[73, 80]),\n",
      "   midi.NoteOffEvent(tick=192, channel=4, data=[73, 0]),\n",
      "   midi.NoteOnEvent(tick=0, channel=4, data=[69, 80]),\n",
      "   midi.NoteOffEvent(tick=192, channel=4, data=[69, 0]),\n",
      "   midi.NoteOnEvent(tick=0, channel=4, data=[74, 80]),\n",
      "   midi.NoteOffEvent(tick=192, channel=4, data=[74, 0]),\n",
      "   midi.NoteOnEvent(tick=0, channel=4, data=[73, 80]),\n",
      "   midi.NoteOffEvent(tick=96, channel=4, data=[73, 0]),\n",
      "   midi.NoteOnEvent(tick=0, channel=4, data=[71, 80]),\n",
      "   midi.NoteOffEvent(tick=96, channel=4, data=[71, 0]),\n",
      "   midi.NoteOnEvent(tick=0, channel=4, data=[69, 80]),\n",
      "   midi.NoteOffEvent(tick=96, channel=4, data=[69, 0]),\n",
      "   midi.NoteOnEvent(tick=0, channel=4, data=[67, 80]),\n",
      "   midi.NoteOffEvent(tick=96, channel=4, data=[67, 0]),\n",
      "   midi.NoteOnEvent(tick=0, channel=4, data=[66, 80]),\n",
      "   midi.NoteOffEvent(tick=96, channel=4, data=[66, 0]),\n",
      "   midi.NoteOnEvent(tick=0, channel=4, data=[64, 80]),\n",
      "   midi.NoteOffEvent(tick=96, channel=4, data=[64, 0]),\n",
      "   midi.NoteOnEvent(tick=0, channel=4, data=[62, 80]),\n",
      "   midi.NoteOffEvent(tick=192, channel=4, data=[62, 0]),\n",
      "   midi.NoteOnEvent(tick=672, channel=4, data=[74, 80]),\n",
      "   midi.NoteOffEvent(tick=96, channel=4, data=[74, 0]),\n",
      "   midi.NoteOnEvent(tick=0, channel=4, data=[73, 80]),\n",
      "   midi.NoteOffEvent(tick=96, channel=4, data=[73, 0]),\n",
      "   midi.NoteOnEvent(tick=0, channel=4, data=[71, 80]),\n",
      "   midi.NoteOffEvent(tick=96, channel=4, data=[71, 0]),\n",
      "   midi.NoteOnEvent(tick=0, channel=4, data=[69, 80]),\n",
      "   midi.NoteOffEvent(tick=96, channel=4, data=[69, 0]),\n",
      "   midi.NoteOnEvent(tick=0, channel=4, data=[67, 80]),\n",
      "   midi.NoteOffEvent(tick=96, channel=4, data=[67, 0]),\n",
      "   midi.NoteOnEvent(tick=0, channel=4, data=[66, 80]),\n",
      "   midi.NoteOffEvent(tick=96, channel=4, data=[66, 0]),\n",
      "   midi.NoteOnEvent(tick=0, channel=4, data=[64, 80]),\n",
      "   midi.NoteOffEvent(tick=96, channel=4, data=[64, 0]),\n",
      "   midi.NoteOnEvent(tick=0, channel=4, data=[62, 80]),\n",
      "   midi.NoteOffEvent(tick=192, channel=4, data=[62, 0]),\n",
      "   midi.NoteOnEvent(tick=0, channel=4, data=[69, 80]),\n",
      "   midi.NoteOffEvent(tick=256, channel=4, data=[69, 0]),\n",
      "   midi.NoteOnEvent(tick=32, channel=4, data=[67, 80]),\n",
      "   midi.NoteOffEvent(tick=96, channel=4, data=[67, 0]),\n",
      "   midi.NoteOnEvent(tick=0, channel=4, data=[66, 80]),\n",
      "   midi.NoteOffEvent(tick=256, channel=4, data=[66, 0]),\n",
      "   midi.NoteOnEvent(tick=32, channel=4, data=[64, 80]),\n",
      "   midi.NoteOffEvent(tick=96, channel=4, data=[64, 0]),\n",
      "   midi.NoteOnEvent(tick=0, channel=4, data=[62, 80]),\n",
      "   midi.NoteOffEvent(tick=256, channel=4, data=[62, 0]),\n",
      "   midi.NoteOnEvent(tick=32, channel=4, data=[66, 80]),\n",
      "   midi.NoteOffEvent(tick=96, channel=4, data=[66, 0]),\n",
      "   midi.NoteOnEvent(tick=0, channel=4, data=[71, 80]),\n",
      "   midi.NoteOffEvent(tick=192, channel=4, data=[71, 0]),\n",
      "   midi.NoteOnEvent(tick=0, channel=4, data=[71, 80]),\n",
      "   midi.NoteOffEvent(tick=480, channel=4, data=[71, 0]),\n",
      "   midi.NoteOnEvent(tick=0, channel=4, data=[69, 80]),\n",
      "   midi.NoteOffEvent(tick=96, channel=4, data=[69, 0]),\n",
      "   midi.NoteOnEvent(tick=0, channel=4, data=[71, 80]),\n",
      "   midi.NoteOffEvent(tick=96, channel=4, data=[71, 0]),\n",
      "   midi.NoteOnEvent(tick=0, channel=4, data=[67, 80]),\n",
      "   midi.NoteOffEvent(tick=96, channel=4, data=[67, 0]),\n",
      "   midi.NoteOnEvent(tick=0, channel=4, data=[64, 80]),\n",
      "   midi.NoteOffEvent(tick=480, channel=4, data=[64, 0]),\n",
      "   midi.NoteOnEvent(tick=0, channel=4, data=[57, 80]),\n",
      "   midi.NoteOffEvent(tick=96, channel=4, data=[57, 0]),\n",
      "   midi.NoteOnEvent(tick=0, channel=4, data=[59, 80]),\n",
      "   midi.NoteOffEvent(tick=96, channel=4, data=[59, 0]),\n",
      "   midi.NoteOnEvent(tick=0, channel=4, data=[61, 80]),\n",
      "   midi.NoteOffEvent(tick=96, channel=4, data=[61, 0]),\n",
      "   midi.NoteOnEvent(tick=0, channel=4, data=[62, 80]),\n",
      "   midi.NoteOffEvent(tick=192, channel=4, data=[62, 0]),\n",
      "   midi.NoteOnEvent(tick=0, channel=4, data=[74, 80]),\n",
      "   midi.NoteOffEvent(tick=192, channel=4, data=[74, 0]),\n",
      "   midi.NoteOnEvent(tick=0, channel=4, data=[71, 80]),\n",
      "   midi.NoteOffEvent(tick=192, channel=4, data=[71, 0]),\n",
      "   midi.NoteOnEvent(tick=0, channel=4, data=[66, 80]),\n",
      "   midi.NoteOffEvent(tick=192, channel=4, data=[66, 0]),\n",
      "   midi.NoteOnEvent(tick=0, channel=4, data=[68, 80]),\n",
      "   midi.NoteOffEvent(tick=192, channel=4, data=[68, 0]),\n",
      "   midi.NoteOnEvent(tick=0, channel=4, data=[78, 80]),\n",
      "   midi.NoteOffEvent(tick=384, channel=4, data=[78, 0]),\n",
      "   midi.NoteOnEvent(tick=0, channel=4, data=[76, 80]),\n",
      "   midi.NoteOffEvent(tick=96, channel=4, data=[76, 0]),\n",
      "   midi.NoteOnEvent(tick=0, channel=4, data=[74, 80]),\n",
      "   midi.NoteOffEvent(tick=96, channel=4, data=[74, 0]),\n",
      "   midi.NoteOnEvent(tick=0, channel=4, data=[76, 80]),\n",
      "   midi.NoteOffEvent(tick=192, channel=4, data=[76, 0]),\n",
      "   midi.NoteOnEvent(tick=0, channel=4, data=[73, 80]),\n",
      "   midi.NoteOffEvent(tick=192, channel=4, data=[73, 0]),\n",
      "   midi.NoteOnEvent(tick=0, channel=4, data=[69, 80]),\n",
      "   midi.NoteOffEvent(tick=192, channel=4, data=[69, 0]),\n",
      "   midi.NoteOnEvent(tick=0, channel=4, data=[64, 80]),\n",
      "   midi.NoteOffEvent(tick=192, channel=4, data=[64, 0]),\n",
      "   midi.NoteOnEvent(tick=0, channel=4, data=[66, 80]),\n",
      "   midi.NoteOffEvent(tick=192, channel=4, data=[66, 0]),\n",
      "   midi.NoteOnEvent(tick=0, channel=4, data=[76, 80]),\n",
      "   midi.NoteOffEvent(tick=384, channel=4, data=[76, 0]),\n",
      "   midi.NoteOnEvent(tick=0, channel=4, data=[74, 80]),\n",
      "   midi.NoteOffEvent(tick=96, channel=4, data=[74, 0]),\n",
      "   midi.NoteOnEvent(tick=0, channel=4, data=[73, 80]),\n",
      "   midi.NoteOffEvent(tick=96, channel=4, data=[73, 0]),\n",
      "   midi.NoteOnEvent(tick=0, channel=4, data=[71, 80]),\n",
      "   midi.NoteOffEvent(tick=96, channel=4, data=[71, 0]),\n",
      "   midi.NoteOnEvent(tick=0, channel=4, data=[73, 80]),\n",
      "   midi.NoteOffEvent(tick=96, channel=4, data=[73, 0]),\n",
      "   midi.NoteOnEvent(tick=0, channel=4, data=[71, 80]),\n",
      "   midi.NoteOffEvent(tick=96, channel=4, data=[71, 0]),\n",
      "   midi.NoteOnEvent(tick=96, channel=4, data=[71, 80]),\n",
      "   midi.NoteOffEvent(tick=96, channel=4, data=[71, 0]),\n",
      "   midi.NoteOnEvent(tick=96, channel=4, data=[71, 80]),\n",
      "   midi.NoteOffEvent(tick=96, channel=4, data=[71, 0]),\n",
      "   midi.NoteOnEvent(tick=96, channel=4, data=[83, 80]),\n",
      "   midi.NoteOffEvent(tick=384, channel=4, data=[83, 0]),\n",
      "   midi.NoteOnEvent(tick=192, channel=4, data=[81, 80]),\n",
      "   midi.NoteOffEvent(tick=96, channel=4, data=[81, 0]),\n",
      "   midi.NoteOnEvent(tick=0, channel=4, data=[80, 80]),\n",
      "   midi.NoteOffEvent(tick=96, channel=4, data=[80, 0]),\n",
      "   midi.NoteOnEvent(tick=0, channel=4, data=[81, 80]),\n",
      "   midi.NoteOffEvent(tick=96, channel=4, data=[81, 0]),\n",
      "   midi.NoteOnEvent(tick=0, channel=4, data=[76, 80]),\n",
      "   midi.NoteOffEvent(tick=96, channel=4, data=[76, 0]),\n",
      "   midi.NoteOnEvent(tick=0, channel=4, data=[74, 80]),\n",
      "   midi.NoteOffEvent(tick=96, channel=4, data=[74, 0]),\n",
      "   midi.NoteOnEvent(tick=0, channel=4, data=[73, 80]),\n",
      "   midi.NoteOffEvent(tick=96, channel=4, data=[73, 0]),\n",
      "   midi.NoteOnEvent(tick=0, channel=4, data=[74, 80]),\n",
      "   midi.NoteOffEvent(tick=96, channel=4, data=[74, 0]),\n",
      "   midi.NoteOnEvent(tick=0, channel=4, data=[73, 80]),\n",
      "   midi.NoteOffEvent(tick=96, channel=4, data=[73, 0]),\n",
      "   midi.NoteOnEvent(tick=0, channel=4, data=[71, 80]),\n",
      "   midi.NoteOffEvent(tick=96, channel=4, data=[71, 0]),\n",
      "   midi.NoteOnEvent(tick=0, channel=4, data=[73, 80]),\n",
      "   midi.NoteOffEvent(tick=96, channel=4, data=[73, 0]),\n",
      "   midi.NoteOnEvent(tick=2112, channel=4, data=[59, 80]),\n",
      "   midi.NoteOffEvent(tick=192, channel=4, data=[59, 0]),\n",
      "   midi.NoteOnEvent(tick=0, channel=4, data=[64, 80]),\n",
      "   midi.NoteOffEvent(tick=192, channel=4, data=[64, 0]),\n",
      "   midi.NoteOnEvent(tick=0, channel=4, data=[69, 80]),\n",
      "   midi.NoteOffEvent(tick=384, channel=4, data=[69, 0]),\n",
      "   midi.NoteOnEvent(tick=0, channel=4, data=[68, 80]),\n",
      "   midi.NoteOffEvent(tick=192, channel=4, data=[68, 0]),\n",
      "   midi.NoteOnEvent(tick=0, channel=4, data=[69, 80]),\n",
      "   midi.NoteOffEvent(tick=192, channel=4, data=[69, 0]),\n",
      "   midi.NoteOnEvent(tick=0, channel=4, data=[68, 80]),\n",
      "   midi.NoteOffEvent(tick=192, channel=4, data=[68, 0]),\n",
      "   midi.NoteOnEvent(tick=0, channel=4, data=[69, 80]),\n",
      "   midi.NoteOffEvent(tick=192, channel=4, data=[69, 0]),\n",
      "   midi.NoteOnEvent(tick=1536, channel=4, data=[64, 80]),\n",
      "   midi.NoteOffEvent(tick=192, channel=4, data=[64, 0]),\n",
      "   midi.NoteOnEvent(tick=0, channel=4, data=[69, 80]),\n",
      "   midi.NoteOffEvent(tick=192, channel=4, data=[69, 0]),\n",
      "   midi.NoteOnEvent(tick=0, channel=4, data=[74, 80]),\n",
      "   midi.NoteOffEvent(tick=384, channel=4, data=[74, 0]),\n",
      "   midi.NoteOnEvent(tick=0, channel=4, data=[73, 80]),\n",
      "   midi.NoteOffEvent(tick=192, channel=4, data=[73, 0]),\n",
      "   midi.NoteOnEvent(tick=0, channel=4, data=[74, 80]),\n",
      "   midi.NoteOffEvent(tick=192, channel=4, data=[74, 0]),\n",
      "   midi.NoteOnEvent(tick=0, channel=4, data=[73, 80]),\n",
      "   midi.NoteOffEvent(tick=192, channel=4, data=[73, 0]),\n",
      "   midi.NoteOnEvent(tick=0, channel=4, data=[74, 80]),\n",
      "   midi.NoteOffEvent(tick=192, channel=4, data=[74, 0]),\n",
      "   midi.NoteOnEvent(tick=3264, channel=4, data=[69, 80]),\n",
      "   midi.NoteOffEvent(tick=96, channel=4, data=[69, 0]),\n",
      "   midi.NoteOnEvent(tick=0, channel=4, data=[71, 80]),\n",
      "   midi.NoteOffEvent(tick=96, channel=4, data=[71, 0]),\n",
      "   midi.NoteOnEvent(tick=0, channel=4, data=[73, 80]),\n",
      "   midi.NoteOffEvent(tick=96, channel=4, data=[73, 0]),\n",
      "   midi.NoteOnEvent(tick=96, channel=4, data=[73, 80]),\n",
      "   midi.NoteOffEvent(tick=96, channel=4, data=[73, 0]),\n",
      "   midi.NoteOnEvent(tick=96, channel=4, data=[74, 80]),\n",
      "   midi.NoteOffEvent(tick=96, channel=4, data=[74, 0]),\n",
      "   midi.NoteOnEvent(tick=96, channel=4, data=[73, 80]),\n",
      "   midi.NoteOffEvent(tick=512, channel=4, data=[73, 0]),\n",
      "   midi.NoteOnEvent(tick=64, channel=4, data=[61, 80]),\n",
      "   midi.NoteOffEvent(tick=192, channel=4, data=[61, 0]),\n",
      "   midi.NoteOnEvent(tick=0, channel=4, data=[66, 80]),\n",
      "   midi.NoteOffEvent(tick=192, channel=4, data=[66, 0]),\n",
      "   midi.NoteOnEvent(tick=0, channel=4, data=[59, 80]),\n",
      "   midi.NoteOffEvent(tick=384, channel=4, data=[59, 0]),\n",
      "   midi.NoteOnEvent(tick=0, channel=4, data=[64, 80]),\n",
      "   midi.NoteOffEvent(tick=192, channel=4, data=[64, 0]),\n",
      "   midi.NoteOnEvent(tick=0, channel=4, data=[64, 80]),\n",
      "   midi.NoteOffEvent(tick=96, channel=4, data=[64, 0]),\n",
      "   midi.NoteOnEvent(tick=0, channel=4, data=[69, 80]),\n",
      "   midi.NoteOffEvent(tick=96, channel=4, data=[69, 0]),\n",
      "   midi.NoteOnEvent(tick=0, channel=4, data=[68, 80]),\n",
      "   midi.NoteOffEvent(tick=96, channel=4, data=[68, 0]),\n",
      "   midi.NoteOnEvent(tick=0, channel=4, data=[66, 80]),\n",
      "   midi.NoteOffEvent(tick=96, channel=4, data=[66, 0]),\n",
      "   midi.NoteOnEvent(tick=0, channel=4, data=[64, 80]),\n",
      "   midi.NoteOffEvent(tick=96, channel=4, data=[64, 0]),\n",
      "   midi.NoteOnEvent(tick=0, channel=4, data=[62, 80]),\n",
      "   midi.NoteOffEvent(tick=96, channel=4, data=[62, 0]),\n",
      "   midi.NoteOnEvent(tick=0, channel=4, data=[61, 80]),\n",
      "   midi.NoteOffEvent(tick=96, channel=4, data=[61, 0]),\n",
      "   midi.NoteOnEvent(tick=0, channel=4, data=[59, 80]),\n",
      "   midi.NoteOffEvent(tick=96, channel=4, data=[59, 0]),\n",
      "   midi.NoteOnEvent(tick=0, channel=4, data=[57, 80]),\n",
      "   midi.NoteOffEvent(tick=192, channel=4, data=[57, 0]),\n",
      "   midi.NoteOnEvent(tick=0, channel=4, data=[69, 80]),\n",
      "   midi.NoteOffEvent(tick=192, channel=4, data=[69, 0]),\n",
      "   midi.NoteOnEvent(tick=0, channel=4, data=[68, 80]),\n",
      "   midi.NoteOffEvent(tick=192, channel=4, data=[68, 0]),\n",
      "   midi.NoteOnEvent(tick=0, channel=4, data=[64, 80]),\n",
      "   midi.NoteOffEvent(tick=192, channel=4, data=[64, 0]),\n",
      "   midi.NoteOnEvent(tick=0, channel=4, data=[69, 80]),\n",
      "   midi.NoteOffEvent(tick=192, channel=4, data=[69, 0]),\n",
      "   midi.NoteOnEvent(tick=0, channel=4, data=[68, 80]),\n",
      "   midi.NoteOffEvent(tick=96, channel=4, data=[68, 0]),\n",
      "   midi.NoteOnEvent(tick=0, channel=4, data=[66, 80]),\n",
      "   midi.NoteOffEvent(tick=96, channel=4, data=[66, 0]),\n",
      "   midi.NoteOnEvent(tick=0, channel=4, data=[64, 80]),\n",
      "   midi.NoteOffEvent(tick=96, channel=4, data=[64, 0]),\n",
      "   midi.NoteOnEvent(tick=0, channel=4, data=[62, 80]),\n",
      "   midi.NoteOffEvent(tick=96, channel=4, data=[62, 0]),\n",
      "   midi.NoteOnEvent(tick=0, channel=4, data=[61, 80]),\n",
      "   midi.NoteOffEvent(tick=96, channel=4, data=[61, 0]),\n",
      "   midi.NoteOnEvent(tick=0, channel=4, data=[59, 80]),\n",
      "   midi.NoteOffEvent(tick=96, channel=4, data=[59, 0]),\n",
      "   midi.NoteOnEvent(tick=0, channel=4, data=[57, 80]),\n",
      "   midi.NoteOffEvent(tick=192, channel=4, data=[57, 0]),\n",
      "   midi.NoteOnEvent(tick=0, channel=4, data=[78, 80]),\n",
      "   midi.NoteOffEvent(tick=192, channel=4, data=[78, 0]),\n",
      "   midi.NoteOnEvent(tick=0, channel=4, data=[76, 80]),\n",
      "   midi.NoteOffEvent(tick=192, channel=4, data=[76, 0]),\n",
      "   midi.NoteOnEvent(tick=0, channel=4, data=[76, 80]),\n",
      "   midi.NoteOffEvent(tick=192, channel=4, data=[76, 0]),\n",
      "   midi.NoteOnEvent(tick=0, channel=4, data=[76, 80]),\n",
      "   midi.NoteOffEvent(tick=96, channel=4, data=[76, 0]),\n",
      "   midi.NoteOnEvent(tick=0, channel=4, data=[69, 80]),\n",
      "   midi.NoteOffEvent(tick=96, channel=4, data=[69, 0]),\n",
      "   midi.NoteOnEvent(tick=0, channel=4, data=[68, 80]),\n",
      "   midi.NoteOffEvent(tick=96, channel=4, data=[68, 0]),\n",
      "   midi.NoteOnEvent(tick=0, channel=4, data=[66, 80]),\n",
      "   midi.NoteOffEvent(tick=96, channel=4, data=[66, 0]),\n",
      "   midi.NoteOnEvent(tick=0, channel=4, data=[64, 80]),\n",
      "   midi.NoteOffEvent(tick=96, channel=4, data=[64, 0]),\n",
      "   midi.NoteOnEvent(tick=0, channel=4, data=[62, 80]),\n",
      "   midi.NoteOffEvent(tick=96, channel=4, data=[62, 0]),\n",
      "   midi.NoteOnEvent(tick=0, channel=4, data=[61, 80]),\n",
      "   midi.NoteOffEvent(tick=96, channel=4, data=[61, 0]),\n",
      "   midi.NoteOnEvent(tick=0, channel=4, data=[59, 80]),\n",
      "   midi.NoteOffEvent(tick=96, channel=4, data=[59, 0]),\n",
      "   midi.NoteOnEvent(tick=0, channel=4, data=[57, 80]),\n",
      "   midi.NoteOffEvent(tick=192, channel=4, data=[57, 0]),\n",
      "   midi.NoteOnEvent(tick=0, channel=4, data=[69, 80]),\n",
      "   midi.NoteOffEvent(tick=192, channel=4, data=[69, 0]),\n",
      "   midi.NoteOnEvent(tick=0, channel=4, data=[68, 80]),\n",
      "   midi.NoteOffEvent(tick=192, channel=4, data=[68, 0]),\n",
      "   midi.NoteOnEvent(tick=0, channel=4, data=[64, 80]),\n",
      "   midi.NoteOffEvent(tick=192, channel=4, data=[64, 0]),\n",
      "   midi.NoteOnEvent(tick=0, channel=4, data=[69, 80]),\n",
      "   midi.NoteOffEvent(tick=192, channel=4, data=[69, 0]),\n",
      "   midi.NoteOnEvent(tick=0, channel=4, data=[68, 80]),\n",
      "   midi.NoteOffEvent(tick=96, channel=4, data=[68, 0]),\n",
      "   midi.NoteOnEvent(tick=0, channel=4, data=[66, 80]),\n",
      "   midi.NoteOffEvent(tick=96, channel=4, data=[66, 0]),\n",
      "   midi.NoteOnEvent(tick=0, channel=4, data=[64, 80]),\n",
      "   midi.NoteOffEvent(tick=96, channel=4, data=[64, 0]),\n",
      "   midi.NoteOnEvent(tick=0, channel=4, data=[62, 80]),\n",
      "   midi.NoteOffEvent(tick=96, channel=4, data=[62, 0]),\n",
      "   midi.NoteOnEvent(tick=0, channel=4, data=[61, 80]),\n",
      "   midi.NoteOffEvent(tick=96, channel=4, data=[61, 0]),\n",
      "   midi.NoteOnEvent(tick=0, channel=4, data=[59, 80]),\n",
      "   midi.NoteOffEvent(tick=96, channel=4, data=[59, 0]),\n",
      "   midi.NoteOnEvent(tick=0, channel=4, data=[57, 80]),\n",
      "   midi.NoteOffEvent(tick=192, channel=4, data=[57, 0]),\n",
      "   midi.NoteOnEvent(tick=0, channel=4, data=[78, 80]),\n",
      "   midi.NoteOffEvent(tick=192, channel=4, data=[78, 0]),\n",
      "   midi.NoteOnEvent(tick=0, channel=4, data=[76, 80]),\n",
      "   midi.NoteOffEvent(tick=192, channel=4, data=[76, 0]),\n",
      "   midi.NoteOnEvent(tick=0, channel=4, data=[76, 80]),\n",
      "   midi.NoteOffEvent(tick=192, channel=4, data=[76, 0]),\n",
      "   midi.NoteOnEvent(tick=0, channel=4, data=[76, 80]),\n",
      "   midi.NoteOffEvent(tick=96, channel=4, data=[76, 0]),\n",
      "   midi.NoteOnEvent(tick=0, channel=4, data=[69, 80]),\n",
      "   midi.NoteOffEvent(tick=96, channel=4, data=[69, 0]),\n",
      "   midi.NoteOnEvent(tick=0, channel=4, data=[68, 80]),\n",
      "   midi.NoteOffEvent(tick=96, channel=4, data=[68, 0]),\n",
      "   midi.NoteOnEvent(tick=0, channel=4, data=[66, 80]),\n",
      "   midi.NoteOffEvent(tick=96, channel=4, data=[66, 0]),\n",
      "   midi.NoteOnEvent(tick=0, channel=4, data=[64, 80]),\n",
      "   midi.NoteOffEvent(tick=96, channel=4, data=[64, 0]),\n",
      "   midi.NoteOnEvent(tick=0, channel=4, data=[62, 80]),\n",
      "   midi.NoteOffEvent(tick=96, channel=4, data=[62, 0]),\n",
      "   midi.NoteOnEvent(tick=0, channel=4, data=[61, 80]),\n",
      "   midi.NoteOffEvent(tick=96, channel=4, data=[61, 0]),\n",
      "   midi.NoteOnEvent(tick=0, channel=4, data=[59, 80]),\n",
      "   midi.NoteOffEvent(tick=96, channel=4, data=[59, 0]),\n",
      "   midi.NoteOnEvent(tick=0, channel=4, data=[62, 80]),\n",
      "   midi.NoteOffEvent(tick=192, channel=4, data=[62, 0]),\n",
      "   midi.NoteOnEvent(tick=0, channel=4, data=[78, 80]),\n",
      "   midi.NoteOffEvent(tick=192, channel=4, data=[78, 0]),\n",
      "   midi.NoteOnEvent(tick=0, channel=4, data=[71, 80]),\n",
      "   midi.NoteOffEvent(tick=192, channel=4, data=[71, 0]),\n",
      "   midi.NoteOnEvent(tick=0, channel=4, data=[66, 80]),\n",
      "   midi.NoteOffEvent(tick=192, channel=4, data=[66, 0]),\n",
      "   midi.NoteOnEvent(tick=0, channel=4, data=[68, 80]),\n",
      "   midi.NoteOffEvent(tick=192, channel=4, data=[68, 0]),\n",
      "   midi.NoteOnEvent(tick=0, channel=4, data=[78, 80]),\n",
      "   midi.NoteOffEvent(tick=384, channel=4, data=[78, 0]),\n",
      "   midi.NoteOnEvent(tick=0, channel=4, data=[76, 80]),\n",
      "   midi.NoteOffEvent(tick=96, channel=4, data=[76, 0]),\n",
      "   midi.NoteOnEvent(tick=0, channel=4, data=[74, 80]),\n",
      "   midi.NoteOffEvent(tick=96, channel=4, data=[74, 0]),\n",
      "   midi.NoteOnEvent(tick=0, channel=4, data=[76, 80]),\n",
      "   midi.NoteOffEvent(tick=192, channel=4, data=[76, 0]),\n",
      "   midi.NoteOnEvent(tick=0, channel=4, data=[73, 80]),\n",
      "   midi.NoteOffEvent(tick=192, channel=4, data=[73, 0]),\n",
      "   midi.NoteOnEvent(tick=0, channel=4, data=[69, 80]),\n",
      "   midi.NoteOffEvent(tick=192, channel=4, data=[69, 0]),\n",
      "   midi.NoteOnEvent(tick=0, channel=4, data=[64, 80]),\n",
      "   midi.NoteOffEvent(tick=192, channel=4, data=[64, 0]),\n",
      "   midi.NoteOnEvent(tick=0, channel=4, data=[66, 80]),\n",
      "   midi.NoteOffEvent(tick=192, channel=4, data=[66, 0]),\n",
      "   midi.NoteOnEvent(tick=0, channel=4, data=[76, 80]),\n",
      "   midi.NoteOffEvent(tick=384, channel=4, data=[76, 0]),\n",
      "   midi.NoteOnEvent(tick=0, channel=4, data=[74, 80]),\n",
      "   midi.NoteOffEvent(tick=96, channel=4, data=[74, 0]),\n",
      "   midi.NoteOnEvent(tick=0, channel=4, data=[73, 80]),\n",
      "   midi.NoteOffEvent(tick=96, channel=4, data=[73, 0]),\n",
      "   midi.NoteOnEvent(tick=0, channel=4, data=[74, 80]),\n",
      "   midi.NoteOffEvent(tick=192, channel=4, data=[74, 0]),\n",
      "   midi.NoteOnEvent(tick=0, channel=4, data=[74, 80]),\n",
      "   midi.NoteOffEvent(tick=192, channel=4, data=[74, 0]),\n",
      "   midi.NoteOnEvent(tick=0, channel=4, data=[76, 80]),\n",
      "   midi.NoteOffEvent(tick=192, channel=4, data=[76, 0]),\n",
      "   midi.NoteOnEvent(tick=0, channel=4, data=[78, 80]),\n",
      "   midi.NoteOffEvent(tick=192, channel=4, data=[78, 0]),\n",
      "   midi.NoteOnEvent(tick=0, channel=4, data=[76, 80]),\n",
      "   midi.NoteOffEvent(tick=96, channel=4, data=[76, 0]),\n",
      "   midi.NoteOnEvent(tick=0, channel=4, data=[71, 80]),\n",
      "   midi.NoteOffEvent(tick=96, channel=4, data=[71, 0]),\n",
      "   midi.NoteOnEvent(tick=0, channel=4, data=[73, 80]),\n",
      "   midi.NoteOffEvent(tick=96, channel=4, data=[73, 0]),\n",
      "   midi.NoteOnEvent(tick=0, channel=4, data=[74, 80]),\n",
      "   midi.NoteOffEvent(tick=96, channel=4, data=[74, 0]),\n",
      "   midi.NoteOnEvent(tick=0, channel=4, data=[76, 80]),\n",
      "   midi.NoteOffEvent(tick=576, channel=4, data=[76, 0]),\n",
      "   midi.NoteOnEvent(tick=0, channel=4, data=[76, 80]),\n",
      "   midi.NoteOffEvent(tick=192, channel=4, data=[76, 0]),\n",
      "   midi.NoteOnEvent(tick=0, channel=4, data=[64, 80]),\n",
      "   midi.NoteOffEvent(tick=192, channel=4, data=[64, 0]),\n",
      "   midi.NoteOnEvent(tick=0, channel=4, data=[74, 80]),\n",
      "   midi.NoteOffEvent(tick=192, channel=4, data=[74, 0]),\n",
      "   midi.NoteOnEvent(tick=0, channel=4, data=[73, 80]),\n",
      "   midi.NoteOffEvent(tick=192, channel=4, data=[73, 0]),\n",
      "   midi.NoteOnEvent(tick=0, channel=4, data=[62, 80]),\n",
      "   midi.NoteOffEvent(tick=192, channel=4, data=[62, 0]),\n",
      "   midi.NoteOnEvent(tick=0, channel=4, data=[61, 80]),\n",
      "   midi.NoteOffEvent(tick=192, channel=4, data=[61, 0]),\n",
      "   midi.NoteOnEvent(tick=0, channel=4, data=[59, 80]),\n",
      "   midi.NoteOffEvent(tick=192, channel=4, data=[59, 0]),\n",
      "   midi.NoteOnEvent(tick=0, channel=4, data=[57, 80]),\n",
      "   midi.NoteOffEvent(tick=384, channel=4, data=[57, 0]),\n",
      "   midi.NoteOnEvent(tick=0, channel=4, data=[66, 80]),\n",
      "   midi.NoteOffEvent(tick=384, channel=4, data=[66, 0]),\n",
      "   midi.NoteOnEvent(tick=384, channel=4, data=[68, 80]),\n",
      "   midi.NoteOffEvent(tick=192, channel=4, data=[68, 0]),\n",
      "   midi.NoteOnEvent(tick=0, channel=4, data=[65, 80]),\n",
      "   midi.NoteOffEvent(tick=192, channel=4, data=[65, 0]),\n",
      "   midi.NoteOnEvent(tick=0, channel=4, data=[66, 80]),\n",
      "   midi.NoteOffEvent(tick=192, channel=4, data=[66, 0]),\n",
      "   midi.NoteOnEvent(tick=0, channel=4, data=[66, 80]),\n",
      "   midi.NoteOffEvent(tick=384, channel=4, data=[66, 0]),\n",
      "   midi.NoteOnEvent(tick=0, channel=4, data=[65, 80]),\n",
      "   midi.NoteOffEvent(tick=192, channel=4, data=[65, 0]),\n",
      "   midi.NoteOnEvent(tick=0, channel=4, data=[66, 80]),\n",
      "   midi.NoteOffEvent(tick=192, channel=4, data=[66, 0]),\n",
      "   midi.NoteOnEvent(tick=0, channel=4, data=[68, 80]),\n",
      "   midi.NoteOffEvent(tick=192, channel=4, data=[68, 0]),\n",
      "   midi.NoteOnEvent(tick=0, channel=4, data=[69, 80]),\n",
      "   midi.NoteOffEvent(tick=192, channel=4, data=[69, 0]),\n",
      "   midi.NoteOnEvent(tick=0, channel=4, data=[70, 80]),\n",
      "   midi.NoteOffEvent(tick=384, channel=4, data=[70, 0]),\n",
      "   midi.NoteOnEvent(tick=0, channel=4, data=[71, 80]),\n",
      "   midi.NoteOffEvent(tick=192, channel=4, data=[71, 0]),\n",
      "   midi.NoteOnEvent(tick=0, channel=4, data=[74, 80]),\n",
      "   midi.NoteOffEvent(tick=384, channel=4, data=[74, 0]),\n",
      "   midi.NoteOnEvent(tick=384, channel=4, data=[73, 80]),\n",
      "   midi.NoteOffEvent(tick=192, channel=4, data=[73, 0]),\n",
      "   midi.NoteOnEvent(tick=0, channel=4, data=[70, 80]),\n",
      "   midi.NoteOffEvent(tick=192, channel=4, data=[70, 0]),\n",
      "   midi.NoteOnEvent(tick=0, channel=4, data=[71, 80]),\n",
      "   midi.NoteOffEvent(tick=192, channel=4, data=[71, 0]),\n",
      "   midi.NoteOnEvent(tick=0, channel=4, data=[71, 80]),\n",
      "   midi.NoteOffEvent(tick=384, channel=4, data=[71, 0]),\n",
      "   midi.NoteOnEvent(tick=0, channel=4, data=[70, 80]),\n",
      "   midi.NoteOffEvent(tick=192, channel=4, data=[70, 0]),\n",
      "   midi.NoteOnEvent(tick=0, channel=4, data=[71, 80]),\n",
      "   midi.NoteOffEvent(tick=192, channel=4, data=[71, 0]),\n",
      "   midi.NoteOnEvent(tick=0, channel=4, data=[73, 80]),\n",
      "   midi.NoteOffEvent(tick=192, channel=4, data=[73, 0]),\n",
      "   midi.NoteOnEvent(tick=0, channel=4, data=[74, 80]),\n",
      "   midi.NoteOffEvent(tick=192, channel=4, data=[74, 0]),\n",
      "   midi.NoteOnEvent(tick=0, channel=4, data=[74, 80]),\n",
      "   midi.NoteOffEvent(tick=384, channel=4, data=[74, 0]),\n",
      "   midi.NoteOnEvent(tick=0, channel=4, data=[67, 80]),\n",
      "   midi.NoteOffEvent(tick=192, channel=4, data=[67, 0]),\n",
      "   midi.NoteOnEvent(tick=0, channel=4, data=[71, 80]),\n",
      "   midi.NoteOffEvent(tick=192, channel=4, data=[71, 0]),\n",
      "   midi.NoteOnEvent(tick=0, channel=4, data=[76, 80]),\n",
      "   midi.NoteOffEvent(tick=192, channel=4, data=[76, 0]),\n",
      "   midi.NoteOnEvent(tick=0, channel=4, data=[73, 80]),\n",
      "   midi.NoteOffEvent(tick=384, channel=4, data=[73, 0]),\n",
      "   midi.NoteOnEvent(tick=96, channel=4, data=[69, 80]),\n",
      "   midi.NoteOffEvent(tick=96, channel=4, data=[69, 0]),\n",
      "   midi.NoteOnEvent(tick=0, channel=4, data=[71, 80]),\n",
      "   midi.NoteOffEvent(tick=96, channel=4, data=[71, 0]),\n",
      "   midi.NoteOnEvent(tick=0, channel=4, data=[73, 80]),\n",
      "   midi.NoteOffEvent(tick=96, channel=4, data=[73, 0]),\n",
      "   midi.NoteOnEvent(tick=0, channel=4, data=[74, 80]),\n",
      "   midi.NoteOffEvent(tick=512, channel=4, data=[74, 0]),\n",
      "   midi.NoteOnEvent(tick=64, channel=4, data=[69, 80]),\n",
      "   midi.NoteOffEvent(tick=96, channel=4, data=[69, 0]),\n",
      "   midi.NoteOnEvent(tick=0, channel=4, data=[66, 80]),\n",
      "   midi.NoteOffEvent(tick=96, channel=4, data=[66, 0]),\n",
      "   midi.NoteOnEvent(tick=0, channel=4, data=[71, 80]),\n",
      "   midi.NoteOffEvent(tick=384, channel=4, data=[71, 0]),\n",
      "   midi.NoteOnEvent(tick=96, channel=4, data=[69, 80]),\n",
      "   midi.NoteOffEvent(tick=96, channel=4, data=[69, 0]),\n",
      "   midi.NoteOnEvent(tick=0, channel=4, data=[67, 80]),\n",
      "   midi.NoteOffEvent(tick=96, channel=4, data=[67, 0]),\n",
      "   midi.NoteOnEvent(tick=0, channel=4, data=[66, 80]),\n",
      "   midi.NoteOffEvent(tick=96, channel=4, data=[66, 0]),\n",
      "   midi.NoteOnEvent(tick=0, channel=4, data=[64, 80]),\n",
      "   midi.NoteOffEvent(tick=192, channel=4, data=[64, 0]),\n",
      "   midi.NoteOnEvent(tick=0, channel=4, data=[76, 80]),\n",
      "   midi.NoteOffEvent(tick=96, channel=4, data=[76, 0]),\n",
      "   midi.NoteOnEvent(tick=0, channel=4, data=[74, 80]),\n",
      "   midi.NoteOffEvent(tick=96, channel=4, data=[74, 0]),\n",
      "   midi.NoteOnEvent(tick=0, channel=4, data=[73, 80]),\n",
      "   midi.NoteOffEvent(tick=96, channel=4, data=[73, 0]),\n",
      "   midi.NoteOnEvent(tick=0, channel=4, data=[71, 80]),\n",
      "   midi.NoteOffEvent(tick=96, channel=4, data=[71, 0]),\n",
      "   midi.NoteOnEvent(tick=0, channel=4, data=[70, 80]),\n",
      "   midi.NoteOffEvent(tick=96, channel=4, data=[70, 0]),\n",
      "   midi.NoteOnEvent(tick=0, channel=4, data=[71, 80]),\n",
      "   midi.NoteOffEvent(tick=96, channel=4, data=[71, 0]),\n",
      "   midi.NoteOnEvent(tick=0, channel=4, data=[73, 80]),\n",
      "   midi.NoteOffEvent(tick=192, channel=4, data=[73, 0]),\n",
      "   midi.NoteOnEvent(tick=0, channel=4, data=[70, 80]),\n",
      "   midi.NoteOffEvent(tick=192, channel=4, data=[70, 0]),\n",
      "   midi.NoteOnEvent(tick=0, channel=4, data=[71, 80]),\n",
      "   midi.NoteOffEvent(tick=192, channel=4, data=[71, 0]),\n",
      "   midi.NoteOnEvent(tick=0, channel=4, data=[66, 80]),\n",
      "   midi.NoteOffEvent(tick=384, channel=4, data=[66, 0]),\n",
      "   midi.NoteOnEvent(tick=0, channel=4, data=[67, 80]),\n",
      "   midi.NoteOffEvent(tick=384, channel=4, data=[67, 0]),\n",
      "   midi.NoteOnEvent(tick=0, channel=4, data=[66, 80]),\n",
      "   midi.NoteOffEvent(tick=192, channel=4, data=[66, 0]),\n",
      "   midi.NoteOnEvent(tick=0, channel=4, data=[66, 80]),\n",
      "   midi.NoteOffEvent(tick=384, channel=4, data=[66, 0]),\n",
      "   midi.NoteOnEvent(tick=576, channel=4, data=[67, 80]),\n",
      "   midi.NoteOffEvent(tick=96, channel=4, data=[67, 0]),\n",
      "   midi.NoteOnEvent(tick=0, channel=4, data=[66, 80]),\n",
      "   midi.NoteOffEvent(tick=96, channel=4, data=[66, 0]),\n",
      "   midi.NoteOnEvent(tick=0, channel=4, data=[64, 80]),\n",
      "   midi.NoteOffEvent(tick=96, channel=4, data=[64, 0]),\n",
      "   midi.NoteOnEvent(tick=0, channel=4, data=[62, 80]),\n",
      "   midi.NoteOffEvent(tick=96, channel=4, data=[62, 0]),\n",
      "   midi.NoteOnEvent(tick=0, channel=4, data=[61, 80]),\n",
      "   midi.NoteOffEvent(tick=96, channel=4, data=[61, 0]),\n",
      "   midi.NoteOnEvent(tick=0, channel=4, data=[59, 80]),\n",
      "   midi.NoteOffEvent(tick=96, channel=4, data=[59, 0]),\n",
      "   midi.NoteOnEvent(tick=0, channel=4, data=[58, 80]),\n",
      "   midi.NoteOffEvent(tick=192, channel=4, data=[58, 0]),\n",
      "   midi.NoteOnEvent(tick=0, channel=4, data=[58, 80]),\n",
      "   midi.NoteOffEvent(tick=192, channel=4, data=[58, 0]),\n",
      "   midi.NoteOnEvent(tick=0, channel=4, data=[61, 80]),\n",
      "   midi.NoteOffEvent(tick=192, channel=4, data=[61, 0]),\n",
      "   midi.NoteOnEvent(tick=0, channel=4, data=[64, 80]),\n",
      "   midi.NoteOffEvent(tick=192, channel=4, data=[64, 0]),\n",
      "   midi.NoteOnEvent(tick=0, channel=4, data=[70, 80]),\n",
      "   midi.NoteOffEvent(tick=192, channel=4, data=[70, 0]),\n",
      "   midi.NoteOnEvent(tick=0, channel=4, data=[73, 80]),\n",
      "   midi.NoteOffEvent(tick=192, channel=4, data=[73, 0]),\n",
      "   midi.NoteOnEvent(tick=0, channel=4, data=[70, 80]),\n",
      "   midi.NoteOffEvent(tick=192, channel=4, data=[70, 0]),\n",
      "   midi.NoteOnEvent(tick=0, channel=4, data=[66, 80]),\n",
      "   midi.NoteOffEvent(tick=192, channel=4, data=[66, 0]),\n",
      "   midi.NoteOnEvent(tick=192, channel=4, data=[71, 80]),\n",
      "   midi.NoteOffEvent(tick=192, channel=4, data=[71, 0]),\n",
      "   midi.NoteOnEvent(tick=0, channel=4, data=[66, 80]),\n",
      "   midi.NoteOffEvent(tick=96, channel=4, data=[66, 0]),\n",
      "   midi.NoteOnEvent(tick=0, channel=4, data=[64, 80]),\n",
      "   midi.NoteOffEvent(tick=96, channel=4, data=[64, 0]),\n",
      "   midi.NoteOnEvent(tick=0, channel=4, data=[62, 80]),\n",
      "   midi.NoteOffEvent(tick=96, channel=4, data=[62, 0]),\n",
      "   midi.NoteOnEvent(tick=0, channel=4, data=[61, 80]),\n",
      "   midi.NoteOffEvent(tick=96, channel=4, data=[61, 0]),\n",
      "   midi.NoteOnEvent(tick=0, channel=4, data=[59, 80]),\n",
      "   midi.NoteOffEvent(tick=192, channel=4, data=[59, 0]),\n",
      "   midi.NoteOnEvent(tick=0, channel=4, data=[63, 80]),\n",
      "   midi.NoteOffEvent(tick=192, channel=4, data=[63, 0]),\n",
      "   midi.NoteOnEvent(tick=0, channel=4, data=[66, 80]),\n",
      "   midi.NoteOffEvent(tick=192, channel=4, data=[66, 0]),\n",
      "   midi.NoteOnEvent(tick=0, channel=4, data=[69, 80]),\n",
      "   midi.NoteOffEvent(tick=192, channel=4, data=[69, 0]),\n",
      "   midi.NoteOnEvent(tick=0, channel=4, data=[72, 80]),\n",
      "   midi.NoteOffEvent(tick=96, channel=4, data=[72, 0]),\n",
      "   midi.NoteOnEvent(tick=0, channel=4, data=[74, 80]),\n",
      "   midi.NoteOffEvent(tick=96, channel=4, data=[74, 0]),\n",
      "   midi.NoteOnEvent(tick=0, channel=4, data=[72, 80]),\n",
      "   midi.NoteOffEvent(tick=96, channel=4, data=[72, 0]),\n",
      "   midi.NoteOnEvent(tick=0, channel=4, data=[71, 80]),\n",
      "   midi.NoteOffEvent(tick=96, channel=4, data=[71, 0]),\n",
      "   midi.NoteOnEvent(tick=0, channel=4, data=[69, 80]),\n",
      "   midi.NoteOffEvent(tick=96, channel=4, data=[69, 0]),\n",
      "   midi.NoteOnEvent(tick=0, channel=4, data=[67, 80]),\n",
      "   midi.NoteOffEvent(tick=96, channel=4, data=[67, 0]),\n",
      "   midi.NoteOnEvent(tick=0, channel=4, data=[66, 80]),\n",
      "   midi.NoteOffEvent(tick=96, channel=4, data=[66, 0]),\n",
      "   midi.NoteOnEvent(tick=0, channel=4, data=[64, 80]),\n",
      "   midi.NoteOffEvent(tick=96, channel=4, data=[64, 0]),\n",
      "   midi.NoteOnEvent(tick=0, channel=4, data=[63, 80]),\n",
      "   midi.NoteOffEvent(tick=192, channel=4, data=[63, 0]),\n",
      "   midi.NoteOnEvent(tick=0, channel=4, data=[78, 80]),\n",
      "   midi.NoteOffEvent(tick=192, channel=4, data=[78, 0]),\n",
      "   midi.NoteOnEvent(tick=0, channel=4, data=[75, 80]),\n",
      "   midi.NoteOffEvent(tick=192, channel=4, data=[75, 0]),\n",
      "   midi.NoteOnEvent(tick=0, channel=4, data=[71, 80]),\n",
      "   midi.NoteOffEvent(tick=192, channel=4, data=[71, 0]),\n",
      "   midi.NoteOnEvent(tick=192, channel=4, data=[76, 80]),\n",
      "   midi.NoteOffEvent(tick=192, channel=4, data=[76, 0]),\n",
      "   midi.NoteOnEvent(tick=0, channel=4, data=[71, 80]),\n",
      "   midi.NoteOffEvent(tick=192, channel=4, data=[71, 0]),\n",
      "   midi.NoteOnEvent(tick=0, channel=4, data=[67, 80]),\n",
      "   midi.NoteOffEvent(tick=192, channel=4, data=[67, 0]),\n",
      "   midi.NoteOnEvent(tick=0, channel=4, data=[61, 80]),\n",
      "   midi.NoteOffEvent(tick=192, channel=4, data=[61, 0]),\n",
      "   midi.NoteOnEvent(tick=0, channel=4, data=[65, 80]),\n",
      "   midi.NoteOffEvent(tick=192, channel=4, data=[65, 0]),\n",
      "   midi.NoteOnEvent(tick=0, channel=4, data=[68, 80]),\n",
      "   midi.NoteOffEvent(tick=192, channel=4, data=[68, 0]),\n",
      "   midi.NoteOnEvent(tick=0, channel=4, data=[65, 80]),\n",
      "   midi.NoteOffEvent(tick=192, channel=4, data=[65, 0]),\n",
      "   midi.NoteOnEvent(tick=0, channel=4, data=[66, 80]),\n",
      "   midi.NoteOffEvent(tick=192, channel=4, data=[66, 0]),\n",
      "   midi.NoteOnEvent(tick=0, channel=4, data=[73, 80]),\n",
      "   midi.NoteOffEvent(tick=192, channel=4, data=[73, 0]),\n",
      "   midi.NoteOnEvent(tick=0, channel=4, data=[78, 80]),\n",
      "   midi.NoteOffEvent(tick=192, channel=4, data=[78, 0]),\n",
      "   midi.NoteOnEvent(tick=0, channel=4, data=[71, 80]),\n",
      "   midi.NoteOffEvent(tick=192, channel=4, data=[71, 0]),\n",
      "   midi.NoteOnEvent(tick=0, channel=4, data=[70, 80]),\n",
      "   midi.NoteOffEvent(tick=192, channel=4, data=[70, 0]),\n",
      "   midi.NoteOnEvent(tick=0, channel=4, data=[68, 80]),\n",
      "   midi.NoteOffEvent(tick=192, channel=4, data=[68, 0]),\n",
      "   midi.NoteOnEvent(tick=0, channel=4, data=[73, 80]),\n",
      "   midi.NoteOffEvent(tick=192, channel=4, data=[73, 0]),\n",
      "   midi.NoteOnEvent(tick=0, channel=4, data=[71, 80]),\n",
      "   midi.NoteOffEvent(tick=192, channel=4, data=[71, 0]),\n",
      "   midi.NoteOnEvent(tick=0, channel=4, data=[73, 80]),\n",
      "   midi.NoteOffEvent(tick=96, channel=4, data=[73, 0]),\n",
      "   midi.NoteOnEvent(tick=384, channel=4, data=[71, 80]),\n",
      "   midi.NoteOffEvent(tick=96, channel=4, data=[71, 0]),\n",
      "   midi.NoteOnEvent(tick=0, channel=4, data=[73, 80]),\n",
      "   midi.NoteOffEvent(tick=96, channel=4, data=[73, 0]),\n",
      "   midi.NoteOnEvent(tick=0, channel=4, data=[70, 80]),\n",
      "   midi.NoteOffEvent(tick=96, channel=4, data=[70, 0]),\n",
      "   midi.NoteOnEvent(tick=0, channel=4, data=[66, 80]),\n",
      "   midi.NoteOffEvent(tick=96, channel=4, data=[66, 0]),\n",
      "   midi.NoteOnEvent(tick=0, channel=4, data=[64, 80]),\n",
      "   midi.NoteOffEvent(tick=96, channel=4, data=[64, 0]),\n",
      "   midi.NoteOnEvent(tick=0, channel=4, data=[62, 80]),\n",
      "   midi.NoteOffEvent(tick=96, channel=4, data=[62, 0]),\n",
      "   midi.NoteOnEvent(tick=0, channel=4, data=[61, 80]),\n",
      "   midi.NoteOffEvent(tick=96, channel=4, data=[61, 0]),\n",
      "   midi.NoteOnEvent(tick=0, channel=4, data=[59, 80]),\n",
      "   midi.NoteOffEvent(tick=192, channel=4, data=[59, 0]),\n",
      "   midi.NoteOnEvent(tick=0, channel=4, data=[71, 80]),\n",
      "   midi.NoteOffEvent(tick=384, channel=4, data=[71, 0]),\n",
      "   midi.NoteOnEvent(tick=0, channel=4, data=[74, 80]),\n",
      "   midi.NoteOffEvent(tick=384, channel=4, data=[74, 0]),\n",
      "   midi.NoteOnEvent(tick=0, channel=4, data=[76, 80]),\n",
      "   midi.NoteOffEvent(tick=192, channel=4, data=[76, 0]),\n",
      "   midi.NoteOnEvent(tick=0, channel=4, data=[78, 80]),\n",
      "   midi.NoteOffEvent(tick=384, channel=4, data=[78, 0]),\n",
      "   midi.NoteOnEvent(tick=0, channel=4, data=[70, 80]),\n",
      "   midi.NoteOffEvent(tick=384, channel=4, data=[70, 0]),\n",
      "   midi.NoteOnEvent(tick=0, channel=4, data=[66, 80]),\n",
      "   midi.NoteOffEvent(tick=192, channel=4, data=[66, 0]),\n",
      "   midi.NoteOnEvent(tick=0, channel=4, data=[64, 80]),\n",
      "   midi.NoteOffEvent(tick=192, channel=4, data=[64, 0]),\n",
      "   midi.NoteOnEvent(tick=0, channel=4, data=[62, 80]),\n",
      "   midi.NoteOffEvent(tick=192, channel=4, data=[62, 0]),\n",
      "   midi.NoteOnEvent(tick=0, channel=4, data=[61, 80]),\n",
      "   midi.NoteOffEvent(tick=192, channel=4, data=[61, 0]),\n",
      "   midi.NoteOnEvent(tick=0, channel=4, data=[59, 80]),\n",
      "   midi.NoteOffEvent(tick=384, channel=4, data=[59, 0]),\n",
      "   midi.NoteOnEvent(tick=0, channel=4, data=[67, 80]),\n",
      "   midi.NoteOffEvent(tick=384, channel=4, data=[67, 0]),\n",
      "   midi.NoteOnEvent(tick=384, channel=4, data=[69, 80]),\n",
      "   midi.NoteOffEvent(tick=192, channel=4, data=[69, 0]),\n",
      "   midi.NoteOnEvent(tick=0, channel=4, data=[66, 80]),\n",
      "   midi.NoteOffEvent(tick=192, channel=4, data=[66, 0]),\n",
      "   midi.NoteOnEvent(tick=0, channel=4, data=[67, 80]),\n",
      "   midi.NoteOffEvent(tick=192, channel=4, data=[67, 0]),\n",
      "   midi.NoteOnEvent(tick=0, channel=4, data=[67, 80]),\n",
      "   midi.NoteOffEvent(tick=384, channel=4, data=[67, 0]),\n",
      "   midi.NoteOnEvent(tick=0, channel=4, data=[66, 80]),\n",
      "   midi.NoteOffEvent(tick=192, channel=4, data=[66, 0]),\n",
      "   midi.NoteOnEvent(tick=0, channel=4, data=[67, 80]),\n",
      "   midi.NoteOffEvent(tick=192, channel=4, data=[67, 0]),\n",
      "   midi.NoteOnEvent(tick=0, channel=4, data=[66, 80]),\n",
      "   midi.NoteOffEvent(tick=192, channel=4, data=[66, 0]),\n",
      "   midi.NoteOnEvent(tick=0, channel=4, data=[67, 80]),\n",
      "   midi.NoteOffEvent(tick=192, channel=4, data=[67, 0]),\n",
      "   midi.NoteOnEvent(tick=0, channel=4, data=[72, 80]),\n",
      "   midi.NoteOffEvent(tick=192, channel=4, data=[72, 0]),\n",
      "   midi.NoteOnEvent(tick=0, channel=4, data=[71, 80]),\n",
      "   midi.NoteOffEvent(tick=192, channel=4, data=[71, 0]),\n",
      "   midi.NoteOnEvent(tick=0, channel=4, data=[76, 80]),\n",
      "   midi.NoteOffEvent(tick=192, channel=4, data=[76, 0]),\n",
      "   midi.NoteOnEvent(tick=0, channel=4, data=[71, 80]),\n",
      "   midi.NoteOffEvent(tick=384, channel=4, data=[71, 0]),\n",
      "   midi.NoteOnEvent(tick=384, channel=4, data=[71, 80]),\n",
      "   midi.NoteOffEvent(tick=576, channel=4, data=[71, 0]),\n",
      "   midi.NoteOnEvent(tick=0, channel=4, data=[69, 80]),\n",
      "   midi.NoteOffEvent(tick=96, channel=4, data=[69, 0]),\n",
      "   midi.NoteOnEvent(tick=0, channel=4, data=[67, 80]),\n",
      "   midi.NoteOffEvent(tick=96, channel=4, data=[67, 0]),\n",
      "   midi.NoteOnEvent(tick=0, channel=4, data=[66, 80]),\n",
      "   midi.NoteOffEvent(tick=96, channel=4, data=[66, 0]),\n",
      "   midi.NoteOnEvent(tick=0, channel=4, data=[67, 80]),\n",
      "   midi.NoteOffEvent(tick=96, channel=4, data=[67, 0]),\n",
      "   midi.NoteOnEvent(tick=0, channel=4, data=[69, 80]),\n",
      "   midi.NoteOffEvent(tick=192, channel=4, data=[69, 0]),\n",
      "   midi.NoteOnEvent(tick=0, channel=4, data=[67, 80]),\n",
      "   midi.NoteOffEvent(tick=96, channel=4, data=[67, 0]),\n",
      "   midi.NoteOnEvent(tick=0, channel=4, data=[69, 80]),\n",
      "   midi.NoteOffEvent(tick=96, channel=4, data=[69, 0]),\n",
      "   midi.NoteOnEvent(tick=0, channel=4, data=[71, 80]),\n",
      "   midi.NoteOffEvent(tick=96, channel=4, data=[71, 0]),\n",
      "   midi.NoteOnEvent(tick=96, channel=4, data=[71, 80]),\n",
      "   midi.NoteOffEvent(tick=96, channel=4, data=[71, 0]),\n",
      "   midi.NoteOnEvent(tick=96, channel=4, data=[67, 80]),\n",
      "   midi.NoteOffEvent(tick=96, channel=4, data=[67, 0]),\n",
      "   midi.NoteOnEvent(tick=96, channel=4, data=[64, 80]),\n",
      "   midi.NoteOffEvent(tick=480, channel=4, data=[64, 0]),\n",
      "   midi.NoteOnEvent(tick=0, channel=4, data=[66, 80]),\n",
      "   midi.NoteOffEvent(tick=96, channel=4, data=[66, 0]),\n",
      "   midi.NoteOnEvent(tick=0, channel=4, data=[67, 80]),\n",
      "   midi.NoteOffEvent(tick=96, channel=4, data=[67, 0]),\n",
      "   midi.NoteOnEvent(tick=0, channel=4, data=[64, 80]),\n",
      "   midi.NoteOffEvent(tick=96, channel=4, data=[64, 0]),\n",
      "   midi.NoteOnEvent(tick=0, channel=4, data=[66, 80]),\n",
      "   midi.NoteOffEvent(tick=96, channel=4, data=[66, 0]),\n",
      "   midi.NoteOnEvent(tick=0, channel=4, data=[68, 80]),\n",
      "   midi.NoteOffEvent(tick=96, channel=4, data=[68, 0]),\n",
      "   midi.NoteOnEvent(tick=0, channel=4, data=[69, 80]),\n",
      "   midi.NoteOffEvent(tick=96, channel=4, data=[69, 0]),\n",
      "   midi.NoteOnEvent(tick=96, channel=4, data=[69, 80]),\n",
      "   midi.NoteOffEvent(tick=96, channel=4, data=[69, 0]),\n",
      "   midi.NoteOnEvent(tick=96, channel=4, data=[66, 80]),\n",
      "   midi.NoteOffEvent(tick=96, channel=4, data=[66, 0]),\n",
      "   midi.NoteOnEvent(tick=96, channel=4, data=[71, 80]),\n",
      "   midi.NoteOffEvent(tick=192, channel=4, data=[71, 0]),\n",
      "   midi.NoteOnEvent(tick=0, channel=4, data=[59, 80]),\n",
      "   midi.NoteOffEvent(tick=192, channel=4, data=[59, 0]),\n",
      "   midi.NoteOnEvent(tick=0, channel=4, data=[71, 80]),\n",
      "   midi.NoteOffEvent(tick=384, channel=4, data=[71, 0]),\n",
      "   midi.NoteOnEvent(tick=192, channel=4, data=[68, 80]),\n",
      "   midi.NoteOffEvent(tick=192, channel=4, data=[68, 0]),\n",
      "   midi.NoteOnEvent(tick=0, channel=4, data=[73, 80]),\n",
      "   midi.NoteOffEvent(tick=192, channel=4, data=[73, 0]),\n",
      "   midi.NoteOnEvent(tick=0, channel=4, data=[71, 80]),\n",
      "   midi.NoteOffEvent(tick=192, channel=4, data=[71, 0]),\n",
      "   midi.NoteOnEvent(tick=1152, channel=4, data=[69, 80]),\n",
      "   midi.NoteOffEvent(tick=4, channel=4, data=[69, 0]),\n",
      "   midi.NoteOnEvent(tick=0, channel=4, data=[66, 80]),\n",
      "   midi.NoteOffEvent(tick=192, channel=4, data=[66, 0]),\n",
      "   midi.NoteOnEvent(tick=0, channel=4, data=[65, 80]),\n",
      "   midi.NoteOffEvent(tick=384, channel=4, data=[65, 0]),\n",
      "   midi.NoteOnEvent(tick=0, channel=4, data=[66, 80]),\n",
      "   midi.NoteOffEvent(tick=384, channel=4, data=[66, 0]),\n",
      "   midi.NoteOnEvent(tick=0, channel=4, data=[66, 80]),\n",
      "   midi.NoteOffEvent(tick=384, channel=4, data=[66, 0]),\n",
      "   midi.NoteOnEvent(tick=0, channel=4, data=[65, 80]),\n",
      "   midi.NoteOffEvent(tick=384, channel=4, data=[65, 0]),\n",
      "   midi.NoteOnEvent(tick=0, channel=4, data=[61, 80]),\n",
      "   midi.NoteOffEvent(tick=384, channel=4, data=[61, 0]),\n",
      "   midi.NoteOnEvent(tick=384, channel=4, data=[62, 80]),\n",
      "   midi.NoteOffEvent(tick=192, channel=4, data=[62, 0]),\n",
      "   midi.NoteOnEvent(tick=0, channel=4, data=[74, 80]),\n",
      "   midi.NoteOffEvent(tick=192, channel=4, data=[74, 0]),\n",
      "   midi.NoteOnEvent(tick=0, channel=4, data=[73, 80]),\n",
      "   midi.NoteOffEvent(tick=192, channel=4, data=[73, 0]),\n",
      "   midi.NoteOnEvent(tick=0, channel=4, data=[69, 80]),\n",
      "   midi.NoteOffEvent(tick=192, channel=4, data=[69, 0]),\n",
      "   midi.NoteOnEvent(tick=0, channel=4, data=[74, 80]),\n",
      "   midi.NoteOffEvent(tick=192, channel=4, data=[74, 0]),\n",
      "   midi.NoteOnEvent(tick=0, channel=4, data=[73, 80]),\n",
      "   midi.NoteOffEvent(tick=96, channel=4, data=[73, 0]),\n",
      "   midi.NoteOnEvent(tick=0, channel=4, data=[71, 80]),\n",
      "   midi.NoteOffEvent(tick=96, channel=4, data=[71, 0]),\n",
      "   midi.NoteOnEvent(tick=0, channel=4, data=[69, 80]),\n",
      "   midi.NoteOffEvent(tick=96, channel=4, data=[69, 0]),\n",
      "   midi.NoteOnEvent(tick=0, channel=4, data=[67, 80]),\n",
      "   midi.NoteOffEvent(tick=96, channel=4, data=[67, 0]),\n",
      "   midi.NoteOnEvent(tick=0, channel=4, data=[66, 80]),\n",
      "   midi.NoteOffEvent(tick=96, channel=4, data=[66, 0]),\n",
      "   midi.NoteOnEvent(tick=0, channel=4, data=[64, 80]),\n",
      "   midi.NoteOffEvent(tick=96, channel=4, data=[64, 0]),\n",
      "   midi.NoteOnEvent(tick=0, channel=4, data=[62, 80]),\n",
      "   midi.NoteOffEvent(tick=192, channel=4, data=[62, 0]),\n",
      "   midi.NoteOnEvent(tick=0, channel=4, data=[71, 80]),\n",
      "   midi.NoteOffEvent(tick=192, channel=4, data=[71, 0]),\n",
      "   midi.NoteOnEvent(tick=0, channel=4, data=[71, 80]),\n",
      "   midi.NoteOffEvent(tick=192, channel=4, data=[71, 0]),\n",
      "   midi.NoteOnEvent(tick=0, channel=4, data=[69, 80]),\n",
      "   midi.NoteOffEvent(tick=192, channel=4, data=[69, 0]),\n",
      "   midi.NoteOnEvent(tick=0, channel=4, data=[69, 80]),\n",
      "   midi.NoteOffEvent(tick=192, channel=4, data=[69, 0]),\n",
      "   midi.NoteOnEvent(tick=0, channel=4, data=[66, 80]),\n",
      "   midi.NoteOffEvent(tick=192, channel=4, data=[66, 0]),\n",
      "   midi.NoteOnEvent(tick=0, channel=4, data=[69, 80]),\n",
      "   midi.NoteOffEvent(tick=192, channel=4, data=[69, 0]),\n",
      "   midi.NoteOnEvent(tick=0, channel=4, data=[74, 80]),\n",
      "   midi.NoteOffEvent(tick=192, channel=4, data=[74, 0]),\n",
      "   midi.NoteOnEvent(tick=0, channel=4, data=[69, 80]),\n",
      "   midi.NoteOffEvent(tick=384, channel=4, data=[69, 0]),\n",
      "   midi.NoteOnEvent(tick=0, channel=4, data=[66, 80]),\n",
      "   midi.NoteOffEvent(tick=384, channel=4, data=[66, 0]),\n",
      "   midi.NoteOnEvent(tick=0, channel=4, data=[62, 80]),\n",
      "   midi.NoteOffEvent(tick=512, channel=4, data=[62, 0]),\n",
      "   midi.NoteOnEvent(tick=64, channel=4, data=[66, 80]),\n",
      "   midi.NoteOffEvent(tick=192, channel=4, data=[66, 0]),\n",
      "   midi.NoteOnEvent(tick=0, channel=4, data=[69, 80]),\n",
      "   midi.NoteOffEvent(tick=192, channel=4, data=[69, 0]),\n",
      "   midi.NoteOnEvent(tick=0, channel=4, data=[67, 80]),\n",
      "   midi.NoteOffEvent(tick=192, channel=4, data=[67, 0]),\n",
      "   midi.NoteOnEvent(tick=0, channel=4, data=[69, 80]),\n",
      "   midi.NoteOffEvent(tick=192, channel=4, data=[69, 0]),\n",
      "   midi.NoteOnEvent(tick=0, channel=4, data=[66, 80]),\n",
      "   midi.NoteOffEvent(tick=192, channel=4, data=[66, 0]),\n",
      "   midi.NoteOnEvent(tick=0, channel=4, data=[67, 80]),\n",
      "   midi.NoteOffEvent(tick=192, channel=4, data=[67, 0]),\n",
      "   midi.NoteOnEvent(tick=0, channel=4, data=[66, 80]),\n",
      "   midi.NoteOffEvent(tick=192, channel=4, data=[66, 0]),\n",
      "   midi.NoteOnEvent(tick=0, channel=4, data=[67, 80]),\n",
      "   midi.NoteOffEvent(tick=192, channel=4, data=[67, 0]),\n",
      "   midi.NoteOnEvent(tick=0, channel=4, data=[62, 80]),\n",
      "   midi.NoteOffEvent(tick=192, channel=4, data=[62, 0]),\n",
      "   midi.NoteOnEvent(tick=0, channel=4, data=[67, 80]),\n",
      "   midi.NoteOffEvent(tick=96, channel=4, data=[67, 0]),\n",
      "   midi.NoteOnEvent(tick=0, channel=4, data=[66, 80]),\n",
      "   midi.NoteOffEvent(tick=96, channel=4, data=[66, 0]),\n",
      "   midi.NoteOnEvent(tick=0, channel=4, data=[64, 80]),\n",
      "   midi.NoteOffEvent(tick=96, channel=4, data=[64, 0]),\n",
      "   midi.NoteOnEvent(tick=0, channel=4, data=[62, 80]),\n",
      "   midi.NoteOffEvent(tick=96, channel=4, data=[62, 0]),\n",
      "   midi.NoteOnEvent(tick=0, channel=4, data=[61, 80]),\n",
      "   midi.NoteOffEvent(tick=96, channel=4, data=[61, 0]),\n",
      "   midi.NoteOnEvent(tick=0, channel=4, data=[62, 80]),\n",
      "   midi.NoteOffEvent(tick=96, channel=4, data=[62, 0]),\n",
      "   midi.NoteOnEvent(tick=0, channel=4, data=[64, 80]),\n",
      "   midi.NoteOffEvent(tick=192, channel=4, data=[64, 0]),\n",
      "   midi.NoteOnEvent(tick=0, channel=4, data=[64, 80]),\n",
      "   midi.NoteOffEvent(tick=480, channel=4, data=[64, 0]),\n",
      "   midi.NoteOnEvent(tick=0, channel=4, data=[67, 80]),\n",
      "   midi.NoteOffEvent(tick=96, channel=4, data=[67, 0]),\n",
      "   midi.NoteOnEvent(tick=0, channel=4, data=[66, 80]),\n",
      "   midi.NoteOffEvent(tick=96, channel=4, data=[66, 0]),\n",
      "   midi.NoteOnEvent(tick=0, channel=4, data=[64, 80]),\n",
      "   midi.NoteOffEvent(tick=96, channel=4, data=[64, 0]),\n",
      "   midi.NoteOnEvent(tick=0, channel=4, data=[69, 80]),\n",
      "   midi.NoteOffEvent(tick=192, channel=4, data=[69, 0]),\n",
      "   midi.NoteOnEvent(tick=0, channel=4, data=[66, 80]),\n",
      "   midi.NoteOffEvent(tick=192, channel=4, data=[66, 0]),\n",
      "   midi.NoteOnEvent(tick=0, channel=4, data=[71, 80]),\n",
      "   midi.NoteOffEvent(tick=192, channel=4, data=[71, 0]),\n",
      "   midi.NoteOnEvent(tick=0, channel=4, data=[69, 80]),\n",
      "   midi.NoteOffEvent(tick=192, channel=4, data=[69, 0]),\n",
      "   midi.NoteOnEvent(tick=0, channel=4, data=[69, 80]),\n",
      "   midi.NoteOffEvent(tick=192, channel=4, data=[69, 0]),\n",
      "   midi.NoteOnEvent(tick=0, channel=4, data=[67, 80]),\n",
      "   midi.NoteOffEvent(tick=192, channel=4, data=[67, 0]),\n",
      "   midi.NoteOnEvent(tick=0, channel=4, data=[66, 80]),\n",
      "   midi.NoteOffEvent(tick=384, channel=4, data=[66, 0]),\n",
      "   midi.NoteOnEvent(tick=0, channel=4, data=[62, 80]),\n",
      "   midi.NoteOffEvent(tick=192, channel=4, data=[62, 0]),\n",
      "   midi.NoteOnEvent(tick=0, channel=4, data=[74, 80]),\n",
      "   midi.NoteOffEvent(tick=192, channel=4, data=[74, 0]),\n",
      "   midi.NoteOnEvent(tick=0, channel=4, data=[73, 80]),\n",
      "   midi.NoteOffEvent(tick=192, channel=4, data=[73, 0]),\n",
      "   midi.NoteOnEvent(tick=0, channel=4, data=[69, 80]),\n",
      "   midi.NoteOffEvent(tick=192, channel=4, data=[69, 0]),\n",
      "   midi.NoteOnEvent(tick=0, channel=4, data=[74, 80]),\n",
      "   midi.NoteOffEvent(tick=192, channel=4, data=[74, 0]),\n",
      "   midi.NoteOnEvent(tick=0, channel=4, data=[73, 80]),\n",
      "   midi.NoteOffEvent(tick=96, channel=4, data=[73, 0]),\n",
      "   midi.NoteOnEvent(tick=0, channel=4, data=[71, 80]),\n",
      "   midi.NoteOffEvent(tick=96, channel=4, data=[71, 0]),\n",
      "   midi.NoteOnEvent(tick=0, channel=4, data=[69, 80]),\n",
      "   midi.NoteOffEvent(tick=96, channel=4, data=[69, 0]),\n",
      "   midi.NoteOnEvent(tick=0, channel=4, data=[67, 80]),\n",
      "   midi.NoteOffEvent(tick=96, channel=4, data=[67, 0]),\n",
      "   midi.NoteOnEvent(tick=0, channel=4, data=[66, 80]),\n",
      "   midi.NoteOffEvent(tick=96, channel=4, data=[66, 0]),\n",
      "   midi.NoteOnEvent(tick=0, channel=4, data=[64, 80]),\n",
      "   midi.NoteOffEvent(tick=96, channel=4, data=[64, 0]),\n",
      "   midi.NoteOnEvent(tick=0, channel=4, data=[62, 80]),\n",
      "   midi.NoteOffEvent(tick=192, channel=4, data=[62, 0]),\n",
      "   midi.NoteOnEvent(tick=672, channel=4, data=[74, 80]),\n",
      "   midi.NoteOffEvent(tick=96, channel=4, data=[74, 0]),\n",
      "   midi.NoteOnEvent(tick=0, channel=4, data=[73, 80]),\n",
      "   midi.NoteOffEvent(tick=96, channel=4, data=[73, 0]),\n",
      "   midi.NoteOnEvent(tick=0, channel=4, data=[71, 80]),\n",
      "   midi.NoteOffEvent(tick=96, channel=4, data=[71, 0]),\n",
      "   midi.NoteOnEvent(tick=0, channel=4, data=[69, 80]),\n",
      "   midi.NoteOffEvent(tick=96, channel=4, data=[69, 0]),\n",
      "   midi.NoteOnEvent(tick=0, channel=4, data=[67, 80]),\n",
      "   midi.NoteOffEvent(tick=96, channel=4, data=[67, 0]),\n",
      "   midi.NoteOnEvent(tick=0, channel=4, data=[66, 80]),\n",
      "   midi.NoteOffEvent(tick=96, channel=4, data=[66, 0]),\n",
      "   midi.NoteOnEvent(tick=0, channel=4, data=[64, 80]),\n",
      "   midi.NoteOffEvent(tick=96, channel=4, data=[64, 0]),\n",
      "   midi.NoteOnEvent(tick=0, channel=4, data=[62, 80]),\n",
      "   midi.NoteOffEvent(tick=192, channel=4, data=[62, 0]),\n",
      "   midi.NoteOnEvent(tick=0, channel=4, data=[69, 80]),\n",
      "   midi.NoteOffEvent(tick=256, channel=4, data=[69, 0]),\n",
      "   midi.NoteOnEvent(tick=32, channel=4, data=[67, 80]),\n",
      "   midi.NoteOffEvent(tick=96, channel=4, data=[67, 0]),\n",
      "   midi.NoteOnEvent(tick=0, channel=4, data=[66, 80]),\n",
      "   midi.NoteOffEvent(tick=256, channel=4, data=[66, 0]),\n",
      "   midi.NoteOnEvent(tick=32, channel=4, data=[64, 80]),\n",
      "   midi.NoteOffEvent(tick=96, channel=4, data=[64, 0]),\n",
      "   midi.NoteOnEvent(tick=0, channel=4, data=[62, 80]),\n",
      "   midi.NoteOffEvent(tick=256, channel=4, data=[62, 0]),\n",
      "   midi.NoteOnEvent(tick=32, channel=4, data=[66, 80]),\n",
      "   midi.NoteOffEvent(tick=96, channel=4, data=[66, 0]),\n",
      "   midi.NoteOnEvent(tick=0, channel=4, data=[71, 80]),\n",
      "   midi.NoteOffEvent(tick=192, channel=4, data=[71, 0]),\n",
      "   midi.NoteOnEvent(tick=0, channel=4, data=[71, 80]),\n",
      "   midi.NoteOffEvent(tick=480, channel=4, data=[71, 0]),\n",
      "   midi.NoteOnEvent(tick=0, channel=4, data=[69, 80]),\n",
      "   midi.NoteOffEvent(tick=96, channel=4, data=[69, 0]),\n",
      "   midi.NoteOnEvent(tick=0, channel=4, data=[71, 80]),\n",
      "   midi.NoteOffEvent(tick=96, channel=4, data=[71, 0]),\n",
      "   midi.NoteOnEvent(tick=0, channel=4, data=[67, 80]),\n",
      "   midi.NoteOffEvent(tick=96, channel=4, data=[67, 0]),\n",
      "   midi.NoteOnEvent(tick=0, channel=4, data=[64, 80]),\n",
      "   midi.NoteOffEvent(tick=384, channel=4, data=[64, 0]),\n",
      "   midi.NoteOnEvent(tick=0, channel=4, data=[64, 80]),\n",
      "   midi.NoteOffEvent(tick=384, channel=4, data=[64, 0]),\n",
      "   midi.NoteOnEvent(tick=192, channel=4, data=[62, 80]),\n",
      "   midi.NoteOffEvent(tick=192, channel=4, data=[62, 0]),\n",
      "   midi.NoteOnEvent(tick=0, channel=4, data=[66, 80]),\n",
      "   midi.NoteOffEvent(tick=192, channel=4, data=[66, 0]),\n",
      "   midi.NoteOnEvent(tick=0, channel=4, data=[69, 80]),\n",
      "   midi.NoteOffEvent(tick=192, channel=4, data=[69, 0]),\n",
      "   midi.NoteOnEvent(tick=192, channel=4, data=[66, 80]),\n",
      "   midi.NoteOffEvent(tick=192, channel=4, data=[66, 0]),\n",
      "   midi.NoteOnEvent(tick=0, channel=4, data=[69, 80]),\n",
      "   midi.NoteOffEvent(tick=192, channel=4, data=[69, 0]),\n",
      "   midi.NoteOnEvent(tick=0, channel=4, data=[74, 80]),\n",
      "   midi.NoteOffEvent(tick=192, channel=4, data=[74, 0]),\n",
      "   midi.NoteOnEvent(tick=192, channel=4, data=[69, 80]),\n",
      "   midi.NoteOffEvent(tick=192, channel=4, data=[69, 0]),\n",
      "   midi.NoteOnEvent(tick=0, channel=4, data=[78, 80]),\n",
      "   midi.NoteOffEvent(tick=192, channel=4, data=[78, 0]),\n",
      "   midi.NoteOnEvent(tick=0, channel=4, data=[81, 80]),\n",
      "   midi.NoteOffEvent(tick=192, channel=4, data=[81, 0]),\n",
      "   midi.NoteOnEvent(tick=192, channel=4, data=[67, 80]),\n",
      "   midi.NoteOffEvent(tick=192, channel=4, data=[67, 0]),\n",
      "   midi.NoteOnEvent(tick=0, channel=4, data=[69, 80]),\n",
      "   midi.NoteOffEvent(tick=192, channel=4, data=[69, 0]),\n",
      "   midi.NoteOnEvent(tick=0, channel=4, data=[71, 80]),\n",
      "   midi.NoteOffEvent(tick=96, channel=4, data=[71, 0]),\n",
      "   midi.NoteOnEvent(tick=0, channel=4, data=[72, 80]),\n",
      "   midi.NoteOffEvent(tick=96, channel=4, data=[72, 0]),\n",
      "   midi.NoteOnEvent(tick=0, channel=4, data=[74, 80]),\n",
      "   midi.NoteOffEvent(tick=192, channel=4, data=[74, 0]),\n",
      "   midi.NoteOnEvent(tick=0, channel=4, data=[67, 80]),\n",
      "   midi.NoteOffEvent(tick=192, channel=4, data=[67, 0]),\n",
      "   midi.NoteOnEvent(tick=0, channel=4, data=[64, 80]),\n",
      "   midi.NoteOffEvent(tick=192, channel=4, data=[64, 0]),\n",
      "   midi.NoteOnEvent(tick=0, channel=4, data=[59, 80]),\n",
      "   midi.NoteOffEvent(tick=192, channel=4, data=[59, 0]),\n",
      "   midi.NoteOnEvent(tick=0, channel=4, data=[61, 80]),\n",
      "   midi.NoteOffEvent(tick=192, channel=4, data=[61, 0]),\n",
      "   midi.NoteOnEvent(tick=0, channel=4, data=[71, 80]),\n",
      "   midi.NoteOffEvent(tick=384, channel=4, data=[71, 0]),\n",
      "   midi.NoteOnEvent(tick=0, channel=4, data=[69, 80]),\n",
      "   midi.NoteOffEvent(tick=96, channel=4, data=[69, 0]),\n",
      "   midi.NoteOnEvent(tick=0, channel=4, data=[67, 80]),\n",
      "   midi.NoteOffEvent(tick=96, channel=4, data=[67, 0]),\n",
      "   midi.NoteOnEvent(tick=0, channel=4, data=[69, 80]),\n",
      "   midi.NoteOffEvent(tick=192, channel=4, data=[69, 0]),\n",
      "   midi.NoteOnEvent(tick=0, channel=4, data=[66, 80]),\n",
      "   midi.NoteOffEvent(tick=192, channel=4, data=[66, 0]),\n",
      "   midi.NoteOnEvent(tick=0, channel=4, data=[62, 80]),\n",
      "   midi.NoteOffEvent(tick=192, channel=4, data=[62, 0]),\n",
      "   midi.NoteOnEvent(tick=0, channel=4, data=[57, 80]),\n",
      "   midi.NoteOffEvent(tick=192, channel=4, data=[57, 0]),\n",
      "   midi.NoteOnEvent(tick=0, channel=4, data=[57, 80]),\n",
      "   midi.NoteOffEvent(tick=192, channel=4, data=[57, 0]),\n",
      "   midi.NoteOnEvent(tick=0, channel=4, data=[69, 80]),\n",
      "   midi.NoteOffEvent(tick=384, channel=4, data=[69, 0]),\n",
      "   midi.NoteOnEvent(tick=0, channel=4, data=[67, 80]),\n",
      "   midi.NoteOffEvent(tick=96, channel=4, data=[67, 0]),\n",
      "   midi.NoteOnEvent(tick=0, channel=4, data=[66, 80]),\n",
      "   midi.NoteOffEvent(tick=96, channel=4, data=[66, 0]),\n",
      "   midi.NoteOnEvent(tick=0, channel=4, data=[67, 80]),\n",
      "   midi.NoteOffEvent(tick=960, channel=4, data=[67, 0]),\n",
      "   midi.NoteOnEvent(tick=0, channel=4, data=[64, 80]),\n",
      "   midi.NoteOffEvent(tick=192, channel=4, data=[64, 0]),\n",
      "   midi.NoteOnEvent(tick=0, channel=4, data=[69, 80]),\n",
      "   midi.NoteOffEvent(tick=576, channel=4, data=[69, 0]),\n",
      "   midi.NoteOnEvent(tick=0, channel=4, data=[71, 80]),\n",
      "   midi.NoteOffEvent(tick=96, channel=4, data=[71, 0]),\n",
      "   midi.NoteOnEvent(tick=0, channel=4, data=[69, 80]),\n",
      "   midi.NoteOffEvent(tick=96, channel=4, data=[69, 0]),\n",
      "   midi.NoteOnEvent(tick=0, channel=4, data=[67, 80]),\n",
      "   midi.NoteOffEvent(tick=96, channel=4, data=[67, 0]),\n",
      "   midi.NoteOnEvent(tick=0, channel=4, data=[66, 80]),\n",
      "   midi.NoteOffEvent(tick=96, channel=4, data=[66, 0]),\n",
      "   midi.NoteOnEvent(tick=0, channel=4, data=[64, 80]),\n",
      "   midi.NoteOffEvent(tick=96, channel=4, data=[64, 0]),\n",
      "   midi.NoteOnEvent(tick=0, channel=4, data=[66, 80]),\n",
      "   midi.NoteOffEvent(tick=96, channel=4, data=[66, 0]),\n",
      "   midi.NoteOnEvent(tick=0, channel=4, data=[62, 80]),\n",
      "   midi.NoteOffEvent(tick=384, channel=4, data=[62, 0]),\n",
      "   midi.NoteOnEvent(tick=1728, channel=4, data=[64, 80]),\n",
      "   midi.NoteOffEvent(tick=192, channel=4, data=[64, 0]),\n",
      "   midi.NoteOnEvent(tick=0, channel=4, data=[69, 80]),\n",
      "   midi.NoteOffEvent(tick=192, channel=4, data=[69, 0]),\n",
      "   midi.NoteOnEvent(tick=0, channel=4, data=[74, 80]),\n",
      "   midi.NoteOffEvent(tick=384, channel=4, data=[74, 0]),\n",
      "   midi.NoteOnEvent(tick=0, channel=4, data=[73, 80]),\n",
      "   midi.NoteOffEvent(tick=192, channel=4, data=[73, 0]),\n",
      "   midi.NoteOnEvent(tick=0, channel=4, data=[74, 80]),\n",
      "   midi.NoteOffEvent(tick=192, channel=4, data=[74, 0]),\n",
      "   midi.NoteOnEvent(tick=0, channel=4, data=[73, 80]),\n",
      "   midi.NoteOffEvent(tick=192, channel=4, data=[73, 0]),\n",
      "   midi.NoteOnEvent(tick=0, channel=4, data=[74, 80]),\n",
      "   midi.NoteOffEvent(tick=192, channel=4, data=[74, 0]),\n",
      "   midi.NoteOnEvent(tick=1536, channel=4, data=[81, 80]),\n",
      "   midi.NoteOffEvent(tick=192, channel=4, data=[81, 0]),\n",
      "   midi.NoteOnEvent(tick=0, channel=4, data=[74, 80]),\n",
      "   midi.NoteOffEvent(tick=192, channel=4, data=[74, 0]),\n",
      "   midi.NoteOnEvent(tick=0, channel=4, data=[79, 80]),\n",
      "   midi.NoteOffEvent(tick=384, channel=4, data=[79, 0]),\n",
      "   midi.NoteOnEvent(tick=0, channel=4, data=[78, 80]),\n",
      "   midi.NoteOffEvent(tick=192, channel=4, data=[78, 0]),\n",
      "   midi.NoteOnEvent(tick=0, channel=4, data=[79, 80]),\n",
      "   midi.NoteOffEvent(tick=192, channel=4, data=[79, 0]),\n",
      "   midi.NoteOnEvent(tick=0, channel=4, data=[78, 80]),\n",
      "   midi.NoteOffEvent(tick=192, channel=4, data=[78, 0]),\n",
      "   midi.NoteOnEvent(tick=0, channel=4, data=[79, 80]),\n",
      "   midi.NoteOffEvent(tick=192, channel=4, data=[79, 0]),\n",
      "   midi.NoteOnEvent(tick=1152, channel=4, data=[76, 80]),\n",
      "   midi.NoteOffEvent(tick=192, channel=4, data=[76, 0]),\n",
      "   midi.NoteOnEvent(tick=0, channel=4, data=[73, 80]),\n",
      "   midi.NoteOffEvent(tick=192, channel=4, data=[73, 0]),\n",
      "   midi.NoteOnEvent(tick=0, channel=4, data=[69, 80]),\n",
      "   midi.NoteOffEvent(tick=192, channel=4, data=[69, 0]),\n",
      "   midi.NoteOnEvent(tick=960, channel=4, data=[67, 80]),\n",
      "   midi.NoteOffEvent(tick=192, channel=4, data=[67, 0]),\n",
      "   midi.NoteOnEvent(tick=0, channel=4, data=[64, 80]),\n",
      "   midi.NoteOffEvent(tick=192, channel=4, data=[64, 0]),\n",
      "   midi.NoteOnEvent(tick=0, channel=4, data=[61, 80]),\n",
      "   midi.NoteOffEvent(tick=192, channel=4, data=[61, 0]),\n",
      "   midi.NoteOnEvent(tick=0, channel=4, data=[74, 80]),\n",
      "   midi.NoteOffEvent(tick=96, channel=4, data=[74, 0]),\n",
      "   midi.NoteOnEvent(tick=0, channel=4, data=[76, 80]),\n",
      "   midi.NoteOffEvent(tick=96, channel=4, data=[76, 0]),\n",
      "   midi.NoteOnEvent(tick=0, channel=4, data=[78, 80]),\n",
      "   midi.NoteOffEvent(tick=96, channel=4, data=[78, 0]),\n",
      "   midi.NoteOnEvent(tick=96, channel=4, data=[78, 80]),\n",
      "   midi.NoteOffEvent(tick=96, channel=4, data=[78, 0]),\n",
      "   midi.NoteOnEvent(tick=96, channel=4, data=[78, 80]),\n",
      "   midi.NoteOffEvent(tick=96, channel=4, data=[78, 0]),\n",
      "   midi.NoteOnEvent(tick=96, channel=4, data=[78, 80]),\n",
      "   midi.NoteOffEvent(tick=192, channel=4, data=[78, 0]),\n",
      "   midi.NoteOnEvent(tick=0, channel=4, data=[66, 80]),\n",
      "   midi.NoteOffEvent(tick=192, channel=4, data=[66, 0]),\n",
      "   midi.NoteOnEvent(tick=0, channel=4, data=[62, 80]),\n",
      "   midi.NoteOffEvent(tick=192, channel=4, data=[62, 0]),\n",
      "   midi.NoteOnEvent(tick=0, channel=4, data=[66, 80]),\n",
      "   midi.NoteOffEvent(tick=192, channel=4, data=[66, 0]),\n",
      "   midi.NoteOnEvent(tick=0, channel=4, data=[71, 80]),\n",
      "   midi.NoteOffEvent(tick=192, channel=4, data=[71, 0]),\n",
      "   midi.NoteOnEvent(tick=0, channel=4, data=[76, 80]),\n",
      "   midi.NoteOffEvent(tick=384, channel=4, data=[76, 0]),\n",
      "   midi.NoteOnEvent(tick=0, channel=4, data=[69, 80]),\n",
      "   midi.NoteOffEvent(tick=256, channel=4, data=[69, 0]),\n",
      "   midi.NoteOnEvent(tick=32, channel=4, data=[74, 80]),\n",
      "   midi.NoteOffEvent(tick=96, channel=4, data=[74, 0]),\n",
      "   midi.NoteOnEvent(tick=0, channel=4, data=[73, 80]),\n",
      "   midi.NoteOffEvent(tick=96, channel=4, data=[73, 0]),\n",
      "   midi.NoteOnEvent(tick=0, channel=4, data=[71, 80]),\n",
      "   midi.NoteOffEvent(tick=96, channel=4, data=[71, 0]),\n",
      "   midi.NoteOnEvent(tick=0, channel=4, data=[69, 80]),\n",
      "   midi.NoteOffEvent(tick=96, channel=4, data=[69, 0]),\n",
      "   midi.NoteOnEvent(tick=0, channel=4, data=[67, 80]),\n",
      "   midi.NoteOffEvent(tick=96, channel=4, data=[67, 0]),\n",
      "   midi.NoteOnEvent(tick=0, channel=4, data=[66, 80]),\n",
      "   midi.NoteOffEvent(tick=96, channel=4, data=[66, 0]),\n",
      "   midi.NoteOnEvent(tick=0, channel=4, data=[64, 80]),\n",
      "   midi.NoteOffEvent(tick=96, channel=4, data=[64, 0]),\n",
      "   midi.NoteOnEvent(tick=0, channel=4, data=[62, 80]),\n",
      "   midi.NoteOffEvent(tick=192, channel=4, data=[62, 0]),\n",
      "   midi.NoteOnEvent(tick=0, channel=4, data=[74, 80]),\n",
      "   midi.NoteOffEvent(tick=192, channel=4, data=[74, 0]),\n",
      "   midi.NoteOnEvent(tick=0, channel=4, data=[73, 80]),\n",
      "   midi.NoteOffEvent(tick=192, channel=4, data=[73, 0]),\n",
      "   midi.NoteOnEvent(tick=0, channel=4, data=[69, 80]),\n",
      "   midi.NoteOffEvent(tick=192, channel=4, data=[69, 0]),\n",
      "   midi.NoteOnEvent(tick=0, channel=4, data=[74, 80]),\n",
      "   midi.NoteOffEvent(tick=192, channel=4, data=[74, 0]),\n",
      "   midi.NoteOnEvent(tick=0, channel=4, data=[73, 80]),\n",
      "   midi.NoteOffEvent(tick=96, channel=4, data=[73, 0]),\n",
      "   midi.NoteOnEvent(tick=0, channel=4, data=[71, 80]),\n",
      "   midi.NoteOffEvent(tick=96, channel=4, data=[71, 0]),\n",
      "   midi.NoteOnEvent(tick=0, channel=4, data=[69, 80]),\n",
      "   midi.NoteOffEvent(tick=96, channel=4, data=[69, 0]),\n",
      "   midi.NoteOnEvent(tick=0, channel=4, data=[67, 80]),\n",
      "   midi.NoteOffEvent(tick=96, channel=4, data=[67, 0]),\n",
      "   midi.NoteOnEvent(tick=0, channel=4, data=[66, 80]),\n",
      "   midi.NoteOffEvent(tick=96, channel=4, data=[66, 0]),\n",
      "   midi.NoteOnEvent(tick=0, channel=4, data=[64, 80]),\n",
      "   midi.NoteOffEvent(tick=96, channel=4, data=[64, 0]),\n",
      "   midi.NoteOnEvent(tick=0, channel=4, data=[62, 80]),\n",
      "   midi.NoteOffEvent(tick=192, channel=4, data=[62, 0]),\n",
      "   midi.NoteOnEvent(tick=0, channel=4, data=[71, 80]),\n",
      "   midi.NoteOffEvent(tick=192, channel=4, data=[71, 0]),\n",
      "   midi.NoteOnEvent(tick=0, channel=4, data=[71, 80]),\n",
      "   midi.NoteOffEvent(tick=192, channel=4, data=[71, 0]),\n",
      "   midi.NoteOnEvent(tick=0, channel=4, data=[69, 80]),\n",
      "   midi.NoteOffEvent(tick=192, channel=4, data=[69, 0]),\n",
      "   midi.NoteOnEvent(tick=0, channel=4, data=[69, 80]),\n",
      "   midi.NoteOffEvent(tick=96, channel=4, data=[69, 0]),\n",
      "   midi.NoteOnEvent(tick=0, channel=4, data=[74, 80]),\n",
      "   midi.NoteOffEvent(tick=96, channel=4, data=[74, 0]),\n",
      "   midi.NoteOnEvent(tick=0, channel=4, data=[73, 80]),\n",
      "   midi.NoteOffEvent(tick=96, channel=4, data=[73, 0]),\n",
      "   midi.NoteOnEvent(tick=0, channel=4, data=[71, 80]),\n",
      "   midi.NoteOffEvent(tick=96, channel=4, data=[71, 0]),\n",
      "   midi.NoteOnEvent(tick=0, channel=4, data=[69, 80]),\n",
      "   midi.NoteOffEvent(tick=96, channel=4, data=[69, 0]),\n",
      "   midi.NoteOnEvent(tick=0, channel=4, data=[67, 80]),\n",
      "   midi.NoteOffEvent(tick=96, channel=4, data=[67, 0]),\n",
      "   midi.NoteOnEvent(tick=0, channel=4, data=[66, 80]),\n",
      "   midi.NoteOffEvent(tick=96, channel=4, data=[66, 0]),\n",
      "   midi.NoteOnEvent(tick=0, channel=4, data=[64, 80]),\n",
      "   midi.NoteOffEvent(tick=96, channel=4, data=[64, 0]),\n",
      "   midi.NoteOnEvent(tick=0, channel=4, data=[62, 80]),\n",
      "   midi.NoteOffEvent(tick=192, channel=4, data=[62, 0]),\n",
      "   midi.NoteOnEvent(tick=0, channel=4, data=[74, 80]),\n",
      "   midi.NoteOffEvent(tick=192, channel=4, data=[74, 0]),\n",
      "   midi.NoteOnEvent(tick=0, channel=4, data=[73, 80]),\n",
      "   midi.NoteOffEvent(tick=192, channel=4, data=[73, 0]),\n",
      "   midi.NoteOnEvent(tick=0, channel=4, data=[69, 80]),\n",
      "   midi.NoteOffEvent(tick=192, channel=4, data=[69, 0]),\n",
      "   midi.NoteOnEvent(tick=0, channel=4, data=[74, 80]),\n",
      "   midi.NoteOffEvent(tick=192, channel=4, data=[74, 0]),\n",
      "   midi.NoteOnEvent(tick=0, channel=4, data=[73, 80]),\n",
      "   midi.NoteOffEvent(tick=96, channel=4, data=[73, 0]),\n",
      "   midi.NoteOnEvent(tick=0, channel=4, data=[71, 80]),\n",
      "   midi.NoteOffEvent(tick=96, channel=4, data=[71, 0]),\n",
      "   midi.NoteOnEvent(tick=0, channel=4, data=[69, 80]),\n",
      "   midi.NoteOffEvent(tick=96, channel=4, data=[69, 0]),\n",
      "   midi.NoteOnEvent(tick=0, channel=4, data=[67, 80]),\n",
      "   midi.NoteOffEvent(tick=96, channel=4, data=[67, 0]),\n",
      "   midi.NoteOnEvent(tick=0, channel=4, data=[66, 80]),\n",
      "   midi.NoteOffEvent(tick=96, channel=4, data=[66, 0]),\n",
      "   midi.NoteOnEvent(tick=0, channel=4, data=[64, 80]),\n",
      "   midi.NoteOffEvent(tick=96, channel=4, data=[64, 0]),\n",
      "   midi.NoteOnEvent(tick=0, channel=4, data=[62, 80]),\n",
      "   midi.NoteOffEvent(tick=192, channel=4, data=[62, 0]),\n",
      "   midi.NoteOnEvent(tick=0, channel=4, data=[71, 80]),\n",
      "   midi.NoteOffEvent(tick=192, channel=4, data=[71, 0]),\n",
      "   midi.NoteOnEvent(tick=0, channel=4, data=[71, 80]),\n",
      "   midi.NoteOffEvent(tick=192, channel=4, data=[71, 0]),\n",
      "   midi.NoteOnEvent(tick=0, channel=4, data=[69, 80]),\n",
      "   midi.NoteOffEvent(tick=192, channel=4, data=[69, 0]),\n",
      "   midi.NoteOnEvent(tick=0, channel=4, data=[69, 80]),\n",
      "   midi.NoteOffEvent(tick=96, channel=4, data=[69, 0]),\n",
      "   midi.NoteOnEvent(tick=0, channel=4, data=[74, 80]),\n",
      "   midi.NoteOffEvent(tick=96, channel=4, data=[74, 0]),\n",
      "   midi.NoteOnEvent(tick=0, channel=4, data=[73, 80]),\n",
      "   midi.NoteOffEvent(tick=96, channel=4, data=[73, 0]),\n",
      "   midi.NoteOnEvent(tick=0, channel=4, data=[71, 80]),\n",
      "   midi.NoteOffEvent(tick=96, channel=4, data=[71, 0]),\n",
      "   midi.NoteOnEvent(tick=0, channel=4, data=[69, 80]),\n",
      "   midi.NoteOffEvent(tick=96, channel=4, data=[69, 0]),\n",
      "   midi.NoteOnEvent(tick=0, channel=4, data=[67, 80]),\n",
      "   midi.NoteOffEvent(tick=96, channel=4, data=[67, 0]),\n",
      "   midi.NoteOnEvent(tick=0, channel=4, data=[66, 80]),\n",
      "   midi.NoteOffEvent(tick=96, channel=4, data=[66, 0]),\n",
      "   midi.NoteOnEvent(tick=0, channel=4, data=[64, 80]),\n",
      "   midi.NoteOffEvent(tick=96, channel=4, data=[64, 0]),\n",
      "   midi.NoteOnEvent(tick=0, channel=4, data=[62, 80]),\n",
      "   midi.NoteOffEvent(tick=192, channel=4, data=[62, 0]),\n",
      "   midi.NoteOnEvent(tick=0, channel=4, data=[74, 80]),\n",
      "   midi.NoteOffEvent(tick=192, channel=4, data=[74, 0]),\n",
      "   midi.NoteOnEvent(tick=0, channel=4, data=[71, 80]),\n",
      "   midi.NoteOffEvent(tick=192, channel=4, data=[71, 0]),\n",
      "   midi.NoteOnEvent(tick=0, channel=4, data=[66, 80]),\n",
      "   midi.NoteOffEvent(tick=192, channel=4, data=[66, 0]),\n",
      "   midi.NoteOnEvent(tick=0, channel=4, data=[68, 80]),\n",
      "   midi.NoteOffEvent(tick=192, channel=4, data=[68, 0]),\n",
      "   midi.NoteOnEvent(tick=0, channel=4, data=[78, 80]),\n",
      "   midi.NoteOffEvent(tick=384, channel=4, data=[78, 0]),\n",
      "   midi.NoteOnEvent(tick=0, channel=4, data=[76, 80]),\n",
      "   midi.NoteOffEvent(tick=96, channel=4, data=[76, 0]),\n",
      "   midi.NoteOnEvent(tick=0, channel=4, data=[74, 80]),\n",
      "   midi.NoteOffEvent(tick=96, channel=4, data=[74, 0]),\n",
      "   midi.NoteOnEvent(tick=0, channel=4, data=[76, 80]),\n",
      "   midi.NoteOffEvent(tick=192, channel=4, data=[76, 0]),\n",
      "   midi.NoteOnEvent(tick=0, channel=4, data=[73, 80]),\n",
      "   midi.NoteOffEvent(tick=192, channel=4, data=[73, 0]),\n",
      "   midi.NoteOnEvent(tick=0, channel=4, data=[69, 80]),\n",
      "   midi.NoteOffEvent(tick=192, channel=4, data=[69, 0]),\n",
      "   midi.NoteOnEvent(tick=0, channel=4, data=[64, 80]),\n",
      "   midi.NoteOffEvent(tick=192, channel=4, data=[64, 0]),\n",
      "   midi.NoteOnEvent(tick=0, channel=4, data=[66, 80]),\n",
      "   midi.NoteOffEvent(tick=192, channel=4, data=[66, 0]),\n",
      "   midi.NoteOnEvent(tick=0, channel=4, data=[76, 80]),\n",
      "   midi.NoteOffEvent(tick=384, channel=4, data=[76, 0]),\n",
      "   midi.NoteOnEvent(tick=0, channel=4, data=[74, 80]),\n",
      "   midi.NoteOffEvent(tick=96, channel=4, data=[74, 0]),\n",
      "   midi.NoteOnEvent(tick=0, channel=4, data=[73, 80]),\n",
      "   midi.NoteOffEvent(tick=96, channel=4, data=[73, 0]),\n",
      "   midi.NoteOnEvent(tick=0, channel=4, data=[71, 80]),\n",
      "   midi.NoteOffEvent(tick=96, channel=4, data=[71, 0]),\n",
      "   midi.NoteOnEvent(tick=0, channel=4, data=[73, 80]),\n",
      "   midi.NoteOffEvent(tick=96, channel=4, data=[73, 0]),\n",
      "   midi.NoteOnEvent(tick=0, channel=4, data=[71, 80]),\n",
      "   midi.NoteOffEvent(tick=96, channel=4, data=[71, 0]),\n",
      "   midi.NoteOnEvent(tick=96, channel=4, data=[71, 80]),\n",
      "   midi.NoteOffEvent(tick=96, channel=4, data=[71, 0]),\n",
      "   midi.NoteOnEvent(tick=96, channel=4, data=[71, 80]),\n",
      "   midi.NoteOffEvent(tick=96, channel=4, data=[71, 0]),\n",
      "   midi.NoteOnEvent(tick=96, channel=4, data=[83, 80]),\n",
      "   midi.NoteOffEvent(tick=384, channel=4, data=[83, 0]),\n",
      "   midi.NoteOnEvent(tick=192, channel=4, data=[81, 80]),\n",
      "   midi.NoteOffEvent(tick=96, channel=4, data=[81, 0]),\n",
      "   midi.NoteOnEvent(tick=0, channel=4, data=[80, 80]),\n",
      "   midi.NoteOffEvent(tick=96, channel=4, data=[80, 0]),\n",
      "   midi.NoteOnEvent(tick=0, channel=4, data=[81, 80]),\n",
      "   midi.NoteOffEvent(tick=96, channel=4, data=[81, 0]),\n",
      "   midi.NoteOnEvent(tick=0, channel=4, data=[76, 80]),\n",
      "   midi.NoteOffEvent(tick=96, channel=4, data=[76, 0]),\n",
      "   midi.NoteOnEvent(tick=0, channel=4, data=[74, 80]),\n",
      "   midi.NoteOffEvent(tick=96, channel=4, data=[74, 0]),\n",
      "   midi.NoteOnEvent(tick=0, channel=4, data=[73, 80]),\n",
      "   midi.NoteOffEvent(tick=96, channel=4, data=[73, 0]),\n",
      "   midi.NoteOnEvent(tick=0, channel=4, data=[74, 80]),\n",
      "   midi.NoteOffEvent(tick=96, channel=4, data=[74, 0]),\n",
      "   midi.NoteOnEvent(tick=0, channel=4, data=[73, 80]),\n",
      "   midi.NoteOffEvent(tick=96, channel=4, data=[73, 0]),\n",
      "   midi.NoteOnEvent(tick=0, channel=4, data=[71, 80]),\n",
      "   midi.NoteOffEvent(tick=96, channel=4, data=[71, 0]),\n",
      "   midi.NoteOnEvent(tick=0, channel=4, data=[73, 80]),\n",
      "   midi.NoteOffEvent(tick=96, channel=4, data=[73, 0]),\n",
      "   midi.NoteOnEvent(tick=0, channel=4, data=[69, 80]),\n",
      "   midi.NoteOffEvent(tick=768, channel=4, data=[69, 0]),\n",
      "   midi.EndOfTrackEvent(tick=0, data=[])]),\n",
      " midi.Track(\\\n",
      "  [midi.TrackNameEvent(tick=0, text='Viola', data=[86, 105, 111, 108, 97]),\n",
      "   midi.ControlChangeEvent(tick=0, channel=4, data=[0, 0]),\n",
      "   midi.ProgramChangeEvent(tick=0, channel=4, data=[48]),\n",
      "   midi.ControlChangeEvent(tick=0, channel=4, data=[7, 100]),\n",
      "   midi.ControlChangeEvent(tick=0, channel=4, data=[10, 61]),\n",
      "   midi.ControlChangeEvent(tick=0, channel=4, data=[91, 127]),\n",
      "   midi.ControlChangeEvent(tick=0, channel=4, data=[93, 127]),\n",
      "   midi.KeySignatureEvent(tick=0, data=[2, 0]),\n",
      "   midi.NoteOnEvent(tick=768, channel=4, data=[62, 80]),\n",
      "   midi.NoteOffEvent(tick=192, channel=4, data=[62, 0]),\n",
      "   midi.NoteOnEvent(tick=0, channel=4, data=[74, 80]),\n",
      "   midi.NoteOffEvent(tick=192, channel=4, data=[74, 0]),\n",
      "   midi.NoteOnEvent(tick=0, channel=4, data=[73, 80]),\n",
      "   midi.NoteOffEvent(tick=192, channel=4, data=[73, 0]),\n",
      "   midi.NoteOnEvent(tick=0, channel=4, data=[69, 80]),\n",
      "   midi.NoteOffEvent(tick=192, channel=4, data=[69, 0]),\n",
      "   midi.NoteOnEvent(tick=0, channel=4, data=[74, 80]),\n",
      "   midi.NoteOffEvent(tick=192, channel=4, data=[74, 0]),\n",
      "   midi.NoteOnEvent(tick=0, channel=4, data=[73, 80]),\n",
      "   midi.NoteOffEvent(tick=96, channel=4, data=[73, 0]),\n",
      "   midi.NoteOnEvent(tick=0, channel=4, data=[71, 80]),\n",
      "   midi.NoteOffEvent(tick=96, channel=4, data=[71, 0]),\n",
      "   midi.NoteOnEvent(tick=0, channel=4, data=[69, 80]),\n",
      "   midi.NoteOffEvent(tick=96, channel=4, data=[69, 0]),\n",
      "   midi.NoteOnEvent(tick=0, channel=4, data=[67, 80]),\n",
      "   midi.NoteOffEvent(tick=96, channel=4, data=[67, 0]),\n",
      "   midi.NoteOnEvent(tick=0, channel=4, data=[66, 80]),\n",
      "   midi.NoteOffEvent(tick=96, channel=4, data=[66, 0]),\n",
      "   midi.NoteOnEvent(tick=0, channel=4, data=[64, 80]),\n",
      "   midi.NoteOffEvent(tick=96, channel=4, data=[64, 0]),\n",
      "   midi.NoteOnEvent(tick=0, channel=4, data=[62, 80]),\n",
      "   midi.NoteOffEvent(tick=192, channel=4, data=[62, 0]),\n",
      "   midi.NoteOnEvent(tick=0, channel=4, data=[62, 80]),\n",
      "   midi.NoteOffEvent(tick=192, channel=4, data=[62, 0]),\n",
      "   midi.NoteOnEvent(tick=0, channel=4, data=[67, 80]),\n",
      "   midi.NoteOffEvent(tick=192, channel=4, data=[67, 0]),\n",
      "   midi.NoteOnEvent(tick=0, channel=4, data=[64, 80]),\n",
      "   midi.NoteOffEvent(tick=192, channel=4, data=[64, 0]),\n",
      "   midi.NoteOnEvent(tick=0, channel=4, data=[66, 80]),\n",
      "   midi.NoteOffEvent(tick=96, channel=4, data=[66, 0]),\n",
      "   midi.NoteOnEvent(tick=0, channel=4, data=[74, 80]),\n",
      "   midi.NoteOffEvent(tick=96, channel=4, data=[74, 0]),\n",
      "   midi.NoteOnEvent(tick=0, channel=4, data=[73, 80]),\n",
      "   midi.NoteOffEvent(tick=96, channel=4, data=[73, 0]),\n",
      "   midi.NoteOnEvent(tick=0, channel=4, data=[71, 80]),\n",
      "   midi.NoteOffEvent(tick=96, channel=4, data=[71, 0]),\n",
      "   midi.NoteOnEvent(tick=0, channel=4, data=[69, 80]),\n",
      "   midi.NoteOffEvent(tick=96, channel=4, data=[69, 0]),\n",
      "   midi.NoteOnEvent(tick=0, channel=4, data=[67, 80]),\n",
      "   midi.NoteOffEvent(tick=96, channel=4, data=[67, 0]),\n",
      "   midi.NoteOnEvent(tick=0, channel=4, data=[66, 80]),\n",
      "   midi.NoteOffEvent(tick=96, channel=4, data=[66, 0]),\n",
      "   midi.NoteOnEvent(tick=0, channel=4, data=[64, 80]),\n",
      "   midi.NoteOffEvent(tick=96, channel=4, data=[64, 0]),\n",
      "   midi.NoteOnEvent(tick=0, channel=4, data=[62, 80]),\n",
      "   midi.NoteOffEvent(tick=192, channel=4, data=[62, 0]),\n",
      "   midi.NoteOnEvent(tick=0, channel=4, data=[74, 80]),\n",
      "   midi.NoteOffEvent(tick=192, channel=4, data=[74, 0]),\n",
      "   midi.NoteOnEvent(tick=0, channel=4, data=[73, 80]),\n",
      "   midi.NoteOffEvent(tick=192, channel=4, data=[73, 0]),\n",
      "   midi.NoteOnEvent(tick=0, channel=4, data=[69, 80]),\n",
      "   midi.NoteOffEvent(tick=192, channel=4, data=[69, 0]),\n",
      "   midi.NoteOnEvent(tick=0, channel=4, data=[74, 80]),\n",
      "   midi.NoteOffEvent(tick=192, channel=4, data=[74, 0]),\n",
      "   midi.NoteOnEvent(tick=0, channel=4, data=[73, 80]),\n",
      "   midi.NoteOffEvent(tick=96, channel=4, data=[73, 0]),\n",
      "   midi.NoteOnEvent(tick=0, channel=4, data=[71, 80]),\n",
      "   midi.NoteOffEvent(tick=96, channel=4, data=[71, 0]),\n",
      "   midi.NoteOnEvent(tick=0, channel=4, data=[69, 80]),\n",
      "   midi.NoteOffEvent(tick=96, channel=4, data=[69, 0]),\n",
      "   midi.NoteOnEvent(tick=0, channel=4, data=[67, 80]),\n",
      "   midi.NoteOffEvent(tick=96, channel=4, data=[67, 0]),\n",
      "   midi.NoteOnEvent(tick=0, channel=4, data=[66, 80]),\n",
      "   midi.NoteOffEvent(tick=96, channel=4, data=[66, 0]),\n",
      "   midi.NoteOnEvent(tick=0, channel=4, data=[64, 80]),\n",
      "   midi.NoteOffEvent(tick=96, channel=4, data=[64, 0]),\n",
      "   midi.NoteOnEvent(tick=0, channel=4, data=[62, 80]),\n",
      "   midi.NoteOffEvent(tick=192, channel=4, data=[62, 0]),\n",
      "   midi.NoteOnEvent(tick=0, channel=4, data=[62, 80]),\n",
      "   midi.NoteOffEvent(tick=192, channel=4, data=[62, 0]),\n",
      "   midi.NoteOnEvent(tick=0, channel=4, data=[67, 80]),\n",
      "   midi.NoteOffEvent(tick=192, channel=4, data=[67, 0]),\n",
      "   midi.NoteOnEvent(tick=0, channel=4, data=[64, 80]),\n",
      "   midi.NoteOffEvent(tick=192, channel=4, data=[64, 0]),\n",
      "   midi.NoteOnEvent(tick=0, channel=4, data=[66, 80]),\n",
      "   midi.NoteOffEvent(tick=96, channel=4, data=[66, 0]),\n",
      "   midi.NoteOnEvent(tick=0, channel=4, data=[74, 80]),\n",
      "   midi.NoteOffEvent(tick=96, channel=4, data=[74, 0]),\n",
      "   midi.NoteOnEvent(tick=0, channel=4, data=[73, 80]),\n",
      "   midi.NoteOffEvent(tick=96, channel=4, data=[73, 0]),\n",
      "   midi.NoteOnEvent(tick=0, channel=4, data=[71, 80]),\n",
      "   midi.NoteOffEvent(tick=96, channel=4, data=[71, 0]),\n",
      "   midi.NoteOnEvent(tick=0, channel=4, data=[69, 80]),\n",
      "   midi.NoteOffEvent(tick=96, channel=4, data=[69, 0]),\n",
      "   midi.NoteOnEvent(tick=0, channel=4, data=[67, 80]),\n",
      "   midi.NoteOffEvent(tick=96, channel=4, data=[67, 0]),\n",
      "   midi.NoteOnEvent(tick=0, channel=4, data=[66, 80]),\n",
      "   midi.NoteOffEvent(tick=96, channel=4, data=[66, 0]),\n",
      "   midi.NoteOnEvent(tick=0, channel=4, data=[64, 80]),\n",
      "   midi.NoteOffEvent(tick=96, channel=4, data=[64, 0]),\n",
      "   midi.NoteOnEvent(tick=0, channel=4, data=[62, 80]),\n",
      "   midi.NoteOffEvent(tick=192, channel=4, data=[62, 0]),\n",
      "   midi.NoteOnEvent(tick=0, channel=4, data=[74, 80]),\n",
      "   midi.NoteOffEvent(tick=192, channel=4, data=[74, 0]),\n",
      "   midi.NoteOnEvent(tick=0, channel=4, data=[71, 80]),\n",
      "   midi.NoteOffEvent(tick=192, channel=4, data=[71, 0]),\n",
      "   midi.NoteOnEvent(tick=0, channel=4, data=[66, 80]),\n",
      "   midi.NoteOffEvent(tick=192, channel=4, data=[66, 0]),\n",
      "   midi.NoteOnEvent(tick=0, channel=4, data=[68, 80]),\n",
      "   midi.NoteOffEvent(tick=96, channel=4, data=[68, 0]),\n",
      "   midi.NoteOnEvent(tick=0, channel=4, data=[69, 80]),\n",
      "   midi.NoteOffEvent(tick=96, channel=4, data=[69, 0]),\n",
      "   midi.NoteOnEvent(tick=0, channel=4, data=[71, 80]),\n",
      "   midi.NoteOffEvent(tick=384, channel=4, data=[71, 0]),\n",
      "   midi.NoteOnEvent(tick=0, channel=4, data=[71, 80]),\n",
      "   midi.NoteOffEvent(tick=384, channel=4, data=[71, 0]),\n",
      "   midi.NoteOnEvent(tick=0, channel=4, data=[73, 80]),\n",
      "   midi.NoteOffEvent(tick=192, channel=4, data=[73, 0]),\n",
      "   midi.NoteOnEvent(tick=0, channel=4, data=[69, 80]),\n",
      "   midi.NoteOffEvent(tick=192, channel=4, data=[69, 0]),\n",
      "   midi.NoteOnEvent(tick=0, channel=4, data=[64, 80]),\n",
      "   midi.NoteOffEvent(tick=192, channel=4, data=[64, 0]),\n",
      "   midi.NoteOnEvent(tick=0, channel=4, data=[66, 80]),\n",
      "   midi.NoteOffEvent(tick=192, channel=4, data=[66, 0]),\n",
      "   midi.NoteOnEvent(tick=0, channel=4, data=[73, 80]),\n",
      "   midi.NoteOffEvent(tick=96, channel=4, data=[73, 0]),\n",
      "   midi.NoteOnEvent(tick=0, channel=4, data=[71, 80]),\n",
      "   midi.NoteOffEvent(tick=96, channel=4, data=[71, 0]),\n",
      "   midi.NoteOnEvent(tick=0, channel=4, data=[73, 80]),\n",
      "   midi.NoteOffEvent(tick=192, channel=4, data=[73, 0]),\n",
      "   midi.NoteOnEvent(tick=0, channel=4, data=[69, 80]),\n",
      "   midi.NoteOffEvent(tick=384, channel=4, data=[69, 0]),\n",
      "   midi.NoteOnEvent(tick=0, channel=4, data=[66, 80]),\n",
      "   midi.NoteOffEvent(tick=192, channel=4, data=[66, 0]),\n",
      "   midi.NoteOnEvent(tick=0, channel=4, data=[71, 80]),\n",
      "   midi.NoteOffEvent(tick=192, channel=4, data=[71, 0]),\n",
      "   midi.NoteOnEvent(tick=0, channel=4, data=[74, 80]),\n",
      "   midi.NoteOffEvent(tick=192, channel=4, data=[74, 0]),\n",
      "   midi.NoteOnEvent(tick=0, channel=4, data=[71, 80]),\n",
      "   midi.NoteOffEvent(tick=192, channel=4, data=[71, 0]),\n",
      "   midi.NoteOnEvent(tick=0, channel=4, data=[68, 80]),\n",
      "   midi.NoteOffEvent(tick=192, channel=4, data=[68, 0]),\n",
      "   midi.NoteOnEvent(tick=0, channel=4, data=[64, 80]),\n",
      "   midi.NoteOffEvent(tick=192, channel=4, data=[64, 0]),\n",
      "   midi.NoteOnEvent(tick=0, channel=4, data=[64, 80]),\n",
      "   midi.NoteOffEvent(tick=384, channel=4, data=[64, 0]),\n",
      "   midi.NoteOnEvent(tick=0, channel=4, data=[57, 80]),\n",
      "   midi.NoteOffEvent(tick=192, channel=4, data=[57, 0]),\n",
      "   midi.NoteOnEvent(tick=0, channel=4, data=[61, 80]),\n",
      "   midi.NoteOffEvent(tick=192, channel=4, data=[61, 0]),\n",
      "   midi.NoteOnEvent(tick=0, channel=4, data=[64, 80]),\n",
      "   midi.NoteOffEvent(tick=384, channel=4, data=[64, 0]),\n",
      "   midi.NoteOnEvent(tick=0, channel=4, data=[57, 80]),\n",
      "   midi.NoteOffEvent(tick=192, channel=4, data=[57, 0]),\n",
      "   midi.NoteOnEvent(tick=0, channel=4, data=[61, 80]),\n",
      "   midi.NoteOffEvent(tick=192, channel=4, data=[61, 0]),\n",
      "   midi.NoteOnEvent(tick=0, channel=4, data=[64, 80]),\n",
      "   midi.NoteOffEvent(tick=192, channel=4, data=[64, 0]),\n",
      "   midi.NoteOnEvent(tick=0, channel=4, data=[69, 80]),\n",
      "   midi.NoteOffEvent(tick=192, channel=4, data=[69, 0]),\n",
      "   midi.NoteOnEvent(tick=0, channel=4, data=[67, 80]),\n",
      "   midi.NoteOffEvent(tick=96, channel=4, data=[67, 0]),\n",
      "   midi.NoteOnEvent(tick=0, channel=4, data=[66, 80]),\n",
      "   midi.NoteOffEvent(tick=96, channel=4, data=[66, 0]),\n",
      "   midi.NoteOnEvent(tick=0, channel=4, data=[64, 80]),\n",
      "   midi.NoteOffEvent(tick=96, channel=4, data=[64, 0]),\n",
      "   midi.NoteOnEvent(tick=0, channel=4, data=[62, 80]),\n",
      "   midi.NoteOffEvent(tick=96, channel=4, data=[62, 0]),\n",
      "   midi.NoteOnEvent(tick=0, channel=4, data=[61, 80]),\n",
      "   midi.NoteOffEvent(tick=96, channel=4, data=[61, 0]),\n",
      "   midi.NoteOnEvent(tick=0, channel=4, data=[59, 80]),\n",
      "   midi.NoteOffEvent(tick=96, channel=4, data=[59, 0]),\n",
      "   midi.NoteOnEvent(tick=0, channel=4, data=[58, 80]),\n",
      "   midi.NoteOffEvent(tick=192, channel=4, data=[58, 0]),\n",
      "   midi.NoteOnEvent(tick=768, channel=4, data=[58, 80]),\n",
      "   midi.NoteOffEvent(tick=192, channel=4, data=[58, 0]),\n",
      "   midi.NoteOnEvent(tick=0, channel=4, data=[61, 80]),\n",
      "   midi.NoteOffEvent(tick=192, channel=4, data=[61, 0]),\n",
      "   midi.NoteOnEvent(tick=0, channel=4, data=[66, 80]),\n",
      "   midi.NoteOffEvent(tick=384, channel=4, data=[66, 0]),\n",
      "   midi.NoteOnEvent(tick=0, channel=4, data=[71, 80]),\n",
      "   midi.NoteOffEvent(tick=96, channel=4, data=[71, 0]),\n",
      "   midi.NoteOnEvent(tick=0, channel=4, data=[70, 80]),\n",
      "   midi.NoteOffEvent(tick=96, channel=4, data=[70, 0]),\n",
      "   midi.NoteOnEvent(tick=0, channel=4, data=[71, 80]),\n",
      "   midi.NoteOffEvent(tick=192, channel=4, data=[71, 0]),\n",
      "   midi.NoteOnEvent(tick=0, channel=4, data=[66, 80]),\n",
      "   midi.NoteOffEvent(tick=192, channel=4, data=[66, 0]),\n",
      "   midi.NoteOnEvent(tick=0, channel=4, data=[62, 80]),\n",
      "   midi.NoteOffEvent(tick=192, channel=4, data=[62, 0]),\n",
      "   midi.NoteOnEvent(tick=0, channel=4, data=[57, 80]),\n",
      "   midi.NoteOffEvent(tick=192, channel=4, data=[57, 0]),\n",
      "   midi.NoteOnEvent(tick=0, channel=4, data=[60, 80]),\n",
      "   midi.NoteOffEvent(tick=192, channel=4, data=[60, 0]),\n",
      "   midi.NoteOnEvent(tick=0, channel=4, data=[66, 80]),\n",
      "   midi.NoteOffEvent(tick=192, channel=4, data=[66, 0]),\n",
      "   midi.NoteOnEvent(tick=0, channel=4, data=[69, 80]),\n",
      "   midi.NoteOffEvent(tick=192, channel=4, data=[69, 0]),\n",
      "   midi.NoteOnEvent(tick=0, channel=4, data=[72, 80]),\n",
      "   midi.NoteOffEvent(tick=96, channel=4, data=[72, 0]),\n",
      "   midi.NoteOnEvent(tick=0, channel=4, data=[71, 80]),\n",
      "   midi.NoteOffEvent(tick=96, channel=4, data=[71, 0]),\n",
      "   midi.NoteOnEvent(tick=0, channel=4, data=[69, 80]),\n",
      "   midi.NoteOffEvent(tick=96, channel=4, data=[69, 0]),\n",
      "   midi.NoteOnEvent(tick=0, channel=4, data=[67, 80]),\n",
      "   midi.NoteOffEvent(tick=96, channel=4, data=[67, 0]),\n",
      "   midi.NoteOnEvent(tick=0, channel=4, data=[66, 80]),\n",
      "   midi.NoteOffEvent(tick=96, channel=4, data=[66, 0]),\n",
      "   midi.NoteOnEvent(tick=0, channel=4, data=[64, 80]),\n",
      "   midi.NoteOffEvent(tick=96, channel=4, data=[64, 0]),\n",
      "   midi.NoteOnEvent(tick=0, channel=4, data=[63, 80]),\n",
      "   midi.NoteOffEvent(tick=192, channel=4, data=[63, 0]),\n",
      "   midi.NoteOnEvent(tick=0, channel=4, data=[63, 80]),\n",
      "   midi.NoteOffEvent(tick=192, channel=4, data=[63, 0]),\n",
      "   midi.NoteOnEvent(tick=0, channel=4, data=[66, 80]),\n",
      "   midi.NoteOffEvent(tick=192, channel=4, data=[66, 0]),\n",
      "   midi.NoteOnEvent(tick=0, channel=4, data=[71, 80]),\n",
      "   midi.NoteOffEvent(tick=192, channel=4, data=[71, 0]),\n",
      "   midi.NoteOnEvent(tick=0, channel=4, data=[59, 80]),\n",
      "   midi.NoteOffEvent(tick=192, channel=4, data=[59, 0]),\n",
      "   midi.NoteOnEvent(tick=0, channel=4, data=[64, 80]),\n",
      "   midi.NoteOffEvent(tick=96, channel=4, data=[64, 0]),\n",
      "   midi.NoteOnEvent(tick=0, channel=4, data=[63, 80]),\n",
      "   midi.NoteOffEvent(tick=96, channel=4, data=[63, 0]),\n",
      "   midi.NoteOnEvent(tick=0, channel=4, data=[64, 80]),\n",
      "   midi.NoteOffEvent(tick=192, channel=4, data=[64, 0]),\n",
      "   midi.NoteOnEvent(tick=0, channel=4, data=[71, 80]),\n",
      "   midi.NoteOffEvent(tick=192, channel=4, data=[71, 0]),\n",
      "   midi.NoteOnEvent(tick=0, channel=4, data=[71, 80]),\n",
      "   midi.NoteOffEvent(tick=192, channel=4, data=[71, 0]),\n",
      "   midi.NoteOnEvent(tick=0, channel=4, data=[76, 80]),\n",
      "   midi.NoteOffEvent(tick=192, channel=4, data=[76, 0]),\n",
      "   midi.NoteOnEvent(tick=0, channel=4, data=[71, 80]),\n",
      "   midi.NoteOffEvent(tick=192, channel=4, data=[71, 0]),\n",
      "   midi.NoteOnEvent(tick=0, channel=4, data=[67, 80]),\n",
      "   midi.NoteOffEvent(tick=192, channel=4, data=[67, 0]),\n",
      "   midi.NoteOnEvent(tick=192, channel=4, data=[67, 80]),\n",
      "   midi.NoteOffEvent(tick=96, channel=4, data=[67, 0]),\n",
      "   midi.NoteOnEvent(tick=0, channel=4, data=[66, 80]),\n",
      "   midi.NoteOffEvent(tick=96, channel=4, data=[66, 0]),\n",
      "   midi.NoteOnEvent(tick=0, channel=4, data=[64, 80]),\n",
      "   midi.NoteOffEvent(tick=192, channel=4, data=[64, 0]),\n",
      "   midi.NoteOnEvent(tick=0, channel=4, data=[69, 80]),\n",
      "   midi.NoteOffEvent(tick=192, channel=4, data=[69, 0]),\n",
      "   midi.NoteOnEvent(tick=0, channel=4, data=[57, 80]),\n",
      "   midi.NoteOffEvent(tick=192, channel=4, data=[57, 0]),\n",
      "   midi.NoteOnEvent(tick=0, channel=4, data=[74, 80]),\n",
      "   midi.NoteOffEvent(tick=192, channel=4, data=[74, 0]),\n",
      "   midi.NoteOnEvent(tick=0, channel=4, data=[69, 80]),\n",
      "   midi.NoteOffEvent(tick=192, channel=4, data=[69, 0]),\n",
      "   midi.NoteOnEvent(tick=0, channel=4, data=[66, 80]),\n",
      "   midi.NoteOffEvent(tick=192, channel=4, data=[66, 0]),\n",
      "   midi.NoteOnEvent(tick=192, channel=4, data=[62, 80]),\n",
      "   midi.NoteOffEvent(tick=192, channel=4, data=[62, 0]),\n",
      "   midi.NoteOnEvent(tick=0, channel=4, data=[67, 80]),\n",
      "   midi.NoteOffEvent(tick=192, channel=4, data=[67, 0]),\n",
      "   midi.NoteOnEvent(tick=0, channel=4, data=[62, 80]),\n",
      "   midi.NoteOffEvent(tick=192, channel=4, data=[62, 0]),\n",
      "   midi.NoteOnEvent(tick=0, channel=4, data=[64, 80]),\n",
      "   midi.NoteOffEvent(tick=192, channel=4, data=[64, 0]),\n",
      "   midi.NoteOnEvent(tick=0, channel=4, data=[64, 80]),\n",
      "   midi.NoteOffEvent(tick=192, channel=4, data=[64, 0]),\n",
      "   midi.NoteOnEvent(tick=0, channel=4, data=[64, 80]),\n",
      "   midi.NoteOffEvent(tick=192, channel=4, data=[64, 0]),\n",
      "   midi.NoteOnEvent(tick=0, channel=4, data=[64, 80]),\n",
      "   midi.NoteOffEvent(tick=192, channel=4, data=[64, 0]),\n",
      "   midi.NoteOnEvent(tick=0, channel=4, data=[64, 80]),\n",
      "   midi.NoteOffEvent(tick=512, channel=4, data=[64, 0]),\n",
      "   midi.NoteOnEvent(tick=64, channel=4, data=[69, 80]),\n",
      "   midi.NoteOffEvent(tick=192, channel=4, data=[69, 0]),\n",
      "   midi.NoteOnEvent(tick=0, channel=4, data=[69, 80]),\n",
      "   midi.NoteOffEvent(tick=192, channel=4, data=[69, 0]),\n",
      "   midi.NoteOnEvent(tick=0, channel=4, data=[71, 80]),\n",
      "   midi.NoteOffEvent(tick=192, channel=4, data=[71, 0]),\n",
      "   midi.NoteOnEvent(tick=0, channel=4, data=[69, 80]),\n",
      "   midi.NoteOffEvent(tick=192, channel=4, data=[69, 0]),\n",
      "   midi.NoteOnEvent(tick=0, channel=4, data=[67, 80]),\n",
      "   midi.NoteOffEvent(tick=192, channel=4, data=[67, 0]),\n",
      "   midi.NoteOnEvent(tick=0, channel=4, data=[66, 80]),\n",
      "   midi.NoteOffEvent(tick=384, channel=4, data=[66, 0]),\n",
      "   midi.NoteOnEvent(tick=384, channel=4, data=[66, 80]),\n",
      "   midi.NoteOffEvent(tick=384, channel=4, data=[66, 0]),\n",
      "   midi.NoteOnEvent(tick=0, channel=4, data=[62, 80]),\n",
      "   midi.NoteOffEvent(tick=384, channel=4, data=[62, 0]),\n",
      "   midi.NoteOnEvent(tick=0, channel=4, data=[57, 80]),\n",
      "   midi.NoteOffEvent(tick=192, channel=4, data=[57, 0]),\n",
      "   midi.NoteOnEvent(tick=0, channel=4, data=[57, 80]),\n",
      "   midi.NoteOffEvent(tick=192, channel=4, data=[57, 0]),\n",
      "   midi.NoteOnEvent(tick=0, channel=4, data=[62, 80]),\n",
      "   midi.NoteOffEvent(tick=1344, channel=4, data=[62, 0]),\n",
      "   midi.NoteOnEvent(tick=0, channel=4, data=[60, 80]),\n",
      "   midi.NoteOffEvent(tick=192, channel=4, data=[60, 0]),\n",
      "   midi.NoteOnEvent(tick=0, channel=4, data=[62, 80]),\n",
      "   midi.NoteOffEvent(tick=192, channel=4, data=[62, 0]),\n",
      "   midi.NoteOnEvent(tick=0, channel=4, data=[67, 80]),\n",
      "   midi.NoteOffEvent(tick=192, channel=4, data=[67, 0]),\n",
      "   midi.NoteOnEvent(tick=0, channel=4, data=[61, 80]),\n",
      "   midi.NoteOffEvent(tick=96, channel=4, data=[61, 0]),\n",
      "   midi.NoteOnEvent(tick=0, channel=4, data=[62, 80]),\n",
      "   midi.NoteOffEvent(tick=96, channel=4, data=[62, 0]),\n",
      "   midi.NoteOnEvent(tick=0, channel=4, data=[64, 80]),\n",
      "   midi.NoteOffEvent(tick=96, channel=4, data=[64, 0]),\n",
      "   midi.NoteOnEvent(tick=96, channel=4, data=[64, 80]),\n",
      "   midi.NoteOffEvent(tick=96, channel=4, data=[64, 0]),\n",
      "   midi.NoteOnEvent(tick=96, channel=4, data=[61, 80]),\n",
      "   midi.NoteOffEvent(tick=96, channel=4, data=[61, 0]),\n",
      "   midi.NoteOnEvent(tick=96, channel=4, data=[57, 80]),\n",
      "   midi.NoteOffEvent(tick=512, channel=4, data=[57, 0]),\n",
      "   midi.NoteOnEvent(tick=64, channel=4, data=[57, 80]),\n",
      "   midi.NoteOffEvent(tick=192, channel=4, data=[57, 0]),\n",
      "   midi.NoteOnEvent(tick=0, channel=4, data=[57, 80]),\n",
      "   midi.NoteOffEvent(tick=192, channel=4, data=[57, 0]),\n",
      "   midi.NoteOnEvent(tick=0, channel=4, data=[62, 80]),\n",
      "   midi.NoteOffEvent(tick=192, channel=4, data=[62, 0]),\n",
      "   midi.NoteOnEvent(tick=0, channel=4, data=[62, 80]),\n",
      "   midi.NoteOffEvent(tick=192, channel=4, data=[62, 0]),\n",
      "   midi.NoteOnEvent(tick=0, channel=4, data=[61, 80]),\n",
      "   midi.NoteOffEvent(tick=192, channel=4, data=[61, 0]),\n",
      "   midi.NoteOnEvent(tick=0, channel=4, data=[62, 80]),\n",
      "   midi.NoteOffEvent(tick=384, channel=4, data=[62, 0]),\n",
      "   midi.NoteOnEvent(tick=0, channel=4, data=[57, 80]),\n",
      "   midi.NoteOffEvent(tick=384, channel=4, data=[57, 0]),\n",
      "   midi.NoteOnEvent(tick=0, channel=4, data=[62, 80]),\n",
      "   midi.NoteOffEvent(tick=192, channel=4, data=[62, 0]),\n",
      "   midi.NoteOnEvent(tick=0, channel=4, data=[74, 80]),\n",
      "   midi.NoteOffEvent(tick=192, channel=4, data=[74, 0]),\n",
      "   midi.NoteOnEvent(tick=0, channel=4, data=[73, 80]),\n",
      "   midi.NoteOffEvent(tick=192, channel=4, data=[73, 0]),\n",
      "   midi.NoteOnEvent(tick=0, channel=4, data=[69, 80]),\n",
      "   midi.NoteOffEvent(tick=192, channel=4, data=[69, 0]),\n",
      "   midi.NoteOnEvent(tick=0, channel=4, data=[74, 80]),\n",
      "   midi.NoteOffEvent(tick=192, channel=4, data=[74, 0]),\n",
      "   midi.NoteOnEvent(tick=0, channel=4, data=[73, 80]),\n",
      "   midi.NoteOffEvent(tick=96, channel=4, data=[73, 0]),\n",
      "   midi.NoteOnEvent(tick=0, channel=4, data=[71, 80]),\n",
      "   midi.NoteOffEvent(tick=96, channel=4, data=[71, 0]),\n",
      "   midi.NoteOnEvent(tick=0, channel=4, data=[69, 80]),\n",
      "   midi.NoteOffEvent(tick=96, channel=4, data=[69, 0]),\n",
      "   midi.NoteOnEvent(tick=0, channel=4, data=[67, 80]),\n",
      "   midi.NoteOffEvent(tick=96, channel=4, data=[67, 0]),\n",
      "   midi.NoteOnEvent(tick=0, channel=4, data=[66, 80]),\n",
      "   midi.NoteOffEvent(tick=96, channel=4, data=[66, 0]),\n",
      "   midi.NoteOnEvent(tick=0, channel=4, data=[64, 80]),\n",
      "   midi.NoteOffEvent(tick=96, channel=4, data=[64, 0]),\n",
      "   midi.NoteOnEvent(tick=0, channel=4, data=[62, 80]),\n",
      "   midi.NoteOffEvent(tick=192, channel=4, data=[62, 0]),\n",
      "   midi.NoteOnEvent(tick=672, channel=4, data=[74, 80]),\n",
      "   midi.NoteOffEvent(tick=96, channel=4, data=[74, 0]),\n",
      "   midi.NoteOnEvent(tick=0, channel=4, data=[73, 80]),\n",
      "   midi.NoteOffEvent(tick=96, channel=4, data=[73, 0]),\n",
      "   midi.NoteOnEvent(tick=0, channel=4, data=[71, 80]),\n",
      "   midi.NoteOffEvent(tick=96, channel=4, data=[71, 0]),\n",
      "   midi.NoteOnEvent(tick=0, channel=4, data=[69, 80]),\n",
      "   midi.NoteOffEvent(tick=96, channel=4, data=[69, 0]),\n",
      "   midi.NoteOnEvent(tick=0, channel=4, data=[67, 80]),\n",
      "   midi.NoteOffEvent(tick=96, channel=4, data=[67, 0]),\n",
      "   midi.NoteOnEvent(tick=0, channel=4, data=[66, 80]),\n",
      "   midi.NoteOffEvent(tick=96, channel=4, data=[66, 0]),\n",
      "   midi.NoteOnEvent(tick=0, channel=4, data=[64, 80]),\n",
      "   midi.NoteOffEvent(tick=96, channel=4, data=[64, 0]),\n",
      "   midi.NoteOnEvent(tick=0, channel=4, data=[62, 80]),\n",
      "   midi.NoteOffEvent(tick=192, channel=4, data=[62, 0]),\n",
      "   midi.NoteOnEvent(tick=0, channel=4, data=[57, 80]),\n",
      "   midi.NoteOffEvent(tick=192, channel=4, data=[57, 0]),\n",
      "   midi.NoteOnEvent(tick=0, channel=4, data=[62, 80]),\n",
      "   midi.NoteOffEvent(tick=480, channel=4, data=[62, 0]),\n",
      "   midi.NoteOnEvent(tick=0, channel=4, data=[61, 80]),\n",
      "   midi.NoteOffEvent(tick=96, channel=4, data=[61, 0]),\n",
      "   midi.NoteOnEvent(tick=0, channel=4, data=[59, 80]),\n",
      "   midi.NoteOffEvent(tick=96, channel=4, data=[59, 0]),\n",
      "   midi.NoteOnEvent(tick=96, channel=4, data=[59, 80]),\n",
      "   midi.NoteOffEvent(tick=96, channel=4, data=[59, 0]),\n",
      "   midi.NoteOnEvent(tick=96, channel=4, data=[59, 80]),\n",
      "   midi.NoteOffEvent(tick=256, channel=4, data=[59, 0]),\n",
      "   midi.NoteOnEvent(tick=32, channel=4, data=[57, 80]),\n",
      "   midi.NoteOffEvent(tick=96, channel=4, data=[57, 0]),\n",
      "   midi.NoteOnEvent(tick=0, channel=4, data=[55, 80]),\n",
      "   midi.NoteOffEvent(tick=96, channel=4, data=[55, 0]),\n",
      "   midi.NoteOnEvent(tick=0, channel=4, data=[54, 80]),\n",
      "   midi.NoteOffEvent(tick=96, channel=4, data=[54, 0]),\n",
      "   midi.NoteOnEvent(tick=0, channel=4, data=[55, 80]),\n",
      "   midi.NoteOffEvent(tick=192, channel=4, data=[55, 0]),\n",
      "   midi.NoteOnEvent(tick=0, channel=4, data=[59, 80]),\n",
      "   midi.NoteOffEvent(tick=192, channel=4, data=[59, 0]),\n",
      "   midi.NoteOnEvent(tick=0, channel=4, data=[57, 80]),\n",
      "   midi.NoteOffEvent(tick=192, channel=4, data=[57, 0]),\n",
      "   midi.NoteOnEvent(tick=0, channel=4, data=[59, 80]),\n",
      "   midi.NoteOffEvent(tick=192, channel=4, data=[59, 0]),\n",
      "   midi.NoteOnEvent(tick=0, channel=4, data=[61, 80]),\n",
      "   midi.NoteOffEvent(tick=96, channel=4, data=[61, 0]),\n",
      "   midi.NoteOnEvent(tick=0, channel=4, data=[57, 80]),\n",
      "   midi.NoteOffEvent(tick=96, channel=4, data=[57, 0]),\n",
      "   midi.NoteOnEvent(tick=0, channel=4, data=[59, 80]),\n",
      "   midi.NoteOffEvent(tick=96, channel=4, data=[59, 0]),\n",
      "   midi.NoteOnEvent(tick=0, channel=4, data=[61, 80]),\n",
      "   midi.NoteOffEvent(tick=96, channel=4, data=[61, 0]),\n",
      "   midi.NoteOnEvent(tick=0, channel=4, data=[62, 80]),\n",
      "   midi.NoteOffEvent(tick=192, channel=4, data=[62, 0]),\n",
      "   midi.NoteOnEvent(tick=0, channel=4, data=[74, 80]),\n",
      "   midi.NoteOffEvent(tick=192, channel=4, data=[74, 0]),\n",
      "   midi.NoteOnEvent(tick=0, channel=4, data=[71, 80]),\n",
      "   midi.NoteOffEvent(tick=192, channel=4, data=[71, 0]),\n",
      "   midi.NoteOnEvent(tick=0, channel=4, data=[66, 80]),\n",
      "   midi.NoteOffEvent(tick=192, channel=4, data=[66, 0]),\n",
      "   midi.NoteOnEvent(tick=0, channel=4, data=[68, 80]),\n",
      "   midi.NoteOffEvent(tick=96, channel=4, data=[68, 0]),\n",
      "   midi.NoteOnEvent(tick=0, channel=4, data=[69, 80]),\n",
      "   midi.NoteOffEvent(tick=96, channel=4, data=[69, 0]),\n",
      "   midi.NoteOnEvent(tick=0, channel=4, data=[71, 80]),\n",
      "   midi.NoteOffEvent(tick=384, channel=4, data=[71, 0]),\n",
      "   midi.NoteOnEvent(tick=0, channel=4, data=[71, 80]),\n",
      "   midi.NoteOffEvent(tick=384, channel=4, data=[71, 0]),\n",
      "   midi.NoteOnEvent(tick=0, channel=4, data=[73, 80]),\n",
      "   midi.NoteOffEvent(tick=192, channel=4, data=[73, 0]),\n",
      "   midi.NoteOnEvent(tick=0, channel=4, data=[69, 80]),\n",
      "   midi.NoteOffEvent(tick=192, channel=4, data=[69, 0]),\n",
      "   midi.NoteOnEvent(tick=0, channel=4, data=[64, 80]),\n",
      "   midi.NoteOffEvent(tick=192, channel=4, data=[64, 0]),\n",
      "   midi.NoteOnEvent(tick=0, channel=4, data=[66, 80]),\n",
      "   midi.NoteOffEvent(tick=192, channel=4, data=[66, 0]),\n",
      "   midi.NoteOnEvent(tick=0, channel=4, data=[73, 80]),\n",
      "   midi.NoteOffEvent(tick=96, channel=4, data=[73, 0]),\n",
      "   midi.NoteOnEvent(tick=0, channel=4, data=[71, 80]),\n",
      "   midi.NoteOffEvent(tick=96, channel=4, data=[71, 0]),\n",
      "   midi.NoteOnEvent(tick=0, channel=4, data=[73, 80]),\n",
      "   midi.NoteOffEvent(tick=192, channel=4, data=[73, 0]),\n",
      "   midi.NoteOnEvent(tick=0, channel=4, data=[66, 80]),\n",
      "   midi.NoteOffEvent(tick=384, channel=4, data=[66, 0]),\n",
      "   midi.NoteOnEvent(tick=0, channel=4, data=[62, 80]),\n",
      "   midi.NoteOffEvent(tick=192, channel=4, data=[62, 0]),\n",
      "   midi.NoteOnEvent(tick=0, channel=4, data=[71, 80]),\n",
      "   midi.NoteOffEvent(tick=192, channel=4, data=[71, 0]),\n",
      "   midi.NoteOnEvent(tick=0, channel=4, data=[74, 80]),\n",
      "   midi.NoteOffEvent(tick=192, channel=4, data=[74, 0]),\n",
      "   midi.NoteOnEvent(tick=0, channel=4, data=[71, 80]),\n",
      "   midi.NoteOffEvent(tick=192, channel=4, data=[71, 0]),\n",
      "   midi.NoteOnEvent(tick=0, channel=4, data=[68, 80]),\n",
      "   midi.NoteOffEvent(tick=192, channel=4, data=[68, 0]),\n",
      "   midi.NoteOnEvent(tick=0, channel=4, data=[64, 80]),\n",
      "   midi.NoteOffEvent(tick=192, channel=4, data=[64, 0]),\n",
      "   midi.NoteOnEvent(tick=0, channel=4, data=[64, 80]),\n",
      "   midi.NoteOffEvent(tick=384, channel=4, data=[64, 0]),\n",
      "   midi.NoteOnEvent(tick=0, channel=4, data=[57, 80]),\n",
      "   midi.NoteOffEvent(tick=192, channel=4, data=[57, 0]),\n",
      "   midi.NoteOnEvent(tick=0, channel=4, data=[61, 80]),\n",
      "   midi.NoteOffEvent(tick=192, channel=4, data=[61, 0]),\n",
      "   midi.NoteOnEvent(tick=0, channel=4, data=[64, 80]),\n",
      "   midi.NoteOffEvent(tick=384, channel=4, data=[64, 0]),\n",
      "   midi.NoteOnEvent(tick=1920, channel=4, data=[56, 80]),\n",
      "   midi.NoteOffEvent(tick=192, channel=4, data=[56, 0]),\n",
      "   midi.NoteOnEvent(tick=0, channel=4, data=[57, 80]),\n",
      "   midi.NoteOffEvent(tick=192, channel=4, data=[57, 0]),\n",
      "   midi.NoteOnEvent(tick=0, channel=4, data=[54, 80]),\n",
      "   midi.NoteOffEvent(tick=192, channel=4, data=[54, 0]),\n",
      "   midi.NoteOnEvent(tick=0, channel=4, data=[66, 80]),\n",
      "   midi.NoteOffEvent(tick=192, channel=4, data=[66, 0]),\n",
      "   midi.NoteOnEvent(tick=0, channel=4, data=[64, 80]),\n",
      "   midi.NoteOffEvent(tick=192, channel=4, data=[64, 0]),\n",
      "   midi.NoteOnEvent(tick=0, channel=4, data=[64, 80]),\n",
      "   midi.NoteOffEvent(tick=192, channel=4, data=[64, 0]),\n",
      "   midi.NoteOnEvent(tick=0, channel=4, data=[62, 80]),\n",
      "   midi.NoteOffEvent(tick=192, channel=4, data=[62, 0]),\n",
      "   midi.NoteOnEvent(tick=0, channel=4, data=[64, 80]),\n",
      "   midi.NoteOffEvent(tick=192, channel=4, data=[64, 0]),\n",
      "   midi.NoteOnEvent(tick=1536, channel=4, data=[61, 80]),\n",
      "   midi.NoteOffEvent(tick=192, channel=4, data=[61, 0]),\n",
      "   midi.NoteOnEvent(tick=0, channel=4, data=[62, 80]),\n",
      "   midi.NoteOffEvent(tick=192, channel=4, data=[62, 0]),\n",
      "   midi.NoteOnEvent(tick=0, channel=4, data=[59, 80]),\n",
      "   midi.NoteOffEvent(tick=192, channel=4, data=[59, 0]),\n",
      "   midi.NoteOnEvent(tick=0, channel=4, data=[64, 80]),\n",
      "   midi.NoteOffEvent(tick=192, channel=4, data=[64, 0]),\n",
      "   midi.NoteOnEvent(tick=0, channel=4, data=[69, 80]),\n",
      "   midi.NoteOffEvent(tick=192, channel=4, data=[69, 0]),\n",
      "   midi.NoteOnEvent(tick=0, channel=4, data=[69, 80]),\n",
      "   midi.NoteOffEvent(tick=192, channel=4, data=[69, 0]),\n",
      "   midi.NoteOnEvent(tick=0, channel=4, data=[67, 80]),\n",
      "   midi.NoteOffEvent(tick=192, channel=4, data=[67, 0]),\n",
      "   midi.NoteOnEvent(tick=0, channel=4, data=[69, 80]),\n",
      "   midi.NoteOffEvent(tick=192, channel=4, data=[69, 0]),\n",
      "   midi.NoteOnEvent(tick=3264, channel=4, data=[64, 80]),\n",
      "   midi.NoteOffEvent(tick=96, channel=4, data=[64, 0]),\n",
      "   midi.NoteOnEvent(tick=0, channel=4, data=[62, 80]),\n",
      "   midi.NoteOffEvent(tick=96, channel=4, data=[62, 0]),\n",
      "   midi.NoteOnEvent(tick=0, channel=4, data=[61, 80]),\n",
      "   midi.NoteOffEvent(tick=96, channel=4, data=[61, 0]),\n",
      "   midi.NoteOnEvent(tick=0, channel=4, data=[59, 80]),\n",
      "   midi.NoteOffEvent(tick=96, channel=4, data=[59, 0]),\n",
      "   midi.NoteOnEvent(tick=0, channel=4, data=[55, 80]),\n",
      "   midi.NoteOffEvent(tick=192, channel=4, data=[55, 0]),\n",
      "   midi.NoteOnEvent(tick=0, channel=4, data=[62, 80]),\n",
      "   midi.NoteOffEvent(tick=192, channel=4, data=[62, 0]),\n",
      "   midi.NoteOnEvent(tick=0, channel=4, data=[64, 80]),\n",
      "   midi.NoteOffEvent(tick=96, channel=4, data=[64, 0]),\n",
      "   midi.NoteOnEvent(tick=0, channel=4, data=[66, 80]),\n",
      "   midi.NoteOffEvent(tick=96, channel=4, data=[66, 0]),\n",
      "   midi.NoteOnEvent(tick=0, channel=4, data=[64, 80]),\n",
      "   midi.NoteOffEvent(tick=96, channel=4, data=[64, 0]),\n",
      "   midi.NoteOnEvent(tick=0, channel=4, data=[62, 80]),\n",
      "   midi.NoteOffEvent(tick=96, channel=4, data=[62, 0]),\n",
      "   midi.NoteOnEvent(tick=0, channel=4, data=[61, 80]),\n",
      "   midi.NoteOffEvent(tick=192, channel=4, data=[61, 0]),\n",
      "   midi.NoteOnEvent(tick=0, channel=4, data=[61, 80]),\n",
      "   midi.NoteOffEvent(tick=192, channel=4, data=[61, 0]),\n",
      "   midi.NoteOnEvent(tick=0, channel=4, data=[62, 80]),\n",
      "   midi.NoteOffEvent(tick=384, channel=4, data=[62, 0]),\n",
      "   midi.NoteOnEvent(tick=0, channel=4, data=[59, 80]),\n",
      "   midi.NoteOffEvent(tick=384, channel=4, data=[59, 0]),\n",
      "   midi.NoteOnEvent(tick=0, channel=4, data=[61, 80]),\n",
      "   midi.NoteOffEvent(tick=96, channel=4, data=[61, 0]),\n",
      "   midi.NoteOnEvent(tick=0, channel=4, data=[69, 80]),\n",
      "   midi.NoteOffEvent(tick=96, channel=4, data=[69, 0]),\n",
      "   midi.NoteOnEvent(tick=0, channel=4, data=[68, 80]),\n",
      "   midi.NoteOffEvent(tick=96, channel=4, data=[68, 0]),\n",
      "   midi.NoteOnEvent(tick=0, channel=4, data=[66, 80]),\n",
      "   midi.NoteOffEvent(tick=96, channel=4, data=[66, 0]),\n",
      "   midi.NoteOnEvent(tick=0, channel=4, data=[64, 80]),\n",
      "   midi.NoteOffEvent(tick=96, channel=4, data=[64, 0]),\n",
      "   midi.NoteOnEvent(tick=0, channel=4, data=[62, 80]),\n",
      "   midi.NoteOffEvent(tick=96, channel=4, data=[62, 0]),\n",
      "   midi.NoteOnEvent(tick=0, channel=4, data=[61, 80]),\n",
      "   midi.NoteOffEvent(tick=96, channel=4, data=[61, 0]),\n",
      "   midi.NoteOnEvent(tick=0, channel=4, data=[59, 80]),\n",
      "   midi.NoteOffEvent(tick=96, channel=4, data=[59, 0]),\n",
      "   midi.NoteOnEvent(tick=0, channel=4, data=[57, 80]),\n",
      "   midi.NoteOffEvent(tick=192, channel=4, data=[57, 0]),\n",
      "   midi.NoteOnEvent(tick=0, channel=4, data=[69, 80]),\n",
      "   midi.NoteOffEvent(tick=192, channel=4, data=[69, 0]),\n",
      "   midi.NoteOnEvent(tick=0, channel=4, data=[68, 80]),\n",
      "   midi.NoteOffEvent(tick=192, channel=4, data=[68, 0]),\n",
      "   midi.NoteOnEvent(tick=0, channel=4, data=[64, 80]),\n",
      "   midi.NoteOffEvent(tick=192, channel=4, data=[64, 0]),\n",
      "   midi.NoteOnEvent(tick=0, channel=4, data=[69, 80]),\n",
      "   midi.NoteOffEvent(tick=192, channel=4, data=[69, 0]),\n",
      "   midi.NoteOnEvent(tick=0, channel=4, data=[68, 80]),\n",
      "   midi.NoteOffEvent(tick=96, channel=4, data=[68, 0]),\n",
      "   midi.NoteOnEvent(tick=0, channel=4, data=[66, 80]),\n",
      "   midi.NoteOffEvent(tick=96, channel=4, data=[66, 0]),\n",
      "   midi.NoteOnEvent(tick=0, channel=4, data=[64, 80]),\n",
      "   midi.NoteOffEvent(tick=96, channel=4, data=[64, 0]),\n",
      "   midi.NoteOnEvent(tick=0, channel=4, data=[62, 80]),\n",
      "   midi.NoteOffEvent(tick=96, channel=4, data=[62, 0]),\n",
      "   midi.NoteOnEvent(tick=0, channel=4, data=[61, 80]),\n",
      "   midi.NoteOffEvent(tick=96, channel=4, data=[61, 0]),\n",
      "   midi.NoteOnEvent(tick=0, channel=4, data=[59, 80]),\n",
      "   midi.NoteOffEvent(tick=96, channel=4, data=[59, 0]),\n",
      "   midi.NoteOnEvent(tick=0, channel=4, data=[57, 80]),\n",
      "   midi.NoteOffEvent(tick=192, channel=4, data=[57, 0]),\n",
      "   midi.NoteOnEvent(tick=0, channel=4, data=[57, 80]),\n",
      "   midi.NoteOffEvent(tick=192, channel=4, data=[57, 0]),\n",
      "   midi.NoteOnEvent(tick=0, channel=4, data=[64, 80]),\n",
      "   midi.NoteOffEvent(tick=192, channel=4, data=[64, 0]),\n",
      "   midi.NoteOnEvent(tick=0, channel=4, data=[59, 80]),\n",
      "   midi.NoteOffEvent(tick=192, channel=4, data=[59, 0]),\n",
      "   midi.NoteOnEvent(tick=0, channel=4, data=[61, 80]),\n",
      "   midi.NoteOffEvent(tick=96, channel=4, data=[61, 0]),\n",
      "   midi.NoteOnEvent(tick=0, channel=4, data=[69, 80]),\n",
      "   midi.NoteOffEvent(tick=96, channel=4, data=[69, 0]),\n",
      "   midi.NoteOnEvent(tick=0, channel=4, data=[68, 80]),\n",
      "   midi.NoteOffEvent(tick=96, channel=4, data=[68, 0]),\n",
      "   midi.NoteOnEvent(tick=0, channel=4, data=[66, 80]),\n",
      "   midi.NoteOffEvent(tick=96, channel=4, data=[66, 0]),\n",
      "   midi.NoteOnEvent(tick=0, channel=4, data=[64, 80]),\n",
      "   midi.NoteOffEvent(tick=96, channel=4, data=[64, 0]),\n",
      "   midi.NoteOnEvent(tick=0, channel=4, data=[62, 80]),\n",
      "   midi.NoteOffEvent(tick=96, channel=4, data=[62, 0]),\n",
      "   midi.NoteOnEvent(tick=0, channel=4, data=[61, 80]),\n",
      "   midi.NoteOffEvent(tick=96, channel=4, data=[61, 0]),\n",
      "   midi.NoteOnEvent(tick=0, channel=4, data=[59, 80]),\n",
      "   midi.NoteOffEvent(tick=96, channel=4, data=[59, 0]),\n",
      "   midi.NoteOnEvent(tick=0, channel=4, data=[57, 80]),\n",
      "   midi.NoteOffEvent(tick=192, channel=4, data=[57, 0]),\n",
      "   midi.NoteOnEvent(tick=0, channel=4, data=[69, 80]),\n",
      "   midi.NoteOffEvent(tick=192, channel=4, data=[69, 0]),\n",
      "   midi.NoteOnEvent(tick=0, channel=4, data=[68, 80]),\n",
      "   midi.NoteOffEvent(tick=192, channel=4, data=[68, 0]),\n",
      "   midi.NoteOnEvent(tick=0, channel=4, data=[64, 80]),\n",
      "   midi.NoteOffEvent(tick=192, channel=4, data=[64, 0]),\n",
      "   midi.NoteOnEvent(tick=0, channel=4, data=[69, 80]),\n",
      "   midi.NoteOffEvent(tick=192, channel=4, data=[69, 0]),\n",
      "   midi.NoteOnEvent(tick=0, channel=4, data=[68, 80]),\n",
      "   midi.NoteOffEvent(tick=96, channel=4, data=[68, 0]),\n",
      "   midi.NoteOnEvent(tick=0, channel=4, data=[66, 80]),\n",
      "   midi.NoteOffEvent(tick=96, channel=4, data=[66, 0]),\n",
      "   midi.NoteOnEvent(tick=0, channel=4, data=[64, 80]),\n",
      "   midi.NoteOffEvent(tick=96, channel=4, data=[64, 0]),\n",
      "   midi.NoteOnEvent(tick=0, channel=4, data=[62, 80]),\n",
      "   midi.NoteOffEvent(tick=96, channel=4, data=[62, 0]),\n",
      "   midi.NoteOnEvent(tick=0, channel=4, data=[61, 80]),\n",
      "   midi.NoteOffEvent(tick=96, channel=4, data=[61, 0]),\n",
      "   midi.NoteOnEvent(tick=0, channel=4, data=[59, 80]),\n",
      "   midi.NoteOffEvent(tick=96, channel=4, data=[59, 0]),\n",
      "   midi.NoteOnEvent(tick=0, channel=4, data=[57, 80]),\n",
      "   midi.NoteOffEvent(tick=192, channel=4, data=[57, 0]),\n",
      "   midi.NoteOnEvent(tick=0, channel=4, data=[57, 80]),\n",
      "   midi.NoteOffEvent(tick=192, channel=4, data=[57, 0]),\n",
      "   midi.NoteOnEvent(tick=0, channel=4, data=[64, 80]),\n",
      "   midi.NoteOffEvent(tick=192, channel=4, data=[64, 0]),\n",
      "   midi.NoteOnEvent(tick=0, channel=4, data=[59, 80]),\n",
      "   midi.NoteOffEvent(tick=192, channel=4, data=[59, 0]),\n",
      "   midi.NoteOnEvent(tick=0, channel=4, data=[61, 80]),\n",
      "   midi.NoteOffEvent(tick=96, channel=4, data=[61, 0]),\n",
      "   midi.NoteOnEvent(tick=0, channel=4, data=[69, 80]),\n",
      "   midi.NoteOffEvent(tick=96, channel=4, data=[69, 0]),\n",
      "   midi.NoteOnEvent(tick=0, channel=4, data=[68, 80]),\n",
      "   midi.NoteOffEvent(tick=96, channel=4, data=[68, 0]),\n",
      "   midi.NoteOnEvent(tick=0, channel=4, data=[66, 80]),\n",
      "   midi.NoteOffEvent(tick=96, channel=4, data=[66, 0]),\n",
      "   midi.NoteOnEvent(tick=0, channel=4, data=[64, 80]),\n",
      "   midi.NoteOffEvent(tick=96, channel=4, data=[64, 0]),\n",
      "   midi.NoteOnEvent(tick=0, channel=4, data=[62, 80]),\n",
      "   midi.NoteOffEvent(tick=96, channel=4, data=[62, 0]),\n",
      "   midi.NoteOnEvent(tick=0, channel=4, data=[61, 80]),\n",
      "   midi.NoteOffEvent(tick=96, channel=4, data=[61, 0]),\n",
      "   midi.NoteOnEvent(tick=0, channel=4, data=[59, 80]),\n",
      "   midi.NoteOffEvent(tick=96, channel=4, data=[59, 0]),\n",
      "   midi.NoteOnEvent(tick=0, channel=4, data=[62, 80]),\n",
      "   midi.NoteOffEvent(tick=192, channel=4, data=[62, 0]),\n",
      "   midi.NoteOnEvent(tick=0, channel=4, data=[78, 80]),\n",
      "   midi.NoteOffEvent(tick=192, channel=4, data=[78, 0]),\n",
      "   midi.NoteOnEvent(tick=0, channel=4, data=[71, 80]),\n",
      "   midi.NoteOffEvent(tick=192, channel=4, data=[71, 0]),\n",
      "   midi.NoteOnEvent(tick=0, channel=4, data=[66, 80]),\n",
      "   midi.NoteOffEvent(tick=192, channel=4, data=[66, 0]),\n",
      "   midi.NoteOnEvent(tick=0, channel=4, data=[68, 80]),\n",
      "   midi.NoteOffEvent(tick=96, channel=4, data=[68, 0]),\n",
      "   midi.NoteOnEvent(tick=0, channel=4, data=[69, 80]),\n",
      "   midi.NoteOffEvent(tick=96, channel=4, data=[69, 0]),\n",
      "   midi.NoteOnEvent(tick=0, channel=4, data=[71, 80]),\n",
      "   midi.NoteOffEvent(tick=384, channel=4, data=[71, 0]),\n",
      "   midi.NoteOnEvent(tick=0, channel=4, data=[71, 80]),\n",
      "   midi.NoteOffEvent(tick=384, channel=4, data=[71, 0]),\n",
      "   midi.NoteOnEvent(tick=0, channel=4, data=[73, 80]),\n",
      "   midi.NoteOffEvent(tick=192, channel=4, data=[73, 0]),\n",
      "   midi.NoteOnEvent(tick=0, channel=4, data=[69, 80]),\n",
      "   midi.NoteOffEvent(tick=192, channel=4, data=[69, 0]),\n",
      "   midi.NoteOnEvent(tick=0, channel=4, data=[64, 80]),\n",
      "   midi.NoteOffEvent(tick=192, channel=4, data=[64, 0]),\n",
      "   midi.NoteOnEvent(tick=0, channel=4, data=[66, 80]),\n",
      "   midi.NoteOffEvent(tick=192, channel=4, data=[66, 0]),\n",
      "   midi.NoteOnEvent(tick=0, channel=4, data=[73, 80]),\n",
      "   midi.NoteOffEvent(tick=96, channel=4, data=[73, 0]),\n",
      "   midi.NoteOnEvent(tick=0, channel=4, data=[71, 80]),\n",
      "   midi.NoteOffEvent(tick=96, channel=4, data=[71, 0]),\n",
      "   midi.NoteOnEvent(tick=0, channel=4, data=[73, 80]),\n",
      "   midi.NoteOffEvent(tick=192, channel=4, data=[73, 0]),\n",
      "   midi.NoteOnEvent(tick=0, channel=4, data=[69, 80]),\n",
      "   midi.NoteOffEvent(tick=384, channel=4, data=[69, 0]),\n",
      "   midi.NoteOnEvent(tick=0, channel=4, data=[66, 80]),\n",
      "   midi.NoteOffEvent(tick=192, channel=4, data=[66, 0]),\n",
      "   midi.NoteOnEvent(tick=0, channel=4, data=[71, 80]),\n",
      "   midi.NoteOffEvent(tick=192, channel=4, data=[71, 0]),\n",
      "   midi.NoteOnEvent(tick=0, channel=4, data=[74, 80]),\n",
      "   midi.NoteOffEvent(tick=192, channel=4, data=[74, 0]),\n",
      "   midi.NoteOnEvent(tick=0, channel=4, data=[71, 80]),\n",
      "   midi.NoteOffEvent(tick=384, channel=4, data=[71, 0]),\n",
      "   midi.NoteOnEvent(tick=192, channel=4, data=[64, 80]),\n",
      "   midi.NoteOffEvent(tick=192, channel=4, data=[64, 0]),\n",
      "   midi.NoteOnEvent(tick=0, channel=4, data=[64, 80]),\n",
      "   midi.NoteOffEvent(tick=192, channel=4, data=[64, 0]),\n",
      "   midi.NoteOnEvent(tick=0, channel=4, data=[69, 80]),\n",
      "   midi.NoteOffEvent(tick=192, channel=4, data=[69, 0]),\n",
      "   midi.NoteOnEvent(tick=0, channel=4, data=[61, 80]),\n",
      "   midi.NoteOffEvent(tick=192, channel=4, data=[61, 0]),\n",
      "   midi.NoteOnEvent(tick=0, channel=4, data=[64, 80]),\n",
      "   midi.NoteOffEvent(tick=192, channel=4, data=[64, 0]),\n",
      "   midi.NoteOnEvent(tick=0, channel=4, data=[64, 80]),\n",
      "   midi.NoteOffEvent(tick=192, channel=4, data=[64, 0]),\n",
      "   midi.NoteOnEvent(tick=0, channel=4, data=[62, 80]),\n",
      "   midi.NoteOffEvent(tick=192, channel=4, data=[62, 0]),\n",
      "   midi.NoteOnEvent(tick=0, channel=4, data=[61, 80]),\n",
      "   midi.NoteOffEvent(tick=192, channel=4, data=[61, 0]),\n",
      "   midi.NoteOnEvent(tick=0, channel=4, data=[59, 80]),\n",
      "   midi.NoteOffEvent(tick=192, channel=4, data=[59, 0]),\n",
      "   midi.NoteOnEvent(tick=0, channel=4, data=[57, 80]),\n",
      "   midi.NoteOffEvent(tick=384, channel=4, data=[57, 0]),\n",
      "   midi.NoteOnEvent(tick=0, channel=4, data=[57, 80]),\n",
      "   midi.NoteOffEvent(tick=384, channel=4, data=[57, 0]),\n",
      "   midi.NoteOnEvent(tick=384, channel=4, data=[61, 80]),\n",
      "   midi.NoteOffEvent(tick=192, channel=4, data=[61, 0]),\n",
      "   midi.NoteOnEvent(tick=0, channel=4, data=[61, 80]),\n",
      "   midi.NoteOffEvent(tick=192, channel=4, data=[61, 0]),\n",
      "   midi.NoteOnEvent(tick=0, channel=4, data=[61, 80]),\n",
      "   midi.NoteOffEvent(tick=192, channel=4, data=[61, 0]),\n",
      "   midi.NoteOnEvent(tick=0, channel=4, data=[59, 80]),\n",
      "   midi.NoteOffEvent(tick=192, channel=4, data=[59, 0]),\n",
      "   midi.NoteOnEvent(tick=0, channel=4, data=[56, 80]),\n",
      "   midi.NoteOffEvent(tick=192, channel=4, data=[56, 0]),\n",
      "   midi.NoteOnEvent(tick=0, channel=4, data=[61, 80]),\n",
      "   midi.NoteOffEvent(tick=384, channel=4, data=[61, 0]),\n",
      "   midi.NoteOnEvent(tick=0, channel=4, data=[65, 80]),\n",
      "   midi.NoteOffEvent(tick=192, channel=4, data=[65, 0]),\n",
      "   midi.NoteOnEvent(tick=0, channel=4, data=[66, 80]),\n",
      "   midi.NoteOffEvent(tick=192, channel=4, data=[66, 0]),\n",
      "   midi.NoteOnEvent(tick=0, channel=4, data=[66, 80]),\n",
      "   midi.NoteOffEvent(tick=192, channel=4, data=[66, 0]),\n",
      "   midi.NoteOnEvent(tick=0, channel=4, data=[66, 80]),\n",
      "   midi.NoteOffEvent(tick=384, channel=4, data=[66, 0]),\n",
      "   midi.NoteOnEvent(tick=0, channel=4, data=[71, 80]),\n",
      "   midi.NoteOffEvent(tick=384, channel=4, data=[71, 0]),\n",
      "   midi.NoteOnEvent(tick=384, channel=4, data=[66, 80]),\n",
      "   midi.NoteOffEvent(tick=192, channel=4, data=[66, 0]),\n",
      "   midi.NoteOnEvent(tick=0, channel=4, data=[66, 80]),\n",
      "   midi.NoteOffEvent(tick=192, channel=4, data=[66, 0]),\n",
      "   midi.NoteOnEvent(tick=0, channel=4, data=[59, 80]),\n",
      "   midi.NoteOffEvent(tick=192, channel=4, data=[59, 0]),\n",
      "   midi.NoteOnEvent(tick=0, channel=4, data=[61, 80]),\n",
      "   midi.NoteOffEvent(tick=192, channel=4, data=[61, 0]),\n",
      "   midi.NoteOnEvent(tick=0, channel=4, data=[61, 80]),\n",
      "   midi.NoteOffEvent(tick=192, channel=4, data=[61, 0]),\n",
      "   midi.NoteOnEvent(tick=0, channel=4, data=[66, 80]),\n",
      "   midi.NoteOffEvent(tick=192, channel=4, data=[66, 0]),\n",
      "   midi.NoteOnEvent(tick=0, channel=4, data=[66, 80]),\n",
      "   midi.NoteOffEvent(tick=192, channel=4, data=[66, 0]),\n",
      "   midi.NoteOnEvent(tick=0, channel=4, data=[70, 80]),\n",
      "   midi.NoteOffEvent(tick=192, channel=4, data=[70, 0]),\n",
      "   midi.NoteOnEvent(tick=0, channel=4, data=[71, 80]),\n",
      "   midi.NoteOffEvent(tick=192, channel=4, data=[71, 0]),\n",
      "   midi.NoteOnEvent(tick=0, channel=4, data=[71, 80]),\n",
      "   midi.NoteOffEvent(tick=192, channel=4, data=[71, 0]),\n",
      "   midi.NoteOnEvent(tick=0, channel=4, data=[71, 80]),\n",
      "   midi.NoteOffEvent(tick=192, channel=4, data=[71, 0]),\n",
      "   midi.NoteOnEvent(tick=0, channel=4, data=[59, 80]),\n",
      "   midi.NoteOffEvent(tick=192, channel=4, data=[59, 0]),\n",
      "   midi.NoteOnEvent(tick=0, channel=4, data=[64, 80]),\n",
      "   midi.NoteOffEvent(tick=384, channel=4, data=[64, 0]),\n",
      "   midi.NoteOnEvent(tick=192, channel=4, data=[64, 80]),\n",
      "   midi.NoteOffEvent(tick=384, channel=4, data=[64, 0]),\n",
      "   midi.NoteOnEvent(tick=0, channel=4, data=[66, 80]),\n",
      "   midi.NoteOffEvent(tick=96, channel=4, data=[66, 0]),\n",
      "   midi.NoteOnEvent(tick=0, channel=4, data=[67, 80]),\n",
      "   midi.NoteOffEvent(tick=96, channel=4, data=[67, 0]),\n",
      "   midi.NoteOnEvent(tick=0, channel=4, data=[69, 80]),\n",
      "   midi.NoteOffEvent(tick=512, channel=4, data=[69, 0]),\n",
      "   midi.NoteOnEvent(tick=64, channel=4, data=[74, 80]),\n",
      "   midi.NoteOffEvent(tick=96, channel=4, data=[74, 0]),\n",
      "   midi.NoteOnEvent(tick=0, channel=4, data=[69, 80]),\n",
      "   midi.NoteOffEvent(tick=96, channel=4, data=[69, 0]),\n",
      "   midi.NoteOnEvent(tick=0, channel=4, data=[62, 80]),\n",
      "   midi.NoteOffEvent(tick=384, channel=4, data=[62, 0]),\n",
      "   midi.NoteOnEvent(tick=96, channel=4, data=[62, 80]),\n",
      "   midi.NoteOffEvent(tick=96, channel=4, data=[62, 0]),\n",
      "   midi.NoteOnEvent(tick=0, channel=4, data=[64, 80]),\n",
      "   midi.NoteOffEvent(tick=96, channel=4, data=[64, 0]),\n",
      "   midi.NoteOnEvent(tick=0, channel=4, data=[66, 80]),\n",
      "   midi.NoteOffEvent(tick=96, channel=4, data=[66, 0]),\n",
      "   midi.NoteOnEvent(tick=0, channel=4, data=[67, 80]),\n",
      "   midi.NoteOffEvent(tick=480, channel=4, data=[67, 0]),\n",
      "   midi.NoteOnEvent(tick=0, channel=4, data=[66, 80]),\n",
      "   midi.NoteOffEvent(tick=96, channel=4, data=[66, 0]),\n",
      "   midi.NoteOnEvent(tick=0, channel=4, data=[64, 80]),\n",
      "   midi.NoteOffEvent(tick=96, channel=4, data=[64, 0]),\n",
      "   midi.NoteOnEvent(tick=0, channel=4, data=[62, 80]),\n",
      "   midi.NoteOffEvent(tick=96, channel=4, data=[62, 0]),\n",
      "   midi.NoteOnEvent(tick=0, channel=4, data=[61, 80]),\n",
      "   midi.NoteOffEvent(tick=192, channel=4, data=[61, 0]),\n",
      "   midi.NoteOnEvent(tick=0, channel=4, data=[64, 80]),\n",
      "   midi.NoteOffEvent(tick=192, channel=4, data=[64, 0]),\n",
      "   midi.NoteOnEvent(tick=0, channel=4, data=[62, 80]),\n",
      "   midi.NoteOffEvent(tick=192, channel=4, data=[62, 0]),\n",
      "   midi.NoteOnEvent(tick=0, channel=4, data=[66, 80]),\n",
      "   midi.NoteOffEvent(tick=192, channel=4, data=[66, 0]),\n",
      "   midi.NoteOnEvent(tick=0, channel=4, data=[59, 80]),\n",
      "   midi.NoteOffEvent(tick=192, channel=4, data=[59, 0]),\n",
      "   midi.NoteOnEvent(tick=0, channel=4, data=[62, 80]),\n",
      "   midi.NoteOffEvent(tick=192, channel=4, data=[62, 0]),\n",
      "   midi.NoteOnEvent(tick=0, channel=4, data=[64, 80]),\n",
      "   midi.NoteOffEvent(tick=192, channel=4, data=[64, 0]),\n",
      "   midi.NoteOnEvent(tick=0, channel=4, data=[61, 80]),\n",
      "   midi.NoteOffEvent(tick=192, channel=4, data=[61, 0]),\n",
      "   midi.NoteOnEvent(tick=0, channel=4, data=[62, 80]),\n",
      "   midi.NoteOffEvent(tick=384, channel=4, data=[62, 0]),\n",
      "   midi.NoteOnEvent(tick=576, channel=4, data=[67, 80]),\n",
      "   midi.NoteOffEvent(tick=96, channel=4, data=[67, 0]),\n",
      "   midi.NoteOnEvent(tick=0, channel=4, data=[66, 80]),\n",
      "   midi.NoteOffEvent(tick=96, channel=4, data=[66, 0]),\n",
      "   midi.NoteOnEvent(tick=0, channel=4, data=[64, 80]),\n",
      "   midi.NoteOffEvent(tick=96, channel=4, data=[64, 0]),\n",
      "   midi.NoteOnEvent(tick=0, channel=4, data=[62, 80]),\n",
      "   midi.NoteOffEvent(tick=96, channel=4, data=[62, 0]),\n",
      "   midi.NoteOnEvent(tick=0, channel=4, data=[61, 80]),\n",
      "   midi.NoteOffEvent(tick=96, channel=4, data=[61, 0]),\n",
      "   midi.NoteOnEvent(tick=0, channel=4, data=[59, 80]),\n",
      "   midi.NoteOffEvent(tick=96, channel=4, data=[59, 0]),\n",
      "   midi.NoteOnEvent(tick=0, channel=4, data=[58, 80]),\n",
      "   midi.NoteOffEvent(tick=192, channel=4, data=[58, 0]),\n",
      "   midi.NoteOnEvent(tick=768, channel=4, data=[58, 80]),\n",
      "   midi.NoteOffEvent(tick=192, channel=4, data=[58, 0]),\n",
      "   midi.NoteOnEvent(tick=0, channel=4, data=[61, 80]),\n",
      "   midi.NoteOffEvent(tick=192, channel=4, data=[61, 0]),\n",
      "   midi.NoteOnEvent(tick=0, channel=4, data=[66, 80]),\n",
      "   midi.NoteOffEvent(tick=384, channel=4, data=[66, 0]),\n",
      "   midi.NoteOnEvent(tick=0, channel=4, data=[71, 80]),\n",
      "   midi.NoteOffEvent(tick=96, channel=4, data=[71, 0]),\n",
      "   midi.NoteOnEvent(tick=0, channel=4, data=[70, 80]),\n",
      "   midi.NoteOffEvent(tick=96, channel=4, data=[70, 0]),\n",
      "   midi.NoteOnEvent(tick=0, channel=4, data=[71, 80]),\n",
      "   midi.NoteOffEvent(tick=192, channel=4, data=[71, 0]),\n",
      "   midi.NoteOnEvent(tick=0, channel=4, data=[66, 80]),\n",
      "   midi.NoteOffEvent(tick=384, channel=4, data=[66, 0]),\n",
      "   midi.NoteOnEvent(tick=0, channel=4, data=[57, 80]),\n",
      "   midi.NoteOffEvent(tick=192, channel=4, data=[57, 0]),\n",
      "   midi.NoteOnEvent(tick=0, channel=4, data=[60, 80]),\n",
      "   midi.NoteOffEvent(tick=192, channel=4, data=[60, 0]),\n",
      "   midi.NoteOnEvent(tick=0, channel=4, data=[63, 80]),\n",
      "   midi.NoteOffEvent(tick=192, channel=4, data=[63, 0]),\n",
      "   midi.NoteOnEvent(tick=0, channel=4, data=[66, 80]),\n",
      "   midi.NoteOffEvent(tick=192, channel=4, data=[66, 0]),\n",
      "   midi.NoteOnEvent(tick=0, channel=4, data=[72, 80]),\n",
      "   midi.NoteOffEvent(tick=96, channel=4, data=[72, 0]),\n",
      "   midi.NoteOnEvent(tick=0, channel=4, data=[71, 80]),\n",
      "   midi.NoteOffEvent(tick=96, channel=4, data=[71, 0]),\n",
      "   midi.NoteOnEvent(tick=0, channel=4, data=[69, 80]),\n",
      "   midi.NoteOffEvent(tick=96, channel=4, data=[69, 0]),\n",
      "   midi.NoteOnEvent(tick=0, channel=4, data=[67, 80]),\n",
      "   midi.NoteOffEvent(tick=96, channel=4, data=[67, 0]),\n",
      "   midi.NoteOnEvent(tick=0, channel=4, data=[66, 80]),\n",
      "   midi.NoteOffEvent(tick=96, channel=4, data=[66, 0]),\n",
      "   midi.NoteOnEvent(tick=0, channel=4, data=[64, 80]),\n",
      "   midi.NoteOffEvent(tick=96, channel=4, data=[64, 0]),\n",
      "   midi.NoteOnEvent(tick=0, channel=4, data=[63, 80]),\n",
      "   midi.NoteOffEvent(tick=192, channel=4, data=[63, 0]),\n",
      "   midi.NoteOnEvent(tick=0, channel=4, data=[63, 80]),\n",
      "   midi.NoteOffEvent(tick=192, channel=4, data=[63, 0]),\n",
      "   midi.NoteOnEvent(tick=0, channel=4, data=[66, 80]),\n",
      "   midi.NoteOffEvent(tick=192, channel=4, data=[66, 0]),\n",
      "   midi.NoteOnEvent(tick=0, channel=4, data=[71, 80]),\n",
      "   midi.NoteOffEvent(tick=192, channel=4, data=[71, 0]),\n",
      "   midi.NoteOnEvent(tick=0, channel=4, data=[59, 80]),\n",
      "   midi.NoteOffEvent(tick=192, channel=4, data=[59, 0]),\n",
      "   midi.NoteOnEvent(tick=0, channel=4, data=[64, 80]),\n",
      "   midi.NoteOffEvent(tick=96, channel=4, data=[64, 0]),\n",
      "   midi.NoteOnEvent(tick=0, channel=4, data=[63, 80]),\n",
      "   midi.NoteOffEvent(tick=96, channel=4, data=[63, 0]),\n",
      "   midi.NoteOnEvent(tick=0, channel=4, data=[64, 80]),\n",
      "   midi.NoteOffEvent(tick=192, channel=4, data=[64, 0]),\n",
      "   midi.NoteOnEvent(tick=0, channel=4, data=[71, 80]),\n",
      "   midi.NoteOffEvent(tick=192, channel=4, data=[71, 0]),\n",
      "   midi.NoteOnEvent(tick=0, channel=4, data=[68, 80]),\n",
      "   midi.NoteOffEvent(tick=384, channel=4, data=[68, 0]),\n",
      "   midi.NoteOnEvent(tick=0, channel=4, data=[61, 80]),\n",
      "   midi.NoteOffEvent(tick=576, channel=4, data=[61, 0]),\n",
      "   midi.NoteOnEvent(tick=0, channel=4, data=[66, 80]),\n",
      "   midi.NoteOffEvent(tick=192, channel=4, data=[66, 0]),\n",
      "   midi.NoteOnEvent(tick=0, channel=4, data=[66, 80]),\n",
      "   midi.NoteOffEvent(tick=576, channel=4, data=[66, 0]),\n",
      "   midi.NoteOnEvent(tick=0, channel=4, data=[64, 80]),\n",
      "   midi.NoteOffEvent(tick=192, channel=4, data=[64, 0]),\n",
      "   midi.NoteOnEvent(tick=0, channel=4, data=[64, 80]),\n",
      "   midi.NoteOffEvent(tick=576, channel=4, data=[64, 0]),\n",
      "   midi.NoteOnEvent(tick=0, channel=4, data=[58, 80]),\n",
      "   midi.NoteOffEvent(tick=192, channel=4, data=[58, 0]),\n",
      "   midi.NoteOnEvent(tick=0, channel=4, data=[54, 80]),\n",
      "   midi.NoteOffEvent(tick=576, channel=4, data=[54, 0]),\n",
      "   midi.NoteOnEvent(tick=0, channel=4, data=[54, 80]),\n",
      "   midi.NoteOffEvent(tick=192, channel=4, data=[54, 0]),\n",
      "   midi.NoteOnEvent(tick=0, channel=4, data=[59, 80]),\n",
      "   midi.NoteOffEvent(tick=96, channel=4, data=[59, 0]),\n",
      "   midi.NoteOnEvent(tick=0, channel=4, data=[57, 80]),\n",
      "   midi.NoteOffEvent(tick=96, channel=4, data=[57, 0]),\n",
      "   midi.NoteOnEvent(tick=0, channel=4, data=[55, 80]),\n",
      "   midi.NoteOffEvent(tick=96, channel=4, data=[55, 0]),\n",
      "   midi.NoteOnEvent(tick=0, channel=4, data=[57, 80]),\n",
      "   midi.NoteOffEvent(tick=96, channel=4, data=[57, 0]),\n",
      "   midi.NoteOnEvent(tick=0, channel=4, data=[59, 80]),\n",
      "   midi.NoteOffEvent(tick=192, channel=4, data=[59, 0]),\n",
      "   midi.NoteOnEvent(tick=0, channel=4, data=[54, 80]),\n",
      "   midi.NoteOffEvent(tick=192, channel=4, data=[54, 0]),\n",
      "   midi.NoteOnEvent(tick=0, channel=4, data=[59, 80]),\n",
      "   midi.NoteOffEvent(tick=192, channel=4, data=[59, 0]),\n",
      "   midi.NoteOnEvent(tick=0, channel=4, data=[59, 80]),\n",
      "   midi.NoteOffEvent(tick=192, channel=4, data=[59, 0]),\n",
      "   midi.NoteOnEvent(tick=0, channel=4, data=[66, 80]),\n",
      "   midi.NoteOffEvent(tick=192, channel=4, data=[66, 0]),\n",
      "   midi.NoteOnEvent(tick=0, channel=4, data=[71, 80]),\n",
      "   midi.NoteOffEvent(tick=192, channel=4, data=[71, 0]),\n",
      "   midi.NoteOnEvent(tick=0, channel=4, data=[66, 80]),\n",
      "   midi.NoteOffEvent(tick=192, channel=4, data=[66, 0]),\n",
      "   midi.NoteOnEvent(tick=0, channel=4, data=[66, 80]),\n",
      "   midi.NoteOffEvent(tick=192, channel=4, data=[66, 0]),\n",
      "   midi.NoteOnEvent(tick=0, channel=4, data=[62, 80]),\n",
      "   midi.NoteOffEvent(tick=192, channel=4, data=[62, 0]),\n",
      "   midi.NoteOnEvent(tick=0, channel=4, data=[64, 80]),\n",
      "   midi.NoteOffEvent(tick=192, channel=4, data=[64, 0]),\n",
      "   midi.NoteOnEvent(tick=0, channel=4, data=[62, 80]),\n",
      "   midi.NoteOffEvent(tick=192, channel=4, data=[62, 0]),\n",
      "   midi.NoteOnEvent(tick=0, channel=4, data=[61, 80]),\n",
      "   midi.NoteOffEvent(tick=192, channel=4, data=[61, 0]),\n",
      "   midi.NoteOnEvent(tick=0, channel=4, data=[59, 80]),\n",
      "   midi.NoteOffEvent(tick=384, channel=4, data=[59, 0]),\n",
      "   midi.NoteOnEvent(tick=0, channel=4, data=[59, 80]),\n",
      "   midi.NoteOffEvent(tick=384, channel=4, data=[59, 0]),\n",
      "   midi.NoteOnEvent(tick=384, channel=4, data=[62, 80]),\n",
      "   midi.NoteOffEvent(tick=192, channel=4, data=[62, 0]),\n",
      "   midi.NoteOnEvent(tick=0, channel=4, data=[62, 80]),\n",
      "   midi.NoteOffEvent(tick=192, channel=4, data=[62, 0]),\n",
      "   midi.NoteOnEvent(tick=0, channel=4, data=[62, 80]),\n",
      "   midi.NoteOffEvent(tick=192, channel=4, data=[62, 0]),\n",
      "   midi.NoteOnEvent(tick=0, channel=4, data=[60, 80]),\n",
      "   midi.NoteOffEvent(tick=192, channel=4, data=[60, 0]),\n",
      "   midi.NoteOnEvent(tick=0, channel=4, data=[57, 80]),\n",
      "   midi.NoteOffEvent(tick=192, channel=4, data=[57, 0]),\n",
      "   midi.NoteOnEvent(tick=0, channel=4, data=[62, 80]),\n",
      "   midi.NoteOffEvent(tick=384, channel=4, data=[62, 0]),\n",
      "   midi.NoteOnEvent(tick=0, channel=4, data=[60, 80]),\n",
      "   midi.NoteOffEvent(tick=96, channel=4, data=[60, 0]),\n",
      "   midi.NoteOnEvent(tick=0, channel=4, data=[62, 80]),\n",
      "   midi.NoteOffEvent(tick=96, channel=4, data=[62, 0]),\n",
      "   midi.NoteOnEvent(tick=0, channel=4, data=[57, 80]),\n",
      "   midi.NoteOffEvent(tick=192, channel=4, data=[57, 0]),\n",
      "   midi.NoteOnEvent(tick=0, channel=4, data=[66, 80]),\n",
      "   midi.NoteOffEvent(tick=192, channel=4, data=[66, 0]),\n",
      "   midi.NoteOnEvent(tick=0, channel=4, data=[67, 80]),\n",
      "   midi.NoteOffEvent(tick=384, channel=4, data=[67, 0]),\n",
      "   midi.NoteOnEvent(tick=0, channel=4, data=[67, 80]),\n",
      "   midi.NoteOffEvent(tick=384, channel=4, data=[67, 0]),\n",
      "   midi.NoteOnEvent(tick=384, channel=4, data=[66, 80]),\n",
      "   midi.NoteOffEvent(tick=192, channel=4, data=[66, 0]),\n",
      "   midi.NoteOnEvent(tick=0, channel=4, data=[71, 80]),\n",
      "   midi.NoteOffEvent(tick=192, channel=4, data=[71, 0]),\n",
      "   midi.NoteOnEvent(tick=0, channel=4, data=[64, 80]),\n",
      "   midi.NoteOffEvent(tick=192, channel=4, data=[64, 0]),\n",
      "   midi.NoteOnEvent(tick=0, channel=4, data=[66, 80]),\n",
      "   midi.NoteOffEvent(tick=192, channel=4, data=[66, 0]),\n",
      "   midi.NoteOnEvent(tick=0, channel=4, data=[66, 80]),\n",
      "   midi.NoteOffEvent(tick=192, channel=4, data=[66, 0]),\n",
      "   midi.NoteOnEvent(tick=0, channel=4, data=[71, 80]),\n",
      "   midi.NoteOffEvent(tick=192, channel=4, data=[71, 0]),\n",
      "   midi.NoteOnEvent(tick=0, channel=4, data=[59, 80]),\n",
      "   midi.NoteOffEvent(tick=192, channel=4, data=[59, 0]),\n",
      "   midi.NoteOnEvent(tick=0, channel=4, data=[64, 80]),\n",
      "   midi.NoteOffEvent(tick=96, channel=4, data=[64, 0]),\n",
      "   midi.NoteOnEvent(tick=0, channel=4, data=[63, 80]),\n",
      "   midi.NoteOffEvent(tick=96, channel=4, data=[63, 0]),\n",
      "   midi.NoteOnEvent(tick=0, channel=4, data=[64, 80]),\n",
      "   midi.NoteOffEvent(tick=192, channel=4, data=[64, 0]),\n",
      "   midi.NoteOnEvent(tick=0, channel=4, data=[67, 80]),\n",
      "   midi.NoteOffEvent(tick=288, channel=4, data=[67, 0]),\n",
      "   midi.NoteOnEvent(tick=0, channel=4, data=[66, 80]),\n",
      "   midi.NoteOffEvent(tick=96, channel=4, data=[66, 0]),\n",
      "   midi.NoteOnEvent(tick=0, channel=4, data=[64, 80]),\n",
      "   midi.NoteOffEvent(tick=96, channel=4, data=[64, 0]),\n",
      "   midi.NoteOnEvent(tick=0, channel=4, data=[62, 80]),\n",
      "   midi.NoteOffEvent(tick=96, channel=4, data=[62, 0]),\n",
      "   midi.NoteOnEvent(tick=0, channel=4, data=[64, 80]),\n",
      "   midi.NoteOffEvent(tick=192, channel=4, data=[64, 0]),\n",
      "   midi.NoteOnEvent(tick=0, channel=4, data=[69, 80]),\n",
      "   midi.NoteOffEvent(tick=192, channel=4, data=[69, 0]),\n",
      "   midi.NoteOnEvent(tick=0, channel=4, data=[57, 80]),\n",
      "   midi.NoteOffEvent(tick=192, channel=4, data=[57, 0]),\n",
      "   midi.NoteOnEvent(tick=0, channel=4, data=[62, 80]),\n",
      "   midi.NoteOffEvent(tick=96, channel=4, data=[62, 0]),\n",
      "   midi.NoteOnEvent(tick=0, channel=4, data=[61, 80]),\n",
      "   midi.NoteOffEvent(tick=96, channel=4, data=[61, 0]),\n",
      "   midi.NoteOnEvent(tick=0, channel=4, data=[62, 80]),\n",
      "   midi.NoteOffEvent(tick=192, channel=4, data=[62, 0]),\n",
      "   midi.NoteOnEvent(tick=0, channel=4, data=[66, 80]),\n",
      "   midi.NoteOffEvent(tick=288, channel=4, data=[66, 0]),\n",
      "   midi.NoteOnEvent(tick=0, channel=4, data=[64, 80]),\n",
      "   midi.NoteOffEvent(tick=96, channel=4, data=[64, 0]),\n",
      "   midi.NoteOnEvent(tick=0, channel=4, data=[62, 80]),\n",
      "   midi.NoteOffEvent(tick=96, channel=4, data=[62, 0]),\n",
      "   midi.NoteOnEvent(tick=0, channel=4, data=[61, 80]),\n",
      "   midi.NoteOffEvent(tick=96, channel=4, data=[61, 0]),\n",
      "   midi.NoteOnEvent(tick=0, channel=4, data=[62, 80]),\n",
      "   midi.NoteOffEvent(tick=192, channel=4, data=[62, 0]),\n",
      "   midi.NoteOnEvent(tick=0, channel=4, data=[68, 80]),\n",
      "   midi.NoteOffEvent(tick=192, channel=4, data=[68, 0]),\n",
      "   midi.NoteOnEvent(tick=0, channel=4, data=[56, 80]),\n",
      "   midi.NoteOffEvent(tick=192, channel=4, data=[56, 0]),\n",
      "   midi.NoteOnEvent(tick=0, channel=4, data=[61, 80]),\n",
      "   midi.NoteOffEvent(tick=96, channel=4, data=[61, 0]),\n",
      "   midi.NoteOnEvent(tick=0, channel=4, data=[59, 80]),\n",
      "   midi.NoteOffEvent(tick=96, channel=4, data=[59, 0]),\n",
      "   midi.NoteOnEvent(tick=0, channel=4, data=[61, 80]),\n",
      "   midi.NoteOffEvent(tick=96, channel=4, data=[61, 0]),\n",
      "   midi.NoteOnEvent(tick=0, channel=4, data=[62, 80]),\n",
      "   midi.NoteOffEvent(tick=96, channel=4, data=[62, 0]),\n",
      "   midi.NoteOnEvent(tick=0, channel=4, data=[61, 80]),\n",
      "   midi.NoteOffEvent(tick=96, channel=4, data=[61, 0]),\n",
      "   midi.NoteOnEvent(tick=0, channel=4, data=[62, 80]),\n",
      "   midi.NoteOffEvent(tick=96, channel=4, data=[62, 0]),\n",
      "   midi.NoteOnEvent(tick=0, channel=4, data=[61, 80]),\n",
      "   midi.NoteOffEvent(tick=192, channel=4, data=[61, 0]),\n",
      "   midi.NoteOnEvent(tick=0, channel=4, data=[66, 80]),\n",
      "   midi.NoteOffEvent(tick=192, channel=4, data=[66, 0]),\n",
      "   midi.NoteOnEvent(tick=576, channel=4, data=[66, 80]),\n",
      "   midi.NoteOffEvent(tick=192, channel=4, data=[66, 0]),\n",
      "   midi.NoteOnEvent(tick=0, channel=4, data=[65, 80]),\n",
      "   midi.NoteOffEvent(tick=192, channel=4, data=[65, 0]),\n",
      "   midi.NoteOnEvent(tick=0, channel=4, data=[66, 80]),\n",
      "   midi.NoteOffEvent(tick=192, channel=4, data=[66, 0]),\n",
      "   midi.NoteOnEvent(tick=0, channel=4, data=[61, 80]),\n",
      "   midi.NoteOffEvent(tick=512, channel=4, data=[61, 0]),\n",
      "   midi.NoteOnEvent(tick=64, channel=4, data=[62, 80]),\n",
      "   midi.NoteOffEvent(tick=192, channel=4, data=[62, 0]),\n",
      "   midi.NoteOnEvent(tick=0, channel=4, data=[61, 80]),\n",
      "   midi.NoteOffEvent(tick=384, channel=4, data=[61, 0]),\n",
      "   midi.NoteOnEvent(tick=0, channel=4, data=[61, 80]),\n",
      "   midi.NoteOffEvent(tick=192, channel=4, data=[61, 0]),\n",
      "   midi.NoteOnEvent(tick=0, channel=4, data=[59, 80]),\n",
      "   midi.NoteOffEvent(tick=192, channel=4, data=[59, 0]),\n",
      "   midi.NoteOnEvent(tick=0, channel=4, data=[57, 80]),\n",
      "   midi.NoteOffEvent(tick=384, channel=4, data=[57, 0]),\n",
      "   midi.NoteOnEvent(tick=384, channel=4, data=[62, 80]),\n",
      "   midi.NoteOffEvent(tick=192, channel=4, data=[62, 0]),\n",
      "   midi.NoteOnEvent(tick=0, channel=4, data=[74, 80]),\n",
      "   midi.NoteOffEvent(tick=192, channel=4, data=[74, 0]),\n",
      "   midi.NoteOnEvent(tick=0, channel=4, data=[73, 80]),\n",
      "   midi.NoteOffEvent(tick=192, channel=4, data=[73, 0]),\n",
      "   midi.NoteOnEvent(tick=0, channel=4, data=[69, 80]),\n",
      "   midi.NoteOffEvent(tick=192, channel=4, data=[69, 0]),\n",
      "   midi.NoteOnEvent(tick=0, channel=4, data=[74, 80]),\n",
      "   midi.NoteOffEvent(tick=192, channel=4, data=[74, 0]),\n",
      "   midi.NoteOnEvent(tick=0, channel=4, data=[73, 80]),\n",
      "   midi.NoteOffEvent(tick=96, channel=4, data=[73, 0]),\n",
      "   midi.NoteOnEvent(tick=0, channel=4, data=[71, 80]),\n",
      "   midi.NoteOffEvent(tick=96, channel=4, data=[71, 0]),\n",
      "   midi.NoteOnEvent(tick=0, channel=4, data=[69, 80]),\n",
      "   midi.NoteOffEvent(tick=96, channel=4, data=[69, 0]),\n",
      "   midi.NoteOnEvent(tick=0, channel=4, data=[67, 80]),\n",
      "   midi.NoteOffEvent(tick=96, channel=4, data=[67, 0]),\n",
      "   midi.NoteOnEvent(tick=0, channel=4, data=[66, 80]),\n",
      "   midi.NoteOffEvent(tick=96, channel=4, data=[66, 0]),\n",
      "   midi.NoteOnEvent(tick=0, channel=4, data=[64, 80]),\n",
      "   midi.NoteOffEvent(tick=96, channel=4, data=[64, 0]),\n",
      "   midi.NoteOnEvent(tick=0, channel=4, data=[62, 80]),\n",
      "   midi.NoteOffEvent(tick=192, channel=4, data=[62, 0]),\n",
      "   midi.NoteOnEvent(tick=0, channel=4, data=[62, 80]),\n",
      "   midi.NoteOffEvent(tick=192, channel=4, data=[62, 0]),\n",
      "   midi.NoteOnEvent(tick=0, channel=4, data=[67, 80]),\n",
      "   midi.NoteOffEvent(tick=192, channel=4, data=[67, 0]),\n",
      "   midi.NoteOnEvent(tick=0, channel=4, data=[64, 80]),\n",
      "   midi.NoteOffEvent(tick=192, channel=4, data=[64, 0]),\n",
      "   midi.NoteOnEvent(tick=0, channel=4, data=[66, 80]),\n",
      "   midi.NoteOffEvent(tick=192, channel=4, data=[66, 0]),\n",
      "   midi.NoteOnEvent(tick=0, channel=4, data=[57, 80]),\n",
      "   midi.NoteOffEvent(tick=192, channel=4, data=[57, 0]),\n",
      "   midi.NoteOnEvent(tick=0, channel=4, data=[62, 80]),\n",
      "   midi.NoteOffEvent(tick=192, channel=4, data=[62, 0]),\n",
      "   midi.NoteOnEvent(tick=0, channel=4, data=[66, 80]),\n",
      "   midi.NoteOffEvent(tick=192, channel=4, data=[66, 0]),\n",
      "   midi.NoteOnEvent(tick=0, channel=4, data=[66, 80]),\n",
      "   midi.NoteOffEvent(tick=384, channel=4, data=[66, 0]),\n",
      "   midi.NoteOnEvent(tick=0, channel=4, data=[62, 80]),\n",
      "   midi.NoteOffEvent(tick=384, channel=4, data=[62, 0]),\n",
      "   midi.NoteOnEvent(tick=0, channel=4, data=[57, 80]),\n",
      "   midi.NoteOffEvent(tick=192, channel=4, data=[57, 0]),\n",
      "   midi.NoteOnEvent(tick=0, channel=4, data=[57, 80]),\n",
      "   midi.NoteOffEvent(tick=192, channel=4, data=[57, 0]),\n",
      "   midi.NoteOnEvent(tick=0, channel=4, data=[62, 80]),\n",
      "   midi.NoteOffEvent(tick=1344, channel=4, data=[62, 0]),\n",
      "   midi.NoteOnEvent(tick=0, channel=4, data=[60, 80]),\n",
      "   midi.NoteOffEvent(tick=192, channel=4, data=[60, 0]),\n",
      "   midi.NoteOnEvent(tick=0, channel=4, data=[62, 80]),\n",
      "   midi.NoteOffEvent(tick=192, channel=4, data=[62, 0]),\n",
      "   midi.NoteOnEvent(tick=0, channel=4, data=[67, 80]),\n",
      "   midi.NoteOffEvent(tick=192, channel=4, data=[67, 0]),\n",
      "   midi.NoteOnEvent(tick=0, channel=4, data=[61, 80]),\n",
      "   midi.NoteOffEvent(tick=96, channel=4, data=[61, 0]),\n",
      "   midi.NoteOnEvent(tick=0, channel=4, data=[62, 80]),\n",
      "   midi.NoteOffEvent(tick=96, channel=4, data=[62, 0]),\n",
      "   midi.NoteOnEvent(tick=0, channel=4, data=[64, 80]),\n",
      "   midi.NoteOffEvent(tick=96, channel=4, data=[64, 0]),\n",
      "   midi.NoteOnEvent(tick=96, channel=4, data=[64, 80]),\n",
      "   midi.NoteOffEvent(tick=96, channel=4, data=[64, 0]),\n",
      "   midi.NoteOnEvent(tick=96, channel=4, data=[61, 80]),\n",
      "   midi.NoteOffEvent(tick=96, channel=4, data=[61, 0]),\n",
      "   midi.NoteOnEvent(tick=96, channel=4, data=[57, 80]),\n",
      "   midi.NoteOffEvent(tick=512, channel=4, data=[57, 0]),\n",
      "   midi.NoteOnEvent(tick=64, channel=4, data=[57, 80]),\n",
      "   midi.NoteOffEvent(tick=192, channel=4, data=[57, 0]),\n",
      "   midi.NoteOnEvent(tick=0, channel=4, data=[57, 80]),\n",
      "   midi.NoteOffEvent(tick=192, channel=4, data=[57, 0]),\n",
      "   midi.NoteOnEvent(tick=0, channel=4, data=[62, 80]),\n",
      "   midi.NoteOffEvent(tick=192, channel=4, data=[62, 0]),\n",
      "   midi.NoteOnEvent(tick=0, channel=4, data=[62, 80]),\n",
      "   midi.NoteOffEvent(tick=192, channel=4, data=[62, 0]),\n",
      "   midi.NoteOnEvent(tick=0, channel=4, data=[61, 80]),\n",
      "   midi.NoteOffEvent(tick=192, channel=4, data=[61, 0]),\n",
      "   midi.NoteOnEvent(tick=0, channel=4, data=[62, 80]),\n",
      "   midi.NoteOffEvent(tick=384, channel=4, data=[62, 0]),\n",
      "   midi.NoteOnEvent(tick=0, channel=4, data=[57, 80]),\n",
      "   midi.NoteOffEvent(tick=384, channel=4, data=[57, 0]),\n",
      "   midi.NoteOnEvent(tick=0, channel=4, data=[62, 80]),\n",
      "   midi.NoteOffEvent(tick=192, channel=4, data=[62, 0]),\n",
      "   midi.NoteOnEvent(tick=0, channel=4, data=[74, 80]),\n",
      "   midi.NoteOffEvent(tick=192, channel=4, data=[74, 0]),\n",
      "   midi.NoteOnEvent(tick=0, channel=4, data=[73, 80]),\n",
      "   midi.NoteOffEvent(tick=192, channel=4, data=[73, 0]),\n",
      "   midi.NoteOnEvent(tick=0, channel=4, data=[69, 80]),\n",
      "   midi.NoteOffEvent(tick=192, channel=4, data=[69, 0]),\n",
      "   midi.NoteOnEvent(tick=0, channel=4, data=[74, 80]),\n",
      "   midi.NoteOffEvent(tick=192, channel=4, data=[74, 0]),\n",
      "   midi.NoteOnEvent(tick=0, channel=4, data=[73, 80]),\n",
      "   midi.NoteOffEvent(tick=96, channel=4, data=[73, 0]),\n",
      "   midi.NoteOnEvent(tick=0, channel=4, data=[71, 80]),\n",
      "   midi.NoteOffEvent(tick=96, channel=4, data=[71, 0]),\n",
      "   midi.NoteOnEvent(tick=0, channel=4, data=[69, 80]),\n",
      "   midi.NoteOffEvent(tick=96, channel=4, data=[69, 0]),\n",
      "   midi.NoteOnEvent(tick=0, channel=4, data=[67, 80]),\n",
      "   midi.NoteOffEvent(tick=96, channel=4, data=[67, 0]),\n",
      "   midi.NoteOnEvent(tick=0, channel=4, data=[66, 80]),\n",
      "   midi.NoteOffEvent(tick=96, channel=4, data=[66, 0]),\n",
      "   midi.NoteOnEvent(tick=0, channel=4, data=[64, 80]),\n",
      "   midi.NoteOffEvent(tick=96, channel=4, data=[64, 0]),\n",
      "   midi.NoteOnEvent(tick=0, channel=4, data=[62, 80]),\n",
      "   midi.NoteOffEvent(tick=192, channel=4, data=[62, 0]),\n",
      "   midi.NoteOnEvent(tick=672, channel=4, data=[74, 80]),\n",
      "   midi.NoteOffEvent(tick=96, channel=4, data=[74, 0]),\n",
      "   midi.NoteOnEvent(tick=0, channel=4, data=[73, 80]),\n",
      "   midi.NoteOffEvent(tick=96, channel=4, data=[73, 0]),\n",
      "   midi.NoteOnEvent(tick=0, channel=4, data=[71, 80]),\n",
      "   midi.NoteOffEvent(tick=96, channel=4, data=[71, 0]),\n",
      "   midi.NoteOnEvent(tick=0, channel=4, data=[69, 80]),\n",
      "   midi.NoteOffEvent(tick=96, channel=4, data=[69, 0]),\n",
      "   midi.NoteOnEvent(tick=0, channel=4, data=[67, 80]),\n",
      "   midi.NoteOffEvent(tick=96, channel=4, data=[67, 0]),\n",
      "   midi.NoteOnEvent(tick=0, channel=4, data=[66, 80]),\n",
      "   midi.NoteOffEvent(tick=96, channel=4, data=[66, 0]),\n",
      "   midi.NoteOnEvent(tick=0, channel=4, data=[64, 80]),\n",
      "   midi.NoteOffEvent(tick=96, channel=4, data=[64, 0]),\n",
      "   midi.NoteOnEvent(tick=0, channel=4, data=[62, 80]),\n",
      "   midi.NoteOffEvent(tick=192, channel=4, data=[62, 0]),\n",
      "   midi.NoteOnEvent(tick=0, channel=4, data=[57, 80]),\n",
      "   midi.NoteOffEvent(tick=192, channel=4, data=[57, 0]),\n",
      "   midi.NoteOnEvent(tick=0, channel=4, data=[62, 80]),\n",
      "   midi.NoteOffEvent(tick=480, channel=4, data=[62, 0]),\n",
      "   midi.NoteOnEvent(tick=0, channel=4, data=[61, 80]),\n",
      "   midi.NoteOffEvent(tick=96, channel=4, data=[61, 0]),\n",
      "   midi.NoteOnEvent(tick=0, channel=4, data=[59, 80]),\n",
      "   midi.NoteOffEvent(tick=96, channel=4, data=[59, 0]),\n",
      "   midi.NoteOnEvent(tick=96, channel=4, data=[59, 80]),\n",
      "   midi.NoteOffEvent(tick=96, channel=4, data=[59, 0]),\n",
      "   midi.NoteOnEvent(tick=96, channel=4, data=[59, 80]),\n",
      "   midi.NoteOffEvent(tick=256, channel=4, data=[59, 0]),\n",
      "   midi.NoteOnEvent(tick=32, channel=4, data=[57, 80]),\n",
      "   midi.NoteOffEvent(tick=96, channel=4, data=[57, 0]),\n",
      "   midi.NoteOnEvent(tick=0, channel=4, data=[55, 80]),\n",
      "   midi.NoteOffEvent(tick=96, channel=4, data=[55, 0]),\n",
      "   midi.NoteOnEvent(tick=0, channel=4, data=[54, 80]),\n",
      "   midi.NoteOffEvent(tick=96, channel=4, data=[54, 0]),\n",
      "   midi.NoteOnEvent(tick=0, channel=4, data=[55, 80]),\n",
      "   midi.NoteOffEvent(tick=192, channel=4, data=[55, 0]),\n",
      "   midi.NoteOnEvent(tick=0, channel=4, data=[59, 80]),\n",
      "   midi.NoteOffEvent(tick=192, channel=4, data=[59, 0]),\n",
      "   midi.NoteOnEvent(tick=0, channel=4, data=[57, 80]),\n",
      "   midi.NoteOffEvent(tick=192, channel=4, data=[57, 0]),\n",
      "   midi.NoteOnEvent(tick=0, channel=4, data=[59, 80]),\n",
      "   midi.NoteOffEvent(tick=192, channel=4, data=[59, 0]),\n",
      "   midi.NoteOnEvent(tick=0, channel=4, data=[61, 80]),\n",
      "   midi.NoteOffEvent(tick=384, channel=4, data=[61, 0]),\n",
      "   midi.NoteOnEvent(tick=192, channel=4, data=[57, 80]),\n",
      "   midi.NoteOffEvent(tick=192, channel=4, data=[57, 0]),\n",
      "   midi.NoteOnEvent(tick=0, channel=4, data=[62, 80]),\n",
      "   midi.NoteOffEvent(tick=192, channel=4, data=[62, 0]),\n",
      "   midi.NoteOnEvent(tick=0, channel=4, data=[66, 80]),\n",
      "   midi.NoteOffEvent(tick=192, channel=4, data=[66, 0]),\n",
      "   midi.NoteOnEvent(tick=192, channel=4, data=[66, 80]),\n",
      "   midi.NoteOffEvent(tick=192, channel=4, data=[66, 0]),\n",
      "   midi.NoteOnEvent(tick=0, channel=4, data=[62, 80]),\n",
      "   midi.NoteOffEvent(tick=192, channel=4, data=[62, 0]),\n",
      "   midi.NoteOnEvent(tick=0, channel=4, data=[57, 80]),\n",
      "   midi.NoteOffEvent(tick=192, channel=4, data=[57, 0]),\n",
      "   midi.NoteOnEvent(tick=192, channel=4, data=[62, 80]),\n",
      "   midi.NoteOffEvent(tick=192, channel=4, data=[62, 0]),\n",
      "   midi.NoteOnEvent(tick=0, channel=4, data=[66, 80]),\n",
      "   midi.NoteOffEvent(tick=192, channel=4, data=[66, 0]),\n",
      "   midi.NoteOnEvent(tick=0, channel=4, data=[69, 80]),\n",
      "   midi.NoteOffEvent(tick=192, channel=4, data=[69, 0]),\n",
      "   midi.NoteOnEvent(tick=192, channel=4, data=[55, 80]),\n",
      "   midi.NoteOffEvent(tick=192, channel=4, data=[55, 0]),\n",
      "   midi.NoteOnEvent(tick=0, channel=4, data=[54, 80]),\n",
      "   midi.NoteOffEvent(tick=192, channel=4, data=[54, 0]),\n",
      "   midi.NoteOnEvent(tick=0, channel=4, data=[55, 80]),\n",
      "   midi.NoteOffEvent(tick=96, channel=4, data=[55, 0]),\n",
      "   midi.NoteOnEvent(tick=0, channel=4, data=[57, 80]),\n",
      "   midi.NoteOffEvent(tick=96, channel=4, data=[57, 0]),\n",
      "   midi.NoteOnEvent(tick=0, channel=4, data=[55, 80]),\n",
      "   midi.NoteOffEvent(tick=192, channel=4, data=[55, 0]),\n",
      "   midi.NoteOnEvent(tick=0, channel=4, data=[67, 80]),\n",
      "   midi.NoteOffEvent(tick=192, channel=4, data=[67, 0]),\n",
      "   midi.NoteOnEvent(tick=0, channel=4, data=[64, 80]),\n",
      "   midi.NoteOffEvent(tick=192, channel=4, data=[64, 0]),\n",
      "   midi.NoteOnEvent(tick=0, channel=4, data=[59, 80]),\n",
      "   midi.NoteOffEvent(tick=192, channel=4, data=[59, 0]),\n",
      "   midi.NoteOnEvent(tick=0, channel=4, data=[61, 80]),\n",
      "   midi.NoteOffEvent(tick=96, channel=4, data=[61, 0]),\n",
      "   midi.NoteOnEvent(tick=0, channel=4, data=[62, 80]),\n",
      "   midi.NoteOffEvent(tick=96, channel=4, data=[62, 0]),\n",
      "   midi.NoteOnEvent(tick=0, channel=4, data=[64, 80]),\n",
      "   midi.NoteOffEvent(tick=384, channel=4, data=[64, 0]),\n",
      "   midi.NoteOnEvent(tick=0, channel=4, data=[64, 80]),\n",
      "   midi.NoteOffEvent(tick=384, channel=4, data=[64, 0]),\n",
      "   midi.NoteOnEvent(tick=0, channel=4, data=[66, 80]),\n",
      "   midi.NoteOffEvent(tick=192, channel=4, data=[66, 0]),\n",
      "   midi.NoteOnEvent(tick=0, channel=4, data=[62, 80]),\n",
      "   midi.NoteOffEvent(tick=192, channel=4, data=[62, 0]),\n",
      "   midi.NoteOnEvent(tick=0, channel=4, data=[57, 80]),\n",
      "   midi.NoteOffEvent(tick=192, channel=4, data=[57, 0]),\n",
      "   midi.NoteOnEvent(tick=0, channel=4, data=[59, 80]),\n",
      "   midi.NoteOffEvent(tick=192, channel=4, data=[59, 0]),\n",
      "   midi.NoteOnEvent(tick=0, channel=4, data=[62, 80]),\n",
      "   midi.NoteOffEvent(tick=192, channel=4, data=[62, 0]),\n",
      "   midi.NoteOnEvent(tick=0, channel=4, data=[66, 80]),\n",
      "   midi.NoteOffEvent(tick=192, channel=4, data=[66, 0]),\n",
      "   midi.NoteOnEvent(tick=0, channel=4, data=[62, 80]),\n",
      "   midi.NoteOffEvent(tick=384, channel=4, data=[62, 0]),\n",
      "   midi.NoteOnEvent(tick=0, channel=4, data=[59, 80]),\n",
      "   midi.NoteOffEvent(tick=192, channel=4, data=[59, 0]),\n",
      "   midi.NoteOnEvent(tick=0, channel=4, data=[64, 80]),\n",
      "   midi.NoteOffEvent(tick=192, channel=4, data=[64, 0]),\n",
      "   midi.NoteOnEvent(tick=0, channel=4, data=[67, 80]),\n",
      "   midi.NoteOffEvent(tick=192, channel=4, data=[67, 0]),\n",
      "   midi.NoteOnEvent(tick=0, channel=4, data=[64, 80]),\n",
      "   midi.NoteOffEvent(tick=192, channel=4, data=[64, 0]),\n",
      "   midi.NoteOnEvent(tick=0, channel=4, data=[61, 80]),\n",
      "   midi.NoteOffEvent(tick=192, channel=4, data=[61, 0]),\n",
      "   midi.NoteOnEvent(tick=0, channel=4, data=[57, 80]),\n",
      "   midi.NoteOffEvent(tick=576, channel=4, data=[57, 0]),\n",
      "   midi.NoteOnEvent(tick=0, channel=4, data=[57, 80]),\n",
      "   midi.NoteOffEvent(tick=192, channel=4, data=[57, 0]),\n",
      "   midi.NoteOnEvent(tick=0, channel=4, data=[69, 80]),\n",
      "   midi.NoteOffEvent(tick=192, channel=4, data=[69, 0]),\n",
      "   midi.NoteOnEvent(tick=0, channel=4, data=[64, 80]),\n",
      "   midi.NoteOffEvent(tick=192, channel=4, data=[64, 0]),\n",
      "   midi.NoteOnEvent(tick=0, channel=4, data=[66, 80]),\n",
      "   midi.NoteOffEvent(tick=384, channel=4, data=[66, 0]),\n",
      "   midi.NoteOnEvent(tick=1728, channel=4, data=[61, 80]),\n",
      "   midi.NoteOffEvent(tick=192, channel=4, data=[61, 0]),\n",
      "   midi.NoteOnEvent(tick=0, channel=4, data=[62, 80]),\n",
      "   midi.NoteOffEvent(tick=192, channel=4, data=[62, 0]),\n",
      "   midi.NoteOnEvent(tick=0, channel=4, data=[59, 80]),\n",
      "   midi.NoteOffEvent(tick=192, channel=4, data=[59, 0]),\n",
      "   midi.NoteOnEvent(tick=0, channel=4, data=[64, 80]),\n",
      "   midi.NoteOffEvent(tick=192, channel=4, data=[64, 0]),\n",
      "   midi.NoteOnEvent(tick=0, channel=4, data=[69, 80]),\n",
      "   midi.NoteOffEvent(tick=192, channel=4, data=[69, 0]),\n",
      "   midi.NoteOnEvent(tick=0, channel=4, data=[69, 80]),\n",
      "   midi.NoteOffEvent(tick=192, channel=4, data=[69, 0]),\n",
      "   midi.NoteOnEvent(tick=0, channel=4, data=[67, 80]),\n",
      "   midi.NoteOffEvent(tick=192, channel=4, data=[67, 0]),\n",
      "   midi.NoteOnEvent(tick=0, channel=4, data=[69, 80]),\n",
      "   midi.NoteOffEvent(tick=192, channel=4, data=[69, 0]),\n",
      "   midi.NoteOnEvent(tick=1536, channel=4, data=[66, 80]),\n",
      "   midi.NoteOffEvent(tick=192, channel=4, data=[66, 0]),\n",
      "   midi.NoteOnEvent(tick=0, channel=4, data=[67, 80]),\n",
      "   midi.NoteOffEvent(tick=192, channel=4, data=[67, 0]),\n",
      "   midi.NoteOnEvent(tick=0, channel=4, data=[64, 80]),\n",
      "   midi.NoteOffEvent(tick=192, channel=4, data=[64, 0]),\n",
      "   midi.NoteOnEvent(tick=0, channel=4, data=[69, 80]),\n",
      "   midi.NoteOffEvent(tick=192, channel=4, data=[69, 0]),\n",
      "   midi.NoteOnEvent(tick=0, channel=4, data=[74, 80]),\n",
      "   midi.NoteOffEvent(tick=192, channel=4, data=[74, 0]),\n",
      "   midi.NoteOnEvent(tick=0, channel=4, data=[74, 80]),\n",
      "   midi.NoteOffEvent(tick=192, channel=4, data=[74, 0]),\n",
      "   midi.NoteOnEvent(tick=0, channel=4, data=[72, 80]),\n",
      "   midi.NoteOffEvent(tick=192, channel=4, data=[72, 0]),\n",
      "   midi.NoteOnEvent(tick=0, channel=4, data=[74, 80]),\n",
      "   midi.NoteOffEvent(tick=192, channel=4, data=[74, 0]),\n",
      "   midi.NoteOnEvent(tick=1152, channel=4, data=[76, 80]),\n",
      "   midi.NoteOffEvent(tick=192, channel=4, data=[76, 0]),\n",
      "   midi.NoteOnEvent(tick=0, channel=4, data=[73, 80]),\n",
      "   midi.NoteOffEvent(tick=192, channel=4, data=[73, 0]),\n",
      "   midi.NoteOnEvent(tick=0, channel=4, data=[69, 80]),\n",
      "   midi.NoteOffEvent(tick=192, channel=4, data=[69, 0]),\n",
      "   midi.NoteOnEvent(tick=960, channel=4, data=[67, 80]),\n",
      "   midi.NoteOffEvent(tick=192, channel=4, data=[67, 0]),\n",
      "   midi.NoteOnEvent(tick=0, channel=4, data=[64, 80]),\n",
      "   midi.NoteOffEvent(tick=192, channel=4, data=[64, 0]),\n",
      "   midi.NoteOnEvent(tick=0, channel=4, data=[61, 80]),\n",
      "   midi.NoteOffEvent(tick=192, channel=4, data=[61, 0]),\n",
      "   midi.NoteOnEvent(tick=0, channel=4, data=[69, 80]),\n",
      "   midi.NoteOffEvent(tick=96, channel=4, data=[69, 0]),\n",
      "   midi.NoteOnEvent(tick=0, channel=4, data=[67, 80]),\n",
      "   midi.NoteOffEvent(tick=96, channel=4, data=[67, 0]),\n",
      "   midi.NoteOnEvent(tick=0, channel=4, data=[66, 80]),\n",
      "   midi.NoteOffEvent(tick=96, channel=4, data=[66, 0]),\n",
      "   midi.NoteOnEvent(tick=0, channel=4, data=[64, 80]),\n",
      "   midi.NoteOffEvent(tick=96, channel=4, data=[64, 0]),\n",
      "   midi.NoteOnEvent(tick=0, channel=4, data=[62, 80]),\n",
      "   midi.NoteOffEvent(tick=192, channel=4, data=[62, 0]),\n",
      "   midi.NoteOnEvent(tick=0, channel=4, data=[67, 80]),\n",
      "   midi.NoteOffEvent(tick=192, channel=4, data=[67, 0]),\n",
      "   midi.NoteOnEvent(tick=0, channel=4, data=[69, 80]),\n",
      "   midi.NoteOffEvent(tick=96, channel=4, data=[69, 0]),\n",
      "   midi.NoteOnEvent(tick=0, channel=4, data=[71, 80]),\n",
      "   midi.NoteOffEvent(tick=96, channel=4, data=[71, 0]),\n",
      "   midi.NoteOnEvent(tick=0, channel=4, data=[69, 80]),\n",
      "   midi.NoteOffEvent(tick=96, channel=4, data=[69, 0]),\n",
      "   midi.NoteOnEvent(tick=0, channel=4, data=[67, 80]),\n",
      "   midi.NoteOffEvent(tick=96, channel=4, data=[67, 0]),\n",
      "   midi.NoteOnEvent(tick=0, channel=4, data=[66, 80]),\n",
      "   midi.NoteOffEvent(tick=192, channel=4, data=[66, 0]),\n",
      "   midi.NoteOnEvent(tick=0, channel=4, data=[66, 80]),\n",
      "   midi.NoteOffEvent(tick=192, channel=4, data=[66, 0]),\n",
      "   midi.NoteOnEvent(tick=0, channel=4, data=[67, 80]),\n",
      "   midi.NoteOffEvent(tick=384, channel=4, data=[67, 0]),\n",
      "   midi.NoteOnEvent(tick=0, channel=4, data=[64, 80]),\n",
      "   midi.NoteOffEvent(tick=384, channel=4, data=[64, 0]),\n",
      "   midi.NoteOnEvent(tick=0, channel=4, data=[62, 80]),\n",
      "   midi.NoteOffEvent(tick=96, channel=4, data=[62, 0]),\n",
      "   midi.NoteOnEvent(tick=0, channel=4, data=[74, 80]),\n",
      "   midi.NoteOffEvent(tick=96, channel=4, data=[74, 0]),\n",
      "   midi.NoteOnEvent(tick=0, channel=4, data=[73, 80]),\n",
      "   midi.NoteOffEvent(tick=96, channel=4, data=[73, 0]),\n",
      "   midi.NoteOnEvent(tick=0, channel=4, data=[71, 80]),\n",
      "   midi.NoteOffEvent(tick=96, channel=4, data=[71, 0]),\n",
      "   midi.NoteOnEvent(tick=0, channel=4, data=[69, 80]),\n",
      "   midi.NoteOffEvent(tick=96, channel=4, data=[69, 0]),\n",
      "   midi.NoteOnEvent(tick=0, channel=4, data=[67, 80]),\n",
      "   midi.NoteOffEvent(tick=96, channel=4, data=[67, 0]),\n",
      "   midi.NoteOnEvent(tick=0, channel=4, data=[66, 80]),\n",
      "   midi.NoteOffEvent(tick=96, channel=4, data=[66, 0]),\n",
      "   midi.NoteOnEvent(tick=0, channel=4, data=[64, 80]),\n",
      "   midi.NoteOffEvent(tick=96, channel=4, data=[64, 0]),\n",
      "   midi.NoteOnEvent(tick=0, channel=4, data=[62, 80]),\n",
      "   midi.NoteOffEvent(tick=192, channel=4, data=[62, 0]),\n",
      "   midi.NoteOnEvent(tick=0, channel=4, data=[74, 80]),\n",
      "   midi.NoteOffEvent(tick=192, channel=4, data=[74, 0]),\n",
      "   midi.NoteOnEvent(tick=0, channel=4, data=[73, 80]),\n",
      "   midi.NoteOffEvent(tick=192, channel=4, data=[73, 0]),\n",
      "   midi.NoteOnEvent(tick=0, channel=4, data=[69, 80]),\n",
      "   midi.NoteOffEvent(tick=192, channel=4, data=[69, 0]),\n",
      "   midi.NoteOnEvent(tick=0, channel=4, data=[74, 80]),\n",
      "   midi.NoteOffEvent(tick=192, channel=4, data=[74, 0]),\n",
      "   midi.NoteOnEvent(tick=0, channel=4, data=[73, 80]),\n",
      "   midi.NoteOffEvent(tick=96, channel=4, data=[73, 0]),\n",
      "   midi.NoteOnEvent(tick=0, channel=4, data=[71, 80]),\n",
      "   midi.NoteOffEvent(tick=96, channel=4, data=[71, 0]),\n",
      "   midi.NoteOnEvent(tick=0, channel=4, data=[69, 80]),\n",
      "   midi.NoteOffEvent(tick=96, channel=4, data=[69, 0]),\n",
      "   midi.NoteOnEvent(tick=0, channel=4, data=[67, 80]),\n",
      "   midi.NoteOffEvent(tick=96, channel=4, data=[67, 0]),\n",
      "   midi.NoteOnEvent(tick=0, channel=4, data=[66, 80]),\n",
      "   midi.NoteOffEvent(tick=96, channel=4, data=[66, 0]),\n",
      "   midi.NoteOnEvent(tick=0, channel=4, data=[64, 80]),\n",
      "   midi.NoteOffEvent(tick=96, channel=4, data=[64, 0]),\n",
      "   midi.NoteOnEvent(tick=0, channel=4, data=[62, 80]),\n",
      "   midi.NoteOffEvent(tick=192, channel=4, data=[62, 0]),\n",
      "   midi.NoteOnEvent(tick=0, channel=4, data=[62, 80]),\n",
      "   midi.NoteOffEvent(tick=192, channel=4, data=[62, 0]),\n",
      "   midi.NoteOnEvent(tick=0, channel=4, data=[67, 80]),\n",
      "   midi.NoteOffEvent(tick=192, channel=4, data=[67, 0]),\n",
      "   midi.NoteOnEvent(tick=0, channel=4, data=[64, 80]),\n",
      "   midi.NoteOffEvent(tick=192, channel=4, data=[64, 0]),\n",
      "   midi.NoteOnEvent(tick=0, channel=4, data=[66, 80]),\n",
      "   midi.NoteOffEvent(tick=96, channel=4, data=[66, 0]),\n",
      "   midi.NoteOnEvent(tick=0, channel=4, data=[74, 80]),\n",
      "   midi.NoteOffEvent(tick=96, channel=4, data=[74, 0]),\n",
      "   midi.NoteOnEvent(tick=0, channel=4, data=[73, 80]),\n",
      "   midi.NoteOffEvent(tick=96, channel=4, data=[73, 0]),\n",
      "   midi.NoteOnEvent(tick=0, channel=4, data=[71, 80]),\n",
      "   midi.NoteOffEvent(tick=96, channel=4, data=[71, 0]),\n",
      "   midi.NoteOnEvent(tick=0, channel=4, data=[69, 80]),\n",
      "   midi.NoteOffEvent(tick=96, channel=4, data=[69, 0]),\n",
      "   midi.NoteOnEvent(tick=0, channel=4, data=[67, 80]),\n",
      "   midi.NoteOffEvent(tick=96, channel=4, data=[67, 0]),\n",
      "   midi.NoteOnEvent(tick=0, channel=4, data=[66, 80]),\n",
      "   midi.NoteOffEvent(tick=96, channel=4, data=[66, 0]),\n",
      "   midi.NoteOnEvent(tick=0, channel=4, data=[64, 80]),\n",
      "   midi.NoteOffEvent(tick=96, channel=4, data=[64, 0]),\n",
      "   midi.NoteOnEvent(tick=0, channel=4, data=[62, 80]),\n",
      "   midi.NoteOffEvent(tick=192, channel=4, data=[62, 0]),\n",
      "   midi.NoteOnEvent(tick=0, channel=4, data=[74, 80]),\n",
      "   midi.NoteOffEvent(tick=192, channel=4, data=[74, 0]),\n",
      "   midi.NoteOnEvent(tick=0, channel=4, data=[73, 80]),\n",
      "   midi.NoteOffEvent(tick=192, channel=4, data=[73, 0]),\n",
      "   midi.NoteOnEvent(tick=0, channel=4, data=[69, 80]),\n",
      "   midi.NoteOffEvent(tick=192, channel=4, data=[69, 0]),\n",
      "   midi.NoteOnEvent(tick=0, channel=4, data=[74, 80]),\n",
      "   midi.NoteOffEvent(tick=192, channel=4, data=[74, 0]),\n",
      "   midi.NoteOnEvent(tick=0, channel=4, data=[73, 80]),\n",
      "   midi.NoteOffEvent(tick=96, channel=4, data=[73, 0]),\n",
      "   midi.NoteOnEvent(tick=0, channel=4, data=[71, 80]),\n",
      "   midi.NoteOffEvent(tick=96, channel=4, data=[71, 0]),\n",
      "   midi.NoteOnEvent(tick=0, channel=4, data=[69, 80]),\n",
      "   midi.NoteOffEvent(tick=96, channel=4, data=[69, 0]),\n",
      "   midi.NoteOnEvent(tick=0, channel=4, data=[67, 80]),\n",
      "   midi.NoteOffEvent(tick=96, channel=4, data=[67, 0]),\n",
      "   midi.NoteOnEvent(tick=0, channel=4, data=[66, 80]),\n",
      "   midi.NoteOffEvent(tick=96, channel=4, data=[66, 0]),\n",
      "   midi.NoteOnEvent(tick=0, channel=4, data=[64, 80]),\n",
      "   midi.NoteOffEvent(tick=96, channel=4, data=[64, 0]),\n",
      "   midi.NoteOnEvent(tick=0, channel=4, data=[62, 80]),\n",
      "   midi.NoteOffEvent(tick=192, channel=4, data=[62, 0]),\n",
      "   midi.NoteOnEvent(tick=0, channel=4, data=[62, 80]),\n",
      "   midi.NoteOffEvent(tick=192, channel=4, data=[62, 0]),\n",
      "   midi.NoteOnEvent(tick=0, channel=4, data=[67, 80]),\n",
      "   midi.NoteOffEvent(tick=192, channel=4, data=[67, 0]),\n",
      "   midi.NoteOnEvent(tick=0, channel=4, data=[64, 80]),\n",
      "   midi.NoteOffEvent(tick=192, channel=4, data=[64, 0]),\n",
      "   midi.NoteOnEvent(tick=0, channel=4, data=[66, 80]),\n",
      "   midi.NoteOffEvent(tick=96, channel=4, data=[66, 0]),\n",
      "   midi.NoteOnEvent(tick=0, channel=4, data=[74, 80]),\n",
      "   midi.NoteOffEvent(tick=96, channel=4, data=[74, 0]),\n",
      "   midi.NoteOnEvent(tick=0, channel=4, data=[73, 80]),\n",
      "   midi.NoteOffEvent(tick=96, channel=4, data=[73, 0]),\n",
      "   midi.NoteOnEvent(tick=0, channel=4, data=[71, 80]),\n",
      "   midi.NoteOffEvent(tick=96, channel=4, data=[71, 0]),\n",
      "   midi.NoteOnEvent(tick=0, channel=4, data=[69, 80]),\n",
      "   midi.NoteOffEvent(tick=96, channel=4, data=[69, 0]),\n",
      "   midi.NoteOnEvent(tick=0, channel=4, data=[67, 80]),\n",
      "   midi.NoteOffEvent(tick=96, channel=4, data=[67, 0]),\n",
      "   midi.NoteOnEvent(tick=0, channel=4, data=[66, 80]),\n",
      "   midi.NoteOffEvent(tick=96, channel=4, data=[66, 0]),\n",
      "   midi.NoteOnEvent(tick=0, channel=4, data=[64, 80]),\n",
      "   midi.NoteOffEvent(tick=96, channel=4, data=[64, 0]),\n",
      "   midi.NoteOnEvent(tick=0, channel=4, data=[62, 80]),\n",
      "   midi.NoteOffEvent(tick=192, channel=4, data=[62, 0]),\n",
      "   midi.NoteOnEvent(tick=0, channel=4, data=[74, 80]),\n",
      "   midi.NoteOffEvent(tick=192, channel=4, data=[74, 0]),\n",
      "   midi.NoteOnEvent(tick=0, channel=4, data=[71, 80]),\n",
      "   midi.NoteOffEvent(tick=192, channel=4, data=[71, 0]),\n",
      "   midi.NoteOnEvent(tick=0, channel=4, data=[66, 80]),\n",
      "   midi.NoteOffEvent(tick=192, channel=4, data=[66, 0]),\n",
      "   midi.NoteOnEvent(tick=0, channel=4, data=[68, 80]),\n",
      "   midi.NoteOffEvent(tick=96, channel=4, data=[68, 0]),\n",
      "   midi.NoteOnEvent(tick=0, channel=4, data=[69, 80]),\n",
      "   midi.NoteOffEvent(tick=96, channel=4, data=[69, 0]),\n",
      "   midi.NoteOnEvent(tick=0, channel=4, data=[71, 80]),\n",
      "   midi.NoteOffEvent(tick=384, channel=4, data=[71, 0]),\n",
      "   midi.NoteOnEvent(tick=0, channel=4, data=[71, 80]),\n",
      "   midi.NoteOffEvent(tick=384, channel=4, data=[71, 0]),\n",
      "   midi.NoteOnEvent(tick=0, channel=4, data=[73, 80]),\n",
      "   midi.NoteOffEvent(tick=192, channel=4, data=[73, 0]),\n",
      "   midi.NoteOnEvent(tick=0, channel=4, data=[69, 80]),\n",
      "   midi.NoteOffEvent(tick=192, channel=4, data=[69, 0]),\n",
      "   midi.NoteOnEvent(tick=0, channel=4, data=[64, 80]),\n",
      "   midi.NoteOffEvent(tick=192, channel=4, data=[64, 0]),\n",
      "   midi.NoteOnEvent(tick=0, channel=4, data=[66, 80]),\n",
      "   midi.NoteOffEvent(tick=192, channel=4, data=[66, 0]),\n",
      "   midi.NoteOnEvent(tick=0, channel=4, data=[73, 80]),\n",
      "   midi.NoteOffEvent(tick=96, channel=4, data=[73, 0]),\n",
      "   midi.NoteOnEvent(tick=0, channel=4, data=[71, 80]),\n",
      "   midi.NoteOffEvent(tick=96, channel=4, data=[71, 0]),\n",
      "   midi.NoteOnEvent(tick=0, channel=4, data=[73, 80]),\n",
      "   midi.NoteOffEvent(tick=192, channel=4, data=[73, 0]),\n",
      "   midi.NoteOnEvent(tick=0, channel=4, data=[69, 80]),\n",
      "   midi.NoteOffEvent(tick=384, channel=4, data=[69, 0]),\n",
      "   midi.NoteOnEvent(tick=0, channel=4, data=[66, 80]),\n",
      "   midi.NoteOffEvent(tick=192, channel=4, data=[66, 0]),\n",
      "   midi.NoteOnEvent(tick=0, channel=4, data=[71, 80]),\n",
      "   midi.NoteOffEvent(tick=192, channel=4, data=[71, 0]),\n",
      "   midi.NoteOnEvent(tick=0, channel=4, data=[74, 80]),\n",
      "   midi.NoteOffEvent(tick=192, channel=4, data=[74, 0]),\n",
      "   midi.NoteOnEvent(tick=0, channel=4, data=[71, 80]),\n",
      "   midi.NoteOffEvent(tick=192, channel=4, data=[71, 0]),\n",
      "   midi.NoteOnEvent(tick=0, channel=4, data=[68, 80]),\n",
      "   midi.NoteOffEvent(tick=192, channel=4, data=[68, 0]),\n",
      "   midi.NoteOnEvent(tick=0, channel=4, data=[64, 80]),\n",
      "   midi.NoteOffEvent(tick=192, channel=4, data=[64, 0]),\n",
      "   midi.NoteOnEvent(tick=0, channel=4, data=[64, 80]),\n",
      "   midi.NoteOffEvent(tick=384, channel=4, data=[64, 0]),\n",
      "   midi.NoteOnEvent(tick=0, channel=4, data=[57, 80]),\n",
      "   midi.NoteOffEvent(tick=192, channel=4, data=[57, 0]),\n",
      "   midi.NoteOnEvent(tick=0, channel=4, data=[61, 80]),\n",
      "   midi.NoteOffEvent(tick=192, channel=4, data=[61, 0]),\n",
      "   midi.NoteOnEvent(tick=0, channel=4, data=[64, 80]),\n",
      "   midi.NoteOffEvent(tick=384, channel=4, data=[64, 0]),\n",
      "   midi.EndOfTrackEvent(tick=0, data=[])]),\n",
      " midi.Track(\\\n",
      "  [midi.TrackNameEvent(tick=0, text='Soprano', data=[83, 111, 112, 114, 97, 110, 111]),\n",
      "   midi.ControlChangeEvent(tick=0, channel=5, data=[0, 0]),\n",
      "   midi.ProgramChangeEvent(tick=0, channel=5, data=[65]),\n",
      "   midi.ControlChangeEvent(tick=0, channel=5, data=[7, 127]),\n",
      "   midi.ControlChangeEvent(tick=0, channel=5, data=[10, 62]),\n",
      "   midi.ControlChangeEvent(tick=0, channel=5, data=[91, 127]),\n",
      "   midi.ControlChangeEvent(tick=0, channel=5, data=[93, 127]),\n",
      "   midi.KeySignatureEvent(tick=0, data=[2, 0]),\n",
      "   midi.NoteOnEvent(tick=25344, channel=5, data=[74, 80]),\n",
      "   midi.NoteOffEvent(tick=384, channel=5, data=[74, 0]),\n",
      "   midi.NoteOnEvent(tick=0, channel=5, data=[69, 80]),\n",
      "   midi.NoteOffEvent(tick=384, channel=5, data=[69, 0]),\n",
      "   midi.NoteOnEvent(tick=0, channel=5, data=[66, 80]),\n",
      "   midi.NoteOffEvent(tick=512, channel=5, data=[66, 0]),\n",
      "   midi.NoteOnEvent(tick=64, channel=5, data=[69, 80]),\n",
      "   midi.NoteOffEvent(tick=192, channel=5, data=[69, 0]),\n",
      "   midi.NoteOnEvent(tick=0, channel=5, data=[72, 80]),\n",
      "   midi.NoteOffEvent(tick=192, channel=5, data=[72, 0]),\n",
      "   midi.NoteOnEvent(tick=0, channel=5, data=[71, 80]),\n",
      "   midi.NoteOffEvent(tick=192, channel=5, data=[71, 0]),\n",
      "   midi.NoteOnEvent(tick=0, channel=5, data=[72, 80]),\n",
      "   midi.NoteOffEvent(tick=192, channel=5, data=[72, 0]),\n",
      "   midi.NoteOnEvent(tick=0, channel=5, data=[69, 80]),\n",
      "   midi.NoteOffEvent(tick=192, channel=5, data=[69, 0]),\n",
      "   midi.NoteOnEvent(tick=0, channel=5, data=[71, 80]),\n",
      "   midi.NoteOffEvent(tick=192, channel=5, data=[71, 0]),\n",
      "   midi.NoteOnEvent(tick=0, channel=5, data=[69, 80]),\n",
      "   midi.NoteOffEvent(tick=192, channel=5, data=[69, 0]),\n",
      "   midi.NoteOnEvent(tick=0, channel=5, data=[71, 80]),\n",
      "   midi.NoteOffEvent(tick=384, channel=5, data=[71, 0]),\n",
      "   midi.NoteOnEvent(tick=0, channel=5, data=[76, 80]),\n",
      "   midi.NoteOffEvent(tick=96, channel=5, data=[76, 0]),\n",
      "   midi.NoteOnEvent(tick=0, channel=5, data=[78, 80]),\n",
      "   midi.NoteOffEvent(tick=96, channel=5, data=[78, 0]),\n",
      "   midi.NoteOnEvent(tick=0, channel=5, data=[79, 80]),\n",
      "   midi.NoteOffEvent(tick=96, channel=5, data=[79, 0]),\n",
      "   midi.NoteOnEvent(tick=96, channel=5, data=[79, 80]),\n",
      "   midi.NoteOffEvent(tick=96, channel=5, data=[79, 0]),\n",
      "   midi.NoteOnEvent(tick=96, channel=5, data=[76, 80]),\n",
      "   midi.NoteOffEvent(tick=96, channel=5, data=[76, 0]),\n",
      "   midi.NoteOnEvent(tick=96, channel=5, data=[73, 80]),\n",
      "   midi.NoteOffEvent(tick=512, channel=5, data=[73, 0]),\n",
      "   midi.NoteOnEvent(tick=64, channel=5, data=[69, 80]),\n",
      "   midi.NoteOffEvent(tick=192, channel=5, data=[69, 0]),\n",
      "   midi.NoteOnEvent(tick=0, channel=5, data=[74, 80]),\n",
      "   midi.NoteOffEvent(tick=48, channel=5, data=[74, 0]),\n",
      "   midi.NoteOnEvent(tick=0, channel=5, data=[76, 80]),\n",
      "   midi.NoteOffEvent(tick=48, channel=5, data=[76, 0]),\n",
      "   midi.NoteOnEvent(tick=0, channel=5, data=[78, 80]),\n",
      "   midi.NoteOffEvent(tick=256, channel=5, data=[78, 0]),\n",
      "   midi.NoteOnEvent(tick=32, channel=5, data=[76, 80]),\n",
      "   midi.NoteOffEvent(tick=48, channel=5, data=[76, 0]),\n",
      "   midi.NoteOnEvent(tick=0, channel=5, data=[78, 80]),\n",
      "   midi.NoteOffEvent(tick=48, channel=5, data=[78, 0]),\n",
      "   midi.NoteOnEvent(tick=0, channel=5, data=[79, 80]),\n",
      "   midi.NoteOffEvent(tick=256, channel=5, data=[79, 0]),\n",
      "   midi.NoteOnEvent(tick=32, channel=5, data=[78, 80]),\n",
      "   midi.NoteOffEvent(tick=192, channel=5, data=[78, 0]),\n",
      "   midi.NoteOnEvent(tick=0, channel=5, data=[76, 80]),\n",
      "   midi.NoteOffEvent(tick=192, channel=5, data=[76, 0]),\n",
      "   midi.NoteOnEvent(tick=0, channel=5, data=[74, 80]),\n",
      "   midi.NoteOffEvent(tick=384, channel=5, data=[74, 0]),\n",
      "   midi.NoteOnEvent(tick=0, channel=5, data=[74, 80]),\n",
      "   midi.NoteOffEvent(tick=192, channel=5, data=[74, 0]),\n",
      "   midi.NoteOnEvent(tick=0, channel=5, data=[73, 80]),\n",
      "   midi.NoteOffEvent(tick=96, channel=5, data=[73, 0]),\n",
      "   midi.NoteOnEvent(tick=0, channel=5, data=[71, 80]),\n",
      "   midi.NoteOffEvent(tick=96, channel=5, data=[71, 0]),\n",
      "   midi.NoteOnEvent(tick=0, channel=5, data=[69, 80]),\n",
      "   midi.NoteOffEvent(tick=96, channel=5, data=[69, 0]),\n",
      "   midi.NoteOnEvent(tick=0, channel=5, data=[67, 80]),\n",
      "   midi.NoteOffEvent(tick=96, channel=5, data=[67, 0]),\n",
      "   midi.NoteOnEvent(tick=0, channel=5, data=[66, 80]),\n",
      "   midi.NoteOffEvent(tick=96, channel=5, data=[66, 0]),\n",
      "   midi.NoteOnEvent(tick=0, channel=5, data=[64, 80]),\n",
      "   midi.NoteOffEvent(tick=96, channel=5, data=[64, 0]),\n",
      "   midi.NoteOnEvent(tick=0, channel=5, data=[62, 80]),\n",
      "   midi.NoteOffEvent(tick=192, channel=5, data=[62, 0]),\n",
      "   midi.NoteOnEvent(tick=0, channel=5, data=[69, 80]),\n",
      "   midi.NoteOffEvent(tick=192, channel=5, data=[69, 0]),\n",
      "   midi.NoteOnEvent(tick=0, channel=5, data=[78, 80]),\n",
      "   midi.NoteOffEvent(tick=576, channel=5, data=[78, 0]),\n",
      "   midi.NoteOnEvent(tick=0, channel=5, data=[76, 80]),\n",
      "   midi.NoteOffEvent(tick=96, channel=5, data=[76, 0]),\n",
      "   midi.NoteOnEvent(tick=0, channel=5, data=[74, 80]),\n",
      "   midi.NoteOffEvent(tick=96, channel=5, data=[74, 0]),\n",
      "   midi.NoteOnEvent(tick=0, channel=5, data=[78, 80]),\n",
      "   midi.NoteOffEvent(tick=96, channel=5, data=[78, 0]),\n",
      "   midi.NoteOnEvent(tick=0, channel=5, data=[76, 80]),\n",
      "   midi.NoteOffEvent(tick=96, channel=5, data=[76, 0]),\n",
      "   midi.NoteOnEvent(tick=0, channel=5, data=[74, 80]),\n",
      "   midi.NoteOffEvent(tick=96, channel=5, data=[74, 0]),\n",
      "   midi.NoteOnEvent(tick=0, channel=5, data=[73, 80]),\n",
      "   midi.NoteOffEvent(tick=96, channel=5, data=[73, 0]),\n",
      "   midi.NoteOnEvent(tick=0, channel=5, data=[74, 80]),\n",
      "   midi.NoteOffEvent(tick=384, channel=5, data=[74, 0]),\n",
      "   midi.NoteOnEvent(tick=0, channel=5, data=[62, 80]),\n",
      "   midi.NoteOffEvent(tick=384, channel=5, data=[62, 0]),\n",
      "   midi.NoteOnEvent(tick=0, channel=5, data=[69, 80]),\n",
      "   midi.NoteOffEvent(tick=512, channel=5, data=[69, 0]),\n",
      "   midi.NoteOnEvent(tick=64, channel=5, data=[71, 80]),\n",
      "   midi.NoteOffEvent(tick=96, channel=5, data=[71, 0]),\n",
      "   midi.NoteOnEvent(tick=0, channel=5, data=[73, 80]),\n",
      "   midi.NoteOffEvent(tick=96, channel=5, data=[73, 0]),\n",
      "   midi.NoteOnEvent(tick=0, channel=5, data=[74, 80]),\n",
      "   midi.NoteOffEvent(tick=96, channel=5, data=[74, 0]),\n",
      "   midi.NoteOnEvent(tick=0, channel=5, data=[76, 80]),\n",
      "   midi.NoteOffEvent(tick=96, channel=5, data=[76, 0]),\n",
      "   midi.NoteOnEvent(tick=0, channel=5, data=[78, 80]),\n",
      "   midi.NoteOffEvent(tick=96, channel=5, data=[78, 0]),\n",
      "   midi.NoteOnEvent(tick=96, channel=5, data=[78, 80]),\n",
      "   midi.NoteOffEvent(tick=96, channel=5, data=[78, 0]),\n",
      "   midi.NoteOnEvent(tick=96, channel=5, data=[74, 80]),\n",
      "   midi.NoteOffEvent(tick=96, channel=5, data=[74, 0]),\n",
      "   midi.NoteOnEvent(tick=96, channel=5, data=[79, 80]),\n",
      "   midi.NoteOffEvent(tick=192, channel=5, data=[79, 0]),\n",
      "   midi.NoteOnEvent(tick=0, channel=5, data=[78, 80]),\n",
      "   midi.NoteOffEvent(tick=192, channel=5, data=[78, 0]),\n",
      "   midi.NoteOnEvent(tick=0, channel=5, data=[76, 80]),\n",
      "   midi.NoteOffEvent(tick=192, channel=5, data=[76, 0]),\n",
      "   midi.NoteOnEvent(tick=0, channel=5, data=[74, 80]),\n",
      "   midi.NoteOffEvent(tick=192, channel=5, data=[74, 0]),\n",
      "   midi.NoteOnEvent(tick=0, channel=5, data=[73, 80]),\n",
      "   midi.NoteOffEvent(tick=192, channel=5, data=[73, 0]),\n",
      "   midi.NoteOnEvent(tick=0, channel=5, data=[71, 80]),\n",
      "   midi.NoteOffEvent(tick=192, channel=5, data=[71, 0]),\n",
      "   midi.NoteOnEvent(tick=0, channel=5, data=[69, 80]),\n",
      "   midi.NoteOffEvent(tick=384, channel=5, data=[69, 0]),\n",
      "   midi.NoteOnEvent(tick=384, channel=5, data=[78, 80]),\n",
      "   midi.NoteOffEvent(tick=576, channel=5, data=[78, 0]),\n",
      "   midi.NoteOnEvent(tick=0, channel=5, data=[74, 80]),\n",
      "   midi.NoteOffEvent(tick=192, channel=5, data=[74, 0]),\n",
      "   midi.NoteOnEvent(tick=0, channel=5, data=[71, 80]),\n",
      "   midi.NoteOffEvent(tick=192, channel=5, data=[71, 0]),\n",
      "   midi.NoteOnEvent(tick=0, channel=5, data=[74, 80]),\n",
      "   midi.NoteOffEvent(tick=192, channel=5, data=[74, 0]),\n",
      "   midi.NoteOnEvent(tick=0, channel=5, data=[76, 80]),\n",
      "   midi.NoteOffEvent(tick=192, channel=5, data=[76, 0]),\n",
      "   midi.NoteOnEvent(tick=0, channel=5, data=[64, 80]),\n",
      "   midi.NoteOffEvent(tick=192, channel=5, data=[64, 0]),\n",
      "   midi.NoteOnEvent(tick=0, channel=5, data=[76, 80]),\n",
      "   midi.NoteOffEvent(tick=576, channel=5, data=[76, 0]),\n",
      "   midi.NoteOnEvent(tick=0, channel=5, data=[73, 80]),\n",
      "   midi.NoteOffEvent(tick=192, channel=5, data=[73, 0]),\n",
      "   midi.NoteOnEvent(tick=0, channel=5, data=[69, 80]),\n",
      "   midi.NoteOffEvent(tick=192, channel=5, data=[69, 0]),\n",
      "   midi.NoteOnEvent(tick=0, channel=5, data=[73, 80]),\n",
      "   midi.NoteOffEvent(tick=192, channel=5, data=[73, 0]),\n",
      "   midi.NoteOnEvent(tick=0, channel=5, data=[74, 80]),\n",
      "   midi.NoteOffEvent(tick=960, channel=5, data=[74, 0]),\n",
      "   midi.NoteOnEvent(tick=0, channel=5, data=[71, 80]),\n",
      "   midi.NoteOffEvent(tick=192, channel=5, data=[71, 0]),\n",
      "   midi.NoteOnEvent(tick=0, channel=5, data=[76, 80]),\n",
      "   midi.NoteOffEvent(tick=576, channel=5, data=[76, 0]),\n",
      "   midi.NoteOnEvent(tick=0, channel=5, data=[78, 80]),\n",
      "   midi.NoteOffEvent(tick=96, channel=5, data=[78, 0]),\n",
      "   midi.NoteOnEvent(tick=0, channel=5, data=[76, 80]),\n",
      "   midi.NoteOffEvent(tick=96, channel=5, data=[76, 0]),\n",
      "   midi.NoteOnEvent(tick=0, channel=5, data=[74, 80]),\n",
      "   midi.NoteOffEvent(tick=96, channel=5, data=[74, 0]),\n",
      "   midi.NoteOnEvent(tick=0, channel=5, data=[73, 80]),\n",
      "   midi.NoteOffEvent(tick=96, channel=5, data=[73, 0]),\n",
      "   midi.NoteOnEvent(tick=0, channel=5, data=[71, 80]),\n",
      "   midi.NoteOffEvent(tick=96, channel=5, data=[71, 0]),\n",
      "   midi.NoteOnEvent(tick=0, channel=5, data=[73, 80]),\n",
      "   midi.NoteOffEvent(tick=96, channel=5, data=[73, 0]),\n",
      "   midi.NoteOnEvent(tick=0, channel=5, data=[69, 80]),\n",
      "   midi.NoteOffEvent(tick=384, channel=5, data=[69, 0]),\n",
      "   midi.NoteOnEvent(tick=384, channel=5, data=[71, 80]),\n",
      "   midi.NoteOffEvent(tick=96, channel=5, data=[71, 0]),\n",
      "   midi.NoteOnEvent(tick=0, channel=5, data=[73, 80]),\n",
      "   midi.NoteOffEvent(tick=96, channel=5, data=[73, 0]),\n",
      "   midi.NoteOnEvent(tick=0, channel=5, data=[74, 80]),\n",
      "   midi.NoteOffEvent(tick=96, channel=5, data=[74, 0]),\n",
      "   midi.NoteOnEvent(tick=96, channel=5, data=[74, 80]),\n",
      "   midi.NoteOffEvent(tick=96, channel=5, data=[74, 0]),\n",
      "   midi.NoteOnEvent(tick=96, channel=5, data=[74, 80]),\n",
      "   midi.NoteOffEvent(tick=96, channel=5, data=[74, 0]),\n",
      "   midi.NoteOnEvent(tick=96, channel=5, data=[74, 80]),\n",
      "   midi.NoteOffEvent(tick=192, channel=5, data=[74, 0]),\n",
      "   midi.NoteOnEvent(tick=0, channel=5, data=[71, 80]),\n",
      "   midi.NoteOffEvent(tick=192, channel=5, data=[71, 0]),\n",
      "   midi.NoteOnEvent(tick=0, channel=5, data=[76, 80]),\n",
      "   midi.NoteOffEvent(tick=576, channel=5, data=[76, 0]),\n",
      "   midi.NoteOnEvent(tick=0, channel=5, data=[69, 80]),\n",
      "   midi.NoteOffEvent(tick=192, channel=5, data=[69, 0]),\n",
      "   midi.NoteOnEvent(tick=0, channel=5, data=[69, 80]),\n",
      "   midi.NoteOffEvent(tick=192, channel=5, data=[69, 0]),\n",
      "   midi.NoteOnEvent(tick=0, channel=5, data=[68, 80]),\n",
      "   midi.NoteOffEvent(tick=192, channel=5, data=[68, 0]),\n",
      "   midi.NoteOnEvent(tick=0, channel=5, data=[69, 80]),\n",
      "   midi.NoteOffEvent(tick=192, channel=5, data=[69, 0]),\n",
      "   midi.NoteOnEvent(tick=0, channel=5, data=[64, 80]),\n",
      "   midi.NoteOffEvent(tick=192, channel=5, data=[64, 0]),\n",
      "   midi.NoteOnEvent(tick=0, channel=5, data=[69, 80]),\n",
      "   midi.NoteOffEvent(tick=192, channel=5, data=[69, 0]),\n",
      "   midi.NoteOnEvent(tick=0, channel=5, data=[71, 80]),\n",
      "   midi.NoteOffEvent(tick=192, channel=5, data=[71, 0]),\n",
      "   midi.NoteOnEvent(tick=0, channel=5, data=[73, 80]),\n",
      "   midi.NoteOffEvent(tick=96, channel=5, data=[73, 0]),\n",
      "   midi.NoteOnEvent(tick=0, channel=5, data=[74, 80]),\n",
      "   midi.NoteOffEvent(tick=96, channel=5, data=[74, 0]),\n",
      "   midi.NoteOnEvent(tick=0, channel=5, data=[76, 80]),\n",
      "   midi.NoteOffEvent(tick=96, channel=5, data=[76, 0]),\n",
      "   midi.NoteOnEvent(tick=96, channel=5, data=[76, 80]),\n",
      "   midi.NoteOffEvent(tick=96, channel=5, data=[76, 0]),\n",
      "   midi.NoteOnEvent(tick=96, channel=5, data=[76, 80]),\n",
      "   midi.NoteOffEvent(tick=96, channel=5, data=[76, 0]),\n",
      "   midi.NoteOnEvent(tick=96, channel=5, data=[76, 80]),\n",
      "   midi.NoteOffEvent(tick=384, channel=5, data=[76, 0]),\n",
      "   midi.NoteOnEvent(tick=192, channel=5, data=[69, 80]),\n",
      "   midi.NoteOffEvent(tick=192, channel=5, data=[69, 0]),\n",
      "   midi.NoteOnEvent(tick=0, channel=5, data=[74, 80]),\n",
      "   midi.NoteOffEvent(tick=48, channel=5, data=[74, 0]),\n",
      "   midi.NoteOnEvent(tick=0, channel=5, data=[76, 80]),\n",
      "   midi.NoteOffEvent(tick=48, channel=5, data=[76, 0]),\n",
      "   midi.NoteOnEvent(tick=0, channel=5, data=[78, 80]),\n",
      "   midi.NoteOffEvent(tick=256, channel=5, data=[78, 0]),\n",
      "   midi.NoteOnEvent(tick=32, channel=5, data=[76, 80]),\n",
      "   midi.NoteOffEvent(tick=48, channel=5, data=[76, 0]),\n",
      "   midi.NoteOnEvent(tick=0, channel=5, data=[78, 80]),\n",
      "   midi.NoteOffEvent(tick=48, channel=5, data=[78, 0]),\n",
      "   midi.NoteOnEvent(tick=0, channel=5, data=[79, 80]),\n",
      "   midi.NoteOffEvent(tick=256, channel=5, data=[79, 0]),\n",
      "   midi.NoteOnEvent(tick=32, channel=5, data=[78, 80]),\n",
      "   midi.NoteOffEvent(tick=192, channel=5, data=[78, 0]),\n",
      "   midi.NoteOnEvent(tick=0, channel=5, data=[76, 80]),\n",
      "   midi.NoteOffEvent(tick=192, channel=5, data=[76, 0]),\n",
      "   midi.NoteOnEvent(tick=0, channel=5, data=[74, 80]),\n",
      "   midi.NoteOffEvent(tick=192, channel=5, data=[74, 0]),\n",
      "   midi.NoteOnEvent(tick=0, channel=5, data=[73, 80]),\n",
      "   midi.NoteOffEvent(tick=192, channel=5, data=[73, 0]),\n",
      "   midi.NoteOnEvent(tick=0, channel=5, data=[71, 80]),\n",
      "   midi.NoteOffEvent(tick=384, channel=5, data=[71, 0]),\n",
      "   midi.NoteOnEvent(tick=0, channel=5, data=[71, 80]),\n",
      "   midi.NoteOffEvent(tick=384, channel=5, data=[71, 0]),\n",
      "   midi.NoteOnEvent(tick=0, channel=5, data=[71, 80]),\n",
      "   midi.NoteOffEvent(tick=96, channel=5, data=[71, 0]),\n",
      "   midi.NoteOnEvent(tick=0, channel=5, data=[69, 80]),\n",
      "   midi.NoteOffEvent(tick=96, channel=5, data=[69, 0]),\n",
      "   midi.NoteOnEvent(tick=0, channel=5, data=[68, 80]),\n",
      "   midi.NoteOffEvent(tick=96, channel=5, data=[68, 0]),\n",
      "   midi.NoteOnEvent(tick=0, channel=5, data=[69, 80]),\n",
      "   midi.NoteOffEvent(tick=96, channel=5, data=[69, 0]),\n",
      "   midi.NoteOnEvent(tick=0, channel=5, data=[71, 80]),\n",
      "   midi.NoteOffEvent(tick=192, channel=5, data=[71, 0]),\n",
      "   midi.NoteOnEvent(tick=0, channel=5, data=[73, 80]),\n",
      "   midi.NoteOffEvent(tick=192, channel=5, data=[73, 0]),\n",
      "   midi.NoteOnEvent(tick=0, channel=5, data=[74, 80]),\n",
      "   midi.NoteOffEvent(tick=384, channel=5, data=[74, 0]),\n",
      "   midi.NoteOnEvent(tick=0, channel=5, data=[74, 80]),\n",
      "   midi.NoteOffEvent(tick=384, channel=5, data=[74, 0]),\n",
      "   midi.NoteOnEvent(tick=0, channel=5, data=[74, 80]),\n",
      "   midi.NoteOffEvent(tick=96, channel=5, data=[74, 0]),\n",
      "   midi.NoteOnEvent(tick=0, channel=5, data=[73, 80]),\n",
      "   midi.NoteOffEvent(tick=96, channel=5, data=[73, 0]),\n",
      "   midi.NoteOnEvent(tick=0, channel=5, data=[71, 80]),\n",
      "   midi.NoteOffEvent(tick=96, channel=5, data=[71, 0]),\n",
      "   midi.NoteOnEvent(tick=0, channel=5, data=[73, 80]),\n",
      "   midi.NoteOffEvent(tick=96, channel=5, data=[73, 0]),\n",
      "   midi.NoteOnEvent(tick=0, channel=5, data=[74, 80]),\n",
      "   midi.NoteOffEvent(tick=192, channel=5, data=[74, 0]),\n",
      "   midi.NoteOnEvent(tick=0, channel=5, data=[76, 80]),\n",
      "   midi.NoteOffEvent(tick=192, channel=5, data=[76, 0]),\n",
      "   midi.NoteOnEvent(tick=0, channel=5, data=[73, 80]),\n",
      "   midi.NoteOffEvent(tick=96, channel=5, data=[73, 0]),\n",
      "   midi.NoteOnEvent(tick=0, channel=5, data=[74, 80]),\n",
      "   midi.NoteOffEvent(tick=96, channel=5, data=[74, 0]),\n",
      "   midi.NoteOnEvent(tick=0, channel=5, data=[76, 80]),\n",
      "   midi.NoteOffEvent(tick=384, channel=5, data=[76, 0]),\n",
      "   midi.NoteOnEvent(tick=0, channel=5, data=[78, 80]),\n",
      "   midi.NoteOffEvent(tick=192, channel=5, data=[78, 0]),\n",
      "   midi.NoteOnEvent(tick=0, channel=5, data=[76, 80]),\n",
      "   midi.NoteOffEvent(tick=96, channel=5, data=[76, 0]),\n",
      "   midi.NoteOnEvent(tick=0, channel=5, data=[81, 80]),\n",
      "   midi.NoteOffEvent(tick=96, channel=5, data=[81, 0]),\n",
      "   midi.NoteOnEvent(tick=0, channel=5, data=[80, 80]),\n",
      "   midi.NoteOffEvent(tick=96, channel=5, data=[80, 0]),\n",
      "   midi.NoteOnEvent(tick=0, channel=5, data=[78, 80]),\n",
      "   midi.NoteOffEvent(tick=96, channel=5, data=[78, 0]),\n",
      "   midi.NoteOnEvent(tick=0, channel=5, data=[76, 80]),\n",
      "   midi.NoteOffEvent(tick=192, channel=5, data=[76, 0]),\n",
      "   midi.NoteOnEvent(tick=0, channel=5, data=[69, 80]),\n",
      "   midi.NoteOffEvent(tick=192, channel=5, data=[69, 0]),\n",
      "   midi.NoteOnEvent(tick=0, channel=5, data=[71, 80]),\n",
      "   midi.NoteOffEvent(tick=384, channel=5, data=[71, 0]),\n",
      "   midi.NoteOnEvent(tick=0, channel=5, data=[68, 80]),\n",
      "   midi.NoteOffEvent(tick=384, channel=5, data=[68, 0]),\n",
      "   midi.NoteOnEvent(tick=0, channel=5, data=[69, 80]),\n",
      "   midi.NoteOffEvent(tick=384, channel=5, data=[69, 0]),\n",
      "   midi.NoteOnEvent(tick=12672, channel=5, data=[73, 80]),\n",
      "   midi.NoteOffEvent(tick=192, channel=5, data=[73, 0]),\n",
      "   midi.NoteOnEvent(tick=0, channel=5, data=[73, 80]),\n",
      "   midi.NoteOffEvent(tick=384, channel=5, data=[73, 0]),\n",
      "   midi.NoteOnEvent(tick=0, channel=5, data=[73, 80]),\n",
      "   midi.NoteOffEvent(tick=384, channel=5, data=[73, 0]),\n",
      "   midi.NoteOnEvent(tick=0, channel=5, data=[73, 80]),\n",
      "   midi.NoteOffEvent(tick=384, channel=5, data=[73, 0]),\n",
      "   midi.NoteOnEvent(tick=0, channel=5, data=[73, 80]),\n",
      "   midi.NoteOffEvent(tick=288, channel=5, data=[73, 0]),\n",
      "   midi.NoteOnEvent(tick=0, channel=5, data=[78, 80]),\n",
      "   midi.NoteOffEvent(tick=96, channel=5, data=[78, 0]),\n",
      "   midi.NoteOnEvent(tick=0, channel=5, data=[76, 80]),\n",
      "   midi.NoteOffEvent(tick=96, channel=5, data=[76, 0]),\n",
      "   midi.NoteOnEvent(tick=0, channel=5, data=[74, 80]),\n",
      "   midi.NoteOffEvent(tick=96, channel=5, data=[74, 0]),\n",
      "   midi.NoteOnEvent(tick=0, channel=5, data=[73, 80]),\n",
      "   midi.NoteOffEvent(tick=192, channel=5, data=[73, 0]),\n",
      "   midi.NoteOnEvent(tick=0, channel=5, data=[71, 80]),\n",
      "   midi.NoteOffEvent(tick=192, channel=5, data=[71, 0]),\n",
      "   midi.NoteOnEvent(tick=0, channel=5, data=[69, 80]),\n",
      "   midi.NoteOffEvent(tick=192, channel=5, data=[69, 0]),\n",
      "   midi.NoteOnEvent(tick=0, channel=5, data=[68, 80]),\n",
      "   midi.NoteOffEvent(tick=96, channel=5, data=[68, 0]),\n",
      "   midi.NoteOnEvent(tick=0, channel=5, data=[69, 80]),\n",
      "   midi.NoteOffEvent(tick=96, channel=5, data=[69, 0]),\n",
      "   midi.NoteOnEvent(tick=0, channel=5, data=[66, 80]),\n",
      "   midi.NoteOffEvent(tick=192, channel=5, data=[66, 0]),\n",
      "   midi.NoteOnEvent(tick=192, channel=5, data=[78, 80]),\n",
      "   midi.NoteOffEvent(tick=192, channel=5, data=[78, 0]),\n",
      "   midi.NoteOnEvent(tick=0, channel=5, data=[74, 80]),\n",
      "   midi.NoteOffEvent(tick=96, channel=5, data=[74, 0]),\n",
      "   midi.NoteOnEvent(tick=0, channel=5, data=[71, 80]),\n",
      "   midi.NoteOffEvent(tick=96, channel=5, data=[71, 0]),\n",
      "   midi.NoteOnEvent(tick=0, channel=5, data=[78, 80]),\n",
      "   midi.NoteOffEvent(tick=576, channel=5, data=[78, 0]),\n",
      "   midi.NoteOnEvent(tick=0, channel=5, data=[73, 80]),\n",
      "   midi.NoteOffEvent(tick=96, channel=5, data=[73, 0]),\n",
      "   midi.NoteOnEvent(tick=0, channel=5, data=[70, 80]),\n",
      "   midi.NoteOffEvent(tick=96, channel=5, data=[70, 0]),\n",
      "   midi.NoteOnEvent(tick=0, channel=5, data=[78, 80]),\n",
      "   midi.NoteOffEvent(tick=576, channel=5, data=[78, 0]),\n",
      "   midi.NoteOnEvent(tick=0, channel=5, data=[76, 80]),\n",
      "   midi.NoteOffEvent(tick=96, channel=5, data=[76, 0]),\n",
      "   midi.NoteOnEvent(tick=0, channel=5, data=[74, 80]),\n",
      "   midi.NoteOffEvent(tick=96, channel=5, data=[74, 0]),\n",
      "   midi.NoteOnEvent(tick=0, channel=5, data=[73, 80]),\n",
      "   midi.NoteOffEvent(tick=96, channel=5, data=[73, 0]),\n",
      "   midi.NoteOnEvent(tick=0, channel=5, data=[74, 80]),\n",
      "   midi.NoteOffEvent(tick=96, channel=5, data=[74, 0]),\n",
      "   midi.NoteOnEvent(tick=0, channel=5, data=[76, 80]),\n",
      "   midi.NoteOffEvent(tick=192, channel=5, data=[76, 0]),\n",
      "   midi.NoteOnEvent(tick=0, channel=5, data=[74, 80]),\n",
      "   midi.NoteOffEvent(tick=192, channel=5, data=[74, 0]),\n",
      "   midi.NoteOnEvent(tick=0, channel=5, data=[73, 80]),\n",
      "   midi.NoteOffEvent(tick=96, channel=5, data=[73, 0]),\n",
      "   midi.NoteOnEvent(tick=0, channel=5, data=[74, 80]),\n",
      "   midi.NoteOffEvent(tick=96, channel=5, data=[74, 0]),\n",
      "   midi.NoteOnEvent(tick=0, channel=5, data=[71, 80]),\n",
      "   midi.NoteOffEvent(tick=384, channel=5, data=[71, 0]),\n",
      "   midi.NoteOnEvent(tick=0, channel=5, data=[79, 80]),\n",
      "   midi.NoteOffEvent(tick=384, channel=5, data=[79, 0]),\n",
      "   midi.NoteOnEvent(tick=192, channel=5, data=[76, 80]),\n",
      "   midi.NoteOffEvent(tick=192, channel=5, data=[76, 0]),\n",
      "   midi.NoteOnEvent(tick=0, channel=5, data=[73, 80]),\n",
      "   midi.NoteOffEvent(tick=96, channel=5, data=[73, 0]),\n",
      "   midi.NoteOnEvent(tick=0, channel=5, data=[69, 80]),\n",
      "   midi.NoteOffEvent(tick=96, channel=5, data=[69, 0]),\n",
      "   midi.NoteOnEvent(tick=0, channel=5, data=[68, 80]),\n",
      "   midi.NoteOffEvent(tick=96, channel=5, data=[68, 0]),\n",
      "   midi.NoteOnEvent(tick=0, channel=5, data=[69, 80]),\n",
      "   midi.NoteOffEvent(tick=96, channel=5, data=[69, 0]),\n",
      "   midi.NoteOnEvent(tick=0, channel=5, data=[71, 80]),\n",
      "   midi.NoteOffEvent(tick=96, channel=5, data=[71, 0]),\n",
      "   midi.NoteOnEvent(tick=0, channel=5, data=[73, 80]),\n",
      "   midi.NoteOffEvent(tick=96, channel=5, data=[73, 0]),\n",
      "   midi.NoteOnEvent(tick=0, channel=5, data=[74, 80]),\n",
      "   midi.NoteOffEvent(tick=96, channel=5, data=[74, 0]),\n",
      "   midi.NoteOnEvent(tick=0, channel=5, data=[76, 80]),\n",
      "   midi.NoteOffEvent(tick=96, channel=5, data=[76, 0]),\n",
      "   midi.NoteOnEvent(tick=0, channel=5, data=[78, 80]),\n",
      "   midi.NoteOffEvent(tick=192, channel=5, data=[78, 0]),\n",
      "   midi.NoteOnEvent(tick=0, channel=5, data=[74, 80]),\n",
      "   midi.NoteOffEvent(tick=192, channel=5, data=[74, 0]),\n",
      "   midi.NoteOnEvent(tick=0, channel=5, data=[78, 80]),\n",
      "   midi.NoteOffEvent(tick=192, channel=5, data=[78, 0]),\n",
      "   midi.NoteOnEvent(tick=0, channel=5, data=[74, 80]),\n",
      "   midi.NoteOffEvent(tick=192, channel=5, data=[74, 0]),\n",
      "   midi.NoteOnEvent(tick=0, channel=5, data=[71, 80]),\n",
      "   midi.NoteOffEvent(tick=384, channel=5, data=[71, 0]),\n",
      "   midi.NoteOnEvent(tick=0, channel=5, data=[76, 80]),\n",
      "   midi.NoteOffEvent(tick=384, channel=5, data=[76, 0]),\n",
      "   midi.NoteOnEvent(tick=192, channel=5, data=[64, 80]),\n",
      "   midi.NoteOffEvent(tick=192, channel=5, data=[64, 0]),\n",
      "   midi.NoteOnEvent(tick=0, channel=5, data=[76, 80]),\n",
      "   midi.NoteOffEvent(tick=192, channel=5, data=[76, 0]),\n",
      "   midi.NoteOnEvent(tick=0, channel=5, data=[76, 80]),\n",
      "   midi.NoteOffEvent(tick=192, channel=5, data=[76, 0]),\n",
      "   midi.NoteOnEvent(tick=0, channel=5, data=[76, 80]),\n",
      "   midi.NoteOffEvent(tick=96, channel=5, data=[76, 0]),\n",
      "   midi.NoteOnEvent(tick=0, channel=5, data=[79, 80]),\n",
      "   midi.NoteOffEvent(tick=96, channel=5, data=[79, 0]),\n",
      "   midi.NoteOnEvent(tick=0, channel=5, data=[78, 80]),\n",
      "   midi.NoteOffEvent(tick=96, channel=5, data=[78, 0]),\n",
      "   midi.NoteOnEvent(tick=0, channel=5, data=[76, 80]),\n",
      "   midi.NoteOffEvent(tick=96, channel=5, data=[76, 0]),\n",
      "   midi.NoteOnEvent(tick=0, channel=5, data=[78, 80]),\n",
      "   midi.NoteOffEvent(tick=96, channel=5, data=[78, 0]),\n",
      "   midi.NoteOnEvent(tick=0, channel=5, data=[76, 80]),\n",
      "   midi.NoteOffEvent(tick=96, channel=5, data=[76, 0]),\n",
      "   midi.NoteOnEvent(tick=0, channel=5, data=[74, 80]),\n",
      "   midi.NoteOffEvent(tick=96, channel=5, data=[74, 0]),\n",
      "   midi.NoteOnEvent(tick=0, channel=5, data=[73, 80]),\n",
      "   midi.NoteOffEvent(tick=96, channel=5, data=[73, 0]),\n",
      "   midi.NoteOnEvent(tick=0, channel=5, data=[76, 80]),\n",
      "   midi.NoteOffEvent(tick=96, channel=5, data=[76, 0]),\n",
      "   midi.NoteOnEvent(tick=0, channel=5, data=[74, 80]),\n",
      "   midi.NoteOffEvent(tick=96, channel=5, data=[74, 0]),\n",
      "   midi.NoteOnEvent(tick=0, channel=5, data=[73, 80]),\n",
      "   midi.NoteOffEvent(tick=96, channel=5, data=[73, 0]),\n",
      "   midi.NoteOnEvent(tick=0, channel=5, data=[71, 80]),\n",
      "   midi.NoteOffEvent(tick=96, channel=5, data=[71, 0]),\n",
      "   midi.NoteOnEvent(tick=0, channel=5, data=[73, 80]),\n",
      "   midi.NoteOffEvent(tick=192, channel=5, data=[73, 0]),\n",
      "   midi.NoteOnEvent(tick=0, channel=5, data=[70, 80]),\n",
      "   midi.NoteOffEvent(tick=192, channel=5, data=[70, 0]),\n",
      "   midi.NoteOnEvent(tick=0, channel=5, data=[71, 80]),\n",
      "   midi.NoteOffEvent(tick=768, channel=5, data=[71, 0]),\n",
      "   midi.NoteOnEvent(tick=12288, channel=5, data=[74, 80]),\n",
      "   midi.NoteOffEvent(tick=192, channel=5, data=[74, 0]),\n",
      "   midi.NoteOnEvent(tick=0, channel=5, data=[74, 80]),\n",
      "   midi.NoteOffEvent(tick=384, channel=5, data=[74, 0]),\n",
      "   midi.NoteOnEvent(tick=0, channel=5, data=[74, 80]),\n",
      "   midi.NoteOffEvent(tick=384, channel=5, data=[74, 0]),\n",
      "   midi.NoteOnEvent(tick=0, channel=5, data=[74, 80]),\n",
      "   midi.NoteOffEvent(tick=384, channel=5, data=[74, 0]),\n",
      "   midi.NoteOnEvent(tick=0, channel=5, data=[74, 80]),\n",
      "   midi.NoteOffEvent(tick=288, channel=5, data=[74, 0]),\n",
      "   midi.NoteOnEvent(tick=0, channel=5, data=[79, 80]),\n",
      "   midi.NoteOffEvent(tick=96, channel=5, data=[79, 0]),\n",
      "   midi.NoteOnEvent(tick=0, channel=5, data=[78, 80]),\n",
      "   midi.NoteOffEvent(tick=96, channel=5, data=[78, 0]),\n",
      "   midi.NoteOnEvent(tick=0, channel=5, data=[76, 80]),\n",
      "   midi.NoteOffEvent(tick=96, channel=5, data=[76, 0]),\n",
      "   midi.NoteOnEvent(tick=0, channel=5, data=[74, 80]),\n",
      "   midi.NoteOffEvent(tick=192, channel=5, data=[74, 0]),\n",
      "   midi.NoteOnEvent(tick=0, channel=5, data=[72, 80]),\n",
      "   midi.NoteOffEvent(tick=192, channel=5, data=[72, 0]),\n",
      "   midi.NoteOnEvent(tick=0, channel=5, data=[71, 80]),\n",
      "   midi.NoteOffEvent(tick=192, channel=5, data=[71, 0]),\n",
      "   midi.NoteOnEvent(tick=0, channel=5, data=[69, 80]),\n",
      "   midi.NoteOffEvent(tick=96, channel=5, data=[69, 0]),\n",
      "   midi.NoteOnEvent(tick=0, channel=5, data=[71, 80]),\n",
      "   midi.NoteOffEvent(tick=96, channel=5, data=[71, 0]),\n",
      "   midi.NoteOnEvent(tick=0, channel=5, data=[67, 80]),\n",
      "   midi.NoteOffEvent(tick=384, channel=5, data=[67, 0]),\n",
      "   midi.NoteOnEvent(tick=384, channel=5, data=[76, 80]),\n",
      "   midi.NoteOffEvent(tick=384, channel=5, data=[76, 0]),\n",
      "   midi.NoteOnEvent(tick=192, channel=5, data=[75, 80]),\n",
      "   midi.NoteOffEvent(tick=192, channel=5, data=[75, 0]),\n",
      "   midi.NoteOnEvent(tick=0, channel=5, data=[78, 80]),\n",
      "   midi.NoteOffEvent(tick=192, channel=5, data=[78, 0]),\n",
      "   midi.NoteOnEvent(tick=0, channel=5, data=[71, 80]),\n",
      "   midi.NoteOffEvent(tick=384, channel=5, data=[71, 0]),\n",
      "   midi.NoteOnEvent(tick=0, channel=5, data=[76, 80]),\n",
      "   midi.NoteOffEvent(tick=192, channel=5, data=[76, 0]),\n",
      "   midi.NoteOnEvent(tick=0, channel=5, data=[76, 80]),\n",
      "   midi.NoteOffEvent(tick=192, channel=5, data=[76, 0]),\n",
      "   midi.NoteOnEvent(tick=0, channel=5, data=[75, 80]),\n",
      "   midi.NoteOffEvent(tick=192, channel=5, data=[75, 0]),\n",
      "   midi.NoteOnEvent(tick=0, channel=5, data=[76, 80]),\n",
      "   midi.NoteOffEvent(tick=480, channel=5, data=[76, 0]),\n",
      "   midi.NoteOnEvent(tick=0, channel=5, data=[71, 80]),\n",
      "   midi.NoteOffEvent(tick=96, channel=5, data=[71, 0]),\n",
      "   midi.NoteOnEvent(tick=0, channel=5, data=[69, 80]),\n",
      "   midi.NoteOffEvent(tick=96, channel=5, data=[69, 0]),\n",
      "   midi.NoteOnEvent(tick=0, channel=5, data=[71, 80]),\n",
      "   midi.NoteOffEvent(tick=96, channel=5, data=[71, 0]),\n",
      "   midi.NoteOnEvent(tick=0, channel=5, data=[73, 80]),\n",
      "   midi.NoteOffEvent(tick=96, channel=5, data=[73, 0]),\n",
      "   midi.NoteOnEvent(tick=0, channel=5, data=[74, 80]),\n",
      "   midi.NoteOffEvent(tick=96, channel=5, data=[74, 0]),\n",
      "   midi.NoteOnEvent(tick=0, channel=5, data=[76, 80]),\n",
      "   midi.NoteOffEvent(tick=96, channel=5, data=[76, 0]),\n",
      "   midi.NoteOnEvent(tick=96, channel=5, data=[76, 80]),\n",
      "   midi.NoteOffEvent(tick=96, channel=5, data=[76, 0]),\n",
      "   midi.NoteOnEvent(tick=96, channel=5, data=[73, 80]),\n",
      "   midi.NoteOffEvent(tick=96, channel=5, data=[73, 0]),\n",
      "   midi.NoteOnEvent(tick=96, channel=5, data=[69, 80]),\n",
      "   midi.NoteOffEvent(tick=480, channel=5, data=[69, 0]),\n",
      "   midi.NoteOnEvent(tick=0, channel=5, data=[73, 80]),\n",
      "   midi.NoteOffEvent(tick=96, channel=5, data=[73, 0]),\n",
      "   midi.NoteOnEvent(tick=0, channel=5, data=[71, 80]),\n",
      "   midi.NoteOffEvent(tick=96, channel=5, data=[71, 0]),\n",
      "   midi.NoteOnEvent(tick=0, channel=5, data=[69, 80]),\n",
      "   midi.NoteOffEvent(tick=96, channel=5, data=[69, 0]),\n",
      "   midi.NoteOnEvent(tick=0, channel=5, data=[71, 80]),\n",
      "   midi.NoteOffEvent(tick=96, channel=5, data=[71, 0]),\n",
      "   midi.NoteOnEvent(tick=0, channel=5, data=[73, 80]),\n",
      "   midi.NoteOffEvent(tick=96, channel=5, data=[73, 0]),\n",
      "   midi.NoteOnEvent(tick=0, channel=5, data=[74, 80]),\n",
      "   midi.NoteOffEvent(tick=96, channel=5, data=[74, 0]),\n",
      "   midi.NoteOnEvent(tick=96, channel=5, data=[74, 80]),\n",
      "   midi.NoteOffEvent(tick=96, channel=5, data=[74, 0]),\n",
      "   midi.NoteOnEvent(tick=96, channel=5, data=[71, 80]),\n",
      "   midi.NoteOffEvent(tick=96, channel=5, data=[71, 0]),\n",
      "   midi.NoteOnEvent(tick=96, channel=5, data=[77, 80]),\n",
      "   midi.NoteOffEvent(tick=192, channel=5, data=[77, 0]),\n",
      "   midi.NoteOnEvent(tick=0, channel=5, data=[73, 80]),\n",
      "   midi.NoteOffEvent(tick=192, channel=5, data=[73, 0]),\n",
      "   midi.NoteOnEvent(tick=0, channel=5, data=[80, 80]),\n",
      "   midi.NoteOffEvent(tick=384, channel=5, data=[80, 0]),\n",
      "   midi.NoteOnEvent(tick=192, channel=5, data=[73, 80]),\n",
      "   midi.NoteOffEvent(tick=192, channel=5, data=[73, 0]),\n",
      "   midi.NoteOnEvent(tick=0, channel=5, data=[78, 80]),\n",
      "   midi.NoteOffEvent(tick=192, channel=5, data=[78, 0]),\n",
      "   midi.NoteOnEvent(tick=0, channel=5, data=[76, 80]),\n",
      "   midi.NoteOffEvent(tick=192, channel=5, data=[76, 0]),\n",
      "   midi.NoteOnEvent(tick=0, channel=5, data=[74, 80]),\n",
      "   midi.NoteOffEvent(tick=96, channel=5, data=[74, 0]),\n",
      "   midi.NoteOnEvent(tick=0, channel=5, data=[73, 80]),\n",
      "   midi.NoteOffEvent(tick=96, channel=5, data=[73, 0]),\n",
      "   midi.NoteOnEvent(tick=0, channel=5, data=[71, 80]),\n",
      "   midi.NoteOffEvent(tick=96, channel=5, data=[71, 0]),\n",
      "   midi.NoteOnEvent(tick=0, channel=5, data=[69, 80]),\n",
      "   midi.NoteOffEvent(tick=96, channel=5, data=[69, 0]),\n",
      "   midi.NoteOnEvent(tick=0, channel=5, data=[71, 80]),\n",
      "   midi.NoteOffEvent(tick=192, channel=5, data=[71, 0]),\n",
      "   midi.NoteOnEvent(tick=0, channel=5, data=[71, 80]),\n",
      "   midi.NoteOffEvent(tick=192, channel=5, data=[71, 0]),\n",
      "   midi.NoteOnEvent(tick=0, channel=5, data=[71, 80]),\n",
      "   midi.NoteOffEvent(tick=192, channel=5, data=[71, 0]),\n",
      "   midi.NoteOnEvent(tick=0, channel=5, data=[74, 80]),\n",
      "   midi.NoteOffEvent(tick=192, channel=5, data=[74, 0]),\n",
      "   midi.NoteOnEvent(tick=0, channel=5, data=[73, 80]),\n",
      "   midi.NoteOffEvent(tick=192, channel=5, data=[73, 0]),\n",
      "   midi.NoteOnEvent(tick=0, channel=5, data=[71, 80]),\n",
      "   midi.NoteOffEvent(tick=192, channel=5, data=[71, 0]),\n",
      "   midi.NoteOnEvent(tick=0, channel=5, data=[69, 80]),\n",
      "   midi.NoteOffEvent(tick=384, channel=5, data=[69, 0]),\n",
      "   midi.NoteOnEvent(tick=0, channel=5, data=[68, 80]),\n",
      "   midi.NoteOffEvent(tick=384, channel=5, data=[68, 0]),\n",
      "   midi.NoteOnEvent(tick=0, channel=5, data=[66, 80]),\n",
      "   midi.NoteOffEvent(tick=384, channel=5, data=[66, 0]),\n",
      "   midi.NoteOnEvent(tick=3456, channel=5, data=[74, 80]),\n",
      "   midi.NoteOffEvent(tick=384, channel=5, data=[74, 0]),\n",
      "   midi.NoteOnEvent(tick=0, channel=5, data=[69, 80]),\n",
      "   midi.NoteOffEvent(tick=384, channel=5, data=[69, 0]),\n",
      "   midi.NoteOnEvent(tick=0, channel=5, data=[66, 80]),\n",
      "   midi.NoteOffEvent(tick=512, channel=5, data=[66, 0]),\n",
      "   midi.NoteOnEvent(tick=256, channel=5, data=[72, 80]),\n",
      "   midi.NoteOffEvent(tick=192, channel=5, data=[72, 0]),\n",
      "   midi.NoteOnEvent(tick=0, channel=5, data=[71, 80]),\n",
      "   midi.NoteOffEvent(tick=192, channel=5, data=[71, 0]),\n",
      "   midi.NoteOnEvent(tick=0, channel=5, data=[72, 80]),\n",
      "   midi.NoteOffEvent(tick=192, channel=5, data=[72, 0]),\n",
      "   midi.NoteOnEvent(tick=0, channel=5, data=[69, 80]),\n",
      "   midi.NoteOffEvent(tick=192, channel=5, data=[69, 0]),\n",
      "   midi.NoteOnEvent(tick=0, channel=5, data=[71, 80]),\n",
      "   midi.NoteOffEvent(tick=192, channel=5, data=[71, 0]),\n",
      "   midi.NoteOnEvent(tick=0, channel=5, data=[69, 80]),\n",
      "   midi.NoteOffEvent(tick=192, channel=5, data=[69, 0]),\n",
      "   midi.NoteOnEvent(tick=0, channel=5, data=[71, 80]),\n",
      "   midi.NoteOffEvent(tick=384, channel=5, data=[71, 0]),\n",
      "   midi.NoteOnEvent(tick=0, channel=5, data=[76, 80]),\n",
      "   midi.NoteOffEvent(tick=96, channel=5, data=[76, 0]),\n",
      "   midi.NoteOnEvent(tick=0, channel=5, data=[78, 80]),\n",
      "   midi.NoteOffEvent(tick=96, channel=5, data=[78, 0]),\n",
      "   midi.NoteOnEvent(tick=0, channel=5, data=[79, 80]),\n",
      "   midi.NoteOffEvent(tick=96, channel=5, data=[79, 0]),\n",
      "   midi.NoteOnEvent(tick=96, channel=5, data=[79, 80]),\n",
      "   midi.NoteOffEvent(tick=96, channel=5, data=[79, 0]),\n",
      "   midi.NoteOnEvent(tick=96, channel=5, data=[76, 80]),\n",
      "   midi.NoteOffEvent(tick=96, channel=5, data=[76, 0]),\n",
      "   midi.NoteOnEvent(tick=96, channel=5, data=[73, 80]),\n",
      "   midi.NoteOffEvent(tick=512, channel=5, data=[73, 0]),\n",
      "   midi.NoteOnEvent(tick=64, channel=5, data=[69, 80]),\n",
      "   midi.NoteOffEvent(tick=192, channel=5, data=[69, 0]),\n",
      "   midi.NoteOnEvent(tick=0, channel=5, data=[74, 80]),\n",
      "   midi.NoteOffEvent(tick=48, channel=5, data=[74, 0]),\n",
      "   midi.NoteOnEvent(tick=0, channel=5, data=[76, 80]),\n",
      "   midi.NoteOffEvent(tick=48, channel=5, data=[76, 0]),\n",
      "   midi.NoteOnEvent(tick=0, channel=5, data=[78, 80]),\n",
      "   midi.NoteOffEvent(tick=256, channel=5, data=[78, 0]),\n",
      "   midi.NoteOnEvent(tick=32, channel=5, data=[76, 80]),\n",
      "   midi.NoteOffEvent(tick=48, channel=5, data=[76, 0]),\n",
      "   midi.NoteOnEvent(tick=0, channel=5, data=[78, 80]),\n",
      "   midi.NoteOffEvent(tick=48, channel=5, data=[78, 0]),\n",
      "   midi.NoteOnEvent(tick=0, channel=5, data=[79, 80]),\n",
      "   midi.NoteOffEvent(tick=256, channel=5, data=[79, 0]),\n",
      "   midi.NoteOnEvent(tick=32, channel=5, data=[78, 80]),\n",
      "   midi.NoteOffEvent(tick=192, channel=5, data=[78, 0]),\n",
      "   midi.NoteOnEvent(tick=0, channel=5, data=[76, 80]),\n",
      "   midi.NoteOffEvent(tick=192, channel=5, data=[76, 0]),\n",
      "   midi.NoteOnEvent(tick=0, channel=5, data=[74, 80]),\n",
      "   midi.NoteOffEvent(tick=384, channel=5, data=[74, 0]),\n",
      "   midi.NoteOnEvent(tick=0, channel=5, data=[74, 80]),\n",
      "   midi.NoteOffEvent(tick=192, channel=5, data=[74, 0]),\n",
      "   midi.NoteOnEvent(tick=0, channel=5, data=[73, 80]),\n",
      "   midi.NoteOffEvent(tick=96, channel=5, data=[73, 0]),\n",
      "   midi.NoteOnEvent(tick=0, channel=5, data=[71, 80]),\n",
      "   midi.NoteOffEvent(tick=96, channel=5, data=[71, 0]),\n",
      "   midi.NoteOnEvent(tick=0, channel=5, data=[69, 80]),\n",
      "   midi.NoteOffEvent(tick=96, channel=5, data=[69, 0]),\n",
      "   midi.NoteOnEvent(tick=0, channel=5, data=[67, 80]),\n",
      "   midi.NoteOffEvent(tick=96, channel=5, data=[67, 0]),\n",
      "   midi.NoteOnEvent(tick=0, channel=5, data=[66, 80]),\n",
      "   midi.NoteOffEvent(tick=96, channel=5, data=[66, 0]),\n",
      "   midi.NoteOnEvent(tick=0, channel=5, data=[64, 80]),\n",
      "   midi.NoteOffEvent(tick=96, channel=5, data=[64, 0]),\n",
      "   midi.NoteOnEvent(tick=0, channel=5, data=[62, 80]),\n",
      "   midi.NoteOffEvent(tick=192, channel=5, data=[62, 0]),\n",
      "   midi.NoteOnEvent(tick=0, channel=5, data=[69, 80]),\n",
      "   midi.NoteOffEvent(tick=192, channel=5, data=[69, 0]),\n",
      "   midi.NoteOnEvent(tick=0, channel=5, data=[78, 80]),\n",
      "   midi.NoteOffEvent(tick=576, channel=5, data=[78, 0]),\n",
      "   midi.NoteOnEvent(tick=0, channel=5, data=[76, 80]),\n",
      "   midi.NoteOffEvent(tick=96, channel=5, data=[76, 0]),\n",
      "   midi.NoteOnEvent(tick=0, channel=5, data=[74, 80]),\n",
      "   midi.NoteOffEvent(tick=96, channel=5, data=[74, 0]),\n",
      "   midi.NoteOnEvent(tick=0, channel=5, data=[78, 80]),\n",
      "   midi.NoteOffEvent(tick=96, channel=5, data=[78, 0]),\n",
      "   midi.NoteOnEvent(tick=0, channel=5, data=[76, 80]),\n",
      "   midi.NoteOffEvent(tick=96, channel=5, data=[76, 0]),\n",
      "   midi.NoteOnEvent(tick=0, channel=5, data=[74, 80]),\n",
      "   midi.NoteOffEvent(tick=96, channel=5, data=[74, 0]),\n",
      "   midi.NoteOnEvent(tick=0, channel=5, data=[73, 80]),\n",
      "   midi.NoteOffEvent(tick=96, channel=5, data=[73, 0]),\n",
      "   midi.NoteOnEvent(tick=0, channel=5, data=[74, 80]),\n",
      "   midi.NoteOffEvent(tick=384, channel=5, data=[74, 0]),\n",
      "   midi.NoteOnEvent(tick=0, channel=5, data=[62, 80]),\n",
      "   midi.NoteOffEvent(tick=384, channel=5, data=[62, 0]),\n",
      "   midi.NoteOnEvent(tick=0, channel=5, data=[69, 80]),\n",
      "   midi.NoteOffEvent(tick=512, channel=5, data=[69, 0]),\n",
      "   midi.NoteOnEvent(tick=64, channel=5, data=[71, 80]),\n",
      "   midi.NoteOffEvent(tick=96, channel=5, data=[71, 0]),\n",
      "   midi.NoteOnEvent(tick=0, channel=5, data=[73, 80]),\n",
      "   midi.NoteOffEvent(tick=96, channel=5, data=[73, 0]),\n",
      "   midi.NoteOnEvent(tick=0, channel=5, data=[74, 80]),\n",
      "   midi.NoteOffEvent(tick=96, channel=5, data=[74, 0]),\n",
      "   midi.NoteOnEvent(tick=0, channel=5, data=[76, 80]),\n",
      "   midi.NoteOffEvent(tick=96, channel=5, data=[76, 0]),\n",
      "   midi.NoteOnEvent(tick=0, channel=5, data=[78, 80]),\n",
      "   midi.NoteOffEvent(tick=96, channel=5, data=[78, 0]),\n",
      "   midi.NoteOnEvent(tick=96, channel=5, data=[78, 80]),\n",
      "   midi.NoteOffEvent(tick=96, channel=5, data=[78, 0]),\n",
      "   midi.NoteOnEvent(tick=96, channel=5, data=[74, 80]),\n",
      "   midi.NoteOffEvent(tick=96, channel=5, data=[74, 0]),\n",
      "   midi.NoteOnEvent(tick=96, channel=5, data=[79, 80]),\n",
      "   midi.NoteOffEvent(tick=192, channel=5, data=[79, 0]),\n",
      "   midi.NoteOnEvent(tick=0, channel=5, data=[78, 80]),\n",
      "   midi.NoteOffEvent(tick=192, channel=5, data=[78, 0]),\n",
      "   midi.NoteOnEvent(tick=0, channel=5, data=[76, 80]),\n",
      "   midi.NoteOffEvent(tick=192, channel=5, data=[76, 0]),\n",
      "   midi.NoteOnEvent(tick=0, channel=5, data=[74, 80]),\n",
      "   midi.NoteOffEvent(tick=192, channel=5, data=[74, 0]),\n",
      "   midi.NoteOnEvent(tick=0, channel=5, data=[73, 80]),\n",
      "   midi.NoteOffEvent(tick=192, channel=5, data=[73, 0]),\n",
      "   midi.NoteOnEvent(tick=0, channel=5, data=[71, 80]),\n",
      "   midi.NoteOffEvent(tick=192, channel=5, data=[71, 0]),\n",
      "   midi.NoteOnEvent(tick=0, channel=5, data=[69, 80]),\n",
      "   midi.NoteOffEvent(tick=384, channel=5, data=[69, 0]),\n",
      "   midi.NoteOnEvent(tick=768, channel=5, data=[78, 80]),\n",
      "   midi.NoteOffEvent(tick=384, channel=5, data=[78, 0]),\n",
      "   midi.NoteOnEvent(tick=0, channel=5, data=[74, 80]),\n",
      "   midi.NoteOffEvent(tick=384, channel=5, data=[74, 0]),\n",
      "   midi.NoteOnEvent(tick=0, channel=5, data=[81, 80]),\n",
      "   midi.NoteOffEvent(tick=384, channel=5, data=[81, 0]),\n",
      "   midi.NoteOnEvent(tick=192, channel=5, data=[69, 80]),\n",
      "   midi.NoteOffEvent(tick=192, channel=5, data=[69, 0]),\n",
      "   midi.NoteOnEvent(tick=0, channel=5, data=[66, 80]),\n",
      "   midi.NoteOffEvent(tick=192, channel=5, data=[66, 0]),\n",
      "   midi.NoteOnEvent(tick=0, channel=5, data=[67, 80]),\n",
      "   midi.NoteOffEvent(tick=192, channel=5, data=[67, 0]),\n",
      "   midi.NoteOnEvent(tick=0, channel=5, data=[69, 80]),\n",
      "   midi.NoteOffEvent(tick=192, channel=5, data=[69, 0]),\n",
      "   midi.NoteOnEvent(tick=0, channel=5, data=[67, 80]),\n",
      "   midi.NoteOffEvent(tick=96, channel=5, data=[67, 0]),\n",
      "   midi.NoteOnEvent(tick=0, channel=5, data=[66, 80]),\n",
      "   midi.NoteOffEvent(tick=96, channel=5, data=[66, 0]),\n",
      "   midi.NoteOnEvent(tick=0, channel=5, data=[71, 80]),\n",
      "   midi.NoteOffEvent(tick=384, channel=5, data=[71, 0]),\n",
      "   midi.NoteOnEvent(tick=0, channel=5, data=[71, 80]),\n",
      "   midi.NoteOffEvent(tick=384, channel=5, data=[71, 0]),\n",
      "   midi.NoteOnEvent(tick=384, channel=5, data=[76, 80]),\n",
      "   midi.NoteOffEvent(tick=576, channel=5, data=[76, 0]),\n",
      "   midi.NoteOnEvent(tick=0, channel=5, data=[69, 80]),\n",
      "   midi.NoteOffEvent(tick=192, channel=5, data=[69, 0]),\n",
      "   midi.NoteOnEvent(tick=0, channel=5, data=[69, 80]),\n",
      "   midi.NoteOffEvent(tick=192, channel=5, data=[69, 0]),\n",
      "   midi.NoteOnEvent(tick=0, channel=5, data=[71, 80]),\n",
      "   midi.NoteOffEvent(tick=96, channel=5, data=[71, 0]),\n",
      "   midi.NoteOnEvent(tick=0, channel=5, data=[73, 80]),\n",
      "   midi.NoteOffEvent(tick=96, channel=5, data=[73, 0]),\n",
      "   midi.NoteOnEvent(tick=0, channel=5, data=[74, 80]),\n",
      "   midi.NoteOffEvent(tick=192, channel=5, data=[74, 0]),\n",
      "   midi.NoteOnEvent(tick=0, channel=5, data=[62, 80]),\n",
      "   midi.NoteOffEvent(tick=192, channel=5, data=[62, 0]),\n",
      "   midi.NoteOnEvent(tick=0, channel=5, data=[74, 80]),\n",
      "   midi.NoteOffEvent(tick=576, channel=5, data=[74, 0]),\n",
      "   midi.NoteOnEvent(tick=0, channel=5, data=[71, 80]),\n",
      "   midi.NoteOffEvent(tick=192, channel=5, data=[71, 0]),\n",
      "   midi.NoteOnEvent(tick=0, channel=5, data=[73, 80]),\n",
      "   midi.NoteOffEvent(tick=192, channel=5, data=[73, 0]),\n",
      "   midi.NoteOnEvent(tick=0, channel=5, data=[74, 80]),\n",
      "   midi.NoteOffEvent(tick=192, channel=5, data=[74, 0]),\n",
      "   midi.NoteOnEvent(tick=0, channel=5, data=[76, 80]),\n",
      "   midi.NoteOffEvent(tick=512, channel=5, data=[76, 0]),\n",
      "   midi.NoteOnEvent(tick=64, channel=5, data=[74, 80]),\n",
      "   midi.NoteOffEvent(tick=96, channel=5, data=[74, 0]),\n",
      "   midi.NoteOnEvent(tick=0, channel=5, data=[73, 80]),\n",
      "   midi.NoteOffEvent(tick=96, channel=5, data=[73, 0]),\n",
      "   midi.NoteOnEvent(tick=0, channel=5, data=[74, 80]),\n",
      "   midi.NoteOffEvent(tick=256, channel=5, data=[74, 0]),\n",
      "   midi.NoteOnEvent(tick=32, channel=5, data=[76, 80]),\n",
      "   midi.NoteOffEvent(tick=96, channel=5, data=[76, 0]),\n",
      "   midi.NoteOnEvent(tick=0, channel=5, data=[73, 80]),\n",
      "   midi.NoteOffEvent(tick=256, channel=5, data=[73, 0]),\n",
      "   midi.NoteOnEvent(tick=32, channel=5, data=[74, 80]),\n",
      "   midi.NoteOffEvent(tick=96, channel=5, data=[74, 0]),\n",
      "   midi.NoteOnEvent(tick=0, channel=5, data=[74, 80]),\n",
      "   midi.NoteOffEvent(tick=384, channel=5, data=[74, 0]),\n",
      "   midi.NoteOnEvent(tick=384, channel=5, data=[73, 80]),\n",
      "   midi.NoteOffEvent(tick=96, channel=5, data=[73, 0]),\n",
      "   midi.NoteOnEvent(tick=0, channel=5, data=[74, 80]),\n",
      "   midi.NoteOffEvent(tick=96, channel=5, data=[74, 0]),\n",
      "   midi.NoteOnEvent(tick=0, channel=5, data=[76, 80]),\n",
      "   midi.NoteOffEvent(tick=96, channel=5, data=[76, 0]),\n",
      "   midi.NoteOnEvent(tick=96, channel=5, data=[76, 80]),\n",
      "   midi.NoteOffEvent(tick=96, channel=5, data=[76, 0]),\n",
      "   midi.NoteOnEvent(tick=96, channel=5, data=[76, 80]),\n",
      "   midi.NoteOffEvent(tick=96, channel=5, data=[76, 0]),\n",
      "   midi.NoteOnEvent(tick=96, channel=5, data=[76, 80]),\n",
      "   midi.NoteOffEvent(tick=384, channel=5, data=[76, 0]),\n",
      "   midi.NoteOnEvent(tick=192, channel=5, data=[69, 80]),\n",
      "   midi.NoteOffEvent(tick=192, channel=5, data=[69, 0]),\n",
      "   midi.NoteOnEvent(tick=0, channel=5, data=[74, 80]),\n",
      "   midi.NoteOffEvent(tick=48, channel=5, data=[74, 0]),\n",
      "   midi.NoteOnEvent(tick=0, channel=5, data=[76, 80]),\n",
      "   midi.NoteOffEvent(tick=48, channel=5, data=[76, 0]),\n",
      "   midi.NoteOnEvent(tick=0, channel=5, data=[78, 80]),\n",
      "   midi.NoteOffEvent(tick=256, channel=5, data=[78, 0]),\n",
      "   midi.NoteOnEvent(tick=32, channel=5, data=[76, 80]),\n",
      "   midi.NoteOffEvent(tick=48, channel=5, data=[76, 0]),\n",
      "   midi.NoteOnEvent(tick=0, channel=5, data=[78, 80]),\n",
      "   midi.NoteOffEvent(tick=48, channel=5, data=[78, 0]),\n",
      "   midi.NoteOnEvent(tick=0, channel=5, data=[79, 80]),\n",
      "   midi.NoteOffEvent(tick=256, channel=5, data=[79, 0]),\n",
      "   midi.NoteOnEvent(tick=32, channel=5, data=[78, 80]),\n",
      "   midi.NoteOffEvent(tick=192, channel=5, data=[78, 0]),\n",
      "   midi.NoteOnEvent(tick=0, channel=5, data=[76, 80]),\n",
      "   midi.NoteOffEvent(tick=192, channel=5, data=[76, 0]),\n",
      "   midi.NoteOnEvent(tick=0, channel=5, data=[74, 80]),\n",
      "   midi.NoteOffEvent(tick=384, channel=5, data=[74, 0]),\n",
      "   midi.NoteOnEvent(tick=0, channel=5, data=[69, 80]),\n",
      "   midi.NoteOffEvent(tick=96, channel=5, data=[69, 0]),\n",
      "   midi.NoteOnEvent(tick=0, channel=5, data=[71, 80]),\n",
      "   midi.NoteOffEvent(tick=96, channel=5, data=[71, 0]),\n",
      "   midi.NoteOnEvent(tick=0, channel=5, data=[72, 80]),\n",
      "   midi.NoteOffEvent(tick=96, channel=5, data=[72, 0]),\n",
      "   midi.NoteOnEvent(tick=96, channel=5, data=[72, 80]),\n",
      "   midi.NoteOffEvent(tick=96, channel=5, data=[72, 0]),\n",
      "   midi.NoteOnEvent(tick=96, channel=5, data=[72, 80]),\n",
      "   midi.NoteOffEvent(tick=96, channel=5, data=[72, 0]),\n",
      "   midi.NoteOnEvent(tick=96, channel=5, data=[72, 80]),\n",
      "   midi.NoteOffEvent(tick=192, channel=5, data=[72, 0]),\n",
      "   midi.NoteOnEvent(tick=0, channel=5, data=[69, 80]),\n",
      "   midi.NoteOffEvent(tick=192, channel=5, data=[69, 0]),\n",
      "   midi.NoteOnEvent(tick=0, channel=5, data=[74, 80]),\n",
      "   midi.NoteOffEvent(tick=576, channel=5, data=[74, 0]),\n",
      "   midi.NoteOnEvent(tick=0, channel=5, data=[79, 80]),\n",
      "   midi.NoteOffEvent(tick=384, channel=5, data=[79, 0]),\n",
      "   midi.NoteOnEvent(tick=0, channel=5, data=[78, 80]),\n",
      "   midi.NoteOffEvent(tick=192, channel=5, data=[78, 0]),\n",
      "   midi.NoteOnEvent(tick=0, channel=5, data=[79, 80]),\n",
      "   midi.NoteOffEvent(tick=192, channel=5, data=[79, 0]),\n",
      "   midi.NoteOnEvent(tick=0, channel=5, data=[78, 80]),\n",
      "   midi.NoteOffEvent(tick=96, channel=5, data=[78, 0]),\n",
      "   midi.NoteOnEvent(tick=0, channel=5, data=[76, 80]),\n",
      "   midi.NoteOffEvent(tick=96, channel=5, data=[76, 0]),\n",
      "   midi.NoteOnEvent(tick=0, channel=5, data=[74, 80]),\n",
      "   midi.NoteOffEvent(tick=576, channel=5, data=[74, 0]),\n",
      "   midi.NoteOnEvent(tick=0, channel=5, data=[74, 80]),\n",
      "   midi.NoteOffEvent(tick=384, channel=5, data=[74, 0]),\n",
      "   midi.NoteOnEvent(tick=0, channel=5, data=[74, 80]),\n",
      "   midi.NoteOffEvent(tick=192, channel=5, data=[74, 0]),\n",
      "   midi.NoteOnEvent(tick=0, channel=5, data=[73, 80]),\n",
      "   midi.NoteOffEvent(tick=96, channel=5, data=[73, 0]),\n",
      "   midi.NoteOnEvent(tick=0, channel=5, data=[71, 80]),\n",
      "   midi.NoteOffEvent(tick=96, channel=5, data=[71, 0]),\n",
      "   midi.NoteOnEvent(tick=0, channel=5, data=[69, 80]),\n",
      "   midi.NoteOffEvent(tick=96, channel=5, data=[69, 0]),\n",
      "   midi.NoteOnEvent(tick=0, channel=5, data=[71, 80]),\n",
      "   midi.NoteOffEvent(tick=96, channel=5, data=[71, 0]),\n",
      "   midi.NoteOnEvent(tick=0, channel=5, data=[73, 80]),\n",
      "   midi.NoteOffEvent(tick=192, channel=5, data=[73, 0]),\n",
      "   midi.NoteOnEvent(tick=0, channel=5, data=[74, 80]),\n",
      "   midi.NoteOffEvent(tick=192, channel=5, data=[74, 0]),\n",
      "   midi.NoteOnEvent(tick=0, channel=5, data=[73, 80]),\n",
      "   midi.NoteOffEvent(tick=96, channel=5, data=[73, 0]),\n",
      "   midi.NoteOnEvent(tick=0, channel=5, data=[71, 80]),\n",
      "   midi.NoteOffEvent(tick=96, channel=5, data=[71, 0]),\n",
      "   midi.NoteOnEvent(tick=0, channel=5, data=[73, 80]),\n",
      "   midi.NoteOffEvent(tick=96, channel=5, data=[73, 0]),\n",
      "   midi.NoteOnEvent(tick=0, channel=5, data=[74, 80]),\n",
      "   midi.NoteOffEvent(tick=96, channel=5, data=[74, 0]),\n",
      "   midi.NoteOnEvent(tick=0, channel=5, data=[76, 80]),\n",
      "   midi.NoteOffEvent(tick=192, channel=5, data=[76, 0]),\n",
      "   midi.NoteOnEvent(tick=0, channel=5, data=[78, 80]),\n",
      "   midi.NoteOffEvent(tick=192, channel=5, data=[78, 0]),\n",
      "   midi.NoteOnEvent(tick=0, channel=5, data=[76, 80]),\n",
      "   midi.NoteOffEvent(tick=96, channel=5, data=[76, 0]),\n",
      "   midi.NoteOnEvent(tick=0, channel=5, data=[74, 80]),\n",
      "   midi.NoteOffEvent(tick=96, channel=5, data=[74, 0]),\n",
      "   midi.NoteOnEvent(tick=0, channel=5, data=[73, 80]),\n",
      "   midi.NoteOffEvent(tick=96, channel=5, data=[73, 0]),\n",
      "   midi.NoteOnEvent(tick=0, channel=5, data=[74, 80]),\n",
      "   midi.NoteOffEvent(tick=96, channel=5, data=[74, 0]),\n",
      "   midi.NoteOnEvent(tick=0, channel=5, data=[76, 80]),\n",
      "   midi.NoteOffEvent(tick=96, channel=5, data=[76, 0]),\n",
      "   midi.NoteOnEvent(tick=0, channel=5, data=[79, 80]),\n",
      "   midi.NoteOffEvent(tick=96, channel=5, data=[79, 0]),\n",
      "   midi.NoteOnEvent(tick=0, channel=5, data=[78, 80]),\n",
      "   midi.NoteOffEvent(tick=96, channel=5, data=[78, 0]),\n",
      "   midi.NoteOnEvent(tick=0, channel=5, data=[76, 80]),\n",
      "   midi.NoteOffEvent(tick=96, channel=5, data=[76, 0]),\n",
      "   midi.NoteOnEvent(tick=0, channel=5, data=[74, 80]),\n",
      "   midi.NoteOffEvent(tick=96, channel=5, data=[74, 0]),\n",
      "   midi.NoteOnEvent(tick=0, channel=5, data=[76, 80]),\n",
      "   midi.NoteOffEvent(tick=96, channel=5, data=[76, 0]),\n",
      "   midi.NoteOnEvent(tick=0, channel=5, data=[78, 80]),\n",
      "   midi.NoteOffEvent(tick=384, channel=5, data=[78, 0]),\n",
      "   midi.NoteOnEvent(tick=0, channel=5, data=[79, 80]),\n",
      "   midi.NoteOffEvent(tick=192, channel=5, data=[79, 0]),\n",
      "   midi.NoteOnEvent(tick=0, channel=5, data=[78, 80]),\n",
      "   midi.NoteOffEvent(tick=96, channel=5, data=[78, 0]),\n",
      "   midi.NoteOnEvent(tick=0, channel=5, data=[76, 80]),\n",
      "   midi.NoteOffEvent(tick=96, channel=5, data=[76, 0]),\n",
      "   midi.NoteOnEvent(tick=0, channel=5, data=[78, 80]),\n",
      "   midi.NoteOffEvent(tick=96, channel=5, data=[78, 0]),\n",
      "   midi.NoteOnEvent(tick=0, channel=5, data=[79, 80]),\n",
      "   midi.NoteOffEvent(tick=96, channel=5, data=[79, 0]),\n",
      "   midi.NoteOnEvent(tick=0, channel=5, data=[81, 80]),\n",
      "   midi.NoteOffEvent(tick=192, channel=5, data=[81, 0]),\n",
      "   midi.NoteOnEvent(tick=0, channel=5, data=[74, 80]),\n",
      "   midi.NoteOffEvent(tick=192, channel=5, data=[74, 0]),\n",
      "   midi.NoteOnEvent(tick=0, channel=5, data=[76, 80]),\n",
      "   midi.NoteOffEvent(tick=384, channel=5, data=[76, 0]),\n",
      "   midi.NoteOnEvent(tick=0, channel=5, data=[73, 80]),\n",
      "   midi.NoteOffEvent(tick=384, channel=5, data=[73, 0]),\n",
      "   midi.NoteOnEvent(tick=0, channel=5, data=[74, 80]),\n",
      "   midi.NoteOffEvent(tick=384, channel=5, data=[74, 0]),\n",
      "   midi.EndOfTrackEvent(tick=0, data=[])]),\n",
      " midi.Track(\\\n",
      "  [midi.TrackNameEvent(tick=0, text='Alto', data=[65, 108, 116, 111]),\n",
      "   midi.ControlChangeEvent(tick=0, channel=5, data=[0, 0]),\n",
      "   midi.ProgramChangeEvent(tick=0, channel=5, data=[65]),\n",
      "   midi.ControlChangeEvent(tick=0, channel=5, data=[7, 127]),\n",
      "   midi.ControlChangeEvent(tick=0, channel=5, data=[10, 62]),\n",
      "   midi.ControlChangeEvent(tick=0, channel=5, data=[91, 127]),\n",
      "   midi.ControlChangeEvent(tick=0, channel=5, data=[93, 127]),\n",
      "   midi.KeySignatureEvent(tick=0, data=[2, 0]),\n",
      "   midi.NoteOnEvent(tick=25344, channel=5, data=[69, 80]),\n",
      "   midi.NoteOffEvent(tick=384, channel=5, data=[69, 0]),\n",
      "   midi.NoteOnEvent(tick=0, channel=5, data=[66, 80]),\n",
      "   midi.NoteOffEvent(tick=384, channel=5, data=[66, 0]),\n",
      "   midi.NoteOnEvent(tick=0, channel=5, data=[62, 80]),\n",
      "   midi.NoteOffEvent(tick=512, channel=5, data=[62, 0]),\n",
      "   midi.NoteOnEvent(tick=64, channel=5, data=[66, 80]),\n",
      "   midi.NoteOffEvent(tick=192, channel=5, data=[66, 0]),\n",
      "   midi.NoteOnEvent(tick=0, channel=5, data=[69, 80]),\n",
      "   midi.NoteOffEvent(tick=192, channel=5, data=[69, 0]),\n",
      "   midi.NoteOnEvent(tick=0, channel=5, data=[67, 80]),\n",
      "   midi.NoteOffEvent(tick=192, channel=5, data=[67, 0]),\n",
      "   midi.NoteOnEvent(tick=0, channel=5, data=[66, 80]),\n",
      "   midi.NoteOffEvent(tick=192, channel=5, data=[66, 0]),\n",
      "   midi.NoteOnEvent(tick=0, channel=5, data=[69, 80]),\n",
      "   midi.NoteOffEvent(tick=192, channel=5, data=[69, 0]),\n",
      "   midi.NoteOnEvent(tick=0, channel=5, data=[67, 80]),\n",
      "   midi.NoteOffEvent(tick=192, channel=5, data=[67, 0]),\n",
      "   midi.NoteOnEvent(tick=0, channel=5, data=[66, 80]),\n",
      "   midi.NoteOffEvent(tick=192, channel=5, data=[66, 0]),\n",
      "   midi.NoteOnEvent(tick=0, channel=5, data=[67, 80]),\n",
      "   midi.NoteOffEvent(tick=192, channel=5, data=[67, 0]),\n",
      "   midi.NoteOnEvent(tick=0, channel=5, data=[62, 80]),\n",
      "   midi.NoteOffEvent(tick=192, channel=5, data=[62, 0]),\n",
      "   midi.NoteOnEvent(tick=0, channel=5, data=[67, 80]),\n",
      "   midi.NoteOffEvent(tick=384, channel=5, data=[67, 0]),\n",
      "   midi.NoteOnEvent(tick=0, channel=5, data=[67, 80]),\n",
      "   midi.NoteOffEvent(tick=384, channel=5, data=[67, 0]),\n",
      "   midi.NoteOnEvent(tick=0, channel=5, data=[67, 80]),\n",
      "   midi.NoteOffEvent(tick=512, channel=5, data=[67, 0]),\n",
      "   midi.NoteOnEvent(tick=64, channel=5, data=[66, 80]),\n",
      "   midi.NoteOffEvent(tick=96, channel=5, data=[66, 0]),\n",
      "   midi.NoteOnEvent(tick=0, channel=5, data=[64, 80]),\n",
      "   midi.NoteOffEvent(tick=96, channel=5, data=[64, 0]),\n",
      "   midi.NoteOnEvent(tick=0, channel=5, data=[69, 80]),\n",
      "   midi.NoteOffEvent(tick=192, channel=5, data=[69, 0]),\n",
      "   midi.NoteOnEvent(tick=0, channel=5, data=[66, 80]),\n",
      "   midi.NoteOffEvent(tick=192, channel=5, data=[66, 0]),\n",
      "   midi.NoteOnEvent(tick=0, channel=5, data=[71, 80]),\n",
      "   midi.NoteOffEvent(tick=192, channel=5, data=[71, 0]),\n",
      "   midi.NoteOnEvent(tick=0, channel=5, data=[69, 80]),\n",
      "   midi.NoteOffEvent(tick=384, channel=5, data=[69, 0]),\n",
      "   midi.NoteOnEvent(tick=0, channel=5, data=[67, 80]),\n",
      "   midi.NoteOffEvent(tick=192, channel=5, data=[67, 0]),\n",
      "   midi.NoteOnEvent(tick=0, channel=5, data=[66, 80]),\n",
      "   midi.NoteOffEvent(tick=384, channel=5, data=[66, 0]),\n",
      "   midi.NoteOnEvent(tick=1536, channel=5, data=[74, 80]),\n",
      "   midi.NoteOffEvent(tick=192, channel=5, data=[74, 0]),\n",
      "   midi.NoteOnEvent(tick=0, channel=5, data=[73, 80]),\n",
      "   midi.NoteOffEvent(tick=96, channel=5, data=[73, 0]),\n",
      "   midi.NoteOnEvent(tick=0, channel=5, data=[71, 80]),\n",
      "   midi.NoteOffEvent(tick=96, channel=5, data=[71, 0]),\n",
      "   midi.NoteOnEvent(tick=0, channel=5, data=[69, 80]),\n",
      "   midi.NoteOffEvent(tick=96, channel=5, data=[69, 0]),\n",
      "   midi.NoteOnEvent(tick=0, channel=5, data=[67, 80]),\n",
      "   midi.NoteOffEvent(tick=96, channel=5, data=[67, 0]),\n",
      "   midi.NoteOnEvent(tick=0, channel=5, data=[66, 80]),\n",
      "   midi.NoteOffEvent(tick=96, channel=5, data=[66, 0]),\n",
      "   midi.NoteOnEvent(tick=0, channel=5, data=[64, 80]),\n",
      "   midi.NoteOffEvent(tick=96, channel=5, data=[64, 0]),\n",
      "   midi.NoteOnEvent(tick=0, channel=5, data=[62, 80]),\n",
      "   midi.NoteOffEvent(tick=192, channel=5, data=[62, 0]),\n",
      "   midi.NoteOnEvent(tick=0, channel=5, data=[57, 80]),\n",
      "   midi.NoteOffEvent(tick=192, channel=5, data=[57, 0]),\n",
      "   midi.NoteOnEvent(tick=0, channel=5, data=[69, 80]),\n",
      "   midi.NoteOffEvent(tick=480, channel=5, data=[69, 0]),\n",
      "   midi.NoteOnEvent(tick=0, channel=5, data=[67, 80]),\n",
      "   midi.NoteOffEvent(tick=96, channel=5, data=[67, 0]),\n",
      "   midi.NoteOnEvent(tick=0, channel=5, data=[66, 80]),\n",
      "   midi.NoteOffEvent(tick=96, channel=5, data=[66, 0]),\n",
      "   midi.NoteOnEvent(tick=0, channel=5, data=[67, 80]),\n",
      "   midi.NoteOffEvent(tick=96, channel=5, data=[67, 0]),\n",
      "   midi.NoteOnEvent(tick=0, channel=5, data=[69, 80]),\n",
      "   midi.NoteOffEvent(tick=192, channel=5, data=[69, 0]),\n",
      "   midi.NoteOnEvent(tick=0, channel=5, data=[66, 80]),\n",
      "   midi.NoteOffEvent(tick=192, channel=5, data=[66, 0]),\n",
      "   midi.NoteOnEvent(tick=0, channel=5, data=[66, 80]),\n",
      "   midi.NoteOffEvent(tick=192, channel=5, data=[66, 0]),\n",
      "   midi.NoteOnEvent(tick=0, channel=5, data=[62, 80]),\n",
      "   midi.NoteOffEvent(tick=192, channel=5, data=[62, 0]),\n",
      "   midi.NoteOnEvent(tick=0, channel=5, data=[62, 80]),\n",
      "   midi.NoteOffEvent(tick=192, channel=5, data=[62, 0]),\n",
      "   midi.NoteOnEvent(tick=0, channel=5, data=[71, 80]),\n",
      "   midi.NoteOffEvent(tick=192, channel=5, data=[71, 0]),\n",
      "   midi.NoteOnEvent(tick=0, channel=5, data=[71, 80]),\n",
      "   midi.NoteOffEvent(tick=512, channel=5, data=[71, 0]),\n",
      "   midi.NoteOnEvent(tick=64, channel=5, data=[67, 80]),\n",
      "   midi.NoteOffEvent(tick=192, channel=5, data=[67, 0]),\n",
      "   midi.NoteOnEvent(tick=0, channel=5, data=[64, 80]),\n",
      "   midi.NoteOffEvent(tick=384, channel=5, data=[64, 0]),\n",
      "   midi.NoteOnEvent(tick=0, channel=5, data=[64, 80]),\n",
      "   midi.NoteOffEvent(tick=384, channel=5, data=[64, 0]),\n",
      "   midi.NoteOnEvent(tick=1152, channel=5, data=[71, 80]),\n",
      "   midi.NoteOffEvent(tick=576, channel=5, data=[71, 0]),\n",
      "   midi.NoteOnEvent(tick=0, channel=5, data=[64, 80]),\n",
      "   midi.NoteOffEvent(tick=192, channel=5, data=[64, 0]),\n",
      "   midi.NoteOnEvent(tick=0, channel=5, data=[64, 80]),\n",
      "   midi.NoteOffEvent(tick=192, channel=5, data=[64, 0]),\n",
      "   midi.NoteOnEvent(tick=0, channel=5, data=[66, 80]),\n",
      "   midi.NoteOffEvent(tick=96, channel=5, data=[66, 0]),\n",
      "   midi.NoteOnEvent(tick=0, channel=5, data=[68, 80]),\n",
      "   midi.NoteOffEvent(tick=96, channel=5, data=[68, 0]),\n",
      "   midi.NoteOnEvent(tick=0, channel=5, data=[69, 80]),\n",
      "   midi.NoteOffEvent(tick=192, channel=5, data=[69, 0]),\n",
      "   midi.NoteOnEvent(tick=0, channel=5, data=[57, 80]),\n",
      "   midi.NoteOffEvent(tick=192, channel=5, data=[57, 0]),\n",
      "   midi.NoteOnEvent(tick=0, channel=5, data=[69, 80]),\n",
      "   midi.NoteOffEvent(tick=576, channel=5, data=[69, 0]),\n",
      "   midi.NoteOnEvent(tick=0, channel=5, data=[66, 80]),\n",
      "   midi.NoteOffEvent(tick=192, channel=5, data=[66, 0]),\n",
      "   midi.NoteOnEvent(tick=0, channel=5, data=[68, 80]),\n",
      "   midi.NoteOffEvent(tick=192, channel=5, data=[68, 0]),\n",
      "   midi.NoteOnEvent(tick=0, channel=5, data=[69, 80]),\n",
      "   midi.NoteOffEvent(tick=192, channel=5, data=[69, 0]),\n",
      "   midi.NoteOnEvent(tick=0, channel=5, data=[71, 80]),\n",
      "   midi.NoteOffEvent(tick=512, channel=5, data=[71, 0]),\n",
      "   midi.NoteOnEvent(tick=64, channel=5, data=[69, 80]),\n",
      "   midi.NoteOffEvent(tick=96, channel=5, data=[69, 0]),\n",
      "   midi.NoteOnEvent(tick=0, channel=5, data=[68, 80]),\n",
      "   midi.NoteOffEvent(tick=96, channel=5, data=[68, 0]),\n",
      "   midi.NoteOnEvent(tick=0, channel=5, data=[69, 80]),\n",
      "   midi.NoteOffEvent(tick=192, channel=5, data=[69, 0]),\n",
      "   midi.NoteOnEvent(tick=0, channel=5, data=[64, 80]),\n",
      "   midi.NoteOffEvent(tick=192, channel=5, data=[64, 0]),\n",
      "   midi.NoteOnEvent(tick=0, channel=5, data=[64, 80]),\n",
      "   midi.NoteOffEvent(tick=384, channel=5, data=[64, 0]),\n",
      "   midi.NoteOnEvent(tick=0, channel=5, data=[64, 80]),\n",
      "   midi.NoteOffEvent(tick=384, channel=5, data=[64, 0]),\n",
      "   midi.NoteOnEvent(tick=384, channel=5, data=[68, 80]),\n",
      "   midi.NoteOffEvent(tick=96, channel=5, data=[68, 0]),\n",
      "   midi.NoteOnEvent(tick=0, channel=5, data=[69, 80]),\n",
      "   midi.NoteOffEvent(tick=96, channel=5, data=[69, 0]),\n",
      "   midi.NoteOnEvent(tick=0, channel=5, data=[71, 80]),\n",
      "   midi.NoteOffEvent(tick=96, channel=5, data=[71, 0]),\n",
      "   midi.NoteOnEvent(tick=96, channel=5, data=[71, 80]),\n",
      "   midi.NoteOffEvent(tick=96, channel=5, data=[71, 0]),\n",
      "   midi.NoteOnEvent(tick=96, channel=5, data=[71, 80]),\n",
      "   midi.NoteOffEvent(tick=96, channel=5, data=[71, 0]),\n",
      "   midi.NoteOnEvent(tick=96, channel=5, data=[71, 80]),\n",
      "   midi.NoteOffEvent(tick=384, channel=5, data=[71, 0]),\n",
      "   midi.NoteOnEvent(tick=192, channel=5, data=[64, 80]),\n",
      "   midi.NoteOffEvent(tick=192, channel=5, data=[64, 0]),\n",
      "   midi.NoteOnEvent(tick=0, channel=5, data=[69, 80]),\n",
      "   midi.NoteOffEvent(tick=48, channel=5, data=[69, 0]),\n",
      "   midi.NoteOnEvent(tick=0, channel=5, data=[71, 80]),\n",
      "   midi.NoteOffEvent(tick=48, channel=5, data=[71, 0]),\n",
      "   midi.NoteOnEvent(tick=0, channel=5, data=[73, 80]),\n",
      "   midi.NoteOffEvent(tick=256, channel=5, data=[73, 0]),\n",
      "   midi.NoteOnEvent(tick=32, channel=5, data=[71, 80]),\n",
      "   midi.NoteOffEvent(tick=48, channel=5, data=[71, 0]),\n",
      "   midi.NoteOnEvent(tick=0, channel=5, data=[73, 80]),\n",
      "   midi.NoteOffEvent(tick=48, channel=5, data=[73, 0]),\n",
      "   midi.NoteOnEvent(tick=0, channel=5, data=[74, 80]),\n",
      "   midi.NoteOffEvent(tick=256, channel=5, data=[74, 0]),\n",
      "   midi.NoteOnEvent(tick=32, channel=5, data=[73, 80]),\n",
      "   midi.NoteOffEvent(tick=192, channel=5, data=[73, 0]),\n",
      "   midi.NoteOnEvent(tick=0, channel=5, data=[71, 80]),\n",
      "   midi.NoteOffEvent(tick=192, channel=5, data=[71, 0]),\n",
      "   midi.NoteOnEvent(tick=0, channel=5, data=[69, 80]),\n",
      "   midi.NoteOffEvent(tick=384, channel=5, data=[69, 0]),\n",
      "   midi.NoteOnEvent(tick=0, channel=5, data=[64, 80]),\n",
      "   midi.NoteOffEvent(tick=96, channel=5, data=[64, 0]),\n",
      "   midi.NoteOnEvent(tick=0, channel=5, data=[66, 80]),\n",
      "   midi.NoteOffEvent(tick=96, channel=5, data=[66, 0]),\n",
      "   midi.NoteOnEvent(tick=0, channel=5, data=[67, 80]),\n",
      "   midi.NoteOffEvent(tick=96, channel=5, data=[67, 0]),\n",
      "   midi.NoteOnEvent(tick=96, channel=5, data=[67, 80]),\n",
      "   midi.NoteOffEvent(tick=96, channel=5, data=[67, 0]),\n",
      "   midi.NoteOnEvent(tick=96, channel=5, data=[67, 80]),\n",
      "   midi.NoteOffEvent(tick=96, channel=5, data=[67, 0]),\n",
      "   midi.NoteOnEvent(tick=96, channel=5, data=[67, 80]),\n",
      "   midi.NoteOffEvent(tick=192, channel=5, data=[67, 0]),\n",
      "   midi.NoteOnEvent(tick=0, channel=5, data=[64, 80]),\n",
      "   midi.NoteOffEvent(tick=192, channel=5, data=[64, 0]),\n",
      "   midi.NoteOnEvent(tick=0, channel=5, data=[69, 80]),\n",
      "   midi.NoteOffEvent(tick=576, channel=5, data=[69, 0]),\n",
      "   midi.NoteOnEvent(tick=0, channel=5, data=[62, 80]),\n",
      "   midi.NoteOffEvent(tick=192, channel=5, data=[62, 0]),\n",
      "   midi.NoteOnEvent(tick=0, channel=5, data=[62, 80]),\n",
      "   midi.NoteOffEvent(tick=192, channel=5, data=[62, 0]),\n",
      "   midi.NoteOnEvent(tick=0, channel=5, data=[61, 80]),\n",
      "   midi.NoteOffEvent(tick=192, channel=5, data=[61, 0]),\n",
      "   midi.NoteOnEvent(tick=0, channel=5, data=[62, 80]),\n",
      "   midi.NoteOffEvent(tick=192, channel=5, data=[62, 0]),\n",
      "   midi.NoteOnEvent(tick=0, channel=5, data=[57, 80]),\n",
      "   midi.NoteOffEvent(tick=192, channel=5, data=[57, 0]),\n",
      "   midi.NoteOnEvent(tick=0, channel=5, data=[62, 80]),\n",
      "   midi.NoteOffEvent(tick=192, channel=5, data=[62, 0]),\n",
      "   midi.NoteOnEvent(tick=0, channel=5, data=[64, 80]),\n",
      "   midi.NoteOffEvent(tick=192, channel=5, data=[64, 0]),\n",
      "   midi.NoteOnEvent(tick=0, channel=5, data=[66, 80]),\n",
      "   midi.NoteOffEvent(tick=192, channel=5, data=[66, 0]),\n",
      "   midi.NoteOnEvent(tick=0, channel=5, data=[64, 80]),\n",
      "   midi.NoteOffEvent(tick=192, channel=5, data=[64, 0]),\n",
      "   midi.NoteOnEvent(tick=0, channel=5, data=[66, 80]),\n",
      "   midi.NoteOffEvent(tick=192, channel=5, data=[66, 0]),\n",
      "   midi.NoteOnEvent(tick=0, channel=5, data=[69, 80]),\n",
      "   midi.NoteOffEvent(tick=192, channel=5, data=[69, 0]),\n",
      "   midi.NoteOnEvent(tick=0, channel=5, data=[68, 80]),\n",
      "   midi.NoteOffEvent(tick=512, channel=5, data=[68, 0]),\n",
      "   midi.NoteOnEvent(tick=64, channel=5, data=[69, 80]),\n",
      "   midi.NoteOffEvent(tick=192, channel=5, data=[69, 0]),\n",
      "   midi.NoteOnEvent(tick=0, channel=5, data=[68, 80]),\n",
      "   midi.NoteOffEvent(tick=192, channel=5, data=[68, 0]),\n",
      "   midi.NoteOnEvent(tick=0, channel=5, data=[66, 80]),\n",
      "   midi.NoteOffEvent(tick=192, channel=5, data=[66, 0]),\n",
      "   midi.NoteOnEvent(tick=0, channel=5, data=[71, 80]),\n",
      "   midi.NoteOffEvent(tick=192, channel=5, data=[71, 0]),\n",
      "   midi.NoteOnEvent(tick=0, channel=5, data=[69, 80]),\n",
      "   midi.NoteOffEvent(tick=192, channel=5, data=[69, 0]),\n",
      "   midi.NoteOnEvent(tick=0, channel=5, data=[71, 80]),\n",
      "   midi.NoteOffEvent(tick=512, channel=5, data=[71, 0]),\n",
      "   midi.NoteOnEvent(tick=64, channel=5, data=[68, 80]),\n",
      "   midi.NoteOffEvent(tick=192, channel=5, data=[68, 0]),\n",
      "   midi.NoteOnEvent(tick=0, channel=5, data=[69, 80]),\n",
      "   midi.NoteOffEvent(tick=96, channel=5, data=[69, 0]),\n",
      "   midi.NoteOnEvent(tick=0, channel=5, data=[71, 80]),\n",
      "   midi.NoteOffEvent(tick=96, channel=5, data=[71, 0]),\n",
      "   midi.NoteOnEvent(tick=0, channel=5, data=[73, 80]),\n",
      "   midi.NoteOffEvent(tick=384, channel=5, data=[73, 0]),\n",
      "   midi.NoteOnEvent(tick=0, channel=5, data=[74, 80]),\n",
      "   midi.NoteOffEvent(tick=192, channel=5, data=[74, 0]),\n",
      "   midi.NoteOnEvent(tick=0, channel=5, data=[73, 80]),\n",
      "   midi.NoteOffEvent(tick=512, channel=5, data=[73, 0]),\n",
      "   midi.NoteOnEvent(tick=64, channel=5, data=[61, 80]),\n",
      "   midi.NoteOffEvent(tick=192, channel=5, data=[61, 0]),\n",
      "   midi.NoteOnEvent(tick=0, channel=5, data=[66, 80]),\n",
      "   midi.NoteOffEvent(tick=192, channel=5, data=[66, 0]),\n",
      "   midi.NoteOnEvent(tick=0, channel=5, data=[59, 80]),\n",
      "   midi.NoteOffEvent(tick=384, channel=5, data=[59, 0]),\n",
      "   midi.NoteOnEvent(tick=0, channel=5, data=[64, 80]),\n",
      "   midi.NoteOffEvent(tick=192, channel=5, data=[64, 0]),\n",
      "   midi.NoteOnEvent(tick=0, channel=5, data=[64, 80]),\n",
      "   midi.NoteOffEvent(tick=384, channel=5, data=[64, 0]),\n",
      "   midi.NoteOnEvent(tick=12672, channel=5, data=[69, 80]),\n",
      "   midi.NoteOffEvent(tick=384, channel=5, data=[69, 0]),\n",
      "   midi.NoteOnEvent(tick=384, channel=5, data=[68, 80]),\n",
      "   midi.NoteOffEvent(tick=384, channel=5, data=[68, 0]),\n",
      "   midi.NoteOnEvent(tick=192, channel=5, data=[65, 80]),\n",
      "   midi.NoteOffEvent(tick=192, channel=5, data=[65, 0]),\n",
      "   midi.NoteOnEvent(tick=0, channel=5, data=[66, 80]),\n",
      "   midi.NoteOffEvent(tick=192, channel=5, data=[66, 0]),\n",
      "   midi.NoteOnEvent(tick=0, channel=5, data=[66, 80]),\n",
      "   midi.NoteOffEvent(tick=192, channel=5, data=[66, 0]),\n",
      "   midi.NoteOnEvent(tick=0, channel=5, data=[66, 80]),\n",
      "   midi.NoteOffEvent(tick=192, channel=5, data=[66, 0]),\n",
      "   midi.NoteOnEvent(tick=0, channel=5, data=[65, 80]),\n",
      "   midi.NoteOffEvent(tick=192, channel=5, data=[65, 0]),\n",
      "   midi.NoteOnEvent(tick=0, channel=5, data=[66, 80]),\n",
      "   midi.NoteOffEvent(tick=384, channel=5, data=[66, 0]),\n",
      "   midi.NoteOnEvent(tick=0, channel=5, data=[61, 80]),\n",
      "   midi.NoteOffEvent(tick=192, channel=5, data=[61, 0]),\n",
      "   midi.NoteOnEvent(tick=576, channel=5, data=[71, 80]),\n",
      "   midi.NoteOffEvent(tick=384, channel=5, data=[71, 0]),\n",
      "   midi.NoteOnEvent(tick=192, channel=5, data=[70, 80]),\n",
      "   midi.NoteOffEvent(tick=192, channel=5, data=[70, 0]),\n",
      "   midi.NoteOnEvent(tick=0, channel=5, data=[73, 80]),\n",
      "   midi.NoteOffEvent(tick=192, channel=5, data=[73, 0]),\n",
      "   midi.NoteOnEvent(tick=0, channel=5, data=[66, 80]),\n",
      "   midi.NoteOffEvent(tick=384, channel=5, data=[66, 0]),\n",
      "   midi.NoteOnEvent(tick=0, channel=5, data=[71, 80]),\n",
      "   midi.NoteOffEvent(tick=192, channel=5, data=[71, 0]),\n",
      "   midi.NoteOnEvent(tick=0, channel=5, data=[71, 80]),\n",
      "   midi.NoteOffEvent(tick=192, channel=5, data=[71, 0]),\n",
      "   midi.NoteOnEvent(tick=0, channel=5, data=[70, 80]),\n",
      "   midi.NoteOffEvent(tick=192, channel=5, data=[70, 0]),\n",
      "   midi.NoteOnEvent(tick=0, channel=5, data=[71, 80]),\n",
      "   midi.NoteOffEvent(tick=384, channel=5, data=[71, 0]),\n",
      "   midi.NoteOnEvent(tick=0, channel=5, data=[66, 80]),\n",
      "   midi.NoteOffEvent(tick=384, channel=5, data=[66, 0]),\n",
      "   midi.NoteOnEvent(tick=384, channel=5, data=[71, 80]),\n",
      "   midi.NoteOffEvent(tick=576, channel=5, data=[71, 0]),\n",
      "   midi.NoteOnEvent(tick=0, channel=5, data=[64, 80]),\n",
      "   midi.NoteOffEvent(tick=192, channel=5, data=[64, 0]),\n",
      "   midi.NoteOnEvent(tick=0, channel=5, data=[69, 80]),\n",
      "   midi.NoteOffEvent(tick=192, channel=5, data=[69, 0]),\n",
      "   midi.NoteOnEvent(tick=0, channel=5, data=[71, 80]),\n",
      "   midi.NoteOffEvent(tick=96, channel=5, data=[71, 0]),\n",
      "   midi.NoteOnEvent(tick=0, channel=5, data=[73, 80]),\n",
      "   midi.NoteOffEvent(tick=96, channel=5, data=[73, 0]),\n",
      "   midi.NoteOnEvent(tick=0, channel=5, data=[74, 80]),\n",
      "   midi.NoteOffEvent(tick=192, channel=5, data=[74, 0]),\n",
      "   midi.NoteOnEvent(tick=0, channel=5, data=[66, 80]),\n",
      "   midi.NoteOffEvent(tick=192, channel=5, data=[66, 0]),\n",
      "   midi.NoteOnEvent(tick=0, channel=5, data=[69, 80]),\n",
      "   midi.NoteOffEvent(tick=192, channel=5, data=[69, 0]),\n",
      "   midi.NoteOnEvent(tick=0, channel=5, data=[66, 80]),\n",
      "   midi.NoteOffEvent(tick=192, channel=5, data=[66, 0]),\n",
      "   midi.NoteOnEvent(tick=0, channel=5, data=[62, 80]),\n",
      "   midi.NoteOffEvent(tick=384, channel=5, data=[62, 0]),\n",
      "   midi.NoteOnEvent(tick=192, channel=5, data=[71, 80]),\n",
      "   midi.NoteOffEvent(tick=192, channel=5, data=[71, 0]),\n",
      "   midi.NoteOnEvent(tick=0, channel=5, data=[70, 80]),\n",
      "   midi.NoteOffEvent(tick=192, channel=5, data=[70, 0]),\n",
      "   midi.NoteOnEvent(tick=0, channel=5, data=[71, 80]),\n",
      "   midi.NoteOffEvent(tick=192, channel=5, data=[71, 0]),\n",
      "   midi.NoteOnEvent(tick=0, channel=5, data=[73, 80]),\n",
      "   midi.NoteOffEvent(tick=576, channel=5, data=[73, 0]),\n",
      "   midi.NoteOnEvent(tick=0, channel=5, data=[70, 80]),\n",
      "   midi.NoteOffEvent(tick=192, channel=5, data=[70, 0]),\n",
      "   midi.NoteOnEvent(tick=0, channel=5, data=[71, 80]),\n",
      "   midi.NoteOffEvent(tick=192, channel=5, data=[71, 0]),\n",
      "   midi.NoteOnEvent(tick=0, channel=5, data=[66, 80]),\n",
      "   midi.NoteOffEvent(tick=192, channel=5, data=[66, 0]),\n",
      "   midi.NoteOnEvent(tick=0, channel=5, data=[66, 80]),\n",
      "   midi.NoteOffEvent(tick=192, channel=5, data=[66, 0]),\n",
      "   midi.NoteOnEvent(tick=0, channel=5, data=[67, 80]),\n",
      "   midi.NoteOffEvent(tick=192, channel=5, data=[67, 0]),\n",
      "   midi.NoteOnEvent(tick=0, channel=5, data=[67, 80]),\n",
      "   midi.NoteOffEvent(tick=192, channel=5, data=[67, 0]),\n",
      "   midi.NoteOnEvent(tick=0, channel=5, data=[66, 80]),\n",
      "   midi.NoteOffEvent(tick=192, channel=5, data=[66, 0]),\n",
      "   midi.NoteOnEvent(tick=0, channel=5, data=[66, 80]),\n",
      "   midi.NoteOffEvent(tick=768, channel=5, data=[66, 0]),\n",
      "   midi.NoteOnEvent(tick=12288, channel=5, data=[71, 80]),\n",
      "   midi.NoteOffEvent(tick=384, channel=5, data=[71, 0]),\n",
      "   midi.NoteOnEvent(tick=384, channel=5, data=[69, 80]),\n",
      "   midi.NoteOffEvent(tick=384, channel=5, data=[69, 0]),\n",
      "   midi.NoteOnEvent(tick=192, channel=5, data=[66, 80]),\n",
      "   midi.NoteOffEvent(tick=192, channel=5, data=[66, 0]),\n",
      "   midi.NoteOnEvent(tick=0, channel=5, data=[67, 80]),\n",
      "   midi.NoteOffEvent(tick=192, channel=5, data=[67, 0]),\n",
      "   midi.NoteOnEvent(tick=0, channel=5, data=[67, 80]),\n",
      "   midi.NoteOffEvent(tick=192, channel=5, data=[67, 0]),\n",
      "   midi.NoteOnEvent(tick=0, channel=5, data=[67, 80]),\n",
      "   midi.NoteOffEvent(tick=192, channel=5, data=[67, 0]),\n",
      "   midi.NoteOnEvent(tick=0, channel=5, data=[66, 80]),\n",
      "   midi.NoteOffEvent(tick=192, channel=5, data=[66, 0]),\n",
      "   midi.NoteOnEvent(tick=0, channel=5, data=[67, 80]),\n",
      "   midi.NoteOffEvent(tick=384, channel=5, data=[67, 0]),\n",
      "   midi.NoteOnEvent(tick=0, channel=5, data=[62, 80]),\n",
      "   midi.NoteOffEvent(tick=192, channel=5, data=[62, 0]),\n",
      "   midi.NoteOnEvent(tick=192, channel=5, data=[71, 80]),\n",
      "   midi.NoteOffEvent(tick=192, channel=5, data=[71, 0]),\n",
      "   midi.NoteOnEvent(tick=0, channel=5, data=[67, 80]),\n",
      "   midi.NoteOffEvent(tick=96, channel=5, data=[67, 0]),\n",
      "   midi.NoteOnEvent(tick=0, channel=5, data=[64, 80]),\n",
      "   midi.NoteOffEvent(tick=96, channel=5, data=[64, 0]),\n",
      "   midi.NoteOnEvent(tick=0, channel=5, data=[71, 80]),\n",
      "   midi.NoteOffEvent(tick=576, channel=5, data=[71, 0]),\n",
      "   midi.NoteOnEvent(tick=0, channel=5, data=[66, 80]),\n",
      "   midi.NoteOffEvent(tick=96, channel=5, data=[66, 0]),\n",
      "   midi.NoteOnEvent(tick=0, channel=5, data=[63, 80]),\n",
      "   midi.NoteOffEvent(tick=96, channel=5, data=[63, 0]),\n",
      "   midi.NoteOnEvent(tick=0, channel=5, data=[71, 80]),\n",
      "   midi.NoteOffEvent(tick=576, channel=5, data=[71, 0]),\n",
      "   midi.NoteOnEvent(tick=0, channel=5, data=[69, 80]),\n",
      "   midi.NoteOffEvent(tick=96, channel=5, data=[69, 0]),\n",
      "   midi.NoteOnEvent(tick=0, channel=5, data=[67, 80]),\n",
      "   midi.NoteOffEvent(tick=96, channel=5, data=[67, 0]),\n",
      "   midi.NoteOnEvent(tick=0, channel=5, data=[66, 80]),\n",
      "   midi.NoteOffEvent(tick=96, channel=5, data=[66, 0]),\n",
      "   midi.NoteOnEvent(tick=0, channel=5, data=[67, 80]),\n",
      "   midi.NoteOffEvent(tick=96, channel=5, data=[67, 0]),\n",
      "   midi.NoteOnEvent(tick=0, channel=5, data=[69, 80]),\n",
      "   midi.NoteOffEvent(tick=192, channel=5, data=[69, 0]),\n",
      "   midi.NoteOnEvent(tick=0, channel=5, data=[67, 80]),\n",
      "   midi.NoteOffEvent(tick=96, channel=5, data=[67, 0]),\n",
      "   midi.NoteOnEvent(tick=0, channel=5, data=[69, 80]),\n",
      "   midi.NoteOffEvent(tick=96, channel=5, data=[69, 0]),\n",
      "   midi.NoteOnEvent(tick=0, channel=5, data=[71, 80]),\n",
      "   midi.NoteOffEvent(tick=96, channel=5, data=[71, 0]),\n",
      "   midi.NoteOnEvent(tick=96, channel=5, data=[71, 80]),\n",
      "   midi.NoteOffEvent(tick=96, channel=5, data=[71, 0]),\n",
      "   midi.NoteOnEvent(tick=96, channel=5, data=[67, 80]),\n",
      "   midi.NoteOffEvent(tick=96, channel=5, data=[67, 0]),\n",
      "   midi.NoteOnEvent(tick=96, channel=5, data=[64, 80]),\n",
      "   midi.NoteOffEvent(tick=480, channel=5, data=[64, 0]),\n",
      "   midi.NoteOnEvent(tick=0, channel=5, data=[66, 80]),\n",
      "   midi.NoteOffEvent(tick=96, channel=5, data=[66, 0]),\n",
      "   midi.NoteOnEvent(tick=0, channel=5, data=[67, 80]),\n",
      "   midi.NoteOffEvent(tick=96, channel=5, data=[67, 0]),\n",
      "   midi.NoteOnEvent(tick=0, channel=5, data=[64, 80]),\n",
      "   midi.NoteOffEvent(tick=96, channel=5, data=[64, 0]),\n",
      "   midi.NoteOnEvent(tick=0, channel=5, data=[66, 80]),\n",
      "   midi.NoteOffEvent(tick=96, channel=5, data=[66, 0]),\n",
      "   midi.NoteOnEvent(tick=0, channel=5, data=[68, 80]),\n",
      "   midi.NoteOffEvent(tick=96, channel=5, data=[68, 0]),\n",
      "   midi.NoteOnEvent(tick=0, channel=5, data=[69, 80]),\n",
      "   midi.NoteOffEvent(tick=96, channel=5, data=[69, 0]),\n",
      "   midi.NoteOnEvent(tick=96, channel=5, data=[69, 80]),\n",
      "   midi.NoteOffEvent(tick=96, channel=5, data=[69, 0]),\n",
      "   midi.NoteOnEvent(tick=96, channel=5, data=[66, 80]),\n",
      "   midi.NoteOffEvent(tick=96, channel=5, data=[66, 0]),\n",
      "   midi.NoteOnEvent(tick=96, channel=5, data=[71, 80]),\n",
      "   midi.NoteOffEvent(tick=192, channel=5, data=[71, 0]),\n",
      "   midi.NoteOnEvent(tick=0, channel=5, data=[59, 80]),\n",
      "   midi.NoteOffEvent(tick=192, channel=5, data=[59, 0]),\n",
      "   midi.NoteOnEvent(tick=0, channel=5, data=[71, 80]),\n",
      "   midi.NoteOffEvent(tick=384, channel=5, data=[71, 0]),\n",
      "   midi.NoteOnEvent(tick=192, channel=5, data=[68, 80]),\n",
      "   midi.NoteOffEvent(tick=192, channel=5, data=[68, 0]),\n",
      "   midi.NoteOnEvent(tick=0, channel=5, data=[73, 80]),\n",
      "   midi.NoteOffEvent(tick=192, channel=5, data=[73, 0]),\n",
      "   midi.NoteOnEvent(tick=0, channel=5, data=[71, 80]),\n",
      "   midi.NoteOffEvent(tick=192, channel=5, data=[71, 0]),\n",
      "   midi.NoteOnEvent(tick=1152, channel=5, data=[69, 80]),\n",
      "   midi.NoteOffEvent(tick=4, channel=5, data=[69, 0]),\n",
      "   midi.NoteOnEvent(tick=0, channel=5, data=[66, 80]),\n",
      "   midi.NoteOffEvent(tick=192, channel=5, data=[66, 0]),\n",
      "   midi.NoteOnEvent(tick=0, channel=5, data=[65, 80]),\n",
      "   midi.NoteOffEvent(tick=384, channel=5, data=[65, 0]),\n",
      "   midi.NoteOnEvent(tick=0, channel=5, data=[66, 80]),\n",
      "   midi.NoteOffEvent(tick=384, channel=5, data=[66, 0]),\n",
      "   midi.NoteOnEvent(tick=0, channel=5, data=[66, 80]),\n",
      "   midi.NoteOffEvent(tick=384, channel=5, data=[66, 0]),\n",
      "   midi.NoteOnEvent(tick=0, channel=5, data=[65, 80]),\n",
      "   midi.NoteOffEvent(tick=384, channel=5, data=[65, 0]),\n",
      "   midi.NoteOnEvent(tick=0, channel=5, data=[61, 80]),\n",
      "   midi.NoteOffEvent(tick=384, channel=5, data=[61, 0]),\n",
      "   midi.NoteOnEvent(tick=3456, channel=5, data=[69, 80]),\n",
      "   midi.NoteOffEvent(tick=384, channel=5, data=[69, 0]),\n",
      "   midi.NoteOnEvent(tick=0, channel=5, data=[66, 80]),\n",
      "   midi.NoteOffEvent(tick=384, channel=5, data=[66, 0]),\n",
      "   midi.NoteOnEvent(tick=0, channel=5, data=[62, 80]),\n",
      "   midi.NoteOffEvent(tick=512, channel=5, data=[62, 0]),\n",
      "   midi.NoteOnEvent(tick=256, channel=5, data=[69, 80]),\n",
      "   midi.NoteOffEvent(tick=192, channel=5, data=[69, 0]),\n",
      "   midi.NoteOnEvent(tick=0, channel=5, data=[67, 80]),\n",
      "   midi.NoteOffEvent(tick=192, channel=5, data=[67, 0]),\n",
      "   midi.NoteOnEvent(tick=0, channel=5, data=[69, 80]),\n",
      "   midi.NoteOffEvent(tick=192, channel=5, data=[69, 0]),\n",
      "   midi.NoteOnEvent(tick=0, channel=5, data=[66, 80]),\n",
      "   midi.NoteOffEvent(tick=192, channel=5, data=[66, 0]),\n",
      "   midi.NoteOnEvent(tick=0, channel=5, data=[67, 80]),\n",
      "   midi.NoteOffEvent(tick=192, channel=5, data=[67, 0]),\n",
      "   midi.NoteOnEvent(tick=0, channel=5, data=[66, 80]),\n",
      "   midi.NoteOffEvent(tick=192, channel=5, data=[66, 0]),\n",
      "   midi.NoteOnEvent(tick=0, channel=5, data=[67, 80]),\n",
      "   midi.NoteOffEvent(tick=192, channel=5, data=[67, 0]),\n",
      "   midi.NoteOnEvent(tick=0, channel=5, data=[62, 80]),\n",
      "   midi.NoteOffEvent(tick=192, channel=5, data=[62, 0]),\n",
      "   midi.NoteOnEvent(tick=0, channel=5, data=[67, 80]),\n",
      "   midi.NoteOffEvent(tick=384, channel=5, data=[67, 0]),\n",
      "   midi.NoteOnEvent(tick=0, channel=5, data=[67, 80]),\n",
      "   midi.NoteOffEvent(tick=384, channel=5, data=[67, 0]),\n",
      "   midi.NoteOnEvent(tick=0, channel=5, data=[67, 80]),\n",
      "   midi.NoteOffEvent(tick=512, channel=5, data=[67, 0]),\n",
      "   midi.NoteOnEvent(tick=64, channel=5, data=[66, 80]),\n",
      "   midi.NoteOffEvent(tick=96, channel=5, data=[66, 0]),\n",
      "   midi.NoteOnEvent(tick=0, channel=5, data=[64, 80]),\n",
      "   midi.NoteOffEvent(tick=96, channel=5, data=[64, 0]),\n",
      "   midi.NoteOnEvent(tick=0, channel=5, data=[69, 80]),\n",
      "   midi.NoteOffEvent(tick=192, channel=5, data=[69, 0]),\n",
      "   midi.NoteOnEvent(tick=0, channel=5, data=[66, 80]),\n",
      "   midi.NoteOffEvent(tick=192, channel=5, data=[66, 0]),\n",
      "   midi.NoteOnEvent(tick=0, channel=5, data=[71, 80]),\n",
      "   midi.NoteOffEvent(tick=192, channel=5, data=[71, 0]),\n",
      "   midi.NoteOnEvent(tick=0, channel=5, data=[69, 80]),\n",
      "   midi.NoteOffEvent(tick=384, channel=5, data=[69, 0]),\n",
      "   midi.NoteOnEvent(tick=0, channel=5, data=[67, 80]),\n",
      "   midi.NoteOffEvent(tick=192, channel=5, data=[67, 0]),\n",
      "   midi.NoteOnEvent(tick=0, channel=5, data=[66, 80]),\n",
      "   midi.NoteOffEvent(tick=384, channel=5, data=[66, 0]),\n",
      "   midi.NoteOnEvent(tick=1536, channel=5, data=[78, 80]),\n",
      "   midi.NoteOffEvent(tick=192, channel=5, data=[78, 0]),\n",
      "   midi.NoteOnEvent(tick=0, channel=5, data=[76, 80]),\n",
      "   midi.NoteOffEvent(tick=96, channel=5, data=[76, 0]),\n",
      "   midi.NoteOnEvent(tick=0, channel=5, data=[74, 80]),\n",
      "   midi.NoteOffEvent(tick=96, channel=5, data=[74, 0]),\n",
      "   midi.NoteOnEvent(tick=0, channel=5, data=[78, 80]),\n",
      "   midi.NoteOffEvent(tick=96, channel=5, data=[78, 0]),\n",
      "   midi.NoteOnEvent(tick=0, channel=5, data=[76, 80]),\n",
      "   midi.NoteOffEvent(tick=96, channel=5, data=[76, 0]),\n",
      "   midi.NoteOnEvent(tick=0, channel=5, data=[74, 80]),\n",
      "   midi.NoteOffEvent(tick=96, channel=5, data=[74, 0]),\n",
      "   midi.NoteOnEvent(tick=0, channel=5, data=[73, 80]),\n",
      "   midi.NoteOffEvent(tick=96, channel=5, data=[73, 0]),\n",
      "   midi.NoteOnEvent(tick=0, channel=5, data=[62, 80]),\n",
      "   midi.NoteOffEvent(tick=192, channel=5, data=[62, 0]),\n",
      "   midi.NoteOnEvent(tick=0, channel=5, data=[57, 80]),\n",
      "   midi.NoteOffEvent(tick=192, channel=5, data=[57, 0]),\n",
      "   midi.NoteOnEvent(tick=0, channel=5, data=[69, 80]),\n",
      "   midi.NoteOffEvent(tick=480, channel=5, data=[69, 0]),\n",
      "   midi.NoteOnEvent(tick=0, channel=5, data=[67, 80]),\n",
      "   midi.NoteOffEvent(tick=96, channel=5, data=[67, 0]),\n",
      "   midi.NoteOnEvent(tick=0, channel=5, data=[66, 80]),\n",
      "   midi.NoteOffEvent(tick=96, channel=5, data=[66, 0]),\n",
      "   midi.NoteOnEvent(tick=0, channel=5, data=[67, 80]),\n",
      "   midi.NoteOffEvent(tick=96, channel=5, data=[67, 0]),\n",
      "   midi.NoteOnEvent(tick=0, channel=5, data=[69, 80]),\n",
      "   midi.NoteOffEvent(tick=192, channel=5, data=[69, 0]),\n",
      "   midi.NoteOnEvent(tick=0, channel=5, data=[66, 80]),\n",
      "   midi.NoteOffEvent(tick=192, channel=5, data=[66, 0]),\n",
      "   midi.NoteOnEvent(tick=0, channel=5, data=[66, 80]),\n",
      "   midi.NoteOffEvent(tick=192, channel=5, data=[66, 0]),\n",
      "   midi.NoteOnEvent(tick=0, channel=5, data=[62, 80]),\n",
      "   midi.NoteOffEvent(tick=192, channel=5, data=[62, 0]),\n",
      "   midi.NoteOnEvent(tick=0, channel=5, data=[62, 80]),\n",
      "   midi.NoteOffEvent(tick=192, channel=5, data=[62, 0]),\n",
      "   midi.NoteOnEvent(tick=0, channel=5, data=[71, 80]),\n",
      "   midi.NoteOffEvent(tick=192, channel=5, data=[71, 0]),\n",
      "   midi.NoteOnEvent(tick=0, channel=5, data=[71, 80]),\n",
      "   midi.NoteOffEvent(tick=512, channel=5, data=[71, 0]),\n",
      "   midi.NoteOnEvent(tick=64, channel=5, data=[67, 80]),\n",
      "   midi.NoteOffEvent(tick=192, channel=5, data=[67, 0]),\n",
      "   midi.NoteOnEvent(tick=0, channel=5, data=[64, 80]),\n",
      "   midi.NoteOffEvent(tick=384, channel=5, data=[64, 0]),\n",
      "   midi.NoteOnEvent(tick=0, channel=5, data=[64, 80]),\n",
      "   midi.NoteOffEvent(tick=384, channel=5, data=[64, 0]),\n",
      "   midi.NoteOnEvent(tick=0, channel=5, data=[66, 80]),\n",
      "   midi.NoteOffEvent(tick=384, channel=5, data=[66, 0]),\n",
      "   midi.NoteOnEvent(tick=0, channel=5, data=[62, 80]),\n",
      "   midi.NoteOffEvent(tick=384, channel=5, data=[62, 0]),\n",
      "   midi.NoteOnEvent(tick=0, channel=5, data=[69, 80]),\n",
      "   midi.NoteOffEvent(tick=512, channel=5, data=[69, 0]),\n",
      "   midi.NoteOnEvent(tick=64, channel=5, data=[66, 80]),\n",
      "   midi.NoteOffEvent(tick=192, channel=5, data=[66, 0]),\n",
      "   midi.NoteOnEvent(tick=0, channel=5, data=[74, 80]),\n",
      "   midi.NoteOffEvent(tick=192, channel=5, data=[74, 0]),\n",
      "   midi.NoteOnEvent(tick=0, channel=5, data=[69, 80]),\n",
      "   midi.NoteOffEvent(tick=192, channel=5, data=[69, 0]),\n",
      "   midi.NoteOnEvent(tick=0, channel=5, data=[66, 80]),\n",
      "   midi.NoteOffEvent(tick=192, channel=5, data=[66, 0]),\n",
      "   midi.NoteOnEvent(tick=0, channel=5, data=[69, 80]),\n",
      "   midi.NoteOffEvent(tick=192, channel=5, data=[69, 0]),\n",
      "   midi.NoteOnEvent(tick=0, channel=5, data=[72, 80]),\n",
      "   midi.NoteOffEvent(tick=192, channel=5, data=[72, 0]),\n",
      "   midi.NoteOnEvent(tick=0, channel=5, data=[71, 80]),\n",
      "   midi.NoteOffEvent(tick=192, channel=5, data=[71, 0]),\n",
      "   midi.NoteOnEvent(tick=0, channel=5, data=[69, 80]),\n",
      "   midi.NoteOffEvent(tick=192, channel=5, data=[69, 0]),\n",
      "   midi.NoteOnEvent(tick=0, channel=5, data=[71, 80]),\n",
      "   midi.NoteOffEvent(tick=96, channel=5, data=[71, 0]),\n",
      "   midi.NoteOnEvent(tick=0, channel=5, data=[72, 80]),\n",
      "   midi.NoteOffEvent(tick=96, channel=5, data=[72, 0]),\n",
      "   midi.NoteOnEvent(tick=384, channel=5, data=[71, 80]),\n",
      "   midi.NoteOffEvent(tick=576, channel=5, data=[71, 0]),\n",
      "   midi.NoteOnEvent(tick=0, channel=5, data=[67, 80]),\n",
      "   midi.NoteOffEvent(tick=192, channel=5, data=[67, 0]),\n",
      "   midi.NoteOnEvent(tick=0, channel=5, data=[64, 80]),\n",
      "   midi.NoteOffEvent(tick=192, channel=5, data=[64, 0]),\n",
      "   midi.NoteOnEvent(tick=0, channel=5, data=[67, 80]),\n",
      "   midi.NoteOffEvent(tick=192, channel=5, data=[67, 0]),\n",
      "   midi.NoteOnEvent(tick=0, channel=5, data=[69, 80]),\n",
      "   midi.NoteOffEvent(tick=192, channel=5, data=[69, 0]),\n",
      "   midi.NoteOnEvent(tick=0, channel=5, data=[57, 80]),\n",
      "   midi.NoteOffEvent(tick=192, channel=5, data=[57, 0]),\n",
      "   midi.NoteOnEvent(tick=0, channel=5, data=[69, 80]),\n",
      "   midi.NoteOffEvent(tick=576, channel=5, data=[69, 0]),\n",
      "   midi.NoteOnEvent(tick=0, channel=5, data=[66, 80]),\n",
      "   midi.NoteOffEvent(tick=192, channel=5, data=[66, 0]),\n",
      "   midi.NoteOnEvent(tick=0, channel=5, data=[62, 80]),\n",
      "   midi.NoteOffEvent(tick=192, channel=5, data=[62, 0]),\n",
      "   midi.NoteOnEvent(tick=0, channel=5, data=[66, 80]),\n",
      "   midi.NoteOffEvent(tick=192, channel=5, data=[66, 0]),\n",
      "   midi.NoteOnEvent(tick=0, channel=5, data=[67, 80]),\n",
      "   midi.NoteOffEvent(tick=960, channel=5, data=[67, 0]),\n",
      "   midi.NoteOnEvent(tick=0, channel=5, data=[64, 80]),\n",
      "   midi.NoteOffEvent(tick=192, channel=5, data=[64, 0]),\n",
      "   midi.NoteOnEvent(tick=0, channel=5, data=[69, 80]),\n",
      "   midi.NoteOffEvent(tick=576, channel=5, data=[69, 0]),\n",
      "   midi.NoteOnEvent(tick=0, channel=5, data=[71, 80]),\n",
      "   midi.NoteOffEvent(tick=96, channel=5, data=[71, 0]),\n",
      "   midi.NoteOnEvent(tick=0, channel=5, data=[69, 80]),\n",
      "   midi.NoteOffEvent(tick=96, channel=5, data=[69, 0]),\n",
      "   midi.NoteOnEvent(tick=0, channel=5, data=[67, 80]),\n",
      "   midi.NoteOffEvent(tick=96, channel=5, data=[67, 0]),\n",
      "   midi.NoteOnEvent(tick=0, channel=5, data=[66, 80]),\n",
      "   midi.NoteOffEvent(tick=96, channel=5, data=[66, 0]),\n",
      "   midi.NoteOnEvent(tick=0, channel=5, data=[64, 80]),\n",
      "   midi.NoteOffEvent(tick=96, channel=5, data=[64, 0]),\n",
      "   midi.NoteOnEvent(tick=0, channel=5, data=[66, 80]),\n",
      "   midi.NoteOffEvent(tick=96, channel=5, data=[66, 0]),\n",
      "   midi.NoteOnEvent(tick=0, channel=5, data=[62, 80]),\n",
      "   midi.NoteOffEvent(tick=384, channel=5, data=[62, 0]),\n",
      "   midi.NoteOnEvent(tick=384, channel=5, data=[64, 80]),\n",
      "   midi.NoteOffEvent(tick=96, channel=5, data=[64, 0]),\n",
      "   midi.NoteOnEvent(tick=0, channel=5, data=[66, 80]),\n",
      "   midi.NoteOffEvent(tick=96, channel=5, data=[66, 0]),\n",
      "   midi.NoteOnEvent(tick=0, channel=5, data=[67, 80]),\n",
      "   midi.NoteOffEvent(tick=96, channel=5, data=[67, 0]),\n",
      "   midi.NoteOnEvent(tick=96, channel=5, data=[67, 80]),\n",
      "   midi.NoteOffEvent(tick=96, channel=5, data=[67, 0]),\n",
      "   midi.NoteOnEvent(tick=96, channel=5, data=[67, 80]),\n",
      "   midi.NoteOffEvent(tick=96, channel=5, data=[67, 0]),\n",
      "   midi.NoteOnEvent(tick=96, channel=5, data=[67, 80]),\n",
      "   midi.NoteOffEvent(tick=192, channel=5, data=[67, 0]),\n",
      "   midi.NoteOnEvent(tick=0, channel=5, data=[64, 80]),\n",
      "   midi.NoteOffEvent(tick=192, channel=5, data=[64, 0]),\n",
      "   midi.NoteOnEvent(tick=0, channel=5, data=[69, 80]),\n",
      "   midi.NoteOffEvent(tick=576, channel=5, data=[69, 0]),\n",
      "   midi.NoteOnEvent(tick=0, channel=5, data=[62, 80]),\n",
      "   midi.NoteOffEvent(tick=192, channel=5, data=[62, 0]),\n",
      "   midi.NoteOnEvent(tick=0, channel=5, data=[62, 80]),\n",
      "   midi.NoteOffEvent(tick=192, channel=5, data=[62, 0]),\n",
      "   midi.NoteOnEvent(tick=0, channel=5, data=[61, 80]),\n",
      "   midi.NoteOffEvent(tick=192, channel=5, data=[61, 0]),\n",
      "   midi.NoteOnEvent(tick=0, channel=5, data=[62, 80]),\n",
      "   midi.NoteOffEvent(tick=192, channel=5, data=[62, 0]),\n",
      "   midi.NoteOnEvent(tick=0, channel=5, data=[57, 80]),\n",
      "   midi.NoteOffEvent(tick=192, channel=5, data=[57, 0]),\n",
      "   midi.NoteOnEvent(tick=0, channel=5, data=[62, 80]),\n",
      "   midi.NoteOffEvent(tick=192, channel=5, data=[62, 0]),\n",
      "   midi.NoteOnEvent(tick=0, channel=5, data=[64, 80]),\n",
      "   midi.NoteOffEvent(tick=192, channel=5, data=[64, 0]),\n",
      "   midi.NoteOnEvent(tick=0, channel=5, data=[66, 80]),\n",
      "   midi.NoteOffEvent(tick=96, channel=5, data=[66, 0]),\n",
      "   midi.NoteOnEvent(tick=0, channel=5, data=[67, 80]),\n",
      "   midi.NoteOffEvent(tick=96, channel=5, data=[67, 0]),\n",
      "   midi.NoteOnEvent(tick=0, channel=5, data=[69, 80]),\n",
      "   midi.NoteOffEvent(tick=96, channel=5, data=[69, 0]),\n",
      "   midi.NoteOnEvent(tick=96, channel=5, data=[69, 80]),\n",
      "   midi.NoteOffEvent(tick=96, channel=5, data=[69, 0]),\n",
      "   midi.NoteOnEvent(tick=96, channel=5, data=[69, 80]),\n",
      "   midi.NoteOffEvent(tick=96, channel=5, data=[69, 0]),\n",
      "   midi.NoteOnEvent(tick=96, channel=5, data=[69, 80]),\n",
      "   midi.NoteOffEvent(tick=384, channel=5, data=[69, 0]),\n",
      "   midi.NoteOnEvent(tick=192, channel=5, data=[62, 80]),\n",
      "   midi.NoteOffEvent(tick=192, channel=5, data=[62, 0]),\n",
      "   midi.NoteOnEvent(tick=0, channel=5, data=[67, 80]),\n",
      "   midi.NoteOffEvent(tick=48, channel=5, data=[67, 0]),\n",
      "   midi.NoteOnEvent(tick=0, channel=5, data=[69, 80]),\n",
      "   midi.NoteOffEvent(tick=48, channel=5, data=[69, 0]),\n",
      "   midi.NoteOnEvent(tick=0, channel=5, data=[71, 80]),\n",
      "   midi.NoteOffEvent(tick=256, channel=5, data=[71, 0]),\n",
      "   midi.NoteOnEvent(tick=32, channel=5, data=[69, 80]),\n",
      "   midi.NoteOffEvent(tick=48, channel=5, data=[69, 0]),\n",
      "   midi.NoteOnEvent(tick=0, channel=5, data=[71, 80]),\n",
      "   midi.NoteOffEvent(tick=48, channel=5, data=[71, 0]),\n",
      "   midi.NoteOnEvent(tick=0, channel=5, data=[72, 80]),\n",
      "   midi.NoteOffEvent(tick=256, channel=5, data=[72, 0]),\n",
      "   midi.NoteOnEvent(tick=32, channel=5, data=[71, 80]),\n",
      "   midi.NoteOffEvent(tick=192, channel=5, data=[71, 0]),\n",
      "   midi.NoteOnEvent(tick=0, channel=5, data=[62, 80]),\n",
      "   midi.NoteOffEvent(tick=192, channel=5, data=[62, 0]),\n",
      "   midi.NoteOnEvent(tick=0, channel=5, data=[67, 80]),\n",
      "   midi.NoteOffEvent(tick=192, channel=5, data=[67, 0]),\n",
      "   midi.NoteOnEvent(tick=0, channel=5, data=[66, 80]),\n",
      "   midi.NoteOffEvent(tick=192, channel=5, data=[66, 0]),\n",
      "   midi.NoteOnEvent(tick=0, channel=5, data=[64, 80]),\n",
      "   midi.NoteOffEvent(tick=384, channel=5, data=[64, 0]),\n",
      "   midi.NoteOnEvent(tick=0, channel=5, data=[64, 80]),\n",
      "   midi.NoteOffEvent(tick=384, channel=5, data=[64, 0]),\n",
      "   midi.NoteOnEvent(tick=0, channel=5, data=[64, 80]),\n",
      "   midi.NoteOffEvent(tick=96, channel=5, data=[64, 0]),\n",
      "   midi.NoteOnEvent(tick=0, channel=5, data=[62, 80]),\n",
      "   midi.NoteOffEvent(tick=96, channel=5, data=[62, 0]),\n",
      "   midi.NoteOnEvent(tick=0, channel=5, data=[61, 80]),\n",
      "   midi.NoteOffEvent(tick=96, channel=5, data=[61, 0]),\n",
      "   midi.NoteOnEvent(tick=0, channel=5, data=[62, 80]),\n",
      "   midi.NoteOffEvent(tick=96, channel=5, data=[62, 0]),\n",
      "   midi.NoteOnEvent(tick=0, channel=5, data=[64, 80]),\n",
      "   midi.NoteOffEvent(tick=192, channel=5, data=[64, 0]),\n",
      "   midi.NoteOnEvent(tick=0, channel=5, data=[66, 80]),\n",
      "   midi.NoteOffEvent(tick=192, channel=5, data=[66, 0]),\n",
      "   midi.NoteOnEvent(tick=0, channel=5, data=[67, 80]),\n",
      "   midi.NoteOffEvent(tick=384, channel=5, data=[67, 0]),\n",
      "   midi.NoteOnEvent(tick=0, channel=5, data=[67, 80]),\n",
      "   midi.NoteOffEvent(tick=384, channel=5, data=[67, 0]),\n",
      "   midi.NoteOnEvent(tick=0, channel=5, data=[67, 80]),\n",
      "   midi.NoteOffEvent(tick=96, channel=5, data=[67, 0]),\n",
      "   midi.NoteOnEvent(tick=0, channel=5, data=[66, 80]),\n",
      "   midi.NoteOffEvent(tick=96, channel=5, data=[66, 0]),\n",
      "   midi.NoteOnEvent(tick=0, channel=5, data=[64, 80]),\n",
      "   midi.NoteOffEvent(tick=96, channel=5, data=[64, 0]),\n",
      "   midi.NoteOnEvent(tick=0, channel=5, data=[66, 80]),\n",
      "   midi.NoteOffEvent(tick=96, channel=5, data=[66, 0]),\n",
      "   midi.NoteOnEvent(tick=0, channel=5, data=[67, 80]),\n",
      "   midi.NoteOffEvent(tick=192, channel=5, data=[67, 0]),\n",
      "   midi.NoteOnEvent(tick=0, channel=5, data=[69, 80]),\n",
      "   midi.NoteOffEvent(tick=192, channel=5, data=[69, 0]),\n",
      "   midi.NoteOnEvent(tick=0, channel=5, data=[66, 80]),\n",
      "   midi.NoteOffEvent(tick=96, channel=5, data=[66, 0]),\n",
      "   midi.NoteOnEvent(tick=0, channel=5, data=[67, 80]),\n",
      "   midi.NoteOffEvent(tick=96, channel=5, data=[67, 0]),\n",
      "   midi.NoteOnEvent(tick=0, channel=5, data=[69, 80]),\n",
      "   midi.NoteOffEvent(tick=384, channel=5, data=[69, 0]),\n",
      "   midi.NoteOnEvent(tick=0, channel=5, data=[71, 80]),\n",
      "   midi.NoteOffEvent(tick=192, channel=5, data=[71, 0]),\n",
      "   midi.NoteOnEvent(tick=0, channel=5, data=[69, 80]),\n",
      "   midi.NoteOffEvent(tick=96, channel=5, data=[69, 0]),\n",
      "   midi.NoteOnEvent(tick=0, channel=5, data=[74, 80]),\n",
      "   midi.NoteOffEvent(tick=96, channel=5, data=[74, 0]),\n",
      "   midi.NoteOnEvent(tick=0, channel=5, data=[73, 80]),\n",
      "   midi.NoteOffEvent(tick=96, channel=5, data=[73, 0]),\n",
      "   midi.NoteOnEvent(tick=0, channel=5, data=[71, 80]),\n",
      "   midi.NoteOffEvent(tick=96, channel=5, data=[71, 0]),\n",
      "   midi.NoteOnEvent(tick=0, channel=5, data=[69, 80]),\n",
      "   midi.NoteOffEvent(tick=192, channel=5, data=[69, 0]),\n",
      "   midi.NoteOnEvent(tick=0, channel=5, data=[66, 80]),\n",
      "   midi.NoteOffEvent(tick=192, channel=5, data=[66, 0]),\n",
      "   midi.NoteOnEvent(tick=0, channel=5, data=[67, 80]),\n",
      "   midi.NoteOffEvent(tick=384, channel=5, data=[67, 0]),\n",
      "   midi.NoteOnEvent(tick=0, channel=5, data=[64, 80]),\n",
      "   midi.NoteOffEvent(tick=384, channel=5, data=[64, 0]),\n",
      "   midi.NoteOnEvent(tick=0, channel=5, data=[62, 80]),\n",
      "   midi.NoteOffEvent(tick=384, channel=5, data=[62, 0]),\n",
      "   midi.EndOfTrackEvent(tick=0, data=[])]),\n",
      " midi.Track(\\\n",
      "  [midi.TrackNameEvent(tick=0, text='Tenore', data=[84, 101, 110, 111, 114, 101]),\n",
      "   midi.ControlChangeEvent(tick=0, channel=6, data=[0, 0]),\n",
      "   midi.ProgramChangeEvent(tick=0, channel=6, data=[66]),\n",
      "   midi.ControlChangeEvent(tick=0, channel=6, data=[7, 127]),\n",
      "   midi.ControlChangeEvent(tick=0, channel=6, data=[10, 64]),\n",
      "   midi.ControlChangeEvent(tick=0, channel=6, data=[91, 127]),\n",
      "   midi.KeySignatureEvent(tick=0, data=[2, 0]),\n",
      "   midi.NoteOnEvent(tick=25344, channel=6, data=[66, 80]),\n",
      "   midi.NoteOffEvent(tick=384, channel=6, data=[66, 0]),\n",
      "   midi.NoteOnEvent(tick=0, channel=6, data=[62, 80]),\n",
      "   midi.NoteOffEvent(tick=384, channel=6, data=[62, 0]),\n",
      "   midi.NoteOnEvent(tick=0, channel=6, data=[57, 80]),\n",
      "   midi.NoteOffEvent(tick=192, channel=6, data=[57, 0]),\n",
      "   midi.NoteOnEvent(tick=0, channel=6, data=[57, 80]),\n",
      "   midi.NoteOffEvent(tick=192, channel=6, data=[57, 0]),\n",
      "   midi.NoteOnEvent(tick=0, channel=6, data=[62, 80]),\n",
      "   midi.NoteOffEvent(tick=768, channel=6, data=[62, 0]),\n",
      "   midi.NoteOnEvent(tick=0, channel=6, data=[62, 80]),\n",
      "   midi.NoteOffEvent(tick=384, channel=6, data=[62, 0]),\n",
      "   midi.NoteOnEvent(tick=0, channel=6, data=[62, 80]),\n",
      "   midi.NoteOffEvent(tick=192, channel=6, data=[62, 0]),\n",
      "   midi.NoteOnEvent(tick=0, channel=6, data=[60, 80]),\n",
      "   midi.NoteOffEvent(tick=192, channel=6, data=[60, 0]),\n",
      "   midi.NoteOnEvent(tick=0, channel=6, data=[62, 80]),\n",
      "   midi.NoteOffEvent(tick=384, channel=6, data=[62, 0]),\n",
      "   midi.NoteOnEvent(tick=0, channel=6, data=[61, 80]),\n",
      "   midi.NoteOffEvent(tick=96, channel=6, data=[61, 0]),\n",
      "   midi.NoteOnEvent(tick=0, channel=6, data=[62, 80]),\n",
      "   midi.NoteOffEvent(tick=96, channel=6, data=[62, 0]),\n",
      "   midi.NoteOnEvent(tick=0, channel=6, data=[64, 80]),\n",
      "   midi.NoteOffEvent(tick=96, channel=6, data=[64, 0]),\n",
      "   midi.NoteOnEvent(tick=96, channel=6, data=[64, 80]),\n",
      "   midi.NoteOffEvent(tick=96, channel=6, data=[64, 0]),\n",
      "   midi.NoteOnEvent(tick=96, channel=6, data=[61, 80]),\n",
      "   midi.NoteOffEvent(tick=96, channel=6, data=[61, 0]),\n",
      "   midi.NoteOnEvent(tick=96, channel=6, data=[57, 80]),\n",
      "   midi.NoteOffEvent(tick=512, channel=6, data=[57, 0]),\n",
      "   midi.NoteOnEvent(tick=64, channel=6, data=[61, 80]),\n",
      "   midi.NoteOffEvent(tick=192, channel=6, data=[61, 0]),\n",
      "   midi.NoteOnEvent(tick=0, channel=6, data=[62, 80]),\n",
      "   midi.NoteOffEvent(tick=512, channel=6, data=[62, 0]),\n",
      "   midi.NoteOnEvent(tick=64, channel=6, data=[61, 80]),\n",
      "   midi.NoteOffEvent(tick=192, channel=6, data=[61, 0]),\n",
      "   midi.NoteOnEvent(tick=0, channel=6, data=[62, 80]),\n",
      "   midi.NoteOffEvent(tick=384, channel=6, data=[62, 0]),\n",
      "   midi.NoteOnEvent(tick=0, channel=6, data=[57, 80]),\n",
      "   midi.NoteOffEvent(tick=384, channel=6, data=[57, 0]),\n",
      "   midi.NoteOnEvent(tick=768, channel=6, data=[62, 80]),\n",
      "   midi.NoteOffEvent(tick=192, channel=6, data=[62, 0]),\n",
      "   midi.NoteOnEvent(tick=0, channel=6, data=[61, 80]),\n",
      "   midi.NoteOffEvent(tick=96, channel=6, data=[61, 0]),\n",
      "   midi.NoteOnEvent(tick=0, channel=6, data=[59, 80]),\n",
      "   midi.NoteOffEvent(tick=96, channel=6, data=[59, 0]),\n",
      "   midi.NoteOnEvent(tick=0, channel=6, data=[57, 80]),\n",
      "   midi.NoteOffEvent(tick=96, channel=6, data=[57, 0]),\n",
      "   midi.NoteOnEvent(tick=0, channel=6, data=[55, 80]),\n",
      "   midi.NoteOffEvent(tick=96, channel=6, data=[55, 0]),\n",
      "   midi.NoteOnEvent(tick=0, channel=6, data=[54, 80]),\n",
      "   midi.NoteOffEvent(tick=96, channel=6, data=[54, 0]),\n",
      "   midi.NoteOnEvent(tick=0, channel=6, data=[52, 80]),\n",
      "   midi.NoteOffEvent(tick=96, channel=6, data=[52, 0]),\n",
      "   midi.NoteOnEvent(tick=0, channel=6, data=[50, 80]),\n",
      "   midi.NoteOffEvent(tick=192, channel=6, data=[50, 0]),\n",
      "   midi.NoteOnEvent(tick=0, channel=6, data=[62, 80]),\n",
      "   midi.NoteOffEvent(tick=192, channel=6, data=[62, 0]),\n",
      "   midi.NoteOnEvent(tick=0, channel=6, data=[59, 80]),\n",
      "   midi.NoteOffEvent(tick=192, channel=6, data=[59, 0]),\n",
      "   midi.NoteOnEvent(tick=0, channel=6, data=[57, 80]),\n",
      "   midi.NoteOffEvent(tick=192, channel=6, data=[57, 0]),\n",
      "   midi.NoteOnEvent(tick=0, channel=6, data=[57, 80]),\n",
      "   midi.NoteOffEvent(tick=192, channel=6, data=[57, 0]),\n",
      "   midi.NoteOnEvent(tick=0, channel=6, data=[54, 80]),\n",
      "   midi.NoteOffEvent(tick=192, channel=6, data=[54, 0]),\n",
      "   midi.NoteOnEvent(tick=0, channel=6, data=[62, 80]),\n",
      "   midi.NoteOffEvent(tick=576, channel=6, data=[62, 0]),\n",
      "   midi.NoteOnEvent(tick=0, channel=6, data=[57, 80]),\n",
      "   midi.NoteOffEvent(tick=192, channel=6, data=[57, 0]),\n",
      "   midi.NoteOnEvent(tick=0, channel=6, data=[62, 80]),\n",
      "   midi.NoteOffEvent(tick=192, channel=6, data=[62, 0]),\n",
      "   midi.NoteOnEvent(tick=0, channel=6, data=[62, 80]),\n",
      "   midi.NoteOffEvent(tick=192, channel=6, data=[62, 0]),\n",
      "   midi.NoteOnEvent(tick=0, channel=6, data=[62, 80]),\n",
      "   midi.NoteOffEvent(tick=192, channel=6, data=[62, 0]),\n",
      "   midi.NoteOnEvent(tick=0, channel=6, data=[59, 80]),\n",
      "   midi.NoteOffEvent(tick=192, channel=6, data=[59, 0]),\n",
      "   midi.NoteOnEvent(tick=480, channel=6, data=[59, 80]),\n",
      "   midi.NoteOffEvent(tick=96, channel=6, data=[59, 0]),\n",
      "   midi.NoteOnEvent(tick=0, channel=6, data=[55, 80]),\n",
      "   midi.NoteOffEvent(tick=96, channel=6, data=[55, 0]),\n",
      "   midi.NoteOnEvent(tick=0, channel=6, data=[54, 80]),\n",
      "   midi.NoteOffEvent(tick=96, channel=6, data=[54, 0]),\n",
      "   midi.NoteOnEvent(tick=0, channel=6, data=[55, 80]),\n",
      "   midi.NoteOffEvent(tick=192, channel=6, data=[55, 0]),\n",
      "   midi.NoteOnEvent(tick=0, channel=6, data=[59, 80]),\n",
      "   midi.NoteOffEvent(tick=192, channel=6, data=[59, 0]),\n",
      "   midi.NoteOnEvent(tick=0, channel=6, data=[57, 80]),\n",
      "   midi.NoteOffEvent(tick=192, channel=6, data=[57, 0]),\n",
      "   midi.NoteOnEvent(tick=0, channel=6, data=[59, 80]),\n",
      "   midi.NoteOffEvent(tick=192, channel=6, data=[59, 0]),\n",
      "   midi.NoteOnEvent(tick=0, channel=6, data=[61, 80]),\n",
      "   midi.NoteOffEvent(tick=384, channel=6, data=[61, 0]),\n",
      "   midi.NoteOnEvent(tick=384, channel=6, data=[62, 80]),\n",
      "   midi.NoteOffEvent(tick=576, channel=6, data=[62, 0]),\n",
      "   midi.NoteOnEvent(tick=0, channel=6, data=[59, 80]),\n",
      "   midi.NoteOffEvent(tick=192, channel=6, data=[59, 0]),\n",
      "   midi.NoteOnEvent(tick=0, channel=6, data=[56, 80]),\n",
      "   midi.NoteOffEvent(tick=192, channel=6, data=[56, 0]),\n",
      "   midi.NoteOnEvent(tick=0, channel=6, data=[59, 80]),\n",
      "   midi.NoteOffEvent(tick=192, channel=6, data=[59, 0]),\n",
      "   midi.NoteOnEvent(tick=0, channel=6, data=[61, 80]),\n",
      "   midi.NoteOffEvent(tick=192, channel=6, data=[61, 0]),\n",
      "   midi.NoteOnEvent(tick=0, channel=6, data=[49, 80]),\n",
      "   midi.NoteOffEvent(tick=192, channel=6, data=[49, 0]),\n",
      "   midi.NoteOnEvent(tick=0, channel=6, data=[61, 80]),\n",
      "   midi.NoteOffEvent(tick=576, channel=6, data=[61, 0]),\n",
      "   midi.NoteOnEvent(tick=0, channel=6, data=[57, 80]),\n",
      "   midi.NoteOffEvent(tick=192, channel=6, data=[57, 0]),\n",
      "   midi.NoteOnEvent(tick=0, channel=6, data=[54, 80]),\n",
      "   midi.NoteOffEvent(tick=192, channel=6, data=[54, 0]),\n",
      "   midi.NoteOnEvent(tick=0, channel=6, data=[57, 80]),\n",
      "   midi.NoteOffEvent(tick=192, channel=6, data=[57, 0]),\n",
      "   midi.NoteOnEvent(tick=0, channel=6, data=[59, 80]),\n",
      "   midi.NoteOffEvent(tick=960, channel=6, data=[59, 0]),\n",
      "   midi.NoteOnEvent(tick=0, channel=6, data=[56, 80]),\n",
      "   midi.NoteOffEvent(tick=192, channel=6, data=[56, 0]),\n",
      "   midi.NoteOnEvent(tick=0, channel=6, data=[52, 80]),\n",
      "   midi.NoteOffEvent(tick=576, channel=6, data=[52, 0]),\n",
      "   midi.NoteOnEvent(tick=0, channel=6, data=[57, 80]),\n",
      "   midi.NoteOffEvent(tick=192, channel=6, data=[57, 0]),\n",
      "   midi.NoteOnEvent(tick=0, channel=6, data=[61, 80]),\n",
      "   midi.NoteOffEvent(tick=192, channel=6, data=[61, 0]),\n",
      "   midi.NoteOnEvent(tick=0, channel=6, data=[64, 80]),\n",
      "   midi.NoteOffEvent(tick=192, channel=6, data=[64, 0]),\n",
      "   midi.NoteOnEvent(tick=0, channel=6, data=[61, 80]),\n",
      "   midi.NoteOffEvent(tick=384, channel=6, data=[61, 0]),\n",
      "   midi.NoteOnEvent(tick=1152, channel=6, data=[64, 80]),\n",
      "   midi.NoteOffEvent(tick=192, channel=6, data=[64, 0]),\n",
      "   midi.NoteOnEvent(tick=0, channel=6, data=[62, 80]),\n",
      "   midi.NoteOffEvent(tick=96, channel=6, data=[62, 0]),\n",
      "   midi.NoteOnEvent(tick=0, channel=6, data=[61, 80]),\n",
      "   midi.NoteOffEvent(tick=96, channel=6, data=[61, 0]),\n",
      "   midi.NoteOnEvent(tick=0, channel=6, data=[59, 80]),\n",
      "   midi.NoteOffEvent(tick=96, channel=6, data=[59, 0]),\n",
      "   midi.NoteOnEvent(tick=0, channel=6, data=[57, 80]),\n",
      "   midi.NoteOffEvent(tick=96, channel=6, data=[57, 0]),\n",
      "   midi.NoteOnEvent(tick=0, channel=6, data=[56, 80]),\n",
      "   midi.NoteOffEvent(tick=96, channel=6, data=[56, 0]),\n",
      "   midi.NoteOnEvent(tick=0, channel=6, data=[54, 80]),\n",
      "   midi.NoteOffEvent(tick=96, channel=6, data=[54, 0]),\n",
      "   midi.NoteOnEvent(tick=0, channel=6, data=[52, 80]),\n",
      "   midi.NoteOffEvent(tick=192, channel=6, data=[52, 0]),\n",
      "   midi.NoteOnEvent(tick=0, channel=6, data=[61, 80]),\n",
      "   midi.NoteOffEvent(tick=192, channel=6, data=[61, 0]),\n",
      "   midi.NoteOnEvent(tick=0, channel=6, data=[66, 80]),\n",
      "   midi.NoteOffEvent(tick=192, channel=6, data=[66, 0]),\n",
      "   midi.NoteOnEvent(tick=0, channel=6, data=[64, 80]),\n",
      "   midi.NoteOffEvent(tick=192, channel=6, data=[64, 0]),\n",
      "   midi.NoteOnEvent(tick=0, channel=6, data=[64, 80]),\n",
      "   midi.NoteOffEvent(tick=192, channel=6, data=[64, 0]),\n",
      "   midi.NoteOnEvent(tick=0, channel=6, data=[62, 80]),\n",
      "   midi.NoteOffEvent(tick=192, channel=6, data=[62, 0]),\n",
      "   midi.NoteOnEvent(tick=0, channel=6, data=[64, 80]),\n",
      "   midi.NoteOffEvent(tick=384, channel=6, data=[64, 0]),\n",
      "   midi.NoteOnEvent(tick=768, channel=6, data=[69, 80]),\n",
      "   midi.NoteOffEvent(tick=192, channel=6, data=[69, 0]),\n",
      "   midi.NoteOnEvent(tick=0, channel=6, data=[67, 80]),\n",
      "   midi.NoteOffEvent(tick=96, channel=6, data=[67, 0]),\n",
      "   midi.NoteOnEvent(tick=0, channel=6, data=[66, 80]),\n",
      "   midi.NoteOffEvent(tick=96, channel=6, data=[66, 0]),\n",
      "   midi.NoteOnEvent(tick=0, channel=6, data=[64, 80]),\n",
      "   midi.NoteOffEvent(tick=96, channel=6, data=[64, 0]),\n",
      "   midi.NoteOnEvent(tick=0, channel=6, data=[62, 80]),\n",
      "   midi.NoteOffEvent(tick=96, channel=6, data=[62, 0]),\n",
      "   midi.NoteOnEvent(tick=0, channel=6, data=[61, 80]),\n",
      "   midi.NoteOffEvent(tick=96, channel=6, data=[61, 0]),\n",
      "   midi.NoteOnEvent(tick=0, channel=6, data=[59, 80]),\n",
      "   midi.NoteOffEvent(tick=96, channel=6, data=[59, 0]),\n",
      "   midi.NoteOnEvent(tick=0, channel=6, data=[57, 80]),\n",
      "   midi.NoteOffEvent(tick=192, channel=6, data=[57, 0]),\n",
      "   midi.NoteOnEvent(tick=0, channel=6, data=[54, 80]),\n",
      "   midi.NoteOffEvent(tick=192, channel=6, data=[54, 0]),\n",
      "   midi.NoteOnEvent(tick=0, channel=6, data=[59, 80]),\n",
      "   midi.NoteOffEvent(tick=192, channel=6, data=[59, 0]),\n",
      "   midi.NoteOnEvent(tick=0, channel=6, data=[57, 80]),\n",
      "   midi.NoteOffEvent(tick=192, channel=6, data=[57, 0]),\n",
      "   midi.NoteOnEvent(tick=0, channel=6, data=[57, 80]),\n",
      "   midi.NoteOffEvent(tick=192, channel=6, data=[57, 0]),\n",
      "   midi.NoteOnEvent(tick=0, channel=6, data=[61, 80]),\n",
      "   midi.NoteOffEvent(tick=192, channel=6, data=[61, 0]),\n",
      "   midi.NoteOnEvent(tick=0, channel=6, data=[62, 80]),\n",
      "   midi.NoteOffEvent(tick=384, channel=6, data=[62, 0]),\n",
      "   midi.NoteOnEvent(tick=384, channel=6, data=[59, 80]),\n",
      "   midi.NoteOffEvent(tick=576, channel=6, data=[59, 0]),\n",
      "   midi.NoteOnEvent(tick=0, channel=6, data=[59, 80]),\n",
      "   midi.NoteOffEvent(tick=192, channel=6, data=[59, 0]),\n",
      "   midi.NoteOnEvent(tick=0, channel=6, data=[64, 80]),\n",
      "   midi.NoteOffEvent(tick=576, channel=6, data=[64, 0]),\n",
      "   midi.NoteOnEvent(tick=0, channel=6, data=[59, 80]),\n",
      "   midi.NoteOffEvent(tick=192, channel=6, data=[59, 0]),\n",
      "   midi.NoteOnEvent(tick=0, channel=6, data=[59, 80]),\n",
      "   midi.NoteOffEvent(tick=576, channel=6, data=[59, 0]),\n",
      "   midi.NoteOnEvent(tick=0, channel=6, data=[64, 80]),\n",
      "   midi.NoteOffEvent(tick=192, channel=6, data=[64, 0]),\n",
      "   midi.NoteOnEvent(tick=0, channel=6, data=[52, 80]),\n",
      "   midi.NoteOffEvent(tick=576, channel=6, data=[52, 0]),\n",
      "   midi.NoteOnEvent(tick=0, channel=6, data=[52, 80]),\n",
      "   midi.NoteOffEvent(tick=192, channel=6, data=[52, 0]),\n",
      "   midi.NoteOnEvent(tick=0, channel=6, data=[57, 80]),\n",
      "   midi.NoteOffEvent(tick=576, channel=6, data=[57, 0]),\n",
      "   midi.NoteOnEvent(tick=0, channel=6, data=[57, 80]),\n",
      "   midi.NoteOffEvent(tick=192, channel=6, data=[57, 0]),\n",
      "   midi.NoteOnEvent(tick=0, channel=6, data=[61, 80]),\n",
      "   midi.NoteOffEvent(tick=192, channel=6, data=[61, 0]),\n",
      "   midi.NoteOnEvent(tick=0, channel=6, data=[61, 80]),\n",
      "   midi.NoteOffEvent(tick=192, channel=6, data=[61, 0]),\n",
      "   midi.NoteOnEvent(tick=0, channel=6, data=[62, 80]),\n",
      "   midi.NoteOffEvent(tick=384, channel=6, data=[62, 0]),\n",
      "   midi.NoteOnEvent(tick=0, channel=6, data=[59, 80]),\n",
      "   midi.NoteOffEvent(tick=384, channel=6, data=[59, 0]),\n",
      "   midi.NoteOnEvent(tick=0, channel=6, data=[61, 80]),\n",
      "   midi.NoteOffEvent(tick=384, channel=6, data=[61, 0]),\n",
      "   midi.NoteOnEvent(tick=12672, channel=6, data=[64, 80]),\n",
      "   midi.NoteOffEvent(tick=384, channel=6, data=[64, 0]),\n",
      "   midi.NoteOnEvent(tick=384, channel=6, data=[61, 80]),\n",
      "   midi.NoteOffEvent(tick=384, channel=6, data=[61, 0]),\n",
      "   midi.NoteOnEvent(tick=192, channel=6, data=[56, 80]),\n",
      "   midi.NoteOffEvent(tick=192, channel=6, data=[56, 0]),\n",
      "   midi.NoteOnEvent(tick=0, channel=6, data=[57, 80]),\n",
      "   midi.NoteOffEvent(tick=192, channel=6, data=[57, 0]),\n",
      "   midi.NoteOnEvent(tick=0, channel=6, data=[56, 80]),\n",
      "   midi.NoteOffEvent(tick=192, channel=6, data=[56, 0]),\n",
      "   midi.NoteOnEvent(tick=0, channel=6, data=[56, 80]),\n",
      "   midi.NoteOffEvent(tick=192, channel=6, data=[56, 0]),\n",
      "   midi.NoteOnEvent(tick=0, channel=6, data=[61, 80]),\n",
      "   midi.NoteOffEvent(tick=192, channel=6, data=[61, 0]),\n",
      "   midi.NoteOnEvent(tick=0, channel=6, data=[61, 80]),\n",
      "   midi.NoteOffEvent(tick=192, channel=6, data=[61, 0]),\n",
      "   midi.NoteOnEvent(tick=0, channel=6, data=[59, 80]),\n",
      "   midi.NoteOffEvent(tick=96, channel=6, data=[59, 0]),\n",
      "   midi.NoteOnEvent(tick=0, channel=6, data=[61, 80]),\n",
      "   midi.NoteOffEvent(tick=96, channel=6, data=[61, 0]),\n",
      "   midi.NoteOnEvent(tick=0, channel=6, data=[57, 80]),\n",
      "   midi.NoteOffEvent(tick=192, channel=6, data=[57, 0]),\n",
      "   midi.NoteOnEvent(tick=384, channel=6, data=[66, 80]),\n",
      "   midi.NoteOffEvent(tick=384, channel=6, data=[66, 0]),\n",
      "   midi.NoteOnEvent(tick=0, channel=6, data=[62, 80]),\n",
      "   midi.NoteOffEvent(tick=96, channel=6, data=[62, 0]),\n",
      "   midi.NoteOnEvent(tick=0, channel=6, data=[59, 80]),\n",
      "   midi.NoteOffEvent(tick=96, channel=6, data=[59, 0]),\n",
      "   midi.NoteOnEvent(tick=0, channel=6, data=[66, 80]),\n",
      "   midi.NoteOffEvent(tick=512, channel=6, data=[66, 0]),\n",
      "   midi.NoteOnEvent(tick=64, channel=6, data=[58, 80]),\n",
      "   midi.NoteOffEvent(tick=96, channel=6, data=[58, 0]),\n",
      "   midi.NoteOnEvent(tick=0, channel=6, data=[54, 80]),\n",
      "   midi.NoteOffEvent(tick=96, channel=6, data=[54, 0]),\n",
      "   midi.NoteOnEvent(tick=0, channel=6, data=[62, 80]),\n",
      "   midi.NoteOffEvent(tick=192, channel=6, data=[62, 0]),\n",
      "   midi.NoteOnEvent(tick=0, channel=6, data=[61, 80]),\n",
      "   midi.NoteOffEvent(tick=96, channel=6, data=[61, 0]),\n",
      "   midi.NoteOnEvent(tick=0, channel=6, data=[59, 80]),\n",
      "   midi.NoteOffEvent(tick=96, channel=6, data=[59, 0]),\n",
      "   midi.NoteOnEvent(tick=0, channel=6, data=[66, 80]),\n",
      "   midi.NoteOffEvent(tick=192, channel=6, data=[66, 0]),\n",
      "   midi.NoteOnEvent(tick=0, channel=6, data=[66, 80]),\n",
      "   midi.NoteOffEvent(tick=192, channel=6, data=[66, 0]),\n",
      "   midi.NoteOnEvent(tick=0, channel=6, data=[66, 80]),\n",
      "   midi.NoteOffEvent(tick=192, channel=6, data=[66, 0]),\n",
      "   midi.NoteOnEvent(tick=0, channel=6, data=[64, 80]),\n",
      "   midi.NoteOffEvent(tick=96, channel=6, data=[64, 0]),\n",
      "   midi.NoteOnEvent(tick=0, channel=6, data=[66, 80]),\n",
      "   midi.NoteOffEvent(tick=96, channel=6, data=[66, 0]),\n",
      "   midi.NoteOnEvent(tick=0, channel=6, data=[62, 80]),\n",
      "   midi.NoteOffEvent(tick=384, channel=6, data=[62, 0]),\n",
      "   midi.NoteOnEvent(tick=384, channel=6, data=[64, 80]),\n",
      "   midi.NoteOffEvent(tick=384, channel=6, data=[64, 0]),\n",
      "   midi.NoteOnEvent(tick=192, channel=6, data=[64, 80]),\n",
      "   midi.NoteOffEvent(tick=192, channel=6, data=[64, 0]),\n",
      "   midi.NoteOnEvent(tick=0, channel=6, data=[61, 80]),\n",
      "   midi.NoteOffEvent(tick=192, channel=6, data=[61, 0]),\n",
      "   midi.NoteOnEvent(tick=0, channel=6, data=[57, 80]),\n",
      "   midi.NoteOffEvent(tick=192, channel=6, data=[57, 0]),\n",
      "   midi.NoteOnEvent(tick=0, channel=6, data=[57, 80]),\n",
      "   midi.NoteOffEvent(tick=96, channel=6, data=[57, 0]),\n",
      "   midi.NoteOnEvent(tick=0, channel=6, data=[55, 80]),\n",
      "   midi.NoteOffEvent(tick=96, channel=6, data=[55, 0]),\n",
      "   midi.NoteOnEvent(tick=0, channel=6, data=[54, 80]),\n",
      "   midi.NoteOffEvent(tick=96, channel=6, data=[54, 0]),\n",
      "   midi.NoteOnEvent(tick=0, channel=6, data=[52, 80]),\n",
      "   midi.NoteOffEvent(tick=96, channel=6, data=[52, 0]),\n",
      "   midi.NoteOnEvent(tick=0, channel=6, data=[50, 80]),\n",
      "   midi.NoteOffEvent(tick=192, channel=6, data=[50, 0]),\n",
      "   midi.NoteOnEvent(tick=0, channel=6, data=[57, 80]),\n",
      "   midi.NoteOffEvent(tick=192, channel=6, data=[57, 0]),\n",
      "   midi.NoteOnEvent(tick=0, channel=6, data=[59, 80]),\n",
      "   midi.NoteOffEvent(tick=192, channel=6, data=[59, 0]),\n",
      "   midi.NoteOnEvent(tick=0, channel=6, data=[59, 80]),\n",
      "   midi.NoteOffEvent(tick=192, channel=6, data=[59, 0]),\n",
      "   midi.NoteOnEvent(tick=0, channel=6, data=[58, 80]),\n",
      "   midi.NoteOffEvent(tick=192, channel=6, data=[58, 0]),\n",
      "   midi.NoteOnEvent(tick=0, channel=6, data=[59, 80]),\n",
      "   midi.NoteOffEvent(tick=192, channel=6, data=[59, 0]),\n",
      "   midi.NoteOnEvent(tick=0, channel=6, data=[61, 80]),\n",
      "   midi.NoteOffEvent(tick=192, channel=6, data=[61, 0]),\n",
      "   midi.NoteOnEvent(tick=0, channel=6, data=[59, 80]),\n",
      "   midi.NoteOffEvent(tick=192, channel=6, data=[59, 0]),\n",
      "   midi.NoteOnEvent(tick=0, channel=6, data=[58, 80]),\n",
      "   midi.NoteOffEvent(tick=192, channel=6, data=[58, 0]),\n",
      "   midi.NoteOnEvent(tick=0, channel=6, data=[67, 80]),\n",
      "   midi.NoteOffEvent(tick=192, channel=6, data=[67, 0]),\n",
      "   midi.NoteOnEvent(tick=0, channel=6, data=[66, 80]),\n",
      "   midi.NoteOffEvent(tick=192, channel=6, data=[66, 0]),\n",
      "   midi.NoteOnEvent(tick=0, channel=6, data=[64, 80]),\n",
      "   midi.NoteOffEvent(tick=192, channel=6, data=[64, 0]),\n",
      "   midi.NoteOnEvent(tick=0, channel=6, data=[62, 80]),\n",
      "   midi.NoteOffEvent(tick=192, channel=6, data=[62, 0]),\n",
      "   midi.NoteOnEvent(tick=0, channel=6, data=[66, 80]),\n",
      "   midi.NoteOffEvent(tick=192, channel=6, data=[66, 0]),\n",
      "   midi.NoteOnEvent(tick=0, channel=6, data=[59, 80]),\n",
      "   midi.NoteOffEvent(tick=192, channel=6, data=[59, 0]),\n",
      "   midi.NoteOnEvent(tick=0, channel=6, data=[62, 80]),\n",
      "   midi.NoteOffEvent(tick=192, channel=6, data=[62, 0]),\n",
      "   midi.NoteOnEvent(tick=0, channel=6, data=[66, 80]),\n",
      "   midi.NoteOffEvent(tick=192, channel=6, data=[66, 0]),\n",
      "   midi.NoteOnEvent(tick=0, channel=6, data=[61, 80]),\n",
      "   midi.NoteOffEvent(tick=192, channel=6, data=[61, 0]),\n",
      "   midi.NoteOnEvent(tick=0, channel=6, data=[62, 80]),\n",
      "   midi.NoteOffEvent(tick=768, channel=6, data=[62, 0]),\n",
      "   midi.NoteOnEvent(tick=12288, channel=6, data=[66, 80]),\n",
      "   midi.NoteOffEvent(tick=384, channel=6, data=[66, 0]),\n",
      "   midi.NoteOnEvent(tick=384, channel=6, data=[66, 80]),\n",
      "   midi.NoteOffEvent(tick=384, channel=6, data=[66, 0]),\n",
      "   midi.NoteOnEvent(tick=192, channel=6, data=[57, 80]),\n",
      "   midi.NoteOffEvent(tick=192, channel=6, data=[57, 0]),\n",
      "   midi.NoteOnEvent(tick=0, channel=6, data=[59, 80]),\n",
      "   midi.NoteOffEvent(tick=192, channel=6, data=[59, 0]),\n",
      "   midi.NoteOnEvent(tick=0, channel=6, data=[57, 80]),\n",
      "   midi.NoteOffEvent(tick=192, channel=6, data=[57, 0]),\n",
      "   midi.NoteOnEvent(tick=0, channel=6, data=[57, 80]),\n",
      "   midi.NoteOffEvent(tick=192, channel=6, data=[57, 0]),\n",
      "   midi.NoteOnEvent(tick=0, channel=6, data=[62, 80]),\n",
      "   midi.NoteOffEvent(tick=192, channel=6, data=[62, 0]),\n",
      "   midi.NoteOnEvent(tick=0, channel=6, data=[62, 80]),\n",
      "   midi.NoteOffEvent(tick=192, channel=6, data=[62, 0]),\n",
      "   midi.NoteOnEvent(tick=0, channel=6, data=[60, 80]),\n",
      "   midi.NoteOffEvent(tick=96, channel=6, data=[60, 0]),\n",
      "   midi.NoteOnEvent(tick=0, channel=6, data=[62, 80]),\n",
      "   midi.NoteOffEvent(tick=96, channel=6, data=[62, 0]),\n",
      "   midi.NoteOnEvent(tick=0, channel=6, data=[59, 80]),\n",
      "   midi.NoteOffEvent(tick=192, channel=6, data=[59, 0]),\n",
      "   midi.NoteOnEvent(tick=384, channel=6, data=[59, 80]),\n",
      "   midi.NoteOffEvent(tick=384, channel=6, data=[59, 0]),\n",
      "   midi.NoteOnEvent(tick=0, channel=6, data=[55, 80]),\n",
      "   midi.NoteOffEvent(tick=96, channel=6, data=[55, 0]),\n",
      "   midi.NoteOnEvent(tick=0, channel=6, data=[52, 80]),\n",
      "   midi.NoteOffEvent(tick=96, channel=6, data=[52, 0]),\n",
      "   midi.NoteOnEvent(tick=0, channel=6, data=[59, 80]),\n",
      "   midi.NoteOffEvent(tick=512, channel=6, data=[59, 0]),\n",
      "   midi.NoteOnEvent(tick=64, channel=6, data=[54, 80]),\n",
      "   midi.NoteOffEvent(tick=96, channel=6, data=[54, 0]),\n",
      "   midi.NoteOnEvent(tick=0, channel=6, data=[51, 80]),\n",
      "   midi.NoteOffEvent(tick=96, channel=6, data=[51, 0]),\n",
      "   midi.NoteOnEvent(tick=0, channel=6, data=[55, 80]),\n",
      "   midi.NoteOffEvent(tick=192, channel=6, data=[55, 0]),\n",
      "   midi.NoteOnEvent(tick=0, channel=6, data=[54, 80]),\n",
      "   midi.NoteOffEvent(tick=96, channel=6, data=[54, 0]),\n",
      "   midi.NoteOnEvent(tick=0, channel=6, data=[52, 80]),\n",
      "   midi.NoteOffEvent(tick=96, channel=6, data=[52, 0]),\n",
      "   midi.NoteOnEvent(tick=0, channel=6, data=[59, 80]),\n",
      "   midi.NoteOffEvent(tick=192, channel=6, data=[59, 0]),\n",
      "   midi.NoteOnEvent(tick=0, channel=6, data=[59, 80]),\n",
      "   midi.NoteOffEvent(tick=192, channel=6, data=[59, 0]),\n",
      "   midi.NoteOnEvent(tick=0, channel=6, data=[59, 80]),\n",
      "   midi.NoteOffEvent(tick=192, channel=6, data=[59, 0]),\n",
      "   midi.NoteOnEvent(tick=0, channel=6, data=[64, 80]),\n",
      "   midi.NoteOffEvent(tick=96, channel=6, data=[64, 0]),\n",
      "   midi.NoteOnEvent(tick=0, channel=6, data=[63, 80]),\n",
      "   midi.NoteOffEvent(tick=96, channel=6, data=[63, 0]),\n",
      "   midi.NoteOnEvent(tick=0, channel=6, data=[64, 80]),\n",
      "   midi.NoteOffEvent(tick=192, channel=6, data=[64, 0]),\n",
      "   midi.NoteOnEvent(tick=0, channel=6, data=[67, 80]),\n",
      "   midi.NoteOffEvent(tick=288, channel=6, data=[67, 0]),\n",
      "   midi.NoteOnEvent(tick=0, channel=6, data=[66, 80]),\n",
      "   midi.NoteOffEvent(tick=96, channel=6, data=[66, 0]),\n",
      "   midi.NoteOnEvent(tick=0, channel=6, data=[64, 80]),\n",
      "   midi.NoteOffEvent(tick=96, channel=6, data=[64, 0]),\n",
      "   midi.NoteOnEvent(tick=0, channel=6, data=[62, 80]),\n",
      "   midi.NoteOffEvent(tick=96, channel=6, data=[62, 0]),\n",
      "   midi.NoteOnEvent(tick=0, channel=6, data=[64, 80]),\n",
      "   midi.NoteOffEvent(tick=192, channel=6, data=[64, 0]),\n",
      "   midi.NoteOnEvent(tick=0, channel=6, data=[69, 80]),\n",
      "   midi.NoteOffEvent(tick=192, channel=6, data=[69, 0]),\n",
      "   midi.NoteOnEvent(tick=0, channel=6, data=[57, 80]),\n",
      "   midi.NoteOffEvent(tick=192, channel=6, data=[57, 0]),\n",
      "   midi.NoteOnEvent(tick=0, channel=6, data=[62, 80]),\n",
      "   midi.NoteOffEvent(tick=96, channel=6, data=[62, 0]),\n",
      "   midi.NoteOnEvent(tick=0, channel=6, data=[61, 80]),\n",
      "   midi.NoteOffEvent(tick=96, channel=6, data=[61, 0]),\n",
      "   midi.NoteOnEvent(tick=0, channel=6, data=[62, 80]),\n",
      "   midi.NoteOffEvent(tick=192, channel=6, data=[62, 0]),\n",
      "   midi.NoteOnEvent(tick=0, channel=6, data=[66, 80]),\n",
      "   midi.NoteOffEvent(tick=288, channel=6, data=[66, 0]),\n",
      "   midi.NoteOnEvent(tick=0, channel=6, data=[64, 80]),\n",
      "   midi.NoteOffEvent(tick=96, channel=6, data=[64, 0]),\n",
      "   midi.NoteOnEvent(tick=0, channel=6, data=[62, 80]),\n",
      "   midi.NoteOffEvent(tick=96, channel=6, data=[62, 0]),\n",
      "   midi.NoteOnEvent(tick=0, channel=6, data=[61, 80]),\n",
      "   midi.NoteOffEvent(tick=96, channel=6, data=[61, 0]),\n",
      "   midi.NoteOnEvent(tick=0, channel=6, data=[62, 80]),\n",
      "   midi.NoteOffEvent(tick=192, channel=6, data=[62, 0]),\n",
      "   midi.NoteOnEvent(tick=0, channel=6, data=[68, 80]),\n",
      "   midi.NoteOffEvent(tick=192, channel=6, data=[68, 0]),\n",
      "   midi.NoteOnEvent(tick=0, channel=6, data=[56, 80]),\n",
      "   midi.NoteOffEvent(tick=192, channel=6, data=[56, 0]),\n",
      "   midi.NoteOnEvent(tick=0, channel=6, data=[61, 80]),\n",
      "   midi.NoteOffEvent(tick=96, channel=6, data=[61, 0]),\n",
      "   midi.NoteOnEvent(tick=0, channel=6, data=[59, 80]),\n",
      "   midi.NoteOffEvent(tick=96, channel=6, data=[59, 0]),\n",
      "   midi.NoteOnEvent(tick=0, channel=6, data=[61, 80]),\n",
      "   midi.NoteOffEvent(tick=96, channel=6, data=[61, 0]),\n",
      "   midi.NoteOnEvent(tick=0, channel=6, data=[62, 80]),\n",
      "   midi.NoteOffEvent(tick=96, channel=6, data=[62, 0]),\n",
      "   midi.NoteOnEvent(tick=0, channel=6, data=[61, 80]),\n",
      "   midi.NoteOffEvent(tick=96, channel=6, data=[61, 0]),\n",
      "   midi.NoteOnEvent(tick=0, channel=6, data=[62, 80]),\n",
      "   midi.NoteOffEvent(tick=96, channel=6, data=[62, 0]),\n",
      "   midi.NoteOnEvent(tick=0, channel=6, data=[61, 80]),\n",
      "   midi.NoteOffEvent(tick=192, channel=6, data=[61, 0]),\n",
      "   midi.NoteOnEvent(tick=0, channel=6, data=[54, 80]),\n",
      "   midi.NoteOffEvent(tick=192, channel=6, data=[54, 0]),\n",
      "   midi.NoteOnEvent(tick=576, channel=6, data=[66, 80]),\n",
      "   midi.NoteOffEvent(tick=192, channel=6, data=[66, 0]),\n",
      "   midi.NoteOnEvent(tick=0, channel=6, data=[65, 80]),\n",
      "   midi.NoteOffEvent(tick=192, channel=6, data=[65, 0]),\n",
      "   midi.NoteOnEvent(tick=0, channel=6, data=[66, 80]),\n",
      "   midi.NoteOffEvent(tick=192, channel=6, data=[66, 0]),\n",
      "   midi.NoteOnEvent(tick=0, channel=6, data=[61, 80]),\n",
      "   midi.NoteOffEvent(tick=512, channel=6, data=[61, 0]),\n",
      "   midi.NoteOnEvent(tick=64, channel=6, data=[62, 80]),\n",
      "   midi.NoteOffEvent(tick=192, channel=6, data=[62, 0]),\n",
      "   midi.NoteOnEvent(tick=0, channel=6, data=[61, 80]),\n",
      "   midi.NoteOffEvent(tick=384, channel=6, data=[61, 0]),\n",
      "   midi.NoteOnEvent(tick=0, channel=6, data=[61, 80]),\n",
      "   midi.NoteOffEvent(tick=192, channel=6, data=[61, 0]),\n",
      "   midi.NoteOnEvent(tick=0, channel=6, data=[59, 80]),\n",
      "   midi.NoteOffEvent(tick=192, channel=6, data=[59, 0]),\n",
      "   midi.NoteOnEvent(tick=0, channel=6, data=[57, 80]),\n",
      "   midi.NoteOffEvent(tick=384, channel=6, data=[57, 0]),\n",
      "   midi.NoteOnEvent(tick=3456, channel=6, data=[66, 80]),\n",
      "   midi.NoteOffEvent(tick=384, channel=6, data=[66, 0]),\n",
      "   midi.NoteOnEvent(tick=0, channel=6, data=[62, 80]),\n",
      "   midi.NoteOffEvent(tick=384, channel=6, data=[62, 0]),\n",
      "   midi.NoteOnEvent(tick=0, channel=6, data=[57, 80]),\n",
      "   midi.NoteOffEvent(tick=192, channel=6, data=[57, 0]),\n",
      "   midi.NoteOnEvent(tick=0, channel=6, data=[57, 80]),\n",
      "   midi.NoteOffEvent(tick=192, channel=6, data=[57, 0]),\n",
      "   midi.NoteOnEvent(tick=0, channel=6, data=[62, 80]),\n",
      "   midi.NoteOffEvent(tick=768, channel=6, data=[62, 0]),\n",
      "   midi.NoteOnEvent(tick=0, channel=6, data=[62, 80]),\n",
      "   midi.NoteOffEvent(tick=384, channel=6, data=[62, 0]),\n",
      "   midi.NoteOnEvent(tick=0, channel=6, data=[62, 80]),\n",
      "   midi.NoteOffEvent(tick=192, channel=6, data=[62, 0]),\n",
      "   midi.NoteOnEvent(tick=0, channel=6, data=[60, 80]),\n",
      "   midi.NoteOffEvent(tick=192, channel=6, data=[60, 0]),\n",
      "   midi.NoteOnEvent(tick=0, channel=6, data=[62, 80]),\n",
      "   midi.NoteOffEvent(tick=384, channel=6, data=[62, 0]),\n",
      "   midi.NoteOnEvent(tick=0, channel=6, data=[61, 80]),\n",
      "   midi.NoteOffEvent(tick=96, channel=6, data=[61, 0]),\n",
      "   midi.NoteOnEvent(tick=0, channel=6, data=[62, 80]),\n",
      "   midi.NoteOffEvent(tick=96, channel=6, data=[62, 0]),\n",
      "   midi.NoteOnEvent(tick=0, channel=6, data=[64, 80]),\n",
      "   midi.NoteOffEvent(tick=96, channel=6, data=[64, 0]),\n",
      "   midi.NoteOnEvent(tick=96, channel=6, data=[64, 80]),\n",
      "   midi.NoteOffEvent(tick=96, channel=6, data=[64, 0]),\n",
      "   midi.NoteOnEvent(tick=96, channel=6, data=[61, 80]),\n",
      "   midi.NoteOffEvent(tick=96, channel=6, data=[61, 0]),\n",
      "   midi.NoteOnEvent(tick=96, channel=6, data=[57, 80]),\n",
      "   midi.NoteOffEvent(tick=512, channel=6, data=[57, 0]),\n",
      "   midi.NoteOnEvent(tick=64, channel=6, data=[61, 80]),\n",
      "   midi.NoteOffEvent(tick=192, channel=6, data=[61, 0]),\n",
      "   midi.NoteOnEvent(tick=0, channel=6, data=[62, 80]),\n",
      "   midi.NoteOffEvent(tick=512, channel=6, data=[62, 0]),\n",
      "   midi.NoteOnEvent(tick=64, channel=6, data=[61, 80]),\n",
      "   midi.NoteOffEvent(tick=192, channel=6, data=[61, 0]),\n",
      "   midi.NoteOnEvent(tick=0, channel=6, data=[62, 80]),\n",
      "   midi.NoteOffEvent(tick=384, channel=6, data=[62, 0]),\n",
      "   midi.NoteOnEvent(tick=0, channel=6, data=[57, 80]),\n",
      "   midi.NoteOffEvent(tick=384, channel=6, data=[57, 0]),\n",
      "   midi.NoteOnEvent(tick=768, channel=6, data=[62, 80]),\n",
      "   midi.NoteOffEvent(tick=192, channel=6, data=[62, 0]),\n",
      "   midi.NoteOnEvent(tick=0, channel=6, data=[61, 80]),\n",
      "   midi.NoteOffEvent(tick=96, channel=6, data=[61, 0]),\n",
      "   midi.NoteOnEvent(tick=0, channel=6, data=[59, 80]),\n",
      "   midi.NoteOffEvent(tick=96, channel=6, data=[59, 0]),\n",
      "   midi.NoteOnEvent(tick=0, channel=6, data=[57, 80]),\n",
      "   midi.NoteOffEvent(tick=96, channel=6, data=[57, 0]),\n",
      "   midi.NoteOnEvent(tick=0, channel=6, data=[55, 80]),\n",
      "   midi.NoteOffEvent(tick=96, channel=6, data=[55, 0]),\n",
      "   midi.NoteOnEvent(tick=0, channel=6, data=[54, 80]),\n",
      "   midi.NoteOffEvent(tick=96, channel=6, data=[54, 0]),\n",
      "   midi.NoteOnEvent(tick=0, channel=6, data=[52, 80]),\n",
      "   midi.NoteOffEvent(tick=96, channel=6, data=[52, 0]),\n",
      "   midi.NoteOnEvent(tick=0, channel=6, data=[50, 80]),\n",
      "   midi.NoteOffEvent(tick=192, channel=6, data=[50, 0]),\n",
      "   midi.NoteOnEvent(tick=0, channel=6, data=[62, 80]),\n",
      "   midi.NoteOffEvent(tick=192, channel=6, data=[62, 0]),\n",
      "   midi.NoteOnEvent(tick=0, channel=6, data=[59, 80]),\n",
      "   midi.NoteOffEvent(tick=192, channel=6, data=[59, 0]),\n",
      "   midi.NoteOnEvent(tick=0, channel=6, data=[57, 80]),\n",
      "   midi.NoteOffEvent(tick=192, channel=6, data=[57, 0]),\n",
      "   midi.NoteOnEvent(tick=0, channel=6, data=[57, 80]),\n",
      "   midi.NoteOffEvent(tick=192, channel=6, data=[57, 0]),\n",
      "   midi.NoteOnEvent(tick=0, channel=6, data=[54, 80]),\n",
      "   midi.NoteOffEvent(tick=192, channel=6, data=[54, 0]),\n",
      "   midi.NoteOnEvent(tick=0, channel=6, data=[62, 80]),\n",
      "   midi.NoteOffEvent(tick=576, channel=6, data=[62, 0]),\n",
      "   midi.NoteOnEvent(tick=0, channel=6, data=[57, 80]),\n",
      "   midi.NoteOffEvent(tick=192, channel=6, data=[57, 0]),\n",
      "   midi.NoteOnEvent(tick=0, channel=6, data=[62, 80]),\n",
      "   midi.NoteOffEvent(tick=192, channel=6, data=[62, 0]),\n",
      "   midi.NoteOnEvent(tick=0, channel=6, data=[62, 80]),\n",
      "   midi.NoteOffEvent(tick=192, channel=6, data=[62, 0]),\n",
      "   midi.NoteOnEvent(tick=0, channel=6, data=[62, 80]),\n",
      "   midi.NoteOffEvent(tick=192, channel=6, data=[62, 0]),\n",
      "   midi.NoteOnEvent(tick=0, channel=6, data=[59, 80]),\n",
      "   midi.NoteOffEvent(tick=192, channel=6, data=[59, 0]),\n",
      "   midi.NoteOnEvent(tick=0, channel=6, data=[59, 80]),\n",
      "   midi.NoteOffEvent(tick=480, channel=6, data=[59, 0]),\n",
      "   midi.NoteOnEvent(tick=0, channel=6, data=[57, 80]),\n",
      "   midi.NoteOffEvent(tick=96, channel=6, data=[57, 0]),\n",
      "   midi.NoteOnEvent(tick=0, channel=6, data=[55, 80]),\n",
      "   midi.NoteOffEvent(tick=96, channel=6, data=[55, 0]),\n",
      "   midi.NoteOnEvent(tick=0, channel=6, data=[54, 80]),\n",
      "   midi.NoteOffEvent(tick=96, channel=6, data=[54, 0]),\n",
      "   midi.NoteOnEvent(tick=0, channel=6, data=[55, 80]),\n",
      "   midi.NoteOffEvent(tick=192, channel=6, data=[55, 0]),\n",
      "   midi.NoteOnEvent(tick=0, channel=6, data=[59, 80]),\n",
      "   midi.NoteOffEvent(tick=192, channel=6, data=[59, 0]),\n",
      "   midi.NoteOnEvent(tick=0, channel=6, data=[57, 80]),\n",
      "   midi.NoteOffEvent(tick=192, channel=6, data=[57, 0]),\n",
      "   midi.NoteOnEvent(tick=0, channel=6, data=[59, 80]),\n",
      "   midi.NoteOffEvent(tick=192, channel=6, data=[59, 0]),\n",
      "   midi.NoteOnEvent(tick=0, channel=6, data=[61, 80]),\n",
      "   midi.NoteOffEvent(tick=384, channel=6, data=[61, 0]),\n",
      "   midi.NoteOnEvent(tick=768, channel=6, data=[62, 80]),\n",
      "   midi.NoteOffEvent(tick=192, channel=6, data=[62, 0]),\n",
      "   midi.NoteOnEvent(tick=0, channel=6, data=[57, 80]),\n",
      "   midi.NoteOffEvent(tick=192, channel=6, data=[57, 0]),\n",
      "   midi.NoteOnEvent(tick=0, channel=6, data=[54, 80]),\n",
      "   midi.NoteOffEvent(tick=192, channel=6, data=[54, 0]),\n",
      "   midi.NoteOnEvent(tick=0, channel=6, data=[50, 80]),\n",
      "   midi.NoteOffEvent(tick=192, channel=6, data=[50, 0]),\n",
      "   midi.NoteOnEvent(tick=0, channel=6, data=[60, 80]),\n",
      "   midi.NoteOffEvent(tick=384, channel=6, data=[60, 0]),\n",
      "   midi.NoteOnEvent(tick=192, channel=6, data=[54, 80]),\n",
      "   midi.NoteOffEvent(tick=192, channel=6, data=[54, 0]),\n",
      "   midi.NoteOnEvent(tick=0, channel=6, data=[57, 80]),\n",
      "   midi.NoteOffEvent(tick=192, channel=6, data=[57, 0]),\n",
      "   midi.NoteOnEvent(tick=0, channel=6, data=[55, 80]),\n",
      "   midi.NoteOffEvent(tick=192, channel=6, data=[55, 0]),\n",
      "   midi.NoteOnEvent(tick=0, channel=6, data=[54, 80]),\n",
      "   midi.NoteOffEvent(tick=192, channel=6, data=[54, 0]),\n",
      "   midi.NoteOnEvent(tick=0, channel=6, data=[55, 80]),\n",
      "   midi.NoteOffEvent(tick=96, channel=6, data=[55, 0]),\n",
      "   midi.NoteOnEvent(tick=0, channel=6, data=[57, 80]),\n",
      "   midi.NoteOffEvent(tick=96, channel=6, data=[57, 0]),\n",
      "   midi.NoteOnEvent(tick=0, channel=6, data=[55, 80]),\n",
      "   midi.NoteOffEvent(tick=384, channel=6, data=[55, 0]),\n",
      "   midi.NoteOnEvent(tick=0, channel=6, data=[55, 80]),\n",
      "   midi.NoteOffEvent(tick=384, channel=6, data=[55, 0]),\n",
      "   midi.NoteOnEvent(tick=384, channel=6, data=[61, 80]),\n",
      "   midi.NoteOffEvent(tick=576, channel=6, data=[61, 0]),\n",
      "   midi.NoteOnEvent(tick=0, channel=6, data=[57, 80]),\n",
      "   midi.NoteOffEvent(tick=192, channel=6, data=[57, 0]),\n",
      "   midi.NoteOnEvent(tick=0, channel=6, data=[54, 80]),\n",
      "   midi.NoteOffEvent(tick=192, channel=6, data=[54, 0]),\n",
      "   midi.NoteOnEvent(tick=0, channel=6, data=[57, 80]),\n",
      "   midi.NoteOffEvent(tick=192, channel=6, data=[57, 0]),\n",
      "   midi.NoteOnEvent(tick=0, channel=6, data=[59, 80]),\n",
      "   midi.NoteOffEvent(tick=192, channel=6, data=[59, 0]),\n",
      "   midi.NoteOnEvent(tick=0, channel=6, data=[59, 80]),\n",
      "   midi.NoteOffEvent(tick=96, channel=6, data=[59, 0]),\n",
      "   midi.NoteOnEvent(tick=0, channel=6, data=[57, 80]),\n",
      "   midi.NoteOffEvent(tick=96, channel=6, data=[57, 0]),\n",
      "   midi.NoteOnEvent(tick=0, channel=6, data=[59, 80]),\n",
      "   midi.NoteOffEvent(tick=576, channel=6, data=[59, 0]),\n",
      "   midi.NoteOnEvent(tick=0, channel=6, data=[52, 80]),\n",
      "   midi.NoteOffEvent(tick=192, channel=6, data=[52, 0]),\n",
      "   midi.NoteOnEvent(tick=0, channel=6, data=[64, 80]),\n",
      "   midi.NoteOffEvent(tick=192, channel=6, data=[64, 0]),\n",
      "   midi.NoteOnEvent(tick=0, channel=6, data=[62, 80]),\n",
      "   midi.NoteOffEvent(tick=192, channel=6, data=[62, 0]),\n",
      "   midi.NoteOnEvent(tick=0, channel=6, data=[61, 80]),\n",
      "   midi.NoteOffEvent(tick=512, channel=6, data=[61, 0]),\n",
      "   midi.NoteOnEvent(tick=64, channel=6, data=[62, 80]),\n",
      "   midi.NoteOffEvent(tick=96, channel=6, data=[62, 0]),\n",
      "   midi.NoteOnEvent(tick=0, channel=6, data=[64, 80]),\n",
      "   midi.NoteOffEvent(tick=96, channel=6, data=[64, 0]),\n",
      "   midi.NoteOnEvent(tick=0, channel=6, data=[62, 80]),\n",
      "   midi.NoteOffEvent(tick=192, channel=6, data=[62, 0]),\n",
      "   midi.NoteOnEvent(tick=0, channel=6, data=[57, 80]),\n",
      "   midi.NoteOffEvent(tick=384, channel=6, data=[57, 0]),\n",
      "   midi.NoteOnEvent(tick=0, channel=6, data=[57, 80]),\n",
      "   midi.NoteOffEvent(tick=192, channel=6, data=[57, 0]),\n",
      "   midi.NoteOnEvent(tick=0, channel=6, data=[57, 80]),\n",
      "   midi.NoteOffEvent(tick=384, channel=6, data=[57, 0]),\n",
      "   midi.NoteOnEvent(tick=1152, channel=6, data=[69, 80]),\n",
      "   midi.NoteOffEvent(tick=192, channel=6, data=[69, 0]),\n",
      "   midi.NoteOnEvent(tick=0, channel=6, data=[67, 80]),\n",
      "   midi.NoteOffEvent(tick=96, channel=6, data=[67, 0]),\n",
      "   midi.NoteOnEvent(tick=0, channel=6, data=[66, 80]),\n",
      "   midi.NoteOffEvent(tick=96, channel=6, data=[66, 0]),\n",
      "   midi.NoteOnEvent(tick=0, channel=6, data=[64, 80]),\n",
      "   midi.NoteOffEvent(tick=96, channel=6, data=[64, 0]),\n",
      "   midi.NoteOnEvent(tick=0, channel=6, data=[62, 80]),\n",
      "   midi.NoteOffEvent(tick=96, channel=6, data=[62, 0]),\n",
      "   midi.NoteOnEvent(tick=0, channel=6, data=[61, 80]),\n",
      "   midi.NoteOffEvent(tick=96, channel=6, data=[61, 0]),\n",
      "   midi.NoteOnEvent(tick=0, channel=6, data=[59, 80]),\n",
      "   midi.NoteOffEvent(tick=96, channel=6, data=[59, 0]),\n",
      "   midi.NoteOnEvent(tick=0, channel=6, data=[57, 80]),\n",
      "   midi.NoteOffEvent(tick=192, channel=6, data=[57, 0]),\n",
      "   midi.NoteOnEvent(tick=0, channel=6, data=[59, 80]),\n",
      "   midi.NoteOffEvent(tick=192, channel=6, data=[59, 0]),\n",
      "   midi.NoteOnEvent(tick=0, channel=6, data=[59, 80]),\n",
      "   midi.NoteOffEvent(tick=192, channel=6, data=[59, 0]),\n",
      "   midi.NoteOnEvent(tick=0, channel=6, data=[57, 80]),\n",
      "   midi.NoteOffEvent(tick=192, channel=6, data=[57, 0]),\n",
      "   midi.NoteOnEvent(tick=0, channel=6, data=[57, 80]),\n",
      "   midi.NoteOffEvent(tick=192, channel=6, data=[57, 0]),\n",
      "   midi.NoteOnEvent(tick=0, channel=6, data=[61, 80]),\n",
      "   midi.NoteOffEvent(tick=96, channel=6, data=[61, 0]),\n",
      "   midi.NoteOnEvent(tick=0, channel=6, data=[59, 80]),\n",
      "   midi.NoteOffEvent(tick=96, channel=6, data=[59, 0]),\n",
      "   midi.NoteOnEvent(tick=0, channel=6, data=[57, 80]),\n",
      "   midi.NoteOffEvent(tick=384, channel=6, data=[57, 0]),\n",
      "   midi.NoteOnEvent(tick=768, channel=6, data=[62, 80]),\n",
      "   midi.NoteOffEvent(tick=192, channel=6, data=[62, 0]),\n",
      "   midi.NoteOnEvent(tick=0, channel=6, data=[60, 80]),\n",
      "   midi.NoteOffEvent(tick=96, channel=6, data=[60, 0]),\n",
      "   midi.NoteOnEvent(tick=0, channel=6, data=[59, 80]),\n",
      "   midi.NoteOffEvent(tick=96, channel=6, data=[59, 0]),\n",
      "   midi.NoteOnEvent(tick=0, channel=6, data=[57, 80]),\n",
      "   midi.NoteOffEvent(tick=96, channel=6, data=[57, 0]),\n",
      "   midi.NoteOnEvent(tick=0, channel=6, data=[55, 80]),\n",
      "   midi.NoteOffEvent(tick=96, channel=6, data=[55, 0]),\n",
      "   midi.NoteOnEvent(tick=0, channel=6, data=[54, 80]),\n",
      "   midi.NoteOffEvent(tick=96, channel=6, data=[54, 0]),\n",
      "   midi.NoteOnEvent(tick=0, channel=6, data=[52, 80]),\n",
      "   midi.NoteOffEvent(tick=96, channel=6, data=[52, 0]),\n",
      "   midi.NoteOnEvent(tick=0, channel=6, data=[50, 80]),\n",
      "   midi.NoteOffEvent(tick=192, channel=6, data=[50, 0]),\n",
      "   midi.NoteOnEvent(tick=0, channel=6, data=[59, 80]),\n",
      "   midi.NoteOffEvent(tick=192, channel=6, data=[59, 0]),\n",
      "   midi.NoteOnEvent(tick=0, channel=6, data=[64, 80]),\n",
      "   midi.NoteOffEvent(tick=192, channel=6, data=[64, 0]),\n",
      "   midi.NoteOnEvent(tick=0, channel=6, data=[62, 80]),\n",
      "   midi.NoteOffEvent(tick=192, channel=6, data=[62, 0]),\n",
      "   midi.NoteOnEvent(tick=0, channel=6, data=[62, 80]),\n",
      "   midi.NoteOffEvent(tick=192, channel=6, data=[62, 0]),\n",
      "   midi.NoteOnEvent(tick=0, channel=6, data=[60, 80]),\n",
      "   midi.NoteOffEvent(tick=192, channel=6, data=[60, 0]),\n",
      "   midi.NoteOnEvent(tick=0, channel=6, data=[62, 80]),\n",
      "   midi.NoteOffEvent(tick=384, channel=6, data=[62, 0]),\n",
      "   midi.NoteOnEvent(tick=384, channel=6, data=[59, 80]),\n",
      "   midi.NoteOffEvent(tick=576, channel=6, data=[59, 0]),\n",
      "   midi.NoteOnEvent(tick=0, channel=6, data=[52, 80]),\n",
      "   midi.NoteOffEvent(tick=192, channel=6, data=[52, 0]),\n",
      "   midi.NoteOnEvent(tick=0, channel=6, data=[57, 80]),\n",
      "   midi.NoteOffEvent(tick=576, channel=6, data=[57, 0]),\n",
      "   midi.NoteOnEvent(tick=0, channel=6, data=[52, 80]),\n",
      "   midi.NoteOffEvent(tick=192, channel=6, data=[52, 0]),\n",
      "   midi.NoteOnEvent(tick=0, channel=6, data=[64, 80]),\n",
      "   midi.NoteOffEvent(tick=480, channel=6, data=[64, 0]),\n",
      "   midi.NoteOnEvent(tick=0, channel=6, data=[66, 80]),\n",
      "   midi.NoteOffEvent(tick=96, channel=6, data=[66, 0]),\n",
      "   midi.NoteOnEvent(tick=0, channel=6, data=[67, 80]),\n",
      "   midi.NoteOffEvent(tick=192, channel=6, data=[67, 0]),\n",
      "   midi.NoteOnEvent(tick=0, channel=6, data=[57, 80]),\n",
      "   midi.NoteOffEvent(tick=576, channel=6, data=[57, 0]),\n",
      "   midi.NoteOnEvent(tick=0, channel=6, data=[57, 80]),\n",
      "   midi.NoteOffEvent(tick=192, channel=6, data=[57, 0]),\n",
      "   midi.NoteOnEvent(tick=0, channel=6, data=[62, 80]),\n",
      "   midi.NoteOffEvent(tick=576, channel=6, data=[62, 0]),\n",
      "   midi.NoteOnEvent(tick=0, channel=6, data=[57, 80]),\n",
      "   midi.NoteOffEvent(tick=192, channel=6, data=[57, 0]),\n",
      "   midi.NoteOnEvent(tick=0, channel=6, data=[62, 80]),\n",
      "   midi.NoteOffEvent(tick=192, channel=6, data=[62, 0]),\n",
      "   midi.NoteOnEvent(tick=0, channel=6, data=[62, 80]),\n",
      "   midi.NoteOffEvent(tick=192, channel=6, data=[62, 0]),\n",
      "   midi.NoteOnEvent(tick=0, channel=6, data=[59, 80]),\n",
      "   midi.NoteOffEvent(tick=192, channel=6, data=[59, 0]),\n",
      "   midi.NoteOnEvent(tick=0, channel=6, data=[67, 80]),\n",
      "   midi.NoteOffEvent(tick=384, channel=6, data=[67, 0]),\n",
      "   midi.NoteOnEvent(tick=0, channel=6, data=[57, 80]),\n",
      "   midi.NoteOffEvent(tick=192, channel=6, data=[57, 0]),\n",
      "   midi.NoteOnEvent(tick=0, channel=6, data=[66, 80]),\n",
      "   midi.NoteOffEvent(tick=384, channel=6, data=[66, 0]),\n",
      "   midi.EndOfTrackEvent(tick=0, data=[])]),\n",
      " midi.Track(\\\n",
      "  [midi.TrackNameEvent(tick=0, text='Basso', data=[66, 97, 115, 115, 111]),\n",
      "   midi.ControlChangeEvent(tick=0, channel=7, data=[0, 0]),\n",
      "   midi.ProgramChangeEvent(tick=0, channel=7, data=[67]),\n",
      "   midi.ControlChangeEvent(tick=0, channel=7, data=[7, 127]),\n",
      "   midi.ControlChangeEvent(tick=0, channel=7, data=[10, 62]),\n",
      "   midi.ControlChangeEvent(tick=0, channel=7, data=[91, 127]),\n",
      "   midi.KeySignatureEvent(tick=0, data=[2, 0]),\n",
      "   midi.NoteOnEvent(tick=25344, channel=7, data=[50, 80]),\n",
      "   midi.NoteOffEvent(tick=512, channel=7, data=[50, 0]),\n",
      "   midi.NoteOnEvent(tick=64, channel=7, data=[54, 80]),\n",
      "   midi.NoteOffEvent(tick=96, channel=7, data=[54, 0]),\n",
      "   midi.NoteOnEvent(tick=0, channel=7, data=[57, 80]),\n",
      "   midi.NoteOffEvent(tick=96, channel=7, data=[57, 0]),\n",
      "   midi.NoteOnEvent(tick=0, channel=7, data=[62, 80]),\n",
      "   midi.NoteOffEvent(tick=192, channel=7, data=[62, 0]),\n",
      "   midi.NoteOnEvent(tick=0, channel=7, data=[62, 80]),\n",
      "   midi.NoteOffEvent(tick=192, channel=7, data=[62, 0]),\n",
      "   midi.NoteOnEvent(tick=0, channel=7, data=[62, 80]),\n",
      "   midi.NoteOffEvent(tick=192, channel=7, data=[62, 0]),\n",
      "   midi.NoteOnEvent(tick=0, channel=7, data=[57, 80]),\n",
      "   midi.NoteOffEvent(tick=192, channel=7, data=[57, 0]),\n",
      "   midi.NoteOnEvent(tick=0, channel=7, data=[54, 80]),\n",
      "   midi.NoteOffEvent(tick=192, channel=7, data=[54, 0]),\n",
      "   midi.NoteOnEvent(tick=0, channel=7, data=[55, 80]),\n",
      "   midi.NoteOffEvent(tick=192, channel=7, data=[55, 0]),\n",
      "   midi.NoteOnEvent(tick=0, channel=7, data=[57, 80]),\n",
      "   midi.NoteOffEvent(tick=192, channel=7, data=[57, 0]),\n",
      "   midi.NoteOnEvent(tick=0, channel=7, data=[54, 80]),\n",
      "   midi.NoteOffEvent(tick=192, channel=7, data=[54, 0]),\n",
      "   midi.NoteOnEvent(tick=0, channel=7, data=[55, 80]),\n",
      "   midi.NoteOffEvent(tick=384, channel=7, data=[55, 0]),\n",
      "   midi.NoteOnEvent(tick=0, channel=7, data=[43, 80]),\n",
      "   midi.NoteOffEvent(tick=384, channel=7, data=[43, 0]),\n",
      "   midi.NoteOnEvent(tick=768, channel=7, data=[64, 80]),\n",
      "   midi.NoteOffEvent(tick=96, channel=7, data=[64, 0]),\n",
      "   midi.NoteOnEvent(tick=0, channel=7, data=[62, 80]),\n",
      "   midi.NoteOffEvent(tick=96, channel=7, data=[62, 0]),\n",
      "   midi.NoteOnEvent(tick=0, channel=7, data=[61, 80]),\n",
      "   midi.NoteOffEvent(tick=96, channel=7, data=[61, 0]),\n",
      "   midi.NoteOnEvent(tick=0, channel=7, data=[59, 80]),\n",
      "   midi.NoteOffEvent(tick=96, channel=7, data=[59, 0]),\n",
      "   midi.NoteOnEvent(tick=0, channel=7, data=[57, 80]),\n",
      "   midi.NoteOffEvent(tick=192, channel=7, data=[57, 0]),\n",
      "   midi.NoteOnEvent(tick=0, channel=7, data=[55, 80]),\n",
      "   midi.NoteOffEvent(tick=192, channel=7, data=[55, 0]),\n",
      "   midi.NoteOnEvent(tick=0, channel=7, data=[54, 80]),\n",
      "   midi.NoteOffEvent(tick=192, channel=7, data=[54, 0]),\n",
      "   midi.NoteOnEvent(tick=0, channel=7, data=[59, 80]),\n",
      "   midi.NoteOffEvent(tick=192, channel=7, data=[59, 0]),\n",
      "   midi.NoteOnEvent(tick=0, channel=7, data=[55, 80]),\n",
      "   midi.NoteOffEvent(tick=192, channel=7, data=[55, 0]),\n",
      "   midi.NoteOnEvent(tick=0, channel=7, data=[57, 80]),\n",
      "   midi.NoteOffEvent(tick=192, channel=7, data=[57, 0]),\n",
      "   midi.NoteOnEvent(tick=0, channel=7, data=[62, 80]),\n",
      "   midi.NoteOffEvent(tick=384, channel=7, data=[62, 0]),\n",
      "   midi.NoteOnEvent(tick=0, channel=7, data=[50, 80]),\n",
      "   midi.NoteOffEvent(tick=384, channel=7, data=[50, 0]),\n",
      "   midi.NoteOnEvent(tick=2304, channel=7, data=[62, 80]),\n",
      "   midi.NoteOffEvent(tick=192, channel=7, data=[62, 0]),\n",
      "   midi.NoteOnEvent(tick=0, channel=7, data=[61, 80]),\n",
      "   midi.NoteOffEvent(tick=96, channel=7, data=[61, 0]),\n",
      "   midi.NoteOnEvent(tick=0, channel=7, data=[59, 80]),\n",
      "   midi.NoteOffEvent(tick=96, channel=7, data=[59, 0]),\n",
      "   midi.NoteOnEvent(tick=0, channel=7, data=[57, 80]),\n",
      "   midi.NoteOffEvent(tick=96, channel=7, data=[57, 0]),\n",
      "   midi.NoteOnEvent(tick=0, channel=7, data=[55, 80]),\n",
      "   midi.NoteOffEvent(tick=96, channel=7, data=[55, 0]),\n",
      "   midi.NoteOnEvent(tick=0, channel=7, data=[54, 80]),\n",
      "   midi.NoteOffEvent(tick=96, channel=7, data=[54, 0]),\n",
      "   midi.NoteOnEvent(tick=0, channel=7, data=[52, 80]),\n",
      "   midi.NoteOffEvent(tick=96, channel=7, data=[52, 0]),\n",
      "   midi.NoteOnEvent(tick=0, channel=7, data=[50, 80]),\n",
      "   midi.NoteOffEvent(tick=96, channel=7, data=[50, 0]),\n",
      "   midi.NoteOnEvent(tick=0, channel=7, data=[52, 80]),\n",
      "   midi.NoteOffEvent(tick=96, channel=7, data=[52, 0]),\n",
      "   midi.NoteOnEvent(tick=0, channel=7, data=[54, 80]),\n",
      "   midi.NoteOffEvent(tick=96, channel=7, data=[54, 0]),\n",
      "   midi.NoteOnEvent(tick=96, channel=7, data=[54, 80]),\n",
      "   midi.NoteOffEvent(tick=96, channel=7, data=[54, 0]),\n",
      "   midi.NoteOnEvent(tick=96, channel=7, data=[54, 80]),\n",
      "   midi.NoteOffEvent(tick=96, channel=7, data=[54, 0]),\n",
      "   midi.NoteOnEvent(tick=96, channel=7, data=[47, 80]),\n",
      "   midi.NoteOffEvent(tick=512, channel=7, data=[47, 0]),\n",
      "   midi.NoteOnEvent(tick=64, channel=7, data=[49, 80]),\n",
      "   midi.NoteOffEvent(tick=96, channel=7, data=[49, 0]),\n",
      "   midi.NoteOnEvent(tick=0, channel=7, data=[50, 80]),\n",
      "   midi.NoteOffEvent(tick=96, channel=7, data=[50, 0]),\n",
      "   midi.NoteOnEvent(tick=0, channel=7, data=[52, 80]),\n",
      "   midi.NoteOffEvent(tick=96, channel=7, data=[52, 0]),\n",
      "   midi.NoteOnEvent(tick=0, channel=7, data=[54, 80]),\n",
      "   midi.NoteOffEvent(tick=96, channel=7, data=[54, 0]),\n",
      "   midi.NoteOnEvent(tick=0, channel=7, data=[55, 80]),\n",
      "   midi.NoteOffEvent(tick=384, channel=7, data=[55, 0]),\n",
      "   midi.NoteOnEvent(tick=0, channel=7, data=[52, 80]),\n",
      "   midi.NoteOffEvent(tick=192, channel=7, data=[52, 0]),\n",
      "   midi.NoteOnEvent(tick=0, channel=7, data=[57, 80]),\n",
      "   midi.NoteOffEvent(tick=384, channel=7, data=[57, 0]),\n",
      "   midi.NoteOnEvent(tick=0, channel=7, data=[45, 80]),\n",
      "   midi.NoteOffEvent(tick=384, channel=7, data=[45, 0]),\n",
      "   midi.NoteOnEvent(tick=1152, channel=7, data=[56, 80]),\n",
      "   midi.NoteOffEvent(tick=576, channel=7, data=[56, 0]),\n",
      "   midi.NoteOnEvent(tick=0, channel=7, data=[52, 80]),\n",
      "   midi.NoteOffEvent(tick=192, channel=7, data=[52, 0]),\n",
      "   midi.NoteOnEvent(tick=0, channel=7, data=[49, 80]),\n",
      "   midi.NoteOffEvent(tick=192, channel=7, data=[49, 0]),\n",
      "   midi.NoteOnEvent(tick=0, channel=7, data=[52, 80]),\n",
      "   midi.NoteOffEvent(tick=192, channel=7, data=[52, 0]),\n",
      "   midi.NoteOnEvent(tick=0, channel=7, data=[54, 80]),\n",
      "   midi.NoteOffEvent(tick=192, channel=7, data=[54, 0]),\n",
      "   midi.NoteOnEvent(tick=0, channel=7, data=[42, 80]),\n",
      "   midi.NoteOffEvent(tick=192, channel=7, data=[42, 0]),\n",
      "   midi.NoteOnEvent(tick=0, channel=7, data=[54, 80]),\n",
      "   midi.NoteOffEvent(tick=576, channel=7, data=[54, 0]),\n",
      "   midi.NoteOnEvent(tick=0, channel=7, data=[47, 80]),\n",
      "   midi.NoteOffEvent(tick=192, channel=7, data=[47, 0]),\n",
      "   midi.NoteOnEvent(tick=0, channel=7, data=[59, 80]),\n",
      "   midi.NoteOffEvent(tick=192, channel=7, data=[59, 0]),\n",
      "   midi.NoteOnEvent(tick=0, channel=7, data=[57, 80]),\n",
      "   midi.NoteOffEvent(tick=192, channel=7, data=[57, 0]),\n",
      "   midi.NoteOnEvent(tick=0, channel=7, data=[56, 80]),\n",
      "   midi.NoteOffEvent(tick=512, channel=7, data=[56, 0]),\n",
      "   midi.NoteOnEvent(tick=64, channel=7, data=[52, 80]),\n",
      "   midi.NoteOffEvent(tick=192, channel=7, data=[52, 0]),\n",
      "   midi.NoteOnEvent(tick=0, channel=7, data=[57, 80]),\n",
      "   midi.NoteOffEvent(tick=192, channel=7, data=[57, 0]),\n",
      "   midi.NoteOnEvent(tick=0, channel=7, data=[49, 80]),\n",
      "   midi.NoteOffEvent(tick=192, channel=7, data=[49, 0]),\n",
      "   midi.NoteOnEvent(tick=0, channel=7, data=[52, 80]),\n",
      "   midi.NoteOffEvent(tick=384, channel=7, data=[52, 0]),\n",
      "   midi.NoteOnEvent(tick=0, channel=7, data=[45, 80]),\n",
      "   midi.NoteOffEvent(tick=384, channel=7, data=[45, 0]),\n",
      "   midi.NoteOnEvent(tick=384, channel=7, data=[64, 80]),\n",
      "   midi.NoteOffEvent(tick=192, channel=7, data=[64, 0]),\n",
      "   midi.NoteOnEvent(tick=0, channel=7, data=[62, 80]),\n",
      "   midi.NoteOffEvent(tick=96, channel=7, data=[62, 0]),\n",
      "   midi.NoteOnEvent(tick=0, channel=7, data=[61, 80]),\n",
      "   midi.NoteOffEvent(tick=96, channel=7, data=[61, 0]),\n",
      "   midi.NoteOnEvent(tick=0, channel=7, data=[59, 80]),\n",
      "   midi.NoteOffEvent(tick=96, channel=7, data=[59, 0]),\n",
      "   midi.NoteOnEvent(tick=0, channel=7, data=[57, 80]),\n",
      "   midi.NoteOffEvent(tick=96, channel=7, data=[57, 0]),\n",
      "   midi.NoteOnEvent(tick=0, channel=7, data=[56, 80]),\n",
      "   midi.NoteOffEvent(tick=96, channel=7, data=[56, 0]),\n",
      "   midi.NoteOnEvent(tick=0, channel=7, data=[54, 80]),\n",
      "   midi.NoteOffEvent(tick=96, channel=7, data=[54, 0]),\n",
      "   midi.NoteOnEvent(tick=0, channel=7, data=[52, 80]),\n",
      "   midi.NoteOffEvent(tick=384, channel=7, data=[52, 0]),\n",
      "   midi.NoteOnEvent(tick=192, channel=7, data=[50, 80]),\n",
      "   midi.NoteOffEvent(tick=192, channel=7, data=[50, 0]),\n",
      "   midi.NoteOnEvent(tick=0, channel=7, data=[49, 80]),\n",
      "   midi.NoteOffEvent(tick=192, channel=7, data=[49, 0]),\n",
      "   midi.NoteOnEvent(tick=0, channel=7, data=[54, 80]),\n",
      "   midi.NoteOffEvent(tick=192, channel=7, data=[54, 0]),\n",
      "   midi.NoteOnEvent(tick=0, channel=7, data=[50, 80]),\n",
      "   midi.NoteOffEvent(tick=192, channel=7, data=[50, 0]),\n",
      "   midi.NoteOnEvent(tick=0, channel=7, data=[52, 80]),\n",
      "   midi.NoteOffEvent(tick=192, channel=7, data=[52, 0]),\n",
      "   midi.NoteOnEvent(tick=0, channel=7, data=[57, 80]),\n",
      "   midi.NoteOffEvent(tick=192, channel=7, data=[57, 0]),\n",
      "   midi.NoteOnEvent(tick=0, channel=7, data=[59, 80]),\n",
      "   midi.NoteOffEvent(tick=192, channel=7, data=[59, 0]),\n",
      "   midi.NoteOnEvent(tick=0, channel=7, data=[61, 80]),\n",
      "   midi.NoteOffEvent(tick=192, channel=7, data=[61, 0]),\n",
      "   midi.NoteOnEvent(tick=0, channel=7, data=[59, 80]),\n",
      "   midi.NoteOffEvent(tick=192, channel=7, data=[59, 0]),\n",
      "   midi.NoteOnEvent(tick=0, channel=7, data=[57, 80]),\n",
      "   midi.NoteOffEvent(tick=192, channel=7, data=[57, 0]),\n",
      "   midi.NoteOnEvent(tick=0, channel=7, data=[55, 80]),\n",
      "   midi.NoteOffEvent(tick=96, channel=7, data=[55, 0]),\n",
      "   midi.NoteOnEvent(tick=0, channel=7, data=[54, 80]),\n",
      "   midi.NoteOffEvent(tick=96, channel=7, data=[54, 0]),\n",
      "   midi.NoteOnEvent(tick=0, channel=7, data=[52, 80]),\n",
      "   midi.NoteOffEvent(tick=96, channel=7, data=[52, 0]),\n",
      "   midi.NoteOnEvent(tick=0, channel=7, data=[50, 80]),\n",
      "   midi.NoteOffEvent(tick=96, channel=7, data=[50, 0]),\n",
      "   midi.NoteOnEvent(tick=0, channel=7, data=[49, 80]),\n",
      "   midi.NoteOffEvent(tick=96, channel=7, data=[49, 0]),\n",
      "   midi.NoteOnEvent(tick=0, channel=7, data=[47, 80]),\n",
      "   midi.NoteOffEvent(tick=96, channel=7, data=[47, 0]),\n",
      "   midi.NoteOnEvent(tick=0, channel=7, data=[45, 80]),\n",
      "   midi.NoteOffEvent(tick=384, channel=7, data=[45, 0]),\n",
      "   midi.NoteOnEvent(tick=192, channel=7, data=[55, 80]),\n",
      "   midi.NoteOffEvent(tick=192, channel=7, data=[55, 0]),\n",
      "   midi.NoteOnEvent(tick=0, channel=7, data=[54, 80]),\n",
      "   midi.NoteOffEvent(tick=192, channel=7, data=[54, 0]),\n",
      "   midi.NoteOnEvent(tick=0, channel=7, data=[57, 80]),\n",
      "   midi.NoteOffEvent(tick=192, channel=7, data=[57, 0]),\n",
      "   midi.NoteOnEvent(tick=0, channel=7, data=[55, 80]),\n",
      "   midi.NoteOffEvent(tick=192, channel=7, data=[55, 0]),\n",
      "   midi.NoteOnEvent(tick=0, channel=7, data=[57, 80]),\n",
      "   midi.NoteOffEvent(tick=192, channel=7, data=[57, 0]),\n",
      "   midi.NoteOnEvent(tick=0, channel=7, data=[50, 80]),\n",
      "   midi.NoteOffEvent(tick=192, channel=7, data=[50, 0]),\n",
      "   midi.NoteOnEvent(tick=0, channel=7, data=[52, 80]),\n",
      "   midi.NoteOffEvent(tick=192, channel=7, data=[52, 0]),\n",
      "   midi.NoteOnEvent(tick=0, channel=7, data=[54, 80]),\n",
      "   midi.NoteOffEvent(tick=192, channel=7, data=[54, 0]),\n",
      "   midi.NoteOnEvent(tick=0, channel=7, data=[52, 80]),\n",
      "   midi.NoteOffEvent(tick=192, channel=7, data=[52, 0]),\n",
      "   midi.NoteOnEvent(tick=0, channel=7, data=[51, 80]),\n",
      "   midi.NoteOffEvent(tick=192, channel=7, data=[51, 0]),\n",
      "   midi.NoteOnEvent(tick=0, channel=7, data=[49, 80]),\n",
      "   midi.NoteOffEvent(tick=192, channel=7, data=[49, 0]),\n",
      "   midi.NoteOnEvent(tick=0, channel=7, data=[51, 80]),\n",
      "   midi.NoteOffEvent(tick=192, channel=7, data=[51, 0]),\n",
      "   midi.NoteOnEvent(tick=0, channel=7, data=[47, 80]),\n",
      "   midi.NoteOffEvent(tick=192, channel=7, data=[47, 0]),\n",
      "   midi.NoteOnEvent(tick=0, channel=7, data=[52, 80]),\n",
      "   midi.NoteOffEvent(tick=192, channel=7, data=[52, 0]),\n",
      "   midi.NoteOnEvent(tick=0, channel=7, data=[64, 80]),\n",
      "   midi.NoteOffEvent(tick=192, channel=7, data=[64, 0]),\n",
      "   midi.NoteOnEvent(tick=0, channel=7, data=[62, 80]),\n",
      "   midi.NoteOffEvent(tick=192, channel=7, data=[62, 0]),\n",
      "   midi.NoteOnEvent(tick=0, channel=7, data=[61, 80]),\n",
      "   midi.NoteOffEvent(tick=192, channel=7, data=[61, 0]),\n",
      "   midi.NoteOnEvent(tick=0, channel=7, data=[59, 80]),\n",
      "   midi.NoteOffEvent(tick=192, channel=7, data=[59, 0]),\n",
      "   midi.NoteOnEvent(tick=0, channel=7, data=[57, 80]),\n",
      "   midi.NoteOffEvent(tick=192, channel=7, data=[57, 0]),\n",
      "   midi.NoteOnEvent(tick=0, channel=7, data=[56, 80]),\n",
      "   midi.NoteOffEvent(tick=192, channel=7, data=[56, 0]),\n",
      "   midi.NoteOnEvent(tick=0, channel=7, data=[54, 80]),\n",
      "   midi.NoteOffEvent(tick=192, channel=7, data=[54, 0]),\n",
      "   midi.NoteOnEvent(tick=0, channel=7, data=[56, 80]),\n",
      "   midi.NoteOffEvent(tick=192, channel=7, data=[56, 0]),\n",
      "   midi.NoteOnEvent(tick=0, channel=7, data=[59, 80]),\n",
      "   midi.NoteOffEvent(tick=192, channel=7, data=[59, 0]),\n",
      "   midi.NoteOnEvent(tick=0, channel=7, data=[56, 80]),\n",
      "   midi.NoteOffEvent(tick=192, channel=7, data=[56, 0]),\n",
      "   midi.NoteOnEvent(tick=0, channel=7, data=[52, 80]),\n",
      "   midi.NoteOffEvent(tick=192, channel=7, data=[52, 0]),\n",
      "   midi.NoteOnEvent(tick=0, channel=7, data=[57, 80]),\n",
      "   midi.NoteOffEvent(tick=1280, channel=7, data=[57, 0]),\n",
      "   midi.NoteOnEvent(tick=64, channel=7, data=[54, 80]),\n",
      "   midi.NoteOffEvent(tick=192, channel=7, data=[54, 0]),\n",
      "   midi.NoteOnEvent(tick=0, channel=7, data=[50, 80]),\n",
      "   midi.NoteOffEvent(tick=384, channel=7, data=[50, 0]),\n",
      "   midi.NoteOnEvent(tick=0, channel=7, data=[52, 80]),\n",
      "   midi.NoteOffEvent(tick=384, channel=7, data=[52, 0]),\n",
      "   midi.NoteOnEvent(tick=0, channel=7, data=[45, 80]),\n",
      "   midi.NoteOffEvent(tick=384, channel=7, data=[45, 0]),\n",
      "   midi.NoteOnEvent(tick=12672, channel=7, data=[57, 80]),\n",
      "   midi.NoteOffEvent(tick=384, channel=7, data=[57, 0]),\n",
      "   midi.NoteOnEvent(tick=384, channel=7, data=[53, 80]),\n",
      "   midi.NoteOffEvent(tick=384, channel=7, data=[53, 0]),\n",
      "   midi.NoteOnEvent(tick=192, channel=7, data=[49, 80]),\n",
      "   midi.NoteOffEvent(tick=192, channel=7, data=[49, 0]),\n",
      "   midi.NoteOnEvent(tick=0, channel=7, data=[57, 80]),\n",
      "   midi.NoteOffEvent(tick=192, channel=7, data=[57, 0]),\n",
      "   midi.NoteOnEvent(tick=0, channel=7, data=[59, 80]),\n",
      "   midi.NoteOffEvent(tick=192, channel=7, data=[59, 0]),\n",
      "   midi.NoteOnEvent(tick=0, channel=7, data=[61, 80]),\n",
      "   midi.NoteOffEvent(tick=192, channel=7, data=[61, 0]),\n",
      "   midi.NoteOnEvent(tick=0, channel=7, data=[49, 80]),\n",
      "   midi.NoteOffEvent(tick=192, channel=7, data=[49, 0]),\n",
      "   midi.NoteOnEvent(tick=0, channel=7, data=[54, 80]),\n",
      "   midi.NoteOffEvent(tick=512, channel=7, data=[54, 0]),\n",
      "   midi.NoteOnEvent(tick=64, channel=7, data=[52, 80]),\n",
      "   midi.NoteOffEvent(tick=192, channel=7, data=[52, 0]),\n",
      "   midi.NoteOnEvent(tick=0, channel=7, data=[50, 80]),\n",
      "   midi.NoteOffEvent(tick=384, channel=7, data=[50, 0]),\n",
      "   midi.NoteOnEvent(tick=192, channel=7, data=[62, 80]),\n",
      "   midi.NoteOffEvent(tick=192, channel=7, data=[62, 0]),\n",
      "   midi.NoteOnEvent(tick=0, channel=7, data=[58, 80]),\n",
      "   midi.NoteOffEvent(tick=192, channel=7, data=[58, 0]),\n",
      "   midi.NoteOnEvent(tick=0, channel=7, data=[54, 80]),\n",
      "   midi.NoteOffEvent(tick=96, channel=7, data=[54, 0]),\n",
      "   midi.NoteOnEvent(tick=0, channel=7, data=[56, 80]),\n",
      "   midi.NoteOffEvent(tick=96, channel=7, data=[56, 0]),\n",
      "   midi.NoteOnEvent(tick=0, channel=7, data=[58, 80]),\n",
      "   midi.NoteOffEvent(tick=192, channel=7, data=[58, 0]),\n",
      "   midi.NoteOnEvent(tick=0, channel=7, data=[54, 80]),\n",
      "   midi.NoteOffEvent(tick=192, channel=7, data=[54, 0]),\n",
      "   midi.NoteOnEvent(tick=0, channel=7, data=[59, 80]),\n",
      "   midi.NoteOffEvent(tick=192, channel=7, data=[59, 0]),\n",
      "   midi.NoteOnEvent(tick=0, channel=7, data=[52, 80]),\n",
      "   midi.NoteOffEvent(tick=192, channel=7, data=[52, 0]),\n",
      "   midi.NoteOnEvent(tick=0, channel=7, data=[54, 80]),\n",
      "   midi.NoteOffEvent(tick=192, channel=7, data=[54, 0]),\n",
      "   midi.NoteOnEvent(tick=0, channel=7, data=[54, 80]),\n",
      "   midi.NoteOffEvent(tick=192, channel=7, data=[54, 0]),\n",
      "   midi.NoteOnEvent(tick=0, channel=7, data=[47, 80]),\n",
      "   midi.NoteOffEvent(tick=192, channel=7, data=[47, 0]),\n",
      "   midi.NoteOnEvent(tick=0, channel=7, data=[49, 80]),\n",
      "   midi.NoteOffEvent(tick=192, channel=7, data=[49, 0]),\n",
      "   midi.NoteOnEvent(tick=0, channel=7, data=[50, 80]),\n",
      "   midi.NoteOffEvent(tick=192, channel=7, data=[50, 0]),\n",
      "   midi.NoteOnEvent(tick=0, channel=7, data=[47, 80]),\n",
      "   midi.NoteOffEvent(tick=192, channel=7, data=[47, 0]),\n",
      "   midi.NoteOnEvent(tick=0, channel=7, data=[52, 80]),\n",
      "   midi.NoteOffEvent(tick=384, channel=7, data=[52, 0]),\n",
      "   midi.NoteOnEvent(tick=192, channel=7, data=[55, 80]),\n",
      "   midi.NoteOffEvent(tick=192, channel=7, data=[55, 0]),\n",
      "   midi.NoteOnEvent(tick=0, channel=7, data=[57, 80]),\n",
      "   midi.NoteOffEvent(tick=384, channel=7, data=[57, 0]),\n",
      "   midi.NoteOnEvent(tick=0, channel=7, data=[45, 80]),\n",
      "   midi.NoteOffEvent(tick=384, channel=7, data=[45, 0]),\n",
      "   midi.NoteOnEvent(tick=0, channel=7, data=[50, 80]),\n",
      "   midi.NoteOffEvent(tick=384, channel=7, data=[50, 0]),\n",
      "   midi.NoteOnEvent(tick=192, channel=7, data=[54, 80]),\n",
      "   midi.NoteOffEvent(tick=192, channel=7, data=[54, 0]),\n",
      "   midi.NoteOnEvent(tick=0, channel=7, data=[55, 80]),\n",
      "   midi.NoteOffEvent(tick=192, channel=7, data=[55, 0]),\n",
      "   midi.NoteOnEvent(tick=0, channel=7, data=[43, 80]),\n",
      "   midi.NoteOffEvent(tick=192, channel=7, data=[43, 0]),\n",
      "   midi.NoteOnEvent(tick=384, channel=7, data=[49, 80]),\n",
      "   midi.NoteOffEvent(tick=384, channel=7, data=[49, 0]),\n",
      "   midi.NoteOnEvent(tick=192, channel=7, data=[59, 80]),\n",
      "   midi.NoteOffEvent(tick=192, channel=7, data=[59, 0]),\n",
      "   midi.NoteOnEvent(tick=0, channel=7, data=[58, 80]),\n",
      "   midi.NoteOffEvent(tick=192, channel=7, data=[58, 0]),\n",
      "   midi.NoteOnEvent(tick=0, channel=7, data=[54, 80]),\n",
      "   midi.NoteOffEvent(tick=192, channel=7, data=[54, 0]),\n",
      "   midi.NoteOnEvent(tick=0, channel=7, data=[56, 80]),\n",
      "   midi.NoteOffEvent(tick=192, channel=7, data=[56, 0]),\n",
      "   midi.NoteOnEvent(tick=0, channel=7, data=[58, 80]),\n",
      "   midi.NoteOffEvent(tick=192, channel=7, data=[58, 0]),\n",
      "   midi.NoteOnEvent(tick=0, channel=7, data=[59, 80]),\n",
      "   midi.NoteOffEvent(tick=192, channel=7, data=[59, 0]),\n",
      "   midi.NoteOnEvent(tick=0, channel=7, data=[55, 80]),\n",
      "   midi.NoteOffEvent(tick=192, channel=7, data=[55, 0]),\n",
      "   midi.NoteOnEvent(tick=0, channel=7, data=[52, 80]),\n",
      "   midi.NoteOffEvent(tick=192, channel=7, data=[52, 0]),\n",
      "   midi.NoteOnEvent(tick=0, channel=7, data=[54, 80]),\n",
      "   midi.NoteOffEvent(tick=192, channel=7, data=[54, 0]),\n",
      "   midi.NoteOnEvent(tick=0, channel=7, data=[47, 80]),\n",
      "   midi.NoteOffEvent(tick=768, channel=7, data=[47, 0]),\n",
      "   midi.NoteOnEvent(tick=12288, channel=7, data=[59, 80]),\n",
      "   midi.NoteOffEvent(tick=384, channel=7, data=[59, 0]),\n",
      "   midi.NoteOnEvent(tick=384, channel=7, data=[54, 80]),\n",
      "   midi.NoteOffEvent(tick=384, channel=7, data=[54, 0]),\n",
      "   midi.NoteOnEvent(tick=192, channel=7, data=[50, 80]),\n",
      "   midi.NoteOffEvent(tick=192, channel=7, data=[50, 0]),\n",
      "   midi.NoteOnEvent(tick=0, channel=7, data=[47, 80]),\n",
      "   midi.NoteOffEvent(tick=192, channel=7, data=[47, 0]),\n",
      "   midi.NoteOnEvent(tick=0, channel=7, data=[48, 80]),\n",
      "   midi.NoteOffEvent(tick=192, channel=7, data=[48, 0]),\n",
      "   midi.NoteOnEvent(tick=0, channel=7, data=[50, 80]),\n",
      "   midi.NoteOffEvent(tick=192, channel=7, data=[50, 0]),\n",
      "   midi.NoteOnEvent(tick=0, channel=7, data=[50, 80]),\n",
      "   midi.NoteOffEvent(tick=192, channel=7, data=[50, 0]),\n",
      "   midi.NoteOnEvent(tick=0, channel=7, data=[55, 80]),\n",
      "   midi.NoteOffEvent(tick=384, channel=7, data=[55, 0]),\n",
      "   midi.NoteOnEvent(tick=0, channel=7, data=[43, 80]),\n",
      "   midi.NoteOffEvent(tick=384, channel=7, data=[43, 0]),\n",
      "   midi.NoteOnEvent(tick=0, channel=7, data=[55, 80]),\n",
      "   midi.NoteOffEvent(tick=384, channel=7, data=[55, 0]),\n",
      "   midi.NoteOnEvent(tick=192, channel=7, data=[55, 80]),\n",
      "   midi.NoteOffEvent(tick=192, channel=7, data=[55, 0]),\n",
      "   midi.NoteOnEvent(tick=0, channel=7, data=[51, 80]),\n",
      "   midi.NoteOffEvent(tick=192, channel=7, data=[51, 0]),\n",
      "   midi.NoteOnEvent(tick=0, channel=7, data=[47, 80]),\n",
      "   midi.NoteOffEvent(tick=96, channel=7, data=[47, 0]),\n",
      "   midi.NoteOnEvent(tick=0, channel=7, data=[49, 80]),\n",
      "   midi.NoteOffEvent(tick=96, channel=7, data=[49, 0]),\n",
      "   midi.NoteOnEvent(tick=0, channel=7, data=[51, 80]),\n",
      "   midi.NoteOffEvent(tick=192, channel=7, data=[51, 0]),\n",
      "   midi.NoteOnEvent(tick=0, channel=7, data=[47, 80]),\n",
      "   midi.NoteOffEvent(tick=192, channel=7, data=[47, 0]),\n",
      "   midi.NoteOnEvent(tick=0, channel=7, data=[52, 80]),\n",
      "   midi.NoteOffEvent(tick=192, channel=7, data=[52, 0]),\n",
      "   midi.NoteOnEvent(tick=0, channel=7, data=[57, 80]),\n",
      "   midi.NoteOffEvent(tick=192, channel=7, data=[57, 0]),\n",
      "   midi.NoteOnEvent(tick=0, channel=7, data=[59, 80]),\n",
      "   midi.NoteOffEvent(tick=192, channel=7, data=[59, 0]),\n",
      "   midi.NoteOnEvent(tick=0, channel=7, data=[47, 80]),\n",
      "   midi.NoteOffEvent(tick=192, channel=7, data=[47, 0]),\n",
      "   midi.NoteOnEvent(tick=0, channel=7, data=[52, 80]),\n",
      "   midi.NoteOffEvent(tick=96, channel=7, data=[52, 0]),\n",
      "   midi.NoteOnEvent(tick=0, channel=7, data=[54, 80]),\n",
      "   midi.NoteOffEvent(tick=96, channel=7, data=[54, 0]),\n",
      "   midi.NoteOnEvent(tick=0, channel=7, data=[55, 80]),\n",
      "   midi.NoteOffEvent(tick=96, channel=7, data=[55, 0]),\n",
      "   midi.NoteOnEvent(tick=0, channel=7, data=[54, 80]),\n",
      "   midi.NoteOffEvent(tick=96, channel=7, data=[54, 0]),\n",
      "   midi.NoteOnEvent(tick=0, channel=7, data=[57, 80]),\n",
      "   midi.NoteOffEvent(tick=96, channel=7, data=[57, 0]),\n",
      "   midi.NoteOnEvent(tick=0, channel=7, data=[55, 80]),\n",
      "   midi.NoteOffEvent(tick=96, channel=7, data=[55, 0]),\n",
      "   midi.NoteOnEvent(tick=0, channel=7, data=[54, 80]),\n",
      "   midi.NoteOffEvent(tick=96, channel=7, data=[54, 0]),\n",
      "   midi.NoteOnEvent(tick=0, channel=7, data=[52, 80]),\n",
      "   midi.NoteOffEvent(tick=96, channel=7, data=[52, 0]),\n",
      "   midi.NoteOnEvent(tick=0, channel=7, data=[57, 80]),\n",
      "   midi.NoteOffEvent(tick=96, channel=7, data=[57, 0]),\n",
      "   midi.NoteOnEvent(tick=0, channel=7, data=[59, 80]),\n",
      "   midi.NoteOffEvent(tick=96, channel=7, data=[59, 0]),\n",
      "   midi.NoteOnEvent(tick=0, channel=7, data=[61, 80]),\n",
      "   midi.NoteOffEvent(tick=96, channel=7, data=[61, 0]),\n",
      "   midi.NoteOnEvent(tick=0, channel=7, data=[59, 80]),\n",
      "   midi.NoteOffEvent(tick=96, channel=7, data=[59, 0]),\n",
      "   midi.NoteOnEvent(tick=0, channel=7, data=[62, 80]),\n",
      "   midi.NoteOffEvent(tick=96, channel=7, data=[62, 0]),\n",
      "   midi.NoteOnEvent(tick=0, channel=7, data=[61, 80]),\n",
      "   midi.NoteOffEvent(tick=96, channel=7, data=[61, 0]),\n",
      "   midi.NoteOnEvent(tick=0, channel=7, data=[59, 80]),\n",
      "   midi.NoteOffEvent(tick=96, channel=7, data=[59, 0]),\n",
      "   midi.NoteOnEvent(tick=0, channel=7, data=[57, 80]),\n",
      "   midi.NoteOffEvent(tick=96, channel=7, data=[57, 0]),\n",
      "   midi.NoteOnEvent(tick=0, channel=7, data=[62, 80]),\n",
      "   midi.NoteOffEvent(tick=96, channel=7, data=[62, 0]),\n",
      "   midi.NoteOnEvent(tick=96, channel=7, data=[50, 80]),\n",
      "   midi.NoteOffEvent(tick=96, channel=7, data=[50, 0]),\n",
      "   midi.NoteOnEvent(tick=96, channel=7, data=[62, 80]),\n",
      "   midi.NoteOffEvent(tick=384, channel=7, data=[62, 0]),\n",
      "   midi.NoteOnEvent(tick=192, channel=7, data=[62, 80]),\n",
      "   midi.NoteOffEvent(tick=192, channel=7, data=[62, 0]),\n",
      "   midi.NoteOnEvent(tick=0, channel=7, data=[59, 80]),\n",
      "   midi.NoteOffEvent(tick=192, channel=7, data=[59, 0]),\n",
      "   midi.NoteOnEvent(tick=0, channel=7, data=[56, 80]),\n",
      "   midi.NoteOffEvent(tick=192, channel=7, data=[56, 0]),\n",
      "   midi.NoteOnEvent(tick=0, channel=7, data=[61, 80]),\n",
      "   midi.NoteOffEvent(tick=192, channel=7, data=[61, 0]),\n",
      "   midi.NoteOnEvent(tick=0, channel=7, data=[49, 80]),\n",
      "   midi.NoteOffEvent(tick=192, channel=7, data=[49, 0]),\n",
      "   midi.NoteOnEvent(tick=0, channel=7, data=[61, 80]),\n",
      "   midi.NoteOffEvent(tick=384, channel=7, data=[61, 0]),\n",
      "   midi.NoteOnEvent(tick=192, channel=7, data=[61, 80]),\n",
      "   midi.NoteOffEvent(tick=192, channel=7, data=[61, 0]),\n",
      "   midi.NoteOnEvent(tick=0, channel=7, data=[57, 80]),\n",
      "   midi.NoteOffEvent(tick=192, channel=7, data=[57, 0]),\n",
      "   midi.NoteOnEvent(tick=0, channel=7, data=[54, 80]),\n",
      "   midi.NoteOffEvent(tick=192, channel=7, data=[54, 0]),\n",
      "   midi.NoteOnEvent(tick=0, channel=7, data=[59, 80]),\n",
      "   midi.NoteOffEvent(tick=96, channel=7, data=[59, 0]),\n",
      "   midi.NoteOnEvent(tick=96, channel=7, data=[47, 80]),\n",
      "   midi.NoteOffEvent(tick=96, channel=7, data=[47, 0]),\n",
      "   midi.NoteOnEvent(tick=96, channel=7, data=[59, 80]),\n",
      "   midi.NoteOffEvent(tick=384, channel=7, data=[59, 0]),\n",
      "   midi.NoteOnEvent(tick=192, channel=7, data=[56, 80]),\n",
      "   midi.NoteOffEvent(tick=192, channel=7, data=[56, 0]),\n",
      "   midi.NoteOnEvent(tick=0, channel=7, data=[57, 80]),\n",
      "   midi.NoteOffEvent(tick=192, channel=7, data=[57, 0]),\n",
      "   midi.NoteOnEvent(tick=0, channel=7, data=[59, 80]),\n",
      "   midi.NoteOffEvent(tick=192, channel=7, data=[59, 0]),\n",
      "   midi.NoteOnEvent(tick=0, channel=7, data=[61, 80]),\n",
      "   midi.NoteOffEvent(tick=384, channel=7, data=[61, 0]),\n",
      "   midi.NoteOnEvent(tick=0, channel=7, data=[49, 80]),\n",
      "   midi.NoteOffEvent(tick=384, channel=7, data=[49, 0]),\n",
      "   midi.NoteOnEvent(tick=0, channel=7, data=[42, 80]),\n",
      "   midi.NoteOffEvent(tick=384, channel=7, data=[42, 0]),\n",
      "   midi.NoteOnEvent(tick=4224, channel=7, data=[50, 80]),\n",
      "   midi.NoteOffEvent(tick=512, channel=7, data=[50, 0]),\n",
      "   midi.NoteOnEvent(tick=64, channel=7, data=[54, 80]),\n",
      "   midi.NoteOffEvent(tick=96, channel=7, data=[54, 0]),\n",
      "   midi.NoteOnEvent(tick=0, channel=7, data=[57, 80]),\n",
      "   midi.NoteOffEvent(tick=96, channel=7, data=[57, 0]),\n",
      "   midi.NoteOnEvent(tick=0, channel=7, data=[62, 80]),\n",
      "   midi.NoteOffEvent(tick=192, channel=7, data=[62, 0]),\n",
      "   midi.NoteOnEvent(tick=0, channel=7, data=[62, 80]),\n",
      "   midi.NoteOffEvent(tick=192, channel=7, data=[62, 0]),\n",
      "   midi.NoteOnEvent(tick=0, channel=7, data=[62, 80]),\n",
      "   midi.NoteOffEvent(tick=192, channel=7, data=[62, 0]),\n",
      "   midi.NoteOnEvent(tick=0, channel=7, data=[57, 80]),\n",
      "   midi.NoteOffEvent(tick=192, channel=7, data=[57, 0]),\n",
      "   midi.NoteOnEvent(tick=0, channel=7, data=[55, 80]),\n",
      "   midi.NoteOffEvent(tick=384, channel=7, data=[55, 0]),\n",
      "   midi.NoteOnEvent(tick=0, channel=7, data=[43, 80]),\n",
      "   midi.NoteOffEvent(tick=384, channel=7, data=[43, 0]),\n",
      "   midi.NoteOnEvent(tick=768, channel=7, data=[64, 80]),\n",
      "   midi.NoteOffEvent(tick=96, channel=7, data=[64, 0]),\n",
      "   midi.NoteOnEvent(tick=0, channel=7, data=[62, 80]),\n",
      "   midi.NoteOffEvent(tick=96, channel=7, data=[62, 0]),\n",
      "   midi.NoteOnEvent(tick=0, channel=7, data=[61, 80]),\n",
      "   midi.NoteOffEvent(tick=96, channel=7, data=[61, 0]),\n",
      "   midi.NoteOnEvent(tick=0, channel=7, data=[59, 80]),\n",
      "   midi.NoteOffEvent(tick=96, channel=7, data=[59, 0]),\n",
      "   midi.NoteOnEvent(tick=0, channel=7, data=[57, 80]),\n",
      "   midi.NoteOffEvent(tick=192, channel=7, data=[57, 0]),\n",
      "   midi.NoteOnEvent(tick=0, channel=7, data=[55, 80]),\n",
      "   midi.NoteOffEvent(tick=192, channel=7, data=[55, 0]),\n",
      "   midi.NoteOnEvent(tick=0, channel=7, data=[54, 80]),\n",
      "   midi.NoteOffEvent(tick=192, channel=7, data=[54, 0]),\n",
      "   midi.NoteOnEvent(tick=0, channel=7, data=[57, 80]),\n",
      "   midi.NoteOffEvent(tick=192, channel=7, data=[57, 0]),\n",
      "   midi.NoteOnEvent(tick=0, channel=7, data=[55, 80]),\n",
      "   midi.NoteOffEvent(tick=192, channel=7, data=[55, 0]),\n",
      "   midi.NoteOnEvent(tick=0, channel=7, data=[57, 80]),\n",
      "   midi.NoteOffEvent(tick=192, channel=7, data=[57, 0]),\n",
      "   midi.NoteOnEvent(tick=0, channel=7, data=[62, 80]),\n",
      "   midi.NoteOffEvent(tick=384, channel=7, data=[62, 0]),\n",
      "   midi.NoteOnEvent(tick=0, channel=7, data=[50, 80]),\n",
      "   midi.NoteOffEvent(tick=384, channel=7, data=[50, 0]),\n",
      "   midi.NoteOnEvent(tick=2304, channel=7, data=[62, 80]),\n",
      "   midi.NoteOffEvent(tick=192, channel=7, data=[62, 0]),\n",
      "   midi.NoteOnEvent(tick=0, channel=7, data=[61, 80]),\n",
      "   midi.NoteOffEvent(tick=96, channel=7, data=[61, 0]),\n",
      "   midi.NoteOnEvent(tick=0, channel=7, data=[59, 80]),\n",
      "   midi.NoteOffEvent(tick=96, channel=7, data=[59, 0]),\n",
      "   midi.NoteOnEvent(tick=0, channel=7, data=[57, 80]),\n",
      "   midi.NoteOffEvent(tick=96, channel=7, data=[57, 0]),\n",
      "   midi.NoteOnEvent(tick=0, channel=7, data=[55, 80]),\n",
      "   midi.NoteOffEvent(tick=96, channel=7, data=[55, 0]),\n",
      "   midi.NoteOnEvent(tick=0, channel=7, data=[54, 80]),\n",
      "   midi.NoteOffEvent(tick=96, channel=7, data=[54, 0]),\n",
      "   midi.NoteOnEvent(tick=0, channel=7, data=[52, 80]),\n",
      "   midi.NoteOffEvent(tick=96, channel=7, data=[52, 0]),\n",
      "   midi.NoteOnEvent(tick=0, channel=7, data=[50, 80]),\n",
      "   midi.NoteOffEvent(tick=96, channel=7, data=[50, 0]),\n",
      "   midi.NoteOnEvent(tick=0, channel=7, data=[52, 80]),\n",
      "   midi.NoteOffEvent(tick=96, channel=7, data=[52, 0]),\n",
      "   midi.NoteOnEvent(tick=0, channel=7, data=[54, 80]),\n",
      "   midi.NoteOffEvent(tick=96, channel=7, data=[54, 0]),\n",
      "   midi.NoteOnEvent(tick=96, channel=7, data=[54, 80]),\n",
      "   midi.NoteOffEvent(tick=96, channel=7, data=[54, 0]),\n",
      "   midi.NoteOnEvent(tick=96, channel=7, data=[54, 80]),\n",
      "   midi.NoteOffEvent(tick=96, channel=7, data=[54, 0]),\n",
      "   midi.NoteOnEvent(tick=96, channel=7, data=[47, 80]),\n",
      "   midi.NoteOffEvent(tick=512, channel=7, data=[47, 0]),\n",
      "   midi.NoteOnEvent(tick=64, channel=7, data=[49, 80]),\n",
      "   midi.NoteOffEvent(tick=96, channel=7, data=[49, 0]),\n",
      "   midi.NoteOnEvent(tick=0, channel=7, data=[50, 80]),\n",
      "   midi.NoteOffEvent(tick=96, channel=7, data=[50, 0]),\n",
      "   midi.NoteOnEvent(tick=0, channel=7, data=[52, 80]),\n",
      "   midi.NoteOffEvent(tick=96, channel=7, data=[52, 0]),\n",
      "   midi.NoteOnEvent(tick=0, channel=7, data=[54, 80]),\n",
      "   midi.NoteOffEvent(tick=96, channel=7, data=[54, 0]),\n",
      "   midi.NoteOnEvent(tick=0, channel=7, data=[55, 80]),\n",
      "   midi.NoteOffEvent(tick=384, channel=7, data=[55, 0]),\n",
      "   midi.NoteOnEvent(tick=0, channel=7, data=[52, 80]),\n",
      "   midi.NoteOffEvent(tick=192, channel=7, data=[52, 0]),\n",
      "   midi.NoteOnEvent(tick=0, channel=7, data=[57, 80]),\n",
      "   midi.NoteOffEvent(tick=384, channel=7, data=[57, 0]),\n",
      "   midi.NoteOnEvent(tick=0, channel=7, data=[45, 80]),\n",
      "   midi.NoteOffEvent(tick=384, channel=7, data=[45, 0]),\n",
      "   midi.NoteOnEvent(tick=0, channel=7, data=[57, 80]),\n",
      "   midi.NoteOffEvent(tick=384, channel=7, data=[57, 0]),\n",
      "   midi.NoteOnEvent(tick=0, channel=7, data=[54, 80]),\n",
      "   midi.NoteOffEvent(tick=384, channel=7, data=[54, 0]),\n",
      "   midi.NoteOnEvent(tick=0, channel=7, data=[62, 80]),\n",
      "   midi.NoteOffEvent(tick=512, channel=7, data=[62, 0]),\n",
      "   midi.NoteOnEvent(tick=64, channel=7, data=[57, 80]),\n",
      "   midi.NoteOffEvent(tick=192, channel=7, data=[57, 0]),\n",
      "   midi.NoteOnEvent(tick=0, channel=7, data=[54, 80]),\n",
      "   midi.NoteOffEvent(tick=96, channel=7, data=[54, 0]),\n",
      "   midi.NoteOnEvent(tick=0, channel=7, data=[55, 80]),\n",
      "   midi.NoteOffEvent(tick=96, channel=7, data=[55, 0]),\n",
      "   midi.NoteOnEvent(tick=0, channel=7, data=[57, 80]),\n",
      "   midi.NoteOffEvent(tick=384, channel=7, data=[57, 0]),\n",
      "   midi.NoteOnEvent(tick=0, channel=7, data=[54, 80]),\n",
      "   midi.NoteOffEvent(tick=192, channel=7, data=[54, 0]),\n",
      "   midi.NoteOnEvent(tick=0, channel=7, data=[50, 80]),\n",
      "   midi.NoteOffEvent(tick=192, channel=7, data=[50, 0]),\n",
      "   midi.NoteOnEvent(tick=0, channel=7, data=[52, 80]),\n",
      "   midi.NoteOffEvent(tick=192, channel=7, data=[52, 0]),\n",
      "   midi.NoteOnEvent(tick=0, channel=7, data=[54, 80]),\n",
      "   midi.NoteOffEvent(tick=192, channel=7, data=[54, 0]),\n",
      "   midi.NoteOnEvent(tick=0, channel=7, data=[50, 80]),\n",
      "   midi.NoteOffEvent(tick=192, channel=7, data=[50, 0]),\n",
      "   midi.NoteOnEvent(tick=384, channel=7, data=[55, 80]),\n",
      "   midi.NoteOffEvent(tick=576, channel=7, data=[55, 0]),\n",
      "   midi.NoteOnEvent(tick=0, channel=7, data=[52, 80]),\n",
      "   midi.NoteOffEvent(tick=192, channel=7, data=[52, 0]),\n",
      "   midi.NoteOnEvent(tick=0, channel=7, data=[49, 80]),\n",
      "   midi.NoteOffEvent(tick=192, channel=7, data=[49, 0]),\n",
      "   midi.NoteOnEvent(tick=0, channel=7, data=[52, 80]),\n",
      "   midi.NoteOffEvent(tick=192, channel=7, data=[52, 0]),\n",
      "   midi.NoteOnEvent(tick=0, channel=7, data=[54, 80]),\n",
      "   midi.NoteOffEvent(tick=192, channel=7, data=[54, 0]),\n",
      "   midi.NoteOnEvent(tick=0, channel=7, data=[42, 80]),\n",
      "   midi.NoteOffEvent(tick=192, channel=7, data=[42, 0]),\n",
      "   midi.NoteOnEvent(tick=0, channel=7, data=[54, 80]),\n",
      "   midi.NoteOffEvent(tick=576, channel=7, data=[54, 0]),\n",
      "   midi.NoteOnEvent(tick=0, channel=7, data=[50, 80]),\n",
      "   midi.NoteOffEvent(tick=192, channel=7, data=[50, 0]),\n",
      "   midi.NoteOnEvent(tick=0, channel=7, data=[47, 80]),\n",
      "   midi.NoteOffEvent(tick=192, channel=7, data=[47, 0]),\n",
      "   midi.NoteOnEvent(tick=0, channel=7, data=[50, 80]),\n",
      "   midi.NoteOffEvent(tick=192, channel=7, data=[50, 0]),\n",
      "   midi.NoteOnEvent(tick=0, channel=7, data=[52, 80]),\n",
      "   midi.NoteOffEvent(tick=960, channel=7, data=[52, 0]),\n",
      "   midi.NoteOnEvent(tick=0, channel=7, data=[55, 80]),\n",
      "   midi.NoteOffEvent(tick=192, channel=7, data=[55, 0]),\n",
      "   midi.NoteOnEvent(tick=0, channel=7, data=[49, 80]),\n",
      "   midi.NoteOffEvent(tick=192, channel=7, data=[49, 0]),\n",
      "   midi.NoteOnEvent(tick=0, channel=7, data=[45, 80]),\n",
      "   midi.NoteOffEvent(tick=192, channel=7, data=[45, 0]),\n",
      "   midi.NoteOnEvent(tick=0, channel=7, data=[50, 80]),\n",
      "   midi.NoteOffEvent(tick=192, channel=7, data=[50, 0]),\n",
      "   midi.NoteOnEvent(tick=0, channel=7, data=[54, 80]),\n",
      "   midi.NoteOffEvent(tick=192, channel=7, data=[54, 0]),\n",
      "   midi.NoteOnEvent(tick=0, channel=7, data=[57, 80]),\n",
      "   midi.NoteOffEvent(tick=192, channel=7, data=[57, 0]),\n",
      "   midi.NoteOnEvent(tick=0, channel=7, data=[45, 80]),\n",
      "   midi.NoteOffEvent(tick=192, channel=7, data=[45, 0]),\n",
      "   midi.NoteOnEvent(tick=0, channel=7, data=[50, 80]),\n",
      "   midi.NoteOffEvent(tick=384, channel=7, data=[50, 0]),\n",
      "   midi.NoteOnEvent(tick=384, channel=7, data=[57, 80]),\n",
      "   midi.NoteOffEvent(tick=192, channel=7, data=[57, 0]),\n",
      "   midi.NoteOnEvent(tick=0, channel=7, data=[55, 80]),\n",
      "   midi.NoteOffEvent(tick=96, channel=7, data=[55, 0]),\n",
      "   midi.NoteOnEvent(tick=0, channel=7, data=[54, 80]),\n",
      "   midi.NoteOffEvent(tick=96, channel=7, data=[54, 0]),\n",
      "   midi.NoteOnEvent(tick=0, channel=7, data=[52, 80]),\n",
      "   midi.NoteOffEvent(tick=96, channel=7, data=[52, 0]),\n",
      "   midi.NoteOnEvent(tick=0, channel=7, data=[50, 80]),\n",
      "   midi.NoteOffEvent(tick=96, channel=7, data=[50, 0]),\n",
      "   midi.NoteOnEvent(tick=0, channel=7, data=[49, 80]),\n",
      "   midi.NoteOffEvent(tick=96, channel=7, data=[49, 0]),\n",
      "   midi.NoteOnEvent(tick=0, channel=7, data=[47, 80]),\n",
      "   midi.NoteOffEvent(tick=96, channel=7, data=[47, 0]),\n",
      "   midi.NoteOnEvent(tick=0, channel=7, data=[45, 80]),\n",
      "   midi.NoteOffEvent(tick=384, channel=7, data=[45, 0]),\n",
      "   midi.NoteOnEvent(tick=192, channel=7, data=[55, 80]),\n",
      "   midi.NoteOffEvent(tick=192, channel=7, data=[55, 0]),\n",
      "   midi.NoteOnEvent(tick=0, channel=7, data=[54, 80]),\n",
      "   midi.NoteOffEvent(tick=192, channel=7, data=[54, 0]),\n",
      "   midi.NoteOnEvent(tick=0, channel=7, data=[59, 80]),\n",
      "   midi.NoteOffEvent(tick=192, channel=7, data=[59, 0]),\n",
      "   midi.NoteOnEvent(tick=0, channel=7, data=[55, 80]),\n",
      "   midi.NoteOffEvent(tick=192, channel=7, data=[55, 0]),\n",
      "   midi.NoteOnEvent(tick=0, channel=7, data=[57, 80]),\n",
      "   midi.NoteOffEvent(tick=192, channel=7, data=[57, 0]),\n",
      "   midi.NoteOnEvent(tick=0, channel=7, data=[50, 80]),\n",
      "   midi.NoteOffEvent(tick=192, channel=7, data=[50, 0]),\n",
      "   midi.NoteOnEvent(tick=0, channel=7, data=[52, 80]),\n",
      "   midi.NoteOffEvent(tick=192, channel=7, data=[52, 0]),\n",
      "   midi.NoteOnEvent(tick=0, channel=7, data=[54, 80]),\n",
      "   midi.NoteOffEvent(tick=192, channel=7, data=[54, 0]),\n",
      "   midi.NoteOnEvent(tick=0, channel=7, data=[52, 80]),\n",
      "   midi.NoteOffEvent(tick=192, channel=7, data=[52, 0]),\n",
      "   midi.NoteOnEvent(tick=0, channel=7, data=[50, 80]),\n",
      "   midi.NoteOffEvent(tick=96, channel=7, data=[50, 0]),\n",
      "   midi.NoteOnEvent(tick=0, channel=7, data=[62, 80]),\n",
      "   midi.NoteOffEvent(tick=96, channel=7, data=[62, 0]),\n",
      "   midi.NoteOnEvent(tick=0, channel=7, data=[60, 80]),\n",
      "   midi.NoteOffEvent(tick=96, channel=7, data=[60, 0]),\n",
      "   midi.NoteOnEvent(tick=0, channel=7, data=[59, 80]),\n",
      "   midi.NoteOffEvent(tick=96, channel=7, data=[59, 0]),\n",
      "   midi.NoteOnEvent(tick=0, channel=7, data=[57, 80]),\n",
      "   midi.NoteOffEvent(tick=96, channel=7, data=[57, 0]),\n",
      "   midi.NoteOnEvent(tick=0, channel=7, data=[55, 80]),\n",
      "   midi.NoteOffEvent(tick=96, channel=7, data=[55, 0]),\n",
      "   midi.NoteOnEvent(tick=0, channel=7, data=[54, 80]),\n",
      "   midi.NoteOffEvent(tick=96, channel=7, data=[54, 0]),\n",
      "   midi.NoteOnEvent(tick=0, channel=7, data=[52, 80]),\n",
      "   midi.NoteOffEvent(tick=96, channel=7, data=[52, 0]),\n",
      "   midi.NoteOnEvent(tick=0, channel=7, data=[50, 80]),\n",
      "   midi.NoteOffEvent(tick=384, channel=7, data=[50, 0]),\n",
      "   midi.NoteOnEvent(tick=192, channel=7, data=[48, 80]),\n",
      "   midi.NoteOffEvent(tick=192, channel=7, data=[48, 0]),\n",
      "   midi.NoteOnEvent(tick=0, channel=7, data=[47, 80]),\n",
      "   midi.NoteOffEvent(tick=192, channel=7, data=[47, 0]),\n",
      "   midi.NoteOnEvent(tick=0, channel=7, data=[52, 80]),\n",
      "   midi.NoteOffEvent(tick=192, channel=7, data=[52, 0]),\n",
      "   midi.NoteOnEvent(tick=0, channel=7, data=[48, 80]),\n",
      "   midi.NoteOffEvent(tick=192, channel=7, data=[48, 0]),\n",
      "   midi.NoteOnEvent(tick=0, channel=7, data=[50, 80]),\n",
      "   midi.NoteOffEvent(tick=192, channel=7, data=[50, 0]),\n",
      "   midi.NoteOnEvent(tick=0, channel=7, data=[55, 80]),\n",
      "   midi.NoteOffEvent(tick=192, channel=7, data=[55, 0]),\n",
      "   midi.NoteOnEvent(tick=0, channel=7, data=[57, 80]),\n",
      "   midi.NoteOffEvent(tick=192, channel=7, data=[57, 0]),\n",
      "   midi.NoteOnEvent(tick=0, channel=7, data=[59, 80]),\n",
      "   midi.NoteOffEvent(tick=192, channel=7, data=[59, 0]),\n",
      "   midi.NoteOnEvent(tick=0, channel=7, data=[57, 80]),\n",
      "   midi.NoteOffEvent(tick=192, channel=7, data=[57, 0]),\n",
      "   midi.NoteOnEvent(tick=0, channel=7, data=[56, 80]),\n",
      "   midi.NoteOffEvent(tick=192, channel=7, data=[56, 0]),\n",
      "   midi.NoteOnEvent(tick=0, channel=7, data=[54, 80]),\n",
      "   midi.NoteOffEvent(tick=192, channel=7, data=[54, 0]),\n",
      "   midi.NoteOnEvent(tick=0, channel=7, data=[56, 80]),\n",
      "   midi.NoteOffEvent(tick=192, channel=7, data=[56, 0]),\n",
      "   midi.NoteOnEvent(tick=0, channel=7, data=[52, 80]),\n",
      "   midi.NoteOffEvent(tick=192, channel=7, data=[52, 0]),\n",
      "   midi.NoteOnEvent(tick=0, channel=7, data=[57, 80]),\n",
      "   midi.NoteOffEvent(tick=384, channel=7, data=[57, 0]),\n",
      "   midi.NoteOnEvent(tick=0, channel=7, data=[55, 80]),\n",
      "   midi.NoteOffEvent(tick=192, channel=7, data=[55, 0]),\n",
      "   midi.NoteOnEvent(tick=0, channel=7, data=[54, 80]),\n",
      "   midi.NoteOffEvent(tick=192, channel=7, data=[54, 0]),\n",
      "   midi.NoteOnEvent(tick=0, channel=7, data=[52, 80]),\n",
      "   midi.NoteOffEvent(tick=192, channel=7, data=[52, 0]),\n",
      "   midi.NoteOnEvent(tick=0, channel=7, data=[50, 80]),\n",
      "   midi.NoteOffEvent(tick=192, channel=7, data=[50, 0]),\n",
      "   midi.NoteOnEvent(tick=0, channel=7, data=[49, 80]),\n",
      "   midi.NoteOffEvent(tick=192, channel=7, data=[49, 0]),\n",
      "   midi.NoteOnEvent(tick=0, channel=7, data=[47, 80]),\n",
      "   midi.NoteOffEvent(tick=192, channel=7, data=[47, 0]),\n",
      "   midi.NoteOnEvent(tick=0, channel=7, data=[49, 80]),\n",
      "   midi.NoteOffEvent(tick=192, channel=7, data=[49, 0]),\n",
      "   midi.NoteOnEvent(tick=0, channel=7, data=[52, 80]),\n",
      "   midi.NoteOffEvent(tick=192, channel=7, data=[52, 0]),\n",
      "   midi.NoteOnEvent(tick=0, channel=7, data=[49, 80]),\n",
      "   midi.NoteOffEvent(tick=192, channel=7, data=[49, 0]),\n",
      "   midi.NoteOnEvent(tick=0, channel=7, data=[45, 80]),\n",
      "   midi.NoteOffEvent(tick=192, channel=7, data=[45, 0]),\n",
      "   midi.NoteOnEvent(tick=0, channel=7, data=[50, 80]),\n",
      "   midi.NoteOffEvent(tick=864, channel=7, data=[50, 0]),\n",
      "   midi.NoteOnEvent(tick=0, channel=7, data=[49, 80]),\n",
      "   midi.NoteOffEvent(tick=96, channel=7, data=[49, 0]),\n",
      "   midi.NoteOnEvent(tick=0, channel=7, data=[50, 80]),\n",
      "   midi.NoteOffEvent(tick=96, channel=7, data=[50, 0]),\n",
      "   midi.NoteOnEvent(tick=0, channel=7, data=[52, 80]),\n",
      "   midi.NoteOffEvent(tick=96, channel=7, data=[52, 0]),\n",
      "   midi.NoteOnEvent(tick=0, channel=7, data=[54, 80]),\n",
      "   midi.NoteOffEvent(tick=192, channel=7, data=[54, 0]),\n",
      "   midi.NoteOnEvent(tick=0, channel=7, data=[59, 80]),\n",
      "   midi.NoteOffEvent(tick=192, channel=7, data=[59, 0]),\n",
      "   midi.NoteOnEvent(tick=0, channel=7, data=[55, 80]),\n",
      "   midi.NoteOffEvent(tick=384, channel=7, data=[55, 0]),\n",
      "   midi.NoteOnEvent(tick=0, channel=7, data=[57, 80]),\n",
      "   midi.NoteOffEvent(tick=384, channel=7, data=[57, 0]),\n",
      "   midi.NoteOnEvent(tick=0, channel=7, data=[50, 80]),\n",
      "   midi.NoteOffEvent(tick=384, channel=7, data=[50, 0]),\n",
      "   midi.EndOfTrackEvent(tick=0, data=[])]),\n",
      " midi.Track(\\\n",
      "  [midi.TrackNameEvent(tick=0, text='Continuo', data=[67, 111, 110, 116, 105, 110, 117, 111]),\n",
      "   midi.ControlChangeEvent(tick=0, channel=8, data=[0, 0]),\n",
      "   midi.ProgramChangeEvent(tick=0, channel=8, data=[19]),\n",
      "   midi.ControlChangeEvent(tick=0, channel=8, data=[7, 110]),\n",
      "   midi.ControlChangeEvent(tick=0, channel=8, data=[10, 63]),\n",
      "   midi.ControlChangeEvent(tick=0, channel=8, data=[91, 127]),\n",
      "   midi.ControlChangeEvent(tick=0, channel=8, data=[93, 127]),\n",
      "   midi.KeySignatureEvent(tick=0, data=[2, 0]),\n",
      "   midi.NoteOnEvent(tick=768, channel=8, data=[50, 80]),\n",
      "   midi.NoteOffEvent(tick=192, channel=8, data=[50, 0]),\n",
      "   midi.NoteOnEvent(tick=0, channel=8, data=[62, 80]),\n",
      "   midi.NoteOffEvent(tick=192, channel=8, data=[62, 0]),\n",
      "   midi.NoteOnEvent(tick=0, channel=8, data=[61, 80]),\n",
      "   midi.NoteOffEvent(tick=192, channel=8, data=[61, 0]),\n",
      "   midi.NoteOnEvent(tick=0, channel=8, data=[57, 80]),\n",
      "   midi.NoteOffEvent(tick=192, channel=8, data=[57, 0]),\n",
      "   midi.NoteOnEvent(tick=0, channel=8, data=[62, 80]),\n",
      "   midi.NoteOffEvent(tick=192, channel=8, data=[62, 0]),\n",
      "   midi.NoteOnEvent(tick=0, channel=8, data=[61, 80]),\n",
      "   midi.NoteOffEvent(tick=96, channel=8, data=[61, 0]),\n",
      "   midi.NoteOnEvent(tick=0, channel=8, data=[59, 80]),\n",
      "   midi.NoteOffEvent(tick=96, channel=8, data=[59, 0]),\n",
      "   midi.NoteOnEvent(tick=0, channel=8, data=[57, 80]),\n",
      "   midi.NoteOffEvent(tick=96, channel=8, data=[57, 0]),\n",
      "   midi.NoteOnEvent(tick=0, channel=8, data=[55, 80]),\n",
      "   midi.NoteOffEvent(tick=96, channel=8, data=[55, 0]),\n",
      "   midi.NoteOnEvent(tick=0, channel=8, data=[54, 80]),\n",
      "   midi.NoteOffEvent(tick=96, channel=8, data=[54, 0]),\n",
      "   midi.NoteOnEvent(tick=0, channel=8, data=[52, 80]),\n",
      "   midi.NoteOffEvent(tick=96, channel=8, data=[52, 0]),\n",
      "   midi.NoteOnEvent(tick=0, channel=8, data=[50, 80]),\n",
      "   midi.NoteOffEvent(tick=192, channel=8, data=[50, 0]),\n",
      "   midi.NoteOnEvent(tick=0, channel=8, data=[47, 80]),\n",
      "   midi.NoteOffEvent(tick=192, channel=8, data=[47, 0]),\n",
      "   midi.NoteOnEvent(tick=0, channel=8, data=[43, 80]),\n",
      "   midi.NoteOffEvent(tick=192, channel=8, data=[43, 0]),\n",
      "   midi.NoteOnEvent(tick=0, channel=8, data=[45, 80]),\n",
      "   midi.NoteOffEvent(tick=192, channel=8, data=[45, 0]),\n",
      "   midi.NoteOnEvent(tick=0, channel=8, data=[38, 80]),\n",
      "   midi.NoteOffEvent(tick=192, channel=8, data=[38, 0]),\n",
      "   midi.NoteOnEvent(tick=0, channel=8, data=[40, 80]),\n",
      "   midi.NoteOffEvent(tick=96, channel=8, data=[40, 0]),\n",
      "   midi.NoteOnEvent(tick=0, channel=8, data=[42, 80]),\n",
      "   midi.NoteOffEvent(tick=96, channel=8, data=[42, 0]),\n",
      "   midi.NoteOnEvent(tick=0, channel=8, data=[43, 80]),\n",
      "   midi.NoteOffEvent(tick=96, channel=8, data=[43, 0]),\n",
      "   midi.NoteOnEvent(tick=0, channel=8, data=[45, 80]),\n",
      "   midi.NoteOffEvent(tick=96, channel=8, data=[45, 0]),\n",
      "   midi.NoteOnEvent(tick=0, channel=8, data=[47, 80]),\n",
      "   midi.NoteOffEvent(tick=96, channel=8, data=[47, 0]),\n",
      "   midi.NoteOnEvent(tick=0, channel=8, data=[49, 80]),\n",
      "   midi.NoteOffEvent(tick=96, channel=8, data=[49, 0]),\n",
      "   midi.NoteOnEvent(tick=0, channel=8, data=[50, 80]),\n",
      "   midi.NoteOffEvent(tick=192, channel=8, data=[50, 0]),\n",
      "   midi.NoteOnEvent(tick=0, channel=8, data=[62, 80]),\n",
      "   midi.NoteOffEvent(tick=192, channel=8, data=[62, 0]),\n",
      "   midi.NoteOnEvent(tick=0, channel=8, data=[61, 80]),\n",
      "   midi.NoteOffEvent(tick=192, channel=8, data=[61, 0]),\n",
      "   midi.NoteOnEvent(tick=0, channel=8, data=[57, 80]),\n",
      "   midi.NoteOffEvent(tick=192, channel=8, data=[57, 0]),\n",
      "   midi.NoteOnEvent(tick=0, channel=8, data=[62, 80]),\n",
      "   midi.NoteOffEvent(tick=192, channel=8, data=[62, 0]),\n",
      "   midi.NoteOnEvent(tick=0, channel=8, data=[61, 80]),\n",
      "   midi.NoteOffEvent(tick=96, channel=8, data=[61, 0]),\n",
      "   midi.NoteOnEvent(tick=0, channel=8, data=[59, 80]),\n",
      "   midi.NoteOffEvent(tick=96, channel=8, data=[59, 0]),\n",
      "   midi.NoteOnEvent(tick=0, channel=8, data=[57, 80]),\n",
      "   midi.NoteOffEvent(tick=96, channel=8, data=[57, 0]),\n",
      "   midi.NoteOnEvent(tick=0, channel=8, data=[55, 80]),\n",
      "   midi.NoteOffEvent(tick=96, channel=8, data=[55, 0]),\n",
      "   midi.NoteOnEvent(tick=0, channel=8, data=[54, 80]),\n",
      "   midi.NoteOffEvent(tick=96, channel=8, data=[54, 0]),\n",
      "   midi.NoteOnEvent(tick=0, channel=8, data=[52, 80]),\n",
      "   midi.NoteOffEvent(tick=96, channel=8, data=[52, 0]),\n",
      "   midi.NoteOnEvent(tick=0, channel=8, data=[50, 80]),\n",
      "   midi.NoteOffEvent(tick=192, channel=8, data=[50, 0]),\n",
      "   midi.NoteOnEvent(tick=0, channel=8, data=[47, 80]),\n",
      "   midi.NoteOffEvent(tick=192, channel=8, data=[47, 0]),\n",
      "   midi.NoteOnEvent(tick=0, channel=8, data=[43, 80]),\n",
      "   midi.NoteOffEvent(tick=192, channel=8, data=[43, 0]),\n",
      "   midi.NoteOnEvent(tick=0, channel=8, data=[45, 80]),\n",
      "   midi.NoteOffEvent(tick=192, channel=8, data=[45, 0]),\n",
      "   midi.NoteOnEvent(tick=0, channel=8, data=[38, 80]),\n",
      "   midi.NoteOffEvent(tick=192, channel=8, data=[38, 0]),\n",
      "   midi.NoteOnEvent(tick=0, channel=8, data=[40, 80]),\n",
      "   midi.NoteOffEvent(tick=96, channel=8, data=[40, 0]),\n",
      "   midi.NoteOnEvent(tick=0, channel=8, data=[42, 80]),\n",
      "   midi.NoteOffEvent(tick=96, channel=8, data=[42, 0]),\n",
      "   midi.NoteOnEvent(tick=0, channel=8, data=[43, 80]),\n",
      "   midi.NoteOffEvent(tick=96, channel=8, data=[43, 0]),\n",
      "   midi.NoteOnEvent(tick=0, channel=8, data=[45, 80]),\n",
      "   midi.NoteOffEvent(tick=96, channel=8, data=[45, 0]),\n",
      "   midi.NoteOnEvent(tick=0, channel=8, data=[47, 80]),\n",
      "   midi.NoteOffEvent(tick=96, channel=8, data=[47, 0]),\n",
      "   midi.NoteOnEvent(tick=0, channel=8, data=[49, 80]),\n",
      "   midi.NoteOffEvent(tick=96, channel=8, data=[49, 0]),\n",
      "   midi.NoteOnEvent(tick=0, channel=8, data=[50, 80]),\n",
      "   midi.NoteOffEvent(tick=192, channel=8, data=[50, 0]),\n",
      "   midi.NoteOnEvent(tick=0, channel=8, data=[62, 80]),\n",
      "   midi.NoteOffEvent(tick=192, channel=8, data=[62, 0]),\n",
      "   midi.NoteOnEvent(tick=0, channel=8, data=[59, 80]),\n",
      "   midi.NoteOffEvent(tick=192, channel=8, data=[59, 0]),\n",
      "   midi.NoteOnEvent(tick=0, channel=8, data=[54, 80]),\n",
      "   midi.NoteOffEvent(tick=192, channel=8, data=[54, 0]),\n",
      "   midi.NoteOnEvent(tick=0, channel=8, data=[56, 80]),\n",
      "   midi.NoteOffEvent(tick=192, channel=8, data=[56, 0]),\n",
      "   midi.NoteOnEvent(tick=0, channel=8, data=[52, 80]),\n",
      "   midi.NoteOffEvent(tick=192, channel=8, data=[52, 0]),\n",
      "   midi.NoteOnEvent(tick=0, channel=8, data=[56, 80]),\n",
      "   midi.NoteOffEvent(tick=192, channel=8, data=[56, 0]),\n",
      "   midi.NoteOnEvent(tick=0, channel=8, data=[59, 80]),\n",
      "   midi.NoteOffEvent(tick=192, channel=8, data=[59, 0]),\n",
      "   midi.NoteOnEvent(tick=0, channel=8, data=[49, 80]),\n",
      "   midi.NoteOffEvent(tick=192, channel=8, data=[49, 0]),\n",
      "   midi.NoteOnEvent(tick=0, channel=8, data=[61, 80]),\n",
      "   midi.NoteOffEvent(tick=192, channel=8, data=[61, 0]),\n",
      "   midi.NoteOnEvent(tick=0, channel=8, data=[57, 80]),\n",
      "   midi.NoteOffEvent(tick=192, channel=8, data=[57, 0]),\n",
      "   midi.NoteOnEvent(tick=0, channel=8, data=[52, 80]),\n",
      "   midi.NoteOffEvent(tick=192, channel=8, data=[52, 0]),\n",
      "   midi.NoteOnEvent(tick=0, channel=8, data=[54, 80]),\n",
      "   midi.NoteOffEvent(tick=192, channel=8, data=[54, 0]),\n",
      "   midi.NoteOnEvent(tick=0, channel=8, data=[42, 80]),\n",
      "   midi.NoteOffEvent(tick=192, channel=8, data=[42, 0]),\n",
      "   midi.NoteOnEvent(tick=0, channel=8, data=[54, 80]),\n",
      "   midi.NoteOffEvent(tick=192, channel=8, data=[54, 0]),\n",
      "   midi.NoteOnEvent(tick=0, channel=8, data=[57, 80]),\n",
      "   midi.NoteOffEvent(tick=192, channel=8, data=[57, 0]),\n",
      "   midi.NoteOnEvent(tick=0, channel=8, data=[47, 80]),\n",
      "   midi.NoteOffEvent(tick=192, channel=8, data=[47, 0]),\n",
      "   midi.NoteOnEvent(tick=0, channel=8, data=[59, 80]),\n",
      "   midi.NoteOffEvent(tick=96, channel=8, data=[59, 0]),\n",
      "   midi.NoteOnEvent(tick=0, channel=8, data=[61, 80]),\n",
      "   midi.NoteOffEvent(tick=96, channel=8, data=[61, 0]),\n",
      "   midi.NoteOnEvent(tick=0, channel=8, data=[59, 80]),\n",
      "   midi.NoteOffEvent(tick=96, channel=8, data=[59, 0]),\n",
      "   midi.NoteOnEvent(tick=0, channel=8, data=[57, 80]),\n",
      "   midi.NoteOffEvent(tick=96, channel=8, data=[57, 0]),\n",
      "   midi.NoteOnEvent(tick=0, channel=8, data=[56, 80]),\n",
      "   midi.NoteOffEvent(tick=96, channel=8, data=[56, 0]),\n",
      "   midi.NoteOnEvent(tick=0, channel=8, data=[54, 80]),\n",
      "   midi.NoteOffEvent(tick=96, channel=8, data=[54, 0]),\n",
      "   midi.NoteOnEvent(tick=0, channel=8, data=[56, 80]),\n",
      "   midi.NoteOffEvent(tick=96, channel=8, data=[56, 0]),\n",
      "   midi.NoteOnEvent(tick=0, channel=8, data=[57, 80]),\n",
      "   midi.NoteOffEvent(tick=96, channel=8, data=[57, 0]),\n",
      "   midi.NoteOnEvent(tick=0, channel=8, data=[59, 80]),\n",
      "   midi.NoteOffEvent(tick=96, channel=8, data=[59, 0]),\n",
      "   midi.NoteOnEvent(tick=0, channel=8, data=[57, 80]),\n",
      "   midi.NoteOffEvent(tick=96, channel=8, data=[57, 0]),\n",
      "   midi.NoteOnEvent(tick=0, channel=8, data=[56, 80]),\n",
      "   midi.NoteOffEvent(tick=192, channel=8, data=[56, 0]),\n",
      "   midi.NoteOnEvent(tick=0, channel=8, data=[52, 80]),\n",
      "   midi.NoteOffEvent(tick=192, channel=8, data=[52, 0]),\n",
      "   midi.NoteOnEvent(tick=0, channel=8, data=[57, 80]),\n",
      "   midi.NoteOffEvent(tick=192, channel=8, data=[57, 0]),\n",
      "   midi.NoteOnEvent(tick=0, channel=8, data=[61, 80]),\n",
      "   midi.NoteOffEvent(tick=192, channel=8, data=[61, 0]),\n",
      "   midi.NoteOnEvent(tick=0, channel=8, data=[64, 80]),\n",
      "   midi.NoteOffEvent(tick=192, channel=8, data=[64, 0]),\n",
      "   midi.NoteOnEvent(tick=0, channel=8, data=[52, 80]),\n",
      "   midi.NoteOffEvent(tick=192, channel=8, data=[52, 0]),\n",
      "   midi.NoteOnEvent(tick=0, channel=8, data=[57, 80]),\n",
      "   midi.NoteOffEvent(tick=192, channel=8, data=[57, 0]),\n",
      "   midi.NoteOnEvent(tick=0, channel=8, data=[56, 80]),\n",
      "   midi.NoteOffEvent(tick=96, channel=8, data=[56, 0]),\n",
      "   midi.NoteOnEvent(tick=0, channel=8, data=[54, 80]),\n",
      "   midi.NoteOffEvent(tick=96, channel=8, data=[54, 0]),\n",
      "   midi.NoteOnEvent(tick=0, channel=8, data=[52, 80]),\n",
      "   midi.NoteOffEvent(tick=96, channel=8, data=[52, 0]),\n",
      "   midi.NoteOnEvent(tick=0, channel=8, data=[50, 80]),\n",
      "   midi.NoteOffEvent(tick=96, channel=8, data=[50, 0]),\n",
      "   midi.NoteOnEvent(tick=0, channel=8, data=[49, 80]),\n",
      "   midi.NoteOffEvent(tick=96, channel=8, data=[49, 0]),\n",
      "   midi.NoteOnEvent(tick=0, channel=8, data=[47, 80]),\n",
      "   midi.NoteOffEvent(tick=96, channel=8, data=[47, 0]),\n",
      "   midi.NoteOnEvent(tick=0, channel=8, data=[45, 80]),\n",
      "   midi.NoteOffEvent(tick=384, channel=8, data=[45, 0]),\n",
      "   midi.NoteOnEvent(tick=384, channel=8, data=[49, 80]),\n",
      "   midi.NoteOffEvent(tick=384, channel=8, data=[49, 0]),\n",
      "   midi.NoteOnEvent(tick=576, channel=8, data=[42, 80]),\n",
      "   midi.NoteOffEvent(tick=192, channel=8, data=[42, 0]),\n",
      "   midi.NoteOnEvent(tick=0, channel=8, data=[54, 80]),\n",
      "   midi.NoteOffEvent(tick=192, channel=8, data=[54, 0]),\n",
      "   midi.NoteOnEvent(tick=0, channel=8, data=[58, 80]),\n",
      "   midi.NoteOffEvent(tick=192, channel=8, data=[58, 0]),\n",
      "   midi.NoteOnEvent(tick=0, channel=8, data=[59, 80]),\n",
      "   midi.NoteOffEvent(tick=192, channel=8, data=[59, 0]),\n",
      "   midi.NoteOnEvent(tick=0, channel=8, data=[47, 80]),\n",
      "   midi.NoteOffEvent(tick=192, channel=8, data=[47, 0]),\n",
      "   midi.NoteOnEvent(tick=0, channel=8, data=[50, 80]),\n",
      "   midi.NoteOffEvent(tick=192, channel=8, data=[50, 0]),\n",
      "   midi.NoteOnEvent(tick=0, channel=8, data=[54, 80]),\n",
      "   midi.NoteOffEvent(tick=192, channel=8, data=[54, 0]),\n",
      "   midi.NoteOnEvent(tick=0, channel=8, data=[59, 80]),\n",
      "   midi.NoteOffEvent(tick=192, channel=8, data=[59, 0]),\n",
      "   midi.NoteOnEvent(tick=0, channel=8, data=[60, 80]),\n",
      "   midi.NoteOffEvent(tick=96, channel=8, data=[60, 0]),\n",
      "   midi.NoteOnEvent(tick=0, channel=8, data=[59, 80]),\n",
      "   midi.NoteOffEvent(tick=96, channel=8, data=[59, 0]),\n",
      "   midi.NoteOnEvent(tick=0, channel=8, data=[57, 80]),\n",
      "   midi.NoteOffEvent(tick=96, channel=8, data=[57, 0]),\n",
      "   midi.NoteOnEvent(tick=0, channel=8, data=[55, 80]),\n",
      "   midi.NoteOffEvent(tick=96, channel=8, data=[55, 0]),\n",
      "   midi.NoteOnEvent(tick=0, channel=8, data=[54, 80]),\n",
      "   midi.NoteOffEvent(tick=96, channel=8, data=[54, 0]),\n",
      "   midi.NoteOnEvent(tick=0, channel=8, data=[52, 80]),\n",
      "   midi.NoteOffEvent(tick=96, channel=8, data=[52, 0]),\n",
      "   midi.NoteOnEvent(tick=0, channel=8, data=[51, 80]),\n",
      "   midi.NoteOffEvent(tick=384, channel=8, data=[51, 0]),\n",
      "   midi.NoteOnEvent(tick=576, channel=8, data=[47, 80]),\n",
      "   midi.NoteOffEvent(tick=192, channel=8, data=[47, 0]),\n",
      "   midi.NoteOnEvent(tick=0, channel=8, data=[59, 80]),\n",
      "   midi.NoteOffEvent(tick=192, channel=8, data=[59, 0]),\n",
      "   midi.NoteOnEvent(tick=0, channel=8, data=[63, 80]),\n",
      "   midi.NoteOffEvent(tick=192, channel=8, data=[63, 0]),\n",
      "   midi.NoteOnEvent(tick=0, channel=8, data=[64, 80]),\n",
      "   midi.NoteOffEvent(tick=192, channel=8, data=[64, 0]),\n",
      "   midi.NoteOnEvent(tick=0, channel=8, data=[52, 80]),\n",
      "   midi.NoteOffEvent(tick=192, channel=8, data=[52, 0]),\n",
      "   midi.NoteOnEvent(tick=0, channel=8, data=[55, 80]),\n",
      "   midi.NoteOffEvent(tick=192, channel=8, data=[55, 0]),\n",
      "   midi.NoteOnEvent(tick=0, channel=8, data=[59, 80]),\n",
      "   midi.NoteOffEvent(tick=192, channel=8, data=[59, 0]),\n",
      "   midi.NoteOnEvent(tick=0, channel=8, data=[64, 80]),\n",
      "   midi.NoteOffEvent(tick=192, channel=8, data=[64, 0]),\n",
      "   midi.NoteOnEvent(tick=0, channel=8, data=[52, 80]),\n",
      "   midi.NoteOffEvent(tick=192, channel=8, data=[52, 0]),\n",
      "   midi.NoteOnEvent(tick=0, channel=8, data=[64, 80]),\n",
      "   midi.NoteOffEvent(tick=192, channel=8, data=[64, 0]),\n",
      "   midi.NoteOnEvent(tick=0, channel=8, data=[62, 80]),\n",
      "   midi.NoteOffEvent(tick=192, channel=8, data=[62, 0]),\n",
      "   midi.NoteOnEvent(tick=0, channel=8, data=[61, 80]),\n",
      "   midi.NoteOffEvent(tick=192, channel=8, data=[61, 0]),\n",
      "   midi.NoteOnEvent(tick=0, channel=8, data=[57, 80]),\n",
      "   midi.NoteOffEvent(tick=192, channel=8, data=[57, 0]),\n",
      "   midi.NoteOnEvent(tick=0, channel=8, data=[61, 80]),\n",
      "   midi.NoteOffEvent(tick=192, channel=8, data=[61, 0]),\n",
      "   midi.NoteOnEvent(tick=0, channel=8, data=[57, 80]),\n",
      "   midi.NoteOffEvent(tick=192, channel=8, data=[57, 0]),\n",
      "   midi.NoteOnEvent(tick=0, channel=8, data=[62, 80]),\n",
      "   midi.NoteOffEvent(tick=192, channel=8, data=[62, 0]),\n",
      "   midi.NoteOnEvent(tick=0, channel=8, data=[50, 80]),\n",
      "   midi.NoteOffEvent(tick=192, channel=8, data=[50, 0]),\n",
      "   midi.NoteOnEvent(tick=0, channel=8, data=[62, 80]),\n",
      "   midi.NoteOffEvent(tick=192, channel=8, data=[62, 0]),\n",
      "   midi.NoteOnEvent(tick=0, channel=8, data=[61, 80]),\n",
      "   midi.NoteOffEvent(tick=192, channel=8, data=[61, 0]),\n",
      "   midi.NoteOnEvent(tick=0, channel=8, data=[59, 80]),\n",
      "   midi.NoteOffEvent(tick=192, channel=8, data=[59, 0]),\n",
      "   midi.NoteOnEvent(tick=0, channel=8, data=[57, 80]),\n",
      "   midi.NoteOffEvent(tick=192, channel=8, data=[57, 0]),\n",
      "   midi.NoteOnEvent(tick=0, channel=8, data=[55, 80]),\n",
      "   midi.NoteOffEvent(tick=192, channel=8, data=[55, 0]),\n",
      "   midi.NoteOnEvent(tick=0, channel=8, data=[54, 80]),\n",
      "   midi.NoteOffEvent(tick=192, channel=8, data=[54, 0]),\n",
      "   midi.NoteOnEvent(tick=0, channel=8, data=[52, 80]),\n",
      "   midi.NoteOffEvent(tick=192, channel=8, data=[52, 0]),\n",
      "   midi.NoteOnEvent(tick=0, channel=8, data=[50, 80]),\n",
      "   midi.NoteOffEvent(tick=192, channel=8, data=[50, 0]),\n",
      "   midi.NoteOnEvent(tick=0, channel=8, data=[49, 80]),\n",
      "   midi.NoteOffEvent(tick=192, channel=8, data=[49, 0]),\n",
      "   midi.NoteOnEvent(tick=0, channel=8, data=[52, 80]),\n",
      "   midi.NoteOffEvent(tick=192, channel=8, data=[52, 0]),\n",
      "   midi.NoteOnEvent(tick=0, channel=8, data=[45, 80]),\n",
      "   midi.NoteOffEvent(tick=192, channel=8, data=[45, 0]),\n",
      "   midi.NoteOnEvent(tick=0, channel=8, data=[47, 80]),\n",
      "   midi.NoteOffEvent(tick=192, channel=8, data=[47, 0]),\n",
      "   midi.NoteOnEvent(tick=0, channel=8, data=[49, 80]),\n",
      "   midi.NoteOffEvent(tick=192, channel=8, data=[49, 0]),\n",
      "   midi.NoteOnEvent(tick=0, channel=8, data=[45, 80]),\n",
      "   midi.NoteOffEvent(tick=192, channel=8, data=[45, 0]),\n",
      "   midi.NoteOnEvent(tick=0, channel=8, data=[50, 80]),\n",
      "   midi.NoteOffEvent(tick=192, channel=8, data=[50, 0]),\n",
      "   midi.NoteOnEvent(tick=0, channel=8, data=[55, 80]),\n",
      "   midi.NoteOffEvent(tick=192, channel=8, data=[55, 0]),\n",
      "   midi.NoteOnEvent(tick=0, channel=8, data=[57, 80]),\n",
      "   midi.NoteOffEvent(tick=192, channel=8, data=[57, 0]),\n",
      "   midi.NoteOnEvent(tick=0, channel=8, data=[45, 80]),\n",
      "   midi.NoteOffEvent(tick=192, channel=8, data=[45, 0]),\n",
      "   midi.NoteOnEvent(tick=0, channel=8, data=[50, 80]),\n",
      "   midi.NoteOffEvent(tick=192, channel=8, data=[50, 0]),\n",
      "   midi.NoteOnEvent(tick=0, channel=8, data=[45, 80]),\n",
      "   midi.NoteOffEvent(tick=192, channel=8, data=[45, 0]),\n",
      "   midi.NoteOnEvent(tick=0, channel=8, data=[42, 80]),\n",
      "   midi.NoteOffEvent(tick=192, channel=8, data=[42, 0]),\n",
      "   midi.NoteOnEvent(tick=0, channel=8, data=[45, 80]),\n",
      "   midi.NoteOffEvent(tick=192, channel=8, data=[45, 0]),\n",
      "   midi.NoteOnEvent(tick=0, channel=8, data=[38, 80]),\n",
      "   midi.NoteOffEvent(tick=192, channel=8, data=[38, 0]),\n",
      "   midi.NoteOnEvent(tick=0, channel=8, data=[50, 80]),\n",
      "   midi.NoteOffEvent(tick=192, channel=8, data=[50, 0]),\n",
      "   midi.NoteOnEvent(tick=0, channel=8, data=[50, 80]),\n",
      "   midi.NoteOffEvent(tick=192, channel=8, data=[50, 0]),\n",
      "   midi.NoteOnEvent(tick=0, channel=8, data=[38, 80]),\n",
      "   midi.NoteOffEvent(tick=192, channel=8, data=[38, 0]),\n",
      "   midi.NoteOnEvent(tick=0, channel=8, data=[38, 80]),\n",
      "   midi.NoteOffEvent(tick=192, channel=8, data=[38, 0]),\n",
      "   midi.NoteOnEvent(tick=0, channel=8, data=[50, 80]),\n",
      "   midi.NoteOffEvent(tick=192, channel=8, data=[50, 0]),\n",
      "   midi.NoteOnEvent(tick=0, channel=8, data=[50, 80]),\n",
      "   midi.NoteOffEvent(tick=192, channel=8, data=[50, 0]),\n",
      "   midi.NoteOnEvent(tick=0, channel=8, data=[38, 80]),\n",
      "   midi.NoteOffEvent(tick=192, channel=8, data=[38, 0]),\n",
      "   midi.NoteOnEvent(tick=0, channel=8, data=[38, 80]),\n",
      "   midi.NoteOffEvent(tick=192, channel=8, data=[38, 0]),\n",
      "   midi.NoteOnEvent(tick=0, channel=8, data=[50, 80]),\n",
      "   midi.NoteOffEvent(tick=192, channel=8, data=[50, 0]),\n",
      "   midi.NoteOnEvent(tick=0, channel=8, data=[50, 80]),\n",
      "   midi.NoteOffEvent(tick=192, channel=8, data=[50, 0]),\n",
      "   midi.NoteOnEvent(tick=0, channel=8, data=[38, 80]),\n",
      "   midi.NoteOffEvent(tick=192, channel=8, data=[38, 0]),\n",
      "   midi.NoteOnEvent(tick=0, channel=8, data=[43, 80]),\n",
      "   midi.NoteOffEvent(tick=192, channel=8, data=[43, 0]),\n",
      "   midi.NoteOnEvent(tick=0, channel=8, data=[55, 80]),\n",
      "   midi.NoteOffEvent(tick=96, channel=8, data=[55, 0]),\n",
      "   midi.NoteOnEvent(tick=0, channel=8, data=[57, 80]),\n",
      "   midi.NoteOffEvent(tick=96, channel=8, data=[57, 0]),\n",
      "   midi.NoteOnEvent(tick=0, channel=8, data=[55, 80]),\n",
      "   midi.NoteOffEvent(tick=96, channel=8, data=[55, 0]),\n",
      "   midi.NoteOnEvent(tick=0, channel=8, data=[54, 80]),\n",
      "   midi.NoteOffEvent(tick=96, channel=8, data=[54, 0]),\n",
      "   midi.NoteOnEvent(tick=0, channel=8, data=[52, 80]),\n",
      "   midi.NoteOffEvent(tick=96, channel=8, data=[52, 0]),\n",
      "   midi.NoteOnEvent(tick=0, channel=8, data=[50, 80]),\n",
      "   midi.NoteOffEvent(tick=96, channel=8, data=[50, 0]),\n",
      "   midi.NoteOnEvent(tick=0, channel=8, data=[49, 80]),\n",
      "   midi.NoteOffEvent(tick=96, channel=8, data=[49, 0]),\n",
      "   midi.NoteOnEvent(tick=0, channel=8, data=[50, 80]),\n",
      "   midi.NoteOffEvent(tick=96, channel=8, data=[50, 0]),\n",
      "   midi.NoteOnEvent(tick=0, channel=8, data=[52, 80]),\n",
      "   midi.NoteOffEvent(tick=96, channel=8, data=[52, 0]),\n",
      "   midi.NoteOnEvent(tick=0, channel=8, data=[54, 80]),\n",
      "   midi.NoteOffEvent(tick=96, channel=8, data=[54, 0]),\n",
      "   midi.NoteOnEvent(tick=0, channel=8, data=[52, 80]),\n",
      "   midi.NoteOffEvent(tick=96, channel=8, data=[52, 0]),\n",
      "   midi.NoteOnEvent(tick=0, channel=8, data=[50, 80]),\n",
      "   midi.NoteOffEvent(tick=96, channel=8, data=[50, 0]),\n",
      "   midi.NoteOnEvent(tick=0, channel=8, data=[49, 80]),\n",
      "   midi.NoteOffEvent(tick=96, channel=8, data=[49, 0]),\n",
      "   midi.NoteOnEvent(tick=0, channel=8, data=[47, 80]),\n",
      "   midi.NoteOffEvent(tick=96, channel=8, data=[47, 0]),\n",
      "   midi.NoteOnEvent(tick=0, channel=8, data=[45, 80]),\n",
      "   midi.NoteOffEvent(tick=192, channel=8, data=[45, 0]),\n",
      "   midi.NoteOnEvent(tick=0, channel=8, data=[57, 80]),\n",
      "   midi.NoteOffEvent(tick=192, channel=8, data=[57, 0]),\n",
      "   midi.NoteOnEvent(tick=0, channel=8, data=[57, 80]),\n",
      "   midi.NoteOffEvent(tick=192, channel=8, data=[57, 0]),\n",
      "   midi.NoteOnEvent(tick=0, channel=8, data=[55, 80]),\n",
      "   midi.NoteOffEvent(tick=192, channel=8, data=[55, 0]),\n",
      "   midi.NoteOnEvent(tick=0, channel=8, data=[54, 80]),\n",
      "   midi.NoteOffEvent(tick=192, channel=8, data=[54, 0]),\n",
      "   midi.NoteOnEvent(tick=0, channel=8, data=[59, 80]),\n",
      "   midi.NoteOffEvent(tick=192, channel=8, data=[59, 0]),\n",
      "   midi.NoteOnEvent(tick=0, channel=8, data=[55, 80]),\n",
      "   midi.NoteOffEvent(tick=192, channel=8, data=[55, 0]),\n",
      "   midi.NoteOnEvent(tick=0, channel=8, data=[57, 80]),\n",
      "   midi.NoteOffEvent(tick=192, channel=8, data=[57, 0]),\n",
      "   midi.NoteOnEvent(tick=0, channel=8, data=[62, 80]),\n",
      "   midi.NoteOffEvent(tick=192, channel=8, data=[62, 0]),\n",
      "   midi.NoteOnEvent(tick=0, channel=8, data=[61, 80]),\n",
      "   midi.NoteOffEvent(tick=96, channel=8, data=[61, 0]),\n",
      "   midi.NoteOnEvent(tick=0, channel=8, data=[59, 80]),\n",
      "   midi.NoteOffEvent(tick=96, channel=8, data=[59, 0]),\n",
      "   midi.NoteOnEvent(tick=0, channel=8, data=[57, 80]),\n",
      "   midi.NoteOffEvent(tick=96, channel=8, data=[57, 0]),\n",
      "   midi.NoteOnEvent(tick=0, channel=8, data=[55, 80]),\n",
      "   midi.NoteOffEvent(tick=96, channel=8, data=[55, 0]),\n",
      "   midi.NoteOnEvent(tick=0, channel=8, data=[54, 80]),\n",
      "   midi.NoteOffEvent(tick=96, channel=8, data=[54, 0]),\n",
      "   midi.NoteOnEvent(tick=0, channel=8, data=[52, 80]),\n",
      "   midi.NoteOffEvent(tick=96, channel=8, data=[52, 0]),\n",
      "   midi.NoteOnEvent(tick=0, channel=8, data=[50, 80]),\n",
      "   midi.NoteOffEvent(tick=192, channel=8, data=[50, 0]),\n",
      "   midi.NoteOnEvent(tick=0, channel=8, data=[62, 80]),\n",
      "   midi.NoteOffEvent(tick=192, channel=8, data=[62, 0]),\n",
      "   midi.NoteOnEvent(tick=0, channel=8, data=[61, 80]),\n",
      "   midi.NoteOffEvent(tick=192, channel=8, data=[61, 0]),\n",
      "   midi.NoteOnEvent(tick=0, channel=8, data=[57, 80]),\n",
      "   midi.NoteOffEvent(tick=192, channel=8, data=[57, 0]),\n",
      "   midi.NoteOnEvent(tick=0, channel=8, data=[62, 80]),\n",
      "   midi.NoteOffEvent(tick=192, channel=8, data=[62, 0]),\n",
      "   midi.NoteOnEvent(tick=0, channel=8, data=[61, 80]),\n",
      "   midi.NoteOffEvent(tick=96, channel=8, data=[61, 0]),\n",
      "   midi.NoteOnEvent(tick=0, channel=8, data=[59, 80]),\n",
      "   midi.NoteOffEvent(tick=96, channel=8, data=[59, 0]),\n",
      "   midi.NoteOnEvent(tick=0, channel=8, data=[57, 80]),\n",
      "   midi.NoteOffEvent(tick=96, channel=8, data=[57, 0]),\n",
      "   midi.NoteOnEvent(tick=0, channel=8, data=[55, 80]),\n",
      "   midi.NoteOffEvent(tick=96, channel=8, data=[55, 0]),\n",
      "   midi.NoteOnEvent(tick=0, channel=8, data=[54, 80]),\n",
      "   midi.NoteOffEvent(tick=96, channel=8, data=[54, 0]),\n",
      "   midi.NoteOnEvent(tick=0, channel=8, data=[52, 80]),\n",
      "   midi.NoteOffEvent(tick=96, channel=8, data=[52, 0]),\n",
      "   midi.NoteOnEvent(tick=0, channel=8, data=[50, 80]),\n",
      "   midi.NoteOffEvent(tick=192, channel=8, data=[50, 0]),\n",
      "   midi.NoteOnEvent(tick=0, channel=8, data=[47, 80]),\n",
      "   midi.NoteOffEvent(tick=192, channel=8, data=[47, 0]),\n",
      "   midi.NoteOnEvent(tick=0, channel=8, data=[43, 80]),\n",
      "   midi.NoteOffEvent(tick=192, channel=8, data=[43, 0]),\n",
      "   midi.NoteOnEvent(tick=0, channel=8, data=[45, 80]),\n",
      "   midi.NoteOffEvent(tick=192, channel=8, data=[45, 0]),\n",
      "   midi.NoteOnEvent(tick=0, channel=8, data=[38, 80]),\n",
      "   midi.NoteOffEvent(tick=192, channel=8, data=[38, 0]),\n",
      "   midi.NoteOnEvent(tick=0, channel=8, data=[40, 80]),\n",
      "   midi.NoteOffEvent(tick=96, channel=8, data=[40, 0]),\n",
      "   midi.NoteOnEvent(tick=0, channel=8, data=[42, 80]),\n",
      "   midi.NoteOffEvent(tick=96, channel=8, data=[42, 0]),\n",
      "   midi.NoteOnEvent(tick=0, channel=8, data=[43, 80]),\n",
      "   midi.NoteOffEvent(tick=96, channel=8, data=[43, 0]),\n",
      "   midi.NoteOnEvent(tick=0, channel=8, data=[45, 80]),\n",
      "   midi.NoteOffEvent(tick=96, channel=8, data=[45, 0]),\n",
      "   midi.NoteOnEvent(tick=0, channel=8, data=[47, 80]),\n",
      "   midi.NoteOffEvent(tick=96, channel=8, data=[47, 0]),\n",
      "   midi.NoteOnEvent(tick=0, channel=8, data=[49, 80]),\n",
      "   midi.NoteOffEvent(tick=96, channel=8, data=[49, 0]),\n",
      "   midi.NoteOnEvent(tick=0, channel=8, data=[50, 80]),\n",
      "   midi.NoteOffEvent(tick=96, channel=8, data=[50, 0]),\n",
      "   midi.NoteOnEvent(tick=0, channel=8, data=[52, 80]),\n",
      "   midi.NoteOffEvent(tick=96, channel=8, data=[52, 0]),\n",
      "   midi.NoteOnEvent(tick=0, channel=8, data=[54, 80]),\n",
      "   midi.NoteOffEvent(tick=96, channel=8, data=[54, 0]),\n",
      "   midi.NoteOnEvent(tick=96, channel=8, data=[54, 80]),\n",
      "   midi.NoteOffEvent(tick=96, channel=8, data=[54, 0]),\n",
      "   midi.NoteOnEvent(tick=96, channel=8, data=[54, 80]),\n",
      "   midi.NoteOffEvent(tick=96, channel=8, data=[54, 0]),\n",
      "   midi.NoteOnEvent(tick=96, channel=8, data=[47, 80]),\n",
      "   midi.NoteOffEvent(tick=512, channel=8, data=[47, 0]),\n",
      "   midi.NoteOnEvent(tick=64, channel=8, data=[49, 80]),\n",
      "   midi.NoteOffEvent(tick=96, channel=8, data=[49, 0]),\n",
      "   midi.NoteOnEvent(tick=0, channel=8, data=[50, 80]),\n",
      "   midi.NoteOffEvent(tick=96, channel=8, data=[50, 0]),\n",
      "   midi.NoteOnEvent(tick=0, channel=8, data=[52, 80]),\n",
      "   midi.NoteOffEvent(tick=96, channel=8, data=[52, 0]),\n",
      "   midi.NoteOnEvent(tick=0, channel=8, data=[54, 80]),\n",
      "   midi.NoteOffEvent(tick=96, channel=8, data=[54, 0]),\n",
      "   midi.NoteOnEvent(tick=0, channel=8, data=[55, 80]),\n",
      "   midi.NoteOffEvent(tick=96, channel=8, data=[55, 0]),\n",
      "   midi.NoteOnEvent(tick=96, channel=8, data=[55, 80]),\n",
      "   midi.NoteOffEvent(tick=96, channel=8, data=[55, 0]),\n",
      "   midi.NoteOnEvent(tick=96, channel=8, data=[55, 80]),\n",
      "   midi.NoteOffEvent(tick=96, channel=8, data=[55, 0]),\n",
      "   midi.NoteOnEvent(tick=96, channel=8, data=[45, 80]),\n",
      "   midi.NoteOffEvent(tick=512, channel=8, data=[45, 0]),\n",
      "   midi.NoteOnEvent(tick=64, channel=8, data=[47, 80]),\n",
      "   midi.NoteOffEvent(tick=96, channel=8, data=[47, 0]),\n",
      "   midi.NoteOnEvent(tick=0, channel=8, data=[49, 80]),\n",
      "   midi.NoteOffEvent(tick=96, channel=8, data=[49, 0]),\n",
      "   midi.NoteOnEvent(tick=0, channel=8, data=[50, 80]),\n",
      "   midi.NoteOffEvent(tick=192, channel=8, data=[50, 0]),\n",
      "   midi.NoteOnEvent(tick=0, channel=8, data=[62, 80]),\n",
      "   midi.NoteOffEvent(tick=192, channel=8, data=[62, 0]),\n",
      "   midi.NoteOnEvent(tick=0, channel=8, data=[59, 80]),\n",
      "   midi.NoteOffEvent(tick=192, channel=8, data=[59, 0]),\n",
      "   midi.NoteOnEvent(tick=0, channel=8, data=[54, 80]),\n",
      "   midi.NoteOffEvent(tick=192, channel=8, data=[54, 0]),\n",
      "   midi.NoteOnEvent(tick=0, channel=8, data=[56, 80]),\n",
      "   midi.NoteOffEvent(tick=192, channel=8, data=[56, 0]),\n",
      "   midi.NoteOnEvent(tick=0, channel=8, data=[44, 80]),\n",
      "   midi.NoteOffEvent(tick=192, channel=8, data=[44, 0]),\n",
      "   midi.NoteOnEvent(tick=0, channel=8, data=[56, 80]),\n",
      "   midi.NoteOffEvent(tick=192, channel=8, data=[56, 0]),\n",
      "   midi.NoteOnEvent(tick=0, channel=8, data=[59, 80]),\n",
      "   midi.NoteOffEvent(tick=192, channel=8, data=[59, 0]),\n",
      "   midi.NoteOnEvent(tick=0, channel=8, data=[49, 80]),\n",
      "   midi.NoteOffEvent(tick=192, channel=8, data=[49, 0]),\n",
      "   midi.NoteOnEvent(tick=0, channel=8, data=[61, 80]),\n",
      "   midi.NoteOffEvent(tick=192, channel=8, data=[61, 0]),\n",
      "   midi.NoteOnEvent(tick=0, channel=8, data=[57, 80]),\n",
      "   midi.NoteOffEvent(tick=192, channel=8, data=[57, 0]),\n",
      "   midi.NoteOnEvent(tick=0, channel=8, data=[52, 80]),\n",
      "   midi.NoteOffEvent(tick=192, channel=8, data=[52, 0]),\n",
      "   midi.NoteOnEvent(tick=0, channel=8, data=[54, 80]),\n",
      "   midi.NoteOffEvent(tick=192, channel=8, data=[54, 0]),\n",
      "   midi.NoteOnEvent(tick=0, channel=8, data=[42, 80]),\n",
      "   midi.NoteOffEvent(tick=192, channel=8, data=[42, 0]),\n",
      "   midi.NoteOnEvent(tick=0, channel=8, data=[54, 80]),\n",
      "   midi.NoteOffEvent(tick=192, channel=8, data=[54, 0]),\n",
      "   midi.NoteOnEvent(tick=0, channel=8, data=[57, 80]),\n",
      "   midi.NoteOffEvent(tick=192, channel=8, data=[57, 0]),\n",
      "   midi.NoteOnEvent(tick=0, channel=8, data=[47, 80]),\n",
      "   midi.NoteOffEvent(tick=192, channel=8, data=[47, 0]),\n",
      "   midi.NoteOnEvent(tick=0, channel=8, data=[59, 80]),\n",
      "   midi.NoteOffEvent(tick=96, channel=8, data=[59, 0]),\n",
      "   midi.NoteOnEvent(tick=0, channel=8, data=[61, 80]),\n",
      "   midi.NoteOffEvent(tick=96, channel=8, data=[61, 0]),\n",
      "   midi.NoteOnEvent(tick=0, channel=8, data=[59, 80]),\n",
      "   midi.NoteOffEvent(tick=96, channel=8, data=[59, 0]),\n",
      "   midi.NoteOnEvent(tick=0, channel=8, data=[57, 80]),\n",
      "   midi.NoteOffEvent(tick=96, channel=8, data=[57, 0]),\n",
      "   midi.NoteOnEvent(tick=0, channel=8, data=[56, 80]),\n",
      "   midi.NoteOffEvent(tick=96, channel=8, data=[56, 0]),\n",
      "   midi.NoteOnEvent(tick=0, channel=8, data=[54, 80]),\n",
      "   midi.NoteOffEvent(tick=96, channel=8, data=[54, 0]),\n",
      "   midi.NoteOnEvent(tick=0, channel=8, data=[56, 80]),\n",
      "   midi.NoteOffEvent(tick=96, channel=8, data=[56, 0]),\n",
      "   midi.NoteOnEvent(tick=0, channel=8, data=[57, 80]),\n",
      "   midi.NoteOffEvent(tick=96, channel=8, data=[57, 0]),\n",
      "   midi.NoteOnEvent(tick=0, channel=8, data=[59, 80]),\n",
      "   midi.NoteOffEvent(tick=96, channel=8, data=[59, 0]),\n",
      "   midi.NoteOnEvent(tick=0, channel=8, data=[57, 80]),\n",
      "   midi.NoteOffEvent(tick=96, channel=8, data=[57, 0]),\n",
      "   midi.NoteOnEvent(tick=0, channel=8, data=[56, 80]),\n",
      "   midi.NoteOffEvent(tick=192, channel=8, data=[56, 0]),\n",
      "   midi.NoteOnEvent(tick=0, channel=8, data=[52, 80]),\n",
      "   midi.NoteOffEvent(tick=192, channel=8, data=[52, 0]),\n",
      "   midi.NoteOnEvent(tick=0, channel=8, data=[57, 80]),\n",
      "   midi.NoteOffEvent(tick=192, channel=8, data=[57, 0]),\n",
      "   midi.NoteOnEvent(tick=0, channel=8, data=[61, 80]),\n",
      "   midi.NoteOffEvent(tick=192, channel=8, data=[61, 0]),\n",
      "   midi.NoteOnEvent(tick=0, channel=8, data=[64, 80]),\n",
      "   midi.NoteOffEvent(tick=192, channel=8, data=[64, 0]),\n",
      "   midi.NoteOnEvent(tick=0, channel=8, data=[52, 80]),\n",
      "   midi.NoteOffEvent(tick=192, channel=8, data=[52, 0]),\n",
      "   midi.NoteOnEvent(tick=0, channel=8, data=[57, 80]),\n",
      "   midi.NoteOffEvent(tick=192, channel=8, data=[57, 0]),\n",
      "   midi.NoteOnEvent(tick=0, channel=8, data=[52, 80]),\n",
      "   midi.NoteOffEvent(tick=192, channel=8, data=[52, 0]),\n",
      "   midi.NoteOnEvent(tick=0, channel=8, data=[49, 80]),\n",
      "   midi.NoteOffEvent(tick=192, channel=8, data=[49, 0]),\n",
      "   midi.NoteOnEvent(tick=0, channel=8, data=[45, 80]),\n",
      "   midi.NoteOffEvent(tick=192, channel=8, data=[45, 0]),\n",
      "   midi.NoteOnEvent(tick=0, channel=8, data=[40, 80]),\n",
      "   midi.NoteOffEvent(tick=192, channel=8, data=[40, 0]),\n",
      "   midi.NoteOnEvent(tick=0, channel=8, data=[52, 80]),\n",
      "   midi.NoteOffEvent(tick=192, channel=8, data=[52, 0]),\n",
      "   midi.NoteOnEvent(tick=0, channel=8, data=[56, 80]),\n",
      "   midi.NoteOffEvent(tick=192, channel=8, data=[56, 0]),\n",
      "   midi.NoteOnEvent(tick=0, channel=8, data=[59, 80]),\n",
      "   midi.NoteOffEvent(tick=192, channel=8, data=[59, 0]),\n",
      "   midi.NoteOnEvent(tick=0, channel=8, data=[52, 80]),\n",
      "   midi.NoteOffEvent(tick=192, channel=8, data=[52, 0]),\n",
      "   midi.NoteOnEvent(tick=0, channel=8, data=[40, 80]),\n",
      "   midi.NoteOffEvent(tick=192, channel=8, data=[40, 0]),\n",
      "   midi.NoteOnEvent(tick=0, channel=8, data=[52, 80]),\n",
      "   midi.NoteOffEvent(tick=192, channel=8, data=[52, 0]),\n",
      "   midi.NoteOnEvent(tick=0, channel=8, data=[50, 80]),\n",
      "   midi.NoteOffEvent(tick=192, channel=8, data=[50, 0]),\n",
      "   midi.NoteOnEvent(tick=0, channel=8, data=[49, 80]),\n",
      "   midi.NoteOffEvent(tick=192, channel=8, data=[49, 0]),\n",
      "   midi.NoteOnEvent(tick=0, channel=8, data=[54, 80]),\n",
      "   midi.NoteOffEvent(tick=192, channel=8, data=[54, 0]),\n",
      "   midi.NoteOnEvent(tick=0, channel=8, data=[50, 80]),\n",
      "   midi.NoteOffEvent(tick=192, channel=8, data=[50, 0]),\n",
      "   midi.NoteOnEvent(tick=0, channel=8, data=[52, 80]),\n",
      "   midi.NoteOffEvent(tick=192, channel=8, data=[52, 0]),\n",
      "   midi.NoteOnEvent(tick=0, channel=8, data=[57, 80]),\n",
      "   midi.NoteOffEvent(tick=192, channel=8, data=[57, 0]),\n",
      "   midi.NoteOnEvent(tick=0, channel=8, data=[59, 80]),\n",
      "   midi.NoteOffEvent(tick=192, channel=8, data=[59, 0]),\n",
      "   midi.NoteOnEvent(tick=0, channel=8, data=[61, 80]),\n",
      "   midi.NoteOffEvent(tick=192, channel=8, data=[61, 0]),\n",
      "   midi.NoteOnEvent(tick=0, channel=8, data=[59, 80]),\n",
      "   midi.NoteOffEvent(tick=192, channel=8, data=[59, 0]),\n",
      "   midi.NoteOnEvent(tick=0, channel=8, data=[57, 80]),\n",
      "   midi.NoteOffEvent(tick=192, channel=8, data=[57, 0]),\n",
      "   midi.NoteOnEvent(tick=0, channel=8, data=[45, 80]),\n",
      "   midi.NoteOffEvent(tick=192, channel=8, data=[45, 0]),\n",
      "   midi.NoteOnEvent(tick=0, channel=8, data=[49, 80]),\n",
      "   midi.NoteOffEvent(tick=192, channel=8, data=[49, 0]),\n",
      "   midi.NoteOnEvent(tick=0, channel=8, data=[52, 80]),\n",
      "   midi.NoteOffEvent(tick=192, channel=8, data=[52, 0]),\n",
      "   midi.NoteOnEvent(tick=0, channel=8, data=[57, 80]),\n",
      "   midi.NoteOffEvent(tick=192, channel=8, data=[57, 0]),\n",
      "   midi.NoteOnEvent(tick=0, channel=8, data=[45, 80]),\n",
      "   midi.NoteOffEvent(tick=192, channel=8, data=[45, 0]),\n",
      "   midi.NoteOnEvent(tick=0, channel=8, data=[57, 80]),\n",
      "   midi.NoteOffEvent(tick=192, channel=8, data=[57, 0]),\n",
      "   midi.NoteOnEvent(tick=0, channel=8, data=[55, 80]),\n",
      "   midi.NoteOffEvent(tick=192, channel=8, data=[55, 0]),\n",
      "   midi.NoteOnEvent(tick=0, channel=8, data=[54, 80]),\n",
      "   midi.NoteOffEvent(tick=192, channel=8, data=[54, 0]),\n",
      "   midi.NoteOnEvent(tick=0, channel=8, data=[57, 80]),\n",
      "   midi.NoteOffEvent(tick=192, channel=8, data=[57, 0]),\n",
      "   midi.NoteOnEvent(tick=0, channel=8, data=[55, 80]),\n",
      "   midi.NoteOffEvent(tick=192, channel=8, data=[55, 0]),\n",
      "   midi.NoteOnEvent(tick=0, channel=8, data=[57, 80]),\n",
      "   midi.NoteOffEvent(tick=192, channel=8, data=[57, 0]),\n",
      "   midi.NoteOnEvent(tick=0, channel=8, data=[50, 80]),\n",
      "   midi.NoteOffEvent(tick=192, channel=8, data=[50, 0]),\n",
      "   midi.NoteOnEvent(tick=0, channel=8, data=[52, 80]),\n",
      "   midi.NoteOffEvent(tick=192, channel=8, data=[52, 0]),\n",
      "   midi.NoteOnEvent(tick=0, channel=8, data=[54, 80]),\n",
      "   midi.NoteOffEvent(tick=192, channel=8, data=[54, 0]),\n",
      "   midi.NoteOnEvent(tick=0, channel=8, data=[52, 80]),\n",
      "   midi.NoteOffEvent(tick=192, channel=8, data=[52, 0]),\n",
      "   midi.NoteOnEvent(tick=0, channel=8, data=[51, 80]),\n",
      "   midi.NoteOffEvent(tick=192, channel=8, data=[51, 0]),\n",
      "   midi.NoteOnEvent(tick=0, channel=8, data=[49, 80]),\n",
      "   midi.NoteOffEvent(tick=192, channel=8, data=[49, 0]),\n",
      "   midi.NoteOnEvent(tick=0, channel=8, data=[51, 80]),\n",
      "   midi.NoteOffEvent(tick=192, channel=8, data=[51, 0]),\n",
      "   midi.NoteOnEvent(tick=0, channel=8, data=[47, 80]),\n",
      "   midi.NoteOffEvent(tick=192, channel=8, data=[47, 0]),\n",
      "   midi.NoteOnEvent(tick=0, channel=8, data=[40, 80]),\n",
      "   midi.NoteOffEvent(tick=192, channel=8, data=[40, 0]),\n",
      "   midi.NoteOnEvent(tick=0, channel=8, data=[52, 80]),\n",
      "   midi.NoteOffEvent(tick=192, channel=8, data=[52, 0]),\n",
      "   midi.NoteOnEvent(tick=0, channel=8, data=[50, 80]),\n",
      "   midi.NoteOffEvent(tick=192, channel=8, data=[50, 0]),\n",
      "   midi.NoteOnEvent(tick=0, channel=8, data=[49, 80]),\n",
      "   midi.NoteOffEvent(tick=192, channel=8, data=[49, 0]),\n",
      "   midi.NoteOnEvent(tick=0, channel=8, data=[47, 80]),\n",
      "   midi.NoteOffEvent(tick=192, channel=8, data=[47, 0]),\n",
      "   midi.NoteOnEvent(tick=0, channel=8, data=[45, 80]),\n",
      "   midi.NoteOffEvent(tick=192, channel=8, data=[45, 0]),\n",
      "   midi.NoteOnEvent(tick=0, channel=8, data=[44, 80]),\n",
      "   midi.NoteOffEvent(tick=192, channel=8, data=[44, 0]),\n",
      "   midi.NoteOnEvent(tick=0, channel=8, data=[42, 80]),\n",
      "   midi.NoteOffEvent(tick=192, channel=8, data=[42, 0]),\n",
      "   midi.NoteOnEvent(tick=0, channel=8, data=[44, 80]),\n",
      "   midi.NoteOffEvent(tick=192, channel=8, data=[44, 0]),\n",
      "   midi.NoteOnEvent(tick=0, channel=8, data=[47, 80]),\n",
      "   midi.NoteOffEvent(tick=192, channel=8, data=[47, 0]),\n",
      "   midi.NoteOnEvent(tick=0, channel=8, data=[44, 80]),\n",
      "   midi.NoteOffEvent(tick=192, channel=8, data=[44, 0]),\n",
      "   midi.NoteOnEvent(tick=0, channel=8, data=[40, 80]),\n",
      "   midi.NoteOffEvent(tick=192, channel=8, data=[40, 0]),\n",
      "   midi.NoteOnEvent(tick=0, channel=8, data=[45, 80]),\n",
      "   midi.NoteOffEvent(tick=192, channel=8, data=[45, 0]),\n",
      "   midi.NoteOnEvent(tick=0, channel=8, data=[57, 80]),\n",
      "   midi.NoteOffEvent(tick=192, channel=8, data=[57, 0]),\n",
      "   midi.NoteOnEvent(tick=0, channel=8, data=[45, 80]),\n",
      "   midi.NoteOffEvent(tick=192, channel=8, data=[45, 0]),\n",
      "   midi.NoteOnEvent(tick=0, channel=8, data=[50, 80]),\n",
      "   midi.NoteOffEvent(tick=192, channel=8, data=[50, 0]),\n",
      "   midi.NoteOnEvent(tick=0, channel=8, data=[45, 80]),\n",
      "   midi.NoteOffEvent(tick=192, channel=8, data=[45, 0]),\n",
      "   midi.NoteOnEvent(tick=0, channel=8, data=[57, 80]),\n",
      "   midi.NoteOffEvent(tick=192, channel=8, data=[57, 0]),\n",
      "   midi.NoteOnEvent(tick=0, channel=8, data=[49, 80]),\n",
      "   midi.NoteOffEvent(tick=192, channel=8, data=[49, 0]),\n",
      "   midi.NoteOnEvent(tick=0, channel=8, data=[54, 80]),\n",
      "   midi.NoteOffEvent(tick=192, channel=8, data=[54, 0]),\n",
      "   midi.NoteOnEvent(tick=768, channel=8, data=[57, 80]),\n",
      "   midi.NoteOffEvent(tick=192, channel=8, data=[57, 0]),\n",
      "   midi.NoteOnEvent(tick=0, channel=8, data=[56, 80]),\n",
      "   midi.NoteOffEvent(tick=96, channel=8, data=[56, 0]),\n",
      "   midi.NoteOnEvent(tick=0, channel=8, data=[54, 80]),\n",
      "   midi.NoteOffEvent(tick=96, channel=8, data=[54, 0]),\n",
      "   midi.NoteOnEvent(tick=0, channel=8, data=[52, 80]),\n",
      "   midi.NoteOffEvent(tick=96, channel=8, data=[52, 0]),\n",
      "   midi.NoteOnEvent(tick=0, channel=8, data=[50, 80]),\n",
      "   midi.NoteOffEvent(tick=96, channel=8, data=[50, 0]),\n",
      "   midi.NoteOnEvent(tick=0, channel=8, data=[49, 80]),\n",
      "   midi.NoteOffEvent(tick=96, channel=8, data=[49, 0]),\n",
      "   midi.NoteOnEvent(tick=0, channel=8, data=[47, 80]),\n",
      "   midi.NoteOffEvent(tick=96, channel=8, data=[47, 0]),\n",
      "   midi.NoteOnEvent(tick=0, channel=8, data=[45, 80]),\n",
      "   midi.NoteOffEvent(tick=192, channel=8, data=[45, 0]),\n",
      "   midi.NoteOnEvent(tick=768, channel=8, data=[57, 80]),\n",
      "   midi.NoteOffEvent(tick=192, channel=8, data=[57, 0]),\n",
      "   midi.NoteOnEvent(tick=0, channel=8, data=[61, 80]),\n",
      "   midi.NoteOffEvent(tick=192, channel=8, data=[61, 0]),\n",
      "   midi.NoteOnEvent(tick=0, channel=8, data=[57, 80]),\n",
      "   midi.NoteOffEvent(tick=192, channel=8, data=[57, 0]),\n",
      "   midi.NoteOnEvent(tick=0, channel=8, data=[54, 80]),\n",
      "   midi.NoteOffEvent(tick=192, channel=8, data=[54, 0]),\n",
      "   midi.NoteOnEvent(tick=0, channel=8, data=[50, 80]),\n",
      "   midi.NoteOffEvent(tick=192, channel=8, data=[50, 0]),\n",
      "   midi.NoteOnEvent(tick=0, channel=8, data=[52, 80]),\n",
      "   midi.NoteOffEvent(tick=192, channel=8, data=[52, 0]),\n",
      "   midi.NoteOnEvent(tick=0, channel=8, data=[40, 80]),\n",
      "   midi.NoteOffEvent(tick=192, channel=8, data=[40, 0]),\n",
      "   midi.NoteOnEvent(tick=0, channel=8, data=[57, 80]),\n",
      "   midi.NoteOffEvent(tick=192, channel=8, data=[57, 0]),\n",
      "   midi.NoteOnEvent(tick=0, channel=8, data=[56, 80]),\n",
      "   midi.NoteOffEvent(tick=96, channel=8, data=[56, 0]),\n",
      "   midi.NoteOnEvent(tick=0, channel=8, data=[54, 80]),\n",
      "   midi.NoteOffEvent(tick=96, channel=8, data=[54, 0]),\n",
      "   midi.NoteOnEvent(tick=0, channel=8, data=[52, 80]),\n",
      "   midi.NoteOffEvent(tick=96, channel=8, data=[52, 0]),\n",
      "   midi.NoteOnEvent(tick=0, channel=8, data=[50, 80]),\n",
      "   midi.NoteOffEvent(tick=96, channel=8, data=[50, 0]),\n",
      "   midi.NoteOnEvent(tick=0, channel=8, data=[49, 80]),\n",
      "   midi.NoteOffEvent(tick=96, channel=8, data=[49, 0]),\n",
      "   midi.NoteOnEvent(tick=0, channel=8, data=[47, 80]),\n",
      "   midi.NoteOffEvent(tick=96, channel=8, data=[47, 0]),\n",
      "   midi.NoteOnEvent(tick=0, channel=8, data=[45, 80]),\n",
      "   midi.NoteOffEvent(tick=192, channel=8, data=[45, 0]),\n",
      "   midi.NoteOnEvent(tick=768, channel=8, data=[45, 80]),\n",
      "   midi.NoteOffEvent(tick=192, channel=8, data=[45, 0]),\n",
      "   midi.NoteOnEvent(tick=0, channel=8, data=[49, 80]),\n",
      "   midi.NoteOffEvent(tick=192, channel=8, data=[49, 0]),\n",
      "   midi.NoteOnEvent(tick=0, channel=8, data=[45, 80]),\n",
      "   midi.NoteOffEvent(tick=192, channel=8, data=[45, 0]),\n",
      "   midi.NoteOnEvent(tick=0, channel=8, data=[42, 80]),\n",
      "   midi.NoteOffEvent(tick=192, channel=8, data=[42, 0]),\n",
      "   midi.NoteOnEvent(tick=0, channel=8, data=[38, 80]),\n",
      "   midi.NoteOffEvent(tick=192, channel=8, data=[38, 0]),\n",
      "   midi.NoteOnEvent(tick=0, channel=8, data=[40, 80]),\n",
      "   midi.NoteOffEvent(tick=192, channel=8, data=[40, 0]),\n",
      "   midi.NoteOnEvent(tick=0, channel=8, data=[52, 80]),\n",
      "   midi.NoteOffEvent(tick=192, channel=8, data=[52, 0]),\n",
      "   midi.NoteOnEvent(tick=0, channel=8, data=[45, 80]),\n",
      "   midi.NoteOffEvent(tick=192, channel=8, data=[45, 0]),\n",
      "   midi.NoteOnEvent(tick=0, channel=8, data=[49, 80]),\n",
      "   midi.NoteOffEvent(tick=192, channel=8, data=[49, 0]),\n",
      "   midi.NoteOnEvent(tick=0, channel=8, data=[52, 80]),\n",
      "   midi.NoteOffEvent(tick=192, channel=8, data=[52, 0]),\n",
      "   midi.NoteOnEvent(tick=0, channel=8, data=[57, 80]),\n",
      "   midi.NoteOffEvent(tick=192, channel=8, data=[57, 0]),\n",
      "   midi.NoteOnEvent(tick=0, channel=8, data=[50, 80]),\n",
      "   midi.NoteOffEvent(tick=192, channel=8, data=[50, 0]),\n",
      "   midi.NoteOnEvent(tick=0, channel=8, data=[62, 80]),\n",
      "   midi.NoteOffEvent(tick=192, channel=8, data=[62, 0]),\n",
      "   midi.NoteOnEvent(tick=0, channel=8, data=[59, 80]),\n",
      "   midi.NoteOffEvent(tick=192, channel=8, data=[59, 0]),\n",
      "   midi.NoteOnEvent(tick=0, channel=8, data=[54, 80]),\n",
      "   midi.NoteOffEvent(tick=192, channel=8, data=[54, 0]),\n",
      "   midi.NoteOnEvent(tick=0, channel=8, data=[56, 80]),\n",
      "   midi.NoteOffEvent(tick=192, channel=8, data=[56, 0]),\n",
      "   midi.NoteOnEvent(tick=0, channel=8, data=[44, 80]),\n",
      "   midi.NoteOffEvent(tick=192, channel=8, data=[44, 0]),\n",
      "   midi.NoteOnEvent(tick=0, channel=8, data=[56, 80]),\n",
      "   midi.NoteOffEvent(tick=192, channel=8, data=[56, 0]),\n",
      "   midi.NoteOnEvent(tick=0, channel=8, data=[59, 80]),\n",
      "   midi.NoteOffEvent(tick=192, channel=8, data=[59, 0]),\n",
      "   midi.NoteOnEvent(tick=0, channel=8, data=[49, 80]),\n",
      "   midi.NoteOffEvent(tick=192, channel=8, data=[49, 0]),\n",
      "   midi.NoteOnEvent(tick=0, channel=8, data=[61, 80]),\n",
      "   midi.NoteOffEvent(tick=192, channel=8, data=[61, 0]),\n",
      "   midi.NoteOnEvent(tick=0, channel=8, data=[57, 80]),\n",
      "   midi.NoteOffEvent(tick=192, channel=8, data=[57, 0]),\n",
      "   midi.NoteOnEvent(tick=0, channel=8, data=[52, 80]),\n",
      "   midi.NoteOffEvent(tick=192, channel=8, data=[52, 0]),\n",
      "   midi.NoteOnEvent(tick=0, channel=8, data=[54, 80]),\n",
      "   midi.NoteOffEvent(tick=192, channel=8, data=[54, 0]),\n",
      "   midi.NoteOnEvent(tick=0, channel=8, data=[42, 80]),\n",
      "   midi.NoteOffEvent(tick=192, channel=8, data=[42, 0]),\n",
      "   midi.NoteOnEvent(tick=0, channel=8, data=[54, 80]),\n",
      "   midi.NoteOffEvent(tick=192, channel=8, data=[54, 0]),\n",
      "   midi.NoteOnEvent(tick=0, channel=8, data=[57, 80]),\n",
      "   midi.NoteOffEvent(tick=192, channel=8, data=[57, 0]),\n",
      "   midi.NoteOnEvent(tick=0, channel=8, data=[47, 80]),\n",
      "   midi.NoteOffEvent(tick=192, channel=8, data=[47, 0]),\n",
      "   midi.NoteOnEvent(tick=0, channel=8, data=[59, 80]),\n",
      "   midi.NoteOffEvent(tick=96, channel=8, data=[59, 0]),\n",
      "   midi.NoteOnEvent(tick=0, channel=8, data=[61, 80]),\n",
      "   midi.NoteOffEvent(tick=96, channel=8, data=[61, 0]),\n",
      "   midi.NoteOnEvent(tick=0, channel=8, data=[59, 80]),\n",
      "   midi.NoteOffEvent(tick=96, channel=8, data=[59, 0]),\n",
      "   midi.NoteOnEvent(tick=0, channel=8, data=[57, 80]),\n",
      "   midi.NoteOffEvent(tick=96, channel=8, data=[57, 0]),\n",
      "   midi.NoteOnEvent(tick=0, channel=8, data=[56, 80]),\n",
      "   midi.NoteOffEvent(tick=96, channel=8, data=[56, 0]),\n",
      "   midi.NoteOnEvent(tick=0, channel=8, data=[54, 80]),\n",
      "   midi.NoteOffEvent(tick=96, channel=8, data=[54, 0]),\n",
      "   midi.NoteOnEvent(tick=0, channel=8, data=[56, 80]),\n",
      "   midi.NoteOffEvent(tick=192, channel=8, data=[56, 0]),\n",
      "   midi.NoteOnEvent(tick=0, channel=8, data=[52, 80]),\n",
      "   midi.NoteOffEvent(tick=192, channel=8, data=[52, 0]),\n",
      "   midi.NoteOnEvent(tick=0, channel=8, data=[40, 80]),\n",
      "   midi.NoteOffEvent(tick=192, channel=8, data=[40, 0]),\n",
      "   midi.NoteOnEvent(tick=0, channel=8, data=[52, 80]),\n",
      "   midi.NoteOffEvent(tick=192, channel=8, data=[52, 0]),\n",
      "   midi.NoteOnEvent(tick=0, channel=8, data=[45, 80]),\n",
      "   midi.NoteOffEvent(tick=192, channel=8, data=[45, 0]),\n",
      "   midi.NoteOnEvent(tick=0, channel=8, data=[49, 80]),\n",
      "   midi.NoteOffEvent(tick=192, channel=8, data=[49, 0]),\n",
      "   midi.NoteOnEvent(tick=0, channel=8, data=[52, 80]),\n",
      "   midi.NoteOffEvent(tick=192, channel=8, data=[52, 0]),\n",
      "   midi.NoteOnEvent(tick=0, channel=8, data=[40, 80]),\n",
      "   midi.NoteOffEvent(tick=192, channel=8, data=[40, 0]),\n",
      "   midi.NoteOnEvent(tick=0, channel=8, data=[45, 80]),\n",
      "   midi.NoteOffEvent(tick=384, channel=8, data=[45, 0]),\n",
      "   midi.NoteOnEvent(tick=384, channel=8, data=[45, 80]),\n",
      "   midi.NoteOffEvent(tick=192, channel=8, data=[45, 0]),\n",
      "   midi.NoteOnEvent(tick=0, channel=8, data=[57, 80]),\n",
      "   midi.NoteOffEvent(tick=192, channel=8, data=[57, 0]),\n",
      "   midi.NoteOnEvent(tick=0, channel=8, data=[56, 80]),\n",
      "   midi.NoteOffEvent(tick=192, channel=8, data=[56, 0]),\n",
      "   midi.NoteOnEvent(tick=0, channel=8, data=[54, 80]),\n",
      "   midi.NoteOffEvent(tick=192, channel=8, data=[54, 0]),\n",
      "   midi.NoteOnEvent(tick=0, channel=8, data=[53, 80]),\n",
      "   midi.NoteOffEvent(tick=192, channel=8, data=[53, 0]),\n",
      "   midi.NoteOnEvent(tick=0, channel=8, data=[56, 80]),\n",
      "   midi.NoteOffEvent(tick=192, channel=8, data=[56, 0]),\n",
      "   midi.NoteOnEvent(tick=0, channel=8, data=[53, 80]),\n",
      "   midi.NoteOffEvent(tick=192, channel=8, data=[53, 0]),\n",
      "   midi.NoteOnEvent(tick=0, channel=8, data=[49, 80]),\n",
      "   midi.NoteOffEvent(tick=192, channel=8, data=[49, 0]),\n",
      "   midi.NoteOnEvent(tick=0, channel=8, data=[57, 80]),\n",
      "   midi.NoteOffEvent(tick=192, channel=8, data=[57, 0]),\n",
      "   midi.NoteOnEvent(tick=0, channel=8, data=[59, 80]),\n",
      "   midi.NoteOffEvent(tick=192, channel=8, data=[59, 0]),\n",
      "   midi.NoteOnEvent(tick=0, channel=8, data=[61, 80]),\n",
      "   midi.NoteOffEvent(tick=192, channel=8, data=[61, 0]),\n",
      "   midi.NoteOnEvent(tick=0, channel=8, data=[49, 80]),\n",
      "   midi.NoteOffEvent(tick=192, channel=8, data=[49, 0]),\n",
      "   midi.NoteOnEvent(tick=0, channel=8, data=[54, 80]),\n",
      "   midi.NoteOffEvent(tick=192, channel=8, data=[54, 0]),\n",
      "   midi.NoteOnEvent(tick=0, channel=8, data=[42, 80]),\n",
      "   midi.NoteOffEvent(tick=192, channel=8, data=[42, 0]),\n",
      "   midi.NoteOnEvent(tick=0, channel=8, data=[54, 80]),\n",
      "   midi.NoteOffEvent(tick=192, channel=8, data=[54, 0]),\n",
      "   midi.NoteOnEvent(tick=0, channel=8, data=[52, 80]),\n",
      "   midi.NoteOffEvent(tick=192, channel=8, data=[52, 0]),\n",
      "   midi.NoteOnEvent(tick=0, channel=8, data=[50, 80]),\n",
      "   midi.NoteOffEvent(tick=192, channel=8, data=[50, 0]),\n",
      "   midi.NoteOnEvent(tick=0, channel=8, data=[62, 80]),\n",
      "   midi.NoteOffEvent(tick=192, channel=8, data=[62, 0]),\n",
      "   midi.NoteOnEvent(tick=0, channel=8, data=[61, 80]),\n",
      "   midi.NoteOffEvent(tick=192, channel=8, data=[61, 0]),\n",
      "   midi.NoteOnEvent(tick=0, channel=8, data=[59, 80]),\n",
      "   midi.NoteOffEvent(tick=192, channel=8, data=[59, 0]),\n",
      "   midi.NoteOnEvent(tick=0, channel=8, data=[58, 80]),\n",
      "   midi.NoteOffEvent(tick=192, channel=8, data=[58, 0]),\n",
      "   midi.NoteOnEvent(tick=0, channel=8, data=[61, 80]),\n",
      "   midi.NoteOffEvent(tick=192, channel=8, data=[61, 0]),\n",
      "   midi.NoteOnEvent(tick=0, channel=8, data=[58, 80]),\n",
      "   midi.NoteOffEvent(tick=192, channel=8, data=[58, 0]),\n",
      "   midi.NoteOnEvent(tick=0, channel=8, data=[54, 80]),\n",
      "   midi.NoteOffEvent(tick=192, channel=8, data=[54, 0]),\n",
      "   midi.NoteOnEvent(tick=0, channel=8, data=[50, 80]),\n",
      "   midi.NoteOffEvent(tick=192, channel=8, data=[50, 0]),\n",
      "   midi.NoteOnEvent(tick=0, channel=8, data=[52, 80]),\n",
      "   midi.NoteOffEvent(tick=192, channel=8, data=[52, 0]),\n",
      "   midi.NoteOnEvent(tick=0, channel=8, data=[54, 80]),\n",
      "   midi.NoteOffEvent(tick=192, channel=8, data=[54, 0]),\n",
      "   midi.NoteOnEvent(tick=0, channel=8, data=[42, 80]),\n",
      "   midi.NoteOffEvent(tick=192, channel=8, data=[42, 0]),\n",
      "   midi.NoteOnEvent(tick=0, channel=8, data=[47, 80]),\n",
      "   midi.NoteOffEvent(tick=192, channel=8, data=[47, 0]),\n",
      "   midi.NoteOnEvent(tick=0, channel=8, data=[49, 80]),\n",
      "   midi.NoteOffEvent(tick=192, channel=8, data=[49, 0]),\n",
      "   midi.NoteOnEvent(tick=0, channel=8, data=[50, 80]),\n",
      "   midi.NoteOffEvent(tick=192, channel=8, data=[50, 0]),\n",
      "   midi.NoteOnEvent(tick=0, channel=8, data=[47, 80]),\n",
      "   midi.NoteOffEvent(tick=192, channel=8, data=[47, 0]),\n",
      "   midi.NoteOnEvent(tick=0, channel=8, data=[52, 80]),\n",
      "   midi.NoteOffEvent(tick=192, channel=8, data=[52, 0]),\n",
      "   midi.NoteOnEvent(tick=0, channel=8, data=[40, 80]),\n",
      "   midi.NoteOffEvent(tick=192, channel=8, data=[40, 0]),\n",
      "   midi.NoteOnEvent(tick=0, channel=8, data=[52, 80]),\n",
      "   midi.NoteOffEvent(tick=192, channel=8, data=[52, 0]),\n",
      "   midi.NoteOnEvent(tick=0, channel=8, data=[55, 80]),\n",
      "   midi.NoteOffEvent(tick=192, channel=8, data=[55, 0]),\n",
      "   midi.NoteOnEvent(tick=0, channel=8, data=[57, 80]),\n",
      "   midi.NoteOffEvent(tick=192, channel=8, data=[57, 0]),\n",
      "   midi.NoteOnEvent(tick=0, channel=8, data=[61, 80]),\n",
      "   midi.NoteOffEvent(tick=96, channel=8, data=[61, 0]),\n",
      "   midi.NoteOnEvent(tick=0, channel=8, data=[59, 80]),\n",
      "   midi.NoteOffEvent(tick=96, channel=8, data=[59, 0]),\n",
      "   midi.NoteOnEvent(tick=0, channel=8, data=[57, 80]),\n",
      "   midi.NoteOffEvent(tick=96, channel=8, data=[57, 0]),\n",
      "   midi.NoteOnEvent(tick=0, channel=8, data=[55, 80]),\n",
      "   midi.NoteOffEvent(tick=96, channel=8, data=[55, 0]),\n",
      "   midi.NoteOnEvent(tick=0, channel=8, data=[54, 80]),\n",
      "   midi.NoteOffEvent(tick=96, channel=8, data=[54, 0]),\n",
      "   midi.NoteOnEvent(tick=0, channel=8, data=[52, 80]),\n",
      "   midi.NoteOffEvent(tick=96, channel=8, data=[52, 0]),\n",
      "   midi.NoteOnEvent(tick=0, channel=8, data=[50, 80]),\n",
      "   midi.NoteOffEvent(tick=192, channel=8, data=[50, 0]),\n",
      "   midi.NoteOnEvent(tick=0, channel=8, data=[38, 80]),\n",
      "   midi.NoteOffEvent(tick=192, channel=8, data=[38, 0]),\n",
      "   midi.NoteOnEvent(tick=0, channel=8, data=[50, 80]),\n",
      "   midi.NoteOffEvent(tick=192, channel=8, data=[50, 0]),\n",
      "   midi.NoteOnEvent(tick=0, channel=8, data=[54, 80]),\n",
      "   midi.NoteOffEvent(tick=192, channel=8, data=[54, 0]),\n",
      "   midi.NoteOnEvent(tick=0, channel=8, data=[55, 80]),\n",
      "   midi.NoteOffEvent(tick=192, channel=8, data=[55, 0]),\n",
      "   midi.NoteOnEvent(tick=0, channel=8, data=[59, 80]),\n",
      "   midi.NoteOffEvent(tick=96, channel=8, data=[59, 0]),\n",
      "   midi.NoteOnEvent(tick=0, channel=8, data=[57, 80]),\n",
      "   midi.NoteOffEvent(tick=96, channel=8, data=[57, 0]),\n",
      "   midi.NoteOnEvent(tick=0, channel=8, data=[55, 80]),\n",
      "   midi.NoteOffEvent(tick=96, channel=8, data=[55, 0]),\n",
      "   midi.NoteOnEvent(tick=0, channel=8, data=[54, 80]),\n",
      "   midi.NoteOffEvent(tick=96, channel=8, data=[54, 0]),\n",
      "   midi.NoteOnEvent(tick=0, channel=8, data=[52, 80]),\n",
      "   midi.NoteOffEvent(tick=96, channel=8, data=[52, 0]),\n",
      "   midi.NoteOnEvent(tick=0, channel=8, data=[50, 80]),\n",
      "   midi.NoteOffEvent(tick=96, channel=8, data=[50, 0]),\n",
      "   midi.NoteOnEvent(tick=0, channel=8, data=[49, 80]),\n",
      "   midi.NoteOffEvent(tick=96, channel=8, data=[49, 0]),\n",
      "   midi.NoteOnEvent(tick=0, channel=8, data=[52, 80]),\n",
      "   midi.NoteOffEvent(tick=96, channel=8, data=[52, 0]),\n",
      "   midi.NoteOnEvent(tick=0, channel=8, data=[55, 80]),\n",
      "   midi.NoteOffEvent(tick=96, channel=8, data=[55, 0]),\n",
      "   midi.NoteOnEvent(tick=0, channel=8, data=[54, 80]),\n",
      "   midi.NoteOffEvent(tick=96, channel=8, data=[54, 0]),\n",
      "   midi.NoteOnEvent(tick=0, channel=8, data=[52, 80]),\n",
      "   midi.NoteOffEvent(tick=96, channel=8, data=[52, 0]),\n",
      "   midi.NoteOnEvent(tick=0, channel=8, data=[50, 80]),\n",
      "   midi.NoteOffEvent(tick=96, channel=8, data=[50, 0]),\n",
      "   midi.NoteOnEvent(tick=0, channel=8, data=[49, 80]),\n",
      "   midi.NoteOffEvent(tick=96, channel=8, data=[49, 0]),\n",
      "   midi.NoteOnEvent(tick=0, channel=8, data=[47, 80]),\n",
      "   midi.NoteOffEvent(tick=96, channel=8, data=[47, 0]),\n",
      "   midi.NoteOnEvent(tick=0, channel=8, data=[46, 80]),\n",
      "   midi.NoteOffEvent(tick=192, channel=8, data=[46, 0]),\n",
      "   midi.NoteOnEvent(tick=0, channel=8, data=[42, 80]),\n",
      "   midi.NoteOffEvent(tick=192, channel=8, data=[42, 0]),\n",
      "   midi.NoteOnEvent(tick=0, channel=8, data=[44, 80]),\n",
      "   midi.NoteOffEvent(tick=192, channel=8, data=[44, 0]),\n",
      "   midi.NoteOnEvent(tick=0, channel=8, data=[46, 80]),\n",
      "   midi.NoteOffEvent(tick=192, channel=8, data=[46, 0]),\n",
      "   midi.NoteOnEvent(tick=0, channel=8, data=[47, 80]),\n",
      "   midi.NoteOffEvent(tick=192, channel=8, data=[47, 0]),\n",
      "   midi.NoteOnEvent(tick=0, channel=8, data=[43, 80]),\n",
      "   midi.NoteOffEvent(tick=192, channel=8, data=[43, 0]),\n",
      "   midi.NoteOnEvent(tick=0, channel=8, data=[40, 80]),\n",
      "   midi.NoteOffEvent(tick=192, channel=8, data=[40, 0]),\n",
      "   midi.NoteOnEvent(tick=0, channel=8, data=[42, 80]),\n",
      "   midi.NoteOffEvent(tick=192, channel=8, data=[42, 0]),\n",
      "   midi.NoteOnEvent(tick=0, channel=8, data=[47, 80]),\n",
      "   midi.NoteOffEvent(tick=192, channel=8, data=[47, 0]),\n",
      "   midi.NoteOnEvent(tick=0, channel=8, data=[50, 80]),\n",
      "   midi.NoteOffEvent(tick=192, channel=8, data=[50, 0]),\n",
      "   midi.NoteOnEvent(tick=0, channel=8, data=[49, 80]),\n",
      "   midi.NoteOffEvent(tick=192, channel=8, data=[49, 0]),\n",
      "   midi.NoteOnEvent(tick=0, channel=8, data=[47, 80]),\n",
      "   midi.NoteOffEvent(tick=192, channel=8, data=[47, 0]),\n",
      "   midi.NoteOnEvent(tick=0, channel=8, data=[54, 80]),\n",
      "   midi.NoteOffEvent(tick=384, channel=8, data=[54, 0]),\n",
      "   midi.NoteOnEvent(tick=384, channel=8, data=[49, 80]),\n",
      "   midi.NoteOffEvent(tick=384, channel=8, data=[49, 0]),\n",
      "   midi.NoteOnEvent(tick=576, channel=8, data=[42, 80]),\n",
      "   midi.NoteOffEvent(tick=192, channel=8, data=[42, 0]),\n",
      "   midi.NoteOnEvent(tick=0, channel=8, data=[54, 80]),\n",
      "   midi.NoteOffEvent(tick=192, channel=8, data=[54, 0]),\n",
      "   midi.NoteOnEvent(tick=0, channel=8, data=[58, 80]),\n",
      "   midi.NoteOffEvent(tick=192, channel=8, data=[58, 0]),\n",
      "   midi.NoteOnEvent(tick=0, channel=8, data=[59, 80]),\n",
      "   midi.NoteOffEvent(tick=192, channel=8, data=[59, 0]),\n",
      "   midi.NoteOnEvent(tick=0, channel=8, data=[47, 80]),\n",
      "   midi.NoteOffEvent(tick=192, channel=8, data=[47, 0]),\n",
      "   midi.NoteOnEvent(tick=0, channel=8, data=[50, 80]),\n",
      "   midi.NoteOffEvent(tick=192, channel=8, data=[50, 0]),\n",
      "   midi.NoteOnEvent(tick=0, channel=8, data=[54, 80]),\n",
      "   midi.NoteOffEvent(tick=192, channel=8, data=[54, 0]),\n",
      "   midi.NoteOnEvent(tick=0, channel=8, data=[59, 80]),\n",
      "   midi.NoteOffEvent(tick=192, channel=8, data=[59, 0]),\n",
      "   midi.NoteOnEvent(tick=0, channel=8, data=[60, 80]),\n",
      "   midi.NoteOffEvent(tick=96, channel=8, data=[60, 0]),\n",
      "   midi.NoteOnEvent(tick=0, channel=8, data=[59, 80]),\n",
      "   midi.NoteOffEvent(tick=96, channel=8, data=[59, 0]),\n",
      "   midi.NoteOnEvent(tick=0, channel=8, data=[57, 80]),\n",
      "   midi.NoteOffEvent(tick=96, channel=8, data=[57, 0]),\n",
      "   midi.NoteOnEvent(tick=0, channel=8, data=[55, 80]),\n",
      "   midi.NoteOffEvent(tick=96, channel=8, data=[55, 0]),\n",
      "   midi.NoteOnEvent(tick=0, channel=8, data=[54, 80]),\n",
      "   midi.NoteOffEvent(tick=96, channel=8, data=[54, 0]),\n",
      "   midi.NoteOnEvent(tick=0, channel=8, data=[52, 80]),\n",
      "   midi.NoteOffEvent(tick=96, channel=8, data=[52, 0]),\n",
      "   midi.NoteOnEvent(tick=0, channel=8, data=[51, 80]),\n",
      "   midi.NoteOffEvent(tick=384, channel=8, data=[51, 0]),\n",
      "   midi.NoteOnEvent(tick=576, channel=8, data=[47, 80]),\n",
      "   midi.NoteOffEvent(tick=192, channel=8, data=[47, 0]),\n",
      "   midi.NoteOnEvent(tick=0, channel=8, data=[59, 80]),\n",
      "   midi.NoteOffEvent(tick=192, channel=8, data=[59, 0]),\n",
      "   midi.NoteOnEvent(tick=0, channel=8, data=[63, 80]),\n",
      "   midi.NoteOffEvent(tick=192, channel=8, data=[63, 0]),\n",
      "   midi.NoteOnEvent(tick=0, channel=8, data=[64, 80]),\n",
      "   midi.NoteOffEvent(tick=192, channel=8, data=[64, 0]),\n",
      "   midi.NoteOnEvent(tick=0, channel=8, data=[52, 80]),\n",
      "   midi.NoteOffEvent(tick=96, channel=8, data=[52, 0]),\n",
      "   midi.NoteOnEvent(tick=0, channel=8, data=[54, 80]),\n",
      "   midi.NoteOffEvent(tick=96, channel=8, data=[54, 0]),\n",
      "   midi.NoteOnEvent(tick=0, channel=8, data=[55, 80]),\n",
      "   midi.NoteOffEvent(tick=192, channel=8, data=[55, 0]),\n",
      "   midi.NoteOnEvent(tick=0, channel=8, data=[54, 80]),\n",
      "   midi.NoteOffEvent(tick=192, channel=8, data=[54, 0]),\n",
      "   midi.NoteOnEvent(tick=0, channel=8, data=[53, 80]),\n",
      "   midi.NoteOffEvent(tick=192, channel=8, data=[53, 0]),\n",
      "   midi.NoteOnEvent(tick=0, channel=8, data=[56, 80]),\n",
      "   midi.NoteOffEvent(tick=192, channel=8, data=[56, 0]),\n",
      "   midi.NoteOnEvent(tick=0, channel=8, data=[53, 80]),\n",
      "   midi.NoteOffEvent(tick=192, channel=8, data=[53, 0]),\n",
      "   midi.NoteOnEvent(tick=0, channel=8, data=[49, 80]),\n",
      "   midi.NoteOffEvent(tick=192, channel=8, data=[49, 0]),\n",
      "   midi.NoteOnEvent(tick=0, channel=8, data=[42, 80]),\n",
      "   midi.NoteOffEvent(tick=192, channel=8, data=[42, 0]),\n",
      "   midi.NoteOnEvent(tick=0, channel=8, data=[54, 80]),\n",
      "   midi.NoteOffEvent(tick=192, channel=8, data=[54, 0]),\n",
      "   midi.NoteOnEvent(tick=0, channel=8, data=[52, 80]),\n",
      "   midi.NoteOffEvent(tick=192, channel=8, data=[52, 0]),\n",
      "   midi.NoteOnEvent(tick=0, channel=8, data=[50, 80]),\n",
      "   midi.NoteOffEvent(tick=192, channel=8, data=[50, 0]),\n",
      "   midi.NoteOnEvent(tick=0, channel=8, data=[49, 80]),\n",
      "   midi.NoteOffEvent(tick=192, channel=8, data=[49, 0]),\n",
      "   midi.NoteOnEvent(tick=0, channel=8, data=[47, 80]),\n",
      "   midi.NoteOffEvent(tick=192, channel=8, data=[47, 0]),\n",
      "   midi.NoteOnEvent(tick=0, channel=8, data=[46, 80]),\n",
      "   midi.NoteOffEvent(tick=192, channel=8, data=[46, 0]),\n",
      "   midi.NoteOnEvent(tick=0, channel=8, data=[44, 80]),\n",
      "   midi.NoteOffEvent(tick=192, channel=8, data=[44, 0]),\n",
      "   midi.NoteOnEvent(tick=0, channel=8, data=[46, 80]),\n",
      "   midi.NoteOffEvent(tick=192, channel=8, data=[46, 0]),\n",
      "   midi.NoteOnEvent(tick=0, channel=8, data=[49, 80]),\n",
      "   midi.NoteOffEvent(tick=192, channel=8, data=[49, 0]),\n",
      "   midi.NoteOnEvent(tick=0, channel=8, data=[46, 80]),\n",
      "   midi.NoteOffEvent(tick=192, channel=8, data=[46, 0]),\n",
      "   midi.NoteOnEvent(tick=0, channel=8, data=[42, 80]),\n",
      "   midi.NoteOffEvent(tick=192, channel=8, data=[42, 0]),\n",
      "   midi.NoteOnEvent(tick=0, channel=8, data=[47, 80]),\n",
      "   midi.NoteOffEvent(tick=192, channel=8, data=[47, 0]),\n",
      "   midi.NoteOnEvent(tick=0, channel=8, data=[59, 80]),\n",
      "   midi.NoteOffEvent(tick=192, channel=8, data=[59, 0]),\n",
      "   midi.NoteOnEvent(tick=0, channel=8, data=[47, 80]),\n",
      "   midi.NoteOffEvent(tick=192, channel=8, data=[47, 0]),\n",
      "   midi.NoteOnEvent(tick=0, channel=8, data=[52, 80]),\n",
      "   midi.NoteOffEvent(tick=192, channel=8, data=[52, 0]),\n",
      "   midi.NoteOnEvent(tick=0, channel=8, data=[59, 80]),\n",
      "   midi.NoteOffEvent(tick=192, channel=8, data=[59, 0]),\n",
      "   midi.NoteOnEvent(tick=0, channel=8, data=[47, 80]),\n",
      "   midi.NoteOffEvent(tick=96, channel=8, data=[47, 0]),\n",
      "   midi.NoteOnEvent(tick=0, channel=8, data=[49, 80]),\n",
      "   midi.NoteOffEvent(tick=96, channel=8, data=[49, 0]),\n",
      "   midi.NoteOnEvent(tick=0, channel=8, data=[50, 80]),\n",
      "   midi.NoteOffEvent(tick=192, channel=8, data=[50, 0]),\n",
      "   midi.NoteOnEvent(tick=0, channel=8, data=[55, 80]),\n",
      "   midi.NoteOffEvent(tick=192, channel=8, data=[55, 0]),\n",
      "   midi.NoteOnEvent(tick=0, channel=8, data=[54, 80]),\n",
      "   midi.NoteOffEvent(tick=192, channel=8, data=[54, 0]),\n",
      "   midi.NoteOnEvent(tick=0, channel=8, data=[52, 80]),\n",
      "   midi.NoteOffEvent(tick=192, channel=8, data=[52, 0]),\n",
      "   midi.NoteOnEvent(tick=0, channel=8, data=[54, 80]),\n",
      "   midi.NoteOffEvent(tick=192, channel=8, data=[54, 0]),\n",
      "   midi.NoteOnEvent(tick=0, channel=8, data=[42, 80]),\n",
      "   midi.NoteOffEvent(tick=192, channel=8, data=[42, 0]),\n",
      "   midi.NoteOnEvent(tick=0, channel=8, data=[47, 80]),\n",
      "   midi.NoteOffEvent(tick=192, channel=8, data=[47, 0]),\n",
      "   midi.NoteOnEvent(tick=0, channel=8, data=[49, 80]),\n",
      "   midi.NoteOffEvent(tick=96, channel=8, data=[49, 0]),\n",
      "   midi.NoteOnEvent(tick=0, channel=8, data=[50, 80]),\n",
      "   midi.NoteOffEvent(tick=96, channel=8, data=[50, 0]),\n",
      "   midi.NoteOnEvent(tick=0, channel=8, data=[52, 80]),\n",
      "   midi.NoteOffEvent(tick=96, channel=8, data=[52, 0]),\n",
      "   midi.NoteOnEvent(tick=0, channel=8, data=[54, 80]),\n",
      "   midi.NoteOffEvent(tick=96, channel=8, data=[54, 0]),\n",
      "   midi.NoteOnEvent(tick=0, channel=8, data=[56, 80]),\n",
      "   midi.NoteOffEvent(tick=96, channel=8, data=[56, 0]),\n",
      "   midi.NoteOnEvent(tick=0, channel=8, data=[58, 80]),\n",
      "   midi.NoteOffEvent(tick=96, channel=8, data=[58, 0]),\n",
      "   midi.NoteOnEvent(tick=0, channel=8, data=[59, 80]),\n",
      "   midi.NoteOffEvent(tick=192, channel=8, data=[59, 0]),\n",
      "   midi.NoteOnEvent(tick=0, channel=8, data=[47, 80]),\n",
      "   midi.NoteOffEvent(tick=192, channel=8, data=[47, 0]),\n",
      "   midi.NoteOnEvent(tick=0, channel=8, data=[45, 80]),\n",
      "   midi.NoteOffEvent(tick=192, channel=8, data=[45, 0]),\n",
      "   midi.NoteOnEvent(tick=0, channel=8, data=[43, 80]),\n",
      "   midi.NoteOffEvent(tick=192, channel=8, data=[43, 0]),\n",
      "   midi.NoteOnEvent(tick=0, channel=8, data=[42, 80]),\n",
      "   midi.NoteOffEvent(tick=192, channel=8, data=[42, 0]),\n",
      "   midi.NoteOnEvent(tick=0, channel=8, data=[45, 80]),\n",
      "   midi.NoteOffEvent(tick=192, channel=8, data=[45, 0]),\n",
      "   midi.NoteOnEvent(tick=0, channel=8, data=[42, 80]),\n",
      "   midi.NoteOffEvent(tick=192, channel=8, data=[42, 0]),\n",
      "   midi.NoteOnEvent(tick=0, channel=8, data=[38, 80]),\n",
      "   midi.NoteOffEvent(tick=192, channel=8, data=[38, 0]),\n",
      "   midi.NoteOnEvent(tick=0, channel=8, data=[47, 80]),\n",
      "   midi.NoteOffEvent(tick=192, channel=8, data=[47, 0]),\n",
      "   midi.NoteOnEvent(tick=0, channel=8, data=[48, 80]),\n",
      "   midi.NoteOffEvent(tick=192, channel=8, data=[48, 0]),\n",
      "   midi.NoteOnEvent(tick=0, channel=8, data=[50, 80]),\n",
      "   midi.NoteOffEvent(tick=192, channel=8, data=[50, 0]),\n",
      "   midi.NoteOnEvent(tick=0, channel=8, data=[38, 80]),\n",
      "   midi.NoteOffEvent(tick=192, channel=8, data=[38, 0]),\n",
      "   midi.NoteOnEvent(tick=0, channel=8, data=[43, 80]),\n",
      "   midi.NoteOffEvent(tick=192, channel=8, data=[43, 0]),\n",
      "   midi.NoteOnEvent(tick=0, channel=8, data=[45, 80]),\n",
      "   midi.NoteOffEvent(tick=192, channel=8, data=[45, 0]),\n",
      "   midi.NoteOnEvent(tick=0, channel=8, data=[47, 80]),\n",
      "   midi.NoteOffEvent(tick=192, channel=8, data=[47, 0]),\n",
      "   midi.NoteOnEvent(tick=0, channel=8, data=[45, 80]),\n",
      "   midi.NoteOffEvent(tick=192, channel=8, data=[45, 0]),\n",
      "   midi.NoteOnEvent(tick=0, channel=8, data=[43, 80]),\n",
      "   midi.NoteOffEvent(tick=192, channel=8, data=[43, 0]),\n",
      "   midi.NoteOnEvent(tick=0, channel=8, data=[55, 80]),\n",
      "   midi.NoteOffEvent(tick=192, channel=8, data=[55, 0]),\n",
      "   midi.NoteOnEvent(tick=0, channel=8, data=[54, 80]),\n",
      "   midi.NoteOffEvent(tick=192, channel=8, data=[54, 0]),\n",
      "   midi.NoteOnEvent(tick=0, channel=8, data=[52, 80]),\n",
      "   midi.NoteOffEvent(tick=192, channel=8, data=[52, 0]),\n",
      "   midi.NoteOnEvent(tick=0, channel=8, data=[51, 80]),\n",
      "   midi.NoteOffEvent(tick=192, channel=8, data=[51, 0]),\n",
      "   midi.NoteOnEvent(tick=0, channel=8, data=[54, 80]),\n",
      "   midi.NoteOffEvent(tick=192, channel=8, data=[54, 0]),\n",
      "   midi.NoteOnEvent(tick=0, channel=8, data=[51, 80]),\n",
      "   midi.NoteOffEvent(tick=192, channel=8, data=[51, 0]),\n",
      "   midi.NoteOnEvent(tick=0, channel=8, data=[47, 80]),\n",
      "   midi.NoteOffEvent(tick=192, channel=8, data=[47, 0]),\n",
      "   midi.NoteOnEvent(tick=0, channel=8, data=[52, 80]),\n",
      "   midi.NoteOffEvent(tick=192, channel=8, data=[52, 0]),\n",
      "   midi.NoteOnEvent(tick=0, channel=8, data=[57, 80]),\n",
      "   midi.NoteOffEvent(tick=192, channel=8, data=[57, 0]),\n",
      "   midi.NoteOnEvent(tick=0, channel=8, data=[59, 80]),\n",
      "   midi.NoteOffEvent(tick=192, channel=8, data=[59, 0]),\n",
      "   midi.NoteOnEvent(tick=0, channel=8, data=[47, 80]),\n",
      "   midi.NoteOffEvent(tick=192, channel=8, data=[47, 0]),\n",
      "   midi.NoteOnEvent(tick=0, channel=8, data=[52, 80]),\n",
      "   midi.NoteOffEvent(tick=96, channel=8, data=[52, 0]),\n",
      "   midi.NoteOnEvent(tick=0, channel=8, data=[54, 80]),\n",
      "   midi.NoteOffEvent(tick=96, channel=8, data=[54, 0]),\n",
      "   midi.NoteOnEvent(tick=0, channel=8, data=[55, 80]),\n",
      "   midi.NoteOffEvent(tick=96, channel=8, data=[55, 0]),\n",
      "   midi.NoteOnEvent(tick=96, channel=8, data=[55, 80]),\n",
      "   midi.NoteOffEvent(tick=96, channel=8, data=[55, 0]),\n",
      "   midi.NoteOnEvent(tick=96, channel=8, data=[52, 80]),\n",
      "   midi.NoteOffEvent(tick=96, channel=8, data=[52, 0]),\n",
      "   midi.NoteOnEvent(tick=96, channel=8, data=[45, 80]),\n",
      "   midi.NoteOffEvent(tick=96, channel=8, data=[45, 0]),\n",
      "   midi.NoteOnEvent(tick=0, channel=8, data=[47, 80]),\n",
      "   midi.NoteOffEvent(tick=96, channel=8, data=[47, 0]),\n",
      "   midi.NoteOnEvent(tick=0, channel=8, data=[49, 80]),\n",
      "   midi.NoteOffEvent(tick=96, channel=8, data=[49, 0]),\n",
      "   midi.NoteOnEvent(tick=96, channel=8, data=[49, 80]),\n",
      "   midi.NoteOffEvent(tick=96, channel=8, data=[49, 0]),\n",
      "   midi.NoteOnEvent(tick=96, channel=8, data=[45, 80]),\n",
      "   midi.NoteOffEvent(tick=96, channel=8, data=[45, 0]),\n",
      "   midi.NoteOnEvent(tick=96, channel=8, data=[50, 80]),\n",
      "   midi.NoteOffEvent(tick=96, channel=8, data=[50, 0]),\n",
      "   midi.NoteOnEvent(tick=0, channel=8, data=[52, 80]),\n",
      "   midi.NoteOffEvent(tick=96, channel=8, data=[52, 0]),\n",
      "   midi.NoteOnEvent(tick=0, channel=8, data=[54, 80]),\n",
      "   midi.NoteOffEvent(tick=96, channel=8, data=[54, 0]),\n",
      "   midi.NoteOnEvent(tick=96, channel=8, data=[54, 80]),\n",
      "   midi.NoteOffEvent(tick=96, channel=8, data=[54, 0]),\n",
      "   midi.NoteOnEvent(tick=96, channel=8, data=[50, 80]),\n",
      "   midi.NoteOffEvent(tick=96, channel=8, data=[50, 0]),\n",
      "   midi.NoteOnEvent(tick=96, channel=8, data=[44, 80]),\n",
      "   midi.NoteOffEvent(tick=96, channel=8, data=[44, 0]),\n",
      "   midi.NoteOnEvent(tick=0, channel=8, data=[45, 80]),\n",
      "   midi.NoteOffEvent(tick=96, channel=8, data=[45, 0]),\n",
      "   midi.NoteOnEvent(tick=0, channel=8, data=[47, 80]),\n",
      "   midi.NoteOffEvent(tick=96, channel=8, data=[47, 0]),\n",
      "   midi.NoteOnEvent(tick=96, channel=8, data=[47, 80]),\n",
      "   midi.NoteOffEvent(tick=96, channel=8, data=[47, 0]),\n",
      "   midi.NoteOnEvent(tick=96, channel=8, data=[44, 80]),\n",
      "   midi.NoteOffEvent(tick=96, channel=8, data=[44, 0]),\n",
      "   midi.NoteOnEvent(tick=96, channel=8, data=[49, 80]),\n",
      "   midi.NoteOffEvent(tick=96, channel=8, data=[49, 0]),\n",
      "   midi.NoteOnEvent(tick=0, channel=8, data=[51, 80]),\n",
      "   midi.NoteOffEvent(tick=96, channel=8, data=[51, 0]),\n",
      "   midi.NoteOnEvent(tick=0, channel=8, data=[53, 80]),\n",
      "   midi.NoteOffEvent(tick=96, channel=8, data=[53, 0]),\n",
      "   midi.NoteOnEvent(tick=96, channel=8, data=[53, 80]),\n",
      "   midi.NoteOffEvent(tick=96, channel=8, data=[53, 0]),\n",
      "   midi.NoteOnEvent(tick=96, channel=8, data=[49, 80]),\n",
      "   midi.NoteOffEvent(tick=96, channel=8, data=[49, 0]),\n",
      "   midi.NoteOnEvent(tick=96, channel=8, data=[42, 80]),\n",
      "   midi.NoteOffEvent(tick=96, channel=8, data=[42, 0]),\n",
      "   midi.NoteOnEvent(tick=0, channel=8, data=[44, 80]),\n",
      "   midi.NoteOffEvent(tick=96, channel=8, data=[44, 0]),\n",
      "   midi.NoteOnEvent(tick=0, channel=8, data=[45, 80]),\n",
      "   midi.NoteOffEvent(tick=96, channel=8, data=[45, 0]),\n",
      "   midi.NoteOnEvent(tick=96, channel=8, data=[45, 80]),\n",
      "   midi.NoteOffEvent(tick=96, channel=8, data=[45, 0]),\n",
      "   midi.NoteOnEvent(tick=96, channel=8, data=[42, 80]),\n",
      "   midi.NoteOffEvent(tick=96, channel=8, data=[42, 0]),\n",
      "   midi.NoteOnEvent(tick=96, channel=8, data=[47, 80]),\n",
      "   midi.NoteOffEvent(tick=96, channel=8, data=[47, 0]),\n",
      "   midi.NoteOnEvent(tick=0, channel=8, data=[49, 80]),\n",
      "   midi.NoteOffEvent(tick=96, channel=8, data=[49, 0]),\n",
      "   midi.NoteOnEvent(tick=0, channel=8, data=[50, 80]),\n",
      "   midi.NoteOffEvent(tick=96, channel=8, data=[50, 0]),\n",
      "   midi.NoteOnEvent(tick=96, channel=8, data=[50, 80]),\n",
      "   midi.NoteOffEvent(tick=96, channel=8, data=[50, 0]),\n",
      "   midi.NoteOnEvent(tick=96, channel=8, data=[47, 80]),\n",
      "   midi.NoteOffEvent(tick=96, channel=8, data=[47, 0]),\n",
      "   midi.NoteOnEvent(tick=96, channel=8, data=[49, 80]),\n",
      "   midi.NoteOffEvent(tick=192, channel=8, data=[49, 0]),\n",
      "   midi.NoteOnEvent(tick=0, channel=8, data=[47, 80]),\n",
      "   midi.NoteOffEvent(tick=192, channel=8, data=[47, 0]),\n",
      "   midi.NoteOnEvent(tick=0, channel=8, data=[45, 80]),\n",
      "   midi.NoteOffEvent(tick=192, channel=8, data=[45, 0]),\n",
      "   midi.NoteOnEvent(tick=0, channel=8, data=[47, 80]),\n",
      "   midi.NoteOffEvent(tick=192, channel=8, data=[47, 0]),\n",
      "   midi.NoteOnEvent(tick=0, channel=8, data=[49, 80]),\n",
      "   midi.NoteOffEvent(tick=384, channel=8, data=[49, 0]),\n",
      "   midi.NoteOnEvent(tick=0, channel=8, data=[37, 80]),\n",
      "   midi.NoteOffEvent(tick=384, channel=8, data=[37, 0]),\n",
      "   midi.NoteOnEvent(tick=0, channel=8, data=[42, 80]),\n",
      "   midi.NoteOffEvent(tick=384, channel=8, data=[42, 0]),\n",
      "   midi.NoteOnEvent(tick=384, channel=8, data=[50, 80]),\n",
      "   midi.NoteOffEvent(tick=192, channel=8, data=[50, 0]),\n",
      "   midi.NoteOnEvent(tick=0, channel=8, data=[62, 80]),\n",
      "   midi.NoteOffEvent(tick=192, channel=8, data=[62, 0]),\n",
      "   midi.NoteOnEvent(tick=0, channel=8, data=[61, 80]),\n",
      "   midi.NoteOffEvent(tick=192, channel=8, data=[61, 0]),\n",
      "   midi.NoteOnEvent(tick=0, channel=8, data=[57, 80]),\n",
      "   midi.NoteOffEvent(tick=192, channel=8, data=[57, 0]),\n",
      "   midi.NoteOnEvent(tick=0, channel=8, data=[62, 80]),\n",
      "   midi.NoteOffEvent(tick=192, channel=8, data=[62, 0]),\n",
      "   midi.NoteOnEvent(tick=0, channel=8, data=[61, 80]),\n",
      "   midi.NoteOffEvent(tick=96, channel=8, data=[61, 0]),\n",
      "   midi.NoteOnEvent(tick=0, channel=8, data=[59, 80]),\n",
      "   midi.NoteOffEvent(tick=96, channel=8, data=[59, 0]),\n",
      "   midi.NoteOnEvent(tick=0, channel=8, data=[57, 80]),\n",
      "   midi.NoteOffEvent(tick=96, channel=8, data=[57, 0]),\n",
      "   midi.NoteOnEvent(tick=0, channel=8, data=[55, 80]),\n",
      "   midi.NoteOffEvent(tick=96, channel=8, data=[55, 0]),\n",
      "   midi.NoteOnEvent(tick=0, channel=8, data=[54, 80]),\n",
      "   midi.NoteOffEvent(tick=96, channel=8, data=[54, 0]),\n",
      "   midi.NoteOnEvent(tick=0, channel=8, data=[52, 80]),\n",
      "   midi.NoteOffEvent(tick=96, channel=8, data=[52, 0]),\n",
      "   midi.NoteOnEvent(tick=0, channel=8, data=[50, 80]),\n",
      "   midi.NoteOffEvent(tick=192, channel=8, data=[50, 0]),\n",
      "   midi.NoteOnEvent(tick=0, channel=8, data=[47, 80]),\n",
      "   midi.NoteOffEvent(tick=192, channel=8, data=[47, 0]),\n",
      "   midi.NoteOnEvent(tick=0, channel=8, data=[43, 80]),\n",
      "   midi.NoteOffEvent(tick=192, channel=8, data=[43, 0]),\n",
      "   midi.NoteOnEvent(tick=0, channel=8, data=[45, 80]),\n",
      "   midi.NoteOffEvent(tick=192, channel=8, data=[45, 0]),\n",
      "   midi.NoteOnEvent(tick=0, channel=8, data=[50, 80]),\n",
      "   midi.NoteOffEvent(tick=192, channel=8, data=[50, 0]),\n",
      "   midi.NoteOnEvent(tick=0, channel=8, data=[38, 80]),\n",
      "   midi.NoteOffEvent(tick=192, channel=8, data=[38, 0]),\n",
      "   midi.NoteOnEvent(tick=0, channel=8, data=[42, 80]),\n",
      "   midi.NoteOffEvent(tick=192, channel=8, data=[42, 0]),\n",
      "   midi.NoteOnEvent(tick=0, channel=8, data=[45, 80]),\n",
      "   midi.NoteOffEvent(tick=192, channel=8, data=[45, 0]),\n",
      "   midi.NoteOnEvent(tick=0, channel=8, data=[50, 80]),\n",
      "   midi.NoteOffEvent(tick=192, channel=8, data=[50, 0]),\n",
      "   midi.NoteOnEvent(tick=0, channel=8, data=[38, 80]),\n",
      "   midi.NoteOffEvent(tick=192, channel=8, data=[38, 0]),\n",
      "   midi.NoteOnEvent(tick=0, channel=8, data=[38, 80]),\n",
      "   midi.NoteOffEvent(tick=192, channel=8, data=[38, 0]),\n",
      "   midi.NoteOnEvent(tick=0, channel=8, data=[50, 80]),\n",
      "   midi.NoteOffEvent(tick=192, channel=8, data=[50, 0]),\n",
      "   midi.NoteOnEvent(tick=0, channel=8, data=[50, 80]),\n",
      "   midi.NoteOffEvent(tick=192, channel=8, data=[50, 0]),\n",
      "   midi.NoteOnEvent(tick=0, channel=8, data=[38, 80]),\n",
      "   midi.NoteOffEvent(tick=192, channel=8, data=[38, 0]),\n",
      "   midi.NoteOnEvent(tick=0, channel=8, data=[38, 80]),\n",
      "   midi.NoteOffEvent(tick=192, channel=8, data=[38, 0]),\n",
      "   midi.NoteOnEvent(tick=0, channel=8, data=[50, 80]),\n",
      "   midi.NoteOffEvent(tick=192, channel=8, data=[50, 0]),\n",
      "   midi.NoteOnEvent(tick=0, channel=8, data=[50, 80]),\n",
      "   midi.NoteOffEvent(tick=192, channel=8, data=[50, 0]),\n",
      "   midi.NoteOnEvent(tick=0, channel=8, data=[38, 80]),\n",
      "   midi.NoteOffEvent(tick=192, channel=8, data=[38, 0]),\n",
      "   midi.NoteOnEvent(tick=0, channel=8, data=[38, 80]),\n",
      "   midi.NoteOffEvent(tick=192, channel=8, data=[38, 0]),\n",
      "   midi.NoteOnEvent(tick=0, channel=8, data=[50, 80]),\n",
      "   midi.NoteOffEvent(tick=192, channel=8, data=[50, 0]),\n",
      "   midi.NoteOnEvent(tick=0, channel=8, data=[43, 80]),\n",
      "   midi.NoteOffEvent(tick=192, channel=8, data=[43, 0]),\n",
      "   midi.NoteOnEvent(tick=0, channel=8, data=[55, 80]),\n",
      "   midi.NoteOffEvent(tick=96, channel=8, data=[55, 0]),\n",
      "   midi.NoteOnEvent(tick=0, channel=8, data=[57, 80]),\n",
      "   midi.NoteOffEvent(tick=96, channel=8, data=[57, 0]),\n",
      "   midi.NoteOnEvent(tick=0, channel=8, data=[55, 80]),\n",
      "   midi.NoteOffEvent(tick=96, channel=8, data=[55, 0]),\n",
      "   midi.NoteOnEvent(tick=0, channel=8, data=[54, 80]),\n",
      "   midi.NoteOffEvent(tick=96, channel=8, data=[54, 0]),\n",
      "   midi.NoteOnEvent(tick=0, channel=8, data=[52, 80]),\n",
      "   midi.NoteOffEvent(tick=96, channel=8, data=[52, 0]),\n",
      "   midi.NoteOnEvent(tick=0, channel=8, data=[50, 80]),\n",
      "   midi.NoteOffEvent(tick=96, channel=8, data=[50, 0]),\n",
      "   midi.NoteOnEvent(tick=0, channel=8, data=[49, 80]),\n",
      "   midi.NoteOffEvent(tick=96, channel=8, data=[49, 0]),\n",
      "   midi.NoteOnEvent(tick=0, channel=8, data=[50, 80]),\n",
      "   midi.NoteOffEvent(tick=96, channel=8, data=[50, 0]),\n",
      "   midi.NoteOnEvent(tick=0, channel=8, data=[52, 80]),\n",
      "   midi.NoteOffEvent(tick=96, channel=8, data=[52, 0]),\n",
      "   midi.NoteOnEvent(tick=0, channel=8, data=[54, 80]),\n",
      "   midi.NoteOffEvent(tick=96, channel=8, data=[54, 0]),\n",
      "   midi.NoteOnEvent(tick=0, channel=8, data=[52, 80]),\n",
      "   midi.NoteOffEvent(tick=96, channel=8, data=[52, 0]),\n",
      "   midi.NoteOnEvent(tick=0, channel=8, data=[50, 80]),\n",
      "   midi.NoteOffEvent(tick=96, channel=8, data=[50, 0]),\n",
      "   midi.NoteOnEvent(tick=0, channel=8, data=[49, 80]),\n",
      "   midi.NoteOffEvent(tick=96, channel=8, data=[49, 0]),\n",
      "   midi.NoteOnEvent(tick=0, channel=8, data=[47, 80]),\n",
      "   midi.NoteOffEvent(tick=96, channel=8, data=[47, 0]),\n",
      "   midi.NoteOnEvent(tick=0, channel=8, data=[45, 80]),\n",
      "   midi.NoteOffEvent(tick=192, channel=8, data=[45, 0]),\n",
      "   midi.NoteOnEvent(tick=0, channel=8, data=[57, 80]),\n",
      "   midi.NoteOffEvent(tick=192, channel=8, data=[57, 0]),\n",
      "   midi.NoteOnEvent(tick=0, channel=8, data=[57, 80]),\n",
      "   midi.NoteOffEvent(tick=192, channel=8, data=[57, 0]),\n",
      "   midi.NoteOnEvent(tick=0, channel=8, data=[55, 80]),\n",
      "   midi.NoteOffEvent(tick=192, channel=8, data=[55, 0]),\n",
      "   midi.NoteOnEvent(tick=0, channel=8, data=[54, 80]),\n",
      "   midi.NoteOffEvent(tick=192, channel=8, data=[54, 0]),\n",
      "   midi.NoteOnEvent(tick=0, channel=8, data=[57, 80]),\n",
      "   midi.NoteOffEvent(tick=192, channel=8, data=[57, 0]),\n",
      "   midi.NoteOnEvent(tick=0, channel=8, data=[55, 80]),\n",
      "   midi.NoteOffEvent(tick=192, channel=8, data=[55, 0]),\n",
      "   midi.NoteOnEvent(tick=0, channel=8, data=[57, 80]),\n",
      "   midi.NoteOffEvent(tick=192, channel=8, data=[57, 0]),\n",
      "   midi.NoteOnEvent(tick=0, channel=8, data=[62, 80]),\n",
      "   midi.NoteOffEvent(tick=192, channel=8, data=[62, 0]),\n",
      "   midi.NoteOnEvent(tick=0, channel=8, data=[61, 80]),\n",
      "   midi.NoteOffEvent(tick=96, channel=8, data=[61, 0]),\n",
      "   midi.NoteOnEvent(tick=0, channel=8, data=[59, 80]),\n",
      "   midi.NoteOffEvent(tick=96, channel=8, data=[59, 0]),\n",
      "   midi.NoteOnEvent(tick=0, channel=8, data=[57, 80]),\n",
      "   midi.NoteOffEvent(tick=96, channel=8, data=[57, 0]),\n",
      "   midi.NoteOnEvent(tick=0, channel=8, data=[55, 80]),\n",
      "   midi.NoteOffEvent(tick=96, channel=8, data=[55, 0]),\n",
      "   midi.NoteOnEvent(tick=0, channel=8, data=[54, 80]),\n",
      "   midi.NoteOffEvent(tick=96, channel=8, data=[54, 0]),\n",
      "   midi.NoteOnEvent(tick=0, channel=8, data=[52, 80]),\n",
      "   midi.NoteOffEvent(tick=96, channel=8, data=[52, 0]),\n",
      "   midi.NoteOnEvent(tick=0, channel=8, data=[50, 80]),\n",
      "   midi.NoteOffEvent(tick=192, channel=8, data=[50, 0]),\n",
      "   midi.NoteOnEvent(tick=0, channel=8, data=[62, 80]),\n",
      "   midi.NoteOffEvent(tick=192, channel=8, data=[62, 0]),\n",
      "   midi.NoteOnEvent(tick=0, channel=8, data=[61, 80]),\n",
      "   midi.NoteOffEvent(tick=192, channel=8, data=[61, 0]),\n",
      "   midi.NoteOnEvent(tick=0, channel=8, data=[57, 80]),\n",
      "   midi.NoteOffEvent(tick=192, channel=8, data=[57, 0]),\n",
      "   midi.NoteOnEvent(tick=0, channel=8, data=[62, 80]),\n",
      "   midi.NoteOffEvent(tick=192, channel=8, data=[62, 0]),\n",
      "   midi.NoteOnEvent(tick=0, channel=8, data=[61, 80]),\n",
      "   midi.NoteOffEvent(tick=96, channel=8, data=[61, 0]),\n",
      "   midi.NoteOnEvent(tick=0, channel=8, data=[59, 80]),\n",
      "   midi.NoteOffEvent(tick=96, channel=8, data=[59, 0]),\n",
      "   midi.NoteOnEvent(tick=0, channel=8, data=[57, 80]),\n",
      "   midi.NoteOffEvent(tick=96, channel=8, data=[57, 0]),\n",
      "   midi.NoteOnEvent(tick=0, channel=8, data=[55, 80]),\n",
      "   midi.NoteOffEvent(tick=96, channel=8, data=[55, 0]),\n",
      "   midi.NoteOnEvent(tick=0, channel=8, data=[54, 80]),\n",
      "   midi.NoteOffEvent(tick=96, channel=8, data=[54, 0]),\n",
      "   midi.NoteOnEvent(tick=0, channel=8, data=[52, 80]),\n",
      "   midi.NoteOffEvent(tick=96, channel=8, data=[52, 0]),\n",
      "   midi.NoteOnEvent(tick=0, channel=8, data=[50, 80]),\n",
      "   midi.NoteOffEvent(tick=192, channel=8, data=[50, 0]),\n",
      "   midi.NoteOnEvent(tick=0, channel=8, data=[47, 80]),\n",
      "   midi.NoteOffEvent(tick=192, channel=8, data=[47, 0]),\n",
      "   midi.NoteOnEvent(tick=0, channel=8, data=[43, 80]),\n",
      "   midi.NoteOffEvent(tick=192, channel=8, data=[43, 0]),\n",
      "   midi.NoteOnEvent(tick=0, channel=8, data=[45, 80]),\n",
      "   midi.NoteOffEvent(tick=192, channel=8, data=[45, 0]),\n",
      "   midi.NoteOnEvent(tick=0, channel=8, data=[38, 80]),\n",
      "   midi.NoteOffEvent(tick=192, channel=8, data=[38, 0]),\n",
      "   midi.NoteOnEvent(tick=0, channel=8, data=[40, 80]),\n",
      "   midi.NoteOffEvent(tick=96, channel=8, data=[40, 0]),\n",
      "   midi.NoteOnEvent(tick=0, channel=8, data=[42, 80]),\n",
      "   midi.NoteOffEvent(tick=96, channel=8, data=[42, 0]),\n",
      "   midi.NoteOnEvent(tick=0, channel=8, data=[43, 80]),\n",
      "   midi.NoteOffEvent(tick=96, channel=8, data=[43, 0]),\n",
      "   midi.NoteOnEvent(tick=0, channel=8, data=[45, 80]),\n",
      "   midi.NoteOffEvent(tick=96, channel=8, data=[45, 0]),\n",
      "   midi.NoteOnEvent(tick=0, channel=8, data=[47, 80]),\n",
      "   midi.NoteOffEvent(tick=96, channel=8, data=[47, 0]),\n",
      "   midi.NoteOnEvent(tick=0, channel=8, data=[49, 80]),\n",
      "   midi.NoteOffEvent(tick=96, channel=8, data=[49, 0]),\n",
      "   midi.NoteOnEvent(tick=0, channel=8, data=[50, 80]),\n",
      "   midi.NoteOffEvent(tick=96, channel=8, data=[50, 0]),\n",
      "   midi.NoteOnEvent(tick=0, channel=8, data=[52, 80]),\n",
      "   midi.NoteOffEvent(tick=96, channel=8, data=[52, 0]),\n",
      "   midi.NoteOnEvent(tick=0, channel=8, data=[54, 80]),\n",
      "   midi.NoteOffEvent(tick=96, channel=8, data=[54, 0]),\n",
      "   midi.NoteOnEvent(tick=96, channel=8, data=[54, 80]),\n",
      "   midi.NoteOffEvent(tick=96, channel=8, data=[54, 0]),\n",
      "   midi.NoteOnEvent(tick=96, channel=8, data=[54, 80]),\n",
      "   midi.NoteOffEvent(tick=96, channel=8, data=[54, 0]),\n",
      "   midi.NoteOnEvent(tick=96, channel=8, data=[47, 80]),\n",
      "   midi.NoteOffEvent(tick=512, channel=8, data=[47, 0]),\n",
      "   midi.NoteOnEvent(tick=64, channel=8, data=[49, 80]),\n",
      "   midi.NoteOffEvent(tick=96, channel=8, data=[49, 0]),\n",
      "   midi.NoteOnEvent(tick=0, channel=8, data=[50, 80]),\n",
      "   midi.NoteOffEvent(tick=96, channel=8, data=[50, 0]),\n",
      "   midi.NoteOnEvent(tick=0, channel=8, data=[52, 80]),\n",
      "   midi.NoteOffEvent(tick=96, channel=8, data=[52, 0]),\n",
      "   midi.NoteOnEvent(tick=0, channel=8, data=[54, 80]),\n",
      "   midi.NoteOffEvent(tick=96, channel=8, data=[54, 0]),\n",
      "   midi.NoteOnEvent(tick=0, channel=8, data=[55, 80]),\n",
      "   midi.NoteOffEvent(tick=96, channel=8, data=[55, 0]),\n",
      "   midi.NoteOnEvent(tick=96, channel=8, data=[55, 80]),\n",
      "   midi.NoteOffEvent(tick=96, channel=8, data=[55, 0]),\n",
      "   midi.NoteOnEvent(tick=96, channel=8, data=[55, 80]),\n",
      "   midi.NoteOffEvent(tick=96, channel=8, data=[55, 0]),\n",
      "   midi.NoteOnEvent(tick=96, channel=8, data=[45, 80]),\n",
      "   midi.NoteOffEvent(tick=192, channel=8, data=[45, 0]),\n",
      "   midi.NoteOnEvent(tick=0, channel=8, data=[57, 80]),\n",
      "   midi.NoteOffEvent(tick=192, channel=8, data=[57, 0]),\n",
      "   midi.NoteOnEvent(tick=0, channel=8, data=[57, 80]),\n",
      "   midi.NoteOffEvent(tick=192, channel=8, data=[57, 0]),\n",
      "   midi.NoteOnEvent(tick=0, channel=8, data=[45, 80]),\n",
      "   midi.NoteOffEvent(tick=192, channel=8, data=[45, 0]),\n",
      "   midi.NoteOnEvent(tick=0, channel=8, data=[45, 80]),\n",
      "   midi.NoteOffEvent(tick=96, channel=8, data=[45, 0]),\n",
      "   midi.NoteOnEvent(tick=0, channel=8, data=[47, 80]),\n",
      "   midi.NoteOffEvent(tick=96, channel=8, data=[47, 0]),\n",
      "   midi.NoteOnEvent(tick=0, channel=8, data=[48, 80]),\n",
      "   midi.NoteOffEvent(tick=96, channel=8, data=[48, 0]),\n",
      "   midi.NoteOnEvent(tick=96, channel=8, data=[48, 80]),\n",
      "   midi.NoteOffEvent(tick=96, channel=8, data=[48, 0]),\n",
      "   midi.NoteOnEvent(tick=96, channel=8, data=[48, 80]),\n",
      "   midi.NoteOffEvent(tick=96, channel=8, data=[48, 0]),\n",
      "   midi.NoteOnEvent(tick=96, channel=8, data=[42, 80]),\n",
      "   midi.NoteOffEvent(tick=480, channel=8, data=[42, 0]),\n",
      "   midi.NoteOnEvent(tick=0, channel=8, data=[43, 80]),\n",
      "   midi.NoteOffEvent(tick=96, channel=8, data=[43, 0]),\n",
      "   midi.NoteOnEvent(tick=0, channel=8, data=[42, 80]),\n",
      "   midi.NoteOffEvent(tick=96, channel=8, data=[42, 0]),\n",
      "   midi.NoteOnEvent(tick=0, channel=8, data=[40, 80]),\n",
      "   midi.NoteOffEvent(tick=96, channel=8, data=[40, 0]),\n",
      "   midi.NoteOnEvent(tick=0, channel=8, data=[42, 80]),\n",
      "   midi.NoteOffEvent(tick=96, channel=8, data=[42, 0]),\n",
      "   midi.NoteOnEvent(tick=0, channel=8, data=[43, 80]),\n",
      "   midi.NoteOffEvent(tick=96, channel=8, data=[43, 0]),\n",
      "   midi.NoteOnEvent(tick=0, channel=8, data=[45, 80]),\n",
      "   midi.NoteOffEvent(tick=96, channel=8, data=[45, 0]),\n",
      "   midi.NoteOnEvent(tick=96, channel=8, data=[45, 80]),\n",
      "   midi.NoteOffEvent(tick=96, channel=8, data=[45, 0]),\n",
      "   midi.NoteOnEvent(tick=96, channel=8, data=[45, 80]),\n",
      "   midi.NoteOffEvent(tick=96, channel=8, data=[45, 0]),\n",
      "   midi.NoteOnEvent(tick=96, channel=8, data=[38, 80]),\n",
      "   midi.NoteOffEvent(tick=512, channel=8, data=[38, 0]),\n",
      "   midi.NoteOnEvent(tick=64, channel=8, data=[40, 80]),\n",
      "   midi.NoteOffEvent(tick=96, channel=8, data=[40, 0]),\n",
      "   midi.NoteOnEvent(tick=0, channel=8, data=[42, 80]),\n",
      "   midi.NoteOffEvent(tick=96, channel=8, data=[42, 0]),\n",
      "   midi.NoteOnEvent(tick=0, channel=8, data=[43, 80]),\n",
      "   midi.NoteOffEvent(tick=192, channel=8, data=[43, 0]),\n",
      "   midi.NoteOnEvent(tick=0, channel=8, data=[55, 80]),\n",
      "   midi.NoteOffEvent(tick=192, channel=8, data=[55, 0]),\n",
      "   midi.NoteOnEvent(tick=0, channel=8, data=[52, 80]),\n",
      "   midi.NoteOffEvent(tick=192, channel=8, data=[52, 0]),\n",
      "   midi.NoteOnEvent(tick=0, channel=8, data=[47, 80]),\n",
      "   midi.NoteOffEvent(tick=192, channel=8, data=[47, 0]),\n",
      "   midi.NoteOnEvent(tick=0, channel=8, data=[49, 80]),\n",
      "   midi.NoteOffEvent(tick=192, channel=8, data=[49, 0]),\n",
      "   midi.NoteOnEvent(tick=0, channel=8, data=[61, 80]),\n",
      "   midi.NoteOffEvent(tick=192, channel=8, data=[61, 0]),\n",
      "   midi.NoteOnEvent(tick=0, channel=8, data=[49, 80]),\n",
      "   midi.NoteOffEvent(tick=192, channel=8, data=[49, 0]),\n",
      "   midi.NoteOnEvent(tick=0, channel=8, data=[52, 80]),\n",
      "   midi.NoteOffEvent(tick=192, channel=8, data=[52, 0]),\n",
      "   midi.NoteOnEvent(tick=0, channel=8, data=[42, 80]),\n",
      "   midi.NoteOffEvent(tick=192, channel=8, data=[42, 0]),\n",
      "   midi.NoteOnEvent(tick=0, channel=8, data=[54, 80]),\n",
      "   midi.NoteOffEvent(tick=192, channel=8, data=[54, 0]),\n",
      "   midi.NoteOnEvent(tick=0, channel=8, data=[50, 80]),\n",
      "   midi.NoteOffEvent(tick=192, channel=8, data=[50, 0]),\n",
      "   midi.NoteOnEvent(tick=0, channel=8, data=[45, 80]),\n",
      "   midi.NoteOffEvent(tick=192, channel=8, data=[45, 0]),\n",
      "   midi.NoteOnEvent(tick=0, channel=8, data=[47, 80]),\n",
      "   midi.NoteOffEvent(tick=192, channel=8, data=[47, 0]),\n",
      "   midi.NoteOnEvent(tick=0, channel=8, data=[59, 80]),\n",
      "   midi.NoteOffEvent(tick=192, channel=8, data=[59, 0]),\n",
      "   midi.NoteOnEvent(tick=0, channel=8, data=[47, 80]),\n",
      "   midi.NoteOffEvent(tick=192, channel=8, data=[47, 0]),\n",
      "   midi.NoteOnEvent(tick=0, channel=8, data=[50, 80]),\n",
      "   midi.NoteOffEvent(tick=192, channel=8, data=[50, 0]),\n",
      "   midi.NoteOnEvent(tick=0, channel=8, data=[40, 80]),\n",
      "   midi.NoteOffEvent(tick=192, channel=8, data=[40, 0]),\n",
      "   midi.NoteOnEvent(tick=0, channel=8, data=[52, 80]),\n",
      "   midi.NoteOffEvent(tick=96, channel=8, data=[52, 0]),\n",
      "   midi.NoteOnEvent(tick=0, channel=8, data=[54, 80]),\n",
      "   midi.NoteOffEvent(tick=96, channel=8, data=[54, 0]),\n",
      "   midi.NoteOnEvent(tick=0, channel=8, data=[52, 80]),\n",
      "   midi.NoteOffEvent(tick=96, channel=8, data=[52, 0]),\n",
      "   midi.NoteOnEvent(tick=0, channel=8, data=[50, 80]),\n",
      "   midi.NoteOffEvent(tick=96, channel=8, data=[50, 0]),\n",
      "   midi.NoteOnEvent(tick=0, channel=8, data=[49, 80]),\n",
      "   midi.NoteOffEvent(tick=96, channel=8, data=[49, 0]),\n",
      "   midi.NoteOnEvent(tick=0, channel=8, data=[47, 80]),\n",
      "   midi.NoteOffEvent(tick=96, channel=8, data=[47, 0]),\n",
      "   midi.NoteOnEvent(tick=0, channel=8, data=[49, 80]),\n",
      "   midi.NoteOffEvent(tick=96, channel=8, data=[49, 0]),\n",
      "   midi.NoteOnEvent(tick=0, channel=8, data=[50, 80]),\n",
      "   midi.NoteOffEvent(tick=96, channel=8, data=[50, 0]),\n",
      "   midi.NoteOnEvent(tick=0, channel=8, data=[52, 80]),\n",
      "   midi.NoteOffEvent(tick=96, channel=8, data=[52, 0]),\n",
      "   midi.NoteOnEvent(tick=0, channel=8, data=[50, 80]),\n",
      "   midi.NoteOffEvent(tick=96, channel=8, data=[50, 0]),\n",
      "   midi.NoteOnEvent(tick=0, channel=8, data=[49, 80]),\n",
      "   midi.NoteOffEvent(tick=192, channel=8, data=[49, 0]),\n",
      "   midi.NoteOnEvent(tick=0, channel=8, data=[45, 80]),\n",
      "   midi.NoteOffEvent(tick=192, channel=8, data=[45, 0]),\n",
      "   midi.NoteOnEvent(tick=0, channel=8, data=[50, 80]),\n",
      "   midi.NoteOffEvent(tick=192, channel=8, data=[50, 0]),\n",
      "   midi.NoteOnEvent(tick=0, channel=8, data=[54, 80]),\n",
      "   midi.NoteOffEvent(tick=192, channel=8, data=[54, 0]),\n",
      "   midi.NoteOnEvent(tick=0, channel=8, data=[57, 80]),\n",
      "   midi.NoteOffEvent(tick=192, channel=8, data=[57, 0]),\n",
      "   midi.NoteOnEvent(tick=0, channel=8, data=[45, 80]),\n",
      "   midi.NoteOffEvent(tick=192, channel=8, data=[45, 0]),\n",
      "   midi.NoteOnEvent(tick=0, channel=8, data=[50, 80]),\n",
      "   midi.NoteOffEvent(tick=192, channel=8, data=[50, 0]),\n",
      "   midi.NoteOnEvent(tick=0, channel=8, data=[45, 80]),\n",
      "   midi.NoteOffEvent(tick=192, channel=8, data=[45, 0]),\n",
      "   midi.NoteOnEvent(tick=0, channel=8, data=[42, 80]),\n",
      "   midi.NoteOffEvent(tick=192, channel=8, data=[42, 0]),\n",
      "   midi.NoteOnEvent(tick=0, channel=8, data=[38, 80]),\n",
      "   midi.NoteOffEvent(tick=192, channel=8, data=[38, 0]),\n",
      "   midi.NoteOnEvent(tick=0, channel=8, data=[57, 80]),\n",
      "   midi.NoteOffEvent(tick=192, channel=8, data=[57, 0]),\n",
      "   midi.NoteOnEvent(tick=0, channel=8, data=[45, 80]),\n",
      "   midi.NoteOffEvent(tick=192, channel=8, data=[45, 0]),\n",
      "   midi.NoteOnEvent(tick=0, channel=8, data=[49, 80]),\n",
      "   midi.NoteOffEvent(tick=192, channel=8, data=[49, 0]),\n",
      "   midi.NoteOnEvent(tick=0, channel=8, data=[52, 80]),\n",
      "   midi.NoteOffEvent(tick=192, channel=8, data=[52, 0]),\n",
      "   midi.NoteOnEvent(tick=0, channel=8, data=[57, 80]),\n",
      "   midi.NoteOffEvent(tick=192, channel=8, data=[57, 0]),\n",
      "   midi.NoteOnEvent(tick=0, channel=8, data=[45, 80]),\n",
      "   midi.NoteOffEvent(tick=192, channel=8, data=[45, 0]),\n",
      "   midi.NoteOnEvent(tick=0, channel=8, data=[57, 80]),\n",
      "   midi.NoteOffEvent(tick=192, channel=8, data=[57, 0]),\n",
      "   midi.NoteOnEvent(tick=0, channel=8, data=[55, 80]),\n",
      "   midi.NoteOffEvent(tick=192, channel=8, data=[55, 0]),\n",
      "   midi.NoteOnEvent(tick=0, channel=8, data=[54, 80]),\n",
      "   midi.NoteOffEvent(tick=192, channel=8, data=[54, 0]),\n",
      "   midi.NoteOnEvent(tick=0, channel=8, data=[59, 80]),\n",
      "   midi.NoteOffEvent(tick=192, channel=8, data=[59, 0]),\n",
      "   midi.NoteOnEvent(tick=0, channel=8, data=[55, 80]),\n",
      "   midi.NoteOffEvent(tick=192, channel=8, data=[55, 0]),\n",
      "   midi.NoteOnEvent(tick=0, channel=8, data=[57, 80]),\n",
      "   midi.NoteOffEvent(tick=192, channel=8, data=[57, 0]),\n",
      "   midi.NoteOnEvent(tick=0, channel=8, data=[50, 80]),\n",
      "   midi.NoteOffEvent(tick=192, channel=8, data=[50, 0]),\n",
      "   midi.NoteOnEvent(tick=0, channel=8, data=[52, 80]),\n",
      "   midi.NoteOffEvent(tick=192, channel=8, data=[52, 0]),\n",
      "   midi.NoteOnEvent(tick=0, channel=8, data=[54, 80]),\n",
      "   midi.NoteOffEvent(tick=192, channel=8, data=[54, 0]),\n",
      "   midi.NoteOnEvent(tick=0, channel=8, data=[52, 80]),\n",
      "   midi.NoteOffEvent(tick=192, channel=8, data=[52, 0]),\n",
      "   midi.NoteOnEvent(tick=0, channel=8, data=[50, 80]),\n",
      "   midi.NoteOffEvent(tick=192, channel=8, data=[50, 0]),\n",
      "   midi.NoteOnEvent(tick=0, channel=8, data=[38, 80]),\n",
      "   midi.NoteOffEvent(tick=192, channel=8, data=[38, 0]),\n",
      "   midi.NoteOnEvent(tick=0, channel=8, data=[42, 80]),\n",
      "   midi.NoteOffEvent(tick=192, channel=8, data=[42, 0]),\n",
      "   midi.NoteOnEvent(tick=0, channel=8, data=[45, 80]),\n",
      "   midi.NoteOffEvent(tick=192, channel=8, data=[45, 0]),\n",
      "   midi.NoteOnEvent(tick=0, channel=8, data=[50, 80]),\n",
      "   midi.NoteOffEvent(tick=192, channel=8, data=[50, 0]),\n",
      "   midi.NoteOnEvent(tick=0, channel=8, data=[38, 80]),\n",
      "   midi.NoteOffEvent(tick=192, channel=8, data=[38, 0]),\n",
      "   midi.NoteOnEvent(tick=0, channel=8, data=[50, 80]),\n",
      "   midi.NoteOffEvent(tick=192, channel=8, data=[50, 0]),\n",
      "   midi.NoteOnEvent(tick=0, channel=8, data=[48, 80]),\n",
      "   midi.NoteOffEvent(tick=192, channel=8, data=[48, 0]),\n",
      "   midi.NoteOnEvent(tick=0, channel=8, data=[47, 80]),\n",
      "   midi.NoteOffEvent(tick=192, channel=8, data=[47, 0]),\n",
      "   midi.NoteOnEvent(tick=0, channel=8, data=[52, 80]),\n",
      "   midi.NoteOffEvent(tick=192, channel=8, data=[52, 0]),\n",
      "   midi.NoteOnEvent(tick=0, channel=8, data=[48, 80]),\n",
      "   midi.NoteOffEvent(tick=192, channel=8, data=[48, 0]),\n",
      "   midi.NoteOnEvent(tick=0, channel=8, data=[50, 80]),\n",
      "   midi.NoteOffEvent(tick=192, channel=8, data=[50, 0]),\n",
      "   midi.NoteOnEvent(tick=0, channel=8, data=[43, 80]),\n",
      "   midi.NoteOffEvent(tick=192, channel=8, data=[43, 0]),\n",
      "   midi.NoteOnEvent(tick=0, channel=8, data=[45, 80]),\n",
      "   midi.NoteOffEvent(tick=192, channel=8, data=[45, 0]),\n",
      "   midi.NoteOnEvent(tick=0, channel=8, data=[47, 80]),\n",
      "   midi.NoteOffEvent(tick=192, channel=8, data=[47, 0]),\n",
      "   midi.NoteOnEvent(tick=0, channel=8, data=[45, 80]),\n",
      "   midi.NoteOffEvent(tick=192, channel=8, data=[45, 0]),\n",
      "   midi.NoteOnEvent(tick=0, channel=8, data=[44, 80]),\n",
      "   midi.NoteOffEvent(tick=192, channel=8, data=[44, 0]),\n",
      "   midi.NoteOnEvent(tick=0, channel=8, data=[42, 80]),\n",
      "   midi.NoteOffEvent(tick=192, channel=8, data=[42, 0]),\n",
      "   midi.NoteOnEvent(tick=0, channel=8, data=[44, 80]),\n",
      "   midi.NoteOffEvent(tick=192, channel=8, data=[44, 0]),\n",
      "   midi.NoteOnEvent(tick=0, channel=8, data=[40, 80]),\n",
      "   midi.NoteOffEvent(tick=192, channel=8, data=[40, 0]),\n",
      "   midi.NoteOnEvent(tick=0, channel=8, data=[45, 80]),\n",
      "   midi.NoteOffEvent(tick=192, channel=8, data=[45, 0]),\n",
      "   midi.NoteOnEvent(tick=0, channel=8, data=[57, 80]),\n",
      "   midi.NoteOffEvent(tick=192, channel=8, data=[57, 0]),\n",
      "   midi.NoteOnEvent(tick=0, channel=8, data=[55, 80]),\n",
      "   midi.NoteOffEvent(tick=192, channel=8, data=[55, 0]),\n",
      "   midi.NoteOnEvent(tick=0, channel=8, data=[54, 80]),\n",
      "   midi.NoteOffEvent(tick=192, channel=8, data=[54, 0]),\n",
      "   midi.NoteOnEvent(tick=0, channel=8, data=[52, 80]),\n",
      "   midi.NoteOffEvent(tick=192, channel=8, data=[52, 0]),\n",
      "   midi.NoteOnEvent(tick=0, channel=8, data=[50, 80]),\n",
      "   midi.NoteOffEvent(tick=192, channel=8, data=[50, 0]),\n",
      "   midi.NoteOnEvent(tick=0, channel=8, data=[49, 80]),\n",
      "   midi.NoteOffEvent(tick=192, channel=8, data=[49, 0]),\n",
      "   midi.NoteOnEvent(tick=0, channel=8, data=[47, 80]),\n",
      "   midi.NoteOffEvent(tick=192, channel=8, data=[47, 0]),\n",
      "   midi.NoteOnEvent(tick=0, channel=8, data=[49, 80]),\n",
      "   midi.NoteOffEvent(tick=192, channel=8, data=[49, 0]),\n",
      "   midi.NoteOnEvent(tick=0, channel=8, data=[52, 80]),\n",
      "   midi.NoteOffEvent(tick=192, channel=8, data=[52, 0]),\n",
      "   midi.NoteOnEvent(tick=0, channel=8, data=[49, 80]),\n",
      "   midi.NoteOffEvent(tick=192, channel=8, data=[49, 0]),\n",
      "   midi.NoteOnEvent(tick=0, channel=8, data=[45, 80]),\n",
      "   midi.NoteOffEvent(tick=192, channel=8, data=[45, 0]),\n",
      "   midi.NoteOnEvent(tick=0, channel=8, data=[50, 80]),\n",
      "   midi.NoteOffEvent(tick=192, channel=8, data=[50, 0]),\n",
      "   midi.NoteOnEvent(tick=0, channel=8, data=[38, 80]),\n",
      "   midi.NoteOffEvent(tick=192, channel=8, data=[38, 0]),\n",
      "   midi.NoteOnEvent(tick=0, channel=8, data=[50, 80]),\n",
      "   midi.NoteOffEvent(tick=192, channel=8, data=[50, 0]),\n",
      "   midi.NoteOnEvent(tick=0, channel=8, data=[43, 80]),\n",
      "   midi.NoteOffEvent(tick=192, channel=8, data=[43, 0]),\n",
      "   midi.NoteOnEvent(tick=0, channel=8, data=[50, 80]),\n",
      "   midi.NoteOffEvent(tick=192, channel=8, data=[50, 0]),\n",
      "   midi.NoteOnEvent(tick=0, channel=8, data=[38, 80]),\n",
      "   midi.NoteOffEvent(tick=192, channel=8, data=[38, 0]),\n",
      "   midi.NoteOnEvent(tick=0, channel=8, data=[42, 80]),\n",
      "   midi.NoteOffEvent(tick=192, channel=8, data=[42, 0]),\n",
      "   midi.NoteOnEvent(tick=0, channel=8, data=[47, 80]),\n",
      "   midi.NoteOffEvent(tick=192, channel=8, data=[47, 0]),\n",
      "   midi.NoteOnEvent(tick=0, channel=8, data=[43, 80]),\n",
      "   midi.NoteOffEvent(tick=384, channel=8, data=[43, 0]),\n",
      "   midi.NoteOnEvent(tick=0, channel=8, data=[45, 80]),\n",
      "   midi.NoteOffEvent(tick=384, channel=8, data=[45, 0]),\n",
      "   midi.NoteOnEvent(tick=0, channel=8, data=[50, 80]),\n",
      "   midi.NoteOffEvent(tick=192, channel=8, data=[50, 0]),\n",
      "   midi.NoteOnEvent(tick=0, channel=8, data=[49, 80]),\n",
      "   midi.NoteOffEvent(tick=96, channel=8, data=[49, 0]),\n",
      "   midi.NoteOnEvent(tick=0, channel=8, data=[47, 80]),\n",
      "   midi.NoteOffEvent(tick=96, channel=8, data=[47, 0]),\n",
      "   midi.NoteOnEvent(tick=0, channel=8, data=[45, 80]),\n",
      "   midi.NoteOffEvent(tick=96, channel=8, data=[45, 0]),\n",
      "   midi.NoteOnEvent(tick=0, channel=8, data=[43, 80]),\n",
      "   midi.NoteOffEvent(tick=96, channel=8, data=[43, 0]),\n",
      "   midi.NoteOnEvent(tick=0, channel=8, data=[42, 80]),\n",
      "   midi.NoteOffEvent(tick=96, channel=8, data=[42, 0]),\n",
      "   midi.NoteOnEvent(tick=0, channel=8, data=[40, 80]),\n",
      "   midi.NoteOffEvent(tick=96, channel=8, data=[40, 0]),\n",
      "   midi.NoteOnEvent(tick=0, channel=8, data=[38, 80]),\n",
      "   midi.NoteOffEvent(tick=192, channel=8, data=[38, 0]),\n",
      "   midi.NoteOnEvent(tick=0, channel=8, data=[62, 80]),\n",
      "   midi.NoteOffEvent(tick=192, channel=8, data=[62, 0]),\n",
      "   midi.NoteOnEvent(tick=0, channel=8, data=[61, 80]),\n",
      "   midi.NoteOffEvent(tick=192, channel=8, data=[61, 0]),\n",
      "   midi.NoteOnEvent(tick=0, channel=8, data=[59, 80]),\n",
      "   midi.NoteOffEvent(tick=192, channel=8, data=[59, 0]),\n",
      "   midi.NoteOnEvent(tick=0, channel=8, data=[62, 80]),\n",
      "   midi.NoteOffEvent(tick=192, channel=8, data=[62, 0]),\n",
      "   midi.NoteOnEvent(tick=0, channel=8, data=[61, 80]),\n",
      "   midi.NoteOffEvent(tick=96, channel=8, data=[61, 0]),\n",
      "   midi.NoteOnEvent(tick=0, channel=8, data=[59, 80]),\n",
      "   midi.NoteOffEvent(tick=96, channel=8, data=[59, 0]),\n",
      "   midi.NoteOnEvent(tick=0, channel=8, data=[57, 80]),\n",
      "   midi.NoteOffEvent(tick=96, channel=8, data=[57, 0]),\n",
      "   midi.NoteOnEvent(tick=0, channel=8, data=[55, 80]),\n",
      "   midi.NoteOffEvent(tick=96, channel=8, data=[55, 0]),\n",
      "   midi.NoteOnEvent(tick=0, channel=8, data=[54, 80]),\n",
      "   midi.NoteOffEvent(tick=96, channel=8, data=[54, 0]),\n",
      "   midi.NoteOnEvent(tick=0, channel=8, data=[52, 80]),\n",
      "   midi.NoteOffEvent(tick=96, channel=8, data=[52, 0]),\n",
      "   midi.NoteOnEvent(tick=0, channel=8, data=[50, 80]),\n",
      "   midi.NoteOffEvent(tick=192, channel=8, data=[50, 0]),\n",
      "   midi.NoteOnEvent(tick=0, channel=8, data=[47, 80]),\n",
      "   midi.NoteOffEvent(tick=192, channel=8, data=[47, 0]),\n",
      "   midi.NoteOnEvent(tick=0, channel=8, data=[43, 80]),\n",
      "   midi.NoteOffEvent(tick=192, channel=8, data=[43, 0]),\n",
      "   midi.NoteOnEvent(tick=0, channel=8, data=[45, 80]),\n",
      "   midi.NoteOffEvent(tick=192, channel=8, data=[45, 0]),\n",
      "   midi.NoteOnEvent(tick=0, channel=8, data=[38, 80]),\n",
      "   midi.NoteOffEvent(tick=192, channel=8, data=[38, 0]),\n",
      "   midi.NoteOnEvent(tick=0, channel=8, data=[40, 80]),\n",
      "   midi.NoteOffEvent(tick=96, channel=8, data=[40, 0]),\n",
      "   midi.NoteOnEvent(tick=0, channel=8, data=[42, 80]),\n",
      "   midi.NoteOffEvent(tick=96, channel=8, data=[42, 0]),\n",
      "   midi.NoteOnEvent(tick=0, channel=8, data=[43, 80]),\n",
      "   midi.NoteOffEvent(tick=96, channel=8, data=[43, 0]),\n",
      "   midi.NoteOnEvent(tick=0, channel=8, data=[45, 80]),\n",
      "   midi.NoteOffEvent(tick=96, channel=8, data=[45, 0]),\n",
      "   midi.NoteOnEvent(tick=0, channel=8, data=[47, 80]),\n",
      "   midi.NoteOffEvent(tick=96, channel=8, data=[47, 0]),\n",
      "   midi.NoteOnEvent(tick=0, channel=8, data=[49, 80]),\n",
      "   midi.NoteOffEvent(tick=96, channel=8, data=[49, 0]),\n",
      "   midi.NoteOnEvent(tick=0, channel=8, data=[50, 80]),\n",
      "   midi.NoteOffEvent(tick=192, channel=8, data=[50, 0]),\n",
      "   midi.NoteOnEvent(tick=0, channel=8, data=[62, 80]),\n",
      "   midi.NoteOffEvent(tick=192, channel=8, data=[62, 0]),\n",
      "   midi.NoteOnEvent(tick=0, channel=8, data=[61, 80]),\n",
      "   midi.NoteOffEvent(tick=192, channel=8, data=[61, 0]),\n",
      "   midi.NoteOnEvent(tick=0, channel=8, data=[57, 80]),\n",
      "   midi.NoteOffEvent(tick=192, channel=8, data=[57, 0]),\n",
      "   midi.NoteOnEvent(tick=0, channel=8, data=[62, 80]),\n",
      "   midi.NoteOffEvent(tick=192, channel=8, data=[62, 0]),\n",
      "   midi.NoteOnEvent(tick=0, channel=8, data=[61, 80]),\n",
      "   midi.NoteOffEvent(tick=96, channel=8, data=[61, 0]),\n",
      "   midi.NoteOnEvent(tick=0, channel=8, data=[59, 80]),\n",
      "   midi.NoteOffEvent(tick=96, channel=8, data=[59, 0]),\n",
      "   midi.NoteOnEvent(tick=0, channel=8, data=[57, 80]),\n",
      "   midi.NoteOffEvent(tick=96, channel=8, data=[57, 0]),\n",
      "   midi.NoteOnEvent(tick=0, channel=8, data=[55, 80]),\n",
      "   midi.NoteOffEvent(tick=96, channel=8, data=[55, 0]),\n",
      "   midi.NoteOnEvent(tick=0, channel=8, data=[54, 80]),\n",
      "   midi.NoteOffEvent(tick=96, channel=8, data=[54, 0]),\n",
      "   midi.NoteOnEvent(tick=0, channel=8, data=[52, 80]),\n",
      "   midi.NoteOffEvent(tick=96, channel=8, data=[52, 0]),\n",
      "   midi.NoteOnEvent(tick=0, channel=8, data=[50, 80]),\n",
      "   midi.NoteOffEvent(tick=192, channel=8, data=[50, 0]),\n",
      "   midi.NoteOnEvent(tick=0, channel=8, data=[47, 80]),\n",
      "   midi.NoteOffEvent(tick=192, channel=8, data=[47, 0]),\n",
      "   midi.NoteOnEvent(tick=0, channel=8, data=[43, 80]),\n",
      "   midi.NoteOffEvent(tick=192, channel=8, data=[43, 0]),\n",
      "   midi.NoteOnEvent(tick=0, channel=8, data=[45, 80]),\n",
      "   midi.NoteOffEvent(tick=192, channel=8, data=[45, 0]),\n",
      "   midi.NoteOnEvent(tick=0, channel=8, data=[38, 80]),\n",
      "   midi.NoteOffEvent(tick=192, channel=8, data=[38, 0]),\n",
      "   midi.NoteOnEvent(tick=0, channel=8, data=[40, 80]),\n",
      "   midi.NoteOffEvent(tick=96, channel=8, data=[40, 0]),\n",
      "   midi.NoteOnEvent(tick=0, channel=8, data=[42, 80]),\n",
      "   midi.NoteOffEvent(tick=96, channel=8, data=[42, 0]),\n",
      "   midi.NoteOnEvent(tick=0, channel=8, data=[43, 80]),\n",
      "   midi.NoteOffEvent(tick=96, channel=8, data=[43, 0]),\n",
      "   midi.NoteOnEvent(tick=0, channel=8, data=[45, 80]),\n",
      "   midi.NoteOffEvent(tick=96, channel=8, data=[45, 0]),\n",
      "   midi.NoteOnEvent(tick=0, channel=8, data=[47, 80]),\n",
      "   midi.NoteOffEvent(tick=96, channel=8, data=[47, 0]),\n",
      "   midi.NoteOnEvent(tick=0, channel=8, data=[49, 80]),\n",
      "   midi.NoteOffEvent(tick=96, channel=8, data=[49, 0]),\n",
      "   midi.NoteOnEvent(tick=0, channel=8, data=[50, 80]),\n",
      "   midi.NoteOffEvent(tick=192, channel=8, data=[50, 0]),\n",
      "   midi.NoteOnEvent(tick=0, channel=8, data=[62, 80]),\n",
      "   midi.NoteOffEvent(tick=192, channel=8, data=[62, 0]),\n",
      "   midi.NoteOnEvent(tick=0, channel=8, data=[59, 80]),\n",
      "   midi.NoteOffEvent(tick=192, channel=8, data=[59, 0]),\n",
      "   midi.NoteOnEvent(tick=0, channel=8, data=[54, 80]),\n",
      "   midi.NoteOffEvent(tick=192, channel=8, data=[54, 0]),\n",
      "   midi.NoteOnEvent(tick=0, channel=8, data=[56, 80]),\n",
      "   midi.NoteOffEvent(tick=192, channel=8, data=[56, 0]),\n",
      "   midi.NoteOnEvent(tick=0, channel=8, data=[52, 80]),\n",
      "   midi.NoteOffEvent(tick=192, channel=8, data=[52, 0]),\n",
      "   midi.NoteOnEvent(tick=0, channel=8, data=[56, 80]),\n",
      "   midi.NoteOffEvent(tick=192, channel=8, data=[56, 0]),\n",
      "   midi.NoteOnEvent(tick=0, channel=8, data=[59, 80]),\n",
      "   midi.NoteOffEvent(tick=192, channel=8, data=[59, 0]),\n",
      "   midi.NoteOnEvent(tick=0, channel=8, data=[49, 80]),\n",
      "   midi.NoteOffEvent(tick=192, channel=8, data=[49, 0]),\n",
      "   midi.NoteOnEvent(tick=0, channel=8, data=[61, 80]),\n",
      "   midi.NoteOffEvent(tick=192, channel=8, data=[61, 0]),\n",
      "   midi.NoteOnEvent(tick=0, channel=8, data=[57, 80]),\n",
      "   midi.NoteOffEvent(tick=192, channel=8, data=[57, 0]),\n",
      "   midi.NoteOnEvent(tick=0, channel=8, data=[52, 80]),\n",
      "   midi.NoteOffEvent(tick=192, channel=8, data=[52, 0]),\n",
      "   midi.NoteOnEvent(tick=0, channel=8, data=[54, 80]),\n",
      "   midi.NoteOffEvent(tick=192, channel=8, data=[54, 0]),\n",
      "   midi.NoteOnEvent(tick=0, channel=8, data=[42, 80]),\n",
      "   midi.NoteOffEvent(tick=192, channel=8, data=[42, 0]),\n",
      "   midi.NoteOnEvent(tick=0, channel=8, data=[54, 80]),\n",
      "   midi.NoteOffEvent(tick=192, channel=8, data=[54, 0]),\n",
      "   midi.NoteOnEvent(tick=0, channel=8, data=[57, 80]),\n",
      "   midi.NoteOffEvent(tick=192, channel=8, data=[57, 0]),\n",
      "   midi.NoteOnEvent(tick=0, channel=8, data=[47, 80]),\n",
      "   midi.NoteOffEvent(tick=192, channel=8, data=[47, 0]),\n",
      "   midi.NoteOnEvent(tick=0, channel=8, data=[59, 80]),\n",
      "   midi.NoteOffEvent(tick=96, channel=8, data=[59, 0]),\n",
      "   midi.NoteOnEvent(tick=0, channel=8, data=[61, 80]),\n",
      "   midi.NoteOffEvent(tick=96, channel=8, data=[61, 0]),\n",
      "   midi.NoteOnEvent(tick=0, channel=8, data=[59, 80]),\n",
      "   midi.NoteOffEvent(tick=96, channel=8, data=[59, 0]),\n",
      "   midi.NoteOnEvent(tick=0, channel=8, data=[57, 80]),\n",
      "   midi.NoteOffEvent(tick=96, channel=8, data=[57, 0]),\n",
      "   midi.NoteOnEvent(tick=0, channel=8, data=[56, 80]),\n",
      "   midi.NoteOffEvent(tick=96, channel=8, data=[56, 0]),\n",
      "   midi.NoteOnEvent(tick=0, channel=8, data=[54, 80]),\n",
      "   midi.NoteOffEvent(tick=96, channel=8, data=[54, 0]),\n",
      "   midi.NoteOnEvent(tick=0, channel=8, data=[56, 80]),\n",
      "   midi.NoteOffEvent(tick=96, channel=8, data=[56, 0]),\n",
      "   midi.NoteOnEvent(tick=0, channel=8, data=[57, 80]),\n",
      "   midi.NoteOffEvent(tick=96, channel=8, data=[57, 0]),\n",
      "   midi.NoteOnEvent(tick=0, channel=8, data=[59, 80]),\n",
      "   midi.NoteOffEvent(tick=96, channel=8, data=[59, 0]),\n",
      "   midi.NoteOnEvent(tick=0, channel=8, data=[57, 80]),\n",
      "   midi.NoteOffEvent(tick=96, channel=8, data=[57, 0]),\n",
      "   midi.NoteOnEvent(tick=0, channel=8, data=[56, 80]),\n",
      "   midi.NoteOffEvent(tick=192, channel=8, data=[56, 0]),\n",
      "   midi.NoteOnEvent(tick=0, channel=8, data=[52, 80]),\n",
      "   midi.NoteOffEvent(tick=192, channel=8, data=[52, 0]),\n",
      "   midi.NoteOnEvent(tick=0, channel=8, data=[57, 80]),\n",
      "   midi.NoteOffEvent(tick=192, channel=8, data=[57, 0]),\n",
      "   midi.NoteOnEvent(tick=0, channel=8, data=[61, 80]),\n",
      "   midi.NoteOffEvent(tick=192, channel=8, data=[61, 0]),\n",
      "   midi.NoteOnEvent(tick=0, channel=8, data=[64, 80]),\n",
      "   midi.NoteOffEvent(tick=192, channel=8, data=[64, 0]),\n",
      "   midi.NoteOnEvent(tick=0, channel=8, data=[52, 80]),\n",
      "   midi.NoteOffEvent(tick=192, channel=8, data=[52, 0]),\n",
      "   midi.NoteOnEvent(tick=0, channel=8, data=[57, 80]),\n",
      "   midi.NoteOffEvent(tick=768, channel=8, data=[57, 0]),\n",
      "   midi.EndOfTrackEvent(tick=0, data=[])]),\n",
      " midi.Track(\\\n",
      "  [midi.ControlChangeEvent(tick=0, channel=5, data=[0, 0]),\n",
      "   midi.ProgramChangeEvent(tick=0, channel=5, data=[65]),\n",
      "   midi.ControlChangeEvent(tick=0, channel=5, data=[7, 127]),\n",
      "   midi.ControlChangeEvent(tick=0, channel=5, data=[10, 62]),\n",
      "   midi.ControlChangeEvent(tick=0, channel=5, data=[91, 127]),\n",
      "   midi.ControlChangeEvent(tick=0, channel=5, data=[93, 127]),\n",
      "   midi.KeySignatureEvent(tick=0, data=[0, 0]),\n",
      "   midi.EndOfTrackEvent(tick=0, data=[])]),\n",
      " midi.Track(\\\n",
      "  [midi.ControlChangeEvent(tick=0, channel=6, data=[0, 0]),\n",
      "   midi.ProgramChangeEvent(tick=0, channel=6, data=[66]),\n",
      "   midi.ControlChangeEvent(tick=0, channel=6, data=[7, 127]),\n",
      "   midi.ControlChangeEvent(tick=0, channel=6, data=[10, 64]),\n",
      "   midi.ControlChangeEvent(tick=0, channel=6, data=[91, 127]),\n",
      "   midi.KeySignatureEvent(tick=0, data=[0, 0]),\n",
      "   midi.EndOfTrackEvent(tick=0, data=[])]),\n",
      " midi.Track(\\\n",
      "  [midi.ControlChangeEvent(tick=0, channel=7, data=[0, 0]),\n",
      "   midi.ProgramChangeEvent(tick=0, channel=7, data=[67]),\n",
      "   midi.ControlChangeEvent(tick=0, channel=7, data=[7, 127]),\n",
      "   midi.ControlChangeEvent(tick=0, channel=7, data=[10, 62]),\n",
      "   midi.ControlChangeEvent(tick=0, channel=7, data=[91, 127]),\n",
      "   midi.KeySignatureEvent(tick=0, data=[0, 0]),\n",
      "   midi.EndOfTrackEvent(tick=0, data=[])]),\n",
      " midi.Track(\\\n",
      "  [midi.ControlChangeEvent(tick=0, channel=8, data=[0, 0]),\n",
      "   midi.ProgramChangeEvent(tick=0, channel=8, data=[19]),\n",
      "   midi.ControlChangeEvent(tick=0, channel=8, data=[7, 110]),\n",
      "   midi.ControlChangeEvent(tick=0, channel=8, data=[10, 63]),\n",
      "   midi.ControlChangeEvent(tick=0, channel=8, data=[91, 127]),\n",
      "   midi.ControlChangeEvent(tick=0, channel=8, data=[93, 127]),\n",
      "   midi.KeySignatureEvent(tick=0, data=[0, 0]),\n",
      "   midi.EndOfTrackEvent(tick=0, data=[])])])\n"
     ]
    }
   ],
   "source": [
    "midi_file = \"/Users/robin/Desktop/CS221_projet/Open_MIDI_file/chor_armure.mid\"\n",
    "mypattern = MusicPattern(midi_file)\n",
    "mypattern.midiToLisp()\n",
    "mypattern.lispToPrim()\n",
    "mypattern.primToLisp()\n",
    "mypattern.lispToMidi()\n",
    "mypattern.write()"
   ]
  },
  {
   "cell_type": "markdown",
   "metadata": {},
   "source": [
    "# Class Bach Chorale"
   ]
  },
  {
   "cell_type": "code",
   "execution_count": 6,
   "metadata": {
    "collapsed": true
   },
   "outputs": [],
   "source": [
    "class BachChorale(MusicPattern):\n",
    "    \"\"\"\n",
    "    This class represents a choral from the Bach dataset\n",
    "    (https://archive.ics.uci.edu/ml/datasets/Bach+Chorales)\n",
    "    It provides methods to read from disk and write as .mid\n",
    "    \"\"\"\n",
    "\n",
    "    def __init__(self, choraleFile, choraleNum):\n",
    "        \"\"\"\n",
    "        This constructor loads the choraleNum th chorale\n",
    "        from the choraleFile file and stores the pitches\n",
    "        and durations into the self.notes variable\n",
    "        \"\"\"\n",
    "        self.choraleFile = choraleFile\n",
    "        self.choraleNum  = ((int(choraleNum)-1) % 100) + 1\n",
    "        self.features    = [\"pitch\", \"dur\"]\n",
    "        self.numTracks   = 1\n",
    "        self.lispTracks  = [[]]\n",
    "        self.midiPattern = None\n",
    "\n",
    "        with open(self.choraleFile, 'r') as f:\n",
    "            line = f.readlines()[2*(self.choraleNum-1)]\n",
    "            choraleIdEndPosition = line.find('(', 1)\n",
    "            self.choraleId = int(line[1:choraleIdEndPosition-1])\n",
    "\n",
    "            N = len(self.features)\n",
    "            featurePosition = line.find(self.features[0], 0)\n",
    "            valueEndPosition = line.find(')', featurePosition)\n",
    "            while featurePosition >= 0:\n",
    "                note = []\n",
    "                for i, feature in enumerate(self.features):\n",
    "                    val = int(line[(featurePosition+len(feature)+1):valueEndPosition])\n",
    "                    if feature == \"dur\": val *= 64\n",
    "                    note += [val]\n",
    "\n",
    "                    featurePosition = line.find(self.features[(i+1) % N], valueEndPosition)\n",
    "                    valueEndPosition = line.find(')', featurePosition)\n",
    "                self.lispTracks[0] += [tuple(note)]\n",
    "\n",
    "    def __repr__(self):\n",
    "        \"\"\"\n",
    "        Displays chorale metadata and notes\n",
    "        \"\"\"\n",
    "        ret = \"Bach Chorale %d (line %d in file %s)\\n\" % \\\n",
    "        (self.choraleId, 2*self.choraleNum + 1, self.choraleFile)\n",
    "        ret += \"pitch   dur\\n\"\n",
    "        for note in self.lispTracks[0]:\n",
    "            ret += \"   %2d    %2d\\n\" % note\n",
    "        return ret"
   ]
  }
 ],
 "metadata": {
  "kernelspec": {
   "display_name": "Python 2",
   "language": "python",
   "name": "python2"
  },
  "language_info": {
   "codemirror_mode": {
    "name": "ipython",
    "version": 2
   },
   "file_extension": ".py",
   "mimetype": "text/x-python",
   "name": "python",
   "nbconvert_exporter": "python",
   "pygments_lexer": "ipython2",
   "version": "2.7.14"
  }
 },
 "nbformat": 4,
 "nbformat_minor": 2
}
